<?xml version="1.0" encoding="UTF-8" standalone="no"?>
<!DOCTYPE svg PUBLIC "-//W3C//DTD SVG 1.1//EN"
 "http://www.w3.org/Graphics/SVG/1.1/DTD/svg11.dtd">
<!-- Generated by graphviz version 2.44.0 (0)
 -->
<!-- Title: gr&#45;0&#45;0002&#45;dplane Pages: 1 -->
<svg width="1797pt" height="839pt"
 viewBox="0.00 0.00 1796.98 839.00" xmlns="http://www.w3.org/2000/svg" xmlns:xlink="http://www.w3.org/1999/xlink">
<g id="graph0" class="graph" transform="scale(1 1) rotate(0) translate(4 835)">
<title>gr&#45;0&#45;0002&#45;dplane</title>
<polygon fill="white" stroke="transparent" points="-4,4 -4,-835 1792.98,-835 1792.98,4 -4,4"/>
<!-- control_input -->
<g id="node1" class="node">
<title>control_input</title>
<ellipse fill="none" stroke="blue" stroke-width="2" cx="40.16" cy="-353" rx="40.32" ry="18"/>
<text text-anchor="middle" x="40.16" y="-350.2" font-family="sans" font-size="11.00">control_input</text>
</g>
<!-- loopback_input -->
<g id="node2" class="node">
<title>loopback_input</title>
<ellipse fill="none" stroke="black" cx="161.91" cy="-376" rx="45.68" ry="18"/>
<text text-anchor="middle" x="161.91" y="-373.2" font-family="sans" font-size="11.00">loopback_input</text>
</g>
<!-- control_input&#45;&gt;loopback_input -->
<g id="edge1" class="edge">
<title>control_input&#45;&gt;loopback_input</title>
<path fill="none" stroke="blue" stroke-width="2" d="M77.42,-359.96C87.85,-361.97 99.43,-364.19 110.55,-366.33"/>
<polygon fill="blue" stroke="blue" stroke-width="2" points="110.12,-369.81 120.6,-368.26 111.44,-362.93 110.12,-369.81"/>
</g>
<!-- arp_output_request -->
<g id="node3" class="node">
<title>arp_output_request</title>
<ellipse fill="none" stroke="black" cx="704.81" cy="-433" rx="59.31" ry="18"/>
<text text-anchor="middle" x="704.81" y="-430.2" font-family="sans" font-size="11.00">arp_output_request</text>
</g>
<!-- control_input&#45;&gt;arp_output_request -->
<g id="edge2" class="edge">
<title>control_input&#45;&gt;arp_output_request</title>
<path fill="none" stroke="blue" stroke-width="2" d="M60.98,-368.43C102.2,-398.93 201.2,-464 295.69,-464 295.69,-464 295.69,-464 431.38,-464 504.87,-464 588.81,-452.72 643.86,-443.77"/>
<polygon fill="blue" stroke="blue" stroke-width="2" points="644.5,-447.22 653.79,-442.13 643.36,-440.31 644.5,-447.22"/>
</g>
<!-- icmp_local_send -->
<g id="node4" class="node">
<title>icmp_local_send</title>
<ellipse fill="none" stroke="black" cx="560.27" cy="-664" rx="49.28" ry="18"/>
<text text-anchor="middle" x="560.27" y="-661.2" font-family="sans" font-size="11.00">icmp_local_send</text>
</g>
<!-- control_input&#45;&gt;icmp_local_send -->
<g id="edge3" class="edge">
<title>control_input&#45;&gt;icmp_local_send</title>
<path fill="none" stroke="blue" stroke-width="2" d="M47.64,-370.73C58.19,-397.38 81.48,-447.84 116.32,-478 234.73,-580.49 417.73,-632.7 506.87,-653.25"/>
<polygon fill="blue" stroke="blue" stroke-width="2" points="506.22,-656.69 516.75,-655.48 507.77,-649.86 506.22,-656.69"/>
</g>
<!-- icmp6_local_send -->
<g id="node5" class="node">
<title>icmp6_local_send</title>
<ellipse fill="none" stroke="black" cx="296.69" cy="-264" rx="53.37" ry="18"/>
<text text-anchor="middle" x="296.69" y="-261.2" font-family="sans" font-size="11.00">icmp6_local_send</text>
</g>
<!-- control_input&#45;&gt;icmp6_local_send -->
<g id="edge4" class="edge">
<title>control_input&#45;&gt;icmp6_local_send</title>
<path fill="none" stroke="blue" stroke-width="2" d="M72.37,-342.09C116.64,-326.61 197.99,-298.16 249.33,-280.21"/>
<polygon fill="blue" stroke="blue" stroke-width="2" points="250.58,-283.48 258.86,-276.88 248.27,-276.87 250.58,-283.48"/>
</g>
<!-- ndp_ns_output -->
<g id="node6" class="node">
<title>ndp_ns_output</title>
<ellipse fill="none" stroke="black" cx="430.38" cy="-46" rx="44.51" ry="18"/>
<text text-anchor="middle" x="430.38" y="-43.2" font-family="sans" font-size="11.00">ndp_ns_output</text>
</g>
<!-- control_input&#45;&gt;ndp_ns_output -->
<g id="edge5" class="edge">
<title>control_input&#45;&gt;ndp_ns_output</title>
<path fill="none" stroke="blue" stroke-width="2" d="M60.27,-337.4C75.43,-325.04 97.19,-307.36 116.32,-292 235.61,-196.25 264.34,-170.89 385.87,-78 390.25,-74.65 394.91,-71.16 399.49,-67.76"/>
<polygon fill="blue" stroke="blue" stroke-width="2" points="401.6,-70.55 407.57,-61.8 397.45,-64.92 401.6,-70.55"/>
</g>
<!-- ip6_output -->
<g id="node7" class="node">
<title>ip6_output</title>
<ellipse fill="none" stroke="black" cx="1493.38" cy="-300" rx="32.63" ry="18"/>
<text text-anchor="middle" x="1493.38" y="-297.2" font-family="sans" font-size="11.00">ip6_output</text>
</g>
<!-- control_input&#45;&gt;ip6_output -->
<g id="edge6" class="edge">
<title>control_input&#45;&gt;ip6_output</title>
<path fill="none" stroke="blue" stroke-width="2" d="M44.77,-335.01C60.34,-263.07 128.71,0 295.69,0 295.69,0 295.69,0 1260.11,0 1396.97,0 1464.68,-197.63 1485.33,-272.08"/>
<polygon fill="blue" stroke="blue" stroke-width="2" points="1482.06,-273.39 1488.04,-282.13 1488.82,-271.57 1482.06,-273.39"/>
</g>
<!-- ip_input -->
<g id="node10" class="node">
<title>ip_input</title>
<ellipse fill="none" stroke="black" cx="560.27" cy="-548" rx="27" ry="18"/>
<text text-anchor="middle" x="560.27" y="-545.2" font-family="sans" font-size="11.00">ip_input</text>
</g>
<!-- loopback_input&#45;&gt;ip_input -->
<g id="edge12" class="edge">
<title>loopback_input&#45;&gt;ip_input</title>
<path fill="none" stroke="black" d="M193.35,-389.21C266.74,-421.06 452.83,-501.81 527.52,-534.23"/>
<polygon fill="black" stroke="black" points="526.32,-537.52 536.89,-538.29 529.11,-531.1 526.32,-537.52"/>
</g>
<!-- ip6_input -->
<g id="node11" class="node">
<title>ip6_input</title>
<ellipse fill="none" stroke="black" cx="296.69" cy="-376" rx="28.44" ry="18"/>
<text text-anchor="middle" x="296.69" y="-373.2" font-family="sans" font-size="11.00">ip6_input</text>
</g>
<!-- loopback_input&#45;&gt;ip6_input -->
<g id="edge13" class="edge">
<title>loopback_input&#45;&gt;ip6_input</title>
<path fill="none" stroke="black" d="M207.86,-376C224.12,-376 242.3,-376 257.89,-376"/>
<polygon fill="black" stroke="black" points="258.21,-379.5 268.21,-376 258.21,-372.5 258.21,-379.5"/>
</g>
<!-- eth_output -->
<g id="node12" class="node">
<title>eth_output</title>
<ellipse fill="none" stroke="black" cx="1615.13" cy="-595" rx="33.8" ry="18"/>
<text text-anchor="middle" x="1615.13" y="-592.2" font-family="sans" font-size="11.00">eth_output</text>
</g>
<!-- arp_output_request&#45;&gt;eth_output -->
<g id="edge24" class="edge">
<title>arp_output_request&#45;&gt;eth_output</title>
<path fill="none" stroke="black" d="M760.14,-426.44C925.91,-407.6 1421.5,-360.39 1545.48,-453 1582.7,-480.8 1600.74,-534.11 1608.67,-566.91"/>
<polygon fill="black" stroke="black" points="1605.28,-567.8 1610.9,-576.79 1612.11,-566.26 1605.28,-567.8"/>
</g>
<!-- icmp_output -->
<g id="node26" class="node">
<title>icmp_output</title>
<ellipse fill="none" stroke="black" cx="1122.7" cy="-549" rx="37.98" ry="18"/>
<text text-anchor="middle" x="1122.7" y="-546.2" font-family="sans" font-size="11.00">icmp_output</text>
</g>
<!-- icmp_local_send&#45;&gt;icmp_output -->
<g id="edge28" class="edge">
<title>icmp_local_send&#45;&gt;icmp_output</title>
<path fill="none" stroke="black" d="M607.06,-670.07C693.52,-679.51 884.93,-690.67 1028.09,-628 1056.56,-615.54 1083.03,-591.56 1100.5,-573.28"/>
<polygon fill="black" stroke="black" points="1103.18,-575.55 1107.42,-565.84 1098.05,-570.78 1103.18,-575.55"/>
</g>
<!-- icmp6_output -->
<g id="node37" class="node">
<title>icmp6_output</title>
<ellipse fill="none" stroke="black" cx="1259.11" cy="-151" rx="41.58" ry="18"/>
<text text-anchor="middle" x="1259.11" y="-148.2" font-family="sans" font-size="11.00">icmp6_output</text>
</g>
<!-- icmp6_local_send&#45;&gt;icmp6_output -->
<g id="edge51" class="edge">
<title>icmp6_local_send&#45;&gt;icmp6_output</title>
<path fill="none" stroke="black" d="M307.16,-246.2C327.3,-208.67 373.5,-124.2 385.87,-116 450.71,-73.01 481.47,-92 559.27,-92 559.27,-92 559.27,-92 974.28,-92 1061.69,-92 1161.14,-119.16 1216.06,-136.62"/>
<polygon fill="black" stroke="black" points="1215.19,-140.02 1225.78,-139.76 1217.34,-133.36 1215.19,-140.02"/>
</g>
<!-- ndp_ns_output&#45;&gt;icmp6_output -->
<g id="edge66" class="edge">
<title>ndp_ns_output&#45;&gt;icmp6_output</title>
<path fill="none" stroke="black" d="M474.77,-48.06C528.52,-50.43 622.9,-54 703.81,-54 703.81,-54 703.81,-54 974.28,-54 1066.91,-54 1097.42,-38.73 1181.32,-78 1204.51,-88.86 1225.19,-109.49 1239.23,-126.06"/>
<polygon fill="black" stroke="black" points="1236.53,-128.29 1245.57,-133.81 1241.94,-123.85 1236.53,-128.29"/>
</g>
<!-- ip6_output&#45;&gt;eth_output -->
<g id="edge60" class="edge">
<title>ip6_output&#45;&gt;eth_output</title>
<path fill="none" stroke="black" d="M1504.42,-317.13C1515.37,-336.22 1532.98,-368.19 1545.48,-397 1571.16,-456.19 1594.2,-528.38 1605.94,-567.16"/>
<polygon fill="black" stroke="black" points="1602.72,-568.61 1608.94,-577.18 1609.42,-566.59 1602.72,-568.61"/>
</g>
<!-- sr6_output -->
<g id="node31" class="node">
<title>sr6_output</title>
<ellipse fill="none" stroke="black" cx="1371.09" cy="-365" rx="33.21" ry="18"/>
<text text-anchor="middle" x="1371.09" y="-362.2" font-family="sans" font-size="11.00">sr6_output</text>
</g>
<!-- ip6_output&#45;&gt;sr6_output -->
<g id="edge62" class="edge">
<title>ip6_output&#45;&gt;sr6_output</title>
<path fill="none" stroke="black" d="M1474.25,-314.79C1457.02,-325.88 1430.6,-340.58 1408.94,-351.36"/>
<polygon fill="black" stroke="black" points="1407.15,-348.35 1399.69,-355.87 1410.21,-354.64 1407.15,-348.35"/>
</g>
<!-- ip6_hold -->
<g id="node42" class="node">
<title>ip6_hold</title>
<ellipse fill="none" stroke="black" cx="1615.13" cy="-277" rx="27" ry="18"/>
<text text-anchor="middle" x="1615.13" y="-274.2" font-family="sans" font-size="11.00">ip6_hold</text>
</g>
<!-- ip6_output&#45;&gt;ip6_hold -->
<g id="edge61" class="edge">
<title>ip6_output&#45;&gt;ip6_hold</title>
<path fill="none" stroke="black" d="M1524.29,-294.26C1540.81,-291.08 1561.44,-287.12 1578.75,-283.79"/>
<polygon fill="black" stroke="black" points="1579.88,-287.14 1589.05,-281.82 1578.56,-280.27 1579.88,-287.14"/>
</g>
<!-- eth_input -->
<g id="node8" class="node">
<title>eth_input</title>
<ellipse fill="none" stroke="black" cx="161.91" cy="-682" rx="29.12" ry="18"/>
<text text-anchor="middle" x="161.91" y="-679.2" font-family="sans" font-size="11.00">eth_input</text>
</g>
<!-- arp_input -->
<g id="node9" class="node">
<title>arp_input</title>
<ellipse fill="none" stroke="black" cx="841.21" cy="-731" rx="29.12" ry="18"/>
<text text-anchor="middle" x="841.21" y="-728.2" font-family="sans" font-size="11.00">arp_input</text>
</g>
<!-- eth_input&#45;&gt;arp_input -->
<g id="edge7" class="edge">
<title>eth_input&#45;&gt;arp_input</title>
<path fill="none" stroke="black" d="M188.76,-689.33C236.09,-702.08 340,-727 429.38,-727 429.38,-727 429.38,-727 561.27,-727 647.08,-727 747.74,-728.92 801.58,-730.1"/>
<polygon fill="black" stroke="black" points="801.63,-733.6 811.7,-730.32 801.79,-726.6 801.63,-733.6"/>
</g>
<!-- eth_input&#45;&gt;ip_input -->
<g id="edge8" class="edge">
<title>eth_input&#45;&gt;ip_input</title>
<path fill="none" stroke="black" d="M188.01,-673.52C256.73,-650.28 448.04,-585.6 525.78,-559.32"/>
<polygon fill="black" stroke="black" points="527.19,-562.54 535.54,-556.02 524.95,-555.91 527.19,-562.54"/>
</g>
<!-- eth_input&#45;&gt;ip6_input -->
<g id="edge9" class="edge">
<title>eth_input&#45;&gt;ip6_input</title>
<path fill="none" stroke="black" d="M170.43,-664.67C192.52,-613.77 257.31,-464.44 284,-402.94"/>
<polygon fill="black" stroke="black" points="287.32,-404.08 288.09,-393.52 280.89,-401.3 287.32,-404.08"/>
</g>
<!-- arp_input_request -->
<g id="node20" class="node">
<title>arp_input_request</title>
<ellipse fill="none" stroke="black" cx="973.28" cy="-785" rx="54.63" ry="18"/>
<text text-anchor="middle" x="973.28" y="-782.2" font-family="sans" font-size="11.00">arp_input_request</text>
</g>
<!-- arp_input&#45;&gt;arp_input_request -->
<g id="edge19" class="edge">
<title>arp_input&#45;&gt;arp_input_request</title>
<path fill="none" stroke="black" d="M866.07,-740.9C883.62,-748.19 907.97,-758.3 928.93,-767"/>
<polygon fill="black" stroke="black" points="927.71,-770.28 938.28,-770.89 930.39,-763.82 927.71,-770.28"/>
</g>
<!-- arp_input_reply -->
<g id="node21" class="node">
<title>arp_input_reply</title>
<ellipse fill="none" stroke="black" cx="973.28" cy="-731" rx="47.43" ry="18"/>
<text text-anchor="middle" x="973.28" y="-728.2" font-family="sans" font-size="11.00">arp_input_reply</text>
</g>
<!-- arp_input&#45;&gt;arp_input_reply -->
<g id="edge20" class="edge">
<title>arp_input&#45;&gt;arp_input_reply</title>
<path fill="none" stroke="black" d="M870.76,-731C884.01,-731 900.24,-731 915.81,-731"/>
<polygon fill="black" stroke="black" points="915.91,-734.5 925.91,-731 915.91,-727.5 915.91,-734.5"/>
</g>
<!-- ip_output -->
<g id="node17" class="node">
<title>ip_output</title>
<ellipse fill="none" stroke="black" cx="1259.11" cy="-549" rx="29.12" ry="18"/>
<text text-anchor="middle" x="1259.11" y="-546.2" font-family="sans" font-size="11.00">ip_output</text>
</g>
<!-- ip_input&#45;&gt;ip_output -->
<g id="edge33" class="edge">
<title>ip_input&#45;&gt;ip_output</title>
<path fill="none" stroke="black" d="M580.72,-560.14C624.99,-586.58 737.44,-647 840.21,-647 840.21,-647 840.21,-647 974.28,-647 1071.94,-647 1178.66,-594.52 1228.88,-566.37"/>
<polygon fill="black" stroke="black" points="1230.63,-569.4 1237.59,-561.41 1227.17,-563.32 1230.63,-569.4"/>
</g>
<!-- dnat44 -->
<g id="node22" class="node">
<title>dnat44</title>
<ellipse fill="none" stroke="black" cx="704.81" cy="-525" rx="27" ry="18"/>
<text text-anchor="middle" x="704.81" y="-522.2" font-family="sans" font-size="11.00">dnat44</text>
</g>
<!-- ip_input&#45;&gt;dnat44 -->
<g id="edge35" class="edge">
<title>ip_input&#45;&gt;dnat44</title>
<path fill="none" stroke="black" d="M586.75,-543.89C609.41,-540.23 642.79,-534.85 668.11,-530.76"/>
<polygon fill="black" stroke="black" points="668.75,-534.2 678.07,-529.15 667.64,-527.29 668.75,-534.2"/>
</g>
<!-- ip_forward -->
<g id="node23" class="node">
<title>ip_forward</title>
<ellipse fill="none" stroke="black" cx="841.21" cy="-497" rx="32.63" ry="18"/>
<text text-anchor="middle" x="841.21" y="-494.2" font-family="sans" font-size="11.00">ip_forward</text>
</g>
<!-- ip_input&#45;&gt;ip_forward -->
<g id="edge32" class="edge">
<title>ip_input&#45;&gt;ip_forward</title>
<path fill="none" stroke="black" d="M578.12,-534.32C594.32,-522.1 620.05,-505.09 645.65,-498 697.2,-483.73 759.42,-486.73 799.39,-491.1"/>
<polygon fill="black" stroke="black" points="799.2,-494.6 809.54,-492.29 800.02,-487.65 799.2,-494.6"/>
</g>
<!-- ip_input_local -->
<g id="node24" class="node">
<title>ip_input_local</title>
<ellipse fill="none" stroke="black" cx="841.21" cy="-551" rx="41.49" ry="18"/>
<text text-anchor="middle" x="841.21" y="-548.2" font-family="sans" font-size="11.00">ip_input_local</text>
</g>
<!-- ip_input&#45;&gt;ip_input_local -->
<g id="edge34" class="edge">
<title>ip_input&#45;&gt;ip_input_local</title>
<path fill="none" stroke="black" d="M587.48,-549.56C604.14,-550.48 626.15,-551.54 645.65,-552 698.22,-553.25 711.38,-552.34 763.97,-552 772.25,-551.95 781.04,-551.86 789.59,-551.76"/>
<polygon fill="black" stroke="black" points="789.9,-555.25 799.85,-551.63 789.81,-548.25 789.9,-555.25"/>
</g>
<!-- ip6_input&#45;&gt;ip6_output -->
<g id="edge55" class="edge">
<title>ip6_input&#45;&gt;ip6_output</title>
<path fill="none" stroke="black" d="M309.92,-359.86C352,-305.13 491.94,-130 559.27,-130 559.27,-130 559.27,-130 705.81,-130 870.44,-130 903.29,-188.7 1064.09,-224 1205.51,-255.05 1375.34,-282.22 1451.69,-293.91"/>
<polygon fill="black" stroke="black" points="1451.42,-297.4 1461.84,-295.45 1452.48,-290.48 1451.42,-297.4"/>
</g>
<!-- ip6_forward -->
<g id="node41" class="node">
<title>ip6_forward</title>
<ellipse fill="none" stroke="black" cx="430.38" cy="-326" rx="35.64" ry="18"/>
<text text-anchor="middle" x="430.38" y="-323.2" font-family="sans" font-size="11.00">ip6_forward</text>
</g>
<!-- ip6_input&#45;&gt;ip6_forward -->
<g id="edge54" class="edge">
<title>ip6_input&#45;&gt;ip6_forward</title>
<path fill="none" stroke="black" d="M321.23,-367.06C340.69,-359.67 368.71,-349.04 391.34,-340.44"/>
<polygon fill="black" stroke="black" points="392.89,-343.6 401,-336.78 390.41,-337.05 392.89,-343.6"/>
</g>
<!-- ip6_input_local -->
<g id="node43" class="node">
<title>ip6_input_local</title>
<ellipse fill="none" stroke="black" cx="560.27" cy="-395" rx="45.09" ry="18"/>
<text text-anchor="middle" x="560.27" y="-392.2" font-family="sans" font-size="11.00">ip6_input_local</text>
</g>
<!-- ip6_input&#45;&gt;ip6_input_local -->
<g id="edge56" class="edge">
<title>ip6_input&#45;&gt;ip6_input_local</title>
<path fill="none" stroke="black" d="M325.19,-378C367.82,-381.09 450.67,-387.11 505.49,-391.09"/>
<polygon fill="black" stroke="black" points="505.49,-394.6 515.72,-391.84 506,-387.62 505.49,-394.6"/>
</g>
<!-- sr6_local -->
<g id="node44" class="node">
<title>sr6_local</title>
<ellipse fill="none" stroke="black" cx="430.38" cy="-418" rx="27.86" ry="18"/>
<text text-anchor="middle" x="430.38" y="-415.2" font-family="sans" font-size="11.00">sr6_local</text>
</g>
<!-- ip6_input&#45;&gt;sr6_local -->
<g id="edge57" class="edge">
<title>ip6_input&#45;&gt;sr6_local</title>
<path fill="none" stroke="black" d="M324.65,-379.03C346.42,-384.46 377.01,-394.16 399.51,-402.71"/>
<polygon fill="black" stroke="black" points="398.32,-406.01 408.91,-406.42 400.89,-399.5 398.32,-406.01"/>
</g>
<!-- port_tx -->
<g id="node13" class="node">
<title>port_tx</title>
<ellipse fill="none" stroke="black" cx="1736.88" cy="-714" rx="27" ry="18"/>
<text text-anchor="middle" x="1736.88" y="-711.2" font-family="sans" font-size="11.00">port_tx</text>
</g>
<!-- eth_output&#45;&gt;port_tx -->
<g id="edge10" class="edge">
<title>eth_output&#45;&gt;port_tx</title>
<path fill="none" stroke="black" d="M1632.28,-611.05C1653.36,-632 1690.35,-668.76 1713.96,-692.21"/>
<polygon fill="black" stroke="black" points="1711.55,-694.76 1721.11,-699.32 1716.49,-689.79 1711.55,-694.76"/>
</g>
<!-- l1_xconnect -->
<g id="node14" class="node">
<title>l1_xconnect</title>
<ellipse fill="none" stroke="black" cx="296.69" cy="-802" rx="36.23" ry="18"/>
<text text-anchor="middle" x="296.69" y="-799.2" font-family="sans" font-size="11.00">l1_xconnect</text>
</g>
<!-- l1_xconnect&#45;&gt;port_tx -->
<g id="edge11" class="edge">
<title>l1_xconnect&#45;&gt;port_tx</title>
<path fill="none" stroke="black" d="M331,-808.08C380.58,-816.58 476.79,-831 559.27,-831 559.27,-831 559.27,-831 1494.38,-831 1581.77,-831 1670.75,-768.18 1712.07,-734.61"/>
<polygon fill="black" stroke="black" points="1714.45,-737.19 1719.92,-728.11 1709.99,-731.79 1714.45,-737.19"/>
</g>
<!-- port_rx -->
<g id="node15" class="node">
<title>port_rx</title>
<ellipse fill="none" stroke="blue" stroke-width="2" cx="40.16" cy="-705" rx="27" ry="18"/>
<text text-anchor="middle" x="40.16" y="-702.2" font-family="sans" font-size="11.00">port_rx</text>
</g>
<!-- port_rx&#45;&gt;eth_input -->
<g id="edge14" class="edge">
<title>port_rx&#45;&gt;eth_input</title>
<path fill="none" stroke="blue" stroke-width="2" d="M66.26,-700.18C82.93,-696.98 105.1,-692.72 123.79,-689.13"/>
<polygon fill="blue" stroke="blue" stroke-width="2" points="124.6,-692.54 133.76,-687.22 123.28,-685.66 124.6,-692.54"/>
</g>
<!-- port_rx&#45;&gt;l1_xconnect -->
<g id="edge15" class="edge">
<title>port_rx&#45;&gt;l1_xconnect</title>
<path fill="none" stroke="blue" stroke-width="2" d="M64.2,-713.78C108.09,-730.51 204.09,-767.09 257.65,-787.5"/>
<polygon fill="blue" stroke="blue" stroke-width="2" points="256.54,-790.83 267.13,-791.12 259.04,-784.29 256.54,-790.83"/>
</g>
<!-- nh4_unreachable -->
<g id="node16" class="node">
<title>nh4_unreachable</title>
<ellipse fill="none" stroke="black" cx="1493.38" cy="-480" rx="52.2" ry="18"/>
<text text-anchor="middle" x="1493.38" y="-477.2" font-family="sans" font-size="11.00">nh4_unreachable</text>
</g>
<!-- nh4_unreachable&#45;&gt;ip_output -->
<g id="edge16" class="edge">
<title>nh4_unreachable&#45;&gt;ip_output</title>
<path fill="none" stroke="black" d="M1450.56,-490.4C1419.12,-498.43 1375.08,-510.15 1336.9,-522 1322.81,-526.37 1307.44,-531.67 1294.18,-536.41"/>
<polygon fill="black" stroke="black" points="1292.72,-533.21 1284.51,-539.9 1295.1,-539.8 1292.72,-533.21"/>
</g>
<!-- ip_output&#45;&gt;eth_output -->
<g id="edge39" class="edge">
<title>ip_output&#45;&gt;eth_output</title>
<path fill="none" stroke="black" d="M1283.5,-559.08C1298.48,-565.07 1318.49,-572.21 1336.9,-576 1418.57,-592.83 1516.35,-595.6 1571.24,-595.62"/>
<polygon fill="black" stroke="black" points="1571.32,-599.12 1581.31,-595.59 1571.3,-592.12 1571.32,-599.12"/>
</g>
<!-- ip_hold -->
<g id="node27" class="node">
<title>ip_hold</title>
<ellipse fill="none" stroke="black" cx="1371.09" cy="-457" rx="27" ry="18"/>
<text text-anchor="middle" x="1371.09" y="-454.2" font-family="sans" font-size="11.00">ip_hold</text>
</g>
<!-- ip_output&#45;&gt;ip_hold -->
<g id="edge40" class="edge">
<title>ip_output&#45;&gt;ip_hold</title>
<path fill="none" stroke="black" d="M1277.29,-534.62C1295.64,-519.28 1324.87,-494.83 1345.62,-477.47"/>
<polygon fill="black" stroke="black" points="1347.96,-480.07 1353.38,-470.97 1343.47,-474.7 1347.96,-480.07"/>
</g>
<!-- ipip_output -->
<g id="node30" class="node">
<title>ipip_output</title>
<ellipse fill="none" stroke="black" cx="1371.09" cy="-549" rx="34.38" ry="18"/>
<text text-anchor="middle" x="1371.09" y="-546.2" font-family="sans" font-size="11.00">ipip_output</text>
</g>
<!-- ip_output&#45;&gt;ipip_output -->
<g id="edge41" class="edge">
<title>ip_output&#45;&gt;ipip_output</title>
<path fill="none" stroke="black" d="M1287.01,-543.1C1299.48,-542.27 1314.58,-542.05 1328.46,-542.43"/>
<polygon fill="black" stroke="black" points="1328.65,-545.94 1338.78,-542.84 1328.93,-538.95 1328.65,-545.94"/>
</g>
<!-- ip_output&#45;&gt;sr6_output -->
<g id="edge42" class="edge">
<title>ip_output&#45;&gt;sr6_output</title>
<path fill="none" stroke="black" d="M1270.26,-532.02C1289.52,-499.79 1331.51,-429.54 1354.42,-391.22"/>
<polygon fill="black" stroke="black" points="1357.68,-392.59 1359.8,-382.21 1351.67,-388.99 1357.68,-392.59"/>
</g>
<!-- arp_probe -->
<g id="node18" class="node">
<title>arp_probe</title>
<ellipse fill="none" stroke="black" cx="1122.7" cy="-712" rx="30.87" ry="18"/>
<text text-anchor="middle" x="1122.7" y="-709.2" font-family="sans" font-size="11.00">arp_probe</text>
</g>
<!-- arp_probe&#45;&gt;ip_output -->
<g id="edge17" class="edge">
<title>arp_probe&#45;&gt;ip_output</title>
<path fill="none" stroke="black" d="M1141.88,-697.86C1153.78,-688.16 1169.29,-674.61 1181.32,-661 1205.57,-633.55 1228.67,-598.16 1243.08,-574.59"/>
<polygon fill="black" stroke="black" points="1246.17,-576.24 1248.35,-565.87 1240.18,-572.62 1246.17,-576.24"/>
</g>
<!-- arp_output_reply -->
<g id="node19" class="node">
<title>arp_output_reply</title>
<ellipse fill="none" stroke="black" cx="1493.38" cy="-659" rx="51.62" ry="18"/>
<text text-anchor="middle" x="1493.38" y="-656.2" font-family="sans" font-size="11.00">arp_output_reply</text>
</g>
<!-- arp_probe&#45;&gt;arp_output_reply -->
<g id="edge18" class="edge">
<title>arp_probe&#45;&gt;arp_output_reply</title>
<path fill="none" stroke="black" d="M1152.94,-707.8C1213.82,-699.05 1355.14,-678.73 1434.91,-667.26"/>
<polygon fill="black" stroke="black" points="1435.87,-670.66 1445.27,-665.77 1434.87,-663.73 1435.87,-670.66"/>
</g>
<!-- arp_output_reply&#45;&gt;eth_output -->
<g id="edge23" class="edge">
<title>arp_output_reply&#45;&gt;eth_output</title>
<path fill="none" stroke="black" d="M1522.46,-643.99C1540.2,-634.51 1563.19,-622.23 1581.71,-612.33"/>
<polygon fill="black" stroke="black" points="1583.49,-615.34 1590.66,-607.54 1580.19,-609.17 1583.49,-615.34"/>
</g>
<!-- arp_input_request&#45;&gt;arp_probe -->
<g id="edge22" class="edge">
<title>arp_input_request&#45;&gt;arp_probe</title>
<path fill="none" stroke="black" d="M1004.47,-770.05C1029.12,-757.85 1063.88,-740.63 1089.15,-728.12"/>
<polygon fill="black" stroke="black" points="1090.92,-731.15 1098.33,-723.57 1087.82,-724.87 1090.92,-731.15"/>
</g>
<!-- arp_input_reply&#45;&gt;arp_probe -->
<g id="edge21" class="edge">
<title>arp_input_reply&#45;&gt;arp_probe</title>
<path fill="none" stroke="black" d="M1018.11,-725.35C1038.49,-722.72 1062.54,-719.62 1082.34,-717.07"/>
<polygon fill="black" stroke="black" points="1082.79,-720.54 1092.26,-715.79 1081.9,-713.6 1082.79,-720.54"/>
</g>
<!-- dnat44&#45;&gt;ip_forward -->
<g id="edge25" class="edge">
<title>dnat44&#45;&gt;ip_forward</title>
<path fill="none" stroke="black" d="M730.78,-519.8C750.26,-515.74 777.72,-510.02 800.25,-505.33"/>
<polygon fill="black" stroke="black" points="801.14,-508.72 810.21,-503.25 799.71,-501.86 801.14,-508.72"/>
</g>
<!-- dnat44&#45;&gt;ip_input_local -->
<g id="edge26" class="edge">
<title>dnat44&#45;&gt;ip_input_local</title>
<path fill="none" stroke="black" d="M731.09,-529.89C748.54,-533.27 772.26,-537.86 793.14,-541.89"/>
<polygon fill="black" stroke="black" points="792.63,-545.36 803.11,-543.82 793.96,-538.49 792.63,-545.36"/>
</g>
<!-- ip_forward&#45;&gt;ip_output -->
<g id="edge30" class="edge">
<title>ip_forward&#45;&gt;ip_output</title>
<path fill="none" stroke="black" d="M873.92,-496.56C934.39,-496.34 1070.08,-498.77 1181.32,-522 1195.98,-525.06 1211.66,-530.22 1225.01,-535.21"/>
<polygon fill="black" stroke="black" points="1224.11,-538.61 1234.7,-538.95 1226.64,-532.08 1224.11,-538.61"/>
</g>
<!-- icmp_input -->
<g id="node25" class="node">
<title>icmp_input</title>
<ellipse fill="none" stroke="black" cx="973.28" cy="-547" rx="33.8" ry="18"/>
<text text-anchor="middle" x="973.28" y="-544.2" font-family="sans" font-size="11.00">icmp_input</text>
</g>
<!-- ip_input_local&#45;&gt;icmp_input -->
<g id="edge36" class="edge">
<title>ip_input_local&#45;&gt;icmp_input</title>
<path fill="none" stroke="black" d="M882.65,-549.76C897.44,-549.3 914.21,-548.79 929.21,-548.32"/>
<polygon fill="black" stroke="black" points="929.38,-551.82 939.27,-548.02 929.17,-544.82 929.38,-551.82"/>
</g>
<!-- ipip_input -->
<g id="node28" class="node">
<title>ipip_input</title>
<ellipse fill="none" stroke="black" cx="973.28" cy="-601" rx="29.7" ry="18"/>
<text text-anchor="middle" x="973.28" y="-598.2" font-family="sans" font-size="11.00">ipip_input</text>
</g>
<!-- ip_input_local&#45;&gt;ipip_input -->
<g id="edge37" class="edge">
<title>ip_input_local&#45;&gt;ipip_input</title>
<path fill="none" stroke="black" d="M872.71,-562.72C892.32,-570.26 917.84,-580.07 938.14,-587.88"/>
<polygon fill="black" stroke="black" points="937.04,-591.2 947.63,-591.53 939.55,-584.67 937.04,-591.2"/>
</g>
<!-- l4_input_local -->
<g id="node29" class="node">
<title>l4_input_local</title>
<ellipse fill="none" stroke="black" cx="973.28" cy="-455" rx="41.49" ry="18"/>
<text text-anchor="middle" x="973.28" y="-452.2" font-family="sans" font-size="11.00">l4_input_local</text>
</g>
<!-- ip_input_local&#45;&gt;l4_input_local -->
<g id="edge38" class="edge">
<title>ip_input_local&#45;&gt;l4_input_local</title>
<path fill="none" stroke="black" d="M864.95,-536.12C870.71,-532.24 876.86,-528.03 882.46,-524 903.59,-508.82 926.88,-490.89 944.45,-477.12"/>
<polygon fill="black" stroke="black" points="946.88,-479.65 952.57,-470.72 942.55,-474.15 946.88,-479.65"/>
</g>
<!-- icmp_input&#45;&gt;icmp_output -->
<g id="edge27" class="edge">
<title>icmp_input&#45;&gt;icmp_output</title>
<path fill="none" stroke="black" d="M1006.99,-547.44C1026.84,-547.71 1052.5,-548.06 1074.52,-548.36"/>
<polygon fill="black" stroke="black" points="1074.62,-551.86 1084.67,-548.5 1074.71,-544.86 1074.62,-551.86"/>
</g>
<!-- icmp_output&#45;&gt;ip_output -->
<g id="edge29" class="edge">
<title>icmp_output&#45;&gt;ip_output</title>
<path fill="none" stroke="black" d="M1160.79,-549C1179.06,-549 1201.08,-549 1219.54,-549"/>
<polygon fill="black" stroke="black" points="1219.67,-552.5 1229.67,-549 1219.67,-545.5 1219.67,-552.5"/>
</g>
<!-- ip_hold&#45;&gt;nh4_unreachable -->
<g id="edge31" class="edge">
<title>ip_hold&#45;&gt;nh4_unreachable</title>
<path fill="none" stroke="black" d="M1397.31,-461.82C1408.95,-464.05 1423.26,-466.78 1437.22,-469.45"/>
<polygon fill="black" stroke="black" points="1436.79,-472.93 1447.27,-471.37 1438.1,-466.06 1436.79,-472.93"/>
</g>
<!-- ipip_input&#45;&gt;ip_input -->
<g id="edge68" class="edge">
<title>ipip_input&#45;&gt;ip_input</title>
<path fill="none" stroke="black" d="M943.31,-598.91C886.14,-594.56 754.91,-583.46 645.65,-566 629.19,-563.37 611.09,-559.62 595.89,-556.23"/>
<polygon fill="black" stroke="black" points="596.41,-552.76 585.88,-553.95 594.86,-559.58 596.41,-552.76"/>
</g>
<!-- l4_loopback_output -->
<g id="node45" class="node">
<title>l4_loopback_output</title>
<ellipse fill="none" stroke="black" cx="1122.7" cy="-455" rx="58.73" ry="18"/>
<text text-anchor="middle" x="1122.7" y="-452.2" font-family="sans" font-size="11.00">l4_loopback_output</text>
</g>
<!-- l4_input_local&#45;&gt;l4_loopback_output -->
<g id="edge70" class="edge">
<title>l4_input_local&#45;&gt;l4_loopback_output</title>
<path fill="none" stroke="black" d="M1014.56,-455C1026.72,-455 1040.42,-455 1053.86,-455"/>
<polygon fill="black" stroke="black" points="1054.06,-458.5 1064.06,-455 1054.06,-451.5 1054.06,-458.5"/>
</g>
<!-- ipip_output&#45;&gt;ip_output -->
<g id="edge69" class="edge">
<title>ipip_output&#45;&gt;ip_output</title>
<path fill="none" stroke="black" d="M1338.78,-555.16C1325.89,-555.84 1310.85,-555.93 1297.39,-555.43"/>
<polygon fill="black" stroke="black" points="1297.18,-551.91 1287.01,-554.9 1296.82,-558.9 1297.18,-551.91"/>
</g>
<!-- sr6_output&#45;&gt;ip6_output -->
<g id="edge74" class="edge">
<title>sr6_output&#45;&gt;ip6_output</title>
<path fill="none" stroke="black" d="M1390.36,-350.12C1407.65,-339.01 1434.1,-324.29 1455.74,-313.53"/>
<polygon fill="black" stroke="black" points="1457.52,-316.55 1464.99,-309.03 1454.46,-310.26 1457.52,-316.55"/>
</g>
<!-- nh6_unreachable -->
<g id="node32" class="node">
<title>nh6_unreachable</title>
<ellipse fill="none" stroke="black" cx="1736.88" cy="-300" rx="52.2" ry="18"/>
<text text-anchor="middle" x="1736.88" y="-297.2" font-family="sans" font-size="11.00">nh6_unreachable</text>
</g>
<!-- nh6_unreachable&#45;&gt;ip6_output -->
<g id="edge43" class="edge">
<title>nh6_unreachable&#45;&gt;ip6_output</title>
<path fill="none" stroke="black" d="M1685.23,-302.72C1673.28,-303.25 1660.58,-303.73 1648.78,-304 1618.88,-304.69 1611.38,-304.69 1581.48,-304 1566.62,-303.66 1550.35,-302.99 1535.94,-302.3"/>
<polygon fill="black" stroke="black" points="1535.98,-298.8 1525.82,-301.79 1535.63,-305.79 1535.98,-298.8"/>
</g>
<!-- ndp_probe -->
<g id="node33" class="node">
<title>ndp_probe</title>
<ellipse fill="none" stroke="black" cx="973.28" cy="-266" rx="32.63" ry="18"/>
<text text-anchor="middle" x="973.28" y="-263.2" font-family="sans" font-size="11.00">ndp_probe</text>
</g>
<!-- ndp_probe&#45;&gt;ip6_output -->
<g id="edge45" class="edge">
<title>ndp_probe&#45;&gt;ip6_output</title>
<path fill="none" stroke="black" d="M1005.91,-268.08C1095.35,-273.95 1350.1,-290.66 1450.74,-297.27"/>
<polygon fill="black" stroke="black" points="1450.63,-300.77 1460.84,-297.93 1451.09,-293.78 1450.63,-300.77"/>
</g>
<!-- ndp_na_output -->
<g id="node34" class="node">
<title>ndp_na_output</title>
<ellipse fill="none" stroke="black" cx="1122.7" cy="-197" rx="45.09" ry="18"/>
<text text-anchor="middle" x="1122.7" y="-194.2" font-family="sans" font-size="11.00">ndp_na_output</text>
</g>
<!-- ndp_probe&#45;&gt;ndp_na_output -->
<g id="edge44" class="edge">
<title>ndp_probe&#45;&gt;ndp_na_output</title>
<path fill="none" stroke="black" d="M998.62,-254.61C1021.74,-243.79 1056.85,-227.35 1083.66,-214.81"/>
<polygon fill="black" stroke="black" points="1085.19,-217.95 1092.76,-210.54 1082.22,-211.61 1085.19,-217.95"/>
</g>
<!-- ndp_na_output&#45;&gt;icmp6_output -->
<g id="edge64" class="edge">
<title>ndp_na_output&#45;&gt;icmp6_output</title>
<path fill="none" stroke="black" d="M1157.62,-185.39C1175.37,-179.32 1197.26,-171.83 1216.07,-165.39"/>
<polygon fill="black" stroke="black" points="1217.27,-168.68 1225.59,-162.13 1215,-162.05 1217.27,-168.68"/>
</g>
<!-- ndp_router_solicit -->
<g id="node35" class="node">
<title>ndp_router_solicit</title>
<ellipse fill="none" stroke="black" cx="973.28" cy="-322" rx="53.96" ry="18"/>
<text text-anchor="middle" x="973.28" y="-319.2" font-family="sans" font-size="11.00">ndp_router_solicit</text>
</g>
<!-- icmp6_input -->
<g id="node36" class="node">
<title>icmp6_input</title>
<ellipse fill="none" stroke="black" cx="704.81" cy="-268" rx="37.4" ry="18"/>
<text text-anchor="middle" x="704.81" y="-265.2" font-family="sans" font-size="11.00">icmp6_input</text>
</g>
<!-- icmp6_input&#45;&gt;icmp6_output -->
<g id="edge46" class="edge">
<title>icmp6_input&#45;&gt;icmp6_output</title>
<path fill="none" stroke="black" d="M719.39,-251.15C736.07,-231.82 766.32,-201 799.97,-187 939.05,-129.11 1122.21,-137.03 1208.76,-145.18"/>
<polygon fill="black" stroke="black" points="1208.53,-148.67 1218.82,-146.17 1209.21,-141.7 1208.53,-148.67"/>
</g>
<!-- ndp_ns_input -->
<g id="node38" class="node">
<title>ndp_ns_input</title>
<ellipse fill="none" stroke="black" cx="841.21" cy="-214" rx="40.32" ry="18"/>
<text text-anchor="middle" x="841.21" y="-211.2" font-family="sans" font-size="11.00">ndp_ns_input</text>
</g>
<!-- icmp6_input&#45;&gt;ndp_ns_input -->
<g id="edge47" class="edge">
<title>icmp6_input&#45;&gt;ndp_ns_input</title>
<path fill="none" stroke="black" d="M733.99,-256.68C753.48,-248.85 779.67,-238.32 801.17,-229.69"/>
<polygon fill="black" stroke="black" points="802.71,-232.84 810.68,-225.87 800.1,-226.35 802.71,-232.84"/>
</g>
<!-- ndp_na_input -->
<g id="node39" class="node">
<title>ndp_na_input</title>
<ellipse fill="none" stroke="black" cx="841.21" cy="-268" rx="40.91" ry="18"/>
<text text-anchor="middle" x="841.21" y="-265.2" font-family="sans" font-size="11.00">ndp_na_input</text>
</g>
<!-- icmp6_input&#45;&gt;ndp_na_input -->
<g id="edge48" class="edge">
<title>icmp6_input&#45;&gt;ndp_na_input</title>
<path fill="none" stroke="black" d="M742.54,-268C757.2,-268 774.32,-268 790.1,-268"/>
<polygon fill="black" stroke="black" points="790.23,-271.5 800.23,-268 790.23,-264.5 790.23,-271.5"/>
</g>
<!-- ndp_rs_input -->
<g id="node40" class="node">
<title>ndp_rs_input</title>
<ellipse fill="none" stroke="black" cx="841.21" cy="-322" rx="39.15" ry="18"/>
<text text-anchor="middle" x="841.21" y="-319.2" font-family="sans" font-size="11.00">ndp_rs_input</text>
</g>
<!-- icmp6_input&#45;&gt;ndp_rs_input -->
<g id="edge49" class="edge">
<title>icmp6_input&#45;&gt;ndp_rs_input</title>
<path fill="none" stroke="black" d="M733.99,-279.32C753.61,-287.21 780.03,-297.82 801.61,-306.49"/>
<polygon fill="black" stroke="black" points="800.56,-309.84 811.15,-310.32 803.17,-303.35 800.56,-309.84"/>
</g>
<!-- icmp6_output&#45;&gt;ip6_output -->
<g id="edge50" class="edge">
<title>icmp6_output&#45;&gt;ip6_output</title>
<path fill="none" stroke="black" d="M1288.03,-164.02C1317.94,-178.42 1366.37,-203.03 1405.28,-229 1427.59,-243.89 1451.06,-263.27 1468.01,-278.02"/>
<polygon fill="black" stroke="black" points="1465.95,-280.87 1475.77,-284.84 1470.58,-275.61 1465.95,-280.87"/>
</g>
<!-- ndp_ns_input&#45;&gt;ndp_probe -->
<g id="edge65" class="edge">
<title>ndp_ns_input&#45;&gt;ndp_probe</title>
<path fill="none" stroke="black" d="M871.73,-225.8C891.14,-233.56 916.64,-243.76 937.1,-251.94"/>
<polygon fill="black" stroke="black" points="935.81,-255.19 946.4,-255.65 938.41,-248.69 935.81,-255.19"/>
</g>
<!-- ndp_na_input&#45;&gt;ndp_probe -->
<g id="edge63" class="edge">
<title>ndp_na_input&#45;&gt;ndp_probe</title>
<path fill="none" stroke="black" d="M881.94,-267.39C897.24,-267.15 914.75,-266.88 930.25,-266.65"/>
<polygon fill="black" stroke="black" points="930.67,-270.14 940.61,-266.49 930.56,-263.14 930.67,-270.14"/>
</g>
<!-- ndp_rs_input&#45;&gt;ndp_router_solicit -->
<g id="edge67" class="edge">
<title>ndp_rs_input&#45;&gt;ndp_router_solicit</title>
<path fill="none" stroke="black" d="M880.53,-322C889.54,-322 899.38,-322 909.16,-322"/>
<polygon fill="black" stroke="black" points="909.29,-325.5 919.29,-322 909.29,-318.5 909.29,-325.5"/>
</g>
<!-- ip6_forward&#45;&gt;ip6_output -->
<g id="edge52" class="edge">
<title>ip6_forward&#45;&gt;ip6_output</title>
<path fill="none" stroke="black" d="M465.9,-328.87C531.11,-334.14 676.92,-345.16 799.97,-349 901.31,-352.16 926.84,-354.33 1028.09,-349 1185.15,-340.74 1370.86,-316.85 1451.55,-305.77"/>
<polygon fill="black" stroke="black" points="1452.35,-309.19 1461.77,-304.36 1451.39,-302.26 1452.35,-309.19"/>
</g>
<!-- ip6_hold&#45;&gt;nh6_unreachable -->
<g id="edge53" class="edge">
<title>ip6_hold&#45;&gt;nh6_unreachable</title>
<path fill="none" stroke="black" d="M1641.23,-281.82C1652.82,-284.05 1667.07,-286.78 1680.96,-289.45"/>
<polygon fill="black" stroke="black" points="1680.49,-292.93 1690.97,-291.37 1681.81,-286.05 1680.49,-292.93"/>
</g>
<!-- ip6_input_local&#45;&gt;l4_input_local -->
<g id="edge59" class="edge">
<title>ip6_input_local&#45;&gt;l4_input_local</title>
<path fill="none" stroke="black" d="M605.38,-395.15C646.59,-395.83 709.72,-398.21 763.97,-406 821.72,-414.29 887.01,-430.85 928.86,-442.41"/>
<polygon fill="black" stroke="black" points="928.14,-445.85 938.71,-445.17 930.02,-439.11 928.14,-445.85"/>
</g>
<!-- ip6_input_local&#45;&gt;icmp6_input -->
<g id="edge58" class="edge">
<title>ip6_input_local&#45;&gt;icmp6_input</title>
<path fill="none" stroke="black" d="M579.61,-378.66C604.77,-356.24 650.07,-315.88 678.46,-290.59"/>
<polygon fill="black" stroke="black" points="680.85,-293.15 685.99,-283.88 676.19,-287.92 680.85,-293.15"/>
</g>
<!-- sr6_local&#45;&gt;ip_input -->
<g id="edge71" class="edge">
<title>sr6_local&#45;&gt;ip_input</title>
<path fill="none" stroke="black" d="M446.05,-432.91C468.5,-455.74 511.52,-499.47 537.58,-525.96"/>
<polygon fill="black" stroke="black" points="535.26,-528.59 544.77,-533.26 540.25,-523.68 535.26,-528.59"/>
</g>
<!-- sr6_local&#45;&gt;ip6_input -->
<g id="edge72" class="edge">
<title>sr6_local&#45;&gt;ip6_input</title>
<path fill="none" stroke="black" d="M403.04,-415.13C381.31,-409.74 350.45,-399.98 327.75,-391.36"/>
<polygon fill="black" stroke="black" points="328.85,-388.03 318.26,-387.62 326.29,-394.55 328.85,-388.03"/>
</g>
<!-- sr6_local&#45;&gt;ip6_input_local -->
<g id="edge73" class="edge">
<title>sr6_local&#45;&gt;ip6_input_local</title>
<path fill="none" stroke="black" d="M457.26,-413.35C472.02,-410.69 491.04,-407.27 508.65,-404.1"/>
<polygon fill="black" stroke="black" points="509.6,-407.49 518.82,-402.27 508.36,-400.6 509.6,-407.49"/>
</g>
</g>
</svg>
