<?xml version="1.0" encoding="UTF-8" standalone="no"?>
<!DOCTYPE svg PUBLIC "-//W3C//DTD SVG 1.1//EN"
 "http://www.w3.org/Graphics/SVG/1.1/DTD/svg11.dtd">
<!-- Generated by graphviz version 2.44.0 (0)
 -->
<!-- Title: gr&#45;0005 Pages: 1 -->
<svg width="1167pt" height="892pt"
 viewBox="0.00 0.00 1166.52 892.24" xmlns="http://www.w3.org/2000/svg" xmlns:xlink="http://www.w3.org/1999/xlink">
<g id="graph0" class="graph" transform="scale(1 1) rotate(0) translate(4 888.24)">
<title>gr&#45;0005</title>
<polygon fill="white" stroke="transparent" points="-4,4 -4,-888.24 1162.52,-888.24 1162.52,4 -4,4"/>
<!-- control_input -->
<g id="node1" class="node">
<title>control_input</title>
<ellipse fill="none" stroke="blue" stroke-width="2" cx="40.16" cy="-433.24" rx="40.32" ry="18"/>
<text text-anchor="middle" x="40.16" y="-430.44" font-family="sans" font-size="11.00">control_input</text>
</g>
<!-- loopback_input -->
<g id="node2" class="node">
<title>loopback_input</title>
<ellipse fill="none" stroke="black" cx="167.88" cy="-563.24" rx="45.68" ry="18"/>
<text text-anchor="middle" x="167.88" y="-560.44" font-family="sans" font-size="11.00">loopback_input</text>
</g>
<!-- control_input&#45;&gt;loopback_input -->
<g id="edge1" class="edge">
<title>control_input&#45;&gt;loopback_input</title>
<path fill="none" stroke="blue" stroke-width="2" d="M51.8,-450.67C65.1,-471.51 89.41,-506.65 116.32,-531.24 121,-535.52 126.32,-539.58 131.72,-543.28"/>
<polygon fill="blue" stroke="blue" stroke-width="2" points="129.87,-546.25 140.17,-548.77 133.69,-540.38 129.87,-546.25"/>
</g>
<!-- arp_output_request -->
<g id="node3" class="node">
<title>arp_output_request</title>
<ellipse fill="none" stroke="black" cx="828.73" cy="-774.24" rx="59.31" ry="18"/>
<text text-anchor="middle" x="828.73" y="-771.44" font-family="sans" font-size="11.00">arp_output_request</text>
</g>
<!-- control_input&#45;&gt;arp_output_request -->
<g id="edge2" class="edge">
<title>control_input&#45;&gt;arp_output_request</title>
<path fill="none" stroke="blue" stroke-width="2" d="M42.27,-451.26C45.78,-493.09 60,-597.85 116.32,-659.24 220.36,-772.65 287.96,-777.24 441.86,-777.24 441.86,-777.24 441.86,-777.24 569.95,-777.24 634.25,-777.24 707.57,-776.3 759.53,-775.47"/>
<polygon fill="blue" stroke="blue" stroke-width="2" points="759.69,-778.97 769.63,-775.31 759.58,-771.97 759.69,-778.97"/>
</g>
<!-- icmp_local_send -->
<g id="node4" class="node">
<title>icmp_local_send</title>
<ellipse fill="none" stroke="black" cx="308.63" cy="-525.24" rx="49.28" ry="18"/>
<text text-anchor="middle" x="308.63" y="-522.44" font-family="sans" font-size="11.00">icmp_local_send</text>
</g>
<!-- control_input&#45;&gt;icmp_local_send -->
<g id="edge3" class="edge">
<title>control_input&#45;&gt;icmp_local_send</title>
<path fill="none" stroke="blue" stroke-width="2" d="M56.82,-449.79C70.99,-463.69 93.15,-482.9 116.32,-493.24 158.38,-512.01 210.11,-519.86 249.17,-523.1"/>
<polygon fill="blue" stroke="blue" stroke-width="2" points="249.08,-526.6 259.32,-523.86 249.61,-519.62 249.08,-526.6"/>
</g>
<!-- icmp6_local_send -->
<g id="node5" class="node">
<title>icmp6_local_send</title>
<ellipse fill="none" stroke="black" cx="308.63" cy="-272.24" rx="53.37" ry="18"/>
<text text-anchor="middle" x="308.63" y="-269.44" font-family="sans" font-size="11.00">icmp6_local_send</text>
</g>
<!-- control_input&#45;&gt;icmp6_local_send -->
<g id="edge4" class="edge">
<title>control_input&#45;&gt;icmp6_local_send</title>
<path fill="none" stroke="blue" stroke-width="2" d="M53.19,-415.88C66.71,-397.45 90.21,-368.54 116.32,-350.24 159.47,-320.02 216.09,-298.8 256.51,-286.2"/>
<polygon fill="blue" stroke="blue" stroke-width="2" points="257.62,-289.52 266.16,-283.26 255.58,-282.83 257.62,-289.52"/>
</g>
<!-- ndp_ns_output -->
<g id="node6" class="node">
<title>ndp_ns_output</title>
<ellipse fill="none" stroke="black" cx="442.86" cy="-287.24" rx="44.51" ry="18"/>
<text text-anchor="middle" x="442.86" y="-284.44" font-family="sans" font-size="11.00">ndp_ns_output</text>
</g>
<!-- control_input&#45;&gt;ndp_ns_output -->
<g id="edge5" class="edge">
<title>control_input&#45;&gt;ndp_ns_output</title>
<path fill="none" stroke="blue" stroke-width="2" d="M71.94,-422.03C142.94,-396.16 318.3,-332.26 399.43,-302.7"/>
<polygon fill="blue" stroke="blue" stroke-width="2" points="401.11,-305.82 409.31,-299.1 398.71,-299.24 401.11,-305.82"/>
</g>
<!-- ip_output -->
<g id="node7" class="node">
<title>ip_output</title>
<ellipse fill="none" stroke="black" cx="828.73" cy="-609.24" rx="29.12" ry="18"/>
<text text-anchor="middle" x="828.73" y="-606.44" font-family="sans" font-size="11.00">ip_output</text>
</g>
<!-- control_input&#45;&gt;ip_output -->
<g id="edge6" class="edge">
<title>control_input&#45;&gt;ip_output</title>
<path fill="none" stroke="blue" stroke-width="2" d="M78.93,-438.13C221.34,-456.6 718.42,-521.41 733.57,-528.24 762.99,-541.5 790.18,-566.93 807.71,-585.78"/>
<polygon fill="blue" stroke="blue" stroke-width="2" points="805.3,-588.33 814.6,-593.4 810.49,-583.63 805.3,-588.33"/>
</g>
<!-- arp_output_reply -->
<g id="node8" class="node">
<title>arp_output_reply</title>
<ellipse fill="none" stroke="black" cx="167.88" cy="-820.24" rx="51.62" ry="18"/>
<text text-anchor="middle" x="167.88" y="-817.44" font-family="sans" font-size="11.00">arp_output_reply</text>
</g>
<!-- control_input&#45;&gt;arp_output_reply -->
<g id="edge7" class="edge">
<title>control_input&#45;&gt;arp_output_reply</title>
<path fill="none" stroke="blue" stroke-width="2" d="M43.15,-451.54C50.43,-516.07 77.3,-732.12 116.32,-788.24 119.36,-792.61 123.2,-796.51 127.41,-799.95"/>
<polygon fill="blue" stroke="blue" stroke-width="2" points="125.67,-803.01 135.83,-806.02 129.76,-797.34 125.67,-803.01"/>
</g>
<!-- ip6_output -->
<g id="node9" class="node">
<title>ip6_output</title>
<ellipse fill="none" stroke="black" cx="828.73" cy="-335.24" rx="32.63" ry="18"/>
<text text-anchor="middle" x="828.73" y="-332.44" font-family="sans" font-size="11.00">ip6_output</text>
</g>
<!-- control_input&#45;&gt;ip6_output -->
<g id="edge8" class="edge">
<title>control_input&#45;&gt;ip6_output</title>
<path fill="none" stroke="blue" stroke-width="2" d="M42.56,-414.99C46.87,-374.63 63.05,-278.77 116.32,-224.24 180.38,-158.69 215.97,-147.24 307.63,-147.24 307.63,-147.24 307.63,-147.24 443.86,-147.24 579.09,-147.24 623.43,-161.78 733.57,-240.24 762.7,-261 792.57,-289.81 810.64,-310.5"/>
<polygon fill="blue" stroke="blue" stroke-width="2" points="808.06,-312.88 817.18,-318.28 813.42,-308.37 808.06,-312.88"/>
</g>
<!-- control_input&#45;&gt;ip6_output -->
<g id="edge10" class="edge">
<title>control_input&#45;&gt;ip6_output</title>
<path fill="none" stroke="blue" stroke-width="2" d="M43.8,-415.3C49.62,-377.95 67.2,-292.52 116.32,-242.24 180.38,-176.69 215.97,-165.24 307.63,-165.24 307.63,-165.24 307.63,-165.24 443.86,-165.24 579.09,-165.24 623.43,-179.78 733.57,-258.24 757.5,-275.29 781.92,-297.77 799.89,-314.21"/>
<polygon fill="blue" stroke="blue" stroke-width="2" points="797.92,-317.16 807.67,-321.31 802.64,-311.98 797.92,-317.16"/>
</g>
<!-- ndp_na_output -->
<g id="node10" class="node">
<title>ndp_na_output</title>
<ellipse fill="none" stroke="black" cx="568.95" cy="-211.24" rx="45.09" ry="18"/>
<text text-anchor="middle" x="568.95" y="-208.44" font-family="sans" font-size="11.00">ndp_na_output</text>
</g>
<!-- control_input&#45;&gt;ndp_na_output -->
<g id="edge9" class="edge">
<title>control_input&#45;&gt;ndp_na_output</title>
<path fill="none" stroke="blue" stroke-width="2" d="M46.3,-415.34C55.57,-386.15 77.79,-328.26 116.32,-295.24 230.9,-197.05 422.82,-198.12 515.16,-205.36"/>
<polygon fill="blue" stroke="blue" stroke-width="2" points="515.13,-208.87 525.38,-206.22 515.71,-201.9 515.13,-208.87"/>
</g>
<!-- ip_input -->
<g id="node14" class="node">
<title>ip_input</title>
<ellipse fill="none" stroke="black" cx="308.63" cy="-621.24" rx="27" ry="18"/>
<text text-anchor="middle" x="308.63" y="-618.44" font-family="sans" font-size="11.00">ip_input</text>
</g>
<!-- loopback_input&#45;&gt;ip_input -->
<g id="edge16" class="edge">
<title>loopback_input&#45;&gt;ip_input</title>
<path fill="none" stroke="black" d="M200.02,-576.26C222.67,-585.73 253.23,-598.5 275.99,-608.02"/>
<polygon fill="black" stroke="black" points="274.65,-611.25 285.23,-611.88 277.35,-604.79 274.65,-611.25"/>
</g>
<!-- ip6_input -->
<g id="node15" class="node">
<title>ip6_input</title>
<ellipse fill="none" stroke="black" cx="308.63" cy="-433.24" rx="28.44" ry="18"/>
<text text-anchor="middle" x="308.63" y="-430.44" font-family="sans" font-size="11.00">ip6_input</text>
</g>
<!-- loopback_input&#45;&gt;ip6_input -->
<g id="edge17" class="edge">
<title>loopback_input&#45;&gt;ip6_input</title>
<path fill="none" stroke="black" d="M186.45,-546.78C211.27,-523.52 256.65,-481.01 284.28,-455.12"/>
<polygon fill="black" stroke="black" points="287,-457.36 291.91,-447.97 282.22,-452.26 287,-457.36"/>
</g>
<!-- eth_output -->
<g id="node16" class="node">
<title>eth_output</title>
<ellipse fill="none" stroke="black" cx="978.7" cy="-774.24" rx="33.8" ry="18"/>
<text text-anchor="middle" x="978.7" y="-771.44" font-family="sans" font-size="11.00">eth_output</text>
</g>
<!-- arp_output_request&#45;&gt;eth_output -->
<g id="edge26" class="edge">
<title>arp_output_request&#45;&gt;eth_output</title>
<path fill="none" stroke="black" d="M888.21,-774.24C903.68,-774.24 920.1,-774.24 934.59,-774.24"/>
<polygon fill="black" stroke="black" points="934.77,-777.74 944.77,-774.24 934.77,-770.74 934.77,-777.74"/>
</g>
<!-- icmp_output -->
<g id="node24" class="node">
<title>icmp_output</title>
<ellipse fill="none" stroke="black" cx="691.79" cy="-555.24" rx="37.98" ry="18"/>
<text text-anchor="middle" x="691.79" y="-552.44" font-family="sans" font-size="11.00">icmp_output</text>
</g>
<!-- icmp_local_send&#45;&gt;icmp_output -->
<g id="edge29" class="edge">
<title>icmp_local_send&#45;&gt;icmp_output</title>
<path fill="none" stroke="black" d="M356.73,-520.98C416.92,-516.6 524.09,-512.44 614,-528.24 627.28,-530.58 641.34,-534.93 653.75,-539.46"/>
<polygon fill="black" stroke="black" points="652.7,-542.81 663.29,-543.11 655.2,-536.27 652.7,-542.81"/>
</g>
<!-- icmp6_output -->
<g id="node32" class="node">
<title>icmp6_output</title>
<ellipse fill="none" stroke="black" cx="691.79" cy="-276.24" rx="41.58" ry="18"/>
<text text-anchor="middle" x="691.79" y="-273.44" font-family="sans" font-size="11.00">icmp6_output</text>
</g>
<!-- icmp6_local_send&#45;&gt;icmp6_output -->
<g id="edge49" class="edge">
<title>icmp6_local_send&#45;&gt;icmp6_output</title>
<path fill="none" stroke="black" d="M357.1,-264.58C370.25,-262.79 384.55,-261.14 397.81,-260.24 483.39,-254.45 583.15,-263.2 641.4,-269.87"/>
<polygon fill="black" stroke="black" points="641.09,-273.36 651.43,-271.04 641.91,-266.4 641.09,-273.36"/>
</g>
<!-- ndp_ns_output&#45;&gt;icmp6_output -->
<g id="edge63" class="edge">
<title>ndp_ns_output&#45;&gt;icmp6_output</title>
<path fill="none" stroke="black" d="M487.15,-285.32C529.75,-283.42 594.79,-280.52 639.86,-278.51"/>
<polygon fill="black" stroke="black" points="640.17,-282 650,-278.06 639.86,-275.01 640.17,-282"/>
</g>
<!-- ip_output&#45;&gt;eth_output -->
<g id="edge39" class="edge">
<title>ip_output&#45;&gt;eth_output</title>
<path fill="none" stroke="black" d="M841.71,-625.57C853.58,-641.85 872.22,-667.61 887.89,-690.24 904.3,-713.96 902.7,-724.67 923.89,-744.24 929.51,-749.43 936.18,-754.06 942.89,-758.04"/>
<polygon fill="black" stroke="black" points="941.51,-761.28 951.96,-763.06 944.9,-755.16 941.51,-761.28"/>
</g>
<!-- loopback_output -->
<g id="node19" class="node">
<title>loopback_output</title>
<ellipse fill="none" stroke="black" cx="978.7" cy="-405.24" rx="50.45" ry="18"/>
<text text-anchor="middle" x="978.7" y="-402.44" font-family="sans" font-size="11.00">loopback_output</text>
</g>
<!-- ip_output&#45;&gt;loopback_output -->
<g id="edge41" class="edge">
<title>ip_output&#45;&gt;loopback_output</title>
<path fill="none" stroke="black" d="M841.59,-592.89C867.25,-557.51 928.12,-473.61 959.01,-431.01"/>
<polygon fill="black" stroke="black" points="961.91,-432.97 964.95,-422.82 956.25,-428.86 961.91,-432.97"/>
</g>
<!-- ip_hold -->
<g id="node26" class="node">
<title>ip_hold</title>
<ellipse fill="none" stroke="black" cx="978.7" cy="-555.24" rx="27" ry="18"/>
<text text-anchor="middle" x="978.7" y="-552.44" font-family="sans" font-size="11.00">ip_hold</text>
</g>
<!-- ip_output&#45;&gt;ip_hold -->
<g id="edge40" class="edge">
<title>ip_output&#45;&gt;ip_hold</title>
<path fill="none" stroke="black" d="M854.5,-600.21C879.27,-591.17 917.5,-577.21 944.8,-567.25"/>
<polygon fill="black" stroke="black" points="946.13,-570.49 954.32,-563.78 943.73,-563.92 946.13,-570.49"/>
</g>
<!-- ipip_output -->
<g id="node30" class="node">
<title>ipip_output</title>
<ellipse fill="none" stroke="black" cx="978.7" cy="-609.24" rx="34.38" ry="18"/>
<text text-anchor="middle" x="978.7" y="-606.44" font-family="sans" font-size="11.00">ipip_output</text>
</g>
<!-- ip_output&#45;&gt;ipip_output -->
<g id="edge42" class="edge">
<title>ip_output&#45;&gt;ipip_output</title>
<path fill="none" stroke="black" d="M856.87,-603.88C879.02,-602.34 910.68,-602.08 936.03,-603.1"/>
<polygon fill="black" stroke="black" points="935.95,-606.6 946.11,-603.6 936.3,-599.61 935.95,-606.6"/>
</g>
<!-- arp_output_reply&#45;&gt;eth_output -->
<g id="edge25" class="edge">
<title>arp_output_reply&#45;&gt;eth_output</title>
<path fill="none" stroke="black" d="M219.44,-820.24C274.24,-820.24 364.25,-820.24 441.86,-820.24 441.86,-820.24 441.86,-820.24 692.79,-820.24 779.91,-820.24 802.41,-818.09 887.89,-801.24 905.48,-797.78 924.56,-792.3 940.59,-787.17"/>
<polygon fill="black" stroke="black" points="941.72,-790.49 950.14,-784.05 939.55,-783.83 941.72,-790.49"/>
</g>
<!-- ip6_output&#45;&gt;eth_output -->
<g id="edge57" class="edge">
<title>ip6_output&#45;&gt;eth_output</title>
<path fill="none" stroke="black" d="M851.73,-348.1C864.56,-356.85 879.77,-369.66 887.89,-385.24 961.98,-527.46 835.86,-610.21 923.89,-744.24 928.09,-750.64 934.14,-755.8 940.68,-759.92"/>
<polygon fill="black" stroke="black" points="939.32,-763.17 949.77,-764.91 942.69,-757.03 939.32,-763.17"/>
</g>
<!-- ip6_output&#45;&gt;loopback_output -->
<g id="edge59" class="edge">
<title>ip6_output&#45;&gt;loopback_output</title>
<path fill="none" stroke="black" d="M854.17,-346.8C877.08,-357.64 911.72,-374.03 938.49,-386.69"/>
<polygon fill="black" stroke="black" points="937.07,-389.89 947.6,-391 940.06,-383.56 937.07,-389.89"/>
</g>
<!-- ip6_hold -->
<g id="node37" class="node">
<title>ip6_hold</title>
<ellipse fill="none" stroke="black" cx="978.7" cy="-350.24" rx="27" ry="18"/>
<text text-anchor="middle" x="978.7" y="-347.44" font-family="sans" font-size="11.00">ip6_hold</text>
</g>
<!-- ip6_output&#45;&gt;ip6_hold -->
<g id="edge58" class="edge">
<title>ip6_output&#45;&gt;ip6_hold</title>
<path fill="none" stroke="black" d="M861.11,-338.43C884.72,-340.82 917.1,-344.1 941.75,-346.6"/>
<polygon fill="black" stroke="black" points="941.49,-350.09 951.79,-347.62 942.19,-343.13 941.49,-350.09"/>
</g>
<!-- ndp_na_output&#45;&gt;icmp6_output -->
<g id="edge61" class="edge">
<title>ndp_na_output&#45;&gt;icmp6_output</title>
<path fill="none" stroke="black" d="M596.47,-225.51C613.9,-234.89 636.9,-247.26 655.83,-257.44"/>
<polygon fill="black" stroke="black" points="654.28,-260.58 664.74,-262.24 657.6,-254.42 654.28,-260.58"/>
</g>
<!-- control_output -->
<g id="node11" class="node">
<title>control_output</title>
<ellipse fill="none" stroke="black" cx="1114.02" cy="-363.24" rx="44.51" ry="18"/>
<text text-anchor="middle" x="1114.02" y="-360.44" font-family="sans" font-size="11.00">control_output</text>
</g>
<!-- eth_input -->
<g id="node12" class="node">
<title>eth_input</title>
<ellipse fill="none" stroke="black" cx="167.88" cy="-632.24" rx="29.12" ry="18"/>
<text text-anchor="middle" x="167.88" y="-629.44" font-family="sans" font-size="11.00">eth_input</text>
</g>
<!-- arp_input -->
<g id="node13" class="node">
<title>arp_input</title>
<ellipse fill="none" stroke="black" cx="828.73" cy="-717.24" rx="29.12" ry="18"/>
<text text-anchor="middle" x="828.73" y="-714.44" font-family="sans" font-size="11.00">arp_input</text>
</g>
<!-- eth_input&#45;&gt;arp_input -->
<g id="edge11" class="edge">
<title>eth_input&#45;&gt;arp_input</title>
<path fill="none" stroke="black" d="M188.06,-645.58C231.25,-674.26 340.31,-739.24 441.86,-739.24 441.86,-739.24 441.86,-739.24 569.95,-739.24 648.37,-739.24 739.72,-729.01 789.89,-722.5"/>
<polygon fill="black" stroke="black" points="790.49,-725.96 799.95,-721.18 789.58,-719.02 790.49,-725.96"/>
</g>
<!-- eth_input&#45;&gt;ip_input -->
<g id="edge12" class="edge">
<title>eth_input&#45;&gt;ip_input</title>
<path fill="none" stroke="black" d="M197.29,-629.99C218.74,-628.29 248.33,-625.95 271.47,-624.11"/>
<polygon fill="black" stroke="black" points="271.9,-627.59 281.6,-623.31 271.35,-620.61 271.9,-627.59"/>
</g>
<!-- eth_input&#45;&gt;ip6_input -->
<g id="edge13" class="edge">
<title>eth_input&#45;&gt;ip6_input</title>
<path fill="none" stroke="black" d="M188.74,-619.41C199.04,-611.93 211.16,-601.72 219.44,-590.24 245.14,-554.64 233.44,-536.24 255.44,-498.24 264.1,-483.29 276.04,-468.14 286.31,-456.23"/>
<polygon fill="black" stroke="black" points="289.1,-458.36 293.1,-448.55 283.85,-453.73 289.1,-458.36"/>
</g>
<!-- arp_input_request -->
<g id="node21" class="node">
<title>arp_input_request</title>
<ellipse fill="none" stroke="black" cx="978.7" cy="-663.24" rx="54.63" ry="18"/>
<text text-anchor="middle" x="978.7" y="-660.44" font-family="sans" font-size="11.00">arp_input_request</text>
</g>
<!-- arp_input&#45;&gt;arp_input_request -->
<g id="edge21" class="edge">
<title>arp_input&#45;&gt;arp_input_request</title>
<path fill="none" stroke="black" d="M854.5,-708.21C875.58,-700.51 906.42,-689.26 931.98,-679.93"/>
<polygon fill="black" stroke="black" points="933.28,-683.18 941.48,-676.46 930.88,-676.6 933.28,-683.18"/>
</g>
<!-- arp_input_reply -->
<g id="node22" class="node">
<title>arp_input_reply</title>
<ellipse fill="none" stroke="black" cx="978.7" cy="-717.24" rx="47.43" ry="18"/>
<text text-anchor="middle" x="978.7" y="-714.44" font-family="sans" font-size="11.00">arp_input_reply</text>
</g>
<!-- arp_input&#45;&gt;arp_input_reply -->
<g id="edge22" class="edge">
<title>arp_input&#45;&gt;arp_input_reply</title>
<path fill="none" stroke="black" d="M858.26,-717.24C876.1,-717.24 899.69,-717.24 921.19,-717.24"/>
<polygon fill="black" stroke="black" points="921.21,-720.74 931.21,-717.24 921.21,-713.74 921.21,-720.74"/>
</g>
<!-- ip_input&#45;&gt;ip_output -->
<g id="edge34" class="edge">
<title>ip_input&#45;&gt;ip_output</title>
<path fill="none" stroke="black" d="M335.47,-623.4C353.04,-624.85 376.83,-626.75 397.81,-628.24 493.72,-635.09 518.04,-642.28 614,-636.24 676.07,-632.34 747.68,-622.11 790.25,-615.43"/>
<polygon fill="black" stroke="black" points="790.84,-618.88 800.17,-613.85 789.74,-611.97 790.84,-618.88"/>
</g>
<!-- ip_forward -->
<g id="node25" class="node">
<title>ip_forward</title>
<ellipse fill="none" stroke="black" cx="442.86" cy="-693.24" rx="32.63" ry="18"/>
<text text-anchor="middle" x="442.86" y="-690.44" font-family="sans" font-size="11.00">ip_forward</text>
</g>
<!-- ip_input&#45;&gt;ip_forward -->
<g id="edge33" class="edge">
<title>ip_input&#45;&gt;ip_forward</title>
<path fill="none" stroke="black" d="M330,-632.34C351.32,-643.95 385.11,-662.34 409.97,-675.88"/>
<polygon fill="black" stroke="black" points="408.56,-679.1 419.02,-680.81 411.91,-672.95 408.56,-679.1"/>
</g>
<!-- ip_input_local -->
<g id="node27" class="node">
<title>ip_input_local</title>
<ellipse fill="none" stroke="black" cx="442.86" cy="-563.24" rx="41.49" ry="18"/>
<text text-anchor="middle" x="442.86" y="-560.44" font-family="sans" font-size="11.00">ip_input_local</text>
</g>
<!-- ip_input&#45;&gt;ip_input_local -->
<g id="edge35" class="edge">
<title>ip_input&#45;&gt;ip_input_local</title>
<path fill="none" stroke="black" d="M331.76,-611.54C351.4,-602.92 380.53,-590.15 403.89,-579.9"/>
<polygon fill="black" stroke="black" points="405.42,-583.05 413.18,-575.82 402.61,-576.64 405.42,-583.05"/>
</g>
<!-- ip6_input&#45;&gt;ip6_output -->
<g id="edge53" class="edge">
<title>ip6_input&#45;&gt;ip6_output</title>
<path fill="none" stroke="black" d="M321.47,-416.87C336.64,-397.39 364.95,-365.8 397.81,-352.24 531.64,-297.04 709.23,-315.68 787.62,-327.99"/>
<polygon fill="black" stroke="black" points="787.14,-331.46 797.57,-329.6 788.26,-324.55 787.14,-331.46"/>
</g>
<!-- ip6_forward -->
<g id="node36" class="node">
<title>ip6_forward</title>
<ellipse fill="none" stroke="black" cx="442.86" cy="-433.24" rx="35.64" ry="18"/>
<text text-anchor="middle" x="442.86" y="-430.44" font-family="sans" font-size="11.00">ip6_forward</text>
</g>
<!-- ip6_input&#45;&gt;ip6_forward -->
<g id="edge52" class="edge">
<title>ip6_input&#45;&gt;ip6_forward</title>
<path fill="none" stroke="black" d="M337.02,-433.24C354.29,-433.24 376.99,-433.24 396.85,-433.24"/>
<polygon fill="black" stroke="black" points="396.94,-436.74 406.94,-433.24 396.94,-429.74 396.94,-436.74"/>
</g>
<!-- ip6_input_local -->
<g id="node38" class="node">
<title>ip6_input_local</title>
<ellipse fill="none" stroke="black" cx="442.86" cy="-379.24" rx="45.09" ry="18"/>
<text text-anchor="middle" x="442.86" y="-376.44" font-family="sans" font-size="11.00">ip6_input_local</text>
</g>
<!-- ip6_input&#45;&gt;ip6_input_local -->
<g id="edge54" class="edge">
<title>ip6_input&#45;&gt;ip6_input_local</title>
<path fill="none" stroke="black" d="M332.96,-423.71C351.91,-415.98 379.06,-404.89 401.51,-395.72"/>
<polygon fill="black" stroke="black" points="402.88,-398.94 410.81,-391.92 400.23,-392.46 402.88,-398.94"/>
</g>
<!-- port_tx -->
<g id="node17" class="node">
<title>port_tx</title>
<ellipse fill="none" stroke="black" cx="1114.02" cy="-818.24" rx="27" ry="18"/>
<text text-anchor="middle" x="1114.02" y="-815.44" font-family="sans" font-size="11.00">port_tx</text>
</g>
<!-- eth_output&#45;&gt;port_tx -->
<g id="edge14" class="edge">
<title>eth_output&#45;&gt;port_tx</title>
<path fill="none" stroke="black" d="M1007.65,-783.47C1028.71,-790.42 1057.65,-799.97 1079.87,-807.3"/>
<polygon fill="black" stroke="black" points="1078.97,-810.69 1089.56,-810.5 1081.16,-804.04 1078.97,-810.69"/>
</g>
<!-- l1_xconnect -->
<g id="node18" class="node">
<title>l1_xconnect</title>
<ellipse fill="none" stroke="black" cx="308.63" cy="-866.24" rx="36.23" ry="18"/>
<text text-anchor="middle" x="308.63" y="-863.44" font-family="sans" font-size="11.00">l1_xconnect</text>
</g>
<!-- l1_xconnect&#45;&gt;port_tx -->
<g id="edge15" class="edge">
<title>l1_xconnect&#45;&gt;port_tx</title>
<path fill="none" stroke="black" d="M345.14,-865.35C394.94,-864.17 488.34,-862.24 567.95,-862.24 567.95,-862.24 567.95,-862.24 829.73,-862.24 920.49,-862.24 1025.68,-839.92 1078.7,-827.08"/>
<polygon fill="black" stroke="black" points="1079.71,-830.43 1088.59,-824.64 1078.04,-823.63 1079.71,-830.43"/>
</g>
<!-- loopback_output&#45;&gt;control_output -->
<g id="edge18" class="edge">
<title>loopback_output&#45;&gt;control_output</title>
<path fill="none" stroke="black" d="M1017.19,-393.43C1033.01,-388.45 1051.56,-382.61 1068.1,-377.4"/>
<polygon fill="black" stroke="black" points="1069.61,-380.59 1078.1,-374.25 1067.51,-373.91 1069.61,-380.59"/>
</g>
<!-- port_rx -->
<g id="node20" class="node">
<title>port_rx</title>
<ellipse fill="none" stroke="blue" stroke-width="2" cx="40.16" cy="-755.24" rx="27" ry="18"/>
<text text-anchor="middle" x="40.16" y="-752.44" font-family="sans" font-size="11.00">port_rx</text>
</g>
<!-- port_rx&#45;&gt;eth_input -->
<g id="edge19" class="edge">
<title>port_rx&#45;&gt;eth_input</title>
<path fill="none" stroke="blue" stroke-width="2" d="M56.08,-740.65C77.77,-719.43 118.21,-679.86 143.78,-654.85"/>
<polygon fill="blue" stroke="blue" stroke-width="2" points="146.5,-657.08 151.2,-647.59 141.6,-652.08 146.5,-657.08"/>
</g>
<!-- port_rx&#45;&gt;l1_xconnect -->
<g id="edge20" class="edge">
<title>port_rx&#45;&gt;l1_xconnect</title>
<path fill="none" stroke="blue" stroke-width="2" d="M49.62,-772.29C61.34,-793.87 84.7,-830.28 116.32,-847.24 161.91,-871.7 222.43,-873.51 263.08,-871.13"/>
<polygon fill="blue" stroke="blue" stroke-width="2" points="263.49,-874.61 273.23,-870.42 263.01,-867.62 263.49,-874.61"/>
</g>
<!-- arp_input_request&#45;&gt;control_output -->
<g id="edge24" class="edge">
<title>arp_input_request&#45;&gt;control_output</title>
<path fill="none" stroke="black" d="M1016.23,-650.1C1022.69,-646.43 1028.83,-641.87 1033.52,-636.24 1094.41,-563.15 1108.68,-445.39 1112.01,-391.64"/>
<polygon fill="black" stroke="black" points="1115.52,-391.65 1112.56,-381.48 1108.53,-391.28 1115.52,-391.65"/>
</g>
<!-- arp_input_reply&#45;&gt;control_output -->
<g id="edge23" class="edge">
<title>arp_input_reply&#45;&gt;control_output</title>
<path fill="none" stroke="black" d="M1014.49,-705.34C1021.64,-701.49 1028.51,-696.54 1033.52,-690.24 1105.76,-599.46 1113.76,-452.76 1113.72,-391.52"/>
<polygon fill="black" stroke="black" points="1117.22,-391.41 1113.64,-381.44 1110.22,-391.47 1117.22,-391.41"/>
</g>
<!-- icmp_input -->
<g id="node23" class="node">
<title>icmp_input</title>
<ellipse fill="none" stroke="black" cx="568.95" cy="-555.24" rx="33.8" ry="18"/>
<text text-anchor="middle" x="568.95" y="-552.44" font-family="sans" font-size="11.00">icmp_input</text>
</g>
<!-- icmp_input&#45;&gt;control_output -->
<g id="edge28" class="edge">
<title>icmp_input&#45;&gt;control_output</title>
<path fill="none" stroke="black" d="M597.19,-545.45C612.6,-540.07 632.26,-533.45 650,-528.24 818.61,-478.79 877.66,-513.39 1033.52,-432.24 1055.19,-420.96 1075.91,-402.64 1090.76,-387.72"/>
<polygon fill="black" stroke="black" points="1093.52,-389.89 1097.97,-380.28 1088.49,-385.02 1093.52,-389.89"/>
</g>
<!-- icmp_input&#45;&gt;icmp_output -->
<g id="edge27" class="edge">
<title>icmp_input&#45;&gt;icmp_output</title>
<path fill="none" stroke="black" d="M602.65,-555.24C615.24,-555.24 629.87,-555.24 643.56,-555.24"/>
<polygon fill="black" stroke="black" points="643.79,-558.74 653.79,-555.24 643.79,-551.74 643.79,-558.74"/>
</g>
<!-- icmp_output&#45;&gt;ip_output -->
<g id="edge30" class="edge">
<title>icmp_output&#45;&gt;ip_output</title>
<path fill="none" stroke="black" d="M721.4,-566.7C742.7,-575.22 771.83,-586.88 794.22,-595.83"/>
<polygon fill="black" stroke="black" points="793.08,-599.15 803.66,-599.61 795.68,-592.65 793.08,-599.15"/>
</g>
<!-- ip_forward&#45;&gt;ip_output -->
<g id="edge31" class="edge">
<title>ip_forward&#45;&gt;ip_output</title>
<path fill="none" stroke="black" d="M475.29,-695.48C529.56,-698.28 643.66,-699.54 733.57,-669.24 758.99,-660.68 784.44,-643.85 802.46,-630.19"/>
<polygon fill="black" stroke="black" points="804.94,-632.69 810.67,-623.78 800.63,-627.17 804.94,-632.69"/>
</g>
<!-- ip_hold&#45;&gt;control_output -->
<g id="edge32" class="edge">
<title>ip_hold&#45;&gt;control_output</title>
<path fill="none" stroke="black" d="M1001.89,-545.71C1012.47,-540.31 1024.72,-532.73 1033.52,-523.24 1069.74,-484.19 1093.14,-425.53 1104.62,-391.14"/>
<polygon fill="black" stroke="black" points="1108.06,-391.89 1107.8,-381.3 1101.4,-389.74 1108.06,-391.89"/>
</g>
<!-- ip_input_local&#45;&gt;icmp_input -->
<g id="edge36" class="edge">
<title>ip_input_local&#45;&gt;icmp_input</title>
<path fill="none" stroke="black" d="M483.8,-560.67C496.89,-559.83 511.48,-558.88 524.79,-558.03"/>
<polygon fill="black" stroke="black" points="525.38,-561.5 535.13,-557.36 524.93,-554.51 525.38,-561.5"/>
</g>
<!-- ipip_input -->
<g id="node28" class="node">
<title>ipip_input</title>
<ellipse fill="none" stroke="black" cx="568.95" cy="-609.24" rx="29.7" ry="18"/>
<text text-anchor="middle" x="568.95" y="-606.44" font-family="sans" font-size="11.00">ipip_input</text>
</g>
<!-- ip_input_local&#45;&gt;ipip_input -->
<g id="edge37" class="edge">
<title>ip_input_local&#45;&gt;ipip_input</title>
<path fill="none" stroke="black" d="M474.85,-574.73C492.74,-581.37 515.27,-589.72 533.69,-596.54"/>
<polygon fill="black" stroke="black" points="532.57,-599.86 543.17,-600.06 535.01,-593.3 532.57,-599.86"/>
</g>
<!-- l4_input_local -->
<g id="node29" class="node">
<title>l4_input_local</title>
<ellipse fill="none" stroke="black" cx="568.95" cy="-417.24" rx="41.49" ry="18"/>
<text text-anchor="middle" x="568.95" y="-414.44" font-family="sans" font-size="11.00">l4_input_local</text>
</g>
<!-- ip_input_local&#45;&gt;l4_input_local -->
<g id="edge38" class="edge">
<title>ip_input_local&#45;&gt;l4_input_local</title>
<path fill="none" stroke="black" d="M458.09,-546.5C479.86,-520.89 521.53,-471.86 546.83,-442.09"/>
<polygon fill="black" stroke="black" points="549.69,-444.13 553.5,-434.25 544.36,-439.6 549.69,-444.13"/>
</g>
<!-- ipip_input&#45;&gt;ip_input -->
<g id="edge65" class="edge">
<title>ipip_input&#45;&gt;ip_input</title>
<path fill="none" stroke="black" d="M538.94,-610.59C491.54,-612.79 397.6,-617.16 345.88,-619.56"/>
<polygon fill="black" stroke="black" points="345.64,-616.07 335.82,-620.03 345.97,-623.06 345.64,-616.07"/>
</g>
<!-- l4_loopback_output -->
<g id="node39" class="node">
<title>l4_loopback_output</title>
<ellipse fill="none" stroke="black" cx="828.73" cy="-412.24" rx="58.73" ry="18"/>
<text text-anchor="middle" x="828.73" y="-409.44" font-family="sans" font-size="11.00">l4_loopback_output</text>
</g>
<!-- l4_input_local&#45;&gt;l4_loopback_output -->
<g id="edge67" class="edge">
<title>l4_input_local&#45;&gt;l4_loopback_output</title>
<path fill="none" stroke="black" d="M610.23,-416.46C650.2,-415.69 712.21,-414.48 759.81,-413.56"/>
<polygon fill="black" stroke="black" points="760.11,-417.06 770.04,-413.36 759.97,-410.06 760.11,-417.06"/>
</g>
<!-- ipip_output&#45;&gt;ip_output -->
<g id="edge66" class="edge">
<title>ipip_output&#45;&gt;ip_output</title>
<path fill="none" stroke="black" d="M946.11,-614.89C923,-616.25 891.56,-616.35 867.18,-615.2"/>
<polygon fill="black" stroke="black" points="867.06,-611.69 856.87,-614.61 866.65,-618.68 867.06,-611.69"/>
</g>
<!-- icmp6_input -->
<g id="node31" class="node">
<title>icmp6_input</title>
<ellipse fill="none" stroke="black" cx="568.95" cy="-101.24" rx="37.4" ry="18"/>
<text text-anchor="middle" x="568.95" y="-98.44" font-family="sans" font-size="11.00">icmp6_input</text>
</g>
<!-- icmp6_input&#45;&gt;control_output -->
<g id="edge47" class="edge">
<title>icmp6_input&#45;&gt;control_output</title>
<path fill="none" stroke="black" d="M582.81,-84.43C597.08,-67.31 621.83,-41.82 650,-31.24 814.49,30.54 911.92,-0.4 1033.52,-127.24 1089.98,-186.14 1106.4,-286.46 1111.13,-335.12"/>
<polygon fill="black" stroke="black" points="1107.66,-335.58 1112.02,-345.23 1114.63,-334.97 1107.66,-335.58"/>
</g>
<!-- icmp6_input&#45;&gt;icmp6_output -->
<g id="edge43" class="edge">
<title>icmp6_input&#45;&gt;icmp6_output</title>
<path fill="none" stroke="black" d="M581.76,-118.34C603.05,-149.18 648,-214.28 673.03,-250.52"/>
<polygon fill="black" stroke="black" points="670.37,-252.84 678.93,-259.08 676.13,-248.86 670.37,-252.84"/>
</g>
<!-- ndp_ns_input -->
<g id="node33" class="node">
<title>ndp_ns_input</title>
<ellipse fill="none" stroke="black" cx="691.79" cy="-166.24" rx="40.32" ry="18"/>
<text text-anchor="middle" x="691.79" y="-163.44" font-family="sans" font-size="11.00">ndp_ns_input</text>
</g>
<!-- icmp6_input&#45;&gt;ndp_ns_input -->
<g id="edge44" class="edge">
<title>icmp6_input&#45;&gt;ndp_ns_input</title>
<path fill="none" stroke="black" d="M594.69,-114.55C612.46,-124.11 636.63,-137.11 656.29,-147.69"/>
<polygon fill="black" stroke="black" points="654.78,-150.85 665.24,-152.5 658.09,-144.68 654.78,-150.85"/>
</g>
<!-- ndp_na_input -->
<g id="node34" class="node">
<title>ndp_na_input</title>
<ellipse fill="none" stroke="black" cx="691.79" cy="-112.24" rx="40.91" ry="18"/>
<text text-anchor="middle" x="691.79" y="-109.44" font-family="sans" font-size="11.00">ndp_na_input</text>
</g>
<!-- icmp6_input&#45;&gt;ndp_na_input -->
<g id="edge45" class="edge">
<title>icmp6_input&#45;&gt;ndp_na_input</title>
<path fill="none" stroke="black" d="M605.88,-104.51C617.07,-105.53 629.61,-106.68 641.55,-107.76"/>
<polygon fill="black" stroke="black" points="641.56,-111.28 651.84,-108.7 642.19,-104.31 641.56,-111.28"/>
</g>
<!-- ndp_rs_input -->
<g id="node35" class="node">
<title>ndp_rs_input</title>
<ellipse fill="none" stroke="black" cx="691.79" cy="-58.24" rx="39.15" ry="18"/>
<text text-anchor="middle" x="691.79" y="-55.44" font-family="sans" font-size="11.00">ndp_rs_input</text>
</g>
<!-- icmp6_input&#45;&gt;ndp_rs_input -->
<g id="edge46" class="edge">
<title>icmp6_input&#45;&gt;ndp_rs_input</title>
<path fill="none" stroke="black" d="M599.51,-90.73C614.93,-85.24 634.01,-78.45 650.74,-72.49"/>
<polygon fill="black" stroke="black" points="652.02,-75.75 660.27,-69.1 649.67,-69.16 652.02,-75.75"/>
</g>
<!-- icmp6_output&#45;&gt;ip6_output -->
<g id="edge48" class="edge">
<title>icmp6_output&#45;&gt;ip6_output</title>
<path fill="none" stroke="black" d="M721.73,-288.9C742.65,-298.04 770.99,-310.43 793.1,-320.1"/>
<polygon fill="black" stroke="black" points="791.9,-323.4 802.46,-324.2 794.7,-316.98 791.9,-323.4"/>
</g>
<!-- ndp_ns_input&#45;&gt;control_output -->
<g id="edge62" class="edge">
<title>ndp_ns_input&#45;&gt;control_output</title>
<path fill="none" stroke="black" d="M715.49,-181.01C730.53,-190.49 750.86,-202.76 769.57,-212.24 883.1,-269.75 917.96,-269.95 1033.52,-323.24 1047.88,-329.87 1063.47,-337.59 1077.01,-344.48"/>
<polygon fill="black" stroke="black" points="1075.52,-347.64 1086.01,-349.08 1078.71,-341.41 1075.52,-347.64"/>
</g>
<!-- ndp_na_input&#45;&gt;control_output -->
<g id="edge60" class="edge">
<title>ndp_na_input&#45;&gt;control_output</title>
<path fill="none" stroke="black" d="M725.16,-122.75C788.57,-144.32 931.8,-198.08 1033.52,-274.24 1057.64,-292.31 1080.02,-318.58 1094.85,-337.9"/>
<polygon fill="black" stroke="black" points="1092.11,-340.08 1100.92,-345.97 1097.7,-335.88 1092.11,-340.08"/>
</g>
<!-- ndp_rs_input&#45;&gt;control_output -->
<g id="edge64" class="edge">
<title>ndp_rs_input&#45;&gt;control_output</title>
<path fill="none" stroke="black" d="M728.58,-64.67C796.29,-78.52 944.35,-117.2 1033.52,-203.24 1072.05,-240.43 1094.77,-300.23 1105.48,-335.23"/>
<polygon fill="black" stroke="black" points="1102.24,-336.63 1108.42,-345.24 1108.96,-334.66 1102.24,-336.63"/>
</g>
<!-- ip6_forward&#45;&gt;ip6_output -->
<g id="edge50" class="edge">
<title>ip6_forward&#45;&gt;ip6_output</title>
<path fill="none" stroke="black" d="M465.43,-419.24C481.07,-409.7 503.05,-397.53 523.9,-390.24 571.96,-373.46 715.92,-351.31 787.05,-340.99"/>
<polygon fill="black" stroke="black" points="787.59,-344.45 796.99,-339.56 786.59,-337.52 787.59,-344.45"/>
</g>
<!-- ip6_hold&#45;&gt;control_output -->
<g id="edge51" class="edge">
<title>ip6_hold&#45;&gt;control_output</title>
<path fill="none" stroke="black" d="M1005.72,-352.78C1021.33,-354.3 1041.75,-356.29 1060.58,-358.13"/>
<polygon fill="black" stroke="black" points="1060.25,-361.61 1070.54,-359.1 1060.92,-354.65 1060.25,-361.61"/>
</g>
<!-- ip6_input_local&#45;&gt;l4_input_local -->
<g id="edge56" class="edge">
<title>ip6_input_local&#45;&gt;l4_input_local</title>
<path fill="none" stroke="black" d="M479.09,-390.03C493.43,-394.42 510.14,-399.54 525.17,-404.14"/>
<polygon fill="black" stroke="black" points="524.18,-407.5 534.77,-407.08 526.23,-400.81 524.18,-407.5"/>
</g>
<!-- ip6_input_local&#45;&gt;icmp6_input -->
<g id="edge55" class="edge">
<title>ip6_input_local&#45;&gt;icmp6_input</title>
<path fill="none" stroke="black" d="M457.66,-362.24C467.3,-349.64 479.84,-331.69 487.9,-314.24 513.05,-259.82 501.72,-239.94 523.9,-184.24 531.78,-164.48 543.06,-143.31 552.23,-127.3"/>
<polygon fill="black" stroke="black" points="555.34,-128.92 557.35,-118.52 549.29,-125.4 555.34,-128.92"/>
</g>
<!-- l4_loopback_output&#45;&gt;loopback_output -->
<g id="edge68" class="edge">
<title>l4_loopback_output&#45;&gt;loopback_output</title>
<path fill="none" stroke="black" d="M886.94,-409.54C897.19,-409.05 907.89,-408.55 918.2,-408.06"/>
<polygon fill="black" stroke="black" points="918.52,-411.55 928.35,-407.58 918.19,-404.56 918.52,-411.55"/>
</g>
</g>
</svg>
