<?xml version="1.0" encoding="UTF-8" standalone="no"?>
<!DOCTYPE svg PUBLIC "-//W3C//DTD SVG 1.1//EN"
 "http://www.w3.org/Graphics/SVG/1.1/DTD/svg11.dtd">
<!-- Generated by graphviz version 12.1.0 (20240811.2233)
 -->
<!-- Title: gr&#45;0003 Pages: 1 -->
<svg width="1027pt" height="510pt"
 viewBox="0.00 0.00 1027.15 509.71" xmlns="http://www.w3.org/2000/svg" xmlns:xlink="http://www.w3.org/1999/xlink">
<g id="graph0" class="graph" transform="scale(1 1) rotate(0) translate(4 505.71)">
<title>gr&#45;0003</title>
<polygon fill="white" stroke="none" points="-4,4 -4,-505.71 1023.15,-505.71 1023.15,4 -4,4"/>
<!-- control_input -->
<g id="node1" class="node">
<title>control_input</title>
<ellipse fill="none" stroke="blue" stroke-width="2" cx="354.96" cy="-242.96" rx="41.62" ry="18"/>
<text text-anchor="middle" x="354.96" y="-239.26" font-family="sans" font-size="11.00">control_input</text>
</g>
<!-- arp_output_request -->
<g id="node2" class="node">
<title>arp_output_request</title>
<ellipse fill="none" stroke="black" cx="760.28" cy="-261.96" rx="61.42" ry="18"/>
<text text-anchor="middle" x="760.28" y="-258.26" font-family="sans" font-size="11.00">arp_output_request</text>
</g>
<!-- control_input&#45;&gt;arp_output_request -->
<g id="edge1" class="edge">
<title>control_input&#45;&gt;arp_output_request</title>
<path fill="none" stroke="blue" stroke-width="2" d="M396.85,-244.88C465.2,-248.1 603.48,-254.62 688.09,-258.6"/>
<polygon fill="blue" stroke="blue" stroke-width="2" points="686.22,-262.02 696.38,-258.99 686.55,-255.03 686.22,-262.02"/>
</g>
<!-- icmp_local_send -->
<g id="node3" class="node">
<title>icmp_local_send</title>
<ellipse fill="none" stroke="black" cx="488.94" cy="-288.96" rx="51.31" ry="18"/>
<text text-anchor="middle" x="488.94" y="-285.26" font-family="sans" font-size="11.00">icmp_local_send</text>
</g>
<!-- control_input&#45;&gt;icmp_local_send -->
<g id="edge2" class="edge">
<title>control_input&#45;&gt;icmp_local_send</title>
<path fill="none" stroke="blue" stroke-width="2" d="M388.24,-254.21C404.17,-259.76 423.68,-266.56 441.2,-272.67"/>
<polygon fill="blue" stroke="blue" stroke-width="2" points="438.35,-275.38 448.94,-275.37 440.65,-268.77 438.35,-275.38"/>
</g>
<!-- ndp_ns_output -->
<g id="node4" class="node">
<title>ndp_ns_output</title>
<ellipse fill="none" stroke="black" cx="488.94" cy="-196.96" rx="46.26" ry="18"/>
<text text-anchor="middle" x="488.94" y="-193.26" font-family="sans" font-size="11.00">ndp_ns_output</text>
</g>
<!-- control_input&#45;&gt;ndp_ns_output -->
<g id="edge3" class="edge">
<title>control_input&#45;&gt;ndp_ns_output</title>
<path fill="none" stroke="blue" stroke-width="2" d="M388.24,-231.7C404.67,-225.98 424.92,-218.92 442.86,-212.67"/>
<polygon fill="blue" stroke="blue" stroke-width="2" points="442.53,-216.49 450.82,-209.89 440.23,-209.88 442.53,-216.49"/>
</g>
<!-- eth_output -->
<g id="node10" class="node">
<title>eth_output</title>
<ellipse fill="none" stroke="black" cx="893.42" cy="-302.96" rx="34.89" ry="18"/>
<text text-anchor="middle" x="893.42" y="-299.26" font-family="sans" font-size="11.00">eth_output</text>
</g>
<!-- arp_output_request&#45;&gt;eth_output -->
<g id="edge12" class="edge">
<title>arp_output_request&#45;&gt;eth_output</title>
<path fill="none" stroke="black" d="M803.5,-275.16C819.16,-280.05 836.87,-285.59 852.34,-290.43"/>
<polygon fill="black" stroke="black" points="851.12,-293.71 861.71,-293.35 853.21,-287.03 851.12,-293.71"/>
</g>
<!-- icmp_output -->
<g id="node16" class="node">
<title>icmp_output</title>
<ellipse fill="none" stroke="black" cx="619.56" cy="-386.96" rx="39.52" ry="18"/>
<text text-anchor="middle" x="619.56" y="-383.26" font-family="sans" font-size="11.00">icmp_output</text>
</g>
<!-- icmp_local_send&#45;&gt;icmp_output -->
<g id="edge15" class="edge">
<title>icmp_local_send&#45;&gt;icmp_output</title>
<path fill="none" stroke="black" d="M508.95,-305.72C526.09,-320.56 552.23,-342.51 576.25,-359.96 579.21,-362.11 582.34,-364.28 585.5,-366.41"/>
<polygon fill="black" stroke="black" points="583.4,-369.21 593.68,-371.77 587.23,-363.36 583.4,-369.21"/>
</g>
<!-- ip6_output -->
<g id="node25" class="node">
<title>ip6_output</title>
<ellipse fill="none" stroke="black" cx="760.28" cy="-131.96" rx="34.04" ry="18"/>
<text text-anchor="middle" x="760.28" y="-128.26" font-family="sans" font-size="11.00">ip6_output</text>
</g>
<!-- ndp_ns_output&#45;&gt;ip6_output -->
<g id="edge35" class="edge">
<title>ndp_ns_output&#45;&gt;ip6_output</title>
<path fill="none" stroke="black" d="M534.95,-199.5C570.42,-200.22 620.74,-198.39 662.86,-185.96 686.93,-178.85 711.57,-164.91 729.92,-152.98"/>
<polygon fill="black" stroke="black" points="731.8,-155.93 738.16,-147.45 727.9,-150.11 731.8,-155.93"/>
</g>
<!-- control_output -->
<g id="node5" class="node">
<title>control_output</title>
<ellipse fill="none" stroke="black" cx="488.94" cy="-380.96" rx="46.26" ry="18"/>
<text text-anchor="middle" x="488.94" y="-377.26" font-family="sans" font-size="11.00">control_output</text>
</g>
<!-- eth_input -->
<g id="node6" class="node">
<title>eth_input</title>
<ellipse fill="none" stroke="black" cx="120.25" cy="-334.96" rx="30.25" ry="18"/>
<text text-anchor="middle" x="120.25" y="-331.26" font-family="sans" font-size="11.00">eth_input</text>
</g>
<!-- arp_input -->
<g id="node7" class="node">
<title>arp_input</title>
<ellipse fill="none" stroke="black" cx="619.56" cy="-332.96" rx="30.25" ry="18"/>
<text text-anchor="middle" x="619.56" y="-329.26" font-family="sans" font-size="11.00">arp_input</text>
</g>
<!-- eth_input&#45;&gt;arp_input -->
<g id="edge4" class="edge">
<title>eth_input&#45;&gt;arp_input</title>
<path fill="none" stroke="black" d="M150.87,-334.84C235.78,-334.5 480.18,-333.51 577.68,-333.12"/>
<polygon fill="black" stroke="black" points="577.59,-336.62 587.58,-333.08 577.57,-329.62 577.59,-336.62"/>
</g>
<!-- ip_input -->
<g id="node8" class="node">
<title>ip_input</title>
<ellipse fill="none" stroke="black" cx="488.94" cy="-476.96" rx="27" ry="18"/>
<text text-anchor="middle" x="488.94" y="-473.26" font-family="sans" font-size="11.00">ip_input</text>
</g>
<!-- eth_input&#45;&gt;ip_input -->
<g id="edge5" class="edge">
<title>eth_input&#45;&gt;ip_input</title>
<path fill="none" stroke="black" d="M125.09,-353.07C132.06,-381.24 149.64,-435.1 186.51,-461.96 266.28,-520.06 391.85,-500.78 452.64,-486.54"/>
<polygon fill="black" stroke="black" points="453.2,-490 462.08,-484.23 451.54,-483.2 453.2,-490"/>
</g>
<!-- ip6_input -->
<g id="node9" class="node">
<title>ip6_input</title>
<ellipse fill="none" stroke="black" cx="229.39" cy="-104.96" rx="29.41" ry="18"/>
<text text-anchor="middle" x="229.39" y="-101.26" font-family="sans" font-size="11.00">ip6_input</text>
</g>
<!-- eth_input&#45;&gt;ip6_input -->
<g id="edge6" class="edge">
<title>eth_input&#45;&gt;ip6_input</title>
<path fill="none" stroke="black" d="M129.31,-317.67C147.73,-278.13 193.07,-180.79 215.46,-132.73"/>
<polygon fill="black" stroke="black" points="218.56,-134.36 219.61,-123.82 212.21,-131.4 218.56,-134.36"/>
</g>
<!-- arp_output_reply -->
<g id="node13" class="node">
<title>arp_output_reply</title>
<ellipse fill="none" stroke="black" cx="760.28" cy="-324.96" rx="53.41" ry="18"/>
<text text-anchor="middle" x="760.28" y="-321.26" font-family="sans" font-size="11.00">arp_output_reply</text>
</g>
<!-- arp_input&#45;&gt;arp_output_reply -->
<g id="edge9" class="edge">
<title>arp_input&#45;&gt;arp_output_reply</title>
<path fill="none" stroke="black" d="M649.98,-331.26C663.48,-330.48 680.05,-329.53 696.17,-328.6"/>
<polygon fill="black" stroke="black" points="695.92,-332.12 705.7,-328.05 695.52,-325.13 695.92,-332.12"/>
</g>
<!-- ip_output -->
<g id="node14" class="node">
<title>ip_output</title>
<ellipse fill="none" stroke="black" cx="760.28" cy="-383.96" rx="30.25" ry="18"/>
<text text-anchor="middle" x="760.28" y="-380.26" font-family="sans" font-size="11.00">ip_output</text>
</g>
<!-- arp_input&#45;&gt;ip_output -->
<g id="edge10" class="edge">
<title>arp_input&#45;&gt;ip_output</title>
<path fill="none" stroke="black" d="M646,-342.31C667.71,-350.29 699.16,-361.85 723.42,-370.77"/>
<polygon fill="black" stroke="black" points="721.98,-373.97 732.58,-374.14 724.4,-367.4 721.98,-373.97"/>
</g>
<!-- ip_forward -->
<g id="node17" class="node">
<title>ip_forward</title>
<ellipse fill="none" stroke="black" cx="619.56" cy="-460.96" rx="33.62" ry="18"/>
<text text-anchor="middle" x="619.56" y="-457.26" font-family="sans" font-size="11.00">ip_forward</text>
</g>
<!-- ip_input&#45;&gt;ip_forward -->
<g id="edge18" class="edge">
<title>ip_input&#45;&gt;ip_forward</title>
<path fill="none" stroke="black" d="M515.97,-473.72C533.03,-471.6 555.73,-468.77 575.45,-466.32"/>
<polygon fill="black" stroke="black" points="575.65,-469.82 585.14,-465.11 574.79,-462.87 575.65,-469.82"/>
</g>
<!-- ip_input_local -->
<g id="node18" class="node">
<title>ip_input_local</title>
<ellipse fill="none" stroke="black" cx="229.39" cy="-434.96" rx="42.89" ry="18"/>
<text text-anchor="middle" x="229.39" y="-431.26" font-family="sans" font-size="11.00">ip_input_local</text>
</g>
<!-- ip_input&#45;&gt;ip_input_local -->
<g id="edge19" class="edge">
<title>ip_input&#45;&gt;ip_input_local</title>
<path fill="none" stroke="black" d="M461.46,-476.81C426.15,-476.14 361.87,-473.29 308.28,-461.96 296.18,-459.4 283.38,-455.49 271.73,-451.44"/>
<polygon fill="black" stroke="black" points="272.98,-448.17 262.39,-448.06 270.6,-454.75 272.98,-448.17"/>
</g>
<!-- ip6_forward -->
<g id="node26" class="node">
<title>ip6_forward</title>
<ellipse fill="none" stroke="black" cx="354.96" cy="-27.96" rx="37.41" ry="18"/>
<text text-anchor="middle" x="354.96" y="-24.26" font-family="sans" font-size="11.00">ip6_forward</text>
</g>
<!-- ip6_input&#45;&gt;ip6_forward -->
<g id="edge29" class="edge">
<title>ip6_input&#45;&gt;ip6_forward</title>
<path fill="none" stroke="black" d="M250.8,-92.24C269.94,-80.31 298.88,-62.28 321.25,-48.34"/>
<polygon fill="black" stroke="black" points="323.08,-51.32 329.71,-43.06 319.38,-45.38 323.08,-51.32"/>
</g>
<!-- ip6_input_local -->
<g id="node27" class="node">
<title>ip6_input_local</title>
<ellipse fill="none" stroke="black" cx="354.96" cy="-104.96" rx="46.68" ry="18"/>
<text text-anchor="middle" x="354.96" y="-101.26" font-family="sans" font-size="11.00">ip6_input_local</text>
</g>
<!-- ip6_input&#45;&gt;ip6_input_local -->
<g id="edge30" class="edge">
<title>ip6_input&#45;&gt;ip6_input_local</title>
<path fill="none" stroke="black" d="M259.05,-104.96C270.3,-104.96 283.63,-104.96 296.69,-104.96"/>
<polygon fill="black" stroke="black" points="296.52,-108.46 306.52,-104.96 296.52,-101.46 296.52,-108.46"/>
</g>
<!-- port_tx -->
<g id="node11" class="node">
<title>port_tx</title>
<ellipse fill="none" stroke="black" cx="992.15" cy="-302.96" rx="27" ry="18"/>
<text text-anchor="middle" x="992.15" y="-299.26" font-family="sans" font-size="11.00">port_tx</text>
</g>
<!-- eth_output&#45;&gt;port_tx -->
<g id="edge7" class="edge">
<title>eth_output&#45;&gt;port_tx</title>
<path fill="none" stroke="black" d="M928.8,-302.96C936.75,-302.96 945.26,-302.96 953.35,-302.96"/>
<polygon fill="black" stroke="black" points="953.28,-306.46 963.28,-302.96 953.28,-299.46 953.28,-306.46"/>
</g>
<!-- port_rx -->
<g id="node12" class="node">
<title>port_rx</title>
<ellipse fill="none" stroke="blue" stroke-width="2" cx="27" cy="-334.96" rx="27" ry="18"/>
<text text-anchor="middle" x="27" y="-331.26" font-family="sans" font-size="11.00">port_rx</text>
</g>
<!-- port_rx&#45;&gt;eth_input -->
<g id="edge8" class="edge">
<title>port_rx&#45;&gt;eth_input</title>
<path fill="none" stroke="blue" stroke-width="2" d="M54.39,-334.96C61.91,-334.96 70.27,-334.96 78.43,-334.96"/>
<polygon fill="blue" stroke="blue" stroke-width="2" points="76.69,-338.46 86.69,-334.96 76.69,-331.46 76.69,-338.46"/>
</g>
<!-- arp_output_reply&#45;&gt;eth_output -->
<g id="edge11" class="edge">
<title>arp_output_reply&#45;&gt;eth_output</title>
<path fill="none" stroke="black" d="M808.63,-317.01C821.79,-314.81 836.02,-312.42 848.95,-310.25"/>
<polygon fill="black" stroke="black" points="849.15,-313.77 858.43,-308.66 847.99,-306.86 849.15,-313.77"/>
</g>
<!-- ip_output&#45;&gt;eth_output -->
<g id="edge22" class="edge">
<title>ip_output&#45;&gt;eth_output</title>
<path fill="none" stroke="black" d="M784.3,-372.58C795.73,-366.73 809.63,-359.3 821.7,-351.96 835.73,-343.42 850.76,-333.18 863.34,-324.27"/>
<polygon fill="black" stroke="black" points="865.1,-327.31 871.19,-318.64 861.02,-321.62 865.1,-327.31"/>
</g>
<!-- ipip_output -->
<g id="node20" class="node">
<title>ipip_output</title>
<ellipse fill="none" stroke="black" cx="893.42" cy="-383.96" rx="35.73" ry="18"/>
<text text-anchor="middle" x="893.42" y="-380.26" font-family="sans" font-size="11.00">ipip_output</text>
</g>
<!-- ip_output&#45;&gt;ipip_output -->
<g id="edge23" class="edge">
<title>ip_output&#45;&gt;ipip_output</title>
<path fill="none" stroke="black" d="M789.41,-378.3C806.45,-377.18 828.55,-376.92 847.91,-377.53"/>
<polygon fill="black" stroke="black" points="847.58,-381.02 857.72,-377.94 847.88,-374.02 847.58,-381.02"/>
</g>
<!-- icmp_input -->
<g id="node15" class="node">
<title>icmp_input</title>
<ellipse fill="none" stroke="black" cx="354.96" cy="-380.96" rx="34.89" ry="18"/>
<text text-anchor="middle" x="354.96" y="-377.26" font-family="sans" font-size="11.00">icmp_input</text>
</g>
<!-- icmp_input&#45;&gt;control_output -->
<g id="edge14" class="edge">
<title>icmp_input&#45;&gt;control_output</title>
<path fill="none" stroke="black" d="M390.29,-380.96C402.7,-380.96 417.07,-380.96 430.9,-380.96"/>
<polygon fill="black" stroke="black" points="430.83,-384.46 440.83,-380.96 430.83,-377.46 430.83,-384.46"/>
</g>
<!-- icmp_input&#45;&gt;icmp_output -->
<g id="edge13" class="edge">
<title>icmp_input&#45;&gt;icmp_output</title>
<path fill="none" stroke="black" d="M382.64,-392.18C398.34,-398.17 418.76,-404.92 437.63,-407.96 482.66,-415.21 495.03,-413.91 540.25,-407.96 551.97,-406.41 564.43,-403.62 575.88,-400.57"/>
<polygon fill="black" stroke="black" points="576.8,-403.94 585.48,-397.87 574.9,-397.21 576.8,-403.94"/>
</g>
<!-- icmp_output&#45;&gt;ip_output -->
<g id="edge16" class="edge">
<title>icmp_output&#45;&gt;ip_output</title>
<path fill="none" stroke="black" d="M659.2,-386.12C677.57,-385.72 699.54,-385.25 718.21,-384.84"/>
<polygon fill="black" stroke="black" points="718.2,-388.35 728.13,-384.63 718.05,-381.35 718.2,-388.35"/>
</g>
<!-- ip_forward&#45;&gt;ip_output -->
<g id="edge17" class="edge">
<title>ip_forward&#45;&gt;ip_output</title>
<path fill="none" stroke="black" d="M643.78,-448.07C666.69,-435.35 701.9,-415.81 727.42,-401.64"/>
<polygon fill="black" stroke="black" points="728.99,-404.77 736.04,-396.86 725.59,-398.65 728.99,-404.77"/>
</g>
<!-- ip_input_local&#45;&gt;icmp_input -->
<g id="edge20" class="edge">
<title>ip_input_local&#45;&gt;icmp_input</title>
<path fill="none" stroke="black" d="M259.99,-422.02C277.1,-414.55 298.77,-405.07 317,-397.11"/>
<polygon fill="black" stroke="black" points="318.39,-400.32 326.16,-393.11 315.59,-393.9 318.39,-400.32"/>
</g>
<!-- ipip_input -->
<g id="node19" class="node">
<title>ipip_input</title>
<ellipse fill="none" stroke="black" cx="354.96" cy="-434.96" rx="31.1" ry="18"/>
<text text-anchor="middle" x="354.96" y="-431.26" font-family="sans" font-size="11.00">ipip_input</text>
</g>
<!-- ip_input_local&#45;&gt;ipip_input -->
<g id="edge21" class="edge">
<title>ip_input_local&#45;&gt;ipip_input</title>
<path fill="none" stroke="black" d="M272.57,-434.96C285.42,-434.96 299.52,-434.96 312.33,-434.96"/>
<polygon fill="black" stroke="black" points="312.15,-438.46 322.15,-434.96 312.15,-431.46 312.15,-438.46"/>
</g>
<!-- ipip_input&#45;&gt;ip_input -->
<g id="edge36" class="edge">
<title>ipip_input&#45;&gt;ip_input</title>
<path fill="none" stroke="black" d="M382.66,-443.46C402.93,-449.91 430.98,-458.83 453.02,-465.85"/>
<polygon fill="black" stroke="black" points="451.9,-469.16 462.49,-468.86 454.02,-462.49 451.9,-469.16"/>
</g>
<!-- ipip_output&#45;&gt;ip_output -->
<g id="edge37" class="edge">
<title>ipip_output&#45;&gt;ip_output</title>
<path fill="none" stroke="black" d="M859.23,-389.91C841.47,-390.86 819.46,-390.96 800.81,-390.21"/>
<polygon fill="black" stroke="black" points="801.09,-386.72 790.92,-389.69 800.73,-393.71 801.09,-386.72"/>
</g>
<!-- icmp6_input -->
<g id="node21" class="node">
<title>icmp6_input</title>
<ellipse fill="none" stroke="black" cx="488.94" cy="-104.96" rx="38.68" ry="18"/>
<text text-anchor="middle" x="488.94" y="-101.26" font-family="sans" font-size="11.00">icmp6_input</text>
</g>
<!-- icmp6_output -->
<g id="node22" class="node">
<title>icmp6_output</title>
<ellipse fill="none" stroke="black" cx="619.56" cy="-158.96" rx="43.31" ry="18"/>
<text text-anchor="middle" x="619.56" y="-155.26" font-family="sans" font-size="11.00">icmp6_output</text>
</g>
<!-- icmp6_input&#45;&gt;icmp6_output -->
<g id="edge24" class="edge">
<title>icmp6_input&#45;&gt;icmp6_output</title>
<path fill="none" stroke="black" d="M518.48,-116.94C535.89,-124.25 558.41,-133.71 577.69,-141.8"/>
<polygon fill="black" stroke="black" points="576.33,-145.02 586.9,-145.67 579.04,-138.57 576.33,-145.02"/>
</g>
<!-- ndp_ns_input -->
<g id="node23" class="node">
<title>ndp_ns_input</title>
<ellipse fill="none" stroke="black" cx="619.56" cy="-104.96" rx="41.62" ry="18"/>
<text text-anchor="middle" x="619.56" y="-101.26" font-family="sans" font-size="11.00">ndp_ns_input</text>
</g>
<!-- icmp6_input&#45;&gt;ndp_ns_input -->
<g id="edge25" class="edge">
<title>icmp6_input&#45;&gt;ndp_ns_input</title>
<path fill="none" stroke="black" d="M527.83,-104.96C539.98,-104.96 553.66,-104.96 566.63,-104.96"/>
<polygon fill="black" stroke="black" points="566.28,-108.46 576.28,-104.96 566.28,-101.46 566.28,-108.46"/>
</g>
<!-- ndp_na_input -->
<g id="node24" class="node">
<title>ndp_na_input</title>
<ellipse fill="none" stroke="black" cx="619.56" cy="-50.96" rx="42.04" ry="18"/>
<text text-anchor="middle" x="619.56" y="-47.26" font-family="sans" font-size="11.00">ndp_na_input</text>
</g>
<!-- icmp6_input&#45;&gt;ndp_na_input -->
<g id="edge26" class="edge">
<title>icmp6_input&#45;&gt;ndp_na_input</title>
<path fill="none" stroke="black" d="M518.48,-92.97C536.09,-85.58 558.95,-75.98 578.37,-67.83"/>
<polygon fill="black" stroke="black" points="579.49,-71.15 587.36,-64.06 576.78,-64.7 579.49,-71.15"/>
</g>
<!-- icmp6_output&#45;&gt;ip6_output -->
<g id="edge27" class="edge">
<title>icmp6_output&#45;&gt;ip6_output</title>
<path fill="none" stroke="black" d="M659.2,-151.44C677.04,-147.96 698.28,-143.83 716.59,-140.27"/>
<polygon fill="black" stroke="black" points="717.21,-143.71 726.36,-138.36 715.88,-136.84 717.21,-143.71"/>
</g>
<!-- ndp_ns_input&#45;&gt;ip6_output -->
<g id="edge34" class="edge">
<title>ndp_ns_input&#45;&gt;ip6_output</title>
<path fill="none" stroke="black" d="M658.1,-112.26C676.17,-115.78 697.93,-120.02 716.62,-123.65"/>
<polygon fill="black" stroke="black" points="715.84,-127.07 726.33,-125.54 717.18,-120.2 715.84,-127.07"/>
</g>
<!-- ndp_na_input&#45;&gt;ip6_output -->
<g id="edge33" class="edge">
<title>ndp_na_input&#45;&gt;ip6_output</title>
<path fill="none" stroke="black" d="M645.36,-65.44C668.1,-78.72 701.92,-98.46 726.81,-113"/>
<polygon fill="black" stroke="black" points="724.83,-115.89 735.23,-117.91 728.35,-109.85 724.83,-115.89"/>
</g>
<!-- ip6_output&#45;&gt;eth_output -->
<g id="edge32" class="edge">
<title>ip6_output&#45;&gt;eth_output</title>
<path fill="none" stroke="black" d="M774.09,-148.66C797.11,-178.67 845.58,-241.88 872.8,-277.37"/>
<polygon fill="black" stroke="black" points="869.77,-279.18 878.64,-284.98 875.33,-274.92 869.77,-279.18"/>
</g>
<!-- ip6_forward&#45;&gt;ip6_output -->
<g id="edge28" class="edge">
<title>ip6_forward&#45;&gt;ip6_output</title>
<path fill="none" stroke="black" d="M387.75,-19.16C445.51,-4.94 570.22,17.53 662.86,-23.96 699.52,-40.37 727.98,-78.37 744.19,-104.61"/>
<polygon fill="black" stroke="black" points="741.1,-106.26 749.22,-113.07 747.12,-102.68 741.1,-106.26"/>
</g>
<!-- ip6_input_local&#45;&gt;icmp6_input -->
<g id="edge31" class="edge">
<title>ip6_input_local&#45;&gt;icmp6_input</title>
<path fill="none" stroke="black" d="M402.12,-104.96C413.95,-104.96 426.71,-104.96 438.69,-104.96"/>
<polygon fill="black" stroke="black" points="438.37,-108.46 448.37,-104.96 438.37,-101.46 438.37,-108.46"/>
</g>
</g>
</svg>
