<?xml version="1.0" encoding="UTF-8" standalone="no"?>
<!DOCTYPE svg PUBLIC "-//W3C//DTD SVG 1.1//EN"
 "http://www.w3.org/Graphics/SVG/1.1/DTD/svg11.dtd">
<!-- Generated by graphviz version 8.1.0 (20230707.0739)
 -->
<!-- Title: br&#45;0003 Pages: 1 -->
<svg width="1250pt" height="383pt"
 viewBox="0.00 0.00 1249.62 383.00" xmlns="http://www.w3.org/2000/svg" xmlns:xlink="http://www.w3.org/1999/xlink">
<g id="graph0" class="graph" transform="scale(1 1) rotate(0) translate(4 379)">
<title>br&#45;0003</title>
<polygon fill="white" stroke="none" points="-4,4 -4,-379 1245.62,-379 1245.62,4 -4,4"/>
<!-- ipv4_output_no_route -->
<g id="node1" class="node">
<title>ipv4_output_no_route</title>
<ellipse fill="none" stroke="darkorange" cx="900.02" cy="-218" rx="67.73" ry="18"/>
<text text-anchor="middle" x="900.02" y="-214.3" font-family="sans" font-size="11.00">ipv4_output_no_route</text>
</g>
<!-- ipv4_output_error -->
<g id="node2" class="node">
<title>ipv4_output_error</title>
<ellipse fill="none" stroke="darkorange" cx="900.02" cy="-164" rx="55.94" ry="18"/>
<text text-anchor="middle" x="900.02" y="-160.3" font-family="sans" font-size="11.00">ipv4_output_error</text>
</g>
<!-- ipv4_output -->
<g id="node3" class="node">
<title>ipv4_output</title>
<ellipse fill="none" stroke="black" cx="704.97" cy="-218" rx="37.83" ry="18"/>
<text text-anchor="middle" x="704.97" y="-214.3" font-family="sans" font-size="11.00">ipv4_output</text>
</g>
<!-- ipv4_output&#45;&gt;ipv4_output_no_route -->
<g id="edge2" class="edge">
<title>ipv4_output&#45;&gt;ipv4_output_no_route</title>
<path fill="none" stroke="black" d="M743.19,-218C765.25,-218 794.04,-218 820.87,-218"/>
<polygon fill="black" stroke="black" points="820.82,-221.5 830.82,-218 820.82,-214.5 820.82,-221.5"/>
</g>
<!-- ipv4_output&#45;&gt;ipv4_output_error -->
<g id="edge3" class="edge">
<title>ipv4_output&#45;&gt;ipv4_output_error</title>
<path fill="none" stroke="black" d="M738.28,-208.96C767.76,-200.72 811.85,-188.38 846.4,-178.72"/>
<polygon fill="black" stroke="black" points="847.11,-181.88 855.79,-175.81 845.22,-175.13 847.11,-181.88"/>
</g>
<!-- eth_tx -->
<g id="node4" class="node">
<title>eth_tx</title>
<ellipse fill="none" stroke="black" cx="1056.75" cy="-118" rx="27" ry="18"/>
<text text-anchor="middle" x="1056.75" y="-114.3" font-family="sans" font-size="11.00">eth_tx</text>
</g>
<!-- ipv4_output&#45;&gt;eth_tx -->
<g id="edge1" class="edge">
<title>ipv4_output&#45;&gt;eth_tx</title>
<path fill="none" stroke="black" d="M741.55,-213.22C759.32,-209.45 780.36,-202.77 796.29,-191 819.48,-173.85 807.46,-151.68 832.29,-137 890.5,-102.59 972.58,-106.13 1019.35,-111.96"/>
<polygon fill="black" stroke="black" points="1018.78,-115.55 1029.16,-113.43 1019.72,-108.61 1018.78,-115.55"/>
</g>
<!-- arp_output_request -->
<g id="node5" class="node">
<title>arp_output_request</title>
<ellipse fill="none" stroke="black" cx="900.02" cy="-272" rx="61.42" ry="18"/>
<text text-anchor="middle" x="900.02" y="-268.3" font-family="sans" font-size="11.00">arp_output_request</text>
</g>
<!-- ipv4_output&#45;&gt;arp_output_request -->
<g id="edge4" class="edge">
<title>ipv4_output&#45;&gt;arp_output_request</title>
<path fill="none" stroke="black" d="M738.28,-227.04C767.17,-235.12 810.11,-247.13 844.34,-256.7"/>
<polygon fill="black" stroke="black" points="843.08,-260.27 853.66,-259.59 844.97,-253.53 843.08,-260.27"/>
</g>
<!-- eth_tx_no_dest -->
<g id="node20" class="node">
<title>eth_tx_no_dest</title>
<ellipse fill="none" stroke="darkorange" cx="1193.68" cy="-145" rx="47.94" ry="18"/>
<text text-anchor="middle" x="1193.68" y="-141.3" font-family="sans" font-size="11.00">eth_tx_no_dest</text>
</g>
<!-- eth_tx&#45;&gt;eth_tx_no_dest -->
<g id="edge22" class="edge">
<title>eth_tx&#45;&gt;eth_tx_no_dest</title>
<path fill="none" stroke="black" d="M1083.13,-123.08C1099.16,-126.29 1120.49,-130.55 1140.06,-134.47"/>
<polygon fill="black" stroke="black" points="1139.21,-138.07 1149.7,-136.6 1140.58,-131.21 1139.21,-138.07"/>
</g>
<!-- eth_tx_error -->
<g id="node21" class="node">
<title>eth_tx_error</title>
<ellipse fill="none" stroke="darkorange" cx="1193.68" cy="-91" rx="39.1" ry="18"/>
<text text-anchor="middle" x="1193.68" y="-87.3" font-family="sans" font-size="11.00">eth_tx_error</text>
</g>
<!-- eth_tx&#45;&gt;eth_tx_error -->
<g id="edge21" class="edge">
<title>eth_tx&#45;&gt;eth_tx_error</title>
<path fill="none" stroke="black" d="M1083.13,-112.92C1100.94,-109.36 1125.27,-104.49 1146.47,-100.25"/>
<polygon fill="black" stroke="black" points="1147.11,-103.49 1156.23,-98.09 1145.74,-96.62 1147.11,-103.49"/>
</g>
<!-- arp_output_request&#45;&gt;eth_tx -->
<g id="edge12" class="edge">
<title>arp_output_request&#45;&gt;eth_tx</title>
<path fill="none" stroke="black" d="M943.65,-259.07C952.14,-255.34 960.63,-250.7 967.75,-245 1002.08,-217.54 1028.52,-173.2 1043.1,-144.84"/>
<polygon fill="black" stroke="black" points="1046.59,-146.68 1047.93,-136.17 1040.33,-143.55 1046.59,-146.68"/>
</g>
<!-- arp_output_error -->
<g id="node13" class="node">
<title>arp_output_error</title>
<ellipse fill="none" stroke="darkorange" cx="1056.75" cy="-245" rx="52.99" ry="18"/>
<text text-anchor="middle" x="1056.75" y="-241.3" font-family="sans" font-size="11.00">arp_output_error</text>
</g>
<!-- arp_output_request&#45;&gt;arp_output_error -->
<g id="edge14" class="edge">
<title>arp_output_request&#45;&gt;arp_output_error</title>
<path fill="none" stroke="black" d="M953.4,-262.86C967.86,-260.34 983.63,-257.58 998.36,-255.01"/>
<polygon fill="black" stroke="black" points="998.62,-258.35 1007.87,-253.18 997.42,-251.45 998.62,-258.35"/>
</g>
<!-- arp_queue_full -->
<g id="node14" class="node">
<title>arp_queue_full</title>
<ellipse fill="none" stroke="darkorange" cx="1056.75" cy="-299" rx="45.83" ry="18"/>
<text text-anchor="middle" x="1056.75" y="-295.3" font-family="sans" font-size="11.00">arp_queue_full</text>
</g>
<!-- arp_output_request&#45;&gt;arp_queue_full -->
<g id="edge13" class="edge">
<title>arp_output_request&#45;&gt;arp_queue_full</title>
<path fill="none" stroke="black" d="M953.4,-281.14C969.66,-283.98 987.56,-287.1 1003.78,-289.93"/>
<polygon fill="black" stroke="black" points="1002.71,-293.47 1013.17,-291.74 1003.92,-286.58 1002.71,-293.47"/>
</g>
<!-- ipv4_input_bad_length -->
<g id="node6" class="node">
<title>ipv4_input_bad_length</title>
<ellipse fill="none" stroke="darkorange" cx="496.45" cy="-303" rx="69.84" ry="18"/>
<text text-anchor="middle" x="496.45" y="-299.3" font-family="sans" font-size="11.00">ipv4_input_bad_length</text>
</g>
<!-- ipv4_input_bad_checksum -->
<g id="node7" class="node">
<title>ipv4_input_bad_checksum</title>
<ellipse fill="none" stroke="darkorange" cx="496.45" cy="-249" rx="81.21" ry="18"/>
<text text-anchor="middle" x="496.45" y="-245.3" font-family="sans" font-size="11.00">ipv4_input_bad_checksum</text>
</g>
<!-- ipv4_input_no_route -->
<g id="node8" class="node">
<title>ipv4_input_no_route</title>
<ellipse fill="none" stroke="darkorange" cx="496.45" cy="-195" rx="63.1" ry="18"/>
<text text-anchor="middle" x="496.45" y="-191.3" font-family="sans" font-size="11.00">ipv4_input_no_route</text>
</g>
<!-- ipv4_input_local -->
<g id="node9" class="node">
<title>ipv4_input_local</title>
<ellipse fill="none" stroke="darkorange" cx="496.45" cy="-141" rx="50.47" ry="18"/>
<text text-anchor="middle" x="496.45" y="-137.3" font-family="sans" font-size="11.00">ipv4_input_local</text>
</g>
<!-- ipv4_input -->
<g id="node10" class="node">
<title>ipv4_input</title>
<ellipse fill="none" stroke="black" cx="290.45" cy="-222" rx="33.2" ry="18"/>
<text text-anchor="middle" x="290.45" y="-218.3" font-family="sans" font-size="11.00">ipv4_input</text>
</g>
<!-- ipv4_input&#45;&gt;ipv4_input_bad_length -->
<g id="edge9" class="edge">
<title>ipv4_input&#45;&gt;ipv4_input_bad_length</title>
<path fill="none" stroke="black" d="M316.32,-233.61C341.13,-245 380.46,-262.59 415.24,-276 423.62,-279.23 432.56,-282.46 441.33,-285.5"/>
<polygon fill="black" stroke="black" points="439.9,-289.05 450.5,-288.97 442.16,-282.42 439.9,-289.05"/>
</g>
<!-- ipv4_input&#45;&gt;ipv4_input_bad_checksum -->
<g id="edge8" class="edge">
<title>ipv4_input&#45;&gt;ipv4_input_bad_checksum</title>
<path fill="none" stroke="black" d="M322.88,-226.16C347.48,-229.42 382.83,-234.09 415.13,-238.37"/>
<polygon fill="black" stroke="black" points="414.57,-241.96 424.95,-239.8 415.49,-235.02 414.57,-241.96"/>
</g>
<!-- ipv4_input&#45;&gt;ipv4_input_no_route -->
<g id="edge7" class="edge">
<title>ipv4_input&#45;&gt;ipv4_input_no_route</title>
<path fill="none" stroke="black" d="M322.88,-217.84C350.73,-214.15 392.36,-208.64 427.75,-203.96"/>
<polygon fill="black" stroke="black" points="428.06,-207.32 437.51,-202.54 427.14,-200.38 428.06,-207.32"/>
</g>
<!-- ipv4_input&#45;&gt;ipv4_input_local -->
<g id="edge6" class="edge">
<title>ipv4_input&#45;&gt;ipv4_input_local</title>
<path fill="none" stroke="black" d="M316.32,-210.39C341.13,-199 380.46,-181.41 415.24,-168 425.52,-164.04 436.67,-160.08 447.28,-156.46"/>
<polygon fill="black" stroke="black" points="448.3,-159.47 456.67,-152.97 446.07,-152.84 448.3,-159.47"/>
</g>
<!-- ipv4_forward -->
<g id="node11" class="node">
<title>ipv4_forward</title>
<ellipse fill="none" stroke="black" cx="496.45" cy="-357" rx="41.2" ry="18"/>
<text text-anchor="middle" x="496.45" y="-353.3" font-family="sans" font-size="11.00">ipv4_forward</text>
</g>
<!-- ipv4_input&#45;&gt;ipv4_forward -->
<g id="edge5" class="edge">
<title>ipv4_input&#45;&gt;ipv4_forward</title>
<path fill="none" stroke="black" d="M305.93,-238.15C327.61,-261.43 370.72,-304.44 415.24,-330 425.78,-336.05 437.88,-341.01 449.43,-344.95"/>
<polygon fill="black" stroke="black" points="448.23,-348.56 458.82,-348.28 450.37,-341.89 448.23,-348.56"/>
</g>
<!-- ipv4_forward&#45;&gt;ipv4_output -->
<g id="edge10" class="edge">
<title>ipv4_forward&#45;&gt;ipv4_output</title>
<path fill="none" stroke="black" d="M533.11,-348.34C547.51,-344 563.93,-337.95 577.66,-330 618.67,-306.24 658.27,-267.81 681.88,-242.72"/>
<polygon fill="black" stroke="black" points="684.03,-245.47 688.25,-235.76 678.89,-240.72 684.03,-245.47"/>
</g>
<!-- ipv4_forward_ttl_exceeded -->
<g id="node12" class="node">
<title>ipv4_forward_ttl_exceeded</title>
<ellipse fill="none" stroke="darkorange" cx="704.97" cy="-357" rx="83.31" ry="18"/>
<text text-anchor="middle" x="704.97" y="-353.3" font-family="sans" font-size="11.00">ipv4_forward_ttl_exceeded</text>
</g>
<!-- ipv4_forward&#45;&gt;ipv4_forward_ttl_exceeded -->
<g id="edge11" class="edge">
<title>ipv4_forward&#45;&gt;ipv4_forward_ttl_exceeded</title>
<path fill="none" stroke="black" d="M537.76,-357C558.61,-357 585,-357 610.57,-357"/>
<polygon fill="black" stroke="black" points="610.47,-360.5 620.47,-357 610.47,-353.5 610.47,-360.5"/>
</g>
<!-- arp_output_reply -->
<g id="node15" class="node">
<title>arp_output_reply</title>
<ellipse fill="none" stroke="black" cx="900.02" cy="-68" rx="53.41" ry="18"/>
<text text-anchor="middle" x="900.02" y="-64.3" font-family="sans" font-size="11.00">arp_output_reply</text>
</g>
<!-- arp_output_reply&#45;&gt;eth_tx -->
<g id="edge15" class="edge">
<title>arp_output_reply&#45;&gt;eth_tx</title>
<path fill="none" stroke="black" d="M939.66,-80.49C964.93,-88.65 997.61,-99.21 1021.86,-107.05"/>
<polygon fill="black" stroke="black" points="1020.43,-110.59 1031.02,-110.33 1022.58,-103.93 1020.43,-110.59"/>
</g>
<!-- arp_input_proto_unsupported -->
<g id="node16" class="node">
<title>arp_input_proto_unsupported</title>
<ellipse fill="none" stroke="darkorange" cx="704.97" cy="-18" rx="91.31" ry="18"/>
<text text-anchor="middle" x="704.97" y="-14.3" font-family="sans" font-size="11.00">arp_input_proto_unsupported</text>
</g>
<!-- arp_input_op_unsupported -->
<g id="node17" class="node">
<title>arp_input_op_unsupported</title>
<ellipse fill="none" stroke="darkorange" cx="704.97" cy="-164" rx="82.47" ry="18"/>
<text text-anchor="middle" x="704.97" y="-160.3" font-family="sans" font-size="11.00">arp_input_op_unsupported</text>
</g>
<!-- arp_input_reply -->
<g id="node18" class="node">
<title>arp_input_reply</title>
<ellipse fill="none" stroke="darkorange" cx="704.97" cy="-110" rx="48.78" ry="18"/>
<text text-anchor="middle" x="704.97" y="-106.3" font-family="sans" font-size="11.00">arp_input_reply</text>
</g>
<!-- arp_input -->
<g id="node19" class="node">
<title>arp_input</title>
<ellipse fill="none" stroke="black" cx="496.45" cy="-87" rx="30.25" ry="18"/>
<text text-anchor="middle" x="496.45" y="-83.3" font-family="sans" font-size="11.00">arp_input</text>
</g>
<!-- arp_input&#45;&gt;ipv4_output -->
<g id="edge20" class="edge">
<title>arp_input&#45;&gt;ipv4_output</title>
<path fill="none" stroke="black" d="M526.26,-90.94C542.95,-94.51 563.41,-101.28 577.66,-114 605.83,-139.17 585.06,-166.32 613.66,-191 625.84,-201.51 641.98,-207.93 657.25,-211.85"/>
<polygon fill="black" stroke="black" points="656.1,-215.41 666.62,-214.19 657.63,-208.58 656.1,-215.41"/>
</g>
<!-- arp_input&#45;&gt;arp_output_reply -->
<g id="edge16" class="edge">
<title>arp_input&#45;&gt;arp_output_reply</title>
<path fill="none" stroke="black" d="M526.98,-85.6C591.86,-82.53 748.04,-75.14 836.02,-70.98"/>
<polygon fill="black" stroke="black" points="836.1,-74.43 845.93,-70.46 835.77,-67.44 836.1,-74.43"/>
</g>
<!-- arp_input&#45;&gt;arp_input_proto_unsupported -->
<g id="edge19" class="edge">
<title>arp_input&#45;&gt;arp_input_proto_unsupported</title>
<path fill="none" stroke="black" d="M523.19,-78.4C553.93,-68.13 606.26,-50.65 646.73,-37.13"/>
<polygon fill="black" stroke="black" points="647.63,-40.18 656.01,-33.69 645.41,-33.54 647.63,-40.18"/>
</g>
<!-- arp_input&#45;&gt;arp_input_op_unsupported -->
<g id="edge18" class="edge">
<title>arp_input&#45;&gt;arp_input_op_unsupported</title>
<path fill="none" stroke="black" d="M524.46,-94.3C540.33,-99.02 560.56,-105.81 577.66,-114 594.78,-122.2 596.4,-129.09 613.66,-137 621.79,-140.72 630.56,-144.09 639.33,-147.07"/>
<polygon fill="black" stroke="black" points="637.99,-150.64 648.58,-150.41 640.15,-143.99 637.99,-150.64"/>
</g>
<!-- arp_input&#45;&gt;arp_input_reply -->
<g id="edge17" class="edge">
<title>arp_input&#45;&gt;arp_input_reply</title>
<path fill="none" stroke="black" d="M526.6,-90.25C557.8,-93.72 608.08,-99.32 647.16,-103.67"/>
<polygon fill="black" stroke="black" points="646.53,-107.24 656.86,-104.86 647.3,-100.28 646.53,-107.24"/>
</g>
<!-- eth_rx -->
<g id="node22" class="node">
<title>eth_rx</title>
<ellipse fill="none" stroke="blue" stroke-width="2" cx="27" cy="-145" rx="27" ry="18"/>
<text text-anchor="middle" x="27" y="-141.3" font-family="sans" font-size="11.00">eth_rx</text>
</g>
<!-- eth_classify -->
<g id="node23" class="node">
<title>eth_classify</title>
<ellipse fill="none" stroke="black" cx="127.83" cy="-145" rx="37.83" ry="18"/>
<text text-anchor="middle" x="127.83" y="-141.3" font-family="sans" font-size="11.00">eth_classify</text>
</g>
<!-- eth_rx&#45;&gt;eth_classify -->
<g id="edge23" class="edge">
<title>eth_rx&#45;&gt;eth_classify</title>
<path fill="none" stroke="blue" stroke-width="2" d="M54.49,-145C62.04,-145 70.51,-145 78.93,-145"/>
<polygon fill="blue" stroke="blue" stroke-width="2" points="76.87,-148.5 86.87,-145 76.87,-141.5 76.87,-148.5"/>
</g>
<!-- eth_classify&#45;&gt;ipv4_input -->
<g id="edge25" class="edge">
<title>eth_classify&#45;&gt;ipv4_input</title>
<path fill="none" stroke="black" d="M155.36,-157.71C182.65,-170.8 225.3,-191.24 255.15,-205.55"/>
<polygon fill="black" stroke="black" points="253.21,-208.99 263.74,-210.15 256.23,-202.67 253.21,-208.99"/>
</g>
<!-- eth_classify&#45;&gt;arp_input -->
<g id="edge26" class="edge">
<title>eth_classify&#45;&gt;arp_input</title>
<path fill="none" stroke="black" d="M166.14,-145.04C215.42,-144.44 304.68,-141.1 379.24,-126 379.77,-125.89 425.51,-110.52 459.45,-99.11"/>
<polygon fill="black" stroke="black" points="460.17,-102.22 468.53,-95.72 457.94,-95.59 460.17,-102.22"/>
</g>
<!-- eth_classify_unknown_ptype -->
<g id="node24" class="node">
<title>eth_classify_unknown_ptype</title>
<ellipse fill="none" stroke="darkorange" cx="290.45" cy="-99" rx="88.79" ry="18"/>
<text text-anchor="middle" x="290.45" y="-95.3" font-family="sans" font-size="11.00">eth_classify_unknown_ptype</text>
</g>
<!-- eth_classify&#45;&gt;eth_classify_unknown_ptype -->
<g id="edge24" class="edge">
<title>eth_classify&#45;&gt;eth_classify_unknown_ptype</title>
<path fill="none" stroke="black" d="M160.95,-135.8C179.84,-130.39 204.37,-123.37 226.93,-116.91"/>
<polygon fill="black" stroke="black" points="227.82,-120 236.47,-113.89 225.9,-113.28 227.82,-120"/>
</g>
</g>
</svg>
