<?xml version="1.0" encoding="UTF-8" standalone="no"?>
<!DOCTYPE svg PUBLIC "-//W3C//DTD SVG 1.1//EN"
 "http://www.w3.org/Graphics/SVG/1.1/DTD/svg11.dtd">
<!-- Generated by graphviz version 9.0.0 (20230911.1827)
 -->
<!-- Title: br&#45;0003 Pages: 1 -->
<svg width="2036pt" height="476pt"
 viewBox="0.00 0.00 2036.19 476.00" xmlns="http://www.w3.org/2000/svg" xmlns:xlink="http://www.w3.org/1999/xlink">
<g id="graph0" class="graph" transform="scale(1 1) rotate(0) translate(4 472)">
<title>br&#45;0003</title>
<polygon fill="white" stroke="none" points="-4,4 -4,-472 2032.19,-472 2032.19,4 -4,4"/>
<!-- eth_input -->
<g id="node1" class="node">
<title>eth_input</title>
<ellipse fill="none" stroke="black" cx="226.02" cy="-326" rx="30.25" ry="18"/>
<text text-anchor="middle" x="226.02" y="-322.3" font-family="sans" font-size="11.00">eth_input</text>
</g>
<!-- eth_input_unknown_type -->
<g id="node2" class="node">
<title>eth_input_unknown_type</title>
<ellipse fill="none" stroke="darkorange" cx="369.69" cy="-372" rx="77.42" ry="18"/>
<text text-anchor="middle" x="369.69" y="-368.3" font-family="sans" font-size="11.00">eth_input_unknown_type</text>
</g>
<!-- eth_input&#45;&gt;eth_input_unknown_type -->
<g id="edge1" class="edge">
<title>eth_input&#45;&gt;eth_input_unknown_type</title>
<path fill="none" stroke="black" d="M253.01,-334.44C269.6,-339.82 291.76,-347.02 312.25,-353.67"/>
<polygon fill="black" stroke="black" points="311.06,-356.97 321.65,-356.73 313.22,-350.31 311.06,-356.97"/>
</g>
<!-- arp_input -->
<g id="node3" class="node">
<title>arp_input</title>
<ellipse fill="none" stroke="black" cx="964.1" cy="-334" rx="30.25" ry="18"/>
<text text-anchor="middle" x="964.1" y="-330.3" font-family="sans" font-size="11.00">arp_input</text>
</g>
<!-- eth_input&#45;&gt;arp_input -->
<g id="edge2" class="edge">
<title>eth_input&#45;&gt;arp_input</title>
<path fill="none" stroke="black" d="M256.33,-326.32C371.05,-327.57 789.82,-332.12 922.49,-333.56"/>
<polygon fill="black" stroke="black" points="922.16,-337.06 932.19,-333.66 922.23,-330.06 922.16,-337.06"/>
</g>
<!-- ip_input -->
<g id="node4" class="node">
<title>ip_input</title>
<ellipse fill="none" stroke="black" cx="369.69" cy="-153" rx="27" ry="18"/>
<text text-anchor="middle" x="369.69" y="-149.3" font-family="sans" font-size="11.00">ip_input</text>
</g>
<!-- eth_input&#45;&gt;ip_input -->
<g id="edge3" class="edge">
<title>eth_input&#45;&gt;ip_input</title>
<path fill="none" stroke="black" d="M240.35,-309.72C265.26,-279.3 319.02,-213.65 348.44,-177.73"/>
<polygon fill="black" stroke="black" points="351.12,-179.98 354.75,-170.03 345.71,-175.55 351.12,-179.98"/>
</g>
<!-- arp_output_reply -->
<g id="node13" class="node">
<title>arp_output_reply</title>
<ellipse fill="none" stroke="black" cx="1167.99" cy="-450" rx="53.41" ry="18"/>
<text text-anchor="middle" x="1167.99" y="-446.3" font-family="sans" font-size="11.00">arp_output_reply</text>
</g>
<!-- arp_input&#45;&gt;arp_output_reply -->
<g id="edge11" class="edge">
<title>arp_input&#45;&gt;arp_output_reply</title>
<path fill="none" stroke="black" d="M980.35,-349.39C1000.66,-369.08 1038.47,-403.02 1076.68,-423 1087.56,-428.69 1099.82,-433.37 1111.71,-437.13"/>
<polygon fill="black" stroke="black" points="1110.45,-440.41 1121.04,-439.9 1112.45,-433.7 1110.45,-440.41"/>
</g>
<!-- arp_input_reply -->
<g id="node14" class="node">
<title>arp_input_reply</title>
<ellipse fill="none" stroke="darkorange" cx="1167.99" cy="-396" rx="48.78" ry="18"/>
<text text-anchor="middle" x="1167.99" y="-392.3" font-family="sans" font-size="11.00">arp_input_reply</text>
</g>
<!-- arp_input&#45;&gt;arp_input_reply -->
<g id="edge12" class="edge">
<title>arp_input&#45;&gt;arp_input_reply</title>
<path fill="none" stroke="black" d="M991.22,-342.3C1013.81,-349.46 1047.36,-360.02 1076.68,-369 1090.12,-373.12 1104.72,-377.52 1118.18,-381.54"/>
<polygon fill="black" stroke="black" points="1117.13,-384.88 1127.72,-384.38 1119.13,-378.17 1117.13,-384.88"/>
</g>
<!-- arp_input_op_unsupported -->
<g id="node15" class="node">
<title>arp_input_op_unsupported</title>
<ellipse fill="none" stroke="darkorange" cx="1167.99" cy="-342" rx="82.47" ry="18"/>
<text text-anchor="middle" x="1167.99" y="-338.3" font-family="sans" font-size="11.00">arp_input_op_unsupported</text>
</g>
<!-- arp_input&#45;&gt;arp_input_op_unsupported -->
<g id="edge13" class="edge">
<title>arp_input&#45;&gt;arp_input_op_unsupported</title>
<path fill="none" stroke="black" d="M994.46,-335.16C1015.89,-336.01 1046.19,-337.21 1075.43,-338.37"/>
<polygon fill="black" stroke="black" points="1074.92,-341.85 1085.05,-338.75 1075.2,-334.86 1074.92,-341.85"/>
</g>
<!-- arp_input_proto_unsupported -->
<g id="node16" class="node">
<title>arp_input_proto_unsupported</title>
<ellipse fill="none" stroke="darkorange" cx="1167.99" cy="-288" rx="91.31" ry="18"/>
<text text-anchor="middle" x="1167.99" y="-284.3" font-family="sans" font-size="11.00">arp_input_proto_unsupported</text>
</g>
<!-- arp_input&#45;&gt;arp_input_proto_unsupported -->
<g id="edge14" class="edge">
<title>arp_input&#45;&gt;arp_input_proto_unsupported</title>
<path fill="none" stroke="black" d="M992.75,-327.7C1019.27,-321.66 1060.44,-312.28 1096.1,-304.15"/>
<polygon fill="black" stroke="black" points="1096.52,-307.65 1105.49,-302.01 1094.97,-300.82 1096.52,-307.65"/>
</g>
<!-- ip_output -->
<g id="node17" class="node">
<title>ip_output</title>
<ellipse fill="none" stroke="black" cx="1167.99" cy="-234" rx="30.25" ry="18"/>
<text text-anchor="middle" x="1167.99" y="-230.3" font-family="sans" font-size="11.00">ip_output</text>
</g>
<!-- arp_input&#45;&gt;ip_output -->
<g id="edge15" class="edge">
<title>arp_input&#45;&gt;ip_output</title>
<path fill="none" stroke="black" d="M988.82,-323.38C1004.18,-316.04 1024.3,-305.55 1040.68,-294 1058.41,-281.49 1057.8,-271.71 1076.68,-261 1092.4,-252.07 1111.38,-245.82 1127.87,-241.6"/>
<polygon fill="black" stroke="black" points="1128.43,-245.07 1137.35,-239.34 1126.81,-238.26 1128.43,-245.07"/>
</g>
<!-- ip_forward -->
<g id="node26" class="node">
<title>ip_forward</title>
<ellipse fill="none" stroke="black" cx="556.74" cy="-234" rx="33.62" ry="18"/>
<text text-anchor="middle" x="556.74" y="-230.3" font-family="sans" font-size="11.00">ip_forward</text>
</g>
<!-- ip_input&#45;&gt;ip_forward -->
<g id="edge27" class="edge">
<title>ip_input&#45;&gt;ip_forward</title>
<path fill="none" stroke="black" d="M391.56,-163.74C413.94,-175.08 450.63,-193.2 483.11,-207 494.07,-211.66 506.13,-216.32 517.22,-220.43"/>
<polygon fill="black" stroke="black" points="515.9,-223.67 526.49,-223.81 518.3,-217.1 515.9,-223.67"/>
</g>
<!-- ip_input_local -->
<g id="node28" class="node">
<title>ip_input_local</title>
<ellipse fill="none" stroke="black" cx="556.74" cy="-180" rx="42.89" ry="18"/>
<text text-anchor="middle" x="556.74" y="-176.3" font-family="sans" font-size="11.00">ip_input_local</text>
</g>
<!-- ip_input&#45;&gt;ip_input_local -->
<g id="edge28" class="edge">
<title>ip_input&#45;&gt;ip_input_local</title>
<path fill="none" stroke="black" d="M396.42,-156.75C424.29,-160.82 469.47,-167.41 504.62,-172.54"/>
<polygon fill="black" stroke="black" points="503.74,-175.95 514.14,-173.93 504.75,-169.02 503.74,-175.95"/>
</g>
<!-- ip_input_no_route -->
<g id="node29" class="node">
<title>ip_input_no_route</title>
<ellipse fill="none" stroke="darkorange" cx="556.74" cy="-126" rx="55.52" ry="18"/>
<text text-anchor="middle" x="556.74" y="-122.3" font-family="sans" font-size="11.00">ip_input_no_route</text>
</g>
<!-- ip_input&#45;&gt;ip_input_no_route -->
<g id="edge29" class="edge">
<title>ip_input&#45;&gt;ip_input_no_route</title>
<path fill="none" stroke="black" d="M396.42,-149.25C421.67,-145.56 461.13,-139.8 494.46,-134.94"/>
<polygon fill="black" stroke="black" points="494.62,-138.46 504.01,-133.55 493.61,-131.53 494.62,-138.46"/>
</g>
<!-- ip_input_bad_checksum -->
<g id="node30" class="node">
<title>ip_input_bad_checksum</title>
<ellipse fill="none" stroke="darkorange" cx="556.74" cy="-72" rx="73.63" ry="18"/>
<text text-anchor="middle" x="556.74" y="-68.3" font-family="sans" font-size="11.00">ip_input_bad_checksum</text>
</g>
<!-- ip_input&#45;&gt;ip_input_bad_checksum -->
<g id="edge30" class="edge">
<title>ip_input&#45;&gt;ip_input_bad_checksum</title>
<path fill="none" stroke="black" d="M391.56,-142.26C413.94,-130.92 450.63,-112.8 483.11,-99 489.53,-96.27 496.33,-93.54 503.09,-90.92"/>
<polygon fill="black" stroke="black" points="504.1,-94.28 512.2,-87.45 501.61,-87.74 504.1,-94.28"/>
</g>
<!-- ip_input_bad_length -->
<g id="node31" class="node">
<title>ip_input_bad_length</title>
<ellipse fill="none" stroke="darkorange" cx="556.74" cy="-18" rx="62.26" ry="18"/>
<text text-anchor="middle" x="556.74" y="-14.3" font-family="sans" font-size="11.00">ip_input_bad_length</text>
</g>
<!-- ip_input&#45;&gt;ip_input_bad_length -->
<g id="edge31" class="edge">
<title>ip_input&#45;&gt;ip_input_bad_length</title>
<path fill="none" stroke="black" d="M383.3,-137.33C402.61,-114.25 441.62,-71.05 483.11,-45 488.94,-41.34 495.35,-38.06 501.86,-35.16"/>
<polygon fill="black" stroke="black" points="502.82,-38.55 510.72,-31.49 500.14,-32.09 502.82,-38.55"/>
</g>
<!-- eth_output -->
<g id="node5" class="node">
<title>eth_output</title>
<ellipse fill="none" stroke="black" cx="1527.34" cy="-342" rx="34.89" ry="18"/>
<text text-anchor="middle" x="1527.34" y="-338.3" font-family="sans" font-size="11.00">eth_output</text>
</g>
<!-- iface_output -->
<g id="node6" class="node">
<title>iface_output</title>
<ellipse fill="none" stroke="black" cx="1678.17" cy="-369" rx="39.52" ry="18"/>
<text text-anchor="middle" x="1678.17" y="-365.3" font-family="sans" font-size="11.00">iface_output</text>
</g>
<!-- eth_output&#45;&gt;iface_output -->
<g id="edge4" class="edge">
<title>eth_output&#45;&gt;iface_output</title>
<path fill="none" stroke="black" d="M1560.64,-347.86C1580.9,-351.53 1607.36,-356.34 1629.96,-360.43"/>
<polygon fill="black" stroke="black" points="1629.07,-363.83 1639.54,-362.17 1630.32,-356.94 1629.07,-363.83"/>
</g>
<!-- eth_output_no_dest -->
<g id="node7" class="node">
<title>eth_output_no_dest</title>
<ellipse fill="none" stroke="darkorange" cx="1678.17" cy="-315" rx="61.84" ry="18"/>
<text text-anchor="middle" x="1678.17" y="-311.3" font-family="sans" font-size="11.00">eth_output_no_dest</text>
</g>
<!-- eth_output&#45;&gt;eth_output_no_dest -->
<g id="edge5" class="edge">
<title>eth_output&#45;&gt;eth_output_no_dest</title>
<path fill="none" stroke="black" d="M1560.64,-336.14C1576.14,-333.33 1595.28,-329.86 1613.54,-326.54"/>
<polygon fill="black" stroke="black" points="1614.05,-330.01 1623.27,-324.78 1612.8,-323.12 1614.05,-330.01"/>
</g>
<!-- port_tx -->
<g id="node9" class="node">
<title>port_tx</title>
<ellipse fill="none" stroke="black" cx="1842.48" cy="-396" rx="27" ry="18"/>
<text text-anchor="middle" x="1842.48" y="-392.3" font-family="sans" font-size="11.00">port_tx</text>
</g>
<!-- iface_output&#45;&gt;port_tx -->
<g id="edge7" class="edge">
<title>iface_output&#45;&gt;port_tx</title>
<path fill="none" stroke="black" d="M1715.6,-375.06C1742.14,-379.47 1777.96,-385.43 1804.61,-389.87"/>
<polygon fill="black" stroke="black" points="1803.84,-393.29 1814.28,-391.48 1804.99,-386.38 1803.84,-393.29"/>
</g>
<!-- iface_output_no_dest -->
<g id="node10" class="node">
<title>iface_output_no_dest</title>
<ellipse fill="none" stroke="darkorange" cx="1842.48" cy="-342" rx="66.47" ry="18"/>
<text text-anchor="middle" x="1842.48" y="-338.3" font-family="sans" font-size="11.00">iface_output_no_dest</text>
</g>
<!-- iface_output&#45;&gt;iface_output_no_dest -->
<g id="edge8" class="edge">
<title>iface_output&#45;&gt;iface_output_no_dest</title>
<path fill="none" stroke="black" d="M1715.6,-362.94C1732.79,-360.08 1753.87,-356.57 1773.83,-353.25"/>
<polygon fill="black" stroke="black" points="1774.31,-356.72 1783.6,-351.63 1773.17,-349.82 1774.31,-356.72"/>
</g>
<!-- iface_input -->
<g id="node8" class="node">
<title>iface_input</title>
<ellipse fill="none" stroke="black" cx="124.89" cy="-326" rx="34.89" ry="18"/>
<text text-anchor="middle" x="124.89" y="-322.3" font-family="sans" font-size="11.00">iface_input</text>
</g>
<!-- iface_input&#45;&gt;eth_input -->
<g id="edge6" class="edge">
<title>iface_input&#45;&gt;eth_input</title>
<path fill="none" stroke="black" d="M160,-326C167.76,-326 176.07,-326 184.07,-326"/>
<polygon fill="black" stroke="black" points="183.96,-329.5 193.96,-326 183.96,-322.5 183.96,-329.5"/>
</g>
<!-- port_tx_error -->
<g id="node12" class="node">
<title>port_tx_error</title>
<ellipse fill="none" stroke="darkorange" cx="1986.57" cy="-396" rx="41.62" ry="18"/>
<text text-anchor="middle" x="1986.57" y="-392.3" font-family="sans" font-size="11.00">port_tx_error</text>
</g>
<!-- port_tx&#45;&gt;port_tx_error -->
<g id="edge10" class="edge">
<title>port_tx&#45;&gt;port_tx_error</title>
<path fill="none" stroke="black" d="M1869.87,-396C1887.63,-396 1911.64,-396 1933.19,-396"/>
<polygon fill="black" stroke="black" points="1933,-399.5 1943,-396 1933,-392.5 1933,-399.5"/>
</g>
<!-- port_rx -->
<g id="node11" class="node">
<title>port_rx</title>
<ellipse fill="none" stroke="blue" stroke-width="2" cx="27" cy="-326" rx="27" ry="18"/>
<text text-anchor="middle" x="27" y="-322.3" font-family="sans" font-size="11.00">port_rx</text>
</g>
<!-- port_rx&#45;&gt;iface_input -->
<g id="edge9" class="edge">
<title>port_rx&#45;&gt;iface_input</title>
<path fill="none" stroke="blue" stroke-width="2" d="M54.45,-326C61.84,-326 70.08,-326 78.24,-326"/>
<polygon fill="blue" stroke="blue" stroke-width="2" points="76.58,-329.5 86.58,-326 76.58,-322.5 76.58,-329.5"/>
</g>
<!-- arp_output_reply&#45;&gt;eth_output -->
<g id="edge16" class="edge">
<title>arp_output_reply&#45;&gt;eth_output</title>
<path fill="none" stroke="black" d="M1218.23,-456.56C1274.26,-461.82 1367.21,-463.69 1438.35,-431 1467.97,-417.39 1493.09,-389.17 1508.82,-368.13"/>
<polygon fill="black" stroke="black" points="1511.47,-370.44 1514.48,-360.28 1505.79,-366.34 1511.47,-370.44"/>
</g>
<!-- arp_output_reply_error -->
<g id="node18" class="node">
<title>arp_output_reply_error</title>
<ellipse fill="none" stroke="darkorange" cx="1366.83" cy="-404" rx="71.52" ry="18"/>
<text text-anchor="middle" x="1366.83" y="-400.3" font-family="sans" font-size="11.00">arp_output_reply_error</text>
</g>
<!-- arp_output_reply&#45;&gt;arp_output_reply_error -->
<g id="edge17" class="edge">
<title>arp_output_reply&#45;&gt;arp_output_reply_error</title>
<path fill="none" stroke="black" d="M1212.67,-439.79C1238.99,-433.64 1272.95,-425.7 1302.21,-418.87"/>
<polygon fill="black" stroke="black" points="1302.75,-422.33 1311.69,-416.65 1301.16,-415.52 1302.75,-422.33"/>
</g>
<!-- ip_output&#45;&gt;eth_output -->
<g id="edge34" class="edge">
<title>ip_output&#45;&gt;eth_output</title>
<path fill="none" stroke="black" d="M1198.12,-237.51C1217.04,-240.98 1241.41,-247.77 1259.31,-261 1282.5,-278.15 1270.71,-299.93 1295.31,-315 1352.53,-350.05 1432.82,-350.97 1482.11,-347.31"/>
<polygon fill="black" stroke="black" points="1482.16,-350.81 1491.83,-346.48 1481.57,-343.84 1482.16,-350.81"/>
</g>
<!-- arp_output_request -->
<g id="node19" class="node">
<title>arp_output_request</title>
<ellipse fill="none" stroke="black" cx="1366.83" cy="-288" rx="61.42" ry="18"/>
<text text-anchor="middle" x="1366.83" y="-284.3" font-family="sans" font-size="11.00">arp_output_request</text>
</g>
<!-- ip_output&#45;&gt;arp_output_request -->
<g id="edge37" class="edge">
<title>ip_output&#45;&gt;arp_output_request</title>
<path fill="none" stroke="black" d="M1195.95,-241.4C1225.27,-249.44 1272.96,-262.52 1310.36,-272.78"/>
<polygon fill="black" stroke="black" points="1309.07,-276.06 1319.64,-275.33 1310.93,-269.31 1309.07,-276.06"/>
</g>
<!-- ip_output_no_route -->
<g id="node33" class="node">
<title>ip_output_no_route</title>
<ellipse fill="none" stroke="darkorange" cx="1366.83" cy="-234" rx="60.15" ry="18"/>
<text text-anchor="middle" x="1366.83" y="-230.3" font-family="sans" font-size="11.00">ip_output_no_route</text>
</g>
<!-- ip_output&#45;&gt;ip_output_no_route -->
<g id="edge35" class="edge">
<title>ip_output&#45;&gt;ip_output_no_route</title>
<path fill="none" stroke="black" d="M1198.46,-234C1223.99,-234 1261.97,-234 1295.3,-234"/>
<polygon fill="black" stroke="black" points="1294.88,-237.5 1304.88,-234 1294.88,-230.5 1294.88,-237.5"/>
</g>
<!-- ip_output_error -->
<g id="node34" class="node">
<title>ip_output_error</title>
<ellipse fill="none" stroke="darkorange" cx="1366.83" cy="-180" rx="48.36" ry="18"/>
<text text-anchor="middle" x="1366.83" y="-176.3" font-family="sans" font-size="11.00">ip_output_error</text>
</g>
<!-- ip_output&#45;&gt;ip_output_error -->
<g id="edge36" class="edge">
<title>ip_output&#45;&gt;ip_output_error</title>
<path fill="none" stroke="black" d="M1195.95,-226.6C1226.8,-218.14 1278,-204.1 1316.13,-193.63"/>
<polygon fill="black" stroke="black" points="1316.84,-197.07 1325.55,-191.05 1314.98,-190.32 1316.84,-197.07"/>
</g>
<!-- arp_output_request&#45;&gt;eth_output -->
<g id="edge18" class="edge">
<title>arp_output_request&#45;&gt;eth_output</title>
<path fill="none" stroke="black" d="M1407.83,-301.63C1432.17,-309.92 1463.11,-320.46 1487.28,-328.69"/>
<polygon fill="black" stroke="black" points="1485.83,-331.9 1496.42,-331.81 1488.08,-325.27 1485.83,-331.9"/>
</g>
<!-- arp_queue_full -->
<g id="node20" class="node">
<title>arp_queue_full</title>
<ellipse fill="none" stroke="darkorange" cx="1527.34" cy="-288" rx="45.83" ry="18"/>
<text text-anchor="middle" x="1527.34" y="-284.3" font-family="sans" font-size="11.00">arp_queue_full</text>
</g>
<!-- arp_output_request&#45;&gt;arp_queue_full -->
<g id="edge19" class="edge">
<title>arp_output_request&#45;&gt;arp_queue_full</title>
<path fill="none" stroke="black" d="M1428.66,-288C1442.17,-288 1456.43,-288 1469.75,-288"/>
<polygon fill="black" stroke="black" points="1469.67,-291.5 1479.67,-288 1469.67,-284.5 1469.67,-291.5"/>
</g>
<!-- arp_output_error -->
<g id="node21" class="node">
<title>arp_output_error</title>
<ellipse fill="none" stroke="darkorange" cx="1527.34" cy="-234" rx="52.99" ry="18"/>
<text text-anchor="middle" x="1527.34" y="-230.3" font-family="sans" font-size="11.00">arp_output_error</text>
</g>
<!-- arp_output_request&#45;&gt;arp_output_error -->
<g id="edge20" class="edge">
<title>arp_output_request&#45;&gt;arp_output_error</title>
<path fill="none" stroke="black" d="M1407.83,-274.37C1429.19,-267.1 1455.64,-258.09 1478.13,-250.43"/>
<polygon fill="black" stroke="black" points="1479.04,-253.81 1487.38,-247.27 1476.78,-247.19 1479.04,-253.81"/>
</g>
<!-- icmp_input -->
<g id="node22" class="node">
<title>icmp_input</title>
<ellipse fill="none" stroke="black" cx="758.95" cy="-180" rx="34.89" ry="18"/>
<text text-anchor="middle" x="758.95" y="-176.3" font-family="sans" font-size="11.00">icmp_input</text>
</g>
<!-- icmp_output -->
<g id="node23" class="node">
<title>icmp_output</title>
<ellipse fill="none" stroke="black" cx="964.1" cy="-234" rx="39.52" ry="18"/>
<text text-anchor="middle" x="964.1" y="-230.3" font-family="sans" font-size="11.00">icmp_output</text>
</g>
<!-- icmp_input&#45;&gt;icmp_output -->
<g id="edge21" class="edge">
<title>icmp_input&#45;&gt;icmp_output</title>
<path fill="none" stroke="black" d="M790.36,-188.08C824.31,-197.11 879.58,-211.8 918.44,-222.13"/>
<polygon fill="black" stroke="black" points="917.4,-225.47 927.96,-224.66 919.2,-218.71 917.4,-225.47"/>
</g>
<!-- icmp_input_invalid -->
<g id="node24" class="node">
<title>icmp_input_invalid</title>
<ellipse fill="none" stroke="darkorange" cx="964.1" cy="-180" rx="58.05" ry="18"/>
<text text-anchor="middle" x="964.1" y="-176.3" font-family="sans" font-size="11.00">icmp_input_invalid</text>
</g>
<!-- icmp_input&#45;&gt;icmp_input_invalid -->
<g id="edge22" class="edge">
<title>icmp_input&#45;&gt;icmp_input_invalid</title>
<path fill="none" stroke="black" d="M793.95,-180C821.35,-180 860.76,-180 894.64,-180"/>
<polygon fill="black" stroke="black" points="894.38,-183.5 904.38,-180 894.38,-176.5 894.38,-183.5"/>
</g>
<!-- icmp_input_unsupported -->
<g id="node25" class="node">
<title>icmp_input_unsupported</title>
<ellipse fill="none" stroke="darkorange" cx="964.1" cy="-126" rx="76.58" ry="18"/>
<text text-anchor="middle" x="964.1" y="-122.3" font-family="sans" font-size="11.00">icmp_input_unsupported</text>
</g>
<!-- icmp_input&#45;&gt;icmp_input_unsupported -->
<g id="edge23" class="edge">
<title>icmp_input&#45;&gt;icmp_input_unsupported</title>
<path fill="none" stroke="black" d="M790.36,-171.92C819.45,-164.18 864.19,-152.29 900.85,-142.55"/>
<polygon fill="black" stroke="black" points="901.71,-145.94 910.48,-139.99 899.91,-139.17 901.71,-145.94"/>
</g>
<!-- icmp_output&#45;&gt;ip_output -->
<g id="edge24" class="edge">
<title>icmp_output&#45;&gt;ip_output</title>
<path fill="none" stroke="black" d="M1004.03,-234C1039.03,-234 1090.27,-234 1125.92,-234"/>
<polygon fill="black" stroke="black" points="1125.85,-237.5 1135.85,-234 1125.85,-230.5 1125.85,-237.5"/>
</g>
<!-- ip_forward&#45;&gt;ip_output -->
<g id="edge25" class="edge">
<title>ip_forward&#45;&gt;ip_output</title>
<path fill="none" stroke="black" d="M585.97,-243.03C607.69,-249.48 638.59,-257.6 666.37,-261 831.49,-281.21 875.24,-278.48 1040.68,-261 1070.71,-257.83 1104.1,-250.52 1129,-244.31"/>
<polygon fill="black" stroke="black" points="1129.86,-247.7 1138.68,-241.83 1128.13,-240.92 1129.86,-247.7"/>
</g>
<!-- ip_forward_ttl_exceeded -->
<g id="node27" class="node">
<title>ip_forward_ttl_exceeded</title>
<ellipse fill="none" stroke="darkorange" cx="758.95" cy="-234" rx="75.73" ry="18"/>
<text text-anchor="middle" x="758.95" y="-230.3" font-family="sans" font-size="11.00">ip_forward_ttl_exceeded</text>
</g>
<!-- ip_forward&#45;&gt;ip_forward_ttl_exceeded -->
<g id="edge26" class="edge">
<title>ip_forward&#45;&gt;ip_forward_ttl_exceeded</title>
<path fill="none" stroke="black" d="M590.8,-234C612.86,-234 642.96,-234 671.54,-234"/>
<polygon fill="black" stroke="black" points="671.31,-237.5 681.31,-234 671.31,-230.5 671.31,-237.5"/>
</g>
<!-- ip_input_local&#45;&gt;icmp_input -->
<g id="edge33" class="edge">
<title>ip_input_local&#45;&gt;icmp_input</title>
<path fill="none" stroke="black" d="M599.71,-180C632.63,-180 678.4,-180 712.25,-180"/>
<polygon fill="black" stroke="black" points="712.17,-183.5 722.17,-180 712.17,-176.5 712.17,-183.5"/>
</g>
<!-- ip_input_local_unknown_proto -->
<g id="node32" class="node">
<title>ip_input_local_unknown_proto</title>
<ellipse fill="none" stroke="darkorange" cx="758.95" cy="-126" rx="92.58" ry="18"/>
<text text-anchor="middle" x="758.95" y="-122.3" font-family="sans" font-size="11.00">ip_input_local_unknown_proto</text>
</g>
<!-- ip_input_local&#45;&gt;ip_input_local_unknown_proto -->
<g id="edge32" class="edge">
<title>ip_input_local&#45;&gt;ip_input_local_unknown_proto</title>
<path fill="none" stroke="black" d="M593.53,-170.35C620.92,-162.96 659.44,-152.57 692.31,-143.7"/>
<polygon fill="black" stroke="black" points="693.01,-147.14 701.75,-141.16 691.19,-140.38 693.01,-147.14"/>
</g>
</g>
</svg>
