<?xml version="1.0" encoding="UTF-8" standalone="no"?>
<!DOCTYPE svg PUBLIC "-//W3C//DTD SVG 1.1//EN"
 "http://www.w3.org/Graphics/SVG/1.1/DTD/svg11.dtd">
<!-- Generated by graphviz version 13.1.2 (20250808.2320)
 -->
<!-- Title: grout Pages: 1 -->
<svg width="2292pt" height="759pt"
 viewBox="0.00 0.00 2292.00 759.00" xmlns="http://www.w3.org/2000/svg" xmlns:xlink="http://www.w3.org/1999/xlink">
<g id="graph0" class="graph" transform="scale(1 1) rotate(0) translate(4 755)">
<title>grout</title>
<polygon fill="white" stroke="none" points="-4,4 -4,-755 2287.86,-755 2287.86,4 -4,4"/>
<!-- bond_output -->
<g id="node1" class="node">
<title>bond_output</title>
<ellipse fill="none" stroke="black" cx="2043.1" cy="-602" rx="39.94" ry="18"/>
<text xml:space="preserve" text-anchor="middle" x="2043.1" y="-598.3" font-family="sans" font-size="11.00">bond_output</text>
</g>
<!-- port_output -->
<g id="node2" class="node">
<title>port_output</title>
<ellipse fill="none" stroke="black" cx="2156.45" cy="-556" rx="37.41" ry="18"/>
<text xml:space="preserve" text-anchor="middle" x="2156.45" y="-552.3" font-family="sans" font-size="11.00">port_output</text>
</g>
<!-- bond_output&#45;&gt;port_output -->
<g id="edge1" class="edge">
<title>bond_output&#45;&gt;port_output</title>
<path fill="none" stroke="black" d="M2073.35,-589.91C2086.6,-584.44 2102.44,-577.9 2116.67,-572.02"/>
<polygon fill="black" stroke="black" points="2117.85,-575.32 2125.76,-568.27 2115.18,-568.85 2117.85,-575.32"/>
</g>
<!-- port_tx -->
<g id="node16" class="node">
<title>port_tx</title>
<ellipse fill="none" stroke="black" cx="2256.86" cy="-556" rx="27" ry="18"/>
<text xml:space="preserve" text-anchor="middle" x="2256.86" y="-552.3" font-family="sans" font-size="11.00">port_tx</text>
</g>
<!-- port_output&#45;&gt;port_tx -->
<g id="edge15" class="edge">
<title>port_output&#45;&gt;port_tx</title>
<path fill="none" stroke="black" d="M2194.09,-556C2202.02,-556 2210.42,-556 2218.38,-556"/>
<polygon fill="black" stroke="black" points="2218.12,-559.5 2228.12,-556 2218.12,-552.5 2218.12,-559.5"/>
</g>
<!-- eth_input -->
<g id="node3" class="node">
<title>eth_input</title>
<ellipse fill="none" stroke="black" cx="138.07" cy="-485" rx="30.25" ry="18"/>
<text xml:space="preserve" text-anchor="middle" x="138.07" y="-481.3" font-family="sans" font-size="11.00">eth_input</text>
</g>
<!-- snap_input -->
<g id="node4" class="node">
<title>snap_input</title>
<ellipse fill="none" stroke="black" cx="887.29" cy="-620" rx="34.89" ry="18"/>
<text xml:space="preserve" text-anchor="middle" x="887.29" y="-616.3" font-family="sans" font-size="11.00">snap_input</text>
</g>
<!-- eth_input&#45;&gt;snap_input -->
<g id="edge2" class="edge">
<title>eth_input&#45;&gt;snap_input</title>
<path fill="none" stroke="black" d="M147.62,-502.31C160.34,-526.08 186.63,-568.26 222.15,-589 284.83,-625.59 310.79,-615 383.37,-615 383.37,-615 383.37,-615 650.92,-615 716.86,-615 793.17,-616.99 840.59,-618.45"/>
<polygon fill="black" stroke="black" points="840.38,-621.95 850.48,-618.77 840.6,-614.95 840.38,-621.95"/>
</g>
<!-- lacp_input -->
<g id="node5" class="node">
<title>lacp_input</title>
<polygon fill="none" stroke="dodgerblue" points="292.05,-580 222.15,-580 222.15,-544 292.05,-544 292.05,-580"/>
<text xml:space="preserve" text-anchor="middle" x="257.1" y="-558.3" font-family="sans" font-size="11.00">lacp_input</text>
</g>
<!-- eth_input&#45;&gt;lacp_input -->
<g id="edge3" class="edge">
<title>eth_input&#45;&gt;lacp_input</title>
<path fill="none" stroke="black" d="M159.19,-498.24C175.59,-509.03 199.19,-524.56 219,-537.59"/>
<polygon fill="black" stroke="black" points="216.83,-540.35 227.1,-542.92 220.67,-534.5 216.83,-540.35"/>
</g>
<!-- arp_input -->
<g id="node6" class="node">
<title>arp_input</title>
<ellipse fill="none" stroke="black" cx="257.1" cy="-508" rx="30.25" ry="18"/>
<text xml:space="preserve" text-anchor="middle" x="257.1" y="-504.3" font-family="sans" font-size="11.00">arp_input</text>
</g>
<!-- eth_input&#45;&gt;arp_input -->
<g id="edge4" class="edge">
<title>eth_input&#45;&gt;arp_input</title>
<path fill="none" stroke="black" d="M167.11,-490.51C182.05,-493.45 200.67,-497.11 217.02,-500.32"/>
<polygon fill="black" stroke="black" points="215.92,-503.67 226.41,-502.16 217.27,-496.8 215.92,-503.67"/>
</g>
<!-- ip_input -->
<g id="node7" class="node">
<title>ip_input</title>
<ellipse fill="none" stroke="black" cx="257.1" cy="-251" rx="27" ry="18"/>
<text xml:space="preserve" text-anchor="middle" x="257.1" y="-247.3" font-family="sans" font-size="11.00">ip_input</text>
</g>
<!-- eth_input&#45;&gt;ip_input -->
<g id="edge5" class="edge">
<title>eth_input&#45;&gt;ip_input</title>
<path fill="none" stroke="black" d="M147.68,-467.79C167.8,-427.56 218.05,-327.08 242.42,-278.35"/>
<polygon fill="black" stroke="black" points="245.46,-280.09 246.81,-269.59 239.2,-276.96 245.46,-280.09"/>
</g>
<!-- ip6_input -->
<g id="node8" class="node">
<title>ip6_input</title>
<ellipse fill="none" stroke="black" cx="1117.78" cy="-306" rx="29.41" ry="18"/>
<text xml:space="preserve" text-anchor="middle" x="1117.78" y="-302.3" font-family="sans" font-size="11.00">ip6_input</text>
</g>
<!-- eth_input&#45;&gt;ip6_input -->
<g id="edge6" class="edge">
<title>eth_input&#45;&gt;ip6_input</title>
<path fill="none" stroke="black" d="M167.58,-480.57C213.08,-473.88 304.99,-462 383.37,-462 383.37,-462 383.37,-462 520.59,-462 639.81,-462 949.36,-451.02 1052.37,-391 1075.19,-377.71 1092.57,-352.85 1103.49,-333.44"/>
<polygon fill="black" stroke="black" points="1106.56,-335.13 1108.18,-324.66 1100.38,-331.83 1106.56,-335.13"/>
</g>
<!-- l2_redirect -->
<g id="node11" class="node">
<title>l2_redirect</title>
<ellipse fill="none" stroke="black" cx="1611.91" cy="-625" rx="34.04" ry="18"/>
<text xml:space="preserve" text-anchor="middle" x="1611.91" y="-621.3" font-family="sans" font-size="11.00">l2_redirect</text>
</g>
<!-- snap_input&#45;&gt;l2_redirect -->
<g id="edge18" class="edge">
<title>snap_input&#45;&gt;l2_redirect</title>
<path fill="none" stroke="black" d="M922.36,-620.97C967,-622.15 1047.75,-624 1116.78,-624 1116.78,-624 1116.78,-624 1324.01,-624 1409.8,-624 1510.03,-624.45 1566.43,-624.75"/>
<polygon fill="black" stroke="black" points="1566.24,-628.25 1576.26,-624.8 1566.28,-621.25 1566.24,-628.25"/>
</g>
<!-- arp_input_request -->
<g id="node18" class="node">
<title>arp_input_request</title>
<polygon fill="none" stroke="dodgerblue" points="440.7,-526 328.05,-526 328.05,-490 440.7,-490 440.7,-526"/>
<text xml:space="preserve" text-anchor="middle" x="384.37" y="-504.3" font-family="sans" font-size="11.00">arp_input_request</text>
</g>
<!-- arp_input&#45;&gt;arp_input_request -->
<g id="edge19" class="edge">
<title>arp_input&#45;&gt;arp_input_request</title>
<path fill="none" stroke="black" d="M287.79,-508C296.52,-508 306.43,-508 316.5,-508"/>
<polygon fill="black" stroke="black" points="316.36,-511.5 326.36,-508 316.36,-504.5 316.36,-511.5"/>
</g>
<!-- arp_input_reply -->
<g id="node19" class="node">
<title>arp_input_reply</title>
<polygon fill="none" stroke="dodgerblue" points="433.57,-580 335.17,-580 335.17,-544 433.57,-544 433.57,-580"/>
<text xml:space="preserve" text-anchor="middle" x="384.37" y="-558.3" font-family="sans" font-size="11.00">arp_input_reply</text>
</g>
<!-- arp_input&#45;&gt;arp_input_reply -->
<g id="edge20" class="edge">
<title>arp_input&#45;&gt;arp_input_reply</title>
<path fill="none" stroke="black" d="M282.25,-518.41C295.91,-524.3 313.56,-531.91 330.28,-539.11"/>
<polygon fill="black" stroke="black" points="328.57,-542.19 339.14,-542.93 331.34,-535.76 328.57,-542.19"/>
</g>
<!-- ip_output -->
<g id="node25" class="node">
<title>ip_output</title>
<ellipse fill="none" stroke="black" cx="887.29" cy="-256" rx="30.25" ry="18"/>
<text xml:space="preserve" text-anchor="middle" x="887.29" y="-252.3" font-family="sans" font-size="11.00">ip_output</text>
</g>
<!-- ip_input&#45;&gt;ip_output -->
<g id="edge30" class="edge">
<title>ip_input&#45;&gt;ip_output</title>
<path fill="none" stroke="black" d="M276.39,-238.16C317.57,-210.55 421.57,-148 518.59,-148 518.59,-148 518.59,-148 650.92,-148 733.09,-148 817.9,-203.05 859.7,-234.54"/>
<polygon fill="black" stroke="black" points="857.4,-237.19 867.46,-240.51 861.67,-231.64 857.4,-237.19"/>
</g>
<!-- ip_forward -->
<g id="node26" class="node">
<title>ip_forward</title>
<ellipse fill="none" stroke="black" cx="519.59" cy="-255" rx="33.62" ry="18"/>
<text xml:space="preserve" text-anchor="middle" x="519.59" y="-251.3" font-family="sans" font-size="11.00">ip_forward</text>
</g>
<!-- ip_input&#45;&gt;ip_forward -->
<g id="edge28" class="edge">
<title>ip_input&#45;&gt;ip_forward</title>
<path fill="none" stroke="black" d="M284.33,-249.14C297.45,-248.31 313.58,-247.41 328.05,-247 378.1,-245.57 390.7,-244.44 440.7,-247 451.88,-247.57 463.94,-248.61 475.14,-249.74"/>
<polygon fill="black" stroke="black" points="474.61,-253.21 484.93,-250.79 475.36,-246.25 474.61,-253.21"/>
</g>
<!-- dnat44_dynamic -->
<g id="node29" class="node">
<title>dnat44_dynamic</title>
<ellipse fill="none" stroke="black" cx="384.37" cy="-274" rx="52.15" ry="18"/>
<text xml:space="preserve" text-anchor="middle" x="384.37" y="-270.3" font-family="sans" font-size="11.00">dnat44_dynamic</text>
</g>
<!-- ip_input&#45;&gt;dnat44_dynamic -->
<g id="edge29" class="edge">
<title>ip_input&#45;&gt;dnat44_dynamic</title>
<path fill="none" stroke="black" d="M283.45,-255.65C295.81,-257.92 311.22,-260.75 326.21,-263.51"/>
<polygon fill="black" stroke="black" points="325.58,-266.95 336.05,-265.31 326.84,-260.06 325.58,-266.95"/>
</g>
<!-- ip_input_local -->
<g id="node30" class="node">
<title>ip_input_local</title>
<ellipse fill="none" stroke="black" cx="519.59" cy="-340" rx="42.89" ry="18"/>
<text xml:space="preserve" text-anchor="middle" x="519.59" y="-336.3" font-family="sans" font-size="11.00">ip_input_local</text>
</g>
<!-- ip_input&#45;&gt;ip_input_local -->
<g id="edge31" class="edge">
<title>ip_input&#45;&gt;ip_input_local</title>
<path fill="none" stroke="black" d="M263.95,-268.6C273.17,-293.14 293.67,-336.69 328.05,-355 374.36,-379.66 436.16,-368.13 476.64,-355.71"/>
<polygon fill="black" stroke="black" points="477.59,-359.09 486.03,-352.68 475.43,-352.43 477.59,-359.09"/>
</g>
<!-- dnat44_static -->
<g id="node31" class="node">
<title>dnat44_static</title>
<ellipse fill="none" stroke="black" cx="384.37" cy="-328" rx="43.31" ry="18"/>
<text xml:space="preserve" text-anchor="middle" x="384.37" y="-324.3" font-family="sans" font-size="11.00">dnat44_static</text>
</g>
<!-- ip_input&#45;&gt;dnat44_static -->
<g id="edge32" class="edge">
<title>ip_input&#45;&gt;dnat44_static</title>
<path fill="none" stroke="black" d="M275.38,-264.58C289.21,-275.15 309.33,-289.85 328.05,-301 333.03,-303.97 338.38,-306.89 343.73,-309.65"/>
<polygon fill="black" stroke="black" points="342.03,-312.72 352.54,-314.06 345.16,-306.46 342.03,-312.72"/>
</g>
<!-- ip6_output -->
<g id="node43" class="node">
<title>ip6_output</title>
<ellipse fill="none" stroke="black" cx="1768.93" cy="-179" rx="34.04" ry="18"/>
<text xml:space="preserve" text-anchor="middle" x="1768.93" y="-175.3" font-family="sans" font-size="11.00">ip6_output</text>
</g>
<!-- ip6_input&#45;&gt;ip6_output -->
<g id="edge53" class="edge">
<title>ip6_input&#45;&gt;ip6_output</title>
<path fill="none" stroke="black" d="M1145.12,-298.79C1195.45,-285.2 1308.91,-255.38 1405.68,-236 1406.66,-235.8 1628.61,-200.91 1724.56,-185.82"/>
<polygon fill="black" stroke="black" points="1725.06,-189.28 1734.39,-184.27 1723.97,-182.37 1725.06,-189.28"/>
</g>
<!-- ip6_forward -->
<g id="node45" class="node">
<title>ip6_forward</title>
<ellipse fill="none" stroke="black" cx="1323.01" cy="-183" rx="37.41" ry="18"/>
<text xml:space="preserve" text-anchor="middle" x="1323.01" y="-179.3" font-family="sans" font-size="11.00">ip6_forward</text>
</g>
<!-- ip6_input&#45;&gt;ip6_forward -->
<g id="edge52" class="edge">
<title>ip6_input&#45;&gt;ip6_forward</title>
<path fill="none" stroke="black" d="M1126.45,-288.3C1136.43,-267.44 1155.87,-233.33 1183.19,-215 1210,-197.02 1245.56,-189.06 1273.97,-185.57"/>
<polygon fill="black" stroke="black" points="1274.19,-189.07 1283.76,-184.53 1273.45,-182.11 1274.19,-189.07"/>
</g>
<!-- ip6_input_local -->
<g id="node47" class="node">
<title>ip6_input_local</title>
<ellipse fill="none" stroke="black" cx="1323.01" cy="-425" rx="46.68" ry="18"/>
<text xml:space="preserve" text-anchor="middle" x="1323.01" y="-421.3" font-family="sans" font-size="11.00">ip6_input_local</text>
</g>
<!-- ip6_input&#45;&gt;ip6_input_local -->
<g id="edge54" class="edge">
<title>ip6_input&#45;&gt;ip6_input_local</title>
<path fill="none" stroke="black" d="M1143.36,-315.41C1168.51,-325.47 1208.33,-342.63 1240.33,-362 1259.41,-373.55 1279.26,-388.78 1294.61,-401.36"/>
<polygon fill="black" stroke="black" points="1292.01,-403.75 1301.93,-407.46 1296.48,-398.37 1292.01,-403.75"/>
</g>
<!-- sr6_local -->
<g id="node48" class="node">
<title>sr6_local</title>
<ellipse fill="none" stroke="black" cx="1211.76" cy="-389" rx="28.57" ry="18"/>
<text xml:space="preserve" text-anchor="middle" x="1211.76" y="-385.3" font-family="sans" font-size="11.00">sr6_local</text>
</g>
<!-- ip6_input&#45;&gt;sr6_local -->
<g id="edge55" class="edge">
<title>ip6_input&#45;&gt;sr6_local</title>
<path fill="none" stroke="black" d="M1139.2,-318.7C1154.38,-331.03 1175.02,-349.65 1190.23,-364.74"/>
<polygon fill="black" stroke="black" points="1187.48,-366.94 1196.99,-371.62 1192.48,-362.03 1187.48,-366.94"/>
</g>
<!-- eth_output -->
<g id="node9" class="node">
<title>eth_output</title>
<ellipse fill="none" stroke="black" cx="1916.27" cy="-602" rx="34.89" ry="18"/>
<text xml:space="preserve" text-anchor="middle" x="1916.27" y="-598.3" font-family="sans" font-size="11.00">eth_output</text>
</g>
<!-- eth_output&#45;&gt;bond_output -->
<g id="edge7" class="edge">
<title>eth_output&#45;&gt;bond_output</title>
<path fill="none" stroke="black" d="M1951.38,-602C1963.79,-602 1978.09,-602 1991.61,-602"/>
<polygon fill="black" stroke="black" points="1991.21,-605.5 2001.21,-602 1991.21,-598.5 1991.21,-605.5"/>
</g>
<!-- eth_output&#45;&gt;port_output -->
<g id="edge8" class="edge">
<title>eth_output&#45;&gt;port_output</title>
<path fill="none" stroke="black" d="M1945.55,-591.69C1962.14,-586.01 1983.61,-579.26 2003.16,-575 2037.9,-567.44 2077.8,-562.6 2108.05,-559.69"/>
<polygon fill="black" stroke="black" points="2107.99,-563.21 2117.63,-558.81 2107.35,-556.24 2107.99,-563.21"/>
</g>
<!-- l1_xconnect -->
<g id="node10" class="node">
<title>l1_xconnect</title>
<ellipse fill="none" stroke="black" cx="776.89" cy="-18" rx="38.25" ry="18"/>
<text xml:space="preserve" text-anchor="middle" x="776.89" y="-14.3" font-family="sans" font-size="11.00">l1_xconnect</text>
</g>
<!-- l1_xconnect&#45;&gt;port_output -->
<g id="edge9" class="edge">
<title>l1_xconnect&#45;&gt;port_output</title>
<path fill="none" stroke="black" d="M815.54,-19.07C860.46,-20.26 937.84,-22 1004.28,-22 1004.28,-22 1004.28,-22 1917.27,-22 2139.86,-22 2155.88,-413.79 2155.89,-526.19"/>
<polygon fill="black" stroke="black" points="2152.39,-526.09 2155.84,-536.1 2159.39,-526.12 2152.39,-526.09"/>
</g>
<!-- lacp_output -->
<g id="node12" class="node">
<title>lacp_output</title>
<polygon fill="none" stroke="dodgerblue" points="1808.01,-643 1729.86,-643 1729.86,-607 1808.01,-607 1808.01,-643"/>
<text xml:space="preserve" text-anchor="middle" x="1768.93" y="-621.3" font-family="sans" font-size="11.00">lacp_output</text>
</g>
<!-- lacp_output&#45;&gt;eth_output -->
<g id="edge10" class="edge">
<title>lacp_output&#45;&gt;eth_output</title>
<path fill="none" stroke="dodgerblue" d="M1808.5,-618.9C1827.76,-615.85 1851.16,-612.15 1871.13,-608.98"/>
<polygon fill="dodgerblue" stroke="dodgerblue" points="1871.62,-612.45 1880.95,-607.43 1870.52,-605.54 1871.62,-612.45"/>
</g>
<!-- loopback_input -->
<g id="node13" class="node">
<title>loopback_input</title>
<polygon fill="none" stroke="dodgerblue" points="186.15,-166 90,-166 90,-130 186.15,-130 186.15,-166"/>
<text xml:space="preserve" text-anchor="middle" x="138.07" y="-144.3" font-family="sans" font-size="11.00">loopback_input</text>
</g>
<!-- loopback_input&#45;&gt;ip_input -->
<g id="edge11" class="edge">
<title>loopback_input&#45;&gt;ip_input</title>
<path fill="none" stroke="dodgerblue" d="M160,-166.41C180.02,-184.03 210.21,-210.61 231.4,-229.26"/>
<polygon fill="dodgerblue" stroke="dodgerblue" points="228.92,-231.74 238.74,-235.72 233.55,-226.49 228.92,-231.74"/>
</g>
<!-- loopback_input&#45;&gt;ip6_input -->
<g id="edge12" class="edge">
<title>loopback_input&#45;&gt;ip6_input</title>
<path fill="none" stroke="dodgerblue" d="M170.68,-129.57C216.13,-104.84 303.32,-64 383.37,-64 383.37,-64 383.37,-64 888.29,-64 961.71,-64 996.34,-35.57 1052.37,-83 1082.04,-108.11 1103.57,-222.01 1112.38,-276.62"/>
<polygon fill="dodgerblue" stroke="dodgerblue" points="1108.91,-277.1 1113.93,-286.43 1115.83,-276.01 1108.91,-277.1"/>
</g>
<!-- loopback_output -->
<g id="node14" class="node">
<title>loopback_output</title>
<polygon fill="none" stroke="dodgerblue" points="1821.13,-551 1716.73,-551 1716.73,-515 1821.13,-515 1821.13,-551"/>
<text xml:space="preserve" text-anchor="middle" x="1768.93" y="-529.3" font-family="sans" font-size="11.00">loopback_output</text>
</g>
<!-- loop_xvrf -->
<g id="node15" class="node">
<title>loop_xvrf</title>
<ellipse fill="none" stroke="black" cx="1005.28" cy="-110" rx="29.83" ry="18"/>
<text xml:space="preserve" text-anchor="middle" x="1005.28" y="-106.3" font-family="sans" font-size="11.00">loop_xvrf</text>
</g>
<!-- loop_xvrf&#45;&gt;ip_input -->
<g id="edge13" class="edge">
<title>loop_xvrf&#45;&gt;ip_input</title>
<path fill="none" stroke="black" d="M974.97,-110C931.82,-110 848.64,-110 777.89,-110 518.59,-110 518.59,-110 518.59,-110 431.37,-110 400.7,-108.73 328.05,-157 302.97,-173.66 283.51,-202.47 271.56,-223.82"/>
<polygon fill="black" stroke="black" points="268.5,-222.11 266.86,-232.57 274.67,-225.41 268.5,-222.11"/>
</g>
<!-- loop_xvrf&#45;&gt;ip6_input -->
<g id="edge14" class="edge">
<title>loop_xvrf&#45;&gt;ip6_input</title>
<path fill="none" stroke="black" d="M1018.97,-126.34C1028.69,-139.2 1042.11,-157.76 1052.37,-175 1072.88,-209.45 1092.64,-251.35 1104.74,-278.34"/>
<polygon fill="black" stroke="black" points="1101.42,-279.48 1108.68,-287.2 1107.82,-276.64 1101.42,-279.48"/>
</g>
<!-- port_rx -->
<g id="node17" class="node">
<title>port_rx</title>
<ellipse fill="none" stroke="blue" stroke-width="2" cx="27" cy="-240" rx="27" ry="18"/>
<text xml:space="preserve" text-anchor="middle" x="27" y="-236.3" font-family="sans" font-size="11.00">port_rx</text>
</g>
<!-- port_rx&#45;&gt;eth_input -->
<g id="edge16" class="edge">
<title>port_rx&#45;&gt;eth_input</title>
<path fill="none" stroke="blue" stroke-width="2" d="M35.67,-257.23C54.28,-299.04 101.98,-406.17 124.69,-457.19"/>
<polygon fill="blue" stroke="blue" stroke-width="2" points="120.77,-456.99 128.04,-464.7 127.17,-454.14 120.77,-456.99"/>
</g>
<!-- port_rx&#45;&gt;l1_xconnect -->
<g id="edge17" class="edge">
<title>port_rx&#45;&gt;l1_xconnect</title>
<path fill="none" stroke="blue" stroke-width="2" d="M33.68,-222.41C42.46,-197.42 61.37,-151.32 90,-121 149.01,-58.52 170.16,-22 256.1,-22 256.1,-22 256.1,-22 520.59,-22 592.35,-22 675.45,-20.4 726.85,-19.22"/>
<polygon fill="blue" stroke="blue" stroke-width="2" points="725.32,-22.76 735.23,-19.03 725.15,-15.76 725.32,-22.76"/>
</g>
<!-- arp_output_reply -->
<g id="node20" class="node">
<title>arp_output_reply</title>
<polygon fill="none" stroke="dodgerblue" points="1822.26,-751 1715.61,-751 1715.61,-715 1822.26,-715 1822.26,-751"/>
<text xml:space="preserve" text-anchor="middle" x="1768.93" y="-729.3" font-family="sans" font-size="11.00">arp_output_reply</text>
</g>
<!-- arp_output_reply&#45;&gt;eth_output -->
<g id="edge21" class="edge">
<title>arp_output_reply&#45;&gt;eth_output</title>
<path fill="none" stroke="dodgerblue" d="M1816.26,-714.53C1820.87,-711.95 1825.33,-709.1 1829.38,-706 1857.73,-684.3 1882.77,-651.57 1898.39,-628.63"/>
<polygon fill="dodgerblue" stroke="dodgerblue" points="1901.23,-630.69 1903.85,-620.43 1895.4,-626.81 1901.23,-630.69"/>
</g>
<!-- arp_output_request -->
<g id="node21" class="node">
<title>arp_output_request</title>
<polygon fill="none" stroke="dodgerblue" points="1829.38,-697 1708.48,-697 1708.48,-661 1829.38,-661 1829.38,-697"/>
<text xml:space="preserve" text-anchor="middle" x="1768.93" y="-675.3" font-family="sans" font-size="11.00">arp_output_request</text>
</g>
<!-- arp_output_request&#45;&gt;eth_output -->
<g id="edge22" class="edge">
<title>arp_output_request&#45;&gt;eth_output</title>
<path fill="none" stroke="dodgerblue" d="M1811.76,-660.64C1817.72,-657.84 1823.74,-654.91 1829.38,-652 1847.66,-642.56 1867.55,-631.06 1883.58,-621.48"/>
<polygon fill="dodgerblue" stroke="dodgerblue" points="1884.96,-624.73 1891.71,-616.57 1881.34,-618.74 1884.96,-624.73"/>
</g>
<!-- icmp_input -->
<g id="node22" class="node">
<title>icmp_input</title>
<ellipse fill="none" stroke="black" cx="649.92" cy="-340" rx="34.89" ry="18"/>
<text xml:space="preserve" text-anchor="middle" x="649.92" y="-336.3" font-family="sans" font-size="11.00">icmp_input</text>
</g>
<!-- icmp_output -->
<g id="node23" class="node">
<title>icmp_output</title>
<ellipse fill="none" stroke="black" cx="776.89" cy="-286" rx="39.52" ry="18"/>
<text xml:space="preserve" text-anchor="middle" x="776.89" y="-282.3" font-family="sans" font-size="11.00">icmp_output</text>
</g>
<!-- icmp_input&#45;&gt;icmp_output -->
<g id="edge23" class="edge">
<title>icmp_input&#45;&gt;icmp_output</title>
<path fill="none" stroke="black" d="M677.43,-328.55C694.71,-321.08 717.58,-311.2 736.92,-302.84"/>
<polygon fill="black" stroke="black" points="738.07,-306.16 745.86,-298.98 735.29,-299.73 738.07,-306.16"/>
</g>
<!-- icmp_output&#45;&gt;ip_output -->
<g id="edge25" class="edge">
<title>icmp_output&#45;&gt;ip_output</title>
<path fill="none" stroke="black" d="M811.3,-276.75C823.11,-273.49 836.48,-269.79 848.62,-266.43"/>
<polygon fill="black" stroke="black" points="849.18,-269.9 857.89,-263.86 847.31,-263.16 849.18,-269.9"/>
</g>
<!-- icmp_local_send -->
<g id="node24" class="node">
<title>icmp_local_send</title>
<polygon fill="none" stroke="dodgerblue" points="701.37,-304 598.47,-304 598.47,-268 701.37,-268 701.37,-304"/>
<text xml:space="preserve" text-anchor="middle" x="649.92" y="-282.3" font-family="sans" font-size="11.00">icmp_local_send</text>
</g>
<!-- icmp_local_send&#45;&gt;icmp_output -->
<g id="edge24" class="edge">
<title>icmp_local_send&#45;&gt;icmp_output</title>
<path fill="none" stroke="dodgerblue" d="M701.75,-286C709.65,-286 717.81,-286 725.69,-286"/>
<polygon fill="dodgerblue" stroke="dodgerblue" points="725.48,-289.5 735.48,-286 725.48,-282.5 725.48,-289.5"/>
</g>
<!-- ip_output&#45;&gt;eth_output -->
<g id="edge38" class="edge">
<title>ip_output&#45;&gt;eth_output</title>
<path fill="none" stroke="black" d="M893.46,-274.04C912.22,-335.22 982.71,-531 1116.78,-531 1116.78,-531 1116.78,-531 1324.01,-531 1409.46,-531 1431.34,-534.28 1515.33,-550 1531.66,-553.05 1535.04,-556.82 1551.33,-560 1664.78,-582.16 1800.57,-594.02 1869.8,-599.04"/>
<polygon fill="black" stroke="black" points="1869.4,-602.52 1879.62,-599.74 1869.89,-595.54 1869.4,-602.52"/>
</g>
<!-- ip_output&#45;&gt;loop_xvrf -->
<g id="edge41" class="edge">
<title>ip_output&#45;&gt;loop_xvrf</title>
<path fill="none" stroke="black" d="M896.09,-238.66C907.35,-214.93 929.96,-171.87 958.18,-142 962.81,-137.1 968.3,-132.51 973.85,-128.42"/>
<polygon fill="black" stroke="black" points="975.61,-131.46 981.87,-122.91 971.65,-125.7 975.61,-131.46"/>
</g>
<!-- ip_fragment -->
<g id="node27" class="node">
<title>ip_fragment</title>
<ellipse fill="none" stroke="black" cx="1005.28" cy="-256" rx="38.25" ry="18"/>
<text xml:space="preserve" text-anchor="middle" x="1005.28" y="-252.3" font-family="sans" font-size="11.00">ip_fragment</text>
</g>
<!-- ip_output&#45;&gt;ip_fragment -->
<g id="edge40" class="edge">
<title>ip_output&#45;&gt;ip_fragment</title>
<path fill="none" stroke="black" d="M916.37,-250.12C928.73,-249.33 943.59,-249.08 957.54,-249.36"/>
<polygon fill="black" stroke="black" points="957.36,-252.86 967.46,-249.68 957.58,-245.86 957.36,-252.86"/>
</g>
<!-- ip_hold -->
<g id="node28" class="node">
<title>ip_hold</title>
<polygon fill="none" stroke="dodgerblue" points="1032.28,-220 978.28,-220 978.28,-184 1032.28,-184 1032.28,-220"/>
<text xml:space="preserve" text-anchor="middle" x="1005.28" y="-198.3" font-family="sans" font-size="11.00">ip_hold</text>
</g>
<!-- ip_output&#45;&gt;ip_hold -->
<g id="edge39" class="edge">
<title>ip_output&#45;&gt;ip_hold</title>
<path fill="none" stroke="black" d="M911.76,-245.07C927.81,-237.6 949.4,-227.55 967.69,-219.03"/>
<polygon fill="black" stroke="black" points="969.05,-222.26 976.64,-214.87 966.09,-215.92 969.05,-222.26"/>
</g>
<!-- ip_loadbalance -->
<g id="node32" class="node">
<title>ip_loadbalance</title>
<ellipse fill="none" stroke="black" cx="1005.28" cy="-364" rx="47.1" ry="18"/>
<text xml:space="preserve" text-anchor="middle" x="1005.28" y="-360.3" font-family="sans" font-size="11.00">ip_loadbalance</text>
</g>
<!-- ip_output&#45;&gt;ip_loadbalance -->
<g id="edge42" class="edge">
<title>ip_output&#45;&gt;ip_loadbalance</title>
<path fill="none" stroke="black" d="M904.37,-271.07C917.54,-286.74 937.34,-310.65 958.18,-328 963.79,-332.67 970.31,-337.03 976.65,-341.08"/>
<polygon fill="black" stroke="black" points="974.71,-343.99 985.03,-346.38 978.46,-338.08 974.71,-343.99"/>
</g>
<!-- ipip_output -->
<g id="node36" class="node">
<title>ipip_output</title>
<ellipse fill="none" stroke="black" cx="1005.28" cy="-310" rx="35.73" ry="18"/>
<text xml:space="preserve" text-anchor="middle" x="1005.28" y="-306.3" font-family="sans" font-size="11.00">ipip_output</text>
</g>
<!-- ip_output&#45;&gt;ipip_output -->
<g id="edge43" class="edge">
<title>ip_output&#45;&gt;ipip_output</title>
<path fill="none" stroke="black" d="M915.78,-262.96C933.25,-269.94 955.89,-280.42 973.89,-289.83"/>
<polygon fill="black" stroke="black" points="972.09,-292.84 982.55,-294.5 975.41,-286.68 972.09,-292.84"/>
</g>
<!-- sr6_output -->
<g id="node37" class="node">
<title>sr6_output</title>
<ellipse fill="none" stroke="black" cx="1611.91" cy="-133" rx="34.46" ry="18"/>
<text xml:space="preserve" text-anchor="middle" x="1611.91" y="-129.3" font-family="sans" font-size="11.00">sr6_output</text>
</g>
<!-- ip_output&#45;&gt;sr6_output -->
<g id="edge44" class="edge">
<title>ip_output&#45;&gt;sr6_output</title>
<path fill="none" stroke="black" d="M897.49,-238.79C908.87,-219.44 930.24,-188.9 958.18,-175 1166.39,-71.43 1459.18,-106.69 1567.99,-124.94"/>
<polygon fill="black" stroke="black" points="1567.2,-128.35 1577.65,-126.6 1568.39,-121.45 1567.2,-128.35"/>
</g>
<!-- ip_forward&#45;&gt;ip_output -->
<g id="edge26" class="edge">
<title>ip_forward&#45;&gt;ip_output</title>
<path fill="none" stroke="black" d="M553.69,-255.09C620.64,-255.27 771.99,-255.69 845.16,-255.89"/>
<polygon fill="black" stroke="black" points="845.1,-259.39 855.11,-255.91 845.12,-252.39 845.1,-259.39"/>
</g>
<!-- ip_fragment&#45;&gt;ip_output -->
<g id="edge27" class="edge">
<title>ip_fragment&#45;&gt;ip_output</title>
<path fill="none" stroke="black" d="M968.98,-262.27C955.93,-262.85 941.06,-262.91 927.67,-262.43"/>
<polygon fill="black" stroke="black" points="928.04,-258.94 917.88,-261.95 927.7,-265.94 928.04,-258.94"/>
</g>
<!-- dnat44_dynamic&#45;&gt;ip_forward -->
<g id="edge73" class="edge">
<title>dnat44_dynamic&#45;&gt;ip_forward</title>
<path fill="none" stroke="black" d="M433.09,-267.19C446.83,-265.23 461.75,-263.11 475.21,-261.19"/>
<polygon fill="black" stroke="black" points="475.7,-264.65 485.11,-259.78 474.71,-257.72 475.7,-264.65"/>
</g>
<!-- dnat44_dynamic&#45;&gt;ip_input_local -->
<g id="edge74" class="edge">
<title>dnat44_dynamic&#45;&gt;ip_input_local</title>
<path fill="none" stroke="black" d="M415.84,-288.8C423.93,-292.75 432.65,-297.02 440.7,-301 453.83,-307.49 468.18,-314.66 480.94,-321.05"/>
<polygon fill="black" stroke="black" points="479.37,-324.18 489.87,-325.54 482.51,-317.92 479.37,-324.18"/>
</g>
<!-- ip_input_local&#45;&gt;icmp_input -->
<g id="edge34" class="edge">
<title>ip_input_local&#45;&gt;icmp_input</title>
<path fill="none" stroke="black" d="M562.96,-340C575.95,-340 590.29,-340 603.48,-340"/>
<polygon fill="black" stroke="black" points="603.19,-343.5 613.19,-340 603.19,-336.5 603.19,-343.5"/>
</g>
<!-- ipip_input -->
<g id="node33" class="node">
<title>ipip_input</title>
<ellipse fill="none" stroke="black" cx="649.92" cy="-194" rx="31.1" ry="18"/>
<text xml:space="preserve" text-anchor="middle" x="649.92" y="-190.3" font-family="sans" font-size="11.00">ipip_input</text>
</g>
<!-- ip_input_local&#45;&gt;ipip_input -->
<g id="edge35" class="edge">
<title>ip_input_local&#45;&gt;ipip_input</title>
<path fill="none" stroke="black" d="M535.56,-322.97C558.21,-297.2 601.3,-248.18 627.34,-218.56"/>
<polygon fill="black" stroke="black" points="629.86,-220.99 633.83,-211.17 624.6,-216.37 629.86,-220.99"/>
</g>
<!-- l4_input_local -->
<g id="node34" class="node">
<title>l4_input_local</title>
<ellipse fill="none" stroke="black" cx="1460.51" cy="-483" rx="42.89" ry="18"/>
<text xml:space="preserve" text-anchor="middle" x="1460.51" y="-479.3" font-family="sans" font-size="11.00">l4_input_local</text>
</g>
<!-- ip_input_local&#45;&gt;l4_input_local -->
<g id="edge36" class="edge">
<title>ip_input_local&#45;&gt;l4_input_local</title>
<path fill="none" stroke="black" d="M551.23,-352.39C642.39,-388.82 911.25,-493 1004.28,-493 1004.28,-493 1004.28,-493 1212.76,-493 1279.44,-493 1356.18,-489.31 1406.14,-486.41"/>
<polygon fill="black" stroke="black" points="1406.33,-489.91 1416.11,-485.82 1405.92,-482.92 1406.33,-489.91"/>
</g>
<!-- ospf_redirect -->
<g id="node35" class="node">
<title>ospf_redirect</title>
<ellipse fill="none" stroke="black" cx="1460.51" cy="-577" rx="41.62" ry="18"/>
<text xml:space="preserve" text-anchor="middle" x="1460.51" y="-573.3" font-family="sans" font-size="11.00">ospf_redirect</text>
</g>
<!-- ip_input_local&#45;&gt;ospf_redirect -->
<g id="edge37" class="edge">
<title>ip_input_local&#45;&gt;ospf_redirect</title>
<path fill="none" stroke="black" d="M537.29,-356.73C552.28,-371.03 575.42,-391.39 598.47,-405 806.54,-527.84 875.17,-569 1116.78,-569 1116.78,-569 1116.78,-569 1212.76,-569 1280.02,-569 1357.53,-572.01 1407.46,-574.33"/>
<polygon fill="black" stroke="black" points="1407.25,-577.83 1417.41,-574.81 1407.58,-570.83 1407.25,-577.83"/>
</g>
<!-- dnat44_static&#45;&gt;ip_forward -->
<g id="edge75" class="edge">
<title>dnat44_static&#45;&gt;ip_forward</title>
<path fill="none" stroke="black" d="M414.02,-314.55C422.67,-310.35 432.14,-305.61 440.7,-301 456.17,-292.68 472.99,-282.84 487.02,-274.41"/>
<polygon fill="black" stroke="black" points="488.66,-277.51 495.4,-269.34 485.03,-271.53 488.66,-277.51"/>
</g>
<!-- dnat44_static&#45;&gt;ip_input_local -->
<g id="edge76" class="edge">
<title>dnat44_static&#45;&gt;ip_input_local</title>
<path fill="none" stroke="black" d="M427.16,-331.76C439.55,-332.88 453.28,-334.12 466.26,-335.29"/>
<polygon fill="black" stroke="black" points="465.63,-338.74 475.9,-336.15 466.25,-331.77 465.63,-338.74"/>
</g>
<!-- ip_loadbalance&#45;&gt;ip_output -->
<g id="edge33" class="edge">
<title>ip_loadbalance&#45;&gt;ip_output</title>
<path fill="none" stroke="black" d="M967.77,-353.13C964.42,-350.89 961.17,-348.49 958.18,-346 936.3,-327.78 915.57,-302.34 902.45,-282.93"/>
<polygon fill="black" stroke="black" points="905.49,-281.18 897.14,-274.67 899.6,-284.97 905.49,-281.18"/>
</g>
<!-- ipip_input&#45;&gt;ip_input -->
<g id="edge67" class="edge">
<title>ipip_input&#45;&gt;ip_input</title>
<path fill="none" stroke="black" d="M619.24,-198.33C548.8,-208.6 371.74,-234.43 294.78,-245.65"/>
<polygon fill="black" stroke="black" points="294.63,-242.13 285.24,-247.04 295.64,-249.06 294.63,-242.13"/>
</g>
<!-- l4_loopback_output -->
<g id="node52" class="node">
<title>l4_loopback_output</title>
<ellipse fill="none" stroke="black" cx="1611.91" cy="-533" rx="60.57" ry="18"/>
<text xml:space="preserve" text-anchor="middle" x="1611.91" y="-529.3" font-family="sans" font-size="11.00">l4_loopback_output</text>
</g>
<!-- l4_input_local&#45;&gt;l4_loopback_output -->
<g id="edge69" class="edge">
<title>l4_input_local&#45;&gt;l4_loopback_output</title>
<path fill="none" stroke="black" d="M1494.67,-494.1C1513.79,-500.5 1538.23,-508.68 1559.77,-515.88"/>
<polygon fill="black" stroke="black" points="1558.36,-519.11 1568.96,-518.96 1560.59,-512.47 1558.36,-519.11"/>
</g>
<!-- dhcp_input -->
<g id="node53" class="node">
<title>dhcp_input</title>
<ellipse fill="none" stroke="black" cx="1611.91" cy="-479" rx="34.89" ry="18"/>
<text xml:space="preserve" text-anchor="middle" x="1611.91" y="-475.3" font-family="sans" font-size="11.00">dhcp_input</text>
</g>
<!-- l4_input_local&#45;&gt;dhcp_input -->
<g id="edge70" class="edge">
<title>l4_input_local&#45;&gt;dhcp_input</title>
<path fill="none" stroke="black" d="M1503.52,-481.88C1522.77,-481.36 1545.62,-480.75 1565.28,-480.22"/>
<polygon fill="black" stroke="black" points="1565.33,-483.72 1575.23,-479.96 1565.14,-476.72 1565.33,-483.72"/>
</g>
<!-- ospf_redirect&#45;&gt;l2_redirect -->
<g id="edge72" class="edge">
<title>ospf_redirect&#45;&gt;l2_redirect</title>
<path fill="none" stroke="black" d="M1494.67,-587.65C1517.38,-594.95 1547.59,-604.66 1571.53,-612.35"/>
<polygon fill="black" stroke="black" points="1570.34,-615.64 1580.93,-615.37 1572.48,-608.98 1570.34,-615.64"/>
</g>
<!-- ipip_output&#45;&gt;ip_output -->
<g id="edge68" class="edge">
<title>ipip_output&#45;&gt;ip_output</title>
<path fill="none" stroke="black" d="M973.16,-301.57C955.74,-294.42 934.16,-284.33 917.13,-275.35"/>
<polygon fill="black" stroke="black" points="918.97,-272.37 908.52,-270.66 915.62,-278.52 918.97,-272.37"/>
</g>
<!-- sr6_output&#45;&gt;ip6_output -->
<g id="edge80" class="edge">
<title>sr6_output&#45;&gt;ip6_output</title>
<path fill="none" stroke="black" d="M1645.78,-137.12C1671.45,-143.28 1707.01,-153.8 1733.15,-162.94"/>
<polygon fill="black" stroke="black" points="1731.7,-166.14 1742.3,-166.24 1734.08,-159.55 1731.7,-166.14"/>
</g>
<!-- icmp6_input -->
<g id="node38" class="node">
<title>icmp6_input</title>
<polygon fill="none" stroke="dodgerblue" points="1500.71,-443 1420.31,-443 1420.31,-407 1500.71,-407 1500.71,-443"/>
<text xml:space="preserve" text-anchor="middle" x="1460.51" y="-421.3" font-family="sans" font-size="11.00">icmp6_input</text>
</g>
<!-- icmp6_output -->
<g id="node39" class="node">
<title>icmp6_output</title>
<ellipse fill="none" stroke="black" cx="1611.91" cy="-263" rx="43.31" ry="18"/>
<text xml:space="preserve" text-anchor="middle" x="1611.91" y="-259.3" font-family="sans" font-size="11.00">icmp6_output</text>
</g>
<!-- icmp6_input&#45;&gt;icmp6_output -->
<g id="edge45" class="edge">
<title>icmp6_input&#45;&gt;icmp6_output</title>
<path fill="none" stroke="dodgerblue" d="M1501.17,-409.76C1506.43,-406.48 1511.37,-402.58 1515.33,-398 1548.46,-359.76 1517.46,-327.58 1551.33,-290 1555.42,-285.47 1560.42,-281.65 1565.76,-278.44"/>
<polygon fill="dodgerblue" stroke="dodgerblue" points="1567.03,-281.72 1574.29,-274.01 1563.81,-275.51 1567.03,-281.72"/>
</g>
<!-- ndp_ns_input -->
<g id="node40" class="node">
<title>ndp_ns_input</title>
<polygon fill="none" stroke="dodgerblue" points="1654.73,-335 1569.08,-335 1569.08,-299 1654.73,-299 1654.73,-335"/>
<text xml:space="preserve" text-anchor="middle" x="1611.91" y="-313.3" font-family="sans" font-size="11.00">ndp_ns_input</text>
</g>
<!-- icmp6_input&#45;&gt;ndp_ns_input -->
<g id="edge46" class="edge">
<title>icmp6_input&#45;&gt;ndp_ns_input</title>
<path fill="none" stroke="dodgerblue" d="M1500.98,-408.25C1506.09,-405.23 1511.03,-401.81 1515.33,-398 1536.95,-378.9 1529.35,-362.67 1551.33,-344 1553.69,-342 1556.21,-340.12 1558.85,-338.36"/>
<polygon fill="dodgerblue" stroke="dodgerblue" points="1560.63,-341.37 1567.45,-333.26 1557.06,-335.35 1560.63,-341.37"/>
</g>
<!-- ndp_na_input -->
<g id="node41" class="node">
<title>ndp_na_input</title>
<polygon fill="none" stroke="dodgerblue" points="1655.11,-443 1568.71,-443 1568.71,-407 1655.11,-407 1655.11,-443"/>
<text xml:space="preserve" text-anchor="middle" x="1611.91" y="-421.3" font-family="sans" font-size="11.00">ndp_na_input</text>
</g>
<!-- icmp6_input&#45;&gt;ndp_na_input -->
<g id="edge47" class="edge">
<title>icmp6_input&#45;&gt;ndp_na_input</title>
<path fill="none" stroke="dodgerblue" d="M1501.15,-425C1518.25,-425 1538.52,-425 1556.96,-425"/>
<polygon fill="dodgerblue" stroke="dodgerblue" points="1556.95,-428.5 1566.95,-425 1556.95,-421.5 1556.95,-428.5"/>
</g>
<!-- ndp_rs_input -->
<g id="node42" class="node">
<title>ndp_rs_input</title>
<polygon fill="none" stroke="dodgerblue" points="1653.61,-389 1570.21,-389 1570.21,-353 1653.61,-353 1653.61,-389"/>
<text xml:space="preserve" text-anchor="middle" x="1611.91" y="-367.3" font-family="sans" font-size="11.00">ndp_rs_input</text>
</g>
<!-- icmp6_input&#45;&gt;ndp_rs_input -->
<g id="edge48" class="edge">
<title>icmp6_input&#45;&gt;ndp_rs_input</title>
<path fill="none" stroke="dodgerblue" d="M1501.15,-410.67C1518.94,-404.24 1540.16,-396.57 1559.17,-389.7"/>
<polygon fill="dodgerblue" stroke="dodgerblue" points="1560.14,-393.07 1568.35,-386.38 1557.76,-386.49 1560.14,-393.07"/>
</g>
<!-- icmp6_output&#45;&gt;ip6_output -->
<g id="edge49" class="edge">
<title>icmp6_output&#45;&gt;ip6_output</title>
<path fill="none" stroke="black" d="M1639.62,-248.7C1649.9,-243.18 1661.74,-236.81 1672.48,-231 1693.11,-219.84 1716.21,-207.26 1734.52,-197.27"/>
<polygon fill="black" stroke="black" points="1735.99,-200.45 1743.09,-192.59 1732.63,-194.31 1735.99,-200.45"/>
</g>
<!-- ip6_output&#45;&gt;eth_output -->
<g id="edge60" class="edge">
<title>ip6_output&#45;&gt;eth_output</title>
<path fill="none" stroke="black" d="M1776.08,-196.91C1798.74,-262.85 1877.66,-492.55 1905.48,-573.5"/>
<polygon fill="black" stroke="black" points="1902.14,-574.57 1908.7,-582.89 1908.77,-572.3 1902.14,-574.57"/>
</g>
<!-- ip6_output&#45;&gt;loop_xvrf -->
<g id="edge62" class="edge">
<title>ip6_output&#45;&gt;loop_xvrf</title>
<path fill="none" stroke="black" d="M1752.8,-162.94C1735.31,-145.53 1704.75,-118.57 1672.48,-106 1584.75,-71.84 1555.65,-87 1461.51,-87 1210.76,-87 1210.76,-87 1210.76,-87 1152.92,-87 1086.46,-96.2 1045.41,-102.96"/>
<polygon fill="black" stroke="black" points="1045.05,-99.47 1035.77,-104.59 1046.21,-106.37 1045.05,-99.47"/>
</g>
<!-- ip6_output&#45;&gt;sr6_output -->
<g id="edge64" class="edge">
<title>ip6_output&#45;&gt;sr6_output</title>
<path fill="none" stroke="black" d="M1735.39,-174.96C1709.83,-168.84 1674.3,-158.34 1648.08,-149.2"/>
<polygon fill="black" stroke="black" points="1649.49,-145.99 1638.9,-145.89 1647.12,-152.57 1649.49,-145.99"/>
</g>
<!-- ip6_hold -->
<g id="node46" class="node">
<title>ip6_hold</title>
<polygon fill="none" stroke="dodgerblue" points="1945.97,-143 1886.57,-143 1886.57,-107 1945.97,-107 1945.97,-143"/>
<text xml:space="preserve" text-anchor="middle" x="1916.27" y="-121.3" font-family="sans" font-size="11.00">ip6_hold</text>
</g>
<!-- ip6_output&#45;&gt;ip6_hold -->
<g id="edge61" class="edge">
<title>ip6_output&#45;&gt;ip6_hold</title>
<path fill="none" stroke="black" d="M1797.61,-168.72C1819.71,-160.51 1850.95,-148.9 1875.69,-139.7"/>
<polygon fill="black" stroke="black" points="1876.63,-143.09 1884.78,-136.33 1874.19,-136.53 1876.63,-143.09"/>
</g>
<!-- ip6_loadbalance -->
<g id="node49" class="node">
<title>ip6_loadbalance</title>
<ellipse fill="none" stroke="black" cx="1916.27" cy="-179" rx="50.89" ry="18"/>
<text xml:space="preserve" text-anchor="middle" x="1916.27" y="-175.3" font-family="sans" font-size="11.00">ip6_loadbalance</text>
</g>
<!-- ip6_output&#45;&gt;ip6_loadbalance -->
<g id="edge63" class="edge">
<title>ip6_output&#45;&gt;ip6_loadbalance</title>
<path fill="none" stroke="black" d="M1801.47,-173.32C1817.65,-172.37 1837.9,-172.05 1856.81,-172.37"/>
<polygon fill="black" stroke="black" points="1856.46,-175.86 1866.54,-172.6 1856.62,-168.86 1856.46,-175.86"/>
</g>
<!-- icmp6_local_send -->
<g id="node44" class="node">
<title>icmp6_local_send</title>
<polygon fill="none" stroke="dodgerblue" points="1515.33,-335 1405.68,-335 1405.68,-299 1515.33,-299 1515.33,-335"/>
<text xml:space="preserve" text-anchor="middle" x="1460.51" y="-313.3" font-family="sans" font-size="11.00">icmp6_local_send</text>
</g>
<!-- icmp6_local_send&#45;&gt;icmp6_output -->
<g id="edge50" class="edge">
<title>icmp6_local_send&#45;&gt;icmp6_output</title>
<path fill="none" stroke="dodgerblue" d="M1512.51,-298.57C1530.57,-292.04 1550.69,-284.77 1568.01,-278.51"/>
<polygon fill="dodgerblue" stroke="dodgerblue" points="1568.75,-281.96 1576.96,-275.27 1566.37,-275.38 1568.75,-281.96"/>
</g>
<!-- ip6_forward&#45;&gt;ip6_output -->
<g id="edge51" class="edge">
<title>ip6_forward&#45;&gt;ip6_output</title>
<path fill="none" stroke="black" d="M1360.71,-182.67C1441.64,-181.94 1635.19,-180.2 1723.11,-179.4"/>
<polygon fill="black" stroke="black" points="1723.06,-182.9 1733.03,-179.31 1723,-175.9 1723.06,-182.9"/>
</g>
<!-- ip6_input_local&#45;&gt;l4_input_local -->
<g id="edge58" class="edge">
<title>ip6_input_local&#45;&gt;l4_input_local</title>
<path fill="none" stroke="black" d="M1355.1,-438.31C1374.12,-446.45 1398.68,-456.96 1419.19,-465.74"/>
<polygon fill="black" stroke="black" points="1417.54,-468.84 1428.11,-469.56 1420.29,-462.41 1417.54,-468.84"/>
</g>
<!-- ip6_input_local&#45;&gt;ospf_redirect -->
<g id="edge59" class="edge">
<title>ip6_input_local&#45;&gt;ospf_redirect</title>
<path fill="none" stroke="black" d="M1339.29,-442.14C1363.1,-468.85 1409.19,-520.56 1436.87,-551.61"/>
<polygon fill="black" stroke="black" points="1434.22,-553.89 1443.49,-559.02 1439.44,-549.23 1434.22,-553.89"/>
</g>
<!-- ip6_input_local&#45;&gt;icmp6_input -->
<g id="edge57" class="edge">
<title>ip6_input_local&#45;&gt;icmp6_input</title>
<path fill="none" stroke="black" d="M1369.88,-425C1382.34,-425 1395.91,-425 1408.63,-425"/>
<polygon fill="black" stroke="black" points="1408.51,-428.5 1418.51,-425 1408.51,-421.5 1408.51,-428.5"/>
</g>
<!-- sr6_local&#45;&gt;ip_input -->
<g id="edge77" class="edge">
<title>sr6_local&#45;&gt;ip_input</title>
<path fill="none" stroke="black" d="M1185.9,-397.42C1074.52,-433.47 614.42,-564.67 328.05,-376 294.32,-353.78 275.23,-309.43 265.78,-279.98"/>
<polygon fill="black" stroke="black" points="269.19,-279.15 262.96,-270.58 262.48,-281.16 269.19,-279.15"/>
</g>
<!-- sr6_local&#45;&gt;ip6_input -->
<g id="edge78" class="edge">
<title>sr6_local&#45;&gt;ip6_input</title>
<path fill="none" stroke="black" d="M1190.66,-376.55C1175.49,-364.25 1154.75,-345.56 1139.45,-330.39"/>
<polygon fill="black" stroke="black" points="1142.14,-328.14 1132.64,-323.46 1137.15,-333.05 1142.14,-328.14"/>
</g>
<!-- sr6_local&#45;&gt;ip6_input_local -->
<g id="edge79" class="edge">
<title>sr6_local&#45;&gt;ip6_input_local</title>
<path fill="none" stroke="black" d="M1237.55,-397.17C1248.86,-400.9 1262.64,-405.44 1275.75,-409.76"/>
<polygon fill="black" stroke="black" points="1274.52,-413.03 1285.11,-412.84 1276.71,-406.39 1274.52,-413.03"/>
</g>
<!-- ip6_loadbalance&#45;&gt;ip6_output -->
<g id="edge56" class="edge">
<title>ip6_loadbalance&#45;&gt;ip6_output</title>
<path fill="none" stroke="black" d="M1868.05,-185.37C1850.33,-185.92 1830.29,-185.87 1812.97,-185.22"/>
<polygon fill="black" stroke="black" points="1813.13,-181.73 1802.98,-184.75 1812.8,-188.72 1813.13,-181.73"/>
</g>
<!-- ndp_na_output -->
<g id="node50" class="node">
<title>ndp_na_output</title>
<polygon fill="none" stroke="dodgerblue" points="1507.83,-281 1413.18,-281 1413.18,-245 1507.83,-245 1507.83,-281"/>
<text xml:space="preserve" text-anchor="middle" x="1460.51" y="-259.3" font-family="sans" font-size="11.00">ndp_na_output</text>
</g>
<!-- ndp_na_output&#45;&gt;icmp6_output -->
<g id="edge65" class="edge">
<title>ndp_na_output&#45;&gt;icmp6_output</title>
<path fill="none" stroke="dodgerblue" d="M1507.96,-263C1523.47,-263 1540.88,-263 1556.92,-263"/>
<polygon fill="dodgerblue" stroke="dodgerblue" points="1556.78,-266.5 1566.78,-263 1556.78,-259.5 1556.78,-266.5"/>
</g>
<!-- ndp_ns_output -->
<g id="node51" class="node">
<title>ndp_ns_output</title>
<polygon fill="none" stroke="dodgerblue" points="1507.46,-389 1413.56,-389 1413.56,-353 1507.46,-353 1507.46,-389"/>
<text xml:space="preserve" text-anchor="middle" x="1460.51" y="-367.3" font-family="sans" font-size="11.00">ndp_ns_output</text>
</g>
<!-- ndp_ns_output&#45;&gt;icmp6_output -->
<g id="edge66" class="edge">
<title>ndp_ns_output&#45;&gt;icmp6_output</title>
<path fill="none" stroke="dodgerblue" d="M1503.75,-352.56C1507.86,-349.97 1511.81,-347.12 1515.33,-344 1536.95,-324.9 1529.35,-308.67 1551.33,-290 1556.09,-285.96 1561.56,-282.4 1567.21,-279.32"/>
<polygon fill="dodgerblue" stroke="dodgerblue" points="1568.68,-282.5 1576.1,-274.93 1565.58,-276.22 1568.68,-282.5"/>
</g>
<!-- l4_loopback_output&#45;&gt;loopback_output -->
<g id="edge71" class="edge">
<title>l4_loopback_output&#45;&gt;loopback_output</title>
<path fill="none" stroke="black" d="M1672.84,-533C1683.48,-533 1694.58,-533 1705.29,-533"/>
<polygon fill="black" stroke="black" points="1705.21,-536.5 1715.21,-533 1705.21,-529.5 1705.21,-536.5"/>
</g>
</g>
</svg>
