<?xml version="1.0" encoding="UTF-8" standalone="no"?>
<!DOCTYPE svg PUBLIC "-//W3C//DTD SVG 1.1//EN"
 "http://www.w3.org/Graphics/SVG/1.1/DTD/svg11.dtd">
<!-- Generated by graphviz version 2.43.0 (0)
 -->
<!-- Title: gr&#45;0003 Pages: 1 -->
<svg width="1155pt" height="870pt"
 viewBox="0.00 0.00 1154.58 869.90" xmlns="http://www.w3.org/2000/svg" xmlns:xlink="http://www.w3.org/1999/xlink">
<g id="graph0" class="graph" transform="scale(1 1) rotate(0) translate(4 865.9)">
<title>gr&#45;0003</title>
<polygon fill="white" stroke="transparent" points="-4,4 -4,-865.9 1150.58,-865.9 1150.58,4 -4,4"/>
<!-- control_input -->
<g id="node1" class="node">
<title>control_input</title>
<ellipse fill="none" stroke="blue" stroke-width="2" cx="39.08" cy="-418.48" rx="39.15" ry="18"/>
<text text-anchor="middle" x="39.08" y="-415.68" font-family="sans" font-size="11.00">control_input</text>
</g>
<!-- loopback_input -->
<g id="node2" class="node">
<title>loopback_input</title>
<ellipse fill="none" stroke="black" cx="164.62" cy="-418.48" rx="44.51" ry="18"/>
<text text-anchor="middle" x="164.62" y="-415.68" font-family="sans" font-size="11.00">loopback_input</text>
</g>
<!-- control_input&#45;&gt;loopback_input -->
<g id="edge1" class="edge">
<title>control_input&#45;&gt;loopback_input</title>
<path fill="none" stroke="blue" stroke-width="2" d="M78.15,-418.48C88.15,-418.48 99.12,-418.48 109.77,-418.48"/>
<polygon fill="blue" stroke="blue" stroke-width="2" points="109.84,-421.98 119.84,-418.48 109.84,-414.98 109.84,-421.98"/>
</g>
<!-- arp_output_request -->
<g id="node3" class="node">
<title>arp_output_request</title>
<ellipse fill="none" stroke="black" cx="307.54" cy="-780.48" rx="56.39" ry="18"/>
<text text-anchor="middle" x="307.54" y="-777.68" font-family="sans" font-size="11.00">arp_output_request</text>
</g>
<!-- control_input&#45;&gt;arp_output_request -->
<g id="edge2" class="edge">
<title>control_input&#45;&gt;arp_output_request</title>
<path fill="none" stroke="blue" stroke-width="2" d="M46.83,-436.48C55.17,-459.26 69.33,-499.81 78.15,-535.48 100.79,-626.97 47.98,-677.35 114.15,-744.48 147.21,-778.01 200.85,-785.79 243.1,-785.87"/>
<polygon fill="blue" stroke="blue" stroke-width="2" points="243.35,-789.37 253.31,-785.74 243.26,-782.37 243.35,-789.37"/>
</g>
<!-- icmp_local_send -->
<g id="node4" class="node">
<title>icmp_local_send</title>
<ellipse fill="none" stroke="black" cx="307.54" cy="-470.48" rx="47.43" ry="18"/>
<text text-anchor="middle" x="307.54" y="-467.68" font-family="sans" font-size="11.00">icmp_local_send</text>
</g>
<!-- control_input&#45;&gt;icmp_local_send -->
<g id="edge3" class="edge">
<title>control_input&#45;&gt;icmp_local_send</title>
<path fill="none" stroke="blue" stroke-width="2" d="M68.47,-430.49C82.07,-435.82 98.73,-441.71 114.15,-445.48 159.51,-456.55 212.15,-462.96 250.89,-466.51"/>
<polygon fill="blue" stroke="blue" stroke-width="2" points="250.66,-470 260.93,-467.39 251.28,-463.03 250.66,-470"/>
</g>
<!-- icmp6_local_send -->
<g id="node5" class="node">
<title>icmp6_local_send</title>
<ellipse fill="none" stroke="black" cx="164.62" cy="-194.48" rx="50.45" ry="18"/>
<text text-anchor="middle" x="164.62" y="-191.68" font-family="sans" font-size="11.00">icmp6_local_send</text>
</g>
<!-- control_input&#45;&gt;icmp6_local_send -->
<g id="edge4" class="edge">
<title>control_input&#45;&gt;icmp6_local_send</title>
<path fill="none" stroke="blue" stroke-width="2" d="M42.59,-400.28C48.62,-362.74 67.05,-275.67 114.15,-221.48 116.61,-218.65 119.43,-216.07 122.46,-213.72"/>
<polygon fill="blue" stroke="blue" stroke-width="2" points="124.54,-216.54 130.85,-208.03 120.61,-210.74 124.54,-216.54"/>
</g>
<!-- ndp_ns_output -->
<g id="node6" class="node">
<title>ndp_ns_output</title>
<ellipse fill="none" stroke="black" cx="164.62" cy="-248.48" rx="43.34" ry="18"/>
<text text-anchor="middle" x="164.62" y="-245.68" font-family="sans" font-size="11.00">ndp_ns_output</text>
</g>
<!-- control_input&#45;&gt;ndp_ns_output -->
<g id="edge5" class="edge">
<title>control_input&#45;&gt;ndp_ns_output</title>
<path fill="none" stroke="blue" stroke-width="2" d="M46.31,-400.6C56.81,-372.46 80.24,-317.27 114.15,-280.48 118.28,-276 123.17,-271.87 128.24,-268.17"/>
<polygon fill="blue" stroke="blue" stroke-width="2" points="130.5,-270.86 136.84,-262.37 126.59,-265.06 130.5,-270.86"/>
</g>
<!-- ip_output -->
<g id="node7" class="node">
<title>ip_output</title>
<ellipse fill="none" stroke="black" cx="834.7" cy="-616.48" rx="28.44" ry="18"/>
<text text-anchor="middle" x="834.7" y="-613.68" font-family="sans" font-size="11.00">ip_output</text>
</g>
<!-- control_input&#45;&gt;ip_output -->
<g id="edge6" class="edge">
<title>control_input&#45;&gt;ip_output</title>
<path fill="none" stroke="blue" stroke-width="2" d="M45.61,-436.44C58.14,-475.96 89.46,-568.57 114.15,-589.48 282.29,-731.89 381.91,-686.88 602.06,-677.48 664.54,-674.81 682.31,-683.28 742.26,-665.48 765.05,-658.71 788.65,-645.89 806.16,-635.07"/>
<polygon fill="blue" stroke="blue" stroke-width="2" points="808.16,-637.94 814.73,-629.63 804.41,-632.03 808.16,-637.94"/>
</g>
<!-- ip6_output -->
<g id="node8" class="node">
<title>ip6_output</title>
<ellipse fill="none" stroke="black" cx="834.7" cy="-324.48" rx="31.46" ry="18"/>
<text text-anchor="middle" x="834.7" y="-321.68" font-family="sans" font-size="11.00">ip6_output</text>
</g>
<!-- control_input&#45;&gt;ip6_output -->
<g id="edge7" class="edge">
<title>control_input&#45;&gt;ip6_output</title>
<path fill="none" stroke="blue" stroke-width="2" d="M69.42,-407.07C82.94,-402 99.26,-396.13 114.15,-391.48 291.48,-336.03 337.28,-313.27 522.82,-303.48 620.21,-298.34 645.35,-292.49 742.26,-303.48 760.35,-305.53 780.08,-309.79 796.57,-313.95"/>
<polygon fill="blue" stroke="blue" stroke-width="2" points="795.81,-317.37 806.37,-316.5 797.57,-310.59 795.81,-317.37"/>
</g>
<!-- ip_input -->
<g id="node12" class="node">
<title>ip_input</title>
<ellipse fill="none" stroke="black" cx="307.54" cy="-562.48" rx="27" ry="18"/>
<text text-anchor="middle" x="307.54" y="-559.68" font-family="sans" font-size="11.00">ip_input</text>
</g>
<!-- loopback_input&#45;&gt;ip_input -->
<g id="edge12" class="edge">
<title>loopback_input&#45;&gt;ip_input</title>
<path fill="none" stroke="black" d="M182.07,-435.28C207.52,-461.29 256.5,-511.34 284.83,-540.3"/>
<polygon fill="black" stroke="black" points="282.41,-542.82 291.91,-547.52 287.41,-537.93 282.41,-542.82"/>
</g>
<!-- ip6_input -->
<g id="node13" class="node">
<title>ip6_input</title>
<ellipse fill="none" stroke="black" cx="307.54" cy="-416.48" rx="27.86" ry="18"/>
<text text-anchor="middle" x="307.54" y="-413.68" font-family="sans" font-size="11.00">ip6_input</text>
</g>
<!-- loopback_input&#45;&gt;ip6_input -->
<g id="edge13" class="edge">
<title>loopback_input&#45;&gt;ip6_input</title>
<path fill="none" stroke="black" d="M209.44,-417.85C228.71,-417.58 251.1,-417.26 269.52,-417"/>
<polygon fill="black" stroke="black" points="269.62,-420.5 279.57,-416.86 269.53,-413.5 269.62,-420.5"/>
</g>
<!-- eth_output -->
<g id="node14" class="node">
<title>eth_output</title>
<ellipse fill="none" stroke="black" cx="975.99" cy="-756.48" rx="32.04" ry="18"/>
<text text-anchor="middle" x="975.99" y="-753.68" font-family="sans" font-size="11.00">eth_output</text>
</g>
<!-- arp_output_request&#45;&gt;eth_output -->
<g id="edge22" class="edge">
<title>arp_output_request&#45;&gt;eth_output</title>
<path fill="none" stroke="black" d="M363.65,-778.49C493.99,-773.8 818.91,-762.1 933.88,-757.96"/>
<polygon fill="black" stroke="black" points="934.15,-761.45 944.02,-757.59 933.9,-754.45 934.15,-761.45"/>
</g>
<!-- icmp_output -->
<g id="node22" class="node">
<title>icmp_output</title>
<ellipse fill="none" stroke="black" cx="690.16" cy="-470.48" rx="36.81" ry="18"/>
<text text-anchor="middle" x="690.16" y="-467.68" font-family="sans" font-size="11.00">icmp_output</text>
</g>
<!-- icmp_local_send&#45;&gt;icmp_output -->
<g id="edge25" class="edge">
<title>icmp_local_send&#45;&gt;icmp_output</title>
<path fill="none" stroke="black" d="M354.83,-470.48C428,-470.48 569.58,-470.48 642.79,-470.48"/>
<polygon fill="black" stroke="black" points="643.08,-473.98 653.08,-470.48 643.08,-466.98 643.08,-473.98"/>
</g>
<!-- icmp6_output -->
<g id="node30" class="node">
<title>icmp6_output</title>
<ellipse fill="none" stroke="black" cx="690.16" cy="-202.48" rx="40.32" ry="18"/>
<text text-anchor="middle" x="690.16" y="-199.68" font-family="sans" font-size="11.00">icmp6_output</text>
</g>
<!-- icmp6_local_send&#45;&gt;icmp6_output -->
<g id="edge45" class="edge">
<title>icmp6_local_send&#45;&gt;icmp6_output</title>
<path fill="none" stroke="black" d="M215.35,-195.24C315.43,-196.77 540.13,-200.2 639.86,-201.72"/>
<polygon fill="black" stroke="black" points="639.91,-205.22 649.97,-201.88 640.02,-198.23 639.91,-205.22"/>
</g>
<!-- ndp_ns_output&#45;&gt;ip6_output -->
<g id="edge59" class="edge">
<title>ndp_ns_output&#45;&gt;ip6_output</title>
<path fill="none" stroke="black" d="M208.3,-248.48C262.66,-248.48 359.51,-248.48 442.4,-248.48 442.4,-248.48 442.4,-248.48 563.44,-248.48 643.63,-248.48 666.27,-246.85 742.26,-272.48 764.95,-280.13 788.39,-293.59 805.86,-304.89"/>
<polygon fill="black" stroke="black" points="804.14,-307.96 814.41,-310.57 808.01,-302.12 804.14,-307.96"/>
</g>
<!-- ip_output&#45;&gt;eth_output -->
<g id="edge35" class="edge">
<title>ip_output&#45;&gt;eth_output</title>
<path fill="none" stroke="black" d="M850.61,-631.46C874.96,-655.94 923.43,-704.66 952.15,-733.52"/>
<polygon fill="black" stroke="black" points="949.81,-736.13 959.34,-740.75 954.77,-731.19 949.81,-736.13"/>
</g>
<!-- loopback_output -->
<g id="node16" class="node">
<title>loopback_output</title>
<ellipse fill="none" stroke="black" cx="975.99" cy="-404.48" rx="48.69" ry="18"/>
<text text-anchor="middle" x="975.99" y="-401.68" font-family="sans" font-size="11.00">loopback_output</text>
</g>
<!-- ip_output&#45;&gt;loopback_output -->
<g id="edge37" class="edge">
<title>ip_output&#45;&gt;loopback_output</title>
<path fill="none" stroke="black" d="M846.63,-599.84C870.81,-563.04 928.98,-474.5 957.97,-430.38"/>
<polygon fill="black" stroke="black" points="960.96,-432.2 963.53,-421.92 955.11,-428.36 960.96,-432.2"/>
</g>
<!-- ip_hold -->
<g id="node24" class="node">
<title>ip_hold</title>
<ellipse fill="none" stroke="black" cx="975.99" cy="-562.48" rx="27" ry="18"/>
<text text-anchor="middle" x="975.99" y="-559.68" font-family="sans" font-size="11.00">ip_hold</text>
</g>
<!-- ip_output&#45;&gt;ip_hold -->
<g id="edge36" class="edge">
<title>ip_output&#45;&gt;ip_hold</title>
<path fill="none" stroke="black" d="M859.33,-607.32C882.22,-598.44 917.1,-584.92 942.57,-575.04"/>
<polygon fill="black" stroke="black" points="944.11,-578.2 952.17,-571.32 941.58,-571.67 944.11,-578.2"/>
</g>
<!-- ipip_output -->
<g id="node28" class="node">
<title>ipip_output</title>
<ellipse fill="none" stroke="black" cx="975.99" cy="-616.48" rx="33.8" ry="18"/>
<text text-anchor="middle" x="975.99" y="-613.68" font-family="sans" font-size="11.00">ipip_output</text>
</g>
<!-- ip_output&#45;&gt;ipip_output -->
<g id="edge38" class="edge">
<title>ip_output&#45;&gt;ipip_output</title>
<path fill="none" stroke="black" d="M861.9,-611.06C882.13,-609.61 910.5,-609.34 933.76,-610.25"/>
<polygon fill="black" stroke="black" points="933.89,-613.76 944.04,-610.75 934.23,-606.77 933.89,-613.76"/>
</g>
<!-- ip6_output&#45;&gt;eth_output -->
<g id="edge53" class="edge">
<title>ip6_output&#45;&gt;eth_output</title>
<path fill="none" stroke="black" d="M854.31,-338.9C866.87,-349.74 882.66,-365.72 891.14,-383.48 941.46,-488.73 896.13,-531.02 927.14,-643.48 935.58,-674.07 950.4,-707.32 961.31,-729.77"/>
<polygon fill="black" stroke="black" points="958.3,-731.58 965.87,-738.99 964.58,-728.48 958.3,-731.58"/>
</g>
<!-- ip6_output&#45;&gt;loopback_output -->
<g id="edge55" class="edge">
<title>ip6_output&#45;&gt;loopback_output</title>
<path fill="none" stroke="black" d="M857.46,-336.98C879.5,-349.63 913.94,-369.41 939.85,-384.3"/>
<polygon fill="black" stroke="black" points="938.21,-387.39 948.63,-389.33 941.7,-381.32 938.21,-387.39"/>
</g>
<!-- ip6_hold -->
<g id="node35" class="node">
<title>ip6_hold</title>
<ellipse fill="none" stroke="black" cx="975.99" cy="-347.48" rx="27" ry="18"/>
<text text-anchor="middle" x="975.99" y="-344.68" font-family="sans" font-size="11.00">ip6_hold</text>
</g>
<!-- ip6_output&#45;&gt;ip6_hold -->
<g id="edge54" class="edge">
<title>ip6_output&#45;&gt;ip6_hold</title>
<path fill="none" stroke="black" d="M865.24,-329.35C886.99,-332.94 916.64,-337.84 939.65,-341.64"/>
<polygon fill="black" stroke="black" points="939.26,-345.12 949.69,-343.3 940.4,-338.22 939.26,-345.12"/>
</g>
<!-- control_output -->
<g id="node9" class="node">
<title>control_output</title>
<ellipse fill="none" stroke="black" cx="1103.71" cy="-354.48" rx="42.75" ry="18"/>
<text text-anchor="middle" x="1103.71" y="-351.68" font-family="sans" font-size="11.00">control_output</text>
</g>
<!-- eth_input -->
<g id="node10" class="node">
<title>eth_input</title>
<ellipse fill="none" stroke="black" cx="164.62" cy="-562.48" rx="27.86" ry="18"/>
<text text-anchor="middle" x="164.62" y="-559.68" font-family="sans" font-size="11.00">eth_input</text>
</g>
<!-- arp_input -->
<g id="node11" class="node">
<title>arp_input</title>
<ellipse fill="none" stroke="black" cx="562.44" cy="-738.48" rx="28.44" ry="18"/>
<text text-anchor="middle" x="562.44" y="-735.68" font-family="sans" font-size="11.00">arp_input</text>
</g>
<!-- eth_input&#45;&gt;arp_input -->
<g id="edge8" class="edge">
<title>eth_input&#45;&gt;arp_input</title>
<path fill="none" stroke="black" d="M187.87,-572.68C229.44,-591.71 321.79,-633.85 399.98,-668.48 444.67,-688.27 496.54,-710.65 529.18,-724.67"/>
<polygon fill="black" stroke="black" points="528.09,-728.01 538.66,-728.73 530.85,-721.58 528.09,-728.01"/>
</g>
<!-- eth_input&#45;&gt;ip_input -->
<g id="edge9" class="edge">
<title>eth_input&#45;&gt;ip_input</title>
<path fill="none" stroke="black" d="M192.46,-562.48C214.44,-562.48 245.76,-562.48 270.03,-562.48"/>
<polygon fill="black" stroke="black" points="270.28,-565.98 280.28,-562.48 270.28,-558.98 270.28,-565.98"/>
</g>
<!-- eth_input&#45;&gt;ip6_input -->
<g id="edge10" class="edge">
<title>eth_input&#45;&gt;ip6_input</title>
<path fill="none" stroke="black" d="M174.27,-545.46C187.75,-520.35 215.9,-473.16 251.1,-443.48 257.8,-437.82 265.9,-433.02 273.8,-429.11"/>
<polygon fill="black" stroke="black" points="275.28,-432.28 282.9,-424.92 272.35,-425.92 275.28,-432.28"/>
</g>
<!-- arp_input_request -->
<g id="node18" class="node">
<title>arp_input_request</title>
<ellipse fill="none" stroke="black" cx="690.16" cy="-824.48" rx="52.2" ry="18"/>
<text text-anchor="middle" x="690.16" y="-821.68" font-family="sans" font-size="11.00">arp_input_request</text>
</g>
<!-- arp_input&#45;&gt;arp_input_request -->
<g id="edge16" class="edge">
<title>arp_input&#45;&gt;arp_input_request</title>
<path fill="none" stroke="black" d="M582.26,-751.35C602.03,-764.87 633.47,-786.38 657.14,-802.58"/>
<polygon fill="black" stroke="black" points="655.25,-805.52 665.48,-808.28 659.2,-799.75 655.25,-805.52"/>
</g>
<!-- arp_input_reply -->
<g id="node19" class="node">
<title>arp_input_reply</title>
<ellipse fill="none" stroke="black" cx="834.7" cy="-717.48" rx="45.09" ry="18"/>
<text text-anchor="middle" x="834.7" y="-714.68" font-family="sans" font-size="11.00">arp_input_reply</text>
</g>
<!-- arp_input&#45;&gt;arp_input_reply -->
<g id="edge17" class="edge">
<title>arp_input&#45;&gt;arp_input_reply</title>
<path fill="none" stroke="black" d="M590.59,-736.37C634.69,-732.94 722.72,-726.1 779.86,-721.66"/>
<polygon fill="black" stroke="black" points="780.46,-725.12 790.16,-720.86 779.92,-718.15 780.46,-725.12"/>
</g>
<!-- ip_input&#45;&gt;ip_output -->
<g id="edge30" class="edge">
<title>ip_input&#45;&gt;ip_output</title>
<path fill="none" stroke="black" d="M328.86,-573.65C339.73,-580.02 353.08,-588.52 363.98,-597.48 381.96,-612.24 378.61,-626.28 399.98,-635.48 537.86,-694.78 723.67,-650.33 799.42,-627.65"/>
<polygon fill="black" stroke="black" points="800.82,-630.88 809.36,-624.61 798.77,-624.19 800.82,-630.88"/>
</g>
<!-- ip_forward -->
<g id="node23" class="node">
<title>ip_forward</title>
<ellipse fill="none" stroke="black" cx="443.4" cy="-608.48" rx="32.04" ry="18"/>
<text text-anchor="middle" x="443.4" y="-605.68" font-family="sans" font-size="11.00">ip_forward</text>
</g>
<!-- ip_input&#45;&gt;ip_forward -->
<g id="edge29" class="edge">
<title>ip_input&#45;&gt;ip_forward</title>
<path fill="none" stroke="black" d="M331.86,-570.49C352.31,-577.52 382.38,-587.85 405.99,-595.97"/>
<polygon fill="black" stroke="black" points="405.08,-599.35 415.67,-599.29 407.35,-592.73 405.08,-599.35"/>
</g>
<!-- ip_input_local -->
<g id="node25" class="node">
<title>ip_input_local</title>
<ellipse fill="none" stroke="black" cx="443.4" cy="-516.48" rx="40.32" ry="18"/>
<text text-anchor="middle" x="443.4" y="-513.68" font-family="sans" font-size="11.00">ip_input_local</text>
</g>
<!-- ip_input&#45;&gt;ip_input_local -->
<g id="edge31" class="edge">
<title>ip_input&#45;&gt;ip_input_local</title>
<path fill="none" stroke="black" d="M331.86,-554.46C350.91,-547.92 378.32,-538.5 401.07,-530.68"/>
<polygon fill="black" stroke="black" points="402.51,-533.89 410.83,-527.33 400.23,-527.27 402.51,-533.89"/>
</g>
<!-- ip6_input&#45;&gt;ip6_output -->
<g id="edge49" class="edge">
<title>ip6_input&#45;&gt;ip6_output</title>
<path fill="none" stroke="black" d="M321.91,-401.09C338.28,-383.48 367.84,-355.53 399.98,-343.48 536.98,-292.11 715.59,-307.72 793.94,-318.27"/>
<polygon fill="black" stroke="black" points="793.93,-321.8 804.32,-319.71 794.9,-314.87 793.93,-321.8"/>
</g>
<!-- ip6_forward -->
<g id="node34" class="node">
<title>ip6_forward</title>
<ellipse fill="none" stroke="black" cx="443.4" cy="-370.48" rx="35.06" ry="18"/>
<text text-anchor="middle" x="443.4" y="-367.68" font-family="sans" font-size="11.00">ip6_forward</text>
</g>
<!-- ip6_input&#45;&gt;ip6_forward -->
<g id="edge48" class="edge">
<title>ip6_input&#45;&gt;ip6_forward</title>
<path fill="none" stroke="black" d="M332.47,-408.25C352.34,-401.42 380.99,-391.58 404.05,-383.65"/>
<polygon fill="black" stroke="black" points="405.23,-386.95 413.55,-380.39 402.96,-380.33 405.23,-386.95"/>
</g>
<!-- ip6_input_local -->
<g id="node36" class="node">
<title>ip6_input_local</title>
<ellipse fill="none" stroke="black" cx="443.4" cy="-424.48" rx="43.34" ry="18"/>
<text text-anchor="middle" x="443.4" y="-421.68" font-family="sans" font-size="11.00">ip6_input_local</text>
</g>
<!-- ip6_input&#45;&gt;ip6_input_local -->
<g id="edge50" class="edge">
<title>ip6_input&#45;&gt;ip6_input_local</title>
<path fill="none" stroke="black" d="M335.31,-418.08C351.02,-419.01 371.41,-420.23 390.17,-421.36"/>
<polygon fill="black" stroke="black" points="390.2,-424.86 400.39,-421.97 390.62,-417.88 390.2,-424.86"/>
</g>
<!-- port_tx -->
<g id="node15" class="node">
<title>port_tx</title>
<ellipse fill="none" stroke="black" cx="1103.71" cy="-756.48" rx="27" ry="18"/>
<text text-anchor="middle" x="1103.71" y="-753.68" font-family="sans" font-size="11.00">port_tx</text>
</g>
<!-- eth_output&#45;&gt;port_tx -->
<g id="edge11" class="edge">
<title>eth_output&#45;&gt;port_tx</title>
<path fill="none" stroke="black" d="M1008.07,-756.48C1025.78,-756.48 1048.05,-756.48 1066.54,-756.48"/>
<polygon fill="black" stroke="black" points="1066.65,-759.98 1076.65,-756.48 1066.65,-752.98 1066.65,-759.98"/>
</g>
<!-- loopback_output&#45;&gt;control_output -->
<g id="edge14" class="edge">
<title>loopback_output&#45;&gt;control_output</title>
<path fill="none" stroke="black" d="M1010.02,-391.34C1026.08,-384.95 1045.51,-377.22 1062.43,-370.5"/>
<polygon fill="black" stroke="black" points="1064.06,-373.62 1072.05,-366.67 1061.47,-367.11 1064.06,-373.62"/>
</g>
<!-- port_rx -->
<g id="node17" class="node">
<title>port_rx</title>
<ellipse fill="none" stroke="blue" stroke-width="2" cx="39.08" cy="-562.48" rx="27" ry="18"/>
<text text-anchor="middle" x="39.08" y="-559.68" font-family="sans" font-size="11.00">port_rx</text>
</g>
<!-- port_rx&#45;&gt;eth_input -->
<g id="edge15" class="edge">
<title>port_rx&#45;&gt;eth_input</title>
<path fill="none" stroke="blue" stroke-width="2" d="M66.28,-562.48C83.81,-562.48 107.14,-562.48 126.57,-562.48"/>
<polygon fill="blue" stroke="blue" stroke-width="2" points="126.61,-565.98 136.61,-562.48 126.61,-558.98 126.61,-565.98"/>
</g>
<!-- arp_input_request&#45;&gt;control_output -->
<g id="edge19" class="edge">
<title>arp_input_request&#45;&gt;control_output</title>
<path fill="none" stroke="black" d="M725.77,-837.83C741.53,-843.22 760.57,-848.8 778.26,-851.48 890.66,-868.5 956.95,-874.66 1024.83,-783.48 1072.68,-719.2 1094.65,-467.81 1100.82,-382.77"/>
<polygon fill="black" stroke="black" points="1104.33,-382.8 1101.54,-372.58 1097.34,-382.31 1104.33,-382.8"/>
</g>
<!-- arp_output_reply -->
<g id="node20" class="node">
<title>arp_output_reply</title>
<ellipse fill="none" stroke="black" cx="834.7" cy="-824.48" rx="48.69" ry="18"/>
<text text-anchor="middle" x="834.7" y="-821.68" font-family="sans" font-size="11.00">arp_output_reply</text>
</g>
<!-- arp_input_request&#45;&gt;arp_output_reply -->
<g id="edge20" class="edge">
<title>arp_input_request&#45;&gt;arp_output_reply</title>
<path fill="none" stroke="black" d="M742.62,-824.48C753.26,-824.48 764.53,-824.48 775.39,-824.48"/>
<polygon fill="black" stroke="black" points="775.64,-827.98 785.64,-824.48 775.64,-820.98 775.64,-827.98"/>
</g>
<!-- arp_input_reply&#45;&gt;control_output -->
<g id="edge18" class="edge">
<title>arp_input_reply&#45;&gt;control_output</title>
<path fill="none" stroke="black" d="M878.06,-712.08C921.11,-704.35 986.72,-686.02 1024.83,-643.48 1092.59,-567.85 1102.28,-439.29 1103.07,-382.67"/>
<polygon fill="black" stroke="black" points="1106.57,-382.68 1103.13,-372.66 1099.57,-382.64 1106.57,-382.68"/>
</g>
<!-- arp_output_reply&#45;&gt;eth_output -->
<g id="edge21" class="edge">
<title>arp_output_reply&#45;&gt;eth_output</title>
<path fill="none" stroke="black" d="M864.9,-810.22C887.48,-799.2 918.73,-783.94 942.17,-772.5"/>
<polygon fill="black" stroke="black" points="943.92,-775.54 951.37,-768.01 940.85,-769.25 943.92,-775.54"/>
</g>
<!-- icmp_input -->
<g id="node21" class="node">
<title>icmp_input</title>
<ellipse fill="none" stroke="black" cx="562.44" cy="-516.48" rx="32.63" ry="18"/>
<text text-anchor="middle" x="562.44" y="-513.68" font-family="sans" font-size="11.00">icmp_input</text>
</g>
<!-- icmp_input&#45;&gt;control_output -->
<g id="edge24" class="edge">
<title>icmp_input&#45;&gt;control_output</title>
<path fill="none" stroke="black" d="M595.1,-517.33C673.26,-518.07 879.56,-511.71 1024.83,-431.48 1048.15,-418.6 1069.26,-396.76 1083.61,-379.62"/>
<polygon fill="black" stroke="black" points="1086.5,-381.62 1090.08,-371.65 1081.06,-377.2 1086.5,-381.62"/>
</g>
<!-- icmp_input&#45;&gt;icmp_output -->
<g id="edge23" class="edge">
<title>icmp_input&#45;&gt;icmp_output</title>
<path fill="none" stroke="black" d="M590.1,-506.72C607.61,-500.31 630.81,-491.83 650.35,-484.68"/>
<polygon fill="black" stroke="black" points="651.71,-487.9 659.9,-481.18 649.31,-481.33 651.71,-487.9"/>
</g>
<!-- icmp_output&#45;&gt;ip_output -->
<g id="edge26" class="edge">
<title>icmp_output&#45;&gt;ip_output</title>
<path fill="none" stroke="black" d="M706.96,-486.66C732.37,-512.69 782.43,-563.96 811.45,-593.68"/>
<polygon fill="black" stroke="black" points="809.2,-596.39 818.69,-601.1 814.21,-591.5 809.2,-596.39"/>
</g>
<!-- ip_forward&#45;&gt;ip_output -->
<g id="edge27" class="edge">
<title>ip_forward&#45;&gt;ip_output</title>
<path fill="none" stroke="black" d="M475.6,-609.12C546.51,-610.57 719.56,-614.13 796.16,-615.7"/>
<polygon fill="black" stroke="black" points="796.24,-619.21 806.31,-615.91 796.38,-612.21 796.24,-619.21"/>
</g>
<!-- ip_hold&#45;&gt;control_output -->
<g id="edge28" class="edge">
<title>ip_hold&#45;&gt;control_output</title>
<path fill="none" stroke="black" d="M998.06,-551.91C1007.21,-546.5 1017.5,-539.2 1024.83,-530.48 1062.5,-485.66 1085.09,-419.75 1095.59,-382.61"/>
<polygon fill="black" stroke="black" points="1099.09,-383.07 1098.35,-372.5 1092.34,-381.23 1099.09,-383.07"/>
</g>
<!-- ip_input_local&#45;&gt;icmp_input -->
<g id="edge32" class="edge">
<title>ip_input_local&#45;&gt;icmp_input</title>
<path fill="none" stroke="black" d="M483.7,-516.48C495.31,-516.48 508.05,-516.48 519.8,-516.48"/>
<polygon fill="black" stroke="black" points="519.82,-519.98 529.82,-516.48 519.82,-512.98 519.82,-519.98"/>
</g>
<!-- ipip_input -->
<g id="node26" class="node">
<title>ipip_input</title>
<ellipse fill="none" stroke="black" cx="562.44" cy="-570.48" rx="29.12" ry="18"/>
<text text-anchor="middle" x="562.44" y="-567.68" font-family="sans" font-size="11.00">ipip_input</text>
</g>
<!-- ip_input_local&#45;&gt;ipip_input -->
<g id="edge33" class="edge">
<title>ip_input_local&#45;&gt;ipip_input</title>
<path fill="none" stroke="black" d="M472.14,-529.27C489.25,-537.17 511.27,-547.33 529.16,-555.58"/>
<polygon fill="black" stroke="black" points="528.07,-558.93 538.62,-559.95 531,-552.58 528.07,-558.93"/>
</g>
<!-- l4_input_local -->
<g id="node27" class="node">
<title>l4_input_local</title>
<ellipse fill="none" stroke="black" cx="562.44" cy="-424.48" rx="39.74" ry="18"/>
<text text-anchor="middle" x="562.44" y="-421.68" font-family="sans" font-size="11.00">l4_input_local</text>
</g>
<!-- ip_input_local&#45;&gt;l4_input_local -->
<g id="edge34" class="edge">
<title>ip_input_local&#45;&gt;l4_input_local</title>
<path fill="none" stroke="black" d="M464.25,-500.87C483.25,-485.93 512.1,-463.26 533.43,-446.49"/>
<polygon fill="black" stroke="black" points="535.79,-449.09 541.49,-440.16 531.46,-443.59 535.79,-449.09"/>
</g>
<!-- ipip_input&#45;&gt;ip_input -->
<g id="edge61" class="edge">
<title>ipip_input&#45;&gt;ip_input</title>
<path fill="none" stroke="black" d="M533.16,-569.58C487.05,-568.12 395.71,-565.23 344.86,-563.63"/>
<polygon fill="black" stroke="black" points="344.76,-560.12 334.65,-563.3 344.54,-567.12 344.76,-560.12"/>
</g>
<!-- l4_loopback_output -->
<g id="node37" class="node">
<title>l4_loopback_output</title>
<ellipse fill="none" stroke="black" cx="834.7" cy="-410.48" rx="56.39" ry="18"/>
<text text-anchor="middle" x="834.7" y="-407.68" font-family="sans" font-size="11.00">l4_loopback_output</text>
</g>
<!-- l4_input_local&#45;&gt;l4_loopback_output -->
<g id="edge63" class="edge">
<title>l4_input_local&#45;&gt;l4_loopback_output</title>
<path fill="none" stroke="black" d="M601.87,-422.49C645.18,-420.24 716.32,-416.56 768.39,-413.86"/>
<polygon fill="black" stroke="black" points="768.73,-417.35 778.54,-413.33 768.37,-410.36 768.73,-417.35"/>
</g>
<!-- ipip_output&#45;&gt;ip_output -->
<g id="edge62" class="edge">
<title>ipip_output&#45;&gt;ip_output</title>
<path fill="none" stroke="black" d="M944.04,-622.2C922.75,-623.47 894.39,-623.56 872.02,-622.49"/>
<polygon fill="black" stroke="black" points="872.09,-618.98 861.9,-621.89 871.68,-625.97 872.09,-618.98"/>
</g>
<!-- icmp6_input -->
<g id="node29" class="node">
<title>icmp6_input</title>
<ellipse fill="none" stroke="black" cx="562.44" cy="-125.48" rx="35.64" ry="18"/>
<text text-anchor="middle" x="562.44" y="-122.68" font-family="sans" font-size="11.00">icmp6_input</text>
</g>
<!-- icmp6_input&#45;&gt;control_output -->
<g id="edge43" class="edge">
<title>icmp6_input&#45;&gt;control_output</title>
<path fill="none" stroke="black" d="M596.84,-120.1C633.1,-115.34 692.5,-110.65 742.26,-121.48 879.8,-151.4 915.77,-175.49 1024.83,-264.48 1048.12,-283.48 1070.09,-309.95 1084.72,-329.26"/>
<polygon fill="black" stroke="black" points="1081.93,-331.38 1090.71,-337.32 1087.55,-327.2 1081.93,-331.38"/>
</g>
<!-- icmp6_input&#45;&gt;icmp6_output -->
<g id="edge39" class="edge">
<title>icmp6_input&#45;&gt;icmp6_output</title>
<path fill="none" stroke="black" d="M583.97,-140.08C598.75,-150.38 619.31,-164.29 638.06,-175.48 643.13,-178.51 648.58,-181.57 653.96,-184.5"/>
<polygon fill="black" stroke="black" points="652.4,-187.63 662.87,-189.26 655.7,-181.46 652.4,-187.63"/>
</g>
<!-- ndp_ns_input -->
<g id="node31" class="node">
<title>ndp_ns_input</title>
<ellipse fill="none" stroke="black" cx="690.16" cy="-148.48" rx="39.15" ry="18"/>
<text text-anchor="middle" x="690.16" y="-145.68" font-family="sans" font-size="11.00">ndp_ns_input</text>
</g>
<!-- icmp6_input&#45;&gt;ndp_ns_input -->
<g id="edge40" class="edge">
<title>icmp6_input&#45;&gt;ndp_ns_input</title>
<path fill="none" stroke="black" d="M596.47,-131.52C610.91,-134.16 628.09,-137.3 643.71,-140.16"/>
<polygon fill="black" stroke="black" points="643.24,-143.63 653.7,-141.99 644.5,-136.75 643.24,-143.63"/>
</g>
<!-- ndp_na_input -->
<g id="node32" class="node">
<title>ndp_na_input</title>
<ellipse fill="none" stroke="black" cx="834.7" cy="-64.48" rx="39.74" ry="18"/>
<text text-anchor="middle" x="834.7" y="-61.68" font-family="sans" font-size="11.00">ndp_na_input</text>
</g>
<!-- icmp6_input&#45;&gt;ndp_na_input -->
<g id="edge41" class="edge">
<title>icmp6_input&#45;&gt;ndp_na_input</title>
<path fill="none" stroke="black" d="M586.13,-111.7C600.51,-103.62 619.77,-93.96 638.06,-88.48 686.76,-73.88 744.82,-68.14 784.98,-65.9"/>
<polygon fill="black" stroke="black" points="785.24,-69.39 795.05,-65.39 784.88,-62.4 785.24,-69.39"/>
</g>
<!-- ndp_rs_input -->
<g id="node33" class="node">
<title>ndp_rs_input</title>
<ellipse fill="none" stroke="black" cx="690.16" cy="-18.48" rx="37.98" ry="18"/>
<text text-anchor="middle" x="690.16" y="-15.68" font-family="sans" font-size="11.00">ndp_rs_input</text>
</g>
<!-- icmp6_input&#45;&gt;ndp_rs_input -->
<g id="edge42" class="edge">
<title>icmp6_input&#45;&gt;ndp_rs_input</title>
<path fill="none" stroke="black" d="M577.9,-108.88C592.27,-92.91 615.38,-68.58 638.06,-50.48 643.66,-46 649.93,-41.63 656.1,-37.62"/>
<polygon fill="black" stroke="black" points="658.37,-40.33 664.99,-32.05 654.66,-34.4 658.37,-40.33"/>
</g>
<!-- icmp6_output&#45;&gt;ip6_output -->
<g id="edge44" class="edge">
<title>icmp6_output&#45;&gt;ip6_output</title>
<path fill="none" stroke="black" d="M715.81,-216.42C724.45,-221.69 734.04,-227.99 742.26,-234.48 768.22,-254.98 794.84,-281.99 812.61,-301.05"/>
<polygon fill="black" stroke="black" points="810.08,-303.47 819.43,-308.44 815.22,-298.72 810.08,-303.47"/>
</g>
<!-- ndp_ns_input&#45;&gt;ip6_output -->
<g id="edge57" class="edge">
<title>ndp_ns_input&#45;&gt;ip6_output</title>
<path fill="none" stroke="black" d="M719.97,-160.3C727.77,-164.36 735.82,-169.44 742.26,-175.48 752.5,-185.08 795.73,-258.68 818.9,-298.72"/>
<polygon fill="black" stroke="black" points="815.89,-300.51 823.92,-307.42 821.95,-297.01 815.89,-300.51"/>
</g>
<!-- ndp_ns_input&#45;&gt;control_output -->
<g id="edge58" class="edge">
<title>ndp_ns_input&#45;&gt;control_output</title>
<path fill="none" stroke="black" d="M717.21,-161.52C788.02,-196.96 984.12,-295.12 1066.02,-336.11"/>
<polygon fill="black" stroke="black" points="1064.92,-339.48 1075.43,-340.82 1068.05,-333.22 1064.92,-339.48"/>
</g>
<!-- ndp_na_input&#45;&gt;control_output -->
<g id="edge56" class="edge">
<title>ndp_na_input&#45;&gt;control_output</title>
<path fill="none" stroke="black" d="M873.26,-60.05C915.34,-57.28 983.12,-59.7 1024.83,-96.48 1092.63,-156.26 1102.45,-272.74 1103.19,-326.3"/>
<polygon fill="black" stroke="black" points="1099.69,-326.45 1103.23,-336.44 1106.69,-326.42 1099.69,-326.45"/>
</g>
<!-- ndp_rs_input&#45;&gt;control_output -->
<g id="edge60" class="edge">
<title>ndp_rs_input&#45;&gt;control_output</title>
<path fill="none" stroke="black" d="M724.8,-11.08C791.28,1.4 940.3,18.39 1024.83,-57.48 1065.04,-93.56 1090.4,-258.73 1099.22,-325.92"/>
<polygon fill="black" stroke="black" points="1095.79,-326.72 1100.54,-336.19 1102.73,-325.83 1095.79,-326.72"/>
</g>
<!-- ip6_forward&#45;&gt;ip6_output -->
<g id="edge46" class="edge">
<title>ip6_forward&#45;&gt;ip6_output</title>
<path fill="none" stroke="black" d="M478.41,-367.32C533.78,-362.08 646.85,-350.9 742.26,-338.48 759.24,-336.27 777.94,-333.47 793.99,-330.95"/>
<polygon fill="black" stroke="black" points="794.77,-334.37 804.1,-329.35 793.67,-327.46 794.77,-334.37"/>
</g>
<!-- ip6_hold&#45;&gt;control_output -->
<g id="edge47" class="edge">
<title>ip6_hold&#45;&gt;control_output</title>
<path fill="none" stroke="black" d="M1003.04,-348.93C1016.86,-349.7 1034.34,-350.67 1050.79,-351.59"/>
<polygon fill="black" stroke="black" points="1050.68,-355.08 1060.86,-352.15 1051.07,-348.1 1050.68,-355.08"/>
</g>
<!-- ip6_input_local&#45;&gt;l4_input_local -->
<g id="edge52" class="edge">
<title>ip6_input_local&#45;&gt;l4_input_local</title>
<path fill="none" stroke="black" d="M486.99,-424.48C495.26,-424.48 503.99,-424.48 512.44,-424.48"/>
<polygon fill="black" stroke="black" points="512.58,-427.98 522.58,-424.48 512.58,-420.98 512.58,-427.98"/>
</g>
<!-- ip6_input_local&#45;&gt;icmp6_input -->
<g id="edge51" class="edge">
<title>ip6_input_local&#45;&gt;icmp6_input</title>
<path fill="none" stroke="black" d="M472.42,-410.82C477.82,-407.12 482.98,-402.67 486.82,-397.48 542.61,-321.89 556.69,-206.83 560.24,-153.91"/>
<polygon fill="black" stroke="black" points="563.75,-153.79 560.85,-143.6 556.76,-153.38 563.75,-153.79"/>
</g>
<!-- l4_loopback_output&#45;&gt;loopback_output -->
<g id="edge64" class="edge">
<title>l4_loopback_output&#45;&gt;loopback_output</title>
<path fill="none" stroke="black" d="M890.75,-408.11C899.39,-407.73 908.34,-407.35 917.03,-406.97"/>
<polygon fill="black" stroke="black" points="917.26,-410.47 927.1,-406.54 916.96,-403.47 917.26,-410.47"/>
</g>
</g>
</svg>
