<?xml version="1.0" encoding="UTF-8" standalone="no"?>
<!DOCTYPE svg PUBLIC "-//W3C//DTD SVG 1.1//EN"
 "http://www.w3.org/Graphics/SVG/1.1/DTD/svg11.dtd">
<!-- Generated by graphviz version 12.1.0 (20240811.2233)
 -->
<!-- Title: gr&#45;0003 Pages: 1 -->
<svg width="1207pt" height="781pt"
 viewBox="0.00 0.00 1206.92 781.00" xmlns="http://www.w3.org/2000/svg" xmlns:xlink="http://www.w3.org/1999/xlink">
<g id="graph0" class="graph" transform="scale(1 1) rotate(0) translate(4 777)">
<title>gr&#45;0003</title>
<polygon fill="white" stroke="none" points="-4,4 -4,-777 1202.92,-777 1202.92,4 -4,4"/>
<!-- control_input -->
<g id="node1" class="node">
<title>control_input</title>
<ellipse fill="none" stroke="blue" stroke-width="2" cx="41.62" cy="-197" rx="41.62" ry="18"/>
<text text-anchor="middle" x="41.62" y="-193.3" font-family="sans" font-size="11.00">control_input</text>
</g>
<!-- loopback_input -->
<g id="node2" class="node">
<title>loopback_input</title>
<ellipse fill="none" stroke="black" cx="166.76" cy="-371" rx="47.52" ry="18"/>
<text text-anchor="middle" x="166.76" y="-367.3" font-family="sans" font-size="11.00">loopback_input</text>
</g>
<!-- control_input&#45;&gt;loopback_input -->
<g id="edge1" class="edge">
<title>control_input&#45;&gt;loopback_input</title>
<path fill="none" stroke="blue" stroke-width="2" d="M54.88,-214.32C76.49,-244.86 121.5,-308.45 147.03,-344.52"/>
<polygon fill="blue" stroke="blue" stroke-width="2" points="142.99,-344.88 151.63,-351.02 148.71,-340.84 142.99,-344.88"/>
</g>
<!-- arp_output_request -->
<g id="node3" class="node">
<title>arp_output_request</title>
<ellipse fill="none" stroke="black" cx="311.7" cy="-18" rx="61.42" ry="18"/>
<text text-anchor="middle" x="311.7" y="-14.3" font-family="sans" font-size="11.00">arp_output_request</text>
</g>
<!-- control_input&#45;&gt;arp_output_request -->
<g id="edge2" class="edge">
<title>control_input&#45;&gt;arp_output_request</title>
<path fill="none" stroke="blue" stroke-width="2" d="M48.64,-179C58.78,-151.5 81.87,-99.25 119.25,-71 154.3,-44.5 201.89,-31.25 240.86,-24.63"/>
<polygon fill="blue" stroke="blue" stroke-width="2" points="239.8,-28.34 249.13,-23.32 238.71,-21.42 239.8,-28.34"/>
</g>
<!-- icmp_local_send -->
<g id="node4" class="node">
<title>icmp_local_send</title>
<ellipse fill="none" stroke="black" cx="311.7" cy="-682" rx="51.31" ry="18"/>
<text text-anchor="middle" x="311.7" y="-678.3" font-family="sans" font-size="11.00">icmp_local_send</text>
</g>
<!-- control_input&#45;&gt;icmp_local_send -->
<g id="edge3" class="edge">
<title>control_input&#45;&gt;icmp_local_send</title>
<path fill="none" stroke="blue" stroke-width="2" d="M42.08,-215.4C41.46,-268.04 46.37,-421.52 119.25,-516 148.52,-553.96 178.81,-534.76 214.28,-567 235.63,-586.4 232.05,-598.65 250.28,-621 260.57,-633.61 273.07,-646.56 284.03,-657.26"/>
<polygon fill="blue" stroke="blue" stroke-width="2" points="280.22,-658.46 289.86,-662.87 285.08,-653.42 280.22,-658.46"/>
</g>
<!-- icmp6_local_send -->
<g id="node5" class="node">
<title>icmp6_local_send</title>
<ellipse fill="none" stroke="black" cx="464.21" cy="-174" rx="55.1" ry="18"/>
<text text-anchor="middle" x="464.21" y="-170.3" font-family="sans" font-size="11.00">icmp6_local_send</text>
</g>
<!-- control_input&#45;&gt;icmp6_local_send -->
<g id="edge4" class="edge">
<title>control_input&#45;&gt;icmp6_local_send</title>
<path fill="none" stroke="blue" stroke-width="2" d="M83.33,-194.77C156.33,-190.78 310.06,-182.38 397.94,-177.57"/>
<polygon fill="blue" stroke="blue" stroke-width="2" points="396.55,-181.15 406.34,-177.11 396.16,-174.16 396.55,-181.15"/>
</g>
<!-- ndp_ns_output -->
<g id="node6" class="node">
<title>ndp_ns_output</title>
<ellipse fill="none" stroke="black" cx="166.76" cy="-274" rx="46.26" ry="18"/>
<text text-anchor="middle" x="166.76" y="-270.3" font-family="sans" font-size="11.00">ndp_ns_output</text>
</g>
<!-- control_input&#45;&gt;ndp_ns_output -->
<g id="edge5" class="edge">
<title>control_input&#45;&gt;ndp_ns_output</title>
<path fill="none" stroke="blue" stroke-width="2" d="M65.22,-212.19C80.38,-222.27 100.85,-235.67 119.25,-247 122.61,-249.07 126.13,-251.19 129.66,-253.3"/>
<polygon fill="blue" stroke="blue" stroke-width="2" points="126.54,-255.52 136.93,-257.57 130.08,-249.48 126.54,-255.52"/>
</g>
<!-- ip_output -->
<g id="node7" class="node">
<title>ip_output</title>
<ellipse fill="none" stroke="black" cx="860.27" cy="-602" rx="30.25" ry="18"/>
<text text-anchor="middle" x="860.27" y="-598.3" font-family="sans" font-size="11.00">ip_output</text>
</g>
<!-- control_input&#45;&gt;ip_output -->
<g id="edge6" class="edge">
<title>control_input&#45;&gt;ip_output</title>
<path fill="none" stroke="blue" stroke-width="2" d="M45.24,-215.28C51.54,-253.45 70.81,-342.63 119.25,-398 183,-470.88 213.87,-502 310.7,-502 310.7,-502 310.7,-502 465.21,-502 543.83,-502 564.56,-502.96 641.09,-521 708.38,-536.87 783.19,-567.71 825.4,-586.42"/>
<polygon fill="blue" stroke="blue" stroke-width="2" points="822.34,-588.88 832.9,-589.77 825.2,-582.49 822.34,-588.88"/>
</g>
<!-- arp_output_reply -->
<g id="node8" class="node">
<title>arp_output_reply</title>
<ellipse fill="none" stroke="black" cx="311.7" cy="-72" rx="53.41" ry="18"/>
<text text-anchor="middle" x="311.7" y="-68.3" font-family="sans" font-size="11.00">arp_output_reply</text>
</g>
<!-- control_input&#45;&gt;arp_output_reply -->
<g id="edge7" class="edge">
<title>control_input&#45;&gt;arp_output_reply</title>
<path fill="none" stroke="blue" stroke-width="2" d="M51.89,-179.34C64.21,-157.79 88.09,-121.99 119.25,-104 157.89,-81.69 207.79,-73.89 246.95,-71.57"/>
<polygon fill="blue" stroke="blue" stroke-width="2" points="245.37,-75.15 255.19,-71.18 245.04,-68.16 245.37,-75.15"/>
</g>
<!-- ip6_output -->
<g id="node9" class="node">
<title>ip6_output</title>
<ellipse fill="none" stroke="black" cx="860.27" cy="-197" rx="34.04" ry="18"/>
<text text-anchor="middle" x="860.27" y="-193.3" font-family="sans" font-size="11.00">ip6_output</text>
</g>
<!-- control_input&#45;&gt;ip6_output -->
<g id="edge8" class="edge">
<title>control_input&#45;&gt;ip6_output</title>
<path fill="none" stroke="blue" stroke-width="2" d="M72.72,-184.71C172.71,-152.27 502.31,-73.76 763.7,-138 790.34,-144.55 817.78,-159.97 836.39,-173.65"/>
<polygon fill="blue" stroke="blue" stroke-width="2" points="832.84,-175.33 842.87,-178.73 837.15,-169.81 832.84,-175.33"/>
</g>
<!-- control_input&#45;&gt;ip6_output -->
<g id="edge10" class="edge">
<title>control_input&#45;&gt;ip6_output</title>
<path fill="none" stroke="blue" stroke-width="2" d="M80.86,-190.34C189.57,-166.34 509.01,-93.4 763.7,-156 784.53,-161.12 805.85,-171.66 823.05,-180.95"/>
<polygon fill="blue" stroke="blue" stroke-width="2" points="819.56,-183.03 830.01,-184.77 822.93,-176.89 819.56,-183.03"/>
</g>
<!-- ndp_na_output -->
<g id="node10" class="node">
<title>ndp_na_output</title>
<ellipse fill="none" stroke="black" cx="166.76" cy="-220" rx="46.68" ry="18"/>
<text text-anchor="middle" x="166.76" y="-216.3" font-family="sans" font-size="11.00">ndp_na_output</text>
</g>
<!-- control_input&#45;&gt;ndp_na_output -->
<g id="edge9" class="edge">
<title>control_input&#45;&gt;ndp_na_output</title>
<path fill="none" stroke="blue" stroke-width="2" d="M80.24,-204.03C90.53,-205.95 101.87,-208.07 112.85,-210.12"/>
<polygon fill="blue" stroke="blue" stroke-width="2" points="110.64,-213.26 121.11,-211.66 111.92,-206.38 110.64,-213.26"/>
</g>
<!-- ip_input -->
<g id="node14" class="node">
<title>ip_input</title>
<ellipse fill="none" stroke="black" cx="311.7" cy="-594" rx="27" ry="18"/>
<text text-anchor="middle" x="311.7" y="-590.3" font-family="sans" font-size="11.00">ip_input</text>
</g>
<!-- loopback_input&#45;&gt;ip_input -->
<g id="edge15" class="edge">
<title>loopback_input&#45;&gt;ip_input</title>
<path fill="none" stroke="black" d="M178.98,-388.5C204,-427.54 264.51,-521.94 293.99,-567.93"/>
<polygon fill="black" stroke="black" points="290.96,-569.69 299.3,-576.22 296.85,-565.91 290.96,-569.69"/>
</g>
<!-- ip6_input -->
<g id="node15" class="node">
<title>ip6_input</title>
<ellipse fill="none" stroke="black" cx="311.7" cy="-371" rx="29.41" ry="18"/>
<text text-anchor="middle" x="311.7" y="-367.3" font-family="sans" font-size="11.00">ip6_input</text>
</g>
<!-- loopback_input&#45;&gt;ip6_input -->
<g id="edge16" class="edge">
<title>loopback_input&#45;&gt;ip6_input</title>
<path fill="none" stroke="black" d="M214.57,-371C232.69,-371 253.23,-371 270.66,-371"/>
<polygon fill="black" stroke="black" points="270.64,-374.5 280.64,-371 270.64,-367.5 270.64,-374.5"/>
</g>
<!-- eth_output -->
<g id="node16" class="node">
<title>eth_output</title>
<ellipse fill="none" stroke="black" cx="1013.63" cy="-126" rx="34.89" ry="18"/>
<text text-anchor="middle" x="1013.63" y="-122.3" font-family="sans" font-size="11.00">eth_output</text>
</g>
<!-- arp_output_request&#45;&gt;eth_output -->
<g id="edge24" class="edge">
<title>arp_output_request&#45;&gt;eth_output</title>
<path fill="none" stroke="black" d="M372.9,-20.68C430.48,-23 519.75,-26 597.2,-26 597.2,-26 597.2,-26 721.39,-26 812.57,-26 836.03,-40.54 920.85,-74 942.21,-82.43 964.66,-95.08 982.02,-105.79"/>
<polygon fill="black" stroke="black" points="979.99,-108.65 990.32,-111.02 983.72,-102.72 979.99,-108.65"/>
</g>
<!-- icmp_output -->
<g id="node23" class="node">
<title>icmp_output</title>
<ellipse fill="none" stroke="black" cx="720.39" cy="-602" rx="39.52" ry="18"/>
<text text-anchor="middle" x="720.39" y="-598.3" font-family="sans" font-size="11.00">icmp_output</text>
</g>
<!-- icmp_local_send&#45;&gt;icmp_output -->
<g id="edge27" class="edge">
<title>icmp_local_send&#45;&gt;icmp_output</title>
<path fill="none" stroke="black" d="M363.22,-681.56C405.31,-680.43 466.66,-676.99 519.31,-667 575.01,-656.43 587.22,-646.69 641.09,-629 652.89,-625.12 665.64,-620.79 677.36,-616.75"/>
<polygon fill="black" stroke="black" points="678.48,-620.06 686.79,-613.48 676.19,-613.45 678.48,-620.06"/>
</g>
<!-- icmp6_output -->
<g id="node31" class="node">
<title>icmp6_output</title>
<ellipse fill="none" stroke="black" cx="720.39" cy="-174" rx="43.31" ry="18"/>
<text text-anchor="middle" x="720.39" y="-170.3" font-family="sans" font-size="11.00">icmp6_output</text>
</g>
<!-- icmp6_local_send&#45;&gt;icmp6_output -->
<g id="edge47" class="edge">
<title>icmp6_local_send&#45;&gt;icmp6_output</title>
<path fill="none" stroke="black" d="M519.74,-174C562.77,-174 622.48,-174 665.37,-174"/>
<polygon fill="black" stroke="black" points="665.21,-177.5 675.21,-174 665.21,-170.5 665.21,-177.5"/>
</g>
<!-- ndp_ns_output&#45;&gt;icmp6_output -->
<g id="edge61" class="edge">
<title>ndp_ns_output&#45;&gt;icmp6_output</title>
<path fill="none" stroke="black" d="M212.92,-271.49C298.05,-265.92 487.5,-249.46 641.09,-207 654.64,-203.25 668.95,-197.72 681.59,-192.25"/>
<polygon fill="black" stroke="black" points="682.66,-195.61 690.37,-188.33 679.81,-189.22 682.66,-195.61"/>
</g>
<!-- ip_output&#45;&gt;eth_output -->
<g id="edge37" class="edge">
<title>ip_output&#45;&gt;eth_output</title>
<path fill="none" stroke="black" d="M876.89,-586.65C890.96,-571.78 910.91,-547.89 920.85,-523 973.11,-392.14 907.79,-340.1 956.85,-208 964.54,-187.28 978.54,-166.72 990.59,-151.38"/>
<polygon fill="black" stroke="black" points="993.23,-153.68 996.82,-143.71 987.8,-149.27 993.23,-153.68"/>
</g>
<!-- loopback_output -->
<g id="node18" class="node">
<title>loopback_output</title>
<ellipse fill="none" stroke="black" cx="1013.63" cy="-494" rx="52.15" ry="18"/>
<text text-anchor="middle" x="1013.63" y="-490.3" font-family="sans" font-size="11.00">loopback_output</text>
</g>
<!-- ip_output&#45;&gt;loopback_output -->
<g id="edge39" class="edge">
<title>ip_output&#45;&gt;loopback_output</title>
<path fill="none" stroke="black" d="M880.44,-588.32C905.57,-570.4 949.99,-538.7 980.35,-517.04"/>
<polygon fill="black" stroke="black" points="982.33,-519.92 988.43,-511.27 978.26,-514.22 982.33,-519.92"/>
</g>
<!-- ip_hold -->
<g id="node25" class="node">
<title>ip_hold</title>
<ellipse fill="none" stroke="black" cx="1013.63" cy="-593" rx="27" ry="18"/>
<text text-anchor="middle" x="1013.63" y="-589.3" font-family="sans" font-size="11.00">ip_hold</text>
</g>
<!-- ip_output&#45;&gt;ip_hold -->
<g id="edge38" class="edge">
<title>ip_output&#45;&gt;ip_hold</title>
<path fill="none" stroke="black" d="M890.82,-600.24C914.99,-598.81 949.31,-596.76 975.37,-595.22"/>
<polygon fill="black" stroke="black" points="975.41,-598.72 985.18,-594.63 974.99,-591.73 975.41,-598.72"/>
</g>
<!-- ipip_output -->
<g id="node29" class="node">
<title>ipip_output</title>
<ellipse fill="none" stroke="black" cx="1013.63" cy="-647" rx="35.73" ry="18"/>
<text text-anchor="middle" x="1013.63" y="-643.3" font-family="sans" font-size="11.00">ipip_output</text>
</g>
<!-- ip_output&#45;&gt;ipip_output -->
<g id="edge40" class="edge">
<title>ip_output&#45;&gt;ipip_output</title>
<path fill="none" stroke="black" d="M890.46,-605.22C915.11,-610.96 950.51,-621.36 976.87,-630.53"/>
<polygon fill="black" stroke="black" points="975.53,-633.77 986.13,-633.86 977.9,-627.18 975.53,-633.77"/>
</g>
<!-- arp_output_reply&#45;&gt;eth_output -->
<g id="edge23" class="edge">
<title>arp_output_reply&#45;&gt;eth_output</title>
<path fill="none" stroke="black" d="M365.4,-72C422.51,-72 516.32,-72 597.2,-72 597.2,-72 597.2,-72 721.39,-72 812.32,-72 916.58,-97.76 972.38,-113.7"/>
<polygon fill="black" stroke="black" points="971.16,-116.99 981.74,-116.42 973.12,-110.27 971.16,-116.99"/>
</g>
<!-- ip6_output&#45;&gt;eth_output -->
<g id="edge55" class="edge">
<title>ip6_output&#45;&gt;eth_output</title>
<path fill="none" stroke="black" d="M886.61,-185.12C911.31,-173.53 949.1,-155.8 976.86,-142.78"/>
<polygon fill="black" stroke="black" points="978.02,-146.1 985.59,-138.68 975.05,-139.76 978.02,-146.1"/>
</g>
<!-- ip6_output&#45;&gt;loopback_output -->
<g id="edge57" class="edge">
<title>ip6_output&#45;&gt;loopback_output</title>
<path fill="none" stroke="black" d="M870.29,-214.69C895.62,-264.4 967.61,-405.67 998.39,-466.06"/>
<polygon fill="black" stroke="black" points="995.12,-467.36 1002.78,-474.68 1001.36,-464.18 995.12,-467.36"/>
</g>
<!-- ip6_hold -->
<g id="node36" class="node">
<title>ip6_hold</title>
<ellipse fill="none" stroke="black" cx="1013.63" cy="-235" rx="27" ry="18"/>
<text text-anchor="middle" x="1013.63" y="-231.3" font-family="sans" font-size="11.00">ip6_hold</text>
</g>
<!-- ip6_output&#45;&gt;ip6_hold -->
<g id="edge56" class="edge">
<title>ip6_output&#45;&gt;ip6_hold</title>
<path fill="none" stroke="black" d="M891.54,-204.6C916.19,-210.79 951.04,-219.54 977.02,-226.06"/>
<polygon fill="black" stroke="black" points="975.9,-229.39 986.45,-228.43 977.6,-222.6 975.9,-229.39"/>
</g>
<!-- ndp_na_output&#45;&gt;icmp6_output -->
<g id="edge59" class="edge">
<title>ndp_na_output&#45;&gt;icmp6_output</title>
<path fill="none" stroke="black" d="M213.69,-219.15C298.52,-217.09 485.35,-210.21 641.09,-188 650.22,-186.7 659.92,-185.12 669.28,-183.5"/>
<polygon fill="black" stroke="black" points="669.72,-186.98 678.95,-181.79 668.5,-180.09 669.72,-186.98"/>
</g>
<!-- control_output -->
<g id="node11" class="node">
<title>control_output</title>
<ellipse fill="none" stroke="black" cx="1152.67" cy="-469" rx="46.26" ry="18"/>
<text text-anchor="middle" x="1152.67" y="-465.3" font-family="sans" font-size="11.00">control_output</text>
</g>
<!-- eth_input -->
<g id="node12" class="node">
<title>eth_input</title>
<ellipse fill="none" stroke="black" cx="166.76" cy="-594" rx="30.25" ry="18"/>
<text text-anchor="middle" x="166.76" y="-590.3" font-family="sans" font-size="11.00">eth_input</text>
</g>
<!-- arp_input -->
<g id="node13" class="node">
<title>arp_input</title>
<ellipse fill="none" stroke="black" cx="860.27" cy="-755" rx="30.25" ry="18"/>
<text text-anchor="middle" x="860.27" y="-751.3" font-family="sans" font-size="11.00">arp_input</text>
</g>
<!-- eth_input&#45;&gt;arp_input -->
<g id="edge11" class="edge">
<title>eth_input&#45;&gt;arp_input</title>
<path fill="none" stroke="black" d="M175.39,-611.4C187.47,-636.88 213.48,-684.03 250.28,-709 330.98,-763.76 365.69,-762 463.21,-762 463.21,-762 463.21,-762 599.2,-762 676.72,-762 767.19,-758.85 818.41,-756.78"/>
<polygon fill="black" stroke="black" points="818.28,-760.29 828.13,-756.38 817.99,-753.29 818.28,-760.29"/>
</g>
<!-- eth_input&#45;&gt;ip_input -->
<g id="edge12" class="edge">
<title>eth_input&#45;&gt;ip_input</title>
<path fill="none" stroke="black" d="M197.38,-594C219.35,-594 249.45,-594 273.12,-594"/>
<polygon fill="black" stroke="black" points="272.97,-597.5 282.97,-594 272.97,-590.5 272.97,-597.5"/>
</g>
<!-- eth_input&#45;&gt;ip6_input -->
<g id="edge13" class="edge">
<title>eth_input&#45;&gt;ip6_input</title>
<path fill="none" stroke="black" d="M178.51,-577.24C203.13,-538.82 263.83,-444.13 293.63,-397.63"/>
<polygon fill="black" stroke="black" points="296.56,-399.54 299.01,-389.23 290.67,-395.76 296.56,-399.54"/>
</g>
<!-- arp_input_request -->
<g id="node20" class="node">
<title>arp_input_request</title>
<ellipse fill="none" stroke="black" cx="1013.63" cy="-755" rx="56.78" ry="18"/>
<text text-anchor="middle" x="1013.63" y="-751.3" font-family="sans" font-size="11.00">arp_input_request</text>
</g>
<!-- arp_input&#45;&gt;arp_input_request -->
<g id="edge19" class="edge">
<title>arp_input&#45;&gt;arp_input_request</title>
<path fill="none" stroke="black" d="M890.82,-755C906.35,-755 926.07,-755 945.1,-755"/>
<polygon fill="black" stroke="black" points="944.99,-758.5 954.99,-755 944.99,-751.5 944.99,-758.5"/>
</g>
<!-- arp_input_reply -->
<g id="node21" class="node">
<title>arp_input_reply</title>
<ellipse fill="none" stroke="black" cx="1013.63" cy="-701" rx="48.78" ry="18"/>
<text text-anchor="middle" x="1013.63" y="-697.3" font-family="sans" font-size="11.00">arp_input_reply</text>
</g>
<!-- arp_input&#45;&gt;arp_input_reply -->
<g id="edge20" class="edge">
<title>arp_input&#45;&gt;arp_input_reply</title>
<path fill="none" stroke="black" d="M886.95,-745.84C908.72,-738.07 940.48,-726.74 966.63,-717.41"/>
<polygon fill="black" stroke="black" points="967.78,-720.72 976.02,-714.06 965.43,-714.13 967.78,-720.72"/>
</g>
<!-- ip_input&#45;&gt;ip_output -->
<g id="edge32" class="edge">
<title>ip_input&#45;&gt;ip_output</title>
<path fill="none" stroke="black" d="M326.58,-609.33C343.86,-627.17 375.28,-655.64 409.11,-667 469.66,-687.34 703.9,-664.11 763.7,-648 786.44,-641.88 810.32,-630.39 828.51,-620.43"/>
<polygon fill="black" stroke="black" points="830.21,-623.49 837.2,-615.53 826.77,-617.39 830.21,-623.49"/>
</g>
<!-- ip_forward -->
<g id="node24" class="node">
<title>ip_forward</title>
<ellipse fill="none" stroke="black" cx="464.21" cy="-640" rx="33.62" ry="18"/>
<text text-anchor="middle" x="464.21" y="-636.3" font-family="sans" font-size="11.00">ip_forward</text>
</g>
<!-- ip_input&#45;&gt;ip_forward -->
<g id="edge31" class="edge">
<title>ip_input&#45;&gt;ip_forward</title>
<path fill="none" stroke="black" d="M336.88,-601.39C360.25,-608.53 396.07,-619.48 423.6,-627.89"/>
<polygon fill="black" stroke="black" points="422.43,-631.19 433.01,-630.77 424.47,-624.5 422.43,-631.19"/>
</g>
<!-- ip_input_local -->
<g id="node26" class="node">
<title>ip_input_local</title>
<ellipse fill="none" stroke="black" cx="464.21" cy="-548" rx="42.89" ry="18"/>
<text text-anchor="middle" x="464.21" y="-544.3" font-family="sans" font-size="11.00">ip_input_local</text>
</g>
<!-- ip_input&#45;&gt;ip_input_local -->
<g id="edge33" class="edge">
<title>ip_input&#45;&gt;ip_input_local</title>
<path fill="none" stroke="black" d="M336.88,-586.61C358.62,-579.96 391.13,-570.03 417.73,-561.9"/>
<polygon fill="black" stroke="black" points="418.73,-565.26 427.27,-558.99 416.68,-558.56 418.73,-565.26"/>
</g>
<!-- ip6_input&#45;&gt;ip6_output -->
<g id="edge51" class="edge">
<title>ip6_input&#45;&gt;ip6_output</title>
<path fill="none" stroke="black" d="M336.13,-360.69C393.36,-335.84 545.23,-271.91 677.09,-234 724.03,-220.5 779.14,-210.03 816.36,-203.73"/>
<polygon fill="black" stroke="black" points="816.52,-207.25 825.81,-202.15 815.37,-200.34 816.52,-207.25"/>
</g>
<!-- ip6_forward -->
<g id="node35" class="node">
<title>ip6_forward</title>
<ellipse fill="none" stroke="black" cx="598.2" cy="-342" rx="37.41" ry="18"/>
<text text-anchor="middle" x="598.2" y="-338.3" font-family="sans" font-size="11.00">ip6_forward</text>
</g>
<!-- ip6_input&#45;&gt;ip6_forward -->
<g id="edge50" class="edge">
<title>ip6_input&#45;&gt;ip6_forward</title>
<path fill="none" stroke="black" d="M341.02,-368.11C389.9,-363.13 490.59,-352.87 550.14,-346.8"/>
<polygon fill="black" stroke="black" points="550.38,-350.29 559.97,-345.79 549.67,-343.33 550.38,-350.29"/>
</g>
<!-- ip6_input_local -->
<g id="node37" class="node">
<title>ip6_input_local</title>
<ellipse fill="none" stroke="black" cx="464.21" cy="-396" rx="46.68" ry="18"/>
<text text-anchor="middle" x="464.21" y="-392.3" font-family="sans" font-size="11.00">ip6_input_local</text>
</g>
<!-- ip6_input&#45;&gt;ip6_input_local -->
<g id="edge52" class="edge">
<title>ip6_input&#45;&gt;ip6_input_local</title>
<path fill="none" stroke="black" d="M340.31,-375.59C359.63,-378.8 386.08,-383.19 409.5,-387.08"/>
<polygon fill="black" stroke="black" points="408.77,-390.5 419.21,-388.69 409.92,-383.6 408.77,-390.5"/>
</g>
<!-- port_tx -->
<g id="node17" class="node">
<title>port_tx</title>
<ellipse fill="none" stroke="black" cx="1152.67" cy="-126" rx="27" ry="18"/>
<text text-anchor="middle" x="1152.67" y="-122.3" font-family="sans" font-size="11.00">port_tx</text>
</g>
<!-- eth_output&#45;&gt;port_tx -->
<g id="edge14" class="edge">
<title>eth_output&#45;&gt;port_tx</title>
<path fill="none" stroke="black" d="M1048.86,-126C1068.61,-126 1093.48,-126 1113.81,-126"/>
<polygon fill="black" stroke="black" points="1113.67,-129.5 1123.67,-126 1113.67,-122.5 1113.67,-129.5"/>
</g>
<!-- loopback_output&#45;&gt;control_output -->
<g id="edge17" class="edge">
<title>loopback_output&#45;&gt;control_output</title>
<path fill="none" stroke="black" d="M1060.26,-485.68C1072.79,-483.39 1086.47,-480.89 1099.34,-478.55"/>
<polygon fill="black" stroke="black" points="1099.69,-482.04 1108.9,-476.8 1098.44,-475.15 1099.69,-482.04"/>
</g>
<!-- port_rx -->
<g id="node19" class="node">
<title>port_rx</title>
<ellipse fill="none" stroke="blue" stroke-width="2" cx="41.62" cy="-594" rx="27" ry="18"/>
<text text-anchor="middle" x="41.62" y="-590.3" font-family="sans" font-size="11.00">port_rx</text>
</g>
<!-- port_rx&#45;&gt;eth_input -->
<g id="edge18" class="edge">
<title>port_rx&#45;&gt;eth_input</title>
<path fill="none" stroke="blue" stroke-width="2" d="M69.04,-594C85.35,-594 106.61,-594 125.04,-594"/>
<polygon fill="blue" stroke="blue" stroke-width="2" points="123.34,-597.5 133.34,-594 123.34,-590.5 123.34,-597.5"/>
</g>
<!-- arp_input_request&#45;&gt;control_output -->
<g id="edge22" class="edge">
<title>arp_input_request&#45;&gt;control_output</title>
<path fill="none" stroke="black" d="M1052.96,-741.66C1059.46,-738.04 1065.63,-733.54 1070.41,-728 1128.71,-660.46 1145.22,-551.16 1149.87,-498.81"/>
<polygon fill="black" stroke="black" points="1153.35,-499.12 1150.65,-488.88 1146.37,-498.57 1153.35,-499.12"/>
</g>
<!-- arp_input_reply&#45;&gt;control_output -->
<g id="edge21" class="edge">
<title>arp_input_reply&#45;&gt;control_output</title>
<path fill="none" stroke="black" d="M1050.04,-688.76C1057.48,-684.93 1064.77,-680.07 1070.41,-674 1117.58,-623.24 1138.67,-541.79 1146.98,-498.42"/>
<polygon fill="black" stroke="black" points="1150.39,-499.2 1148.72,-488.74 1143.5,-497.96 1150.39,-499.2"/>
</g>
<!-- icmp_input -->
<g id="node22" class="node">
<title>icmp_input</title>
<ellipse fill="none" stroke="black" cx="598.2" cy="-548" rx="34.89" ry="18"/>
<text text-anchor="middle" x="598.2" y="-544.3" font-family="sans" font-size="11.00">icmp_input</text>
</g>
<!-- icmp_input&#45;&gt;control_output -->
<g id="edge26" class="edge">
<title>icmp_input&#45;&gt;control_output</title>
<path fill="none" stroke="black" d="M632.82,-551.77C711.6,-559.39 913.33,-571.88 1070.41,-521 1089.5,-514.82 1108.51,-503.04 1123.34,-492.25"/>
<polygon fill="black" stroke="black" points="1125.36,-495.11 1131.23,-486.29 1121.14,-489.53 1125.36,-495.11"/>
</g>
<!-- icmp_input&#45;&gt;icmp_output -->
<g id="edge25" class="edge">
<title>icmp_input&#45;&gt;icmp_output</title>
<path fill="none" stroke="black" d="M625.28,-559.72C641.55,-567.03 662.79,-576.57 680.98,-584.74"/>
<polygon fill="black" stroke="black" points="679.33,-587.84 689.89,-588.74 682.2,-581.45 679.33,-587.84"/>
</g>
<!-- icmp_output&#45;&gt;ip_output -->
<g id="edge28" class="edge">
<title>icmp_output&#45;&gt;ip_output</title>
<path fill="none" stroke="black" d="M760.17,-602C778.29,-602 799.87,-602 818.26,-602"/>
<polygon fill="black" stroke="black" points="818.01,-605.5 828.01,-602 818.01,-598.5 818.01,-605.5"/>
</g>
<!-- ip_forward&#45;&gt;ip_output -->
<g id="edge29" class="edge">
<title>ip_forward&#45;&gt;ip_output</title>
<path fill="none" stroke="black" d="M498.14,-641.33C553.41,-643 668.16,-644.03 763.7,-629 783.54,-625.88 805.11,-620.01 822.73,-614.54"/>
<polygon fill="black" stroke="black" points="823.79,-617.87 832.24,-611.49 821.65,-611.21 823.79,-617.87"/>
</g>
<!-- ip_hold&#45;&gt;control_output -->
<g id="edge30" class="edge">
<title>ip_hold&#45;&gt;control_output</title>
<path fill="none" stroke="black" d="M1036.34,-582.67C1047.12,-577.03 1060.03,-569.47 1070.41,-561 1094.12,-541.67 1116.78,-515.1 1132.12,-495.48"/>
<polygon fill="black" stroke="black" points="1134.8,-497.74 1138.11,-487.67 1129.25,-493.48 1134.8,-497.74"/>
</g>
<!-- ip_input_local&#45;&gt;icmp_input -->
<g id="edge34" class="edge">
<title>ip_input_local&#45;&gt;icmp_input</title>
<path fill="none" stroke="black" d="M507.34,-548C521.51,-548 537.37,-548 551.78,-548"/>
<polygon fill="black" stroke="black" points="551.45,-551.5 561.45,-548 551.45,-544.5 551.45,-551.5"/>
</g>
<!-- ipip_input -->
<g id="node27" class="node">
<title>ipip_input</title>
<ellipse fill="none" stroke="black" cx="598.2" cy="-602" rx="31.1" ry="18"/>
<text text-anchor="middle" x="598.2" y="-598.3" font-family="sans" font-size="11.00">ipip_input</text>
</g>
<!-- ip_input_local&#45;&gt;ipip_input -->
<g id="edge35" class="edge">
<title>ip_input_local&#45;&gt;ipip_input</title>
<path fill="none" stroke="black" d="M495.83,-560.52C515.45,-568.55 541,-579.01 561.54,-587.41"/>
<polygon fill="black" stroke="black" points="560.08,-590.6 570.66,-591.14 562.73,-584.12 560.08,-590.6"/>
</g>
<!-- l4_input_local -->
<g id="node28" class="node">
<title>l4_input_local</title>
<ellipse fill="none" stroke="black" cx="598.2" cy="-456" rx="42.89" ry="18"/>
<text text-anchor="middle" x="598.2" y="-452.3" font-family="sans" font-size="11.00">l4_input_local</text>
</g>
<!-- ip_input_local&#45;&gt;l4_input_local -->
<g id="edge36" class="edge">
<title>ip_input_local&#45;&gt;l4_input_local</title>
<path fill="none" stroke="black" d="M487.3,-532.6C508.81,-517.61 541.71,-494.68 565.91,-477.81"/>
<polygon fill="black" stroke="black" points="567.59,-480.9 573.79,-472.31 563.59,-475.16 567.59,-480.9"/>
</g>
<!-- ipip_input&#45;&gt;ip_input -->
<g id="edge63" class="edge">
<title>ipip_input&#45;&gt;ip_input</title>
<path fill="none" stroke="black" d="M566.75,-601.14C514.36,-599.67 407.29,-596.66 350.31,-595.06"/>
<polygon fill="black" stroke="black" points="350.56,-591.56 340.47,-594.78 350.36,-598.56 350.56,-591.56"/>
</g>
<!-- l4_loopback_output -->
<g id="node38" class="node">
<title>l4_loopback_output</title>
<ellipse fill="none" stroke="black" cx="860.27" cy="-496" rx="60.57" ry="18"/>
<text text-anchor="middle" x="860.27" y="-492.3" font-family="sans" font-size="11.00">l4_loopback_output</text>
</g>
<!-- l4_input_local&#45;&gt;l4_loopback_output -->
<g id="edge65" class="edge">
<title>l4_input_local&#45;&gt;l4_loopback_output</title>
<path fill="none" stroke="black" d="M638.98,-462.12C680.43,-468.49 746.03,-478.58 794.88,-486.1"/>
<polygon fill="black" stroke="black" points="794.05,-489.51 804.47,-487.57 795.12,-482.59 794.05,-489.51"/>
</g>
<!-- ipip_output&#45;&gt;ip_output -->
<g id="edge64" class="edge">
<title>ipip_output&#45;&gt;ip_output</title>
<path fill="none" stroke="black" d="M978.58,-642.62C953.51,-636.52 919.6,-626.43 894.68,-617.64"/>
<polygon fill="black" stroke="black" points="895.95,-614.38 885.35,-614.24 893.55,-620.95 895.95,-614.38"/>
</g>
<!-- icmp6_input -->
<g id="node30" class="node">
<title>icmp6_input</title>
<ellipse fill="none" stroke="black" cx="598.2" cy="-396" rx="38.68" ry="18"/>
<text text-anchor="middle" x="598.2" y="-392.3" font-family="sans" font-size="11.00">icmp6_input</text>
</g>
<!-- icmp6_input&#45;&gt;control_output -->
<g id="edge45" class="edge">
<title>icmp6_input&#45;&gt;control_output</title>
<path fill="none" stroke="black" d="M623.94,-382.43C629.92,-378.54 636.03,-373.98 641.09,-369 661.64,-348.76 651.65,-328.61 677.09,-315 711.03,-296.84 725.4,-311.17 763.7,-315 902.08,-328.85 949.96,-307.49 1070.41,-377 1097.66,-392.72 1120.5,-420.9 1134.96,-441.95"/>
<polygon fill="black" stroke="black" points="1131.9,-443.67 1140.35,-450.07 1137.74,-439.8 1131.9,-443.67"/>
</g>
<!-- icmp6_input&#45;&gt;icmp6_output -->
<g id="edge41" class="edge">
<title>icmp6_input&#45;&gt;icmp6_output</title>
<path fill="none" stroke="black" d="M625.12,-382.83C630.94,-378.98 636.68,-374.34 641.09,-369 643.9,-365.59 687.29,-255.68 708.24,-202.4"/>
<polygon fill="black" stroke="black" points="711.4,-203.95 711.8,-193.36 704.88,-201.39 711.4,-203.95"/>
</g>
<!-- ndp_ns_input -->
<g id="node32" class="node">
<title>ndp_ns_input</title>
<ellipse fill="none" stroke="black" cx="860.27" cy="-442" rx="41.62" ry="18"/>
<text text-anchor="middle" x="860.27" y="-438.3" font-family="sans" font-size="11.00">ndp_ns_input</text>
</g>
<!-- icmp6_input&#45;&gt;ndp_ns_input -->
<g id="edge42" class="edge">
<title>icmp6_input&#45;&gt;ndp_ns_input</title>
<path fill="none" stroke="black" d="M627.96,-407.75C642.46,-413.21 660.46,-419.3 677.09,-423 720.22,-432.59 770.21,-437.37 806.9,-439.73"/>
<polygon fill="black" stroke="black" points="806.62,-443.22 816.81,-440.33 807.04,-436.23 806.62,-443.22"/>
</g>
<!-- ndp_na_input -->
<g id="node33" class="node">
<title>ndp_na_input</title>
<ellipse fill="none" stroke="black" cx="720.39" cy="-396" rx="42.04" ry="18"/>
<text text-anchor="middle" x="720.39" y="-392.3" font-family="sans" font-size="11.00">ndp_na_input</text>
</g>
<!-- icmp6_input&#45;&gt;ndp_na_input -->
<g id="edge43" class="edge">
<title>icmp6_input&#45;&gt;ndp_na_input</title>
<path fill="none" stroke="black" d="M637.23,-396C646.52,-396 656.63,-396 666.48,-396"/>
<polygon fill="black" stroke="black" points="666.35,-399.5 676.35,-396 666.35,-392.5 666.35,-399.5"/>
</g>
<!-- ndp_rs_input -->
<g id="node34" class="node">
<title>ndp_rs_input</title>
<ellipse fill="none" stroke="black" cx="720.39" cy="-342" rx="40.36" ry="18"/>
<text text-anchor="middle" x="720.39" y="-338.3" font-family="sans" font-size="11.00">ndp_rs_input</text>
</g>
<!-- icmp6_input&#45;&gt;ndp_rs_input -->
<g id="edge44" class="edge">
<title>icmp6_input&#45;&gt;ndp_rs_input</title>
<path fill="none" stroke="black" d="M626.77,-383.61C642.73,-376.44 663.06,-367.31 680.61,-359.42"/>
<polygon fill="black" stroke="black" points="682.04,-362.62 689.73,-355.33 679.17,-356.23 682.04,-362.62"/>
</g>
<!-- icmp6_output&#45;&gt;ip6_output -->
<g id="edge46" class="edge">
<title>icmp6_output&#45;&gt;ip6_output</title>
<path fill="none" stroke="black" d="M760.9,-180.59C778.27,-183.49 798.7,-186.9 816.43,-189.85"/>
<polygon fill="black" stroke="black" points="815.7,-193.28 826.14,-191.47 816.85,-186.37 815.7,-193.28"/>
</g>
<!-- ndp_ns_input&#45;&gt;control_output -->
<g id="edge60" class="edge">
<title>ndp_ns_input&#45;&gt;control_output</title>
<path fill="none" stroke="black" d="M901.35,-445.73C951.86,-450.42 1038.95,-458.52 1095.93,-463.82"/>
<polygon fill="black" stroke="black" points="1095.47,-467.29 1105.75,-464.73 1096.11,-460.32 1095.47,-467.29"/>
</g>
<!-- ndp_na_input&#45;&gt;control_output -->
<g id="edge58" class="edge">
<title>ndp_na_input&#45;&gt;control_output</title>
<path fill="none" stroke="black" d="M762.45,-398.44C802.9,-401.19 866.38,-406.43 920.85,-415 988.09,-425.58 1004.21,-432.15 1070.41,-448 1080.93,-450.52 1092.18,-453.34 1102.85,-456.08"/>
<polygon fill="black" stroke="black" points="1101.68,-459.39 1112.24,-458.51 1103.44,-452.62 1101.68,-459.39"/>
</g>
<!-- ndp_rs_input&#45;&gt;control_output -->
<g id="edge62" class="edge">
<title>ndp_rs_input&#45;&gt;control_output</title>
<path fill="none" stroke="black" d="M760.17,-345.76C826.04,-353.15 963.1,-372.83 1070.41,-417 1088.58,-424.48 1107.16,-436.02 1121.96,-446.33"/>
<polygon fill="black" stroke="black" points="1119.7,-449.02 1129.86,-452 1123.77,-443.33 1119.7,-449.02"/>
</g>
<!-- ip6_forward&#45;&gt;ip6_output -->
<g id="edge48" class="edge">
<title>ip6_forward&#45;&gt;ip6_output</title>
<path fill="none" stroke="black" d="M619.25,-326.73C626.18,-321.45 633.98,-315.48 641.09,-310 657.14,-297.62 659.79,-292.57 677.09,-282 724.65,-252.92 783.79,-227.03 821.54,-211.68"/>
<polygon fill="black" stroke="black" points="822.68,-214.99 830.66,-208.01 820.07,-208.5 822.68,-214.99"/>
</g>
<!-- ip6_hold&#45;&gt;control_output -->
<g id="edge49" class="edge">
<title>ip6_hold&#45;&gt;control_output</title>
<path fill="none" stroke="black" d="M1033.65,-247.58C1045.47,-256.15 1060.28,-268.39 1070.41,-282 1107.5,-331.78 1131.9,-401.11 1143.6,-439.84"/>
<polygon fill="black" stroke="black" points="1140.22,-440.76 1146.39,-449.37 1146.94,-438.79 1140.22,-440.76"/>
</g>
<!-- ip6_input_local&#45;&gt;l4_input_local -->
<g id="edge54" class="edge">
<title>ip6_input_local&#45;&gt;l4_input_local</title>
<path fill="none" stroke="black" d="M495.49,-409.77C514.07,-418.21 538.06,-429.11 558.07,-438.21"/>
<polygon fill="black" stroke="black" points="556.49,-441.34 567.04,-442.29 559.38,-434.97 556.49,-441.34"/>
</g>
<!-- ip6_input_local&#45;&gt;icmp6_input -->
<g id="edge53" class="edge">
<title>ip6_input_local&#45;&gt;icmp6_input</title>
<path fill="none" stroke="black" d="M511.38,-396C523.21,-396 535.97,-396 547.95,-396"/>
<polygon fill="black" stroke="black" points="547.63,-399.5 557.63,-396 547.63,-392.5 547.63,-399.5"/>
</g>
<!-- l4_loopback_output&#45;&gt;loopback_output -->
<g id="edge66" class="edge">
<title>l4_loopback_output&#45;&gt;loopback_output</title>
<path fill="none" stroke="black" d="M921.09,-495.21C930.49,-495.09 940.23,-494.96 949.7,-494.83"/>
<polygon fill="black" stroke="black" points="949.6,-498.33 959.56,-494.7 949.51,-491.33 949.6,-498.33"/>
</g>
</g>
</svg>
