<?xml version="1.0" encoding="UTF-8" standalone="no"?>
<!DOCTYPE svg PUBLIC "-//W3C//DTD SVG 1.1//EN"
 "http://www.w3.org/Graphics/SVG/1.1/DTD/svg11.dtd">
<!-- Generated by graphviz version 2.43.0 (0)
 -->
<!-- Title: gr&#45;0002 Pages: 1 -->
<svg width="1792pt" height="932pt"
 viewBox="0.00 0.00 1791.55 932.21" xmlns="http://www.w3.org/2000/svg" xmlns:xlink="http://www.w3.org/1999/xlink">
<g id="graph0" class="graph" transform="scale(1 1) rotate(0) translate(4 928.21)">
<title>gr&#45;0002</title>
<polygon fill="white" stroke="transparent" points="-4,4 -4,-928.21 1787.55,-928.21 1787.55,4 -4,4"/>
<!-- control_input -->
<g id="node1" class="node">
<title>control_input</title>
<ellipse fill="none" stroke="blue" stroke-width="2" cx="40.16" cy="-724" rx="40.32" ry="18"/>
<text text-anchor="middle" x="40.16" y="-721.2" font-family="sans" font-size="11.00">control_input</text>
</g>
<!-- loopback_input -->
<g id="node2" class="node">
<title>loopback_input</title>
<ellipse fill="none" stroke="black" cx="161.91" cy="-549" rx="45.68" ry="18"/>
<text text-anchor="middle" x="161.91" y="-546.2" font-family="sans" font-size="11.00">loopback_input</text>
</g>
<!-- control_input&#45;&gt;loopback_input -->
<g id="edge1" class="edge">
<title>control_input&#45;&gt;loopback_input</title>
<path fill="none" stroke="blue" stroke-width="2" d="M52.43,-706.64C66.96,-684.34 93.13,-644.52 116.32,-611 124.66,-598.96 134.1,-585.76 142.14,-574.65"/>
<polygon fill="blue" stroke="blue" stroke-width="2" points="145.2,-576.4 148.25,-566.25 139.54,-572.28 145.2,-576.4"/>
</g>
<!-- arp_output_request -->
<g id="node3" class="node">
<title>arp_output_request</title>
<ellipse fill="none" stroke="black" cx="553.75" cy="-901" rx="59.31" ry="18"/>
<text text-anchor="middle" x="553.75" y="-898.2" font-family="sans" font-size="11.00">arp_output_request</text>
</g>
<!-- control_input&#45;&gt;arp_output_request -->
<g id="edge2" class="edge">
<title>control_input&#45;&gt;arp_output_request</title>
<path fill="none" stroke="blue" stroke-width="2" d="M44.91,-742C52.43,-773.07 72.52,-836.19 116.32,-865 232.39,-941.32 405.09,-927.04 494.46,-912.6"/>
<polygon fill="blue" stroke="blue" stroke-width="2" points="495.13,-916.04 504.41,-910.94 493.97,-909.14 495.13,-916.04"/>
</g>
<!-- icmp_local_send -->
<g id="node4" class="node">
<title>icmp_local_send</title>
<ellipse fill="none" stroke="black" cx="553.75" cy="-568" rx="49.28" ry="18"/>
<text text-anchor="middle" x="553.75" y="-565.2" font-family="sans" font-size="11.00">icmp_local_send</text>
</g>
<!-- control_input&#45;&gt;icmp_local_send -->
<g id="edge3" class="edge">
<title>control_input&#45;&gt;icmp_local_send</title>
<path fill="none" stroke="blue" stroke-width="2" d="M53.43,-706.71C66.81,-689.24 89.89,-662.89 116.32,-649 239.72,-584.14 406.65,-570.5 493.97,-568.08"/>
<polygon fill="blue" stroke="blue" stroke-width="2" points="494.3,-571.57 504.21,-567.83 494.13,-564.57 494.3,-571.57"/>
</g>
<!-- icmp6_local_send -->
<g id="node5" class="node">
<title>icmp6_local_send</title>
<ellipse fill="none" stroke="black" cx="702.1" cy="-668" rx="53.37" ry="18"/>
<text text-anchor="middle" x="702.1" y="-665.2" font-family="sans" font-size="11.00">icmp6_local_send</text>
</g>
<!-- control_input&#45;&gt;icmp6_local_send -->
<g id="edge4" class="edge">
<title>control_input&#45;&gt;icmp6_local_send</title>
<path fill="none" stroke="blue" stroke-width="2" d="M70.1,-711.95C115.48,-694.17 206.53,-663 287,-663 287,-663 287,-663 414.55,-663 491.88,-663 580.93,-664.84 638.97,-666.29"/>
<polygon fill="blue" stroke="blue" stroke-width="2" points="638.99,-669.79 649.08,-666.55 639.17,-662.79 638.99,-669.79"/>
</g>
<!-- ndp_ns_output -->
<g id="node6" class="node">
<title>ndp_ns_output</title>
<ellipse fill="none" stroke="black" cx="288" cy="-747" rx="44.51" ry="18"/>
<text text-anchor="middle" x="288" y="-744.2" font-family="sans" font-size="11.00">ndp_ns_output</text>
</g>
<!-- control_input&#45;&gt;ndp_ns_output -->
<g id="edge5" class="edge">
<title>control_input&#45;&gt;ndp_ns_output</title>
<path fill="none" stroke="blue" stroke-width="2" d="M79.57,-727.59C121.13,-731.48 187.66,-737.71 234.14,-742.05"/>
<polygon fill="blue" stroke="blue" stroke-width="2" points="234.04,-745.56 244.32,-743.01 234.69,-738.59 234.04,-745.56"/>
</g>
<!-- ip_output -->
<g id="node7" class="node">
<title>ip_output</title>
<ellipse fill="none" stroke="black" cx="1218.95" cy="-466" rx="29.12" ry="18"/>
<text text-anchor="middle" x="1218.95" y="-463.2" font-family="sans" font-size="11.00">ip_output</text>
</g>
<!-- control_input&#45;&gt;ip_output -->
<g id="edge6" class="edge">
<title>control_input&#45;&gt;ip_output</title>
<path fill="none" stroke="blue" stroke-width="2" d="M45.12,-706.11C53.79,-669.4 76.92,-583.85 116.32,-522 246.13,-318.26 311.18,-198 552.75,-198 552.75,-198 552.75,-198 952.02,-198 1086.97,-198 1176.85,-371.33 1206.87,-439.2"/>
<polygon fill="blue" stroke="blue" stroke-width="2" points="1203.68,-440.63 1210.87,-448.42 1210.1,-437.85 1203.68,-440.63"/>
</g>
<!-- arp_output_reply -->
<g id="node8" class="node">
<title>arp_output_reply</title>
<ellipse fill="none" stroke="black" cx="702.1" cy="-857" rx="51.62" ry="18"/>
<text text-anchor="middle" x="702.1" y="-854.2" font-family="sans" font-size="11.00">arp_output_reply</text>
</g>
<!-- control_input&#45;&gt;arp_output_reply -->
<g id="edge7" class="edge">
<title>control_input&#45;&gt;arp_output_reply</title>
<path fill="none" stroke="blue" stroke-width="2" d="M48.93,-741.62C60.19,-764.88 83.35,-805.19 116.32,-825 182.09,-864.52 210.27,-851 287,-851 287,-851 287,-851 414.55,-851 492.59,-851 582.56,-853.25 640.55,-855"/>
<polygon fill="blue" stroke="blue" stroke-width="2" points="640.53,-858.5 650.64,-855.3 640.75,-851.5 640.53,-858.5"/>
</g>
<!-- ip6_output -->
<g id="node9" class="node">
<title>ip6_output</title>
<ellipse fill="none" stroke="black" cx="1462.45" cy="-623" rx="32.63" ry="18"/>
<text text-anchor="middle" x="1462.45" y="-620.2" font-family="sans" font-size="11.00">ip6_output</text>
</g>
<!-- control_input&#45;&gt;ip6_output -->
<g id="edge8" class="edge">
<title>control_input&#45;&gt;ip6_output</title>
<path fill="none" stroke="blue" stroke-width="2" d="M72.37,-734.84C118.1,-754.65 206.63,-793 287,-793 287,-793 287,-793 1219.95,-793 1319.15,-793 1404.18,-694.31 1441.39,-647.17"/>
<polygon fill="blue" stroke="blue" stroke-width="2" points="1444.17,-649.31 1447.57,-639.27 1438.65,-644.99 1444.17,-649.31"/>
</g>
<!-- control_input&#45;&gt;ip6_output -->
<g id="edge10" class="edge">
<title>control_input&#45;&gt;ip6_output</title>
<path fill="none" stroke="blue" stroke-width="2" d="M60.57,-739.61C101.26,-765.04 199.01,-811 287,-811 287,-811 287,-811 1219.95,-811 1324.81,-811 1413.84,-700.72 1447.29,-648.93"/>
<polygon fill="blue" stroke="blue" stroke-width="2" points="1450.37,-650.6 1452.7,-640.27 1444.43,-646.89 1450.37,-650.6"/>
</g>
<!-- ndp_na_output -->
<g id="node10" class="node">
<title>ndp_na_output</title>
<ellipse fill="none" stroke="black" cx="413.55" cy="-709" rx="45.09" ry="18"/>
<text text-anchor="middle" x="413.55" y="-706.2" font-family="sans" font-size="11.00">ndp_na_output</text>
</g>
<!-- control_input&#45;&gt;ndp_na_output -->
<g id="edge9" class="edge">
<title>control_input&#45;&gt;ndp_na_output</title>
<path fill="none" stroke="blue" stroke-width="2" d="M80.2,-722.42C146.82,-719.73 282.55,-714.25 358.33,-711.19"/>
<polygon fill="blue" stroke="blue" stroke-width="2" points="358.76,-714.68 368.61,-710.77 358.47,-707.68 358.76,-714.68"/>
</g>
<!-- ip_input -->
<g id="node14" class="node">
<title>ip_input</title>
<ellipse fill="none" stroke="black" cx="553.75" cy="-420" rx="27" ry="18"/>
<text text-anchor="middle" x="553.75" y="-417.2" font-family="sans" font-size="11.00">ip_input</text>
</g>
<!-- loopback_input&#45;&gt;ip_input -->
<g id="edge16" class="edge">
<title>loopback_input&#45;&gt;ip_input</title>
<path fill="none" stroke="black" d="M197.51,-537.55C271.9,-512.94 446.26,-455.24 519.47,-431.01"/>
<polygon fill="black" stroke="black" points="520.71,-434.29 529.1,-427.83 518.51,-427.64 520.71,-434.29"/>
</g>
<!-- ip6_input -->
<g id="node15" class="node">
<title>ip6_input</title>
<ellipse fill="none" stroke="black" cx="288" cy="-420" rx="28.44" ry="18"/>
<text text-anchor="middle" x="288" y="-417.2" font-family="sans" font-size="11.00">ip6_input</text>
</g>
<!-- loopback_input&#45;&gt;ip6_input -->
<g id="edge17" class="edge">
<title>loopback_input&#45;&gt;ip6_input</title>
<path fill="none" stroke="black" d="M179.13,-532.14C201.16,-509.24 240.6,-468.23 265.2,-442.66"/>
<polygon fill="black" stroke="black" points="267.91,-444.89 272.32,-435.26 262.87,-440.04 267.91,-444.89"/>
</g>
<!-- eth_output -->
<g id="node16" class="node">
<title>eth_output</title>
<ellipse fill="none" stroke="black" cx="1603.73" cy="-623" rx="33.8" ry="18"/>
<text text-anchor="middle" x="1603.73" y="-620.2" font-family="sans" font-size="11.00">eth_output</text>
</g>
<!-- arp_output_request&#45;&gt;eth_output -->
<g id="edge26" class="edge">
<title>arp_output_request&#45;&gt;eth_output</title>
<path fill="none" stroke="black" d="M613.07,-901.67C669.08,-902.25 756.09,-903 831.53,-903 831.53,-903 831.53,-903 1335.18,-903 1424.54,-903 1450.9,-873.33 1512.92,-809 1557.58,-762.67 1583.76,-689.89 1595.43,-650.51"/>
<polygon fill="black" stroke="black" points="1598.82,-651.38 1598.21,-640.8 1592.09,-649.45 1598.82,-651.38"/>
</g>
<!-- icmp_output -->
<g id="node27" class="node">
<title>icmp_output</title>
<ellipse fill="none" stroke="black" cx="1086.88" cy="-401" rx="37.98" ry="18"/>
<text text-anchor="middle" x="1086.88" y="-398.2" font-family="sans" font-size="11.00">icmp_output</text>
</g>
<!-- icmp_local_send&#45;&gt;icmp_output -->
<g id="edge31" class="edge">
<title>icmp_local_send&#45;&gt;icmp_output</title>
<path fill="none" stroke="black" d="M593.72,-557.13C654,-540.17 773.39,-506.05 873.78,-474 934.4,-454.65 1004.05,-430.26 1046.5,-415.15"/>
<polygon fill="black" stroke="black" points="1047.92,-418.36 1056.17,-411.7 1045.57,-411.76 1047.92,-418.36"/>
</g>
<!-- icmp6_output -->
<g id="node34" class="node">
<title>icmp6_output</title>
<ellipse fill="none" stroke="black" cx="1334.18" cy="-688" rx="41.58" ry="18"/>
<text text-anchor="middle" x="1334.18" y="-685.2" font-family="sans" font-size="11.00">icmp6_output</text>
</g>
<!-- icmp6_local_send&#45;&gt;icmp6_output -->
<g id="edge52" class="edge">
<title>icmp6_local_send&#45;&gt;icmp6_output</title>
<path fill="none" stroke="black" d="M754.62,-671.63C804.55,-674.84 882.44,-679 950.02,-679 950.02,-679 950.02,-679 1087.88,-679 1155.12,-679 1232.66,-682.42 1282.25,-685.04"/>
<polygon fill="black" stroke="black" points="1282.23,-688.55 1292.4,-685.59 1282.6,-681.56 1282.23,-688.55"/>
</g>
<!-- ndp_ns_output&#45;&gt;icmp6_output -->
<g id="edge67" class="edge">
<title>ndp_ns_output&#45;&gt;icmp6_output</title>
<path fill="none" stroke="black" d="M332.39,-749.12C384.65,-751.49 475.1,-755 552.75,-755 552.75,-755 552.75,-755 1087.88,-755 1163.67,-755 1248.12,-724.87 1295.54,-705.02"/>
<polygon fill="black" stroke="black" points="1296.97,-708.22 1304.8,-701.08 1294.22,-701.78 1296.97,-708.22"/>
</g>
<!-- ip_output&#45;&gt;eth_output -->
<g id="edge42" class="edge">
<title>ip_output&#45;&gt;eth_output</title>
<path fill="none" stroke="black" d="M1243.89,-475.82C1309.11,-502.57 1490.15,-576.82 1567.24,-608.44"/>
<polygon fill="black" stroke="black" points="1565.96,-611.7 1576.54,-612.26 1568.62,-605.23 1565.96,-611.7"/>
</g>
<!-- ip_hold -->
<g id="node28" class="node">
<title>ip_hold</title>
<ellipse fill="none" stroke="black" cx="1334.18" cy="-412" rx="27" ry="18"/>
<text text-anchor="middle" x="1334.18" y="-409.2" font-family="sans" font-size="11.00">ip_hold</text>
</g>
<!-- ip_output&#45;&gt;ip_hold -->
<g id="edge43" class="edge">
<title>ip_output&#45;&gt;ip_hold</title>
<path fill="none" stroke="black" d="M1242.59,-455.2C1259.82,-446.99 1283.7,-435.6 1302.62,-426.57"/>
<polygon fill="black" stroke="black" points="1304.21,-429.69 1311.73,-422.23 1301.2,-423.38 1304.21,-429.69"/>
</g>
<!-- ipip_output -->
<g id="node31" class="node">
<title>ipip_output</title>
<ellipse fill="none" stroke="black" cx="1334.18" cy="-466" rx="34.38" ry="18"/>
<text text-anchor="middle" x="1334.18" y="-463.2" font-family="sans" font-size="11.00">ipip_output</text>
</g>
<!-- ip_output&#45;&gt;ipip_output -->
<g id="edge44" class="edge">
<title>ip_output&#45;&gt;ipip_output</title>
<path fill="none" stroke="black" d="M1246.78,-460.16C1260.17,-459.26 1276.67,-459.03 1291.65,-459.47"/>
<polygon fill="black" stroke="black" points="1291.59,-462.97 1301.72,-459.88 1291.87,-455.97 1291.59,-462.97"/>
</g>
<!-- sr6_output -->
<g id="node32" class="node">
<title>sr6_output</title>
<ellipse fill="none" stroke="black" cx="1334.18" cy="-558" rx="33.21" ry="18"/>
<text text-anchor="middle" x="1334.18" y="-555.2" font-family="sans" font-size="11.00">sr6_output</text>
</g>
<!-- ip_output&#45;&gt;sr6_output -->
<g id="edge45" class="edge">
<title>ip_output&#45;&gt;sr6_output</title>
<path fill="none" stroke="black" d="M1237.11,-480.43C1251.73,-492.67 1273.32,-510.63 1292.39,-526 1296.86,-529.6 1301.63,-533.39 1306.28,-537.06"/>
<polygon fill="black" stroke="black" points="1304.39,-540.03 1314.42,-543.45 1308.71,-534.52 1304.39,-540.03"/>
</g>
<!-- arp_output_reply&#45;&gt;eth_output -->
<g id="edge25" class="edge">
<title>arp_output_reply&#45;&gt;eth_output</title>
<path fill="none" stroke="black" d="M753.69,-855.7C803.6,-854.53 882.07,-853 950.02,-853 950.02,-853 950.02,-853 1335.18,-853 1459.03,-853 1554.14,-709.54 1588.65,-649.22"/>
<polygon fill="black" stroke="black" points="1591.82,-650.72 1593.67,-640.29 1585.72,-647.29 1591.82,-650.72"/>
</g>
<!-- ip6_output&#45;&gt;eth_output -->
<g id="edge61" class="edge">
<title>ip6_output&#45;&gt;eth_output</title>
<path fill="none" stroke="black" d="M1495.05,-623C1514.14,-623 1538.73,-623 1559.59,-623"/>
<polygon fill="black" stroke="black" points="1559.8,-626.5 1569.8,-623 1559.8,-619.5 1559.8,-626.5"/>
</g>
<!-- ip6_output&#45;&gt;sr6_output -->
<g id="edge63" class="edge">
<title>ip6_output&#45;&gt;sr6_output</title>
<path fill="none" stroke="black" d="M1433.39,-614.28C1412.27,-604.79 1383.49,-589.96 1362.55,-577.76"/>
<polygon fill="black" stroke="black" points="1364.19,-574.67 1353.81,-572.55 1360.6,-580.68 1364.19,-574.67"/>
</g>
<!-- ip6_hold -->
<g id="node39" class="node">
<title>ip6_hold</title>
<ellipse fill="none" stroke="black" cx="1603.73" cy="-502" rx="27" ry="18"/>
<text text-anchor="middle" x="1603.73" y="-499.2" font-family="sans" font-size="11.00">ip6_hold</text>
</g>
<!-- ip6_output&#45;&gt;ip6_hold -->
<g id="edge62" class="edge">
<title>ip6_output&#45;&gt;ip6_hold</title>
<path fill="none" stroke="black" d="M1480.8,-607.92C1505.5,-586.47 1550.85,-547.07 1578.74,-522.84"/>
<polygon fill="black" stroke="black" points="1581.2,-525.34 1586.45,-516.14 1576.61,-520.06 1581.2,-525.34"/>
</g>
<!-- ndp_na_output&#45;&gt;icmp6_output -->
<g id="edge65" class="edge">
<title>ndp_na_output&#45;&gt;icmp6_output</title>
<path fill="none" stroke="black" d="M458.72,-711C514.99,-713.37 615.25,-717 701.1,-717 701.1,-717 701.1,-717 1087.88,-717 1156.95,-717 1236.19,-705.52 1285.48,-697.01"/>
<polygon fill="black" stroke="black" points="1286.28,-700.42 1295.53,-695.24 1285.07,-693.53 1286.28,-700.42"/>
</g>
<!-- control_output -->
<g id="node11" class="node">
<title>control_output</title>
<ellipse fill="none" stroke="black" cx="1739.05" cy="-229" rx="44.51" ry="18"/>
<text text-anchor="middle" x="1739.05" y="-226.2" font-family="sans" font-size="11.00">control_output</text>
</g>
<!-- eth_input -->
<g id="node12" class="node">
<title>eth_input</title>
<ellipse fill="none" stroke="black" cx="161.91" cy="-176" rx="29.12" ry="18"/>
<text text-anchor="middle" x="161.91" y="-173.2" font-family="sans" font-size="11.00">eth_input</text>
</g>
<!-- arp_input -->
<g id="node13" class="node">
<title>arp_input</title>
<ellipse fill="none" stroke="black" cx="1462.45" cy="-44" rx="29.12" ry="18"/>
<text text-anchor="middle" x="1462.45" y="-41.2" font-family="sans" font-size="11.00">arp_input</text>
</g>
<!-- eth_input&#45;&gt;arp_input -->
<g id="edge11" class="edge">
<title>eth_input&#45;&gt;arp_input</title>
<path fill="none" stroke="black" d="M189.73,-170.28C235.3,-161.07 330.84,-144 412.55,-144 412.55,-144 412.55,-144 703.1,-144 876.55,-144 912.44,-68 1085.88,-68 1085.88,-68 1085.88,-68 1219.95,-68 1292.41,-68 1376.51,-57.17 1423.91,-50.06"/>
<polygon fill="black" stroke="black" points="1424.65,-53.48 1434.01,-48.51 1423.59,-46.56 1424.65,-53.48"/>
</g>
<!-- eth_input&#45;&gt;ip_input -->
<g id="edge12" class="edge">
<title>eth_input&#45;&gt;ip_input</title>
<path fill="none" stroke="black" d="M183.05,-188.6C247.64,-229.03 449.76,-355.53 524.55,-402.35"/>
<polygon fill="black" stroke="black" points="523.1,-405.57 533.43,-407.91 526.81,-399.63 523.1,-405.57"/>
</g>
<!-- eth_input&#45;&gt;ip6_input -->
<g id="edge13" class="edge">
<title>eth_input&#45;&gt;ip6_input</title>
<path fill="none" stroke="black" d="M171.64,-193.16C193.04,-235.25 248.26,-343.81 273.75,-393.93"/>
<polygon fill="black" stroke="black" points="270.63,-395.53 278.29,-402.86 276.87,-392.36 270.63,-395.53"/>
</g>
<!-- arp_input_request -->
<g id="node21" class="node">
<title>arp_input_request</title>
<ellipse fill="none" stroke="black" cx="1603.73" cy="-72" rx="54.63" ry="18"/>
<text text-anchor="middle" x="1603.73" y="-69.2" font-family="sans" font-size="11.00">arp_input_request</text>
</g>
<!-- arp_input&#45;&gt;arp_input_request -->
<g id="edge21" class="edge">
<title>arp_input&#45;&gt;arp_input_request</title>
<path fill="none" stroke="black" d="M1490.63,-49.47C1506.61,-52.68 1527.41,-56.86 1546.75,-60.75"/>
<polygon fill="black" stroke="black" points="1546.2,-64.21 1556.69,-62.74 1547.58,-57.34 1546.2,-64.21"/>
</g>
<!-- arp_input_reply -->
<g id="node22" class="node">
<title>arp_input_reply</title>
<ellipse fill="none" stroke="black" cx="1603.73" cy="-18" rx="47.43" ry="18"/>
<text text-anchor="middle" x="1603.73" y="-15.2" font-family="sans" font-size="11.00">arp_input_reply</text>
</g>
<!-- arp_input&#45;&gt;arp_input_reply -->
<g id="edge22" class="edge">
<title>arp_input&#45;&gt;arp_input_reply</title>
<path fill="none" stroke="black" d="M1490.63,-38.93C1507.85,-35.71 1530.65,-31.45 1551.2,-27.62"/>
<polygon fill="black" stroke="black" points="1551.89,-31.05 1561.07,-25.78 1550.6,-24.17 1551.89,-31.05"/>
</g>
<!-- ip_input&#45;&gt;ip_output -->
<g id="edge36" class="edge">
<title>ip_input&#45;&gt;ip_output</title>
<path fill="none" stroke="black" d="M574.56,-431.55C593.11,-441.74 621.94,-456.03 648.91,-463 843.48,-513.25 1088.11,-485.54 1180.4,-472.03"/>
<polygon fill="black" stroke="black" points="1181.01,-475.48 1190.38,-470.54 1179.98,-468.56 1181.01,-475.48"/>
</g>
<!-- dnat44 -->
<g id="node23" class="node">
<title>dnat44</title>
<ellipse fill="none" stroke="black" cx="702.1" cy="-420" rx="27" ry="18"/>
<text text-anchor="middle" x="702.1" y="-417.2" font-family="sans" font-size="11.00">dnat44</text>
</g>
<!-- ip_input&#45;&gt;dnat44 -->
<g id="edge38" class="edge">
<title>ip_input&#45;&gt;dnat44</title>
<path fill="none" stroke="black" d="M580.92,-420C604.18,-420 638.45,-420 664.44,-420"/>
<polygon fill="black" stroke="black" points="664.67,-423.5 674.67,-420 664.67,-416.5 664.67,-423.5"/>
</g>
<!-- ip_forward -->
<g id="node24" class="node">
<title>ip_forward</title>
<ellipse fill="none" stroke="black" cx="832.53" cy="-447" rx="32.63" ry="18"/>
<text text-anchor="middle" x="832.53" y="-444.2" font-family="sans" font-size="11.00">ip_forward</text>
</g>
<!-- ip_input&#45;&gt;ip_forward -->
<g id="edge35" class="edge">
<title>ip_input&#45;&gt;ip_forward</title>
<path fill="none" stroke="black" d="M577.58,-428.49C596.41,-435.02 623.99,-443.5 648.91,-447 696.77,-453.73 752.39,-452.44 789.56,-450.3"/>
<polygon fill="black" stroke="black" points="790.24,-453.77 800,-449.65 789.8,-446.78 790.24,-453.77"/>
</g>
<!-- ip_input_local -->
<g id="node25" class="node">
<title>ip_input_local</title>
<ellipse fill="none" stroke="black" cx="832.53" cy="-336" rx="41.49" ry="18"/>
<text text-anchor="middle" x="832.53" y="-333.2" font-family="sans" font-size="11.00">ip_input_local</text>
</g>
<!-- ip_input&#45;&gt;ip_input_local -->
<g id="edge37" class="edge">
<title>ip_input&#45;&gt;ip_input_local</title>
<path fill="none" stroke="black" d="M571.25,-406.28C589.17,-392.17 619.22,-370.8 648.91,-360 691.76,-344.41 743.53,-338.74 780.99,-336.78"/>
<polygon fill="black" stroke="black" points="781.33,-340.27 791.16,-336.32 781.01,-333.27 781.33,-340.27"/>
</g>
<!-- ip6_input&#45;&gt;ip6_output -->
<g id="edge56" class="edge">
<title>ip6_input&#45;&gt;ip6_output</title>
<path fill="none" stroke="black" d="M312.7,-429.21C328.34,-435.01 349.41,-442.25 368.51,-447 772.02,-547.25 1274.05,-603.75 1419.93,-618.85"/>
<polygon fill="black" stroke="black" points="1419.9,-622.37 1430.2,-619.91 1420.61,-615.41 1419.9,-622.37"/>
</g>
<!-- ip6_forward -->
<g id="node38" class="node">
<title>ip6_forward</title>
<ellipse fill="none" stroke="black" cx="1086.88" cy="-632" rx="35.64" ry="18"/>
<text text-anchor="middle" x="1086.88" y="-629.2" font-family="sans" font-size="11.00">ip6_forward</text>
</g>
<!-- ip6_input&#45;&gt;ip6_forward -->
<g id="edge55" class="edge">
<title>ip6_input&#45;&gt;ip6_forward</title>
<path fill="none" stroke="black" d="M298.77,-437.01C312.23,-459.34 338.29,-498.77 368.51,-525 416.92,-567.01 433.08,-577 494.6,-595 691.72,-652.67 941.08,-642.89 1041.25,-635.79"/>
<polygon fill="black" stroke="black" points="1041.6,-639.27 1051.31,-635.05 1041.08,-632.29 1041.6,-639.27"/>
</g>
<!-- ip6_input_local -->
<g id="node40" class="node">
<title>ip6_input_local</title>
<ellipse fill="none" stroke="black" cx="553.75" cy="-328" rx="45.09" ry="18"/>
<text text-anchor="middle" x="553.75" y="-325.2" font-family="sans" font-size="11.00">ip6_input_local</text>
</g>
<!-- ip6_input&#45;&gt;ip6_input_local -->
<g id="edge57" class="edge">
<title>ip6_input&#45;&gt;ip6_input_local</title>
<path fill="none" stroke="black" d="M313.34,-411.51C357.98,-395.94 453.46,-362.64 509.42,-343.12"/>
<polygon fill="black" stroke="black" points="510.76,-346.36 519.05,-339.76 508.45,-339.75 510.76,-346.36"/>
</g>
<!-- sr6_local -->
<g id="node41" class="node">
<title>sr6_local</title>
<ellipse fill="none" stroke="black" cx="413.55" cy="-420" rx="27.86" ry="18"/>
<text text-anchor="middle" x="413.55" y="-417.2" font-family="sans" font-size="11.00">sr6_local</text>
</g>
<!-- ip6_input&#45;&gt;sr6_local -->
<g id="edge58" class="edge">
<title>ip6_input&#45;&gt;sr6_local</title>
<path fill="none" stroke="black" d="M314.9,-414.39C332.9,-413.09 357.1,-412.9 376.92,-413.82"/>
<polygon fill="black" stroke="black" points="376.92,-417.32 387.11,-414.42 377.33,-410.34 376.92,-417.32"/>
</g>
<!-- port_tx -->
<g id="node17" class="node">
<title>port_tx</title>
<ellipse fill="none" stroke="black" cx="1739.05" cy="-504" rx="27" ry="18"/>
<text text-anchor="middle" x="1739.05" y="-501.2" font-family="sans" font-size="11.00">port_tx</text>
</g>
<!-- eth_output&#45;&gt;port_tx -->
<g id="edge14" class="edge">
<title>eth_output&#45;&gt;port_tx</title>
<path fill="none" stroke="black" d="M1621.89,-607.69C1645.47,-586.64 1687.99,-548.69 1714.52,-525"/>
<polygon fill="black" stroke="black" points="1717.08,-527.41 1722.21,-518.14 1712.42,-522.19 1717.08,-527.41"/>
</g>
<!-- l1_xconnect -->
<g id="node18" class="node">
<title>l1_xconnect</title>
<ellipse fill="none" stroke="black" cx="288" cy="-98" rx="36.23" ry="18"/>
<text text-anchor="middle" x="288" y="-95.2" font-family="sans" font-size="11.00">l1_xconnect</text>
</g>
<!-- l1_xconnect&#45;&gt;port_tx -->
<g id="edge15" class="edge">
<title>l1_xconnect&#45;&gt;port_tx</title>
<path fill="none" stroke="black" d="M324.4,-99.76C375.01,-102.11 470.98,-106 552.75,-106 552.75,-106 552.75,-106 952.02,-106 1038.43,-106 1080.17,-68.45 1145.5,-125 1196.03,-168.74 1138.03,-220.23 1181.5,-271 1200.05,-292.67 1590.24,-446.26 1705.97,-491.49"/>
<polygon fill="black" stroke="black" points="1704.79,-494.79 1715.37,-495.17 1707.33,-488.27 1704.79,-494.79"/>
</g>
<!-- loopback_output -->
<g id="node19" class="node">
<title>loopback_output</title>
<ellipse fill="none" stroke="black" cx="1462.45" cy="-98" rx="50.45" ry="18"/>
<text text-anchor="middle" x="1462.45" y="-95.2" font-family="sans" font-size="11.00">loopback_output</text>
</g>
<!-- loopback_output&#45;&gt;control_output -->
<g id="edge18" class="edge">
<title>loopback_output&#45;&gt;control_output</title>
<path fill="none" stroke="black" d="M1513.07,-99.1C1554.49,-102 1613.78,-110.91 1658.55,-137 1685.84,-152.91 1708.39,-181.65 1722.41,-202.79"/>
<polygon fill="black" stroke="black" points="1719.54,-204.8 1727.89,-211.32 1725.43,-201.01 1719.54,-204.8"/>
</g>
<!-- port_rx -->
<g id="node20" class="node">
<title>port_rx</title>
<ellipse fill="none" stroke="blue" stroke-width="2" cx="40.16" cy="-143" rx="27" ry="18"/>
<text text-anchor="middle" x="40.16" y="-140.2" font-family="sans" font-size="11.00">port_rx</text>
</g>
<!-- port_rx&#45;&gt;eth_input -->
<g id="edge19" class="edge">
<title>port_rx&#45;&gt;eth_input</title>
<path fill="none" stroke="blue" stroke-width="2" d="M65.39,-149.68C82.5,-154.39 105.72,-160.79 124.98,-166.1"/>
<polygon fill="blue" stroke="blue" stroke-width="2" points="124.07,-169.48 134.64,-168.76 125.93,-162.73 124.07,-169.48"/>
</g>
<!-- port_rx&#45;&gt;l1_xconnect -->
<g id="edge20" class="edge">
<title>port_rx&#45;&gt;l1_xconnect</title>
<path fill="none" stroke="blue" stroke-width="2" d="M66.54,-138.35C108.32,-130.71 192.05,-115.38 243.45,-105.97"/>
<polygon fill="blue" stroke="blue" stroke-width="2" points="244.38,-109.36 253.58,-104.12 243.12,-102.48 244.38,-109.36"/>
</g>
<!-- arp_input_request&#45;&gt;control_output -->
<g id="edge24" class="edge">
<title>arp_input_request&#45;&gt;control_output</title>
<path fill="none" stroke="black" d="M1635.25,-86.81C1643.37,-91.61 1651.76,-97.41 1658.55,-104 1688.14,-132.71 1711.84,-174.48 1725.43,-201.7"/>
<polygon fill="black" stroke="black" points="1722.45,-203.56 1729.97,-211.02 1728.74,-200.49 1722.45,-203.56"/>
</g>
<!-- arp_input_reply&#45;&gt;control_output -->
<g id="edge23" class="edge">
<title>arp_input_reply&#45;&gt;control_output</title>
<path fill="none" stroke="black" d="M1638.49,-30.41C1645.77,-34.25 1652.95,-39.07 1658.55,-45 1701.23,-90.19 1723.05,-161.9 1732.35,-201.12"/>
<polygon fill="black" stroke="black" points="1728.97,-202.06 1734.6,-211.04 1735.8,-200.51 1728.97,-202.06"/>
</g>
<!-- dnat44&#45;&gt;ip_forward -->
<g id="edge27" class="edge">
<title>dnat44&#45;&gt;ip_forward</title>
<path fill="none" stroke="black" d="M728.17,-425.27C746.23,-429.07 770.99,-434.27 791.74,-438.64"/>
<polygon fill="black" stroke="black" points="791.05,-442.07 801.56,-440.7 792.49,-435.22 791.05,-442.07"/>
</g>
<!-- dnat44&#45;&gt;ip_input_local -->
<g id="edge28" class="edge">
<title>dnat44&#45;&gt;ip_input_local</title>
<path fill="none" stroke="black" d="M722.05,-407.61C742.56,-394.19 775.6,-372.58 800.02,-356.61"/>
<polygon fill="black" stroke="black" points="802.14,-359.41 808.59,-351 798.31,-353.55 802.14,-359.41"/>
</g>
<!-- ip_forward&#45;&gt;ip_output -->
<g id="edge33" class="edge">
<title>ip_forward&#45;&gt;ip_output</title>
<path fill="none" stroke="black" d="M864.99,-448.55C934.95,-452.01 1103.24,-460.33 1179.38,-464.09"/>
<polygon fill="black" stroke="black" points="1179.33,-467.6 1189.49,-464.59 1179.67,-460.6 1179.33,-467.6"/>
</g>
<!-- icmp_input -->
<g id="node26" class="node">
<title>icmp_input</title>
<ellipse fill="none" stroke="black" cx="951.02" cy="-336" rx="33.8" ry="18"/>
<text text-anchor="middle" x="951.02" y="-333.2" font-family="sans" font-size="11.00">icmp_input</text>
</g>
<!-- ip_input_local&#45;&gt;icmp_input -->
<g id="edge39" class="edge">
<title>ip_input_local&#45;&gt;icmp_input</title>
<path fill="none" stroke="black" d="M873.95,-336C884.6,-336 896.14,-336 906.94,-336"/>
<polygon fill="black" stroke="black" points="907,-339.5 917,-336 907,-332.5 907,-339.5"/>
</g>
<!-- ipip_input -->
<g id="node29" class="node">
<title>ipip_input</title>
<ellipse fill="none" stroke="black" cx="951.02" cy="-390" rx="29.7" ry="18"/>
<text text-anchor="middle" x="951.02" y="-387.2" font-family="sans" font-size="11.00">ipip_input</text>
</g>
<!-- ip_input_local&#45;&gt;ipip_input -->
<g id="edge40" class="edge">
<title>ip_input_local&#45;&gt;ipip_input</title>
<path fill="none" stroke="black" d="M861.43,-348.93C878.24,-356.73 899.73,-366.69 917.34,-374.85"/>
<polygon fill="black" stroke="black" points="916.12,-378.14 926.66,-379.17 919.06,-371.79 916.12,-378.14"/>
</g>
<!-- l4_input_local -->
<g id="node30" class="node">
<title>l4_input_local</title>
<ellipse fill="none" stroke="black" cx="951.02" cy="-244" rx="41.49" ry="18"/>
<text text-anchor="middle" x="951.02" y="-241.2" font-family="sans" font-size="11.00">l4_input_local</text>
</g>
<!-- ip_input_local&#45;&gt;l4_input_local -->
<g id="edge41" class="edge">
<title>ip_input_local&#45;&gt;l4_input_local</title>
<path fill="none" stroke="black" d="M853.29,-320.39C872.2,-305.46 900.91,-282.79 922.15,-266.02"/>
<polygon fill="black" stroke="black" points="924.49,-268.63 930.17,-259.68 920.15,-263.13 924.49,-268.63"/>
</g>
<!-- icmp_input&#45;&gt;control_output -->
<g id="edge30" class="edge">
<title>icmp_input&#45;&gt;control_output</title>
<path fill="none" stroke="black" d="M984.77,-334.38C1034.94,-332.04 1133.88,-328 1217.95,-328 1217.95,-328 1217.95,-328 1463.45,-328 1555.52,-328 1655.22,-278.13 1705.35,-249.18"/>
<polygon fill="black" stroke="black" points="1707.26,-252.12 1714.12,-244.04 1703.72,-246.08 1707.26,-252.12"/>
</g>
<!-- icmp_input&#45;&gt;icmp_output -->
<g id="edge29" class="edge">
<title>icmp_input&#45;&gt;icmp_output</title>
<path fill="none" stroke="black" d="M976.58,-347.92C997.27,-357.97 1027.16,-372.48 1050.45,-383.79"/>
<polygon fill="black" stroke="black" points="1049.13,-387.05 1059.66,-388.26 1052.19,-380.75 1049.13,-387.05"/>
</g>
<!-- icmp_output&#45;&gt;ip_output -->
<g id="edge32" class="edge">
<title>icmp_output&#45;&gt;ip_output</title>
<path fill="none" stroke="black" d="M1113.58,-413.84C1134.57,-424.33 1164.31,-439.2 1186.68,-450.37"/>
<polygon fill="black" stroke="black" points="1185.26,-453.58 1195.77,-454.92 1188.39,-447.31 1185.26,-453.58"/>
</g>
<!-- ip_hold&#45;&gt;control_output -->
<g id="edge34" class="edge">
<title>ip_hold&#45;&gt;control_output</title>
<path fill="none" stroke="black" d="M1361.53,-412.53C1420.01,-412.46 1563.04,-405.32 1658.55,-342 1690.28,-320.96 1713.23,-282.57 1726.08,-256.44"/>
<polygon fill="black" stroke="black" points="1729.4,-257.62 1730.51,-247.08 1723.07,-254.62 1729.4,-257.62"/>
</g>
<!-- ipip_input&#45;&gt;ip_input -->
<g id="edge69" class="edge">
<title>ipip_input&#45;&gt;ip_input</title>
<path fill="none" stroke="black" d="M921.18,-387.73C867.33,-384.05 747.98,-378.57 648.91,-393 628.14,-396.03 605.5,-402.41 587.63,-408.21"/>
<polygon fill="black" stroke="black" points="586.35,-404.95 577.97,-411.44 588.57,-411.59 586.35,-404.95"/>
</g>
<!-- l4_loopback_output -->
<g id="node42" class="node">
<title>l4_loopback_output</title>
<ellipse fill="none" stroke="black" cx="1086.88" cy="-152" rx="58.73" ry="18"/>
<text text-anchor="middle" x="1086.88" y="-149.2" font-family="sans" font-size="11.00">l4_loopback_output</text>
</g>
<!-- l4_input_local&#45;&gt;l4_loopback_output -->
<g id="edge71" class="edge">
<title>l4_input_local&#45;&gt;l4_loopback_output</title>
<path fill="none" stroke="black" d="M974.13,-228.81C995.78,-213.93 1029.02,-191.08 1053.63,-174.17"/>
<polygon fill="black" stroke="black" points="1055.68,-177.01 1061.94,-168.46 1051.71,-171.24 1055.68,-177.01"/>
</g>
<!-- ipip_output&#45;&gt;ip_output -->
<g id="edge70" class="edge">
<title>ipip_output&#45;&gt;ip_output</title>
<path fill="none" stroke="black" d="M1301.72,-472.12C1287.82,-472.86 1271.39,-472.95 1256.91,-472.37"/>
<polygon fill="black" stroke="black" points="1256.95,-468.87 1246.78,-471.84 1256.58,-475.86 1256.95,-468.87"/>
</g>
<!-- sr6_output&#45;&gt;ip6_output -->
<g id="edge76" class="edge">
<title>sr6_output&#45;&gt;ip6_output</title>
<path fill="none" stroke="black" d="M1363.2,-566.71C1384.34,-576.2 1413.18,-591.06 1434.14,-603.27"/>
<polygon fill="black" stroke="black" points="1432.5,-606.37 1442.88,-608.49 1436.09,-600.36 1432.5,-606.37"/>
</g>
<!-- icmp6_input -->
<g id="node33" class="node">
<title>icmp6_input</title>
<ellipse fill="none" stroke="black" cx="1218.95" cy="-244" rx="37.4" ry="18"/>
<text text-anchor="middle" x="1218.95" y="-241.2" font-family="sans" font-size="11.00">icmp6_input</text>
</g>
<!-- icmp6_input&#45;&gt;control_output -->
<g id="edge50" class="edge">
<title>icmp6_input&#45;&gt;control_output</title>
<path fill="none" stroke="black" d="M1253.75,-251.13C1265.9,-253.54 1279.73,-256.09 1292.39,-258 1453.35,-282.26 1499.04,-282.45 1658.55,-250 1669.58,-247.76 1681.36,-244.9 1692.38,-242.03"/>
<polygon fill="black" stroke="black" points="1693.48,-245.35 1702.24,-239.4 1691.68,-238.59 1693.48,-245.35"/>
</g>
<!-- icmp6_input&#45;&gt;icmp6_output -->
<g id="edge46" class="edge">
<title>icmp6_input&#45;&gt;icmp6_output</title>
<path fill="none" stroke="black" d="M1223.4,-262.22C1235.09,-323.61 1273.55,-522.57 1292.39,-585 1300.32,-611.27 1312.08,-640.24 1320.94,-660.75"/>
<polygon fill="black" stroke="black" points="1317.81,-662.33 1325.03,-670.09 1324.22,-659.53 1317.81,-662.33"/>
</g>
<!-- ndp_ns_input -->
<g id="node35" class="node">
<title>ndp_ns_input</title>
<ellipse fill="none" stroke="black" cx="1462.45" cy="-244" rx="40.32" ry="18"/>
<text text-anchor="middle" x="1462.45" y="-241.2" font-family="sans" font-size="11.00">ndp_ns_input</text>
</g>
<!-- icmp6_input&#45;&gt;ndp_ns_input -->
<g id="edge47" class="edge">
<title>icmp6_input&#45;&gt;ndp_ns_input</title>
<path fill="none" stroke="black" d="M1256.62,-244C1298.09,-244 1365.81,-244 1411.94,-244"/>
<polygon fill="black" stroke="black" points="1412.01,-247.5 1422.01,-244 1412.01,-240.5 1412.01,-247.5"/>
</g>
<!-- ndp_na_input -->
<g id="node36" class="node">
<title>ndp_na_input</title>
<ellipse fill="none" stroke="black" cx="1462.45" cy="-190" rx="40.91" ry="18"/>
<text text-anchor="middle" x="1462.45" y="-187.2" font-family="sans" font-size="11.00">ndp_na_input</text>
</g>
<!-- icmp6_input&#45;&gt;ndp_na_input -->
<g id="edge48" class="edge">
<title>icmp6_input&#45;&gt;ndp_na_input</title>
<path fill="none" stroke="black" d="M1253.27,-236.55C1295.46,-227.11 1368.35,-210.82 1415.72,-200.22"/>
<polygon fill="black" stroke="black" points="1416.72,-203.59 1425.71,-197.99 1415.19,-196.76 1416.72,-203.59"/>
</g>
<!-- ndp_rs_input -->
<g id="node37" class="node">
<title>ndp_rs_input</title>
<ellipse fill="none" stroke="black" cx="1603.73" cy="-164" rx="39.15" ry="18"/>
<text text-anchor="middle" x="1603.73" y="-161.2" font-family="sans" font-size="11.00">ndp_rs_input</text>
</g>
<!-- icmp6_input&#45;&gt;ndp_rs_input -->
<g id="edge49" class="edge">
<title>icmp6_input&#45;&gt;ndp_rs_input</title>
<path fill="none" stroke="black" d="M1243.69,-230.49C1257.64,-222.82 1275.75,-213.32 1292.39,-206 1344.1,-183.27 1356.33,-172.7 1411.97,-163 1456.17,-155.29 1468.05,-162.75 1512.92,-163 1526.21,-163.07 1540.6,-163.21 1553.89,-163.36"/>
<polygon fill="black" stroke="black" points="1554.23,-166.86 1564.27,-163.48 1554.31,-159.86 1554.23,-166.86"/>
</g>
<!-- icmp6_output&#45;&gt;ip6_output -->
<g id="edge51" class="edge">
<title>icmp6_output&#45;&gt;ip6_output</title>
<path fill="none" stroke="black" d="M1361.65,-674.37C1381.22,-664.3 1407.97,-650.53 1428.85,-639.78"/>
<polygon fill="black" stroke="black" points="1430.7,-642.77 1437.99,-635.08 1427.49,-636.54 1430.7,-642.77"/>
</g>
<!-- ndp_ns_input&#45;&gt;control_output -->
<g id="edge66" class="edge">
<title>ndp_ns_input&#45;&gt;control_output</title>
<path fill="none" stroke="black" d="M1502.5,-241.87C1550.11,-239.27 1630.83,-234.86 1684.29,-231.94"/>
<polygon fill="black" stroke="black" points="1684.81,-235.41 1694.6,-231.37 1684.43,-228.42 1684.81,-235.41"/>
</g>
<!-- ndp_na_input&#45;&gt;control_output -->
<g id="edge64" class="edge">
<title>ndp_na_input&#45;&gt;control_output</title>
<path fill="none" stroke="black" d="M1501.34,-195.38C1549.44,-202.21 1632.63,-214.03 1686.48,-221.68"/>
<polygon fill="black" stroke="black" points="1686.12,-225.16 1696.51,-223.1 1687.1,-218.23 1686.12,-225.16"/>
</g>
<!-- ndp_rs_input&#45;&gt;control_output -->
<g id="edge68" class="edge">
<title>ndp_rs_input&#45;&gt;control_output</title>
<path fill="none" stroke="black" d="M1631.39,-177C1651.21,-186.66 1678.5,-199.97 1700.52,-210.7"/>
<polygon fill="black" stroke="black" points="1699.07,-213.89 1709.6,-215.13 1702.14,-207.6 1699.07,-213.89"/>
</g>
<!-- ip6_forward&#45;&gt;ip6_output -->
<g id="edge53" class="edge">
<title>ip6_forward&#45;&gt;ip6_output</title>
<path fill="none" stroke="black" d="M1122.69,-631.16C1191.57,-629.5 1345.02,-625.8 1419.41,-624.01"/>
<polygon fill="black" stroke="black" points="1419.88,-627.5 1429.79,-623.76 1419.71,-620.5 1419.88,-627.5"/>
</g>
<!-- ip6_hold&#45;&gt;control_output -->
<g id="edge54" class="edge">
<title>ip6_hold&#45;&gt;control_output</title>
<path fill="none" stroke="black" d="M1616.87,-486.06C1628.49,-470.33 1646.07,-445.32 1658.55,-422 1688.8,-365.49 1715.2,-294.94 1728.63,-256.72"/>
<polygon fill="black" stroke="black" points="1732.09,-257.43 1732.07,-246.84 1725.48,-255.13 1732.09,-257.43"/>
</g>
<!-- ip6_input_local&#45;&gt;l4_input_local -->
<g id="edge60" class="edge">
<title>ip6_input_local&#45;&gt;l4_input_local</title>
<path fill="none" stroke="black" d="M576.81,-312.48C595.2,-300.39 622.55,-284.31 648.91,-276 733.99,-249.19 838.58,-243.86 899.43,-243.32"/>
<polygon fill="black" stroke="black" points="899.56,-246.82 909.54,-243.27 899.52,-239.82 899.56,-246.82"/>
</g>
<!-- ip6_input_local&#45;&gt;icmp6_input -->
<g id="edge59" class="edge">
<title>ip6_input_local&#45;&gt;icmp6_input</title>
<path fill="none" stroke="black" d="M593.48,-319.28C646.8,-308.06 745.92,-290 831.53,-290 831.53,-290 831.53,-290 952.02,-290 1032.41,-290 1124.48,-269.34 1176.47,-255.71"/>
<polygon fill="black" stroke="black" points="1177.56,-259.04 1186.32,-253.09 1175.76,-252.28 1177.56,-259.04"/>
</g>
<!-- sr6_local&#45;&gt;ip_input -->
<g id="edge73" class="edge">
<title>sr6_local&#45;&gt;ip_input</title>
<path fill="none" stroke="black" d="M441.53,-420C462.78,-420 492.63,-420 516.06,-420"/>
<polygon fill="black" stroke="black" points="516.32,-423.5 526.32,-420 516.32,-416.5 516.32,-423.5"/>
</g>
<!-- sr6_local&#45;&gt;ip6_input -->
<g id="edge74" class="edge">
<title>sr6_local&#45;&gt;ip6_input</title>
<path fill="none" stroke="black" d="M387.11,-425.58C369.22,-426.89 345.03,-427.1 325.14,-426.2"/>
<polygon fill="black" stroke="black" points="325.09,-422.7 314.9,-425.61 324.68,-429.68 325.09,-422.7"/>
</g>
<!-- sr6_local&#45;&gt;ip6_input_local -->
<g id="edge75" class="edge">
<title>sr6_local&#45;&gt;ip6_input_local</title>
<path fill="none" stroke="black" d="M433.48,-407.4C456.03,-392.39 494.03,-367.09 521.08,-349.08"/>
<polygon fill="black" stroke="black" points="523.06,-351.97 529.45,-343.51 519.18,-346.14 523.06,-351.97"/>
</g>
<!-- l4_loopback_output&#45;&gt;loopback_output -->
<g id="edge72" class="edge">
<title>l4_loopback_output&#45;&gt;loopback_output</title>
<path fill="none" stroke="black" d="M1140.22,-144.43C1210.08,-134.34 1333.31,-116.52 1405.13,-106.14"/>
<polygon fill="black" stroke="black" points="1405.94,-109.56 1415.34,-104.67 1404.94,-102.63 1405.94,-109.56"/>
</g>
</g>
</svg>
