<?xml version="1.0" encoding="UTF-8" standalone="no"?>
<!DOCTYPE svg PUBLIC "-//W3C//DTD SVG 1.1//EN"
 "http://www.w3.org/Graphics/SVG/1.1/DTD/svg11.dtd">
<!-- Generated by graphviz version 2.42.4 (0)
 -->
<!-- Title: gr&#45;0003 Pages: 1 -->
<svg width="1951pt" height="856pt"
 viewBox="0.00 0.00 1951.48 856.00" xmlns="http://www.w3.org/2000/svg" xmlns:xlink="http://www.w3.org/1999/xlink">
<g id="graph0" class="graph" transform="scale(1 1) rotate(0) translate(4 852)">
<title>gr&#45;0003</title>
<polygon fill="white" stroke="transparent" points="-4,4 -4,-852 1947.48,-852 1947.48,4 -4,4"/>
<!-- control_input -->
<g id="node1" class="node">
<title>control_input</title>
<ellipse fill="none" stroke="blue" stroke-width="2" cx="39.08" cy="-601" rx="39.15" ry="18"/>
<text text-anchor="middle" x="39.08" y="-598.2" font-family="sans" font-size="11.00">control_input</text>
</g>
<!-- loopback_input -->
<g id="node2" class="node">
<title>loopback_input</title>
<ellipse fill="none" stroke="black" cx="158.65" cy="-383" rx="44.51" ry="18"/>
<text text-anchor="middle" x="158.65" y="-380.2" font-family="sans" font-size="11.00">loopback_input</text>
</g>
<!-- control_input&#45;&gt;loopback_input -->
<g id="edge1" class="edge">
<title>control_input&#45;&gt;loopback_input</title>
<path fill="none" stroke="blue" stroke-width="2" d="M49.5,-583.53C70.05,-545.42 119.02,-454.64 143.38,-409.47"/>
<polygon fill="blue" stroke="blue" stroke-width="2" points="146.52,-411.02 148.19,-400.55 140.36,-407.69 146.52,-411.02"/>
</g>
<!-- arp_output_request -->
<g id="node3" class="node">
<title>arp_output_request</title>
<ellipse fill="none" stroke="black" cx="426.03" cy="-631" rx="56.39" ry="18"/>
<text text-anchor="middle" x="426.03" y="-628.2" font-family="sans" font-size="11.00">arp_output_request</text>
</g>
<!-- control_input&#45;&gt;arp_output_request -->
<g id="edge2" class="edge">
<title>control_input&#45;&gt;arp_output_request</title>
<path fill="none" stroke="blue" stroke-width="2" d="M77.69,-603.93C143.46,-609.06 280.04,-619.7 360.96,-626.01"/>
<polygon fill="blue" stroke="blue" stroke-width="2" points="360.78,-629.5 371.03,-626.79 361.33,-622.52 360.78,-629.5"/>
</g>
<!-- icmp_local_send -->
<g id="node4" class="node">
<title>icmp_local_send</title>
<ellipse fill="none" stroke="black" cx="286.37" cy="-483" rx="47.43" ry="18"/>
<text text-anchor="middle" x="286.37" y="-480.2" font-family="sans" font-size="11.00">icmp_local_send</text>
</g>
<!-- control_input&#45;&gt;icmp_local_send -->
<g id="edge3" class="edge">
<title>control_input&#45;&gt;icmp_local_send</title>
<path fill="none" stroke="blue" stroke-width="2" d="M50.15,-583.35C62.52,-563.39 85.46,-531.51 114.15,-515 148.98,-494.95 193.79,-487.1 228.83,-484.18"/>
<polygon fill="blue" stroke="blue" stroke-width="2" points="229.18,-487.66 238.9,-483.45 228.67,-480.68 229.18,-487.66"/>
</g>
<!-- icmp6_local_send -->
<g id="node5" class="node">
<title>icmp6_local_send</title>
<ellipse fill="none" stroke="black" cx="702.64" cy="-784" rx="50.45" ry="18"/>
<text text-anchor="middle" x="702.64" y="-781.2" font-family="sans" font-size="11.00">icmp6_local_send</text>
</g>
<!-- control_input&#45;&gt;icmp6_local_send -->
<g id="edge4" class="edge">
<title>control_input&#45;&gt;icmp6_local_send</title>
<path fill="none" stroke="blue" stroke-width="2" d="M44.18,-619.03C52.12,-649.58 72.58,-711.31 114.15,-743 176.07,-790.2 207.52,-780 285.37,-780 285.37,-780 285.37,-780 427.03,-780 501.1,-780 586.38,-781.47 642,-782.63"/>
<polygon fill="blue" stroke="blue" stroke-width="2" points="641.96,-786.13 652.03,-782.84 642.11,-779.13 641.96,-786.13"/>
</g>
<!-- ndp_ns_output -->
<g id="node6" class="node">
<title>ndp_ns_output</title>
<ellipse fill="none" stroke="black" cx="832.53" cy="-830" rx="43.34" ry="18"/>
<text text-anchor="middle" x="832.53" y="-827.2" font-family="sans" font-size="11.00">ndp_ns_output</text>
</g>
<!-- control_input&#45;&gt;ndp_ns_output -->
<g id="edge5" class="edge">
<title>control_input&#45;&gt;ndp_ns_output</title>
<path fill="none" stroke="blue" stroke-width="2" d="M42.73,-619.12C48.82,-654.28 67.1,-732.07 114.15,-775 173.2,-828.87 205.45,-830 285.37,-830 285.37,-830 285.37,-830 568.32,-830 641.15,-830 725.31,-830 778.47,-830"/>
<polygon fill="blue" stroke="blue" stroke-width="2" points="778.68,-833.5 788.68,-830 778.68,-826.5 778.68,-833.5"/>
</g>
<!-- ip_output -->
<g id="node7" class="node">
<title>ip_output</title>
<ellipse fill="none" stroke="black" cx="832.53" cy="-385" rx="28.44" ry="18"/>
<text text-anchor="middle" x="832.53" y="-382.2" font-family="sans" font-size="11.00">ip_output</text>
</g>
<!-- control_input&#45;&gt;ip_output -->
<g id="edge6" class="edge">
<title>control_input&#45;&gt;ip_output</title>
<path fill="none" stroke="blue" stroke-width="2" d="M58.93,-585.45C73.2,-574.54 93.76,-560.61 114.15,-553 186.15,-526.14 208.53,-529 285.37,-529 285.37,-529 285.37,-529 427.03,-529 575.88,-529 738.62,-441.39 803.02,-402.84"/>
<polygon fill="blue" stroke="blue" stroke-width="2" points="805.06,-405.7 811.8,-397.53 801.43,-399.71 805.06,-405.7"/>
</g>
<!-- arp_output_reply -->
<g id="node8" class="node">
<title>arp_output_reply</title>
<ellipse fill="none" stroke="black" cx="567.32" cy="-674" rx="48.69" ry="18"/>
<text text-anchor="middle" x="567.32" y="-671.2" font-family="sans" font-size="11.00">arp_output_reply</text>
</g>
<!-- control_input&#45;&gt;arp_output_reply -->
<g id="edge7" class="edge">
<title>control_input&#45;&gt;arp_output_reply</title>
<path fill="none" stroke="blue" stroke-width="2" d="M70.76,-611.8C83.97,-616.12 99.69,-620.82 114.15,-624 253.68,-654.72 421.8,-666.99 508.43,-671.55"/>
<polygon fill="blue" stroke="blue" stroke-width="2" points="508.42,-675.05 518.59,-672.06 508.78,-668.06 508.42,-675.05"/>
</g>
<!-- ip6_output -->
<g id="node9" class="node">
<title>ip6_output</title>
<ellipse fill="none" stroke="black" cx="1059.21" cy="-488" rx="31.46" ry="18"/>
<text text-anchor="middle" x="1059.21" y="-485.2" font-family="sans" font-size="11.00">ip6_output</text>
</g>
<!-- control_input&#45;&gt;ip6_output -->
<g id="edge8" class="edge">
<title>control_input&#45;&gt;ip6_output</title>
<path fill="none" stroke="blue" stroke-width="2" d="M70.57,-590.09C116.85,-579.57 207.68,-567 285.37,-567 285.37,-567 285.37,-567 568.32,-567 738.2,-567 936.06,-515.1 1018.75,-495.09"/>
<polygon fill="blue" stroke="blue" stroke-width="2" points="1019.81,-498.44 1028.72,-492.71 1018.18,-491.63 1019.81,-498.44"/>
</g>
<!-- control_input&#45;&gt;ip6_output -->
<g id="edge10" class="edge">
<title>control_input&#45;&gt;ip6_output</title>
<path fill="none" stroke="blue" stroke-width="2" d="M78.19,-600.96C126.32,-596.29 211.75,-585 285.37,-585 285.37,-585 285.37,-585 568.32,-585 742.4,-585 945.87,-530.5 1024.67,-502.9"/>
<polygon fill="blue" stroke="blue" stroke-width="2" points="1026.3,-506.03 1034.52,-499.35 1023.92,-499.45 1026.3,-506.03"/>
</g>
<!-- ndp_na_output -->
<g id="node10" class="node">
<title>ndp_na_output</title>
<ellipse fill="none" stroke="black" cx="1059.21" cy="-738" rx="43.92" ry="18"/>
<text text-anchor="middle" x="1059.21" y="-735.2" font-family="sans" font-size="11.00">ndp_na_output</text>
</g>
<!-- control_input&#45;&gt;ndp_na_output -->
<g id="edge9" class="edge">
<title>control_input&#45;&gt;ndp_na_output</title>
<path fill="none" stroke="blue" stroke-width="2" d="M56.93,-617.21C94.58,-651.65 189.78,-729 285.37,-729 285.37,-729 285.37,-729 833.53,-729 892.38,-729 959.84,-732.12 1005.35,-734.69"/>
<polygon fill="blue" stroke="blue" stroke-width="2" points="1005.39,-738.2 1015.57,-735.28 1005.79,-731.21 1005.39,-738.2"/>
</g>
<!-- ip_input -->
<g id="node14" class="node">
<title>ip_input</title>
<ellipse fill="none" stroke="black" cx="286.37" cy="-292" rx="27" ry="18"/>
<text text-anchor="middle" x="286.37" y="-289.2" font-family="sans" font-size="11.00">ip_input</text>
</g>
<!-- loopback_input&#45;&gt;ip_input -->
<g id="edge16" class="edge">
<title>loopback_input&#45;&gt;ip_input</title>
<path fill="none" stroke="black" d="M181.27,-367.36C202.81,-351.77 235.91,-327.8 258.99,-311.1"/>
<polygon fill="black" stroke="black" points="261.25,-313.78 267.3,-305.08 257.15,-308.11 261.25,-313.78"/>
</g>
<!-- ip6_input -->
<g id="node15" class="node">
<title>ip6_input</title>
<ellipse fill="none" stroke="black" cx="1266.89" cy="-313" rx="27.86" ry="18"/>
<text text-anchor="middle" x="1266.89" y="-310.2" font-family="sans" font-size="11.00">ip6_input</text>
</g>
<!-- loopback_input&#45;&gt;ip6_input -->
<g id="edge17" class="edge">
<title>loopback_input&#45;&gt;ip6_input</title>
<path fill="none" stroke="black" d="M201.58,-378.19C315.53,-365.37 640.56,-330.42 911.95,-317 1027.36,-311.29 1164.18,-311.81 1228.69,-312.49"/>
<polygon fill="black" stroke="black" points="1228.74,-315.99 1238.78,-312.6 1228.82,-308.99 1228.74,-315.99"/>
</g>
<!-- eth_output -->
<g id="node16" class="node">
<title>eth_output</title>
<ellipse fill="none" stroke="black" cx="1171.19" cy="-646" rx="32.04" ry="18"/>
<text text-anchor="middle" x="1171.19" y="-643.2" font-family="sans" font-size="11.00">eth_output</text>
</g>
<!-- arp_output_request&#45;&gt;eth_output -->
<g id="edge26" class="edge">
<title>arp_output_request&#45;&gt;eth_output</title>
<path fill="none" stroke="black" d="M482.25,-628.77C537.69,-626.72 625.57,-624 701.64,-624 701.64,-624 701.64,-624 833.53,-624 940.61,-624 1066.45,-635.22 1129.64,-641.63"/>
<polygon fill="black" stroke="black" points="1129.29,-645.12 1139.59,-642.66 1130,-638.15 1129.29,-645.12"/>
</g>
<!-- icmp_output -->
<g id="node24" class="node">
<title>icmp_output</title>
<ellipse fill="none" stroke="black" cx="702.64" cy="-370" rx="36.81" ry="18"/>
<text text-anchor="middle" x="702.64" y="-367.2" font-family="sans" font-size="11.00">icmp_output</text>
</g>
<!-- icmp_local_send&#45;&gt;icmp_output -->
<g id="edge29" class="edge">
<title>icmp_local_send&#45;&gt;icmp_output</title>
<path fill="none" stroke="black" d="M333.44,-481.48C398.59,-477.96 520.4,-466.36 616.17,-428 637.86,-419.31 659.61,-404.44 675.74,-391.94"/>
<polygon fill="black" stroke="black" points="677.99,-394.62 683.63,-385.66 673.63,-389.14 677.99,-394.62"/>
</g>
<!-- icmp6_output -->
<g id="node33" class="node">
<title>icmp6_output</title>
<ellipse fill="none" stroke="black" cx="1625.08" cy="-738" rx="40.32" ry="18"/>
<text text-anchor="middle" x="1625.08" y="-735.2" font-family="sans" font-size="11.00">icmp6_output</text>
</g>
<!-- icmp6_local_send&#45;&gt;icmp6_output -->
<g id="edge50" class="edge">
<title>icmp6_local_send&#45;&gt;icmp6_output</title>
<path fill="none" stroke="black" d="M753.48,-784C802.21,-784 878.5,-784 944.6,-784 944.6,-784 944.6,-784 1374.98,-784 1448.63,-784 1532.52,-764.32 1581.73,-750.7"/>
<polygon fill="black" stroke="black" points="1582.72,-754.06 1591.39,-747.98 1580.82,-747.32 1582.72,-754.06"/>
</g>
<!-- ndp_ns_output&#45;&gt;icmp6_output -->
<g id="edge66" class="edge">
<title>ndp_ns_output&#45;&gt;icmp6_output</title>
<path fill="none" stroke="black" d="M876.18,-828.79C921.37,-827.61 994.81,-826 1058.21,-826 1058.21,-826 1058.21,-826 1374.98,-826 1446.15,-826 1466.5,-824.28 1532.64,-798 1555.99,-788.72 1579.64,-773 1597.03,-759.98"/>
<polygon fill="black" stroke="black" points="1599.23,-762.7 1605.04,-753.84 1594.97,-757.15 1599.23,-762.7"/>
</g>
<!-- ip_output&#45;&gt;eth_output -->
<g id="edge39" class="edge">
<title>ip_output&#45;&gt;eth_output</title>
<path fill="none" stroke="black" d="M845.77,-401.04C860.35,-419.58 886.02,-450.42 911.95,-473 922.17,-481.91 1075.6,-583.52 1141.01,-626.74"/>
<polygon fill="black" stroke="black" points="1139.36,-629.84 1149.63,-632.43 1143.21,-624 1139.36,-629.84"/>
</g>
<!-- loopback_output -->
<g id="node19" class="node">
<title>loopback_output</title>
<ellipse fill="none" stroke="black" cx="1769.62" cy="-417" rx="48.69" ry="18"/>
<text text-anchor="middle" x="1769.62" y="-414.2" font-family="sans" font-size="11.00">loopback_output</text>
</g>
<!-- ip_output&#45;&gt;loopback_output -->
<g id="edge41" class="edge">
<title>ip_output&#45;&gt;loopback_output</title>
<path fill="none" stroke="black" d="M860.88,-386.82C957.54,-393.16 1292.09,-414.23 1568.64,-421 1618.79,-422.23 1631.36,-422.15 1681.52,-421 1691.07,-420.78 1701.2,-420.43 1711.05,-420.02"/>
<polygon fill="black" stroke="black" points="1711.33,-423.51 1721.17,-419.57 1711.03,-416.52 1711.33,-423.51"/>
</g>
<!-- ip_hold -->
<g id="node26" class="node">
<title>ip_hold</title>
<ellipse fill="none" stroke="black" cx="1059.21" cy="-354" rx="27" ry="18"/>
<text text-anchor="middle" x="1059.21" y="-351.2" font-family="sans" font-size="11.00">ip_hold</text>
</g>
<!-- ip_output&#45;&gt;ip_hold -->
<g id="edge40" class="edge">
<title>ip_output&#45;&gt;ip_hold</title>
<path fill="none" stroke="black" d="M848.04,-369.69C862.62,-355.51 886.54,-335.38 911.95,-327 950.73,-314.22 997.4,-327.53 1027.42,-339.57"/>
<polygon fill="black" stroke="black" points="1026.35,-342.92 1036.93,-343.57 1029.07,-336.47 1026.35,-342.92"/>
</g>
<!-- ipip_output -->
<g id="node30" class="node">
<title>ipip_output</title>
<ellipse fill="none" stroke="black" cx="945.6" cy="-354" rx="33.8" ry="18"/>
<text text-anchor="middle" x="945.6" y="-351.2" font-family="sans" font-size="11.00">ipip_output</text>
</g>
<!-- ip_output&#45;&gt;ipip_output -->
<g id="edge42" class="edge">
<title>ip_output&#45;&gt;ipip_output</title>
<path fill="none" stroke="black" d="M854.68,-373.66C868.13,-368.71 886.01,-363.34 902.28,-359.23"/>
<polygon fill="black" stroke="black" points="903.25,-362.6 912.16,-356.85 901.61,-355.79 903.25,-362.6"/>
</g>
<!-- sr6_steer -->
<g id="node31" class="node">
<title>sr6_steer</title>
<ellipse fill="none" stroke="black" cx="945.6" cy="-446" rx="27" ry="18"/>
<text text-anchor="middle" x="945.6" y="-443.2" font-family="sans" font-size="11.00">sr6_steer</text>
</g>
<!-- ip_output&#45;&gt;sr6_steer -->
<g id="edge43" class="edge">
<title>ip_output&#45;&gt;sr6_steer</title>
<path fill="none" stroke="black" d="M854.42,-396.47C871.59,-405.91 896.12,-419.38 915.27,-429.89"/>
<polygon fill="black" stroke="black" points="913.72,-433.04 924.17,-434.78 917.09,-426.9 913.72,-433.04"/>
</g>
<!-- arp_output_reply&#45;&gt;eth_output -->
<g id="edge25" class="edge">
<title>arp_output_reply&#45;&gt;eth_output</title>
<path fill="none" stroke="black" d="M615.8,-671.79C730.51,-666.45 1021.19,-652.93 1129.07,-647.91"/>
<polygon fill="black" stroke="black" points="1129.39,-651.4 1139.22,-647.44 1129.07,-644.41 1129.39,-651.4"/>
</g>
<!-- ip6_output&#45;&gt;eth_output -->
<g id="edge58" class="edge">
<title>ip6_output&#45;&gt;eth_output</title>
<path fill="none" stroke="black" d="M1076.71,-503.08C1085.35,-511.57 1095.66,-522.72 1103.17,-534 1124.76,-566.46 1117.27,-581.74 1139.17,-614 1141.29,-617.13 1143.73,-620.23 1146.3,-623.2"/>
<polygon fill="black" stroke="black" points="1143.86,-625.72 1153.23,-630.68 1149,-620.96 1143.86,-625.72"/>
</g>
<!-- ip6_output&#45;&gt;loopback_output -->
<g id="edge60" class="edge">
<title>ip6_output&#45;&gt;loopback_output</title>
<path fill="none" stroke="black" d="M1089.01,-493.96C1128.66,-501.64 1202.36,-514 1265.89,-514 1265.89,-514 1265.89,-514 1494.02,-514 1540.91,-514 1664,-463.08 1728.26,-435.03"/>
<polygon fill="black" stroke="black" points="1729.93,-438.12 1737.68,-430.9 1727.11,-431.71 1729.93,-438.12"/>
</g>
<!-- ip6_output&#45;&gt;sr6_steer -->
<g id="edge62" class="edge">
<title>ip6_output&#45;&gt;sr6_steer</title>
<path fill="none" stroke="black" d="M1028.66,-482.92C1011.94,-477.61 991.14,-469.75 974.67,-462.51"/>
<polygon fill="black" stroke="black" points="976.08,-459.31 965.53,-458.34 973.18,-465.68 976.08,-459.31"/>
</g>
<!-- ip6_hold -->
<g id="node38" class="node">
<title>ip6_hold</title>
<ellipse fill="none" stroke="black" cx="1266.89" cy="-560" rx="27" ry="18"/>
<text text-anchor="middle" x="1266.89" y="-557.2" font-family="sans" font-size="11.00">ip6_hold</text>
</g>
<!-- ip6_output&#45;&gt;ip6_hold -->
<g id="edge59" class="edge">
<title>ip6_output&#45;&gt;ip6_hold</title>
<path fill="none" stroke="black" d="M1082.07,-500.74C1097.6,-509.36 1119.16,-520.51 1139.17,-528 1169.24,-539.25 1204.78,-547.84 1230.56,-553.28"/>
<polygon fill="black" stroke="black" points="1230.12,-556.76 1240.62,-555.34 1231.53,-549.9 1230.12,-556.76"/>
</g>
<!-- sr6_local -->
<g id="node40" class="node">
<title>sr6_local</title>
<ellipse fill="none" stroke="black" cx="1171.19" cy="-354" rx="27" ry="18"/>
<text text-anchor="middle" x="1171.19" y="-351.2" font-family="sans" font-size="11.00">sr6_local</text>
</g>
<!-- ip6_output&#45;&gt;sr6_local -->
<g id="edge61" class="edge">
<title>ip6_output&#45;&gt;sr6_local</title>
<path fill="none" stroke="black" d="M1070.75,-470.97C1088.29,-446.74 1123.85,-402.94 1147.35,-376.23"/>
<polygon fill="black" stroke="black" points="1150.17,-378.32 1154.22,-368.53 1144.95,-373.66 1150.17,-378.32"/>
</g>
<!-- ndp_na_output&#45;&gt;icmp6_output -->
<g id="edge64" class="edge">
<title>ndp_na_output&#45;&gt;icmp6_output</title>
<path fill="none" stroke="black" d="M1103.54,-738C1145.17,-738 1209.82,-738 1265.89,-738 1265.89,-738 1265.89,-738 1374.98,-738 1444.22,-738 1524.29,-738 1574.56,-738"/>
<polygon fill="black" stroke="black" points="1574.82,-741.5 1584.82,-738 1574.82,-734.5 1574.82,-741.5"/>
</g>
<!-- control_output -->
<g id="node11" class="node">
<title>control_output</title>
<ellipse fill="none" stroke="black" cx="1900.6" cy="-229" rx="42.75" ry="18"/>
<text text-anchor="middle" x="1900.6" y="-226.2" font-family="sans" font-size="11.00">control_output</text>
</g>
<!-- eth_input -->
<g id="node12" class="node">
<title>eth_input</title>
<ellipse fill="none" stroke="black" cx="158.65" cy="-222" rx="27.86" ry="18"/>
<text text-anchor="middle" x="158.65" y="-219.2" font-family="sans" font-size="11.00">eth_input</text>
</g>
<!-- arp_input -->
<g id="node13" class="node">
<title>arp_input</title>
<ellipse fill="none" stroke="black" cx="1625.08" cy="-72" rx="28.44" ry="18"/>
<text text-anchor="middle" x="1625.08" y="-69.2" font-family="sans" font-size="11.00">arp_input</text>
</g>
<!-- eth_input&#45;&gt;arp_input -->
<g id="edge11" class="edge">
<title>eth_input&#45;&gt;arp_input</title>
<path fill="none" stroke="black" d="M174.22,-206.93C211.91,-169.62 317.23,-76 425.03,-76 425.03,-76 425.03,-76 1374.98,-76 1450.13,-76 1538.02,-74.16 1586.74,-72.97"/>
<polygon fill="black" stroke="black" points="1586.9,-76.47 1596.81,-72.72 1586.72,-69.47 1586.9,-76.47"/>
</g>
<!-- eth_input&#45;&gt;ip_input -->
<g id="edge12" class="edge">
<title>eth_input&#45;&gt;ip_input</title>
<path fill="none" stroke="black" d="M180.13,-233.4C200.77,-244.89 232.82,-262.74 256.13,-275.72"/>
<polygon fill="black" stroke="black" points="254.46,-278.8 264.9,-280.6 257.87,-272.68 254.46,-278.8"/>
</g>
<!-- eth_input&#45;&gt;ip6_input -->
<g id="edge13" class="edge">
<title>eth_input&#45;&gt;ip6_input</title>
<path fill="none" stroke="black" d="M182.23,-212.11C227.4,-193.25 332.53,-154 425.03,-154 425.03,-154 425.03,-154 568.32,-154 736.5,-154 776.42,-194 944.6,-194 944.6,-194 944.6,-194 1060.21,-194 1136.15,-194 1209.22,-255.53 1244.29,-290.1"/>
<polygon fill="black" stroke="black" points="1242.05,-292.81 1251.58,-297.44 1247.01,-287.88 1242.05,-292.81"/>
</g>
<!-- arp_input_request -->
<g id="node21" class="node">
<title>arp_input_request</title>
<ellipse fill="none" stroke="black" cx="1769.62" cy="-72" rx="52.2" ry="18"/>
<text text-anchor="middle" x="1769.62" y="-69.2" font-family="sans" font-size="11.00">arp_input_request</text>
</g>
<!-- arp_input&#45;&gt;arp_input_request -->
<g id="edge21" class="edge">
<title>arp_input&#45;&gt;arp_input_request</title>
<path fill="none" stroke="black" d="M1653.56,-72C1668.79,-72 1688.36,-72 1707.03,-72"/>
<polygon fill="black" stroke="black" points="1707.28,-75.5 1717.28,-72 1707.28,-68.5 1707.28,-75.5"/>
</g>
<!-- arp_input_reply -->
<g id="node22" class="node">
<title>arp_input_reply</title>
<ellipse fill="none" stroke="black" cx="1769.62" cy="-18" rx="45.09" ry="18"/>
<text text-anchor="middle" x="1769.62" y="-15.2" font-family="sans" font-size="11.00">arp_input_reply</text>
</g>
<!-- arp_input&#45;&gt;arp_input_reply -->
<g id="edge22" class="edge">
<title>arp_input&#45;&gt;arp_input_reply</title>
<path fill="none" stroke="black" d="M1649.62,-63.08C1670.49,-55.18 1701.47,-43.44 1726.59,-33.92"/>
<polygon fill="black" stroke="black" points="1728.14,-37.08 1736.25,-30.27 1725.66,-30.53 1728.14,-37.08"/>
</g>
<!-- ip_input&#45;&gt;ip_output -->
<g id="edge34" class="edge">
<title>ip_input&#45;&gt;ip_output</title>
<path fill="none" stroke="black" d="M307.01,-303.82C323.28,-313.18 347.27,-325.96 369.59,-334 490.65,-377.62 524.27,-382.92 652.17,-397 696.76,-401.91 708.38,-400.4 753.11,-397 766.87,-395.95 781.88,-393.89 795.04,-391.76"/>
<polygon fill="black" stroke="black" points="795.87,-395.17 805.15,-390.06 794.71,-388.27 795.87,-395.17"/>
</g>
<!-- ip_forward -->
<g id="node25" class="node">
<title>ip_forward</title>
<ellipse fill="none" stroke="black" cx="702.64" cy="-278" rx="32.04" ry="18"/>
<text text-anchor="middle" x="702.64" y="-275.2" font-family="sans" font-size="11.00">ip_forward</text>
</g>
<!-- ip_input&#45;&gt;ip_forward -->
<g id="edge33" class="edge">
<title>ip_input&#45;&gt;ip_forward</title>
<path fill="none" stroke="black" d="M311.66,-298.96C366.62,-313.63 504.47,-344.4 616.17,-319 635.75,-314.55 656.09,-305.02 672.01,-296.27"/>
<polygon fill="black" stroke="black" points="673.87,-299.24 680.84,-291.25 670.41,-293.15 673.87,-299.24"/>
</g>
<!-- ip_input_local -->
<g id="node27" class="node">
<title>ip_input_local</title>
<ellipse fill="none" stroke="black" cx="426.03" cy="-242" rx="40.32" ry="18"/>
<text text-anchor="middle" x="426.03" y="-239.2" font-family="sans" font-size="11.00">ip_input_local</text>
</g>
<!-- ip_input&#45;&gt;ip_input_local -->
<g id="edge35" class="edge">
<title>ip_input&#45;&gt;ip_input_local</title>
<path fill="none" stroke="black" d="M310.42,-283.63C330.66,-276.28 360.59,-265.41 384.78,-256.62"/>
<polygon fill="black" stroke="black" points="386.21,-259.82 394.42,-253.12 383.82,-253.24 386.21,-259.82"/>
</g>
<!-- ip6_input&#45;&gt;ip6_output -->
<g id="edge54" class="edge">
<title>ip6_input&#45;&gt;ip6_output</title>
<path fill="none" stroke="black" d="M1252.94,-328.62C1240.76,-342.91 1221.68,-364.33 1203.21,-381 1166.08,-414.51 1118.96,-448.28 1089.18,-468.67"/>
<polygon fill="black" stroke="black" points="1086.83,-466.04 1080.53,-474.55 1090.77,-471.82 1086.83,-466.04"/>
</g>
<!-- ip6_forward -->
<g id="node37" class="node">
<title>ip6_forward</title>
<ellipse fill="none" stroke="black" cx="1373.98" cy="-463" rx="35.06" ry="18"/>
<text text-anchor="middle" x="1373.98" y="-460.2" font-family="sans" font-size="11.00">ip6_forward</text>
</g>
<!-- ip6_input&#45;&gt;ip6_forward -->
<g id="edge53" class="edge">
<title>ip6_input&#45;&gt;ip6_forward</title>
<path fill="none" stroke="black" d="M1279.33,-329.34C1297.54,-355.32 1333.25,-406.29 1354.92,-437.23"/>
<polygon fill="black" stroke="black" points="1352.3,-439.58 1360.9,-445.76 1358.03,-435.56 1352.3,-439.58"/>
</g>
<!-- ip6_input_local -->
<g id="node39" class="node">
<title>ip6_input_local</title>
<ellipse fill="none" stroke="black" cx="1373.98" cy="-333" rx="43.34" ry="18"/>
<text text-anchor="middle" x="1373.98" y="-330.2" font-family="sans" font-size="11.00">ip6_input_local</text>
</g>
<!-- ip6_input&#45;&gt;ip6_input_local -->
<g id="edge55" class="edge">
<title>ip6_input&#45;&gt;ip6_input_local</title>
<path fill="none" stroke="black" d="M1293.6,-317.89C1302.81,-319.65 1313.52,-321.68 1324.04,-323.69"/>
<polygon fill="black" stroke="black" points="1323.53,-327.15 1334.01,-325.58 1324.84,-320.28 1323.53,-327.15"/>
</g>
<!-- port_tx -->
<g id="node17" class="node">
<title>port_tx</title>
<ellipse fill="none" stroke="black" cx="1266.89" cy="-672" rx="27" ry="18"/>
<text text-anchor="middle" x="1266.89" y="-669.2" font-family="sans" font-size="11.00">port_tx</text>
</g>
<!-- eth_output&#45;&gt;port_tx -->
<g id="edge14" class="edge">
<title>eth_output&#45;&gt;port_tx</title>
<path fill="none" stroke="black" d="M1200.3,-653.8C1210.16,-656.54 1221.36,-659.64 1231.67,-662.5"/>
<polygon fill="black" stroke="black" points="1231.03,-665.96 1241.6,-665.26 1232.9,-659.21 1231.03,-665.96"/>
</g>
<!-- l1_xconnect -->
<g id="node18" class="node">
<title>l1_xconnect</title>
<ellipse fill="none" stroke="black" cx="286.37" cy="-429" rx="34.38" ry="18"/>
<text text-anchor="middle" x="286.37" y="-426.2" font-family="sans" font-size="11.00">l1_xconnect</text>
</g>
<!-- l1_xconnect&#45;&gt;port_tx -->
<g id="edge15" class="edge">
<title>l1_xconnect&#45;&gt;port_tx</title>
<path fill="none" stroke="black" d="M314.35,-439.74C418.49,-480.56 805.17,-626.11 1139.17,-673 1169.48,-677.26 1204.27,-676.59 1229.72,-675.1"/>
<polygon fill="black" stroke="black" points="1230.27,-678.57 1240.01,-674.42 1229.8,-671.58 1230.27,-678.57"/>
</g>
<!-- loopback_output&#45;&gt;control_output -->
<g id="edge18" class="edge">
<title>loopback_output&#45;&gt;control_output</title>
<path fill="none" stroke="black" d="M1785.54,-399.81C1796.07,-387.39 1810.28,-370.05 1821.73,-354 1845.25,-320.99 1869.51,-280.93 1884.56,-255.21"/>
<polygon fill="black" stroke="black" points="1887.67,-256.82 1889.67,-246.42 1881.62,-253.3 1887.67,-256.82"/>
</g>
<!-- port_rx -->
<g id="node20" class="node">
<title>port_rx</title>
<ellipse fill="none" stroke="blue" stroke-width="2" cx="39.08" cy="-359" rx="27" ry="18"/>
<text text-anchor="middle" x="39.08" y="-356.2" font-family="sans" font-size="11.00">port_rx</text>
</g>
<!-- port_rx&#45;&gt;eth_input -->
<g id="edge19" class="edge">
<title>port_rx&#45;&gt;eth_input</title>
<path fill="none" stroke="blue" stroke-width="2" d="M53.34,-343.55C73.89,-319.6 113.57,-273.37 137.63,-245.33"/>
<polygon fill="blue" stroke="blue" stroke-width="2" points="140.41,-247.47 144.26,-237.6 135.09,-242.91 140.41,-247.47"/>
</g>
<!-- port_rx&#45;&gt;l1_xconnect -->
<g id="edge20" class="edge">
<title>port_rx&#45;&gt;l1_xconnect</title>
<path fill="none" stroke="blue" stroke-width="2" d="M55.81,-373.31C69.97,-385.29 91.91,-401.71 114.15,-410 155.73,-425.5 206.62,-429.41 242.07,-429.97"/>
<polygon fill="blue" stroke="blue" stroke-width="2" points="242.06,-433.47 252.09,-430.04 242.11,-426.47 242.06,-433.47"/>
</g>
<!-- arp_input_request&#45;&gt;control_output -->
<g id="edge24" class="edge">
<title>arp_input_request&#45;&gt;control_output</title>
<path fill="none" stroke="black" d="M1799.36,-86.83C1807.15,-91.66 1815.22,-97.48 1821.73,-104 1850.68,-133.02 1873.91,-174.71 1887.23,-201.83"/>
<polygon fill="black" stroke="black" points="1884.2,-203.6 1891.68,-211.11 1890.51,-200.58 1884.2,-203.6"/>
</g>
<!-- arp_input_reply&#45;&gt;control_output -->
<g id="edge23" class="edge">
<title>arp_input_reply&#45;&gt;control_output</title>
<path fill="none" stroke="black" d="M1802.44,-30.5C1809.45,-34.35 1816.37,-39.16 1821.73,-45 1863.51,-90.53 1884.86,-161.81 1893.97,-200.94"/>
<polygon fill="black" stroke="black" points="1890.59,-201.85 1896.17,-210.85 1897.42,-200.33 1890.59,-201.85"/>
</g>
<!-- icmp_input -->
<g id="node23" class="node">
<title>icmp_input</title>
<ellipse fill="none" stroke="black" cx="567.32" cy="-238" rx="32.63" ry="18"/>
<text text-anchor="middle" x="567.32" y="-235.2" font-family="sans" font-size="11.00">icmp_input</text>
</g>
<!-- icmp_input&#45;&gt;control_output -->
<g id="edge28" class="edge">
<title>icmp_input&#45;&gt;control_output</title>
<path fill="none" stroke="black" d="M599.92,-236.81C649.33,-235.07 747.89,-232 831.53,-232 831.53,-232 831.53,-232 946.6,-232 1097.28,-232 1115.21,-118 1265.89,-118 1265.89,-118 1265.89,-118 1626.08,-118 1714.19,-118 1743.47,-109.52 1821.73,-150 1845.98,-162.55 1867.26,-185.43 1881.42,-203.35"/>
<polygon fill="black" stroke="black" points="1878.93,-205.86 1887.77,-211.68 1884.49,-201.61 1878.93,-205.86"/>
</g>
<!-- icmp_input&#45;&gt;icmp_output -->
<g id="edge27" class="edge">
<title>icmp_input&#45;&gt;icmp_output</title>
<path fill="none" stroke="black" d="M592.83,-249.54C600.69,-253.82 609.17,-259.1 616.17,-265 631.08,-277.58 662.6,-318.01 682.92,-344.87"/>
<polygon fill="black" stroke="black" points="680.27,-347.18 689.08,-353.06 685.87,-342.97 680.27,-347.18"/>
</g>
<!-- icmp_output&#45;&gt;ip_output -->
<g id="edge30" class="edge">
<title>icmp_output&#45;&gt;ip_output</title>
<path fill="none" stroke="black" d="M738.59,-374.1C756.02,-376.14 777.1,-378.62 794.78,-380.69"/>
<polygon fill="black" stroke="black" points="794.4,-384.17 804.74,-381.86 795.22,-377.22 794.4,-384.17"/>
</g>
<!-- ip_forward&#45;&gt;ip_output -->
<g id="edge31" class="edge">
<title>ip_forward&#45;&gt;ip_output</title>
<path fill="none" stroke="black" d="M721.42,-292.88C743.62,-311.45 781.71,-343.32 806.76,-364.28"/>
<polygon fill="black" stroke="black" points="804.8,-367.2 814.71,-370.93 809.29,-361.83 804.8,-367.2"/>
</g>
<!-- ip_hold&#45;&gt;control_output -->
<g id="edge32" class="edge">
<title>ip_hold&#45;&gt;control_output</title>
<path fill="none" stroke="black" d="M1076.62,-340.08C1131.5,-295.01 1315.11,-156 1492.02,-156 1492.02,-156 1492.02,-156 1626.08,-156 1713.44,-156 1739.71,-144.92 1821.73,-175 1840.83,-182.01 1859.66,-194.86 1874.02,-206.26"/>
<polygon fill="black" stroke="black" points="1871.97,-209.11 1881.92,-212.75 1876.42,-203.7 1871.97,-209.11"/>
</g>
<!-- ip_input_local&#45;&gt;icmp_input -->
<g id="edge36" class="edge">
<title>ip_input_local&#45;&gt;icmp_input</title>
<path fill="none" stroke="black" d="M466.2,-240.88C484.32,-240.36 505.85,-239.74 524.3,-239.21"/>
<polygon fill="black" stroke="black" points="524.58,-242.7 534.47,-238.91 524.38,-235.7 524.58,-242.7"/>
</g>
<!-- ipip_input -->
<g id="node28" class="node">
<title>ipip_input</title>
<ellipse fill="none" stroke="black" cx="567.32" cy="-292" rx="29.12" ry="18"/>
<text text-anchor="middle" x="567.32" y="-289.2" font-family="sans" font-size="11.00">ipip_input</text>
</g>
<!-- ip_input_local&#45;&gt;ipip_input -->
<g id="edge37" class="edge">
<title>ip_input_local&#45;&gt;ipip_input</title>
<path fill="none" stroke="black" d="M457.95,-253.1C479.87,-260.97 509.3,-271.53 531.96,-279.66"/>
<polygon fill="black" stroke="black" points="530.93,-283.01 541.53,-283.1 533.3,-276.43 530.93,-283.01"/>
</g>
<!-- l4_input_local -->
<g id="node29" class="node">
<title>l4_input_local</title>
<ellipse fill="none" stroke="black" cx="1493.02" cy="-348" rx="39.74" ry="18"/>
<text text-anchor="middle" x="1493.02" y="-345.2" font-family="sans" font-size="11.00">l4_input_local</text>
</g>
<!-- ip_input_local&#45;&gt;l4_input_local -->
<g id="edge38" class="edge">
<title>ip_input_local&#45;&gt;l4_input_local</title>
<path fill="none" stroke="black" d="M456.15,-229.93C473.85,-223.14 497.1,-215.21 518.48,-211 773.79,-160.68 845.52,-143.41 1103.17,-180 1245.43,-200.2 1397.05,-287.43 1460.87,-327.61"/>
<polygon fill="black" stroke="black" points="1459.32,-330.77 1469.64,-333.18 1463.08,-324.86 1459.32,-330.77"/>
</g>
<!-- ipip_input&#45;&gt;ip_input -->
<g id="edge68" class="edge">
<title>ipip_input&#45;&gt;ip_input</title>
<path fill="none" stroke="black" d="M537.87,-292C486.91,-292 380.1,-292 323.84,-292"/>
<polygon fill="black" stroke="black" points="323.62,-288.5 313.62,-292 323.62,-295.5 323.62,-288.5"/>
</g>
<!-- l4_loopback_output -->
<g id="node41" class="node">
<title>l4_loopback_output</title>
<ellipse fill="none" stroke="black" cx="1625.08" cy="-394" rx="56.39" ry="18"/>
<text text-anchor="middle" x="1625.08" y="-391.2" font-family="sans" font-size="11.00">l4_loopback_output</text>
</g>
<!-- l4_input_local&#45;&gt;l4_loopback_output -->
<g id="edge70" class="edge">
<title>l4_input_local&#45;&gt;l4_loopback_output</title>
<path fill="none" stroke="black" d="M1524.84,-358.9C1540.43,-364.42 1559.69,-371.23 1577.08,-377.38"/>
<polygon fill="black" stroke="black" points="1575.92,-380.68 1586.52,-380.72 1578.26,-374.08 1575.92,-380.68"/>
</g>
<!-- ipip_output&#45;&gt;ip_output -->
<g id="edge69" class="edge">
<title>ipip_output&#45;&gt;ip_output</title>
<path fill="none" stroke="black" d="M920.72,-366.32C906.12,-371.53 887.14,-377.08 870.61,-381.06"/>
<polygon fill="black" stroke="black" points="869.67,-377.68 860.7,-383.31 871.23,-384.51 869.67,-377.68"/>
</g>
<!-- sr6_steer&#45;&gt;ip6_output -->
<g id="edge76" class="edge">
<title>sr6_steer&#45;&gt;ip6_output</title>
<path fill="none" stroke="black" d="M972.2,-449.85C988.93,-454.96 1010.83,-463.11 1028.35,-470.71"/>
<polygon fill="black" stroke="black" points="1027.01,-473.95 1037.57,-474.85 1029.88,-467.56 1027.01,-473.95"/>
</g>
<!-- icmp6_input -->
<g id="node32" class="node">
<title>icmp6_input</title>
<ellipse fill="none" stroke="black" cx="1493.02" cy="-294" rx="35.64" ry="18"/>
<text text-anchor="middle" x="1493.02" y="-291.2" font-family="sans" font-size="11.00">icmp6_input</text>
</g>
<!-- icmp6_input&#45;&gt;control_output -->
<g id="edge48" class="edge">
<title>icmp6_input&#45;&gt;control_output</title>
<path fill="none" stroke="black" d="M1527.66,-298.97C1588.27,-306.6 1719.05,-317.02 1821.73,-283 1841.18,-276.56 1860.14,-263.6 1874.48,-251.99"/>
<polygon fill="black" stroke="black" points="1876.95,-254.49 1882.35,-245.37 1872.45,-249.13 1876.95,-254.49"/>
</g>
<!-- icmp6_input&#45;&gt;icmp6_output -->
<g id="edge44" class="edge">
<title>icmp6_input&#45;&gt;icmp6_output</title>
<path fill="none" stroke="black" d="M1518.53,-307.02C1523.87,-310.88 1529.01,-315.56 1532.64,-321 1554.57,-353.89 1603.46,-621.59 1619.14,-709.87"/>
<polygon fill="black" stroke="black" points="1615.73,-710.72 1620.92,-719.95 1622.63,-709.5 1615.73,-710.72"/>
</g>
<!-- ndp_ns_input -->
<g id="node34" class="node">
<title>ndp_ns_input</title>
<ellipse fill="none" stroke="black" cx="1769.62" cy="-256" rx="39.15" ry="18"/>
<text text-anchor="middle" x="1769.62" y="-253.2" font-family="sans" font-size="11.00">ndp_ns_input</text>
</g>
<!-- icmp6_input&#45;&gt;ndp_ns_input -->
<g id="edge45" class="edge">
<title>icmp6_input&#45;&gt;ndp_ns_input</title>
<path fill="none" stroke="black" d="M1526.63,-287.4C1539.66,-284.89 1554.83,-282.12 1568.64,-280 1620.62,-272.01 1680.56,-265.13 1721.15,-260.8"/>
<polygon fill="black" stroke="black" points="1721.72,-264.26 1731.3,-259.74 1720.98,-257.3 1721.72,-264.26"/>
</g>
<!-- ndp_na_input -->
<g id="node35" class="node">
<title>ndp_na_input</title>
<ellipse fill="none" stroke="black" cx="1769.62" cy="-202" rx="39.74" ry="18"/>
<text text-anchor="middle" x="1769.62" y="-199.2" font-family="sans" font-size="11.00">ndp_na_input</text>
</g>
<!-- icmp6_input&#45;&gt;ndp_na_input -->
<g id="edge46" class="edge">
<title>icmp6_input&#45;&gt;ndp_na_input</title>
<path fill="none" stroke="black" d="M1519.58,-281.71C1533.83,-275.11 1552.01,-267.1 1568.64,-261 1621.43,-241.63 1683.78,-224.05 1724.66,-213.21"/>
<polygon fill="black" stroke="black" points="1725.79,-216.53 1734.57,-210.6 1724.01,-209.76 1725.79,-216.53"/>
</g>
<!-- ndp_rs_input -->
<g id="node36" class="node">
<title>ndp_rs_input</title>
<ellipse fill="none" stroke="black" cx="1625.08" cy="-340" rx="37.98" ry="18"/>
<text text-anchor="middle" x="1625.08" y="-337.2" font-family="sans" font-size="11.00">ndp_rs_input</text>
</g>
<!-- icmp6_input&#45;&gt;ndp_rs_input -->
<g id="edge47" class="edge">
<title>icmp6_input&#45;&gt;ndp_rs_input</title>
<path fill="none" stroke="black" d="M1522.88,-304.21C1540.94,-310.59 1564.44,-318.91 1584.26,-325.92"/>
<polygon fill="black" stroke="black" points="1583.35,-329.31 1593.94,-329.34 1585.68,-322.71 1583.35,-329.31"/>
</g>
<!-- icmp6_output&#45;&gt;ip6_output -->
<g id="edge49" class="edge">
<title>icmp6_output&#45;&gt;ip6_output</title>
<path fill="none" stroke="black" d="M1590.16,-728.82C1508.83,-706 1297.66,-641.91 1139.17,-551 1119.27,-539.59 1099.1,-523.4 1084.12,-510.28"/>
<polygon fill="black" stroke="black" points="1086.16,-507.41 1076.37,-503.37 1081.5,-512.64 1086.16,-507.41"/>
</g>
<!-- ndp_ns_input&#45;&gt;control_output -->
<g id="edge65" class="edge">
<title>ndp_ns_input&#45;&gt;control_output</title>
<path fill="none" stroke="black" d="M1805.53,-248.69C1819.85,-245.7 1836.65,-242.18 1852.07,-238.95"/>
<polygon fill="black" stroke="black" points="1852.88,-242.36 1861.95,-236.88 1851.45,-235.5 1852.88,-242.36"/>
</g>
<!-- ndp_na_input&#45;&gt;control_output -->
<g id="edge63" class="edge">
<title>ndp_na_input&#45;&gt;control_output</title>
<path fill="none" stroke="black" d="M1805.87,-209.38C1819.93,-212.32 1836.34,-215.76 1851.47,-218.92"/>
<polygon fill="black" stroke="black" points="1851.18,-222.44 1861.69,-221.06 1852.62,-215.59 1851.18,-222.44"/>
</g>
<!-- ndp_rs_input&#45;&gt;control_output -->
<g id="edge67" class="edge">
<title>ndp_rs_input&#45;&gt;control_output</title>
<path fill="none" stroke="black" d="M1662.58,-342.92C1703.65,-344.6 1771.22,-342.38 1821.73,-316 1848.33,-302.1 1870.22,-275.17 1883.94,-254.94"/>
<polygon fill="black" stroke="black" points="1886.94,-256.74 1889.48,-246.46 1881.08,-252.91 1886.94,-256.74"/>
</g>
<!-- ip6_forward&#45;&gt;ip6_output -->
<g id="edge51" class="edge">
<title>ip6_forward&#45;&gt;ip6_output</title>
<path fill="none" stroke="black" d="M1338.92,-465.72C1280.84,-470.37 1162.89,-479.79 1100.69,-484.76"/>
<polygon fill="black" stroke="black" points="1100.17,-481.29 1090.48,-485.58 1100.73,-488.27 1100.17,-481.29"/>
</g>
<!-- ip6_hold&#45;&gt;control_output -->
<g id="edge52" class="edge">
<title>ip6_hold&#45;&gt;control_output</title>
<path fill="none" stroke="black" d="M1294.11,-559.23C1335.95,-558.07 1420.41,-556 1492.02,-556 1492.02,-556 1492.02,-556 1626.08,-556 1666.57,-556 1773.75,-502.22 1821.73,-444 1868.14,-387.68 1888.05,-301.37 1895.59,-257.19"/>
<polygon fill="black" stroke="black" points="1899.07,-257.59 1897.21,-247.16 1892.16,-256.48 1899.07,-257.59"/>
</g>
<!-- ip6_input_local&#45;&gt;l4_input_local -->
<g id="edge57" class="edge">
<title>ip6_input_local&#45;&gt;l4_input_local</title>
<path fill="none" stroke="black" d="M1415.59,-338.2C1424.9,-339.4 1434.87,-340.68 1444.45,-341.9"/>
<polygon fill="black" stroke="black" points="1444.26,-345.41 1454.63,-343.21 1445.15,-338.46 1444.26,-345.41"/>
</g>
<!-- ip6_input_local&#45;&gt;icmp6_input -->
<g id="edge56" class="edge">
<title>ip6_input_local&#45;&gt;icmp6_input</title>
<path fill="none" stroke="black" d="M1408.52,-321.82C1422.46,-317.18 1438.73,-311.76 1453.18,-306.94"/>
<polygon fill="black" stroke="black" points="1454.47,-310.2 1462.85,-303.72 1452.26,-303.56 1454.47,-310.2"/>
</g>
<!-- sr6_local&#45;&gt;ip6_output -->
<g id="edge74" class="edge">
<title>sr6_local&#45;&gt;ip6_output</title>
<path fill="none" stroke="black" d="M1159.89,-370.68C1142.57,-394.66 1107.19,-438.26 1083.59,-465.15"/>
<polygon fill="black" stroke="black" points="1080.71,-463.13 1076.67,-472.92 1085.93,-467.78 1080.71,-463.13"/>
</g>
<!-- sr6_local&#45;&gt;ip_input -->
<g id="edge72" class="edge">
<title>sr6_local&#45;&gt;ip_input</title>
<path fill="none" stroke="black" d="M1148.02,-344.54C1135.05,-339.14 1118.29,-332.39 1103.17,-327 949.68,-272.29 913.53,-246.61 753.11,-218 693.11,-207.3 677.09,-212.56 616.17,-211 572.76,-209.89 561.89,-210.42 518.48,-211 452.29,-211.89 430.82,-189.85 369.59,-215 343.08,-225.89 319.98,-249.55 305.07,-267.78"/>
<polygon fill="black" stroke="black" points="302.26,-265.7 298.81,-275.72 307.76,-270.03 302.26,-265.7"/>
</g>
<!-- sr6_local&#45;&gt;ip6_input -->
<g id="edge73" class="edge">
<title>sr6_local&#45;&gt;ip6_input</title>
<path fill="none" stroke="black" d="M1194.39,-344.28C1206.32,-339.06 1221.24,-332.54 1234.35,-326.8"/>
<polygon fill="black" stroke="black" points="1235.76,-330 1243.52,-322.79 1232.95,-323.59 1235.76,-330"/>
</g>
<!-- sr6_local&#45;&gt;ip6_input_local -->
<g id="edge75" class="edge">
<title>sr6_local&#45;&gt;ip6_input_local</title>
<path fill="none" stroke="black" d="M1198.03,-351.3C1229.11,-348.05 1282.04,-342.51 1321.56,-338.38"/>
<polygon fill="black" stroke="black" points="1321.97,-341.85 1331.55,-337.33 1321.24,-334.89 1321.97,-341.85"/>
</g>
<!-- l4_loopback_output&#45;&gt;loopback_output -->
<g id="edge71" class="edge">
<title>l4_loopback_output&#45;&gt;loopback_output</title>
<path fill="none" stroke="black" d="M1675.93,-402.04C1688.35,-404.05 1701.72,-406.21 1714.34,-408.24"/>
<polygon fill="black" stroke="black" points="1713.84,-411.71 1724.27,-409.84 1714.95,-404.79 1713.84,-411.71"/>
</g>
</g>
</svg>
