<?xml version="1.0" encoding="UTF-8" standalone="no"?>
<!DOCTYPE svg PUBLIC "-//W3C//DTD SVG 1.1//EN"
 "http://www.w3.org/Graphics/SVG/1.1/DTD/svg11.dtd">
<!-- Generated by graphviz version 12.1.0 (20240811.2233)
 -->
<!-- Title: gr&#45;0003 Pages: 1 -->
<svg width="1225pt" height="776pt"
 viewBox="0.00 0.00 1224.61 776.00" xmlns="http://www.w3.org/2000/svg" xmlns:xlink="http://www.w3.org/1999/xlink">
<g id="graph0" class="graph" transform="scale(1 1) rotate(0) translate(4 772)">
<title>gr&#45;0003</title>
<polygon fill="white" stroke="none" points="-4,4 -4,-772 1220.61,-772 1220.61,4 -4,4"/>
<!-- control_input -->
<g id="node1" class="node">
<title>control_input</title>
<ellipse fill="none" stroke="blue" stroke-width="2" cx="41.62" cy="-324" rx="41.62" ry="18"/>
<text text-anchor="middle" x="41.62" y="-320.3" font-family="sans" font-size="11.00">control_input</text>
</g>
<!-- loopback_input -->
<g id="node2" class="node">
<title>loopback_input</title>
<ellipse fill="none" stroke="black" cx="166.76" cy="-278" rx="47.52" ry="18"/>
<text text-anchor="middle" x="166.76" y="-274.3" font-family="sans" font-size="11.00">loopback_input</text>
</g>
<!-- control_input&#45;&gt;loopback_input -->
<g id="edge1" class="edge">
<title>control_input&#45;&gt;loopback_input</title>
<path fill="none" stroke="blue" stroke-width="2" d="M74.02,-312.27C88.37,-306.91 105.64,-300.46 121.3,-294.61"/>
<polygon fill="blue" stroke="blue" stroke-width="2" points="120.86,-298.51 129,-291.73 118.41,-291.95 120.86,-298.51"/>
</g>
<!-- arp_output_request -->
<g id="node3" class="node">
<title>arp_output_request</title>
<ellipse fill="none" stroke="black" cx="311.7" cy="-718" rx="61.42" ry="18"/>
<text text-anchor="middle" x="311.7" y="-714.3" font-family="sans" font-size="11.00">arp_output_request</text>
</g>
<!-- control_input&#45;&gt;arp_output_request -->
<g id="edge2" class="edge">
<title>control_input&#45;&gt;arp_output_request</title>
<path fill="none" stroke="blue" stroke-width="2" d="M48.49,-341.97C56.72,-367.43 71.95,-415.54 83.25,-457 101.27,-523.15 78.28,-552.03 119.25,-607 153.96,-653.58 214.44,-683.85 258.16,-700.84"/>
<polygon fill="blue" stroke="blue" stroke-width="2" points="255.46,-703.56 266.05,-703.81 257.92,-697.01 255.46,-703.56"/>
</g>
<!-- icmp_local_send -->
<g id="node4" class="node">
<title>icmp_local_send</title>
<ellipse fill="none" stroke="black" cx="311.7" cy="-18" rx="51.31" ry="18"/>
<text text-anchor="middle" x="311.7" y="-14.3" font-family="sans" font-size="11.00">icmp_local_send</text>
</g>
<!-- control_input&#45;&gt;icmp_local_send -->
<g id="edge3" class="edge">
<title>control_input&#45;&gt;icmp_local_send</title>
<path fill="none" stroke="blue" stroke-width="2" d="M52.38,-306.18C78.85,-259.16 156.39,-129.84 250.28,-50 255.68,-45.41 261.85,-41.22 268.14,-37.49"/>
<polygon fill="blue" stroke="blue" stroke-width="2" points="268.31,-41.39 275.36,-33.49 264.92,-35.27 268.31,-41.39"/>
</g>
<!-- ndp_ns_output -->
<g id="node5" class="node">
<title>ndp_ns_output</title>
<ellipse fill="none" stroke="black" cx="166.76" cy="-580" rx="46.26" ry="18"/>
<text text-anchor="middle" x="166.76" y="-576.3" font-family="sans" font-size="11.00">ndp_ns_output</text>
</g>
<!-- control_input&#45;&gt;ndp_ns_output -->
<g id="edge4" class="edge">
<title>control_input&#45;&gt;ndp_ns_output</title>
<path fill="none" stroke="blue" stroke-width="2" d="M48.64,-342.08C60.26,-376.11 87.48,-451.6 119.25,-511 126.99,-525.48 137.02,-540.69 145.79,-553.15"/>
<polygon fill="blue" stroke="blue" stroke-width="2" points="142.04,-553.93 150.71,-560.01 147.73,-549.84 142.04,-553.93"/>
</g>
<!-- ip_output -->
<g id="node6" class="node">
<title>ip_output</title>
<ellipse fill="none" stroke="black" cx="894.38" cy="-278" rx="30.25" ry="18"/>
<text text-anchor="middle" x="894.38" y="-274.3" font-family="sans" font-size="11.00">ip_output</text>
</g>
<!-- control_input&#45;&gt;ip_output -->
<g id="edge5" class="edge">
<title>control_input&#45;&gt;ip_output</title>
<path fill="none" stroke="blue" stroke-width="2" d="M83.37,-321.8C226.99,-314.03 708.73,-287.98 852.52,-280.21"/>
<polygon fill="blue" stroke="blue" stroke-width="2" points="851.02,-283.8 860.81,-279.76 850.64,-276.81 851.02,-283.8"/>
</g>
<!-- loopback_input&#45;&gt;ip_output -->
<g id="edge11" class="edge">
<title>loopback_input&#45;&gt;ip_output</title>
<path fill="none" stroke="black" d="M181.76,-260.47C215.56,-219.71 306.52,-119.27 409.11,-83 579.13,-22.9 659.78,-65.05 804.97,-172 834.85,-194.01 860.94,-228.19 876.88,-251.75"/>
<polygon fill="black" stroke="black" points="873.81,-253.45 882.24,-259.87 879.66,-249.6 873.81,-253.45"/>
</g>
<!-- ip_input_local -->
<g id="node14" class="node">
<title>ip_input_local</title>
<ellipse fill="none" stroke="black" cx="311.7" cy="-248" rx="42.89" ry="18"/>
<text text-anchor="middle" x="311.7" y="-244.3" font-family="sans" font-size="11.00">ip_input_local</text>
</g>
<!-- loopback_input&#45;&gt;ip_input_local -->
<g id="edge10" class="edge">
<title>loopback_input&#45;&gt;ip_input_local</title>
<path fill="none" stroke="black" d="M209.11,-269.32C225.61,-265.86 244.74,-261.84 261.91,-258.24"/>
<polygon fill="black" stroke="black" points="262.32,-261.73 271.39,-256.25 260.88,-254.88 262.32,-261.73"/>
</g>
<!-- ip6_input_local -->
<g id="node15" class="node">
<title>ip6_input_local</title>
<ellipse fill="none" stroke="black" cx="455.79" cy="-446" rx="46.68" ry="18"/>
<text text-anchor="middle" x="455.79" y="-442.3" font-family="sans" font-size="11.00">ip6_input_local</text>
</g>
<!-- loopback_input&#45;&gt;ip6_input_local -->
<g id="edge12" class="edge">
<title>loopback_input&#45;&gt;ip6_input_local</title>
<path fill="none" stroke="black" d="M193.74,-293.21C245.29,-323.38 360.59,-390.86 419.17,-425.15"/>
<polygon fill="black" stroke="black" points="417.37,-428.15 427.77,-430.19 420.91,-422.11 417.37,-428.15"/>
</g>
<!-- ip6_output -->
<g id="node16" class="node">
<title>ip6_output</title>
<ellipse fill="none" stroke="black" cx="894.38" cy="-557" rx="34.04" ry="18"/>
<text text-anchor="middle" x="894.38" y="-553.3" font-family="sans" font-size="11.00">ip6_output</text>
</g>
<!-- loopback_input&#45;&gt;ip6_output -->
<g id="edge13" class="edge">
<title>loopback_input&#45;&gt;ip6_output</title>
<path fill="none" stroke="black" d="M180,-295.78C194.94,-316.65 221.77,-351.51 250.28,-376 281.66,-402.95 370.41,-458.43 409.11,-473 414.33,-474.96 733.18,-529.6 850.59,-549.69"/>
<polygon fill="black" stroke="black" points="849.7,-553.08 860.14,-551.32 850.88,-546.18 849.7,-553.08"/>
</g>
<!-- eth_output -->
<g id="node12" class="node">
<title>eth_output</title>
<ellipse fill="none" stroke="black" cx="1035.95" cy="-520" rx="34.89" ry="18"/>
<text text-anchor="middle" x="1035.95" y="-516.3" font-family="sans" font-size="11.00">eth_output</text>
</g>
<!-- arp_output_request&#45;&gt;eth_output -->
<g id="edge19" class="edge">
<title>arp_output_request&#45;&gt;eth_output</title>
<path fill="none" stroke="black" d="M357.54,-730.36C415.31,-745.17 519.04,-768 609.41,-768 609.41,-768 609.41,-768 762.66,-768 892.58,-768 987.8,-611.77 1021.55,-547.31"/>
<polygon fill="black" stroke="black" points="1024.48,-549.28 1025.92,-538.79 1018.25,-546.09 1024.48,-549.28"/>
</g>
<!-- icmp_output -->
<g id="node21" class="node">
<title>icmp_output</title>
<ellipse fill="none" stroke="black" cx="610.41" cy="-148" rx="39.52" ry="18"/>
<text text-anchor="middle" x="610.41" y="-144.3" font-family="sans" font-size="11.00">icmp_output</text>
</g>
<!-- icmp_local_send&#45;&gt;icmp_output -->
<g id="edge22" class="edge">
<title>icmp_local_send&#45;&gt;icmp_output</title>
<path fill="none" stroke="black" d="M352.93,-29.02C392.03,-40.37 452.64,-59.66 502.47,-83 529.01,-95.43 557.28,-112.82 578.09,-126.48"/>
<polygon fill="black" stroke="black" points="576.14,-129.38 586.4,-132.01 580.01,-123.56 576.14,-129.38"/>
</g>
<!-- ndp_ns_output&#45;&gt;ip6_output -->
<g id="edge52" class="edge">
<title>ndp_ns_output&#45;&gt;ip6_output</title>
<path fill="none" stroke="black" d="M211.28,-585.4C259.53,-591.1 339.74,-599.7 409.11,-603 450.56,-604.97 461.29,-608.07 502.47,-603 600.63,-590.91 620.19,-561.09 718.35,-549 762.84,-543.52 814.1,-547 849.6,-550.94"/>
<polygon fill="black" stroke="black" points="849.16,-554.41 859.5,-552.1 849.97,-547.46 849.16,-554.41"/>
</g>
<!-- ip_output&#45;&gt;eth_output -->
<g id="edge33" class="edge">
<title>ip_output&#45;&gt;eth_output</title>
<path fill="none" stroke="black" d="M905.2,-295.02C929.06,-336.4 990.3,-442.58 1019.29,-492.84"/>
<polygon fill="black" stroke="black" points="1016.18,-494.45 1024.2,-501.37 1022.24,-490.96 1016.18,-494.45"/>
</g>
<!-- loopback_output -->
<g id="node17" class="node">
<title>loopback_output</title>
<ellipse fill="none" stroke="black" cx="1035.95" cy="-347" rx="52.15" ry="18"/>
<text text-anchor="middle" x="1035.95" y="-343.3" font-family="sans" font-size="11.00">loopback_output</text>
</g>
<!-- ip_output&#45;&gt;loopback_output -->
<g id="edge35" class="edge">
<title>ip_output&#45;&gt;loopback_output</title>
<path fill="none" stroke="black" d="M918.43,-289.39C939.09,-299.61 969.87,-314.83 994.61,-327.06"/>
<polygon fill="black" stroke="black" points="992.92,-330.13 1003.43,-331.42 996.02,-323.85 992.92,-330.13"/>
</g>
<!-- ip_hold -->
<g id="node23" class="node">
<title>ip_hold</title>
<ellipse fill="none" stroke="black" cx="1035.95" cy="-224" rx="27" ry="18"/>
<text text-anchor="middle" x="1035.95" y="-220.3" font-family="sans" font-size="11.00">ip_hold</text>
</g>
<!-- ip_output&#45;&gt;ip_hold -->
<g id="edge34" class="edge">
<title>ip_output&#45;&gt;ip_hold</title>
<path fill="none" stroke="black" d="M920.34,-268.35C943.01,-259.57 976.64,-246.56 1001.61,-236.9"/>
<polygon fill="black" stroke="black" points="1002.59,-240.27 1010.65,-233.4 1000.06,-233.75 1002.59,-240.27"/>
</g>
<!-- ipip_output -->
<g id="node28" class="node">
<title>ipip_output</title>
<ellipse fill="none" stroke="black" cx="1035.95" cy="-278" rx="35.73" ry="18"/>
<text text-anchor="middle" x="1035.95" y="-274.3" font-family="sans" font-size="11.00">ipip_output</text>
</g>
<!-- ip_output&#45;&gt;ipip_output -->
<g id="edge36" class="edge">
<title>ip_output&#45;&gt;ipip_output</title>
<path fill="none" stroke="black" d="M923.63,-272.45C942.73,-271.19 968.37,-270.92 990.23,-271.65"/>
<polygon fill="black" stroke="black" points="989.93,-275.14 1000.08,-272.08 990.24,-268.15 989.93,-275.14"/>
</g>
<!-- control_output -->
<g id="node7" class="node">
<title>control_output</title>
<ellipse fill="none" stroke="black" cx="1170.36" cy="-224" rx="46.26" ry="18"/>
<text text-anchor="middle" x="1170.36" y="-220.3" font-family="sans" font-size="11.00">control_output</text>
</g>
<!-- eth_input -->
<g id="node8" class="node">
<title>eth_input</title>
<ellipse fill="none" stroke="black" cx="166.76" cy="-484" rx="30.25" ry="18"/>
<text text-anchor="middle" x="166.76" y="-480.3" font-family="sans" font-size="11.00">eth_input</text>
</g>
<!-- arp_input -->
<g id="node9" class="node">
<title>arp_input</title>
<ellipse fill="none" stroke="black" cx="761.66" cy="-446" rx="30.25" ry="18"/>
<text text-anchor="middle" x="761.66" y="-442.3" font-family="sans" font-size="11.00">arp_input</text>
</g>
<!-- eth_input&#45;&gt;arp_input -->
<g id="edge6" class="edge">
<title>eth_input&#45;&gt;arp_input</title>
<path fill="none" stroke="black" d="M192.17,-494.25C208.34,-500.46 230.19,-507.8 250.28,-511 426.96,-539.17 639.6,-483.47 723.78,-457.9"/>
<polygon fill="black" stroke="black" points="724.58,-461.31 733.11,-455.02 722.52,-454.62 724.58,-461.31"/>
</g>
<!-- ip_input -->
<g id="node10" class="node">
<title>ip_input</title>
<ellipse fill="none" stroke="black" cx="610.41" cy="-219" rx="27" ry="18"/>
<text text-anchor="middle" x="610.41" y="-215.3" font-family="sans" font-size="11.00">ip_input</text>
</g>
<!-- eth_input&#45;&gt;ip_input -->
<g id="edge7" class="edge">
<title>eth_input&#45;&gt;ip_input</title>
<path fill="none" stroke="black" d="M188.77,-471.4C260.61,-428.29 496.66,-286.66 579.97,-236.66"/>
<polygon fill="black" stroke="black" points="581.73,-239.69 588.5,-231.55 578.13,-233.69 581.73,-239.69"/>
</g>
<!-- ip6_input -->
<g id="node11" class="node">
<title>ip6_input</title>
<ellipse fill="none" stroke="black" cx="311.7" cy="-484" rx="29.41" ry="18"/>
<text text-anchor="middle" x="311.7" y="-480.3" font-family="sans" font-size="11.00">ip6_input</text>
</g>
<!-- eth_input&#45;&gt;ip6_input -->
<g id="edge8" class="edge">
<title>eth_input&#45;&gt;ip6_input</title>
<path fill="none" stroke="black" d="M197.38,-484C218.65,-484 247.54,-484 270.84,-484"/>
<polygon fill="black" stroke="black" points="270.58,-487.5 280.58,-484 270.58,-480.5 270.58,-487.5"/>
</g>
<!-- arp_input&#45;&gt;ip_output -->
<g id="edge17" class="edge">
<title>arp_input&#45;&gt;ip_output</title>
<path fill="none" stroke="black" d="M775.43,-429.59C798.34,-400.15 846.53,-338.22 873.69,-303.31"/>
<polygon fill="black" stroke="black" points="876.44,-305.47 879.82,-295.43 870.92,-301.17 876.44,-305.47"/>
</g>
<!-- arp_output_reply -->
<g id="node19" class="node">
<title>arp_output_reply</title>
<ellipse fill="none" stroke="black" cx="894.38" cy="-484" rx="53.41" ry="18"/>
<text text-anchor="middle" x="894.38" y="-480.3" font-family="sans" font-size="11.00">arp_output_reply</text>
</g>
<!-- arp_input&#45;&gt;arp_output_reply -->
<g id="edge16" class="edge">
<title>arp_input&#45;&gt;arp_output_reply</title>
<path fill="none" stroke="black" d="M789.43,-453.78C804.59,-458.19 824.05,-463.85 842.04,-469.07"/>
<polygon fill="black" stroke="black" points="840.96,-472.4 851.54,-471.84 842.91,-465.68 840.96,-472.4"/>
</g>
<!-- ip_input&#45;&gt;ip_input_local -->
<g id="edge27" class="edge">
<title>ip_input&#45;&gt;ip_input_local</title>
<path fill="none" stroke="black" d="M589.12,-207.44C552.51,-188.13 473.24,-153.46 409.11,-175 380.89,-184.48 354.35,-205.85 336.29,-223.04"/>
<polygon fill="black" stroke="black" points="333.89,-220.49 329.22,-230 338.8,-225.48 333.89,-220.49"/>
</g>
<!-- ip_forward -->
<g id="node22" class="node">
<title>ip_forward</title>
<ellipse fill="none" stroke="black" cx="761.66" cy="-236" rx="33.62" ry="18"/>
<text text-anchor="middle" x="761.66" y="-232.3" font-family="sans" font-size="11.00">ip_forward</text>
</g>
<!-- ip_input&#45;&gt;ip_forward -->
<g id="edge26" class="edge">
<title>ip_input&#45;&gt;ip_forward</title>
<path fill="none" stroke="black" d="M637.41,-221.96C659.35,-224.46 691.24,-228.09 717.08,-231.04"/>
<polygon fill="black" stroke="black" points="716.63,-234.51 726.96,-232.16 717.42,-227.55 716.63,-234.51"/>
</g>
<!-- ip6_input&#45;&gt;ip6_input_local -->
<g id="edge43" class="edge">
<title>ip6_input&#45;&gt;ip6_input_local</title>
<path fill="none" stroke="black" d="M339.09,-476.94C357.77,-471.95 383.36,-465.1 405.73,-459.12"/>
<polygon fill="black" stroke="black" points="406.53,-462.53 415.29,-456.56 404.72,-455.77 406.53,-462.53"/>
</g>
<!-- ip6_forward -->
<g id="node33" class="node">
<title>ip6_forward</title>
<ellipse fill="none" stroke="black" cx="455.79" cy="-576" rx="37.41" ry="18"/>
<text text-anchor="middle" x="455.79" y="-572.3" font-family="sans" font-size="11.00">ip6_forward</text>
</g>
<!-- ip6_input&#45;&gt;ip6_forward -->
<g id="edge42" class="edge">
<title>ip6_input&#45;&gt;ip6_forward</title>
<path fill="none" stroke="black" d="M332.76,-496.99C356.19,-512.16 395.28,-537.47 422.89,-555.35"/>
<polygon fill="black" stroke="black" points="420.93,-558.25 431.23,-560.74 424.73,-552.37 420.93,-558.25"/>
</g>
<!-- port_tx -->
<g id="node13" class="node">
<title>port_tx</title>
<ellipse fill="none" stroke="black" cx="1170.36" cy="-520" rx="27" ry="18"/>
<text text-anchor="middle" x="1170.36" y="-516.3" font-family="sans" font-size="11.00">port_tx</text>
</g>
<!-- eth_output&#45;&gt;port_tx -->
<g id="edge9" class="edge">
<title>eth_output&#45;&gt;port_tx</title>
<path fill="none" stroke="black" d="M1071.05,-520C1089.58,-520 1112.53,-520 1131.6,-520"/>
<polygon fill="black" stroke="black" points="1131.38,-523.5 1141.38,-520 1131.38,-516.5 1131.38,-523.5"/>
</g>
<!-- icmp_input -->
<g id="node20" class="node">
<title>icmp_input</title>
<ellipse fill="none" stroke="black" cx="455.79" cy="-110" rx="34.89" ry="18"/>
<text text-anchor="middle" x="455.79" y="-106.3" font-family="sans" font-size="11.00">icmp_input</text>
</g>
<!-- ip_input_local&#45;&gt;icmp_input -->
<g id="edge28" class="edge">
<title>ip_input_local&#45;&gt;icmp_input</title>
<path fill="none" stroke="black" d="M326.35,-230.77C344.14,-208.85 376.81,-170.44 409.11,-142 413.75,-137.92 418.91,-133.89 424.04,-130.13"/>
<polygon fill="black" stroke="black" points="425.74,-133.22 431.9,-124.59 421.71,-127.49 425.74,-133.22"/>
</g>
<!-- ipip_input -->
<g id="node24" class="node">
<title>ipip_input</title>
<ellipse fill="none" stroke="black" cx="455.79" cy="-202" rx="31.1" ry="18"/>
<text text-anchor="middle" x="455.79" y="-198.3" font-family="sans" font-size="11.00">ipip_input</text>
</g>
<!-- ip_input_local&#45;&gt;ipip_input -->
<g id="edge29" class="edge">
<title>ip_input_local&#45;&gt;ipip_input</title>
<path fill="none" stroke="black" d="M346.37,-237.1C367.62,-230.22 395.1,-221.33 417.07,-214.21"/>
<polygon fill="black" stroke="black" points="418.13,-217.55 426.56,-211.14 415.97,-210.89 418.13,-217.55"/>
</g>
<!-- tcp_redirect_loopback -->
<g id="node25" class="node">
<title>tcp_redirect_loopback</title>
<ellipse fill="none" stroke="black" cx="610.41" cy="-384" rx="68.57" ry="18"/>
<text text-anchor="middle" x="610.41" y="-380.3" font-family="sans" font-size="11.00">tcp_redirect_loopback</text>
</g>
<!-- ip_input_local&#45;&gt;tcp_redirect_loopback -->
<g id="edge30" class="edge">
<title>ip_input_local&#45;&gt;tcp_redirect_loopback</title>
<path fill="none" stroke="black" d="M337.27,-262.74C356.53,-274.05 384.14,-289.74 409.11,-302 465.19,-329.53 480.52,-333.66 538.47,-357 545.05,-359.65 551.99,-362.38 558.86,-365.03"/>
<polygon fill="black" stroke="black" points="557.53,-368.27 568.12,-368.59 560.04,-361.74 557.53,-368.27"/>
</g>
<!-- udp_redirect_loopback -->
<g id="node26" class="node">
<title>udp_redirect_loopback</title>
<ellipse fill="none" stroke="black" cx="610.41" cy="-330" rx="70.26" ry="18"/>
<text text-anchor="middle" x="610.41" y="-326.3" font-family="sans" font-size="11.00">udp_redirect_loopback</text>
</g>
<!-- ip_input_local&#45;&gt;udp_redirect_loopback -->
<g id="edge31" class="edge">
<title>ip_input_local&#45;&gt;udp_redirect_loopback</title>
<path fill="none" stroke="black" d="M348.19,-257.81C398.23,-271.64 490.11,-297.03 550.48,-313.71"/>
<polygon fill="black" stroke="black" points="549.34,-317.03 559.91,-316.32 551.2,-310.28 549.34,-317.03"/>
</g>
<!-- sctp_redirect_loopback -->
<g id="node27" class="node">
<title>sctp_redirect_loopback</title>
<ellipse fill="none" stroke="black" cx="610.41" cy="-438" rx="71.94" ry="18"/>
<text text-anchor="middle" x="610.41" y="-434.3" font-family="sans" font-size="11.00">sctp_redirect_loopback</text>
</g>
<!-- ip_input_local&#45;&gt;sctp_redirect_loopback -->
<g id="edge32" class="edge">
<title>ip_input_local&#45;&gt;sctp_redirect_loopback</title>
<path fill="none" stroke="black" d="M328.82,-264.73C347.24,-283.36 378.77,-313.76 409.11,-336 462.71,-375.29 478.47,-382.42 538.47,-411 544.34,-413.8 550.58,-416.52 556.83,-419.09"/>
<polygon fill="black" stroke="black" points="555.31,-422.25 565.89,-422.7 557.9,-415.75 555.31,-422.25"/>
</g>
<!-- ip6_input_local&#45;&gt;tcp_redirect_loopback -->
<g id="edge45" class="edge">
<title>ip6_input_local&#45;&gt;tcp_redirect_loopback</title>
<path fill="none" stroke="black" d="M487.69,-432.4C502.92,-425.79 521.59,-417.82 538.47,-411 545.04,-408.34 551.99,-405.61 558.86,-402.95"/>
<polygon fill="black" stroke="black" points="560.03,-406.25 568.11,-399.39 557.52,-399.71 560.03,-406.25"/>
</g>
<!-- ip6_input_local&#45;&gt;udp_redirect_loopback -->
<g id="edge46" class="edge">
<title>ip6_input_local&#45;&gt;udp_redirect_loopback</title>
<path fill="none" stroke="black" d="M469.03,-428.34C483.56,-408.54 509.48,-376.66 538.47,-357 543.12,-353.84 548.19,-350.99 553.41,-348.43"/>
<polygon fill="black" stroke="black" points="554.51,-351.77 562.19,-344.47 551.64,-345.39 554.51,-351.77"/>
</g>
<!-- ip6_input_local&#45;&gt;sctp_redirect_loopback -->
<g id="edge47" class="edge">
<title>ip6_input_local&#45;&gt;sctp_redirect_loopback</title>
<path fill="none" stroke="black" d="M502.17,-443.62C510.45,-443.19 519.31,-442.72 528.26,-442.25"/>
<polygon fill="black" stroke="black" points="528.3,-445.76 538.1,-441.74 527.93,-438.77 528.3,-445.76"/>
</g>
<!-- icmp6_input -->
<g id="node29" class="node">
<title>icmp6_input</title>
<ellipse fill="none" stroke="black" cx="610.41" cy="-626" rx="38.68" ry="18"/>
<text text-anchor="middle" x="610.41" y="-622.3" font-family="sans" font-size="11.00">icmp6_input</text>
</g>
<!-- ip6_input_local&#45;&gt;icmp6_input -->
<g id="edge44" class="edge">
<title>ip6_input_local&#45;&gt;icmp6_input</title>
<path fill="none" stroke="black" d="M471.42,-463.26C498.39,-495.06 556.03,-563.04 587.61,-600.29"/>
<polygon fill="black" stroke="black" points="584.93,-602.54 594.07,-607.9 590.27,-598.01 584.93,-602.54"/>
</g>
<!-- ip6_output&#45;&gt;eth_output -->
<g id="edge48" class="edge">
<title>ip6_output&#45;&gt;eth_output</title>
<path fill="none" stroke="black" d="M925.32,-549.06C945.24,-543.78 971.67,-536.78 993.59,-530.97"/>
<polygon fill="black" stroke="black" points="994.34,-534.39 1003.11,-528.44 992.55,-527.62 994.34,-534.39"/>
</g>
<!-- ip6_output&#45;&gt;loopback_output -->
<g id="edge49" class="edge">
<title>ip6_output&#45;&gt;loopback_output</title>
<path fill="none" stroke="black" d="M915.13,-542.51C925.69,-534.11 938.41,-522.87 947.8,-511 981.92,-467.88 1009.26,-409.43 1023.71,-375.21"/>
<polygon fill="black" stroke="black" points="1026.76,-376.98 1027.36,-366.4 1020.3,-374.3 1026.76,-376.98"/>
</g>
<!-- loopback_output&#45;&gt;control_output -->
<g id="edge14" class="edge">
<title>loopback_output&#45;&gt;control_output</title>
<path fill="none" stroke="black" d="M1058.24,-330.28C1067.58,-322.75 1078.56,-313.64 1088.1,-305 1108.1,-286.9 1129.67,-265.29 1145.56,-248.94"/>
<polygon fill="black" stroke="black" points="1147.83,-251.63 1152.26,-242.01 1142.79,-246.77 1147.83,-251.63"/>
</g>
<!-- port_rx -->
<g id="node18" class="node">
<title>port_rx</title>
<ellipse fill="none" stroke="blue" stroke-width="2" cx="41.62" cy="-484" rx="27" ry="18"/>
<text text-anchor="middle" x="41.62" y="-480.3" font-family="sans" font-size="11.00">port_rx</text>
</g>
<!-- port_rx&#45;&gt;eth_input -->
<g id="edge15" class="edge">
<title>port_rx&#45;&gt;eth_input</title>
<path fill="none" stroke="blue" stroke-width="2" d="M69.04,-484C85.35,-484 106.61,-484 125.04,-484"/>
<polygon fill="blue" stroke="blue" stroke-width="2" points="123.34,-487.5 133.34,-484 123.34,-480.5 123.34,-487.5"/>
</g>
<!-- arp_output_reply&#45;&gt;eth_output -->
<g id="edge18" class="edge">
<title>arp_output_reply&#45;&gt;eth_output</title>
<path fill="none" stroke="black" d="M937.64,-494.9C955.27,-499.45 975.71,-504.72 993.28,-509.25"/>
<polygon fill="black" stroke="black" points="992.34,-512.62 1002.9,-511.73 994.09,-505.85 992.34,-512.62"/>
</g>
<!-- icmp_input&#45;&gt;control_output -->
<g id="edge21" class="edge">
<title>icmp_input&#45;&gt;control_output</title>
<path fill="none" stroke="black" d="M490.96,-108.51C547.19,-106.2 662.77,-102 760.66,-102 760.66,-102 760.66,-102 895.38,-102 991.59,-102 1091.64,-165.55 1139.87,-200.92"/>
<polygon fill="black" stroke="black" points="1137.76,-203.72 1147.87,-206.89 1141.95,-198.11 1137.76,-203.72"/>
</g>
<!-- icmp_input&#45;&gt;icmp_output -->
<g id="edge20" class="edge">
<title>icmp_input&#45;&gt;icmp_output</title>
<path fill="none" stroke="black" d="M487.68,-117.69C509.66,-123.16 539.54,-130.6 564.2,-136.74"/>
<polygon fill="black" stroke="black" points="563.1,-140.08 573.65,-139.1 564.79,-133.28 563.1,-140.08"/>
</g>
<!-- icmp_output&#45;&gt;ip_output -->
<g id="edge23" class="edge">
<title>icmp_output&#45;&gt;ip_output</title>
<path fill="none" stroke="black" d="M647.16,-155.23C687.18,-164.22 753.2,-181.79 804.97,-209 828.75,-221.5 852.57,-240.56 869.49,-255.49"/>
<polygon fill="black" stroke="black" points="866.77,-257.75 876.54,-261.85 871.46,-252.55 866.77,-257.75"/>
</g>
<!-- ip_forward&#45;&gt;ip_output -->
<g id="edge24" class="edge">
<title>ip_forward&#45;&gt;ip_output</title>
<path fill="none" stroke="black" d="M791.03,-245.11C810.25,-251.29 835.84,-259.51 856.62,-266.19"/>
<polygon fill="black" stroke="black" points="855.26,-269.43 865.85,-269.16 857.4,-262.76 855.26,-269.43"/>
</g>
<!-- ip_hold&#45;&gt;control_output -->
<g id="edge25" class="edge">
<title>ip_hold&#45;&gt;control_output</title>
<path fill="none" stroke="black" d="M1063.43,-224C1077.54,-224 1095.48,-224 1112.56,-224"/>
<polygon fill="black" stroke="black" points="1112.1,-227.5 1122.1,-224 1112.1,-220.5 1112.1,-227.5"/>
</g>
<!-- ipip_input&#45;&gt;ip_input -->
<g id="edge53" class="edge">
<title>ipip_input&#45;&gt;ip_input</title>
<path fill="none" stroke="black" d="M486.58,-205.32C510.95,-208.03 545.57,-211.89 571.84,-214.82"/>
<polygon fill="black" stroke="black" points="571.43,-218.29 581.75,-215.92 572.2,-211.33 571.43,-218.29"/>
</g>
<!-- tcp_redirect_loopback&#45;&gt;loopback_output -->
<g id="edge55" class="edge">
<title>tcp_redirect_loopback&#45;&gt;loopback_output</title>
<path fill="none" stroke="black" d="M675.74,-378.38C756.57,-371.32 894.32,-359.29 973.68,-352.35"/>
<polygon fill="black" stroke="black" points="973.79,-355.86 983.45,-351.5 973.18,-348.88 973.79,-355.86"/>
</g>
<!-- udp_redirect_loopback&#45;&gt;loopback_output -->
<g id="edge56" class="edge">
<title>udp_redirect_loopback&#45;&gt;loopback_output</title>
<path fill="none" stroke="black" d="M679.93,-332.75C760.93,-336 894.58,-341.37 972.73,-344.5"/>
<polygon fill="black" stroke="black" points="972.2,-347.98 982.33,-344.89 972.48,-340.99 972.2,-347.98"/>
</g>
<!-- sctp_redirect_loopback&#45;&gt;loopback_output -->
<g id="edge57" class="edge">
<title>sctp_redirect_loopback&#45;&gt;loopback_output</title>
<path fill="none" stroke="black" d="M669.68,-427.46C751.43,-412.55 895.95,-385.71 947.8,-373 960.37,-369.92 973.83,-366.14 986.32,-362.44"/>
<polygon fill="black" stroke="black" points="986.98,-365.89 995.54,-359.65 984.96,-359.19 986.98,-365.89"/>
</g>
<!-- ipip_output&#45;&gt;ip_output -->
<g id="edge54" class="edge">
<title>ipip_output&#45;&gt;ip_output</title>
<path fill="none" stroke="black" d="M1001.59,-283.86C981.61,-284.94 956.1,-285.04 935.09,-284.16"/>
<polygon fill="black" stroke="black" points="935.31,-280.67 925.14,-283.63 934.94,-287.66 935.31,-280.67"/>
</g>
<!-- icmp6_output -->
<g id="node30" class="node">
<title>icmp6_output</title>
<ellipse fill="none" stroke="black" cx="761.66" cy="-630" rx="43.31" ry="18"/>
<text text-anchor="middle" x="761.66" y="-626.3" font-family="sans" font-size="11.00">icmp6_output</text>
</g>
<!-- icmp6_input&#45;&gt;icmp6_output -->
<g id="edge37" class="edge">
<title>icmp6_input&#45;&gt;icmp6_output</title>
<path fill="none" stroke="black" d="M649.46,-627.02C666.77,-627.48 687.56,-628.04 706.47,-628.55"/>
<polygon fill="black" stroke="black" points="706.34,-632.05 716.43,-628.81 706.53,-625.05 706.34,-632.05"/>
</g>
<!-- ndp_ns_input -->
<g id="node31" class="node">
<title>ndp_ns_input</title>
<ellipse fill="none" stroke="black" cx="761.66" cy="-576" rx="41.62" ry="18"/>
<text text-anchor="middle" x="761.66" y="-572.3" font-family="sans" font-size="11.00">ndp_ns_input</text>
</g>
<!-- icmp6_input&#45;&gt;ndp_ns_input -->
<g id="edge38" class="edge">
<title>icmp6_input&#45;&gt;ndp_ns_input</title>
<path fill="none" stroke="black" d="M642.34,-615.64C664.03,-608.37 693.33,-598.56 717.35,-590.51"/>
<polygon fill="black" stroke="black" points="718.16,-593.93 726.53,-587.43 715.94,-587.29 718.16,-593.93"/>
</g>
<!-- ndp_na_input -->
<g id="node32" class="node">
<title>ndp_na_input</title>
<ellipse fill="none" stroke="black" cx="761.66" cy="-684" rx="42.04" ry="18"/>
<text text-anchor="middle" x="761.66" y="-680.3" font-family="sans" font-size="11.00">ndp_na_input</text>
</g>
<!-- icmp6_input&#45;&gt;ndp_na_input -->
<g id="edge39" class="edge">
<title>icmp6_input&#45;&gt;ndp_na_input</title>
<path fill="none" stroke="black" d="M640.9,-637.46C663.25,-646.14 694.25,-658.19 719.11,-667.85"/>
<polygon fill="black" stroke="black" points="717.7,-671.06 728.28,-671.42 720.23,-664.53 717.7,-671.06"/>
</g>
<!-- icmp6_output&#45;&gt;ip6_output -->
<g id="edge40" class="edge">
<title>icmp6_output&#45;&gt;ip6_output</title>
<path fill="none" stroke="black" d="M788.49,-615.58C809.04,-604.1 837.95,-587.95 860.22,-575.52"/>
<polygon fill="black" stroke="black" points="861.89,-578.59 868.92,-570.66 858.48,-572.48 861.89,-578.59"/>
</g>
<!-- ndp_ns_input&#45;&gt;ip6_output -->
<g id="edge51" class="edge">
<title>ndp_ns_input&#45;&gt;ip6_output</title>
<path fill="none" stroke="black" d="M801.53,-570.35C816.79,-568.13 834.37,-565.58 850.04,-563.3"/>
<polygon fill="black" stroke="black" points="850.16,-566.82 859.55,-561.92 849.15,-559.89 850.16,-566.82"/>
</g>
<!-- ndp_na_input&#45;&gt;ip6_output -->
<g id="edge50" class="edge">
<title>ndp_na_input&#45;&gt;ip6_output</title>
<path fill="none" stroke="black" d="M787.64,-669.69C793.55,-665.87 799.67,-661.53 804.97,-657 831.36,-634.44 857.14,-604.03 873.99,-582.69"/>
<polygon fill="black" stroke="black" points="876.55,-585.1 879.93,-575.06 871.03,-580.8 876.55,-585.1"/>
</g>
<!-- ip6_forward&#45;&gt;ip6_output -->
<g id="edge41" class="edge">
<title>ip6_forward&#45;&gt;ip6_output</title>
<path fill="none" stroke="black" d="M470.47,-592.7C485.49,-610.04 511.12,-636.83 538.47,-653 642.81,-714.69 700.07,-771.74 804.97,-711 851.31,-684.17 875.47,-622.85 886.21,-586.2"/>
<polygon fill="black" stroke="black" points="889.55,-587.27 888.84,-576.7 882.8,-585.4 889.55,-587.27"/>
</g>
</g>
</svg>
