<?xml version="1.0" encoding="UTF-8" standalone="no"?>
<!DOCTYPE svg PUBLIC "-//W3C//DTD SVG 1.1//EN"
 "http://www.w3.org/Graphics/SVG/1.1/DTD/svg11.dtd">
<!-- Generated by graphviz version 2.43.0 (0)
 -->
<!-- Title: gr&#45;0002 Pages: 1 -->
<svg width="2150pt" height="854pt"
 viewBox="0.00 0.00 2150.29 854.00" xmlns="http://www.w3.org/2000/svg" xmlns:xlink="http://www.w3.org/1999/xlink">
<g id="graph0" class="graph" transform="scale(1 1) rotate(0) translate(4 850)">
<title>gr&#45;0002</title>
<polygon fill="white" stroke="transparent" points="-4,4 -4,-850 2146.29,-850 2146.29,4 -4,4"/>
<!-- control_input -->
<g id="node1" class="node">
<title>control_input</title>
<ellipse fill="none" stroke="blue" stroke-width="2" cx="40.16" cy="-679" rx="40.32" ry="18"/>
<text text-anchor="middle" x="40.16" y="-676.2" font-family="sans" font-size="11.00">control_input</text>
</g>
<!-- loopback_input -->
<g id="node2" class="node">
<title>loopback_input</title>
<ellipse fill="none" stroke="black" cx="161.91" cy="-568" rx="45.68" ry="18"/>
<text text-anchor="middle" x="161.91" y="-565.2" font-family="sans" font-size="11.00">loopback_input</text>
</g>
<!-- control_input&#45;&gt;loopback_input -->
<g id="edge1" class="edge">
<title>control_input&#45;&gt;loopback_input</title>
<path fill="none" stroke="blue" stroke-width="2" d="M56.81,-662.4C71.7,-646.86 94.93,-623.22 116.32,-604 121.28,-599.55 126.69,-594.97 131.98,-590.62"/>
<polygon fill="blue" stroke="blue" stroke-width="2" points="134.54,-593.06 140.11,-584.05 130.14,-587.61 134.54,-593.06"/>
</g>
<!-- arp_output_request -->
<g id="node3" class="node">
<title>arp_output_request</title>
<ellipse fill="none" stroke="black" cx="1403.83" cy="-110" rx="59.31" ry="18"/>
<text text-anchor="middle" x="1403.83" y="-107.2" font-family="sans" font-size="11.00">arp_output_request</text>
</g>
<!-- control_input&#45;&gt;arp_output_request -->
<g id="edge2" class="edge">
<title>control_input&#45;&gt;arp_output_request</title>
<path fill="none" stroke="blue" stroke-width="2" d="M42.08,-660.91C46.24,-584.87 65.36,-291.55 116.32,-217 167.35,-142.35 203.64,-118 294.06,-118 294.06,-118 294.06,-118 1156.99,-118 1217.19,-118 1285.64,-115.57 1335,-113.39"/>
<polygon fill="blue" stroke="blue" stroke-width="2" points="1335.4,-116.88 1345.23,-112.93 1335.08,-109.89 1335.4,-116.88"/>
</g>
<!-- icmp_local_send -->
<g id="node4" class="node">
<title>icmp_local_send</title>
<ellipse fill="none" stroke="black" cx="432" cy="-614" rx="49.28" ry="18"/>
<text text-anchor="middle" x="432" y="-611.2" font-family="sans" font-size="11.00">icmp_local_send</text>
</g>
<!-- control_input&#45;&gt;icmp_local_send -->
<g id="edge3" class="edge">
<title>control_input&#45;&gt;icmp_local_send</title>
<path fill="none" stroke="blue" stroke-width="2" d="M66.87,-665.32C81.07,-658.38 99.23,-650.5 116.32,-646 203.47,-623.05 308.21,-616.37 372.17,-614.54"/>
<polygon fill="blue" stroke="blue" stroke-width="2" points="372.55,-618.03 382.46,-614.27 372.37,-611.03 372.55,-618.03"/>
</g>
<!-- icmp6_local_send -->
<g id="node5" class="node">
<title>icmp6_local_send</title>
<ellipse fill="none" stroke="black" cx="792.37" cy="-782" rx="53.37" ry="18"/>
<text text-anchor="middle" x="792.37" y="-779.2" font-family="sans" font-size="11.00">icmp6_local_send</text>
</g>
<!-- control_input&#45;&gt;icmp6_local_send -->
<g id="edge4" class="edge">
<title>control_input&#45;&gt;icmp6_local_send</title>
<path fill="none" stroke="blue" stroke-width="2" d="M54.07,-696.12C67.63,-712.77 90.54,-737.34 116.32,-750 188.1,-785.26 214.09,-778 294.06,-778 294.06,-778 294.06,-778 559.64,-778 616.87,-778 682.05,-779.23 728.67,-780.33"/>
<polygon fill="blue" stroke="blue" stroke-width="2" points="728.83,-783.84 738.91,-780.58 729,-776.84 728.83,-783.84"/>
</g>
<!-- ndp_ns_output -->
<g id="node6" class="node">
<title>ndp_ns_output</title>
<ellipse fill="none" stroke="black" cx="926.06" cy="-744" rx="44.51" ry="18"/>
<text text-anchor="middle" x="926.06" y="-741.2" font-family="sans" font-size="11.00">ndp_ns_output</text>
</g>
<!-- control_input&#45;&gt;ndp_ns_output -->
<g id="edge5" class="edge">
<title>control_input&#45;&gt;ndp_ns_output</title>
<path fill="none" stroke="blue" stroke-width="2" d="M66.93,-692.46C81.14,-699.33 99.31,-707.22 116.32,-712 193.06,-733.57 214.35,-736 294.06,-736 294.06,-736 294.06,-736 670.53,-736 740.02,-736 820.12,-739.02 871.62,-741.34"/>
<polygon fill="blue" stroke="blue" stroke-width="2" points="871.69,-744.85 881.84,-741.81 872.01,-737.86 871.69,-744.85"/>
</g>
<!-- ip_output -->
<g id="node7" class="node">
<title>ip_output</title>
<ellipse fill="none" stroke="black" cx="926.06" cy="-397" rx="29.12" ry="18"/>
<text text-anchor="middle" x="926.06" y="-394.2" font-family="sans" font-size="11.00">ip_output</text>
</g>
<!-- control_input&#45;&gt;ip_output -->
<g id="edge6" class="edge">
<title>control_input&#45;&gt;ip_output</title>
<path fill="none" stroke="blue" stroke-width="2" d="M80.15,-680.96C158.21,-683.74 338.42,-684.36 481.39,-641 652.87,-588.99 832.57,-465.1 898.67,-416.78"/>
<polygon fill="blue" stroke="blue" stroke-width="2" points="900.9,-419.49 906.88,-410.74 896.75,-413.85 900.9,-419.49"/>
</g>
<!-- arp_output_reply -->
<g id="node8" class="node">
<title>arp_output_reply</title>
<ellipse fill="none" stroke="black" cx="295.06" cy="-72" rx="51.62" ry="18"/>
<text text-anchor="middle" x="295.06" y="-69.2" font-family="sans" font-size="11.00">arp_output_reply</text>
</g>
<!-- control_input&#45;&gt;arp_output_reply -->
<g id="edge7" class="edge">
<title>control_input&#45;&gt;arp_output_reply</title>
<path fill="none" stroke="blue" stroke-width="2" d="M40.79,-660.85C39.35,-572.29 37.75,-186.45 116.32,-104 146.47,-72.37 196.47,-65.69 235.77,-66.18"/>
<polygon fill="blue" stroke="blue" stroke-width="2" points="235.68,-69.68 245.77,-66.45 235.87,-62.68 235.68,-69.68"/>
</g>
<!-- ip6_output -->
<g id="node9" class="node">
<title>ip6_output</title>
<ellipse fill="none" stroke="black" cx="1821.18" cy="-630" rx="32.63" ry="18"/>
<text text-anchor="middle" x="1821.18" y="-627.2" font-family="sans" font-size="11.00">ip6_output</text>
</g>
<!-- control_input&#45;&gt;ip6_output -->
<g id="edge8" class="edge">
<title>control_input&#45;&gt;ip6_output</title>
<path fill="none" stroke="blue" stroke-width="2" d="M53.91,-695.92C66.88,-715.99 88.95,-748.41 116.32,-768 184.13,-816.51 210.68,-828 294.06,-828 294.06,-828 294.06,-828 1541.24,-828 1635.7,-828 1661.7,-799.94 1734.71,-740 1763.82,-716.1 1787.85,-680.03 1802.94,-655.61"/>
<polygon fill="blue" stroke="blue" stroke-width="2" points="1806.05,-657.23 1808.28,-646.87 1800.08,-653.58 1806.05,-657.23"/>
</g>
<!-- control_input&#45;&gt;ip6_output -->
<g id="edge10" class="edge">
<title>control_input&#45;&gt;ip6_output</title>
<path fill="none" stroke="blue" stroke-width="2" d="M47.49,-696.93C58.64,-721.13 83.71,-762.67 116.32,-786 184.13,-834.51 210.68,-846 294.06,-846 294.06,-846 294.06,-846 1541.24,-846 1635.7,-846 1661.7,-817.94 1734.71,-758 1768.62,-730.16 1795.64,-685.81 1809.66,-657.08"/>
<polygon fill="blue" stroke="blue" stroke-width="2" points="1812.85,-658.53 1813.9,-647.99 1806.5,-655.57 1812.85,-658.53"/>
</g>
<!-- ndp_na_output -->
<g id="node10" class="node">
<title>ndp_na_output</title>
<ellipse fill="none" stroke="black" cx="1155.99" cy="-706" rx="45.09" ry="18"/>
<text text-anchor="middle" x="1155.99" y="-703.2" font-family="sans" font-size="11.00">ndp_na_output</text>
</g>
<!-- control_input&#45;&gt;ndp_na_output -->
<g id="edge9" class="edge">
<title>control_input&#45;&gt;ndp_na_output</title>
<path fill="none" stroke="blue" stroke-width="2" d="M79.23,-683.65C128.66,-689.27 217.67,-698 294.06,-698 294.06,-698 294.06,-698 927.06,-698 986.69,-698 1055.05,-700.77 1101.23,-703.05"/>
<polygon fill="blue" stroke="blue" stroke-width="2" points="1101.15,-706.55 1111.31,-703.56 1101.5,-699.56 1101.15,-706.55"/>
</g>
<!-- ip_input -->
<g id="node14" class="node">
<title>ip_input</title>
<ellipse fill="none" stroke="black" cx="295.06" cy="-328" rx="27" ry="18"/>
<text text-anchor="middle" x="295.06" y="-325.2" font-family="sans" font-size="11.00">ip_input</text>
</g>
<!-- loopback_input&#45;&gt;ip_input -->
<g id="edge16" class="edge">
<title>loopback_input&#45;&gt;ip_input</title>
<path fill="none" stroke="black" d="M172.55,-550.35C195.46,-508.44 253.21,-402.76 280,-353.73"/>
<polygon fill="black" stroke="black" points="283.2,-355.16 284.93,-344.71 277.06,-351.81 283.2,-355.16"/>
</g>
<!-- ip6_input -->
<g id="node15" class="node">
<title>ip6_input</title>
<ellipse fill="none" stroke="black" cx="1155.99" cy="-549" rx="28.44" ry="18"/>
<text text-anchor="middle" x="1155.99" y="-546.2" font-family="sans" font-size="11.00">ip6_input</text>
</g>
<!-- loopback_input&#45;&gt;ip6_input -->
<g id="edge17" class="edge">
<title>loopback_input&#45;&gt;ip6_input</title>
<path fill="none" stroke="black" d="M207.22,-570.62C268.75,-574.26 383.53,-581.08 481.39,-587 619.17,-595.33 653.34,-606 791.37,-606 791.37,-606 791.37,-606 927.06,-606 993.79,-606 1010.66,-597.91 1074.94,-580 1091.04,-575.51 1108.39,-569.01 1122.81,-563.12"/>
<polygon fill="black" stroke="black" points="1124.4,-566.25 1132.28,-559.17 1121.7,-559.79 1124.4,-566.25"/>
</g>
<!-- eth_output -->
<g id="node16" class="node">
<title>eth_output</title>
<ellipse fill="none" stroke="black" cx="1962.47" cy="-90" rx="33.8" ry="18"/>
<text text-anchor="middle" x="1962.47" y="-87.2" font-family="sans" font-size="11.00">eth_output</text>
</g>
<!-- arp_output_request&#45;&gt;eth_output -->
<g id="edge28" class="edge">
<title>arp_output_request&#45;&gt;eth_output</title>
<path fill="none" stroke="black" d="M1462.83,-107.92C1574.99,-103.89 1819.32,-95.11 1918.42,-91.55"/>
<polygon fill="black" stroke="black" points="1918.79,-95.04 1928.66,-91.18 1918.54,-88.04 1918.79,-95.04"/>
</g>
<!-- icmp_output -->
<g id="node28" class="node">
<title>icmp_output</title>
<ellipse fill="none" stroke="black" cx="792.37" cy="-332" rx="37.98" ry="18"/>
<text text-anchor="middle" x="792.37" y="-329.2" font-family="sans" font-size="11.00">icmp_output</text>
</g>
<!-- icmp_local_send&#45;&gt;icmp_output -->
<g id="edge33" class="edge">
<title>icmp_local_send&#45;&gt;icmp_output</title>
<path fill="none" stroke="black" d="M453.82,-597.62C514.99,-549.48 694.23,-408.44 763.55,-353.89"/>
<polygon fill="black" stroke="black" points="766.13,-356.32 771.82,-347.38 761.8,-350.81 766.13,-356.32"/>
</g>
<!-- icmp6_output -->
<g id="node35" class="node">
<title>icmp6_output</title>
<ellipse fill="none" stroke="black" cx="1676.1" cy="-722" rx="41.58" ry="18"/>
<text text-anchor="middle" x="1676.1" y="-719.2" font-family="sans" font-size="11.00">icmp6_output</text>
</g>
<!-- icmp6_local_send&#45;&gt;icmp6_output -->
<g id="edge55" class="edge">
<title>icmp6_local_send&#45;&gt;icmp6_output</title>
<path fill="none" stroke="black" d="M845.27,-784.66C895.12,-786.99 972.56,-790 1039.75,-790 1039.75,-790 1039.75,-790 1404.83,-790 1489.38,-790 1584.42,-758.32 1636.24,-738.21"/>
<polygon fill="black" stroke="black" points="1637.69,-741.4 1645.71,-734.47 1635.12,-734.88 1637.69,-741.4"/>
</g>
<!-- ndp_ns_output&#45;&gt;icmp6_output -->
<g id="edge71" class="edge">
<title>ndp_ns_output&#45;&gt;icmp6_output</title>
<path fill="none" stroke="black" d="M970.31,-746.42C1016.15,-748.78 1090.65,-752 1154.99,-752 1154.99,-752 1154.99,-752 1404.83,-752 1483.11,-752 1573.37,-739.41 1627.25,-730.55"/>
<polygon fill="black" stroke="black" points="1627.91,-733.98 1637.2,-728.88 1626.76,-727.08 1627.91,-733.98"/>
</g>
<!-- ip_output&#45;&gt;eth_output -->
<g id="edge44" class="edge">
<title>ip_output&#45;&gt;eth_output</title>
<path fill="none" stroke="black" d="M944.25,-382.53C959.65,-370.29 983.32,-353.16 1006.56,-343 1087.85,-307.47 1115.02,-319.71 1201.04,-298 1479.01,-227.85 1811.19,-133.25 1922.77,-101.17"/>
<polygon fill="black" stroke="black" points="1923.93,-104.48 1932.57,-98.35 1921.99,-97.75 1923.93,-104.48"/>
</g>
<!-- loop_xvrf -->
<g id="node20" class="node">
<title>loop_xvrf</title>
<ellipse fill="none" stroke="black" cx="1040.75" cy="-553" rx="28.53" ry="18"/>
<text text-anchor="middle" x="1040.75" y="-550.2" font-family="sans" font-size="11.00">loop_xvrf</text>
</g>
<!-- ip_output&#45;&gt;loop_xvrf -->
<g id="edge46" class="edge">
<title>ip_output&#45;&gt;loop_xvrf</title>
<path fill="none" stroke="black" d="M938.91,-413.4C958.74,-440.86 998.78,-496.28 1021.99,-528.42"/>
<polygon fill="black" stroke="black" points="1019.37,-530.76 1028.06,-536.82 1025.05,-526.66 1019.37,-530.76"/>
</g>
<!-- ip_hold -->
<g id="node29" class="node">
<title>ip_hold</title>
<ellipse fill="none" stroke="black" cx="1155.99" cy="-408" rx="27" ry="18"/>
<text text-anchor="middle" x="1155.99" y="-405.2" font-family="sans" font-size="11.00">ip_hold</text>
</g>
<!-- ip_output&#45;&gt;ip_hold -->
<g id="edge45" class="edge">
<title>ip_output&#45;&gt;ip_hold</title>
<path fill="none" stroke="black" d="M955.47,-398.37C996.79,-400.37 1073.47,-404.07 1118.79,-406.25"/>
<polygon fill="black" stroke="black" points="1118.89,-409.76 1129.05,-406.75 1119.23,-402.77 1118.89,-409.76"/>
</g>
<!-- ipip_output -->
<g id="node32" class="node">
<title>ipip_output</title>
<ellipse fill="none" stroke="black" cx="1040.75" cy="-370" rx="34.38" ry="18"/>
<text text-anchor="middle" x="1040.75" y="-367.2" font-family="sans" font-size="11.00">ipip_output</text>
</g>
<!-- ip_output&#45;&gt;ipip_output -->
<g id="edge47" class="edge">
<title>ip_output&#45;&gt;ipip_output</title>
<path fill="none" stroke="black" d="M949.59,-386.07C962.98,-381.76 980.4,-377.23 996.36,-373.81"/>
<polygon fill="black" stroke="black" points="997.47,-377.15 1006.57,-371.73 996.08,-370.29 997.47,-377.15"/>
</g>
<!-- sr6_output -->
<g id="node33" class="node">
<title>sr6_output</title>
<ellipse fill="none" stroke="black" cx="1962.47" cy="-576" rx="33.21" ry="18"/>
<text text-anchor="middle" x="1962.47" y="-573.2" font-family="sans" font-size="11.00">sr6_output</text>
</g>
<!-- ip_output&#45;&gt;sr6_output -->
<g id="edge48" class="edge">
<title>ip_output&#45;&gt;sr6_output</title>
<path fill="none" stroke="black" d="M953.49,-403.65C968.92,-407.45 988.8,-412.2 1006.56,-416 1010.74,-416.89 1305.02,-470.8 1308.68,-473 1330.63,-486.2 1322.14,-505.84 1344.68,-518 1444.23,-571.73 1796.67,-576.32 1919.16,-576.25"/>
<polygon fill="black" stroke="black" points="1919.27,-579.75 1929.27,-576.23 1919.26,-572.75 1919.27,-579.75"/>
</g>
<!-- arp_output_reply&#45;&gt;eth_output -->
<g id="edge27" class="edge">
<title>arp_output_reply&#45;&gt;eth_output</title>
<path fill="none" stroke="black" d="M346.19,-69.56C398.84,-67.2 484.03,-64 557.64,-64 557.64,-64 557.64,-64 1677.1,-64 1763.72,-64 1864.58,-76.11 1919.89,-83.8"/>
<polygon fill="black" stroke="black" points="1919.6,-87.3 1930,-85.23 1920.58,-80.37 1919.6,-87.3"/>
</g>
<!-- ip6_output&#45;&gt;eth_output -->
<g id="edge64" class="edge">
<title>ip6_output&#45;&gt;eth_output</title>
<path fill="none" stroke="black" d="M1825.69,-611.96C1834.09,-568.5 1855.83,-454.55 1871.66,-359 1889.42,-251.72 1843.88,-205.07 1907.66,-117 1911.77,-111.31 1917.44,-106.75 1923.55,-103.11"/>
<polygon fill="black" stroke="black" points="1925.4,-106.1 1932.7,-98.43 1922.21,-99.87 1925.4,-106.1"/>
</g>
<!-- ip6_output&#45;&gt;loop_xvrf -->
<g id="edge66" class="edge">
<title>ip6_output&#45;&gt;loop_xvrf</title>
<path fill="none" stroke="black" d="M1791.53,-637.91C1741.26,-651.06 1633.76,-676 1541.24,-676 1402.83,-676 1402.83,-676 1402.83,-676 1328.66,-676 1307.85,-679.04 1237.04,-657 1173.13,-637.11 1105.76,-596.12 1069.24,-571.96"/>
<polygon fill="black" stroke="black" points="1070.89,-568.86 1060.64,-566.21 1067,-574.68 1070.89,-568.86"/>
</g>
<!-- ip6_output&#45;&gt;sr6_output -->
<g id="edge67" class="edge">
<title>ip6_output&#45;&gt;sr6_output</title>
<path fill="none" stroke="black" d="M1843.34,-616.79C1863.96,-606.97 1895.85,-594.21 1921.3,-585.39"/>
<polygon fill="black" stroke="black" points="1922.7,-588.61 1931.06,-582.1 1920.46,-581.98 1922.7,-588.61"/>
</g>
<!-- ip6_hold -->
<g id="node40" class="node">
<title>ip6_hold</title>
<ellipse fill="none" stroke="black" cx="1962.47" cy="-630" rx="27" ry="18"/>
<text text-anchor="middle" x="1962.47" y="-627.2" font-family="sans" font-size="11.00">ip6_hold</text>
</g>
<!-- ip6_output&#45;&gt;ip6_hold -->
<g id="edge65" class="edge">
<title>ip6_output&#45;&gt;ip6_hold</title>
<path fill="none" stroke="black" d="M1853.79,-630C1874.99,-630 1902.98,-630 1925.11,-630"/>
<polygon fill="black" stroke="black" points="1925.13,-633.5 1935.13,-630 1925.13,-626.5 1925.13,-633.5"/>
</g>
<!-- ndp_na_output&#45;&gt;icmp6_output -->
<g id="edge69" class="edge">
<title>ndp_na_output&#45;&gt;icmp6_output</title>
<path fill="none" stroke="black" d="M1201.16,-707.36C1296.86,-710.32 1522.86,-717.3 1624.28,-720.43"/>
<polygon fill="black" stroke="black" points="1624.18,-723.93 1634.28,-720.74 1624.39,-716.93 1624.18,-723.93"/>
</g>
<!-- control_output -->
<g id="node11" class="node">
<title>control_output</title>
<ellipse fill="none" stroke="black" cx="2097.79" cy="-359" rx="44.51" ry="18"/>
<text text-anchor="middle" x="2097.79" y="-356.2" font-family="sans" font-size="11.00">control_output</text>
</g>
<!-- eth_input -->
<g id="node12" class="node">
<title>eth_input</title>
<ellipse fill="none" stroke="black" cx="161.91" cy="-244" rx="29.12" ry="18"/>
<text text-anchor="middle" x="161.91" y="-241.2" font-family="sans" font-size="11.00">eth_input</text>
</g>
<!-- arp_input -->
<g id="node13" class="node">
<title>arp_input</title>
<ellipse fill="none" stroke="black" cx="1821.18" cy="-186" rx="29.12" ry="18"/>
<text text-anchor="middle" x="1821.18" y="-183.2" font-family="sans" font-size="11.00">arp_input</text>
</g>
<!-- eth_input&#45;&gt;arp_input -->
<g id="edge11" class="edge">
<title>eth_input&#45;&gt;arp_input</title>
<path fill="none" stroke="black" d="M184.03,-231.95C228.3,-207.85 334.74,-156 431,-156 431,-156 431,-156 1404.83,-156 1544.03,-156 1708.78,-172.97 1781.92,-181.38"/>
<polygon fill="black" stroke="black" points="1781.69,-184.88 1792.03,-182.56 1782.5,-177.93 1781.69,-184.88"/>
</g>
<!-- eth_input&#45;&gt;ip_input -->
<g id="edge12" class="edge">
<title>eth_input&#45;&gt;ip_input</title>
<path fill="none" stroke="black" d="M182.83,-256.76C205.04,-270.98 241.12,-294.09 266.14,-310.12"/>
<polygon fill="black" stroke="black" points="264.5,-313.22 274.81,-315.67 268.28,-307.33 264.5,-313.22"/>
</g>
<!-- eth_input&#45;&gt;ip6_input -->
<g id="edge13" class="edge">
<title>eth_input&#45;&gt;ip6_input</title>
<path fill="none" stroke="black" d="M171.04,-261.44C198.69,-317.89 295,-492 431,-492 431,-492 431,-492 927.06,-492 998.58,-492 1079.06,-518.74 1122.67,-535.59"/>
<polygon fill="black" stroke="black" points="1121.58,-538.92 1132.17,-539.33 1124.14,-532.41 1121.58,-538.92"/>
</g>
<!-- arp_input_request -->
<g id="node22" class="node">
<title>arp_input_request</title>
<ellipse fill="none" stroke="black" cx="1962.47" cy="-198" rx="54.63" ry="18"/>
<text text-anchor="middle" x="1962.47" y="-195.2" font-family="sans" font-size="11.00">arp_input_request</text>
</g>
<!-- arp_input&#45;&gt;arp_input_request -->
<g id="edge23" class="edge">
<title>arp_input&#45;&gt;arp_input_request</title>
<path fill="none" stroke="black" d="M1850.37,-188.43C1864.52,-189.65 1882.27,-191.18 1899.4,-192.65"/>
<polygon fill="black" stroke="black" points="1899.12,-196.14 1909.38,-193.51 1899.72,-189.17 1899.12,-196.14"/>
</g>
<!-- arp_input_reply -->
<g id="node23" class="node">
<title>arp_input_reply</title>
<ellipse fill="none" stroke="black" cx="1962.47" cy="-144" rx="47.43" ry="18"/>
<text text-anchor="middle" x="1962.47" y="-141.2" font-family="sans" font-size="11.00">arp_input_reply</text>
</g>
<!-- arp_input&#45;&gt;arp_input_reply -->
<g id="edge24" class="edge">
<title>arp_input&#45;&gt;arp_input_reply</title>
<path fill="none" stroke="black" d="M1847.73,-178.3C1866.54,-172.62 1892.65,-164.75 1915.11,-157.98"/>
<polygon fill="black" stroke="black" points="1916.24,-161.29 1924.8,-155.06 1914.22,-154.59 1916.24,-161.29"/>
</g>
<!-- ip_input&#45;&gt;ip_output -->
<g id="edge38" class="edge">
<title>ip_input&#45;&gt;ip_output</title>
<path fill="none" stroke="black" d="M314.94,-340.18C332.02,-350.72 358.17,-365.69 382.62,-375 457.28,-403.43 477.75,-416 557.64,-416 557.64,-416 557.64,-416 670.53,-416 747.69,-416 837.63,-407.21 887.28,-401.59"/>
<polygon fill="black" stroke="black" points="887.71,-405.06 897.24,-400.44 886.9,-398.11 887.71,-405.06"/>
</g>
<!-- dnat44 -->
<g id="node24" class="node">
<title>dnat44</title>
<ellipse fill="none" stroke="black" cx="432" cy="-328" rx="27" ry="18"/>
<text text-anchor="middle" x="432" y="-325.2" font-family="sans" font-size="11.00">dnat44</text>
</g>
<!-- ip_input&#45;&gt;dnat44 -->
<g id="edge40" class="edge">
<title>ip_input&#45;&gt;dnat44</title>
<path fill="none" stroke="black" d="M322.08,-328C342.67,-328 371.66,-328 394.56,-328"/>
<polygon fill="black" stroke="black" points="394.6,-331.5 404.6,-328 394.6,-324.5 394.6,-331.5"/>
</g>
<!-- ip_forward -->
<g id="node25" class="node">
<title>ip_forward</title>
<ellipse fill="none" stroke="black" cx="558.64" cy="-370" rx="32.63" ry="18"/>
<text text-anchor="middle" x="558.64" y="-367.2" font-family="sans" font-size="11.00">ip_forward</text>
</g>
<!-- ip_input&#45;&gt;ip_forward -->
<g id="edge37" class="edge">
<title>ip_input&#45;&gt;ip_forward</title>
<path fill="none" stroke="black" d="M318.85,-336.6C336.11,-342.75 360.53,-350.66 382.62,-355 427.69,-363.85 480.32,-367.48 516,-368.97"/>
<polygon fill="black" stroke="black" points="515.93,-372.47 526.05,-369.35 516.19,-365.47 515.93,-372.47"/>
</g>
<!-- ip_input_local -->
<g id="node26" class="node">
<title>ip_input_local</title>
<ellipse fill="none" stroke="black" cx="558.64" cy="-286" rx="41.49" ry="18"/>
<text text-anchor="middle" x="558.64" y="-283.2" font-family="sans" font-size="11.00">ip_input_local</text>
</g>
<!-- ip_input&#45;&gt;ip_input_local -->
<g id="edge39" class="edge">
<title>ip_input&#45;&gt;ip_input_local</title>
<path fill="none" stroke="black" d="M318.85,-319.4C336.11,-313.25 360.53,-305.34 382.62,-301 424.15,-292.84 472.1,-289.12 507.29,-287.42"/>
<polygon fill="black" stroke="black" points="507.49,-290.92 517.32,-286.98 507.18,-283.93 507.49,-290.92"/>
</g>
<!-- ip6_input&#45;&gt;ip6_output -->
<g id="edge59" class="edge">
<title>ip6_input&#45;&gt;ip6_output</title>
<path fill="none" stroke="black" d="M1182.66,-555.1C1227.19,-565.12 1321.78,-584 1402.83,-584 1402.83,-584 1402.83,-584 1541.24,-584 1628.15,-584 1728.3,-606.01 1781.78,-619.58"/>
<polygon fill="black" stroke="black" points="1780.97,-622.99 1791.53,-622.09 1782.72,-616.21 1780.97,-622.99"/>
</g>
<!-- ip6_forward -->
<g id="node39" class="node">
<title>ip6_forward</title>
<ellipse fill="none" stroke="black" cx="1272.86" cy="-630" rx="35.64" ry="18"/>
<text text-anchor="middle" x="1272.86" y="-627.2" font-family="sans" font-size="11.00">ip6_forward</text>
</g>
<!-- ip6_input&#45;&gt;ip6_forward -->
<g id="edge58" class="edge">
<title>ip6_input&#45;&gt;ip6_forward</title>
<path fill="none" stroke="black" d="M1175.7,-562.19C1193.92,-575.04 1221.86,-594.74 1242.93,-609.6"/>
<polygon fill="black" stroke="black" points="1241.02,-612.54 1251.21,-615.44 1245.06,-606.82 1241.02,-612.54"/>
</g>
<!-- ip6_input_local -->
<g id="node41" class="node">
<title>ip6_input_local</title>
<ellipse fill="none" stroke="black" cx="1403.83" cy="-491" rx="45.09" ry="18"/>
<text text-anchor="middle" x="1403.83" y="-488.2" font-family="sans" font-size="11.00">ip6_input_local</text>
</g>
<!-- ip6_input&#45;&gt;ip6_input_local -->
<g id="edge60" class="edge">
<title>ip6_input&#45;&gt;ip6_input_local</title>
<path fill="none" stroke="black" d="M1184.2,-546.88C1214.84,-544.07 1265.93,-538.13 1308.68,-527 1327.22,-522.17 1347.13,-514.89 1363.84,-508.13"/>
<polygon fill="black" stroke="black" points="1365.37,-511.29 1373.28,-504.24 1362.7,-504.82 1365.37,-511.29"/>
</g>
<!-- sr6_local -->
<g id="node42" class="node">
<title>sr6_local</title>
<ellipse fill="none" stroke="black" cx="1272.86" cy="-500" rx="27.86" ry="18"/>
<text text-anchor="middle" x="1272.86" y="-497.2" font-family="sans" font-size="11.00">sr6_local</text>
</g>
<!-- ip6_input&#45;&gt;sr6_local -->
<g id="edge61" class="edge">
<title>ip6_input&#45;&gt;sr6_local</title>
<path fill="none" stroke="black" d="M1175.7,-535.88C1192.2,-527.18 1216.68,-516.36 1236.81,-508.68"/>
<polygon fill="black" stroke="black" points="1238.12,-511.93 1246.29,-505.18 1235.69,-505.36 1238.12,-511.93"/>
</g>
<!-- port_tx -->
<g id="node17" class="node">
<title>port_tx</title>
<ellipse fill="none" stroke="black" cx="2097.79" cy="-60" rx="27" ry="18"/>
<text text-anchor="middle" x="2097.79" y="-57.2" font-family="sans" font-size="11.00">port_tx</text>
</g>
<!-- eth_output&#45;&gt;port_tx -->
<g id="edge14" class="edge">
<title>eth_output&#45;&gt;port_tx</title>
<path fill="none" stroke="black" d="M1993.72,-83.19C2014.06,-78.62 2040.91,-72.57 2062.11,-67.8"/>
<polygon fill="black" stroke="black" points="2063.02,-71.19 2072.01,-65.58 2061.49,-64.36 2063.02,-71.19"/>
</g>
<!-- l1_xconnect -->
<g id="node18" class="node">
<title>l1_xconnect</title>
<ellipse fill="none" stroke="black" cx="295.06" cy="-18" rx="36.23" ry="18"/>
<text text-anchor="middle" x="295.06" y="-15.2" font-family="sans" font-size="11.00">l1_xconnect</text>
</g>
<!-- l1_xconnect&#45;&gt;port_tx -->
<g id="edge15" class="edge">
<title>l1_xconnect&#45;&gt;port_tx</title>
<path fill="none" stroke="black" d="M331.6,-18.89C381.91,-20.07 476.79,-22 557.64,-22 557.64,-22 557.64,-22 1822.18,-22 1909.08,-22 2010.01,-40.9 2061.94,-52.05"/>
<polygon fill="black" stroke="black" points="2061.44,-55.52 2071.96,-54.23 2062.93,-48.68 2061.44,-55.52"/>
</g>
<!-- loopback_output -->
<g id="node19" class="node">
<title>loopback_output</title>
<ellipse fill="none" stroke="black" cx="1821.18" cy="-278" rx="50.45" ry="18"/>
<text text-anchor="middle" x="1821.18" y="-275.2" font-family="sans" font-size="11.00">loopback_output</text>
</g>
<!-- loopback_output&#45;&gt;control_output -->
<g id="edge18" class="edge">
<title>loopback_output&#45;&gt;control_output</title>
<path fill="none" stroke="black" d="M1860.65,-289.35C1910.71,-304.11 1998.06,-329.88 2051.33,-345.59"/>
<polygon fill="black" stroke="black" points="2050.61,-349.03 2061.19,-348.5 2052.59,-342.31 2050.61,-349.03"/>
</g>
<!-- loop_xvrf&#45;&gt;ip_input -->
<g id="edge19" class="edge">
<title>loop_xvrf&#45;&gt;ip_input</title>
<path fill="none" stroke="black" d="M1011.68,-553.18C915.95,-552.53 596.5,-539.97 382.62,-407 357.59,-391.44 333.18,-368.21 316.7,-350.96"/>
<polygon fill="black" stroke="black" points="319.1,-348.4 309.71,-343.5 313.99,-353.19 319.1,-348.4"/>
</g>
<!-- loop_xvrf&#45;&gt;ip6_input -->
<g id="edge20" class="edge">
<title>loop_xvrf&#45;&gt;ip6_input</title>
<path fill="none" stroke="black" d="M1069.74,-552.01C1084.11,-551.5 1101.82,-550.88 1117.36,-550.33"/>
<polygon fill="black" stroke="black" points="1117.84,-553.81 1127.71,-549.96 1117.59,-546.82 1117.84,-553.81"/>
</g>
<!-- port_rx -->
<g id="node21" class="node">
<title>port_rx</title>
<ellipse fill="none" stroke="blue" stroke-width="2" cx="40.16" cy="-136" rx="27" ry="18"/>
<text text-anchor="middle" x="40.16" y="-133.2" font-family="sans" font-size="11.00">port_rx</text>
</g>
<!-- port_rx&#45;&gt;eth_input -->
<g id="edge21" class="edge">
<title>port_rx&#45;&gt;eth_input</title>
<path fill="none" stroke="blue" stroke-width="2" d="M57.31,-150.57C77.85,-169.08 113.46,-201.21 137.11,-222.54"/>
<polygon fill="blue" stroke="blue" stroke-width="2" points="134.86,-225.22 144.63,-229.32 139.55,-220.02 134.86,-225.22"/>
</g>
<!-- port_rx&#45;&gt;l1_xconnect -->
<g id="edge22" class="edge">
<title>port_rx&#45;&gt;l1_xconnect</title>
<path fill="none" stroke="blue" stroke-width="2" d="M53.15,-119.88C66.64,-102.91 90.12,-76.66 116.32,-62 157.78,-38.8 211.41,-27.69 248.86,-22.47"/>
<polygon fill="blue" stroke="blue" stroke-width="2" points="249.52,-25.91 258.98,-21.14 248.61,-18.97 249.52,-25.91"/>
</g>
<!-- arp_input_request&#45;&gt;control_output -->
<g id="edge26" class="edge">
<title>arp_input_request&#45;&gt;control_output</title>
<path fill="none" stroke="black" d="M1994.05,-212.75C2002.17,-217.55 2010.55,-223.37 2017.28,-230 2047.81,-260.04 2071.66,-304.05 2084.99,-332.1"/>
<polygon fill="black" stroke="black" points="2081.87,-333.71 2089.25,-341.31 2088.23,-330.77 2081.87,-333.71"/>
</g>
<!-- arp_input_reply&#45;&gt;control_output -->
<g id="edge25" class="edge">
<title>arp_input_reply&#45;&gt;control_output</title>
<path fill="none" stroke="black" d="M1997.26,-156.38C2004.54,-160.22 2011.71,-165.05 2017.28,-171 2060.77,-217.41 2082.36,-291.14 2091.38,-331.08"/>
<polygon fill="black" stroke="black" points="2087.97,-331.9 2093.5,-340.93 2094.82,-330.42 2087.97,-331.9"/>
</g>
<!-- dnat44&#45;&gt;ip_forward -->
<g id="edge29" class="edge">
<title>dnat44&#45;&gt;ip_forward</title>
<path fill="none" stroke="black" d="M456.45,-335.9C474.59,-342.01 500.05,-350.59 520.89,-357.62"/>
<polygon fill="black" stroke="black" points="519.8,-360.94 530.4,-360.82 522.04,-354.31 519.8,-360.94"/>
</g>
<!-- dnat44&#45;&gt;ip_input_local -->
<g id="edge30" class="edge">
<title>dnat44&#45;&gt;ip_input_local</title>
<path fill="none" stroke="black" d="M456.45,-320.1C473.1,-314.49 495.91,-306.8 515.66,-300.15"/>
<polygon fill="black" stroke="black" points="517.01,-303.39 525.36,-296.88 514.77,-296.75 517.01,-303.39"/>
</g>
<!-- ip_forward&#45;&gt;ip_output -->
<g id="edge35" class="edge">
<title>ip_forward&#45;&gt;ip_output</title>
<path fill="none" stroke="black" d="M591.11,-372.33C657.94,-377.26 813.82,-388.78 886.49,-394.15"/>
<polygon fill="black" stroke="black" points="886.36,-397.65 896.59,-394.9 886.87,-390.67 886.36,-397.65"/>
</g>
<!-- icmp_input -->
<g id="node27" class="node">
<title>icmp_input</title>
<ellipse fill="none" stroke="black" cx="669.53" cy="-332" rx="33.8" ry="18"/>
<text text-anchor="middle" x="669.53" y="-329.2" font-family="sans" font-size="11.00">icmp_input</text>
</g>
<!-- ip_input_local&#45;&gt;icmp_input -->
<g id="edge41" class="edge">
<title>ip_input_local&#45;&gt;icmp_input</title>
<path fill="none" stroke="black" d="M588.82,-298.33C602.44,-304.08 618.76,-310.97 633.08,-317.02"/>
<polygon fill="black" stroke="black" points="632.04,-320.38 642.62,-321.05 634.77,-313.94 632.04,-320.38"/>
</g>
<!-- ipip_input -->
<g id="node30" class="node">
<title>ipip_input</title>
<ellipse fill="none" stroke="black" cx="669.53" cy="-240" rx="29.7" ry="18"/>
<text text-anchor="middle" x="669.53" y="-237.2" font-family="sans" font-size="11.00">ipip_input</text>
</g>
<!-- ip_input_local&#45;&gt;ipip_input -->
<g id="edge42" class="edge">
<title>ip_input_local&#45;&gt;ipip_input</title>
<path fill="none" stroke="black" d="M588.82,-273.67C603.08,-267.65 620.32,-260.37 635.11,-254.12"/>
<polygon fill="black" stroke="black" points="636.57,-257.3 644.42,-250.19 633.85,-250.85 636.57,-257.3"/>
</g>
<!-- l4_input_local -->
<g id="node31" class="node">
<title>l4_input_local</title>
<ellipse fill="none" stroke="black" cx="1540.24" cy="-308" rx="41.49" ry="18"/>
<text text-anchor="middle" x="1540.24" y="-305.2" font-family="sans" font-size="11.00">l4_input_local</text>
</g>
<!-- ip_input_local&#45;&gt;l4_input_local -->
<g id="edge43" class="edge">
<title>ip_input_local&#45;&gt;l4_input_local</title>
<path fill="none" stroke="black" d="M599.17,-282.03C635.51,-278.59 690.91,-273.88 739.18,-272 888.3,-266.2 925.83,-266.23 1074.94,-272 1226.37,-277.86 1404.94,-294.44 1489.74,-302.9"/>
<polygon fill="black" stroke="black" points="1489.56,-306.4 1499.85,-303.91 1490.25,-299.43 1489.56,-306.4"/>
</g>
<!-- icmp_input&#45;&gt;control_output -->
<g id="edge32" class="edge">
<title>icmp_input&#45;&gt;control_output</title>
<path fill="none" stroke="black" d="M695.41,-320.24C708.21,-314.7 724.23,-308.55 739.18,-305 760.9,-299.85 1516.92,-232 1539.24,-232 1539.24,-232 1539.24,-232 1677.1,-232 1831.37,-232 1880.48,-229.69 2017.28,-301 2035.9,-310.7 2054.97,-324.46 2069.76,-336.13"/>
<polygon fill="black" stroke="black" points="2067.95,-339.18 2077.94,-342.72 2072.34,-333.72 2067.95,-339.18"/>
</g>
<!-- icmp_input&#45;&gt;icmp_output -->
<g id="edge31" class="edge">
<title>icmp_input&#45;&gt;icmp_output</title>
<path fill="none" stroke="black" d="M703.23,-332C715.82,-332 730.46,-332 744.15,-332"/>
<polygon fill="black" stroke="black" points="744.38,-335.5 754.38,-332 744.38,-328.5 744.38,-335.5"/>
</g>
<!-- icmp_output&#45;&gt;ip_output -->
<g id="edge34" class="edge">
<title>icmp_output&#45;&gt;ip_output</title>
<path fill="none" stroke="black" d="M819.39,-344.84C840.64,-355.33 870.75,-370.2 893.4,-381.37"/>
<polygon fill="black" stroke="black" points="892.09,-384.63 902.6,-385.92 895.18,-378.35 892.09,-384.63"/>
</g>
<!-- ip_hold&#45;&gt;control_output -->
<g id="edge36" class="edge">
<title>ip_hold&#45;&gt;control_output</title>
<path fill="none" stroke="black" d="M1182.12,-412.68C1271.86,-429.38 1573.51,-485.16 1617.48,-489 1669.39,-493.53 1682.75,-492.77 1734.71,-489 1796.06,-484.54 1810.97,-479.05 1871.66,-469 1936.6,-458.24 1959.36,-473.28 2017.28,-442 2042.71,-428.27 2064.81,-403.51 2079.21,-384.6"/>
<polygon fill="black" stroke="black" points="2082.16,-386.51 2085.27,-376.38 2076.52,-382.35 2082.16,-386.51"/>
</g>
<!-- ipip_input&#45;&gt;ip_input -->
<g id="edge73" class="edge">
<title>ipip_input&#45;&gt;ip_input</title>
<path fill="none" stroke="black" d="M639.79,-241.49C587.39,-244.89 473.39,-255.44 382.62,-286 362.77,-292.68 341.6,-302.89 325.16,-311.58"/>
<polygon fill="black" stroke="black" points="323.22,-308.65 316.08,-316.47 326.54,-314.81 323.22,-308.65"/>
</g>
<!-- l4_loopback_output -->
<g id="node43" class="node">
<title>l4_loopback_output</title>
<ellipse fill="none" stroke="black" cx="1676.1" cy="-278" rx="58.73" ry="18"/>
<text text-anchor="middle" x="1676.1" y="-275.2" font-family="sans" font-size="11.00">l4_loopback_output</text>
</g>
<!-- l4_input_local&#45;&gt;l4_loopback_output -->
<g id="edge75" class="edge">
<title>l4_input_local&#45;&gt;l4_loopback_output</title>
<path fill="none" stroke="black" d="M1577.46,-299.88C1590.05,-297.06 1604.48,-293.83 1618.32,-290.72"/>
<polygon fill="black" stroke="black" points="1619.27,-294.1 1628.26,-288.5 1617.74,-287.27 1619.27,-294.1"/>
</g>
<!-- ipip_output&#45;&gt;ip_output -->
<g id="edge74" class="edge">
<title>ipip_output&#45;&gt;ip_output</title>
<path fill="none" stroke="black" d="M1014.4,-381.82C1000.05,-386.3 981.8,-390.9 965.7,-394.19"/>
<polygon fill="black" stroke="black" points="964.66,-390.82 955.5,-396.14 965.98,-397.7 964.66,-390.82"/>
</g>
<!-- sr6_output&#45;&gt;ip6_output -->
<g id="edge80" class="edge">
<title>sr6_output&#45;&gt;ip6_output</title>
<path fill="none" stroke="black" d="M1939.82,-589.44C1919.03,-599.31 1887.11,-612.05 1861.77,-620.81"/>
<polygon fill="black" stroke="black" points="1860.43,-617.57 1852.06,-624.07 1862.66,-624.2 1860.43,-617.57"/>
</g>
<!-- icmp6_input -->
<g id="node34" class="node">
<title>icmp6_input</title>
<ellipse fill="none" stroke="black" cx="1540.24" cy="-417" rx="37.4" ry="18"/>
<text text-anchor="middle" x="1540.24" y="-414.2" font-family="sans" font-size="11.00">icmp6_input</text>
</g>
<!-- icmp6_input&#45;&gt;control_output -->
<g id="edge53" class="edge">
<title>icmp6_input&#45;&gt;control_output</title>
<path fill="none" stroke="black" d="M1564.37,-403.12C1579.04,-395.08 1598.73,-385.66 1617.48,-381 1657.8,-370.98 1926.31,-363.22 2042.91,-360.28"/>
<polygon fill="black" stroke="black" points="2043.13,-363.77 2053.04,-360.03 2042.96,-356.78 2043.13,-363.77"/>
</g>
<!-- icmp6_input&#45;&gt;icmp6_output -->
<g id="edge49" class="edge">
<title>icmp6_input&#45;&gt;icmp6_output</title>
<path fill="none" stroke="black" d="M1549.01,-434.72C1571.42,-485.78 1636.26,-633.51 1663.17,-694.83"/>
<polygon fill="black" stroke="black" points="1660.07,-696.48 1667.3,-704.23 1666.48,-693.67 1660.07,-696.48"/>
</g>
<!-- ndp_ns_input -->
<g id="node36" class="node">
<title>ndp_ns_input</title>
<ellipse fill="none" stroke="black" cx="1821.18" cy="-332" rx="40.32" ry="18"/>
<text text-anchor="middle" x="1821.18" y="-329.2" font-family="sans" font-size="11.00">ndp_ns_input</text>
</g>
<!-- icmp6_input&#45;&gt;ndp_ns_input -->
<g id="edge50" class="edge">
<title>icmp6_input&#45;&gt;ndp_ns_input</title>
<path fill="none" stroke="black" d="M1554.04,-400.25C1567.74,-383.74 1591.09,-359.38 1617.48,-348 1666.89,-326.69 1729.33,-325.09 1771.76,-327.27"/>
<polygon fill="black" stroke="black" points="1771.63,-330.77 1781.83,-327.88 1772.06,-323.79 1771.63,-330.77"/>
</g>
<!-- ndp_na_input -->
<g id="node37" class="node">
<title>ndp_na_input</title>
<ellipse fill="none" stroke="black" cx="1676.1" cy="-462" rx="40.91" ry="18"/>
<text text-anchor="middle" x="1676.1" y="-459.2" font-family="sans" font-size="11.00">ndp_na_input</text>
</g>
<!-- icmp6_input&#45;&gt;ndp_na_input -->
<g id="edge51" class="edge">
<title>icmp6_input&#45;&gt;ndp_na_input</title>
<path fill="none" stroke="black" d="M1571.28,-427.1C1589.69,-433.29 1613.53,-441.3 1633.71,-448.09"/>
<polygon fill="black" stroke="black" points="1632.7,-451.44 1643.29,-451.31 1634.93,-444.8 1632.7,-451.44"/>
</g>
<!-- ndp_rs_input -->
<g id="node38" class="node">
<title>ndp_rs_input</title>
<ellipse fill="none" stroke="black" cx="1676.1" cy="-408" rx="39.15" ry="18"/>
<text text-anchor="middle" x="1676.1" y="-405.2" font-family="sans" font-size="11.00">ndp_rs_input</text>
</g>
<!-- icmp6_input&#45;&gt;ndp_rs_input -->
<g id="edge52" class="edge">
<title>icmp6_input&#45;&gt;ndp_rs_input</title>
<path fill="none" stroke="black" d="M1577.46,-414.56C1592.58,-413.55 1610.36,-412.35 1626.58,-411.26"/>
<polygon fill="black" stroke="black" points="1627.23,-414.73 1636.97,-410.56 1626.76,-407.74 1627.23,-414.73"/>
</g>
<!-- icmp6_output&#45;&gt;ip6_output -->
<g id="edge54" class="edge">
<title>icmp6_output&#45;&gt;ip6_output</title>
<path fill="none" stroke="black" d="M1703.24,-708.23C1713.23,-702.78 1724.62,-696.32 1734.71,-690 1754.6,-677.54 1776.23,-662.35 1792.75,-650.36"/>
<polygon fill="black" stroke="black" points="1794.88,-653.14 1800.89,-644.42 1790.75,-647.49 1794.88,-653.14"/>
</g>
<!-- ndp_ns_input&#45;&gt;control_output -->
<g id="edge70" class="edge">
<title>ndp_ns_input&#45;&gt;control_output</title>
<path fill="none" stroke="black" d="M1860.65,-335.78C1908.5,-340.49 1990.39,-348.54 2044.06,-353.82"/>
<polygon fill="black" stroke="black" points="2043.77,-357.3 2054.06,-354.8 2044.45,-350.34 2043.77,-357.3"/>
</g>
<!-- ndp_na_input&#45;&gt;control_output -->
<g id="edge68" class="edge">
<title>ndp_na_input&#45;&gt;control_output</title>
<path fill="none" stroke="black" d="M1716.84,-462.25C1781.91,-461.39 1914.24,-454.29 2017.28,-414 2036.62,-406.44 2055.84,-393.34 2070.53,-381.82"/>
<polygon fill="black" stroke="black" points="2073.05,-384.29 2078.63,-375.28 2068.65,-378.84 2073.05,-384.29"/>
</g>
<!-- ndp_rs_input&#45;&gt;control_output -->
<g id="edge72" class="edge">
<title>ndp_rs_input&#45;&gt;control_output</title>
<path fill="none" stroke="black" d="M1714.91,-410.43C1778.31,-413.57 1909.68,-416.09 2017.28,-392 2031.84,-388.74 2047.12,-383.01 2060.36,-377.23"/>
<polygon fill="black" stroke="black" points="2061.93,-380.36 2069.6,-373.04 2059.04,-373.98 2061.93,-380.36"/>
</g>
<!-- ip6_forward&#45;&gt;ip6_output -->
<g id="edge56" class="edge">
<title>ip6_forward&#45;&gt;ip6_output</title>
<path fill="none" stroke="black" d="M1308.86,-630C1405.29,-630 1674.48,-630 1778.46,-630"/>
<polygon fill="black" stroke="black" points="1778.57,-633.5 1788.57,-630 1778.57,-626.5 1778.57,-633.5"/>
</g>
<!-- ip6_hold&#45;&gt;control_output -->
<g id="edge57" class="edge">
<title>ip6_hold&#45;&gt;control_output</title>
<path fill="none" stroke="black" d="M1987.33,-622.74C1997.79,-618.49 2009.45,-612.11 2017.28,-603 2072.12,-539.26 2089.31,-436.89 2094.56,-387.49"/>
<polygon fill="black" stroke="black" points="2098.08,-387.52 2095.56,-377.23 2091.11,-386.84 2098.08,-387.52"/>
</g>
<!-- ip6_input_local&#45;&gt;l4_input_local -->
<g id="edge63" class="edge">
<title>ip6_input_local&#45;&gt;l4_input_local</title>
<path fill="none" stroke="black" d="M1417.48,-473.78C1441.25,-441.41 1492.72,-371.33 1520.52,-333.48"/>
<polygon fill="black" stroke="black" points="1523.62,-335.17 1526.72,-325.04 1517.98,-331.03 1523.62,-335.17"/>
</g>
<!-- ip6_input_local&#45;&gt;icmp6_input -->
<g id="edge62" class="edge">
<title>ip6_input_local&#45;&gt;icmp6_input</title>
<path fill="none" stroke="black" d="M1431.07,-476.56C1452.51,-464.75 1482.96,-447.98 1506.09,-435.25"/>
<polygon fill="black" stroke="black" points="1507.81,-438.3 1514.88,-430.41 1504.43,-432.17 1507.81,-438.3"/>
</g>
<!-- sr6_local&#45;&gt;ip_input -->
<g id="edge77" class="edge">
<title>sr6_local&#45;&gt;ip_input</title>
<path fill="none" stroke="black" d="M1245.76,-496.03C1210.66,-489.38 1148.34,-472.81 1110.94,-435 1080.07,-403.78 1106.55,-373.47 1074.94,-343 948.93,-221.51 875.75,-242.3 703.18,-213 561.28,-188.9 513.67,-199.48 382.62,-259 357.81,-270.27 333.92,-290.22 317.55,-305.78"/>
<polygon fill="black" stroke="black" points="314.86,-303.52 310.15,-313.01 319.75,-308.53 314.86,-303.52"/>
</g>
<!-- sr6_local&#45;&gt;ip6_input -->
<g id="edge78" class="edge">
<title>sr6_local&#45;&gt;ip6_input</title>
<path fill="none" stroke="black" d="M1253.4,-512.99C1237.04,-521.63 1212.69,-532.41 1192.55,-540.13"/>
<polygon fill="black" stroke="black" points="1191.22,-536.89 1183.06,-543.64 1193.65,-543.45 1191.22,-536.89"/>
</g>
<!-- sr6_local&#45;&gt;ip6_input_local -->
<g id="edge79" class="edge">
<title>sr6_local&#45;&gt;ip6_input_local</title>
<path fill="none" stroke="black" d="M1300.58,-498.14C1314.63,-497.15 1332.38,-495.92 1349.13,-494.75"/>
<polygon fill="black" stroke="black" points="1349.66,-498.22 1359.39,-494.03 1349.17,-491.24 1349.66,-498.22"/>
</g>
<!-- l4_loopback_output&#45;&gt;loopback_output -->
<g id="edge76" class="edge">
<title>l4_loopback_output&#45;&gt;loopback_output</title>
<path fill="none" stroke="black" d="M1734.88,-278C1743.26,-278 1751.91,-278 1760.33,-278"/>
<polygon fill="black" stroke="black" points="1760.46,-281.5 1770.46,-278 1760.46,-274.5 1760.46,-281.5"/>
</g>
</g>
</svg>
