<?xml version="1.0" encoding="UTF-8" standalone="no"?>
<!DOCTYPE svg PUBLIC "-//W3C//DTD SVG 1.1//EN"
 "http://www.w3.org/Graphics/SVG/1.1/DTD/svg11.dtd">
<!-- Generated by graphviz version 12.2.1 (20241206.2353)
 -->
<!-- Pages: 1 -->
<svg width="2247pt" height="987pt"
 viewBox="0.00 0.00 2247.01 987.00" xmlns="http://www.w3.org/2000/svg" xmlns:xlink="http://www.w3.org/1999/xlink">
<g id="graph0" class="graph" transform="scale(1 1) rotate(0) translate(4 983)">
<polygon fill="white" stroke="none" points="-4,4 -4,-983 2243.01,-983 2243.01,4 -4,4"/>
<!-- bond_output -->
<g id="node1" class="node">
<title>bond_output</title>
<ellipse fill="none" stroke="black" cx="1997.08" cy="-285" rx="40.69" ry="18"/>
<text text-anchor="middle" x="1997.08" y="-282.43" font-family="sans" font-size="11.00">bond_output</text>
</g>
<!-- port_output -->
<g id="node3" class="node">
<title>port_output</title>
<ellipse fill="none" stroke="black" cx="2111.39" cy="-262" rx="37.62" ry="18"/>
<text text-anchor="middle" x="2111.39" y="-259.43" font-family="sans" font-size="11.00">port_output</text>
</g>
<!-- bond_output&#45;&gt;port_output -->
<g id="edge1" class="edge">
<title>bond_output&#45;&gt;port_output</title>
<path fill="none" stroke="black" d="M2034.54,-277.53C2044.32,-275.53 2055,-273.34 2065.18,-271.26"/>
<polygon fill="black" stroke="black" points="2065.82,-274.7 2074.91,-269.27 2064.41,-267.84 2065.82,-274.7"/>
</g>
<!-- l1_xconnect -->
<g id="node2" class="node">
<title>l1_xconnect</title>
<ellipse fill="none" stroke="black" cx="891.87" cy="-23" rx="36.74" ry="18"/>
<text text-anchor="middle" x="891.87" y="-20.43" font-family="sans" font-size="11.00">l1_xconnect</text>
</g>
<!-- l1_xconnect&#45;&gt;port_output -->
<g id="edge9" class="edge">
<title>l1_xconnect&#45;&gt;port_output</title>
<path fill="none" stroke="black" d="M926.12,-29.81C968.12,-37.81 1042.7,-50 1107.21,-50 1107.21,-50 1107.21,-50 1886.84,-50 1992.62,-50 2068.37,-176.51 2097.36,-234.07"/>
<polygon fill="black" stroke="black" points="2094.17,-235.5 2101.72,-242.93 2100.45,-232.41 2094.17,-235.5"/>
</g>
<!-- port_tx -->
<g id="node5" class="node">
<title>port_tx</title>
<ellipse fill="none" stroke="black" cx="2212.01" cy="-262" rx="27" ry="18"/>
<text text-anchor="middle" x="2212.01" y="-259.43" font-family="sans" font-size="11.00">port_tx</text>
</g>
<!-- port_output&#45;&gt;port_tx -->
<g id="edge15" class="edge">
<title>port_output&#45;&gt;port_tx</title>
<path fill="none" stroke="black" d="M2149.39,-262C2157.16,-262 2165.36,-262 2173.16,-262"/>
<polygon fill="black" stroke="black" points="2173.06,-265.5 2183.06,-262 2173.06,-258.5 2173.06,-265.5"/>
</g>
<!-- port_rx -->
<g id="node4" class="node">
<title>port_rx</title>
<ellipse fill="none" stroke="blue" stroke-width="2" cx="27" cy="-69" rx="27" ry="18"/>
<text text-anchor="middle" x="27" y="-66.42" font-family="sans" font-size="11.00">port_rx</text>
</g>
<!-- port_rx&#45;&gt;l1_xconnect -->
<g id="edge17" class="edge">
<title>port_rx&#45;&gt;l1_xconnect</title>
<path fill="none" stroke="blue" stroke-width="2" d="M48.72,-58.07C87.59,-38.61 174.57,0 252.72,0 252.72,0 252.72,0 640.91,0 712.32,0 794.72,-9.42 844.79,-16.21"/>
<polygon fill="blue" stroke="blue" stroke-width="2" points="842.8,-19.47 853.19,-17.37 843.76,-12.53 842.8,-19.47"/>
</g>
<!-- eth_input -->
<g id="node6" class="node">
<title>eth_input</title>
<ellipse fill="none" stroke="black" cx="136.95" cy="-115" rx="30.17" ry="18"/>
<text text-anchor="middle" x="136.95" y="-112.42" font-family="sans" font-size="11.00">eth_input</text>
</g>
<!-- port_rx&#45;&gt;eth_input -->
<g id="edge16" class="edge">
<title>port_rx&#45;&gt;eth_input</title>
<path fill="none" stroke="blue" stroke-width="2" d="M50.37,-78.53C65.06,-84.79 84.57,-93.11 101.26,-100.22"/>
<polygon fill="blue" stroke="blue" stroke-width="2" points="98.38,-102.79 108.95,-103.49 101.12,-96.35 98.38,-102.79"/>
</g>
<!-- lacp_input -->
<g id="node9" class="node">
<title>lacp_input</title>
<polygon fill="none" stroke="dodgerblue" points="287.55,-64 219.9,-64 219.9,-28 287.55,-28 287.55,-64"/>
<text text-anchor="middle" x="253.72" y="-43.42" font-family="sans" font-size="11.00">lacp_input</text>
</g>
<!-- eth_input&#45;&gt;lacp_input -->
<g id="edge3" class="edge">
<title>eth_input&#45;&gt;lacp_input</title>
<path fill="none" stroke="black" d="M159,-102.34C173.96,-93.35 194.52,-80.99 212.57,-70.14"/>
<polygon fill="black" stroke="black" points="214.23,-73.23 221,-65.08 210.62,-67.23 214.23,-73.23"/>
</g>
<!-- snap_input -->
<g id="node11" class="node">
<title>snap_input</title>
<ellipse fill="none" stroke="black" cx="1108.21" cy="-109" rx="34.99" ry="18"/>
<text text-anchor="middle" x="1108.21" y="-106.42" font-family="sans" font-size="11.00">snap_input</text>
</g>
<!-- eth_input&#45;&gt;snap_input -->
<g id="edge2" class="edge">
<title>eth_input&#45;&gt;snap_input</title>
<path fill="none" stroke="black" d="M166.52,-110.46C211.22,-103.75 300.44,-92 376.62,-92 376.62,-92 376.62,-92 892.87,-92 951.68,-92 1019.29,-98.44 1062.59,-103.39"/>
<polygon fill="black" stroke="black" points="1062.02,-106.85 1072.36,-104.53 1062.83,-99.9 1062.02,-106.85"/>
</g>
<!-- arp_input -->
<g id="node12" class="node">
<title>arp_input</title>
<ellipse fill="none" stroke="black" cx="253.72" cy="-138" rx="30.61" ry="18"/>
<text text-anchor="middle" x="253.72" y="-135.43" font-family="sans" font-size="11.00">arp_input</text>
</g>
<!-- eth_input&#45;&gt;arp_input -->
<g id="edge4" class="edge">
<title>eth_input&#45;&gt;arp_input</title>
<path fill="none" stroke="black" d="M166.03,-120.63C180.34,-123.49 197.98,-127.03 213.6,-130.16"/>
<polygon fill="black" stroke="black" points="212.56,-133.52 223.06,-132.05 213.94,-126.66 212.56,-133.52"/>
</g>
<!-- ip_input -->
<g id="node24" class="node">
<title>ip_input</title>
<ellipse fill="none" stroke="black" cx="253.72" cy="-413" rx="27" ry="18"/>
<text text-anchor="middle" x="253.72" y="-410.43" font-family="sans" font-size="11.00">ip_input</text>
</g>
<!-- eth_input&#45;&gt;ip_input -->
<g id="edge5" class="edge">
<title>eth_input&#45;&gt;ip_input</title>
<path fill="none" stroke="black" d="M144.79,-132.75C163.96,-182.54 218.4,-323.87 241.8,-384.64"/>
<polygon fill="black" stroke="black" points="238.52,-385.86 245.38,-393.93 245.05,-383.34 238.52,-385.86"/>
</g>
<!-- ip6_input -->
<g id="node30" class="node">
<title>ip6_input</title>
<ellipse fill="none" stroke="black" cx="1108.21" cy="-386" rx="29.73" ry="18"/>
<text text-anchor="middle" x="1108.21" y="-383.43" font-family="sans" font-size="11.00">ip6_input</text>
</g>
<!-- eth_input&#45;&gt;ip6_input -->
<g id="edge6" class="edge">
<title>eth_input&#45;&gt;ip6_input</title>
<path fill="none" stroke="black" d="M154.11,-130.33C190.63,-163.3 283.63,-238 376.62,-238 376.62,-238 376.62,-238 892.87,-238 978.21,-238 1054.21,-318.44 1088.27,-360.71"/>
<polygon fill="black" stroke="black" points="1085.39,-362.71 1094.32,-368.41 1090.89,-358.38 1085.39,-362.71"/>
</g>
<!-- eth_output -->
<g id="node7" class="node">
<title>eth_output</title>
<ellipse fill="none" stroke="black" cx="1885.84" cy="-815" rx="34.55" ry="18"/>
<text text-anchor="middle" x="1885.84" y="-812.42" font-family="sans" font-size="11.00">eth_output</text>
</g>
<!-- eth_output&#45;&gt;bond_output -->
<g id="edge7" class="edge">
<title>eth_output&#45;&gt;bond_output</title>
<path fill="none" stroke="black" d="M1901.69,-798.7C1908.45,-790.39 1915.93,-779.78 1920.39,-769 1929.2,-747.74 1977.22,-416.42 1991.85,-314.56"/>
<polygon fill="black" stroke="black" points="1995.29,-315.21 1993.25,-304.81 1988.36,-314.21 1995.29,-315.21"/>
</g>
<!-- eth_output&#45;&gt;port_output -->
<g id="edge8" class="edge">
<title>eth_output&#45;&gt;port_output</title>
<path fill="none" stroke="black" d="M1900.76,-798.26C1907.3,-789.84 1914.86,-779.27 1920.39,-769 2013.06,-597.07 2080.46,-370.24 2102.57,-290.89"/>
<polygon fill="black" stroke="black" points="2105.81,-292.3 2105.1,-281.73 2099.06,-290.44 2105.81,-292.3"/>
</g>
<!-- l2_redirect -->
<g id="node8" class="node">
<title>l2_redirect</title>
<polygon fill="none" stroke="dodgerblue" points="1637,-175 1568.6,-175 1568.6,-139 1637,-139 1637,-175"/>
<text text-anchor="middle" x="1602.8" y="-154.43" font-family="sans" font-size="11.00">l2_redirect</text>
</g>
<!-- lacp_output -->
<g id="node10" class="node">
<title>lacp_output</title>
<polygon fill="none" stroke="dodgerblue" points="1795.04,-887 1719.89,-887 1719.89,-851 1795.04,-851 1795.04,-887"/>
<text text-anchor="middle" x="1757.47" y="-866.42" font-family="sans" font-size="11.00">lacp_output</text>
</g>
<!-- lacp_output&#45;&gt;eth_output -->
<g id="edge10" class="edge">
<title>lacp_output&#45;&gt;eth_output</title>
<path fill="none" stroke="dodgerblue" d="M1795.36,-853.24C1811.97,-846.14 1831.54,-837.78 1848.13,-830.69"/>
<polygon fill="dodgerblue" stroke="dodgerblue" points="1849.33,-833.98 1857.15,-826.83 1846.58,-827.54 1849.33,-833.98"/>
</g>
<!-- snap_input&#45;&gt;l2_redirect -->
<g id="edge18" class="edge">
<title>snap_input&#45;&gt;l2_redirect</title>
<path fill="none" stroke="black" d="M1143.07,-112.3C1229.75,-120.75 1459.69,-143.15 1557.14,-152.65"/>
<polygon fill="black" stroke="black" points="1556.55,-156.11 1566.85,-153.59 1557.23,-149.14 1556.55,-156.11"/>
</g>
<!-- arp_input_reply -->
<g id="node13" class="node">
<title>arp_input_reply</title>
<polygon fill="none" stroke="dodgerblue" points="424.95,-210 330.3,-210 330.3,-174 424.95,-174 424.95,-210"/>
<text text-anchor="middle" x="377.62" y="-189.43" font-family="sans" font-size="11.00">arp_input_reply</text>
</g>
<!-- arp_input&#45;&gt;arp_input_reply -->
<g id="edge20" class="edge">
<title>arp_input&#45;&gt;arp_input_reply</title>
<path fill="none" stroke="black" d="M278.81,-148.67C292.01,-154.52 308.92,-162.01 324.94,-169.11"/>
<polygon fill="black" stroke="black" points="323.36,-172.23 333.92,-173.08 326.19,-165.83 323.36,-172.23"/>
</g>
<!-- arp_input_request -->
<g id="node14" class="node">
<title>arp_input_request</title>
<polygon fill="none" stroke="dodgerblue" points="431.7,-156 323.55,-156 323.55,-120 431.7,-120 431.7,-156"/>
<text text-anchor="middle" x="377.62" y="-135.43" font-family="sans" font-size="11.00">arp_input_request</text>
</g>
<!-- arp_input&#45;&gt;arp_input_request -->
<g id="edge19" class="edge">
<title>arp_input&#45;&gt;arp_input_request</title>
<path fill="none" stroke="black" d="M284.55,-138C292.95,-138 302.45,-138 312.06,-138"/>
<polygon fill="black" stroke="black" points="311.82,-141.5 321.82,-138 311.82,-134.5 311.82,-141.5"/>
</g>
<!-- arp_output_reply -->
<g id="node15" class="node">
<title>arp_output_reply</title>
<polygon fill="none" stroke="dodgerblue" points="1808.54,-833 1706.39,-833 1706.39,-797 1808.54,-797 1808.54,-833"/>
<text text-anchor="middle" x="1757.47" y="-812.42" font-family="sans" font-size="11.00">arp_output_reply</text>
</g>
<!-- arp_output_reply&#45;&gt;eth_output -->
<g id="edge21" class="edge">
<title>arp_output_reply&#45;&gt;eth_output</title>
<path fill="none" stroke="dodgerblue" d="M1808.78,-815C1818.97,-815 1829.63,-815 1839.63,-815"/>
<polygon fill="dodgerblue" stroke="dodgerblue" points="1839.49,-818.5 1849.49,-815 1839.49,-811.5 1839.49,-818.5"/>
</g>
<!-- arp_output_request -->
<g id="node16" class="node">
<title>arp_output_request</title>
<polygon fill="none" stroke="dodgerblue" points="1815.29,-979 1699.64,-979 1699.64,-943 1815.29,-943 1815.29,-979"/>
<text text-anchor="middle" x="1757.47" y="-958.42" font-family="sans" font-size="11.00">arp_output_request</text>
</g>
<!-- arp_output_request&#45;&gt;eth_output -->
<g id="edge22" class="edge">
<title>arp_output_request&#45;&gt;eth_output</title>
<path fill="none" stroke="dodgerblue" d="M1797.32,-942.68C1803.73,-938.69 1810,-934.11 1815.29,-929 1841.01,-904.17 1860.98,-867.9 1872.79,-842.97"/>
<polygon fill="dodgerblue" stroke="dodgerblue" points="1875.87,-844.65 1876.86,-834.1 1869.51,-841.73 1875.87,-844.65"/>
</g>
<!-- ospf_redirect -->
<g id="node17" class="node">
<title>ospf_redirect</title>
<ellipse fill="none" stroke="black" cx="1453.37" cy="-193" rx="41.13" ry="18"/>
<text text-anchor="middle" x="1453.37" y="-190.43" font-family="sans" font-size="11.00">ospf_redirect</text>
</g>
<!-- ospf_redirect&#45;&gt;l2_redirect -->
<g id="edge72" class="edge">
<title>ospf_redirect&#45;&gt;l2_redirect</title>
<path fill="none" stroke="black" d="M1490.06,-184.29C1510.21,-179.36 1535.59,-173.17 1557.06,-167.92"/>
<polygon fill="black" stroke="black" points="1557.85,-171.33 1566.74,-165.56 1556.19,-164.53 1557.85,-171.33"/>
</g>
<!-- loopback_input -->
<g id="node18" class="node">
<title>loopback_input</title>
<polygon fill="none" stroke="dodgerblue" points="183.9,-362 90,-362 90,-326 183.9,-326 183.9,-362"/>
<text text-anchor="middle" x="136.95" y="-341.43" font-family="sans" font-size="11.00">loopback_input</text>
</g>
<!-- loopback_input&#45;&gt;ip_input -->
<g id="edge11" class="edge">
<title>loopback_input&#45;&gt;ip_input</title>
<path fill="none" stroke="dodgerblue" d="M168.71,-362.49C185.64,-372.67 206.56,-385.24 223.28,-395.3"/>
<polygon fill="dodgerblue" stroke="dodgerblue" points="221.41,-398.26 231.78,-400.41 225.02,-392.26 221.41,-398.26"/>
</g>
<!-- loopback_input&#45;&gt;ip6_input -->
<g id="edge12" class="edge">
<title>loopback_input&#45;&gt;ip6_input</title>
<path fill="none" stroke="dodgerblue" d="M177.09,-325.6C223.6,-305.46 304.03,-276 376.62,-276 376.62,-276 376.62,-276 512.02,-276 726.88,-276 978.22,-346.17 1070.69,-374.42"/>
<polygon fill="dodgerblue" stroke="dodgerblue" points="1069.39,-377.68 1079.97,-377.29 1071.45,-370.99 1069.39,-377.68"/>
</g>
<!-- loopback_output -->
<g id="node19" class="node">
<title>loopback_output</title>
<polygon fill="none" stroke="dodgerblue" points="1808.17,-341 1706.77,-341 1706.77,-305 1808.17,-305 1808.17,-341"/>
<text text-anchor="middle" x="1757.47" y="-320.43" font-family="sans" font-size="11.00">loopback_output</text>
</g>
<!-- loop_xvrf -->
<g id="node20" class="node">
<title>loop_xvrf</title>
<ellipse fill="none" stroke="black" cx="1000.92" cy="-620" rx="29.73" ry="18"/>
<text text-anchor="middle" x="1000.92" y="-617.42" font-family="sans" font-size="11.00">loop_xvrf</text>
</g>
<!-- loop_xvrf&#45;&gt;ip_input -->
<g id="edge13" class="edge">
<title>loop_xvrf&#45;&gt;ip_input</title>
<path fill="none" stroke="black" d="M974.43,-611.35C932.84,-598.02 847.57,-574 773.3,-574 510.02,-574 510.02,-574 510.02,-574 425.7,-574 391.77,-588.55 323.55,-539 290.79,-515.21 271.89,-470.88 262.46,-441.65"/>
<polygon fill="black" stroke="black" points="265.89,-440.9 259.63,-432.35 259.19,-442.93 265.89,-440.9"/>
</g>
<!-- loop_xvrf&#45;&gt;ip6_input -->
<g id="edge14" class="edge">
<title>loop_xvrf&#45;&gt;ip6_input</title>
<path fill="none" stroke="black" d="M1009.83,-602.41C1027.98,-562.08 1072.71,-462.67 1094.66,-413.9"/>
<polygon fill="black" stroke="black" points="1097.82,-415.41 1098.73,-404.85 1091.43,-412.54 1097.82,-415.41"/>
</g>
<!-- ip_forward -->
<g id="node21" class="node">
<title>ip_forward</title>
<ellipse fill="none" stroke="black" cx="511.02" cy="-509" rx="34.55" ry="18"/>
<text text-anchor="middle" x="511.02" y="-506.43" font-family="sans" font-size="11.00">ip_forward</text>
</g>
<!-- ip_output -->
<g id="node27" class="node">
<title>ip_output</title>
<ellipse fill="none" stroke="black" cx="891.87" cy="-766" rx="30.61" ry="18"/>
<text text-anchor="middle" x="891.87" y="-763.42" font-family="sans" font-size="11.00">ip_output</text>
</g>
<!-- ip_forward&#45;&gt;ip_output -->
<g id="edge26" class="edge">
<title>ip_forward&#45;&gt;ip_output</title>
<path fill="none" stroke="black" d="M513.68,-527.25C518.25,-565.99 534.64,-656.51 590.33,-701 670.87,-765.34 719.57,-712.27 819.13,-739 831.4,-742.29 844.5,-746.89 856.1,-751.35"/>
<polygon fill="black" stroke="black" points="854.69,-754.56 865.28,-754.99 857.27,-748.05 854.69,-754.56"/>
</g>
<!-- ip_fragment -->
<g id="node22" class="node">
<title>ip_fragment</title>
<ellipse fill="none" stroke="black" cx="772.3" cy="-766" rx="38.5" ry="18"/>
<text text-anchor="middle" x="772.3" y="-763.42" font-family="sans" font-size="11.00">ip_fragment</text>
</g>
<!-- ip_fragment&#45;&gt;ip_output -->
<g id="edge27" class="edge">
<title>ip_fragment&#45;&gt;ip_output</title>
<path fill="none" stroke="black" d="M808.9,-759.74C822.31,-759.14 837.64,-759.09 851.38,-759.58"/>
<polygon fill="black" stroke="black" points="850.81,-763.06 860.97,-760.05 851.15,-756.07 850.81,-763.06"/>
</g>
<!-- ip_hold -->
<g id="node23" class="node">
<title>ip_hold</title>
<polygon fill="none" stroke="dodgerblue" points="1027.92,-779 973.92,-779 973.92,-743 1027.92,-743 1027.92,-779"/>
<text text-anchor="middle" x="1000.92" y="-758.42" font-family="sans" font-size="11.00">ip_hold</text>
</g>
<!-- ip_input&#45;&gt;ip_forward -->
<g id="edge28" class="edge">
<title>ip_input&#45;&gt;ip_forward</title>
<path fill="none" stroke="black" d="M260.39,-430.59C269.36,-455.12 289.41,-498.65 323.55,-517 369.27,-541.57 430.78,-532.26 470.42,-521.85"/>
<polygon fill="black" stroke="black" points="471.33,-525.23 480.03,-519.17 469.46,-518.48 471.33,-525.23"/>
</g>
<!-- ip_input_local -->
<g id="node26" class="node">
<title>ip_input_local</title>
<ellipse fill="none" stroke="black" cx="511.02" cy="-436" rx="43.32" ry="18"/>
<text text-anchor="middle" x="511.02" y="-433.43" font-family="sans" font-size="11.00">ip_input_local</text>
</g>
<!-- ip_input&#45;&gt;ip_input_local -->
<g id="edge31" class="edge">
<title>ip_input&#45;&gt;ip_input_local</title>
<path fill="none" stroke="black" d="M280.44,-409.42C315.07,-405.27 378.51,-400.09 431.7,-409 444.3,-411.11 457.58,-415.01 469.56,-419.19"/>
<polygon fill="black" stroke="black" points="468.12,-422.39 478.71,-422.56 470.53,-415.82 468.12,-422.39"/>
</g>
<!-- ip_input&#45;&gt;ip_output -->
<g id="edge30" class="edge">
<title>ip_input&#45;&gt;ip_output</title>
<path fill="none" stroke="black" d="M257.22,-431.18C269.02,-509.24 326.63,-812 510.02,-812 510.02,-812 510.02,-812 640.91,-812 720.57,-812 741.62,-811.4 819.13,-793 831.49,-790.06 844.61,-785.56 856.21,-781.07"/>
<polygon fill="black" stroke="black" points="857.4,-784.36 865.37,-777.38 854.79,-777.87 857.4,-784.36"/>
</g>
<!-- dnat44_dynamic -->
<g id="node36" class="node">
<title>dnat44_dynamic</title>
<ellipse fill="none" stroke="black" cx="377.62" cy="-436" rx="50.77" ry="18"/>
<text text-anchor="middle" x="377.62" y="-433.43" font-family="sans" font-size="11.00">dnat44_dynamic</text>
</g>
<!-- ip_input&#45;&gt;dnat44_dynamic -->
<g id="edge29" class="edge">
<title>ip_input&#45;&gt;dnat44_dynamic</title>
<path fill="none" stroke="black" d="M279.98,-417.77C291.99,-420.03 306.84,-422.83 321.27,-425.56"/>
<polygon fill="black" stroke="black" points="320.21,-428.92 330.69,-427.33 321.51,-422.04 320.21,-428.92"/>
</g>
<!-- dnat44_static -->
<g id="node37" class="node">
<title>dnat44_static</title>
<ellipse fill="none" stroke="black" cx="377.62" cy="-490" rx="41.13" ry="18"/>
<text text-anchor="middle" x="377.62" y="-487.43" font-family="sans" font-size="11.00">dnat44_static</text>
</g>
<!-- ip_input&#45;&gt;dnat44_static -->
<g id="edge32" class="edge">
<title>ip_input&#45;&gt;dnat44_static</title>
<path fill="none" stroke="black" d="M272.02,-426.74C285.63,-437.26 305.29,-451.82 323.55,-463 328.39,-465.96 333.58,-468.89 338.77,-471.67"/>
<polygon fill="black" stroke="black" points="336.8,-474.59 347.28,-476.1 340.02,-468.38 336.8,-474.59"/>
</g>
<!-- ip_loadbalance -->
<g id="node25" class="node">
<title>ip_loadbalance</title>
<ellipse fill="none" stroke="black" cx="772.3" cy="-858" rx="46.82" ry="18"/>
<text text-anchor="middle" x="772.3" y="-855.42" font-family="sans" font-size="11.00">ip_loadbalance</text>
</g>
<!-- ip_loadbalance&#45;&gt;ip_output -->
<g id="edge33" class="edge">
<title>ip_loadbalance&#45;&gt;ip_output</title>
<path fill="none" stroke="black" d="M787.57,-840.8C796.73,-833.3 808.8,-824.9 819.13,-817 832.59,-806.7 847,-794.82 859.35,-784.98"/>
<polygon fill="black" stroke="black" points="861.46,-787.78 867.15,-778.84 857.13,-782.27 861.46,-787.78"/>
</g>
<!-- ip_input_local&#45;&gt;ospf_redirect -->
<g id="edge37" class="edge">
<title>ip_input_local&#45;&gt;ospf_redirect</title>
<path fill="none" stroke="black" d="M548.59,-426.55C695.55,-388.57 1242.95,-247.12 1406.16,-204.94"/>
<polygon fill="black" stroke="black" points="1406.97,-208.35 1415.77,-202.46 1405.21,-201.57 1406.97,-208.35"/>
</g>
<!-- ipip_input -->
<g id="node34" class="node">
<title>ipip_input</title>
<ellipse fill="none" stroke="black" cx="639.91" cy="-360" rx="31.92" ry="18"/>
<text text-anchor="middle" x="639.91" y="-357.43" font-family="sans" font-size="11.00">ipip_input</text>
</g>
<!-- ip_input_local&#45;&gt;ipip_input -->
<g id="edge35" class="edge">
<title>ip_input_local&#45;&gt;ipip_input</title>
<path fill="none" stroke="black" d="M536.78,-421.17C556.96,-409.08 585.57,-391.95 607.37,-378.89"/>
<polygon fill="black" stroke="black" points="609.09,-381.94 615.87,-373.8 605.49,-375.94 609.09,-381.94"/>
</g>
<!-- icmp_input -->
<g id="node40" class="node">
<title>icmp_input</title>
<ellipse fill="none" stroke="black" cx="639.91" cy="-620" rx="35.43" ry="18"/>
<text text-anchor="middle" x="639.91" y="-617.42" font-family="sans" font-size="11.00">icmp_input</text>
</g>
<!-- ip_input_local&#45;&gt;icmp_input -->
<g id="edge34" class="edge">
<title>ip_input_local&#45;&gt;icmp_input</title>
<path fill="none" stroke="black" d="M529.21,-452.57C537.37,-460.95 546.94,-471.54 554.33,-482 574.07,-509.92 572.55,-520.79 590.33,-550 599.4,-564.9 610.43,-580.93 619.68,-593.88"/>
<polygon fill="black" stroke="black" points="616.77,-595.83 625.46,-601.89 622.44,-591.74 616.77,-595.83"/>
</g>
<!-- l4_input_local -->
<g id="node51" class="node">
<title>l4_input_local</title>
<ellipse fill="none" stroke="black" cx="1453.37" cy="-377" rx="42.88" ry="18"/>
<text text-anchor="middle" x="1453.37" y="-374.43" font-family="sans" font-size="11.00">l4_input_local</text>
</g>
<!-- ip_input_local&#45;&gt;l4_input_local -->
<g id="edge36" class="edge">
<title>ip_input_local&#45;&gt;l4_input_local</title>
<path fill="none" stroke="black" d="M534.82,-451.41C578.62,-479.46 678.43,-536 771.3,-536 771.3,-536 771.3,-536 1208.18,-536 1311.96,-536 1311.87,-457.49 1400.8,-404 1405.21,-401.35 1409.9,-398.69 1414.59,-396.12"/>
<polygon fill="black" stroke="black" points="1416.23,-399.21 1423.4,-391.41 1412.93,-393.03 1416.23,-399.21"/>
</g>
<!-- ip_output&#45;&gt;eth_output -->
<g id="edge38" class="edge">
<title>ip_output&#45;&gt;eth_output</title>
<path fill="none" stroke="black" d="M904.8,-782.51C934.34,-821.31 1015.21,-915 1107.21,-915 1107.21,-915 1107.21,-915 1603.8,-915 1698.17,-915 1731.38,-939.2 1815.29,-896 1838.51,-884.05 1857.24,-860.71 1869.39,-842.15"/>
<polygon fill="black" stroke="black" points="1872.33,-844.05 1874.65,-833.71 1866.39,-840.35 1872.33,-844.05"/>
</g>
<!-- ip_output&#45;&gt;loop_xvrf -->
<g id="edge41" class="edge">
<title>ip_output&#45;&gt;loop_xvrf</title>
<path fill="none" stroke="black" d="M904.94,-749.54C923.49,-724.23 959.16,-675.58 981.12,-645.64"/>
<polygon fill="black" stroke="black" points="983.74,-647.98 986.83,-637.85 978.09,-643.84 983.74,-647.98"/>
</g>
<!-- ip_output&#45;&gt;ip_fragment -->
<g id="edge40" class="edge">
<title>ip_output&#45;&gt;ip_fragment</title>
<path fill="none" stroke="black" d="M862.48,-771.87C849.77,-772.68 834.44,-772.93 820.11,-772.62"/>
<polygon fill="black" stroke="black" points="820.52,-769.14 810.41,-772.31 820.29,-776.13 820.52,-769.14"/>
</g>
<!-- ip_output&#45;&gt;ip_hold -->
<g id="edge39" class="edge">
<title>ip_output&#45;&gt;ip_hold</title>
<path fill="none" stroke="black" d="M922.69,-764.61C934.91,-764.04 949.19,-763.37 962.13,-762.76"/>
<polygon fill="black" stroke="black" points="962.2,-766.27 972.03,-762.3 961.87,-759.27 962.2,-766.27"/>
</g>
<!-- ip_output&#45;&gt;ip_loadbalance -->
<g id="edge42" class="edge">
<title>ip_output&#45;&gt;ip_loadbalance</title>
<path fill="none" stroke="black" d="M879.2,-782.71C865.21,-797.52 840.92,-818.33 819.13,-835 817.64,-836.13 816.12,-837.28 814.58,-838.42"/>
<polygon fill="black" stroke="black" points="812.91,-835.31 806.84,-843.99 817,-841 812.91,-835.31"/>
</g>
<!-- ipip_output -->
<g id="node35" class="node">
<title>ipip_output</title>
<ellipse fill="none" stroke="black" cx="1000.92" cy="-707" rx="36.3" ry="18"/>
<text text-anchor="middle" x="1000.92" y="-704.42" font-family="sans" font-size="11.00">ipip_output</text>
</g>
<!-- ip_output&#45;&gt;ipip_output -->
<g id="edge43" class="edge">
<title>ip_output&#45;&gt;ipip_output</title>
<path fill="none" stroke="black" d="M910.07,-751.41C923.7,-742.4 943.3,-731.13 960.71,-722.08"/>
<polygon fill="black" stroke="black" points="961.96,-725.37 969.29,-717.73 958.79,-719.13 961.96,-725.37"/>
</g>
<!-- sr6_output -->
<g id="node39" class="node">
<title>sr6_output</title>
<ellipse fill="none" stroke="black" cx="1885.84" cy="-742" rx="34.11" ry="18"/>
<text text-anchor="middle" x="1885.84" y="-739.42" font-family="sans" font-size="11.00">sr6_output</text>
</g>
<!-- ip_output&#45;&gt;sr6_output -->
<g id="edge44" class="edge">
<title>ip_output&#45;&gt;sr6_output</title>
<path fill="none" stroke="black" d="M918.83,-775.1C932.34,-779.54 949.21,-784.64 964.61,-788 1027.08,-801.64 1043.27,-807 1107.21,-807 1107.21,-807 1107.21,-807 1454.37,-807 1598.7,-807 1767.21,-770.84 1843.54,-752.46"/>
<polygon fill="black" stroke="black" points="1844.19,-755.9 1853.08,-750.13 1842.53,-749.1 1844.19,-755.9"/>
</g>
<!-- ip6_forward -->
<g id="node28" class="node">
<title>ip6_forward</title>
<ellipse fill="none" stroke="black" cx="1317.98" cy="-627" rx="38.06" ry="18"/>
<text text-anchor="middle" x="1317.98" y="-624.42" font-family="sans" font-size="11.00">ip6_forward</text>
</g>
<!-- ip6_output -->
<g id="node33" class="node">
<title>ip6_output</title>
<ellipse fill="none" stroke="black" cx="1757.47" cy="-723" rx="34.11" ry="18"/>
<text text-anchor="middle" x="1757.47" y="-720.42" font-family="sans" font-size="11.00">ip6_output</text>
</g>
<!-- ip6_forward&#45;&gt;ip6_output -->
<g id="edge51" class="edge">
<title>ip6_forward&#45;&gt;ip6_output</title>
<path fill="none" stroke="black" d="M1346.51,-639.16C1362.16,-645.63 1382.27,-653.21 1400.8,-658 1515.08,-687.53 1548.28,-671.01 1663.64,-696 1681.37,-699.84 1700.67,-705.25 1717.06,-710.22"/>
<polygon fill="black" stroke="black" points="1715.85,-713.51 1726.44,-713.12 1717.91,-706.82 1715.85,-713.51"/>
</g>
<!-- ip6_hold -->
<g id="node29" class="node">
<title>ip6_hold</title>
<polygon fill="none" stroke="dodgerblue" points="1915.17,-706 1856.52,-706 1856.52,-670 1915.17,-670 1915.17,-706"/>
<text text-anchor="middle" x="1885.84" y="-685.42" font-family="sans" font-size="11.00">ip6_hold</text>
</g>
<!-- ip6_input&#45;&gt;ip6_forward -->
<g id="edge52" class="edge">
<title>ip6_input&#45;&gt;ip6_forward</title>
<path fill="none" stroke="black" d="M1121.82,-402.46C1135.61,-420.32 1158.52,-449.57 1179.2,-474 1218.3,-520.19 1265.94,-572.19 1293.72,-602.13"/>
<polygon fill="black" stroke="black" points="1290.94,-604.27 1300.31,-609.21 1296.06,-599.51 1290.94,-604.27"/>
</g>
<!-- ip6_input_local -->
<g id="node32" class="node">
<title>ip6_input_local</title>
<ellipse fill="none" stroke="black" cx="1317.98" cy="-377" rx="46.82" ry="18"/>
<text text-anchor="middle" x="1317.98" y="-374.43" font-family="sans" font-size="11.00">ip6_input_local</text>
</g>
<!-- ip6_input&#45;&gt;ip6_input_local -->
<g id="edge54" class="edge">
<title>ip6_input&#45;&gt;ip6_input_local</title>
<path fill="none" stroke="black" d="M1138.1,-384.75C1169.46,-383.39 1220.34,-381.19 1259.83,-379.48"/>
<polygon fill="black" stroke="black" points="1259.81,-382.98 1269.65,-379.05 1259.51,-375.99 1259.81,-382.98"/>
</g>
<!-- ip6_input&#45;&gt;ip6_output -->
<g id="edge53" class="edge">
<title>ip6_input&#45;&gt;ip6_output</title>
<path fill="none" stroke="black" d="M1136.53,-392.23C1221.38,-411.78 1476.43,-471.97 1505.95,-496 1533.08,-518.08 1515.17,-543.48 1541.95,-566 1585.31,-602.47 1617.05,-571.75 1663.64,-604 1698.26,-627.96 1725.99,-668.72 1741.84,-695.75"/>
<polygon fill="black" stroke="black" points="1738.77,-697.45 1746.76,-704.41 1744.86,-693.98 1738.77,-697.45"/>
</g>
<!-- sr6_local -->
<g id="node38" class="node">
<title>sr6_local</title>
<ellipse fill="none" stroke="black" cx="1207.18" cy="-326" rx="27.98" ry="18"/>
<text text-anchor="middle" x="1207.18" y="-323.43" font-family="sans" font-size="11.00">sr6_local</text>
</g>
<!-- ip6_input&#45;&gt;sr6_local -->
<g id="edge55" class="edge">
<title>ip6_input&#45;&gt;sr6_local</title>
<path fill="none" stroke="black" d="M1125.22,-370.93C1138.14,-361.41 1156.75,-349.47 1172.87,-340.16"/>
<polygon fill="black" stroke="black" points="1174.19,-343.44 1181.2,-335.49 1170.76,-337.33 1174.19,-343.44"/>
</g>
<!-- ip6_loadbalance -->
<g id="node31" class="node">
<title>ip6_loadbalance</title>
<ellipse fill="none" stroke="black" cx="1602.8" cy="-723" rx="50.33" ry="18"/>
<text text-anchor="middle" x="1602.8" y="-720.42" font-family="sans" font-size="11.00">ip6_loadbalance</text>
</g>
<!-- ip6_loadbalance&#45;&gt;ip6_output -->
<g id="edge56" class="edge">
<title>ip6_loadbalance&#45;&gt;ip6_output</title>
<path fill="none" stroke="black" d="M1650.43,-716.73C1670.42,-716.05 1693.63,-716.09 1713.23,-716.85"/>
<polygon fill="black" stroke="black" points="1712.94,-720.34 1723.1,-717.32 1713.27,-713.35 1712.94,-720.34"/>
</g>
<!-- ip6_input_local&#45;&gt;ospf_redirect -->
<g id="edge59" class="edge">
<title>ip6_input_local&#45;&gt;ospf_redirect</title>
<path fill="none" stroke="black" d="M1331.77,-359.36C1355.33,-326.85 1405.72,-257.36 1433.32,-219.28"/>
<polygon fill="black" stroke="black" points="1435.89,-221.7 1438.93,-211.55 1430.23,-217.59 1435.89,-221.7"/>
</g>
<!-- icmp6_input -->
<g id="node43" class="node">
<title>icmp6_input</title>
<polygon fill="none" stroke="dodgerblue" points="1492.45,-449 1414.3,-449 1414.3,-413 1492.45,-413 1492.45,-449"/>
<text text-anchor="middle" x="1453.37" y="-428.43" font-family="sans" font-size="11.00">icmp6_input</text>
</g>
<!-- ip6_input_local&#45;&gt;icmp6_input -->
<g id="edge57" class="edge">
<title>ip6_input_local&#45;&gt;icmp6_input</title>
<path fill="none" stroke="black" d="M1351.27,-390.07C1366.98,-396.43 1386.19,-404.21 1403.64,-411.27"/>
<polygon fill="black" stroke="black" points="1402.24,-414.48 1412.82,-414.99 1404.86,-407.99 1402.24,-414.48"/>
</g>
<!-- ip6_input_local&#45;&gt;l4_input_local -->
<g id="edge58" class="edge">
<title>ip6_input_local&#45;&gt;l4_input_local</title>
<path fill="none" stroke="black" d="M1365.26,-377C1376.09,-377 1387.72,-377 1398.85,-377"/>
<polygon fill="black" stroke="black" points="1398.68,-380.5 1408.68,-377 1398.68,-373.5 1398.68,-380.5"/>
</g>
<!-- ip6_output&#45;&gt;eth_output -->
<g id="edge60" class="edge">
<title>ip6_output&#45;&gt;eth_output</title>
<path fill="none" stroke="black" d="M1778.49,-737.58C1799.29,-752.72 1832.04,-776.56 1855.7,-793.79"/>
<polygon fill="black" stroke="black" points="1853.54,-796.54 1863.69,-799.6 1857.66,-790.88 1853.54,-796.54"/>
</g>
<!-- ip6_output&#45;&gt;loop_xvrf -->
<g id="edge62" class="edge">
<title>ip6_output&#45;&gt;loop_xvrf</title>
<path fill="none" stroke="black" d="M1728.37,-732.71C1710.14,-738.62 1685.74,-745.82 1663.64,-750 1571.88,-767.34 1547.76,-769 1454.37,-769 1206.18,-769 1206.18,-769 1206.18,-769 1123.72,-769 1052.28,-688.76 1020.1,-646.05"/>
<polygon fill="black" stroke="black" points="1022.94,-644.01 1014.2,-638.02 1017.3,-648.15 1022.94,-644.01"/>
</g>
<!-- ip6_output&#45;&gt;ip6_hold -->
<g id="edge61" class="edge">
<title>ip6_output&#45;&gt;ip6_hold</title>
<path fill="none" stroke="black" d="M1788.1,-714.79C1805.13,-710.08 1826.76,-704.09 1845.24,-698.97"/>
<polygon fill="black" stroke="black" points="1846.11,-702.36 1854.81,-696.32 1844.24,-695.61 1846.11,-702.36"/>
</g>
<!-- ip6_output&#45;&gt;ip6_loadbalance -->
<g id="edge63" class="edge">
<title>ip6_output&#45;&gt;ip6_loadbalance</title>
<path fill="none" stroke="black" d="M1724.61,-728.61C1706.41,-729.67 1683.03,-729.99 1661.69,-729.57"/>
<polygon fill="black" stroke="black" points="1662.03,-726.08 1651.94,-729.31 1661.85,-733.08 1662.03,-726.08"/>
</g>
<!-- ip6_output&#45;&gt;sr6_output -->
<g id="edge64" class="edge">
<title>ip6_output&#45;&gt;sr6_output</title>
<path fill="none" stroke="black" d="M1792,-722C1808.56,-723.64 1828.63,-726.57 1845.86,-729.85"/>
<polygon fill="black" stroke="black" points="1844.74,-733.19 1855.23,-731.75 1846.12,-726.33 1844.74,-733.19"/>
</g>
<!-- ipip_input&#45;&gt;ip_input -->
<g id="edge67" class="edge">
<title>ipip_input&#45;&gt;ip_input</title>
<path fill="none" stroke="black" d="M608.38,-363.25C551.97,-369.39 427.67,-383.58 323.55,-400 312.99,-401.67 301.57,-403.72 291.12,-405.7"/>
<polygon fill="black" stroke="black" points="290.47,-402.26 281.32,-407.59 291.8,-409.13 290.47,-402.26"/>
</g>
<!-- ipip_output&#45;&gt;ip_output -->
<g id="edge68" class="edge">
<title>ipip_output&#45;&gt;ip_output</title>
<path fill="none" stroke="black" d="M981.48,-722.41C967.16,-731.76 946.85,-743.35 929.29,-752.36"/>
<polygon fill="black" stroke="black" points="928.07,-749.06 920.68,-756.66 931.2,-755.32 928.07,-749.06"/>
</g>
<!-- dnat44_dynamic&#45;&gt;ip_forward -->
<g id="edge73" class="edge">
<title>dnat44_dynamic&#45;&gt;ip_forward</title>
<path fill="none" stroke="black" d="M408.27,-450.68C415.95,-454.59 424.17,-458.88 431.7,-463 447.06,-471.41 463.83,-481.18 477.9,-489.54"/>
<polygon fill="black" stroke="black" points="475.93,-492.44 486.31,-494.57 479.52,-486.44 475.93,-492.44"/>
</g>
<!-- dnat44_dynamic&#45;&gt;ip_input_local -->
<g id="edge74" class="edge">
<title>dnat44_dynamic&#45;&gt;ip_input_local</title>
<path fill="none" stroke="black" d="M428.67,-436C437.65,-436 447.04,-436 456.11,-436"/>
<polygon fill="black" stroke="black" points="455.88,-439.5 465.88,-436 455.88,-432.5 455.88,-439.5"/>
</g>
<!-- dnat44_static&#45;&gt;ip_forward -->
<g id="edge75" class="edge">
<title>dnat44_static&#45;&gt;ip_forward</title>
<path fill="none" stroke="black" d="M416.98,-495.55C432.34,-497.77 450.13,-500.34 466.01,-502.64"/>
<polygon fill="black" stroke="black" points="465.28,-506.07 475.68,-504.03 466.28,-499.14 465.28,-506.07"/>
</g>
<!-- dnat44_static&#45;&gt;ip_input_local -->
<g id="edge76" class="edge">
<title>dnat44_static&#45;&gt;ip_input_local</title>
<path fill="none" stroke="black" d="M408.44,-477.75C426.33,-470.4 449.33,-460.94 468.93,-452.89"/>
<polygon fill="black" stroke="black" points="470.09,-456.19 478.01,-449.16 467.43,-449.72 470.09,-456.19"/>
</g>
<!-- sr6_local&#45;&gt;bond_output -->
<g id="edge80" class="edge">
<title>sr6_local&#45;&gt;bond_output</title>
<path fill="none" stroke="black" d="M1232.46,-317.8C1276,-303.85 1370.43,-277 1452.37,-277 1452.37,-277 1452.37,-277 1758.47,-277 1822.91,-277 1897.13,-279.98 1945.23,-282.3"/>
<polygon fill="black" stroke="black" points="1944.9,-285.79 1955.06,-282.78 1945.25,-278.79 1944.9,-285.79"/>
</g>
<!-- sr6_local&#45;&gt;port_output -->
<g id="edge81" class="edge">
<title>sr6_local&#45;&gt;port_output</title>
<path fill="none" stroke="black" d="M1224.69,-311.42C1236.78,-301.47 1254.01,-288.74 1271.16,-281 1346.51,-246.98 1369.7,-239 1452.37,-239 1452.37,-239 1452.37,-239 1886.84,-239 1948.4,-239 2018.98,-247.74 2064.09,-254.44"/>
<polygon fill="black" stroke="black" points="2063.36,-257.87 2073.77,-255.91 2064.41,-250.95 2063.36,-257.87"/>
</g>
<!-- sr6_local&#45;&gt;ip_input -->
<g id="edge77" class="edge">
<title>sr6_local&#45;&gt;ip_input</title>
<path fill="none" stroke="black" d="M1179.11,-323.4C1140.03,-319.87 1065.5,-314 1001.92,-314 510.02,-314 510.02,-314 510.02,-314 422.29,-314 328.38,-365.45 282.79,-394.17"/>
<polygon fill="black" stroke="black" points="281.09,-391.09 274.57,-399.44 284.88,-396.98 281.09,-391.09"/>
</g>
<!-- sr6_local&#45;&gt;ip6_input -->
<g id="edge78" class="edge">
<title>sr6_local&#45;&gt;ip6_input</title>
<path fill="none" stroke="black" d="M1190.4,-340.9C1177.92,-350.11 1160.02,-361.65 1144.2,-370.86"/>
<polygon fill="black" stroke="black" points="1142.47,-367.82 1135.5,-375.79 1145.92,-373.91 1142.47,-367.82"/>
</g>
<!-- sr6_local&#45;&gt;ip6_input_local -->
<g id="edge79" class="edge">
<title>sr6_local&#45;&gt;ip6_input_local</title>
<path fill="none" stroke="black" d="M1230.46,-336.44C1243.92,-342.75 1261.47,-350.98 1277.25,-358.38"/>
<polygon fill="black" stroke="black" points="1275.39,-361.37 1285.93,-362.44 1278.36,-355.03 1275.39,-361.37"/>
</g>
<!-- sr6_output&#45;&gt;ip6_output -->
<g id="edge82" class="edge">
<title>sr6_output&#45;&gt;ip6_output</title>
<path fill="none" stroke="black" d="M1851.49,-743.02C1834.89,-741.38 1814.72,-738.44 1797.41,-735.14"/>
<polygon fill="black" stroke="black" points="1798.49,-731.79 1788,-733.24 1797.1,-738.65 1798.49,-731.79"/>
</g>
<!-- icmp_output -->
<g id="node42" class="node">
<title>icmp_output</title>
<ellipse fill="none" stroke="black" cx="772.3" cy="-674" rx="39.81" ry="18"/>
<text text-anchor="middle" x="772.3" y="-671.42" font-family="sans" font-size="11.00">icmp_output</text>
</g>
<!-- icmp_input&#45;&gt;icmp_output -->
<g id="edge23" class="edge">
<title>icmp_input&#45;&gt;icmp_output</title>
<path fill="none" stroke="black" d="M668.24,-631.32C686.6,-638.92 711.09,-649.06 731.59,-657.55"/>
<polygon fill="black" stroke="black" points="730.22,-660.77 740.8,-661.37 732.9,-654.31 730.22,-660.77"/>
</g>
<!-- icmp_local_send -->
<g id="node41" class="node">
<title>icmp_local_send</title>
<polygon fill="none" stroke="dodgerblue" points="689.48,-692 590.33,-692 590.33,-656 689.48,-656 689.48,-692"/>
<text text-anchor="middle" x="639.91" y="-671.42" font-family="sans" font-size="11.00">icmp_local_send</text>
</g>
<!-- icmp_local_send&#45;&gt;icmp_output -->
<g id="edge24" class="edge">
<title>icmp_local_send&#45;&gt;icmp_output</title>
<path fill="none" stroke="dodgerblue" d="M689.83,-674C700.02,-674 710.77,-674 721.01,-674"/>
<polygon fill="dodgerblue" stroke="dodgerblue" points="720.77,-677.5 730.77,-674 720.77,-670.5 720.77,-677.5"/>
</g>
<!-- icmp_output&#45;&gt;ip_output -->
<g id="edge25" class="edge">
<title>icmp_output&#45;&gt;ip_output</title>
<path fill="none" stroke="black" d="M795.49,-688.92C803.09,-694.18 811.57,-700.22 819.13,-706 834.74,-717.94 851.63,-732.01 865.1,-743.52"/>
<polygon fill="black" stroke="black" points="862.81,-746.16 872.67,-750.03 867.37,-740.86 862.81,-746.16"/>
</g>
<!-- icmp6_output -->
<g id="node44" class="node">
<title>icmp6_output</title>
<ellipse fill="none" stroke="black" cx="1602.8" cy="-631" rx="43.32" ry="18"/>
<text text-anchor="middle" x="1602.8" y="-628.42" font-family="sans" font-size="11.00">icmp6_output</text>
</g>
<!-- icmp6_input&#45;&gt;icmp6_output -->
<g id="edge45" class="edge">
<title>icmp6_input&#45;&gt;icmp6_output</title>
<path fill="none" stroke="dodgerblue" d="M1470.51,-449.33C1481.23,-461.97 1495.25,-479.42 1505.95,-496 1524.91,-525.4 1521.92,-537.32 1541.95,-566 1551.98,-580.37 1564.98,-594.86 1576.3,-606.5"/>
<polygon fill="dodgerblue" stroke="dodgerblue" points="1573.58,-608.73 1583.11,-613.36 1578.55,-603.8 1573.58,-608.73"/>
</g>
<!-- ndp_na_input -->
<g id="node46" class="node">
<title>ndp_na_input</title>
<polygon fill="none" stroke="dodgerblue" points="1645.25,-557 1560.35,-557 1560.35,-521 1645.25,-521 1645.25,-557"/>
<text text-anchor="middle" x="1602.8" y="-536.42" font-family="sans" font-size="11.00">ndp_na_input</text>
</g>
<!-- icmp6_input&#45;&gt;ndp_na_input -->
<g id="edge47" class="edge">
<title>icmp6_input&#45;&gt;ndp_na_input</title>
<path fill="none" stroke="dodgerblue" d="M1488.18,-449.38C1494.4,-453.46 1500.61,-458.06 1505.95,-463 1525.79,-481.35 1520.95,-495 1541.95,-512 1544.48,-514.05 1547.2,-515.98 1550.02,-517.79"/>
<polygon fill="dodgerblue" stroke="dodgerblue" points="1548.2,-520.78 1558.62,-522.73 1551.69,-514.71 1548.2,-520.78"/>
</g>
<!-- ndp_ns_input -->
<g id="node48" class="node">
<title>ndp_ns_input</title>
<polygon fill="none" stroke="dodgerblue" points="1644.87,-503 1560.72,-503 1560.72,-467 1644.87,-467 1644.87,-503"/>
<text text-anchor="middle" x="1602.8" y="-482.43" font-family="sans" font-size="11.00">ndp_ns_input</text>
</g>
<!-- icmp6_input&#45;&gt;ndp_ns_input -->
<g id="edge46" class="edge">
<title>icmp6_input&#45;&gt;ndp_ns_input</title>
<path fill="none" stroke="dodgerblue" d="M1492.72,-445.05C1510.05,-451.39 1530.8,-458.99 1549.53,-465.85"/>
<polygon fill="dodgerblue" stroke="dodgerblue" points="1548.26,-469.12 1558.86,-469.27 1550.67,-462.54 1548.26,-469.12"/>
</g>
<!-- ndp_rs_input -->
<g id="node50" class="node">
<title>ndp_rs_input</title>
<polygon fill="none" stroke="dodgerblue" points="1643.75,-449 1561.85,-449 1561.85,-413 1643.75,-413 1643.75,-449"/>
<text text-anchor="middle" x="1602.8" y="-428.43" font-family="sans" font-size="11.00">ndp_rs_input</text>
</g>
<!-- icmp6_input&#45;&gt;ndp_rs_input -->
<g id="edge48" class="edge">
<title>icmp6_input&#45;&gt;ndp_rs_input</title>
<path fill="none" stroke="dodgerblue" d="M1492.72,-431C1510.24,-431 1531.26,-431 1550.15,-431"/>
<polygon fill="dodgerblue" stroke="dodgerblue" points="1550.07,-434.5 1560.07,-431 1550.07,-427.5 1550.07,-434.5"/>
</g>
<!-- icmp6_output&#45;&gt;ip6_output -->
<g id="edge49" class="edge">
<title>icmp6_output&#45;&gt;ip6_output</title>
<path fill="none" stroke="black" d="M1631.17,-645.03C1641.46,-650.46 1653.19,-656.84 1663.64,-663 1684.98,-675.57 1708.41,-690.72 1726.38,-702.66"/>
<polygon fill="black" stroke="black" points="1724.24,-705.43 1734.5,-708.07 1728.13,-699.61 1724.24,-705.43"/>
</g>
<!-- icmp6_local_send -->
<g id="node45" class="node">
<title>icmp6_local_send</title>
<polygon fill="none" stroke="dodgerblue" points="1505.95,-541 1400.8,-541 1400.8,-505 1505.95,-505 1505.95,-541"/>
<text text-anchor="middle" x="1453.37" y="-520.42" font-family="sans" font-size="11.00">icmp6_local_send</text>
</g>
<!-- icmp6_local_send&#45;&gt;icmp6_output -->
<g id="edge50" class="edge">
<title>icmp6_local_send&#45;&gt;icmp6_output</title>
<path fill="none" stroke="dodgerblue" d="M1494.17,-541.41C1498.33,-544.04 1502.35,-546.9 1505.95,-550 1526.45,-567.61 1521.53,-581.3 1541.95,-599 1547.81,-604.08 1554.62,-608.66 1561.49,-612.67"/>
<polygon fill="dodgerblue" stroke="dodgerblue" points="1559.73,-615.7 1570.19,-617.4 1563.07,-609.55 1559.73,-615.7"/>
</g>
<!-- ndp_na_output -->
<g id="node47" class="node">
<title>ndp_na_output</title>
<polygon fill="none" stroke="dodgerblue" points="1499.57,-649 1407.17,-649 1407.17,-613 1499.57,-613 1499.57,-649"/>
<text text-anchor="middle" x="1453.37" y="-628.42" font-family="sans" font-size="11.00">ndp_na_output</text>
</g>
<!-- ndp_na_output&#45;&gt;icmp6_output -->
<g id="edge65" class="edge">
<title>ndp_na_output&#45;&gt;icmp6_output</title>
<path fill="none" stroke="dodgerblue" d="M1499.81,-631C1514.99,-631 1532.06,-631 1547.82,-631"/>
<polygon fill="dodgerblue" stroke="dodgerblue" points="1547.52,-634.5 1557.52,-631 1547.52,-627.5 1547.52,-634.5"/>
</g>
<!-- ndp_ns_output -->
<g id="node49" class="node">
<title>ndp_ns_output</title>
<polygon fill="none" stroke="dodgerblue" points="1499.2,-595 1407.55,-595 1407.55,-559 1499.2,-559 1499.2,-595"/>
<text text-anchor="middle" x="1453.37" y="-574.42" font-family="sans" font-size="11.00">ndp_ns_output</text>
</g>
<!-- ndp_ns_output&#45;&gt;icmp6_output -->
<g id="edge66" class="edge">
<title>ndp_ns_output&#45;&gt;icmp6_output</title>
<path fill="none" stroke="dodgerblue" d="M1499.41,-593.5C1518.38,-600.44 1540.35,-608.49 1559.06,-615.35"/>
<polygon fill="dodgerblue" stroke="dodgerblue" points="1557.64,-618.56 1568.24,-618.71 1560.05,-611.98 1557.64,-618.56"/>
</g>
<!-- l4_loopback_output -->
<g id="node52" class="node">
<title>l4_loopback_output</title>
<ellipse fill="none" stroke="black" cx="1602.8" cy="-323" rx="60.85" ry="18"/>
<text text-anchor="middle" x="1602.8" y="-320.43" font-family="sans" font-size="11.00">l4_loopback_output</text>
</g>
<!-- l4_input_local&#45;&gt;l4_loopback_output -->
<g id="edge69" class="edge">
<title>l4_input_local&#45;&gt;l4_loopback_output</title>
<path fill="none" stroke="black" d="M1486.36,-365.28C1505.71,-358.2 1530.76,-349.02 1552.59,-341.02"/>
<polygon fill="black" stroke="black" points="1553.72,-344.34 1561.91,-337.61 1551.31,-337.76 1553.72,-344.34"/>
</g>
<!-- dhcp_input -->
<g id="node53" class="node">
<title>dhcp_input</title>
<polygon fill="none" stroke="dodgerblue" points="1638.87,-395 1566.72,-395 1566.72,-359 1638.87,-359 1638.87,-395"/>
<text text-anchor="middle" x="1602.8" y="-374.43" font-family="sans" font-size="11.00">dhcp_input</text>
</g>
<!-- l4_input_local&#45;&gt;dhcp_input -->
<g id="edge70" class="edge">
<title>l4_input_local&#45;&gt;dhcp_input</title>
<path fill="none" stroke="black" d="M1496.62,-377C1514.94,-377 1536.45,-377 1555.23,-377"/>
<polygon fill="black" stroke="black" points="1555,-380.5 1565,-377 1555,-373.5 1555,-380.5"/>
</g>
<!-- l4_loopback_output&#45;&gt;loopback_output -->
<g id="edge71" class="edge">
<title>l4_loopback_output&#45;&gt;loopback_output</title>
<path fill="none" stroke="black" d="M1664.14,-323C1674.31,-323 1684.88,-323 1695.08,-323"/>
<polygon fill="black" stroke="black" points="1694.88,-326.5 1704.88,-323 1694.88,-319.5 1694.88,-326.5"/>
</g>
</g>
</svg>
