<?xml version="1.0" encoding="UTF-8" standalone="no"?>
<!DOCTYPE svg PUBLIC "-//W3C//DTD SVG 1.1//EN"
 "http://www.w3.org/Graphics/SVG/1.1/DTD/svg11.dtd">
<!-- Generated by graphviz version 2.43.0 (0)
 -->
<!-- Title: gr&#45;0002 Pages: 1 -->
<svg width="1692pt" height="956pt"
 viewBox="0.00 0.00 1691.51 956.00" xmlns="http://www.w3.org/2000/svg" xmlns:xlink="http://www.w3.org/1999/xlink">
<g id="graph0" class="graph" transform="scale(1 1) rotate(0) translate(4 952)">
<title>gr&#45;0002</title>
<polygon fill="white" stroke="transparent" points="-4,4 -4,-952 1687.51,-952 1687.51,4 -4,4"/>
<!-- control_input -->
<g id="node1" class="node">
<title>control_input</title>
<ellipse fill="none" stroke="blue" stroke-width="2" cx="40.16" cy="-177" rx="40.32" ry="18"/>
<text text-anchor="middle" x="40.16" y="-174.2" font-family="sans" font-size="11.00">control_input</text>
</g>
<!-- loopback_input -->
<g id="node2" class="node">
<title>loopback_input</title>
<ellipse fill="none" stroke="black" cx="161.91" cy="-456" rx="45.68" ry="18"/>
<text text-anchor="middle" x="161.91" y="-453.2" font-family="sans" font-size="11.00">loopback_input</text>
</g>
<!-- control_input&#45;&gt;loopback_input -->
<g id="edge1" class="edge">
<title>control_input&#45;&gt;loopback_input</title>
<path fill="none" stroke="blue" stroke-width="2" d="M48.83,-194.88C69.24,-242.42 124.94,-372.18 149.27,-428.88"/>
<polygon fill="blue" stroke="blue" stroke-width="2" points="146.14,-430.46 153.3,-438.27 152.57,-427.7 146.14,-430.46"/>
</g>
<!-- arp_output_request -->
<g id="node3" class="node">
<title>arp_output_request</title>
<ellipse fill="none" stroke="black" cx="941.8" cy="-18" rx="59.31" ry="18"/>
<text text-anchor="middle" x="941.8" y="-15.2" font-family="sans" font-size="11.00">arp_output_request</text>
</g>
<!-- control_input&#45;&gt;arp_output_request -->
<g id="edge2" class="edge">
<title>control_input&#45;&gt;arp_output_request</title>
<path fill="none" stroke="blue" stroke-width="2" d="M46.39,-158.79C55.54,-130.49 77.3,-76.45 116.32,-50 183.11,-4.73 215,-22 295.69,-22 295.69,-22 295.69,-22 687.9,-22 750.45,-22 821.68,-20.76 872.58,-19.66"/>
<polygon fill="blue" stroke="blue" stroke-width="2" points="872.87,-23.16 882.8,-19.44 872.72,-16.16 872.87,-23.16"/>
</g>
<!-- icmp_local_send -->
<g id="node4" class="node">
<title>icmp_local_send</title>
<ellipse fill="none" stroke="black" cx="560.27" cy="-349" rx="49.28" ry="18"/>
<text text-anchor="middle" x="560.27" y="-346.2" font-family="sans" font-size="11.00">icmp_local_send</text>
</g>
<!-- control_input&#45;&gt;icmp_local_send -->
<g id="edge3" class="edge">
<title>control_input&#45;&gt;icmp_local_send</title>
<path fill="none" stroke="blue" stroke-width="2" d="M46.33,-195.16C55.39,-223.34 77.03,-276.95 116.32,-302 237.54,-379.28 416.27,-369.11 505.07,-357.74"/>
<polygon fill="blue" stroke="blue" stroke-width="2" points="505.74,-361.19 515.19,-356.39 504.81,-354.25 505.74,-361.19"/>
</g>
<!-- icmp6_local_send -->
<g id="node5" class="node">
<title>icmp6_local_send</title>
<ellipse fill="none" stroke="black" cx="296.69" cy="-242" rx="53.37" ry="18"/>
<text text-anchor="middle" x="296.69" y="-239.2" font-family="sans" font-size="11.00">icmp6_local_send</text>
</g>
<!-- control_input&#45;&gt;icmp6_local_send -->
<g id="edge4" class="edge">
<title>control_input&#45;&gt;icmp6_local_send</title>
<path fill="none" stroke="blue" stroke-width="2" d="M67.36,-190.34C81.55,-197.08 99.55,-204.9 116.32,-210 155.3,-221.85 200.45,-229.87 235.7,-234.93"/>
<polygon fill="blue" stroke="blue" stroke-width="2" points="235.45,-238.42 245.84,-236.33 236.42,-231.49 235.45,-238.42"/>
</g>
<!-- ndp_ns_output -->
<g id="node6" class="node">
<title>ndp_ns_output</title>
<ellipse fill="none" stroke="black" cx="430.38" cy="-204" rx="44.51" ry="18"/>
<text text-anchor="middle" x="430.38" y="-201.2" font-family="sans" font-size="11.00">ndp_ns_output</text>
</g>
<!-- control_input&#45;&gt;ndp_ns_output -->
<g id="edge5" class="edge">
<title>control_input&#45;&gt;ndp_ns_output</title>
<path fill="none" stroke="blue" stroke-width="2" d="M80.16,-179.71C150.09,-184.58 296.86,-194.78 376.04,-200.29"/>
<polygon fill="blue" stroke="blue" stroke-width="2" points="376.06,-203.8 386.28,-201 376.55,-196.82 376.06,-203.8"/>
</g>
<!-- ip_output -->
<g id="node7" class="node">
<title>ip_output</title>
<ellipse fill="none" stroke="black" cx="1088.51" cy="-376" rx="29.12" ry="18"/>
<text text-anchor="middle" x="1088.51" y="-373.2" font-family="sans" font-size="11.00">ip_output</text>
</g>
<!-- control_input&#45;&gt;ip_output -->
<g id="edge6" class="edge">
<title>control_input&#45;&gt;ip_output</title>
<path fill="none" stroke="blue" stroke-width="2" d="M59.13,-193.19C73.66,-205.56 95.13,-222.26 116.32,-233 190.7,-270.68 212.31,-288 295.69,-288 295.69,-288 295.69,-288 806.39,-288 894.33,-288 918.71,-292.86 1000.95,-324 1022.26,-332.07 1044.23,-345.34 1060.71,-356.46"/>
<polygon fill="blue" stroke="blue" stroke-width="2" points="1059.05,-359.56 1069.26,-362.37 1063.03,-353.8 1059.05,-359.56"/>
</g>
<!-- arp_output_reply -->
<g id="node8" class="node">
<title>arp_output_reply</title>
<ellipse fill="none" stroke="black" cx="1088.51" cy="-64" rx="51.62" ry="18"/>
<text text-anchor="middle" x="1088.51" y="-61.2" font-family="sans" font-size="11.00">arp_output_reply</text>
</g>
<!-- control_input&#45;&gt;arp_output_reply -->
<g id="edge7" class="edge">
<title>control_input&#45;&gt;arp_output_reply</title>
<path fill="none" stroke="blue" stroke-width="2" d="M50.49,-159.58C62.65,-138.75 85.99,-104.62 116.32,-88 186.86,-49.35 215.26,-64 295.69,-64 295.69,-64 295.69,-64 806.39,-64 882.2,-64 969.51,-64 1026.46,-64"/>
<polygon fill="blue" stroke="blue" stroke-width="2" points="1026.73,-67.5 1036.73,-64 1026.73,-60.5 1026.73,-67.5"/>
</g>
<!-- ip6_output -->
<g id="node9" class="node">
<title>ip6_output</title>
<ellipse fill="none" stroke="black" cx="1354.26" cy="-334" rx="32.63" ry="18"/>
<text text-anchor="middle" x="1354.26" y="-331.2" font-family="sans" font-size="11.00">ip6_output</text>
</g>
<!-- control_input&#45;&gt;ip6_output -->
<g id="edge8" class="edge">
<title>control_input&#45;&gt;ip6_output</title>
<path fill="none" stroke="blue" stroke-width="2" d="M63.13,-162.18C106.62,-139.9 207.13,-102 295.69,-102 295.69,-102 295.69,-102 687.9,-102 946.18,-102 1052.39,-51.89 1259.65,-206 1296.23,-233.2 1326.2,-278.15 1341.74,-307.12"/>
<polygon fill="blue" stroke="blue" stroke-width="2" points="1338.76,-308.98 1346.44,-316.28 1344.99,-305.79 1338.76,-308.98"/>
</g>
<!-- control_input&#45;&gt;ip6_output -->
<g id="edge10" class="edge">
<title>control_input&#45;&gt;ip6_output</title>
<path fill="none" stroke="blue" stroke-width="2" d="M75.42,-168.19C123.63,-151.73 214.66,-120 295.69,-120 295.69,-120 295.69,-120 687.9,-120 946.18,-120 1052.39,-69.89 1259.65,-224 1291.21,-247.47 1317.86,-284.15 1334.55,-308.79"/>
<polygon fill="blue" stroke="blue" stroke-width="2" points="1331.77,-310.92 1340.25,-317.28 1337.58,-307.03 1331.77,-310.92"/>
</g>
<!-- ndp_na_output -->
<g id="node10" class="node">
<title>ndp_na_output</title>
<ellipse fill="none" stroke="black" cx="560.27" cy="-166" rx="45.09" ry="18"/>
<text text-anchor="middle" x="560.27" y="-163.2" font-family="sans" font-size="11.00">ndp_na_output</text>
</g>
<!-- control_input&#45;&gt;ndp_na_output -->
<g id="edge9" class="edge">
<title>control_input&#45;&gt;ndp_na_output</title>
<path fill="none" stroke="blue" stroke-width="2" d="M80.53,-176.16C172.29,-174.22 400.5,-169.37 505.2,-167.15"/>
<polygon fill="blue" stroke="blue" stroke-width="2" points="505.32,-170.65 515.24,-166.93 505.17,-163.65 505.32,-170.65"/>
</g>
<!-- ip_input -->
<g id="node14" class="node">
<title>ip_input</title>
<ellipse fill="none" stroke="black" cx="560.27" cy="-456" rx="27" ry="18"/>
<text text-anchor="middle" x="560.27" y="-453.2" font-family="sans" font-size="11.00">ip_input</text>
</g>
<!-- loopback_input&#45;&gt;ip_input -->
<g id="edge16" class="edge">
<title>loopback_input&#45;&gt;ip_input</title>
<path fill="none" stroke="black" d="M207.61,-456C286.72,-456 449.93,-456 522.77,-456"/>
<polygon fill="black" stroke="black" points="522.84,-459.5 532.84,-456 522.84,-452.5 522.84,-459.5"/>
</g>
<!-- ip6_input -->
<g id="node15" class="node">
<title>ip6_input</title>
<ellipse fill="none" stroke="black" cx="296.69" cy="-586" rx="28.44" ry="18"/>
<text text-anchor="middle" x="296.69" y="-583.2" font-family="sans" font-size="11.00">ip6_input</text>
</g>
<!-- loopback_input&#45;&gt;ip6_input -->
<g id="edge17" class="edge">
<title>loopback_input&#45;&gt;ip6_input</title>
<path fill="none" stroke="black" d="M180,-472.73C203.71,-495.95 246.65,-537.99 273.02,-563.81"/>
<polygon fill="black" stroke="black" points="270.72,-566.45 280.31,-570.95 275.61,-561.45 270.72,-566.45"/>
</g>
<!-- eth_output -->
<g id="node16" class="node">
<title>eth_output</title>
<ellipse fill="none" stroke="black" cx="1503.69" cy="-288" rx="33.8" ry="18"/>
<text text-anchor="middle" x="1503.69" y="-285.2" font-family="sans" font-size="11.00">eth_output</text>
</g>
<!-- arp_output_request&#45;&gt;eth_output -->
<g id="edge26" class="edge">
<title>arp_output_request&#45;&gt;eth_output</title>
<path fill="none" stroke="black" d="M999.09,-13.19C1095.14,-8.12 1291.99,-11.76 1412.88,-111 1460.57,-150.16 1485.49,-221.15 1496.16,-260.27"/>
<polygon fill="black" stroke="black" points="1492.83,-261.38 1498.74,-270.18 1499.6,-259.62 1492.83,-261.38"/>
</g>
<!-- icmp_output -->
<g id="node24" class="node">
<title>icmp_output</title>
<ellipse fill="none" stroke="black" cx="941.8" cy="-372" rx="37.98" ry="18"/>
<text text-anchor="middle" x="941.8" y="-369.2" font-family="sans" font-size="11.00">icmp_output</text>
</g>
<!-- icmp_local_send&#45;&gt;icmp_output -->
<g id="edge29" class="edge">
<title>icmp_local_send&#45;&gt;icmp_output</title>
<path fill="none" stroke="black" d="M609.33,-351.91C682.53,-356.35 821.07,-364.74 893.69,-369.15"/>
<polygon fill="black" stroke="black" points="893.71,-372.65 903.91,-369.76 894.14,-365.67 893.71,-372.65"/>
</g>
<!-- icmp6_output -->
<g id="node33" class="node">
<title>icmp6_output</title>
<ellipse fill="none" stroke="black" cx="1217.86" cy="-242" rx="41.58" ry="18"/>
<text text-anchor="middle" x="1217.86" y="-239.2" font-family="sans" font-size="11.00">icmp6_output</text>
</g>
<!-- icmp6_local_send&#45;&gt;icmp6_output -->
<g id="edge50" class="edge">
<title>icmp6_local_send&#45;&gt;icmp6_output</title>
<path fill="none" stroke="black" d="M349.78,-244.53C402.57,-246.88 486.57,-250 559.27,-250 559.27,-250 559.27,-250 942.8,-250 1020.61,-250 1110.79,-246.74 1165.82,-244.38"/>
<polygon fill="black" stroke="black" points="1166.17,-247.87 1176.01,-243.94 1165.87,-240.87 1166.17,-247.87"/>
</g>
<!-- ndp_ns_output&#45;&gt;icmp6_output -->
<g id="edge66" class="edge">
<title>ndp_ns_output&#45;&gt;icmp6_output</title>
<path fill="none" stroke="black" d="M474.6,-206.19C525.22,-208.55 611.63,-212 685.9,-212 685.9,-212 685.9,-212 942.8,-212 1022.39,-212 1114.21,-224.66 1168.8,-233.53"/>
<polygon fill="black" stroke="black" points="1168.44,-237.02 1178.88,-235.19 1169.58,-230.11 1168.44,-237.02"/>
</g>
<!-- ip_output&#45;&gt;eth_output -->
<g id="edge39" class="edge">
<title>ip_output&#45;&gt;eth_output</title>
<path fill="none" stroke="black" d="M1103.32,-360.34C1119.06,-343.72 1146.46,-318.34 1176.07,-307 1272.55,-270.07 1396.8,-276.02 1460.67,-282.57"/>
<polygon fill="black" stroke="black" points="1460.44,-286.06 1470.76,-283.66 1461.19,-279.1 1460.44,-286.06"/>
</g>
<!-- loopback_output -->
<g id="node19" class="node">
<title>loopback_output</title>
<ellipse fill="none" stroke="black" cx="1503.69" cy="-470" rx="50.45" ry="18"/>
<text text-anchor="middle" x="1503.69" y="-467.2" font-family="sans" font-size="11.00">loopback_output</text>
</g>
<!-- ip_output&#45;&gt;loopback_output -->
<g id="edge41" class="edge">
<title>ip_output&#45;&gt;loopback_output</title>
<path fill="none" stroke="black" d="M1117.73,-378.51C1151.67,-381.82 1210.23,-388.5 1259.65,-399 1329.45,-413.82 1408.44,-438.39 1456.91,-454.39"/>
<polygon fill="black" stroke="black" points="1455.89,-457.74 1466.48,-457.57 1458.09,-451.1 1455.89,-457.74"/>
</g>
<!-- ip_hold -->
<g id="node26" class="node">
<title>ip_hold</title>
<ellipse fill="none" stroke="black" cx="1217.86" cy="-480" rx="27" ry="18"/>
<text text-anchor="middle" x="1217.86" y="-477.2" font-family="sans" font-size="11.00">ip_hold</text>
</g>
<!-- ip_output&#45;&gt;ip_hold -->
<g id="edge40" class="edge">
<title>ip_output&#45;&gt;ip_hold</title>
<path fill="none" stroke="black" d="M1105.2,-391.19C1122.1,-407.26 1150.09,-433.01 1176.07,-453 1180.17,-456.16 1184.63,-459.34 1189.05,-462.36"/>
<polygon fill="black" stroke="black" points="1187.12,-465.28 1197.38,-467.91 1191,-459.45 1187.12,-465.28"/>
</g>
<!-- ipip_output -->
<g id="node30" class="node">
<title>ipip_output</title>
<ellipse fill="none" stroke="black" cx="1217.86" cy="-426" rx="34.38" ry="18"/>
<text text-anchor="middle" x="1217.86" y="-423.2" font-family="sans" font-size="11.00">ipip_output</text>
</g>
<!-- ip_output&#45;&gt;ipip_output -->
<g id="edge42" class="edge">
<title>ip_output&#45;&gt;ipip_output</title>
<path fill="none" stroke="black" d="M1116.83,-381.07C1137.11,-387.66 1164.79,-398.45 1185.9,-407.96"/>
<polygon fill="black" stroke="black" points="1184.53,-411.18 1195.08,-412.21 1187.48,-404.83 1184.53,-411.18"/>
</g>
<!-- sr6_headend -->
<g id="node31" class="node">
<title>sr6_headend</title>
<ellipse fill="none" stroke="black" cx="1217.86" cy="-334" rx="39.15" ry="18"/>
<text text-anchor="middle" x="1217.86" y="-331.2" font-family="sans" font-size="11.00">sr6_headend</text>
</g>
<!-- ip_output&#45;&gt;sr6_headend -->
<g id="edge43" class="edge">
<title>ip_output&#45;&gt;sr6_headend</title>
<path fill="none" stroke="black" d="M1114.67,-367.7C1132.11,-361.95 1155.73,-354.16 1175.87,-347.52"/>
<polygon fill="black" stroke="black" points="1177.03,-350.82 1185.43,-344.37 1174.84,-344.17 1177.03,-350.82"/>
</g>
<!-- arp_output_reply&#45;&gt;eth_output -->
<g id="edge25" class="edge">
<title>arp_output_reply&#45;&gt;eth_output</title>
<path fill="none" stroke="black" d="M1139.44,-67.06C1174.4,-70.69 1221.49,-78.63 1259.65,-96 1352.52,-138.28 1441.26,-223.38 1480.96,-264.59"/>
<polygon fill="black" stroke="black" points="1478.57,-267.16 1488.01,-271.98 1483.64,-262.33 1478.57,-267.16"/>
</g>
<!-- ip6_output&#45;&gt;eth_output -->
<g id="edge59" class="edge">
<title>ip6_output&#45;&gt;eth_output</title>
<path fill="none" stroke="black" d="M1382.99,-325.35C1406.04,-318.16 1439.08,-307.85 1464.6,-299.88"/>
<polygon fill="black" stroke="black" points="1465.83,-303.17 1474.33,-296.85 1463.74,-296.49 1465.83,-303.17"/>
</g>
<!-- ip6_output&#45;&gt;loopback_output -->
<g id="edge61" class="edge">
<title>ip6_output&#45;&gt;loopback_output</title>
<path fill="none" stroke="black" d="M1380.01,-345.31C1390.66,-350.78 1402.94,-357.92 1412.88,-366 1441.27,-389.09 1467.89,-421.85 1484.66,-444.4"/>
<polygon fill="black" stroke="black" points="1481.86,-446.5 1490.59,-452.5 1487.51,-442.37 1481.86,-446.5"/>
</g>
<!-- ip6_output&#45;&gt;sr6_headend -->
<g id="edge62" class="edge">
<title>ip6_output&#45;&gt;sr6_headend</title>
<path fill="none" stroke="black" d="M1323.06,-339.74C1305.94,-340.78 1284.16,-341.02 1264.95,-340.44"/>
<polygon fill="black" stroke="black" points="1265.01,-336.94 1254.88,-340.06 1264.74,-343.94 1265.01,-336.94"/>
</g>
<!-- ip6_hold -->
<g id="node38" class="node">
<title>ip6_hold</title>
<ellipse fill="none" stroke="black" cx="1503.69" cy="-351" rx="27" ry="18"/>
<text text-anchor="middle" x="1503.69" y="-348.2" font-family="sans" font-size="11.00">ip6_hold</text>
</g>
<!-- ip6_output&#45;&gt;ip6_hold -->
<g id="edge60" class="edge">
<title>ip6_output&#45;&gt;ip6_hold</title>
<path fill="none" stroke="black" d="M1386.53,-337.61C1410.05,-340.32 1442.31,-344.04 1466.87,-346.87"/>
<polygon fill="black" stroke="black" points="1466.54,-350.35 1476.88,-348.02 1467.34,-343.4 1466.54,-350.35"/>
</g>
<!-- ndp_na_output&#45;&gt;icmp6_output -->
<g id="edge64" class="edge">
<title>ndp_na_output&#45;&gt;icmp6_output</title>
<path fill="none" stroke="black" d="M605.63,-167.17C654.36,-168.35 734.95,-170 804.39,-170 804.39,-170 804.39,-170 942.8,-170 1031.35,-170 1056.31,-169.25 1140.07,-198 1156.4,-203.61 1173.19,-212.77 1186.89,-221.29"/>
<polygon fill="black" stroke="black" points="1185.11,-224.3 1195.41,-226.75 1188.88,-218.4 1185.11,-224.3"/>
</g>
<!-- control_output -->
<g id="node11" class="node">
<title>control_output</title>
<ellipse fill="none" stroke="black" cx="1639.01" cy="-733" rx="44.51" ry="18"/>
<text text-anchor="middle" x="1639.01" y="-730.2" font-family="sans" font-size="11.00">control_output</text>
</g>
<!-- eth_input -->
<g id="node12" class="node">
<title>eth_input</title>
<ellipse fill="none" stroke="black" cx="161.91" cy="-735" rx="29.12" ry="18"/>
<text text-anchor="middle" x="161.91" y="-732.2" font-family="sans" font-size="11.00">eth_input</text>
</g>
<!-- arp_input -->
<g id="node13" class="node">
<title>arp_input</title>
<ellipse fill="none" stroke="black" cx="1354.26" cy="-892" rx="29.12" ry="18"/>
<text text-anchor="middle" x="1354.26" y="-889.2" font-family="sans" font-size="11.00">arp_input</text>
</g>
<!-- eth_input&#45;&gt;arp_input -->
<g id="edge11" class="edge">
<title>eth_input&#45;&gt;arp_input</title>
<path fill="none" stroke="black" d="M177.49,-750.38C215.21,-788.45 320.72,-884 429.38,-884 429.38,-884 429.38,-884 1089.51,-884 1169.66,-884 1263.44,-887.74 1314.79,-890.1"/>
<polygon fill="black" stroke="black" points="1314.63,-893.6 1324.78,-890.57 1314.96,-886.61 1314.63,-893.6"/>
</g>
<!-- eth_input&#45;&gt;ip_input -->
<g id="edge12" class="edge">
<title>eth_input&#45;&gt;ip_input</title>
<path fill="none" stroke="black" d="M166.18,-716.94C173.54,-681.5 194.72,-602.51 243.5,-559 286.05,-521.04 451.32,-480.26 524.3,-463.67"/>
<polygon fill="black" stroke="black" points="525.38,-467.01 534.37,-461.4 523.84,-460.19 525.38,-467.01"/>
</g>
<!-- eth_input&#45;&gt;ip6_input -->
<g id="edge13" class="edge">
<title>eth_input&#45;&gt;ip6_input</title>
<path fill="none" stroke="black" d="M176.87,-719.34C200.34,-693 247.81,-639.73 275.11,-609.09"/>
<polygon fill="black" stroke="black" points="277.88,-611.25 281.91,-601.45 272.65,-606.59 277.88,-611.25"/>
</g>
<!-- arp_input_request -->
<g id="node21" class="node">
<title>arp_input_request</title>
<ellipse fill="none" stroke="black" cx="1503.69" cy="-876" rx="54.63" ry="18"/>
<text text-anchor="middle" x="1503.69" y="-873.2" font-family="sans" font-size="11.00">arp_input_request</text>
</g>
<!-- arp_input&#45;&gt;arp_input_request -->
<g id="edge21" class="edge">
<title>arp_input&#45;&gt;arp_input_request</title>
<path fill="none" stroke="black" d="M1383.34,-888.95C1399.78,-887.17 1421.21,-884.84 1441.37,-882.66"/>
<polygon fill="black" stroke="black" points="1441.88,-886.12 1451.44,-881.56 1441.12,-879.16 1441.88,-886.12"/>
</g>
<!-- arp_input_reply -->
<g id="node22" class="node">
<title>arp_input_reply</title>
<ellipse fill="none" stroke="black" cx="1503.69" cy="-930" rx="47.43" ry="18"/>
<text text-anchor="middle" x="1503.69" y="-927.2" font-family="sans" font-size="11.00">arp_input_reply</text>
</g>
<!-- arp_input&#45;&gt;arp_input_reply -->
<g id="edge22" class="edge">
<title>arp_input&#45;&gt;arp_input_reply</title>
<path fill="none" stroke="black" d="M1381.62,-898.79C1401.79,-903.99 1430.15,-911.3 1454.35,-917.54"/>
<polygon fill="black" stroke="black" points="1453.53,-920.94 1464.09,-920.05 1455.28,-914.16 1453.53,-920.94"/>
</g>
<!-- ip_input&#45;&gt;ip_output -->
<g id="edge34" class="edge">
<title>ip_input&#45;&gt;ip_output</title>
<path fill="none" stroke="black" d="M574.42,-440.31C589.68,-423.24 616.51,-396.58 645.65,-383 789.6,-315.92 844.48,-317.83 1000.95,-345 1019.45,-348.21 1039.22,-355.01 1055.18,-361.43"/>
<polygon fill="black" stroke="black" points="1054.01,-364.73 1064.59,-365.34 1056.7,-358.27 1054.01,-364.73"/>
</g>
<!-- ip_forward -->
<g id="node25" class="node">
<title>ip_forward</title>
<ellipse fill="none" stroke="black" cx="686.9" cy="-410" rx="32.63" ry="18"/>
<text text-anchor="middle" x="686.9" y="-407.2" font-family="sans" font-size="11.00">ip_forward</text>
</g>
<!-- ip_input&#45;&gt;ip_forward -->
<g id="edge33" class="edge">
<title>ip_input&#45;&gt;ip_forward</title>
<path fill="none" stroke="black" d="M584.13,-447.56C602.45,-440.8 628.5,-431.19 649.66,-423.38"/>
<polygon fill="black" stroke="black" points="651.12,-426.57 659.29,-419.82 648.7,-420 651.12,-426.57"/>
</g>
<!-- ip_input_local -->
<g id="node27" class="node">
<title>ip_input_local</title>
<ellipse fill="none" stroke="black" cx="686.9" cy="-502" rx="41.49" ry="18"/>
<text text-anchor="middle" x="686.9" y="-499.2" font-family="sans" font-size="11.00">ip_input_local</text>
</g>
<!-- ip_input&#45;&gt;ip_input_local -->
<g id="edge35" class="edge">
<title>ip_input&#45;&gt;ip_input_local</title>
<path fill="none" stroke="black" d="M584.13,-464.44C601.16,-470.72 624.87,-479.47 645.12,-486.95"/>
<polygon fill="black" stroke="black" points="644.14,-490.32 654.74,-490.5 646.57,-483.75 644.14,-490.32"/>
</g>
<!-- ip6_input&#45;&gt;ip6_output -->
<g id="edge54" class="edge">
<title>ip6_input&#45;&gt;ip6_output</title>
<path fill="none" stroke="black" d="M325.07,-587.45C465.62,-594.34 1105.45,-619.05 1259.65,-507 1309.02,-471.13 1335.08,-401.04 1346.32,-361.98"/>
<polygon fill="black" stroke="black" points="1349.83,-362.41 1349.1,-351.84 1343.08,-360.56 1349.83,-362.41"/>
</g>
<!-- ip6_forward -->
<g id="node37" class="node">
<title>ip6_forward</title>
<ellipse fill="none" stroke="black" cx="430.38" cy="-670" rx="35.64" ry="18"/>
<text text-anchor="middle" x="430.38" y="-667.2" font-family="sans" font-size="11.00">ip6_forward</text>
</g>
<!-- ip6_input&#45;&gt;ip6_forward -->
<g id="edge53" class="edge">
<title>ip6_input&#45;&gt;ip6_forward</title>
<path fill="none" stroke="black" d="M317.4,-598.58C338.97,-612.33 373.8,-634.55 398.89,-650.56"/>
<polygon fill="black" stroke="black" points="397.01,-653.51 407.32,-655.93 400.78,-647.61 397.01,-653.51"/>
</g>
<!-- ip6_input_local -->
<g id="node39" class="node">
<title>ip6_input_local</title>
<ellipse fill="none" stroke="black" cx="560.27" cy="-563" rx="45.09" ry="18"/>
<text text-anchor="middle" x="560.27" y="-560.2" font-family="sans" font-size="11.00">ip6_input_local</text>
</g>
<!-- ip6_input&#45;&gt;ip6_input_local -->
<g id="edge55" class="edge">
<title>ip6_input&#45;&gt;ip6_input_local</title>
<path fill="none" stroke="black" d="M324.69,-583.63C367.25,-579.88 450.71,-572.55 505.73,-567.71"/>
<polygon fill="black" stroke="black" points="506.34,-571.17 516,-566.8 505.73,-564.19 506.34,-571.17"/>
</g>
<!-- sr6_local -->
<g id="node40" class="node">
<title>sr6_local</title>
<ellipse fill="none" stroke="black" cx="430.38" cy="-540" rx="27.86" ry="18"/>
<text text-anchor="middle" x="430.38" y="-537.2" font-family="sans" font-size="11.00">sr6_local</text>
</g>
<!-- ip6_input&#45;&gt;sr6_local -->
<g id="edge56" class="edge">
<title>ip6_input&#45;&gt;sr6_local</title>
<path fill="none" stroke="black" d="M317.97,-573.88C337.92,-565.07 368.82,-553.92 393.01,-546.59"/>
<polygon fill="black" stroke="black" points="394.3,-549.86 402.92,-543.71 392.34,-543.14 394.3,-549.86"/>
</g>
<!-- port_tx -->
<g id="node17" class="node">
<title>port_tx</title>
<ellipse fill="none" stroke="black" cx="1639.01" cy="-418" rx="27" ry="18"/>
<text text-anchor="middle" x="1639.01" y="-415.2" font-family="sans" font-size="11.00">port_tx</text>
</g>
<!-- eth_output&#45;&gt;port_tx -->
<g id="edge14" class="edge">
<title>eth_output&#45;&gt;port_tx</title>
<path fill="none" stroke="black" d="M1527.18,-301.06C1537.23,-307.39 1548.95,-315.46 1558.51,-324 1582.25,-345.21 1605.28,-373.56 1620.39,-393.57"/>
<polygon fill="black" stroke="black" points="1617.77,-395.91 1626.55,-401.85 1623.39,-391.73 1617.77,-395.91"/>
</g>
<!-- l1_xconnect -->
<g id="node18" class="node">
<title>l1_xconnect</title>
<ellipse fill="none" stroke="black" cx="296.69" cy="-930" rx="36.23" ry="18"/>
<text text-anchor="middle" x="296.69" y="-927.2" font-family="sans" font-size="11.00">l1_xconnect</text>
</g>
<!-- l1_xconnect&#45;&gt;port_tx -->
<g id="edge15" class="edge">
<title>l1_xconnect&#45;&gt;port_tx</title>
<path fill="none" stroke="black" d="M307.62,-912.49C338.04,-861.38 435.46,-716 559.27,-716 559.27,-716 559.27,-716 806.39,-716 1082.35,-716 1158.07,-688.94 1412.88,-583 1482.29,-554.14 1499.03,-542.96 1558.51,-497 1580.34,-480.13 1602.38,-457.71 1617.7,-441.07"/>
<polygon fill="black" stroke="black" points="1620.52,-443.17 1624.65,-433.41 1615.33,-438.46 1620.52,-443.17"/>
</g>
<!-- loopback_output&#45;&gt;control_output -->
<g id="edge18" class="edge">
<title>loopback_output&#45;&gt;control_output</title>
<path fill="none" stroke="black" d="M1514.17,-487.61C1525.03,-507.89 1543.3,-542.22 1558.51,-572 1582.4,-618.8 1609.3,-673.77 1624.88,-705.86"/>
<polygon fill="black" stroke="black" points="1621.83,-707.58 1629.34,-715.05 1628.13,-704.53 1621.83,-707.58"/>
</g>
<!-- port_rx -->
<g id="node20" class="node">
<title>port_rx</title>
<ellipse fill="none" stroke="blue" stroke-width="2" cx="40.16" cy="-758" rx="27" ry="18"/>
<text text-anchor="middle" x="40.16" y="-755.2" font-family="sans" font-size="11.00">port_rx</text>
</g>
<!-- port_rx&#45;&gt;eth_input -->
<g id="edge19" class="edge">
<title>port_rx&#45;&gt;eth_input</title>
<path fill="none" stroke="blue" stroke-width="2" d="M66.26,-753.18C82.93,-749.98 105.1,-745.72 123.79,-742.13"/>
<polygon fill="blue" stroke="blue" stroke-width="2" points="124.6,-745.54 133.76,-740.22 123.28,-738.66 124.6,-745.54"/>
</g>
<!-- port_rx&#45;&gt;l1_xconnect -->
<g id="edge20" class="edge">
<title>port_rx&#45;&gt;l1_xconnect</title>
<path fill="none" stroke="blue" stroke-width="2" d="M59.07,-770.89C94.09,-795.98 174.25,-852.86 243.5,-898 249.99,-902.23 257.01,-906.64 263.74,-910.8"/>
<polygon fill="blue" stroke="blue" stroke-width="2" points="262.3,-914.02 272.65,-916.25 265.95,-908.05 262.3,-914.02"/>
</g>
<!-- arp_input_request&#45;&gt;control_output -->
<g id="edge24" class="edge">
<title>arp_input_request&#45;&gt;control_output</title>
<path fill="none" stroke="black" d="M1534.7,-861.1C1542.9,-856.27 1551.46,-850.47 1558.51,-844 1585.48,-819.23 1608.85,-783.93 1623.15,-759.83"/>
<polygon fill="black" stroke="black" points="1626.35,-761.28 1628.35,-750.88 1620.3,-757.77 1626.35,-761.28"/>
</g>
<!-- arp_input_reply&#45;&gt;control_output -->
<g id="edge23" class="edge">
<title>arp_input_reply&#45;&gt;control_output</title>
<path fill="none" stroke="black" d="M1538.04,-917.62C1545.42,-913.76 1552.75,-908.92 1558.51,-903 1598.31,-862.08 1620.87,-797.54 1631.15,-760.88"/>
<polygon fill="black" stroke="black" points="1634.62,-761.46 1633.83,-750.89 1627.86,-759.64 1634.62,-761.46"/>
</g>
<!-- icmp_input -->
<g id="node23" class="node">
<title>icmp_input</title>
<ellipse fill="none" stroke="black" cx="805.39" cy="-502" rx="33.8" ry="18"/>
<text text-anchor="middle" x="805.39" y="-499.2" font-family="sans" font-size="11.00">icmp_input</text>
</g>
<!-- icmp_input&#45;&gt;control_output -->
<g id="edge28" class="edge">
<title>icmp_input&#45;&gt;control_output</title>
<path fill="none" stroke="black" d="M835.5,-510.09C959.01,-544.39 1440.31,-678.08 1591.97,-720.21"/>
<polygon fill="black" stroke="black" points="1591.32,-723.66 1601.89,-722.97 1593.2,-716.92 1591.32,-723.66"/>
</g>
<!-- icmp_input&#45;&gt;icmp_output -->
<g id="edge27" class="edge">
<title>icmp_input&#45;&gt;icmp_output</title>
<path fill="none" stroke="black" d="M828.39,-488.62C834.52,-484.53 841.03,-479.83 846.64,-475 874.81,-450.76 903.03,-418.58 921.12,-396.69"/>
<polygon fill="black" stroke="black" points="923.92,-398.8 927.54,-388.84 918.5,-394.37 923.92,-398.8"/>
</g>
<!-- icmp_output&#45;&gt;ip_output -->
<g id="edge30" class="edge">
<title>icmp_output&#45;&gt;ip_output</title>
<path fill="none" stroke="black" d="M980.07,-373.03C1001.22,-373.61 1027.67,-374.35 1049.02,-374.94"/>
<polygon fill="black" stroke="black" points="1048.96,-378.44 1059.05,-375.21 1049.15,-371.44 1048.96,-378.44"/>
</g>
<!-- ip_forward&#45;&gt;ip_output -->
<g id="edge31" class="edge">
<title>ip_forward&#45;&gt;ip_output</title>
<path fill="none" stroke="black" d="M719.66,-411.22C776.46,-412.89 899.02,-414.14 1000.95,-399 1018.24,-396.43 1037.03,-391.69 1052.67,-387.17"/>
<polygon fill="black" stroke="black" points="1053.86,-390.47 1062.45,-384.26 1051.87,-383.76 1053.86,-390.47"/>
</g>
<!-- ip_hold&#45;&gt;control_output -->
<g id="edge32" class="edge">
<title>ip_hold&#45;&gt;control_output</title>
<path fill="none" stroke="black" d="M1244.58,-483.64C1282.61,-489.64 1355.56,-503.57 1412.88,-529 1483.97,-560.53 1502.12,-572.44 1558.51,-626 1584.13,-650.34 1607.48,-683.72 1622.15,-706.69"/>
<polygon fill="black" stroke="black" points="1619.23,-708.64 1627.51,-715.25 1625.16,-704.92 1619.23,-708.64"/>
</g>
<!-- ip_input_local&#45;&gt;icmp_input -->
<g id="edge36" class="edge">
<title>ip_input_local&#45;&gt;icmp_input</title>
<path fill="none" stroke="black" d="M728.32,-502C738.97,-502 750.51,-502 761.31,-502"/>
<polygon fill="black" stroke="black" points="761.37,-505.5 771.37,-502 761.37,-498.5 761.37,-505.5"/>
</g>
<!-- ipip_input -->
<g id="node28" class="node">
<title>ipip_input</title>
<ellipse fill="none" stroke="black" cx="805.39" cy="-448" rx="29.7" ry="18"/>
<text text-anchor="middle" x="805.39" y="-445.2" font-family="sans" font-size="11.00">ipip_input</text>
</g>
<!-- ip_input_local&#45;&gt;ipip_input -->
<g id="edge37" class="edge">
<title>ip_input_local&#45;&gt;ipip_input</title>
<path fill="none" stroke="black" d="M715.8,-489.07C732.62,-481.27 754.1,-471.31 771.71,-463.15"/>
<polygon fill="black" stroke="black" points="773.43,-466.21 781.03,-458.83 770.49,-459.86 773.43,-466.21"/>
</g>
<!-- l4_input_local -->
<g id="node29" class="node">
<title>l4_input_local</title>
<ellipse fill="none" stroke="black" cx="805.39" cy="-556" rx="41.49" ry="18"/>
<text text-anchor="middle" x="805.39" y="-553.2" font-family="sans" font-size="11.00">l4_input_local</text>
</g>
<!-- ip_input_local&#45;&gt;l4_input_local -->
<g id="edge38" class="edge">
<title>ip_input_local&#45;&gt;l4_input_local</title>
<path fill="none" stroke="black" d="M715.8,-514.93C731.11,-522.03 750.29,-530.92 766.89,-538.62"/>
<polygon fill="black" stroke="black" points="765.77,-541.95 776.32,-542.98 768.71,-535.6 765.77,-541.95"/>
</g>
<!-- ipip_input&#45;&gt;ip_input -->
<g id="edge68" class="edge">
<title>ipip_input&#45;&gt;ip_input</title>
<path fill="none" stroke="black" d="M775.56,-448.95C731.09,-450.41 645.83,-453.22 597.34,-454.81"/>
<polygon fill="black" stroke="black" points="597.16,-451.32 587.29,-455.14 597.4,-458.31 597.16,-451.32"/>
</g>
<!-- l4_loopback_output -->
<g id="node41" class="node">
<title>l4_loopback_output</title>
<ellipse fill="none" stroke="black" cx="1354.26" cy="-556" rx="58.73" ry="18"/>
<text text-anchor="middle" x="1354.26" y="-553.2" font-family="sans" font-size="11.00">l4_loopback_output</text>
</g>
<!-- l4_input_local&#45;&gt;l4_loopback_output -->
<g id="edge70" class="edge">
<title>l4_input_local&#45;&gt;l4_loopback_output</title>
<path fill="none" stroke="black" d="M847.05,-556C940.28,-556 1170.27,-556 1285.37,-556"/>
<polygon fill="black" stroke="black" points="1285.47,-559.5 1295.47,-556 1285.47,-552.5 1285.47,-559.5"/>
</g>
<!-- ipip_output&#45;&gt;ip_output -->
<g id="edge69" class="edge">
<title>ipip_output&#45;&gt;ip_output</title>
<path fill="none" stroke="black" d="M1185.71,-419.67C1165.26,-412.81 1138.7,-402.34 1118.66,-393.22"/>
<polygon fill="black" stroke="black" points="1119.95,-389.96 1109.41,-388.88 1116.97,-396.3 1119.95,-389.96"/>
</g>
<!-- sr6_headend&#45;&gt;ip6_output -->
<g id="edge75" class="edge">
<title>sr6_headend&#45;&gt;ip6_output</title>
<path fill="none" stroke="black" d="M1254.88,-327.94C1272.77,-327.09 1294.45,-327.02 1312.91,-327.75"/>
<polygon fill="black" stroke="black" points="1312.9,-331.26 1323.06,-328.26 1313.25,-324.27 1312.9,-331.26"/>
</g>
<!-- icmp6_input -->
<g id="node32" class="node">
<title>icmp6_input</title>
<ellipse fill="none" stroke="black" cx="1088.51" cy="-739" rx="37.4" ry="18"/>
<text text-anchor="middle" x="1088.51" y="-736.2" font-family="sans" font-size="11.00">icmp6_input</text>
</g>
<!-- icmp6_input&#45;&gt;control_output -->
<g id="edge48" class="edge">
<title>icmp6_input&#45;&gt;control_output</title>
<path fill="none" stroke="black" d="M1126,-738.9C1204.91,-738.62 1397.31,-737.71 1558.51,-735 1566.75,-734.86 1575.48,-734.68 1584.01,-734.48"/>
<polygon fill="black" stroke="black" points="1584.36,-737.97 1594.27,-734.23 1584.19,-730.97 1584.36,-737.97"/>
</g>
<!-- icmp6_input&#45;&gt;icmp6_output -->
<g id="edge44" class="edge">
<title>icmp6_input&#45;&gt;icmp6_output</title>
<path fill="none" stroke="black" d="M1090.81,-720.64C1095.62,-659.71 1115.35,-459.42 1176.07,-307 1181.61,-293.09 1190.15,-278.87 1197.98,-267.29"/>
<polygon fill="black" stroke="black" points="1200.91,-269.2 1203.77,-259 1195.17,-265.19 1200.91,-269.2"/>
</g>
<!-- ndp_ns_input -->
<g id="node34" class="node">
<title>ndp_ns_input</title>
<ellipse fill="none" stroke="black" cx="1354.26" cy="-708" rx="40.32" ry="18"/>
<text text-anchor="middle" x="1354.26" y="-705.2" font-family="sans" font-size="11.00">ndp_ns_input</text>
</g>
<!-- icmp6_input&#45;&gt;ndp_ns_input -->
<g id="edge45" class="edge">
<title>icmp6_input&#45;&gt;ndp_ns_input</title>
<path fill="none" stroke="black" d="M1125.08,-734.82C1171.62,-729.35 1253.33,-719.75 1305.3,-713.64"/>
<polygon fill="black" stroke="black" points="1305.75,-717.11 1315.28,-712.47 1304.93,-710.16 1305.75,-717.11"/>
</g>
<!-- ndp_na_input -->
<g id="node35" class="node">
<title>ndp_na_input</title>
<ellipse fill="none" stroke="black" cx="1354.26" cy="-838" rx="40.91" ry="18"/>
<text text-anchor="middle" x="1354.26" y="-835.2" font-family="sans" font-size="11.00">ndp_na_input</text>
</g>
<!-- icmp6_input&#45;&gt;ndp_na_input -->
<g id="edge46" class="edge">
<title>icmp6_input&#45;&gt;ndp_na_input</title>
<path fill="none" stroke="black" d="M1100.52,-756.27C1114.99,-777.24 1142.53,-811.71 1176.07,-827 1216.7,-845.53 1268.09,-846.61 1305.06,-844.05"/>
<polygon fill="black" stroke="black" points="1305.39,-847.54 1315.08,-843.25 1304.83,-840.56 1305.39,-847.54"/>
</g>
<!-- ndp_rs_input -->
<g id="node36" class="node">
<title>ndp_rs_input</title>
<ellipse fill="none" stroke="black" cx="1217.86" cy="-800" rx="39.15" ry="18"/>
<text text-anchor="middle" x="1217.86" y="-797.2" font-family="sans" font-size="11.00">ndp_rs_input</text>
</g>
<!-- icmp6_input&#45;&gt;ndp_rs_input -->
<g id="edge47" class="edge">
<title>icmp6_input&#45;&gt;ndp_rs_input</title>
<path fill="none" stroke="black" d="M1115.59,-751.49C1134.4,-760.5 1160.02,-772.77 1180.78,-782.72"/>
<polygon fill="black" stroke="black" points="1179.41,-785.94 1189.94,-787.1 1182.43,-779.63 1179.41,-785.94"/>
</g>
<!-- icmp6_output&#45;&gt;ip6_output -->
<g id="edge49" class="edge">
<title>icmp6_output&#45;&gt;ip6_output</title>
<path fill="none" stroke="black" d="M1241.05,-257.19C1263.86,-272.81 1299.48,-297.18 1324.45,-314.28"/>
<polygon fill="black" stroke="black" points="1322.57,-317.23 1332.8,-319.99 1326.53,-311.46 1322.57,-317.23"/>
</g>
<!-- ndp_ns_input&#45;&gt;control_output -->
<g id="edge65" class="edge">
<title>ndp_ns_input&#45;&gt;control_output</title>
<path fill="none" stroke="black" d="M1393.99,-711.42C1443.53,-715.8 1529.58,-723.41 1585.14,-728.33"/>
<polygon fill="black" stroke="black" points="1584.87,-731.81 1595.14,-729.21 1585.49,-724.84 1584.87,-731.81"/>
</g>
<!-- ndp_na_input&#45;&gt;control_output -->
<g id="edge63" class="edge">
<title>ndp_na_input&#45;&gt;control_output</title>
<path fill="none" stroke="black" d="M1395.09,-838.42C1437.59,-837.39 1505.91,-831.38 1558.51,-806 1581.86,-794.74 1603.19,-774.32 1617.87,-757.94"/>
<polygon fill="black" stroke="black" points="1620.6,-760.13 1624.52,-750.28 1615.32,-755.54 1620.6,-760.13"/>
</g>
<!-- ndp_rs_input&#45;&gt;control_output -->
<g id="edge67" class="edge">
<title>ndp_rs_input&#45;&gt;control_output</title>
<path fill="none" stroke="black" d="M1256.99,-800.35C1320.55,-800.06 1451.74,-795.75 1558.51,-768 1573.31,-764.15 1588.85,-757.86 1602.24,-751.67"/>
<polygon fill="black" stroke="black" points="1604.04,-754.68 1611.55,-747.21 1601.02,-748.37 1604.04,-754.68"/>
</g>
<!-- ip6_forward&#45;&gt;ip6_output -->
<g id="edge51" class="edge">
<title>ip6_forward&#45;&gt;ip6_output</title>
<path fill="none" stroke="black" d="M465.62,-666.59C547.59,-658.72 761.62,-640 940.8,-640 940.8,-640 940.8,-640 1089.51,-640 1177.22,-640 1200.96,-605.19 1259.65,-540 1307.73,-486.6 1334.89,-404.34 1346.49,-361.72"/>
<polygon fill="black" stroke="black" points="1349.88,-362.59 1349.04,-352.03 1343.11,-360.81 1349.88,-362.59"/>
</g>
<!-- ip6_hold&#45;&gt;control_output -->
<g id="edge52" class="edge">
<title>ip6_hold&#45;&gt;control_output</title>
<path fill="none" stroke="black" d="M1515.99,-367.27C1527.96,-385.14 1546.73,-415.03 1558.51,-443 1597.35,-535.28 1622.62,-652.06 1632.85,-704.83"/>
<polygon fill="black" stroke="black" points="1629.43,-705.63 1634.75,-714.8 1636.31,-704.32 1629.43,-705.63"/>
</g>
<!-- ip6_input_local&#45;&gt;l4_input_local -->
<g id="edge58" class="edge">
<title>ip6_input_local&#45;&gt;l4_input_local</title>
<path fill="none" stroke="black" d="M605.3,-561.73C647.1,-560.53 709.9,-558.72 753.76,-557.46"/>
<polygon fill="black" stroke="black" points="754.03,-560.95 763.92,-557.17 753.83,-553.95 754.03,-560.95"/>
</g>
<!-- ip6_input_local&#45;&gt;icmp6_input -->
<g id="edge57" class="edge">
<title>ip6_input_local&#45;&gt;icmp6_input</title>
<path fill="none" stroke="black" d="M595.39,-574.41C688.64,-605.6 947.46,-692.16 1047.41,-725.59"/>
<polygon fill="black" stroke="black" points="1046.54,-728.99 1057.13,-728.84 1048.76,-722.35 1046.54,-728.99"/>
</g>
<!-- sr6_local&#45;&gt;ip_input -->
<g id="edge72" class="edge">
<title>sr6_local&#45;&gt;ip_input</title>
<path fill="none" stroke="black" d="M450.52,-527.42C472.12,-513.24 507.42,-490.05 531.92,-473.96"/>
<polygon fill="black" stroke="black" points="533.97,-476.8 540.41,-468.39 530.13,-470.95 533.97,-476.8"/>
</g>
<!-- sr6_local&#45;&gt;ip6_input -->
<g id="edge73" class="edge">
<title>sr6_local&#45;&gt;ip6_input</title>
<path fill="none" stroke="black" d="M409.22,-552.07C389.33,-560.86 358.48,-572 334.26,-579.34"/>
<polygon fill="black" stroke="black" points="332.95,-576.08 324.34,-582.24 334.92,-582.8 332.95,-576.08"/>
</g>
<!-- sr6_local&#45;&gt;ip6_input_local -->
<g id="edge74" class="edge">
<title>sr6_local&#45;&gt;ip6_input_local</title>
<path fill="none" stroke="black" d="M457.26,-544.65C472.02,-547.31 491.04,-550.73 508.65,-553.9"/>
<polygon fill="black" stroke="black" points="508.36,-557.4 518.82,-555.73 509.6,-550.51 508.36,-557.4"/>
</g>
<!-- l4_loopback_output&#45;&gt;loopback_output -->
<g id="edge71" class="edge">
<title>l4_loopback_output&#45;&gt;loopback_output</title>
<path fill="none" stroke="black" d="M1382.65,-540.03C1406.63,-526.03 1441.63,-505.62 1467.65,-490.44"/>
<polygon fill="black" stroke="black" points="1469.57,-493.37 1476.45,-485.31 1466.04,-487.33 1469.57,-493.37"/>
</g>
</g>
</svg>
