<?xml version="1.0" encoding="UTF-8" standalone="no"?>
<!DOCTYPE svg PUBLIC "-//W3C//DTD SVG 1.1//EN"
 "http://www.w3.org/Graphics/SVG/1.1/DTD/svg11.dtd">
<!-- Generated by graphviz version 9.0.0 (20230911.1827)
 -->
<!-- Title: br&#45;0003 Pages: 1 -->
<svg width="1632pt" height="417pt"
 viewBox="0.00 0.00 1632.13 417.00" xmlns="http://www.w3.org/2000/svg" xmlns:xlink="http://www.w3.org/1999/xlink">
<g id="graph0" class="graph" transform="scale(1 1) rotate(0) translate(4 413)">
<title>br&#45;0003</title>
<polygon fill="white" stroke="none" points="-4,4 -4,-413 1628.13,-413 1628.13,4 -4,4"/>
<!-- ip_output_no_route -->
<g id="node1" class="node">
<title>ip_output_no_route</title>
<ellipse fill="none" stroke="darkorange" cx="1288.85" cy="-264" rx="60.15" ry="18"/>
<text text-anchor="middle" x="1288.85" y="-260.3" font-family="sans" font-size="11.00">ip_output_no_route</text>
</g>
<!-- ip_output_error -->
<g id="node2" class="node">
<title>ip_output_error</title>
<ellipse fill="none" stroke="darkorange" cx="1288.85" cy="-210" rx="48.36" ry="18"/>
<text text-anchor="middle" x="1288.85" y="-206.3" font-family="sans" font-size="11.00">ip_output_error</text>
</g>
<!-- ip_output -->
<g id="node3" class="node">
<title>ip_output</title>
<ellipse fill="none" stroke="black" cx="1100.12" cy="-245" rx="30.25" ry="18"/>
<text text-anchor="middle" x="1100.12" y="-241.3" font-family="sans" font-size="11.00">ip_output</text>
</g>
<!-- ip_output&#45;&gt;ip_output_no_route -->
<g id="edge2" class="edge">
<title>ip_output&#45;&gt;ip_output_no_route</title>
<path fill="none" stroke="black" d="M1130.3,-247.97C1154.32,-250.41 1189.34,-253.98 1220.27,-257.12"/>
<polygon fill="black" stroke="black" points="1219.64,-260.58 1229.94,-258.11 1220.35,-253.61 1219.64,-260.58"/>
</g>
<!-- ip_output&#45;&gt;ip_output_error -->
<g id="edge3" class="edge">
<title>ip_output&#45;&gt;ip_output_error</title>
<path fill="none" stroke="black" d="M1129.48,-239.68C1157.07,-234.51 1199.7,-226.52 1233.78,-220.13"/>
<polygon fill="black" stroke="black" points="1234.3,-223.6 1243.49,-218.32 1233.01,-216.72 1234.3,-223.6"/>
</g>
<!-- eth_tx -->
<g id="node4" class="node">
<title>eth_tx</title>
<ellipse fill="none" stroke="black" cx="1439.26" cy="-164" rx="27" ry="18"/>
<text text-anchor="middle" x="1439.26" y="-160.3" font-family="sans" font-size="11.00">eth_tx</text>
</g>
<!-- ip_output&#45;&gt;eth_tx -->
<g id="edge1" class="edge">
<title>ip_output&#45;&gt;eth_tx</title>
<path fill="none" stroke="black" d="M1121.63,-231.98C1145.87,-217.31 1187.92,-194.07 1227.44,-183 1286.47,-166.47 1358.09,-163.41 1400.82,-163.29"/>
<polygon fill="black" stroke="black" points="1400.55,-166.79 1410.56,-163.32 1400.57,-159.79 1400.55,-166.79"/>
</g>
<!-- arp_output_request -->
<g id="node5" class="node">
<title>arp_output_request</title>
<ellipse fill="none" stroke="black" cx="1288.85" cy="-318" rx="61.42" ry="18"/>
<text text-anchor="middle" x="1288.85" y="-314.3" font-family="sans" font-size="11.00">arp_output_request</text>
</g>
<!-- ip_output&#45;&gt;arp_output_request -->
<g id="edge4" class="edge">
<title>ip_output&#45;&gt;arp_output_request</title>
<path fill="none" stroke="black" d="M1125.92,-254.69C1154.99,-266.06 1203.84,-285.16 1240.3,-299.41"/>
<polygon fill="black" stroke="black" points="1238.7,-302.54 1249.29,-302.92 1241.25,-296.02 1238.7,-302.54"/>
</g>
<!-- eth_tx_no_dest -->
<g id="node25" class="node">
<title>eth_tx_no_dest</title>
<ellipse fill="none" stroke="darkorange" cx="1576.19" cy="-191" rx="47.94" ry="18"/>
<text text-anchor="middle" x="1576.19" y="-187.3" font-family="sans" font-size="11.00">eth_tx_no_dest</text>
</g>
<!-- eth_tx&#45;&gt;eth_tx_no_dest -->
<g id="edge28" class="edge">
<title>eth_tx&#45;&gt;eth_tx_no_dest</title>
<path fill="none" stroke="black" d="M1465.64,-169.08C1481.53,-172.26 1502.61,-176.48 1522.03,-180.36"/>
<polygon fill="black" stroke="black" points="1521.24,-183.77 1531.73,-182.3 1522.61,-176.91 1521.24,-183.77"/>
</g>
<!-- eth_tx_error -->
<g id="node26" class="node">
<title>eth_tx_error</title>
<ellipse fill="none" stroke="darkorange" cx="1576.19" cy="-137" rx="39.1" ry="18"/>
<text text-anchor="middle" x="1576.19" y="-133.3" font-family="sans" font-size="11.00">eth_tx_error</text>
</g>
<!-- eth_tx&#45;&gt;eth_tx_error -->
<g id="edge27" class="edge">
<title>eth_tx&#45;&gt;eth_tx_error</title>
<path fill="none" stroke="black" d="M1465.64,-158.92C1483.37,-155.37 1507.56,-150.53 1528.7,-146.3"/>
<polygon fill="black" stroke="black" points="1529.14,-149.78 1538.26,-144.39 1527.77,-142.92 1529.14,-149.78"/>
</g>
<!-- arp_output_request&#45;&gt;eth_tx -->
<g id="edge18" class="edge">
<title>arp_output_request&#45;&gt;eth_tx</title>
<path fill="none" stroke="black" d="M1329.38,-304.08C1336.76,-300.48 1344.08,-296.14 1350.27,-291 1383.95,-263.06 1410.44,-219.14 1425.22,-190.97"/>
<polygon fill="black" stroke="black" points="1428.19,-192.85 1429.62,-182.36 1421.96,-189.67 1428.19,-192.85"/>
</g>
<!-- arp_output_error -->
<g id="node18" class="node">
<title>arp_output_error</title>
<ellipse fill="none" stroke="darkorange" cx="1439.26" cy="-291" rx="52.99" ry="18"/>
<text text-anchor="middle" x="1439.26" y="-287.3" font-family="sans" font-size="11.00">arp_output_error</text>
</g>
<!-- arp_output_request&#45;&gt;arp_output_error -->
<g id="edge20" class="edge">
<title>arp_output_request&#45;&gt;arp_output_error</title>
<path fill="none" stroke="black" d="M1341.76,-308.56C1354.43,-306.25 1368.06,-303.77 1380.96,-301.42"/>
<polygon fill="black" stroke="black" points="1381.38,-304.91 1390.59,-299.67 1380.12,-298.02 1381.38,-304.91"/>
</g>
<!-- arp_queue_full -->
<g id="node19" class="node">
<title>arp_queue_full</title>
<ellipse fill="none" stroke="darkorange" cx="1439.26" cy="-345" rx="45.83" ry="18"/>
<text text-anchor="middle" x="1439.26" y="-341.3" font-family="sans" font-size="11.00">arp_queue_full</text>
</g>
<!-- arp_output_request&#45;&gt;arp_queue_full -->
<g id="edge19" class="edge">
<title>arp_output_request&#45;&gt;arp_queue_full</title>
<path fill="none" stroke="black" d="M1341.76,-327.44C1356.14,-330.06 1371.74,-332.9 1386.14,-335.52"/>
<polygon fill="black" stroke="black" points="1385.41,-338.94 1395.88,-337.29 1386.67,-332.06 1385.41,-338.94"/>
</g>
<!-- ip_input_local_unknown_proto -->
<g id="node6" class="node">
<title>ip_input_local_unknown_proto</title>
<ellipse fill="none" stroke="darkorange" cx="691.08" cy="-241" rx="92.58" ry="18"/>
<text text-anchor="middle" x="691.08" y="-237.3" font-family="sans" font-size="11.00">ip_input_local_unknown_proto</text>
</g>
<!-- ip_input_local -->
<g id="node7" class="node">
<title>ip_input_local</title>
<ellipse fill="none" stroke="black" cx="488.87" cy="-295" rx="42.89" ry="18"/>
<text text-anchor="middle" x="488.87" y="-291.3" font-family="sans" font-size="11.00">ip_input_local</text>
</g>
<!-- ip_input_local&#45;&gt;ip_input_local_unknown_proto -->
<g id="edge5" class="edge">
<title>ip_input_local&#45;&gt;ip_input_local_unknown_proto</title>
<path fill="none" stroke="black" d="M525.66,-285.35C553.05,-277.96 591.57,-267.57 624.44,-258.7"/>
<polygon fill="black" stroke="black" points="625.14,-262.14 633.88,-256.16 623.32,-255.38 625.14,-262.14"/>
</g>
<!-- icmp_input -->
<g id="node8" class="node">
<title>icmp_input</title>
<ellipse fill="none" stroke="black" cx="691.08" cy="-295" rx="34.89" ry="18"/>
<text text-anchor="middle" x="691.08" y="-291.3" font-family="sans" font-size="11.00">icmp_input</text>
</g>
<!-- ip_input_local&#45;&gt;icmp_input -->
<g id="edge6" class="edge">
<title>ip_input_local&#45;&gt;icmp_input</title>
<path fill="none" stroke="black" d="M531.84,-295C564.76,-295 610.53,-295 644.38,-295"/>
<polygon fill="black" stroke="black" points="644.3,-298.5 654.3,-295 644.3,-291.5 644.3,-298.5"/>
</g>
<!-- icmp_output -->
<g id="node15" class="node">
<title>icmp_output</title>
<ellipse fill="none" stroke="black" cx="896.23" cy="-245" rx="39.52" ry="18"/>
<text text-anchor="middle" x="896.23" y="-241.3" font-family="sans" font-size="11.00">icmp_output</text>
</g>
<!-- icmp_input&#45;&gt;icmp_output -->
<g id="edge15" class="edge">
<title>icmp_input&#45;&gt;icmp_output</title>
<path fill="none" stroke="black" d="M722.93,-287.41C756.77,-279.08 811.41,-265.63 850.08,-256.11"/>
<polygon fill="black" stroke="black" points="850.68,-259.57 859.55,-253.78 849.01,-252.77 850.68,-259.57"/>
</g>
<!-- icmp_input_unsupported -->
<g id="node16" class="node">
<title>icmp_input_unsupported</title>
<ellipse fill="none" stroke="darkorange" cx="896.23" cy="-191" rx="76.58" ry="18"/>
<text text-anchor="middle" x="896.23" y="-187.3" font-family="sans" font-size="11.00">icmp_input_unsupported</text>
</g>
<!-- icmp_input&#45;&gt;icmp_input_unsupported -->
<g id="edge17" class="edge">
<title>icmp_input&#45;&gt;icmp_input_unsupported</title>
<path fill="none" stroke="black" d="M725.32,-290.62C743.81,-286.92 766.48,-280.18 783.65,-268 805.99,-252.16 797.77,-234.46 819.65,-218 823.95,-214.77 828.67,-211.9 833.59,-209.35"/>
<polygon fill="black" stroke="black" points="834.91,-212.59 842.51,-205.21 831.97,-206.24 834.91,-212.59"/>
</g>
<!-- icmp_input_invalid -->
<g id="node17" class="node">
<title>icmp_input_invalid</title>
<ellipse fill="none" stroke="darkorange" cx="896.23" cy="-299" rx="58.05" ry="18"/>
<text text-anchor="middle" x="896.23" y="-295.3" font-family="sans" font-size="11.00">icmp_input_invalid</text>
</g>
<!-- icmp_input&#45;&gt;icmp_input_invalid -->
<g id="edge16" class="edge">
<title>icmp_input&#45;&gt;icmp_input_invalid</title>
<path fill="none" stroke="black" d="M726.08,-295.67C753.48,-296.21 792.89,-296.98 826.77,-297.65"/>
<polygon fill="black" stroke="black" points="826.45,-301.15 836.51,-297.84 826.58,-294.15 826.45,-301.15"/>
</g>
<!-- ip_input_bad_length -->
<g id="node9" class="node">
<title>ip_input_bad_length</title>
<ellipse fill="none" stroke="darkorange" cx="488.87" cy="-241" rx="62.26" ry="18"/>
<text text-anchor="middle" x="488.87" y="-237.3" font-family="sans" font-size="11.00">ip_input_bad_length</text>
</g>
<!-- ip_input_bad_checksum -->
<g id="node10" class="node">
<title>ip_input_bad_checksum</title>
<ellipse fill="none" stroke="darkorange" cx="488.87" cy="-187" rx="73.63" ry="18"/>
<text text-anchor="middle" x="488.87" y="-183.3" font-family="sans" font-size="11.00">ip_input_bad_checksum</text>
</g>
<!-- ip_input_no_route -->
<g id="node11" class="node">
<title>ip_input_no_route</title>
<ellipse fill="none" stroke="darkorange" cx="488.87" cy="-133" rx="55.52" ry="18"/>
<text text-anchor="middle" x="488.87" y="-129.3" font-family="sans" font-size="11.00">ip_input_no_route</text>
</g>
<!-- ip_input -->
<g id="node12" class="node">
<title>ip_input</title>
<ellipse fill="none" stroke="black" cx="290.45" cy="-214" rx="27" ry="18"/>
<text text-anchor="middle" x="290.45" y="-210.3" font-family="sans" font-size="11.00">ip_input</text>
</g>
<!-- ip_input&#45;&gt;ip_input_local -->
<g id="edge8" class="edge">
<title>ip_input&#45;&gt;ip_input_local</title>
<path fill="none" stroke="black" d="M313.21,-223.93C337.82,-235.05 379.15,-253.43 415.24,-268 424.76,-271.84 435.05,-275.79 444.82,-279.44"/>
<polygon fill="black" stroke="black" points="443.53,-282.7 454.13,-282.89 445.96,-276.14 443.53,-282.7"/>
</g>
<!-- ip_input&#45;&gt;ip_input_bad_length -->
<g id="edge11" class="edge">
<title>ip_input&#45;&gt;ip_input_bad_length</title>
<path fill="none" stroke="black" d="M317.13,-217.53C343.31,-221.13 385.03,-226.86 420.67,-231.76"/>
<polygon fill="black" stroke="black" points="420.12,-235.22 430.5,-233.11 421.07,-228.28 420.12,-235.22"/>
</g>
<!-- ip_input&#45;&gt;ip_input_bad_checksum -->
<g id="edge10" class="edge">
<title>ip_input&#45;&gt;ip_input_bad_checksum</title>
<path fill="none" stroke="black" d="M317.13,-210.47C341.33,-207.14 378.8,-201.99 412.48,-197.36"/>
<polygon fill="black" stroke="black" points="412.8,-200.85 422.23,-196.02 411.85,-193.92 412.8,-200.85"/>
</g>
<!-- ip_input&#45;&gt;ip_input_no_route -->
<g id="edge9" class="edge">
<title>ip_input&#45;&gt;ip_input_no_route</title>
<path fill="none" stroke="black" d="M313.21,-204.07C337.82,-192.95 379.15,-174.57 415.24,-160 423.22,-156.78 431.75,-153.48 440.05,-150.35"/>
<polygon fill="black" stroke="black" points="441.21,-153.65 449.35,-146.87 438.76,-147.09 441.21,-153.65"/>
</g>
<!-- ip_forward -->
<g id="node13" class="node">
<title>ip_forward</title>
<ellipse fill="none" stroke="black" cx="488.87" cy="-349" rx="33.62" ry="18"/>
<text text-anchor="middle" x="488.87" y="-345.3" font-family="sans" font-size="11.00">ip_forward</text>
</g>
<!-- ip_input&#45;&gt;ip_forward -->
<g id="edge7" class="edge">
<title>ip_input&#45;&gt;ip_forward</title>
<path fill="none" stroke="black" d="M305.32,-229.2C326.89,-252.07 370.63,-295.46 415.24,-322 425.3,-327.98 436.91,-333.02 447.86,-337.06"/>
<polygon fill="black" stroke="black" points="446.47,-340.28 457.07,-340.27 448.78,-333.67 446.47,-340.28"/>
</g>
<!-- ip_forward&#45;&gt;ip_output -->
<g id="edge12" class="edge">
<title>ip_forward&#45;&gt;ip_output</title>
<path fill="none" stroke="black" d="M521.94,-353.05C600.89,-361.83 810.08,-377.93 972.81,-326 1011.15,-313.76 1049.22,-286.8 1073.38,-267.34"/>
<polygon fill="black" stroke="black" points="1075.57,-270.06 1081.06,-261 1071.12,-264.66 1075.57,-270.06"/>
</g>
<!-- ip_forward_ttl_exceeded -->
<g id="node14" class="node">
<title>ip_forward_ttl_exceeded</title>
<ellipse fill="none" stroke="darkorange" cx="691.08" cy="-391" rx="75.73" ry="18"/>
<text text-anchor="middle" x="691.08" y="-387.3" font-family="sans" font-size="11.00">ip_forward_ttl_exceeded</text>
</g>
<!-- ip_forward&#45;&gt;ip_forward_ttl_exceeded -->
<g id="edge13" class="edge">
<title>ip_forward&#45;&gt;ip_forward_ttl_exceeded</title>
<path fill="none" stroke="black" d="M520.71,-355.47C547.63,-361.12 587.66,-369.52 622.05,-376.73"/>
<polygon fill="black" stroke="black" points="621,-380.09 631.51,-378.71 622.44,-373.23 621,-380.09"/>
</g>
<!-- icmp_output&#45;&gt;ip_output -->
<g id="edge14" class="edge">
<title>icmp_output&#45;&gt;ip_output</title>
<path fill="none" stroke="black" d="M936.16,-245C971.16,-245 1022.4,-245 1058.05,-245"/>
<polygon fill="black" stroke="black" points="1057.98,-248.5 1067.98,-245 1057.98,-241.5 1057.98,-248.5"/>
</g>
<!-- arp_output_reply -->
<g id="node20" class="node">
<title>arp_output_reply</title>
<ellipse fill="none" stroke="black" cx="1288.85" cy="-118" rx="53.41" ry="18"/>
<text text-anchor="middle" x="1288.85" y="-114.3" font-family="sans" font-size="11.00">arp_output_reply</text>
</g>
<!-- arp_output_reply&#45;&gt;eth_tx -->
<g id="edge21" class="edge">
<title>arp_output_reply&#45;&gt;eth_tx</title>
<path fill="none" stroke="black" d="M1329.23,-130.21C1352.34,-137.37 1381.27,-146.34 1403.53,-153.23"/>
<polygon fill="black" stroke="black" points="1402.46,-156.57 1413.04,-156.18 1404.53,-149.88 1402.46,-156.57"/>
</g>
<!-- arp_input_proto_unsupported -->
<g id="node21" class="node">
<title>arp_input_proto_unsupported</title>
<ellipse fill="none" stroke="darkorange" cx="1100.12" cy="-72" rx="91.31" ry="18"/>
<text text-anchor="middle" x="1100.12" y="-68.3" font-family="sans" font-size="11.00">arp_input_proto_unsupported</text>
</g>
<!-- arp_input_op_unsupported -->
<g id="node22" class="node">
<title>arp_input_op_unsupported</title>
<ellipse fill="none" stroke="darkorange" cx="1100.12" cy="-18" rx="82.47" ry="18"/>
<text text-anchor="middle" x="1100.12" y="-14.3" font-family="sans" font-size="11.00">arp_input_op_unsupported</text>
</g>
<!-- arp_input_reply -->
<g id="node23" class="node">
<title>arp_input_reply</title>
<ellipse fill="none" stroke="darkorange" cx="1100.12" cy="-164" rx="48.78" ry="18"/>
<text text-anchor="middle" x="1100.12" y="-160.3" font-family="sans" font-size="11.00">arp_input_reply</text>
</g>
<!-- arp_input -->
<g id="node24" class="node">
<title>arp_input</title>
<ellipse fill="none" stroke="black" cx="896.23" cy="-91" rx="30.25" ry="18"/>
<text text-anchor="middle" x="896.23" y="-87.3" font-family="sans" font-size="11.00">arp_input</text>
</g>
<!-- arp_input&#45;&gt;ip_output -->
<g id="edge26" class="edge">
<title>arp_input&#45;&gt;ip_output</title>
<path fill="none" stroke="black" d="M912.66,-106.59C933.47,-127.19 972.15,-164 1008.81,-191 1027.25,-204.58 1049.29,-217.82 1066.99,-227.78"/>
<polygon fill="black" stroke="black" points="1065.07,-230.72 1075.52,-232.52 1068.47,-224.6 1065.07,-230.72"/>
</g>
<!-- arp_input&#45;&gt;arp_output_reply -->
<g id="edge22" class="edge">
<title>arp_input&#45;&gt;arp_output_reply</title>
<path fill="none" stroke="black" d="M926.59,-93.13C949.09,-94.76 980.91,-97.05 1008.81,-99 1082.9,-104.18 1168.07,-109.95 1224.63,-113.76"/>
<polygon fill="black" stroke="black" points="1224.18,-117.24 1234.39,-114.42 1224.65,-110.25 1224.18,-117.24"/>
</g>
<!-- arp_input&#45;&gt;arp_input_proto_unsupported -->
<g id="edge25" class="edge">
<title>arp_input&#45;&gt;arp_input_proto_unsupported</title>
<path fill="none" stroke="black" d="M926.59,-88.24C947.54,-86.27 976.96,-83.5 1005.59,-80.8"/>
<polygon fill="black" stroke="black" points="1005.79,-84.3 1015.42,-79.88 1005.14,-77.33 1005.79,-84.3"/>
</g>
<!-- arp_input&#45;&gt;arp_input_op_unsupported -->
<g id="edge24" class="edge">
<title>arp_input&#45;&gt;arp_input_op_unsupported</title>
<path fill="none" stroke="black" d="M920.9,-80.43C943.31,-70.62 978,-55.92 1008.81,-45 1018,-41.74 1027.8,-38.54 1037.43,-35.54"/>
<polygon fill="black" stroke="black" points="1038.21,-38.96 1046.75,-32.69 1036.16,-32.27 1038.21,-38.96"/>
</g>
<!-- arp_input&#45;&gt;arp_input_reply -->
<g id="edge23" class="edge">
<title>arp_input&#45;&gt;arp_input_reply</title>
<path fill="none" stroke="black" d="M922.46,-100.37C945.05,-108.73 979.11,-121.28 1008.81,-132 1023.27,-137.22 1039.06,-142.84 1053.34,-147.9"/>
<polygon fill="black" stroke="black" points="1051.89,-151.1 1062.49,-151.13 1054.23,-144.5 1051.89,-151.1"/>
</g>
<!-- eth_rx -->
<g id="node27" class="node">
<title>eth_rx</title>
<ellipse fill="none" stroke="blue" stroke-width="2" cx="27" cy="-87" rx="27" ry="18"/>
<text text-anchor="middle" x="27" y="-83.3" font-family="sans" font-size="11.00">eth_rx</text>
</g>
<!-- eth_classify -->
<g id="node28" class="node">
<title>eth_classify</title>
<ellipse fill="none" stroke="black" cx="127.83" cy="-87" rx="37.83" ry="18"/>
<text text-anchor="middle" x="127.83" y="-83.3" font-family="sans" font-size="11.00">eth_classify</text>
</g>
<!-- eth_rx&#45;&gt;eth_classify -->
<g id="edge29" class="edge">
<title>eth_rx&#45;&gt;eth_classify</title>
<path fill="none" stroke="blue" stroke-width="2" d="M54.49,-87C61.87,-87 70.13,-87 78.36,-87"/>
<polygon fill="blue" stroke="blue" stroke-width="2" points="76.84,-90.5 86.84,-87 76.84,-83.5 76.84,-90.5"/>
</g>
<!-- eth_classify&#45;&gt;ip_input -->
<g id="edge31" class="edge">
<title>eth_classify&#45;&gt;ip_input</title>
<path fill="none" stroke="black" d="M148.21,-102.32C177.07,-125.14 231.39,-168.09 263.6,-193.56"/>
<polygon fill="black" stroke="black" points="261.25,-196.16 271.27,-199.62 265.59,-190.67 261.25,-196.16"/>
</g>
<!-- eth_classify&#45;&gt;arp_input -->
<g id="edge32" class="edge">
<title>eth_classify&#45;&gt;arp_input</title>
<path fill="none" stroke="black" d="M166.06,-87.19C294.67,-87.87 719.78,-90.08 854.14,-90.79"/>
<polygon fill="black" stroke="black" points="853.97,-94.28 863.98,-90.84 854,-87.28 853.97,-94.28"/>
</g>
<!-- eth_classify_unknown_ptype -->
<g id="node29" class="node">
<title>eth_classify_unknown_ptype</title>
<ellipse fill="none" stroke="darkorange" cx="290.45" cy="-41" rx="88.79" ry="18"/>
<text text-anchor="middle" x="290.45" y="-37.3" font-family="sans" font-size="11.00">eth_classify_unknown_ptype</text>
</g>
<!-- eth_classify&#45;&gt;eth_classify_unknown_ptype -->
<g id="edge30" class="edge">
<title>eth_classify&#45;&gt;eth_classify_unknown_ptype</title>
<path fill="none" stroke="black" d="M160.95,-77.8C179.75,-72.42 204.15,-65.43 226.63,-58.99"/>
<polygon fill="black" stroke="black" points="227.37,-62.42 236.02,-56.3 225.44,-55.69 227.37,-62.42"/>
</g>
</g>
</svg>
