<?xml version="1.0" encoding="UTF-8" standalone="no"?>
<!DOCTYPE svg PUBLIC "-//W3C//DTD SVG 1.1//EN"
 "http://www.w3.org/Graphics/SVG/1.1/DTD/svg11.dtd">
<!-- Generated by graphviz version 12.1.0 (20240811.2233)
 -->
<!-- Title: gr&#45;0003 Pages: 1 -->
<svg width="1208pt" height="782pt"
 viewBox="0.00 0.00 1207.77 782.00" xmlns="http://www.w3.org/2000/svg" xmlns:xlink="http://www.w3.org/1999/xlink">
<g id="graph0" class="graph" transform="scale(1 1) rotate(0) translate(4 778)">
<title>gr&#45;0003</title>
<polygon fill="white" stroke="none" points="-4,4 -4,-778 1203.77,-778 1203.77,4 -4,4"/>
<!-- control_input -->
<g id="node1" class="node">
<title>control_input</title>
<ellipse fill="none" stroke="blue" stroke-width="2" cx="41.62" cy="-154" rx="41.62" ry="18"/>
<text text-anchor="middle" x="41.62" y="-150.3" font-family="sans" font-size="11.00">control_input</text>
</g>
<!-- loopback_input -->
<g id="node2" class="node">
<title>loopback_input</title>
<ellipse fill="none" stroke="black" cx="166.76" cy="-238" rx="47.52" ry="18"/>
<text text-anchor="middle" x="166.76" y="-234.3" font-family="sans" font-size="11.00">loopback_input</text>
</g>
<!-- control_input&#45;&gt;loopback_input -->
<g id="edge1" class="edge">
<title>control_input&#45;&gt;loopback_input</title>
<path fill="none" stroke="blue" stroke-width="2" d="M64.92,-169.21C84.04,-182.25 111.81,-201.2 133.38,-215.91"/>
<polygon fill="blue" stroke="blue" stroke-width="2" points="130.06,-217.88 140.3,-220.63 134.01,-212.1 130.06,-217.88"/>
</g>
<!-- arp_output_request -->
<g id="node3" class="node">
<title>arp_output_request</title>
<ellipse fill="none" stroke="black" cx="311.7" cy="-18" rx="61.42" ry="18"/>
<text text-anchor="middle" x="311.7" y="-14.3" font-family="sans" font-size="11.00">arp_output_request</text>
</g>
<!-- control_input&#45;&gt;arp_output_request -->
<g id="edge2" class="edge">
<title>control_input&#45;&gt;arp_output_request</title>
<path fill="none" stroke="blue" stroke-width="2" d="M50.54,-135.93C62.01,-112.07 85.61,-70.66 119.25,-50 154.92,-28.09 201.06,-19.91 239.11,-17.29"/>
<polygon fill="blue" stroke="blue" stroke-width="2" points="237.31,-20.9 247.1,-16.84 236.91,-13.91 237.31,-20.9"/>
</g>
<!-- icmp_local_send -->
<g id="node4" class="node">
<title>icmp_local_send</title>
<ellipse fill="none" stroke="black" cx="311.7" cy="-113" rx="51.31" ry="18"/>
<text text-anchor="middle" x="311.7" y="-109.3" font-family="sans" font-size="11.00">icmp_local_send</text>
</g>
<!-- control_input&#45;&gt;icmp_local_send -->
<g id="edge3" class="edge">
<title>control_input&#45;&gt;icmp_local_send</title>
<path fill="none" stroke="blue" stroke-width="2" d="M81.32,-148.08C126.34,-141.2 201.12,-129.76 253.01,-121.82"/>
<polygon fill="blue" stroke="blue" stroke-width="2" points="252.02,-125.52 261.37,-120.54 250.96,-118.6 252.02,-125.52"/>
</g>
<!-- ndp_ns_output -->
<g id="node5" class="node">
<title>ndp_ns_output</title>
<ellipse fill="none" stroke="black" cx="166.76" cy="-177" rx="46.26" ry="18"/>
<text text-anchor="middle" x="166.76" y="-173.3" font-family="sans" font-size="11.00">ndp_ns_output</text>
</g>
<!-- control_input&#45;&gt;ndp_ns_output -->
<g id="edge4" class="edge">
<title>control_input&#45;&gt;ndp_ns_output</title>
<path fill="none" stroke="blue" stroke-width="2" d="M80.24,-161.03C90.74,-162.99 102.35,-165.16 113.53,-167.24"/>
<polygon fill="blue" stroke="blue" stroke-width="2" points="111.07,-170.34 121.54,-168.74 112.36,-163.46 111.07,-170.34"/>
</g>
<!-- ip_output -->
<g id="node6" class="node">
<title>ip_output</title>
<ellipse fill="none" stroke="black" cx="870.38" cy="-164" rx="30.25" ry="18"/>
<text text-anchor="middle" x="870.38" y="-160.3" font-family="sans" font-size="11.00">ip_output</text>
</g>
<!-- control_input&#45;&gt;ip_output -->
<g id="edge5" class="edge">
<title>control_input&#45;&gt;ip_output</title>
<path fill="none" stroke="blue" stroke-width="2" d="M67.56,-139.54C113.86,-114.1 216.93,-64 310.7,-64 310.7,-64 310.7,-64 582.35,-64 667.86,-64 695.08,-49.62 773.81,-83 782,-86.47 818.8,-118.63 844.26,-141.36"/>
<polygon fill="blue" stroke="blue" stroke-width="2" points="840.69,-142.86 850.48,-146.92 845.36,-137.65 840.69,-142.86"/>
</g>
<!-- ip6_output -->
<g id="node7" class="node">
<title>ip6_output</title>
<ellipse fill="none" stroke="black" cx="870.38" cy="-470" rx="34.04" ry="18"/>
<text text-anchor="middle" x="870.38" y="-466.3" font-family="sans" font-size="11.00">ip6_output</text>
</g>
<!-- control_input&#45;&gt;ip6_output -->
<g id="edge6" class="edge">
<title>control_input&#45;&gt;ip6_output</title>
<path fill="none" stroke="blue" stroke-width="2" d="M44.49,-172.36C50.97,-232.18 74.59,-419.68 119.25,-457 304.07,-611.45 419.4,-486.03 660.24,-489 710.71,-489.62 723.58,-493.94 773.81,-489 791.73,-487.24 811.27,-483.65 827.98,-480.07"/>
<polygon fill="blue" stroke="blue" stroke-width="2" points="827.09,-483.86 836.09,-478.27 825.57,-477.02 827.09,-483.86"/>
</g>
<!-- ip_input -->
<g id="node11" class="node">
<title>ip_input</title>
<ellipse fill="none" stroke="black" cx="311.7" cy="-238" rx="27" ry="18"/>
<text text-anchor="middle" x="311.7" y="-234.3" font-family="sans" font-size="11.00">ip_input</text>
</g>
<!-- loopback_input&#45;&gt;ip_input -->
<g id="edge11" class="edge">
<title>loopback_input&#45;&gt;ip_input</title>
<path fill="none" stroke="black" d="M214.57,-238C233.44,-238 254.94,-238 272.81,-238"/>
<polygon fill="black" stroke="black" points="272.73,-241.5 282.73,-238 272.73,-234.5 272.73,-241.5"/>
</g>
<!-- ip6_input -->
<g id="node12" class="node">
<title>ip6_input</title>
<ellipse fill="none" stroke="black" cx="311.7" cy="-430" rx="29.41" ry="18"/>
<text text-anchor="middle" x="311.7" y="-426.3" font-family="sans" font-size="11.00">ip6_input</text>
</g>
<!-- loopback_input&#45;&gt;ip6_input -->
<g id="edge12" class="edge">
<title>loopback_input&#45;&gt;ip6_input</title>
<path fill="none" stroke="black" d="M173.15,-256.26C183.43,-288.45 208.63,-355.89 250.28,-398 257.42,-405.22 266.54,-411.18 275.51,-415.93"/>
<polygon fill="black" stroke="black" points="273.96,-419.07 284.48,-420.28 277.01,-412.77 273.96,-419.07"/>
</g>
<!-- eth_output -->
<g id="node13" class="node">
<title>eth_output</title>
<ellipse fill="none" stroke="black" cx="1019.1" cy="-218" rx="34.89" ry="18"/>
<text text-anchor="middle" x="1019.1" y="-214.3" font-family="sans" font-size="11.00">eth_output</text>
</g>
<!-- arp_output_request&#45;&gt;eth_output -->
<g id="edge21" class="edge">
<title>arp_output_request&#45;&gt;eth_output</title>
<path fill="none" stroke="black" d="M373.29,-19.42C427.53,-20.57 509.25,-22 580.35,-22 580.35,-22 580.35,-22 718.02,-22 751.92,-22 842.92,-55.94 930.95,-137 952.17,-156.54 945.54,-171.67 966.95,-191 971.22,-194.85 976.14,-198.33 981.21,-201.42"/>
<polygon fill="black" stroke="black" points="979.23,-204.32 989.67,-206.11 982.63,-198.2 979.23,-204.32"/>
</g>
<!-- icmp_output -->
<g id="node21" class="node">
<title>icmp_output</title>
<ellipse fill="none" stroke="black" cx="717.02" cy="-110" rx="39.52" ry="18"/>
<text text-anchor="middle" x="717.02" y="-106.3" font-family="sans" font-size="11.00">icmp_output</text>
</g>
<!-- icmp_local_send&#45;&gt;icmp_output -->
<g id="edge24" class="edge">
<title>icmp_local_send&#45;&gt;icmp_output</title>
<path fill="none" stroke="black" d="M363.37,-112.62C440.95,-112.05 588.28,-110.95 665.67,-110.37"/>
<polygon fill="black" stroke="black" points="665.53,-113.88 675.5,-110.3 665.48,-106.88 665.53,-113.88"/>
</g>
<!-- ndp_ns_output&#45;&gt;ip6_output -->
<g id="edge57" class="edge">
<title>ndp_ns_output&#45;&gt;ip6_output</title>
<path fill="none" stroke="black" d="M192.26,-192.46C199.78,-197.82 207.78,-204.21 214.28,-211 234.23,-231.83 229.62,-244.87 250.28,-265 310.03,-323.21 331.76,-333.77 409.11,-365 562.64,-426.98 613.39,-400.03 773.81,-441 792.41,-445.75 812.81,-451.82 829.96,-457.17"/>
<polygon fill="black" stroke="black" points="828.68,-460.44 839.27,-460.11 830.79,-453.77 828.68,-460.44"/>
</g>
<!-- ip_output&#45;&gt;eth_output -->
<g id="edge35" class="edge">
<title>ip_output&#45;&gt;eth_output</title>
<path fill="none" stroke="black" d="M896.6,-173.28C919.33,-181.65 953.09,-194.07 979.26,-203.7"/>
<polygon fill="black" stroke="black" points="977.95,-206.95 988.54,-207.12 980.36,-200.38 977.95,-206.95"/>
</g>
<!-- loopback_output -->
<g id="node15" class="node">
<title>loopback_output</title>
<ellipse fill="none" stroke="black" cx="1019.1" cy="-403" rx="52.15" ry="18"/>
<text text-anchor="middle" x="1019.1" y="-399.3" font-family="sans" font-size="11.00">loopback_output</text>
</g>
<!-- ip_output&#45;&gt;loopback_output -->
<g id="edge37" class="edge">
<title>ip_output&#45;&gt;loopback_output</title>
<path fill="none" stroke="black" d="M881.7,-180.81C906.67,-221.48 970.54,-325.52 1001.19,-375.45"/>
<polygon fill="black" stroke="black" points="998.2,-377.26 1006.41,-383.96 1004.16,-373.6 998.2,-377.26"/>
</g>
<!-- ip_hold -->
<g id="node23" class="node">
<title>ip_hold</title>
<ellipse fill="none" stroke="black" cx="1019.1" cy="-272" rx="27" ry="18"/>
<text text-anchor="middle" x="1019.1" y="-268.3" font-family="sans" font-size="11.00">ip_hold</text>
</g>
<!-- ip_output&#45;&gt;ip_hold -->
<g id="edge36" class="edge">
<title>ip_output&#45;&gt;ip_hold</title>
<path fill="none" stroke="black" d="M887.09,-179.19C905.36,-196.39 936.86,-224.66 966.95,-245 973.01,-249.1 979.77,-253.05 986.33,-256.6"/>
<polygon fill="black" stroke="black" points="984.52,-259.61 995.01,-261.13 987.76,-253.41 984.52,-259.61"/>
</g>
<!-- ipip_output -->
<g id="node27" class="node">
<title>ipip_output</title>
<ellipse fill="none" stroke="black" cx="1019.1" cy="-164" rx="35.73" ry="18"/>
<text text-anchor="middle" x="1019.1" y="-160.3" font-family="sans" font-size="11.00">ipip_output</text>
</g>
<!-- ip_output&#45;&gt;ipip_output -->
<g id="edge38" class="edge">
<title>ip_output&#45;&gt;ipip_output</title>
<path fill="none" stroke="black" d="M899.67,-158.54C920.57,-157.15 949.43,-156.88 973.43,-157.73"/>
<polygon fill="black" stroke="black" points="973.11,-161.22 983.25,-158.17 973.42,-154.23 973.11,-161.22"/>
</g>
<!-- ip6_output&#45;&gt;eth_output -->
<g id="edge51" class="edge">
<title>ip6_output&#45;&gt;eth_output</title>
<path fill="none" stroke="black" d="M889.46,-454.74C902.91,-442.4 920.65,-423.87 930.95,-404 964.31,-339.68 922.88,-302.51 966.95,-245 970.33,-240.6 974.62,-236.84 979.29,-233.65"/>
<polygon fill="black" stroke="black" points="981.02,-236.7 987.9,-228.64 977.5,-230.65 981.02,-236.7"/>
</g>
<!-- ip6_output&#45;&gt;loopback_output -->
<g id="edge53" class="edge">
<title>ip6_output&#45;&gt;loopback_output</title>
<path fill="none" stroke="black" d="M896.94,-458.33C918.8,-448.35 950.7,-433.78 976.28,-422.1"/>
<polygon fill="black" stroke="black" points="977.43,-425.42 985.08,-418.08 974.53,-419.05 977.43,-425.42"/>
</g>
<!-- ip6_hold -->
<g id="node33" class="node">
<title>ip6_hold</title>
<ellipse fill="none" stroke="black" cx="1019.1" cy="-470" rx="27" ry="18"/>
<text text-anchor="middle" x="1019.1" y="-466.3" font-family="sans" font-size="11.00">ip6_hold</text>
</g>
<!-- ip6_output&#45;&gt;ip6_hold -->
<g id="edge52" class="edge">
<title>ip6_output&#45;&gt;ip6_hold</title>
<path fill="none" stroke="black" d="M904.67,-470C927.24,-470 957.11,-470 980.53,-470"/>
<polygon fill="black" stroke="black" points="980.26,-473.5 990.26,-470 980.26,-466.5 980.26,-473.5"/>
</g>
<!-- control_output -->
<g id="node8" class="node">
<title>control_output</title>
<ellipse fill="none" stroke="black" cx="1153.51" cy="-506" rx="46.26" ry="18"/>
<text text-anchor="middle" x="1153.51" y="-502.3" font-family="sans" font-size="11.00">control_output</text>
</g>
<!-- eth_input -->
<g id="node9" class="node">
<title>eth_input</title>
<ellipse fill="none" stroke="black" cx="166.76" cy="-430" rx="30.25" ry="18"/>
<text text-anchor="middle" x="166.76" y="-426.3" font-family="sans" font-size="11.00">eth_input</text>
</g>
<!-- arp_input -->
<g id="node10" class="node">
<title>arp_input</title>
<ellipse fill="none" stroke="black" cx="581.35" cy="-716" rx="30.25" ry="18"/>
<text text-anchor="middle" x="581.35" y="-712.3" font-family="sans" font-size="11.00">arp_input</text>
</g>
<!-- eth_input&#45;&gt;arp_input -->
<g id="edge7" class="edge">
<title>eth_input&#45;&gt;arp_input</title>
<path fill="none" stroke="black" d="M187.39,-443.6C254.19,-489.91 473,-641.59 551.77,-696.19"/>
<polygon fill="black" stroke="black" points="549.63,-698.96 559.85,-701.78 553.62,-693.21 549.63,-698.96"/>
</g>
<!-- eth_input&#45;&gt;ip_input -->
<g id="edge8" class="edge">
<title>eth_input&#45;&gt;ip_input</title>
<path fill="none" stroke="black" d="M179.95,-413.63C204.96,-380.04 262.23,-303.11 291.98,-263.14"/>
<polygon fill="black" stroke="black" points="294.68,-265.38 297.84,-255.27 289.06,-261.2 294.68,-265.38"/>
</g>
<!-- eth_input&#45;&gt;ip6_input -->
<g id="edge9" class="edge">
<title>eth_input&#45;&gt;ip6_input</title>
<path fill="none" stroke="black" d="M197.38,-430C218.65,-430 247.54,-430 270.84,-430"/>
<polygon fill="black" stroke="black" points="270.58,-433.5 280.58,-430 270.58,-426.5 270.58,-433.5"/>
</g>
<!-- arp_input_request -->
<g id="node17" class="node">
<title>arp_input_request</title>
<ellipse fill="none" stroke="black" cx="717.02" cy="-716" rx="56.78" ry="18"/>
<text text-anchor="middle" x="717.02" y="-712.3" font-family="sans" font-size="11.00">arp_input_request</text>
</g>
<!-- arp_input&#45;&gt;arp_input_request -->
<g id="edge15" class="edge">
<title>arp_input&#45;&gt;arp_input_request</title>
<path fill="none" stroke="black" d="M612.02,-716C622.91,-716 635.72,-716 648.57,-716"/>
<polygon fill="black" stroke="black" points="648.3,-719.5 658.3,-716 648.3,-712.5 648.3,-719.5"/>
</g>
<!-- arp_input_reply -->
<g id="node18" class="node">
<title>arp_input_reply</title>
<ellipse fill="none" stroke="black" cx="870.38" cy="-756" rx="48.78" ry="18"/>
<text text-anchor="middle" x="870.38" y="-752.3" font-family="sans" font-size="11.00">arp_input_reply</text>
</g>
<!-- arp_input&#45;&gt;arp_input_reply -->
<g id="edge16" class="edge">
<title>arp_input&#45;&gt;arp_input_reply</title>
<path fill="none" stroke="black" d="M606.78,-726.39C621.89,-732.33 641.86,-739.31 660.24,-743 709.96,-752.97 767.54,-755.94 809.68,-756.57"/>
<polygon fill="black" stroke="black" points="809.59,-760.07 819.63,-756.68 809.66,-753.07 809.59,-760.07"/>
</g>
<!-- ip_input&#45;&gt;ip_output -->
<g id="edge29" class="edge">
<title>ip_input&#45;&gt;ip_output</title>
<path fill="none" stroke="black" d="M338.43,-234.58C427.26,-222.77 721.49,-183.66 829.32,-169.33"/>
<polygon fill="black" stroke="black" points="829.69,-172.81 839.14,-168.02 828.76,-165.87 829.69,-172.81"/>
</g>
<!-- ip_forward -->
<g id="node22" class="node">
<title>ip_forward</title>
<ellipse fill="none" stroke="black" cx="455.79" cy="-154" rx="33.62" ry="18"/>
<text text-anchor="middle" x="455.79" y="-150.3" font-family="sans" font-size="11.00">ip_forward</text>
</g>
<!-- ip_input&#45;&gt;ip_forward -->
<g id="edge28" class="edge">
<title>ip_input&#45;&gt;ip_forward</title>
<path fill="none" stroke="black" d="M332.76,-226.14C356.19,-212.29 395.28,-189.18 422.89,-172.86"/>
<polygon fill="black" stroke="black" points="424.37,-176.05 431.19,-167.95 420.8,-170.03 424.37,-176.05"/>
</g>
<!-- ip_input_local -->
<g id="node24" class="node">
<title>ip_input_local</title>
<ellipse fill="none" stroke="black" cx="455.79" cy="-284" rx="42.89" ry="18"/>
<text text-anchor="middle" x="455.79" y="-280.3" font-family="sans" font-size="11.00">ip_input_local</text>
</g>
<!-- ip_input&#45;&gt;ip_input_local -->
<g id="edge30" class="edge">
<title>ip_input&#45;&gt;ip_input_local</title>
<path fill="none" stroke="black" d="M336.48,-245.7C356.56,-252.2 385.84,-261.68 410.25,-269.58"/>
<polygon fill="black" stroke="black" points="409.05,-272.87 419.64,-272.62 411.2,-266.21 409.05,-272.87"/>
</g>
<!-- ip6_input&#45;&gt;ip6_output -->
<g id="edge46" class="edge">
<title>ip6_input&#45;&gt;ip6_output</title>
<path fill="none" stroke="black" d="M337.7,-438.82C356.95,-445.17 384.37,-453.24 409.11,-457 560.15,-479.93 742.17,-475.87 824.76,-472.34"/>
<polygon fill="black" stroke="black" points="824.86,-475.84 834.69,-471.89 824.55,-468.84 824.86,-475.84"/>
</g>
<!-- ip6_forward -->
<g id="node32" class="node">
<title>ip6_forward</title>
<ellipse fill="none" stroke="black" cx="455.79" cy="-430" rx="37.41" ry="18"/>
<text text-anchor="middle" x="455.79" y="-426.3" font-family="sans" font-size="11.00">ip6_forward</text>
</g>
<!-- ip6_input&#45;&gt;ip6_forward -->
<g id="edge45" class="edge">
<title>ip6_input&#45;&gt;ip6_forward</title>
<path fill="none" stroke="black" d="M341.45,-430C360.15,-430 384.99,-430 406.65,-430"/>
<polygon fill="black" stroke="black" points="406.45,-433.5 416.45,-430 406.45,-426.5 406.45,-433.5"/>
</g>
<!-- ip6_input_local -->
<g id="node34" class="node">
<title>ip6_input_local</title>
<ellipse fill="none" stroke="black" cx="455.79" cy="-338" rx="46.68" ry="18"/>
<text text-anchor="middle" x="455.79" y="-334.3" font-family="sans" font-size="11.00">ip6_input_local</text>
</g>
<!-- ip6_input&#45;&gt;ip6_input_local -->
<g id="edge47" class="edge">
<title>ip6_input&#45;&gt;ip6_input_local</title>
<path fill="none" stroke="black" d="M332.76,-417.01C355.78,-402.1 393.92,-377.41 421.44,-359.6"/>
<polygon fill="black" stroke="black" points="423.28,-362.57 429.78,-354.2 419.48,-356.69 423.28,-362.57"/>
</g>
<!-- port_tx -->
<g id="node14" class="node">
<title>port_tx</title>
<ellipse fill="none" stroke="black" cx="1153.51" cy="-218" rx="27" ry="18"/>
<text text-anchor="middle" x="1153.51" y="-214.3" font-family="sans" font-size="11.00">port_tx</text>
</g>
<!-- eth_output&#45;&gt;port_tx -->
<g id="edge10" class="edge">
<title>eth_output&#45;&gt;port_tx</title>
<path fill="none" stroke="black" d="M1054.2,-218C1072.73,-218 1095.69,-218 1114.75,-218"/>
<polygon fill="black" stroke="black" points="1114.54,-221.5 1124.54,-218 1114.54,-214.5 1114.54,-221.5"/>
</g>
<!-- loopback_output&#45;&gt;control_output -->
<g id="edge13" class="edge">
<title>loopback_output&#45;&gt;control_output</title>
<path fill="none" stroke="black" d="M1041.38,-419.55C1063.42,-436.69 1098.03,-463.62 1122.78,-482.87"/>
<polygon fill="black" stroke="black" points="1120.49,-485.53 1130.53,-488.9 1124.79,-480 1120.49,-485.53"/>
</g>
<!-- port_rx -->
<g id="node16" class="node">
<title>port_rx</title>
<ellipse fill="none" stroke="blue" stroke-width="2" cx="41.62" cy="-430" rx="27" ry="18"/>
<text text-anchor="middle" x="41.62" y="-426.3" font-family="sans" font-size="11.00">port_rx</text>
</g>
<!-- port_rx&#45;&gt;eth_input -->
<g id="edge14" class="edge">
<title>port_rx&#45;&gt;eth_input</title>
<path fill="none" stroke="blue" stroke-width="2" d="M69.04,-430C85.35,-430 106.61,-430 125.04,-430"/>
<polygon fill="blue" stroke="blue" stroke-width="2" points="123.34,-433.5 133.34,-430 123.34,-426.5 123.34,-433.5"/>
</g>
<!-- arp_input_request&#45;&gt;control_output -->
<g id="edge18" class="edge">
<title>arp_input_request&#45;&gt;control_output</title>
<path fill="none" stroke="black" d="M770.07,-709.25C843.13,-697.69 977.63,-668.54 1071.26,-602 1097.53,-583.33 1120.52,-554.27 1135.28,-533.01"/>
<polygon fill="black" stroke="black" points="1138.11,-535.07 1140.8,-524.82 1132.31,-531.15 1138.11,-535.07"/>
</g>
<!-- arp_output_reply -->
<g id="node19" class="node">
<title>arp_output_reply</title>
<ellipse fill="none" stroke="black" cx="870.38" cy="-602" rx="53.41" ry="18"/>
<text text-anchor="middle" x="870.38" y="-598.3" font-family="sans" font-size="11.00">arp_output_reply</text>
</g>
<!-- arp_input_request&#45;&gt;arp_output_reply -->
<g id="edge19" class="edge">
<title>arp_input_request&#45;&gt;arp_output_reply</title>
<path fill="none" stroke="black" d="M751.93,-701.52C759.37,-697.82 767.03,-693.58 773.81,-689 800.4,-671.01 827.12,-645.96 845.52,-627.35"/>
<polygon fill="black" stroke="black" points="847.84,-629.99 852.31,-620.39 842.82,-625.11 847.84,-629.99"/>
</g>
<!-- arp_input_reply&#45;&gt;control_output -->
<g id="edge17" class="edge">
<title>arp_input_reply&#45;&gt;control_output</title>
<path fill="none" stroke="black" d="M918.85,-759.31C963.17,-759.8 1028.71,-753.57 1071.26,-718 1126.91,-671.47 1144.54,-582.26 1150.05,-535.8"/>
<polygon fill="black" stroke="black" points="1153.53,-536.24 1151.1,-525.93 1146.56,-535.5 1153.53,-536.24"/>
</g>
<!-- arp_output_reply&#45;&gt;eth_output -->
<g id="edge20" class="edge">
<title>arp_output_reply&#45;&gt;eth_output</title>
<path fill="none" stroke="black" d="M884.12,-584.4C898,-564.3 919.71,-529.93 930.95,-497 967.51,-389.93 901.82,-337.5 966.95,-245 970.27,-240.3 974.66,-236.35 979.48,-233.05"/>
<polygon fill="black" stroke="black" points="980.89,-236.27 987.8,-228.24 977.39,-230.21 980.89,-236.27"/>
</g>
<!-- icmp_input -->
<g id="node20" class="node">
<title>icmp_input</title>
<ellipse fill="none" stroke="black" cx="581.35" cy="-294" rx="34.89" ry="18"/>
<text text-anchor="middle" x="581.35" y="-290.3" font-family="sans" font-size="11.00">icmp_input</text>
</g>
<!-- icmp_input&#45;&gt;control_output -->
<g id="edge23" class="edge">
<title>icmp_input&#45;&gt;control_output</title>
<path fill="none" stroke="black" d="M616.09,-290.6C700.74,-283.82 925.77,-276.96 1071.26,-376 1107.35,-400.57 1130.55,-447.03 1142.56,-477.24"/>
<polygon fill="black" stroke="black" points="1139.26,-478.42 1146.08,-486.53 1145.81,-475.94 1139.26,-478.42"/>
</g>
<!-- icmp_input&#45;&gt;icmp_output -->
<g id="edge22" class="edge">
<title>icmp_input&#45;&gt;icmp_output</title>
<path fill="none" stroke="black" d="M606.43,-281.2C612.68,-277.19 619.09,-272.37 624.24,-267 661.32,-228.27 689.59,-171.85 704.42,-138.24"/>
<polygon fill="black" stroke="black" points="707.59,-139.73 708.33,-129.17 701.16,-136.96 707.59,-139.73"/>
</g>
<!-- icmp_output&#45;&gt;ip_output -->
<g id="edge25" class="edge">
<title>icmp_output&#45;&gt;ip_output</title>
<path fill="none" stroke="black" d="M749.02,-121.06C773.43,-129.77 807.5,-141.92 833.16,-151.08"/>
<polygon fill="black" stroke="black" points="831.93,-154.35 842.52,-154.42 834.28,-147.76 831.93,-154.35"/>
</g>
<!-- ip_forward&#45;&gt;ip_output -->
<g id="edge26" class="edge">
<title>ip_forward&#45;&gt;ip_output</title>
<path fill="none" stroke="black" d="M489.86,-154.8C564.67,-156.61 746.77,-161.03 828.5,-163.01"/>
<polygon fill="black" stroke="black" points="828.21,-166.5 838.29,-163.25 828.38,-159.51 828.21,-166.5"/>
</g>
<!-- ip_hold&#45;&gt;control_output -->
<g id="edge27" class="edge">
<title>ip_hold&#45;&gt;control_output</title>
<path fill="none" stroke="black" d="M1042.27,-281.88C1052.22,-287.24 1063.45,-294.68 1071.26,-304 1114.86,-356.08 1137.28,-434.57 1146.78,-476.73"/>
<polygon fill="black" stroke="black" points="1143.33,-477.33 1148.85,-486.38 1150.17,-475.86 1143.33,-477.33"/>
</g>
<!-- ip_input_local&#45;&gt;icmp_input -->
<g id="edge31" class="edge">
<title>ip_input_local&#45;&gt;icmp_input</title>
<path fill="none" stroke="black" d="M498.28,-287.36C510.18,-288.32 523.21,-289.38 535.32,-290.36"/>
<polygon fill="black" stroke="black" points="534.81,-293.83 545.06,-291.14 535.38,-286.85 534.81,-293.83"/>
</g>
<!-- ipip_input -->
<g id="node25" class="node">
<title>ipip_input</title>
<ellipse fill="none" stroke="black" cx="581.35" cy="-240" rx="31.1" ry="18"/>
<text text-anchor="middle" x="581.35" y="-236.3" font-family="sans" font-size="11.00">ipip_input</text>
</g>
<!-- ip_input_local&#45;&gt;ipip_input -->
<g id="edge32" class="edge">
<title>ip_input_local&#45;&gt;ipip_input</title>
<path fill="none" stroke="black" d="M489.26,-272.44C505.91,-266.51 526.27,-259.26 543.52,-253.12"/>
<polygon fill="black" stroke="black" points="544.66,-256.43 552.9,-249.78 542.31,-249.83 544.66,-256.43"/>
</g>
<!-- l4_input_local -->
<g id="node26" class="node">
<title>l4_input_local</title>
<ellipse fill="none" stroke="black" cx="581.35" cy="-348" rx="42.89" ry="18"/>
<text text-anchor="middle" x="581.35" y="-344.3" font-family="sans" font-size="11.00">l4_input_local</text>
</g>
<!-- ip_input_local&#45;&gt;l4_input_local -->
<g id="edge33" class="edge">
<title>ip_input_local&#45;&gt;l4_input_local</title>
<path fill="none" stroke="black" d="M490.23,-295.25C508.84,-303.93 531.82,-315.89 549.93,-326.33"/>
<polygon fill="black" stroke="black" points="547.99,-329.25 558.38,-331.33 551.56,-323.23 547.99,-329.25"/>
</g>
<!-- ip_input_local&#45;&gt;l4_input_local -->
<g id="edge34" class="edge">
<title>ip_input_local&#45;&gt;l4_input_local</title>
<path fill="none" stroke="black" d="M477.47,-299.9C493.62,-309.74 516.62,-322.08 536.78,-331.91"/>
<polygon fill="black" stroke="black" points="535.12,-335 545.65,-336.15 538.13,-328.68 535.12,-335"/>
</g>
<!-- ipip_input&#45;&gt;ip_input -->
<g id="edge58" class="edge">
<title>ipip_input&#45;&gt;ip_input</title>
<path fill="none" stroke="black" d="M550.02,-239.77C500.8,-239.41 403.67,-238.68 350.19,-238.28"/>
<polygon fill="black" stroke="black" points="350.39,-234.78 340.36,-238.21 350.34,-241.78 350.39,-234.78"/>
</g>
<!-- l4_loopback_output -->
<g id="node35" class="node">
<title>l4_loopback_output</title>
<ellipse fill="none" stroke="black" cx="870.38" cy="-377" rx="60.57" ry="18"/>
<text text-anchor="middle" x="870.38" y="-373.3" font-family="sans" font-size="11.00">l4_loopback_output</text>
</g>
<!-- l4_input_local&#45;&gt;l4_loopback_output -->
<g id="edge60" class="edge">
<title>l4_input_local&#45;&gt;l4_loopback_output</title>
<path fill="none" stroke="black" d="M623.48,-352.15C669.88,-356.84 746.09,-364.54 801.39,-370.13"/>
<polygon fill="black" stroke="black" points="800.69,-373.58 811,-371.1 801.4,-366.61 800.69,-373.58"/>
</g>
<!-- ipip_output&#45;&gt;ip_output -->
<g id="edge59" class="edge">
<title>ipip_output&#45;&gt;ip_output</title>
<path fill="none" stroke="black" d="M984.76,-169.76C962.9,-170.96 934.2,-171.07 911.15,-170.08"/>
<polygon fill="black" stroke="black" points="911.36,-166.58 901.18,-169.54 910.98,-173.57 911.36,-166.58"/>
</g>
<!-- icmp6_input -->
<g id="node28" class="node">
<title>icmp6_input</title>
<ellipse fill="none" stroke="black" cx="581.35" cy="-593" rx="38.68" ry="18"/>
<text text-anchor="middle" x="581.35" y="-589.3" font-family="sans" font-size="11.00">icmp6_input</text>
</g>
<!-- icmp6_output -->
<g id="node29" class="node">
<title>icmp6_output</title>
<ellipse fill="none" stroke="black" cx="717.02" cy="-554" rx="43.31" ry="18"/>
<text text-anchor="middle" x="717.02" y="-550.3" font-family="sans" font-size="11.00">icmp6_output</text>
</g>
<!-- icmp6_input&#45;&gt;icmp6_output -->
<g id="edge39" class="edge">
<title>icmp6_input&#45;&gt;icmp6_output</title>
<path fill="none" stroke="black" d="M614.71,-583.56C631.22,-578.74 651.59,-572.8 669.73,-567.51"/>
<polygon fill="black" stroke="black" points="670.61,-570.9 679.23,-564.74 668.65,-564.18 670.61,-570.9"/>
</g>
<!-- ndp_ns_input -->
<g id="node30" class="node">
<title>ndp_ns_input</title>
<ellipse fill="none" stroke="black" cx="717.02" cy="-608" rx="41.62" ry="18"/>
<text text-anchor="middle" x="717.02" y="-604.3" font-family="sans" font-size="11.00">ndp_ns_input</text>
</g>
<!-- icmp6_input&#45;&gt;ndp_ns_input -->
<g id="edge40" class="edge">
<title>icmp6_input&#45;&gt;ndp_ns_input</title>
<path fill="none" stroke="black" d="M619.23,-597.14C633.4,-598.73 649.82,-600.57 665.08,-602.28"/>
<polygon fill="black" stroke="black" points="664.62,-605.75 674.95,-603.39 665.41,-598.8 664.62,-605.75"/>
</g>
<!-- ndp_na_input -->
<g id="node31" class="node">
<title>ndp_na_input</title>
<ellipse fill="none" stroke="black" cx="717.02" cy="-662" rx="42.04" ry="18"/>
<text text-anchor="middle" x="717.02" y="-658.3" font-family="sans" font-size="11.00">ndp_na_input</text>
</g>
<!-- icmp6_input&#45;&gt;ndp_na_input -->
<g id="edge41" class="edge">
<title>icmp6_input&#45;&gt;ndp_na_input</title>
<path fill="none" stroke="black" d="M607.11,-606.71C622.35,-615.05 642.32,-625.84 660.24,-635 665.81,-637.85 671.72,-640.79 677.54,-643.65"/>
<polygon fill="black" stroke="black" points="675.93,-646.75 686.45,-647.98 678.99,-640.46 675.93,-646.75"/>
</g>
<!-- icmp6_output&#45;&gt;ip6_output -->
<g id="edge42" class="edge">
<title>icmp6_output&#45;&gt;ip6_output</title>
<path fill="none" stroke="black" d="M744.04,-539.56C769.52,-525.42 808.46,-503.81 836.16,-488.44"/>
<polygon fill="black" stroke="black" points="837.81,-491.52 844.86,-483.61 834.41,-485.4 837.81,-491.52"/>
</g>
<!-- ndp_ns_input&#45;&gt;ip6_output -->
<g id="edge55" class="edge">
<title>ndp_ns_input&#45;&gt;ip6_output</title>
<path fill="none" stroke="black" d="M749.27,-596.33C757.78,-592.27 766.61,-587.16 773.81,-581 795.16,-562.72 791.74,-550.54 809.81,-529 820.21,-516.59 832.83,-503.82 843.76,-493.35"/>
<polygon fill="black" stroke="black" points="846.12,-495.94 851,-486.54 841.32,-490.85 846.12,-495.94"/>
</g>
<!-- ndp_ns_input&#45;&gt;control_output -->
<g id="edge56" class="edge">
<title>ndp_ns_input&#45;&gt;control_output</title>
<path fill="none" stroke="black" d="M748.26,-595.87C765.98,-589.07 788.93,-580.82 809.81,-575 910.39,-546.96 1030.56,-525.44 1098.57,-514.35"/>
<polygon fill="black" stroke="black" points="1099.02,-517.82 1108.34,-512.77 1097.91,-510.91 1099.02,-517.82"/>
</g>
<!-- ndp_na_input&#45;&gt;control_output -->
<g id="edge54" class="edge">
<title>ndp_na_input&#45;&gt;control_output</title>
<path fill="none" stroke="black" d="M759.07,-659.93C802.72,-656.75 873.27,-648.77 930.95,-629 1003.19,-604.23 1079.33,-556.5 1120.87,-528.34"/>
<polygon fill="black" stroke="black" points="1122.65,-531.36 1128.92,-522.82 1118.7,-525.58 1122.65,-531.36"/>
</g>
<!-- ip6_forward&#45;&gt;ip6_output -->
<g id="edge43" class="edge">
<title>ip6_forward&#45;&gt;ip6_output</title>
<path fill="none" stroke="black" d="M493,-432.22C551.95,-436 672.3,-444.42 773.81,-456 791.13,-457.98 810.16,-460.66 826.64,-463.15"/>
<polygon fill="black" stroke="black" points="825.68,-466.54 836.09,-464.6 826.74,-459.62 825.68,-466.54"/>
</g>
<!-- ip6_hold&#45;&gt;control_output -->
<g id="edge44" class="edge">
<title>ip6_hold&#45;&gt;control_output</title>
<path fill="none" stroke="black" d="M1044.7,-476.69C1061.29,-481.2 1083.76,-487.31 1103.88,-492.78"/>
<polygon fill="black" stroke="black" points="1102.74,-496.1 1113.31,-495.34 1104.58,-489.34 1102.74,-496.1"/>
</g>
<!-- ip6_input_local&#45;&gt;l4_input_local -->
<g id="edge49" class="edge">
<title>ip6_input_local&#45;&gt;l4_input_local</title>
<path fill="none" stroke="black" d="M502.1,-335.13C512,-335.67 522.51,-336.5 532.51,-337.53"/>
<polygon fill="black" stroke="black" points="532.1,-341.01 542.44,-338.66 532.9,-334.05 532.1,-341.01"/>
</g>
<!-- ip6_input_local&#45;&gt;l4_input_local -->
<g id="edge50" class="edge">
<title>ip6_input_local&#45;&gt;l4_input_local</title>
<path fill="none" stroke="black" d="M495.89,-347.49C505.96,-348.7 516.97,-349.71 527.61,-350.42"/>
<polygon fill="black" stroke="black" points="527.26,-353.9 537.44,-350.98 527.66,-346.91 527.26,-353.9"/>
</g>
<!-- ip6_input_local&#45;&gt;icmp6_input -->
<g id="edge48" class="edge">
<title>ip6_input_local&#45;&gt;icmp6_input</title>
<path fill="none" stroke="black" d="M470.72,-355.51C480.41,-368.21 493.2,-386.06 502.47,-403 532.33,-457.56 557.66,-525.99 570.77,-564.05"/>
<polygon fill="black" stroke="black" points="567.42,-565.07 573.95,-573.41 574.04,-562.81 567.42,-565.07"/>
</g>
<!-- l4_loopback_output&#45;&gt;loopback_output -->
<g id="edge61" class="edge">
<title>l4_loopback_output&#45;&gt;loopback_output</title>
<path fill="none" stroke="black" d="M923.11,-386.17C935.36,-388.34 948.5,-390.67 960.98,-392.88"/>
<polygon fill="black" stroke="black" points="960.27,-396.31 970.72,-394.6 961.49,-389.41 960.27,-396.31"/>
</g>
</g>
</svg>
