<?xml version="1.0" encoding="UTF-8" standalone="no"?>
<!DOCTYPE svg PUBLIC "-//W3C//DTD SVG 1.1//EN"
 "http://www.w3.org/Graphics/SVG/1.1/DTD/svg11.dtd">
<!-- Generated by graphviz version 2.44.0 (0)
 -->
<!-- Title: grout Pages: 1 -->
<svg width="2575pt" height="1086pt"
 viewBox="0.00 0.00 2574.79 1085.73" xmlns="http://www.w3.org/2000/svg" xmlns:xlink="http://www.w3.org/1999/xlink">
<g id="graph0" class="graph" transform="scale(1 1) rotate(0) translate(4 1081.73)">
<title>grout</title>
<polygon fill="white" stroke="transparent" points="-4,4 -4,-1081.73 2570.79,-1081.73 2570.79,4 -4,4"/>
<!-- control_input -->
<g id="node1" class="node">
<title>control_input</title>
<ellipse fill="none" stroke="blue" stroke-width="2" cx="40.16" cy="-668.73" rx="40.32" ry="18"/>
<text text-anchor="middle" x="40.16" y="-665.93" font-family="sans" font-size="11.00">control_input</text>
</g>
<!-- loopback_input -->
<g id="node2" class="node">
<title>loopback_input</title>
<ellipse fill="none" stroke="black" cx="161.91" cy="-668.73" rx="45.68" ry="18"/>
<text text-anchor="middle" x="161.91" y="-665.93" font-family="sans" font-size="11.00">loopback_input</text>
</g>
<!-- control_input&#45;&gt;loopback_input -->
<g id="edge1" class="edge">
<title>control_input&#45;&gt;loopback_input</title>
<path fill="none" stroke="blue" stroke-width="2" d="M80.37,-668.73C88.61,-668.73 97.44,-668.73 106.13,-668.73"/>
<polygon fill="blue" stroke="blue" stroke-width="2" points="106.21,-672.23 116.21,-668.73 106.21,-665.23 106.21,-672.23"/>
</g>
<!-- arp_output_request -->
<g id="node3" class="node">
<title>arp_output_request</title>
<ellipse fill="none" stroke="black" cx="441.77" cy="-1047.73" rx="59.31" ry="18"/>
<text text-anchor="middle" x="441.77" y="-1044.93" font-family="sans" font-size="11.00">arp_output_request</text>
</g>
<!-- control_input&#45;&gt;arp_output_request -->
<g id="edge2" class="edge">
<title>control_input&#45;&gt;arp_output_request</title>
<path fill="none" stroke="blue" stroke-width="2" d="M43.24,-686.77C50.35,-745.56 75.59,-930.26 116.32,-971.73 183.59,-1040.23 299.98,-1051.86 373.54,-1051.56"/>
<polygon fill="blue" stroke="blue" stroke-width="2" points="373.67,-1055.06 383.63,-1051.45 373.59,-1048.06 373.67,-1055.06"/>
</g>
<!-- icmp_local_send -->
<g id="node4" class="node">
<title>icmp_local_send</title>
<ellipse fill="none" stroke="black" cx="441.77" cy="-879.73" rx="49.28" ry="18"/>
<text text-anchor="middle" x="441.77" y="-876.93" font-family="sans" font-size="11.00">icmp_local_send</text>
</g>
<!-- control_input&#45;&gt;icmp_local_send -->
<g id="edge3" class="edge">
<title>control_input&#45;&gt;icmp_local_send</title>
<path fill="none" stroke="blue" stroke-width="2" d="M45.77,-686.56C54.39,-716.15 75.83,-775.17 116.32,-805.73 194.61,-864.83 311.77,-878.09 381.8,-880.32"/>
<polygon fill="blue" stroke="blue" stroke-width="2" points="382.12,-883.82 392.2,-880.58 382.29,-876.83 382.12,-883.82"/>
</g>
<!-- icmp6_local_send -->
<g id="node5" class="node">
<title>icmp6_local_send</title>
<ellipse fill="none" stroke="black" cx="1011.81" cy="-258.73" rx="53.37" ry="18"/>
<text text-anchor="middle" x="1011.81" y="-255.93" font-family="sans" font-size="11.00">icmp6_local_send</text>
</g>
<!-- control_input&#45;&gt;icmp6_local_send -->
<g id="edge4" class="edge">
<title>control_input&#45;&gt;icmp6_local_send</title>
<path fill="none" stroke="blue" stroke-width="2" d="M42.11,-650.56C46.08,-582.26 63.61,-342.35 116.32,-291.73 174,-236.34 214.09,-263.73 294.06,-263.73 294.06,-263.73 294.06,-263.73 716.12,-263.73 796.42,-263.73 889,-261.85 948.64,-260.4"/>
<polygon fill="blue" stroke="blue" stroke-width="2" points="948.74,-263.9 958.65,-260.15 948.56,-256.9 948.74,-263.9"/>
</g>
<!-- ndp_ns_output -->
<g id="node6" class="node">
<title>ndp_ns_output</title>
<ellipse fill="none" stroke="black" cx="1145.5" cy="-299.73" rx="44.51" ry="18"/>
<text text-anchor="middle" x="1145.5" y="-296.93" font-family="sans" font-size="11.00">ndp_ns_output</text>
</g>
<!-- control_input&#45;&gt;ndp_ns_output -->
<g id="edge5" class="edge">
<title>control_input&#45;&gt;ndp_ns_output</title>
<path fill="none" stroke="blue" stroke-width="2" d="M44.43,-650.73C58.88,-577.49 123.93,-305.73 294.06,-305.73 294.06,-305.73 294.06,-305.73 858.5,-305.73 939.38,-305.73 1033.1,-303.3 1090.59,-301.54"/>
<polygon fill="blue" stroke="blue" stroke-width="2" points="1091.01,-305.03 1100.9,-301.22 1090.79,-298.03 1091.01,-305.03"/>
</g>
<!-- ip6_output -->
<g id="node7" class="node">
<title>ip6_output</title>
<ellipse fill="none" stroke="black" cx="2124.2" cy="-539.73" rx="32.63" ry="18"/>
<text text-anchor="middle" x="2124.2" y="-536.93" font-family="sans" font-size="11.00">ip6_output</text>
</g>
<!-- control_input&#45;&gt;ip6_output -->
<g id="edge6" class="edge">
<title>control_input&#45;&gt;ip6_output</title>
<path fill="none" stroke="blue" stroke-width="2" d="M41.55,-650.49C43.56,-573.17 55.23,-273.37 116.32,-206.73 171.39,-146.67 212.57,-161.73 294.06,-161.73 294.06,-161.73 294.06,-161.73 1293.76,-161.73 1376.73,-161.73 1974.03,-173.55 2037.73,-226.73 2081.95,-263.66 2110.07,-441.42 2119.59,-511.37"/>
<polygon fill="blue" stroke="blue" stroke-width="2" points="2116.17,-512.18 2120.96,-521.63 2123.11,-511.26 2116.17,-512.18"/>
</g>
<!-- ndp_na_output -->
<g id="node8" class="node">
<title>ndp_na_output</title>
<ellipse fill="none" stroke="black" cx="1440.56" cy="-207.73" rx="45.09" ry="18"/>
<text text-anchor="middle" x="1440.56" y="-204.93" font-family="sans" font-size="11.00">ndp_na_output</text>
</g>
<!-- control_input&#45;&gt;ndp_na_output -->
<g id="edge7" class="edge">
<title>control_input&#45;&gt;ndp_na_output</title>
<path fill="none" stroke="blue" stroke-width="2" d="M41.89,-650.38C45.15,-577.86 60.77,-312.3 116.32,-253.73 172.18,-194.84 212.89,-211.73 294.06,-211.73 294.06,-211.73 294.06,-211.73 1146.5,-211.73 1229.78,-211.73 1326.36,-210.1 1385.19,-208.92"/>
<polygon fill="blue" stroke="blue" stroke-width="2" points="1385.45,-212.41 1395.37,-208.71 1385.3,-205.41 1385.45,-212.41"/>
</g>
<!-- ip_output -->
<g id="node9" class="node">
<title>ip_output</title>
<ellipse fill="none" stroke="black" cx="1145.5" cy="-723.73" rx="29.12" ry="18"/>
<text text-anchor="middle" x="1145.5" y="-720.93" font-family="sans" font-size="11.00">ip_output</text>
</g>
<!-- control_input&#45;&gt;ip_output -->
<g id="edge8" class="edge">
<title>control_input&#45;&gt;ip_output</title>
<path fill="none" stroke="blue" stroke-width="2" d="M44.59,-686.76C51.96,-721.06 72.35,-796.34 116.32,-841.73 177.12,-904.48 206.69,-925.73 294.06,-925.73 294.06,-925.73 294.06,-925.73 716.12,-925.73 882.7,-925.73 925.11,-879.18 1065,-788.73 1084.83,-775.91 1105.42,-758.95 1120.68,-745.57"/>
<polygon fill="blue" stroke="blue" stroke-width="2" points="1123.42,-747.82 1128.57,-738.56 1118.77,-742.59 1123.42,-747.82"/>
</g>
<!-- arp_output_reply -->
<g id="node10" class="node">
<title>arp_output_reply</title>
<ellipse fill="none" stroke="black" cx="295.06" cy="-978.73" rx="51.62" ry="18"/>
<text text-anchor="middle" x="295.06" y="-975.93" font-family="sans" font-size="11.00">arp_output_reply</text>
</g>
<!-- control_input&#45;&gt;arp_output_reply -->
<g id="edge9" class="edge">
<title>control_input&#45;&gt;arp_output_reply</title>
<path fill="none" stroke="blue" stroke-width="2" d="M43.73,-686.84C51.86,-741.65 78.74,-904.15 116.32,-939.73 147.38,-969.14 195.31,-978.35 233.57,-980.5"/>
<polygon fill="blue" stroke="blue" stroke-width="2" points="233.44,-984 243.57,-980.92 233.73,-977.01 233.44,-984"/>
</g>
<!-- eth_input -->
<g id="node12" class="node">
<title>eth_input</title>
<ellipse fill="none" stroke="black" cx="295.06" cy="-668.73" rx="29.12" ry="18"/>
<text text-anchor="middle" x="295.06" y="-665.93" font-family="sans" font-size="11.00">eth_input</text>
</g>
<!-- loopback_input&#45;&gt;eth_input -->
<g id="edge15" class="edge">
<title>loopback_input&#45;&gt;eth_input</title>
<path fill="none" stroke="black" d="M207.68,-668.73C223.08,-668.73 240.2,-668.73 255.1,-668.73"/>
<polygon fill="black" stroke="black" points="255.51,-672.23 265.51,-668.73 255.51,-665.23 255.51,-672.23"/>
</g>
<!-- eth_output -->
<g id="node16" class="node">
<title>eth_output</title>
<ellipse fill="none" stroke="black" cx="2281.23" cy="-1001.73" rx="33.8" ry="18"/>
<text text-anchor="middle" x="2281.23" y="-998.93" font-family="sans" font-size="11.00">eth_output</text>
</g>
<!-- arp_output_request&#45;&gt;eth_output -->
<g id="edge27" class="edge">
<title>arp_output_request&#45;&gt;eth_output</title>
<path fill="none" stroke="black" d="M500.46,-1045.05C555.38,-1042.72 640.36,-1039.73 714.12,-1039.73 714.12,-1039.73 714.12,-1039.73 1980.11,-1039.73 2073.56,-1039.73 2182.08,-1021.38 2239.59,-1010.18"/>
<polygon fill="black" stroke="black" points="2240.58,-1013.55 2249.71,-1008.18 2239.23,-1006.68 2240.58,-1013.55"/>
</g>
<!-- icmp_output -->
<g id="node26" class="node">
<title>icmp_output</title>
<ellipse fill="none" stroke="black" cx="1011.81" cy="-761.73" rx="37.98" ry="18"/>
<text text-anchor="middle" x="1011.81" y="-758.93" font-family="sans" font-size="11.00">icmp_output</text>
</g>
<!-- icmp_local_send&#45;&gt;icmp_output -->
<g id="edge30" class="edge">
<title>icmp_local_send&#45;&gt;icmp_output</title>
<path fill="none" stroke="black" d="M489.73,-884.05C578.81,-890.24 776.5,-894.22 922.62,-825.73 942.01,-816.65 941.43,-806.49 958.62,-793.73 964.67,-789.25 971.36,-784.8 977.88,-780.7"/>
<polygon fill="black" stroke="black" points="979.89,-783.58 986.59,-775.37 976.23,-777.61 979.89,-783.58"/>
</g>
<!-- icmp6_output -->
<g id="node39" class="node">
<title>icmp6_output</title>
<ellipse fill="none" stroke="black" cx="1979.11" cy="-253.73" rx="41.58" ry="18"/>
<text text-anchor="middle" x="1979.11" y="-250.93" font-family="sans" font-size="11.00">icmp6_output</text>
</g>
<!-- icmp6_local_send&#45;&gt;icmp6_output -->
<g id="edge56" class="edge">
<title>icmp6_local_send&#45;&gt;icmp6_output</title>
<path fill="none" stroke="black" d="M1064.99,-257.24C1121.02,-255.77 1212.68,-253.73 1291.76,-253.73 1291.76,-253.73 1291.76,-253.73 1698.62,-253.73 1778.33,-253.73 1870.83,-253.73 1926.88,-253.73"/>
<polygon fill="black" stroke="black" points="1926.91,-257.23 1936.91,-253.73 1926.91,-250.23 1926.91,-257.23"/>
</g>
<!-- ndp_ns_output&#45;&gt;icmp6_output -->
<g id="edge75" class="edge">
<title>ndp_ns_output&#45;&gt;icmp6_output</title>
<path fill="none" stroke="black" d="M1190.28,-299.44C1304.67,-298.32 1621.85,-293 1884.5,-267.73 1899.24,-266.31 1915.21,-264.16 1929.71,-261.96"/>
<polygon fill="black" stroke="black" points="1930.62,-265.36 1939.97,-260.37 1929.55,-258.45 1930.62,-265.36"/>
</g>
<!-- ip6_output&#45;&gt;eth_output -->
<g id="edge67" class="edge">
<title>ip6_output&#45;&gt;eth_output</title>
<path fill="none" stroke="black" d="M2141.01,-555.26C2152.45,-567.55 2167.17,-585.74 2174.67,-604.73 2232.46,-750.99 2128.58,-822.6 2210.67,-956.73 2218.53,-969.56 2231.58,-979.42 2244.26,-986.6"/>
<polygon fill="black" stroke="black" points="2242.88,-989.82 2253.36,-991.35 2246.12,-983.62 2242.88,-989.82"/>
</g>
<!-- loop_xvrf -->
<g id="node20" class="node">
<title>loop_xvrf</title>
<ellipse fill="none" stroke="black" cx="1292.76" cy="-468.73" rx="28.53" ry="18"/>
<text text-anchor="middle" x="1292.76" y="-465.93" font-family="sans" font-size="11.00">loop_xvrf</text>
</g>
<!-- ip6_output&#45;&gt;loop_xvrf -->
<g id="edge70" class="edge">
<title>ip6_output&#45;&gt;loop_xvrf</title>
<path fill="none" stroke="black" d="M2096.67,-549.52C2080,-555.15 2057.91,-561.71 2037.73,-564.73 1810.44,-598.81 1744.73,-587.85 1521.6,-532.73 1452.77,-515.73 1373.21,-492.57 1328.66,-479.28"/>
<polygon fill="black" stroke="black" points="1329.49,-475.87 1318.9,-476.36 1327.48,-482.58 1329.49,-475.87"/>
</g>
<!-- sr6_output -->
<g id="node37" class="node">
<title>sr6_output</title>
<ellipse fill="none" stroke="black" cx="2281.23" cy="-585.73" rx="33.21" ry="18"/>
<text text-anchor="middle" x="2281.23" y="-582.93" font-family="sans" font-size="11.00">sr6_output</text>
</g>
<!-- ip6_output&#45;&gt;sr6_output -->
<g id="edge71" class="edge">
<title>ip6_output&#45;&gt;sr6_output</title>
<path fill="none" stroke="black" d="M2156.2,-543.4C2182.37,-549.59 2219.76,-560.63 2246.64,-570.09"/>
<polygon fill="black" stroke="black" points="2245.79,-573.5 2256.38,-573.62 2248.17,-566.92 2245.79,-573.5"/>
</g>
<!-- ip6_hold -->
<g id="node45" class="node">
<title>ip6_hold</title>
<ellipse fill="none" stroke="black" cx="2281.23" cy="-531.73" rx="27" ry="18"/>
<text text-anchor="middle" x="2281.23" y="-528.93" font-family="sans" font-size="11.00">ip6_hold</text>
</g>
<!-- ip6_output&#45;&gt;ip6_hold -->
<g id="edge68" class="edge">
<title>ip6_output&#45;&gt;ip6_hold</title>
<path fill="none" stroke="black" d="M2156.95,-538.09C2182.28,-536.79 2217.79,-534.95 2244.19,-533.59"/>
<polygon fill="black" stroke="black" points="2244.37,-537.09 2254.18,-533.08 2244.01,-530.1 2244.37,-537.09"/>
</g>
<!-- ip6_error_dest_unreach -->
<g id="node47" class="node">
<title>ip6_error_dest_unreach</title>
<ellipse fill="none" stroke="black" cx="2281.23" cy="-421.73" rx="70.61" ry="18"/>
<text text-anchor="middle" x="2281.23" y="-418.93" font-family="sans" font-size="11.00">ip6_error_dest_unreach</text>
</g>
<!-- ip6_output&#45;&gt;ip6_error_dest_unreach -->
<g id="edge69" class="edge">
<title>ip6_output&#45;&gt;ip6_error_dest_unreach</title>
<path fill="none" stroke="black" d="M2144.21,-525.26C2170.56,-505.21 2218.47,-468.74 2249.82,-444.88"/>
<polygon fill="black" stroke="black" points="2251.96,-447.65 2257.8,-438.8 2247.72,-442.08 2251.96,-447.65"/>
</g>
<!-- ndp_na_output&#45;&gt;icmp6_output -->
<g id="edge73" class="edge">
<title>ndp_na_output&#45;&gt;icmp6_output</title>
<path fill="none" stroke="black" d="M1485.35,-209.79C1564.98,-213.77 1738.71,-223.59 1884.5,-239.73 1899.22,-241.36 1915.18,-243.58 1929.68,-245.77"/>
<polygon fill="black" stroke="black" points="1929.52,-249.29 1939.94,-247.35 1930.59,-242.37 1929.52,-249.29"/>
</g>
<!-- ip_output&#45;&gt;eth_output -->
<g id="edge44" class="edge">
<title>ip_output&#45;&gt;eth_output</title>
<path fill="none" stroke="black" d="M1165.92,-736.8C1181.52,-746.72 1204.33,-759.94 1226,-767.73 1316.86,-800.42 1342.99,-807.73 1439.56,-807.73 1439.56,-807.73 1439.56,-807.73 1698.62,-807.73 1811.52,-807.73 2136.66,-940.94 2244.78,-986.59"/>
<polygon fill="black" stroke="black" points="2243.69,-989.93 2254.26,-990.61 2246.42,-983.48 2243.69,-989.93"/>
</g>
<!-- ip_output&#45;&gt;loop_xvrf -->
<g id="edge47" class="edge">
<title>ip_output&#45;&gt;loop_xvrf</title>
<path fill="none" stroke="black" d="M1156.25,-706.61C1181.17,-662.87 1247.24,-546.87 1276.94,-494.74"/>
<polygon fill="black" stroke="black" points="1280.13,-496.21 1282.04,-485.78 1274.05,-492.74 1280.13,-496.21"/>
</g>
<!-- ip_hold -->
<g id="node29" class="node">
<title>ip_hold</title>
<ellipse fill="none" stroke="black" cx="1440.56" cy="-750.73" rx="27" ry="18"/>
<text text-anchor="middle" x="1440.56" y="-747.93" font-family="sans" font-size="11.00">ip_hold</text>
</g>
<!-- ip_output&#45;&gt;ip_hold -->
<g id="edge45" class="edge">
<title>ip_output&#45;&gt;ip_hold</title>
<path fill="none" stroke="black" d="M1169.98,-733.98C1185.54,-740.19 1206.59,-747.53 1226,-750.73 1287.71,-760.93 1360.83,-757.68 1403.52,-754.29"/>
<polygon fill="black" stroke="black" points="1404.02,-757.76 1413.69,-753.43 1403.44,-750.78 1404.02,-757.76"/>
</g>
<!-- ip_error_dest_unreach -->
<g id="node32" class="node">
<title>ip_error_dest_unreach</title>
<ellipse fill="none" stroke="black" cx="1292.76" cy="-612.73" rx="66.51" ry="18"/>
<text text-anchor="middle" x="1292.76" y="-609.93" font-family="sans" font-size="11.00">ip_error_dest_unreach</text>
</g>
<!-- ip_output&#45;&gt;ip_error_dest_unreach -->
<g id="edge46" class="edge">
<title>ip_output&#45;&gt;ip_error_dest_unreach</title>
<path fill="none" stroke="black" d="M1164.6,-709.9C1188.83,-691.39 1232.13,-658.3 1261.39,-635.93"/>
<polygon fill="black" stroke="black" points="1263.8,-638.5 1269.62,-629.65 1259.55,-632.94 1263.8,-638.5"/>
</g>
<!-- ipip_output -->
<g id="node36" class="node">
<title>ipip_output</title>
<ellipse fill="none" stroke="black" cx="1292.76" cy="-723.73" rx="34.38" ry="18"/>
<text text-anchor="middle" x="1292.76" y="-720.93" font-family="sans" font-size="11.00">ipip_output</text>
</g>
<!-- ip_output&#45;&gt;ipip_output -->
<g id="edge48" class="edge">
<title>ip_output&#45;&gt;ipip_output</title>
<path fill="none" stroke="black" d="M1173.48,-718.34C1194.94,-716.85 1225.36,-716.58 1249.97,-717.56"/>
<polygon fill="black" stroke="black" points="1249.96,-721.06 1260.11,-718.05 1250.3,-714.07 1249.96,-721.06"/>
</g>
<!-- ip_output&#45;&gt;sr6_output -->
<g id="edge49" class="edge">
<title>ip_output&#45;&gt;sr6_output</title>
<path fill="none" stroke="black" d="M1170.44,-713.93C1186,-707.98 1206.89,-700.77 1226,-696.73 1319.23,-677.05 1344.27,-677.73 1439.56,-677.73 1439.56,-677.73 1439.56,-677.73 1980.11,-677.73 2067,-677.73 2093.09,-688.62 2174.67,-658.73 2205.56,-647.41 2235.94,-624.87 2256.11,-607.81"/>
<polygon fill="black" stroke="black" points="2258.57,-610.31 2263.84,-601.11 2253.99,-605.01 2258.57,-610.31"/>
</g>
<!-- arp_output_reply&#45;&gt;eth_output -->
<g id="edge26" class="edge">
<title>arp_output_reply&#45;&gt;eth_output</title>
<path fill="none" stroke="black" d="M343.75,-984.84C401.2,-991.65 500.7,-1001.73 586.4,-1001.73 586.4,-1001.73 586.4,-1001.73 1980.11,-1001.73 2071.59,-1001.73 2178.76,-1001.73 2237.06,-1001.73"/>
<polygon fill="black" stroke="black" points="2237.37,-1005.23 2247.37,-1001.73 2237.37,-998.23 2237.37,-1005.23"/>
</g>
<!-- control_output -->
<g id="node11" class="node">
<title>control_output</title>
<ellipse fill="none" stroke="black" cx="2432.28" cy="-581.73" rx="44.51" ry="18"/>
<text text-anchor="middle" x="2432.28" y="-578.93" font-family="sans" font-size="11.00">control_output</text>
</g>
<!-- arp_input -->
<g id="node13" class="node">
<title>arp_input</title>
<ellipse fill="none" stroke="black" cx="2124.2" cy="-875.73" rx="29.12" ry="18"/>
<text text-anchor="middle" x="2124.2" y="-872.93" font-family="sans" font-size="11.00">arp_input</text>
</g>
<!-- eth_input&#45;&gt;arp_input -->
<g id="edge10" class="edge">
<title>eth_input&#45;&gt;arp_input</title>
<path fill="none" stroke="black" d="M319.13,-679.1C416.85,-722.05 807.16,-883.73 1144.5,-883.73 1144.5,-883.73 1144.5,-883.73 1844.25,-883.73 1930.1,-883.73 2030.74,-879.9 2084.57,-877.54"/>
<polygon fill="black" stroke="black" points="2084.86,-881.03 2094.7,-877.09 2084.55,-874.04 2084.86,-881.03"/>
</g>
<!-- ip_input -->
<g id="node14" class="node">
<title>ip_input</title>
<ellipse fill="none" stroke="black" cx="441.77" cy="-558.73" rx="27" ry="18"/>
<text text-anchor="middle" x="441.77" y="-555.93" font-family="sans" font-size="11.00">ip_input</text>
</g>
<!-- eth_input&#45;&gt;ip_input -->
<g id="edge11" class="edge">
<title>eth_input&#45;&gt;ip_input</title>
<path fill="none" stroke="black" d="M314.09,-655.02C339.47,-635.73 385.86,-600.47 414.91,-578.39"/>
<polygon fill="black" stroke="black" points="417.12,-581.11 422.96,-572.27 412.89,-575.53 417.12,-581.11"/>
</g>
<!-- ip6_input -->
<g id="node15" class="node">
<title>ip6_input</title>
<ellipse fill="none" stroke="black" cx="1440.56" cy="-406.73" rx="28.44" ry="18"/>
<text text-anchor="middle" x="1440.56" y="-403.93" font-family="sans" font-size="11.00">ip6_input</text>
</g>
<!-- eth_input&#45;&gt;ip6_input -->
<g id="edge12" class="edge">
<title>eth_input&#45;&gt;ip6_input</title>
<path fill="none" stroke="black" d="M301.99,-650.91C325.75,-583.19 420.9,-345.73 586.4,-345.73 586.4,-345.73 586.4,-345.73 858.5,-345.73 1065.59,-345.73 1311.94,-384.53 1403.21,-400.24"/>
<polygon fill="black" stroke="black" points="1402.86,-403.73 1413.31,-402 1404.05,-396.84 1402.86,-403.73"/>
</g>
<!-- arp_input_request -->
<g id="node23" class="node">
<title>arp_input_request</title>
<ellipse fill="none" stroke="black" cx="2281.23" cy="-929.73" rx="54.63" ry="18"/>
<text text-anchor="middle" x="2281.23" y="-926.93" font-family="sans" font-size="11.00">arp_input_request</text>
</g>
<!-- arp_input&#45;&gt;arp_input_request -->
<g id="edge22" class="edge">
<title>arp_input&#45;&gt;arp_input_request</title>
<path fill="none" stroke="black" d="M2150.11,-884.41C2172.44,-892.19 2205.81,-903.81 2233.17,-913.34"/>
<polygon fill="black" stroke="black" points="2232.34,-916.76 2242.94,-916.74 2234.65,-910.15 2232.34,-916.76"/>
</g>
<!-- arp_input_reply -->
<g id="node24" class="node">
<title>arp_input_reply</title>
<ellipse fill="none" stroke="black" cx="2281.23" cy="-875.73" rx="47.43" ry="18"/>
<text text-anchor="middle" x="2281.23" y="-872.93" font-family="sans" font-size="11.00">arp_input_reply</text>
</g>
<!-- arp_input&#45;&gt;arp_input_reply -->
<g id="edge23" class="edge">
<title>arp_input&#45;&gt;arp_input_reply</title>
<path fill="none" stroke="black" d="M2153.64,-875.73C2173.22,-875.73 2199.89,-875.73 2223.71,-875.73"/>
<polygon fill="black" stroke="black" points="2223.71,-879.23 2233.71,-875.73 2223.71,-872.23 2223.71,-879.23"/>
</g>
<!-- ip_input&#45;&gt;ip_output -->
<g id="edge37" class="edge">
<title>ip_input&#45;&gt;ip_output</title>
<path fill="none" stroke="black" d="M451.49,-575.83C465.93,-602.6 497.18,-654.58 536.93,-685.73 633.81,-761.66 671.7,-768.48 792.37,-792.73 849.12,-804.14 872.03,-820.87 922.62,-792.73 949.14,-777.98 932.56,-750.26 958.62,-734.73 1004.26,-707.55 1067.89,-710.73 1107.61,-716.49"/>
<polygon fill="black" stroke="black" points="1107.23,-719.98 1117.66,-718.08 1108.33,-713.06 1107.23,-719.98"/>
</g>
<!-- ip_forward -->
<g id="node27" class="node">
<title>ip_forward</title>
<ellipse fill="none" stroke="black" cx="715.12" cy="-673.73" rx="32.63" ry="18"/>
<text text-anchor="middle" x="715.12" y="-670.93" font-family="sans" font-size="11.00">ip_forward</text>
</g>
<!-- ip_input&#45;&gt;ip_forward -->
<g id="edge35" class="edge">
<title>ip_input&#45;&gt;ip_forward</title>
<path fill="none" stroke="black" d="M452.3,-575.76C466.92,-600.03 497.43,-643.72 536.93,-662.73 580.09,-683.5 636.14,-683.11 673.53,-679.59"/>
<polygon fill="black" stroke="black" points="673.98,-683.07 683.55,-678.53 673.24,-676.1 673.98,-683.07"/>
</g>
<!-- dnat44_dynamic -->
<g id="node30" class="node">
<title>dnat44_dynamic</title>
<ellipse fill="none" stroke="black" cx="587.4" cy="-635.73" rx="50.45" ry="18"/>
<text text-anchor="middle" x="587.4" y="-632.93" font-family="sans" font-size="11.00">dnat44_dynamic</text>
</g>
<!-- ip_input&#45;&gt;dnat44_dynamic -->
<g id="edge36" class="edge">
<title>ip_input&#45;&gt;dnat44_dynamic</title>
<path fill="none" stroke="black" d="M463.35,-569.76C485.86,-581.83 522.38,-601.41 549.8,-616.11"/>
<polygon fill="black" stroke="black" points="548.25,-619.25 558.72,-620.89 551.56,-613.08 548.25,-619.25"/>
</g>
<!-- ip_input_local -->
<g id="node31" class="node">
<title>ip_input_local</title>
<ellipse fill="none" stroke="black" cx="715.12" cy="-543.73" rx="41.49" ry="18"/>
<text text-anchor="middle" x="715.12" y="-540.93" font-family="sans" font-size="11.00">ip_input_local</text>
</g>
<!-- ip_input&#45;&gt;ip_input_local -->
<g id="edge38" class="edge">
<title>ip_input&#45;&gt;ip_input_local</title>
<path fill="none" stroke="black" d="M468.79,-557.29C513.59,-554.82 606.03,-549.71 663.77,-546.52"/>
<polygon fill="black" stroke="black" points="663.99,-550.01 673.78,-545.96 663.6,-543.02 663.99,-550.01"/>
</g>
<!-- ip_input&#45;&gt;ip_error_dest_unreach -->
<g id="edge39" class="edge">
<title>ip_input&#45;&gt;ip_error_dest_unreach</title>
<path fill="none" stroke="black" d="M461.97,-546.39C505.17,-519.86 614.08,-459.73 714.12,-459.73 714.12,-459.73 714.12,-459.73 1012.81,-459.73 1118.28,-459.73 1221.61,-544.86 1267.31,-588.12"/>
<polygon fill="black" stroke="black" points="1265.02,-590.77 1274.65,-595.18 1269.87,-585.73 1265.02,-590.77"/>
</g>
<!-- dnat44_static -->
<g id="node33" class="node">
<title>dnat44_static</title>
<ellipse fill="none" stroke="black" cx="587.4" cy="-581.73" rx="41.58" ry="18"/>
<text text-anchor="middle" x="587.4" y="-578.93" font-family="sans" font-size="11.00">dnat44_static</text>
</g>
<!-- ip_input&#45;&gt;dnat44_static -->
<g id="edge40" class="edge">
<title>ip_input&#45;&gt;dnat44_static</title>
<path fill="none" stroke="black" d="M468.12,-562.79C487.41,-565.88 514.54,-570.23 537.96,-573.97"/>
<polygon fill="black" stroke="black" points="537.64,-577.47 548.07,-575.59 538.75,-570.56 537.64,-577.47"/>
</g>
<!-- ip6_input&#45;&gt;ip6_output -->
<g id="edge61" class="edge">
<title>ip6_input&#45;&gt;ip6_output</title>
<path fill="none" stroke="black" d="M1464.62,-416.56C1480.4,-422.92 1501.94,-430.88 1521.6,-435.73 1597.83,-454.54 1618.11,-459.73 1696.62,-459.73 1696.62,-459.73 1696.62,-459.73 1844.25,-459.73 1936.07,-459.73 2038.54,-500.28 2089.95,-523.64"/>
<polygon fill="black" stroke="black" points="2088.69,-526.91 2099.24,-527.93 2091.63,-520.56 2088.69,-526.91"/>
</g>
<!-- ip6_forward -->
<g id="node43" class="node">
<title>ip6_forward</title>
<ellipse fill="none" stroke="black" cx="1557.42" cy="-505.73" rx="35.64" ry="18"/>
<text text-anchor="middle" x="1557.42" y="-502.93" font-family="sans" font-size="11.00">ip6_forward</text>
</g>
<!-- ip6_input&#45;&gt;ip6_forward -->
<g id="edge60" class="edge">
<title>ip6_input&#45;&gt;ip6_forward</title>
<path fill="none" stroke="black" d="M1458.01,-420.92C1477.02,-437.3 1508.52,-464.44 1530.75,-483.61"/>
<polygon fill="black" stroke="black" points="1528.62,-486.39 1538.48,-490.27 1533.19,-481.09 1528.62,-486.39"/>
</g>
<!-- ip6_input_local -->
<g id="node46" class="node">
<title>ip6_input_local</title>
<ellipse fill="none" stroke="black" cx="1697.62" cy="-375.73" rx="45.09" ry="18"/>
<text text-anchor="middle" x="1697.62" y="-372.93" font-family="sans" font-size="11.00">ip6_input_local</text>
</g>
<!-- ip6_input&#45;&gt;ip6_input_local -->
<g id="edge62" class="edge">
<title>ip6_input&#45;&gt;ip6_input_local</title>
<path fill="none" stroke="black" d="M1468.37,-403.47C1509.95,-398.42 1590.73,-388.6 1644.18,-382.11"/>
<polygon fill="black" stroke="black" points="1644.65,-385.57 1654.16,-380.89 1643.81,-378.63 1644.65,-385.57"/>
</g>
<!-- ip6_input&#45;&gt;ip6_error_dest_unreach -->
<g id="edge63" class="edge">
<title>ip6_input&#45;&gt;ip6_error_dest_unreach</title>
<path fill="none" stroke="black" d="M1468.71,-409.38C1515.28,-413.69 1613.45,-421.73 1696.62,-421.73 1696.62,-421.73 1696.62,-421.73 1980.11,-421.73 2054.73,-421.73 2139.79,-421.73 2200.25,-421.73"/>
<polygon fill="black" stroke="black" points="2200.49,-425.23 2210.49,-421.73 2200.49,-418.23 2200.49,-425.23"/>
</g>
<!-- sr6_local -->
<g id="node48" class="node">
<title>sr6_local</title>
<ellipse fill="none" stroke="black" cx="1557.42" cy="-337.73" rx="27.86" ry="18"/>
<text text-anchor="middle" x="1557.42" y="-334.93" font-family="sans" font-size="11.00">sr6_local</text>
</g>
<!-- ip6_input&#45;&gt;sr6_local -->
<g id="edge64" class="edge">
<title>ip6_input&#45;&gt;sr6_local</title>
<path fill="none" stroke="black" d="M1457.53,-392.29C1474.57,-380.08 1502.05,-363.13 1523.72,-351.22"/>
<polygon fill="black" stroke="black" points="1525.45,-354.26 1532.6,-346.45 1522.14,-348.09 1525.45,-354.26"/>
</g>
<!-- port_output -->
<g id="node17" class="node">
<title>port_output</title>
<ellipse fill="none" stroke="black" cx="2432.28" cy="-1039.73" rx="35.64" ry="18"/>
<text text-anchor="middle" x="2432.28" y="-1036.93" font-family="sans" font-size="11.00">port_output</text>
</g>
<!-- eth_output&#45;&gt;port_output -->
<g id="edge13" class="edge">
<title>eth_output&#45;&gt;port_output</title>
<path fill="none" stroke="black" d="M2312.03,-1009.33C2334.43,-1015.04 2365.39,-1022.93 2390.15,-1029.24"/>
<polygon fill="black" stroke="black" points="2389.43,-1032.68 2399.99,-1031.75 2391.16,-1025.89 2389.43,-1032.68"/>
</g>
<!-- port_tx -->
<g id="node21" class="node">
<title>port_tx</title>
<ellipse fill="none" stroke="black" cx="2539.79" cy="-1039.73" rx="27" ry="18"/>
<text text-anchor="middle" x="2539.79" y="-1036.93" font-family="sans" font-size="11.00">port_tx</text>
</g>
<!-- port_output&#45;&gt;port_tx -->
<g id="edge19" class="edge">
<title>port_output&#45;&gt;port_tx</title>
<path fill="none" stroke="black" d="M2468.12,-1039.73C2479.13,-1039.73 2491.32,-1039.73 2502.43,-1039.73"/>
<polygon fill="black" stroke="black" points="2502.68,-1043.23 2512.68,-1039.73 2502.68,-1036.23 2502.68,-1043.23"/>
</g>
<!-- l1_xconnect -->
<g id="node18" class="node">
<title>l1_xconnect</title>
<ellipse fill="none" stroke="black" cx="587.4" cy="-841.73" rx="36.23" ry="18"/>
<text text-anchor="middle" x="587.4" y="-838.93" font-family="sans" font-size="11.00">l1_xconnect</text>
</g>
<!-- l1_xconnect&#45;&gt;port_output -->
<g id="edge14" class="edge">
<title>l1_xconnect&#45;&gt;port_output</title>
<path fill="none" stroke="black" d="M606.91,-856.94C648.65,-889.64 754.48,-963.73 856.5,-963.73 856.5,-963.73 856.5,-963.73 1558.42,-963.73 1751.71,-963.73 1784.83,-1077.73 1978.11,-1077.73 1978.11,-1077.73 1978.11,-1077.73 2125.2,-1077.73 2219.92,-1077.73 2329.87,-1059.59 2388.79,-1048.38"/>
<polygon fill="black" stroke="black" points="2389.68,-1051.77 2398.83,-1046.44 2388.35,-1044.9 2389.68,-1051.77"/>
</g>
<!-- loopback_output -->
<g id="node19" class="node">
<title>loopback_output</title>
<ellipse fill="none" stroke="black" cx="2124.2" cy="-631.73" rx="50.45" ry="18"/>
<text text-anchor="middle" x="2124.2" y="-628.93" font-family="sans" font-size="11.00">loopback_output</text>
</g>
<!-- loopback_output&#45;&gt;control_output -->
<g id="edge16" class="edge">
<title>loopback_output&#45;&gt;control_output</title>
<path fill="none" stroke="black" d="M2174.9,-631.65C2221.23,-630.62 2291.98,-626.59 2351.78,-612.73 2365.58,-609.53 2380.17,-604.4 2393.02,-599.22"/>
<polygon fill="black" stroke="black" points="2394.59,-602.36 2402.47,-595.29 2391.9,-595.9 2394.59,-602.36"/>
</g>
<!-- loop_xvrf&#45;&gt;ip_input -->
<g id="edge17" class="edge">
<title>loop_xvrf&#45;&gt;ip_input</title>
<path fill="none" stroke="black" d="M1266.23,-461.49C1217.43,-448.31 1107.35,-421.73 1012.81,-421.73 714.12,-421.73 714.12,-421.73 714.12,-421.73 632.87,-421.73 607.79,-426.98 536.93,-466.73 506.14,-484.01 478.22,-513.94 460.92,-534.96"/>
<polygon fill="black" stroke="black" points="458.15,-532.82 454.61,-542.81 463.6,-537.21 458.15,-532.82"/>
</g>
<!-- loop_xvrf&#45;&gt;ip6_input -->
<g id="edge18" class="edge">
<title>loop_xvrf&#45;&gt;ip6_input</title>
<path fill="none" stroke="black" d="M1316.86,-458.91C1341.17,-448.57 1379.65,-432.21 1407.02,-420.57"/>
<polygon fill="black" stroke="black" points="1408.73,-423.64 1416.56,-416.51 1405.99,-417.2 1408.73,-423.64"/>
</g>
<!-- port_rx -->
<g id="node22" class="node">
<title>port_rx</title>
<ellipse fill="none" stroke="blue" stroke-width="2" cx="161.91" cy="-778.73" rx="27" ry="18"/>
<text text-anchor="middle" x="161.91" y="-775.93" font-family="sans" font-size="11.00">port_rx</text>
</g>
<!-- port_rx&#45;&gt;eth_input -->
<g id="edge20" class="edge">
<title>port_rx&#45;&gt;eth_input</title>
<path fill="none" stroke="blue" stroke-width="2" d="M179.52,-764.8C202.13,-745.83 242.79,-711.73 269.09,-689.68"/>
<polygon fill="blue" stroke="blue" stroke-width="2" points="271.34,-692.36 276.75,-683.25 266.84,-686.99 271.34,-692.36"/>
</g>
<!-- port_rx&#45;&gt;l1_xconnect -->
<g id="edge21" class="edge">
<title>port_rx&#45;&gt;l1_xconnect</title>
<path fill="none" stroke="blue" stroke-width="2" d="M188.45,-782.53C258.46,-792.95 454.08,-822.05 542.28,-835.17"/>
<polygon fill="blue" stroke="blue" stroke-width="2" points="541.83,-838.64 552.24,-836.65 542.86,-831.72 541.83,-838.64"/>
</g>
<!-- arp_input_request&#45;&gt;control_output -->
<g id="edge25" class="edge">
<title>arp_input_request&#45;&gt;control_output</title>
<path fill="none" stroke="black" d="M2327.02,-919.57C2336.27,-915.65 2345.19,-910.22 2351.78,-902.73 2390.57,-858.65 2418.13,-680.06 2427.64,-610.07"/>
<polygon fill="black" stroke="black" points="2431.16,-610.18 2429.01,-599.81 2424.22,-609.25 2431.16,-610.18"/>
</g>
<!-- arp_input_reply&#45;&gt;control_output -->
<g id="edge24" class="edge">
<title>arp_input_reply&#45;&gt;control_output</title>
<path fill="none" stroke="black" d="M2319.95,-865.13C2331.52,-860.25 2343.4,-853.35 2351.78,-843.73 2411.57,-775.16 2426.4,-662.68 2430.07,-610.27"/>
<polygon fill="black" stroke="black" points="2433.58,-610.23 2430.7,-600.04 2426.6,-609.81 2433.58,-610.23"/>
</g>
<!-- icmp_input -->
<g id="node25" class="node">
<title>icmp_input</title>
<ellipse fill="none" stroke="black" cx="857.5" cy="-711.73" rx="33.8" ry="18"/>
<text text-anchor="middle" x="857.5" y="-708.93" font-family="sans" font-size="11.00">icmp_input</text>
</g>
<!-- icmp_input&#45;&gt;control_output -->
<g id="edge29" class="edge">
<title>icmp_input&#45;&gt;control_output</title>
<path fill="none" stroke="black" d="M887.46,-720.1C899.17,-724.42 912.32,-730.53 922.62,-738.73 944.04,-755.79 936.37,-772.77 958.62,-788.73 1028.84,-839.09 1058.09,-845.73 1144.5,-845.73 1144.5,-845.73 1144.5,-845.73 1698.62,-845.73 1996.77,-845.73 2107.33,-863.43 2351.78,-692.73 2382.46,-671.31 2405.53,-634.11 2418.71,-608.73"/>
<polygon fill="black" stroke="black" points="2421.92,-610.15 2423.27,-599.64 2415.66,-607.01 2421.92,-610.15"/>
</g>
<!-- icmp_input&#45;&gt;icmp_output -->
<g id="edge28" class="edge">
<title>icmp_input&#45;&gt;icmp_output</title>
<path fill="none" stroke="black" d="M886.79,-721.02C910.28,-728.73 944,-739.8 970.35,-748.45"/>
<polygon fill="black" stroke="black" points="969.46,-751.84 980.05,-751.64 971.64,-745.19 969.46,-751.84"/>
</g>
<!-- icmp_output&#45;&gt;ip_output -->
<g id="edge31" class="edge">
<title>icmp_output&#45;&gt;ip_output</title>
<path fill="none" stroke="black" d="M1044.69,-752.53C1064.09,-746.93 1088.92,-739.77 1108.96,-733.99"/>
<polygon fill="black" stroke="black" points="1110.01,-737.33 1118.65,-731.19 1108.07,-730.6 1110.01,-737.33"/>
</g>
<!-- ip_forward&#45;&gt;ip_output -->
<g id="edge32" class="edge">
<title>ip_forward&#45;&gt;ip_output</title>
<path fill="none" stroke="black" d="M747.72,-673.86C809.35,-674.64 949.63,-679.02 1065,-701.73 1079.55,-704.6 1095.35,-708.75 1108.99,-712.67"/>
<polygon fill="black" stroke="black" points="1108.37,-716.14 1118.95,-715.6 1110.35,-709.42 1108.37,-716.14"/>
</g>
<!-- ip_error_ttl_exceeded -->
<g id="node28" class="node">
<title>ip_error_ttl_exceeded</title>
<ellipse fill="none" stroke="black" cx="857.5" cy="-765.73" rx="65.25" ry="18"/>
<text text-anchor="middle" x="857.5" y="-762.93" font-family="sans" font-size="11.00">ip_error_ttl_exceeded</text>
</g>
<!-- ip_forward&#45;&gt;ip_error_ttl_exceeded -->
<g id="edge33" class="edge">
<title>ip_forward&#45;&gt;ip_error_ttl_exceeded</title>
<path fill="none" stroke="black" d="M731.64,-689.5C746.31,-703.74 769.42,-724.59 792.37,-738.73 797.31,-741.78 802.66,-744.63 808.08,-747.26"/>
<polygon fill="black" stroke="black" points="806.67,-750.46 817.22,-751.45 809.6,-744.1 806.67,-750.46"/>
</g>
<!-- ip_hold&#45;&gt;control_output -->
<g id="edge34" class="edge">
<title>ip_hold&#45;&gt;control_output</title>
<path fill="none" stroke="black" d="M1467.19,-746.88C1513.09,-740.34 1612.37,-727.73 1696.62,-727.73 1696.62,-727.73 1696.62,-727.73 2125.2,-727.73 2238.41,-727.73 2354.25,-645.35 2404.89,-604.36"/>
<polygon fill="black" stroke="black" points="2407.22,-606.97 2412.73,-597.91 2402.78,-601.56 2407.22,-606.97"/>
</g>
<!-- dnat44_dynamic&#45;&gt;ip_forward -->
<g id="edge81" class="edge">
<title>dnat44_dynamic&#45;&gt;ip_forward</title>
<path fill="none" stroke="black" d="M626.46,-647.24C642.23,-652 660.48,-657.52 676.23,-662.28"/>
<polygon fill="black" stroke="black" points="675.59,-665.74 686.17,-665.28 677.61,-659.04 675.59,-665.74"/>
</g>
<!-- dnat44_dynamic&#45;&gt;ip_input_local -->
<g id="edge82" class="edge">
<title>dnat44_dynamic&#45;&gt;ip_input_local</title>
<path fill="none" stroke="black" d="M617.52,-621.14C624.36,-617.36 631.51,-613.11 637.88,-608.73 656.13,-596.17 675.1,-580.01 689.55,-566.95"/>
<polygon fill="black" stroke="black" points="692.07,-569.39 697.08,-560.05 687.35,-564.22 692.07,-569.39"/>
</g>
<!-- dnat44_dynamic&#45;&gt;ip_error_dest_unreach -->
<g id="edge83" class="edge">
<title>dnat44_dynamic&#45;&gt;ip_error_dest_unreach</title>
<path fill="none" stroke="black" d="M637.8,-633.38C691.58,-631.02 780.13,-627.73 856.5,-627.73 856.5,-627.73 856.5,-627.73 1012.81,-627.73 1082.78,-627.73 1162.48,-622.97 1218.72,-618.81"/>
<polygon fill="black" stroke="black" points="1219.23,-622.28 1228.94,-618.04 1218.7,-615.3 1219.23,-622.28"/>
</g>
<!-- ip_input_local&#45;&gt;icmp_input -->
<g id="edge41" class="edge">
<title>ip_input_local&#45;&gt;icmp_input</title>
<path fill="none" stroke="black" d="M730.35,-560.77C755.39,-590.73 807.38,-652.96 836.19,-687.43"/>
<polygon fill="black" stroke="black" points="833.54,-689.72 842.64,-695.15 838.92,-685.23 833.54,-689.72"/>
</g>
<!-- ipip_input -->
<g id="node34" class="node">
<title>ipip_input</title>
<ellipse fill="none" stroke="black" cx="857.5" cy="-505.73" rx="29.7" ry="18"/>
<text text-anchor="middle" x="857.5" y="-502.93" font-family="sans" font-size="11.00">ipip_input</text>
</g>
<!-- ip_input_local&#45;&gt;ipip_input -->
<g id="edge42" class="edge">
<title>ip_input_local&#45;&gt;ipip_input</title>
<path fill="none" stroke="black" d="M750.46,-534.44C771.62,-528.71 798.73,-521.37 820.23,-515.55"/>
<polygon fill="black" stroke="black" points="821.25,-518.9 829.99,-512.91 819.42,-512.14 821.25,-518.9"/>
</g>
<!-- l4_input_local -->
<g id="node35" class="node">
<title>l4_input_local</title>
<ellipse fill="none" stroke="black" cx="1843.25" cy="-631.73" rx="41.49" ry="18"/>
<text text-anchor="middle" x="1843.25" y="-628.93" font-family="sans" font-size="11.00">l4_input_local</text>
</g>
<!-- ip_input_local&#45;&gt;l4_input_local -->
<g id="edge43" class="edge">
<title>ip_input_local&#45;&gt;l4_input_local</title>
<path fill="none" stroke="black" d="M756.43,-545.94C857.81,-551.6 1131.61,-567.44 1359.51,-585.73 1517.97,-598.45 1705.31,-617.43 1792.71,-626.52"/>
<polygon fill="black" stroke="black" points="1792.56,-630.02 1802.87,-627.58 1793.28,-623.06 1792.56,-630.02"/>
</g>
<!-- dnat44_static&#45;&gt;ip_forward -->
<g id="edge84" class="edge">
<title>dnat44_static&#45;&gt;ip_forward</title>
<path fill="none" stroke="black" d="M615.45,-595.19C622.9,-599.24 630.86,-603.91 637.88,-608.73 656.49,-621.55 675.86,-638.1 690.41,-651.29"/>
<polygon fill="black" stroke="black" points="688.23,-654.04 697.96,-658.23 692.97,-648.89 688.23,-654.04"/>
</g>
<!-- dnat44_static&#45;&gt;ip_input_local -->
<g id="edge85" class="edge">
<title>dnat44_static&#45;&gt;ip_input_local</title>
<path fill="none" stroke="black" d="M622.09,-571.55C637.15,-567 655.08,-561.58 671.09,-556.74"/>
<polygon fill="black" stroke="black" points="672.22,-560.06 680.77,-553.81 670.19,-553.35 672.22,-560.06"/>
</g>
<!-- dnat44_static&#45;&gt;ip_error_dest_unreach -->
<g id="edge86" class="edge">
<title>dnat44_static&#45;&gt;ip_error_dest_unreach</title>
<path fill="none" stroke="black" d="M629.27,-583.71C681.83,-586.08 775.94,-589.73 856.5,-589.73 856.5,-589.73 856.5,-589.73 1012.81,-589.73 1084.29,-589.73 1165.72,-597.33 1222.07,-603.79"/>
<polygon fill="black" stroke="black" points="1221.95,-607.3 1232.29,-604.98 1222.76,-600.34 1221.95,-607.3"/>
</g>
<!-- ipip_input&#45;&gt;ip_input -->
<g id="edge77" class="edge">
<title>ipip_input&#45;&gt;ip_input</title>
<path fill="none" stroke="black" d="M827.62,-506.41C791.54,-507.49 727.96,-510.21 673.88,-516.73 603.64,-525.2 522.46,-541.48 477.43,-551.09"/>
<polygon fill="black" stroke="black" points="476.63,-547.69 467.59,-553.21 478.1,-554.53 476.63,-547.69"/>
</g>
<!-- l4_loopback_output -->
<g id="node49" class="node">
<title>l4_loopback_output</title>
<ellipse fill="none" stroke="black" cx="1979.11" cy="-631.73" rx="58.73" ry="18"/>
<text text-anchor="middle" x="1979.11" y="-628.93" font-family="sans" font-size="11.00">l4_loopback_output</text>
</g>
<!-- l4_input_local&#45;&gt;l4_loopback_output -->
<g id="edge79" class="edge">
<title>l4_input_local&#45;&gt;l4_loopback_output</title>
<path fill="none" stroke="black" d="M1884.78,-631.73C1892.85,-631.73 1901.54,-631.73 1910.25,-631.73"/>
<polygon fill="black" stroke="black" points="1910.44,-635.23 1920.44,-631.73 1910.44,-628.23 1910.44,-635.23"/>
</g>
<!-- ipip_output&#45;&gt;ip_output -->
<g id="edge78" class="edge">
<title>ipip_output&#45;&gt;ip_output</title>
<path fill="none" stroke="black" d="M1260.11,-729.42C1237.56,-730.74 1207.18,-730.83 1183.5,-729.7"/>
<polygon fill="black" stroke="black" points="1183.67,-726.21 1173.48,-729.12 1183.26,-733.19 1183.67,-726.21"/>
</g>
<!-- sr6_output&#45;&gt;ip6_output -->
<g id="edge91" class="edge">
<title>sr6_output&#45;&gt;ip6_output</title>
<path fill="none" stroke="black" d="M2248.66,-581.93C2222.4,-575.69 2185.13,-564.66 2158.42,-555.24"/>
<polygon fill="black" stroke="black" points="2159.34,-551.85 2148.75,-551.73 2156.95,-558.43 2159.34,-551.85"/>
</g>
<!-- icmp6_input -->
<g id="node38" class="node">
<title>icmp6_input</title>
<ellipse fill="none" stroke="black" cx="1843.25" cy="-131.73" rx="37.4" ry="18"/>
<text text-anchor="middle" x="1843.25" y="-128.93" font-family="sans" font-size="11.00">icmp6_input</text>
</g>
<!-- icmp6_input&#45;&gt;control_output -->
<g id="edge54" class="edge">
<title>icmp6_input&#45;&gt;control_output</title>
<path fill="none" stroke="black" d="M1877.36,-139.46C1967.37,-162.17 2218.69,-237.27 2351.78,-394.73 2392.36,-442.73 2414.96,-514.5 2424.96,-553.7"/>
<polygon fill="black" stroke="black" points="2421.61,-554.74 2427.39,-563.61 2428.41,-553.07 2421.61,-554.74"/>
</g>
<!-- icmp6_input&#45;&gt;icmp6_output -->
<g id="edge50" class="edge">
<title>icmp6_input&#45;&gt;icmp6_output</title>
<path fill="none" stroke="black" d="M1861.75,-147.68C1884.97,-168.84 1926.13,-206.35 1952.75,-230.62"/>
<polygon fill="black" stroke="black" points="1950.43,-233.24 1960.18,-237.39 1955.15,-228.07 1950.43,-233.24"/>
</g>
<!-- ndp_ns_input -->
<g id="node40" class="node">
<title>ndp_ns_input</title>
<ellipse fill="none" stroke="black" cx="2124.2" cy="-131.73" rx="40.32" ry="18"/>
<text text-anchor="middle" x="2124.2" y="-128.93" font-family="sans" font-size="11.00">ndp_ns_input</text>
</g>
<!-- icmp6_input&#45;&gt;ndp_ns_input -->
<g id="edge51" class="edge">
<title>icmp6_input&#45;&gt;ndp_ns_input</title>
<path fill="none" stroke="black" d="M1880.72,-131.73C1930.11,-131.73 2018.44,-131.73 2073.76,-131.73"/>
<polygon fill="black" stroke="black" points="2074.03,-135.23 2084.03,-131.73 2074.03,-128.23 2074.03,-135.23"/>
</g>
<!-- ndp_na_input -->
<g id="node41" class="node">
<title>ndp_na_input</title>
<ellipse fill="none" stroke="black" cx="1979.11" cy="-85.73" rx="40.91" ry="18"/>
<text text-anchor="middle" x="1979.11" y="-82.93" font-family="sans" font-size="11.00">ndp_na_input</text>
</g>
<!-- icmp6_input&#45;&gt;ndp_na_input -->
<g id="edge52" class="edge">
<title>icmp6_input&#45;&gt;ndp_na_input</title>
<path fill="none" stroke="black" d="M1874.29,-121.41C1892.71,-115.08 1916.54,-106.89 1936.73,-99.95"/>
<polygon fill="black" stroke="black" points="1937.99,-103.22 1946.31,-96.66 1935.71,-96.6 1937.99,-103.22"/>
</g>
<!-- ndp_rs_input -->
<g id="node42" class="node">
<title>ndp_rs_input</title>
<ellipse fill="none" stroke="black" cx="1979.11" cy="-31.73" rx="39.15" ry="18"/>
<text text-anchor="middle" x="1979.11" y="-28.93" font-family="sans" font-size="11.00">ndp_rs_input</text>
</g>
<!-- icmp6_input&#45;&gt;ndp_rs_input -->
<g id="edge53" class="edge">
<title>icmp6_input&#45;&gt;ndp_rs_input</title>
<path fill="none" stroke="black" d="M1858.72,-115.03C1873.17,-99.07 1896.62,-75.1 1920.5,-58.73 1926.32,-54.75 1932.81,-51.07 1939.29,-47.79"/>
<polygon fill="black" stroke="black" points="1941.18,-50.77 1948.68,-43.3 1938.15,-44.46 1941.18,-50.77"/>
</g>
<!-- icmp6_output&#45;&gt;ip6_output -->
<g id="edge55" class="edge">
<title>icmp6_output&#45;&gt;ip6_output</title>
<path fill="none" stroke="black" d="M1989.06,-271.62C2013.41,-320.29 2080.95,-455.29 2109.83,-513"/>
<polygon fill="black" stroke="black" points="2106.83,-514.84 2114.44,-522.21 2113.09,-511.7 2106.83,-514.84"/>
</g>
<!-- ndp_ns_input&#45;&gt;control_output -->
<g id="edge74" class="edge">
<title>ndp_ns_input&#45;&gt;control_output</title>
<path fill="none" stroke="black" d="M2161.65,-125.19C2211.55,-118.51 2300.75,-115.07 2351.78,-163.73 2408.38,-217.69 2425.74,-468.3 2430.05,-553.38"/>
<polygon fill="black" stroke="black" points="2426.57,-553.77 2430.55,-563.59 2433.56,-553.43 2426.57,-553.77"/>
</g>
<!-- ndp_na_input&#45;&gt;control_output -->
<g id="edge72" class="edge">
<title>ndp_na_input&#45;&gt;control_output</title>
<path fill="none" stroke="black" d="M2014.17,-76.55C2086.68,-59.26 2257.39,-30.94 2351.78,-117.73 2416.24,-177 2428.49,-462.16 2430.77,-553.51"/>
<polygon fill="black" stroke="black" points="2427.28,-553.75 2431.01,-563.66 2434.28,-553.59 2427.28,-553.75"/>
</g>
<!-- ndp_rs_input&#45;&gt;control_output -->
<g id="edge76" class="edge">
<title>ndp_rs_input&#45;&gt;control_output</title>
<path fill="none" stroke="black" d="M2012.57,-22.19C2084.2,-3.32 2256.93,29.76 2351.78,-57.73 2425.12,-125.38 2431.26,-454.47 2431.42,-553.49"/>
<polygon fill="black" stroke="black" points="2427.92,-553.63 2431.42,-563.63 2434.92,-553.63 2427.92,-553.63"/>
</g>
<!-- ip6_forward&#45;&gt;ip6_output -->
<g id="edge57" class="edge">
<title>ip6_forward&#45;&gt;ip6_output</title>
<path fill="none" stroke="black" d="M1584.02,-517.98C1597.2,-523.64 1613.73,-529.76 1629.24,-532.73 1794.4,-564.36 1996.33,-551.65 2081.82,-543.96"/>
<polygon fill="black" stroke="black" points="2082.26,-547.43 2091.9,-543.03 2081.62,-540.46 2082.26,-547.43"/>
</g>
<!-- ip6_error_ttl_exceeded -->
<g id="node44" class="node">
<title>ip6_error_ttl_exceeded</title>
<ellipse fill="none" stroke="black" cx="1697.62" cy="-505.73" rx="68.27" ry="18"/>
<text text-anchor="middle" x="1697.62" y="-502.93" font-family="sans" font-size="11.00">ip6_error_ttl_exceeded</text>
</g>
<!-- ip6_forward&#45;&gt;ip6_error_ttl_exceeded -->
<g id="edge58" class="edge">
<title>ip6_forward&#45;&gt;ip6_error_ttl_exceeded</title>
<path fill="none" stroke="black" d="M1593.3,-505.73C1601.26,-505.73 1610.03,-505.73 1618.99,-505.73"/>
<polygon fill="black" stroke="black" points="1619.16,-509.23 1629.16,-505.73 1619.16,-502.23 1619.16,-509.23"/>
</g>
<!-- ip6_hold&#45;&gt;control_output -->
<g id="edge59" class="edge">
<title>ip6_hold&#45;&gt;control_output</title>
<path fill="none" stroke="black" d="M2305.85,-539.65C2327.85,-547.04 2361.2,-558.22 2387.98,-567.21"/>
<polygon fill="black" stroke="black" points="2386.93,-570.54 2397.52,-570.41 2389.15,-563.91 2386.93,-570.54"/>
</g>
<!-- ip6_input_local&#45;&gt;l4_input_local -->
<g id="edge66" class="edge">
<title>ip6_input_local&#45;&gt;l4_input_local</title>
<path fill="none" stroke="black" d="M1710.96,-393.2C1724.99,-413.38 1748.25,-447.78 1766.01,-478.73 1790.66,-521.71 1815.58,-573.69 1829.94,-604.66"/>
<polygon fill="black" stroke="black" points="1826.85,-606.33 1834.22,-613.94 1833.21,-603.4 1826.85,-606.33"/>
</g>
<!-- ip6_input_local&#45;&gt;icmp6_input -->
<g id="edge65" class="edge">
<title>ip6_input_local&#45;&gt;icmp6_input</title>
<path fill="none" stroke="black" d="M1708.95,-358.18C1733.9,-315.8 1797.55,-207.68 1826.94,-157.74"/>
<polygon fill="black" stroke="black" points="1829.96,-159.51 1832.02,-149.12 1823.93,-155.96 1829.96,-159.51"/>
</g>
<!-- sr6_local&#45;&gt;ip_input -->
<g id="edge87" class="edge">
<title>sr6_local&#45;&gt;ip_input</title>
<path fill="none" stroke="black" d="M1529.84,-340.75C1437.32,-350.98 1120.79,-383.73 858.5,-383.73 714.12,-383.73 714.12,-383.73 714.12,-383.73 633.49,-383.73 603.89,-377.81 536.93,-422.73 496.47,-449.87 468.29,-500.76 453.88,-532.01"/>
<polygon fill="black" stroke="black" points="450.56,-530.85 449.68,-541.41 456.95,-533.7 450.56,-530.85"/>
</g>
<!-- sr6_local&#45;&gt;ip6_input -->
<g id="edge88" class="edge">
<title>sr6_local&#45;&gt;ip6_input</title>
<path fill="none" stroke="black" d="M1540.4,-352.21C1523.35,-364.42 1495.89,-381.35 1474.23,-393.26"/>
<polygon fill="black" stroke="black" points="1472.51,-390.21 1465.36,-398.03 1475.82,-396.38 1472.51,-390.21"/>
</g>
<!-- sr6_local&#45;&gt;ip6_input_local -->
<g id="edge89" class="edge">
<title>sr6_local&#45;&gt;ip6_input_local</title>
<path fill="none" stroke="black" d="M1583.13,-344.53C1601.8,-349.66 1627.96,-356.85 1650.46,-363.04"/>
<polygon fill="black" stroke="black" points="1649.6,-366.43 1660.17,-365.71 1651.46,-359.68 1649.6,-366.43"/>
</g>
<!-- sr6_local&#45;&gt;ip6_error_dest_unreach -->
<g id="edge90" class="edge">
<title>sr6_local&#45;&gt;ip6_error_dest_unreach</title>
<path fill="none" stroke="black" d="M1585.35,-338.4C1624.99,-339.56 1701.35,-342.44 1766.01,-348.73 1926.58,-364.35 2113.88,-393.8 2212.12,-410.11"/>
<polygon fill="black" stroke="black" points="2211.77,-413.6 2222.2,-411.79 2212.92,-406.7 2211.77,-413.6"/>
</g>
<!-- l4_loopback_output&#45;&gt;loopback_output -->
<g id="edge80" class="edge">
<title>l4_loopback_output&#45;&gt;loopback_output</title>
<path fill="none" stroke="black" d="M2037.9,-631.73C2046.28,-631.73 2054.93,-631.73 2063.35,-631.73"/>
<polygon fill="black" stroke="black" points="2063.48,-635.23 2073.48,-631.73 2063.48,-628.23 2063.48,-635.23"/>
</g>
</g>
</svg>
