<?xml version="1.0" encoding="UTF-8" standalone="no"?>
<!DOCTYPE svg PUBLIC "-//W3C//DTD SVG 1.1//EN"
 "http://www.w3.org/Graphics/SVG/1.1/DTD/svg11.dtd">
<!-- Generated by graphviz version 2.44.0 (0)
 -->
<!-- Title: gr&#45;0&#45;0002&#45;dplane Pages: 1 -->
<svg width="1806pt" height="918pt"
 viewBox="0.00 0.00 1805.67 918.00" xmlns="http://www.w3.org/2000/svg" xmlns:xlink="http://www.w3.org/1999/xlink">
<g id="graph0" class="graph" transform="scale(1 1) rotate(0) translate(4 914)">
<title>gr&#45;0&#45;0002&#45;dplane</title>
<polygon fill="white" stroke="transparent" points="-4,4 -4,-914 1801.67,-914 1801.67,4 -4,4"/>
<!-- control_input -->
<g id="node1" class="node">
<title>control_input</title>
<ellipse fill="none" stroke="blue" stroke-width="2" cx="40.16" cy="-627" rx="40.32" ry="18"/>
<text text-anchor="middle" x="40.16" y="-624.2" font-family="sans" font-size="11.00">control_input</text>
</g>
<!-- loopback_input -->
<g id="node2" class="node">
<title>loopback_input</title>
<ellipse fill="none" stroke="black" cx="161.91" cy="-439" rx="45.68" ry="18"/>
<text text-anchor="middle" x="161.91" y="-436.2" font-family="sans" font-size="11.00">loopback_input</text>
</g>
<!-- control_input&#45;&gt;loopback_input -->
<g id="edge1" class="edge">
<title>control_input&#45;&gt;loopback_input</title>
<path fill="none" stroke="blue" stroke-width="2" d="M52.21,-609.65C73.28,-576.58 119.29,-504.34 144.16,-465.29"/>
<polygon fill="blue" stroke="blue" stroke-width="2" points="147.29,-466.9 149.71,-456.58 141.39,-463.13 147.29,-466.9"/>
</g>
<!-- arp_output_request -->
<g id="node3" class="node">
<title>arp_output_request</title>
<ellipse fill="none" stroke="black" cx="563.52" cy="-160" rx="59.31" ry="18"/>
<text text-anchor="middle" x="563.52" y="-157.2" font-family="sans" font-size="11.00">arp_output_request</text>
</g>
<!-- control_input&#45;&gt;arp_output_request -->
<g id="edge2" class="edge">
<title>control_input&#45;&gt;arp_output_request</title>
<path fill="none" stroke="blue" stroke-width="2" d="M40.8,-608.75C39.57,-524.76 39.24,-176.69 116.32,-110 234.51,-7.75 441.24,-96.32 525.35,-139.54"/>
<polygon fill="blue" stroke="blue" stroke-width="2" points="523.79,-142.68 534.28,-144.2 527.03,-136.47 523.79,-142.68"/>
</g>
<!-- icmp_local_send -->
<g id="node4" class="node">
<title>icmp_local_send</title>
<ellipse fill="none" stroke="black" cx="418.98" cy="-362" rx="49.28" ry="18"/>
<text text-anchor="middle" x="418.98" y="-359.2" font-family="sans" font-size="11.00">icmp_local_send</text>
</g>
<!-- control_input&#45;&gt;icmp_local_send -->
<g id="edge3" class="edge">
<title>control_input&#45;&gt;icmp_local_send</title>
<path fill="none" stroke="blue" stroke-width="2" d="M41.64,-608.89C43.8,-567.04 55.35,-463.29 116.32,-412 185.25,-354.02 295.32,-350.93 361.72,-355.44"/>
<polygon fill="blue" stroke="blue" stroke-width="2" points="361.75,-358.95 371.99,-356.22 362.28,-351.97 361.75,-358.95"/>
</g>
<!-- icmp6_local_send -->
<g id="node5" class="node">
<title>icmp6_local_send</title>
<ellipse fill="none" stroke="black" cx="563.52" cy="-694" rx="53.37" ry="18"/>
<text text-anchor="middle" x="563.52" y="-691.2" font-family="sans" font-size="11.00">icmp6_local_send</text>
</g>
<!-- control_input&#45;&gt;icmp6_local_send -->
<g id="edge4" class="edge">
<title>control_input&#45;&gt;icmp6_local_send</title>
<path fill="none" stroke="blue" stroke-width="2" d="M71.23,-638.42C84.87,-643.33 101.27,-648.88 116.32,-653 171.97,-668.24 186.25,-671.85 243.5,-679 332.15,-690.08 435.59,-693.15 500.08,-693.91"/>
<polygon fill="blue" stroke="blue" stroke-width="2" points="500.05,-697.41 510.09,-694.01 500.13,-690.41 500.05,-697.41"/>
</g>
<!-- ndp_ns_output -->
<g id="node6" class="node">
<title>ndp_ns_output</title>
<ellipse fill="none" stroke="black" cx="703.18" cy="-614" rx="44.51" ry="18"/>
<text text-anchor="middle" x="703.18" y="-611.2" font-family="sans" font-size="11.00">ndp_ns_output</text>
</g>
<!-- control_input&#45;&gt;ndp_ns_output -->
<g id="edge5" class="edge">
<title>control_input&#45;&gt;ndp_ns_output</title>
<path fill="none" stroke="blue" stroke-width="2" d="M78.64,-621.81C126.87,-615.59 213.28,-606 287.55,-606 287.55,-606 287.55,-606 419.98,-606 499.57,-606 591.74,-609.22 648.51,-611.57"/>
<polygon fill="blue" stroke="blue" stroke-width="2" points="648.54,-615.08 658.68,-612 648.84,-608.08 648.54,-615.08"/>
</g>
<!-- ip6_output -->
<g id="node7" class="node">
<title>ip6_output</title>
<ellipse fill="none" stroke="black" cx="1477.1" cy="-561" rx="32.63" ry="18"/>
<text text-anchor="middle" x="1477.1" y="-558.2" font-family="sans" font-size="11.00">ip6_output</text>
</g>
<!-- control_input&#45;&gt;ip6_output -->
<g id="edge6" class="edge">
<title>control_input&#45;&gt;ip6_output</title>
<path fill="none" stroke="blue" stroke-width="2" d="M63.76,-641.83C105.06,-672.8 196.86,-740 287.55,-740 287.55,-740 287.55,-740 419.98,-740 658.21,-740 717.76,-736 955.99,-736 955.99,-736 955.99,-736 1086.8,-736 1220.72,-736 1269.22,-749.45 1382.49,-678 1418.15,-655.5 1444.91,-614.16 1460.49,-586.97"/>
<polygon fill="blue" stroke="blue" stroke-width="2" points="1463.69,-588.42 1465.53,-577.99 1457.58,-585 1463.69,-588.42"/>
</g>
<!-- control_input&#45;&gt;ip6_output -->
<g id="edge8" class="edge">
<title>control_input&#45;&gt;ip6_output</title>
<path fill="none" stroke="blue" stroke-width="2" d="M54.95,-643.98C90.56,-679.77 189.7,-758 287.55,-758 287.55,-758 287.55,-758 419.98,-758 658.21,-758 717.76,-754 955.99,-754 955.99,-754 955.99,-754 1086.8,-754 1220.72,-754 1269.22,-767.45 1382.49,-696 1423.25,-670.29 1452.37,-619.96 1466.48,-588.34"/>
<polygon fill="blue" stroke="blue" stroke-width="2" points="1469.85,-589.36 1470.53,-578.78 1463.4,-586.63 1469.85,-589.36"/>
</g>
<!-- ndp_na_output -->
<g id="node8" class="node">
<title>ndp_na_output</title>
<ellipse fill="none" stroke="black" cx="288.55" cy="-652" rx="45.09" ry="18"/>
<text text-anchor="middle" x="288.55" y="-649.2" font-family="sans" font-size="11.00">ndp_na_output</text>
</g>
<!-- control_input&#45;&gt;ndp_na_output -->
<g id="edge7" class="edge">
<title>control_input&#45;&gt;ndp_na_output</title>
<path fill="none" stroke="blue" stroke-width="2" d="M79.39,-630.88C120.98,-635.1 187.77,-641.88 234.44,-646.61"/>
<polygon fill="blue" stroke="blue" stroke-width="2" points="234.37,-650.12 244.67,-647.65 235.07,-643.16 234.37,-650.12"/>
</g>
<!-- ip_input -->
<g id="node12" class="node">
<title>ip_input</title>
<ellipse fill="none" stroke="black" cx="563.52" cy="-301" rx="27" ry="18"/>
<text text-anchor="middle" x="563.52" y="-298.2" font-family="sans" font-size="11.00">ip_input</text>
</g>
<!-- loopback_input&#45;&gt;ip_input -->
<g id="edge14" class="edge">
<title>loopback_input&#45;&gt;ip_input</title>
<path fill="none" stroke="black" d="M187.03,-423.91C224.6,-401.11 300.01,-358.08 369.59,-335 422.67,-317.39 487.16,-308.38 526.5,-304.18"/>
<polygon fill="black" stroke="black" points="527.06,-307.64 536.66,-303.14 526.35,-300.68 527.06,-307.64"/>
</g>
<!-- ip6_input -->
<g id="node13" class="node">
<title>ip6_input</title>
<ellipse fill="none" stroke="black" cx="288.55" cy="-439" rx="28.44" ry="18"/>
<text text-anchor="middle" x="288.55" y="-436.2" font-family="sans" font-size="11.00">ip6_input</text>
</g>
<!-- loopback_input&#45;&gt;ip6_input -->
<g id="edge15" class="edge">
<title>loopback_input&#45;&gt;ip6_input</title>
<path fill="none" stroke="black" d="M207.55,-439C221.44,-439 236.61,-439 249.97,-439"/>
<polygon fill="black" stroke="black" points="250.23,-442.5 260.23,-439 250.23,-435.5 250.23,-442.5"/>
</g>
<!-- eth_output -->
<g id="node14" class="node">
<title>eth_output</title>
<ellipse fill="none" stroke="black" cx="1622.19" cy="-156" rx="33.8" ry="18"/>
<text text-anchor="middle" x="1622.19" y="-153.2" font-family="sans" font-size="11.00">eth_output</text>
</g>
<!-- arp_output_request&#45;&gt;eth_output -->
<g id="edge27" class="edge">
<title>arp_output_request&#45;&gt;eth_output</title>
<path fill="none" stroke="black" d="M622.73,-158.59C675.3,-157.44 754.79,-156 823.93,-156 823.93,-156 823.93,-156 1341.7,-156 1425.57,-156 1523.61,-156 1578.44,-156"/>
<polygon fill="black" stroke="black" points="1578.48,-159.5 1588.48,-156 1578.48,-152.5 1578.48,-159.5"/>
</g>
<!-- icmp_output -->
<g id="node29" class="node">
<title>icmp_output</title>
<ellipse fill="none" stroke="black" cx="1085.8" cy="-300" rx="37.98" ry="18"/>
<text text-anchor="middle" x="1085.8" y="-297.2" font-family="sans" font-size="11.00">icmp_output</text>
</g>
<!-- icmp_local_send&#45;&gt;icmp_output -->
<g id="edge31" class="edge">
<title>icmp_local_send&#45;&gt;icmp_output</title>
<path fill="none" stroke="black" d="M461.82,-371.2C516.71,-382.44 616.16,-400 702.18,-400 702.18,-400 702.18,-400 825.93,-400 908.97,-400 937.76,-418.58 1011.81,-381 1036.14,-368.65 1056.22,-344.52 1069.11,-325.8"/>
<polygon fill="black" stroke="black" points="1072.09,-327.65 1074.69,-317.38 1066.25,-323.78 1072.09,-327.65"/>
</g>
<!-- icmp6_output -->
<g id="node36" class="node">
<title>icmp6_output</title>
<ellipse fill="none" stroke="black" cx="1340.7" cy="-660" rx="41.58" ry="18"/>
<text text-anchor="middle" x="1340.7" y="-657.2" font-family="sans" font-size="11.00">icmp6_output</text>
</g>
<!-- icmp6_local_send&#45;&gt;icmp6_output -->
<g id="edge53" class="edge">
<title>icmp6_local_send&#45;&gt;icmp6_output</title>
<path fill="none" stroke="black" d="M616.69,-695.28C669.07,-696.45 752.09,-698 823.93,-698 823.93,-698 823.93,-698 1086.8,-698 1159.9,-698 1243.59,-682.28 1294,-671.06"/>
<polygon fill="black" stroke="black" points="1294.95,-674.43 1303.93,-668.81 1293.41,-667.61 1294.95,-674.43"/>
</g>
<!-- ndp_ns_output&#45;&gt;icmp6_output -->
<g id="edge69" class="edge">
<title>ndp_ns_output&#45;&gt;icmp6_output</title>
<path fill="none" stroke="black" d="M747.39,-616.21C797.54,-618.58 882.73,-622 955.99,-622 955.99,-622 955.99,-622 1086.8,-622 1159.9,-622 1243.59,-637.72 1294,-648.94"/>
<polygon fill="black" stroke="black" points="1293.41,-652.39 1303.93,-651.19 1294.95,-645.57 1293.41,-652.39"/>
</g>
<!-- ip6_output&#45;&gt;eth_output -->
<g id="edge62" class="edge">
<title>ip6_output&#45;&gt;eth_output</title>
<path fill="none" stroke="black" d="M1491.84,-544.66C1504.84,-528.44 1524.05,-502.39 1535.71,-477 1582.76,-374.6 1607.79,-241.5 1617,-184.23"/>
<polygon fill="black" stroke="black" points="1620.49,-184.55 1618.58,-174.13 1613.57,-183.46 1620.49,-184.55"/>
</g>
<!-- loopback_output -->
<g id="node17" class="node">
<title>loopback_output</title>
<ellipse fill="none" stroke="black" cx="1622.19" cy="-492" rx="50.45" ry="18"/>
<text text-anchor="middle" x="1622.19" y="-489.2" font-family="sans" font-size="11.00">loopback_output</text>
</g>
<!-- ip6_output&#45;&gt;loopback_output -->
<g id="edge64" class="edge">
<title>ip6_output&#45;&gt;loopback_output</title>
<path fill="none" stroke="black" d="M1502.37,-549.3C1524.24,-538.75 1556.78,-523.06 1582.28,-510.76"/>
<polygon fill="black" stroke="black" points="1583.84,-513.9 1591.33,-506.4 1580.8,-507.59 1583.84,-513.9"/>
</g>
<!-- sr6_output -->
<g id="node34" class="node">
<title>sr6_output</title>
<ellipse fill="none" stroke="black" cx="1340.7" cy="-487" rx="33.21" ry="18"/>
<text text-anchor="middle" x="1340.7" y="-484.2" font-family="sans" font-size="11.00">sr6_output</text>
</g>
<!-- ip6_output&#45;&gt;sr6_output -->
<g id="edge65" class="edge">
<title>ip6_output&#45;&gt;sr6_output</title>
<path fill="none" stroke="black" d="M1448.98,-551.61C1425.55,-540.33 1391.87,-521.78 1368.53,-507.29"/>
<polygon fill="black" stroke="black" points="1370.14,-504.17 1359.82,-501.77 1366.39,-510.08 1370.14,-504.17"/>
</g>
<!-- ip6_hold -->
<g id="node41" class="node">
<title>ip6_hold</title>
<ellipse fill="none" stroke="black" cx="1622.19" cy="-646" rx="27" ry="18"/>
<text text-anchor="middle" x="1622.19" y="-643.2" font-family="sans" font-size="11.00">ip6_hold</text>
</g>
<!-- ip6_output&#45;&gt;ip6_hold -->
<g id="edge63" class="edge">
<title>ip6_output&#45;&gt;ip6_hold</title>
<path fill="none" stroke="black" d="M1499.83,-573.91C1524.7,-588.68 1565.5,-612.92 1592.84,-629.16"/>
<polygon fill="black" stroke="black" points="1591.17,-632.24 1601.56,-634.34 1594.75,-626.22 1591.17,-632.24"/>
</g>
<!-- ndp_na_output&#45;&gt;icmp6_output -->
<g id="edge67" class="edge">
<title>ndp_na_output&#45;&gt;icmp6_output</title>
<path fill="none" stroke="black" d="M333.53,-653.1C424.88,-655.3 641.84,-660 823.93,-660 823.93,-660 823.93,-660 1086.8,-660 1156.63,-660 1237.3,-660 1288.39,-660"/>
<polygon fill="black" stroke="black" points="1288.52,-663.5 1298.52,-660 1288.52,-656.5 1288.52,-663.5"/>
</g>
<!-- control_output -->
<g id="node9" class="node">
<title>control_output</title>
<ellipse fill="none" stroke="black" cx="1753.16" cy="-773" rx="44.51" ry="18"/>
<text text-anchor="middle" x="1753.16" y="-770.2" font-family="sans" font-size="11.00">control_output</text>
</g>
<!-- eth_input -->
<g id="node10" class="node">
<title>eth_input</title>
<ellipse fill="none" stroke="black" cx="161.91" cy="-137" rx="29.12" ry="18"/>
<text text-anchor="middle" x="161.91" y="-134.2" font-family="sans" font-size="11.00">eth_input</text>
</g>
<!-- arp_input -->
<g id="node11" class="node">
<title>arp_input</title>
<ellipse fill="none" stroke="black" cx="824.93" cy="-110" rx="29.12" ry="18"/>
<text text-anchor="middle" x="824.93" y="-107.2" font-family="sans" font-size="11.00">arp_input</text>
</g>
<!-- eth_input&#45;&gt;arp_input -->
<g id="edge9" class="edge">
<title>eth_input&#45;&gt;arp_input</title>
<path fill="none" stroke="black" d="M190.77,-132.83C237.58,-126.21 335.06,-114 417.98,-114 417.98,-114 417.98,-114 564.52,-114 642.95,-114 734.69,-112.15 785.36,-110.97"/>
<polygon fill="black" stroke="black" points="785.62,-114.46 795.53,-110.72 785.45,-107.46 785.62,-114.46"/>
</g>
<!-- eth_input&#45;&gt;ip_input -->
<g id="edge10" class="edge">
<title>eth_input&#45;&gt;ip_input</title>
<path fill="none" stroke="black" d="M186.71,-146.77C255.19,-174.87 452.79,-255.96 530.54,-287.88"/>
<polygon fill="black" stroke="black" points="529.26,-291.13 539.84,-291.69 531.92,-284.66 529.26,-291.13"/>
</g>
<!-- eth_input&#45;&gt;ip6_input -->
<g id="edge11" class="edge">
<title>eth_input&#45;&gt;ip6_input</title>
<path fill="none" stroke="black" d="M170.15,-154.54C191.02,-205.1 251.39,-351.39 276.44,-412.1"/>
<polygon fill="black" stroke="black" points="273.24,-413.5 280.29,-421.41 279.71,-410.83 273.24,-413.5"/>
</g>
<!-- arp_input_request -->
<g id="node23" class="node">
<title>arp_input_request</title>
<ellipse fill="none" stroke="black" cx="956.99" cy="-56" rx="54.63" ry="18"/>
<text text-anchor="middle" x="956.99" y="-53.2" font-family="sans" font-size="11.00">arp_input_request</text>
</g>
<!-- arp_input&#45;&gt;arp_input_request -->
<g id="edge22" class="edge">
<title>arp_input&#45;&gt;arp_input_request</title>
<path fill="none" stroke="black" d="M849.79,-100.1C867.34,-92.81 891.69,-82.7 912.65,-74"/>
<polygon fill="black" stroke="black" points="914.11,-77.18 922,-70.11 911.42,-70.72 914.11,-77.18"/>
</g>
<!-- arp_input_reply -->
<g id="node24" class="node">
<title>arp_input_reply</title>
<ellipse fill="none" stroke="black" cx="956.99" cy="-110" rx="47.43" ry="18"/>
<text text-anchor="middle" x="956.99" y="-107.2" font-family="sans" font-size="11.00">arp_input_reply</text>
</g>
<!-- arp_input&#45;&gt;arp_input_reply -->
<g id="edge23" class="edge">
<title>arp_input&#45;&gt;arp_input_reply</title>
<path fill="none" stroke="black" d="M854.47,-110C867.72,-110 883.96,-110 899.53,-110"/>
<polygon fill="black" stroke="black" points="899.63,-113.5 909.63,-110 899.63,-106.5 899.63,-113.5"/>
</g>
<!-- ip_output -->
<g id="node20" class="node">
<title>ip_output</title>
<ellipse fill="none" stroke="black" cx="1211.35" cy="-278" rx="29.12" ry="18"/>
<text text-anchor="middle" x="1211.35" y="-275.2" font-family="sans" font-size="11.00">ip_output</text>
</g>
<!-- ip_input&#45;&gt;ip_output -->
<g id="edge36" class="edge">
<title>ip_input&#45;&gt;ip_output</title>
<path fill="none" stroke="black" d="M581.6,-287.34C599.75,-273.41 629.78,-252.05 658.68,-239 728.06,-207.68 747.81,-194 823.93,-194 823.93,-194 823.93,-194 957.99,-194 1042.23,-194 1134.56,-236.66 1180.67,-261.18"/>
<polygon fill="black" stroke="black" points="1179.07,-264.29 1189.53,-265.96 1182.4,-258.13 1179.07,-264.29"/>
</g>
<!-- dnat44 -->
<g id="node25" class="node">
<title>dnat44</title>
<ellipse fill="none" stroke="black" cx="703.18" cy="-278" rx="27" ry="18"/>
<text text-anchor="middle" x="703.18" y="-275.2" font-family="sans" font-size="11.00">dnat44</text>
</g>
<!-- ip_input&#45;&gt;dnat44 -->
<g id="edge38" class="edge">
<title>ip_input&#45;&gt;dnat44</title>
<path fill="none" stroke="black" d="M589.77,-296.78C611.27,-293.19 642.41,-287.99 666.47,-283.97"/>
<polygon fill="black" stroke="black" points="667.34,-287.37 676.63,-282.27 666.19,-280.47 667.34,-287.37"/>
</g>
<!-- ip_forward -->
<g id="node26" class="node">
<title>ip_forward</title>
<ellipse fill="none" stroke="black" cx="824.93" cy="-254" rx="32.63" ry="18"/>
<text text-anchor="middle" x="824.93" y="-251.2" font-family="sans" font-size="11.00">ip_forward</text>
</g>
<!-- ip_input&#45;&gt;ip_forward -->
<g id="edge35" class="edge">
<title>ip_input&#45;&gt;ip_forward</title>
<path fill="none" stroke="black" d="M582.53,-287.97C600.72,-275.68 630.12,-258.11 658.68,-251 700.31,-240.63 749.69,-243.4 783.56,-247.49"/>
<polygon fill="black" stroke="black" points="783.18,-250.97 793.55,-248.79 784.09,-244.03 783.18,-250.97"/>
</g>
<!-- ip_input_local -->
<g id="node27" class="node">
<title>ip_input_local</title>
<ellipse fill="none" stroke="black" cx="824.93" cy="-316" rx="41.49" ry="18"/>
<text text-anchor="middle" x="824.93" y="-313.2" font-family="sans" font-size="11.00">ip_input_local</text>
</g>
<!-- ip_input&#45;&gt;ip_input_local -->
<g id="edge37" class="edge">
<title>ip_input&#45;&gt;ip_input_local</title>
<path fill="none" stroke="black" d="M590.82,-302.52C633.54,-304.99 718.72,-309.92 773.43,-313.08"/>
<polygon fill="black" stroke="black" points="773.42,-316.59 783.61,-313.67 773.83,-309.6 773.42,-316.59"/>
</g>
<!-- ip6_input&#45;&gt;ip6_output -->
<g id="edge57" class="edge">
<title>ip6_input&#45;&gt;ip6_output</title>
<path fill="none" stroke="black" d="M305.13,-453.93C320.41,-467.78 344.92,-488 369.59,-500 425.25,-527.07 443.57,-523.42 504.37,-535 594.32,-552.14 945.27,-584 955.99,-584 955.99,-584 955.99,-584 1212.35,-584 1291.47,-584 1383.44,-573.6 1435.21,-566.79"/>
<polygon fill="black" stroke="black" points="1435.87,-570.23 1445.31,-565.43 1434.94,-563.29 1435.87,-570.23"/>
</g>
<!-- ip6_forward -->
<g id="node40" class="node">
<title>ip6_forward</title>
<ellipse fill="none" stroke="black" cx="703.18" cy="-446" rx="35.64" ry="18"/>
<text text-anchor="middle" x="703.18" y="-443.2" font-family="sans" font-size="11.00">ip6_forward</text>
</g>
<!-- ip6_input&#45;&gt;ip6_forward -->
<g id="edge56" class="edge">
<title>ip6_input&#45;&gt;ip6_forward</title>
<path fill="none" stroke="black" d="M316.95,-440.65C332.4,-441.51 352.07,-442.48 369.59,-443 472.38,-446.03 593.11,-446.3 657.08,-446.18"/>
<polygon fill="black" stroke="black" points="657.23,-449.68 667.22,-446.15 657.21,-442.68 657.23,-449.68"/>
</g>
<!-- ip6_input_local -->
<g id="node42" class="node">
<title>ip6_input_local</title>
<ellipse fill="none" stroke="black" cx="563.52" cy="-508" rx="45.09" ry="18"/>
<text text-anchor="middle" x="563.52" y="-505.2" font-family="sans" font-size="11.00">ip6_input_local</text>
</g>
<!-- ip6_input&#45;&gt;ip6_input_local -->
<g id="edge58" class="edge">
<title>ip6_input&#45;&gt;ip6_input_local</title>
<path fill="none" stroke="black" d="M310.34,-450.5C326.14,-458.77 348.67,-469.56 369.59,-476 415.61,-490.17 469.86,-498.46 509.09,-503.04"/>
<polygon fill="black" stroke="black" points="508.9,-506.54 519.23,-504.18 509.68,-499.58 508.9,-506.54"/>
</g>
<!-- sr6_local -->
<g id="node43" class="node">
<title>sr6_local</title>
<ellipse fill="none" stroke="black" cx="418.98" cy="-416" rx="27.86" ry="18"/>
<text text-anchor="middle" x="418.98" y="-413.2" font-family="sans" font-size="11.00">sr6_local</text>
</g>
<!-- ip6_input&#45;&gt;sr6_local -->
<g id="edge59" class="edge">
<title>ip6_input&#45;&gt;sr6_local</title>
<path fill="none" stroke="black" d="M312.8,-429.49C331.77,-424.56 358.93,-419.42 380.9,-416.46"/>
<polygon fill="black" stroke="black" points="381.39,-419.92 390.89,-415.23 380.54,-412.98 381.39,-419.92"/>
</g>
<!-- port_tx -->
<g id="node15" class="node">
<title>port_tx</title>
<ellipse fill="none" stroke="black" cx="1753.16" cy="-83" rx="27" ry="18"/>
<text text-anchor="middle" x="1753.16" y="-80.2" font-family="sans" font-size="11.00">port_tx</text>
</g>
<!-- eth_output&#45;&gt;port_tx -->
<g id="edge12" class="edge">
<title>eth_output&#45;&gt;port_tx</title>
<path fill="none" stroke="black" d="M1645.95,-143.12C1667.4,-130.98 1699.64,-112.72 1722.98,-99.52"/>
<polygon fill="black" stroke="black" points="1724.77,-102.52 1731.75,-94.55 1721.33,-96.43 1724.77,-102.52"/>
</g>
<!-- l1_xconnect -->
<g id="node16" class="node">
<title>l1_xconnect</title>
<ellipse fill="none" stroke="black" cx="288.55" cy="-18" rx="36.23" ry="18"/>
<text text-anchor="middle" x="288.55" y="-15.2" font-family="sans" font-size="11.00">l1_xconnect</text>
</g>
<!-- l1_xconnect&#45;&gt;port_tx -->
<g id="edge13" class="edge">
<title>l1_xconnect&#45;&gt;port_tx</title>
<path fill="none" stroke="black" d="M324.87,-16.3C376.9,-13.96 477.18,-10 562.52,-10 562.52,-10 562.52,-10 1478.1,-10 1568.81,-10 1670.89,-47.8 1721,-69"/>
<polygon fill="black" stroke="black" points="1719.74,-72.27 1730.31,-73 1722.5,-65.84 1719.74,-72.27"/>
</g>
<!-- loopback_output&#45;&gt;control_output -->
<g id="edge16" class="edge">
<title>loopback_output&#45;&gt;control_output</title>
<path fill="none" stroke="black" d="M1631.45,-510.01C1653.47,-557.98 1713.66,-689.12 1739.79,-746.04"/>
<polygon fill="black" stroke="black" points="1736.61,-747.52 1743.97,-755.14 1742.98,-744.6 1736.61,-747.52"/>
</g>
<!-- port_rx -->
<g id="node18" class="node">
<title>port_rx</title>
<ellipse fill="none" stroke="blue" stroke-width="2" cx="40.16" cy="-80" rx="27" ry="18"/>
<text text-anchor="middle" x="40.16" y="-77.2" font-family="sans" font-size="11.00">port_rx</text>
</g>
<!-- port_rx&#45;&gt;eth_input -->
<g id="edge17" class="edge">
<title>port_rx&#45;&gt;eth_input</title>
<path fill="none" stroke="blue" stroke-width="2" d="M62.57,-90.19C81.01,-98.97 107.88,-111.76 128.87,-121.75"/>
<polygon fill="blue" stroke="blue" stroke-width="2" points="127.52,-124.98 138.06,-126.12 130.53,-118.66 127.52,-124.98"/>
</g>
<!-- port_rx&#45;&gt;l1_xconnect -->
<g id="edge18" class="edge">
<title>port_rx&#45;&gt;l1_xconnect</title>
<path fill="none" stroke="blue" stroke-width="2" d="M65.69,-73.83C107.79,-63.23 194.28,-41.47 245.96,-28.47"/>
<polygon fill="blue" stroke="blue" stroke-width="2" points="246.96,-31.82 255.8,-25.99 245.25,-25.03 246.96,-31.82"/>
</g>
<!-- nh4_unreachable -->
<g id="node19" class="node">
<title>nh4_unreachable</title>
<ellipse fill="none" stroke="black" cx="1477.1" cy="-259" rx="52.2" ry="18"/>
<text text-anchor="middle" x="1477.1" y="-256.2" font-family="sans" font-size="11.00">nh4_unreachable</text>
</g>
<!-- nh4_unreachable&#45;&gt;ip_output -->
<g id="edge19" class="edge">
<title>nh4_unreachable&#45;&gt;ip_output</title>
<path fill="none" stroke="black" d="M1429.2,-251.91C1393.33,-247.69 1342.74,-244.32 1298.91,-251 1281.16,-253.7 1262.05,-259.35 1246.31,-264.79"/>
<polygon fill="black" stroke="black" points="1244.74,-261.64 1236.51,-268.3 1247.1,-268.23 1244.74,-261.64"/>
</g>
<!-- ip_output&#45;&gt;eth_output -->
<g id="edge42" class="edge">
<title>ip_output&#45;&gt;eth_output</title>
<path fill="none" stroke="black" d="M1235.57,-267.72C1252.84,-260.29 1277.09,-250.33 1298.91,-243 1398.88,-209.43 1519.57,-179.63 1581,-165.2"/>
<polygon fill="black" stroke="black" points="1582.12,-168.53 1591.06,-162.85 1580.52,-161.71 1582.12,-168.53"/>
</g>
<!-- ip_output&#45;&gt;loopback_output -->
<g id="edge44" class="edge">
<title>ip_output&#45;&gt;loopback_output</title>
<path fill="none" stroke="black" d="M1225.29,-294.17C1240.86,-312.55 1268.7,-342.18 1298.91,-359 1394.16,-412.04 1438.59,-373.47 1535.71,-423 1558.49,-434.61 1580.85,-452.99 1596.99,-467.85"/>
<polygon fill="black" stroke="black" points="1594.7,-470.51 1604.38,-474.83 1599.51,-465.42 1594.7,-470.51"/>
</g>
<!-- ip_hold -->
<g id="node30" class="node">
<title>ip_hold</title>
<ellipse fill="none" stroke="black" cx="1340.7" cy="-278" rx="27" ry="18"/>
<text text-anchor="middle" x="1340.7" y="-275.2" font-family="sans" font-size="11.00">ip_hold</text>
</g>
<!-- ip_output&#45;&gt;ip_hold -->
<g id="edge43" class="edge">
<title>ip_output&#45;&gt;ip_hold</title>
<path fill="none" stroke="black" d="M1240.93,-278C1259.33,-278 1283.41,-278 1303.19,-278"/>
<polygon fill="black" stroke="black" points="1303.38,-281.5 1313.38,-278 1303.38,-274.5 1303.38,-281.5"/>
</g>
<!-- ipip_output -->
<g id="node33" class="node">
<title>ipip_output</title>
<ellipse fill="none" stroke="black" cx="1340.7" cy="-332" rx="34.38" ry="18"/>
<text text-anchor="middle" x="1340.7" y="-329.2" font-family="sans" font-size="11.00">ipip_output</text>
</g>
<!-- ip_output&#45;&gt;ipip_output -->
<g id="edge45" class="edge">
<title>ip_output&#45;&gt;ipip_output</title>
<path fill="none" stroke="black" d="M1239.36,-283.82C1259.96,-291.14 1288.34,-303.11 1309.66,-313.43"/>
<polygon fill="black" stroke="black" points="1308.1,-316.57 1318.61,-317.89 1311.22,-310.3 1308.1,-316.57"/>
</g>
<!-- ip_output&#45;&gt;sr6_output -->
<g id="edge46" class="edge">
<title>ip_output&#45;&gt;sr6_output</title>
<path fill="none" stroke="black" d="M1222.55,-294.75C1244.76,-331.19 1297.59,-417.89 1324.04,-461.3"/>
<polygon fill="black" stroke="black" points="1321.07,-463.16 1329.26,-469.88 1327.05,-459.52 1321.07,-463.16"/>
</g>
<!-- arp_probe -->
<g id="node21" class="node">
<title>arp_probe</title>
<ellipse fill="none" stroke="black" cx="1085.8" cy="-110" rx="30.87" ry="18"/>
<text text-anchor="middle" x="1085.8" y="-107.2" font-family="sans" font-size="11.00">arp_probe</text>
</g>
<!-- arp_probe&#45;&gt;ip_output -->
<g id="edge20" class="edge">
<title>arp_probe&#45;&gt;ip_output</title>
<path fill="none" stroke="black" d="M1098.87,-126.41C1120.7,-156.1 1166.84,-218.84 1192.39,-253.58"/>
<polygon fill="black" stroke="black" points="1189.67,-255.78 1198.41,-261.77 1195.3,-251.64 1189.67,-255.78"/>
</g>
<!-- arp_output_reply -->
<g id="node22" class="node">
<title>arp_output_reply</title>
<ellipse fill="none" stroke="black" cx="1211.35" cy="-110" rx="51.62" ry="18"/>
<text text-anchor="middle" x="1211.35" y="-107.2" font-family="sans" font-size="11.00">arp_output_reply</text>
</g>
<!-- arp_probe&#45;&gt;arp_output_reply -->
<g id="edge21" class="edge">
<title>arp_probe&#45;&gt;arp_output_reply</title>
<path fill="none" stroke="black" d="M1117.02,-110C1126.87,-110 1138.17,-110 1149.44,-110"/>
<polygon fill="black" stroke="black" points="1149.74,-113.5 1159.74,-110 1149.74,-106.5 1149.74,-113.5"/>
</g>
<!-- arp_output_reply&#45;&gt;eth_output -->
<g id="edge26" class="edge">
<title>arp_output_reply&#45;&gt;eth_output</title>
<path fill="none" stroke="black" d="M1261.77,-113.91C1325.29,-119.15 1438.95,-129.3 1535.71,-142 1550.23,-143.91 1566.07,-146.39 1580.12,-148.73"/>
<polygon fill="black" stroke="black" points="1579.55,-152.18 1590,-150.4 1580.72,-145.28 1579.55,-152.18"/>
</g>
<!-- arp_input_request&#45;&gt;arp_probe -->
<g id="edge25" class="edge">
<title>arp_input_request&#45;&gt;arp_probe</title>
<path fill="none" stroke="black" d="M991.31,-70.19C1009.68,-78.01 1032.44,-87.7 1050.9,-95.57"/>
<polygon fill="black" stroke="black" points="1049.55,-98.79 1060.12,-99.49 1052.29,-92.35 1049.55,-98.79"/>
</g>
<!-- arp_input_reply&#45;&gt;arp_probe -->
<g id="edge24" class="edge">
<title>arp_input_reply&#45;&gt;arp_probe</title>
<path fill="none" stroke="black" d="M1004.49,-110C1017.52,-110 1031.58,-110 1044.24,-110"/>
<polygon fill="black" stroke="black" points="1044.49,-113.5 1054.49,-110 1044.49,-106.5 1044.49,-113.5"/>
</g>
<!-- dnat44&#45;&gt;ip_forward -->
<g id="edge28" class="edge">
<title>dnat44&#45;&gt;ip_forward</title>
<path fill="none" stroke="black" d="M729.29,-272.97C745.07,-269.81 765.78,-265.65 783.81,-262.04"/>
<polygon fill="black" stroke="black" points="784.66,-265.44 793.77,-260.04 783.28,-258.58 784.66,-265.44"/>
</g>
<!-- dnat44&#45;&gt;ip_input_local -->
<g id="edge29" class="edge">
<title>dnat44&#45;&gt;ip_input_local</title>
<path fill="none" stroke="black" d="M727.84,-285.51C743.02,-290.33 763.18,-296.72 781.12,-302.41"/>
<polygon fill="black" stroke="black" points="780.21,-305.8 790.8,-305.49 782.33,-299.13 780.21,-305.8"/>
</g>
<!-- ip_forward&#45;&gt;ip_output -->
<g id="edge33" class="edge">
<title>ip_forward&#45;&gt;ip_output</title>
<path fill="none" stroke="black" d="M857.39,-255.96C927.44,-260.34 1096.05,-270.86 1172.06,-275.61"/>
<polygon fill="black" stroke="black" points="1171.95,-279.11 1182.15,-276.24 1172.38,-272.12 1171.95,-279.11"/>
</g>
<!-- icmp_input -->
<g id="node28" class="node">
<title>icmp_input</title>
<ellipse fill="none" stroke="black" cx="956.99" cy="-300" rx="33.8" ry="18"/>
<text text-anchor="middle" x="956.99" y="-297.2" font-family="sans" font-size="11.00">icmp_input</text>
</g>
<!-- ip_input_local&#45;&gt;icmp_input -->
<g id="edge39" class="edge">
<title>ip_input_local&#45;&gt;icmp_input</title>
<path fill="none" stroke="black" d="M864.96,-311.2C880.42,-309.3 898.24,-307.1 913.99,-305.17"/>
<polygon fill="black" stroke="black" points="914.5,-308.63 923.99,-303.94 913.64,-301.68 914.5,-308.63"/>
</g>
<!-- ipip_input -->
<g id="node31" class="node">
<title>ipip_input</title>
<ellipse fill="none" stroke="black" cx="956.99" cy="-354" rx="29.7" ry="18"/>
<text text-anchor="middle" x="956.99" y="-351.2" font-family="sans" font-size="11.00">ipip_input</text>
</g>
<!-- ip_input_local&#45;&gt;ipip_input -->
<g id="edge40" class="edge">
<title>ip_input_local&#45;&gt;ipip_input</title>
<path fill="none" stroke="black" d="M859.76,-325.88C878.27,-331.29 901.18,-337.99 920.01,-343.49"/>
<polygon fill="black" stroke="black" points="919.14,-346.88 929.72,-346.32 921.1,-340.16 919.14,-346.88"/>
</g>
<!-- l4_input_local -->
<g id="node32" class="node">
<title>l4_input_local</title>
<ellipse fill="none" stroke="black" cx="956.99" cy="-446" rx="41.49" ry="18"/>
<text text-anchor="middle" x="956.99" y="-443.2" font-family="sans" font-size="11.00">l4_input_local</text>
</g>
<!-- ip_input_local&#45;&gt;l4_input_local -->
<g id="edge41" class="edge">
<title>ip_input_local&#45;&gt;l4_input_local</title>
<path fill="none" stroke="black" d="M842.4,-332.46C865.05,-355.1 905.95,-395.98 932,-422.01"/>
<polygon fill="black" stroke="black" points="929.7,-424.66 939.24,-429.26 934.65,-419.71 929.7,-424.66"/>
</g>
<!-- icmp_input&#45;&gt;icmp_output -->
<g id="edge30" class="edge">
<title>icmp_input&#45;&gt;icmp_output</title>
<path fill="none" stroke="black" d="M990.65,-300C1004.98,-300 1022.07,-300 1037.73,-300"/>
<polygon fill="black" stroke="black" points="1037.77,-303.5 1047.77,-300 1037.77,-296.5 1037.77,-303.5"/>
</g>
<!-- icmp_output&#45;&gt;ip_output -->
<g id="edge32" class="edge">
<title>icmp_output&#45;&gt;ip_output</title>
<path fill="none" stroke="black" d="M1121.54,-293.81C1137.47,-290.98 1156.38,-287.61 1172.65,-284.71"/>
<polygon fill="black" stroke="black" points="1173.67,-288.09 1182.9,-282.89 1172.44,-281.2 1173.67,-288.09"/>
</g>
<!-- ip_hold&#45;&gt;nh4_unreachable -->
<g id="edge34" class="edge">
<title>ip_hold&#45;&gt;nh4_unreachable</title>
<path fill="none" stroke="black" d="M1367.29,-274.38C1381.75,-272.34 1400.43,-269.7 1418.23,-267.18"/>
<polygon fill="black" stroke="black" points="1419.15,-270.59 1428.56,-265.72 1418.17,-263.65 1419.15,-270.59"/>
</g>
<!-- ipip_input&#45;&gt;ip_input -->
<g id="edge71" class="edge">
<title>ipip_input&#45;&gt;ip_input</title>
<path fill="none" stroke="black" d="M926.96,-352.99C892.65,-351.6 833.88,-348.61 783.69,-343 727.77,-336.76 713.89,-333.85 658.68,-323 638.85,-319.1 616.85,-314.01 599.11,-309.7"/>
<polygon fill="black" stroke="black" points="599.75,-306.25 589.2,-307.27 598.08,-313.05 599.75,-306.25"/>
</g>
<!-- l4_loopback_output -->
<g id="node44" class="node">
<title>l4_loopback_output</title>
<ellipse fill="none" stroke="black" cx="1477.1" cy="-450" rx="58.73" ry="18"/>
<text text-anchor="middle" x="1477.1" y="-447.2" font-family="sans" font-size="11.00">l4_loopback_output</text>
</g>
<!-- l4_input_local&#45;&gt;l4_loopback_output -->
<g id="edge73" class="edge">
<title>l4_input_local&#45;&gt;l4_loopback_output</title>
<path fill="none" stroke="black" d="M998.65,-446.31C1087.27,-447 1298.67,-448.63 1408.01,-449.47"/>
<polygon fill="black" stroke="black" points="1408.23,-452.98 1418.26,-449.55 1408.29,-445.98 1408.23,-452.98"/>
</g>
<!-- ipip_output&#45;&gt;ip_output -->
<g id="edge72" class="edge">
<title>ipip_output&#45;&gt;ip_output</title>
<path fill="none" stroke="black" d="M1308.75,-324.76C1288.01,-317.17 1260.89,-305.62 1240.71,-295.75"/>
<polygon fill="black" stroke="black" points="1242.2,-292.58 1231.69,-291.21 1239.05,-298.83 1242.2,-292.58"/>
</g>
<!-- sr6_output&#45;&gt;ip6_output -->
<g id="edge78" class="edge">
<title>sr6_output&#45;&gt;ip6_output</title>
<path fill="none" stroke="black" d="M1369.22,-496.58C1392.68,-507.91 1426.19,-526.38 1449.4,-540.79"/>
<polygon fill="black" stroke="black" points="1447.74,-543.88 1458.06,-546.29 1451.5,-537.97 1447.74,-543.88"/>
</g>
<!-- icmp6_input -->
<g id="node35" class="node">
<title>icmp6_input</title>
<ellipse fill="none" stroke="black" cx="1211.35" cy="-800" rx="37.4" ry="18"/>
<text text-anchor="middle" x="1211.35" y="-797.2" font-family="sans" font-size="11.00">icmp6_input</text>
</g>
<!-- icmp6_input&#45;&gt;control_output -->
<g id="edge51" class="edge">
<title>icmp6_input&#45;&gt;control_output</title>
<path fill="none" stroke="black" d="M1246.86,-794.08C1287.69,-787.4 1357.8,-776.96 1418.49,-773 1517.12,-766.57 1632.5,-768.71 1698.49,-770.85"/>
<polygon fill="black" stroke="black" points="1698.53,-774.36 1708.64,-771.2 1698.77,-767.36 1698.53,-774.36"/>
</g>
<!-- icmp6_input&#45;&gt;icmp6_output -->
<g id="edge47" class="edge">
<title>icmp6_input&#45;&gt;icmp6_output</title>
<path fill="none" stroke="black" d="M1227.21,-783.67C1249.52,-759.14 1291.81,-712.65 1317.7,-684.18"/>
<polygon fill="black" stroke="black" points="1320.4,-686.42 1324.54,-676.66 1315.22,-681.71 1320.4,-686.42"/>
</g>
<!-- ndp_ns_input -->
<g id="node37" class="node">
<title>ndp_ns_input</title>
<ellipse fill="none" stroke="black" cx="1477.1" cy="-892" rx="40.32" ry="18"/>
<text text-anchor="middle" x="1477.1" y="-889.2" font-family="sans" font-size="11.00">ndp_ns_input</text>
</g>
<!-- icmp6_input&#45;&gt;ndp_ns_input -->
<g id="edge48" class="edge">
<title>icmp6_input&#45;&gt;ndp_ns_input</title>
<path fill="none" stroke="black" d="M1230.23,-815.86C1246.85,-829.71 1272.89,-849.23 1298.91,-860 1340.05,-877.03 1390.26,-885.01 1426.72,-888.75"/>
<polygon fill="black" stroke="black" points="1426.8,-892.27 1437.09,-889.73 1427.47,-885.3 1426.8,-892.27"/>
</g>
<!-- ndp_na_input -->
<g id="node38" class="node">
<title>ndp_na_input</title>
<ellipse fill="none" stroke="black" cx="1622.19" cy="-844" rx="40.91" ry="18"/>
<text text-anchor="middle" x="1622.19" y="-841.2" font-family="sans" font-size="11.00">ndp_na_input</text>
</g>
<!-- icmp6_input&#45;&gt;ndp_na_input -->
<g id="edge49" class="edge">
<title>icmp6_input&#45;&gt;ndp_na_input</title>
<path fill="none" stroke="black" d="M1246.83,-806C1262.66,-808.65 1281.71,-811.68 1298.91,-814 1395.18,-827.01 1508.39,-836.13 1571.77,-840.68"/>
<polygon fill="black" stroke="black" points="1571.65,-844.18 1581.87,-841.4 1572.15,-837.2 1571.65,-844.18"/>
</g>
<!-- ndp_rs_input -->
<g id="node39" class="node">
<title>ndp_rs_input</title>
<ellipse fill="none" stroke="black" cx="1477.1" cy="-800" rx="39.15" ry="18"/>
<text text-anchor="middle" x="1477.1" y="-797.2" font-family="sans" font-size="11.00">ndp_rs_input</text>
</g>
<!-- icmp6_input&#45;&gt;ndp_rs_input -->
<g id="edge50" class="edge">
<title>icmp6_input&#45;&gt;ndp_rs_input</title>
<path fill="none" stroke="black" d="M1249.02,-800C1295.5,-800 1375.77,-800 1427.36,-800"/>
<polygon fill="black" stroke="black" points="1427.6,-803.5 1437.6,-800 1427.6,-796.5 1427.6,-803.5"/>
</g>
<!-- icmp6_output&#45;&gt;ip6_output -->
<g id="edge52" class="edge">
<title>icmp6_output&#45;&gt;ip6_output</title>
<path fill="none" stroke="black" d="M1362.7,-644.53C1385.78,-627.53 1422.96,-600.14 1448.41,-581.39"/>
<polygon fill="black" stroke="black" points="1450.58,-584.14 1456.56,-575.4 1446.43,-578.51 1450.58,-584.14"/>
</g>
<!-- ndp_ns_input&#45;&gt;control_output -->
<g id="edge68" class="edge">
<title>ndp_ns_input&#45;&gt;control_output</title>
<path fill="none" stroke="black" d="M1516.46,-896.13C1557.64,-898.76 1623.72,-897.63 1672.66,-871 1702.26,-854.89 1724.99,-822.76 1738.42,-799.68"/>
<polygon fill="black" stroke="black" points="1741.6,-801.16 1743.44,-790.72 1735.5,-797.74 1741.6,-801.16"/>
</g>
<!-- ndp_na_input&#45;&gt;control_output -->
<g id="edge66" class="edge">
<title>ndp_na_input&#45;&gt;control_output</title>
<path fill="none" stroke="black" d="M1648.36,-830.14C1667.86,-819.41 1695.12,-804.4 1716.81,-792.46"/>
<polygon fill="black" stroke="black" points="1718.65,-795.44 1725.72,-787.56 1715.27,-789.31 1718.65,-795.44"/>
</g>
<!-- ndp_rs_input&#45;&gt;control_output -->
<g id="edge70" class="edge">
<title>ndp_rs_input&#45;&gt;control_output</title>
<path fill="none" stroke="black" d="M1515.63,-796.3C1563.28,-791.61 1645.77,-783.48 1699.65,-778.17"/>
<polygon fill="black" stroke="black" points="1700.08,-781.65 1709.69,-777.18 1699.39,-774.68 1700.08,-781.65"/>
</g>
<!-- ip6_forward&#45;&gt;ip6_output -->
<g id="edge54" class="edge">
<title>ip6_forward&#45;&gt;ip6_output</title>
<path fill="none" stroke="black" d="M737.85,-451.02C862.71,-469.62 1299.12,-534.63 1435.23,-554.91"/>
<polygon fill="black" stroke="black" points="1434.84,-558.39 1445.25,-556.4 1435.87,-551.47 1434.84,-558.39"/>
</g>
<!-- ip6_hold&#45;&gt;control_output -->
<g id="edge55" class="edge">
<title>ip6_hold&#45;&gt;control_output</title>
<path fill="none" stroke="black" d="M1638.23,-660.82C1660.25,-682.49 1701.47,-723.09 1727.83,-749.04"/>
<polygon fill="black" stroke="black" points="1725.59,-751.75 1735.17,-756.27 1730.5,-746.76 1725.59,-751.75"/>
</g>
<!-- ip6_input_local&#45;&gt;l4_input_local -->
<g id="edge61" class="edge">
<title>ip6_input_local&#45;&gt;l4_input_local</title>
<path fill="none" stroke="black" d="M605.68,-501.48C678.67,-489.92 830.39,-465.89 908,-453.6"/>
<polygon fill="black" stroke="black" points="908.66,-457.04 917.99,-452.02 907.57,-450.13 908.66,-457.04"/>
</g>
<!-- ip6_input_local&#45;&gt;icmp6_input -->
<g id="edge60" class="edge">
<title>ip6_input_local&#45;&gt;icmp6_input</title>
<path fill="none" stroke="black" d="M605.05,-515.24C642.75,-522.65 700.1,-535.69 747.69,-554 918.67,-619.8 1106.95,-734.31 1179.51,-780.17"/>
<polygon fill="black" stroke="black" points="1177.85,-783.27 1188.17,-785.67 1181.6,-777.36 1177.85,-783.27"/>
</g>
<!-- sr6_local&#45;&gt;ip_input -->
<g id="edge75" class="edge">
<title>sr6_local&#45;&gt;ip_input</title>
<path fill="none" stroke="black" d="M441.86,-405.24C450.42,-400.67 460.13,-395.01 468.37,-389 495.41,-369.27 523.01,-342.54 541.27,-323.74"/>
<polygon fill="black" stroke="black" points="544.1,-325.84 548.5,-316.2 539.05,-321 544.1,-325.84"/>
</g>
<!-- sr6_local&#45;&gt;ip6_input -->
<g id="edge76" class="edge">
<title>sr6_local&#45;&gt;ip6_input</title>
<path fill="none" stroke="black" d="M395.07,-425.41C376.14,-430.36 348.89,-435.53 326.82,-438.52"/>
<polygon fill="black" stroke="black" points="326.28,-435.06 316.78,-439.76 327.14,-442 326.28,-435.06"/>
</g>
<!-- sr6_local&#45;&gt;ip6_input_local -->
<g id="edge77" class="edge">
<title>sr6_local&#45;&gt;ip6_input_local</title>
<path fill="none" stroke="black" d="M439.2,-428.41C462.52,-443.45 502.17,-469.05 530.21,-487.14"/>
<polygon fill="black" stroke="black" points="528.57,-490.25 538.87,-492.73 532.37,-484.37 528.57,-490.25"/>
</g>
<!-- l4_loopback_output&#45;&gt;loopback_output -->
<g id="edge74" class="edge">
<title>l4_loopback_output&#45;&gt;loopback_output</title>
<path fill="none" stroke="black" d="M1520.26,-462.37C1536.79,-467.23 1555.87,-472.83 1572.95,-477.84"/>
<polygon fill="black" stroke="black" points="1572.17,-481.26 1582.75,-480.72 1574.14,-474.54 1572.17,-481.26"/>
</g>
</g>
</svg>
