<?xml version="1.0" encoding="UTF-8" standalone="no"?>
<!DOCTYPE svg PUBLIC "-//W3C//DTD SVG 1.1//EN"
 "http://www.w3.org/Graphics/SVG/1.1/DTD/svg11.dtd">
<!-- Generated by graphviz version 12.1.0 (20240811.2233)
 -->
<!-- Title: gr&#45;0003 Pages: 1 -->
<svg width="1252pt" height="790pt"
 viewBox="0.00 0.00 1251.56 789.54" xmlns="http://www.w3.org/2000/svg" xmlns:xlink="http://www.w3.org/1999/xlink">
<g id="graph0" class="graph" transform="scale(1 1) rotate(0) translate(4 785.54)">
<title>gr&#45;0003</title>
<polygon fill="white" stroke="none" points="-4,4 -4,-785.54 1247.56,-785.54 1247.56,4 -4,4"/>
<!-- control_input -->
<g id="node1" class="node">
<title>control_input</title>
<ellipse fill="none" stroke="blue" stroke-width="2" cx="41.62" cy="-413.54" rx="41.62" ry="18"/>
<text text-anchor="middle" x="41.62" y="-409.84" font-family="sans" font-size="11.00">control_input</text>
</g>
<!-- loopback_input -->
<g id="node2" class="node">
<title>loopback_input</title>
<ellipse fill="none" stroke="black" cx="166.76" cy="-413.54" rx="47.52" ry="18"/>
<text text-anchor="middle" x="166.76" y="-409.84" font-family="sans" font-size="11.00">loopback_input</text>
</g>
<!-- control_input&#45;&gt;loopback_input -->
<g id="edge1" class="edge">
<title>control_input&#45;&gt;loopback_input</title>
<path fill="none" stroke="blue" stroke-width="2" d="M83.63,-413.54C91.33,-413.54 99.52,-413.54 107.63,-413.54"/>
<polygon fill="blue" stroke="blue" stroke-width="2" points="105.96,-417.04 115.96,-413.54 105.96,-410.04 105.96,-417.04"/>
</g>
<!-- arp_output_request -->
<g id="node3" class="node">
<title>arp_output_request</title>
<ellipse fill="none" stroke="black" cx="311.7" cy="-685.54" rx="61.42" ry="18"/>
<text text-anchor="middle" x="311.7" y="-681.84" font-family="sans" font-size="11.00">arp_output_request</text>
</g>
<!-- control_input&#45;&gt;arp_output_request -->
<g id="edge2" class="edge">
<title>control_input&#45;&gt;arp_output_request</title>
<path fill="none" stroke="blue" stroke-width="2" d="M51.68,-431.32C64.63,-455.73 90.1,-500.26 119.25,-532.54 167.18,-585.64 234.74,-634.99 275.46,-662.61"/>
<polygon fill="blue" stroke="blue" stroke-width="2" points="272.2,-664.63 282.45,-667.3 276.1,-658.82 272.2,-664.63"/>
</g>
<!-- icmp_local_send -->
<g id="node4" class="node">
<title>icmp_local_send</title>
<ellipse fill="none" stroke="black" cx="311.7" cy="-85.54" rx="51.31" ry="18"/>
<text text-anchor="middle" x="311.7" y="-81.84" font-family="sans" font-size="11.00">icmp_local_send</text>
</g>
<!-- control_input&#45;&gt;icmp_local_send -->
<g id="edge3" class="edge">
<title>control_input&#45;&gt;icmp_local_send</title>
<path fill="none" stroke="blue" stroke-width="2" d="M67.45,-399.3C72.98,-395.54 78.57,-391.21 83.25,-386.54 103.66,-366.16 102.66,-356.14 119.25,-332.54 175.53,-252.46 189.15,-231.98 250.28,-155.54 262.26,-140.57 276.21,-124.33 287.69,-111.27"/>
<polygon fill="blue" stroke="blue" stroke-width="2" points="289.18,-114.86 293.18,-105.05 283.94,-110.23 289.18,-114.86"/>
</g>
<!-- ndp_ns_output -->
<g id="node5" class="node">
<title>ndp_ns_output</title>
<ellipse fill="none" stroke="black" cx="166.76" cy="-505.54" rx="46.26" ry="18"/>
<text text-anchor="middle" x="166.76" y="-501.84" font-family="sans" font-size="11.00">ndp_ns_output</text>
</g>
<!-- control_input&#45;&gt;ndp_ns_output -->
<g id="edge4" class="edge">
<title>control_input&#45;&gt;ndp_ns_output</title>
<path fill="none" stroke="blue" stroke-width="2" d="M63.51,-429.15C83.21,-443.86 112.95,-466.08 135.29,-482.77"/>
<polygon fill="blue" stroke="blue" stroke-width="2" points="131.83,-484.56 141.93,-487.74 136.02,-478.95 131.83,-484.56"/>
</g>
<!-- ip_output -->
<g id="node6" class="node">
<title>ip_output</title>
<ellipse fill="none" stroke="black" cx="921.34" cy="-228.54" rx="30.25" ry="18"/>
<text text-anchor="middle" x="921.34" y="-224.84" font-family="sans" font-size="11.00">ip_output</text>
</g>
<!-- control_input&#45;&gt;ip_output -->
<g id="edge5" class="edge">
<title>control_input&#45;&gt;ip_output</title>
<path fill="none" stroke="blue" stroke-width="2" d="M69.77,-399.92C74.92,-396.22 79.78,-391.76 83.25,-386.54 130.34,-315.69 80.66,-274.36 119.25,-198.54 174.62,-89.73 188.61,-1.54 310.7,-1.54 310.7,-1.54 310.7,-1.54 456.79,-1.54 627.26,-1.54 693.15,17.47 831.92,-81.54 873.31,-111.07 898.81,-166.58 911.21,-200.29"/>
<polygon fill="blue" stroke="blue" stroke-width="2" points="907.29,-199.7 913.91,-207.96 913.89,-197.37 907.29,-199.7"/>
</g>
<!-- loopback_input&#45;&gt;ip_output -->
<g id="edge11" class="edge">
<title>loopback_input&#45;&gt;ip_output</title>
<path fill="none" stroke="black" d="M198.8,-399.88C204.56,-396.22 210.08,-391.79 214.28,-386.54 247.5,-345.07 214.92,-312.2 250.28,-272.54 301.74,-214.83 335.29,-224.53 409.11,-201.54 588.89,-145.55 650.66,-123.56 831.92,-174.54 854.64,-180.93 877.31,-194.96 894,-207.12"/>
<polygon fill="black" stroke="black" points="891.79,-209.84 901.88,-213.08 896.01,-204.26 891.79,-209.84"/>
</g>
<!-- ip_input_local -->
<g id="node14" class="node">
<title>ip_input_local</title>
<ellipse fill="none" stroke="black" cx="311.7" cy="-299.54" rx="42.89" ry="18"/>
<text text-anchor="middle" x="311.7" y="-295.84" font-family="sans" font-size="11.00">ip_input_local</text>
</g>
<!-- loopback_input&#45;&gt;ip_input_local -->
<g id="edge10" class="edge">
<title>loopback_input&#45;&gt;ip_input_local</title>
<path fill="none" stroke="black" d="M195.42,-398.76C201.78,-395.01 208.4,-390.83 214.28,-386.54 240.35,-367.54 267.4,-342.6 286.19,-324.29"/>
<polygon fill="black" stroke="black" points="288.46,-326.97 293.13,-317.46 283.55,-321.98 288.46,-326.97"/>
</g>
<!-- ip6_input_local -->
<g id="node15" class="node">
<title>ip6_input_local</title>
<ellipse fill="none" stroke="black" cx="455.79" cy="-459.54" rx="46.68" ry="18"/>
<text text-anchor="middle" x="455.79" y="-455.84" font-family="sans" font-size="11.00">ip6_input_local</text>
</g>
<!-- loopback_input&#45;&gt;ip6_input_local -->
<g id="edge12" class="edge">
<title>loopback_input&#45;&gt;ip6_input_local</title>
<path fill="none" stroke="black" d="M214.29,-414.84C256.2,-416.72 319.32,-421.31 373.11,-432.54 385.65,-435.16 398.95,-439.05 411.1,-443.07"/>
<polygon fill="black" stroke="black" points="409.85,-446.34 420.45,-446.28 412.12,-439.72 409.85,-446.34"/>
</g>
<!-- ip6_output -->
<g id="node16" class="node">
<title>ip6_output</title>
<ellipse fill="none" stroke="black" cx="921.34" cy="-566.54" rx="34.04" ry="18"/>
<text text-anchor="middle" x="921.34" y="-562.84" font-family="sans" font-size="11.00">ip6_output</text>
</g>
<!-- loopback_input&#45;&gt;ip6_output -->
<g id="edge13" class="edge">
<title>loopback_input&#45;&gt;ip6_output</title>
<path fill="none" stroke="black" d="M181.47,-430.86C196.36,-448.27 221.85,-474.23 250.28,-486.54 334.06,-522.8 363.51,-505.54 454.79,-505.54 454.79,-505.54 454.79,-505.54 611.41,-505.54 709.81,-505.54 822.57,-535.7 880.84,-553.6"/>
<polygon fill="black" stroke="black" points="879.71,-556.92 890.3,-556.56 881.8,-550.24 879.71,-556.92"/>
</g>
<!-- eth_output -->
<g id="node12" class="node">
<title>eth_output</title>
<ellipse fill="none" stroke="black" cx="1062.9" cy="-495.54" rx="34.89" ry="18"/>
<text text-anchor="middle" x="1062.9" y="-491.84" font-family="sans" font-size="11.00">eth_output</text>
</g>
<!-- arp_output_request&#45;&gt;eth_output -->
<g id="edge22" class="edge">
<title>arp_output_request&#45;&gt;eth_output</title>
<path fill="none" stroke="black" d="M341.59,-701.61C393.53,-728.94 506.81,-781.54 609.41,-781.54 609.41,-781.54 609.41,-781.54 776.14,-781.54 921.01,-781.54 1018.04,-595.62 1050.19,-523.58"/>
<polygon fill="black" stroke="black" points="1053.23,-525.38 1054.02,-514.82 1046.81,-522.58 1053.23,-525.38"/>
</g>
<!-- icmp_output -->
<g id="node23" class="node">
<title>icmp_output</title>
<ellipse fill="none" stroke="black" cx="610.41" cy="-85.54" rx="39.52" ry="18"/>
<text text-anchor="middle" x="610.41" y="-81.84" font-family="sans" font-size="11.00">icmp_output</text>
</g>
<!-- icmp_local_send&#45;&gt;icmp_output -->
<g id="edge25" class="edge">
<title>icmp_local_send&#45;&gt;icmp_output</title>
<path fill="none" stroke="black" d="M348.83,-72.9C366.72,-67.29 388.79,-61.33 409.11,-58.54 450.22,-52.89 461.29,-53.42 502.47,-58.54 523.91,-61.21 547.23,-66.77 566.61,-72.16"/>
<polygon fill="black" stroke="black" points="565.48,-75.47 576.06,-74.87 567.41,-68.75 565.48,-75.47"/>
</g>
<!-- ndp_ns_output&#45;&gt;ip6_output -->
<g id="edge55" class="edge">
<title>ndp_ns_output&#45;&gt;ip6_output</title>
<path fill="none" stroke="black" d="M207.95,-514.26C263.25,-525.48 366.07,-543.54 454.79,-543.54 454.79,-543.54 454.79,-543.54 611.41,-543.54 706.2,-543.54 816.9,-554.44 876.67,-561.24"/>
<polygon fill="black" stroke="black" points="876.09,-564.69 886.42,-562.36 876.89,-557.74 876.09,-564.69"/>
</g>
<!-- ip_output&#45;&gt;eth_output -->
<g id="edge36" class="edge">
<title>ip_output&#45;&gt;eth_output</title>
<path fill="none" stroke="black" d="M931.34,-245.93C947.29,-276.73 981.58,-342.84 1010.75,-398.54 1023.05,-422.02 1037.1,-448.65 1047.36,-468.06"/>
<polygon fill="black" stroke="black" points="1044.15,-469.49 1051.92,-476.7 1050.34,-466.22 1044.15,-469.49"/>
</g>
<!-- loopback_output -->
<g id="node17" class="node">
<title>loopback_output</title>
<ellipse fill="none" stroke="black" cx="1062.9" cy="-371.54" rx="52.15" ry="18"/>
<text text-anchor="middle" x="1062.9" y="-367.84" font-family="sans" font-size="11.00">loopback_output</text>
</g>
<!-- ip_output&#45;&gt;loopback_output -->
<g id="edge38" class="edge">
<title>ip_output&#45;&gt;loopback_output</title>
<path fill="none" stroke="black" d="M937.54,-244.12C961.46,-268.63 1008.13,-316.44 1037,-346.02"/>
<polygon fill="black" stroke="black" points="1034.44,-348.41 1043.93,-353.13 1039.45,-343.53 1034.44,-348.41"/>
</g>
<!-- ip_hold -->
<g id="node25" class="node">
<title>ip_hold</title>
<ellipse fill="none" stroke="black" cx="1062.9" cy="-282.54" rx="27" ry="18"/>
<text text-anchor="middle" x="1062.9" y="-278.84" font-family="sans" font-size="11.00">ip_hold</text>
</g>
<!-- ip_output&#45;&gt;ip_hold -->
<g id="edge37" class="edge">
<title>ip_output&#45;&gt;ip_hold</title>
<path fill="none" stroke="black" d="M947.29,-238.2C969.96,-246.97 1003.59,-259.98 1028.56,-269.64"/>
<polygon fill="black" stroke="black" points="1027.01,-272.8 1037.6,-273.14 1029.54,-266.27 1027.01,-272.8"/>
</g>
<!-- ipip_output -->
<g id="node30" class="node">
<title>ipip_output</title>
<ellipse fill="none" stroke="black" cx="1062.9" cy="-228.54" rx="35.73" ry="18"/>
<text text-anchor="middle" x="1062.9" y="-224.84" font-family="sans" font-size="11.00">ipip_output</text>
</g>
<!-- ip_output&#45;&gt;ipip_output -->
<g id="edge39" class="edge">
<title>ip_output&#45;&gt;ipip_output</title>
<path fill="none" stroke="black" d="M950.58,-222.99C969.69,-221.73 995.33,-221.46 1017.18,-222.19"/>
<polygon fill="black" stroke="black" points="1016.89,-225.68 1027.03,-222.62 1017.19,-218.69 1016.89,-225.68"/>
</g>
<!-- control_output -->
<g id="node7" class="node">
<title>control_output</title>
<ellipse fill="none" stroke="black" cx="1197.31" cy="-282.54" rx="46.26" ry="18"/>
<text text-anchor="middle" x="1197.31" y="-278.84" font-family="sans" font-size="11.00">control_output</text>
</g>
<!-- eth_input -->
<g id="node8" class="node">
<title>eth_input</title>
<ellipse fill="none" stroke="black" cx="166.76" cy="-359.54" rx="30.25" ry="18"/>
<text text-anchor="middle" x="166.76" y="-355.84" font-family="sans" font-size="11.00">eth_input</text>
</g>
<!-- arp_input -->
<g id="node9" class="node">
<title>arp_input</title>
<ellipse fill="none" stroke="black" cx="610.41" cy="-351.54" rx="30.25" ry="18"/>
<text text-anchor="middle" x="610.41" y="-347.84" font-family="sans" font-size="11.00">arp_input</text>
</g>
<!-- eth_input&#45;&gt;arp_input -->
<g id="edge6" class="edge">
<title>eth_input&#45;&gt;arp_input</title>
<path fill="none" stroke="black" d="M197.43,-359C274.35,-357.61 480.36,-353.88 568.49,-352.28"/>
<polygon fill="black" stroke="black" points="568.43,-355.78 578.36,-352.1 568.3,-348.79 568.43,-355.78"/>
</g>
<!-- ip_input -->
<g id="node10" class="node">
<title>ip_input</title>
<ellipse fill="none" stroke="black" cx="610.41" cy="-204.54" rx="27" ry="18"/>
<text text-anchor="middle" x="610.41" y="-200.84" font-family="sans" font-size="11.00">ip_input</text>
</g>
<!-- eth_input&#45;&gt;ip_input -->
<g id="edge7" class="edge">
<title>eth_input&#45;&gt;ip_input</title>
<path fill="none" stroke="black" d="M180.2,-342.93C195.12,-323.9 221.74,-292.75 250.28,-272.54 313.39,-227.86 333.49,-217.67 409.11,-201.54 465.15,-189.59 532.01,-194.26 572.56,-199.11"/>
<polygon fill="black" stroke="black" points="571.9,-202.56 582.26,-200.35 572.78,-195.61 571.9,-202.56"/>
</g>
<!-- ip6_input -->
<g id="node11" class="node">
<title>ip6_input</title>
<ellipse fill="none" stroke="black" cx="311.7" cy="-459.54" rx="29.41" ry="18"/>
<text text-anchor="middle" x="311.7" y="-455.84" font-family="sans" font-size="11.00">ip6_input</text>
</g>
<!-- eth_input&#45;&gt;ip6_input -->
<g id="edge8" class="edge">
<title>eth_input&#45;&gt;ip6_input</title>
<path fill="none" stroke="black" d="M189.87,-371.64C197.71,-376.12 206.51,-381.37 214.28,-386.54 238.66,-402.76 265.09,-422.96 284.1,-438.01"/>
<polygon fill="black" stroke="black" points="281.87,-440.7 291.87,-444.2 286.23,-435.23 281.87,-440.7"/>
</g>
<!-- arp_input_request -->
<g id="node19" class="node">
<title>arp_input_request</title>
<ellipse fill="none" stroke="black" cx="775.14" cy="-347.54" rx="56.78" ry="18"/>
<text text-anchor="middle" x="775.14" y="-343.84" font-family="sans" font-size="11.00">arp_input_request</text>
</g>
<!-- arp_input&#45;&gt;arp_input_request -->
<g id="edge16" class="edge">
<title>arp_input&#45;&gt;arp_input_request</title>
<path fill="none" stroke="black" d="M640.88,-350.82C659.29,-350.36 683.79,-349.76 706.76,-349.2"/>
<polygon fill="black" stroke="black" points="706.8,-352.7 716.71,-348.95 706.63,-345.7 706.8,-352.7"/>
</g>
<!-- arp_input_reply -->
<g id="node20" class="node">
<title>arp_input_reply</title>
<ellipse fill="none" stroke="black" cx="775.14" cy="-255.54" rx="48.78" ry="18"/>
<text text-anchor="middle" x="775.14" y="-251.84" font-family="sans" font-size="11.00">arp_input_reply</text>
</g>
<!-- arp_input&#45;&gt;arp_input_reply -->
<g id="edge17" class="edge">
<title>arp_input&#45;&gt;arp_input_reply</title>
<path fill="none" stroke="black" d="M637.8,-343.48C651.51,-338.8 668.28,-332.31 682.35,-324.54 705.39,-311.83 729.07,-293.88 746.61,-279.48"/>
<polygon fill="black" stroke="black" points="748.59,-282.38 754.02,-273.29 744.11,-277.01 748.59,-282.38"/>
</g>
<!-- ip_input&#45;&gt;ip_input_local -->
<g id="edge30" class="edge">
<title>ip_input&#45;&gt;ip_input_local</title>
<path fill="none" stroke="black" d="M583.06,-203.07C543.71,-201.83 467.95,-203.13 409.11,-226.54 381.79,-237.41 355.5,-258.25 337.29,-274.88"/>
<polygon fill="black" stroke="black" points="335.03,-272.21 330.14,-281.61 339.82,-277.31 335.03,-272.21"/>
</g>
<!-- ip_forward -->
<g id="node24" class="node">
<title>ip_forward</title>
<ellipse fill="none" stroke="black" cx="775.14" cy="-201.54" rx="33.62" ry="18"/>
<text text-anchor="middle" x="775.14" y="-197.84" font-family="sans" font-size="11.00">ip_forward</text>
</g>
<!-- ip_input&#45;&gt;ip_forward -->
<g id="edge29" class="edge">
<title>ip_input&#45;&gt;ip_forward</title>
<path fill="none" stroke="black" d="M637.56,-204.06C662.46,-203.6 700.43,-202.9 730.02,-202.35"/>
<polygon fill="black" stroke="black" points="729.87,-205.86 739.8,-202.17 729.74,-198.86 729.87,-205.86"/>
</g>
<!-- ip6_input&#45;&gt;ip6_input_local -->
<g id="edge46" class="edge">
<title>ip6_input&#45;&gt;ip6_input_local</title>
<path fill="none" stroke="black" d="M341.45,-459.54C357.51,-459.54 378.1,-459.54 397.32,-459.54"/>
<polygon fill="black" stroke="black" points="397.22,-463.04 407.22,-459.54 397.22,-456.04 397.22,-463.04"/>
</g>
<!-- ip6_forward -->
<g id="node35" class="node">
<title>ip6_forward</title>
<ellipse fill="none" stroke="black" cx="455.79" cy="-662.54" rx="37.41" ry="18"/>
<text text-anchor="middle" x="455.79" y="-658.84" font-family="sans" font-size="11.00">ip6_forward</text>
</g>
<!-- ip6_input&#45;&gt;ip6_forward -->
<g id="edge45" class="edge">
<title>ip6_input&#45;&gt;ip6_forward</title>
<path fill="none" stroke="black" d="M324.33,-476.15C348.93,-511.31 406.45,-593.47 436.21,-635.99"/>
<polygon fill="black" stroke="black" points="433.33,-637.99 441.93,-644.17 439.07,-633.97 433.33,-637.99"/>
</g>
<!-- port_tx -->
<g id="node13" class="node">
<title>port_tx</title>
<ellipse fill="none" stroke="black" cx="1197.31" cy="-495.54" rx="27" ry="18"/>
<text text-anchor="middle" x="1197.31" y="-491.84" font-family="sans" font-size="11.00">port_tx</text>
</g>
<!-- eth_output&#45;&gt;port_tx -->
<g id="edge9" class="edge">
<title>eth_output&#45;&gt;port_tx</title>
<path fill="none" stroke="black" d="M1098,-495.54C1116.53,-495.54 1139.48,-495.54 1158.55,-495.54"/>
<polygon fill="black" stroke="black" points="1158.33,-499.04 1168.33,-495.54 1158.33,-492.04 1158.33,-499.04"/>
</g>
<!-- icmp_input -->
<g id="node22" class="node">
<title>icmp_input</title>
<ellipse fill="none" stroke="black" cx="455.79" cy="-85.54" rx="34.89" ry="18"/>
<text text-anchor="middle" x="455.79" y="-81.84" font-family="sans" font-size="11.00">icmp_input</text>
</g>
<!-- ip_input_local&#45;&gt;icmp_input -->
<g id="edge31" class="edge">
<title>ip_input_local&#45;&gt;icmp_input</title>
<path fill="none" stroke="black" d="M324.33,-282.03C349.17,-244.61 407.55,-156.68 437.06,-112.25"/>
<polygon fill="black" stroke="black" points="439.95,-114.23 442.56,-103.96 434.12,-110.35 439.95,-114.23"/>
</g>
<!-- ipip_input -->
<g id="node26" class="node">
<title>ipip_input</title>
<ellipse fill="none" stroke="black" cx="455.79" cy="-253.54" rx="31.1" ry="18"/>
<text text-anchor="middle" x="455.79" y="-249.84" font-family="sans" font-size="11.00">ipip_input</text>
</g>
<!-- ip_input_local&#45;&gt;ipip_input -->
<g id="edge32" class="edge">
<title>ip_input_local&#45;&gt;ipip_input</title>
<path fill="none" stroke="black" d="M346.37,-288.64C367.62,-281.76 395.1,-272.87 417.07,-265.75"/>
<polygon fill="black" stroke="black" points="418.13,-269.09 426.56,-262.68 415.97,-262.43 418.13,-269.09"/>
</g>
<!-- tcp_redirect_loopback -->
<g id="node27" class="node">
<title>tcp_redirect_loopback</title>
<ellipse fill="none" stroke="black" cx="610.41" cy="-459.54" rx="68.57" ry="18"/>
<text text-anchor="middle" x="610.41" y="-455.84" font-family="sans" font-size="11.00">tcp_redirect_loopback</text>
</g>
<!-- ip_input_local&#45;&gt;tcp_redirect_loopback -->
<g id="edge33" class="edge">
<title>ip_input_local&#45;&gt;tcp_redirect_loopback</title>
<path fill="none" stroke="black" d="M335.32,-314.81C375.12,-341.22 460.84,-396.11 538.47,-432.54 544.65,-435.44 551.24,-438.28 557.82,-440.95"/>
<polygon fill="black" stroke="black" points="556.09,-444.03 566.67,-444.45 558.66,-437.52 556.09,-444.03"/>
</g>
<!-- udp_redirect_loopback -->
<g id="node28" class="node">
<title>udp_redirect_loopback</title>
<ellipse fill="none" stroke="black" cx="610.41" cy="-405.54" rx="70.26" ry="18"/>
<text text-anchor="middle" x="610.41" y="-401.84" font-family="sans" font-size="11.00">udp_redirect_loopback</text>
</g>
<!-- ip_input_local&#45;&gt;udp_redirect_loopback -->
<g id="edge34" class="edge">
<title>ip_input_local&#45;&gt;udp_redirect_loopback</title>
<path fill="none" stroke="black" d="M347.79,-309.57C386.24,-320.88 449.49,-340.47 502.47,-361.54 518.91,-368.08 522.19,-371.61 538.47,-378.54 544.83,-381.25 551.57,-383.98 558.26,-386.62"/>
<polygon fill="black" stroke="black" points="556.68,-389.76 567.27,-390.11 559.21,-383.23 556.68,-389.76"/>
</g>
<!-- sctp_redirect_loopback -->
<g id="node29" class="node">
<title>sctp_redirect_loopback</title>
<ellipse fill="none" stroke="black" cx="610.41" cy="-297.54" rx="71.94" ry="18"/>
<text text-anchor="middle" x="610.41" y="-293.84" font-family="sans" font-size="11.00">sctp_redirect_loopback</text>
</g>
<!-- ip_input_local&#45;&gt;sctp_redirect_loopback -->
<g id="edge35" class="edge">
<title>ip_input_local&#45;&gt;sctp_redirect_loopback</title>
<path fill="none" stroke="black" d="M354.9,-299.26C399.5,-298.96 470.99,-298.47 526.87,-298.1"/>
<polygon fill="black" stroke="black" points="526.69,-301.6 536.66,-298.03 526.64,-294.6 526.69,-301.6"/>
</g>
<!-- ip6_input_local&#45;&gt;tcp_redirect_loopback -->
<g id="edge48" class="edge">
<title>ip6_input_local&#45;&gt;tcp_redirect_loopback</title>
<path fill="none" stroke="black" d="M502.58,-459.54C511.26,-459.54 520.57,-459.54 529.94,-459.54"/>
<polygon fill="black" stroke="black" points="529.85,-463.04 539.85,-459.54 529.85,-456.04 529.85,-463.04"/>
</g>
<!-- ip6_input_local&#45;&gt;udp_redirect_loopback -->
<g id="edge49" class="edge">
<title>ip6_input_local&#45;&gt;udp_redirect_loopback</title>
<path fill="none" stroke="black" d="M491.04,-447.42C510.51,-440.53 535.3,-431.76 557.15,-424.03"/>
<polygon fill="black" stroke="black" points="558.25,-427.35 566.51,-420.72 555.92,-420.75 558.25,-427.35"/>
</g>
<!-- ip6_input_local&#45;&gt;sctp_redirect_loopback -->
<g id="edge50" class="edge">
<title>ip6_input_local&#45;&gt;sctp_redirect_loopback</title>
<path fill="none" stroke="black" d="M463.17,-441.64C474.23,-413.05 499.55,-357 538.47,-324.54 542.33,-321.32 546.62,-318.46 551.11,-315.92"/>
<polygon fill="black" stroke="black" points="552.48,-319.15 559.87,-311.55 549.36,-312.89 552.48,-319.15"/>
</g>
<!-- icmp6_input -->
<g id="node31" class="node">
<title>icmp6_input</title>
<ellipse fill="none" stroke="black" cx="610.41" cy="-589.54" rx="38.68" ry="18"/>
<text text-anchor="middle" x="610.41" y="-585.84" font-family="sans" font-size="11.00">icmp6_input</text>
</g>
<!-- ip6_input_local&#45;&gt;icmp6_input -->
<g id="edge47" class="edge">
<title>ip6_input_local&#45;&gt;icmp6_input</title>
<path fill="none" stroke="black" d="M476.12,-476.01C502.99,-498.89 551.74,-540.42 582.25,-566.41"/>
<polygon fill="black" stroke="black" points="579.68,-568.82 589.56,-572.64 584.22,-563.49 579.68,-568.82"/>
</g>
<!-- ip6_output&#45;&gt;eth_output -->
<g id="edge51" class="edge">
<title>ip6_output&#45;&gt;eth_output</title>
<path fill="none" stroke="black" d="M946.65,-554.17C968.92,-542.84 1002.15,-525.94 1027.21,-513.19"/>
<polygon fill="black" stroke="black" points="1028.73,-516.34 1036.05,-508.69 1025.55,-510.11 1028.73,-516.34"/>
</g>
<!-- ip6_output&#45;&gt;loopback_output -->
<g id="edge52" class="edge">
<title>ip6_output&#45;&gt;loopback_output</title>
<path fill="none" stroke="black" d="M934.48,-549.58C958.74,-515.68 1013.38,-439.33 1042.61,-398.5"/>
<polygon fill="black" stroke="black" points="1045.43,-400.57 1048.41,-390.4 1039.74,-396.49 1045.43,-400.57"/>
</g>
<!-- loopback_output&#45;&gt;control_output -->
<g id="edge14" class="edge">
<title>loopback_output&#45;&gt;control_output</title>
<path fill="none" stroke="black" d="M1087.88,-355.42C1109.01,-341.22 1139.98,-320.4 1163.42,-304.65"/>
<polygon fill="black" stroke="black" points="1165.35,-307.57 1171.7,-299.08 1161.44,-301.76 1165.35,-307.57"/>
</g>
<!-- port_rx -->
<g id="node18" class="node">
<title>port_rx</title>
<ellipse fill="none" stroke="blue" stroke-width="2" cx="41.62" cy="-359.54" rx="27" ry="18"/>
<text text-anchor="middle" x="41.62" y="-355.84" font-family="sans" font-size="11.00">port_rx</text>
</g>
<!-- port_rx&#45;&gt;eth_input -->
<g id="edge15" class="edge">
<title>port_rx&#45;&gt;eth_input</title>
<path fill="none" stroke="blue" stroke-width="2" d="M69.04,-359.54C85.35,-359.54 106.61,-359.54 125.04,-359.54"/>
<polygon fill="blue" stroke="blue" stroke-width="2" points="123.34,-363.04 133.34,-359.54 123.34,-356.04 123.34,-363.04"/>
</g>
<!-- arp_input_request&#45;&gt;ip_output -->
<g id="edge19" class="edge">
<title>arp_input_request&#45;&gt;ip_output</title>
<path fill="none" stroke="black" d="M796.8,-330.49C822.41,-309.36 866.08,-273.32 894.05,-250.24"/>
<polygon fill="black" stroke="black" points="896.23,-252.97 901.71,-243.91 891.77,-247.57 896.23,-252.97"/>
</g>
<!-- arp_output_reply -->
<g id="node21" class="node">
<title>arp_output_reply</title>
<ellipse fill="none" stroke="black" cx="921.34" cy="-421.54" rx="53.41" ry="18"/>
<text text-anchor="middle" x="921.34" y="-417.84" font-family="sans" font-size="11.00">arp_output_reply</text>
</g>
<!-- arp_input_request&#45;&gt;arp_output_reply -->
<g id="edge20" class="edge">
<title>arp_input_request&#45;&gt;arp_output_reply</title>
<path fill="none" stroke="black" d="M806.02,-362.87C827.72,-374.01 857.3,-389.19 880.93,-401.32"/>
<polygon fill="black" stroke="black" points="879.15,-404.34 889.64,-405.79 882.34,-398.11 879.15,-404.34"/>
</g>
<!-- arp_input_reply&#45;&gt;ip_output -->
<g id="edge18" class="edge">
<title>arp_input_reply&#45;&gt;ip_output</title>
<path fill="none" stroke="black" d="M819.4,-247.44C838.91,-243.79 861.8,-239.5 880.84,-235.94"/>
<polygon fill="black" stroke="black" points="881.46,-239.38 890.64,-234.1 880.17,-232.5 881.46,-239.38"/>
</g>
<!-- arp_output_reply&#45;&gt;eth_output -->
<g id="edge21" class="edge">
<title>arp_output_reply&#45;&gt;eth_output</title>
<path fill="none" stroke="black" d="M951.25,-436.87C973.51,-448.67 1004.33,-465.02 1027.79,-477.45"/>
<polygon fill="black" stroke="black" points="1025.86,-480.39 1036.33,-481.98 1029.14,-474.21 1025.86,-480.39"/>
</g>
<!-- icmp_input&#45;&gt;control_output -->
<g id="edge24" class="edge">
<title>icmp_input&#45;&gt;control_output</title>
<path fill="none" stroke="black" d="M483.47,-74.32C499.18,-68.33 519.59,-61.58 538.47,-58.54 601.6,-48.38 618.59,-53.67 682.35,-58.54 884.31,-73.98 947.02,-88.46 1115.05,-201.54 1137.85,-216.88 1159.67,-239.21 1174.95,-256.54"/>
<polygon fill="black" stroke="black" points="1172.15,-258.65 1181.33,-263.94 1177.45,-254.08 1172.15,-258.65"/>
</g>
<!-- icmp_input&#45;&gt;icmp_output -->
<g id="edge23" class="edge">
<title>icmp_input&#45;&gt;icmp_output</title>
<path fill="none" stroke="black" d="M491.04,-85.54C511.1,-85.54 536.79,-85.54 559.12,-85.54"/>
<polygon fill="black" stroke="black" points="558.92,-89.04 568.92,-85.54 558.92,-82.04 558.92,-89.04"/>
</g>
<!-- icmp_output&#45;&gt;ip_output -->
<g id="edge26" class="edge">
<title>icmp_output&#45;&gt;ip_output</title>
<path fill="none" stroke="black" d="M649.63,-82.88C695.9,-81.41 774.72,-84.7 831.92,-117.54 865.91,-137.05 891.8,-175.18 906.53,-201.25"/>
<polygon fill="black" stroke="black" points="903.4,-202.82 911.25,-209.93 909.55,-199.47 903.4,-202.82"/>
</g>
<!-- ip_forward&#45;&gt;ip_output -->
<g id="edge27" class="edge">
<title>ip_forward&#45;&gt;ip_output</title>
<path fill="none" stroke="black" d="M807.43,-207.4C828.97,-211.43 857.76,-216.82 880.87,-221.15"/>
<polygon fill="black" stroke="black" points="880.08,-224.56 890.55,-222.96 881.37,-217.68 880.08,-224.56"/>
</g>
<!-- ip_hold&#45;&gt;control_output -->
<g id="edge28" class="edge">
<title>ip_hold&#45;&gt;control_output</title>
<path fill="none" stroke="black" d="M1090.38,-282.54C1104.49,-282.54 1122.43,-282.54 1139.51,-282.54"/>
<polygon fill="black" stroke="black" points="1139.06,-286.04 1149.06,-282.54 1139.06,-279.04 1139.06,-286.04"/>
</g>
<!-- ipip_input&#45;&gt;ip_input -->
<g id="edge56" class="edge">
<title>ipip_input&#45;&gt;ip_input</title>
<path fill="none" stroke="black" d="M483.38,-245.01C508.75,-236.86 547.11,-224.54 574.84,-215.64"/>
<polygon fill="black" stroke="black" points="575.74,-219.03 584.2,-212.64 573.61,-212.36 575.74,-219.03"/>
</g>
<!-- tcp_redirect_loopback&#45;&gt;loopback_output -->
<g id="edge58" class="edge">
<title>tcp_redirect_loopback&#45;&gt;loopback_output</title>
<path fill="none" stroke="black" d="M668.57,-469.41C742.24,-479.57 872.94,-488.84 974.75,-448.54 1001.37,-438 1025.24,-415.52 1041.24,-397.55"/>
<polygon fill="black" stroke="black" points="1043.59,-400.18 1047.45,-390.31 1038.28,-395.62 1043.59,-400.18"/>
</g>
<!-- udp_redirect_loopback&#45;&gt;loopback_output -->
<g id="edge59" class="edge">
<title>udp_redirect_loopback&#45;&gt;loopback_output</title>
<path fill="none" stroke="black" d="M678.37,-400.49C765.33,-393.92 915.95,-382.56 1000.24,-376.19"/>
<polygon fill="black" stroke="black" points="1000.46,-379.69 1010.17,-375.45 999.93,-372.71 1000.46,-379.69"/>
</g>
<!-- sctp_redirect_loopback&#45;&gt;loopback_output -->
<g id="edge60" class="edge">
<title>sctp_redirect_loopback&#45;&gt;loopback_output</title>
<path fill="none" stroke="black" d="M679.72,-302.64C723.41,-306.4 781.2,-312.3 831.92,-320.54 893.27,-330.51 962.82,-346.61 1009.22,-358.06"/>
<polygon fill="black" stroke="black" points="1008.19,-361.41 1018.74,-360.42 1009.88,-354.62 1008.19,-361.41"/>
</g>
<!-- ipip_output&#45;&gt;ip_output -->
<g id="edge57" class="edge">
<title>ipip_output&#45;&gt;ip_output</title>
<path fill="none" stroke="black" d="M1028.54,-234.4C1008.56,-235.48 983.05,-235.58 962.04,-234.7"/>
<polygon fill="black" stroke="black" points="962.26,-231.21 952.09,-234.17 961.89,-238.2 962.26,-231.21"/>
</g>
<!-- icmp6_output -->
<g id="node32" class="node">
<title>icmp6_output</title>
<ellipse fill="none" stroke="black" cx="775.14" cy="-589.54" rx="43.31" ry="18"/>
<text text-anchor="middle" x="775.14" y="-585.84" font-family="sans" font-size="11.00">icmp6_output</text>
</g>
<!-- icmp6_input&#45;&gt;icmp6_output -->
<g id="edge40" class="edge">
<title>icmp6_input&#45;&gt;icmp6_output</title>
<path fill="none" stroke="black" d="M649.56,-589.54C670.54,-589.54 696.91,-589.54 719.98,-589.54"/>
<polygon fill="black" stroke="black" points="719.84,-593.04 729.84,-589.54 719.84,-586.04 719.84,-593.04"/>
</g>
<!-- ndp_ns_input -->
<g id="node33" class="node">
<title>ndp_ns_input</title>
<ellipse fill="none" stroke="black" cx="775.14" cy="-697.54" rx="41.62" ry="18"/>
<text text-anchor="middle" x="775.14" y="-693.84" font-family="sans" font-size="11.00">ndp_ns_input</text>
</g>
<!-- icmp6_input&#45;&gt;ndp_ns_input -->
<g id="edge41" class="edge">
<title>icmp6_input&#45;&gt;ndp_ns_input</title>
<path fill="none" stroke="black" d="M629.92,-605.36C650.63,-622.62 685.58,-650.47 718.35,-670.54 723.57,-673.74 729.23,-676.85 734.86,-679.75"/>
<polygon fill="black" stroke="black" points="733.03,-682.74 743.54,-684.05 736.14,-676.47 733.03,-682.74"/>
</g>
<!-- ndp_na_input -->
<g id="node34" class="node">
<title>ndp_na_input</title>
<ellipse fill="none" stroke="black" cx="775.14" cy="-643.54" rx="42.04" ry="18"/>
<text text-anchor="middle" x="775.14" y="-639.84" font-family="sans" font-size="11.00">ndp_na_input</text>
</g>
<!-- icmp6_input&#45;&gt;ndp_na_input -->
<g id="edge42" class="edge">
<title>icmp6_input&#45;&gt;ndp_na_input</title>
<path fill="none" stroke="black" d="M642.79,-599.95C667.74,-608.23 702.92,-619.91 730.6,-629.09"/>
<polygon fill="black" stroke="black" points="729.15,-632.3 739.75,-632.13 731.36,-625.66 729.15,-632.3"/>
</g>
<!-- icmp6_output&#45;&gt;ip6_output -->
<g id="edge43" class="edge">
<title>icmp6_output&#45;&gt;ip6_output</title>
<path fill="none" stroke="black" d="M815.92,-583.2C834.93,-580.16 857.71,-576.53 877.14,-573.43"/>
<polygon fill="black" stroke="black" points="877.61,-576.9 886.94,-571.87 876.51,-569.99 877.61,-576.9"/>
</g>
<!-- ndp_ns_input&#45;&gt;ip6_output -->
<g id="edge54" class="edge">
<title>ndp_ns_input&#45;&gt;ip6_output</title>
<path fill="none" stroke="black" d="M806.71,-685.54C815.3,-681.45 824.35,-676.4 831.92,-670.54 860.49,-648.43 886.39,-615.78 902.66,-592.98"/>
<polygon fill="black" stroke="black" points="905.51,-595.01 908.37,-584.81 899.77,-591 905.51,-595.01"/>
</g>
<!-- ndp_na_input&#45;&gt;ip6_output -->
<g id="edge53" class="edge">
<title>ndp_na_input&#45;&gt;ip6_output</title>
<path fill="none" stroke="black" d="M804.4,-630.29C813.27,-626.02 823.06,-621.19 831.92,-616.54 850.68,-606.71 871.29,-595.1 887.89,-585.55"/>
<polygon fill="black" stroke="black" points="889.44,-588.69 896.35,-580.65 885.94,-582.63 889.44,-588.69"/>
</g>
<!-- ip6_forward&#45;&gt;ip6_output -->
<g id="edge44" class="edge">
<title>ip6_forward&#45;&gt;ip6_output</title>
<path fill="none" stroke="black" d="M480.25,-676.33C542.36,-710.86 714.33,-793.49 831.92,-724.54 879.47,-696.66 903.36,-632.84 913.7,-595.4"/>
<polygon fill="black" stroke="black" points="916.97,-596.72 916.1,-586.16 910.2,-594.96 916.97,-596.72"/>
</g>
</g>
</svg>
