<?xml version="1.0" encoding="UTF-8" standalone="no"?>
<!DOCTYPE svg PUBLIC "-//W3C//DTD SVG 1.1//EN"
 "http://www.w3.org/Graphics/SVG/1.1/DTD/svg11.dtd">
<!-- Generated by graphviz version 13.1.2 (20250808.2320)
 -->
<!-- Title: grout Pages: 1 -->
<svg width="1506pt" height="1075pt"
 viewBox="0.00 0.00 1506.00 1075.00" xmlns="http://www.w3.org/2000/svg" xmlns:xlink="http://www.w3.org/1999/xlink">
<g id="graph0" class="graph" transform="scale(1 1) rotate(0) translate(4 1070.6)">
<title>grout</title>
<polygon fill="white" stroke="none" points="-4,4 -4,-1070.6 1501.94,-1070.6 1501.94,4 -4,4"/>
<!-- bond_output -->
<g id="node1" class="node">
<title>bond_output</title>
<ellipse fill="none" stroke="black" cx="1244.96" cy="-387" rx="39.94" ry="18"/>
<text xml:space="preserve" text-anchor="middle" x="1244.96" y="-383.3" font-family="sans" font-size="11.00">bond_output</text>
</g>
<!-- port_output -->
<g id="node2" class="node">
<title>port_output</title>
<ellipse fill="none" stroke="black" cx="1370.53" cy="-387" rx="37.41" ry="18"/>
<text xml:space="preserve" text-anchor="middle" x="1370.53" y="-383.3" font-family="sans" font-size="11.00">port_output</text>
</g>
<!-- bond_output&#45;&gt;port_output -->
<g id="edge1" class="edge">
<title>bond_output&#45;&gt;port_output</title>
<path fill="none" stroke="black" d="M1285.4,-387C1296.96,-387 1309.73,-387 1321.75,-387"/>
<polygon fill="black" stroke="black" points="1321.47,-390.5 1331.47,-387 1321.47,-383.5 1321.47,-390.5"/>
</g>
<!-- port_tx -->
<g id="node16" class="node">
<title>port_tx</title>
<ellipse fill="none" stroke="black" cx="1470.94" cy="-387" rx="27" ry="18"/>
<text xml:space="preserve" text-anchor="middle" x="1470.94" y="-383.3" font-family="sans" font-size="11.00">port_tx</text>
</g>
<!-- port_output&#45;&gt;port_tx -->
<g id="edge15" class="edge">
<title>port_output&#45;&gt;port_tx</title>
<path fill="none" stroke="black" d="M1408.17,-387C1416.1,-387 1424.5,-387 1432.46,-387"/>
<polygon fill="black" stroke="black" points="1432.2,-390.5 1442.2,-387 1432.2,-383.5 1432.2,-390.5"/>
</g>
<!-- eth_input -->
<g id="node3" class="node">
<title>eth_input</title>
<ellipse fill="none" stroke="black" cx="144.02" cy="-953" rx="30.25" ry="18"/>
<text xml:space="preserve" text-anchor="middle" x="144.02" y="-949.3" font-family="sans" font-size="11.00">eth_input</text>
</g>
<!-- snap_input -->
<g id="node4" class="node">
<title>snap_input</title>
<ellipse fill="none" stroke="black" cx="525.35" cy="-958" rx="34.89" ry="18"/>
<text xml:space="preserve" text-anchor="middle" x="525.35" y="-954.3" font-family="sans" font-size="11.00">snap_input</text>
</g>
<!-- eth_input&#45;&gt;snap_input -->
<g id="edge2" class="edge">
<title>eth_input&#45;&gt;snap_input</title>
<path fill="none" stroke="black" d="M174.62,-951.27C228.16,-948.43 344.63,-943.61 442.67,-949 454.76,-949.66 467.81,-950.88 479.86,-952.2"/>
<polygon fill="black" stroke="black" points="479.19,-955.65 489.53,-953.32 480,-948.7 479.19,-955.65"/>
</g>
<!-- lacp_input -->
<g id="node5" class="node">
<title>lacp_input</title>
<ellipse fill="none" stroke="black" cx="260.32" cy="-1030" rx="32.78" ry="18"/>
<text xml:space="preserve" text-anchor="middle" x="260.32" y="-1026.3" font-family="sans" font-size="11.00">lacp_input</text>
</g>
<!-- eth_input&#45;&gt;lacp_input -->
<g id="edge3" class="edge">
<title>eth_input&#45;&gt;lacp_input</title>
<path fill="none" stroke="black" d="M164.93,-966.41C182.74,-978.41 209.1,-996.16 229.44,-1009.87"/>
<polygon fill="black" stroke="black" points="227.37,-1012.69 237.62,-1015.38 231.28,-1006.89 227.37,-1012.69"/>
</g>
<!-- arp_input -->
<g id="node6" class="node">
<title>arp_input</title>
<ellipse fill="none" stroke="black" cx="260.32" cy="-976" rx="30.25" ry="18"/>
<text xml:space="preserve" text-anchor="middle" x="260.32" y="-972.3" font-family="sans" font-size="11.00">arp_input</text>
</g>
<!-- eth_input&#45;&gt;arp_input -->
<g id="edge4" class="edge">
<title>eth_input&#45;&gt;arp_input</title>
<path fill="none" stroke="black" d="M173.28,-958.69C187.53,-961.55 205.05,-965.08 220.54,-968.2"/>
<polygon fill="black" stroke="black" points="219.42,-971.54 229.91,-970.08 220.8,-964.68 219.42,-971.54"/>
</g>
<!-- ip_input -->
<g id="node7" class="node">
<title>ip_input</title>
<ellipse fill="none" stroke="black" cx="525.35" cy="-317" rx="27" ry="18"/>
<text xml:space="preserve" text-anchor="middle" x="525.35" y="-313.3" font-family="sans" font-size="11.00">ip_input</text>
</g>
<!-- eth_input&#45;&gt;ip_input -->
<g id="edge5" class="edge">
<title>eth_input&#45;&gt;ip_input</title>
<path fill="none" stroke="black" d="M144.98,-934.8C145.65,-878 153.86,-700.72 227.54,-581 292.29,-475.8 352.63,-489.58 442.67,-405 464.6,-384.4 487.77,-359.04 503.81,-340.85"/>
<polygon fill="black" stroke="black" points="506.13,-343.52 510.08,-333.69 500.86,-338.91 506.13,-343.52"/>
</g>
<!-- ip6_input -->
<g id="node8" class="node">
<title>ip6_input</title>
<ellipse fill="none" stroke="black" cx="260.32" cy="-608" rx="29.41" ry="18"/>
<text xml:space="preserve" text-anchor="middle" x="260.32" y="-604.3" font-family="sans" font-size="11.00">ip6_input</text>
</g>
<!-- eth_input&#45;&gt;ip6_input -->
<g id="edge6" class="edge">
<title>eth_input&#45;&gt;ip6_input</title>
<path fill="none" stroke="black" d="M150.85,-935.42C169.34,-879.6 226.84,-706.04 249.76,-636.87"/>
<polygon fill="black" stroke="black" points="253.07,-637.99 252.9,-627.4 246.43,-635.79 253.07,-637.99"/>
</g>
<!-- l2_redirect -->
<g id="node11" class="node">
<title>l2_redirect</title>
<ellipse fill="none" stroke="black" cx="1096.24" cy="-949" rx="34.04" ry="18"/>
<text xml:space="preserve" text-anchor="middle" x="1096.24" y="-945.3" font-family="sans" font-size="11.00">l2_redirect</text>
</g>
<!-- snap_input&#45;&gt;l2_redirect -->
<g id="edge18" class="edge">
<title>snap_input&#45;&gt;l2_redirect</title>
<path fill="none" stroke="black" d="M560.65,-957.46C658.81,-955.9 940.78,-951.44 1050.66,-949.71"/>
<polygon fill="black" stroke="black" points="1050.51,-953.21 1060.45,-949.55 1050.4,-946.21 1050.51,-953.21"/>
</g>
<!-- arp_input_request -->
<g id="node18" class="node">
<title>arp_input_request</title>
<ellipse fill="none" stroke="black" cx="385.89" cy="-976" rx="56.78" ry="18"/>
<text xml:space="preserve" text-anchor="middle" x="385.89" y="-972.3" font-family="sans" font-size="11.00">arp_input_request</text>
</g>
<!-- arp_input&#45;&gt;arp_input_request -->
<g id="edge19" class="edge">
<title>arp_input&#45;&gt;arp_input_request</title>
<path fill="none" stroke="black" d="M290.92,-976C299.04,-976 308.19,-976 317.51,-976"/>
<polygon fill="black" stroke="black" points="317.4,-979.5 327.4,-976 317.4,-972.5 317.4,-979.5"/>
</g>
<!-- arp_input_reply -->
<g id="node19" class="node">
<title>arp_input_reply</title>
<ellipse fill="none" stroke="black" cx="385.89" cy="-1030" rx="48.78" ry="18"/>
<text xml:space="preserve" text-anchor="middle" x="385.89" y="-1026.3" font-family="sans" font-size="11.00">arp_input_reply</text>
</g>
<!-- arp_input&#45;&gt;arp_input_reply -->
<g id="edge20" class="edge">
<title>arp_input&#45;&gt;arp_input_reply</title>
<path fill="none" stroke="black" d="M285.44,-986.54C301.8,-993.69 323.85,-1003.32 343.03,-1011.71"/>
<polygon fill="black" stroke="black" points="341.38,-1014.81 351.95,-1015.6 344.19,-1008.39 341.38,-1014.81"/>
</g>
<!-- ip_output -->
<g id="node25" class="node">
<title>ip_output</title>
<ellipse fill="none" stroke="black" cx="30.25" cy="-294" rx="30.25" ry="18"/>
<text xml:space="preserve" text-anchor="middle" x="30.25" y="-290.3" font-family="sans" font-size="11.00">ip_output</text>
</g>
<!-- ip_input&#45;&gt;ip_output -->
<g id="edge30" class="edge">
<title>ip_input&#45;&gt;ip_output</title>
<path fill="none" stroke="black" d="M504.47,-305.11C488.29,-295.85 464.62,-283.22 442.67,-275 335.02,-234.66 305.67,-226.88 191.54,-213 149.61,-207.9 134.61,-194.77 96.51,-213 73.42,-224.05 55.89,-247.7 44.85,-266.6"/>
<polygon fill="black" stroke="black" points="41.88,-264.74 40.11,-275.18 48.01,-268.12 41.88,-264.74"/>
</g>
<!-- ip_forward -->
<g id="node26" class="node">
<title>ip_forward</title>
<ellipse fill="none" stroke="black" cx="797.53" cy="-390" rx="33.62" ry="18"/>
<text xml:space="preserve" text-anchor="middle" x="797.53" y="-386.3" font-family="sans" font-size="11.00">ip_forward</text>
</g>
<!-- ip_input&#45;&gt;ip_forward -->
<g id="edge28" class="edge">
<title>ip_input&#45;&gt;ip_forward</title>
<path fill="none" stroke="black" d="M542.56,-331.21C558.18,-343.99 583.04,-362.1 608.02,-371 655.34,-387.86 713.28,-391.37 752.33,-391.45"/>
<polygon fill="black" stroke="black" points="752.32,-394.95 762.3,-391.39 752.28,-387.95 752.32,-394.95"/>
</g>
<!-- dnat44_dynamic -->
<g id="node29" class="node">
<title>dnat44_dynamic</title>
<ellipse fill="none" stroke="black" cx="663.12" cy="-290" rx="52.15" ry="18"/>
<text xml:space="preserve" text-anchor="middle" x="663.12" y="-286.3" font-family="sans" font-size="11.00">dnat44_dynamic</text>
</g>
<!-- ip_input&#45;&gt;dnat44_dynamic -->
<g id="edge29" class="edge">
<title>ip_input&#45;&gt;dnat44_dynamic</title>
<path fill="none" stroke="black" d="M551.57,-311.98C566.88,-308.94 587.07,-304.93 605.99,-301.16"/>
<polygon fill="black" stroke="black" points="606.64,-304.6 615.77,-299.22 605.28,-297.74 606.64,-304.6"/>
</g>
<!-- ip_input_local -->
<g id="node30" class="node">
<title>ip_input_local</title>
<ellipse fill="none" stroke="black" cx="797.53" cy="-336" rx="42.89" ry="18"/>
<text xml:space="preserve" text-anchor="middle" x="797.53" y="-332.3" font-family="sans" font-size="11.00">ip_input_local</text>
</g>
<!-- ip_input&#45;&gt;ip_input_local -->
<g id="edge31" class="edge">
<title>ip_input&#45;&gt;ip_input_local</title>
<path fill="none" stroke="black" d="M542.08,-302.47C557.54,-289.25 582.46,-270.68 608.02,-263 654.92,-248.9 672.65,-245.05 718.22,-263 742,-272.37 762.83,-292.74 777.02,-309.59"/>
<polygon fill="black" stroke="black" points="774.24,-311.72 783.24,-317.31 779.7,-307.33 774.24,-311.72"/>
</g>
<!-- dnat44_static -->
<g id="node31" class="node">
<title>dnat44_static</title>
<ellipse fill="none" stroke="black" cx="663.12" cy="-344" rx="43.31" ry="18"/>
<text xml:space="preserve" text-anchor="middle" x="663.12" y="-340.3" font-family="sans" font-size="11.00">dnat44_static</text>
</g>
<!-- ip_input&#45;&gt;dnat44_static -->
<g id="edge32" class="edge">
<title>ip_input&#45;&gt;dnat44_static</title>
<path fill="none" stroke="black" d="M551.57,-322.02C568.58,-325.4 591.62,-329.98 612.26,-334.08"/>
<polygon fill="black" stroke="black" points="611.45,-337.49 621.94,-336.01 612.81,-330.63 611.45,-337.49"/>
</g>
<!-- ip6_output -->
<g id="node43" class="node">
<title>ip6_output</title>
<ellipse fill="none" stroke="black" cx="938.25" cy="-684" rx="34.04" ry="18"/>
<text xml:space="preserve" text-anchor="middle" x="938.25" y="-680.3" font-family="sans" font-size="11.00">ip6_output</text>
</g>
<!-- ip6_input&#45;&gt;ip6_output -->
<g id="edge53" class="edge">
<title>ip6_input&#45;&gt;ip6_output</title>
<path fill="none" stroke="black" d="M277.87,-622.78C290.87,-633.53 309.91,-647.45 329.1,-655 491.71,-718.93 551.47,-658.82 718.22,-711 735.29,-716.34 736.81,-724.89 754.22,-729 791.69,-737.84 803.25,-737.34 840.83,-729 863.45,-723.98 887.04,-713.08 905.23,-703.27"/>
<polygon fill="black" stroke="black" points="906.91,-706.34 913.94,-698.41 903.5,-700.22 906.91,-706.34"/>
</g>
<!-- ip6_forward -->
<g id="node45" class="node">
<title>ip6_forward</title>
<ellipse fill="none" stroke="black" cx="385.89" cy="-554" rx="37.41" ry="18"/>
<text xml:space="preserve" text-anchor="middle" x="385.89" y="-550.3" font-family="sans" font-size="11.00">ip6_forward</text>
</g>
<!-- ip6_input&#45;&gt;ip6_forward -->
<g id="edge52" class="edge">
<title>ip6_input&#45;&gt;ip6_forward</title>
<path fill="none" stroke="black" d="M284.86,-597.72C302.42,-590.04 326.8,-579.39 347.08,-570.52"/>
<polygon fill="black" stroke="black" points="348.42,-573.76 356.18,-566.55 345.61,-567.34 348.42,-573.76"/>
</g>
<!-- ip6_input_local -->
<g id="node47" class="node">
<title>ip6_input_local</title>
<ellipse fill="none" stroke="black" cx="525.35" cy="-646" rx="46.68" ry="18"/>
<text xml:space="preserve" text-anchor="middle" x="525.35" y="-642.3" font-family="sans" font-size="11.00">ip6_input_local</text>
</g>
<!-- ip6_input&#45;&gt;ip6_input_local -->
<g id="edge54" class="edge">
<title>ip6_input&#45;&gt;ip6_input_local</title>
<path fill="none" stroke="black" d="M283.95,-619.15C296.86,-624.96 313.52,-631.55 329.1,-635 374.71,-645.09 427.7,-647.51 466.95,-647.59"/>
<polygon fill="black" stroke="black" points="466.91,-651.09 476.9,-647.56 466.88,-644.09 466.91,-651.09"/>
</g>
<!-- sr6_local -->
<g id="node48" class="node">
<title>sr6_local</title>
<ellipse fill="none" stroke="black" cx="385.89" cy="-608" rx="28.57" ry="18"/>
<text xml:space="preserve" text-anchor="middle" x="385.89" y="-604.3" font-family="sans" font-size="11.00">sr6_local</text>
</g>
<!-- ip6_input&#45;&gt;sr6_local -->
<g id="edge55" class="edge">
<title>ip6_input&#45;&gt;sr6_local</title>
<path fill="none" stroke="black" d="M288.75,-602.28C305.86,-601.13 328.12,-600.94 346.92,-601.72"/>
<polygon fill="black" stroke="black" points="346.7,-605.21 356.88,-602.26 347.08,-598.22 346.7,-605.21"/>
</g>
<!-- eth_output -->
<g id="node9" class="node">
<title>eth_output</title>
<ellipse fill="none" stroke="black" cx="1096.24" cy="-341" rx="34.89" ry="18"/>
<text xml:space="preserve" text-anchor="middle" x="1096.24" y="-337.3" font-family="sans" font-size="11.00">eth_output</text>
</g>
<!-- eth_output&#45;&gt;bond_output -->
<g id="edge7" class="edge">
<title>eth_output&#45;&gt;bond_output</title>
<path fill="none" stroke="black" d="M1126.58,-350.2C1147.73,-356.83 1176.63,-365.89 1200.47,-373.36"/>
<polygon fill="black" stroke="black" points="1199.32,-376.67 1209.91,-376.32 1201.42,-369.99 1199.32,-376.67"/>
</g>
<!-- eth_output&#45;&gt;port_output -->
<g id="edge8" class="edge">
<title>eth_output&#45;&gt;port_output</title>
<path fill="none" stroke="black" d="M1131.27,-341.53C1171.39,-342.78 1239.87,-346.85 1297.11,-360 1308.59,-362.64 1320.7,-366.64 1331.67,-370.76"/>
<polygon fill="black" stroke="black" points="1330.2,-373.94 1340.79,-374.32 1332.75,-367.42 1330.2,-373.94"/>
</g>
<!-- l1_xconnect -->
<g id="node10" class="node">
<title>l1_xconnect</title>
<ellipse fill="none" stroke="black" cx="525.35" cy="-1023" rx="38.25" ry="18"/>
<text xml:space="preserve" text-anchor="middle" x="525.35" y="-1019.3" font-family="sans" font-size="11.00">l1_xconnect</text>
</g>
<!-- l1_xconnect&#45;&gt;port_output -->
<g id="edge9" class="edge">
<title>l1_xconnect&#45;&gt;port_output</title>
<path fill="none" stroke="black" d="M563.48,-1020.98C615.55,-1018.33 713.22,-1014 796.53,-1014 796.53,-1014 796.53,-1014 1097.24,-1014 1361.11,-1014 1372.02,-541.02 1370.33,-416.66"/>
<polygon fill="black" stroke="black" points="1373.83,-416.87 1370.15,-406.94 1366.83,-417 1373.83,-416.87"/>
</g>
<!-- lacp_output -->
<g id="node12" class="node">
<title>lacp_output</title>
<ellipse fill="none" stroke="black" cx="938.25" cy="-418" rx="37.41" ry="18"/>
<text xml:space="preserve" text-anchor="middle" x="938.25" y="-414.3" font-family="sans" font-size="11.00">lacp_output</text>
</g>
<!-- lacp_output&#45;&gt;eth_output -->
<g id="edge10" class="edge">
<title>lacp_output&#45;&gt;eth_output</title>
<path fill="none" stroke="black" d="M967.09,-405.99C977.39,-401.43 989.12,-396.11 999.67,-391 1020.37,-380.97 1043.22,-369.05 1061.39,-359.36"/>
<polygon fill="black" stroke="black" points="1062.99,-362.47 1070.15,-354.66 1059.69,-356.3 1062.99,-362.47"/>
</g>
<!-- loopback_input -->
<g id="node13" class="node">
<title>loopback_input</title>
<ellipse fill="none" stroke="black" cx="144.02" cy="-240" rx="47.52" ry="18"/>
<text xml:space="preserve" text-anchor="middle" x="144.02" y="-236.3" font-family="sans" font-size="11.00">loopback_input</text>
</g>
<!-- loopback_input&#45;&gt;ip_input -->
<g id="edge11" class="edge">
<title>loopback_input&#45;&gt;ip_input</title>
<path fill="none" stroke="black" d="M186.7,-248.46C261.63,-263.67 417.84,-295.38 488.39,-309.7"/>
<polygon fill="black" stroke="black" points="487.37,-313.06 497.86,-311.62 488.76,-306.2 487.37,-313.06"/>
</g>
<!-- loopback_input&#45;&gt;ip6_input -->
<g id="edge12" class="edge">
<title>loopback_input&#45;&gt;ip6_input</title>
<path fill="none" stroke="black" d="M176.52,-253.32C182.24,-257 187.63,-261.53 191.54,-267 227.53,-317.35 249.36,-505.87 256.62,-578.87"/>
<polygon fill="black" stroke="black" points="253.1,-578.83 257.55,-588.44 260.06,-578.15 253.1,-578.83"/>
</g>
<!-- loopback_output -->
<g id="node14" class="node">
<title>loopback_output</title>
<ellipse fill="none" stroke="black" cx="1244.96" cy="-457" rx="52.15" ry="18"/>
<text xml:space="preserve" text-anchor="middle" x="1244.96" y="-453.3" font-family="sans" font-size="11.00">loopback_output</text>
</g>
<!-- loop_xvrf -->
<g id="node15" class="node">
<title>loop_xvrf</title>
<ellipse fill="none" stroke="black" cx="144.02" cy="-570" rx="29.83" ry="18"/>
<text xml:space="preserve" text-anchor="middle" x="144.02" y="-566.3" font-family="sans" font-size="11.00">loop_xvrf</text>
</g>
<!-- loop_xvrf&#45;&gt;ip_input -->
<g id="edge13" class="edge">
<title>loop_xvrf&#45;&gt;ip_input</title>
<path fill="none" stroke="black" d="M160,-554.42C175.93,-538.29 202.25,-512.87 227.54,-494 318.79,-425.91 437.85,-361.51 493.35,-332.74"/>
<polygon fill="black" stroke="black" points="494.63,-336.02 501.92,-328.32 491.43,-329.79 494.63,-336.02"/>
</g>
<!-- loop_xvrf&#45;&gt;ip6_input -->
<g id="edge14" class="edge">
<title>loop_xvrf&#45;&gt;ip6_input</title>
<path fill="none" stroke="black" d="M170.68,-578.53C186.12,-583.66 206.02,-590.28 223.05,-595.94"/>
<polygon fill="black" stroke="black" points="221.73,-599.19 232.32,-599.02 223.94,-592.55 221.73,-599.19"/>
</g>
<!-- port_rx -->
<g id="node17" class="node">
<title>port_rx</title>
<ellipse fill="none" stroke="blue" stroke-width="2" cx="30.25" cy="-1014" rx="27" ry="18"/>
<text xml:space="preserve" text-anchor="middle" x="30.25" y="-1010.3" font-family="sans" font-size="11.00">port_rx</text>
</g>
<!-- port_rx&#45;&gt;eth_input -->
<g id="edge16" class="edge">
<title>port_rx&#45;&gt;eth_input</title>
<path fill="none" stroke="blue" stroke-width="2" d="M51.75,-1002.81C68.34,-993.76 92,-980.85 111.08,-970.44"/>
<polygon fill="blue" stroke="blue" stroke-width="2" points="111.37,-974.26 118.47,-966.4 108.01,-968.12 111.37,-974.26"/>
</g>
<!-- port_rx&#45;&gt;l1_xconnect -->
<g id="edge17" class="edge">
<title>port_rx&#45;&gt;l1_xconnect</title>
<path fill="none" stroke="blue" stroke-width="2" d="M55.14,-1021.46C118.74,-1040.26 297.25,-1086.06 442.67,-1057 458.39,-1053.86 474.87,-1047.63 488.88,-1041.34"/>
<polygon fill="blue" stroke="blue" stroke-width="2" points="488.74,-1045.27 496.31,-1037.87 485.77,-1038.93 488.74,-1045.27"/>
</g>
<!-- arp_output_reply -->
<g id="node20" class="node">
<title>arp_output_reply</title>
<ellipse fill="none" stroke="black" cx="938.25" cy="-310" rx="53.41" ry="18"/>
<text xml:space="preserve" text-anchor="middle" x="938.25" y="-306.3" font-family="sans" font-size="11.00">arp_output_reply</text>
</g>
<!-- arp_output_reply&#45;&gt;eth_output -->
<g id="edge21" class="edge">
<title>arp_output_reply&#45;&gt;eth_output</title>
<path fill="none" stroke="black" d="M984.79,-319.05C1006.03,-323.27 1031.19,-328.27 1052.12,-332.43"/>
<polygon fill="black" stroke="black" points="1051.29,-335.83 1061.78,-334.35 1052.66,-328.97 1051.29,-335.83"/>
</g>
<!-- arp_output_request -->
<g id="node21" class="node">
<title>arp_output_request</title>
<ellipse fill="none" stroke="black" cx="938.25" cy="-256" rx="61.42" ry="18"/>
<text xml:space="preserve" text-anchor="middle" x="938.25" y="-252.3" font-family="sans" font-size="11.00">arp_output_request</text>
</g>
<!-- arp_output_request&#45;&gt;eth_output -->
<g id="edge22" class="edge">
<title>arp_output_request&#45;&gt;eth_output</title>
<path fill="none" stroke="black" d="M974.43,-270.83C982.8,-274.6 991.63,-278.79 999.67,-283 1021.71,-294.56 1045.66,-309.09 1064.06,-320.72"/>
<polygon fill="black" stroke="black" points="1062.08,-323.61 1072.4,-326.03 1065.84,-317.7 1062.08,-323.61"/>
</g>
<!-- icmp_input -->
<g id="node22" class="node">
<title>icmp_input</title>
<ellipse fill="none" stroke="black" cx="938.25" cy="-202" rx="34.89" ry="18"/>
<text xml:space="preserve" text-anchor="middle" x="938.25" y="-198.3" font-family="sans" font-size="11.00">icmp_input</text>
</g>
<!-- icmp_output -->
<g id="node23" class="node">
<title>icmp_output</title>
<ellipse fill="none" stroke="black" cx="1096.24" cy="-110" rx="39.52" ry="18"/>
<text xml:space="preserve" text-anchor="middle" x="1096.24" y="-106.3" font-family="sans" font-size="11.00">icmp_output</text>
</g>
<!-- icmp_input&#45;&gt;icmp_output -->
<g id="edge23" class="edge">
<title>icmp_input&#45;&gt;icmp_output</title>
<path fill="none" stroke="black" d="M962.27,-188.43C988.46,-172.98 1031.48,-147.6 1061.47,-129.91"/>
<polygon fill="black" stroke="black" points="1062.96,-133.1 1069.8,-125.01 1059.41,-127.07 1062.96,-133.1"/>
</g>
<!-- icmp_output&#45;&gt;ip_output -->
<g id="edge25" class="edge">
<title>icmp_output&#45;&gt;ip_output</title>
<path fill="none" stroke="black" d="M1063.72,-99.54C1045.25,-93.8 1021.36,-87.05 999.67,-83 911.4,-66.5 888.32,-64 798.53,-64 259.32,-64 259.32,-64 259.32,-64 176.42,-64 153.01,-94.35 96.51,-155 66.7,-187 48.3,-235.06 38.92,-265.47"/>
<polygon fill="black" stroke="black" points="35.66,-264.15 36.2,-274.73 42.38,-266.13 35.66,-264.15"/>
</g>
<!-- icmp_local_send -->
<g id="node24" class="node">
<title>icmp_local_send</title>
<ellipse fill="none" stroke="black" cx="938.25" cy="-110" rx="51.31" ry="18"/>
<text xml:space="preserve" text-anchor="middle" x="938.25" y="-106.3" font-family="sans" font-size="11.00">icmp_local_send</text>
</g>
<!-- icmp_local_send&#45;&gt;icmp_output -->
<g id="edge24" class="edge">
<title>icmp_local_send&#45;&gt;icmp_output</title>
<path fill="none" stroke="black" d="M989.9,-110C1007.7,-110 1027.68,-110 1045.42,-110"/>
<polygon fill="black" stroke="black" points="1045.19,-113.5 1055.19,-110 1045.19,-106.5 1045.19,-113.5"/>
</g>
<!-- ip_output&#45;&gt;eth_output -->
<g id="edge38" class="edge">
<title>ip_output&#45;&gt;eth_output</title>
<path fill="none" stroke="black" d="M38.87,-276.27C48.95,-254.94 68.74,-219.57 96.51,-200 157.78,-156.82 184.36,-156 259.32,-156 259.32,-156 259.32,-156 798.53,-156 888.32,-156 924.13,-126.45 999.67,-175 1048.97,-206.7 1075.69,-273.44 1087.55,-311.94"/>
<polygon fill="black" stroke="black" points="1084.17,-312.85 1090.34,-321.46 1090.89,-310.88 1084.17,-312.85"/>
</g>
<!-- ip_output&#45;&gt;loop_xvrf -->
<g id="edge41" class="edge">
<title>ip_output&#45;&gt;loop_xvrf</title>
<path fill="none" stroke="black" d="M34.82,-312.24C42.6,-349.76 63.1,-437.68 96.51,-505 103.56,-519.22 113.6,-533.72 122.55,-545.4"/>
<polygon fill="black" stroke="black" points="119.54,-547.23 128.48,-552.91 125.04,-542.89 119.54,-547.23"/>
</g>
<!-- ip_fragment -->
<g id="node27" class="node">
<title>ip_fragment</title>
<ellipse fill="none" stroke="black" cx="144.02" cy="-18" rx="38.25" ry="18"/>
<text xml:space="preserve" text-anchor="middle" x="144.02" y="-14.3" font-family="sans" font-size="11.00">ip_fragment</text>
</g>
<!-- ip_output&#45;&gt;ip_fragment -->
<g id="edge40" class="edge">
<title>ip_output&#45;&gt;ip_fragment</title>
<path fill="none" stroke="black" d="M31.7,-275.81C33.6,-231.12 43.65,-115.87 96.51,-41 98.14,-38.69 99.99,-36.49 102,-34.42"/>
<polygon fill="black" stroke="black" points="103.98,-37.34 109.21,-28.13 99.38,-32.07 103.98,-37.34"/>
</g>
<!-- ip_hold -->
<g id="node28" class="node">
<title>ip_hold</title>
<ellipse fill="none" stroke="black" cx="144.02" cy="-478" rx="27" ry="18"/>
<text xml:space="preserve" text-anchor="middle" x="144.02" y="-474.3" font-family="sans" font-size="11.00">ip_hold</text>
</g>
<!-- ip_output&#45;&gt;ip_hold -->
<g id="edge39" class="edge">
<title>ip_output&#45;&gt;ip_hold</title>
<path fill="none" stroke="black" d="M35.5,-312.12C43.33,-342.51 62.45,-404.48 96.51,-446 101.07,-451.57 106.85,-456.58 112.77,-460.89"/>
<polygon fill="black" stroke="black" points="110.52,-463.59 120.78,-466.23 114.4,-457.77 110.52,-463.59"/>
</g>
<!-- ip_loadbalance -->
<g id="node32" class="node">
<title>ip_loadbalance</title>
<ellipse fill="none" stroke="black" cx="144.02" cy="-348" rx="47.1" ry="18"/>
<text xml:space="preserve" text-anchor="middle" x="144.02" y="-344.3" font-family="sans" font-size="11.00">ip_loadbalance</text>
</g>
<!-- ip_output&#45;&gt;ip_loadbalance -->
<g id="edge42" class="edge">
<title>ip_output&#45;&gt;ip_loadbalance</title>
<path fill="none" stroke="black" d="M58.31,-301.19C74.25,-307.84 94.51,-317.53 111.21,-326.47"/>
<polygon fill="black" stroke="black" points="109.31,-329.42 119.76,-331.18 112.69,-323.29 109.31,-329.42"/>
</g>
<!-- ipip_output -->
<g id="node36" class="node">
<title>ipip_output</title>
<ellipse fill="none" stroke="black" cx="144.02" cy="-294" rx="35.73" ry="18"/>
<text xml:space="preserve" text-anchor="middle" x="144.02" y="-290.3" font-family="sans" font-size="11.00">ipip_output</text>
</g>
<!-- ip_output&#45;&gt;ipip_output -->
<g id="edge43" class="edge">
<title>ip_output&#45;&gt;ipip_output</title>
<path fill="none" stroke="black" d="M59.17,-288.07C71.17,-287.3 85.49,-287.07 98.87,-287.38"/>
<polygon fill="black" stroke="black" points="98.68,-290.88 108.8,-287.74 98.93,-283.88 98.68,-290.88"/>
</g>
<!-- sr6_output -->
<g id="node37" class="node">
<title>sr6_output</title>
<ellipse fill="none" stroke="black" cx="1096.24" cy="-630" rx="34.46" ry="18"/>
<text xml:space="preserve" text-anchor="middle" x="1096.24" y="-626.3" font-family="sans" font-size="11.00">sr6_output</text>
</g>
<!-- ip_output&#45;&gt;sr6_output -->
<g id="edge44" class="edge">
<title>ip_output&#45;&gt;sr6_output</title>
<path fill="none" stroke="black" d="M37.03,-311.9C45.81,-336.03 64.91,-378.45 96.51,-400 235.35,-494.7 678.83,-489.26 840.83,-534 920.58,-556.02 1010.36,-592.88 1059.07,-613.94"/>
<polygon fill="black" stroke="black" points="1057.44,-617.05 1068.01,-617.83 1060.24,-610.63 1057.44,-617.05"/>
</g>
<!-- ip_forward&#45;&gt;ip_output -->
<g id="edge26" class="edge">
<title>ip_forward&#45;&gt;ip_output</title>
<path fill="none" stroke="black" d="M763.78,-392.56C749.76,-393.53 733.2,-394.52 718.22,-395 669.27,-396.56 656.99,-395.96 608.02,-395 494.29,-392.78 198.14,-426.1 96.51,-375 73.64,-363.5 56.09,-339.9 44.98,-321.13"/>
<polygon fill="black" stroke="black" points="48.15,-319.64 40.21,-312.62 42.05,-323.06 48.15,-319.64"/>
</g>
<!-- ip_fragment&#45;&gt;ip_output -->
<g id="edge27" class="edge">
<title>ip_fragment&#45;&gt;ip_output</title>
<path fill="none" stroke="black" d="M125.65,-33.88C115.74,-40.5 103.86,-48.59 96.51,-59 51.25,-123.09 37.38,-216.79 33.13,-264.32"/>
<polygon fill="black" stroke="black" points="29.65,-263.88 32.35,-274.13 36.63,-264.44 29.65,-263.88"/>
</g>
<!-- dnat44_dynamic&#45;&gt;ip_forward -->
<g id="edge73" class="edge">
<title>dnat44_dynamic&#45;&gt;ip_forward</title>
<path fill="none" stroke="black" d="M697.58,-303.79C704.76,-307.52 712.04,-311.95 718.22,-317 738.33,-333.42 735,-345.54 754.22,-363 757.3,-365.8 760.71,-368.5 764.21,-371.03"/>
<polygon fill="black" stroke="black" points="762.05,-373.79 772.3,-376.47 765.95,-367.98 762.05,-373.79"/>
</g>
<!-- dnat44_dynamic&#45;&gt;ip_input_local -->
<g id="edge74" class="edge">
<title>dnat44_dynamic&#45;&gt;ip_input_local</title>
<path fill="none" stroke="black" d="M701,-302.81C717.2,-308.44 736.33,-315.09 753.2,-320.95"/>
<polygon fill="black" stroke="black" points="751.88,-324.19 762.47,-324.17 754.17,-317.58 751.88,-324.19"/>
</g>
<!-- ip_input_local&#45;&gt;icmp_input -->
<g id="edge34" class="edge">
<title>ip_input_local&#45;&gt;icmp_input</title>
<path fill="none" stroke="black" d="M807.67,-318.25C820.41,-295.02 845.5,-254.32 876.83,-229 883.09,-223.94 890.44,-219.64 897.82,-216.04"/>
<polygon fill="black" stroke="black" points="899.07,-219.32 906.79,-212.05 896.23,-212.92 899.07,-219.32"/>
</g>
<!-- ipip_input -->
<g id="node33" class="node">
<title>ipip_input</title>
<ellipse fill="none" stroke="black" cx="938.25" cy="-364" rx="31.1" ry="18"/>
<text xml:space="preserve" text-anchor="middle" x="938.25" y="-360.3" font-family="sans" font-size="11.00">ipip_input</text>
</g>
<!-- ip_input_local&#45;&gt;ipip_input -->
<g id="edge35" class="edge">
<title>ip_input_local&#45;&gt;ipip_input</title>
<path fill="none" stroke="black" d="M836.8,-343.73C855.62,-347.52 878.28,-352.1 897.32,-355.94"/>
<polygon fill="black" stroke="black" points="896.36,-359.32 906.86,-357.87 897.75,-352.46 896.36,-359.32"/>
</g>
<!-- l4_input_local -->
<g id="node34" class="node">
<title>l4_input_local</title>
<ellipse fill="none" stroke="black" cx="938.25" cy="-472" rx="42.89" ry="18"/>
<text xml:space="preserve" text-anchor="middle" x="938.25" y="-468.3" font-family="sans" font-size="11.00">l4_input_local</text>
</g>
<!-- ip_input_local&#45;&gt;l4_input_local -->
<g id="edge36" class="edge">
<title>ip_input_local&#45;&gt;l4_input_local</title>
<path fill="none" stroke="black" d="M825.47,-349.81C831.05,-353.55 836.53,-357.97 840.83,-363 866.73,-393.23 848.78,-416.76 876.83,-445 881.4,-449.59 886.88,-453.48 892.66,-456.73"/>
<polygon fill="black" stroke="black" points="890.68,-459.66 901.19,-460.97 893.79,-453.39 890.68,-459.66"/>
</g>
<!-- ospf_redirect -->
<g id="node35" class="node">
<title>ospf_redirect</title>
<ellipse fill="none" stroke="black" cx="938.25" cy="-922" rx="41.62" ry="18"/>
<text xml:space="preserve" text-anchor="middle" x="938.25" y="-918.3" font-family="sans" font-size="11.00">ospf_redirect</text>
</g>
<!-- ip_input_local&#45;&gt;ospf_redirect -->
<g id="edge37" class="edge">
<title>ip_input_local&#45;&gt;ospf_redirect</title>
<path fill="none" stroke="black" d="M827.14,-349.22C832.48,-352.94 837.45,-357.51 840.83,-363 881.67,-429.16 862.08,-634.67 876.83,-711 889.64,-777.23 913.62,-852.76 927.2,-893.06"/>
<polygon fill="black" stroke="black" points="923.88,-894.15 930.41,-902.48 930.5,-891.89 923.88,-894.15"/>
</g>
<!-- dnat44_static&#45;&gt;ip_forward -->
<g id="edge75" class="edge">
<title>dnat44_static&#45;&gt;ip_forward</title>
<path fill="none" stroke="black" d="M697.19,-355.49C715.63,-361.9 738.69,-369.91 757.95,-376.6"/>
<polygon fill="black" stroke="black" points="756.77,-379.89 767.36,-379.87 759.06,-373.28 756.77,-379.89"/>
</g>
<!-- dnat44_static&#45;&gt;ip_input_local -->
<g id="edge76" class="edge">
<title>dnat44_static&#45;&gt;ip_input_local</title>
<path fill="none" stroke="black" d="M706.38,-341.45C718.2,-340.73 731.2,-339.95 743.55,-339.2"/>
<polygon fill="black" stroke="black" points="743.39,-342.72 753.16,-338.62 742.97,-335.73 743.39,-342.72"/>
</g>
<!-- ip_loadbalance&#45;&gt;ip_output -->
<g id="edge33" class="edge">
<title>ip_loadbalance&#45;&gt;ip_output</title>
<path fill="none" stroke="black" d="M106.45,-336.71C91.17,-329.94 73.7,-321.35 59.44,-313.57"/>
<polygon fill="black" stroke="black" points="61.46,-310.69 51.03,-308.83 58.02,-316.79 61.46,-310.69"/>
</g>
<!-- ipip_input&#45;&gt;ip_input -->
<g id="edge67" class="edge">
<title>ipip_input&#45;&gt;ip_input</title>
<path fill="none" stroke="black" d="M911.58,-354.14C900.58,-349.51 887.77,-343.56 876.83,-337 859.46,-326.57 857.96,-319.85 840.83,-309 789.25,-276.32 777.62,-261.16 718.22,-247 670.58,-235.64 653.96,-230.01 608.02,-247 583.49,-256.07 561.35,-276.17 546.33,-292.52"/>
<polygon fill="black" stroke="black" points="543.74,-290.16 539.75,-299.98 548.99,-294.79 543.74,-290.16"/>
</g>
<!-- l4_loopback_output -->
<g id="node52" class="node">
<title>l4_loopback_output</title>
<ellipse fill="none" stroke="black" cx="1096.24" cy="-457" rx="60.57" ry="18"/>
<text xml:space="preserve" text-anchor="middle" x="1096.24" y="-453.3" font-family="sans" font-size="11.00">l4_loopback_output</text>
</g>
<!-- l4_input_local&#45;&gt;l4_loopback_output -->
<g id="edge69" class="edge">
<title>l4_input_local&#45;&gt;l4_loopback_output</title>
<path fill="none" stroke="black" d="M980.23,-468.06C994.47,-466.69 1010.85,-465.11 1026.7,-463.59"/>
<polygon fill="black" stroke="black" points="1026.98,-467.08 1036.6,-462.64 1026.31,-460.11 1026.98,-467.08"/>
</g>
<!-- dhcp_input -->
<g id="node53" class="node">
<title>dhcp_input</title>
<ellipse fill="none" stroke="black" cx="1096.24" cy="-511" rx="34.89" ry="18"/>
<text xml:space="preserve" text-anchor="middle" x="1096.24" y="-507.3" font-family="sans" font-size="11.00">dhcp_input</text>
</g>
<!-- l4_input_local&#45;&gt;dhcp_input -->
<g id="edge70" class="edge">
<title>l4_input_local&#45;&gt;dhcp_input</title>
<path fill="none" stroke="black" d="M975.82,-481.14C998.99,-486.94 1029.02,-494.44 1053.18,-500.48"/>
<polygon fill="black" stroke="black" points="1052.14,-503.83 1062.69,-502.86 1053.84,-497.04 1052.14,-503.83"/>
</g>
<!-- ospf_redirect&#45;&gt;l2_redirect -->
<g id="edge72" class="edge">
<title>ospf_redirect&#45;&gt;l2_redirect</title>
<path fill="none" stroke="black" d="M977.41,-928.6C1000.12,-932.54 1028.99,-937.53 1052.47,-941.6"/>
<polygon fill="black" stroke="black" points="1051.57,-944.99 1062.02,-943.25 1052.77,-938.1 1051.57,-944.99"/>
</g>
<!-- ipip_output&#45;&gt;ip_output -->
<g id="edge68" class="edge">
<title>ipip_output&#45;&gt;ip_output</title>
<path fill="none" stroke="black" d="M110.31,-300.21C97.89,-300.82 83.61,-300.92 70.63,-300.48"/>
<polygon fill="black" stroke="black" points="70.84,-296.99 60.68,-300.01 70.5,-303.98 70.84,-296.99"/>
</g>
<!-- sr6_output&#45;&gt;ip6_output -->
<g id="edge80" class="edge">
<title>sr6_output&#45;&gt;ip6_output</title>
<path fill="none" stroke="black" d="M1071.96,-643.04C1048.24,-653.15 1010.9,-666.45 981.87,-675.34"/>
<polygon fill="black" stroke="black" points="981.23,-671.88 972.64,-678.08 983.23,-678.58 981.23,-671.88"/>
</g>
<!-- icmp6_input -->
<g id="node38" class="node">
<title>icmp6_input</title>
<ellipse fill="none" stroke="black" cx="663.12" cy="-646" rx="38.68" ry="18"/>
<text xml:space="preserve" text-anchor="middle" x="663.12" y="-642.3" font-family="sans" font-size="11.00">icmp6_input</text>
</g>
<!-- icmp6_output -->
<g id="node39" class="node">
<title>icmp6_output</title>
<ellipse fill="none" stroke="black" cx="797.53" cy="-794" rx="43.31" ry="18"/>
<text xml:space="preserve" text-anchor="middle" x="797.53" y="-790.3" font-family="sans" font-size="11.00">icmp6_output</text>
</g>
<!-- icmp6_input&#45;&gt;icmp6_output -->
<g id="edge45" class="edge">
<title>icmp6_input&#45;&gt;icmp6_output</title>
<path fill="none" stroke="black" d="M679.05,-662.69C702.2,-688.56 746.88,-738.51 773.98,-768.79"/>
<polygon fill="black" stroke="black" points="771.16,-770.9 780.44,-776.02 776.38,-766.23 771.16,-770.9"/>
</g>
<!-- ndp_ns_input -->
<g id="node40" class="node">
<title>ndp_ns_input</title>
<ellipse fill="none" stroke="black" cx="797.53" cy="-702" rx="41.62" ry="18"/>
<text xml:space="preserve" text-anchor="middle" x="797.53" y="-698.3" font-family="sans" font-size="11.00">ndp_ns_input</text>
</g>
<!-- icmp6_input&#45;&gt;ndp_ns_input -->
<g id="edge46" class="edge">
<title>icmp6_input&#45;&gt;ndp_ns_input</title>
<path fill="none" stroke="black" d="M692.53,-658.01C711.16,-665.9 735.81,-676.32 756.43,-685.04"/>
<polygon fill="black" stroke="black" points="754.82,-688.16 765.4,-688.83 757.55,-681.72 754.82,-688.16"/>
</g>
<!-- ndp_na_input -->
<g id="node41" class="node">
<title>ndp_na_input</title>
<ellipse fill="none" stroke="black" cx="797.53" cy="-648" rx="42.04" ry="18"/>
<text xml:space="preserve" text-anchor="middle" x="797.53" y="-644.3" font-family="sans" font-size="11.00">ndp_na_input</text>
</g>
<!-- icmp6_input&#45;&gt;ndp_na_input -->
<g id="edge47" class="edge">
<title>icmp6_input&#45;&gt;ndp_na_input</title>
<path fill="none" stroke="black" d="M702.06,-646.57C715.08,-646.77 729.89,-646.99 743.86,-647.2"/>
<polygon fill="black" stroke="black" points="743.77,-650.7 753.82,-647.35 743.88,-643.7 743.77,-650.7"/>
</g>
<!-- ndp_rs_input -->
<g id="node42" class="node">
<title>ndp_rs_input</title>
<ellipse fill="none" stroke="black" cx="797.53" cy="-594" rx="40.36" ry="18"/>
<text xml:space="preserve" text-anchor="middle" x="797.53" y="-590.3" font-family="sans" font-size="11.00">ndp_rs_input</text>
</g>
<!-- icmp6_input&#45;&gt;ndp_rs_input -->
<g id="edge48" class="edge">
<title>icmp6_input&#45;&gt;ndp_rs_input</title>
<path fill="none" stroke="black" d="M693.51,-634.46C711.85,-627.26 735.72,-617.88 755.86,-609.97"/>
<polygon fill="black" stroke="black" points="756.87,-613.34 764.9,-606.42 754.31,-606.82 756.87,-613.34"/>
</g>
<!-- icmp6_output&#45;&gt;ip6_output -->
<g id="edge49" class="edge">
<title>icmp6_output&#45;&gt;ip6_output</title>
<path fill="none" stroke="black" d="M819.72,-778.18C826.5,-773.07 834.02,-767.33 840.83,-762 864.44,-743.53 890.89,-722.08 910.1,-706.36"/>
<polygon fill="black" stroke="black" points="912.23,-709.14 917.74,-700.09 907.79,-703.73 912.23,-709.14"/>
</g>
<!-- ip6_output&#45;&gt;eth_output -->
<g id="edge60" class="edge">
<title>ip6_output&#45;&gt;eth_output</title>
<path fill="none" stroke="black" d="M944.57,-665.85C957.38,-623.33 992.09,-514.46 1035.67,-430 1047.25,-407.55 1063.31,-383.87 1075.84,-366.58"/>
<polygon fill="black" stroke="black" points="1078.38,-369.03 1081.49,-358.9 1072.74,-364.88 1078.38,-369.03"/>
</g>
<!-- ip6_output&#45;&gt;loop_xvrf -->
<g id="edge62" class="edge">
<title>ip6_output&#45;&gt;loop_xvrf</title>
<path fill="none" stroke="black" d="M929.01,-701.5C914.75,-730.09 882.92,-787.01 840.83,-821 809.72,-846.12 698.23,-892 664.12,-892 384.89,-892 384.89,-892 384.89,-892 239.68,-892 171.97,-678.8 151.78,-599.36"/>
<polygon fill="black" stroke="black" points="155.19,-598.58 149.4,-589.7 148.39,-600.25 155.19,-598.58"/>
</g>
<!-- ip6_output&#45;&gt;sr6_output -->
<g id="edge64" class="edge">
<title>ip6_output&#45;&gt;sr6_output</title>
<path fill="none" stroke="black" d="M962.6,-670.93C986.27,-660.85 1023.42,-647.61 1052.39,-638.73"/>
<polygon fill="black" stroke="black" points="1053.01,-642.2 1061.6,-635.99 1051.01,-635.49 1053.01,-642.2"/>
</g>
<!-- ip6_hold -->
<g id="node46" class="node">
<title>ip6_hold</title>
<ellipse fill="none" stroke="black" cx="1096.24" cy="-738" rx="27" ry="18"/>
<text xml:space="preserve" text-anchor="middle" x="1096.24" y="-734.3" font-family="sans" font-size="11.00">ip6_hold</text>
</g>
<!-- ip6_output&#45;&gt;ip6_hold -->
<g id="edge61" class="edge">
<title>ip6_output&#45;&gt;ip6_hold</title>
<path fill="none" stroke="black" d="M967.5,-693.78C993.85,-702.9 1033.21,-716.53 1061.26,-726.24"/>
<polygon fill="black" stroke="black" points="1059.76,-729.42 1070.35,-729.38 1062.05,-722.81 1059.76,-729.42"/>
</g>
<!-- ip6_loadbalance -->
<g id="node49" class="node">
<title>ip6_loadbalance</title>
<ellipse fill="none" stroke="black" cx="1096.24" cy="-684" rx="50.89" ry="18"/>
<text xml:space="preserve" text-anchor="middle" x="1096.24" y="-680.3" font-family="sans" font-size="11.00">ip6_loadbalance</text>
</g>
<!-- ip6_output&#45;&gt;ip6_loadbalance -->
<g id="edge63" class="edge">
<title>ip6_output&#45;&gt;ip6_loadbalance</title>
<path fill="none" stroke="black" d="M970.82,-678.45C989.69,-677.33 1014.27,-677 1036.6,-677.44"/>
<polygon fill="black" stroke="black" points="1036.42,-680.93 1046.51,-677.7 1036.61,-673.94 1036.42,-680.93"/>
</g>
<!-- icmp6_local_send -->
<g id="node44" class="node">
<title>icmp6_local_send</title>
<ellipse fill="none" stroke="black" cx="663.12" cy="-846" rx="55.1" ry="18"/>
<text xml:space="preserve" text-anchor="middle" x="663.12" y="-842.3" font-family="sans" font-size="11.00">icmp6_local_send</text>
</g>
<!-- icmp6_local_send&#45;&gt;icmp6_output -->
<g id="edge50" class="edge">
<title>icmp6_local_send&#45;&gt;icmp6_output</title>
<path fill="none" stroke="black" d="M699.6,-832.06C716.48,-825.44 736.77,-817.47 754.42,-810.54"/>
<polygon fill="black" stroke="black" points="755.58,-813.84 763.61,-806.93 753.02,-807.33 755.58,-813.84"/>
</g>
<!-- ip6_forward&#45;&gt;ip6_output -->
<g id="edge51" class="edge">
<title>ip6_forward&#45;&gt;ip6_output</title>
<path fill="none" stroke="black" d="M419.86,-546.15C497.85,-529.37 697.78,-497 840.83,-567 879.41,-585.88 907.98,-628.22 923.62,-656.44"/>
<polygon fill="black" stroke="black" points="920.48,-657.98 928.27,-665.16 926.65,-654.69 920.48,-657.98"/>
</g>
<!-- ip6_input_local&#45;&gt;l4_input_local -->
<g id="edge58" class="edge">
<title>ip6_input_local&#45;&gt;l4_input_local</title>
<path fill="none" stroke="black" d="M557.91,-632.64C631.56,-601.45 814.71,-523.89 896.58,-489.22"/>
<polygon fill="black" stroke="black" points="897.74,-492.53 905.59,-485.41 895.01,-486.08 897.74,-492.53"/>
</g>
<!-- ip6_input_local&#45;&gt;ospf_redirect -->
<g id="edge59" class="edge">
<title>ip6_input_local&#45;&gt;ospf_redirect</title>
<path fill="none" stroke="black" d="M526.94,-664.23C529.44,-707.95 542.26,-819.1 608.02,-873 687.93,-938.5 816.82,-936.41 887.29,-929.19"/>
<polygon fill="black" stroke="black" points="887.43,-932.69 896.99,-928.11 886.66,-925.74 887.43,-932.69"/>
</g>
<!-- ip6_input_local&#45;&gt;icmp6_input -->
<g id="edge57" class="edge">
<title>ip6_input_local&#45;&gt;icmp6_input</title>
<path fill="none" stroke="black" d="M572.31,-646C585.4,-646 599.71,-646 612.98,-646"/>
<polygon fill="black" stroke="black" points="612.81,-649.5 622.81,-646 612.81,-642.5 612.81,-649.5"/>
</g>
<!-- sr6_local&#45;&gt;ip_input -->
<g id="edge77" class="edge">
<title>sr6_local&#45;&gt;ip_input</title>
<path fill="none" stroke="black" d="M412.52,-600.66C423.15,-596.45 434.81,-590.14 442.67,-581 502.15,-511.81 518.33,-399.72 522.72,-346.65"/>
<polygon fill="black" stroke="black" points="526.2,-347.12 523.44,-336.89 519.21,-346.6 526.2,-347.12"/>
</g>
<!-- sr6_local&#45;&gt;ip6_input -->
<g id="edge78" class="edge">
<title>sr6_local&#45;&gt;ip6_input</title>
<path fill="none" stroke="black" d="M358.39,-613.66C341.39,-614.85 319.02,-615.07 300.04,-614.31"/>
<polygon fill="black" stroke="black" points="300.43,-610.83 290.26,-613.8 300.06,-617.82 300.43,-610.83"/>
</g>
<!-- sr6_local&#45;&gt;ip6_input_local -->
<g id="edge79" class="edge">
<title>sr6_local&#45;&gt;ip6_input_local</title>
<path fill="none" stroke="black" d="M412.42,-615.06C430.14,-619.96 454.3,-626.64 475.64,-632.54"/>
<polygon fill="black" stroke="black" points="474.46,-635.84 485.03,-635.13 476.33,-629.09 474.46,-635.84"/>
</g>
<!-- ip6_loadbalance&#45;&gt;ip6_output -->
<g id="edge56" class="edge">
<title>ip6_loadbalance&#45;&gt;ip6_output</title>
<path fill="none" stroke="black" d="M1048.02,-690.26C1027.12,-690.96 1002.7,-690.91 982.31,-690.11"/>
<polygon fill="black" stroke="black" points="982.49,-686.61 972.33,-689.62 982.15,-693.6 982.49,-686.61"/>
</g>
<!-- ndp_na_output -->
<g id="node50" class="node">
<title>ndp_na_output</title>
<ellipse fill="none" stroke="black" cx="663.12" cy="-792" rx="46.68" ry="18"/>
<text xml:space="preserve" text-anchor="middle" x="663.12" y="-788.3" font-family="sans" font-size="11.00">ndp_na_output</text>
</g>
<!-- ndp_na_output&#45;&gt;icmp6_output -->
<g id="edge65" class="edge">
<title>ndp_na_output&#45;&gt;icmp6_output</title>
<path fill="none" stroke="black" d="M710.06,-792.69C720.48,-792.85 731.64,-793.02 742.37,-793.18"/>
<polygon fill="black" stroke="black" points="742.22,-796.68 752.27,-793.33 742.32,-789.68 742.22,-796.68"/>
</g>
<!-- ndp_ns_output -->
<g id="node51" class="node">
<title>ndp_ns_output</title>
<ellipse fill="none" stroke="black" cx="663.12" cy="-738" rx="46.26" ry="18"/>
<text xml:space="preserve" text-anchor="middle" x="663.12" y="-734.3" font-family="sans" font-size="11.00">ndp_ns_output</text>
</g>
<!-- ndp_ns_output&#45;&gt;icmp6_output -->
<g id="edge66" class="edge">
<title>ndp_ns_output&#45;&gt;icmp6_output</title>
<path fill="none" stroke="black" d="M695.5,-751.27C713.57,-758.91 736.47,-768.6 755.9,-776.82"/>
<polygon fill="black" stroke="black" points="754.32,-779.95 764.89,-780.62 757.04,-773.5 754.32,-779.95"/>
</g>
<!-- l4_loopback_output&#45;&gt;loopback_output -->
<g id="edge71" class="edge">
<title>l4_loopback_output&#45;&gt;loopback_output</title>
<path fill="none" stroke="black" d="M1156.92,-457C1164.81,-457 1172.91,-457 1180.86,-457"/>
<polygon fill="black" stroke="black" points="1180.82,-460.5 1190.82,-457 1180.82,-453.5 1180.82,-460.5"/>
</g>
</g>
</svg>
