<?xml version="1.0" encoding="UTF-8" standalone="no"?>
<!DOCTYPE svg PUBLIC "-//W3C//DTD SVG 1.1//EN"
 "http://www.w3.org/Graphics/SVG/1.1/DTD/svg11.dtd">
<!-- Generated by graphviz version 13.1.2 (20250808.2320)
 -->
<!-- Pages: 1 -->
<svg width="2385pt" height="925pt"
 viewBox="0.00 0.00 2385.00 925.00" xmlns="http://www.w3.org/2000/svg" xmlns:xlink="http://www.w3.org/1999/xlink">
<g id="graph0" class="graph" transform="scale(1 1) rotate(0) translate(4 921)">
<polygon fill="white" stroke="none" points="-4,4 -4,-921 2380.99,-921 2380.99,4 -4,4"/>
<!-- bond_output -->
<g id="node1" class="node">
<title>bond_output</title>
<ellipse fill="none" stroke="black" cx="2136.23" cy="-791" rx="39.94" ry="18"/>
<text xml:space="preserve" text-anchor="middle" x="2136.23" y="-787.3" font-family="sans" font-size="11.00">bond_output</text>
</g>
<!-- port_output -->
<g id="node4" class="node">
<title>port_output</title>
<ellipse fill="none" stroke="black" cx="2249.58" cy="-745" rx="37.41" ry="18"/>
<text xml:space="preserve" text-anchor="middle" x="2249.58" y="-741.3" font-family="sans" font-size="11.00">port_output</text>
</g>
<!-- bond_output&#45;&gt;port_output -->
<g id="edge1" class="edge">
<title>bond_output&#45;&gt;port_output</title>
<path fill="none" stroke="black" d="M2166.49,-778.91C2179.74,-773.44 2195.58,-766.9 2209.8,-761.02"/>
<polygon fill="black" stroke="black" points="2210.99,-764.32 2218.89,-757.27 2208.31,-757.85 2210.99,-764.32"/>
</g>
<!-- iface_output -->
<g id="node2" class="node">
<title>iface_output</title>
<ellipse fill="none" stroke="black" cx="2020.78" cy="-791" rx="39.52" ry="18"/>
<text xml:space="preserve" text-anchor="middle" x="2020.78" y="-787.3" font-family="sans" font-size="11.00">iface_output</text>
</g>
<!-- iface_output&#45;&gt;bond_output -->
<g id="edge8" class="edge">
<title>iface_output&#45;&gt;bond_output</title>
<path fill="none" stroke="black" d="M2060.5,-791C2068.27,-791 2076.54,-791 2084.64,-791"/>
<polygon fill="black" stroke="black" points="2084.39,-794.5 2094.39,-791 2084.39,-787.5 2084.39,-794.5"/>
</g>
<!-- iface_output&#45;&gt;port_output -->
<g id="edge9" class="edge">
<title>iface_output&#45;&gt;port_output</title>
<path fill="none" stroke="black" d="M2050.69,-778.82C2064.31,-773.52 2080.91,-767.7 2096.29,-764 2130.87,-755.69 2170.78,-750.88 2201.07,-748.18"/>
<polygon fill="black" stroke="black" points="2200.99,-751.7 2210.67,-747.37 2200.41,-744.72 2200.99,-751.7"/>
</g>
<!-- l1_xconnect -->
<g id="node3" class="node">
<title>l1_xconnect</title>
<ellipse fill="none" stroke="black" cx="905.82" cy="-718" rx="38.25" ry="18"/>
<text xml:space="preserve" text-anchor="middle" x="905.82" y="-714.3" font-family="sans" font-size="11.00">l1_xconnect</text>
</g>
<!-- l1_xconnect&#45;&gt;port_output -->
<g id="edge10" class="edge">
<title>l1_xconnect&#45;&gt;port_output</title>
<path fill="none" stroke="black" d="M941.59,-725.09C983.9,-733.09 1057.58,-745 1121.42,-745 1121.42,-745 1121.42,-745 1334.12,-745 1532.14,-745 1580.02,-707 1778.04,-707 1778.04,-707 1778.04,-707 2021.78,-707 2086.55,-707 2160.33,-722.26 2205.67,-733.44"/>
<polygon fill="black" stroke="black" points="2204.55,-736.77 2215.1,-735.82 2206.25,-729.98 2204.55,-736.77"/>
</g>
<!-- port_tx -->
<g id="node6" class="node">
<title>port_tx</title>
<ellipse fill="none" stroke="black" cx="2349.99" cy="-745" rx="27" ry="18"/>
<text xml:space="preserve" text-anchor="middle" x="2349.99" y="-741.3" font-family="sans" font-size="11.00">port_tx</text>
</g>
<!-- port_output&#45;&gt;port_tx -->
<g id="edge16" class="edge">
<title>port_output&#45;&gt;port_tx</title>
<path fill="none" stroke="black" d="M2287.23,-745C2295.16,-745 2303.56,-745 2311.52,-745"/>
<polygon fill="black" stroke="black" points="2311.25,-748.5 2321.25,-745 2311.25,-741.5 2311.25,-748.5"/>
</g>
<!-- port_rx -->
<g id="node5" class="node">
<title>port_rx</title>
<ellipse fill="none" stroke="blue" stroke-width="2" cx="27" cy="-401" rx="27" ry="18"/>
<text xml:space="preserve" text-anchor="middle" x="27" y="-397.3" font-family="sans" font-size="11.00">port_rx</text>
</g>
<!-- port_rx&#45;&gt;l1_xconnect -->
<g id="edge18" class="edge">
<title>port_rx&#45;&gt;l1_xconnect</title>
<path fill="none" stroke="blue" stroke-width="2" d="M32.65,-418.95C50.12,-481.78 117.99,-688 256.1,-688 256.1,-688 256.1,-688 650.92,-688 724.02,-688 808.13,-700.41 858.84,-709.27"/>
<polygon fill="blue" stroke="blue" stroke-width="2" points="856.63,-712.43 867.09,-710.74 857.85,-705.54 856.63,-712.43"/>
</g>
<!-- eth_input -->
<g id="node7" class="node">
<title>eth_input</title>
<ellipse fill="none" stroke="black" cx="138.07" cy="-256" rx="30.25" ry="18"/>
<text xml:space="preserve" text-anchor="middle" x="138.07" y="-252.3" font-family="sans" font-size="11.00">eth_input</text>
</g>
<!-- port_rx&#45;&gt;eth_input -->
<g id="edge17" class="edge">
<title>port_rx&#45;&gt;eth_input</title>
<path fill="none" stroke="blue" stroke-width="2" d="M40.09,-384.93C58.91,-359.91 95.37,-311.44 117.84,-281.58"/>
<polygon fill="blue" stroke="blue" stroke-width="2" points="119.56,-285.1 122.78,-275.01 113.97,-280.9 119.56,-285.1"/>
</g>
<!-- lacp_input -->
<g id="node10" class="node">
<title>lacp_input</title>
<polygon fill="none" stroke="dodgerblue" points="292.05,-36 222.15,-36 222.15,0 292.05,0 292.05,-36"/>
<text xml:space="preserve" text-anchor="middle" x="257.1" y="-14.3" font-family="sans" font-size="11.00">lacp_input</text>
</g>
<!-- eth_input&#45;&gt;lacp_input -->
<g id="edge3" class="edge">
<title>eth_input&#45;&gt;lacp_input</title>
<path fill="none" stroke="black" d="M143.53,-237.93C153.34,-200.46 179.42,-112.58 222.15,-50 223.38,-48.19 224.73,-46.41 226.16,-44.67"/>
<polygon fill="black" stroke="black" points="228.58,-47.21 232.77,-37.48 223.43,-42.48 228.58,-47.21"/>
</g>
<!-- snap_input -->
<g id="node12" class="node">
<title>snap_input</title>
<ellipse fill="none" stroke="black" cx="1122.42" cy="-79" rx="34.89" ry="18"/>
<text xml:space="preserve" text-anchor="middle" x="1122.42" y="-75.3" font-family="sans" font-size="11.00">snap_input</text>
</g>
<!-- eth_input&#45;&gt;snap_input -->
<g id="edge2" class="edge">
<title>eth_input&#45;&gt;snap_input</title>
<path fill="none" stroke="black" d="M147.65,-238.64C160.77,-213.52 187.95,-166.78 222.15,-137 281.47,-85.34 304.72,-64 383.37,-64 383.37,-64 383.37,-64 906.82,-64 965.66,-64 1033.36,-69.68 1076.73,-74.05"/>
<polygon fill="black" stroke="black" points="1076.2,-77.52 1086.51,-75.06 1076.92,-70.55 1076.2,-77.52"/>
</g>
<!-- arp_input -->
<g id="node13" class="node">
<title>arp_input</title>
<ellipse fill="none" stroke="black" cx="257.1" cy="-164" rx="30.25" ry="18"/>
<text xml:space="preserve" text-anchor="middle" x="257.1" y="-160.3" font-family="sans" font-size="11.00">arp_input</text>
</g>
<!-- eth_input&#45;&gt;arp_input -->
<g id="edge4" class="edge">
<title>eth_input&#45;&gt;arp_input</title>
<path fill="none" stroke="black" d="M157.36,-241.62C176.6,-226.5 207.08,-202.54 229.09,-185.24"/>
<polygon fill="black" stroke="black" points="231.06,-188.14 236.75,-179.21 226.73,-182.64 231.06,-188.14"/>
</g>
<!-- ip_input -->
<g id="node25" class="node">
<title>ip_input</title>
<ellipse fill="none" stroke="black" cx="257.1" cy="-367" rx="27" ry="18"/>
<text xml:space="preserve" text-anchor="middle" x="257.1" y="-363.3" font-family="sans" font-size="11.00">ip_input</text>
</g>
<!-- eth_input&#45;&gt;ip_input -->
<g id="edge5" class="edge">
<title>eth_input&#45;&gt;ip_input</title>
<path fill="none" stroke="black" d="M154.86,-270.97C174.77,-289.86 209.21,-322.52 232.32,-344.44"/>
<polygon fill="black" stroke="black" points="229.81,-346.88 239.47,-351.23 234.62,-341.8 229.81,-346.88"/>
</g>
<!-- ip6_input -->
<g id="node31" class="node">
<title>ip6_input</title>
<ellipse fill="none" stroke="black" cx="1122.42" cy="-558" rx="29.41" ry="18"/>
<text xml:space="preserve" text-anchor="middle" x="1122.42" y="-554.3" font-family="sans" font-size="11.00">ip6_input</text>
</g>
<!-- eth_input&#45;&gt;ip6_input -->
<g id="edge6" class="edge">
<title>eth_input&#45;&gt;ip6_input</title>
<path fill="none" stroke="black" d="M145.54,-273.62C156.9,-302.41 183.02,-359.73 222.15,-394 260.75,-427.81 277.81,-429.56 328.05,-440 430.06,-461.2 476.09,-498.24 562.47,-440 597.85,-416.15 564.36,-376.63 598.47,-351 664.55,-301.35 700.82,-332 783.47,-332 783.47,-332 783.47,-332 906.82,-332 1014.81,-332 1084.85,-469.36 1110.48,-529.91"/>
<polygon fill="black" stroke="black" points="1107.12,-530.95 1114.17,-538.87 1113.59,-528.29 1107.12,-530.95"/>
</g>
<!-- eth_output -->
<g id="node8" class="node">
<title>eth_output</title>
<ellipse fill="none" stroke="black" cx="1910.37" cy="-791" rx="34.89" ry="18"/>
<text xml:space="preserve" text-anchor="middle" x="1910.37" y="-787.3" font-family="sans" font-size="11.00">eth_output</text>
</g>
<!-- eth_output&#45;&gt;iface_output -->
<g id="edge7" class="edge">
<title>eth_output&#45;&gt;iface_output</title>
<path fill="none" stroke="black" d="M1945.67,-791C1953.26,-791 1961.45,-791 1969.53,-791"/>
<polygon fill="black" stroke="black" points="1969.28,-794.5 1979.28,-791 1969.28,-787.5 1969.28,-794.5"/>
</g>
<!-- l2_redirect -->
<g id="node9" class="node">
<title>l2_redirect</title>
<polygon fill="none" stroke="dodgerblue" points="1658.09,-126 1585.94,-126 1585.94,-90 1658.09,-90 1658.09,-126"/>
<text xml:space="preserve" text-anchor="middle" x="1622.01" y="-104.3" font-family="sans" font-size="11.00">l2_redirect</text>
</g>
<!-- lacp_output -->
<g id="node11" class="node">
<title>lacp_output</title>
<polygon fill="none" stroke="dodgerblue" points="1818.11,-917 1739.96,-917 1739.96,-881 1818.11,-881 1818.11,-917"/>
<text xml:space="preserve" text-anchor="middle" x="1779.04" y="-895.3" font-family="sans" font-size="11.00">lacp_output</text>
</g>
<!-- lacp_output&#45;&gt;eth_output -->
<g id="edge11" class="edge">
<title>lacp_output&#45;&gt;eth_output</title>
<path fill="none" stroke="dodgerblue" d="M1818.52,-884.48C1825.81,-880.93 1833.14,-876.76 1839.49,-872 1859.94,-856.69 1878.58,-834.45 1891.46,-817.15"/>
<polygon fill="dodgerblue" stroke="dodgerblue" points="1894.08,-819.5 1897.11,-809.35 1888.41,-815.39 1894.08,-819.5"/>
</g>
<!-- snap_input&#45;&gt;l2_redirect -->
<g id="edge19" class="edge">
<title>snap_input&#45;&gt;l2_redirect</title>
<path fill="none" stroke="black" d="M1157.23,-80.97C1243.93,-86.02 1474.37,-99.45 1574.01,-105.26"/>
<polygon fill="black" stroke="black" points="1573.8,-108.75 1583.99,-105.84 1574.21,-101.77 1573.8,-108.75"/>
</g>
<!-- arp_input_reply -->
<g id="node14" class="node">
<title>arp_input_reply</title>
<polygon fill="none" stroke="dodgerblue" points="433.57,-128 335.17,-128 335.17,-92 433.57,-92 433.57,-128"/>
<text xml:space="preserve" text-anchor="middle" x="384.37" y="-106.3" font-family="sans" font-size="11.00">arp_input_reply</text>
</g>
<!-- arp_input&#45;&gt;arp_input_reply -->
<g id="edge21" class="edge">
<title>arp_input&#45;&gt;arp_input_reply</title>
<path fill="none" stroke="black" d="M282.25,-153.59C295.91,-147.7 313.56,-140.09 330.28,-132.89"/>
<polygon fill="black" stroke="black" points="331.34,-136.24 339.14,-129.07 328.57,-129.81 331.34,-136.24"/>
</g>
<!-- arp_input_request -->
<g id="node15" class="node">
<title>arp_input_request</title>
<polygon fill="none" stroke="dodgerblue" points="440.7,-182 328.05,-182 328.05,-146 440.7,-146 440.7,-182"/>
<text xml:space="preserve" text-anchor="middle" x="384.37" y="-160.3" font-family="sans" font-size="11.00">arp_input_request</text>
</g>
<!-- arp_input&#45;&gt;arp_input_request -->
<g id="edge20" class="edge">
<title>arp_input&#45;&gt;arp_input_request</title>
<path fill="none" stroke="black" d="M287.79,-164C296.52,-164 306.43,-164 316.5,-164"/>
<polygon fill="black" stroke="black" points="316.36,-167.5 326.36,-164 316.36,-160.5 316.36,-167.5"/>
</g>
<!-- arp_output_reply -->
<g id="node16" class="node">
<title>arp_output_reply</title>
<polygon fill="none" stroke="dodgerblue" points="1832.36,-863 1725.71,-863 1725.71,-827 1832.36,-827 1832.36,-863"/>
<text xml:space="preserve" text-anchor="middle" x="1779.04" y="-841.3" font-family="sans" font-size="11.00">arp_output_reply</text>
</g>
<!-- arp_output_reply&#45;&gt;eth_output -->
<g id="edge22" class="edge">
<title>arp_output_reply&#45;&gt;eth_output</title>
<path fill="none" stroke="dodgerblue" d="M1824.19,-826.57C1839.73,-820.08 1857.04,-812.85 1871.98,-806.61"/>
<polygon fill="dodgerblue" stroke="dodgerblue" points="1873.1,-809.94 1880.98,-802.86 1870.4,-803.48 1873.1,-809.94"/>
</g>
<!-- arp_output_request -->
<g id="node17" class="node">
<title>arp_output_request</title>
<polygon fill="none" stroke="dodgerblue" points="1839.49,-809 1718.59,-809 1718.59,-773 1839.49,-773 1839.49,-809"/>
<text xml:space="preserve" text-anchor="middle" x="1779.04" y="-787.3" font-family="sans" font-size="11.00">arp_output_request</text>
</g>
<!-- arp_output_request&#45;&gt;eth_output -->
<g id="edge23" class="edge">
<title>arp_output_request&#45;&gt;eth_output</title>
<path fill="none" stroke="dodgerblue" d="M1839.78,-791C1847.87,-791 1856.06,-791 1863.85,-791"/>
<polygon fill="dodgerblue" stroke="dodgerblue" points="1863.77,-794.5 1873.77,-791 1863.77,-787.5 1863.77,-794.5"/>
</g>
<!-- ospf_redirect -->
<g id="node18" class="node">
<title>ospf_redirect</title>
<ellipse fill="none" stroke="black" cx="1470.62" cy="-131" rx="41.62" ry="18"/>
<text xml:space="preserve" text-anchor="middle" x="1470.62" y="-127.3" font-family="sans" font-size="11.00">ospf_redirect</text>
</g>
<!-- ospf_redirect&#45;&gt;l2_redirect -->
<g id="edge73" class="edge">
<title>ospf_redirect&#45;&gt;l2_redirect</title>
<path fill="none" stroke="black" d="M1510.09,-125.08C1529.62,-122.07 1553.51,-118.39 1574.12,-115.22"/>
<polygon fill="black" stroke="black" points="1574.64,-118.68 1583.99,-113.7 1573.58,-111.76 1574.64,-118.68"/>
</g>
<!-- loopback_input -->
<g id="node19" class="node">
<title>loopback_input</title>
<polygon fill="none" stroke="dodgerblue" points="186.15,-538 90,-538 90,-502 186.15,-502 186.15,-538"/>
<text xml:space="preserve" text-anchor="middle" x="138.07" y="-516.3" font-family="sans" font-size="11.00">loopback_input</text>
</g>
<!-- loopback_input&#45;&gt;ip_input -->
<g id="edge12" class="edge">
<title>loopback_input&#45;&gt;ip_input</title>
<path fill="none" stroke="dodgerblue" d="M153.19,-501.54C174.24,-474.03 213.87,-422.21 237.33,-391.54"/>
<polygon fill="dodgerblue" stroke="dodgerblue" points="239.84,-394.02 243.14,-383.95 234.28,-389.76 239.84,-394.02"/>
</g>
<!-- loopback_input&#45;&gt;ip6_input -->
<g id="edge13" class="edge">
<title>loopback_input&#45;&gt;ip6_input</title>
<path fill="none" stroke="dodgerblue" d="M166.56,-538.32C220.06,-573.27 336.97,-646 383.37,-646 383.37,-646 383.37,-646 906.82,-646 971.88,-646 993.06,-652.52 1051.53,-624 1071.28,-614.37 1089.2,-597.18 1101.95,-582.76"/>
<polygon fill="dodgerblue" stroke="dodgerblue" points="1104.41,-585.28 1108.21,-575.39 1099.07,-580.75 1104.41,-585.28"/>
</g>
<!-- loopback_output -->
<g id="node20" class="node">
<title>loopback_output</title>
<polygon fill="none" stroke="dodgerblue" points="1831.24,-241 1726.84,-241 1726.84,-205 1831.24,-205 1831.24,-241"/>
<text xml:space="preserve" text-anchor="middle" x="1779.04" y="-219.3" font-family="sans" font-size="11.00">loopback_output</text>
</g>
<!-- loop_xvrf -->
<g id="node21" class="node">
<title>loop_xvrf</title>
<ellipse fill="none" stroke="black" cx="1015.8" cy="-597" rx="29.83" ry="18"/>
<text xml:space="preserve" text-anchor="middle" x="1015.8" y="-593.3" font-family="sans" font-size="11.00">loop_xvrf</text>
</g>
<!-- loop_xvrf&#45;&gt;ip_input -->
<g id="edge14" class="edge">
<title>loop_xvrf&#45;&gt;ip_input</title>
<path fill="none" stroke="black" d="M985.86,-599.28C942.39,-602.5 857.62,-608 785.47,-608 518.59,-608 518.59,-608 518.59,-608 393.95,-608 303.63,-457.51 271.23,-394.37"/>
<polygon fill="black" stroke="black" points="274.48,-393.05 266.87,-385.68 268.23,-396.19 274.48,-393.05"/>
</g>
<!-- loop_xvrf&#45;&gt;ip6_input -->
<g id="edge15" class="edge">
<title>loop_xvrf&#45;&gt;ip6_input</title>
<path fill="none" stroke="black" d="M1041.86,-587.66C1055.06,-582.74 1071.47,-576.62 1085.95,-571.22"/>
<polygon fill="black" stroke="black" points="1087,-574.57 1095.15,-567.79 1084.55,-568.01 1087,-574.57"/>
</g>
<!-- ip_forward -->
<g id="node22" class="node">
<title>ip_forward</title>
<ellipse fill="none" stroke="black" cx="519.59" cy="-413" rx="33.62" ry="18"/>
<text xml:space="preserve" text-anchor="middle" x="519.59" y="-409.3" font-family="sans" font-size="11.00">ip_forward</text>
</g>
<!-- ip_output -->
<g id="node28" class="node">
<title>ip_output</title>
<ellipse fill="none" stroke="black" cx="905.82" cy="-486" rx="30.25" ry="18"/>
<text xml:space="preserve" text-anchor="middle" x="905.82" y="-482.3" font-family="sans" font-size="11.00">ip_output</text>
</g>
<!-- ip_forward&#45;&gt;ip_output -->
<g id="edge27" class="edge">
<title>ip_forward&#45;&gt;ip_output</title>
<path fill="none" stroke="black" d="M541.54,-427C578.91,-450.94 660.38,-498.56 737.37,-513 778.52,-520.72 790.35,-520.35 831.57,-513 844.75,-510.65 858.66,-506.09 870.78,-501.38"/>
<polygon fill="black" stroke="black" points="872,-504.67 879.93,-497.65 869.35,-498.19 872,-504.67"/>
</g>
<!-- ip_fragment -->
<g id="node23" class="node">
<title>ip_fragment</title>
<ellipse fill="none" stroke="black" cx="784.47" cy="-486" rx="38.25" ry="18"/>
<text xml:space="preserve" text-anchor="middle" x="784.47" y="-482.3" font-family="sans" font-size="11.00">ip_fragment</text>
</g>
<!-- ip_fragment&#45;&gt;ip_output -->
<g id="edge28" class="edge">
<title>ip_fragment&#45;&gt;ip_output</title>
<path fill="none" stroke="black" d="M820.96,-479.77C835.05,-479.13 851.32,-479.08 865.75,-479.62"/>
<polygon fill="black" stroke="black" points="865.18,-483.1 875.34,-480.1 865.53,-476.11 865.18,-483.1"/>
</g>
<!-- ip_hold -->
<g id="node24" class="node">
<title>ip_hold</title>
<polygon fill="none" stroke="dodgerblue" points="1042.8,-558 988.8,-558 988.8,-522 1042.8,-522 1042.8,-558"/>
<text xml:space="preserve" text-anchor="middle" x="1015.8" y="-536.3" font-family="sans" font-size="11.00">ip_hold</text>
</g>
<!-- ip_input&#45;&gt;ip_forward -->
<g id="edge29" class="edge">
<title>ip_input&#45;&gt;ip_forward</title>
<path fill="none" stroke="black" d="M271.92,-382.25C284.92,-395.38 305.69,-413.37 328.05,-421 377.53,-437.88 438.47,-430.89 477.9,-423.06"/>
<polygon fill="black" stroke="black" points="478.37,-426.53 487.43,-421.05 476.93,-419.68 478.37,-426.53"/>
</g>
<!-- ip_input_local -->
<g id="node27" class="node">
<title>ip_input_local</title>
<ellipse fill="none" stroke="black" cx="519.59" cy="-248" rx="42.89" ry="18"/>
<text xml:space="preserve" text-anchor="middle" x="519.59" y="-244.3" font-family="sans" font-size="11.00">ip_input_local</text>
</g>
<!-- ip_input&#45;&gt;ip_input_local -->
<g id="edge32" class="edge">
<title>ip_input&#45;&gt;ip_input_local</title>
<path fill="none" stroke="black" d="M266.85,-349.78C278.1,-329.56 299.62,-296.66 328.05,-280 369.8,-255.54 425,-248.48 465.24,-246.99"/>
<polygon fill="black" stroke="black" points="465.27,-250.49 475.17,-246.73 465.09,-243.49 465.27,-250.49"/>
</g>
<!-- ip_input&#45;&gt;ip_output -->
<g id="edge31" class="edge">
<title>ip_input&#45;&gt;ip_output</title>
<path fill="none" stroke="black" d="M269.21,-383.36C281.57,-400.23 303.1,-425.99 328.05,-440 490.47,-531.19 552.2,-509.88 737.37,-530 778.99,-534.52 791.23,-541.18 831.57,-530 848.09,-525.42 864.62,-516.01 877.78,-507.06"/>
<polygon fill="black" stroke="black" points="879.79,-509.93 885.91,-501.28 875.73,-504.23 879.79,-509.93"/>
</g>
<!-- dnat44_dynamic -->
<g id="node37" class="node">
<title>dnat44_dynamic</title>
<ellipse fill="none" stroke="black" cx="384.37" cy="-394" rx="52.15" ry="18"/>
<text xml:space="preserve" text-anchor="middle" x="384.37" y="-390.3" font-family="sans" font-size="11.00">dnat44_dynamic</text>
</g>
<!-- ip_input&#45;&gt;dnat44_dynamic -->
<g id="edge30" class="edge">
<title>ip_input&#45;&gt;dnat44_dynamic</title>
<path fill="none" stroke="black" d="M283.15,-372.4C296.2,-375.21 312.71,-378.77 328.55,-382.18"/>
<polygon fill="black" stroke="black" points="327.36,-385.51 337.87,-384.19 328.83,-378.66 327.36,-385.51"/>
</g>
<!-- dnat44_static -->
<g id="node38" class="node">
<title>dnat44_static</title>
<ellipse fill="none" stroke="black" cx="384.37" cy="-340" rx="43.31" ry="18"/>
<text xml:space="preserve" text-anchor="middle" x="384.37" y="-336.3" font-family="sans" font-size="11.00">dnat44_static</text>
</g>
<!-- ip_input&#45;&gt;dnat44_static -->
<g id="edge33" class="edge">
<title>ip_input&#45;&gt;dnat44_static</title>
<path fill="none" stroke="black" d="M283.15,-361.6C297.79,-358.45 316.79,-354.35 334.29,-350.58"/>
<polygon fill="black" stroke="black" points="335.01,-354.01 344.04,-348.48 333.53,-347.16 335.01,-354.01"/>
</g>
<!-- ip_loadbalance -->
<g id="node26" class="node">
<title>ip_loadbalance</title>
<ellipse fill="none" stroke="black" cx="784.47" cy="-432" rx="47.1" ry="18"/>
<text xml:space="preserve" text-anchor="middle" x="784.47" y="-428.3" font-family="sans" font-size="11.00">ip_loadbalance</text>
</g>
<!-- ip_loadbalance&#45;&gt;ip_output -->
<g id="edge34" class="edge">
<title>ip_loadbalance&#45;&gt;ip_output</title>
<path fill="none" stroke="black" d="M822.91,-442.62C839.95,-449.64 859.83,-458.77 875.73,-466.95"/>
<polygon fill="black" stroke="black" points="873.73,-469.85 884.2,-471.44 877.01,-463.66 873.73,-469.85"/>
</g>
<!-- ip_input_local&#45;&gt;ospf_redirect -->
<g id="edge38" class="edge">
<title>ip_input_local&#45;&gt;ospf_redirect</title>
<path fill="none" stroke="black" d="M549.58,-234.7C563.99,-228.64 581.84,-221.96 598.47,-218 902.71,-145.61 1280.64,-133.38 1417.27,-131.37"/>
<polygon fill="black" stroke="black" points="1417.13,-134.87 1427.08,-131.24 1417.04,-127.88 1417.13,-134.87"/>
</g>
<!-- ipip_input -->
<g id="node35" class="node">
<title>ipip_input</title>
<ellipse fill="none" stroke="black" cx="649.92" cy="-110" rx="31.1" ry="18"/>
<text xml:space="preserve" text-anchor="middle" x="649.92" y="-106.3" font-family="sans" font-size="11.00">ipip_input</text>
</g>
<!-- ip_input_local&#45;&gt;ipip_input -->
<g id="edge36" class="edge">
<title>ip_input_local&#45;&gt;ipip_input</title>
<path fill="none" stroke="black" d="M544,-233.13C550.53,-228.22 557.26,-222.38 562.47,-216 585.63,-187.69 574.11,-169.27 598.47,-142 603.37,-136.52 609.42,-131.62 615.62,-127.4"/>
<polygon fill="black" stroke="black" points="617.4,-130.41 624.03,-122.15 613.7,-124.47 617.4,-130.41"/>
</g>
<!-- icmp_input -->
<g id="node41" class="node">
<title>icmp_input</title>
<ellipse fill="none" stroke="black" cx="649.92" cy="-378" rx="34.89" ry="18"/>
<text xml:space="preserve" text-anchor="middle" x="649.92" y="-374.3" font-family="sans" font-size="11.00">icmp_input</text>
</g>
<!-- ip_input_local&#45;&gt;icmp_input -->
<g id="edge35" class="edge">
<title>ip_input_local&#45;&gt;icmp_input</title>
<path fill="none" stroke="black" d="M537.1,-264.73C559.48,-287.4 599.59,-328.03 625.19,-353.96"/>
<polygon fill="black" stroke="black" points="622.7,-356.41 632.21,-361.07 627.68,-351.5 622.7,-356.41"/>
</g>
<!-- l4_input_local -->
<g id="node52" class="node">
<title>l4_input_local</title>
<ellipse fill="none" stroke="black" cx="1470.62" cy="-223" rx="42.89" ry="18"/>
<text xml:space="preserve" text-anchor="middle" x="1470.62" y="-219.3" font-family="sans" font-size="11.00">l4_input_local</text>
</g>
<!-- ip_input_local&#45;&gt;l4_input_local -->
<g id="edge37" class="edge">
<title>ip_input_local&#45;&gt;l4_input_local</title>
<path fill="none" stroke="black" d="M559.18,-240.81C610.29,-231.94 703.31,-218 783.47,-218 783.47,-218 783.47,-218 1016.8,-218 1161.16,-218 1331.38,-220.57 1416.1,-222.03"/>
<polygon fill="black" stroke="black" points="1415.91,-225.52 1425.97,-222.2 1416.03,-218.52 1415.91,-225.52"/>
</g>
<!-- ip_output&#45;&gt;eth_output -->
<g id="edge39" class="edge">
<title>ip_output&#45;&gt;eth_output</title>
<path fill="none" stroke="black" d="M912.59,-503.59C922.57,-531.83 945.36,-587.76 980.08,-624 1030.47,-676.61 1048.57,-707 1121.42,-707 1121.42,-707 1121.42,-707 1334.12,-707 1560.15,-707 1619.96,-710.16 1839.49,-764 1850.55,-766.71 1862.22,-770.73 1872.79,-774.84"/>
<polygon fill="black" stroke="black" points="1871.35,-778.03 1881.94,-778.54 1873.98,-771.54 1871.35,-778.03"/>
</g>
<!-- ip_output&#45;&gt;loop_xvrf -->
<g id="edge42" class="edge">
<title>ip_output&#45;&gt;loop_xvrf</title>
<path fill="none" stroke="black" d="M920.31,-502.06C934.61,-518.8 958.11,-545.53 980.08,-567 982.75,-569.62 985.62,-572.29 988.51,-574.9"/>
<polygon fill="black" stroke="black" points="986.16,-577.49 995.98,-581.45 990.78,-572.23 986.16,-577.49"/>
</g>
<!-- ip_output&#45;&gt;ip_fragment -->
<g id="edge41" class="edge">
<title>ip_output&#45;&gt;ip_fragment</title>
<path fill="none" stroke="black" d="M876.86,-491.82C863.56,-492.68 847.3,-492.95 832.21,-492.61"/>
<polygon fill="black" stroke="black" points="832.58,-489.12 822.47,-492.28 832.35,-496.11 832.58,-489.12"/>
</g>
<!-- ip_output&#45;&gt;ip_hold -->
<g id="edge40" class="edge">
<title>ip_output&#45;&gt;ip_hold</title>
<path fill="none" stroke="black" d="M929.72,-497.45C943.84,-504.51 962.26,-513.72 978.35,-521.77"/>
<polygon fill="black" stroke="black" points="976.65,-524.84 987.16,-526.18 979.79,-518.57 976.65,-524.84"/>
</g>
<!-- ip_output&#45;&gt;ip_loadbalance -->
<g id="edge43" class="edge">
<title>ip_output&#45;&gt;ip_loadbalance</title>
<path fill="none" stroke="black" d="M877.27,-479.33C859.76,-472.56 837,-462.37 818.52,-453.07"/>
<polygon fill="black" stroke="black" points="820.32,-450.06 809.83,-448.57 817.1,-456.27 820.32,-450.06"/>
</g>
<!-- ipip_output -->
<g id="node36" class="node">
<title>ipip_output</title>
<ellipse fill="none" stroke="black" cx="1015.8" cy="-486" rx="35.73" ry="18"/>
<text xml:space="preserve" text-anchor="middle" x="1015.8" y="-482.3" font-family="sans" font-size="11.00">ipip_output</text>
</g>
<!-- ip_output&#45;&gt;ipip_output -->
<g id="edge44" class="edge">
<title>ip_output&#45;&gt;ipip_output</title>
<path fill="none" stroke="black" d="M934.63,-480.01C945.62,-479.32 958.51,-479.1 970.71,-479.35"/>
<polygon fill="black" stroke="black" points="970.48,-482.85 980.59,-479.69 970.72,-475.85 970.48,-482.85"/>
</g>
<!-- sr6_output -->
<g id="node40" class="node">
<title>sr6_output</title>
<ellipse fill="none" stroke="black" cx="1910.37" cy="-543" rx="34.46" ry="18"/>
<text xml:space="preserve" text-anchor="middle" x="1910.37" y="-539.3" font-family="sans" font-size="11.00">sr6_output</text>
</g>
<!-- ip_output&#45;&gt;sr6_output -->
<g id="edge45" class="edge">
<title>ip_output&#45;&gt;sr6_output</title>
<path fill="none" stroke="black" d="M924.23,-471.44C986.09,-420.81 1202.95,-252.38 1415.79,-196 1506.81,-171.89 1766.63,-136.36 1839.49,-196 1888.57,-236.18 1903.94,-437.24 1908.05,-513.55"/>
<polygon fill="black" stroke="black" points="1904.54,-513.37 1908.54,-523.18 1911.53,-513.01 1904.54,-513.37"/>
</g>
<!-- ip6_forward -->
<g id="node29" class="node">
<title>ip6_forward</title>
<ellipse fill="none" stroke="black" cx="1333.12" cy="-623" rx="37.41" ry="18"/>
<text xml:space="preserve" text-anchor="middle" x="1333.12" y="-619.3" font-family="sans" font-size="11.00">ip6_forward</text>
</g>
<!-- ip6_output -->
<g id="node34" class="node">
<title>ip6_output</title>
<ellipse fill="none" stroke="black" cx="1779.04" cy="-570" rx="34.04" ry="18"/>
<text xml:space="preserve" text-anchor="middle" x="1779.04" y="-566.3" font-family="sans" font-size="11.00">ip6_output</text>
</g>
<!-- ip6_forward&#45;&gt;ip6_output -->
<g id="edge52" class="edge">
<title>ip6_forward&#45;&gt;ip6_output</title>
<path fill="none" stroke="black" d="M1370.72,-625.16C1434.75,-628.1 1570.88,-630.56 1682.59,-607 1703.18,-602.66 1725.15,-594.41 1742.81,-586.81"/>
<polygon fill="black" stroke="black" points="1744.1,-590.07 1751.82,-582.81 1741.26,-583.67 1744.1,-590.07"/>
</g>
<!-- ip6_hold -->
<g id="node30" class="node">
<title>ip6_hold</title>
<polygon fill="none" stroke="dodgerblue" points="1940.07,-615 1880.67,-615 1880.67,-579 1940.07,-579 1940.07,-615"/>
<text xml:space="preserve" text-anchor="middle" x="1910.37" y="-593.3" font-family="sans" font-size="11.00">ip6_hold</text>
</g>
<!-- ip6_input&#45;&gt;ip6_forward -->
<g id="edge53" class="edge">
<title>ip6_input&#45;&gt;ip6_forward</title>
<path fill="none" stroke="black" d="M1145.25,-569.8C1158.78,-576.73 1176.7,-585.24 1193.3,-591 1223.56,-601.5 1258.73,-609.56 1286.09,-614.97"/>
<polygon fill="black" stroke="black" points="1285.34,-618.39 1295.82,-616.84 1286.66,-611.51 1285.34,-618.39"/>
</g>
<!-- ip6_input_local -->
<g id="node33" class="node">
<title>ip6_input_local</title>
<ellipse fill="none" stroke="black" cx="1333.12" cy="-439" rx="46.68" ry="18"/>
<text xml:space="preserve" text-anchor="middle" x="1333.12" y="-435.3" font-family="sans" font-size="11.00">ip6_input_local</text>
</g>
<!-- ip6_input&#45;&gt;ip6_input_local -->
<g id="edge55" class="edge">
<title>ip6_input&#45;&gt;ip6_input_local</title>
<path fill="none" stroke="black" d="M1144.58,-545.93C1180.17,-525.64 1252.4,-484.45 1296.1,-459.54"/>
<polygon fill="black" stroke="black" points="1297.76,-462.62 1304.71,-454.63 1294.29,-456.54 1297.76,-462.62"/>
</g>
<!-- ip6_input&#45;&gt;ip6_output -->
<g id="edge54" class="edge">
<title>ip6_input&#45;&gt;ip6_output</title>
<path fill="none" stroke="black" d="M1151.93,-559.81C1234.21,-564.83 1479.17,-578.26 1682.59,-574 1699.27,-573.65 1717.58,-572.96 1733.66,-572.25"/>
<polygon fill="black" stroke="black" points="1733.58,-575.75 1743.41,-571.8 1733.26,-568.76 1733.58,-575.75"/>
</g>
<!-- sr6_local -->
<g id="node39" class="node">
<title>sr6_local</title>
<ellipse fill="none" stroke="black" cx="1221.87" cy="-452" rx="28.57" ry="18"/>
<text xml:space="preserve" text-anchor="middle" x="1221.87" y="-448.3" font-family="sans" font-size="11.00">sr6_local</text>
</g>
<!-- ip6_input&#45;&gt;sr6_local -->
<g id="edge56" class="edge">
<title>ip6_input&#45;&gt;sr6_local</title>
<path fill="none" stroke="black" d="M1134.6,-541.35C1149.29,-523 1175.56,-493.92 1195.26,-473.83"/>
<polygon fill="black" stroke="black" points="1197.59,-476.45 1202.18,-466.9 1192.64,-471.5 1197.59,-476.45"/>
</g>
<!-- ip6_loadbalance -->
<g id="node32" class="node">
<title>ip6_loadbalance</title>
<ellipse fill="none" stroke="black" cx="1622.01" cy="-547" rx="50.89" ry="18"/>
<text xml:space="preserve" text-anchor="middle" x="1622.01" y="-543.3" font-family="sans" font-size="11.00">ip6_loadbalance</text>
</g>
<!-- ip6_loadbalance&#45;&gt;ip6_output -->
<g id="edge57" class="edge">
<title>ip6_loadbalance&#45;&gt;ip6_output</title>
<path fill="none" stroke="black" d="M1672.92,-548.05C1694.23,-550.57 1718.74,-554.34 1738.73,-558.21"/>
<polygon fill="black" stroke="black" points="1737.94,-561.62 1748.44,-560.18 1739.34,-554.76 1737.94,-561.62"/>
</g>
<!-- ip6_input_local&#45;&gt;ospf_redirect -->
<g id="edge60" class="edge">
<title>ip6_input_local&#45;&gt;ospf_redirect</title>
<path fill="none" stroke="black" d="M1337.85,-420.68C1346.87,-378.87 1372.39,-273.97 1415.79,-196 1423.8,-181.62 1435.15,-167.34 1445.36,-155.84"/>
<polygon fill="black" stroke="black" points="1447.68,-158.49 1451.85,-148.75 1442.52,-153.76 1447.68,-158.49"/>
</g>
<!-- icmp6_input -->
<g id="node44" class="node">
<title>icmp6_input</title>
<polygon fill="none" stroke="dodgerblue" points="1510.82,-457 1430.42,-457 1430.42,-421 1510.82,-421 1510.82,-457"/>
<text xml:space="preserve" text-anchor="middle" x="1470.62" y="-435.3" font-family="sans" font-size="11.00">icmp6_input</text>
</g>
<!-- ip6_input_local&#45;&gt;icmp6_input -->
<g id="edge58" class="edge">
<title>ip6_input_local&#45;&gt;icmp6_input</title>
<path fill="none" stroke="black" d="M1379.99,-439C1392.45,-439 1406.02,-439 1418.74,-439"/>
<polygon fill="black" stroke="black" points="1418.61,-442.5 1428.61,-439 1418.61,-435.5 1418.61,-442.5"/>
</g>
<!-- ip6_input_local&#45;&gt;l4_input_local -->
<g id="edge59" class="edge">
<title>ip6_input_local&#45;&gt;l4_input_local</title>
<path fill="none" stroke="black" d="M1337.6,-420.83C1345.48,-384.24 1367.81,-300.8 1415.79,-250 1419.24,-246.35 1423.28,-243.12 1427.58,-240.29"/>
<polygon fill="black" stroke="black" points="1429.05,-243.48 1435.95,-235.44 1425.54,-237.42 1429.05,-243.48"/>
</g>
<!-- ip6_output&#45;&gt;eth_output -->
<g id="edge61" class="edge">
<title>ip6_output&#45;&gt;eth_output</title>
<path fill="none" stroke="black" d="M1790.19,-587.34C1812.62,-625.67 1866.55,-717.82 1893.49,-763.87"/>
<polygon fill="black" stroke="black" points="1890.44,-765.57 1898.51,-772.43 1896.48,-762.03 1890.44,-765.57"/>
</g>
<!-- ip6_output&#45;&gt;loop_xvrf -->
<g id="edge63" class="edge">
<title>ip6_output&#45;&gt;loop_xvrf</title>
<path fill="none" stroke="black" d="M1758.69,-584.94C1740.16,-598.49 1710.92,-618 1682.59,-629 1593.63,-663.56 1567.05,-669 1471.62,-669 1220.87,-669 1220.87,-669 1220.87,-669 1156.21,-669 1086.25,-636.45 1047.35,-615.12"/>
<polygon fill="black" stroke="black" points="1049.44,-612.29 1039.01,-610.45 1046.02,-618.39 1049.44,-612.29"/>
</g>
<!-- ip6_output&#45;&gt;ip6_hold -->
<g id="edge62" class="edge">
<title>ip6_output&#45;&gt;ip6_hold</title>
<path fill="none" stroke="black" d="M1811.35,-576.54C1828.81,-580.18 1850.73,-584.76 1869.42,-588.66"/>
<polygon fill="black" stroke="black" points="1868.58,-592.06 1879.08,-590.68 1870.01,-585.21 1868.58,-592.06"/>
</g>
<!-- ip6_output&#45;&gt;ip6_loadbalance -->
<g id="edge64" class="edge">
<title>ip6_output&#45;&gt;ip6_loadbalance</title>
<path fill="none" stroke="black" d="M1744.54,-570.7C1723.62,-568.75 1696.31,-564.93 1672.88,-560.75"/>
<polygon fill="black" stroke="black" points="1673.69,-557.34 1663.22,-558.96 1672.41,-564.22 1673.69,-557.34"/>
</g>
<!-- ip6_output&#45;&gt;sr6_output -->
<g id="edge65" class="edge">
<title>ip6_output&#45;&gt;sr6_output</title>
<path fill="none" stroke="black" d="M1806.52,-558.9C1823.13,-554.26 1844.96,-549.41 1864.24,-545.95"/>
<polygon fill="black" stroke="black" points="1864.77,-549.41 1874.04,-544.3 1863.6,-542.51 1864.77,-549.41"/>
</g>
<!-- ipip_input&#45;&gt;ip_input -->
<g id="edge68" class="edge">
<title>ipip_input&#45;&gt;ip_input</title>
<path fill="none" stroke="black" d="M623.1,-119.77C551.08,-147.15 351.73,-224.05 328.05,-245 298.96,-270.73 279.01,-311.6 268.08,-338.85"/>
<polygon fill="black" stroke="black" points="264.94,-337.26 264.61,-347.85 271.47,-339.77 264.94,-337.26"/>
</g>
<!-- ipip_output&#45;&gt;ip_output -->
<g id="edge69" class="edge">
<title>ipip_output&#45;&gt;ip_output</title>
<path fill="none" stroke="black" d="M982.1,-492.26C970.74,-492.81 957.87,-492.9 946.03,-492.52"/>
<polygon fill="black" stroke="black" points="946.29,-489.03 936.14,-492.06 945.97,-496.02 946.29,-489.03"/>
</g>
<!-- dnat44_dynamic&#45;&gt;ip_forward -->
<g id="edge74" class="edge">
<title>dnat44_dynamic&#45;&gt;ip_forward</title>
<path fill="none" stroke="black" d="M433.09,-400.81C446.83,-402.77 461.75,-404.89 475.21,-406.81"/>
<polygon fill="black" stroke="black" points="474.71,-410.28 485.11,-408.22 475.7,-403.35 474.71,-410.28"/>
</g>
<!-- dnat44_dynamic&#45;&gt;ip_input_local -->
<g id="edge75" class="edge">
<title>dnat44_dynamic&#45;&gt;ip_input_local</title>
<path fill="none" stroke="black" d="M420.22,-380.54C427.45,-376.81 434.69,-372.3 440.7,-367 469.84,-341.31 492.58,-302.25 505.78,-275.96"/>
<polygon fill="black" stroke="black" points="508.79,-277.77 510.02,-267.25 502.5,-274.71 508.79,-277.77"/>
</g>
<!-- dnat44_static&#45;&gt;ip_forward -->
<g id="edge76" class="edge">
<title>dnat44_static&#45;&gt;ip_forward</title>
<path fill="none" stroke="black" d="M414.02,-353.45C422.67,-357.65 432.14,-362.39 440.7,-367 456.17,-375.32 472.99,-385.16 487.02,-393.59"/>
<polygon fill="black" stroke="black" points="485.03,-396.47 495.4,-398.66 488.66,-390.49 485.03,-396.47"/>
</g>
<!-- dnat44_static&#45;&gt;ip_input_local -->
<g id="edge77" class="edge">
<title>dnat44_static&#45;&gt;ip_input_local</title>
<path fill="none" stroke="black" d="M407.67,-324.6C429.38,-309.61 462.58,-286.68 487,-269.81"/>
<polygon fill="black" stroke="black" points="488.73,-272.87 494.97,-264.31 484.75,-267.11 488.73,-272.87"/>
</g>
<!-- sr6_local&#45;&gt;ip_input -->
<g id="edge78" class="edge">
<title>sr6_local&#45;&gt;ip_input</title>
<path fill="none" stroke="black" d="M1210.35,-435.09C1183.52,-394.33 1108.21,-294 1016.8,-294 518.59,-294 518.59,-294 518.59,-294 433.48,-294 407.13,-281.56 328.05,-313 310.44,-320 293.54,-332.81 280.77,-344.2"/>
<polygon fill="black" stroke="black" points="278.68,-341.37 273.73,-350.74 283.44,-346.5 278.68,-341.37"/>
</g>
<!-- sr6_local&#45;&gt;ip6_input -->
<g id="edge79" class="edge">
<title>sr6_local&#45;&gt;ip6_input</title>
<path fill="none" stroke="black" d="M1209.78,-468.54C1195.16,-486.8 1169,-515.78 1149.29,-535.9"/>
<polygon fill="black" stroke="black" points="1146.94,-533.3 1142.36,-542.85 1151.9,-538.24 1146.94,-533.3"/>
</g>
<!-- sr6_local&#45;&gt;ip6_input_local -->
<g id="edge80" class="edge">
<title>sr6_local&#45;&gt;ip6_input_local</title>
<path fill="none" stroke="black" d="M1250.44,-448.72C1258.44,-447.77 1267.47,-446.69 1276.54,-445.61"/>
<polygon fill="black" stroke="black" points="1276.96,-449.09 1286.47,-444.43 1276.13,-442.14 1276.96,-449.09"/>
</g>
<!-- sr6_output&#45;&gt;ip6_output -->
<g id="edge81" class="edge">
<title>sr6_output&#45;&gt;ip6_output</title>
<path fill="none" stroke="black" d="M1882.69,-554.15C1865.97,-558.82 1843.99,-563.69 1824.66,-567.14"/>
<polygon fill="black" stroke="black" points="1824.12,-563.68 1814.84,-568.78 1825.28,-570.58 1824.12,-563.68"/>
</g>
<!-- icmp_output -->
<g id="node43" class="node">
<title>icmp_output</title>
<ellipse fill="none" stroke="black" cx="784.47" cy="-378" rx="39.52" ry="18"/>
<text xml:space="preserve" text-anchor="middle" x="784.47" y="-374.3" font-family="sans" font-size="11.00">icmp_output</text>
</g>
<!-- icmp_input&#45;&gt;icmp_output -->
<g id="edge24" class="edge">
<title>icmp_input&#45;&gt;icmp_output</title>
<path fill="none" stroke="black" d="M685.06,-378C699.75,-378 717.22,-378 733.33,-378"/>
<polygon fill="black" stroke="black" points="733.25,-381.5 743.25,-378 733.25,-374.5 733.25,-381.5"/>
</g>
<!-- icmp_local_send -->
<g id="node42" class="node">
<title>icmp_local_send</title>
<polygon fill="none" stroke="dodgerblue" points="701.37,-450 598.47,-450 598.47,-414 701.37,-414 701.37,-450"/>
<text xml:space="preserve" text-anchor="middle" x="649.92" y="-428.3" font-family="sans" font-size="11.00">icmp_local_send</text>
</g>
<!-- icmp_local_send&#45;&gt;icmp_output -->
<g id="edge25" class="edge">
<title>icmp_local_send&#45;&gt;icmp_output</title>
<path fill="none" stroke="dodgerblue" d="M696.17,-413.57C711.62,-407.27 728.77,-400.29 743.75,-394.18"/>
<polygon fill="dodgerblue" stroke="dodgerblue" points="744.88,-397.5 752.82,-390.49 742.24,-391.02 744.88,-397.5"/>
</g>
<!-- icmp_output&#45;&gt;ip_output -->
<g id="edge26" class="edge">
<title>icmp_output&#45;&gt;ip_output</title>
<path fill="none" stroke="black" d="M811.75,-391.53C818.48,-395.49 825.52,-400.08 831.57,-405 851.8,-421.45 871.44,-443.6 885.28,-460.58"/>
<polygon fill="black" stroke="black" points="882.41,-462.61 891.39,-468.23 887.88,-458.24 882.41,-462.61"/>
</g>
<!-- icmp6_output -->
<g id="node45" class="node">
<title>icmp6_output</title>
<ellipse fill="none" stroke="black" cx="1622.01" cy="-331" rx="43.31" ry="18"/>
<text xml:space="preserve" text-anchor="middle" x="1622.01" y="-327.3" font-family="sans" font-size="11.00">icmp6_output</text>
</g>
<!-- icmp6_input&#45;&gt;icmp6_output -->
<g id="edge46" class="edge">
<title>icmp6_input&#45;&gt;icmp6_output</title>
<path fill="none" stroke="dodgerblue" d="M1511.09,-422.25C1516.19,-419.23 1521.13,-415.81 1525.44,-412 1547.05,-392.9 1539.46,-376.67 1561.44,-358 1566.2,-353.96 1571.67,-350.4 1577.31,-347.32"/>
<polygon fill="dodgerblue" stroke="dodgerblue" points="1578.78,-350.5 1586.2,-342.93 1575.69,-344.22 1578.78,-350.5"/>
</g>
<!-- ndp_na_input -->
<g id="node47" class="node">
<title>ndp_na_input</title>
<polygon fill="none" stroke="dodgerblue" points="1665.21,-457 1578.81,-457 1578.81,-421 1665.21,-421 1665.21,-457"/>
<text xml:space="preserve" text-anchor="middle" x="1622.01" y="-435.3" font-family="sans" font-size="11.00">ndp_na_input</text>
</g>
<!-- icmp6_input&#45;&gt;ndp_na_input -->
<g id="edge48" class="edge">
<title>icmp6_input&#45;&gt;ndp_na_input</title>
<path fill="none" stroke="dodgerblue" d="M1511.26,-439C1528.36,-439 1548.63,-439 1567.07,-439"/>
<polygon fill="dodgerblue" stroke="dodgerblue" points="1567.05,-442.5 1577.05,-439 1567.05,-435.5 1567.05,-442.5"/>
</g>
<!-- ndp_ns_input -->
<g id="node49" class="node">
<title>ndp_ns_input</title>
<polygon fill="none" stroke="dodgerblue" points="1664.84,-403 1579.19,-403 1579.19,-367 1664.84,-367 1664.84,-403"/>
<text xml:space="preserve" text-anchor="middle" x="1622.01" y="-381.3" font-family="sans" font-size="11.00">ndp_ns_input</text>
</g>
<!-- icmp6_input&#45;&gt;ndp_ns_input -->
<g id="edge47" class="edge">
<title>icmp6_input&#45;&gt;ndp_ns_input</title>
<path fill="none" stroke="dodgerblue" d="M1511.26,-424.67C1528.68,-418.38 1549.38,-410.89 1568.09,-404.13"/>
<polygon fill="dodgerblue" stroke="dodgerblue" points="1569.19,-407.45 1577.41,-400.76 1566.81,-400.87 1569.19,-407.45"/>
</g>
<!-- ndp_rs_input -->
<g id="node51" class="node">
<title>ndp_rs_input</title>
<polygon fill="none" stroke="dodgerblue" points="1663.71,-511 1580.31,-511 1580.31,-475 1663.71,-475 1663.71,-511"/>
<text xml:space="preserve" text-anchor="middle" x="1622.01" y="-489.3" font-family="sans" font-size="11.00">ndp_rs_input</text>
</g>
<!-- icmp6_input&#45;&gt;ndp_rs_input -->
<g id="edge49" class="edge">
<title>icmp6_input&#45;&gt;ndp_rs_input</title>
<path fill="none" stroke="dodgerblue" d="M1511.26,-453.33C1529.05,-459.76 1550.26,-467.43 1569.28,-474.3"/>
<polygon fill="dodgerblue" stroke="dodgerblue" points="1567.86,-477.51 1578.46,-477.62 1570.24,-470.93 1567.86,-477.51"/>
</g>
<!-- icmp6_output&#45;&gt;ip6_output -->
<g id="edge50" class="edge">
<title>icmp6_output&#45;&gt;ip6_output</title>
<path fill="none" stroke="black" d="M1657.5,-341.62C1666.5,-345.65 1675.61,-351.01 1682.59,-358 1734.79,-410.33 1761.15,-496.28 1771.93,-540.97"/>
<polygon fill="black" stroke="black" points="1768.45,-541.48 1774.11,-550.43 1775.28,-539.9 1768.45,-541.48"/>
</g>
<!-- icmp6_local_send -->
<g id="node46" class="node">
<title>icmp6_local_send</title>
<polygon fill="none" stroke="dodgerblue" points="1525.44,-349 1415.79,-349 1415.79,-313 1525.44,-313 1525.44,-349"/>
<text xml:space="preserve" text-anchor="middle" x="1470.62" y="-327.3" font-family="sans" font-size="11.00">icmp6_local_send</text>
</g>
<!-- icmp6_local_send&#45;&gt;icmp6_output -->
<g id="edge51" class="edge">
<title>icmp6_local_send&#45;&gt;icmp6_output</title>
<path fill="none" stroke="dodgerblue" d="M1525.55,-331C1539.13,-331 1553.71,-331 1567.28,-331"/>
<polygon fill="dodgerblue" stroke="dodgerblue" points="1566.89,-334.5 1576.89,-331 1566.89,-327.5 1566.89,-334.5"/>
</g>
<!-- ndp_na_output -->
<g id="node48" class="node">
<title>ndp_na_output</title>
<polygon fill="none" stroke="dodgerblue" points="1517.94,-295 1423.29,-295 1423.29,-259 1517.94,-259 1517.94,-295"/>
<text xml:space="preserve" text-anchor="middle" x="1470.62" y="-273.3" font-family="sans" font-size="11.00">ndp_na_output</text>
</g>
<!-- ndp_na_output&#45;&gt;icmp6_output -->
<g id="edge66" class="edge">
<title>ndp_na_output&#45;&gt;icmp6_output</title>
<path fill="none" stroke="dodgerblue" d="M1518.07,-293.79C1537.11,-300.67 1559.03,-308.6 1577.74,-315.36"/>
<polygon fill="dodgerblue" stroke="dodgerblue" points="1576.32,-318.57 1586.91,-318.67 1578.7,-311.98 1576.32,-318.57"/>
</g>
<!-- ndp_ns_output -->
<g id="node50" class="node">
<title>ndp_ns_output</title>
<polygon fill="none" stroke="dodgerblue" points="1517.57,-403 1423.67,-403 1423.67,-367 1517.57,-367 1517.57,-403"/>
<text xml:space="preserve" text-anchor="middle" x="1470.62" y="-381.3" font-family="sans" font-size="11.00">ndp_ns_output</text>
</g>
<!-- ndp_ns_output&#45;&gt;icmp6_output -->
<g id="edge67" class="edge">
<title>ndp_ns_output&#45;&gt;icmp6_output</title>
<path fill="none" stroke="dodgerblue" d="M1517.66,-368.36C1536.87,-361.42 1559.05,-353.4 1577.94,-346.57"/>
<polygon fill="dodgerblue" stroke="dodgerblue" points="1578.99,-349.91 1587.2,-343.22 1576.61,-343.33 1578.99,-349.91"/>
</g>
<!-- l4_loopback_output -->
<g id="node53" class="node">
<title>l4_loopback_output</title>
<ellipse fill="none" stroke="black" cx="1622.01" cy="-223" rx="60.57" ry="18"/>
<text xml:space="preserve" text-anchor="middle" x="1622.01" y="-219.3" font-family="sans" font-size="11.00">l4_loopback_output</text>
</g>
<!-- l4_input_local&#45;&gt;l4_loopback_output -->
<g id="edge70" class="edge">
<title>l4_input_local&#45;&gt;l4_loopback_output</title>
<path fill="none" stroke="black" d="M1513.63,-223C1524.93,-223 1537.47,-223 1549.88,-223"/>
<polygon fill="black" stroke="black" points="1549.69,-226.5 1559.69,-223 1549.69,-219.5 1549.69,-226.5"/>
</g>
<!-- dhcp_input -->
<g id="node54" class="node">
<title>dhcp_input</title>
<polygon fill="none" stroke="dodgerblue" points="1658.84,-295 1585.19,-295 1585.19,-259 1658.84,-259 1658.84,-295"/>
<text xml:space="preserve" text-anchor="middle" x="1622.01" y="-273.3" font-family="sans" font-size="11.00">dhcp_input</text>
</g>
<!-- l4_input_local&#45;&gt;dhcp_input -->
<g id="edge71" class="edge">
<title>l4_input_local&#45;&gt;dhcp_input</title>
<path fill="none" stroke="black" d="M1504.03,-234.72C1524.46,-242.1 1551.18,-251.76 1573.93,-259.98"/>
<polygon fill="black" stroke="black" points="1572.71,-263.26 1583.31,-263.37 1575.09,-256.68 1572.71,-263.26"/>
</g>
<!-- l4_loopback_output&#45;&gt;loopback_output -->
<g id="edge72" class="edge">
<title>l4_loopback_output&#45;&gt;loopback_output</title>
<path fill="none" stroke="black" d="M1682.95,-223C1693.59,-223 1704.69,-223 1715.4,-223"/>
<polygon fill="black" stroke="black" points="1715.31,-226.5 1725.31,-223 1715.31,-219.5 1715.31,-226.5"/>
</g>
</g>
</svg>
