<?xml version="1.0" encoding="UTF-8" standalone="no"?>
<!DOCTYPE svg PUBLIC "-//W3C//DTD SVG 1.1//EN"
 "http://www.w3.org/Graphics/SVG/1.1/DTD/svg11.dtd">
<!-- Generated by graphviz version 12.1.0 (20240811.2233)
 -->
<!-- Title: gr&#45;0003 Pages: 1 -->
<svg width="1252pt" height="847pt"
 viewBox="0.00 0.00 1251.56 847.00" xmlns="http://www.w3.org/2000/svg" xmlns:xlink="http://www.w3.org/1999/xlink">
<g id="graph0" class="graph" transform="scale(1 1) rotate(0) translate(4 843)">
<title>gr&#45;0003</title>
<polygon fill="white" stroke="none" points="-4,4 -4,-843 1247.56,-843 1247.56,4 -4,4"/>
<!-- control_input -->
<g id="node1" class="node">
<title>control_input</title>
<ellipse fill="none" stroke="blue" stroke-width="2" cx="41.62" cy="-593" rx="41.62" ry="18"/>
<text text-anchor="middle" x="41.62" y="-589.3" font-family="sans" font-size="11.00">control_input</text>
</g>
<!-- loopback_input -->
<g id="node2" class="node">
<title>loopback_input</title>
<ellipse fill="none" stroke="black" cx="166.76" cy="-528" rx="47.52" ry="18"/>
<text text-anchor="middle" x="166.76" y="-524.3" font-family="sans" font-size="11.00">loopback_input</text>
</g>
<!-- control_input&#45;&gt;loopback_input -->
<g id="edge1" class="edge">
<title>control_input&#45;&gt;loopback_input</title>
<path fill="none" stroke="blue" stroke-width="2" d="M69.04,-579.06C86.21,-569.99 108.87,-558.03 127.94,-547.96"/>
<polygon fill="blue" stroke="blue" stroke-width="2" points="128.22,-551.77 135.43,-544.01 124.96,-545.58 128.22,-551.77"/>
</g>
<!-- arp_output_request -->
<g id="node3" class="node">
<title>arp_output_request</title>
<ellipse fill="none" stroke="black" cx="311.7" cy="-821" rx="61.42" ry="18"/>
<text text-anchor="middle" x="311.7" y="-817.3" font-family="sans" font-size="11.00">arp_output_request</text>
</g>
<!-- control_input&#45;&gt;arp_output_request -->
<g id="edge2" class="edge">
<title>control_input&#45;&gt;arp_output_request</title>
<path fill="none" stroke="blue" stroke-width="2" d="M43.96,-611.3C47.88,-650.63 62.94,-743.29 119.25,-789 152.82,-816.26 200.85,-824.23 240.4,-825.4"/>
<polygon fill="blue" stroke="blue" stroke-width="2" points="238.76,-828.88 248.81,-825.52 238.86,-821.88 238.76,-828.88"/>
</g>
<!-- icmp_local_send -->
<g id="node4" class="node">
<title>icmp_local_send</title>
<ellipse fill="none" stroke="black" cx="311.7" cy="-729" rx="51.31" ry="18"/>
<text text-anchor="middle" x="311.7" y="-725.3" font-family="sans" font-size="11.00">icmp_local_send</text>
</g>
<!-- control_input&#45;&gt;icmp_local_send -->
<g id="edge3" class="edge">
<title>control_input&#45;&gt;icmp_local_send</title>
<path fill="none" stroke="blue" stroke-width="2" d="M69.31,-606.54C116.71,-630.59 215.81,-680.86 271.16,-708.94"/>
<polygon fill="blue" stroke="blue" stroke-width="2" points="268.09,-711.31 278.59,-712.71 271.25,-705.06 268.09,-711.31"/>
</g>
<!-- ndp_ns_output -->
<g id="node5" class="node">
<title>ndp_ns_output</title>
<ellipse fill="none" stroke="black" cx="166.76" cy="-181" rx="46.26" ry="18"/>
<text text-anchor="middle" x="166.76" y="-177.3" font-family="sans" font-size="11.00">ndp_ns_output</text>
</g>
<!-- control_input&#45;&gt;ndp_ns_output -->
<g id="edge4" class="edge">
<title>control_input&#45;&gt;ndp_ns_output</title>
<path fill="none" stroke="blue" stroke-width="2" d="M44.65,-574.89C50.86,-523.47 72.08,-372.81 119.25,-257 126.24,-239.82 136.89,-222.06 146.23,-208.04"/>
<polygon fill="blue" stroke="blue" stroke-width="2" points="148.26,-211.27 151.02,-201.04 142.49,-207.31 148.26,-211.27"/>
</g>
<!-- ip_output -->
<g id="node6" class="node">
<title>ip_output</title>
<ellipse fill="none" stroke="black" cx="921.34" cy="-695" rx="30.25" ry="18"/>
<text text-anchor="middle" x="921.34" y="-691.3" font-family="sans" font-size="11.00">ip_output</text>
</g>
<!-- control_input&#45;&gt;ip_output -->
<g id="edge5" class="edge">
<title>control_input&#45;&gt;ip_output</title>
<path fill="none" stroke="blue" stroke-width="2" d="M55.53,-610.45C90.85,-656 194.25,-775 310.7,-775 310.7,-775 310.7,-775 611.41,-775 713.99,-775 829.79,-733.15 886.02,-709.99"/>
<polygon fill="blue" stroke="blue" stroke-width="2" points="885.79,-713.88 893.66,-706.79 883.09,-707.42 885.79,-713.88"/>
</g>
<!-- ip6_output -->
<g id="node7" class="node">
<title>ip6_output</title>
<ellipse fill="none" stroke="black" cx="921.34" cy="-318" rx="34.04" ry="18"/>
<text text-anchor="middle" x="921.34" y="-314.3" font-family="sans" font-size="11.00">ip6_output</text>
</g>
<!-- control_input&#45;&gt;ip6_output -->
<g id="edge6" class="edge">
<title>control_input&#45;&gt;ip6_output</title>
<path fill="none" stroke="blue" stroke-width="2" d="M56.42,-575.76C71.52,-557.06 96.59,-526.47 119.25,-501 225.15,-381.94 253.45,-324.06 409.11,-290 543.93,-260.5 580.64,-309.11 718.35,-318 772.34,-321.49 834.61,-320.77 875.57,-319.65"/>
<polygon fill="blue" stroke="blue" stroke-width="2" points="874.14,-323.2 884.03,-319.4 873.93,-316.2 874.14,-323.2"/>
</g>
<!-- loopback_input&#45;&gt;ip_output -->
<g id="edge12" class="edge">
<title>loopback_input&#45;&gt;ip_output</title>
<path fill="none" stroke="black" d="M188.91,-544.18C229.54,-574.6 322.23,-640.79 409.11,-680 580.75,-757.45 644.64,-726.58 831.92,-707 847.88,-705.33 865.4,-703.05 880.61,-700.92"/>
<polygon fill="black" stroke="black" points="880.82,-704.43 890.22,-699.55 879.83,-697.5 880.82,-704.43"/>
</g>
<!-- loopback_input&#45;&gt;ip6_output -->
<g id="edge14" class="edge">
<title>loopback_input&#45;&gt;ip6_output</title>
<path fill="none" stroke="black" d="M203,-516.11C217.59,-511.28 234.71,-505.73 250.28,-501 377.58,-462.3 409.64,-453.23 538.47,-420 668.2,-386.53 703.69,-389.84 831.92,-351 849.12,-345.79 867.81,-338.99 883.56,-332.91"/>
<polygon fill="black" stroke="black" points="884.49,-336.31 892.53,-329.4 881.94,-329.79 884.49,-336.31"/>
</g>
<!-- ip_input_local -->
<g id="node15" class="node">
<title>ip_input_local</title>
<ellipse fill="none" stroke="black" cx="311.7" cy="-528" rx="42.89" ry="18"/>
<text text-anchor="middle" x="311.7" y="-524.3" font-family="sans" font-size="11.00">ip_input_local</text>
</g>
<!-- loopback_input&#45;&gt;ip_input_local -->
<g id="edge11" class="edge">
<title>loopback_input&#45;&gt;ip_input_local</title>
<path fill="none" stroke="black" d="M214.57,-528C228.18,-528 243.15,-528 257.14,-528"/>
<polygon fill="black" stroke="black" points="257.1,-531.5 267.1,-528 257.1,-524.5 257.1,-531.5"/>
</g>
<!-- ip6_input_local -->
<g id="node16" class="node">
<title>ip6_input_local</title>
<ellipse fill="none" stroke="black" cx="455.79" cy="-317" rx="46.68" ry="18"/>
<text text-anchor="middle" x="455.79" y="-313.3" font-family="sans" font-size="11.00">ip6_input_local</text>
</g>
<!-- loopback_input&#45;&gt;ip6_input_local -->
<g id="edge13" class="edge">
<title>loopback_input&#45;&gt;ip6_input_local</title>
<path fill="none" stroke="black" d="M183.67,-510.99C199.7,-494.28 225.53,-468.54 250.28,-449 305.89,-405.09 376.39,-362.07 418.42,-337.62"/>
<polygon fill="black" stroke="black" points="419.99,-340.75 426.9,-332.71 416.49,-334.69 419.99,-340.75"/>
</g>
<!-- eth_output -->
<g id="node13" class="node">
<title>eth_output</title>
<ellipse fill="none" stroke="black" cx="1062.9" cy="-641" rx="34.89" ry="18"/>
<text text-anchor="middle" x="1062.9" y="-637.3" font-family="sans" font-size="11.00">eth_output</text>
</g>
<!-- arp_output_request&#45;&gt;eth_output -->
<g id="edge23" class="edge">
<title>arp_output_request&#45;&gt;eth_output</title>
<path fill="none" stroke="black" d="M373.22,-819.71C433.18,-818.54 527.63,-817 609.41,-817 609.41,-817 609.41,-817 776.14,-817 873.99,-817 900.83,-786.11 974.75,-722 996.54,-703.1 989.34,-687.33 1010.75,-668 1015.02,-664.15 1019.94,-660.67 1025,-657.58"/>
<polygon fill="black" stroke="black" points="1026.42,-660.8 1033.47,-652.89 1023.03,-654.68 1026.42,-660.8"/>
</g>
<!-- icmp_output -->
<g id="node23" class="node">
<title>icmp_output</title>
<ellipse fill="none" stroke="black" cx="610.41" cy="-691" rx="39.52" ry="18"/>
<text text-anchor="middle" x="610.41" y="-687.3" font-family="sans" font-size="11.00">icmp_output</text>
</g>
<!-- icmp_local_send&#45;&gt;icmp_output -->
<g id="edge26" class="edge">
<title>icmp_local_send&#45;&gt;icmp_output</title>
<path fill="none" stroke="black" d="M360.37,-722.89C415.43,-715.84 505.52,-704.31 560.92,-697.21"/>
<polygon fill="black" stroke="black" points="561.21,-700.7 570.69,-695.96 560.32,-693.76 561.21,-700.7"/>
</g>
<!-- ndp_ns_output&#45;&gt;ip6_output -->
<g id="edge58" class="edge">
<title>ndp_ns_output&#45;&gt;ip6_output</title>
<path fill="none" stroke="black" d="M208.83,-173.07C337.89,-149.1 732.59,-83.4 831.92,-156 874.47,-187.1 839.76,-224.45 867.92,-269 874.19,-278.92 882.95,-288.18 891.52,-295.92"/>
<polygon fill="black" stroke="black" points="889.24,-298.58 899.11,-302.42 893.79,-293.26 889.24,-298.58"/>
</g>
<!-- ip_output&#45;&gt;eth_output -->
<g id="edge37" class="edge">
<title>ip_output&#45;&gt;eth_output</title>
<path fill="none" stroke="black" d="M947.29,-685.35C968.5,-677.14 999.3,-665.22 1023.63,-655.81"/>
<polygon fill="black" stroke="black" points="1024.82,-659.1 1032.88,-652.23 1022.29,-652.57 1024.82,-659.1"/>
</g>
<!-- loopback_output -->
<g id="node17" class="node">
<title>loopback_output</title>
<ellipse fill="none" stroke="black" cx="1062.9" cy="-417" rx="52.15" ry="18"/>
<text text-anchor="middle" x="1062.9" y="-413.3" font-family="sans" font-size="11.00">loopback_output</text>
</g>
<!-- ip_output&#45;&gt;loopback_output -->
<g id="edge39" class="edge">
<title>ip_output&#45;&gt;loopback_output</title>
<path fill="none" stroke="black" d="M931.07,-677.61C954.5,-630.93 1018.95,-502.55 1047.72,-445.25"/>
<polygon fill="black" stroke="black" points="1050.77,-446.96 1052.13,-436.46 1044.52,-443.82 1050.77,-446.96"/>
</g>
<!-- ip_hold -->
<g id="node25" class="node">
<title>ip_hold</title>
<ellipse fill="none" stroke="black" cx="1062.9" cy="-695" rx="27" ry="18"/>
<text text-anchor="middle" x="1062.9" y="-691.3" font-family="sans" font-size="11.00">ip_hold</text>
</g>
<!-- ip_output&#45;&gt;ip_hold -->
<g id="edge38" class="edge">
<title>ip_output&#45;&gt;ip_hold</title>
<path fill="none" stroke="black" d="M951.93,-695C973.06,-695 1001.63,-695 1024.36,-695"/>
<polygon fill="black" stroke="black" points="1024.13,-698.5 1034.13,-695 1024.13,-691.5 1024.13,-698.5"/>
</g>
<!-- ipip_output -->
<g id="node30" class="node">
<title>ipip_output</title>
<ellipse fill="none" stroke="black" cx="1062.9" cy="-749" rx="35.73" ry="18"/>
<text text-anchor="middle" x="1062.9" y="-745.3" font-family="sans" font-size="11.00">ipip_output</text>
</g>
<!-- ip_output&#45;&gt;ipip_output -->
<g id="edge40" class="edge">
<title>ip_output&#45;&gt;ipip_output</title>
<path fill="none" stroke="black" d="M950.58,-700.38C973.23,-707.65 1005.07,-719.87 1028.9,-730.4"/>
<polygon fill="black" stroke="black" points="1027.3,-733.51 1037.85,-734.46 1030.19,-727.14 1027.3,-733.51"/>
</g>
<!-- ip6_output&#45;&gt;eth_output -->
<g id="edge53" class="edge">
<title>ip6_output&#45;&gt;eth_output</title>
<path fill="none" stroke="black" d="M930.04,-335.83C953.1,-389.21 1021.76,-548.1 1049.78,-612.96"/>
<polygon fill="black" stroke="black" points="1046.44,-614.05 1053.62,-621.84 1052.87,-611.27 1046.44,-614.05"/>
</g>
<!-- ip6_output&#45;&gt;loopback_output -->
<g id="edge55" class="edge">
<title>ip6_output&#45;&gt;loopback_output</title>
<path fill="none" stroke="black" d="M942.63,-332.4C965.39,-348.54 1002.62,-374.95 1029.43,-393.97"/>
<polygon fill="black" stroke="black" points="1027.38,-396.8 1037.56,-399.73 1031.43,-391.09 1027.38,-396.8"/>
</g>
<!-- ip6_hold -->
<g id="node36" class="node">
<title>ip6_hold</title>
<ellipse fill="none" stroke="black" cx="1062.9" cy="-335" rx="27" ry="18"/>
<text text-anchor="middle" x="1062.9" y="-331.3" font-family="sans" font-size="11.00">ip6_hold</text>
</g>
<!-- ip6_output&#45;&gt;ip6_hold -->
<g id="edge54" class="edge">
<title>ip6_output&#45;&gt;ip6_hold</title>
<path fill="none" stroke="black" d="M955.06,-321.99C975.86,-324.52 1002.85,-327.81 1024.5,-330.44"/>
<polygon fill="black" stroke="black" points="1024.05,-333.92 1034.4,-331.65 1024.9,-326.97 1024.05,-333.92"/>
</g>
<!-- control_output -->
<g id="node8" class="node">
<title>control_output</title>
<ellipse fill="none" stroke="black" cx="1197.31" cy="-373" rx="46.26" ry="18"/>
<text text-anchor="middle" x="1197.31" y="-369.3" font-family="sans" font-size="11.00">control_output</text>
</g>
<!-- eth_input -->
<g id="node9" class="node">
<title>eth_input</title>
<ellipse fill="none" stroke="black" cx="166.76" cy="-97" rx="30.25" ry="18"/>
<text text-anchor="middle" x="166.76" y="-93.3" font-family="sans" font-size="11.00">eth_input</text>
</g>
<!-- arp_input -->
<g id="node10" class="node">
<title>arp_input</title>
<ellipse fill="none" stroke="black" cx="610.41" cy="-51" rx="30.25" ry="18"/>
<text text-anchor="middle" x="610.41" y="-47.3" font-family="sans" font-size="11.00">arp_input</text>
</g>
<!-- eth_input&#45;&gt;arp_input -->
<g id="edge7" class="edge">
<title>eth_input&#45;&gt;arp_input</title>
<path fill="none" stroke="black" d="M192.6,-86.97C208.75,-80.93 230.43,-73.71 250.28,-70 364.06,-48.76 501.36,-48.32 568.47,-49.69"/>
<polygon fill="black" stroke="black" points="568.18,-53.19 578.26,-49.92 568.34,-46.19 568.18,-53.19"/>
</g>
<!-- ip_input -->
<g id="node11" class="node">
<title>ip_input</title>
<ellipse fill="none" stroke="black" cx="610.41" cy="-555" rx="27" ry="18"/>
<text text-anchor="middle" x="610.41" y="-551.3" font-family="sans" font-size="11.00">ip_input</text>
</g>
<!-- eth_input&#45;&gt;ip_input -->
<g id="edge8" class="edge">
<title>eth_input&#45;&gt;ip_input</title>
<path fill="none" stroke="black" d="M181.33,-113.22C245.41,-189.77 515.7,-512.02 538.47,-528 549.01,-535.4 561.85,-541.09 573.69,-545.29"/>
<polygon fill="black" stroke="black" points="572.6,-548.61 583.19,-548.4 574.77,-541.96 572.6,-548.61"/>
</g>
<!-- ip6_input -->
<g id="node12" class="node">
<title>ip6_input</title>
<ellipse fill="none" stroke="black" cx="311.7" cy="-97" rx="29.41" ry="18"/>
<text text-anchor="middle" x="311.7" y="-93.3" font-family="sans" font-size="11.00">ip6_input</text>
</g>
<!-- eth_input&#45;&gt;ip6_input -->
<g id="edge9" class="edge">
<title>eth_input&#45;&gt;ip6_input</title>
<path fill="none" stroke="black" d="M197.38,-97C218.65,-97 247.54,-97 270.84,-97"/>
<polygon fill="black" stroke="black" points="270.58,-100.5 280.58,-97 270.58,-93.5 270.58,-100.5"/>
</g>
<!-- arp_input_request -->
<g id="node19" class="node">
<title>arp_input_request</title>
<ellipse fill="none" stroke="black" cx="775.14" cy="-53" rx="56.78" ry="18"/>
<text text-anchor="middle" x="775.14" y="-49.3" font-family="sans" font-size="11.00">arp_input_request</text>
</g>
<!-- arp_input&#45;&gt;arp_input_request -->
<g id="edge17" class="edge">
<title>arp_input&#45;&gt;arp_input_request</title>
<path fill="none" stroke="black" d="M640.88,-51.36C659.21,-51.59 683.58,-51.89 706.46,-52.17"/>
<polygon fill="black" stroke="black" points="706.34,-55.67 716.38,-52.29 706.43,-48.67 706.34,-55.67"/>
</g>
<!-- arp_input_reply -->
<g id="node20" class="node">
<title>arp_input_reply</title>
<ellipse fill="none" stroke="black" cx="921.34" cy="-18" rx="48.78" ry="18"/>
<text text-anchor="middle" x="921.34" y="-14.3" font-family="sans" font-size="11.00">arp_input_reply</text>
</g>
<!-- arp_input&#45;&gt;arp_input_reply -->
<g id="edge18" class="edge">
<title>arp_input&#45;&gt;arp_input_reply</title>
<path fill="none" stroke="black" d="M637.96,-43.31C659.44,-37.45 690.58,-29.76 718.35,-26 766.09,-19.53 820.71,-17.7 861.1,-17.39"/>
<polygon fill="black" stroke="black" points="860.87,-20.9 870.85,-17.35 860.84,-13.9 860.87,-20.9"/>
</g>
<!-- ip_input&#45;&gt;ip_input_local -->
<g id="edge31" class="edge">
<title>ip_input&#45;&gt;ip_input_local</title>
<path fill="none" stroke="black" d="M583.39,-552.63C534.79,-548.21 429.4,-538.62 365.4,-532.8"/>
<polygon fill="black" stroke="black" points="365.74,-529.31 355.46,-531.89 365.1,-536.28 365.74,-529.31"/>
</g>
<!-- ip_forward -->
<g id="node24" class="node">
<title>ip_forward</title>
<ellipse fill="none" stroke="black" cx="775.14" cy="-647" rx="33.62" ry="18"/>
<text text-anchor="middle" x="775.14" y="-643.3" font-family="sans" font-size="11.00">ip_forward</text>
</g>
<!-- ip_input&#45;&gt;ip_forward -->
<g id="edge30" class="edge">
<title>ip_input&#45;&gt;ip_forward</title>
<path fill="none" stroke="black" d="M631.69,-566.47C659.14,-581.98 708.44,-609.85 741.22,-628.39"/>
<polygon fill="black" stroke="black" points="739.49,-631.43 749.92,-633.31 742.94,-625.34 739.49,-631.43"/>
</g>
<!-- ip6_input&#45;&gt;ip6_input_local -->
<g id="edge48" class="edge">
<title>ip6_input&#45;&gt;ip6_input_local</title>
<path fill="none" stroke="black" d="M323.61,-113.9C348.08,-151.78 407.5,-243.79 437.24,-289.82"/>
<polygon fill="black" stroke="black" points="434.26,-291.66 442.63,-298.16 440.14,-287.86 434.26,-291.66"/>
</g>
<!-- ip6_forward -->
<g id="node35" class="node">
<title>ip6_forward</title>
<ellipse fill="none" stroke="black" cx="455.79" cy="-97" rx="37.41" ry="18"/>
<text text-anchor="middle" x="455.79" y="-93.3" font-family="sans" font-size="11.00">ip6_forward</text>
</g>
<!-- ip6_input&#45;&gt;ip6_forward -->
<g id="edge47" class="edge">
<title>ip6_input&#45;&gt;ip6_forward</title>
<path fill="none" stroke="black" d="M341.45,-97C360.15,-97 384.99,-97 406.65,-97"/>
<polygon fill="black" stroke="black" points="406.45,-100.5 416.45,-97 406.45,-93.5 406.45,-100.5"/>
</g>
<!-- port_tx -->
<g id="node14" class="node">
<title>port_tx</title>
<ellipse fill="none" stroke="black" cx="1197.31" cy="-641" rx="27" ry="18"/>
<text text-anchor="middle" x="1197.31" y="-637.3" font-family="sans" font-size="11.00">port_tx</text>
</g>
<!-- eth_output&#45;&gt;port_tx -->
<g id="edge10" class="edge">
<title>eth_output&#45;&gt;port_tx</title>
<path fill="none" stroke="black" d="M1098,-641C1116.53,-641 1139.48,-641 1158.55,-641"/>
<polygon fill="black" stroke="black" points="1158.33,-644.5 1168.33,-641 1158.33,-637.5 1158.33,-644.5"/>
</g>
<!-- icmp_input -->
<g id="node22" class="node">
<title>icmp_input</title>
<ellipse fill="none" stroke="black" cx="455.79" cy="-653" rx="34.89" ry="18"/>
<text text-anchor="middle" x="455.79" y="-649.3" font-family="sans" font-size="11.00">icmp_input</text>
</g>
<!-- ip_input_local&#45;&gt;icmp_input -->
<g id="edge32" class="edge">
<title>ip_input_local&#45;&gt;icmp_input</title>
<path fill="none" stroke="black" d="M326.9,-544.92C344.75,-565.58 376.97,-600.86 409.11,-626 412.87,-628.94 416.97,-631.79 421.13,-634.47"/>
<polygon fill="black" stroke="black" points="419.14,-637.36 429.5,-639.59 422.8,-631.39 419.14,-637.36"/>
</g>
<!-- ipip_input -->
<g id="node26" class="node">
<title>ipip_input</title>
<ellipse fill="none" stroke="black" cx="455.79" cy="-599" rx="31.1" ry="18"/>
<text text-anchor="middle" x="455.79" y="-595.3" font-family="sans" font-size="11.00">ipip_input</text>
</g>
<!-- ip_input_local&#45;&gt;ipip_input -->
<g id="edge33" class="edge">
<title>ip_input_local&#45;&gt;ipip_input</title>
<path fill="none" stroke="black" d="M340.43,-541.86C363.61,-553.44 396.74,-569.99 421.38,-582.3"/>
<polygon fill="black" stroke="black" points="419.5,-585.28 430.01,-586.62 422.63,-579.02 419.5,-585.28"/>
</g>
<!-- tcp_redirect_loopback -->
<g id="node27" class="node">
<title>tcp_redirect_loopback</title>
<ellipse fill="none" stroke="black" cx="610.41" cy="-501" rx="68.57" ry="18"/>
<text text-anchor="middle" x="610.41" y="-497.3" font-family="sans" font-size="11.00">tcp_redirect_loopback</text>
</g>
<!-- ip_input_local&#45;&gt;tcp_redirect_loopback -->
<g id="edge34" class="edge">
<title>ip_input_local&#45;&gt;tcp_redirect_loopback</title>
<path fill="none" stroke="black" d="M353.96,-524.25C400.38,-520.02 476.77,-513.07 533.95,-507.87"/>
<polygon fill="black" stroke="black" points="533.96,-511.38 543.6,-506.99 533.33,-504.41 533.96,-511.38"/>
</g>
<!-- udp_redirect_loopback -->
<g id="node28" class="node">
<title>udp_redirect_loopback</title>
<ellipse fill="none" stroke="black" cx="610.41" cy="-447" rx="70.26" ry="18"/>
<text text-anchor="middle" x="610.41" y="-443.3" font-family="sans" font-size="11.00">udp_redirect_loopback</text>
</g>
<!-- ip_input_local&#45;&gt;udp_redirect_loopback -->
<g id="edge35" class="edge">
<title>ip_input_local&#45;&gt;udp_redirect_loopback</title>
<path fill="none" stroke="black" d="M348.49,-518.23C398.48,-504.58 489.83,-479.65 550.08,-463.2"/>
<polygon fill="black" stroke="black" points="550.77,-466.64 559.5,-460.63 548.93,-459.88 550.77,-466.64"/>
</g>
<!-- sctp_redirect_loopback -->
<g id="node29" class="node">
<title>sctp_redirect_loopback</title>
<ellipse fill="none" stroke="black" cx="610.41" cy="-355" rx="71.94" ry="18"/>
<text text-anchor="middle" x="610.41" y="-351.3" font-family="sans" font-size="11.00">sctp_redirect_loopback</text>
</g>
<!-- ip_input_local&#45;&gt;sctp_redirect_loopback -->
<g id="edge36" class="edge">
<title>ip_input_local&#45;&gt;sctp_redirect_loopback</title>
<path fill="none" stroke="black" d="M337.74,-513.4C389.62,-483.15 509.14,-413.46 570.91,-377.45"/>
<polygon fill="black" stroke="black" points="572.48,-380.59 579.35,-372.52 568.95,-374.54 572.48,-380.59"/>
</g>
<!-- ip6_input_local&#45;&gt;tcp_redirect_loopback -->
<g id="edge50" class="edge">
<title>ip6_input_local&#45;&gt;tcp_redirect_loopback</title>
<path fill="none" stroke="black" d="M464.2,-334.97C479.68,-371.75 515.86,-453.88 538.47,-474 542.28,-477.39 546.56,-480.38 551.09,-483"/>
<polygon fill="black" stroke="black" points="549.44,-486.09 559.94,-487.49 552.6,-479.85 549.44,-486.09"/>
</g>
<!-- ip6_input_local&#45;&gt;udp_redirect_loopback -->
<g id="edge51" class="edge">
<title>ip6_input_local&#45;&gt;udp_redirect_loopback</title>
<path fill="none" stroke="black" d="M476.12,-333.46C502.4,-355.85 549.63,-396.08 580.24,-422.15"/>
<polygon fill="black" stroke="black" points="577.74,-424.62 587.63,-428.44 582.28,-419.3 577.74,-424.62"/>
</g>
<!-- ip6_input_local&#45;&gt;sctp_redirect_loopback -->
<g id="edge52" class="edge">
<title>ip6_input_local&#45;&gt;sctp_redirect_loopback</title>
<path fill="none" stroke="black" d="M495.7,-326.69C511.42,-330.6 529.96,-335.22 547.46,-339.57"/>
<polygon fill="black" stroke="black" points="546.16,-342.86 556.71,-341.88 547.85,-336.07 546.16,-342.86"/>
</g>
<!-- icmp6_input -->
<g id="node31" class="node">
<title>icmp6_input</title>
<ellipse fill="none" stroke="black" cx="610.41" cy="-242" rx="38.68" ry="18"/>
<text text-anchor="middle" x="610.41" y="-238.3" font-family="sans" font-size="11.00">icmp6_input</text>
</g>
<!-- ip6_input_local&#45;&gt;icmp6_input -->
<g id="edge49" class="edge">
<title>ip6_input_local&#45;&gt;icmp6_input</title>
<path fill="none" stroke="black" d="M485.5,-302.89C510.2,-290.76 545.97,-273.18 572.74,-260.02"/>
<polygon fill="black" stroke="black" points="574.09,-263.26 581.52,-255.71 571,-256.98 574.09,-263.26"/>
</g>
<!-- loopback_output&#45;&gt;control_output -->
<g id="edge15" class="edge">
<title>loopback_output&#45;&gt;control_output</title>
<path fill="none" stroke="black" d="M1101.49,-404.51C1116.77,-399.43 1134.57,-393.52 1150.59,-388.19"/>
<polygon fill="black" stroke="black" points="1151.53,-391.57 1159.91,-385.09 1149.32,-384.93 1151.53,-391.57"/>
</g>
<!-- port_rx -->
<g id="node18" class="node">
<title>port_rx</title>
<ellipse fill="none" stroke="blue" stroke-width="2" cx="41.62" cy="-97" rx="27" ry="18"/>
<text text-anchor="middle" x="41.62" y="-93.3" font-family="sans" font-size="11.00">port_rx</text>
</g>
<!-- port_rx&#45;&gt;eth_input -->
<g id="edge16" class="edge">
<title>port_rx&#45;&gt;eth_input</title>
<path fill="none" stroke="blue" stroke-width="2" d="M69.04,-97C85.35,-97 106.61,-97 125.04,-97"/>
<polygon fill="blue" stroke="blue" stroke-width="2" points="123.34,-100.5 133.34,-97 123.34,-93.5 123.34,-100.5"/>
</g>
<!-- arp_input_request&#45;&gt;control_output -->
<g id="edge20" class="edge">
<title>arp_input_request&#45;&gt;control_output</title>
<path fill="none" stroke="black" d="M801.66,-69.39C811.25,-75.69 822.19,-83.04 831.92,-90 961.09,-182.39 990.12,-209.95 1115.05,-308 1132.51,-321.71 1151.93,-337.23 1167.41,-349.67"/>
<polygon fill="black" stroke="black" points="1164.86,-352.11 1174.84,-355.65 1169.25,-346.65 1164.86,-352.11"/>
</g>
<!-- arp_output_reply -->
<g id="node21" class="node">
<title>arp_output_reply</title>
<ellipse fill="none" stroke="black" cx="921.34" cy="-242" rx="53.41" ry="18"/>
<text text-anchor="middle" x="921.34" y="-238.3" font-family="sans" font-size="11.00">arp_output_reply</text>
</g>
<!-- arp_input_request&#45;&gt;arp_output_reply -->
<g id="edge21" class="edge">
<title>arp_input_request&#45;&gt;arp_output_reply</title>
<path fill="none" stroke="black" d="M809.63,-67.66C817.67,-72.34 825.71,-78.12 831.92,-85 858.31,-114.25 848.65,-131.64 867.92,-166 877.47,-183.04 889.81,-201.08 900.12,-215.31"/>
<polygon fill="black" stroke="black" points="897.23,-217.28 905.97,-223.27 902.86,-213.14 897.23,-217.28"/>
</g>
<!-- arp_input_reply&#45;&gt;control_output -->
<g id="edge19" class="edge">
<title>arp_input_reply&#45;&gt;control_output</title>
<path fill="none" stroke="black" d="M956.56,-30.85C999.47,-48.64 1072.53,-84.7 1115.05,-138 1164.95,-200.55 1185.19,-295.73 1192.56,-343.49"/>
<polygon fill="black" stroke="black" points="1189.09,-343.94 1193.99,-353.33 1196.02,-342.93 1189.09,-343.94"/>
</g>
<!-- arp_output_reply&#45;&gt;eth_output -->
<g id="edge22" class="edge">
<title>arp_output_reply&#45;&gt;eth_output</title>
<path fill="none" stroke="black" d="M945.45,-258.5C955.87,-267.07 967.44,-278.39 974.75,-291 1009.77,-351.45 993.97,-376.19 1010.75,-444 1025.52,-503.71 1043.86,-573.31 1054.08,-611.73"/>
<polygon fill="black" stroke="black" points="1050.69,-612.61 1056.65,-621.38 1057.45,-610.81 1050.69,-612.61"/>
</g>
<!-- icmp_input&#45;&gt;control_output -->
<g id="edge25" class="edge">
<title>icmp_input&#45;&gt;control_output</title>
<path fill="none" stroke="black" d="M489.52,-647.54C588.95,-629.96 894.15,-568.56 1115.05,-444 1136.67,-431.81 1157.67,-413.23 1172.91,-398.13"/>
<polygon fill="black" stroke="black" points="1175.16,-400.82 1179.68,-391.24 1170.17,-395.91 1175.16,-400.82"/>
</g>
<!-- icmp_input&#45;&gt;icmp_output -->
<g id="edge24" class="edge">
<title>icmp_input&#45;&gt;icmp_output</title>
<path fill="none" stroke="black" d="M487.68,-660.69C509.66,-666.16 539.54,-673.6 564.2,-679.74"/>
<polygon fill="black" stroke="black" points="563.1,-683.08 573.65,-682.1 564.79,-676.28 563.1,-683.08"/>
</g>
<!-- icmp_output&#45;&gt;ip_output -->
<g id="edge27" class="edge">
<title>icmp_output&#45;&gt;ip_output</title>
<path fill="none" stroke="black" d="M650.22,-691.5C708.87,-692.26 819.55,-693.69 879.41,-694.47"/>
<polygon fill="black" stroke="black" points="879.12,-697.97 889.16,-694.6 879.21,-690.97 879.12,-697.97"/>
</g>
<!-- ip_forward&#45;&gt;ip_output -->
<g id="edge28" class="edge">
<title>ip_forward&#45;&gt;ip_output</title>
<path fill="none" stroke="black" d="M804.28,-656.37C826.88,-663.89 858.81,-674.52 883.45,-682.72"/>
<polygon fill="black" stroke="black" points="882.17,-685.99 892.77,-685.82 884.38,-679.34 882.17,-685.99"/>
</g>
<!-- ip_hold&#45;&gt;control_output -->
<g id="edge29" class="edge">
<title>ip_hold&#45;&gt;control_output</title>
<path fill="none" stroke="black" d="M1087.82,-687.19C1097.53,-682.92 1108.07,-676.69 1115.05,-668 1179.54,-587.76 1192.95,-459.97 1195.67,-402.59"/>
<polygon fill="black" stroke="black" points="1199.16,-402.78 1196.05,-392.65 1192.17,-402.51 1199.16,-402.78"/>
</g>
<!-- ipip_input&#45;&gt;ip_input -->
<g id="edge59" class="edge">
<title>ipip_input&#45;&gt;ip_input</title>
<path fill="none" stroke="black" d="M484.08,-591.13C509.4,-583.83 547.2,-572.93 574.67,-565.02"/>
<polygon fill="black" stroke="black" points="575.28,-568.48 583.92,-562.35 573.34,-561.76 575.28,-568.48"/>
</g>
<!-- tcp_redirect_loopback&#45;&gt;loopback_output -->
<g id="edge61" class="edge">
<title>tcp_redirect_loopback&#45;&gt;loopback_output</title>
<path fill="none" stroke="black" d="M671.84,-492.59C744.21,-482.11 868.92,-462.8 974.75,-440 986.46,-437.48 998.96,-434.41 1010.72,-431.34"/>
<polygon fill="black" stroke="black" points="1011.5,-434.76 1020.27,-428.81 1009.71,-427.99 1011.5,-434.76"/>
</g>
<!-- udp_redirect_loopback&#45;&gt;loopback_output -->
<g id="edge62" class="edge">
<title>udp_redirect_loopback&#45;&gt;loopback_output</title>
<path fill="none" stroke="black" d="M678.85,-442.51C765.71,-436.72 915.47,-426.75 999.7,-421.14"/>
<polygon fill="black" stroke="black" points="999.88,-424.64 1009.63,-420.48 999.42,-417.65 999.88,-424.64"/>
</g>
<!-- sctp_redirect_loopback&#45;&gt;loopback_output -->
<g id="edge63" class="edge">
<title>sctp_redirect_loopback&#45;&gt;loopback_output</title>
<path fill="none" stroke="black" d="M674.05,-363.62C761.07,-375.6 917.43,-397.12 1002.63,-408.84"/>
<polygon fill="black" stroke="black" points="1002.03,-412.29 1012.41,-410.19 1002.98,-405.36 1002.03,-412.29"/>
</g>
<!-- ipip_output&#45;&gt;ip_output -->
<g id="edge60" class="edge">
<title>ipip_output&#45;&gt;ip_output</title>
<path fill="none" stroke="black" d="M1029.3,-742.2C1006.37,-734.61 975.86,-722.77 953.3,-712.7"/>
<polygon fill="black" stroke="black" points="954.85,-709.56 944.3,-708.56 951.92,-715.92 954.85,-709.56"/>
</g>
<!-- icmp6_output -->
<g id="node32" class="node">
<title>icmp6_output</title>
<ellipse fill="none" stroke="black" cx="775.14" cy="-183" rx="43.31" ry="18"/>
<text text-anchor="middle" x="775.14" y="-179.3" font-family="sans" font-size="11.00">icmp6_output</text>
</g>
<!-- icmp6_input&#45;&gt;icmp6_output -->
<g id="edge41" class="edge">
<title>icmp6_input&#45;&gt;icmp6_output</title>
<path fill="none" stroke="black" d="M641.64,-231.04C666.71,-221.95 702.68,-208.91 730.81,-198.71"/>
<polygon fill="black" stroke="black" points="731.93,-202.03 740.14,-195.33 729.54,-195.45 731.93,-202.03"/>
</g>
<!-- ndp_ns_input -->
<g id="node33" class="node">
<title>ndp_ns_input</title>
<ellipse fill="none" stroke="black" cx="775.14" cy="-291" rx="41.62" ry="18"/>
<text text-anchor="middle" x="775.14" y="-287.3" font-family="sans" font-size="11.00">ndp_ns_input</text>
</g>
<!-- icmp6_input&#45;&gt;ndp_ns_input -->
<g id="edge42" class="edge">
<title>icmp6_input&#45;&gt;ndp_ns_input</title>
<path fill="none" stroke="black" d="M643.56,-251.68C668.06,-259.06 702.11,-269.31 729.29,-277.5"/>
<polygon fill="black" stroke="black" points="728.06,-280.78 738.64,-280.31 730.08,-274.08 728.06,-280.78"/>
</g>
<!-- ndp_na_input -->
<g id="node34" class="node">
<title>ndp_na_input</title>
<ellipse fill="none" stroke="black" cx="775.14" cy="-237" rx="42.04" ry="18"/>
<text text-anchor="middle" x="775.14" y="-233.3" font-family="sans" font-size="11.00">ndp_na_input</text>
</g>
<!-- icmp6_input&#45;&gt;ndp_na_input -->
<g id="edge43" class="edge">
<title>icmp6_input&#45;&gt;ndp_na_input</title>
<path fill="none" stroke="black" d="M649.15,-240.84C670.7,-240.18 698.03,-239.34 721.64,-238.61"/>
<polygon fill="black" stroke="black" points="721.49,-242.12 731.38,-238.31 721.28,-235.12 721.49,-242.12"/>
</g>
<!-- icmp6_output&#45;&gt;ip6_output -->
<g id="edge44" class="edge">
<title>icmp6_output&#45;&gt;ip6_output</title>
<path fill="none" stroke="black" d="M808.49,-194.82C816.72,-198.81 825.15,-203.85 831.92,-210 854.67,-230.64 848.52,-245.18 867.92,-269 875.59,-278.42 885.02,-287.77 893.76,-295.74"/>
<polygon fill="black" stroke="black" points="891.24,-298.18 901.04,-302.2 895.88,-292.94 891.24,-298.18"/>
</g>
<!-- ndp_ns_input&#45;&gt;ip6_output -->
<g id="edge57" class="edge">
<title>ndp_ns_input&#45;&gt;ip6_output</title>
<path fill="none" stroke="black" d="M814.02,-298.09C833.65,-301.77 857.67,-306.27 877.91,-310.06"/>
<polygon fill="black" stroke="black" points="877.06,-313.46 887.54,-311.86 878.35,-306.58 877.06,-313.46"/>
</g>
<!-- ndp_na_input&#45;&gt;ip6_output -->
<g id="edge56" class="edge">
<title>ndp_na_input&#45;&gt;ip6_output</title>
<path fill="none" stroke="black" d="M804.79,-250.21C813.58,-254.44 823.23,-259.26 831.92,-264 851.45,-274.66 872.76,-287.63 889.56,-298.18"/>
<polygon fill="black" stroke="black" points="887.28,-300.89 897.6,-303.28 891.02,-294.97 887.28,-300.89"/>
</g>
<!-- ip6_forward&#45;&gt;ip6_output -->
<g id="edge45" class="edge">
<title>ip6_forward&#45;&gt;ip6_output</title>
<path fill="none" stroke="black" d="M493.09,-94.32C577.07,-88.91 781.45,-80.57 831.92,-123 883.07,-166.01 834.11,-211.35 867.92,-269 873.92,-279.23 882.72,-288.64 891.39,-296.41"/>
<polygon fill="black" stroke="black" points="888.86,-298.86 898.76,-302.63 893.38,-293.51 888.86,-298.86"/>
</g>
<!-- ip6_hold&#45;&gt;control_output -->
<g id="edge46" class="edge">
<title>ip6_hold&#45;&gt;control_output</title>
<path fill="none" stroke="black" d="M1088.19,-341.97C1104.94,-346.78 1127.78,-353.33 1148.16,-359.18"/>
<polygon fill="black" stroke="black" points="1147.13,-362.53 1157.71,-361.92 1149.06,-355.8 1147.13,-362.53"/>
</g>
</g>
</svg>
