<?xml version="1.0" encoding="UTF-8" standalone="no"?>
<!DOCTYPE svg PUBLIC "-//W3C//DTD SVG 1.1//EN"
 "http://www.w3.org/Graphics/SVG/1.1/DTD/svg11.dtd">
<!-- Generated by graphviz version 12.2.1 (20241206.2353)
 -->
<!-- Pages: 1 -->
<svg width="2432pt" height="966pt"
 viewBox="0.00 0.00 2432.47 966.00" xmlns="http://www.w3.org/2000/svg" xmlns:xlink="http://www.w3.org/1999/xlink">
<g id="graph0" class="graph" transform="scale(1 1) rotate(0) translate(4 962)">
<polygon fill="white" stroke="none" points="-4,4 -4,-962 2428.47,-962 2428.47,4 -4,4"/>
<!-- bond_output -->
<g id="node1" class="node">
<title>bond_output</title>
<ellipse fill="none" stroke="black" cx="2182.54" cy="-794" rx="40.69" ry="18"/>
<text text-anchor="middle" x="2182.54" y="-791.42" font-family="sans" font-size="11.00">bond_output</text>
</g>
<!-- port_output -->
<g id="node3" class="node">
<title>port_output</title>
<ellipse fill="none" stroke="black" cx="2296.85" cy="-840" rx="37.62" ry="18"/>
<text text-anchor="middle" x="2296.85" y="-837.42" font-family="sans" font-size="11.00">port_output</text>
</g>
<!-- bond_output&#45;&gt;port_output -->
<g id="edge1" class="edge">
<title>bond_output&#45;&gt;port_output</title>
<path fill="none" stroke="darkorange" d="M2213.34,-806.21C2226.7,-811.68 2242.64,-818.21 2256.92,-824.06"/>
<polygon fill="darkorange" stroke="darkorange" points="2255.48,-827.25 2266.06,-827.8 2258.13,-820.77 2255.48,-827.25"/>
</g>
<!-- l1_xconnect -->
<g id="node2" class="node">
<title>l1_xconnect</title>
<ellipse fill="none" stroke="black" cx="891.87" cy="-940" rx="36.74" ry="18"/>
<text text-anchor="middle" x="891.87" y="-937.42" font-family="sans" font-size="11.00">l1_xconnect</text>
</g>
<!-- l1_xconnect&#45;&gt;port_output -->
<g id="edge10" class="edge">
<title>l1_xconnect&#45;&gt;port_output</title>
<path fill="none" stroke="darkorange" d="M928.89,-938.92C971.48,-937.73 1044.5,-936 1107.21,-936 1107.21,-936 1107.21,-936 2079.86,-936 2152.26,-936 2227.47,-890.39 2267.22,-862.05"/>
<polygon fill="darkorange" stroke="darkorange" points="2269.06,-865.03 2275.08,-856.32 2264.94,-859.38 2269.06,-865.03"/>
</g>
<!-- port_tx -->
<g id="node5" class="node">
<title>port_tx</title>
<ellipse fill="none" stroke="black" cx="2397.47" cy="-840" rx="27" ry="18"/>
<text text-anchor="middle" x="2397.47" y="-837.42" font-family="sans" font-size="11.00">port_tx</text>
</g>
<!-- port_output&#45;&gt;port_tx -->
<g id="edge16" class="edge">
<title>port_output&#45;&gt;port_tx</title>
<path fill="none" stroke="black" d="M2334.85,-840C2342.62,-840 2350.82,-840 2358.62,-840"/>
<polygon fill="black" stroke="black" points="2358.52,-843.5 2368.52,-840 2358.52,-836.5 2358.52,-843.5"/>
</g>
<!-- port_rx -->
<g id="node4" class="node">
<title>port_rx</title>
<ellipse fill="none" stroke="blue" stroke-width="2" cx="27" cy="-894" rx="27" ry="18"/>
<text text-anchor="middle" x="27" y="-891.42" font-family="sans" font-size="11.00">port_rx</text>
</g>
<!-- port_rx&#45;&gt;l1_xconnect -->
<g id="edge18" class="edge">
<title>port_rx&#45;&gt;l1_xconnect</title>
<path fill="none" stroke="blue" stroke-width="2" d="M52,-901.51C92.81,-913.59 178.5,-936 252.72,-936 252.72,-936 252.72,-936 640.91,-936 711.42,-936 793.12,-937.61 843.4,-938.79"/>
<polygon fill="blue" stroke="blue" stroke-width="2" points="841.75,-942.25 851.83,-938.99 841.92,-935.25 841.75,-942.25"/>
</g>
<!-- eth_input -->
<g id="node6" class="node">
<title>eth_input</title>
<ellipse fill="none" stroke="black" cx="136.95" cy="-753" rx="30.17" ry="18"/>
<text text-anchor="middle" x="136.95" y="-750.42" font-family="sans" font-size="11.00">eth_input</text>
</g>
<!-- port_rx&#45;&gt;eth_input -->
<g id="edge17" class="edge">
<title>port_rx&#45;&gt;eth_input</title>
<path fill="none" stroke="blue" stroke-width="2" d="M40.17,-878.1C58.7,-853.9 94.16,-807.58 116.35,-778.6"/>
<polygon fill="blue" stroke="blue" stroke-width="2" points="118.18,-781.97 121.48,-771.9 112.62,-777.71 118.18,-781.97"/>
</g>
<!-- l2_bridge -->
<g id="node51" class="node">
<title>l2_bridge</title>
<ellipse fill="none" stroke="black" cx="1986.13" cy="-864" rx="29.73" ry="18"/>
<text text-anchor="middle" x="1986.13" y="-861.42" font-family="sans" font-size="11.00">l2_bridge</text>
</g>
<!-- port_rx&#45;&gt;l2_bridge -->
<g id="edge19" class="edge">
<title>port_rx&#45;&gt;l2_bridge</title>
<path fill="none" stroke="blue" stroke-width="2" d="M54.29,-894C96.25,-894 180.94,-894 252.72,-894 252.72,-894 252.72,-894 1758.47,-894 1824.97,-894 1901.5,-881.15 1946.45,-872.27"/>
<polygon fill="blue" stroke="blue" stroke-width="2" points="1945.64,-876.01 1954.75,-870.6 1944.25,-869.15 1945.64,-876.01"/>
</g>
<!-- lacp_input -->
<g id="node8" class="node">
<title>lacp_input</title>
<polygon fill="none" stroke="dodgerblue" points="287.55,-748 219.9,-748 219.9,-712 287.55,-712 287.55,-748"/>
<text text-anchor="middle" x="253.72" y="-727.42" font-family="sans" font-size="11.00">lacp_input</text>
</g>
<!-- eth_input&#45;&gt;lacp_input -->
<g id="edge3" class="edge">
<title>eth_input&#45;&gt;lacp_input</title>
<path fill="none" stroke="black" d="M166.03,-747.37C178.8,-744.81 194.23,-741.72 208.51,-738.86"/>
<polygon fill="black" stroke="black" points="209.04,-742.32 218.16,-736.93 207.66,-735.46 209.04,-742.32"/>
</g>
<!-- snap_input -->
<g id="node10" class="node">
<title>snap_input</title>
<ellipse fill="none" stroke="black" cx="1108.21" cy="-762" rx="34.99" ry="18"/>
<text text-anchor="middle" x="1108.21" y="-759.42" font-family="sans" font-size="11.00">snap_input</text>
</g>
<!-- eth_input&#45;&gt;snap_input -->
<g id="edge2" class="edge">
<title>eth_input&#45;&gt;snap_input</title>
<path fill="none" stroke="black" d="M166.52,-757.54C211.22,-764.25 300.44,-776 376.62,-776 376.62,-776 376.62,-776 892.87,-776 951.45,-776 1018.85,-770.73 1062.19,-766.65"/>
<polygon fill="black" stroke="black" points="1062.35,-770.16 1071.97,-765.71 1061.68,-763.19 1062.35,-770.16"/>
</g>
<!-- arp_input -->
<g id="node11" class="node">
<title>arp_input</title>
<ellipse fill="none" stroke="black" cx="253.72" cy="-676" rx="30.61" ry="18"/>
<text text-anchor="middle" x="253.72" y="-673.42" font-family="sans" font-size="11.00">arp_input</text>
</g>
<!-- eth_input&#45;&gt;arp_input -->
<g id="edge4" class="edge">
<title>eth_input&#45;&gt;arp_input</title>
<path fill="none" stroke="black" d="M157.94,-739.59C175.94,-727.52 202.62,-709.62 223.09,-695.88"/>
<polygon fill="black" stroke="black" points="224.97,-698.84 231.32,-690.36 221.07,-693.02 224.97,-698.84"/>
</g>
<!-- ip_input -->
<g id="node22" class="node">
<title>ip_input</title>
<ellipse fill="none" stroke="black" cx="253.72" cy="-445" rx="27" ry="18"/>
<text text-anchor="middle" x="253.72" y="-442.43" font-family="sans" font-size="11.00">ip_input</text>
</g>
<!-- eth_input&#45;&gt;ip_input -->
<g id="edge5" class="edge">
<title>eth_input&#45;&gt;ip_input</title>
<path fill="none" stroke="black" d="M144.62,-735.11C163.76,-683.74 219,-535.5 242.23,-473.16"/>
<polygon fill="black" stroke="black" points="245.44,-474.57 245.65,-463.97 238.88,-472.12 245.44,-474.57"/>
</g>
<!-- ip6_input -->
<g id="node28" class="node">
<title>ip6_input</title>
<ellipse fill="none" stroke="black" cx="1108.21" cy="-277" rx="29.73" ry="18"/>
<text text-anchor="middle" x="1108.21" y="-274.43" font-family="sans" font-size="11.00">ip6_input</text>
</g>
<!-- eth_input&#45;&gt;ip6_input -->
<g id="edge6" class="edge">
<title>eth_input&#45;&gt;ip6_input</title>
<path fill="none" stroke="black" d="M138,-734.8C139.29,-644.62 157.45,-250 376.62,-250 376.62,-250 376.62,-250 892.87,-250 954.58,-250 1025.5,-261.15 1068.31,-269.12"/>
<polygon fill="black" stroke="black" points="1067.64,-272.56 1078.12,-270.99 1068.95,-265.68 1067.64,-272.56"/>
</g>
<!-- eth_output -->
<g id="node7" class="node">
<title>eth_output</title>
<ellipse fill="none" stroke="black" cx="1885.84" cy="-718" rx="34.55" ry="18"/>
<text text-anchor="middle" x="1885.84" y="-715.42" font-family="sans" font-size="11.00">eth_output</text>
</g>
<!-- eth_output&#45;&gt;bond_output -->
<g id="edge7" class="edge">
<title>eth_output&#45;&gt;bond_output</title>
<path fill="none" stroke="black" d="M1917.27,-725.85C1969.19,-739.24 2075.15,-766.56 2135.95,-782.24"/>
<polygon fill="black" stroke="black" points="2134.73,-785.54 2145.28,-784.65 2136.48,-778.76 2134.73,-785.54"/>
</g>
<!-- eth_output&#45;&gt;port_output -->
<g id="edge8" class="edge">
<title>eth_output&#45;&gt;port_output</title>
<path fill="none" stroke="darkorange" d="M1920.51,-715.93C1983.64,-713.51 2122.48,-715.15 2223.23,-767 2244.62,-778.01 2263.59,-797.62 2276.77,-813.74"/>
<polygon fill="darkorange" stroke="darkorange" points="2273.98,-815.85 2282.91,-821.55 2279.48,-811.53 2273.98,-815.85"/>
</g>
<!-- eth_output&#45;&gt;l2_bridge -->
<g id="edge9" class="edge">
<title>eth_output&#45;&gt;l2_bridge</title>
<path fill="none" stroke="black" d="M1898.31,-735.03C1915.42,-760.44 1947.74,-808.47 1967.76,-838.2"/>
<polygon fill="black" stroke="black" points="1964.7,-839.93 1973.19,-846.27 1970.51,-836.02 1964.7,-839.93"/>
</g>
<!-- lacp_output -->
<g id="node9" class="node">
<title>lacp_output</title>
<polygon fill="none" stroke="dodgerblue" points="1795.04,-682 1719.89,-682 1719.89,-646 1795.04,-646 1795.04,-682"/>
<text text-anchor="middle" x="1757.47" y="-661.42" font-family="sans" font-size="11.00">lacp_output</text>
</g>
<!-- lacp_output&#45;&gt;eth_output -->
<g id="edge11" class="edge">
<title>lacp_output&#45;&gt;eth_output</title>
<path fill="none" stroke="dodgerblue" d="M1795.36,-679.76C1811.97,-686.86 1831.54,-695.22 1848.13,-702.31"/>
<polygon fill="dodgerblue" stroke="dodgerblue" points="1846.58,-705.46 1857.15,-706.17 1849.33,-699.02 1846.58,-705.46"/>
</g>
<!-- l2_redirect -->
<g id="node52" class="node">
<title>l2_redirect</title>
<ellipse fill="none" stroke="black" cx="1602.8" cy="-734" rx="33.24" ry="18"/>
<text text-anchor="middle" x="1602.8" y="-731.42" font-family="sans" font-size="11.00">l2_redirect</text>
</g>
<!-- snap_input&#45;&gt;l2_redirect -->
<g id="edge20" class="edge">
<title>snap_input&#45;&gt;l2_redirect</title>
<path fill="none" stroke="black" d="M1143.46,-760.05C1230.69,-755.09 1461.18,-741.99 1557.99,-736.49"/>
<polygon fill="black" stroke="black" points="1558.09,-739.99 1567.88,-735.93 1557.7,-733 1558.09,-739.99"/>
</g>
<!-- arp_input_reply -->
<g id="node12" class="node">
<title>arp_input_reply</title>
<polygon fill="none" stroke="dodgerblue" points="424.95,-686 330.3,-686 330.3,-650 424.95,-650 424.95,-686"/>
<text text-anchor="middle" x="377.62" y="-665.42" font-family="sans" font-size="11.00">arp_input_reply</text>
</g>
<!-- arp_input&#45;&gt;arp_input_reply -->
<g id="edge22" class="edge">
<title>arp_input&#45;&gt;arp_input_reply</title>
<path fill="none" stroke="black" d="M284.55,-674.04C294.91,-673.36 306.91,-672.58 318.76,-671.8"/>
<polygon fill="black" stroke="black" points="318.75,-675.31 328.5,-671.16 318.29,-668.32 318.75,-675.31"/>
</g>
<!-- arp_input_request -->
<g id="node13" class="node">
<title>arp_input_request</title>
<polygon fill="none" stroke="dodgerblue" points="431.7,-740 323.55,-740 323.55,-704 431.7,-704 431.7,-740"/>
<text text-anchor="middle" x="377.62" y="-719.42" font-family="sans" font-size="11.00">arp_input_request</text>
</g>
<!-- arp_input&#45;&gt;arp_input_request -->
<g id="edge21" class="edge">
<title>arp_input&#45;&gt;arp_input_request</title>
<path fill="none" stroke="black" d="M279.98,-685.53C290.88,-689.64 304.12,-694.64 317.27,-699.6"/>
<polygon fill="black" stroke="black" points="315.74,-702.76 326.33,-703.02 318.21,-696.21 315.74,-702.76"/>
</g>
<!-- arp_output_reply -->
<g id="node14" class="node">
<title>arp_output_reply</title>
<polygon fill="none" stroke="dodgerblue" points="1808.54,-790 1706.39,-790 1706.39,-754 1808.54,-754 1808.54,-790"/>
<text text-anchor="middle" x="1757.47" y="-769.42" font-family="sans" font-size="11.00">arp_output_reply</text>
</g>
<!-- arp_output_reply&#45;&gt;eth_output -->
<g id="edge23" class="edge">
<title>arp_output_reply&#45;&gt;eth_output</title>
<path fill="none" stroke="dodgerblue" d="M1801.61,-753.57C1816.65,-747.14 1833.38,-739.99 1847.88,-733.8"/>
<polygon fill="dodgerblue" stroke="dodgerblue" points="1849.25,-737.02 1857.07,-729.87 1846.5,-730.58 1849.25,-737.02"/>
</g>
<!-- arp_output_request -->
<g id="node15" class="node">
<title>arp_output_request</title>
<polygon fill="none" stroke="dodgerblue" points="1815.29,-736 1699.64,-736 1699.64,-700 1815.29,-700 1815.29,-736"/>
<text text-anchor="middle" x="1757.47" y="-715.42" font-family="sans" font-size="11.00">arp_output_request</text>
</g>
<!-- arp_output_request&#45;&gt;eth_output -->
<g id="edge24" class="edge">
<title>arp_output_request&#45;&gt;eth_output</title>
<path fill="none" stroke="dodgerblue" d="M1815.74,-718C1823.72,-718 1831.83,-718 1839.54,-718"/>
<polygon fill="dodgerblue" stroke="dodgerblue" points="1839.38,-721.5 1849.38,-718 1839.38,-714.5 1839.38,-721.5"/>
</g>
<!-- loopback_input -->
<g id="node16" class="node">
<title>loopback_input</title>
<polygon fill="none" stroke="dodgerblue" points="183.9,-358 90,-358 90,-322 183.9,-322 183.9,-358"/>
<text text-anchor="middle" x="136.95" y="-337.43" font-family="sans" font-size="11.00">loopback_input</text>
</g>
<!-- loopback_input&#45;&gt;ip_input -->
<g id="edge12" class="edge">
<title>loopback_input&#45;&gt;ip_input</title>
<path fill="none" stroke="dodgerblue" d="M157.94,-358.29C177.61,-376.28 207.66,-403.77 228.64,-422.96"/>
<polygon fill="dodgerblue" stroke="dodgerblue" points="226.16,-425.44 235.9,-429.61 230.88,-420.27 226.16,-425.44"/>
</g>
<!-- loopback_input&#45;&gt;ip6_input -->
<g id="edge13" class="edge">
<title>loopback_input&#45;&gt;ip6_input</title>
<path fill="none" stroke="dodgerblue" d="M146.72,-321.85C159.32,-297.89 184.95,-256.37 219.9,-236 280.78,-200.52 306.16,-212 376.62,-212 376.62,-212 376.62,-212 892.87,-212 957.91,-212 976.07,-213.86 1037.22,-236 1051.6,-241.21 1066.37,-249.37 1078.62,-257.05"/>
<polygon fill="dodgerblue" stroke="dodgerblue" points="1076.69,-259.97 1086.98,-262.49 1080.5,-254.1 1076.69,-259.97"/>
</g>
<!-- loopback_output -->
<g id="node17" class="node">
<title>loopback_output</title>
<polygon fill="none" stroke="dodgerblue" points="1808.17,-552 1706.77,-552 1706.77,-516 1808.17,-516 1808.17,-552"/>
<text text-anchor="middle" x="1757.47" y="-531.42" font-family="sans" font-size="11.00">loopback_output</text>
</g>
<!-- loop_xvrf -->
<g id="node18" class="node">
<title>loop_xvrf</title>
<ellipse fill="none" stroke="black" cx="1000.92" cy="-296" rx="29.73" ry="18"/>
<text text-anchor="middle" x="1000.92" y="-293.43" font-family="sans" font-size="11.00">loop_xvrf</text>
</g>
<!-- loop_xvrf&#45;&gt;ip_input -->
<g id="edge14" class="edge">
<title>loop_xvrf&#45;&gt;ip_input</title>
<path fill="none" stroke="black" d="M970.94,-296.84C927.85,-298.01 844.33,-300 773.3,-300 510.02,-300 510.02,-300 510.02,-300 426.46,-300 392.94,-277.45 323.55,-324 291.27,-345.65 272.38,-387.86 262.8,-416.25"/>
<polygon fill="black" stroke="black" points="259.5,-415.07 259.82,-425.66 266.18,-417.19 259.5,-415.07"/>
</g>
<!-- loop_xvrf&#45;&gt;ip6_input -->
<g id="edge15" class="edge">
<title>loop_xvrf&#45;&gt;ip6_input</title>
<path fill="none" stroke="black" d="M1029.86,-290.96C1041.52,-288.85 1055.27,-286.37 1067.92,-284.09"/>
<polygon fill="black" stroke="black" points="1068.43,-287.55 1077.65,-282.33 1067.19,-280.67 1068.43,-287.55"/>
</g>
<!-- ip_forward -->
<g id="node19" class="node">
<title>ip_forward</title>
<ellipse fill="none" stroke="black" cx="511.02" cy="-545" rx="34.55" ry="18"/>
<text text-anchor="middle" x="511.02" y="-542.42" font-family="sans" font-size="11.00">ip_forward</text>
</g>
<!-- ip_output -->
<g id="node25" class="node">
<title>ip_output</title>
<ellipse fill="none" stroke="black" cx="891.87" cy="-568" rx="30.61" ry="18"/>
<text text-anchor="middle" x="891.87" y="-565.42" font-family="sans" font-size="11.00">ip_output</text>
</g>
<!-- ip_forward&#45;&gt;ip_output -->
<g id="edge28" class="edge">
<title>ip_forward&#45;&gt;ip_output</title>
<path fill="none" stroke="black" d="M532.92,-559.24C569.81,-583.4 649.76,-631.54 725.48,-649 766.04,-658.35 781.17,-666.08 819.13,-649 843.67,-637.95 863.21,-613.91 875.66,-594.87"/>
<polygon fill="black" stroke="black" points="878.57,-596.82 880.88,-586.48 872.62,-593.12 878.57,-596.82"/>
</g>
<!-- ip_fragment -->
<g id="node20" class="node">
<title>ip_fragment</title>
<ellipse fill="none" stroke="black" cx="772.3" cy="-622" rx="38.5" ry="18"/>
<text text-anchor="middle" x="772.3" y="-619.42" font-family="sans" font-size="11.00">ip_fragment</text>
</g>
<!-- ip_fragment&#45;&gt;ip_output -->
<g id="edge29" class="edge">
<title>ip_fragment&#45;&gt;ip_output</title>
<path fill="none" stroke="black" d="M794.59,-606.88C810.71,-598.05 833.28,-587.34 852.52,-579.24"/>
<polygon fill="black" stroke="black" points="853.75,-582.52 861.69,-575.5 851.11,-576.04 853.75,-582.52"/>
</g>
<!-- ip_hold -->
<g id="node21" class="node">
<title>ip_hold</title>
<polygon fill="none" stroke="dodgerblue" points="1027.92,-498 973.92,-498 973.92,-462 1027.92,-462 1027.92,-498"/>
<text text-anchor="middle" x="1000.92" y="-477.43" font-family="sans" font-size="11.00">ip_hold</text>
</g>
<!-- ip_input&#45;&gt;ip_forward -->
<g id="edge30" class="edge">
<title>ip_input&#45;&gt;ip_forward</title>
<path fill="none" stroke="black" d="M260.39,-462.59C269.36,-487.12 289.41,-530.65 323.55,-549 368.98,-573.41 430.06,-565.9 469.73,-556.74"/>
<polygon fill="black" stroke="black" points="470.48,-560.16 479.35,-554.37 468.8,-553.36 470.48,-560.16"/>
</g>
<!-- ip_input_local -->
<g id="node24" class="node">
<title>ip_input_local</title>
<ellipse fill="none" stroke="black" cx="511.02" cy="-468" rx="43.32" ry="18"/>
<text text-anchor="middle" x="511.02" y="-465.43" font-family="sans" font-size="11.00">ip_input_local</text>
</g>
<!-- ip_input&#45;&gt;ip_input_local -->
<g id="edge33" class="edge">
<title>ip_input&#45;&gt;ip_input_local</title>
<path fill="none" stroke="black" d="M280.44,-441.42C315.07,-437.27 378.51,-432.09 431.7,-441 444.3,-443.11 457.58,-447.01 469.56,-451.19"/>
<polygon fill="black" stroke="black" points="468.12,-454.39 478.71,-454.56 470.53,-447.82 468.12,-454.39"/>
</g>
<!-- ip_input&#45;&gt;ip_output -->
<g id="edge32" class="edge">
<title>ip_input&#45;&gt;ip_output</title>
<path fill="none" stroke="black" d="M258.42,-462.77C265.46,-491.47 283.76,-547.21 323.55,-571 378.54,-603.88 403.63,-571.78 467.7,-572 566.49,-572.34 594.12,-582.82 689.48,-557 706.38,-552.42 708.35,-544.63 725.48,-541 766.2,-532.36 778.18,-533.55 819.13,-541 831.96,-543.33 845.48,-547.84 857.28,-552.51"/>
<polygon fill="black" stroke="black" points="855.59,-555.6 866.17,-556.21 858.28,-549.13 855.59,-555.6"/>
</g>
<!-- dnat44_dynamic -->
<g id="node34" class="node">
<title>dnat44_dynamic</title>
<ellipse fill="none" stroke="black" cx="377.62" cy="-522" rx="50.77" ry="18"/>
<text text-anchor="middle" x="377.62" y="-519.42" font-family="sans" font-size="11.00">dnat44_dynamic</text>
</g>
<!-- ip_input&#45;&gt;dnat44_dynamic -->
<g id="edge31" class="edge">
<title>ip_input&#45;&gt;dnat44_dynamic</title>
<path fill="none" stroke="black" d="M272.02,-458.74C285.63,-469.26 305.29,-483.82 323.55,-495 327.57,-497.46 331.84,-499.9 336.14,-502.25"/>
<polygon fill="black" stroke="black" points="334.32,-505.25 344.8,-506.82 337.59,-499.06 334.32,-505.25"/>
</g>
<!-- dnat44_static -->
<g id="node35" class="node">
<title>dnat44_static</title>
<ellipse fill="none" stroke="black" cx="377.62" cy="-468" rx="41.13" ry="18"/>
<text text-anchor="middle" x="377.62" y="-465.43" font-family="sans" font-size="11.00">dnat44_static</text>
</g>
<!-- ip_input&#45;&gt;dnat44_static -->
<g id="edge34" class="edge">
<title>ip_input&#45;&gt;dnat44_static</title>
<path fill="none" stroke="black" d="M279.98,-449.77C293.92,-452.4 311.71,-455.75 328.21,-458.86"/>
<polygon fill="black" stroke="black" points="327.4,-462.27 337.88,-460.69 328.7,-455.4 327.4,-462.27"/>
</g>
<!-- ip_loadbalance -->
<g id="node23" class="node">
<title>ip_loadbalance</title>
<ellipse fill="none" stroke="black" cx="772.3" cy="-568" rx="46.82" ry="18"/>
<text text-anchor="middle" x="772.3" y="-565.42" font-family="sans" font-size="11.00">ip_loadbalance</text>
</g>
<!-- ip_loadbalance&#45;&gt;ip_output -->
<g id="edge35" class="edge">
<title>ip_loadbalance&#45;&gt;ip_output</title>
<path fill="none" stroke="black" d="M816.41,-561.47C827.8,-561.14 840.02,-561.18 851.21,-561.58"/>
<polygon fill="black" stroke="black" points="850.75,-565.06 860.91,-562.05 851.09,-558.07 850.75,-565.06"/>
</g>
<!-- ipip_input -->
<g id="node32" class="node">
<title>ipip_input</title>
<ellipse fill="none" stroke="black" cx="639.91" cy="-384" rx="31.92" ry="18"/>
<text text-anchor="middle" x="639.91" y="-381.43" font-family="sans" font-size="11.00">ipip_input</text>
</g>
<!-- ip_input_local&#45;&gt;ipip_input -->
<g id="edge37" class="edge">
<title>ip_input_local&#45;&gt;ipip_input</title>
<path fill="none" stroke="black" d="M534.96,-452.73C550.57,-442.36 571.68,-428.33 590.33,-416 596.3,-412.05 602.69,-407.84 608.81,-403.81"/>
<polygon fill="black" stroke="black" points="610.41,-406.94 616.83,-398.52 606.55,-401.1 610.41,-406.94"/>
</g>
<!-- icmp_input -->
<g id="node38" class="node">
<title>icmp_input</title>
<ellipse fill="none" stroke="black" cx="639.91" cy="-476" rx="35.43" ry="18"/>
<text text-anchor="middle" x="639.91" y="-473.43" font-family="sans" font-size="11.00">icmp_input</text>
</g>
<!-- ip_input_local&#45;&gt;icmp_input -->
<g id="edge36" class="edge">
<title>ip_input_local&#45;&gt;icmp_input</title>
<path fill="none" stroke="black" d="M554.27,-470.66C566.74,-471.45 580.45,-472.31 593.14,-473.11"/>
<polygon fill="black" stroke="black" points="592.72,-476.6 602.93,-473.73 593.17,-469.61 592.72,-476.6"/>
</g>
<!-- l4_input_local -->
<g id="node49" class="node">
<title>l4_input_local</title>
<ellipse fill="none" stroke="black" cx="1453.37" cy="-428" rx="42.88" ry="18"/>
<text text-anchor="middle" x="1453.37" y="-425.43" font-family="sans" font-size="11.00">l4_input_local</text>
</g>
<!-- ip_input_local&#45;&gt;l4_input_local -->
<g id="edge38" class="edge">
<title>ip_input_local&#45;&gt;l4_input_local</title>
<path fill="none" stroke="black" d="M548.07,-458.19C561.28,-454.87 576.41,-451.41 590.33,-449 670.02,-435.21 690.43,-430 771.3,-430 771.3,-430 771.3,-430 1208.18,-430 1273.73,-430 1349.17,-429.27 1398.64,-428.69"/>
<polygon fill="black" stroke="black" points="1398.55,-432.19 1408.51,-428.58 1398.47,-425.19 1398.55,-432.19"/>
</g>
<!-- ospf_redirect -->
<g id="node53" class="node">
<title>ospf_redirect</title>
<ellipse fill="none" stroke="black" cx="1453.37" cy="-706" rx="41.13" ry="18"/>
<text text-anchor="middle" x="1453.37" y="-703.42" font-family="sans" font-size="11.00">ospf_redirect</text>
</g>
<!-- ip_input_local&#45;&gt;ospf_redirect -->
<g id="edge39" class="edge">
<title>ip_input_local&#45;&gt;ospf_redirect</title>
<path fill="none" stroke="black" d="M526.37,-484.95C545.18,-507.06 577.32,-544.4 590.33,-557 665.2,-629.45 667.12,-706 771.3,-706 771.3,-706 771.3,-706 1208.18,-706 1274.51,-706 1350.97,-706 1400.41,-706"/>
<polygon fill="black" stroke="black" points="1400.25,-709.5 1410.25,-706 1400.25,-702.5 1400.25,-709.5"/>
</g>
<!-- ip_output&#45;&gt;eth_output -->
<g id="edge40" class="edge">
<title>ip_output&#45;&gt;eth_output</title>
<path fill="none" stroke="black" d="M918.16,-577.88C957.8,-592.45 1037.28,-618 1107.21,-618 1107.21,-618 1107.21,-618 1603.8,-618 1698.17,-618 1731.38,-593.8 1815.29,-637 1838.51,-648.95 1857.24,-672.29 1869.39,-690.85"/>
<polygon fill="black" stroke="black" points="1866.39,-692.65 1874.65,-699.29 1872.33,-688.95 1866.39,-692.65"/>
</g>
<!-- ip_output&#45;&gt;loop_xvrf -->
<g id="edge43" class="edge">
<title>ip_output&#45;&gt;loop_xvrf</title>
<path fill="none" stroke="black" d="M899.89,-550.15C918.08,-503.93 966.84,-380.05 988.85,-324.11"/>
<polygon fill="black" stroke="black" points="992.05,-325.55 992.45,-314.97 985.53,-322.99 992.05,-325.55"/>
</g>
<!-- ip_output&#45;&gt;ip_fragment -->
<g id="edge42" class="edge">
<title>ip_output&#45;&gt;ip_fragment</title>
<path fill="none" stroke="black" d="M871.86,-581.86C856.95,-590.18 835.62,-600.45 816.61,-608.65"/>
<polygon fill="black" stroke="black" points="815.31,-605.4 807.45,-612.5 818.02,-611.85 815.31,-605.4"/>
</g>
<!-- ip_output&#45;&gt;ip_hold -->
<g id="edge41" class="edge">
<title>ip_output&#45;&gt;ip_hold</title>
<path fill="none" stroke="black" d="M909.77,-553.21C924.17,-540.69 945.52,-522.4 964.61,-507 965.27,-506.47 965.93,-505.94 966.59,-505.41"/>
<polygon fill="black" stroke="black" points="968.59,-508.29 974.29,-499.36 964.26,-502.79 968.59,-508.29"/>
</g>
<!-- ip_output&#45;&gt;ip_loadbalance -->
<g id="edge44" class="edge">
<title>ip_output&#45;&gt;ip_loadbalance</title>
<path fill="none" stroke="black" d="M862.42,-573.88C851.96,-574.54 839.74,-574.82 827.76,-574.73"/>
<polygon fill="black" stroke="black" points="827.99,-571.24 817.93,-574.56 827.86,-578.24 827.99,-571.24"/>
</g>
<!-- ipip_output -->
<g id="node33" class="node">
<title>ipip_output</title>
<ellipse fill="none" stroke="black" cx="1000.92" cy="-534" rx="36.3" ry="18"/>
<text text-anchor="middle" x="1000.92" y="-531.42" font-family="sans" font-size="11.00">ipip_output</text>
</g>
<!-- ip_output&#45;&gt;ipip_output -->
<g id="edge45" class="edge">
<title>ip_output&#45;&gt;ipip_output</title>
<path fill="none" stroke="black" d="M914.53,-555.57C926.1,-550.9 940.79,-545.86 954.72,-541.68"/>
<polygon fill="black" stroke="black" points="955.54,-545.08 964.19,-538.96 953.61,-538.36 955.54,-545.08"/>
</g>
<!-- sr6_output -->
<g id="node37" class="node">
<title>sr6_output</title>
<ellipse fill="none" stroke="black" cx="1885.84" cy="-457" rx="34.11" ry="18"/>
<text text-anchor="middle" x="1885.84" y="-454.43" font-family="sans" font-size="11.00">sr6_output</text>
</g>
<!-- ip_output&#45;&gt;sr6_output -->
<g id="edge46" class="edge">
<title>ip_output&#45;&gt;sr6_output</title>
<path fill="none" stroke="black" d="M922.31,-570.69C963.6,-574.23 1041.06,-580 1107.21,-580 1107.21,-580 1107.21,-580 1603.8,-580 1698.17,-580 1734.13,-609.16 1815.29,-561 1843.97,-543.99 1863.26,-509.99 1874.11,-485.49"/>
<polygon fill="black" stroke="black" points="1877.29,-486.97 1877.92,-476.39 1870.83,-484.26 1877.29,-486.97"/>
</g>
<!-- ip6_forward -->
<g id="node26" class="node">
<title>ip6_forward</title>
<ellipse fill="none" stroke="black" cx="1317.98" cy="-277" rx="38.06" ry="18"/>
<text text-anchor="middle" x="1317.98" y="-274.43" font-family="sans" font-size="11.00">ip6_forward</text>
</g>
<!-- ip6_output -->
<g id="node31" class="node">
<title>ip6_output</title>
<ellipse fill="none" stroke="black" cx="1757.47" cy="-430" rx="34.11" ry="18"/>
<text text-anchor="middle" x="1757.47" y="-427.43" font-family="sans" font-size="11.00">ip6_output</text>
</g>
<!-- ip6_forward&#45;&gt;ip6_output -->
<g id="edge53" class="edge">
<title>ip6_forward&#45;&gt;ip6_output</title>
<path fill="none" stroke="black" d="M1348,-288.55C1390.37,-305.26 1471.74,-336.84 1541.95,-361 1595.53,-379.44 1609.73,-381.58 1663.64,-399 1681.24,-404.69 1700.66,-411.14 1717.17,-416.69"/>
<polygon fill="black" stroke="black" points="1716.05,-420 1726.64,-419.88 1718.28,-413.37 1716.05,-420"/>
</g>
<!-- ip6_hold -->
<g id="node27" class="node">
<title>ip6_hold</title>
<polygon fill="none" stroke="dodgerblue" points="1915.17,-421 1856.52,-421 1856.52,-385 1915.17,-385 1915.17,-421"/>
<text text-anchor="middle" x="1885.84" y="-400.43" font-family="sans" font-size="11.00">ip6_hold</text>
</g>
<!-- ip6_input&#45;&gt;ip6_forward -->
<g id="edge54" class="edge">
<title>ip6_input&#45;&gt;ip6_forward</title>
<path fill="none" stroke="black" d="M1138.1,-277C1171.69,-277 1227.68,-277 1268.08,-277"/>
<polygon fill="black" stroke="black" points="1268.04,-280.5 1278.04,-277 1268.04,-273.5 1268.04,-280.5"/>
</g>
<!-- ip6_input_local -->
<g id="node30" class="node">
<title>ip6_input_local</title>
<ellipse fill="none" stroke="black" cx="1317.98" cy="-342" rx="46.82" ry="18"/>
<text text-anchor="middle" x="1317.98" y="-339.43" font-family="sans" font-size="11.00">ip6_input_local</text>
</g>
<!-- ip6_input&#45;&gt;ip6_input_local -->
<g id="edge56" class="edge">
<title>ip6_input&#45;&gt;ip6_input_local</title>
<path fill="none" stroke="black" d="M1135.32,-284.67C1160.83,-292.21 1200.74,-304.13 1235.16,-315 1246.83,-318.69 1259.4,-322.78 1271.11,-326.63"/>
<polygon fill="black" stroke="black" points="1269.97,-329.94 1280.57,-329.76 1272.17,-323.3 1269.97,-329.94"/>
</g>
<!-- ip6_input&#45;&gt;ip6_output -->
<g id="edge55" class="edge">
<title>ip6_input&#45;&gt;ip6_output</title>
<path fill="none" stroke="black" d="M1135.08,-268.85C1232.4,-238.85 1575.46,-139.4 1663.64,-199 1731.44,-244.82 1749.73,-349.21 1754.65,-400.48"/>
<polygon fill="black" stroke="black" points="1751.15,-400.55 1755.47,-410.22 1758.12,-399.96 1751.15,-400.55"/>
</g>
<!-- sr6_local -->
<g id="node36" class="node">
<title>sr6_local</title>
<ellipse fill="none" stroke="black" cx="1207.18" cy="-342" rx="27.98" ry="18"/>
<text text-anchor="middle" x="1207.18" y="-339.43" font-family="sans" font-size="11.00">sr6_local</text>
</g>
<!-- ip6_input&#45;&gt;sr6_local -->
<g id="edge57" class="edge">
<title>ip6_input&#45;&gt;sr6_local</title>
<path fill="none" stroke="black" d="M1133.18,-287.15C1148.09,-296.03 1167.19,-308.84 1182.11,-319.94"/>
<polygon fill="black" stroke="black" points="1179.96,-322.71 1190.03,-326.02 1184.23,-317.16 1179.96,-322.71"/>
</g>
<!-- ip6_loadbalance -->
<g id="node29" class="node">
<title>ip6_loadbalance</title>
<ellipse fill="none" stroke="black" cx="1602.8" cy="-480" rx="50.33" ry="18"/>
<text text-anchor="middle" x="1602.8" y="-477.43" font-family="sans" font-size="11.00">ip6_loadbalance</text>
</g>
<!-- ip6_loadbalance&#45;&gt;ip6_output -->
<g id="edge58" class="edge">
<title>ip6_loadbalance&#45;&gt;ip6_output</title>
<path fill="none" stroke="black" d="M1632.51,-465.18C1655.24,-456.25 1687.33,-445.49 1713.17,-438.03"/>
<polygon fill="black" stroke="black" points="1714.04,-441.42 1722.72,-435.35 1712.15,-434.68 1714.04,-441.42"/>
</g>
<!-- icmp6_input -->
<g id="node41" class="node">
<title>icmp6_input</title>
<polygon fill="none" stroke="dodgerblue" points="1492.45,-298 1414.3,-298 1414.3,-262 1492.45,-262 1492.45,-298"/>
<text text-anchor="middle" x="1453.37" y="-277.43" font-family="sans" font-size="11.00">icmp6_input</text>
</g>
<!-- ip6_input_local&#45;&gt;icmp6_input -->
<g id="edge59" class="edge">
<title>ip6_input_local&#45;&gt;icmp6_input</title>
<path fill="none" stroke="black" d="M1348.91,-328.09C1365.04,-320.59 1385.34,-311.16 1403.68,-302.63"/>
<polygon fill="black" stroke="black" points="1404.95,-305.9 1412.54,-298.51 1402,-299.56 1404.95,-305.9"/>
</g>
<!-- ip6_input_local&#45;&gt;l4_input_local -->
<g id="edge60" class="edge">
<title>ip6_input_local&#45;&gt;l4_input_local</title>
<path fill="none" stroke="black" d="M1343.13,-357.57C1364.42,-371.3 1395.63,-391.41 1419.24,-406.64"/>
<polygon fill="black" stroke="black" points="1417.27,-409.53 1427.57,-412.01 1421.06,-403.65 1417.27,-409.53"/>
</g>
<!-- ip6_input_local&#45;&gt;ospf_redirect -->
<g id="edge61" class="edge">
<title>ip6_input_local&#45;&gt;ospf_redirect</title>
<path fill="none" stroke="black" d="M1325.59,-360.05C1347.15,-418.88 1415.5,-605.38 1441.86,-677.32"/>
<polygon fill="black" stroke="black" points="1438.47,-678.23 1445.2,-686.42 1445.04,-675.83 1438.47,-678.23"/>
</g>
<!-- ip6_output&#45;&gt;eth_output -->
<g id="edge62" class="edge">
<title>ip6_output&#45;&gt;eth_output</title>
<path fill="none" stroke="black" d="M1772.99,-446.4C1785.6,-461.33 1803.62,-484.42 1815.29,-507 1846.96,-568.25 1868.31,-646.86 1878.32,-688.7"/>
<polygon fill="black" stroke="black" points="1874.87,-689.31 1880.55,-698.25 1881.68,-687.72 1874.87,-689.31"/>
</g>
<!-- ip6_output&#45;&gt;loop_xvrf -->
<g id="edge64" class="edge">
<title>ip6_output&#45;&gt;loop_xvrf</title>
<path fill="none" stroke="black" d="M1755.93,-411.76C1753.48,-358.84 1739.81,-202.98 1663.64,-107 1627.81,-61.85 1517.06,0 1454.37,0 1206.18,0 1206.18,0 1206.18,0 1077.27,0 1023.43,-192.51 1007.42,-267.03"/>
<polygon fill="black" stroke="black" points="1004.07,-265.95 1005.48,-276.45 1010.93,-267.36 1004.07,-265.95"/>
</g>
<!-- ip6_output&#45;&gt;ip6_hold -->
<g id="edge63" class="edge">
<title>ip6_output&#45;&gt;ip6_hold</title>
<path fill="none" stroke="black" d="M1789.71,-423.33C1806.37,-419.76 1827.07,-415.34 1844.9,-411.53"/>
<polygon fill="black" stroke="black" points="1845.6,-414.96 1854.64,-409.45 1844.13,-408.12 1845.6,-414.96"/>
</g>
<!-- ip6_output&#45;&gt;ip6_loadbalance -->
<g id="edge65" class="edge">
<title>ip6_output&#45;&gt;ip6_loadbalance</title>
<path fill="none" stroke="black" d="M1732.74,-442.82C1713.07,-450.82 1684.32,-460.72 1658.95,-468.45"/>
<polygon fill="black" stroke="black" points="1657.99,-465.08 1649.41,-471.29 1659.99,-471.79 1657.99,-465.08"/>
</g>
<!-- ip6_output&#45;&gt;sr6_output -->
<g id="edge66" class="edge">
<title>ip6_output&#45;&gt;sr6_output</title>
<path fill="none" stroke="black" d="M1792,-431.12C1809.16,-433.9 1830.08,-438.32 1847.72,-442.86"/>
<polygon fill="black" stroke="black" points="1846.74,-446.22 1857.31,-445.45 1848.57,-439.46 1846.74,-446.22"/>
</g>
<!-- ipip_input&#45;&gt;ip_input -->
<g id="edge69" class="edge">
<title>ipip_input&#45;&gt;ip_input</title>
<path fill="none" stroke="black" d="M608.41,-388.27C552.05,-396.25 427.82,-414.22 323.55,-432 313.1,-433.78 301.78,-435.86 291.4,-437.82"/>
<polygon fill="black" stroke="black" points="290.83,-434.37 281.67,-439.68 292.15,-441.24 290.83,-434.37"/>
</g>
<!-- ipip_output&#45;&gt;ip_output -->
<g id="edge70" class="edge">
<title>ipip_output&#45;&gt;ip_output</title>
<path fill="none" stroke="black" d="M975.88,-547.37C963.28,-552.34 947.49,-557.63 933.08,-561.79"/>
<polygon fill="black" stroke="black" points="932.58,-558.3 923.86,-564.33 934.43,-565.05 932.58,-558.3"/>
</g>
<!-- dnat44_dynamic&#45;&gt;ip_forward -->
<g id="edge82" class="edge">
<title>dnat44_dynamic&#45;&gt;ip_forward</title>
<path fill="none" stroke="black" d="M423.84,-529.92C437.76,-532.35 453.04,-535.03 466.82,-537.44"/>
<polygon fill="black" stroke="black" points="466.03,-540.85 476.49,-539.13 467.24,-533.96 466.03,-540.85"/>
</g>
<!-- dnat44_dynamic&#45;&gt;ip_input_local -->
<g id="edge83" class="edge">
<title>dnat44_dynamic&#45;&gt;ip_input_local</title>
<path fill="none" stroke="black" d="M411.78,-508.37C429.19,-501.22 450.69,-492.38 469.12,-484.81"/>
<polygon fill="black" stroke="black" points="470.25,-488.13 478.17,-481.09 467.59,-481.65 470.25,-488.13"/>
</g>
<!-- dnat44_static&#45;&gt;ip_forward -->
<g id="edge84" class="edge">
<title>dnat44_static&#45;&gt;ip_forward</title>
<path fill="none" stroke="black" d="M406.17,-481.37C414.47,-485.57 423.53,-490.33 431.7,-495 447.86,-504.24 465.36,-515.3 479.71,-524.68"/>
<polygon fill="black" stroke="black" points="477.55,-527.44 487.82,-530.02 481.39,-521.59 477.55,-527.44"/>
</g>
<!-- dnat44_static&#45;&gt;ip_input_local -->
<g id="edge85" class="edge">
<title>dnat44_static&#45;&gt;ip_input_local</title>
<path fill="none" stroke="black" d="M419.12,-468C430.9,-468 443.95,-468 456.4,-468"/>
<polygon fill="black" stroke="black" points="456.1,-471.5 466.1,-468 456.1,-464.5 456.1,-471.5"/>
</g>
<!-- sr6_local&#45;&gt;ip_input -->
<g id="edge86" class="edge">
<title>sr6_local&#45;&gt;ip_input</title>
<path fill="none" stroke="black" d="M1179.05,-340.97C1092.71,-338.06 816.71,-331.53 590.33,-357 470.12,-370.52 438.03,-371.88 323.55,-411 310.52,-415.45 296.79,-421.85 285.05,-427.9"/>
<polygon fill="black" stroke="black" points="283.43,-424.8 276.24,-432.58 286.72,-430.98 283.43,-424.8"/>
</g>
<!-- sr6_local&#45;&gt;ip6_input -->
<g id="edge87" class="edge">
<title>sr6_local&#45;&gt;ip6_input</title>
<path fill="none" stroke="black" d="M1183.2,-332.44C1168.14,-323.53 1148.48,-310.38 1133.22,-299.01"/>
<polygon fill="black" stroke="black" points="1135.63,-296.45 1125.56,-293.14 1131.37,-302 1135.63,-296.45"/>
</g>
<!-- sr6_local&#45;&gt;ip6_input_local -->
<g id="edge88" class="edge">
<title>sr6_local&#45;&gt;ip6_input_local</title>
<path fill="none" stroke="black" d="M1235.63,-342C1242.99,-342 1251.23,-342 1259.56,-342"/>
<polygon fill="black" stroke="black" points="1259.39,-345.5 1269.39,-342 1259.39,-338.5 1259.39,-345.5"/>
</g>
<!-- sr6_output&#45;&gt;ip6_output -->
<g id="edge89" class="edge">
<title>sr6_output&#45;&gt;ip6_output</title>
<path fill="none" stroke="black" d="M1851.47,-455.9C1834.33,-453.13 1813.38,-448.72 1795.72,-444.18"/>
<polygon fill="black" stroke="black" points="1796.68,-440.81 1786.11,-441.58 1794.86,-447.57 1796.68,-440.81"/>
</g>
<!-- icmp_output -->
<g id="node40" class="node">
<title>icmp_output</title>
<ellipse fill="none" stroke="black" cx="772.3" cy="-476" rx="39.81" ry="18"/>
<text text-anchor="middle" x="772.3" y="-473.43" font-family="sans" font-size="11.00">icmp_output</text>
</g>
<!-- icmp_input&#45;&gt;icmp_output -->
<g id="edge25" class="edge">
<title>icmp_input&#45;&gt;icmp_output</title>
<path fill="none" stroke="black" d="M675.51,-476C689.46,-476 705.82,-476 721.04,-476"/>
<polygon fill="black" stroke="black" points="720.88,-479.5 730.88,-476 720.88,-472.5 720.88,-479.5"/>
</g>
<!-- icmp_local_send -->
<g id="node39" class="node">
<title>icmp_local_send</title>
<polygon fill="none" stroke="dodgerblue" points="689.48,-548 590.33,-548 590.33,-512 689.48,-512 689.48,-548"/>
<text text-anchor="middle" x="639.91" y="-527.42" font-family="sans" font-size="11.00">icmp_local_send</text>
</g>
<!-- icmp_local_send&#45;&gt;icmp_output -->
<g id="edge26" class="edge">
<title>icmp_local_send&#45;&gt;icmp_output</title>
<path fill="none" stroke="dodgerblue" d="M685.42,-511.57C700.5,-505.32 717.23,-498.4 731.88,-492.33"/>
<polygon fill="dodgerblue" stroke="dodgerblue" points="732.84,-495.72 740.74,-488.66 730.16,-489.25 732.84,-495.72"/>
</g>
<!-- icmp_output&#45;&gt;ip_output -->
<g id="edge27" class="edge">
<title>icmp_output&#45;&gt;ip_output</title>
<path fill="none" stroke="black" d="M795.49,-490.92C803.09,-496.18 811.57,-502.22 819.13,-508 834.74,-519.94 851.63,-534.01 865.1,-545.52"/>
<polygon fill="black" stroke="black" points="862.81,-548.16 872.67,-552.03 867.37,-542.86 862.81,-548.16"/>
</g>
<!-- icmp6_output -->
<g id="node42" class="node">
<title>icmp6_output</title>
<ellipse fill="none" stroke="black" cx="1602.8" cy="-134" rx="43.32" ry="18"/>
<text text-anchor="middle" x="1602.8" y="-131.43" font-family="sans" font-size="11.00">icmp6_output</text>
</g>
<!-- icmp6_input&#45;&gt;icmp6_output -->
<g id="edge47" class="edge">
<title>icmp6_input&#45;&gt;icmp6_output</title>
<path fill="none" stroke="dodgerblue" d="M1473.05,-261.51C1499.42,-235.39 1547.63,-187.64 1576.99,-158.57"/>
<polygon fill="dodgerblue" stroke="dodgerblue" points="1579.38,-161.13 1584.02,-151.61 1574.45,-156.16 1579.38,-161.13"/>
</g>
<!-- ndp_na_input -->
<g id="node44" class="node">
<title>ndp_na_input</title>
<polygon fill="none" stroke="dodgerblue" points="1645.25,-298 1560.35,-298 1560.35,-262 1645.25,-262 1645.25,-298"/>
<text text-anchor="middle" x="1602.8" y="-277.43" font-family="sans" font-size="11.00">ndp_na_input</text>
</g>
<!-- icmp6_input&#45;&gt;ndp_na_input -->
<g id="edge49" class="edge">
<title>icmp6_input&#45;&gt;ndp_na_input</title>
<path fill="none" stroke="dodgerblue" d="M1492.72,-280C1509.74,-280 1530.05,-280 1548.51,-280"/>
<polygon fill="dodgerblue" stroke="dodgerblue" points="1548.5,-283.5 1558.5,-280 1548.5,-276.5 1548.5,-283.5"/>
</g>
<!-- ndp_ns_input -->
<g id="node46" class="node">
<title>ndp_ns_input</title>
<polygon fill="none" stroke="dodgerblue" points="1644.87,-244 1560.72,-244 1560.72,-208 1644.87,-208 1644.87,-244"/>
<text text-anchor="middle" x="1602.8" y="-223.43" font-family="sans" font-size="11.00">ndp_ns_input</text>
</g>
<!-- icmp6_input&#45;&gt;ndp_ns_input -->
<g id="edge48" class="edge">
<title>icmp6_input&#45;&gt;ndp_ns_input</title>
<path fill="none" stroke="dodgerblue" d="M1492.72,-265.95C1510.05,-259.61 1530.8,-252.01 1549.53,-245.15"/>
<polygon fill="dodgerblue" stroke="dodgerblue" points="1550.67,-248.46 1558.86,-241.73 1548.26,-241.88 1550.67,-248.46"/>
</g>
<!-- ndp_rs_input -->
<g id="node48" class="node">
<title>ndp_rs_input</title>
<polygon fill="none" stroke="dodgerblue" points="1643.75,-352 1561.85,-352 1561.85,-316 1643.75,-316 1643.75,-352"/>
<text text-anchor="middle" x="1602.8" y="-331.43" font-family="sans" font-size="11.00">ndp_rs_input</text>
</g>
<!-- icmp6_input&#45;&gt;ndp_rs_input -->
<g id="edge50" class="edge">
<title>icmp6_input&#45;&gt;ndp_rs_input</title>
<path fill="none" stroke="dodgerblue" d="M1492.72,-294.05C1510.49,-300.56 1531.85,-308.38 1550.95,-315.37"/>
<polygon fill="dodgerblue" stroke="dodgerblue" points="1549.56,-318.6 1560.16,-318.75 1551.97,-312.02 1549.56,-318.6"/>
</g>
<!-- icmp6_output&#45;&gt;ip6_output -->
<g id="edge51" class="edge">
<title>icmp6_output&#45;&gt;ip6_output</title>
<path fill="none" stroke="black" d="M1636.08,-145.81C1646.02,-150.77 1656.28,-157.41 1663.64,-166 1723.8,-236.14 1745.8,-347.77 1753.14,-400.53"/>
<polygon fill="black" stroke="black" points="1749.65,-400.78 1754.41,-410.24 1756.59,-399.87 1749.65,-400.78"/>
</g>
<!-- icmp6_local_send -->
<g id="node43" class="node">
<title>icmp6_local_send</title>
<polygon fill="none" stroke="dodgerblue" points="1505.95,-64 1400.8,-64 1400.8,-28 1505.95,-28 1505.95,-64"/>
<text text-anchor="middle" x="1453.37" y="-43.42" font-family="sans" font-size="11.00">icmp6_local_send</text>
</g>
<!-- icmp6_local_send&#45;&gt;icmp6_output -->
<g id="edge52" class="edge">
<title>icmp6_local_send&#45;&gt;icmp6_output</title>
<path fill="none" stroke="dodgerblue" d="M1490.66,-64.5C1495.83,-67.28 1501.05,-70.17 1505.95,-73 1527.41,-85.42 1550.91,-100.35 1569.27,-112.33"/>
<polygon fill="dodgerblue" stroke="dodgerblue" points="1567.35,-115.26 1577.63,-117.82 1571.19,-109.41 1567.35,-115.26"/>
</g>
<!-- ndp_na_output -->
<g id="node45" class="node">
<title>ndp_na_output</title>
<polygon fill="none" stroke="dodgerblue" points="1499.57,-172 1407.17,-172 1407.17,-136 1499.57,-136 1499.57,-172"/>
<text text-anchor="middle" x="1453.37" y="-151.43" font-family="sans" font-size="11.00">ndp_na_output</text>
</g>
<!-- ndp_na_output&#45;&gt;icmp6_output -->
<g id="edge67" class="edge">
<title>ndp_na_output&#45;&gt;icmp6_output</title>
<path fill="none" stroke="dodgerblue" d="M1499.81,-147.84C1515.76,-145.67 1533.78,-143.23 1550.2,-141"/>
<polygon fill="dodgerblue" stroke="dodgerblue" points="1550.32,-144.52 1559.76,-139.7 1549.38,-137.58 1550.32,-144.52"/>
</g>
<!-- ndp_ns_output -->
<g id="node47" class="node">
<title>ndp_ns_output</title>
<polygon fill="none" stroke="dodgerblue" points="1499.2,-118 1407.55,-118 1407.55,-82 1499.2,-82 1499.2,-118"/>
<text text-anchor="middle" x="1453.37" y="-97.42" font-family="sans" font-size="11.00">ndp_ns_output</text>
</g>
<!-- ndp_ns_output&#45;&gt;icmp6_output -->
<g id="edge68" class="edge">
<title>ndp_ns_output&#45;&gt;icmp6_output</title>
<path fill="none" stroke="dodgerblue" d="M1499.41,-110.39C1516.49,-114.33 1536.02,-118.83 1553.4,-122.84"/>
<polygon fill="dodgerblue" stroke="dodgerblue" points="1552.46,-126.21 1563,-125.05 1554.04,-119.39 1552.46,-126.21"/>
</g>
<!-- l4_loopback_output -->
<g id="node50" class="node">
<title>l4_loopback_output</title>
<ellipse fill="none" stroke="black" cx="1602.8" cy="-534" rx="60.85" ry="18"/>
<text text-anchor="middle" x="1602.8" y="-531.42" font-family="sans" font-size="11.00">l4_loopback_output</text>
</g>
<!-- l4_input_local&#45;&gt;l4_loopback_output -->
<g id="edge78" class="edge">
<title>l4_input_local&#45;&gt;l4_loopback_output</title>
<path fill="none" stroke="black" d="M1469.89,-444.79C1486.49,-462.04 1514.18,-488.85 1541.95,-507 1546.09,-509.7 1550.54,-512.27 1555.08,-514.66"/>
<polygon fill="black" stroke="black" points="1553.21,-517.64 1563.73,-518.94 1556.32,-511.36 1553.21,-517.64"/>
</g>
<!-- dhcp_input -->
<g id="node55" class="node">
<title>dhcp_input</title>
<ellipse fill="none" stroke="black" cx="1602.8" cy="-426" rx="35.43" ry="18"/>
<text text-anchor="middle" x="1602.8" y="-423.43" font-family="sans" font-size="11.00">dhcp_input</text>
</g>
<!-- l4_input_local&#45;&gt;dhcp_input -->
<g id="edge79" class="edge">
<title>l4_input_local&#45;&gt;dhcp_input</title>
<path fill="none" stroke="black" d="M1496.62,-427.43C1515.08,-427.18 1536.78,-426.88 1555.66,-426.63"/>
<polygon fill="black" stroke="black" points="1555.54,-430.13 1565.49,-426.49 1555.44,-423.13 1555.54,-430.13"/>
</g>
<!-- l4_loopback_output&#45;&gt;loopback_output -->
<g id="edge80" class="edge">
<title>l4_loopback_output&#45;&gt;loopback_output</title>
<path fill="none" stroke="black" d="M1664.14,-534C1674.31,-534 1684.88,-534 1695.08,-534"/>
<polygon fill="black" stroke="black" points="1694.88,-537.5 1704.88,-534 1694.88,-530.5 1694.88,-537.5"/>
</g>
<!-- l2_bridge&#45;&gt;bond_output -->
<g id="edge72" class="edge">
<title>l2_bridge&#45;&gt;bond_output</title>
<path fill="none" stroke="black" d="M2002.08,-848.42C2014.31,-836.68 2032.67,-821.26 2051.86,-813 2076.4,-802.44 2105.7,-797.57 2130.25,-795.39"/>
<polygon fill="black" stroke="black" points="2130.29,-798.9 2140,-794.66 2129.77,-791.92 2130.29,-798.9"/>
</g>
<!-- l2_bridge&#45;&gt;port_output -->
<g id="edge71" class="edge">
<title>l2_bridge&#45;&gt;port_output</title>
<path fill="none" stroke="darkorange" d="M2016.12,-865.63C2027.28,-866.18 2040.16,-866.73 2051.86,-867 2128.22,-868.77 2147.71,-865.44 2223.23,-854 2232.16,-852.65 2241.66,-850.98 2250.74,-849.28"/>
<polygon fill="darkorange" stroke="darkorange" points="2251.31,-852.73 2260.47,-847.4 2249.99,-845.86 2251.31,-852.73"/>
</g>
<!-- l2_bridge&#45;&gt;eth_input -->
<g id="edge73" class="edge">
<title>l2_bridge&#45;&gt;eth_input</title>
<path fill="none" stroke="black" d="M1956.16,-862.32C1913.07,-859.98 1829.54,-856 1758.47,-856 376.62,-856 376.62,-856 376.62,-856 306.16,-856 283.06,-863.25 219.9,-832 194.71,-819.54 172.22,-796.54 157.2,-778.56"/>
<polygon fill="black" stroke="black" points="160,-776.46 151,-770.88 154.56,-780.86 160,-776.46"/>
</g>
<!-- l2_flood -->
<g id="node54" class="node">
<title>l2_flood</title>
<ellipse fill="none" stroke="black" cx="2078.86" cy="-840" rx="27" ry="18"/>
<text text-anchor="middle" x="2078.86" y="-837.42" font-family="sans" font-size="11.00">l2_flood</text>
</g>
<!-- l2_bridge&#45;&gt;l2_flood -->
<g id="edge74" class="edge">
<title>l2_bridge&#45;&gt;l2_flood</title>
<path fill="none" stroke="black" d="M2013.86,-856.93C2022.7,-854.59 2032.69,-851.95 2042.1,-849.46"/>
<polygon fill="black" stroke="black" points="2042.94,-852.86 2051.71,-846.92 2041.15,-846.09 2042.94,-852.86"/>
</g>
<!-- ospf_redirect&#45;&gt;l2_redirect -->
<g id="edge81" class="edge">
<title>ospf_redirect&#45;&gt;l2_redirect</title>
<path fill="none" stroke="black" d="M1491.58,-713.07C1512.4,-717.02 1538.42,-721.96 1559.95,-726.05"/>
<polygon fill="black" stroke="black" points="1559.11,-729.45 1569.58,-727.88 1560.41,-722.58 1559.11,-729.45"/>
</g>
<!-- l2_flood&#45;&gt;bond_output -->
<g id="edge76" class="edge">
<title>l2_flood&#45;&gt;bond_output</title>
<path fill="none" stroke="black" d="M2101.92,-830.02C2113.93,-824.59 2129.13,-817.71 2143.03,-811.42"/>
<polygon fill="black" stroke="black" points="2144.28,-814.7 2151.95,-807.39 2141.39,-808.32 2144.28,-814.7"/>
</g>
<!-- l2_flood&#45;&gt;port_output -->
<g id="edge75" class="edge">
<title>l2_flood&#45;&gt;port_output</title>
<path fill="none" stroke="darkorange" d="M2106.34,-840C2141.42,-840 2203.95,-840 2247.55,-840"/>
<polygon fill="darkorange" stroke="darkorange" points="2247.51,-843.5 2257.51,-840 2247.51,-836.5 2247.51,-843.5"/>
</g>
<!-- l2_flood&#45;&gt;eth_input -->
<g id="edge77" class="edge">
<title>l2_flood&#45;&gt;eth_input</title>
<path fill="none" stroke="black" d="M2052.32,-835.17C2015.79,-828.7 1946.43,-818 1886.84,-818 376.62,-818 376.62,-818 376.62,-818 301.44,-818 217.47,-787.6 171.89,-768.38"/>
<polygon fill="black" stroke="black" points="173.38,-765.22 162.81,-764.48 170.62,-771.65 173.38,-765.22"/>
</g>
</g>
</svg>
