<?xml version="1.0" encoding="UTF-8" standalone="no"?>
<!DOCTYPE svg PUBLIC "-//W3C//DTD SVG 1.1//EN"
 "http://www.w3.org/Graphics/SVG/1.1/DTD/svg11.dtd">
<!-- Generated by graphviz version 2.43.0 (0)
 -->
<!-- Title: %3 Pages: 1 -->
<svg width="2336pt" height="918pt"
 viewBox="0.00 0.00 2335.62 918.00" xmlns="http://www.w3.org/2000/svg" xmlns:xlink="http://www.w3.org/1999/xlink">
<g id="graph0" class="graph" transform="scale(1 1) rotate(0) translate(4 914)">
<title>%3</title>
<polygon fill="white" stroke="transparent" points="-4,4 -4,-914 2331.62,-914 2331.62,4 -4,4"/>
<!-- bond_output -->
<g id="node1" class="node">
<title>bond_output</title>
<ellipse fill="none" stroke="black" cx="2091.45" cy="-784" rx="38.57" ry="18"/>
<text text-anchor="middle" x="2091.45" y="-781.2" font-family="sans" font-size="11.00">bond_output</text>
</g>
<!-- port_output -->
<g id="node3" class="node">
<title>port_output</title>
<ellipse fill="none" stroke="black" cx="2201.81" cy="-738" rx="35.64" ry="18"/>
<text text-anchor="middle" x="2201.81" y="-735.2" font-family="sans" font-size="11.00">port_output</text>
</g>
<!-- bond_output&#45;&gt;port_output -->
<g id="edge1" class="edge">
<title>bond_output&#45;&gt;port_output</title>
<path fill="none" stroke="black" d="M2120.64,-772.03C2133.99,-766.37 2150.09,-759.53 2164.36,-753.47"/>
<polygon fill="black" stroke="black" points="2166.04,-756.56 2173.88,-749.43 2163.31,-750.12 2166.04,-756.56"/>
</g>
<!-- iface_output -->
<g id="node2" class="node">
<title>iface_output</title>
<ellipse fill="none" stroke="black" cx="1978.93" cy="-784" rx="37.98" ry="18"/>
<text text-anchor="middle" x="1978.93" y="-781.2" font-family="sans" font-size="11.00">iface_output</text>
</g>
<!-- iface_output&#45;&gt;bond_output -->
<g id="edge8" class="edge">
<title>iface_output&#45;&gt;bond_output</title>
<path fill="none" stroke="black" d="M2017.04,-784C2025.24,-784 2034.05,-784 2042.61,-784"/>
<polygon fill="black" stroke="black" points="2042.88,-787.5 2052.88,-784 2042.88,-780.5 2042.88,-787.5"/>
</g>
<!-- iface_output&#45;&gt;port_output -->
<g id="edge9" class="edge">
<title>iface_output&#45;&gt;port_output</title>
<path fill="none" stroke="black" d="M2007.54,-772.1C2021,-766.74 2037.57,-760.77 2052.92,-757 2086.99,-748.63 2126.43,-743.79 2156.01,-741.1"/>
<polygon fill="black" stroke="black" points="2156.37,-744.58 2166.03,-740.23 2155.77,-737.61 2156.37,-744.58"/>
</g>
<!-- port_tx -->
<g id="node5" class="node">
<title>port_tx</title>
<ellipse fill="none" stroke="black" cx="2300.62" cy="-738" rx="27" ry="18"/>
<text text-anchor="middle" x="2300.62" y="-735.2" font-family="sans" font-size="11.00">port_tx</text>
</g>
<!-- port_output&#45;&gt;port_tx -->
<g id="edge15" class="edge">
<title>port_output&#45;&gt;port_tx</title>
<path fill="none" stroke="black" d="M2237.76,-738C2246.06,-738 2254.94,-738 2263.3,-738"/>
<polygon fill="black" stroke="black" points="2263.54,-741.5 2273.54,-738 2263.54,-734.5 2263.54,-741.5"/>
</g>
<!-- port_rx -->
<g id="node4" class="node">
<title>port_rx</title>
<ellipse fill="none" stroke="blue" stroke-width="2" cx="27" cy="-395" rx="27" ry="18"/>
<text text-anchor="middle" x="27" y="-392.2" font-family="sans" font-size="11.00">port_rx</text>
</g>
<!-- xconnect -->
<g id="node6" class="node">
<title>xconnect</title>
<ellipse fill="none" stroke="black" cx="890.98" cy="-712" rx="28.44" ry="18"/>
<text text-anchor="middle" x="890.98" y="-709.2" font-family="sans" font-size="11.00">xconnect</text>
</g>
<!-- port_rx&#45;&gt;xconnect -->
<g id="edge17" class="edge">
<title>port_rx&#45;&gt;xconnect</title>
<path fill="none" stroke="blue" stroke-width="2" d="M32.65,-412.95C50.1,-475.78 117.91,-682 256,-682 256,-682 256,-682 647.99,-682 721.59,-682 806.83,-695.84 853.95,-704.72"/>
<polygon fill="blue" stroke="blue" stroke-width="2" points="853.49,-708.19 863.97,-706.64 854.81,-701.32 853.49,-708.19"/>
</g>
<!-- eth_input -->
<g id="node7" class="node">
<title>eth_input</title>
<ellipse fill="none" stroke="black" cx="138" cy="-250" rx="29.12" ry="18"/>
<text text-anchor="middle" x="138" y="-247.2" font-family="sans" font-size="11.00">eth_input</text>
</g>
<!-- port_rx&#45;&gt;eth_input -->
<g id="edge16" class="edge">
<title>port_rx&#45;&gt;eth_input</title>
<path fill="none" stroke="blue" stroke-width="2" d="M40.08,-378.93C59.15,-353.56 96.35,-304.07 118.71,-274.33"/>
<polygon fill="blue" stroke="blue" stroke-width="2" points="121.65,-276.24 124.86,-266.14 116.06,-272.03 121.65,-276.24"/>
</g>
<!-- xconnect&#45;&gt;port_output -->
<g id="edge19" class="edge">
<title>xconnect&#45;&gt;port_output</title>
<path fill="none" stroke="black" d="M917.9,-717.51C956.11,-725.15 1029.88,-738 1093.32,-738 1093.32,-738 1093.32,-738 1301.37,-738 1497.11,-738 1544.4,-700 1740.14,-700 1740.14,-700 1740.14,-700 1979.93,-700 2043.82,-700 2116.63,-715.63 2160.62,-726.85"/>
<polygon fill="black" stroke="black" points="2159.8,-730.25 2170.36,-729.38 2161.56,-723.48 2159.8,-730.25"/>
</g>
<!-- lacp_input -->
<g id="node10" class="node">
<title>lacp_input</title>
<polygon fill="none" stroke="dodgerblue" points="292,-36 222,-36 222,0 292,0 292,-36"/>
<text text-anchor="middle" x="257" y="-15.2" font-family="sans" font-size="11.00">lacp_input</text>
</g>
<!-- eth_input&#45;&gt;lacp_input -->
<g id="edge3" class="edge">
<title>eth_input&#45;&gt;lacp_input</title>
<path fill="none" stroke="black" d="M143.64,-232.18C153.72,-195.65 180.12,-110.62 222,-50 223.49,-47.84 225.15,-45.72 226.91,-43.65"/>
<polygon fill="black" stroke="black" points="229.76,-45.73 234.05,-36.04 224.65,-40.94 229.76,-45.73"/>
</g>
<!-- snap_input -->
<g id="node12" class="node">
<title>snap_input</title>
<ellipse fill="none" stroke="black" cx="1094.32" cy="-72" rx="33.8" ry="18"/>
<text text-anchor="middle" x="1094.32" y="-69.2" font-family="sans" font-size="11.00">snap_input</text>
</g>
<!-- eth_input&#45;&gt;snap_input -->
<g id="edge2" class="edge">
<title>eth_input&#45;&gt;snap_input</title>
<path fill="none" stroke="black" d="M148.22,-232.73C161.75,-208.73 188.98,-165.05 222,-137 282.03,-86 304.73,-64 383.5,-64 383.5,-64 383.5,-64 891.98,-64 946.68,-64 1009.69,-66.99 1050.44,-69.31"/>
<polygon fill="black" stroke="black" points="1050.36,-72.81 1060.55,-69.9 1050.77,-65.82 1050.36,-72.81"/>
</g>
<!-- arp_input -->
<g id="node13" class="node">
<title>arp_input</title>
<ellipse fill="none" stroke="black" cx="257" cy="-164" rx="29.12" ry="18"/>
<text text-anchor="middle" x="257" y="-161.2" font-family="sans" font-size="11.00">arp_input</text>
</g>
<!-- eth_input&#45;&gt;arp_input -->
<g id="edge4" class="edge">
<title>eth_input&#45;&gt;arp_input</title>
<path fill="none" stroke="black" d="M157.54,-236.37C176.88,-222.16 207.38,-199.74 229.31,-183.62"/>
<polygon fill="black" stroke="black" points="231.56,-186.31 237.55,-177.56 227.42,-180.67 231.56,-186.31"/>
</g>
<!-- ip_input -->
<g id="node25" class="node">
<title>ip_input</title>
<ellipse fill="none" stroke="black" cx="257" cy="-361" rx="27" ry="18"/>
<text text-anchor="middle" x="257" y="-358.2" font-family="sans" font-size="11.00">ip_input</text>
</g>
<!-- eth_input&#45;&gt;ip_input -->
<g id="edge5" class="edge">
<title>eth_input&#45;&gt;ip_input</title>
<path fill="none" stroke="black" d="M154.78,-264.97C174.95,-284.11 210.03,-317.39 233.13,-339.31"/>
<polygon fill="black" stroke="black" points="230.81,-341.92 240.47,-346.27 235.63,-336.85 230.81,-341.92"/>
</g>
<!-- ip6_input -->
<g id="node31" class="node">
<title>ip6_input</title>
<ellipse fill="none" stroke="black" cx="1094.32" cy="-538" rx="28.44" ry="18"/>
<text text-anchor="middle" x="1094.32" y="-535.2" font-family="sans" font-size="11.00">ip6_input</text>
</g>
<!-- eth_input&#45;&gt;ip6_input -->
<g id="edge6" class="edge">
<title>eth_input&#45;&gt;ip6_input</title>
<path fill="none" stroke="black" d="M145.45,-267.63C156.79,-296.41 182.88,-353.74 222,-388 260.63,-421.84 277.72,-423.56 328,-434 428.74,-454.92 474.19,-491.52 559.49,-434 594.87,-410.15 561.39,-370.64 595.49,-345 661.06,-295.7 697.05,-326 779.08,-326 779.08,-326 779.08,-326 891.98,-326 993.01,-326 1058.65,-454.17 1082.86,-511.19"/>
<polygon fill="black" stroke="black" points="1079.71,-512.75 1086.77,-520.65 1086.18,-510.07 1079.71,-512.75"/>
</g>
<!-- eth_output -->
<g id="node8" class="node">
<title>eth_output</title>
<ellipse fill="none" stroke="black" cx="1871.29" cy="-784" rx="33.8" ry="18"/>
<text text-anchor="middle" x="1871.29" y="-781.2" font-family="sans" font-size="11.00">eth_output</text>
</g>
<!-- eth_output&#45;&gt;iface_output -->
<g id="edge7" class="edge">
<title>eth_output&#45;&gt;iface_output</title>
<path fill="none" stroke="black" d="M1905.14,-784C1913.14,-784 1921.87,-784 1930.41,-784"/>
<polygon fill="black" stroke="black" points="1930.68,-787.5 1940.68,-784 1930.68,-780.5 1930.68,-787.5"/>
</g>
<!-- l2_redirect -->
<g id="node9" class="node">
<title>l2_redirect</title>
<polygon fill="none" stroke="dodgerblue" points="1622.03,-118 1550.03,-118 1550.03,-82 1622.03,-82 1622.03,-118"/>
<text text-anchor="middle" x="1586.03" y="-97.2" font-family="sans" font-size="11.00">l2_redirect</text>
</g>
<!-- lacp_output -->
<g id="node11" class="node">
<title>lacp_output</title>
<polygon fill="none" stroke="dodgerblue" points="1780.14,-910 1702.14,-910 1702.14,-874 1780.14,-874 1780.14,-910"/>
<text text-anchor="middle" x="1741.14" y="-889.2" font-family="sans" font-size="11.00">lacp_output</text>
</g>
<!-- lacp_output&#45;&gt;eth_output -->
<g id="edge10" class="edge">
<title>lacp_output&#45;&gt;eth_output</title>
<path fill="none" stroke="dodgerblue" d="M1780.38,-877.68C1787.78,-874.09 1795.21,-869.85 1801.64,-865 1822.06,-849.58 1840.52,-827.07 1853.14,-809.69"/>
<polygon fill="dodgerblue" stroke="dodgerblue" points="1856.27,-811.32 1859.19,-801.13 1850.56,-807.28 1856.27,-811.32"/>
</g>
<!-- snap_input&#45;&gt;l2_redirect -->
<g id="edge18" class="edge">
<title>snap_input&#45;&gt;l2_redirect</title>
<path fill="none" stroke="black" d="M1127.83,-73.86C1212.85,-78.72 1441.96,-91.82 1539.77,-97.41"/>
<polygon fill="black" stroke="black" points="1539.74,-100.92 1549.92,-97.99 1540.14,-93.93 1539.74,-100.92"/>
</g>
<!-- arp_input_reply -->
<g id="node14" class="node">
<title>arp_input_reply</title>
<polygon fill="none" stroke="dodgerblue" points="434,-128 335,-128 335,-92 434,-92 434,-128"/>
<text text-anchor="middle" x="384.5" y="-107.2" font-family="sans" font-size="11.00">arp_input_reply</text>
</g>
<!-- arp_input&#45;&gt;arp_input_reply -->
<g id="edge21" class="edge">
<title>arp_input&#45;&gt;arp_input_reply</title>
<path fill="none" stroke="black" d="M281.61,-153.84C295.8,-147.73 314.45,-139.71 331.91,-132.2"/>
<polygon fill="black" stroke="black" points="333.65,-135.26 341.46,-128.09 330.89,-128.83 333.65,-135.26"/>
</g>
<!-- arp_input_request -->
<g id="node15" class="node">
<title>arp_input_request</title>
<polygon fill="none" stroke="dodgerblue" points="441,-182 328,-182 328,-146 441,-146 441,-182"/>
<text text-anchor="middle" x="384.5" y="-161.2" font-family="sans" font-size="11.00">arp_input_request</text>
</g>
<!-- arp_input&#45;&gt;arp_input_request -->
<g id="edge20" class="edge">
<title>arp_input&#45;&gt;arp_input_request</title>
<path fill="none" stroke="black" d="M286.48,-164C295.89,-164 306.79,-164 317.81,-164"/>
<polygon fill="black" stroke="black" points="317.92,-167.5 327.92,-164 317.92,-160.5 317.92,-167.5"/>
</g>
<!-- arp_output_reply -->
<g id="node16" class="node">
<title>arp_output_reply</title>
<polygon fill="none" stroke="dodgerblue" points="1794.64,-856 1687.64,-856 1687.64,-820 1794.64,-820 1794.64,-856"/>
<text text-anchor="middle" x="1741.14" y="-835.2" font-family="sans" font-size="11.00">arp_output_reply</text>
</g>
<!-- arp_output_reply&#45;&gt;eth_output -->
<g id="edge22" class="edge">
<title>arp_output_reply&#45;&gt;eth_output</title>
<path fill="none" stroke="dodgerblue" d="M1785.17,-819.87C1801.27,-813.08 1819.37,-805.46 1834.73,-798.98"/>
<polygon fill="dodgerblue" stroke="dodgerblue" points="1836.52,-802.03 1844.38,-794.92 1833.8,-795.58 1836.52,-802.03"/>
</g>
<!-- arp_output_request -->
<g id="node17" class="node">
<title>arp_output_request</title>
<polygon fill="none" stroke="dodgerblue" points="1801.64,-802 1680.64,-802 1680.64,-766 1801.64,-766 1801.64,-802"/>
<text text-anchor="middle" x="1741.14" y="-781.2" font-family="sans" font-size="11.00">arp_output_request</text>
</g>
<!-- arp_output_request&#45;&gt;eth_output -->
<g id="edge23" class="edge">
<title>arp_output_request&#45;&gt;eth_output</title>
<path fill="none" stroke="dodgerblue" d="M1801.71,-784C1810.35,-784 1819.1,-784 1827.33,-784"/>
<polygon fill="dodgerblue" stroke="dodgerblue" points="1827.42,-787.5 1837.42,-784 1827.42,-780.5 1827.42,-787.5"/>
</g>
<!-- ospf_redirect -->
<g id="node18" class="node">
<title>ospf_redirect</title>
<ellipse fill="none" stroke="black" cx="1436.41" cy="-124" rx="40.32" ry="18"/>
<text text-anchor="middle" x="1436.41" y="-121.2" font-family="sans" font-size="11.00">ospf_redirect</text>
</g>
<!-- ospf_redirect&#45;&gt;l2_redirect -->
<g id="edge73" class="edge">
<title>ospf_redirect&#45;&gt;l2_redirect</title>
<path fill="none" stroke="black" d="M1474.66,-117.94C1494.48,-114.72 1519,-110.73 1539.89,-107.34"/>
<polygon fill="black" stroke="black" points="1540.51,-110.78 1549.82,-105.72 1539.39,-103.87 1540.51,-110.78"/>
</g>
<!-- loopback_input -->
<g id="node19" class="node">
<title>loopback_input</title>
<polygon fill="none" stroke="dodgerblue" points="186,-532 90,-532 90,-496 186,-496 186,-532"/>
<text text-anchor="middle" x="138" y="-511.2" font-family="sans" font-size="11.00">loopback_input</text>
</g>
<!-- loopback_input&#45;&gt;ip_input -->
<g id="edge11" class="edge">
<title>loopback_input&#45;&gt;ip_input</title>
<path fill="none" stroke="dodgerblue" d="M152.88,-495.85C174.02,-468.21 214.28,-415.55 237.76,-384.85"/>
<polygon fill="dodgerblue" stroke="dodgerblue" points="240.61,-386.89 243.9,-376.82 235.05,-382.64 240.61,-386.89"/>
</g>
<!-- loopback_input&#45;&gt;ip6_input -->
<g id="edge12" class="edge">
<title>loopback_input&#45;&gt;ip6_input</title>
<path fill="none" stroke="dodgerblue" d="M166.1,-532.05C219.45,-566.89 336.94,-640 383.5,-640 383.5,-640 383.5,-640 891.98,-640 951.76,-640 972.58,-647.34 1024.67,-618 1047.55,-605.11 1066.35,-581.53 1078.46,-563.3"/>
<polygon fill="dodgerblue" stroke="dodgerblue" points="1081.42,-565.16 1083.85,-554.85 1075.52,-561.39 1081.42,-565.16"/>
</g>
<!-- loopback_output -->
<g id="node20" class="node">
<title>loopback_output</title>
<polygon fill="none" stroke="dodgerblue" points="1793.64,-234 1688.64,-234 1688.64,-198 1793.64,-198 1793.64,-234"/>
<text text-anchor="middle" x="1741.14" y="-213.2" font-family="sans" font-size="11.00">loopback_output</text>
</g>
<!-- xvrf -->
<g id="node21" class="node">
<title>xvrf</title>
<ellipse fill="none" stroke="black" cx="990.48" cy="-591" rx="27" ry="18"/>
<text text-anchor="middle" x="990.48" y="-588.2" font-family="sans" font-size="11.00">xvrf</text>
</g>
<!-- xvrf&#45;&gt;ip_input -->
<g id="edge13" class="edge">
<title>xvrf&#45;&gt;ip_input</title>
<path fill="none" stroke="black" d="M963.51,-593.25C924.11,-596.47 846.84,-602 781.08,-602 517.25,-602 517.25,-602 517.25,-602 392.42,-602 302.46,-450.26 270.63,-387.59"/>
<polygon fill="black" stroke="black" points="273.61,-385.73 266.03,-378.33 267.35,-388.84 273.61,-385.73"/>
</g>
<!-- xvrf&#45;&gt;ip6_input -->
<g id="edge14" class="edge">
<title>xvrf&#45;&gt;ip6_input</title>
<path fill="none" stroke="black" d="M1012.58,-580.02C1027.09,-572.47 1046.59,-562.32 1062.8,-553.88"/>
<polygon fill="black" stroke="black" points="1064.64,-556.87 1071.89,-549.15 1061.4,-550.66 1064.64,-556.87"/>
</g>
<!-- ip_forward -->
<g id="node22" class="node">
<title>ip_forward</title>
<ellipse fill="none" stroke="black" cx="518.25" cy="-407" rx="32.63" ry="18"/>
<text text-anchor="middle" x="518.25" y="-404.2" font-family="sans" font-size="11.00">ip_forward</text>
</g>
<!-- ip_output -->
<g id="node28" class="node">
<title>ip_output</title>
<ellipse fill="none" stroke="black" cx="890.98" cy="-480" rx="29.12" ry="18"/>
<text text-anchor="middle" x="890.98" y="-477.2" font-family="sans" font-size="11.00">ip_output</text>
</g>
<!-- ip_forward&#45;&gt;ip_output -->
<g id="edge27" class="edge">
<title>ip_forward&#45;&gt;ip_output</title>
<path fill="none" stroke="black" d="M539.74,-420.83C576.68,-444.73 657.75,-492.62 734.49,-507 774.32,-514.46 785.95,-515 825.67,-507 836.91,-504.74 848.64,-500.45 858.96,-495.95"/>
<polygon fill="black" stroke="black" points="860.73,-498.99 868.35,-491.63 857.8,-492.63 860.73,-498.99"/>
</g>
<!-- ip_fragment -->
<g id="node23" class="node">
<title>ip_fragment</title>
<ellipse fill="none" stroke="black" cx="780.08" cy="-480" rx="36.81" ry="18"/>
<text text-anchor="middle" x="780.08" y="-477.2" font-family="sans" font-size="11.00">ip_fragment</text>
</g>
<!-- ip_fragment&#45;&gt;ip_output -->
<g id="edge28" class="edge">
<title>ip_fragment&#45;&gt;ip_output</title>
<path fill="none" stroke="black" d="M814.94,-473.7C826.92,-473.15 840.45,-473.1 852.69,-473.56"/>
<polygon fill="black" stroke="black" points="852.89,-477.07 863.05,-474.08 853.24,-470.08 852.89,-477.07"/>
</g>
<!-- ip_hold -->
<g id="node24" class="node">
<title>ip_hold</title>
<polygon fill="none" stroke="dodgerblue" points="1017.48,-552 963.48,-552 963.48,-516 1017.48,-516 1017.48,-552"/>
<text text-anchor="middle" x="990.48" y="-531.2" font-family="sans" font-size="11.00">ip_hold</text>
</g>
<!-- ip_input&#45;&gt;ip_forward -->
<g id="edge29" class="edge">
<title>ip_input&#45;&gt;ip_forward</title>
<path fill="none" stroke="black" d="M271.83,-376.25C284.84,-389.38 305.63,-407.37 328,-415 377.86,-432 439.42,-424.59 478.51,-416.67"/>
<polygon fill="black" stroke="black" points="479.38,-420.06 488.43,-414.55 477.92,-413.21 479.38,-420.06"/>
</g>
<!-- ip_input_local -->
<g id="node27" class="node">
<title>ip_input_local</title>
<ellipse fill="none" stroke="black" cx="518.25" cy="-242" rx="41.49" ry="18"/>
<text text-anchor="middle" x="518.25" y="-239.2" font-family="sans" font-size="11.00">ip_input_local</text>
</g>
<!-- ip_input&#45;&gt;ip_input_local -->
<g id="edge32" class="edge">
<title>ip_input&#45;&gt;ip_input_local</title>
<path fill="none" stroke="black" d="M266.57,-344.14C277.78,-323.95 299.4,-290.77 328,-274 370.31,-249.19 426.52,-242.33 466.67,-240.98"/>
<polygon fill="black" stroke="black" points="466.85,-244.48 476.77,-240.75 466.69,-237.48 466.85,-244.48"/>
</g>
<!-- ip_input&#45;&gt;ip_output -->
<g id="edge31" class="edge">
<title>ip_input&#45;&gt;ip_output</title>
<path fill="none" stroke="black" d="M269.12,-377.36C281.48,-394.24 303.03,-420 328,-434 489.32,-524.44 550.62,-503.11 734.49,-523 774.78,-527.36 786.89,-534.77 825.67,-523 840.21,-518.59 854.46,-509.67 865.84,-501.1"/>
<polygon fill="black" stroke="black" points="868.27,-503.64 873.93,-494.69 863.92,-498.15 868.27,-503.64"/>
</g>
<!-- dnat44_dynamic -->
<g id="node37" class="node">
<title>dnat44_dynamic</title>
<ellipse fill="none" stroke="black" cx="384.5" cy="-388" rx="50.45" ry="18"/>
<text text-anchor="middle" x="384.5" y="-385.2" font-family="sans" font-size="11.00">dnat44_dynamic</text>
</g>
<!-- ip_input&#45;&gt;dnat44_dynamic -->
<g id="edge30" class="edge">
<title>ip_input&#45;&gt;dnat44_dynamic</title>
<path fill="none" stroke="black" d="M282.79,-366.33C296.52,-369.29 314.12,-373.07 330.76,-376.65"/>
<polygon fill="black" stroke="black" points="330.44,-380.17 340.96,-378.85 331.92,-373.32 330.44,-380.17"/>
</g>
<!-- dnat44_static -->
<g id="node38" class="node">
<title>dnat44_static</title>
<ellipse fill="none" stroke="black" cx="384.5" cy="-334" rx="41.58" ry="18"/>
<text text-anchor="middle" x="384.5" y="-331.2" font-family="sans" font-size="11.00">dnat44_static</text>
</g>
<!-- ip_input&#45;&gt;dnat44_static -->
<g id="edge33" class="edge">
<title>ip_input&#45;&gt;dnat44_static</title>
<path fill="none" stroke="black" d="M282.79,-355.67C298.22,-352.35 318.56,-347.97 336.91,-344.02"/>
<polygon fill="black" stroke="black" points="337.82,-347.41 346.86,-341.88 336.35,-340.56 337.82,-347.41"/>
</g>
<!-- ip_loadbalance -->
<g id="node26" class="node">
<title>ip_loadbalance</title>
<ellipse fill="none" stroke="black" cx="780.08" cy="-426" rx="45.68" ry="18"/>
<text text-anchor="middle" x="780.08" y="-423.2" font-family="sans" font-size="11.00">ip_loadbalance</text>
</g>
<!-- ip_loadbalance&#45;&gt;ip_output -->
<g id="edge34" class="edge">
<title>ip_loadbalance&#45;&gt;ip_output</title>
<path fill="none" stroke="black" d="M816.14,-437.03C831.44,-443.97 849.09,-452.87 863.3,-460.87"/>
<polygon fill="black" stroke="black" points="861.67,-463.97 872.08,-465.96 865.18,-457.92 861.67,-463.97"/>
</g>
<!-- ip_input_local&#45;&gt;ospf_redirect -->
<g id="edge38" class="edge">
<title>ip_input_local&#45;&gt;ospf_redirect</title>
<path fill="none" stroke="black" d="M547.66,-229.19C561.77,-223.35 579.24,-216.88 595.49,-213 889.53,-142.75 1254.72,-127.93 1385.75,-124.82"/>
<polygon fill="black" stroke="black" points="1385.95,-128.32 1395.87,-124.59 1385.8,-121.32 1385.95,-128.32"/>
</g>
<!-- ipip_input -->
<g id="node35" class="node">
<title>ipip_input</title>
<ellipse fill="none" stroke="black" cx="646.99" cy="-110" rx="29.7" ry="18"/>
<text text-anchor="middle" x="646.99" y="-107.2" font-family="sans" font-size="11.00">ipip_input</text>
</g>
<!-- ip_input_local&#45;&gt;ipip_input -->
<g id="edge36" class="edge">
<title>ip_input_local&#45;&gt;ipip_input</title>
<path fill="none" stroke="black" d="M541.59,-226.88C547.86,-221.97 554.36,-216.18 559.49,-210 581.34,-183.69 572.27,-167.1 595.49,-142 600.99,-136.05 607.83,-130.76 614.69,-126.27"/>
<polygon fill="black" stroke="black" points="616.56,-129.23 623.27,-121.03 612.91,-123.25 616.56,-129.23"/>
</g>
<!-- icmp_input -->
<g id="node41" class="node">
<title>icmp_input</title>
<ellipse fill="none" stroke="black" cx="646.99" cy="-372" rx="33.8" ry="18"/>
<text text-anchor="middle" x="646.99" y="-369.2" font-family="sans" font-size="11.00">icmp_input</text>
</g>
<!-- ip_input_local&#45;&gt;icmp_input -->
<g id="edge35" class="edge">
<title>ip_input_local&#45;&gt;icmp_input</title>
<path fill="none" stroke="black" d="M535.3,-258.46C557.61,-281.35 598.1,-322.88 623.44,-348.87"/>
<polygon fill="black" stroke="black" points="620.98,-351.36 630.47,-356.08 625.99,-346.47 620.98,-351.36"/>
</g>
<!-- l4_input_local -->
<g id="node52" class="node">
<title>l4_input_local</title>
<ellipse fill="none" stroke="black" cx="1436.41" cy="-216" rx="41.49" ry="18"/>
<text text-anchor="middle" x="1436.41" y="-213.2" font-family="sans" font-size="11.00">l4_input_local</text>
</g>
<!-- ip_input_local&#45;&gt;l4_input_local -->
<g id="edge37" class="edge">
<title>ip_input_local&#45;&gt;l4_input_local</title>
<path fill="none" stroke="black" d="M556.53,-234.97C606.85,-226.1 699.39,-212 779.08,-212 779.08,-212 779.08,-212 1192.64,-212 1259.15,-212 1335.9,-213.52 1384.99,-214.69"/>
<polygon fill="black" stroke="black" points="1384.96,-218.19 1395.04,-214.93 1385.13,-211.19 1384.96,-218.19"/>
</g>
<!-- ip_output&#45;&gt;eth_output -->
<g id="edge39" class="edge">
<title>ip_output&#45;&gt;eth_output</title>
<path fill="none" stroke="black" d="M896.65,-498.04C904.74,-526.39 923.71,-581.88 956.28,-618 1003.82,-670.71 1022.34,-700 1093.32,-700 1093.32,-700 1093.32,-700 1301.37,-700 1525.15,-700 1584.49,-702.92 1801.64,-757 1813.06,-759.84 1825.12,-764.12 1835.9,-768.44"/>
<polygon fill="black" stroke="black" points="1834.8,-771.78 1845.38,-772.38 1837.49,-765.31 1834.8,-771.78"/>
</g>
<!-- ip_output&#45;&gt;xvrf -->
<g id="edge42" class="edge">
<title>ip_output&#45;&gt;xvrf</title>
<path fill="none" stroke="black" d="M903.8,-496.47C916.17,-513.31 936.51,-539.92 956.28,-561 959.21,-564.12 962.42,-567.29 965.65,-570.34"/>
<polygon fill="black" stroke="black" points="963.36,-573 973.1,-577.17 968.09,-567.83 963.36,-573"/>
</g>
<!-- ip_output&#45;&gt;ip_fragment -->
<g id="edge41" class="edge">
<title>ip_output&#45;&gt;ip_fragment</title>
<path fill="none" stroke="black" d="M863.05,-485.92C851.58,-486.68 837.9,-486.92 825.03,-486.64"/>
<polygon fill="black" stroke="black" points="825.05,-483.14 814.94,-486.3 824.82,-490.13 825.05,-483.14"/>
</g>
<!-- ip_output&#45;&gt;ip_hold -->
<g id="edge40" class="edge">
<title>ip_output&#45;&gt;ip_hold</title>
<path fill="none" stroke="black" d="M913.62,-491.98C925.56,-498.6 940.68,-506.98 954.28,-514.51"/>
<polygon fill="black" stroke="black" points="952.95,-517.77 963.39,-519.55 956.34,-511.65 952.95,-517.77"/>
</g>
<!-- ip_output&#45;&gt;ip_loadbalance -->
<g id="edge43" class="edge">
<title>ip_output&#45;&gt;ip_loadbalance</title>
<path fill="none" stroke="black" d="M863.65,-472.82C847.71,-466 827.33,-455.97 810.81,-446.83"/>
<polygon fill="black" stroke="black" points="812.5,-443.77 802.08,-441.87 809.04,-449.85 812.5,-443.77"/>
</g>
<!-- ipip_output -->
<g id="node36" class="node">
<title>ipip_output</title>
<ellipse fill="none" stroke="black" cx="990.48" cy="-480" rx="34.38" ry="18"/>
<text text-anchor="middle" x="990.48" y="-477.2" font-family="sans" font-size="11.00">ipip_output</text>
</g>
<!-- ip_output&#45;&gt;ipip_output -->
<g id="edge44" class="edge">
<title>ip_output&#45;&gt;ipip_output</title>
<path fill="none" stroke="black" d="M918.62,-473.91C927.74,-473.33 938.17,-473.13 948.18,-473.32"/>
<polygon fill="black" stroke="black" points="948.26,-476.83 958.38,-473.66 948.5,-469.83 948.26,-476.83"/>
</g>
<!-- sr6_output -->
<g id="node40" class="node">
<title>sr6_output</title>
<ellipse fill="none" stroke="black" cx="1871.29" cy="-536" rx="33.21" ry="18"/>
<text text-anchor="middle" x="1871.29" y="-533.2" font-family="sans" font-size="11.00">sr6_output</text>
</g>
<!-- ip_output&#45;&gt;sr6_output -->
<g id="edge45" class="edge">
<title>ip_output&#45;&gt;sr6_output</title>
<path fill="none" stroke="black" d="M908.6,-465.4C967.68,-414.63 1175.04,-245.72 1381.41,-189 1471.46,-164.25 1729.49,-129.72 1801.64,-189 1850.83,-229.41 1865.37,-431.92 1869.12,-507.5"/>
<polygon fill="black" stroke="black" points="1865.64,-507.87 1869.6,-517.69 1872.63,-507.54 1865.64,-507.87"/>
</g>
<!-- ip6_forward -->
<g id="node29" class="node">
<title>ip6_forward</title>
<ellipse fill="none" stroke="black" cx="1300.37" cy="-616" rx="35.64" ry="18"/>
<text text-anchor="middle" x="1300.37" y="-613.2" font-family="sans" font-size="11.00">ip6_forward</text>
</g>
<!-- ip6_output -->
<g id="node34" class="node">
<title>ip6_output</title>
<ellipse fill="none" stroke="black" cx="1741.14" cy="-563" rx="32.63" ry="18"/>
<text text-anchor="middle" x="1741.14" y="-560.2" font-family="sans" font-size="11.00">ip6_output</text>
</g>
<!-- ip6_forward&#45;&gt;ip6_output -->
<g id="edge52" class="edge">
<title>ip6_forward&#45;&gt;ip6_output</title>
<path fill="none" stroke="black" d="M1336.43,-618.05C1399.08,-620.9 1534.02,-623.36 1644.64,-600 1665.93,-595.51 1688.68,-586.86 1706.63,-579.05"/>
<polygon fill="black" stroke="black" points="1708.37,-582.11 1716.08,-574.83 1705.52,-575.72 1708.37,-582.11"/>
</g>
<!-- ip6_hold -->
<g id="node30" class="node">
<title>ip6_hold</title>
<polygon fill="none" stroke="dodgerblue" points="1901.29,-608 1841.29,-608 1841.29,-572 1901.29,-572 1901.29,-608"/>
<text text-anchor="middle" x="1871.29" y="-587.2" font-family="sans" font-size="11.00">ip6_hold</text>
</g>
<!-- ip6_input&#45;&gt;ip6_forward -->
<g id="edge53" class="edge">
<title>ip6_input&#45;&gt;ip6_forward</title>
<path fill="none" stroke="black" d="M1112.36,-551.97C1125.67,-562.22 1145.03,-575.74 1163.96,-584 1193.22,-596.76 1228.34,-604.87 1255.48,-609.73"/>
<polygon fill="black" stroke="black" points="1255.02,-613.21 1265.47,-611.44 1256.2,-606.31 1255.02,-613.21"/>
</g>
<!-- ip6_input_local -->
<g id="node33" class="node">
<title>ip6_input_local</title>
<ellipse fill="none" stroke="black" cx="1300.37" cy="-432" rx="45.09" ry="18"/>
<text text-anchor="middle" x="1300.37" y="-429.2" font-family="sans" font-size="11.00">ip6_input_local</text>
</g>
<!-- ip6_input&#45;&gt;ip6_input_local -->
<g id="edge55" class="edge">
<title>ip6_input&#45;&gt;ip6_input_local</title>
<path fill="none" stroke="black" d="M1116.77,-526.86C1151.56,-508.78 1220.68,-472.87 1263.19,-450.79"/>
<polygon fill="black" stroke="black" points="1264.83,-453.89 1272.09,-446.17 1261.6,-447.67 1264.83,-453.89"/>
</g>
<!-- ip6_input&#45;&gt;ip6_output -->
<g id="edge54" class="edge">
<title>ip6_input&#45;&gt;ip6_output</title>
<path fill="none" stroke="black" d="M1122.58,-540.47C1190.75,-546.5 1374.12,-561.86 1527.41,-567 1579.49,-568.75 1592.55,-568.09 1644.64,-567 1662.23,-566.63 1681.62,-565.88 1698.32,-565.13"/>
<polygon fill="black" stroke="black" points="1698.49,-568.63 1708.32,-564.67 1698.17,-561.63 1698.49,-568.63"/>
</g>
<!-- sr6_local -->
<g id="node39" class="node">
<title>sr6_local</title>
<ellipse fill="none" stroke="black" cx="1191.64" cy="-445" rx="27.86" ry="18"/>
<text text-anchor="middle" x="1191.64" y="-442.2" font-family="sans" font-size="11.00">sr6_local</text>
</g>
<!-- ip6_input&#45;&gt;sr6_local -->
<g id="edge56" class="edge">
<title>ip6_input&#45;&gt;sr6_local</title>
<path fill="none" stroke="black" d="M1107.39,-521.55C1121.59,-505.54 1145.59,-481.65 1164.18,-464.7"/>
<polygon fill="black" stroke="black" points="1166.66,-467.18 1171.78,-457.9 1161.99,-461.96 1166.66,-467.18"/>
</g>
<!-- ip6_loadbalance -->
<g id="node32" class="node">
<title>ip6_loadbalance</title>
<ellipse fill="none" stroke="black" cx="1586.03" cy="-540" rx="48.69" ry="18"/>
<text text-anchor="middle" x="1586.03" y="-537.2" font-family="sans" font-size="11.00">ip6_loadbalance</text>
</g>
<!-- ip6_loadbalance&#45;&gt;ip6_output -->
<g id="edge57" class="edge">
<title>ip6_loadbalance&#45;&gt;ip6_output</title>
<path fill="none" stroke="black" d="M1635.05,-540.9C1657.11,-543.51 1682.86,-547.53 1703.34,-551.61"/>
<polygon fill="black" stroke="black" points="1702.73,-555.05 1713.23,-553.67 1704.16,-548.2 1702.73,-555.05"/>
</g>
<!-- ip6_input_local&#45;&gt;ospf_redirect -->
<g id="edge60" class="edge">
<title>ip6_input_local&#45;&gt;ospf_redirect</title>
<path fill="none" stroke="black" d="M1304.88,-413.99C1313.48,-372.36 1338.16,-267.1 1381.41,-189 1389.61,-174.19 1401.39,-159.53 1411.85,-147.89"/>
<polygon fill="black" stroke="black" points="1414.61,-150.06 1418.83,-140.35 1409.47,-145.31 1414.61,-150.06"/>
</g>
<!-- icmp6_input -->
<g id="node44" class="node">
<title>icmp6_input</title>
<polygon fill="none" stroke="dodgerblue" points="1476.91,-450 1395.91,-450 1395.91,-414 1476.91,-414 1476.91,-450"/>
<text text-anchor="middle" x="1436.41" y="-429.2" font-family="sans" font-size="11.00">icmp6_input</text>
</g>
<!-- ip6_input_local&#45;&gt;icmp6_input -->
<g id="edge58" class="edge">
<title>ip6_input_local&#45;&gt;icmp6_input</title>
<path fill="none" stroke="black" d="M1345.63,-432C1358.39,-432 1372.39,-432 1385.47,-432"/>
<polygon fill="black" stroke="black" points="1385.71,-435.5 1395.71,-432 1385.71,-428.5 1385.71,-435.5"/>
</g>
<!-- ip6_input_local&#45;&gt;l4_input_local -->
<g id="edge59" class="edge">
<title>ip6_input_local&#45;&gt;l4_input_local</title>
<path fill="none" stroke="black" d="M1304.68,-413.83C1312.19,-377.23 1333.73,-293.79 1381.41,-243 1385.27,-238.89 1389.89,-235.32 1394.78,-232.24"/>
<polygon fill="black" stroke="black" points="1396.74,-235.15 1403.76,-227.21 1393.33,-229.04 1396.74,-235.15"/>
</g>
<!-- ip6_output&#45;&gt;eth_output -->
<g id="edge61" class="edge">
<title>ip6_output&#45;&gt;eth_output</title>
<path fill="none" stroke="black" d="M1751.98,-579.97C1774.25,-618.37 1828.59,-712.08 1855.16,-757.91"/>
<polygon fill="black" stroke="black" points="1852.19,-759.77 1860.24,-766.66 1858.25,-756.26 1852.19,-759.77"/>
</g>
<!-- ip6_output&#45;&gt;xvrf -->
<g id="edge63" class="edge">
<title>ip6_output&#45;&gt;xvrf</title>
<path fill="none" stroke="black" d="M1721.08,-577.37C1702.52,-590.66 1673.03,-609.97 1644.64,-621 1557.13,-655 1531.3,-662 1437.41,-662 1190.64,-662 1190.64,-662 1190.64,-662 1126.68,-662 1057.53,-629.11 1019.88,-608.1"/>
<polygon fill="black" stroke="black" points="1021.43,-604.96 1011,-603.04 1017.96,-611.04 1021.43,-604.96"/>
</g>
<!-- ip6_output&#45;&gt;ip6_hold -->
<g id="edge62" class="edge">
<title>ip6_output&#45;&gt;ip6_hold</title>
<path fill="none" stroke="black" d="M1771.86,-569.26C1789.54,-572.99 1812.16,-577.75 1831.26,-581.78"/>
<polygon fill="black" stroke="black" points="1830.66,-585.23 1841.17,-583.86 1832.11,-578.38 1830.66,-585.23"/>
</g>
<!-- ip6_output&#45;&gt;ip6_loadbalance -->
<g id="edge64" class="edge">
<title>ip6_output&#45;&gt;ip6_loadbalance</title>
<path fill="none" stroke="black" d="M1708.59,-563.84C1687.11,-561.89 1658.31,-557.79 1634.14,-553.36"/>
<polygon fill="black" stroke="black" points="1634.57,-549.88 1624.09,-551.45 1633.26,-556.76 1634.57,-549.88"/>
</g>
<!-- ip6_output&#45;&gt;sr6_output -->
<g id="edge65" class="edge">
<title>ip6_output&#45;&gt;sr6_output</title>
<path fill="none" stroke="black" d="M1767.46,-552.16C1784.73,-547.25 1808.01,-542.04 1828.06,-538.51"/>
<polygon fill="black" stroke="black" points="1828.9,-541.92 1838.19,-536.82 1827.75,-535.01 1828.9,-541.92"/>
</g>
<!-- ipip_input&#45;&gt;ip_input -->
<g id="edge68" class="edge">
<title>ipip_input&#45;&gt;ip_input</title>
<path fill="none" stroke="black" d="M621.57,-119.66C548.12,-148.75 333.95,-233.81 328,-239 298.34,-264.89 278.28,-306.55 267.49,-333.85"/>
<polygon fill="black" stroke="black" points="264.21,-332.61 263.93,-343.21 270.76,-335.1 264.21,-332.61"/>
</g>
<!-- ipip_output&#45;&gt;ip_output -->
<g id="edge69" class="edge">
<title>ipip_output&#45;&gt;ip_output</title>
<path fill="none" stroke="black" d="M958.38,-486.34C948.98,-486.8 938.57,-486.87 928.84,-486.57"/>
<polygon fill="black" stroke="black" points="928.77,-483.06 918.62,-486.09 928.44,-490.05 928.77,-483.06"/>
</g>
<!-- dnat44_dynamic&#45;&gt;ip_forward -->
<g id="edge74" class="edge">
<title>dnat44_dynamic&#45;&gt;ip_forward</title>
<path fill="none" stroke="black" d="M431.58,-394.65C446.15,-396.75 462.14,-399.05 476.32,-401.1"/>
<polygon fill="black" stroke="black" points="475.89,-404.57 486.29,-402.53 476.89,-397.64 475.89,-404.57"/>
</g>
<!-- dnat44_dynamic&#45;&gt;ip_input_local -->
<g id="edge75" class="edge">
<title>dnat44_dynamic&#45;&gt;ip_input_local</title>
<path fill="none" stroke="black" d="M419.62,-375.05C427.16,-371.23 434.75,-366.55 441,-361 470.1,-335.12 492.43,-295.59 505.19,-269.28"/>
<polygon fill="black" stroke="black" points="508.51,-270.44 509.61,-259.9 502.18,-267.45 508.51,-270.44"/>
</g>
<!-- dnat44_static&#45;&gt;ip_forward -->
<g id="edge76" class="edge">
<title>dnat44_static&#45;&gt;ip_forward</title>
<path fill="none" stroke="black" d="M413.7,-347.11C422.53,-351.38 432.24,-356.24 441,-361 456.6,-369.48 473.55,-379.61 487.49,-388.2"/>
<polygon fill="black" stroke="black" points="485.84,-391.29 496.18,-393.59 489.53,-385.34 485.84,-391.29"/>
</g>
<!-- dnat44_static&#45;&gt;ip_input_local -->
<g id="edge77" class="edge">
<title>dnat44_static&#45;&gt;ip_input_local</title>
<path fill="none" stroke="black" d="M407.26,-318.81C429,-303.63 462.6,-280.16 486.95,-263.16"/>
<polygon fill="black" stroke="black" points="489.26,-265.81 495.46,-257.21 485.26,-260.07 489.26,-265.81"/>
</g>
<!-- sr6_local&#45;&gt;ip_input -->
<g id="edge78" class="edge">
<title>sr6_local&#45;&gt;ip_input</title>
<path fill="none" stroke="black" d="M1180.45,-428.2C1154.44,-387.7 1081.29,-288 991.48,-288 517.25,-288 517.25,-288 517.25,-288 432.71,-288 406.55,-275.76 328,-307 309.93,-314.19 292.6,-327.49 279.7,-339.09"/>
<polygon fill="black" stroke="black" points="277.2,-336.64 272.28,-346.02 281.98,-341.76 277.2,-336.64"/>
</g>
<!-- sr6_local&#45;&gt;ip6_input -->
<g id="edge79" class="edge">
<title>sr6_local&#45;&gt;ip6_input</title>
<path fill="none" stroke="black" d="M1178.77,-461.22C1164.6,-477.23 1140.46,-501.27 1121.78,-518.3"/>
<polygon fill="black" stroke="black" points="1119.27,-515.85 1114.15,-525.13 1123.93,-521.07 1119.27,-515.85"/>
</g>
<!-- sr6_local&#45;&gt;ip6_input_local -->
<g id="edge80" class="edge">
<title>sr6_local&#45;&gt;ip6_input_local</title>
<path fill="none" stroke="black" d="M1219.02,-441.79C1227.55,-440.75 1237.31,-439.56 1247.03,-438.37"/>
<polygon fill="black" stroke="black" points="1247.59,-441.83 1257.09,-437.15 1246.74,-434.88 1247.59,-441.83"/>
</g>
<!-- sr6_output&#45;&gt;ip6_output -->
<g id="edge81" class="edge">
<title>sr6_output&#45;&gt;ip6_output</title>
<path fill="none" stroke="black" d="M1844.57,-546.95C1827.21,-551.87 1803.91,-557.06 1783.92,-560.57"/>
<polygon fill="black" stroke="black" points="1783.11,-557.16 1773.82,-562.24 1784.26,-564.06 1783.11,-557.16"/>
</g>
<!-- icmp_output -->
<g id="node43" class="node">
<title>icmp_output</title>
<ellipse fill="none" stroke="black" cx="780.08" cy="-372" rx="37.98" ry="18"/>
<text text-anchor="middle" x="780.08" y="-369.2" font-family="sans" font-size="11.00">icmp_output</text>
</g>
<!-- icmp_input&#45;&gt;icmp_output -->
<g id="edge24" class="edge">
<title>icmp_input&#45;&gt;icmp_output</title>
<path fill="none" stroke="black" d="M680.73,-372C696.06,-372 714.6,-372 731.44,-372"/>
<polygon fill="black" stroke="black" points="731.66,-375.5 741.66,-372 731.66,-368.5 731.66,-375.5"/>
</g>
<!-- icmp_local_send -->
<g id="node42" class="node">
<title>icmp_local_send</title>
<polygon fill="none" stroke="dodgerblue" points="698.49,-444 595.49,-444 595.49,-408 698.49,-408 698.49,-444"/>
<text text-anchor="middle" x="646.99" y="-423.2" font-family="sans" font-size="11.00">icmp_local_send</text>
</g>
<!-- icmp_local_send&#45;&gt;icmp_output -->
<g id="edge25" class="edge">
<title>icmp_local_send&#45;&gt;icmp_output</title>
<path fill="none" stroke="dodgerblue" d="M692.01,-407.87C707.87,-401.33 725.63,-394.02 740.95,-387.71"/>
<polygon fill="dodgerblue" stroke="dodgerblue" points="742.71,-390.77 750.62,-383.72 740.04,-384.3 742.71,-390.77"/>
</g>
<!-- icmp_output&#45;&gt;ip_output -->
<g id="edge26" class="edge">
<title>icmp_output&#45;&gt;ip_output</title>
<path fill="none" stroke="black" d="M806.23,-385.1C812.88,-389.12 819.83,-393.86 825.67,-399 844.37,-415.47 861.7,-437.9 873.64,-454.97"/>
<polygon fill="black" stroke="black" points="870.84,-457.08 879.38,-463.36 876.62,-453.13 870.84,-457.08"/>
</g>
<!-- icmp6_output -->
<g id="node46" class="node">
<title>icmp6_output</title>
<ellipse fill="none" stroke="black" cx="1586.03" cy="-324" rx="41.58" ry="18"/>
<text text-anchor="middle" x="1586.03" y="-321.2" font-family="sans" font-size="11.00">icmp6_output</text>
</g>
<!-- icmp6_input&#45;&gt;icmp6_output -->
<g id="edge46" class="edge">
<title>icmp6_input&#45;&gt;icmp6_output</title>
<path fill="none" stroke="dodgerblue" d="M1477.01,-415.26C1482.13,-412.24 1487.09,-408.82 1491.41,-405 1513.04,-385.91 1505.55,-369.81 1527.41,-351 1532.3,-346.79 1537.96,-343.1 1543.78,-339.9"/>
<polygon fill="dodgerblue" stroke="dodgerblue" points="1545.61,-342.9 1552.98,-335.29 1542.47,-336.65 1545.61,-342.9"/>
</g>
<!-- ndp_na_input -->
<g id="node47" class="node">
<title>ndp_na_input</title>
<polygon fill="none" stroke="dodgerblue" points="1629.53,-450 1542.53,-450 1542.53,-414 1629.53,-414 1629.53,-450"/>
<text text-anchor="middle" x="1586.03" y="-429.2" font-family="sans" font-size="11.00">ndp_na_input</text>
</g>
<!-- icmp6_input&#45;&gt;ndp_na_input -->
<g id="edge48" class="edge">
<title>icmp6_input&#45;&gt;ndp_na_input</title>
<path fill="none" stroke="dodgerblue" d="M1476.97,-432C1493.97,-432 1514.08,-432 1532.32,-432"/>
<polygon fill="dodgerblue" stroke="dodgerblue" points="1532.51,-435.5 1542.51,-432 1532.51,-428.5 1532.51,-435.5"/>
</g>
<!-- ndp_ns_input -->
<g id="node49" class="node">
<title>ndp_ns_input</title>
<polygon fill="none" stroke="dodgerblue" points="1629.03,-396 1543.03,-396 1543.03,-360 1629.03,-360 1629.03,-396"/>
<text text-anchor="middle" x="1586.03" y="-375.2" font-family="sans" font-size="11.00">ndp_ns_input</text>
</g>
<!-- icmp6_input&#45;&gt;ndp_ns_input -->
<g id="edge47" class="edge">
<title>icmp6_input&#45;&gt;ndp_ns_input</title>
<path fill="none" stroke="dodgerblue" d="M1476.97,-417.53C1494.28,-411.2 1514.82,-403.68 1533.31,-396.92"/>
<polygon fill="dodgerblue" stroke="dodgerblue" points="1534.58,-400.18 1542.77,-393.46 1532.18,-393.61 1534.58,-400.18"/>
</g>
<!-- ndp_rs_input -->
<g id="node51" class="node">
<title>ndp_rs_input</title>
<polygon fill="none" stroke="dodgerblue" points="1628.03,-504 1544.03,-504 1544.03,-468 1628.03,-468 1628.03,-504"/>
<text text-anchor="middle" x="1586.03" y="-483.2" font-family="sans" font-size="11.00">ndp_rs_input</text>
</g>
<!-- icmp6_input&#45;&gt;ndp_rs_input -->
<g id="edge49" class="edge">
<title>icmp6_input&#45;&gt;ndp_rs_input</title>
<path fill="none" stroke="dodgerblue" d="M1476.97,-446.47C1494.57,-452.91 1515.51,-460.57 1534.25,-467.42"/>
<polygon fill="dodgerblue" stroke="dodgerblue" points="1533.22,-470.77 1543.81,-470.92 1535.62,-464.2 1533.22,-470.77"/>
</g>
<!-- icmp6_local_send -->
<g id="node45" class="node">
<title>icmp6_local_send</title>
<polygon fill="none" stroke="dodgerblue" points="1491.41,-342 1381.41,-342 1381.41,-306 1491.41,-306 1491.41,-342"/>
<text text-anchor="middle" x="1436.41" y="-321.2" font-family="sans" font-size="11.00">icmp6_local_send</text>
</g>
<!-- icmp6_local_send&#45;&gt;icmp6_output -->
<g id="edge50" class="edge">
<title>icmp6_local_send&#45;&gt;icmp6_output</title>
<path fill="none" stroke="dodgerblue" d="M1491.54,-324C1505.31,-324 1520.07,-324 1533.69,-324"/>
<polygon fill="dodgerblue" stroke="dodgerblue" points="1533.86,-327.5 1543.86,-324 1533.86,-320.5 1533.86,-327.5"/>
</g>
<!-- icmp6_output&#45;&gt;ip6_output -->
<g id="edge51" class="edge">
<title>icmp6_output&#45;&gt;ip6_output</title>
<path fill="none" stroke="black" d="M1620.08,-334.68C1628.88,-338.72 1637.82,-344.08 1644.64,-351 1696.96,-404.11 1723.5,-490.93 1734.22,-535.18"/>
<polygon fill="black" stroke="black" points="1730.82,-536.02 1736.5,-544.96 1737.64,-534.43 1730.82,-536.02"/>
</g>
<!-- ndp_na_output -->
<g id="node48" class="node">
<title>ndp_na_output</title>
<polygon fill="none" stroke="dodgerblue" points="1483.91,-288 1388.91,-288 1388.91,-252 1483.91,-252 1483.91,-288"/>
<text text-anchor="middle" x="1436.41" y="-267.2" font-family="sans" font-size="11.00">ndp_na_output</text>
</g>
<!-- ndp_na_output&#45;&gt;icmp6_output -->
<g id="edge66" class="edge">
<title>ndp_na_output&#45;&gt;icmp6_output</title>
<path fill="none" stroke="dodgerblue" d="M1484.12,-287.09C1503.31,-294.11 1525.33,-302.16 1543.9,-308.96"/>
<polygon fill="dodgerblue" stroke="dodgerblue" points="1542.95,-312.33 1553.54,-312.48 1545.35,-305.76 1542.95,-312.33"/>
</g>
<!-- ndp_ns_output -->
<g id="node50" class="node">
<title>ndp_ns_output</title>
<polygon fill="none" stroke="dodgerblue" points="1483.41,-396 1389.41,-396 1389.41,-360 1483.41,-360 1483.41,-396"/>
<text text-anchor="middle" x="1436.41" y="-375.2" font-family="sans" font-size="11.00">ndp_ns_output</text>
</g>
<!-- ndp_ns_output&#45;&gt;icmp6_output -->
<g id="edge67" class="edge">
<title>ndp_ns_output&#45;&gt;icmp6_output</title>
<path fill="none" stroke="dodgerblue" d="M1483.71,-361.06C1503.01,-354 1525.23,-345.87 1543.94,-339.03"/>
<polygon fill="dodgerblue" stroke="dodgerblue" points="1545.18,-342.3 1553.37,-335.58 1542.78,-335.73 1545.18,-342.3"/>
</g>
<!-- l4_loopback_output -->
<g id="node53" class="node">
<title>l4_loopback_output</title>
<ellipse fill="none" stroke="black" cx="1586.03" cy="-216" rx="58.73" ry="18"/>
<text text-anchor="middle" x="1586.03" y="-213.2" font-family="sans" font-size="11.00">l4_loopback_output</text>
</g>
<!-- l4_input_local&#45;&gt;l4_loopback_output -->
<g id="edge70" class="edge">
<title>l4_input_local&#45;&gt;l4_loopback_output</title>
<path fill="none" stroke="black" d="M1477.75,-216C1489.93,-216 1503.64,-216 1517.1,-216"/>
<polygon fill="black" stroke="black" points="1517.31,-219.5 1527.31,-216 1517.31,-212.5 1517.31,-219.5"/>
</g>
<!-- dhcp_input -->
<g id="node54" class="node">
<title>dhcp_input</title>
<polygon fill="none" stroke="dodgerblue" points="1623.03,-288 1549.03,-288 1549.03,-252 1623.03,-252 1623.03,-288"/>
<text text-anchor="middle" x="1586.03" y="-267.2" font-family="sans" font-size="11.00">dhcp_input</text>
</g>
<!-- l4_input_local&#45;&gt;dhcp_input -->
<g id="edge71" class="edge">
<title>l4_input_local&#45;&gt;dhcp_input</title>
<path fill="none" stroke="black" d="M1468.72,-227.45C1489.23,-234.96 1516.39,-244.89 1539.3,-253.27"/>
<polygon fill="black" stroke="black" points="1538.23,-256.61 1548.83,-256.76 1540.64,-250.04 1538.23,-256.61"/>
</g>
<!-- l4_loopback_output&#45;&gt;loopback_output -->
<g id="edge72" class="edge">
<title>l4_loopback_output&#45;&gt;loopback_output</title>
<path fill="none" stroke="black" d="M1644.91,-216C1655.69,-216 1667,-216 1677.91,-216"/>
<polygon fill="black" stroke="black" points="1678.21,-219.5 1688.21,-216 1678.21,-212.5 1678.21,-219.5"/>
</g>
</g>
</svg>
