<?xml version="1.0" encoding="UTF-8" standalone="no"?>
<!DOCTYPE svg PUBLIC "-//W3C//DTD SVG 1.1//EN"
 "http://www.w3.org/Graphics/SVG/1.1/DTD/svg11.dtd">
<!-- Generated by graphviz version 12.1.0 (20240811.2233)
 -->
<!-- Title: gr&#45;0003 Pages: 1 -->
<svg width="1252pt" height="853pt"
 viewBox="0.00 0.00 1251.56 853.00" xmlns="http://www.w3.org/2000/svg" xmlns:xlink="http://www.w3.org/1999/xlink">
<g id="graph0" class="graph" transform="scale(1 1) rotate(0) translate(4 849)">
<title>gr&#45;0003</title>
<polygon fill="white" stroke="none" points="-4,4 -4,-849 1247.56,-849 1247.56,4 -4,4"/>
<!-- control_input -->
<g id="node1" class="node">
<title>control_input</title>
<ellipse fill="none" stroke="blue" stroke-width="2" cx="41.62" cy="-588" rx="41.62" ry="18"/>
<text text-anchor="middle" x="41.62" y="-584.3" font-family="sans" font-size="11.00">control_input</text>
</g>
<!-- loopback_input -->
<g id="node2" class="node">
<title>loopback_input</title>
<ellipse fill="none" stroke="black" cx="166.76" cy="-511" rx="47.52" ry="18"/>
<text text-anchor="middle" x="166.76" y="-507.3" font-family="sans" font-size="11.00">loopback_input</text>
</g>
<!-- control_input&#45;&gt;loopback_input -->
<g id="edge1" class="edge">
<title>control_input&#45;&gt;loopback_input</title>
<path fill="none" stroke="blue" stroke-width="2" d="M66.37,-573.15C84.87,-561.59 110.8,-545.37 131.54,-532.4"/>
<polygon fill="blue" stroke="blue" stroke-width="2" points="132.06,-536.2 138.69,-527.93 128.35,-530.27 132.06,-536.2"/>
</g>
<!-- arp_output_request -->
<g id="node3" class="node">
<title>arp_output_request</title>
<ellipse fill="none" stroke="black" cx="311.7" cy="-827" rx="61.42" ry="18"/>
<text text-anchor="middle" x="311.7" y="-823.3" font-family="sans" font-size="11.00">arp_output_request</text>
</g>
<!-- control_input&#45;&gt;arp_output_request -->
<g id="edge2" class="edge">
<title>control_input&#45;&gt;arp_output_request</title>
<path fill="none" stroke="blue" stroke-width="2" d="M43.54,-606.37C46.64,-647.29 60.18,-746.16 119.25,-795 152.69,-822.66 200.94,-830.59 240.63,-831.64"/>
<polygon fill="blue" stroke="blue" stroke-width="2" points="239.05,-835.12 249.09,-831.73 239.13,-828.12 239.05,-835.12"/>
</g>
<!-- icmp_local_send -->
<g id="node4" class="node">
<title>icmp_local_send</title>
<ellipse fill="none" stroke="black" cx="311.7" cy="-735" rx="51.31" ry="18"/>
<text text-anchor="middle" x="311.7" y="-731.3" font-family="sans" font-size="11.00">icmp_local_send</text>
</g>
<!-- control_input&#45;&gt;icmp_local_send -->
<g id="edge3" class="edge">
<title>control_input&#45;&gt;icmp_local_send</title>
<path fill="none" stroke="blue" stroke-width="2" d="M68.11,-602.32C107.2,-624.22 184.33,-667.28 250.28,-703 257.31,-706.8 264.81,-710.82 272.06,-714.67"/>
<polygon fill="blue" stroke="blue" stroke-width="2" points="268.91,-716.96 279.38,-718.55 272.19,-710.78 268.91,-716.96"/>
</g>
<!-- ndp_ns_output -->
<g id="node5" class="node">
<title>ndp_ns_output</title>
<ellipse fill="none" stroke="black" cx="166.76" cy="-217" rx="46.26" ry="18"/>
<text text-anchor="middle" x="166.76" y="-213.3" font-family="sans" font-size="11.00">ndp_ns_output</text>
</g>
<!-- control_input&#45;&gt;ndp_ns_output -->
<g id="edge4" class="edge">
<title>control_input&#45;&gt;ndp_ns_output</title>
<path fill="none" stroke="blue" stroke-width="2" d="M42.27,-569.65C42.12,-515.59 48.03,-354.17 119.25,-249 121.91,-245.07 125.22,-241.49 128.85,-238.26"/>
<polygon fill="blue" stroke="blue" stroke-width="2" points="129.59,-242.12 135.33,-233.22 125.29,-236.59 129.59,-242.12"/>
</g>
<!-- ip_output -->
<g id="node6" class="node">
<title>ip_output</title>
<ellipse fill="none" stroke="black" cx="921.34" cy="-689" rx="30.25" ry="18"/>
<text text-anchor="middle" x="921.34" y="-685.3" font-family="sans" font-size="11.00">ip_output</text>
</g>
<!-- control_input&#45;&gt;ip_output -->
<g id="edge5" class="edge">
<title>control_input&#45;&gt;ip_output</title>
<path fill="none" stroke="blue" stroke-width="2" d="M54.54,-605.47C88.5,-652.98 191.13,-781 310.7,-781 310.7,-781 310.7,-781 611.41,-781 715.81,-781 832.11,-732.14 887.52,-705.63"/>
<polygon fill="blue" stroke="blue" stroke-width="2" points="887.59,-709.5 895.05,-701.98 884.53,-703.2 887.59,-709.5"/>
</g>
<!-- ip6_output -->
<g id="node7" class="node">
<title>ip6_output</title>
<ellipse fill="none" stroke="black" cx="921.34" cy="-263" rx="34.04" ry="18"/>
<text text-anchor="middle" x="921.34" y="-259.3" font-family="sans" font-size="11.00">ip6_output</text>
</g>
<!-- control_input&#45;&gt;ip6_output -->
<g id="edge6" class="edge">
<title>control_input&#45;&gt;ip6_output</title>
<path fill="none" stroke="blue" stroke-width="2" d="M47.63,-570.06C67.84,-501.93 150.15,-263 310.7,-263 310.7,-263 310.7,-263 611.41,-263 705.44,-263 815.56,-263 875.64,-263"/>
<polygon fill="blue" stroke="blue" stroke-width="2" points="873.94,-266.5 883.94,-263 873.94,-259.5 873.94,-266.5"/>
</g>
<!-- loopback_input&#45;&gt;ip_output -->
<g id="edge12" class="edge">
<title>loopback_input&#45;&gt;ip_output</title>
<path fill="none" stroke="black" d="M185.26,-527.88C222.65,-562.67 314.64,-641.66 409.11,-672 496.22,-699.98 774.32,-693.93 879.5,-690.51"/>
<polygon fill="black" stroke="black" points="879.49,-694.01 889.36,-690.17 879.25,-687.01 879.49,-694.01"/>
</g>
<!-- loopback_input&#45;&gt;ip6_output -->
<g id="edge14" class="edge">
<title>loopback_input&#45;&gt;ip6_output</title>
<path fill="none" stroke="black" d="M176.02,-493.25C188.72,-467.62 215.31,-420.12 250.28,-391 326.59,-327.45 355.49,-301 454.79,-301 454.79,-301 454.79,-301 611.41,-301 707.41,-301 818.94,-282.7 878.22,-271.5"/>
<polygon fill="black" stroke="black" points="878.71,-274.97 887.87,-269.65 877.39,-268.09 878.71,-274.97"/>
</g>
<!-- ip_input_local -->
<g id="node15" class="node">
<title>ip_input_local</title>
<ellipse fill="none" stroke="black" cx="311.7" cy="-511" rx="42.89" ry="18"/>
<text text-anchor="middle" x="311.7" y="-507.3" font-family="sans" font-size="11.00">ip_input_local</text>
</g>
<!-- loopback_input&#45;&gt;ip_input_local -->
<g id="edge11" class="edge">
<title>loopback_input&#45;&gt;ip_input_local</title>
<path fill="none" stroke="black" d="M214.57,-511C228.18,-511 243.15,-511 257.14,-511"/>
<polygon fill="black" stroke="black" points="257.1,-514.5 267.1,-511 257.1,-507.5 257.1,-514.5"/>
</g>
<!-- ip6_input_local -->
<g id="node16" class="node">
<title>ip6_input_local</title>
<ellipse fill="none" stroke="black" cx="455.79" cy="-347" rx="46.68" ry="18"/>
<text text-anchor="middle" x="455.79" y="-343.3" font-family="sans" font-size="11.00">ip6_input_local</text>
</g>
<!-- loopback_input&#45;&gt;ip6_input_local -->
<g id="edge13" class="edge">
<title>loopback_input&#45;&gt;ip6_input_local</title>
<path fill="none" stroke="black" d="M194.25,-495.87C245.97,-466.32 360.41,-400.93 418.88,-367.52"/>
<polygon fill="black" stroke="black" points="420.52,-370.61 427.47,-362.61 417.05,-364.53 420.52,-370.61"/>
</g>
<!-- eth_output -->
<g id="node13" class="node">
<title>eth_output</title>
<ellipse fill="none" stroke="black" cx="1062.9" cy="-686" rx="34.89" ry="18"/>
<text text-anchor="middle" x="1062.9" y="-682.3" font-family="sans" font-size="11.00">eth_output</text>
</g>
<!-- arp_output_request&#45;&gt;eth_output -->
<g id="edge23" class="edge">
<title>arp_output_request&#45;&gt;eth_output</title>
<path fill="none" stroke="black" d="M373.22,-825.71C433.18,-824.54 527.63,-823 609.41,-823 609.41,-823 609.41,-823 776.14,-823 789.8,-823 954.45,-740.44 1027.44,-703.5"/>
<polygon fill="black" stroke="black" points="1028.83,-706.72 1036.17,-699.08 1025.67,-700.48 1028.83,-706.72"/>
</g>
<!-- icmp_output -->
<g id="node23" class="node">
<title>icmp_output</title>
<ellipse fill="none" stroke="black" cx="610.41" cy="-735" rx="39.52" ry="18"/>
<text text-anchor="middle" x="610.41" y="-731.3" font-family="sans" font-size="11.00">icmp_output</text>
</g>
<!-- icmp_local_send&#45;&gt;icmp_output -->
<g id="edge26" class="edge">
<title>icmp_local_send&#45;&gt;icmp_output</title>
<path fill="none" stroke="black" d="M363.37,-735C418.11,-735 504.8,-735 559.31,-735"/>
<polygon fill="black" stroke="black" points="559.26,-738.5 569.26,-735 559.26,-731.5 559.26,-738.5"/>
</g>
<!-- ndp_ns_output&#45;&gt;ip6_output -->
<g id="edge59" class="edge">
<title>ndp_ns_output&#45;&gt;ip6_output</title>
<path fill="none" stroke="black" d="M212.99,-219.04C269.54,-221.41 369.3,-225 454.79,-225 454.79,-225 454.79,-225 611.41,-225 707.41,-225 818.94,-243.3 878.22,-254.5"/>
<polygon fill="black" stroke="black" points="877.39,-257.91 887.87,-256.35 878.71,-251.03 877.39,-257.91"/>
</g>
<!-- ip_output&#45;&gt;eth_output -->
<g id="edge37" class="edge">
<title>ip_output&#45;&gt;eth_output</title>
<path fill="none" stroke="black" d="M951.93,-688.36C970.63,-687.96 995.18,-687.43 1016.33,-686.98"/>
<polygon fill="black" stroke="black" points="1016.24,-690.48 1026.16,-686.77 1016.09,-683.48 1016.24,-690.48"/>
</g>
<!-- loopback_output -->
<g id="node17" class="node">
<title>loopback_output</title>
<ellipse fill="none" stroke="black" cx="1062.9" cy="-439" rx="52.15" ry="18"/>
<text text-anchor="middle" x="1062.9" y="-435.3" font-family="sans" font-size="11.00">loopback_output</text>
</g>
<!-- ip_output&#45;&gt;loopback_output -->
<g id="edge39" class="edge">
<title>ip_output&#45;&gt;loopback_output</title>
<path fill="none" stroke="black" d="M931.93,-671.82C955.67,-629.3 1017.32,-518.85 1046.35,-466.85"/>
<polygon fill="black" stroke="black" points="1049.31,-468.73 1051.13,-458.29 1043.2,-465.32 1049.31,-468.73"/>
</g>
<!-- ip_hold -->
<g id="node25" class="node">
<title>ip_hold</title>
<ellipse fill="none" stroke="black" cx="1062.9" cy="-632" rx="27" ry="18"/>
<text text-anchor="middle" x="1062.9" y="-628.3" font-family="sans" font-size="11.00">ip_hold</text>
</g>
<!-- ip_output&#45;&gt;ip_hold -->
<g id="edge38" class="edge">
<title>ip_output&#45;&gt;ip_hold</title>
<path fill="none" stroke="black" d="M946.97,-678.94C969.73,-669.64 1003.74,-655.75 1028.86,-645.49"/>
<polygon fill="black" stroke="black" points="1030.03,-648.8 1037.96,-641.78 1027.38,-642.32 1030.03,-648.8"/>
</g>
<!-- ipip_output -->
<g id="node30" class="node">
<title>ipip_output</title>
<ellipse fill="none" stroke="black" cx="1062.9" cy="-740" rx="35.73" ry="18"/>
<text text-anchor="middle" x="1062.9" y="-736.3" font-family="sans" font-size="11.00">ipip_output</text>
</g>
<!-- ip_output&#45;&gt;ipip_output -->
<g id="edge40" class="edge">
<title>ip_output&#45;&gt;ipip_output</title>
<path fill="none" stroke="black" d="M950.92,-693.87C973.46,-700.64 1004.95,-712.05 1028.62,-721.99"/>
<polygon fill="black" stroke="black" points="1026.94,-725.07 1037.51,-725.83 1029.72,-718.65 1026.94,-725.07"/>
</g>
<!-- ip6_output&#45;&gt;eth_output -->
<g id="edge53" class="edge">
<title>ip6_output&#45;&gt;eth_output</title>
<path fill="none" stroke="black" d="M929.76,-280.55C941.12,-308.07 962.75,-363.27 974.75,-412 1001.28,-519.72 946.75,-568.38 1010.75,-659 1014.07,-663.7 1018.46,-667.65 1023.28,-670.94"/>
<polygon fill="black" stroke="black" points="1021.2,-673.78 1031.61,-675.75 1024.7,-667.72 1021.2,-673.78"/>
</g>
<!-- ip6_output&#45;&gt;loopback_output -->
<g id="edge55" class="edge">
<title>ip6_output&#45;&gt;loopback_output</title>
<path fill="none" stroke="black" d="M935.47,-279.56C959.74,-310.17 1011.8,-375.82 1040.98,-412.62"/>
<polygon fill="black" stroke="black" points="1037.98,-414.47 1046.94,-420.13 1043.47,-410.12 1037.98,-414.47"/>
</g>
<!-- ip6_hold -->
<g id="node36" class="node">
<title>ip6_hold</title>
<ellipse fill="none" stroke="black" cx="1062.9" cy="-282" rx="27" ry="18"/>
<text text-anchor="middle" x="1062.9" y="-278.3" font-family="sans" font-size="11.00">ip6_hold</text>
</g>
<!-- ip6_output&#45;&gt;ip6_hold -->
<g id="edge54" class="edge">
<title>ip6_output&#45;&gt;ip6_hold</title>
<path fill="none" stroke="black" d="M954.71,-267.41C975.73,-270.27 1003.18,-274.01 1025.05,-276.98"/>
<polygon fill="black" stroke="black" points="1024.34,-280.42 1034.72,-278.3 1025.28,-273.48 1024.34,-280.42"/>
</g>
<!-- control_output -->
<g id="node8" class="node">
<title>control_output</title>
<ellipse fill="none" stroke="black" cx="1197.31" cy="-296" rx="46.26" ry="18"/>
<text text-anchor="middle" x="1197.31" y="-292.3" font-family="sans" font-size="11.00">control_output</text>
</g>
<!-- eth_input -->
<g id="node9" class="node">
<title>eth_input</title>
<ellipse fill="none" stroke="black" cx="166.76" cy="-141" rx="30.25" ry="18"/>
<text text-anchor="middle" x="166.76" y="-137.3" font-family="sans" font-size="11.00">eth_input</text>
</g>
<!-- arp_input -->
<g id="node10" class="node">
<title>arp_input</title>
<ellipse fill="none" stroke="black" cx="610.41" cy="-87" rx="30.25" ry="18"/>
<text text-anchor="middle" x="610.41" y="-83.3" font-family="sans" font-size="11.00">arp_input</text>
</g>
<!-- eth_input&#45;&gt;arp_input -->
<g id="edge7" class="edge">
<title>eth_input&#45;&gt;arp_input</title>
<path fill="none" stroke="black" d="M192.63,-131.12C208.79,-125.14 230.47,-117.93 250.28,-114 363.97,-91.47 501.32,-87.41 568.45,-86.89"/>
<polygon fill="black" stroke="black" points="568.26,-90.39 578.25,-86.84 568.23,-83.39 568.26,-90.39"/>
</g>
<!-- ip_input -->
<g id="node11" class="node">
<title>ip_input</title>
<ellipse fill="none" stroke="black" cx="610.41" cy="-540" rx="27" ry="18"/>
<text text-anchor="middle" x="610.41" y="-536.3" font-family="sans" font-size="11.00">ip_input</text>
</g>
<!-- eth_input&#45;&gt;ip_input -->
<g id="edge8" class="edge">
<title>eth_input&#45;&gt;ip_input</title>
<path fill="none" stroke="black" d="M182.54,-156.52C246.24,-223.3 496.03,-484.14 538.47,-512 549.49,-519.23 562.66,-525.07 574.65,-529.51"/>
<polygon fill="black" stroke="black" points="573.2,-532.71 583.8,-532.7 575.5,-526.1 573.2,-532.71"/>
</g>
<!-- ip6_input -->
<g id="node12" class="node">
<title>ip6_input</title>
<ellipse fill="none" stroke="black" cx="311.7" cy="-141" rx="29.41" ry="18"/>
<text text-anchor="middle" x="311.7" y="-137.3" font-family="sans" font-size="11.00">ip6_input</text>
</g>
<!-- eth_input&#45;&gt;ip6_input -->
<g id="edge9" class="edge">
<title>eth_input&#45;&gt;ip6_input</title>
<path fill="none" stroke="black" d="M197.38,-141C218.65,-141 247.54,-141 270.84,-141"/>
<polygon fill="black" stroke="black" points="270.58,-144.5 280.58,-141 270.58,-137.5 270.58,-144.5"/>
</g>
<!-- arp_input_request -->
<g id="node19" class="node">
<title>arp_input_request</title>
<ellipse fill="none" stroke="black" cx="775.14" cy="-347" rx="56.78" ry="18"/>
<text text-anchor="middle" x="775.14" y="-343.3" font-family="sans" font-size="11.00">arp_input_request</text>
</g>
<!-- arp_input&#45;&gt;arp_input_request -->
<g id="edge17" class="edge">
<title>arp_input&#45;&gt;arp_input_request</title>
<path fill="none" stroke="black" d="M639.63,-92.06C654,-95.93 670.83,-102.6 682.35,-114 712.38,-143.68 749.66,-262.4 765.92,-318"/>
<polygon fill="black" stroke="black" points="762.5,-318.76 768.64,-327.4 769.22,-316.82 762.5,-318.76"/>
</g>
<!-- arp_input_reply -->
<g id="node20" class="node">
<title>arp_input_reply</title>
<ellipse fill="none" stroke="black" cx="921.34" cy="-18" rx="48.78" ry="18"/>
<text text-anchor="middle" x="921.34" y="-14.3" font-family="sans" font-size="11.00">arp_input_reply</text>
</g>
<!-- arp_input&#45;&gt;arp_input_reply -->
<g id="edge18" class="edge">
<title>arp_input&#45;&gt;arp_input_reply</title>
<path fill="none" stroke="black" d="M633.67,-75.13C654.84,-64.41 687.88,-49.1 718.35,-41 765.33,-28.51 820.22,-22.81 860.92,-20.2"/>
<polygon fill="black" stroke="black" points="860.98,-23.7 870.75,-19.61 860.56,-16.71 860.98,-23.7"/>
</g>
<!-- ip_input&#45;&gt;ip_input_local -->
<g id="edge31" class="edge">
<title>ip_input&#45;&gt;ip_input_local</title>
<path fill="none" stroke="black" d="M588.55,-550.99C551.69,-568.92 472.93,-600.48 409.11,-580 381.66,-571.19 355.38,-551.36 337.22,-535.21"/>
<polygon fill="black" stroke="black" points="339.83,-532.86 330.09,-528.67 335.09,-538.01 339.83,-532.86"/>
</g>
<!-- ip_forward -->
<g id="node24" class="node">
<title>ip_forward</title>
<ellipse fill="none" stroke="black" cx="775.14" cy="-638" rx="33.62" ry="18"/>
<text text-anchor="middle" x="775.14" y="-634.3" font-family="sans" font-size="11.00">ip_forward</text>
</g>
<!-- ip_input&#45;&gt;ip_forward -->
<g id="edge30" class="edge">
<title>ip_input&#45;&gt;ip_forward</title>
<path fill="none" stroke="black" d="M631.04,-551.82C658.62,-568.43 709.15,-598.86 742.19,-618.76"/>
<polygon fill="black" stroke="black" points="740.17,-621.63 750.54,-623.79 743.78,-615.63 740.17,-621.63"/>
</g>
<!-- ip6_input&#45;&gt;ip6_input_local -->
<g id="edge48" class="edge">
<title>ip6_input&#45;&gt;ip6_input_local</title>
<path fill="none" stroke="black" d="M337.72,-149.9C349.63,-155.14 363.37,-162.77 373.11,-173 413.28,-215.15 436.63,-280.65 447.43,-318.11"/>
<polygon fill="black" stroke="black" points="443.94,-318.62 449.98,-327.32 450.69,-316.75 443.94,-318.62"/>
</g>
<!-- ip6_forward -->
<g id="node35" class="node">
<title>ip6_forward</title>
<ellipse fill="none" stroke="black" cx="455.79" cy="-160" rx="37.41" ry="18"/>
<text text-anchor="middle" x="455.79" y="-156.3" font-family="sans" font-size="11.00">ip6_forward</text>
</g>
<!-- ip6_input&#45;&gt;ip6_forward -->
<g id="edge47" class="edge">
<title>ip6_input&#45;&gt;ip6_forward</title>
<path fill="none" stroke="black" d="M340.77,-144.75C359.92,-147.31 385.74,-150.77 407.96,-153.74"/>
<polygon fill="black" stroke="black" points="407.33,-157.18 417.7,-155.04 408.25,-150.25 407.33,-157.18"/>
</g>
<!-- port_tx -->
<g id="node14" class="node">
<title>port_tx</title>
<ellipse fill="none" stroke="black" cx="1197.31" cy="-686" rx="27" ry="18"/>
<text text-anchor="middle" x="1197.31" y="-682.3" font-family="sans" font-size="11.00">port_tx</text>
</g>
<!-- eth_output&#45;&gt;port_tx -->
<g id="edge10" class="edge">
<title>eth_output&#45;&gt;port_tx</title>
<path fill="none" stroke="black" d="M1098,-686C1116.53,-686 1139.48,-686 1158.55,-686"/>
<polygon fill="black" stroke="black" points="1158.33,-689.5 1168.33,-686 1158.33,-682.5 1158.33,-689.5"/>
</g>
<!-- icmp_input -->
<g id="node22" class="node">
<title>icmp_input</title>
<ellipse fill="none" stroke="black" cx="455.79" cy="-645" rx="34.89" ry="18"/>
<text text-anchor="middle" x="455.79" y="-641.3" font-family="sans" font-size="11.00">icmp_input</text>
</g>
<!-- ip_input_local&#45;&gt;icmp_input -->
<g id="edge32" class="edge">
<title>ip_input_local&#45;&gt;icmp_input</title>
<path fill="none" stroke="black" d="M327.1,-528.26C345.15,-549.4 377.58,-585.77 409.11,-613 413.79,-617.03 418.96,-621.04 424.11,-624.79"/>
<polygon fill="black" stroke="black" points="421.78,-627.43 431.97,-630.33 425.81,-621.71 421.78,-627.43"/>
</g>
<!-- ipip_input -->
<g id="node26" class="node">
<title>ipip_input</title>
<ellipse fill="none" stroke="black" cx="455.79" cy="-553" rx="31.1" ry="18"/>
<text text-anchor="middle" x="455.79" y="-549.3" font-family="sans" font-size="11.00">ipip_input</text>
</g>
<!-- ip_input_local&#45;&gt;ipip_input -->
<g id="edge33" class="edge">
<title>ip_input_local&#45;&gt;ipip_input</title>
<path fill="none" stroke="black" d="M347.46,-521.27C368.35,-527.45 394.97,-535.32 416.47,-541.67"/>
<polygon fill="black" stroke="black" points="415.47,-545.03 426.05,-544.5 417.45,-538.31 415.47,-545.03"/>
</g>
<!-- tcp_redirect_loopback -->
<g id="node27" class="node">
<title>tcp_redirect_loopback</title>
<ellipse fill="none" stroke="black" cx="610.41" cy="-485" rx="68.57" ry="18"/>
<text text-anchor="middle" x="610.41" y="-481.3" font-family="sans" font-size="11.00">tcp_redirect_loopback</text>
</g>
<!-- ip_input_local&#45;&gt;tcp_redirect_loopback -->
<g id="edge34" class="edge">
<title>ip_input_local&#45;&gt;tcp_redirect_loopback</title>
<path fill="none" stroke="black" d="M353.96,-507.38C400.31,-503.32 476.53,-496.64 533.67,-491.64"/>
<polygon fill="black" stroke="black" points="533.66,-495.15 543.32,-490.79 533.05,-488.18 533.66,-495.15"/>
</g>
<!-- udp_redirect_loopback -->
<g id="node28" class="node">
<title>udp_redirect_loopback</title>
<ellipse fill="none" stroke="black" cx="610.41" cy="-431" rx="70.26" ry="18"/>
<text text-anchor="middle" x="610.41" y="-427.3" font-family="sans" font-size="11.00">udp_redirect_loopback</text>
</g>
<!-- ip_input_local&#45;&gt;udp_redirect_loopback -->
<g id="edge35" class="edge">
<title>ip_input_local&#45;&gt;udp_redirect_loopback</title>
<path fill="none" stroke="black" d="M348.49,-501.35C398.4,-487.89 489.56,-463.31 549.82,-447.07"/>
<polygon fill="black" stroke="black" points="550.49,-450.51 559.23,-444.53 548.67,-443.75 550.49,-450.51"/>
</g>
<!-- sctp_redirect_loopback -->
<g id="node29" class="node">
<title>sctp_redirect_loopback</title>
<ellipse fill="none" stroke="black" cx="610.41" cy="-377" rx="71.94" ry="18"/>
<text text-anchor="middle" x="610.41" y="-373.3" font-family="sans" font-size="11.00">sctp_redirect_loopback</text>
</g>
<!-- ip_input_local&#45;&gt;sctp_redirect_loopback -->
<g id="edge36" class="edge">
<title>ip_input_local&#45;&gt;sctp_redirect_loopback</title>
<path fill="none" stroke="black" d="M337.23,-496.17C356.46,-484.81 384.06,-469.09 409.11,-457 465.07,-429.99 480.69,-426.83 538.47,-404 544.98,-401.43 551.85,-398.76 558.64,-396.14"/>
<polygon fill="black" stroke="black" points="559.7,-399.49 567.78,-392.64 557.19,-392.95 559.7,-399.49"/>
</g>
<!-- ip6_input_local&#45;&gt;tcp_redirect_loopback -->
<g id="edge50" class="edge">
<title>ip6_input_local&#45;&gt;tcp_redirect_loopback</title>
<path fill="none" stroke="black" d="M465.69,-364.87C478.62,-389.12 504.76,-432.37 538.47,-458 542.77,-461.27 547.5,-464.18 552.43,-466.77"/>
<polygon fill="black" stroke="black" points="550.83,-469.88 561.37,-470.99 553.82,-463.55 550.83,-469.88"/>
</g>
<!-- ip6_input_local&#45;&gt;udp_redirect_loopback -->
<g id="edge51" class="edge">
<title>ip6_input_local&#45;&gt;udp_redirect_loopback</title>
<path fill="none" stroke="black" d="M477.04,-363.24C493.04,-375.55 516.3,-392.28 538.47,-404 544.14,-407 550.22,-409.83 556.35,-412.46"/>
<polygon fill="black" stroke="black" points="554.66,-415.55 565.24,-416.1 557.31,-409.07 554.66,-415.55"/>
</g>
<!-- ip6_input_local&#45;&gt;sctp_redirect_loopback -->
<g id="edge52" class="edge">
<title>ip6_input_local&#45;&gt;sctp_redirect_loopback</title>
<path fill="none" stroke="black" d="M498.09,-355.12C511.53,-357.76 526.81,-360.76 541.66,-363.68"/>
<polygon fill="black" stroke="black" points="540.92,-367.1 551.41,-365.6 542.27,-360.24 540.92,-367.1"/>
</g>
<!-- icmp6_input -->
<g id="node31" class="node">
<title>icmp6_input</title>
<ellipse fill="none" stroke="black" cx="610.41" cy="-141" rx="38.68" ry="18"/>
<text text-anchor="middle" x="610.41" y="-137.3" font-family="sans" font-size="11.00">icmp6_input</text>
</g>
<!-- ip6_input_local&#45;&gt;icmp6_input -->
<g id="edge49" class="edge">
<title>ip6_input_local&#45;&gt;icmp6_input</title>
<path fill="none" stroke="black" d="M469.8,-329.44C496.62,-293.24 558.17,-210.16 589.83,-167.44"/>
<polygon fill="black" stroke="black" points="592.61,-169.56 595.75,-159.44 586.98,-165.4 592.61,-169.56"/>
</g>
<!-- loopback_output&#45;&gt;control_output -->
<g id="edge15" class="edge">
<title>loopback_output&#45;&gt;control_output</title>
<path fill="none" stroke="black" d="M1079.87,-421.75C1103.06,-396.71 1146.19,-350.12 1172.95,-321.22"/>
<polygon fill="black" stroke="black" points="1175.44,-323.69 1179.66,-313.98 1170.3,-318.94 1175.44,-323.69"/>
</g>
<!-- port_rx -->
<g id="node18" class="node">
<title>port_rx</title>
<ellipse fill="none" stroke="blue" stroke-width="2" cx="41.62" cy="-141" rx="27" ry="18"/>
<text text-anchor="middle" x="41.62" y="-137.3" font-family="sans" font-size="11.00">port_rx</text>
</g>
<!-- port_rx&#45;&gt;eth_input -->
<g id="edge16" class="edge">
<title>port_rx&#45;&gt;eth_input</title>
<path fill="none" stroke="blue" stroke-width="2" d="M69.04,-141C85.35,-141 106.61,-141 125.04,-141"/>
<polygon fill="blue" stroke="blue" stroke-width="2" points="123.34,-144.5 133.34,-141 123.34,-137.5 123.34,-144.5"/>
</g>
<!-- arp_input_request&#45;&gt;control_output -->
<g id="edge20" class="edge">
<title>arp_input_request&#45;&gt;control_output</title>
<path fill="none" stroke="black" d="M829.94,-341.76C896.87,-335.05 1014.58,-322.66 1115.05,-309 1124.11,-307.77 1133.72,-306.34 1143.03,-304.89"/>
<polygon fill="black" stroke="black" points="1143.36,-308.38 1152.69,-303.36 1142.27,-301.47 1143.36,-308.38"/>
</g>
<!-- arp_output_reply -->
<g id="node21" class="node">
<title>arp_output_reply</title>
<ellipse fill="none" stroke="black" cx="921.34" cy="-439" rx="53.41" ry="18"/>
<text text-anchor="middle" x="921.34" y="-435.3" font-family="sans" font-size="11.00">arp_output_reply</text>
</g>
<!-- arp_input_request&#45;&gt;arp_output_reply -->
<g id="edge21" class="edge">
<title>arp_input_request&#45;&gt;arp_output_reply</title>
<path fill="none" stroke="black" d="M801.59,-363.24C824.96,-378.15 859.79,-400.37 885.69,-416.9"/>
<polygon fill="black" stroke="black" points="883.55,-419.68 893.87,-422.11 887.32,-413.78 883.55,-419.68"/>
</g>
<!-- arp_input_reply&#45;&gt;control_output -->
<g id="edge19" class="edge">
<title>arp_input_reply&#45;&gt;control_output</title>
<path fill="none" stroke="black" d="M953.52,-31.81C994.8,-51.36 1067.85,-90.55 1115.05,-142 1149.42,-179.46 1173.7,-234.16 1186.31,-267.29"/>
<polygon fill="black" stroke="black" points="1183.01,-268.45 1189.76,-276.62 1189.58,-266.03 1183.01,-268.45"/>
</g>
<!-- arp_output_reply&#45;&gt;eth_output -->
<g id="edge22" class="edge">
<title>arp_output_reply&#45;&gt;eth_output</title>
<path fill="none" stroke="black" d="M925.26,-457.2C932.67,-497.97 955.63,-597.85 1010.75,-659 1014.6,-663.27 1019.29,-666.98 1024.25,-670.17"/>
<polygon fill="black" stroke="black" points="1022.22,-673.05 1032.65,-674.93 1025.67,-666.96 1022.22,-673.05"/>
</g>
<!-- icmp_input&#45;&gt;control_output -->
<g id="edge25" class="edge">
<title>icmp_input&#45;&gt;control_output</title>
<path fill="none" stroke="black" d="M486.2,-635.78C541.83,-619.19 666.54,-586 774.14,-586 774.14,-586 774.14,-586 922.34,-586 1023.23,-586 1047.77,-541.2 1115.05,-466 1152.64,-423.98 1176.45,-361.49 1187.99,-325.13"/>
<polygon fill="black" stroke="black" points="1191.28,-326.34 1190.87,-315.75 1184.59,-324.29 1191.28,-326.34"/>
</g>
<!-- icmp_input&#45;&gt;icmp_output -->
<g id="edge24" class="edge">
<title>icmp_input&#45;&gt;icmp_output</title>
<path fill="none" stroke="black" d="M479.64,-658.47C505.01,-673.43 546.21,-697.73 575.37,-714.93"/>
<polygon fill="black" stroke="black" points="573.45,-717.86 583.84,-719.92 577,-711.83 573.45,-717.86"/>
</g>
<!-- icmp_output&#45;&gt;ip_output -->
<g id="edge27" class="edge">
<title>icmp_output&#45;&gt;ip_output</title>
<path fill="none" stroke="black" d="M648.5,-729.77C692.33,-723.55 767.48,-712.78 831.92,-703 847.84,-700.58 865.35,-697.83 880.56,-695.41"/>
<polygon fill="black" stroke="black" points="880.86,-698.91 890.19,-693.87 879.76,-691.99 880.86,-698.91"/>
</g>
<!-- ip_forward&#45;&gt;ip_output -->
<g id="edge28" class="edge">
<title>ip_forward&#45;&gt;ip_output</title>
<path fill="none" stroke="black" d="M803.94,-647.83C826.79,-655.92 859.34,-667.43 884.21,-676.22"/>
<polygon fill="black" stroke="black" points="883.01,-679.51 893.61,-679.55 885.34,-672.91 883.01,-679.51"/>
</g>
<!-- ip_hold&#45;&gt;control_output -->
<g id="edge29" class="edge">
<title>ip_hold&#45;&gt;control_output</title>
<path fill="none" stroke="black" d="M1086.32,-622.66C1096.46,-617.39 1107.77,-609.86 1115.05,-600 1178.11,-514.69 1192.25,-383.88 1195.41,-325.69"/>
<polygon fill="black" stroke="black" points="1198.9,-326.08 1195.86,-315.93 1191.9,-325.76 1198.9,-326.08"/>
</g>
<!-- ipip_input&#45;&gt;ip_input -->
<g id="edge60" class="edge">
<title>ipip_input&#45;&gt;ip_input</title>
<path fill="none" stroke="black" d="M486.94,-550.43C511.35,-548.35 545.85,-545.41 572.02,-543.19"/>
<polygon fill="black" stroke="black" points="572.21,-546.68 581.88,-542.35 571.62,-539.71 572.21,-546.68"/>
</g>
<!-- tcp_redirect_loopback&#45;&gt;loopback_output -->
<g id="edge62" class="edge">
<title>tcp_redirect_loopback&#45;&gt;loopback_output</title>
<path fill="none" stroke="black" d="M672.22,-493.05C745.22,-500.81 870.8,-508.05 974.75,-483 993.27,-478.54 1012.32,-469.51 1027.87,-460.79"/>
<polygon fill="black" stroke="black" points="1029.36,-463.98 1036.24,-455.92 1025.84,-457.93 1029.36,-463.98"/>
</g>
<!-- udp_redirect_loopback&#45;&gt;loopback_output -->
<g id="edge63" class="edge">
<title>udp_redirect_loopback&#45;&gt;loopback_output</title>
<path fill="none" stroke="black" d="M661.88,-443.67C732.24,-459.56 863.69,-482.81 974.75,-466 988.58,-463.91 1003.23,-460.05 1016.5,-455.89"/>
<polygon fill="black" stroke="black" points="1017.42,-459.27 1025.83,-452.83 1015.24,-452.62 1017.42,-459.27"/>
</g>
<!-- sctp_redirect_loopback&#45;&gt;loopback_output -->
<g id="edge64" class="edge">
<title>sctp_redirect_loopback&#45;&gt;loopback_output</title>
<path fill="none" stroke="black" d="M682.03,-379.53C755.7,-383.16 874.25,-391.81 974.75,-412 987.96,-414.65 1002.02,-418.53 1014.9,-422.51"/>
<polygon fill="black" stroke="black" points="1013.83,-425.85 1024.42,-425.56 1015.96,-419.18 1013.83,-425.85"/>
</g>
<!-- ipip_output&#45;&gt;ip_output -->
<g id="edge61" class="edge">
<title>ipip_output&#45;&gt;ip_output</title>
<path fill="none" stroke="black" d="M1029.06,-733.83C1006.34,-726.78 976.29,-715.77 953.86,-706.27"/>
<polygon fill="black" stroke="black" points="955.48,-703.16 944.92,-702.36 952.68,-709.58 955.48,-703.16"/>
</g>
<!-- icmp6_output -->
<g id="node32" class="node">
<title>icmp6_output</title>
<ellipse fill="none" stroke="black" cx="775.14" cy="-141" rx="43.31" ry="18"/>
<text text-anchor="middle" x="775.14" y="-137.3" font-family="sans" font-size="11.00">icmp6_output</text>
</g>
<!-- icmp6_input&#45;&gt;icmp6_output -->
<g id="edge41" class="edge">
<title>icmp6_input&#45;&gt;icmp6_output</title>
<path fill="none" stroke="black" d="M649.56,-141C670.54,-141 696.91,-141 719.98,-141"/>
<polygon fill="black" stroke="black" points="719.84,-144.5 729.84,-141 719.84,-137.5 719.84,-144.5"/>
</g>
<!-- ndp_ns_input -->
<g id="node33" class="node">
<title>ndp_ns_input</title>
<ellipse fill="none" stroke="black" cx="775.14" cy="-87" rx="41.62" ry="18"/>
<text text-anchor="middle" x="775.14" y="-83.3" font-family="sans" font-size="11.00">ndp_ns_input</text>
</g>
<!-- icmp6_input&#45;&gt;ndp_ns_input -->
<g id="edge42" class="edge">
<title>icmp6_input&#45;&gt;ndp_ns_input</title>
<path fill="none" stroke="black" d="M642.79,-130.59C667.74,-122.31 702.92,-110.63 730.6,-101.45"/>
<polygon fill="black" stroke="black" points="731.36,-104.88 739.75,-98.41 729.15,-98.24 731.36,-104.88"/>
</g>
<!-- ndp_na_input -->
<g id="node34" class="node">
<title>ndp_na_input</title>
<ellipse fill="none" stroke="black" cx="921.34" cy="-129" rx="42.04" ry="18"/>
<text text-anchor="middle" x="921.34" y="-125.3" font-family="sans" font-size="11.00">ndp_na_input</text>
</g>
<!-- icmp6_input&#45;&gt;ndp_na_input -->
<g id="edge43" class="edge">
<title>icmp6_input&#45;&gt;ndp_na_input</title>
<path fill="none" stroke="black" d="M645.41,-132.79C657.92,-128.6 671.64,-122.55 682.35,-114 704.91,-96.02 692.92,-73.61 718.35,-60 762.86,-36.18 784.19,-43.58 831.92,-60 857.32,-68.74 881.02,-88.1 897.48,-104.09"/>
<polygon fill="black" stroke="black" points="894.8,-106.36 904.33,-111 899.77,-101.43 894.8,-106.36"/>
</g>
<!-- icmp6_output&#45;&gt;ip6_output -->
<g id="edge44" class="edge">
<title>icmp6_output&#45;&gt;ip6_output</title>
<path fill="none" stroke="black" d="M804.4,-154.6C813.65,-159.71 823.66,-166 831.92,-173 851.2,-189.33 850.37,-198.83 867.92,-217 875.7,-225.06 884.71,-233.3 893.03,-240.54"/>
<polygon fill="black" stroke="black" points="890.68,-243.14 900.56,-246.97 895.23,-237.81 890.68,-243.14"/>
</g>
<!-- ndp_ns_input&#45;&gt;ip6_output -->
<g id="edge57" class="edge">
<title>ndp_ns_input&#45;&gt;ip6_output</title>
<path fill="none" stroke="black" d="M809.12,-97.77C817.45,-101.78 825.76,-107.09 831.92,-114 864.19,-150.2 840.81,-176.8 867.92,-217 874.09,-226.14 882.5,-234.6 890.78,-241.7"/>
<polygon fill="black" stroke="black" points="888.45,-244.32 898.42,-247.9 892.85,-238.88 888.45,-244.32"/>
</g>
<!-- ndp_ns_input&#45;&gt;control_output -->
<g id="edge58" class="edge">
<title>ndp_ns_input&#45;&gt;control_output</title>
<path fill="none" stroke="black" d="M806.7,-99.02C815.28,-103.11 824.34,-108.16 831.92,-114 851.4,-129.01 847.93,-141.68 867.92,-156 964.11,-224.9 1007.22,-206.3 1115.05,-255 1129.51,-261.53 1145.13,-269.24 1158.77,-276.21"/>
<polygon fill="black" stroke="black" points="1156.93,-279.2 1167.42,-280.67 1160.13,-272.97 1156.93,-279.2"/>
</g>
<!-- ndp_na_input&#45;&gt;control_output -->
<g id="edge56" class="edge">
<title>ndp_na_input&#45;&gt;control_output</title>
<path fill="none" stroke="black" d="M962.02,-134.08C1003.35,-140.94 1068.43,-156.31 1115.05,-189 1144.33,-209.53 1167.68,-243.85 1181.71,-268.07"/>
<polygon fill="black" stroke="black" points="1178.63,-269.75 1186.57,-276.77 1184.74,-266.33 1178.63,-269.75"/>
</g>
<!-- ip6_forward&#45;&gt;ip6_output -->
<g id="edge45" class="edge">
<title>ip6_forward&#45;&gt;ip6_output</title>
<path fill="none" stroke="black" d="M492.69,-164.06C580.3,-174.09 800.21,-200.02 831.92,-211 853.16,-218.36 874.95,-231.1 891.58,-242.13"/>
<polygon fill="black" stroke="black" points="889.25,-244.78 899.49,-247.52 893.2,-238.99 889.25,-244.78"/>
</g>
<!-- ip6_hold&#45;&gt;control_output -->
<g id="edge46" class="edge">
<title>ip6_hold&#45;&gt;control_output</title>
<path fill="none" stroke="black" d="M1090.06,-284.77C1104.59,-286.3 1123.24,-288.27 1140.85,-290.14"/>
<polygon fill="black" stroke="black" points="1140.4,-293.61 1150.71,-291.18 1141.13,-286.65 1140.4,-293.61"/>
</g>
</g>
</svg>
