<?xml version="1.0" encoding="UTF-8" standalone="no"?>
<!DOCTYPE svg PUBLIC "-//W3C//DTD SVG 1.1//EN"
 "http://www.w3.org/Graphics/SVG/1.1/DTD/svg11.dtd">
<!-- Generated by graphviz version 12.2.1 (20241206.2353)
 -->
<!-- Title: gr&#45;0002 Pages: 1 -->
<svg width="1963pt" height="839pt"
 viewBox="0.00 0.00 1962.83 839.02" xmlns="http://www.w3.org/2000/svg" xmlns:xlink="http://www.w3.org/1999/xlink">
<g id="graph0" class="graph" transform="scale(1 1) rotate(0) translate(4 835.02)">
<title>gr&#45;0002</title>
<polygon fill="white" stroke="none" points="-4,4 -4,-835.02 1958.83,-835.02 1958.83,4 -4,4"/>
<!-- control_input -->
<g id="node1" class="node">
<title>control_input</title>
<ellipse fill="none" stroke="blue" stroke-width="2" cx="41.62" cy="-260.02" rx="41.62" ry="18"/>
<text text-anchor="middle" x="41.62" y="-256.32" font-family="sans" font-size="11.00">control_input</text>
</g>
<!-- loopback_input -->
<g id="node2" class="node">
<title>loopback_input</title>
<ellipse fill="none" stroke="black" cx="166.76" cy="-283.02" rx="47.52" ry="18"/>
<text text-anchor="middle" x="166.76" y="-279.32" font-family="sans" font-size="11.00">loopback_input</text>
</g>
<!-- control_input&#45;&gt;loopback_input -->
<g id="edge1" class="edge">
<title>control_input&#45;&gt;loopback_input</title>
<path fill="none" stroke="blue" stroke-width="2" d="M80.24,-267.04C90.42,-268.94 101.64,-271.04 112.51,-273.07"/>
<polygon fill="blue" stroke="blue" stroke-width="2" points="110.2,-276.2 120.67,-274.59 111.49,-269.32 110.2,-276.2"/>
</g>
<!-- arp_output_request -->
<g id="node3" class="node">
<title>arp_output_request</title>
<ellipse fill="none" stroke="black" cx="569.56" cy="-721.02" rx="61.42" ry="18"/>
<text text-anchor="middle" x="569.56" y="-717.32" font-family="sans" font-size="11.00">arp_output_request</text>
</g>
<!-- control_input&#45;&gt;arp_output_request -->
<g id="edge2" class="edge">
<title>control_input&#45;&gt;arp_output_request</title>
<path fill="none" stroke="blue" stroke-width="2" d="M43.04,-278.49C45.12,-353.38 57.02,-633.04 119.25,-689.02 173.35,-737.69 386.26,-732.5 498.48,-726.05"/>
<polygon fill="blue" stroke="blue" stroke-width="2" points="496.88,-729.65 506.65,-725.56 496.46,-722.66 496.88,-729.65"/>
</g>
<!-- icmp_local_send -->
<g id="node4" class="node">
<title>icmp_local_send</title>
<ellipse fill="none" stroke="black" cx="720.39" cy="-245.02" rx="51.31" ry="18"/>
<text text-anchor="middle" x="720.39" y="-241.32" font-family="sans" font-size="11.00">icmp_local_send</text>
</g>
<!-- control_input&#45;&gt;icmp_local_send -->
<g id="edge3" class="edge">
<title>control_input&#45;&gt;icmp_local_send</title>
<path fill="none" stroke="blue" stroke-width="2" d="M81.52,-254.27C131.09,-247.46 219.48,-237.02 295.54,-237.02 295.54,-237.02 295.54,-237.02 426.47,-237.02 506.36,-237.02 598.45,-240.03 657.72,-242.35"/>
<polygon fill="blue" stroke="blue" stroke-width="2" points="655.97,-245.79 666.1,-242.69 656.25,-238.79 655.97,-245.79"/>
</g>
<!-- icmp6_local_send -->
<g id="node5" class="node">
<title>icmp6_local_send</title>
<ellipse fill="none" stroke="black" cx="864.91" cy="-123.02" rx="55.1" ry="18"/>
<text text-anchor="middle" x="864.91" y="-119.32" font-family="sans" font-size="11.00">icmp6_local_send</text>
</g>
<!-- control_input&#45;&gt;icmp6_local_send -->
<g id="edge4" class="edge">
<title>control_input&#45;&gt;icmp6_local_send</title>
<path fill="none" stroke="blue" stroke-width="2" d="M55.21,-242.74C68.92,-225.27 92.5,-198.94 119.25,-185.02 189.96,-148.22 215.83,-152.02 295.54,-152.02 295.54,-152.02 295.54,-152.02 570.56,-152.02 651.4,-152.02 744.17,-140.97 803.37,-132.52"/>
<polygon fill="blue" stroke="blue" stroke-width="2" points="802.36,-136.2 811.75,-131.3 801.35,-129.27 802.36,-136.2"/>
</g>
<!-- ndp_ns_output -->
<g id="node6" class="node">
<title>ndp_ns_output</title>
<ellipse fill="none" stroke="black" cx="296.54" cy="-101.02" rx="46.26" ry="18"/>
<text text-anchor="middle" x="296.54" y="-97.32" font-family="sans" font-size="11.00">ndp_ns_output</text>
</g>
<!-- control_input&#45;&gt;ndp_ns_output -->
<g id="edge5" class="edge">
<title>control_input&#45;&gt;ndp_ns_output</title>
<path fill="none" stroke="blue" stroke-width="2" d="M48.77,-241.85C58.92,-214.72 81.89,-164.04 119.25,-138.02 154.25,-113.64 201.99,-104.73 238.97,-101.73"/>
<polygon fill="blue" stroke="blue" stroke-width="2" points="237.31,-105.35 247.05,-101.19 236.84,-98.37 237.31,-105.35"/>
</g>
<!-- ip_output -->
<g id="node7" class="node">
<title>ip_output</title>
<ellipse fill="none" stroke="black" cx="1395.37" cy="-421.02" rx="30.25" ry="18"/>
<text text-anchor="middle" x="1395.37" y="-417.32" font-family="sans" font-size="11.00">ip_output</text>
</g>
<!-- control_input&#45;&gt;ip_output -->
<g id="edge6" class="edge">
<title>control_input&#45;&gt;ip_output</title>
<path fill="none" stroke="blue" stroke-width="2" d="M72.81,-247.82C119.67,-230.02 213.11,-199.02 295.54,-199.02 295.54,-199.02 295.54,-199.02 570.56,-199.02 834.63,-199.02 910.79,-159.58 1163.55,-236.02 1238.96,-258.82 1261.23,-266.34 1320.7,-318.02 1345.62,-339.68 1366.66,-371.38 1379.8,-393.88"/>
<polygon fill="blue" stroke="blue" stroke-width="2" points="1375.95,-394.2 1383.93,-401.17 1382.04,-390.75 1375.95,-394.2"/>
</g>
<!-- arp_output_reply -->
<g id="node8" class="node">
<title>arp_output_reply</title>
<ellipse fill="none" stroke="black" cx="720.39" cy="-767.02" rx="53.41" ry="18"/>
<text text-anchor="middle" x="720.39" y="-763.32" font-family="sans" font-size="11.00">arp_output_reply</text>
</g>
<!-- control_input&#45;&gt;arp_output_reply -->
<g id="edge7" class="edge">
<title>control_input&#45;&gt;arp_output_reply</title>
<path fill="none" stroke="blue" stroke-width="2" d="M43.13,-278.37C45.62,-355.51 59.03,-652.43 119.25,-719.02 173.71,-779.25 214.33,-767.02 295.54,-767.02 295.54,-767.02 295.54,-767.02 426.47,-767.02 505.26,-767.02 595.96,-767.02 655.3,-767.02"/>
<polygon fill="blue" stroke="blue" stroke-width="2" points="653.71,-770.52 663.71,-767.02 653.71,-763.52 653.71,-770.52"/>
</g>
<!-- ip6_output -->
<g id="node9" class="node">
<title>ip6_output</title>
<ellipse fill="none" stroke="black" cx="1634.71" cy="-475.02" rx="34.04" ry="18"/>
<text text-anchor="middle" x="1634.71" y="-471.32" font-family="sans" font-size="11.00">ip6_output</text>
</g>
<!-- control_input&#45;&gt;ip6_output -->
<g id="edge8" class="edge">
<title>control_input&#45;&gt;ip6_output</title>
<path fill="none" stroke="blue" stroke-width="2" d="M44.26,-278.38C49.96,-344.12 71.28,-564.53 119.25,-614.02 175.38,-671.93 214.89,-657.02 295.54,-657.02 295.54,-657.02 295.54,-657.02 999.89,-657.02 1253.31,-657.02 1338.5,-662.97 1556.66,-534.02 1577.54,-521.68 1574.37,-508.93 1592.66,-493.02 1593.6,-492.2 1594.55,-491.4 1595.53,-490.6"/>
<polygon fill="blue" stroke="blue" stroke-width="2" points="1596.36,-494.35 1602.3,-485.57 1592.18,-488.73 1596.36,-494.35"/>
</g>
<!-- control_input&#45;&gt;ip6_output -->
<g id="edge10" class="edge">
<title>control_input&#45;&gt;ip6_output</title>
<path fill="none" stroke="blue" stroke-width="2" d="M43.72,-278.4C48.5,-346.46 69.6,-580.79 119.25,-632.02 175.38,-689.93 214.89,-675.02 295.54,-675.02 295.54,-675.02 295.54,-675.02 999.89,-675.02 1253.31,-675.02 1338.5,-680.97 1556.66,-552.02 1577.54,-539.68 1574.37,-526.93 1592.66,-511.02 1597.86,-506.5 1603.86,-502.14 1609.64,-498.02"/>
<polygon fill="blue" stroke="blue" stroke-width="2" points="1610.44,-501.75 1616.52,-493.07 1606.36,-496.07 1610.44,-501.75"/>
</g>
<!-- ndp_na_output -->
<g id="node10" class="node">
<title>ndp_na_output</title>
<ellipse fill="none" stroke="black" cx="425.47" cy="-31.02" rx="46.68" ry="18"/>
<text text-anchor="middle" x="425.47" y="-27.32" font-family="sans" font-size="11.00">ndp_na_output</text>
</g>
<!-- control_input&#45;&gt;ndp_na_output -->
<g id="edge9" class="edge">
<title>control_input&#45;&gt;ndp_na_output</title>
<path fill="none" stroke="blue" stroke-width="2" d="M46.03,-241.79C53.26,-208.43 73.38,-137.62 119.25,-101.02 190.9,-43.83 300.59,-31.61 367.11,-29.93"/>
<polygon fill="blue" stroke="blue" stroke-width="2" points="365.65,-33.45 375.59,-29.78 365.53,-26.45 365.65,-33.45"/>
</g>
<!-- ip_input -->
<g id="node14" class="node">
<title>ip_input</title>
<ellipse fill="none" stroke="black" cx="720.39" cy="-397.02" rx="27" ry="18"/>
<text text-anchor="middle" x="720.39" y="-393.32" font-family="sans" font-size="11.00">ip_input</text>
</g>
<!-- loopback_input&#45;&gt;ip_input -->
<g id="edge16" class="edge">
<title>loopback_input&#45;&gt;ip_input</title>
<path fill="none" stroke="black" d="M211.54,-289.58C294.14,-302.33 478.42,-332.52 630.98,-370.02 649.09,-374.47 668.97,-380.44 685.29,-385.64"/>
<polygon fill="black" stroke="black" points="683.92,-388.87 694.51,-388.62 686.07,-382.21 683.92,-388.87"/>
</g>
<!-- ip6_input -->
<g id="node15" class="node">
<title>ip6_input</title>
<ellipse fill="none" stroke="black" cx="296.54" cy="-457.02" rx="29.41" ry="18"/>
<text text-anchor="middle" x="296.54" y="-453.32" font-family="sans" font-size="11.00">ip6_input</text>
</g>
<!-- loopback_input&#45;&gt;ip6_input -->
<g id="edge17" class="edge">
<title>loopback_input&#45;&gt;ip6_input</title>
<path fill="none" stroke="black" d="M180.72,-300.66C203.49,-331.67 250.76,-396.04 276.99,-431.76"/>
<polygon fill="black" stroke="black" points="273.85,-433.4 282.59,-439.39 279.49,-429.25 273.85,-433.4"/>
</g>
<!-- eth_output -->
<g id="node16" class="node">
<title>eth_output</title>
<ellipse fill="none" stroke="black" cx="1769.53" cy="-729.02" rx="34.89" ry="18"/>
<text text-anchor="middle" x="1769.53" y="-725.32" font-family="sans" font-size="11.00">eth_output</text>
</g>
<!-- arp_output_request&#45;&gt;eth_output -->
<g id="edge26" class="edge">
<title>arp_output_request&#45;&gt;eth_output</title>
<path fill="none" stroke="black" d="M631.28,-722.01C767.69,-724.15 1108.85,-729.02 1394.37,-729.02 1394.37,-729.02 1394.37,-729.02 1514.35,-729.02 1587.43,-729.02 1672.33,-729.02 1723.17,-729.02"/>
<polygon fill="black" stroke="black" points="1722.9,-732.52 1732.9,-729.02 1722.9,-725.52 1722.9,-732.52"/>
</g>
<!-- icmp_output -->
<g id="node27" class="node">
<title>icmp_output</title>
<ellipse fill="none" stroke="black" cx="1260.12" cy="-345.02" rx="39.52" ry="18"/>
<text text-anchor="middle" x="1260.12" y="-341.32" font-family="sans" font-size="11.00">icmp_output</text>
</g>
<!-- icmp_local_send&#45;&gt;icmp_output -->
<g id="edge31" class="edge">
<title>icmp_local_send&#45;&gt;icmp_output</title>
<path fill="none" stroke="black" d="M767.62,-237.5C850.36,-226.08 1027.78,-210.89 1163.55,-264.02 1193.23,-275.63 1220.25,-300.49 1237.93,-319.63"/>
<polygon fill="black" stroke="black" points="1235.09,-321.7 1244.36,-326.82 1240.31,-317.04 1235.09,-321.7"/>
</g>
<!-- icmp6_output -->
<g id="node34" class="node">
<title>icmp6_output</title>
<ellipse fill="none" stroke="black" cx="1513.35" cy="-153.02" rx="43.31" ry="18"/>
<text text-anchor="middle" x="1513.35" y="-149.32" font-family="sans" font-size="11.00">icmp6_output</text>
</g>
<!-- icmp6_local_send&#45;&gt;icmp6_output -->
<g id="edge53" class="edge">
<title>icmp6_local_send&#45;&gt;icmp6_output</title>
<path fill="none" stroke="black" d="M919.91,-125.52C1041.91,-131.18 1337.6,-144.91 1458.99,-150.54"/>
<polygon fill="black" stroke="black" points="1458.52,-154.02 1468.67,-150.99 1458.84,-147.03 1458.52,-154.02"/>
</g>
<!-- ndp_ns_output&#45;&gt;icmp6_output -->
<g id="edge70" class="edge">
<title>ndp_ns_output&#45;&gt;icmp6_output</title>
<path fill="none" stroke="black" d="M340.15,-94.9C393.45,-87.79 487.55,-77.02 568.56,-77.02 568.56,-77.02 568.56,-77.02 999.89,-77.02 1172.61,-77.02 1374.57,-119.78 1464.71,-141.15"/>
<polygon fill="black" stroke="black" points="1463.64,-144.5 1474.18,-143.42 1465.27,-137.69 1463.64,-144.5"/>
</g>
<!-- ip_output&#45;&gt;eth_output -->
<g id="edge42" class="edge">
<title>ip_output&#45;&gt;eth_output</title>
<path fill="none" stroke="black" d="M1409.69,-437.35C1423.87,-454.31 1447.34,-481.22 1470.05,-502.02 1561.54,-585.8 1682.21,-670.63 1737.93,-708.52"/>
<polygon fill="black" stroke="black" points="1735.74,-711.27 1745.99,-713.98 1739.67,-705.48 1735.74,-711.27"/>
</g>
<!-- loopback_output -->
<g id="node19" class="node">
<title>loopback_output</title>
<ellipse fill="none" stroke="black" cx="1769.53" cy="-304.02" rx="52.15" ry="18"/>
<text text-anchor="middle" x="1769.53" y="-300.32" font-family="sans" font-size="11.00">loopback_output</text>
</g>
<!-- ip_output&#45;&gt;loopback_output -->
<g id="edge44" class="edge">
<title>ip_output&#45;&gt;loopback_output</title>
<path fill="none" stroke="black" d="M1406.44,-404.07C1418.81,-384.97 1441.67,-354.66 1470.05,-340.02 1544.94,-301.37 1644.09,-297.15 1707.11,-299.31"/>
<polygon fill="black" stroke="black" points="1706.79,-302.8 1716.93,-299.71 1707.08,-295.8 1706.79,-302.8"/>
</g>
<!-- ip_hold -->
<g id="node28" class="node">
<title>ip_hold</title>
<ellipse fill="none" stroke="black" cx="1513.35" cy="-367.02" rx="27" ry="18"/>
<text text-anchor="middle" x="1513.35" y="-363.32" font-family="sans" font-size="11.00">ip_hold</text>
</g>
<!-- ip_output&#45;&gt;ip_hold -->
<g id="edge43" class="edge">
<title>ip_output&#45;&gt;ip_hold</title>
<path fill="none" stroke="black" d="M1419.84,-410.09C1437.19,-402.01 1461.01,-390.92 1480.14,-382.02"/>
<polygon fill="black" stroke="black" points="1481.53,-385.23 1489.12,-377.84 1478.57,-378.88 1481.53,-385.23"/>
</g>
<!-- ipip_output -->
<g id="node31" class="node">
<title>ipip_output</title>
<ellipse fill="none" stroke="black" cx="1513.35" cy="-421.02" rx="35.73" ry="18"/>
<text text-anchor="middle" x="1513.35" y="-417.32" font-family="sans" font-size="11.00">ipip_output</text>
</g>
<!-- ip_output&#45;&gt;ipip_output -->
<g id="edge45" class="edge">
<title>ip_output&#45;&gt;ipip_output</title>
<path fill="none" stroke="black" d="M1424.45,-415.14C1437.57,-414.3 1453.5,-414.07 1468.18,-414.44"/>
<polygon fill="black" stroke="black" points="1467.97,-417.93 1478.09,-414.81 1468.23,-410.94 1467.97,-417.93"/>
</g>
<!-- sr6_headend -->
<g id="node32" class="node">
<title>sr6_headend</title>
<ellipse fill="none" stroke="black" cx="1513.35" cy="-475.02" rx="40.78" ry="18"/>
<text text-anchor="middle" x="1513.35" y="-471.32" font-family="sans" font-size="11.00">sr6_headend</text>
</g>
<!-- ip_output&#45;&gt;sr6_headend -->
<g id="edge46" class="edge">
<title>ip_output&#45;&gt;sr6_headend</title>
<path fill="none" stroke="black" d="M1419.84,-431.94C1435.37,-439.18 1456.1,-448.82 1474,-457.16"/>
<polygon fill="black" stroke="black" points="1472.51,-460.32 1483.05,-461.37 1475.46,-453.98 1472.51,-460.32"/>
</g>
<!-- arp_output_reply&#45;&gt;eth_output -->
<g id="edge25" class="edge">
<title>arp_output_reply&#45;&gt;eth_output</title>
<path fill="none" stroke="black" d="M774.14,-767.02C829.78,-767.02 920.01,-767.02 997.89,-767.02 997.89,-767.02 997.89,-767.02 1514.35,-767.02 1589.69,-767.02 1676.22,-750.49 1726.41,-739.23"/>
<polygon fill="black" stroke="black" points="1727.01,-742.68 1735.98,-737.04 1725.45,-735.86 1727.01,-742.68"/>
</g>
<!-- ip6_output&#45;&gt;eth_output -->
<g id="edge63" class="edge">
<title>ip6_output&#45;&gt;eth_output</title>
<path fill="none" stroke="black" d="M1659.82,-487.42C1665.94,-491.43 1672.1,-496.34 1676.75,-502.02 1726.45,-562.66 1752.18,-653.75 1762.68,-699.94"/>
<polygon fill="black" stroke="black" points="1759.2,-700.43 1764.76,-709.45 1766.04,-698.93 1759.2,-700.43"/>
</g>
<!-- ip6_output&#45;&gt;loopback_output -->
<g id="edge65" class="edge">
<title>ip6_output&#45;&gt;loopback_output</title>
<path fill="none" stroke="black" d="M1648.68,-458.31C1671.82,-428.53 1720.33,-366.07 1748.02,-330.43"/>
<polygon fill="black" stroke="black" points="1750.61,-332.8 1753.98,-322.75 1745.08,-328.5 1750.61,-332.8"/>
</g>
<!-- ip6_output&#45;&gt;sr6_headend -->
<g id="edge66" class="edge">
<title>ip6_output&#45;&gt;sr6_headend</title>
<path fill="none" stroke="black" d="M1602.19,-481.05C1590.31,-481.7 1576.5,-481.91 1563.39,-481.67"/>
<polygon fill="black" stroke="black" points="1563.73,-478.18 1553.63,-481.39 1563.53,-485.18 1563.73,-478.18"/>
</g>
<!-- ip6_hold -->
<g id="node39" class="node">
<title>ip6_hold</title>
<ellipse fill="none" stroke="black" cx="1769.53" cy="-408.02" rx="27" ry="18"/>
<text text-anchor="middle" x="1769.53" y="-404.32" font-family="sans" font-size="11.00">ip6_hold</text>
</g>
<!-- ip6_output&#45;&gt;ip6_hold -->
<g id="edge64" class="edge">
<title>ip6_output&#45;&gt;ip6_hold</title>
<path fill="none" stroke="black" d="M1660.07,-462.73C1681.76,-451.79 1713.62,-435.71 1737.2,-423.82"/>
<polygon fill="black" stroke="black" points="1738.69,-426.99 1746.04,-419.36 1735.53,-420.74 1738.69,-426.99"/>
</g>
<!-- ndp_na_output&#45;&gt;icmp6_output -->
<g id="edge68" class="edge">
<title>ndp_na_output&#45;&gt;icmp6_output</title>
<path fill="none" stroke="black" d="M472.12,-33.04C529.74,-35.41 631.89,-39.02 719.39,-39.02 719.39,-39.02 719.39,-39.02 999.89,-39.02 1194.81,-39.02 1251.9,-31.62 1434.05,-101.02 1439.29,-103.01 1461.49,-117.87 1480.92,-131.19"/>
<polygon fill="black" stroke="black" points="1478.68,-133.9 1488.9,-136.69 1482.65,-128.13 1478.68,-133.9"/>
</g>
<!-- control_output -->
<g id="node11" class="node">
<title>control_output</title>
<ellipse fill="none" stroke="black" cx="1908.57" cy="-270.02" rx="46.26" ry="18"/>
<text text-anchor="middle" x="1908.57" y="-266.32" font-family="sans" font-size="11.00">control_output</text>
</g>
<!-- eth_input -->
<g id="node12" class="node">
<title>eth_input</title>
<ellipse fill="none" stroke="black" cx="166.76" cy="-596.02" rx="30.25" ry="18"/>
<text text-anchor="middle" x="166.76" y="-592.32" font-family="sans" font-size="11.00">eth_input</text>
</g>
<!-- arp_input -->
<g id="node13" class="node">
<title>arp_input</title>
<ellipse fill="none" stroke="black" cx="1634.71" cy="-529.02" rx="30.25" ry="18"/>
<text text-anchor="middle" x="1634.71" y="-525.32" font-family="sans" font-size="11.00">arp_input</text>
</g>
<!-- eth_input&#45;&gt;arp_input -->
<g id="edge11" class="edge">
<title>eth_input&#45;&gt;arp_input</title>
<path fill="none" stroke="black" d="M196.56,-600.29C243.97,-606.94 341.47,-619.02 424.47,-619.02 424.47,-619.02 424.47,-619.02 999.89,-619.02 1248.26,-619.02 1342.47,-792.75 1556.66,-667.02 1596.67,-643.53 1617.44,-590.88 1626.93,-557.83"/>
<polygon fill="black" stroke="black" points="1630.22,-559.06 1629.43,-548.49 1623.46,-557.24 1630.22,-559.06"/>
</g>
<!-- eth_input&#45;&gt;ip_input -->
<g id="edge12" class="edge">
<title>eth_input&#45;&gt;ip_input</title>
<path fill="none" stroke="black" d="M197.22,-593.52C273.3,-586.05 480.95,-559.11 630.98,-478.02 657.58,-463.64 682.45,-439.51 699,-421.31"/>
<polygon fill="black" stroke="black" points="701.41,-423.87 705.42,-414.06 696.17,-419.23 701.41,-423.87"/>
</g>
<!-- eth_input&#45;&gt;ip6_input -->
<g id="edge13" class="edge">
<title>eth_input&#45;&gt;ip6_input</title>
<path fill="none" stroke="black" d="M182.17,-580.34C204.53,-556.02 247.72,-509.04 273.86,-480.6"/>
<polygon fill="black" stroke="black" points="276.16,-483.27 280.35,-473.54 271.01,-478.53 276.16,-483.27"/>
</g>
<!-- arp_input_request -->
<g id="node21" class="node">
<title>arp_input_request</title>
<ellipse fill="none" stroke="black" cx="1769.53" cy="-528.02" rx="56.78" ry="18"/>
<text text-anchor="middle" x="1769.53" y="-524.32" font-family="sans" font-size="11.00">arp_input_request</text>
</g>
<!-- arp_input&#45;&gt;arp_input_request -->
<g id="edge21" class="edge">
<title>arp_input&#45;&gt;arp_input_request</title>
<path fill="none" stroke="black" d="M1665.19,-528.79C1675.84,-528.71 1688.34,-528.62 1700.91,-528.53"/>
<polygon fill="black" stroke="black" points="1700.93,-532.03 1710.9,-528.45 1700.87,-525.03 1700.93,-532.03"/>
</g>
<!-- arp_input_reply -->
<g id="node22" class="node">
<title>arp_input_reply</title>
<ellipse fill="none" stroke="black" cx="1769.53" cy="-470.02" rx="48.78" ry="18"/>
<text text-anchor="middle" x="1769.53" y="-466.32" font-family="sans" font-size="11.00">arp_input_reply</text>
</g>
<!-- arp_input&#45;&gt;arp_input_reply -->
<g id="edge22" class="edge">
<title>arp_input&#45;&gt;arp_input_reply</title>
<path fill="none" stroke="black" d="M1659.76,-518.33C1678.39,-510.06 1704.66,-498.39 1726.71,-488.59"/>
<polygon fill="black" stroke="black" points="1728.05,-491.83 1735.76,-484.57 1725.2,-485.43 1728.05,-491.83"/>
</g>
<!-- ip_input&#45;&gt;ip_output -->
<g id="edge36" class="edge">
<title>ip_input&#45;&gt;ip_output</title>
<path fill="none" stroke="black" d="M747.48,-399.42C818.32,-405.89 1013.27,-423.4 1077.78,-426.02 1115.87,-427.56 1125.43,-426.43 1163.55,-426.02 1230.1,-425.3 1307.43,-423.41 1353.55,-422.17"/>
<polygon fill="black" stroke="black" points="1353.45,-425.67 1363.35,-421.9 1353.26,-418.67 1353.45,-425.67"/>
</g>
<!-- dnat44 -->
<g id="node23" class="node">
<title>dnat44</title>
<ellipse fill="none" stroke="black" cx="864.91" cy="-443.02" rx="27" ry="18"/>
<text text-anchor="middle" x="864.91" y="-439.32" font-family="sans" font-size="11.00">dnat44</text>
</g>
<!-- ip_input&#45;&gt;dnat44 -->
<g id="edge38" class="edge">
<title>ip_input&#45;&gt;dnat44</title>
<path fill="none" stroke="black" d="M745.25,-404.72C768.16,-412.11 803.05,-423.37 829.07,-431.77"/>
<polygon fill="black" stroke="black" points="827.94,-435.09 838.53,-434.83 830.09,-428.42 827.94,-435.09"/>
</g>
<!-- ip_forward -->
<g id="node24" class="node">
<title>ip_forward</title>
<ellipse fill="none" stroke="black" cx="998.89" cy="-475.02" rx="33.62" ry="18"/>
<text text-anchor="middle" x="998.89" y="-471.32" font-family="sans" font-size="11.00">ip_forward</text>
</g>
<!-- ip_input&#45;&gt;ip_forward -->
<g id="edge35" class="edge">
<title>ip_input&#45;&gt;ip_forward</title>
<path fill="none" stroke="black" d="M734.45,-412.81C750.2,-430.51 778.49,-458.29 809.81,-470.02 857.17,-487.76 916.05,-485.87 955.19,-481.6"/>
<polygon fill="black" stroke="black" points="955.4,-485.1 964.92,-480.43 954.57,-478.15 955.4,-485.1"/>
</g>
<!-- ip_input_local -->
<g id="node25" class="node">
<title>ip_input_local</title>
<ellipse fill="none" stroke="black" cx="998.89" cy="-329.02" rx="42.89" ry="18"/>
<text text-anchor="middle" x="998.89" y="-325.32" font-family="sans" font-size="11.00">ip_input_local</text>
</g>
<!-- ip_input&#45;&gt;ip_input_local -->
<g id="edge37" class="edge">
<title>ip_input&#45;&gt;ip_input_local</title>
<path fill="none" stroke="black" d="M738.88,-383.51C755.95,-371.13 783.17,-353.5 809.81,-345.02 853.67,-331.05 906.03,-327.59 944.35,-327.32"/>
<polygon fill="black" stroke="black" points="944.25,-330.82 954.25,-327.32 944.25,-323.82 944.25,-330.82"/>
</g>
<!-- ip6_input&#45;&gt;ip6_output -->
<g id="edge57" class="edge">
<title>ip6_input&#45;&gt;ip6_output</title>
<path fill="none" stroke="black" d="M320.92,-467.72C336.92,-474.67 358.78,-483.45 378.79,-489.02 565.97,-541.12 616.2,-545.74 809.81,-562.02 963.12,-574.91 1129.52,-556.67 1434.05,-535.02 1488.62,-531.14 1504.86,-541.64 1556.66,-524.02 1559.31,-523.12 1582.39,-508.36 1602.61,-495.27"/>
<polygon fill="black" stroke="black" points="1604.44,-498.25 1610.93,-489.87 1600.64,-492.38 1604.44,-498.25"/>
</g>
<!-- ip6_forward -->
<g id="node38" class="node">
<title>ip6_forward</title>
<ellipse fill="none" stroke="black" cx="864.91" cy="-535.02" rx="37.41" ry="18"/>
<text text-anchor="middle" x="864.91" y="-531.32" font-family="sans" font-size="11.00">ip6_forward</text>
</g>
<!-- ip6_input&#45;&gt;ip6_forward -->
<g id="edge56" class="edge">
<title>ip6_input&#45;&gt;ip6_forward</title>
<path fill="none" stroke="black" d="M325.63,-460.88C416.6,-473.41 703.84,-512.97 817.22,-528.59"/>
<polygon fill="black" stroke="black" points="816.7,-532.05 827.09,-529.95 817.66,-525.11 816.7,-532.05"/>
</g>
<!-- ip6_input_local -->
<g id="node40" class="node">
<title>ip6_input_local</title>
<ellipse fill="none" stroke="black" cx="425.47" cy="-411.02" rx="46.68" ry="18"/>
<text text-anchor="middle" x="425.47" y="-407.32" font-family="sans" font-size="11.00">ip6_input_local</text>
</g>
<!-- ip6_input&#45;&gt;ip6_input_local -->
<g id="edge58" class="edge">
<title>ip6_input&#45;&gt;ip6_input_local</title>
<path fill="none" stroke="black" d="M322.31,-448.04C338.67,-442.11 360.58,-434.17 379.91,-427.16"/>
<polygon fill="black" stroke="black" points="381,-430.49 389.21,-423.79 378.62,-423.91 381,-430.49"/>
</g>
<!-- port_tx -->
<g id="node17" class="node">
<title>port_tx</title>
<ellipse fill="none" stroke="black" cx="1908.57" cy="-771.02" rx="27" ry="18"/>
<text text-anchor="middle" x="1908.57" y="-767.32" font-family="sans" font-size="11.00">port_tx</text>
</g>
<!-- eth_output&#45;&gt;port_tx -->
<g id="edge14" class="edge">
<title>eth_output&#45;&gt;port_tx</title>
<path fill="none" stroke="black" d="M1800.27,-738.13C1821.68,-744.69 1850.63,-753.57 1873.07,-760.44"/>
<polygon fill="black" stroke="black" points="1871.78,-763.71 1882.37,-763.29 1873.83,-757.01 1871.78,-763.71"/>
</g>
<!-- l1_xconnect -->
<g id="node18" class="node">
<title>l1_xconnect</title>
<ellipse fill="none" stroke="black" cx="296.54" cy="-813.02" rx="38.25" ry="18"/>
<text text-anchor="middle" x="296.54" y="-809.32" font-family="sans" font-size="11.00">l1_xconnect</text>
</g>
<!-- l1_xconnect&#45;&gt;port_tx -->
<g id="edge15" class="edge">
<title>l1_xconnect&#45;&gt;port_tx</title>
<path fill="none" stroke="black" d="M335.25,-813.02C387.6,-813.02 485.28,-813.02 568.56,-813.02 568.56,-813.02 568.56,-813.02 1635.71,-813.02 1721.4,-813.02 1820.53,-792.38 1872.16,-780.04"/>
<polygon fill="black" stroke="black" points="1872.67,-783.52 1881.56,-777.75 1871.01,-776.72 1872.67,-783.52"/>
</g>
<!-- loopback_output&#45;&gt;control_output -->
<g id="edge18" class="edge">
<title>loopback_output&#45;&gt;control_output</title>
<path fill="none" stroke="black" d="M1812.77,-293.54C1827.06,-289.99 1843.14,-286 1857.95,-282.33"/>
<polygon fill="black" stroke="black" points="1858.64,-285.76 1867.51,-279.96 1856.96,-278.97 1858.64,-285.76"/>
</g>
<!-- port_rx -->
<g id="node20" class="node">
<title>port_rx</title>
<ellipse fill="none" stroke="blue" stroke-width="2" cx="41.62" cy="-712.02" rx="27" ry="18"/>
<text text-anchor="middle" x="41.62" y="-708.32" font-family="sans" font-size="11.00">port_rx</text>
</g>
<!-- port_rx&#45;&gt;eth_input -->
<g id="edge19" class="edge">
<title>port_rx&#45;&gt;eth_input</title>
<path fill="none" stroke="blue" stroke-width="2" d="M58.22,-697.32C79.18,-677.58 116.64,-642.29 141.35,-619.01"/>
<polygon fill="blue" stroke="blue" stroke-width="2" points="142.43,-622.81 147.31,-613.4 137.63,-617.71 142.43,-622.81"/>
</g>
<!-- port_rx&#45;&gt;l1_xconnect -->
<g id="edge20" class="edge">
<title>port_rx&#45;&gt;l1_xconnect</title>
<path fill="none" stroke="blue" stroke-width="2" d="M55.5,-727.92C69.44,-744 93.21,-768.24 119.25,-781.02 159.31,-800.68 209.84,-808.36 246.52,-811.3"/>
<polygon fill="blue" stroke="blue" stroke-width="2" points="244.67,-814.68 254.89,-811.89 245.16,-807.7 244.67,-814.68"/>
</g>
<!-- arp_input_request&#45;&gt;control_output -->
<g id="edge24" class="edge">
<title>arp_input_request&#45;&gt;control_output</title>
<path fill="none" stroke="black" d="M1805.25,-513.79C1812.98,-509.34 1820.58,-503.77 1826.32,-497.02 1876.27,-438.15 1896.42,-346.27 1903.78,-299.51"/>
<polygon fill="black" stroke="black" points="1907.21,-300.28 1905.21,-289.87 1900.28,-299.25 1907.21,-300.28"/>
</g>
<!-- arp_input_reply&#45;&gt;control_output -->
<g id="edge23" class="edge">
<title>arp_input_reply&#45;&gt;control_output</title>
<path fill="none" stroke="black" d="M1800.05,-455.64C1809.28,-450.12 1818.97,-443.17 1826.32,-435.02 1862.99,-394.37 1886.99,-334.16 1898.84,-298.82"/>
<polygon fill="black" stroke="black" points="1902.03,-300.31 1901.79,-289.72 1895.38,-298.15 1902.03,-300.31"/>
</g>
<!-- dnat44&#45;&gt;ip_forward -->
<g id="edge27" class="edge">
<title>dnat44&#45;&gt;ip_forward</title>
<path fill="none" stroke="black" d="M890.73,-449.04C909.21,-453.52 934.87,-459.74 956.44,-464.97"/>
<polygon fill="black" stroke="black" points="955.6,-468.36 966.15,-467.32 957.25,-461.56 955.6,-468.36"/>
</g>
<!-- dnat44&#45;&gt;ip_input_local -->
<g id="edge28" class="edge">
<title>dnat44&#45;&gt;ip_input_local</title>
<path fill="none" stroke="black" d="M882.35,-428.81C904.46,-409.72 944.03,-375.54 970.62,-352.57"/>
<polygon fill="black" stroke="black" points="972.68,-355.42 977.96,-346.24 968.1,-350.12 972.68,-355.42"/>
</g>
<!-- ip_forward&#45;&gt;ip_output -->
<g id="edge33" class="edge">
<title>ip_forward&#45;&gt;ip_output</title>
<path fill="none" stroke="black" d="M1032.46,-477.87C1091.23,-482.03 1218.39,-486.56 1320.7,-459.02 1335.94,-454.91 1351.64,-447.35 1364.62,-440.05"/>
<polygon fill="black" stroke="black" points="1366.22,-443.16 1373.07,-435.08 1362.68,-437.13 1366.22,-443.16"/>
</g>
<!-- icmp_input -->
<g id="node26" class="node">
<title>icmp_input</title>
<ellipse fill="none" stroke="black" cx="1120.66" cy="-345.02" rx="34.89" ry="18"/>
<text text-anchor="middle" x="1120.66" y="-341.32" font-family="sans" font-size="11.00">icmp_input</text>
</g>
<!-- ip_input_local&#45;&gt;icmp_input -->
<g id="edge39" class="edge">
<title>ip_input_local&#45;&gt;icmp_input</title>
<path fill="none" stroke="black" d="M1040.11,-334.39C1051.42,-335.9 1063.79,-337.55 1075.33,-339.09"/>
<polygon fill="black" stroke="black" points="1074.65,-342.53 1085.03,-340.39 1075.58,-335.6 1074.65,-342.53"/>
</g>
<!-- ipip_input -->
<g id="node29" class="node">
<title>ipip_input</title>
<ellipse fill="none" stroke="black" cx="1120.66" cy="-399.02" rx="31.1" ry="18"/>
<text text-anchor="middle" x="1120.66" y="-395.32" font-family="sans" font-size="11.00">ipip_input</text>
</g>
<!-- ip_input_local&#45;&gt;ipip_input -->
<g id="edge40" class="edge">
<title>ip_input_local&#45;&gt;ipip_input</title>
<path fill="none" stroke="black" d="M1025,-343.69C1043.46,-354.48 1068.66,-369.21 1088.42,-380.76"/>
<polygon fill="black" stroke="black" points="1086.49,-383.68 1096.89,-385.71 1090.02,-377.64 1086.49,-383.68"/>
</g>
<!-- l4_input_local -->
<g id="node30" class="node">
<title>l4_input_local</title>
<ellipse fill="none" stroke="black" cx="1120.66" cy="-291.02" rx="42.89" ry="18"/>
<text text-anchor="middle" x="1120.66" y="-287.32" font-family="sans" font-size="11.00">l4_input_local</text>
</g>
<!-- ip_input_local&#45;&gt;l4_input_local -->
<g id="edge41" class="edge">
<title>ip_input_local&#45;&gt;l4_input_local</title>
<path fill="none" stroke="black" d="M1033.89,-318.23C1046.66,-314.18 1061.38,-309.51 1074.97,-305.2"/>
<polygon fill="black" stroke="black" points="1075.66,-308.65 1084.13,-302.29 1073.54,-301.98 1075.66,-308.65"/>
</g>
<!-- icmp_input&#45;&gt;control_output -->
<g id="edge30" class="edge">
<title>icmp_input&#45;&gt;control_output</title>
<path fill="none" stroke="black" d="M1148.58,-333.79C1163.37,-328.11 1182.18,-321.66 1199.55,-318.02 1423.5,-271.05 1484.32,-290.24 1712.75,-277.02 1759.24,-274.33 1812.04,-272.5 1850.93,-271.4"/>
<polygon fill="black" stroke="black" points="1850.86,-274.9 1860.76,-271.12 1850.67,-267.9 1850.86,-274.9"/>
</g>
<!-- icmp_input&#45;&gt;icmp_output -->
<g id="edge29" class="edge">
<title>icmp_input&#45;&gt;icmp_output</title>
<path fill="none" stroke="black" d="M1156,-345.02C1172.04,-345.02 1191.46,-345.02 1209.1,-345.02"/>
<polygon fill="black" stroke="black" points="1208.87,-348.52 1218.87,-345.02 1208.87,-341.52 1208.87,-348.52"/>
</g>
<!-- icmp_output&#45;&gt;ip_output -->
<g id="edge32" class="edge">
<title>icmp_output&#45;&gt;ip_output</title>
<path fill="none" stroke="black" d="M1285.87,-359.13C1307.64,-371.55 1339.43,-389.68 1362.98,-403.11"/>
<polygon fill="black" stroke="black" points="1361.1,-406.07 1371.52,-407.98 1364.57,-399.99 1361.1,-406.07"/>
</g>
<!-- ip_hold&#45;&gt;control_output -->
<g id="edge34" class="edge">
<title>ip_hold&#45;&gt;control_output</title>
<path fill="none" stroke="black" d="M1540.53,-368.5C1595.59,-370.67 1726.55,-370.8 1826.32,-331.02 1847.27,-322.66 1867.57,-307.43 1882.64,-294.28"/>
<polygon fill="black" stroke="black" points="1884.67,-297.15 1889.75,-287.85 1879.98,-291.96 1884.67,-297.15"/>
</g>
<!-- ipip_input&#45;&gt;ip_input -->
<g id="edge72" class="edge">
<title>ipip_input&#45;&gt;ip_input</title>
<path fill="none" stroke="black" d="M1090.15,-394.94C1035.01,-387.89 912.64,-374.92 809.81,-383.02 792.6,-384.37 773.69,-387.18 757.78,-389.94"/>
<polygon fill="black" stroke="black" points="757.52,-386.43 748.29,-391.64 758.75,-393.32 757.52,-386.43"/>
</g>
<!-- l4_loopback_output -->
<g id="node43" class="node">
<title>l4_loopback_output</title>
<ellipse fill="none" stroke="black" cx="1260.12" cy="-199.02" rx="60.57" ry="18"/>
<text text-anchor="middle" x="1260.12" y="-195.32" font-family="sans" font-size="11.00">l4_loopback_output</text>
</g>
<!-- l4_input_local&#45;&gt;l4_loopback_output -->
<g id="edge74" class="edge">
<title>l4_input_local&#45;&gt;l4_loopback_output</title>
<path fill="none" stroke="black" d="M1144.67,-275.62C1166.53,-260.99 1199.69,-238.8 1224.7,-222.06"/>
<polygon fill="black" stroke="black" points="1226.56,-225.02 1232.92,-216.55 1222.66,-219.21 1226.56,-225.02"/>
</g>
<!-- ipip_output&#45;&gt;ip_output -->
<g id="edge73" class="edge">
<title>ipip_output&#45;&gt;ip_output</title>
<path fill="none" stroke="black" d="M1479.6,-427.16C1466.02,-427.85 1450.15,-427.95 1435.92,-427.45"/>
<polygon fill="black" stroke="black" points="1436.12,-423.96 1425.96,-426.97 1435.78,-430.95 1436.12,-423.96"/>
</g>
<!-- sr6_headend&#45;&gt;ip6_output -->
<g id="edge82" class="edge">
<title>sr6_headend&#45;&gt;ip6_output</title>
<path fill="none" stroke="black" d="M1552.12,-468.69C1564.46,-468.19 1578.25,-468.13 1590.93,-468.51"/>
<polygon fill="black" stroke="black" points="1590.54,-472 1600.68,-468.92 1590.84,-465.01 1590.54,-472"/>
</g>
<!-- icmp6_input -->
<g id="node33" class="node">
<title>icmp6_input</title>
<ellipse fill="none" stroke="black" cx="1395.37" cy="-31.02" rx="38.68" ry="18"/>
<text text-anchor="middle" x="1395.37" y="-27.32" font-family="sans" font-size="11.00">icmp6_input</text>
</g>
<!-- icmp6_input&#45;&gt;control_output -->
<g id="edge51" class="edge">
<title>icmp6_input&#45;&gt;control_output</title>
<path fill="none" stroke="black" d="M1429.56,-22.13C1509.82,-2.86 1715.95,33.08 1826.32,-72.02 1874.79,-118.18 1895.28,-197.41 1903.17,-240.32"/>
<polygon fill="black" stroke="black" points="1899.71,-240.9 1904.85,-250.16 1906.61,-239.71 1899.71,-240.9"/>
</g>
<!-- icmp6_input&#45;&gt;icmp6_output -->
<g id="edge47" class="edge">
<title>icmp6_input&#45;&gt;icmp6_output</title>
<path fill="none" stroke="black" d="M1416.6,-46.22C1422.58,-51.22 1428.89,-57.03 1434.05,-63.02 1453.85,-86 1449.6,-98.6 1470.05,-121.02 1473.1,-124.37 1476.55,-127.61 1480.12,-130.67"/>
<polygon fill="black" stroke="black" points="1477.92,-133.39 1487.92,-136.88 1482.28,-127.91 1477.92,-133.39"/>
</g>
<!-- ndp_ns_input -->
<g id="node35" class="node">
<title>ndp_ns_input</title>
<ellipse fill="none" stroke="black" cx="1634.71" cy="-193.02" rx="41.62" ry="18"/>
<text text-anchor="middle" x="1634.71" y="-189.32" font-family="sans" font-size="11.00">ndp_ns_input</text>
</g>
<!-- icmp6_input&#45;&gt;ndp_ns_input -->
<g id="edge48" class="edge">
<title>icmp6_input&#45;&gt;ndp_ns_input</title>
<path fill="none" stroke="black" d="M1415.1,-46.76C1434.93,-63.34 1464.15,-87.53 1470.05,-91.02 1505.79,-112.14 1521.26,-104.32 1556.66,-126.02 1567.38,-132.58 1589.86,-152.43 1607.79,-168.83"/>
<polygon fill="black" stroke="black" points="1605.31,-171.31 1615.04,-175.51 1610.05,-166.16 1605.31,-171.31"/>
</g>
<!-- ndp_na_input -->
<g id="node36" class="node">
<title>ndp_na_input</title>
<ellipse fill="none" stroke="black" cx="1634.71" cy="-126.02" rx="42.04" ry="18"/>
<text text-anchor="middle" x="1634.71" y="-122.32" font-family="sans" font-size="11.00">ndp_na_input</text>
</g>
<!-- icmp6_input&#45;&gt;ndp_na_input -->
<g id="edge49" class="edge">
<title>icmp6_input&#45;&gt;ndp_na_input</title>
<path fill="none" stroke="black" d="M1426.34,-42.24C1458.63,-54.43 1511.48,-74.61 1556.66,-93.02 1568.84,-97.98 1582.01,-103.55 1593.97,-108.68"/>
<polygon fill="black" stroke="black" points="1592.58,-111.89 1603.15,-112.64 1595.35,-105.46 1592.58,-111.89"/>
</g>
<!-- ndp_rs_input -->
<g id="node37" class="node">
<title>ndp_rs_input</title>
<ellipse fill="none" stroke="black" cx="1634.71" cy="-46.02" rx="40.36" ry="18"/>
<text text-anchor="middle" x="1634.71" y="-42.32" font-family="sans" font-size="11.00">ndp_rs_input</text>
</g>
<!-- icmp6_input&#45;&gt;ndp_rs_input -->
<g id="edge50" class="edge">
<title>icmp6_input&#45;&gt;ndp_rs_input</title>
<path fill="none" stroke="black" d="M1433.98,-33.39C1474.17,-35.93 1538.14,-39.98 1582.82,-42.8"/>
<polygon fill="black" stroke="black" points="1582.59,-46.29 1592.79,-43.43 1583.03,-39.31 1582.59,-46.29"/>
</g>
<!-- icmp6_output&#45;&gt;ip6_output -->
<g id="edge52" class="edge">
<title>icmp6_output&#45;&gt;ip6_output</title>
<path fill="none" stroke="black" d="M1520.94,-170.79C1540.63,-223.9 1599.14,-381.75 1623.19,-446.66"/>
<polygon fill="black" stroke="black" points="1619.86,-447.72 1626.61,-455.88 1626.42,-445.29 1619.86,-447.72"/>
</g>
<!-- ndp_ns_input&#45;&gt;control_output -->
<g id="edge69" class="edge">
<title>ndp_ns_input&#45;&gt;control_output</title>
<path fill="none" stroke="black" d="M1675.15,-197.93C1714.22,-203.49 1775.43,-214.03 1826.32,-231.02 1841.46,-236.07 1857.43,-243.29 1871.17,-250.14"/>
<polygon fill="black" stroke="black" points="1869.35,-253.14 1879.85,-254.58 1872.54,-246.91 1869.35,-253.14"/>
</g>
<!-- ndp_na_input&#45;&gt;control_output -->
<g id="edge67" class="edge">
<title>ndp_na_input&#45;&gt;control_output</title>
<path fill="none" stroke="black" d="M1670.73,-135.67C1710.26,-147.44 1775.64,-169.59 1826.32,-200.02 1847.19,-212.55 1867.95,-230.55 1883.25,-245.15"/>
<polygon fill="black" stroke="black" points="1880.48,-247.33 1890.08,-251.81 1885.36,-242.32 1880.48,-247.33"/>
</g>
<!-- ndp_rs_input&#45;&gt;control_output -->
<g id="edge71" class="edge">
<title>ndp_rs_input&#45;&gt;control_output</title>
<path fill="none" stroke="black" d="M1667.38,-56.9C1707.82,-72 1778.3,-102.44 1826.32,-146.02 1856.6,-173.5 1880.6,-214.64 1894.44,-241.9"/>
<polygon fill="black" stroke="black" points="1891.17,-243.18 1898.74,-250.59 1897.45,-240.08 1891.17,-243.18"/>
</g>
<!-- ip6_forward&#45;&gt;ip6_output -->
<g id="edge54" class="edge">
<title>ip6_forward&#45;&gt;ip6_output</title>
<path fill="none" stroke="black" d="M902.01,-531.77C951.19,-527.63 1042.01,-521.02 1119.66,-521.02 1119.66,-521.02 1119.66,-521.02 1396.37,-521.02 1468.11,-521.02 1486.77,-518.2 1556.66,-502.02 1569.91,-498.95 1584.04,-494.39 1596.54,-489.89"/>
<polygon fill="black" stroke="black" points="1597.46,-493.28 1605.62,-486.51 1595.02,-486.72 1597.46,-493.28"/>
</g>
<!-- ip6_hold&#45;&gt;control_output -->
<g id="edge55" class="edge">
<title>ip6_hold&#45;&gt;control_output</title>
<path fill="none" stroke="black" d="M1792.2,-397.68C1803.09,-391.89 1816.11,-384.03 1826.32,-375.02 1852.36,-352.03 1875.9,-319.72 1890.86,-297.03"/>
<polygon fill="black" stroke="black" points="1893.61,-299.22 1896.09,-288.92 1887.73,-295.42 1893.61,-299.22"/>
</g>
<!-- ip6_input_local&#45;&gt;l4_input_local -->
<g id="edge60" class="edge">
<title>ip6_input_local&#45;&gt;l4_input_local</title>
<path fill="none" stroke="black" d="M451.71,-395.75C467.42,-386.91 488.34,-376.32 508.15,-370.02 699.99,-308.93 755.85,-323.76 956,-302.02 992.69,-298.03 1034.17,-295.26 1066.19,-293.5"/>
<polygon fill="black" stroke="black" points="1066.22,-297 1076.02,-292.97 1065.85,-290.01 1066.22,-297"/>
</g>
<!-- ip6_input_local&#45;&gt;icmp6_input -->
<g id="edge59" class="edge">
<title>ip6_input_local&#45;&gt;icmp6_input</title>
<path fill="none" stroke="black" d="M439.84,-393.61C454.59,-375.65 480.01,-348.17 508.15,-333.02 614.8,-275.57 658.01,-307.59 773.81,-272.02 999.6,-202.65 1260.39,-90.44 1356.39,-48"/>
<polygon fill="black" stroke="black" points="1357.63,-51.28 1365.36,-44.03 1354.8,-44.88 1357.63,-51.28"/>
</g>
<!-- sr6_local -->
<g id="node41" class="node">
<title>sr6_local</title>
<ellipse fill="none" stroke="black" cx="569.56" cy="-397.02" rx="28.57" ry="18"/>
<text text-anchor="middle" x="569.56" y="-393.32" font-family="sans" font-size="11.00">sr6_local</text>
</g>
<!-- ip6_input_local&#45;&gt;sr6_local -->
<g id="edge61" class="edge">
<title>ip6_input_local&#45;&gt;sr6_local</title>
<path fill="none" stroke="black" d="M464.92,-401.15C484.98,-398.28 509.47,-395.86 529.61,-394.76"/>
<polygon fill="black" stroke="black" points="529.54,-398.26 539.38,-394.33 529.24,-391.27 529.54,-398.26"/>
</g>
<!-- sr6_local_srh -->
<g id="node42" class="node">
<title>sr6_local_srh</title>
<ellipse fill="none" stroke="black" cx="569.56" cy="-451.02" rx="41.2" ry="18"/>
<text text-anchor="middle" x="569.56" y="-447.32" font-family="sans" font-size="11.00">sr6_local_srh</text>
</g>
<!-- ip6_input_local&#45;&gt;sr6_local_srh -->
<g id="edge62" class="edge">
<title>ip6_input_local&#45;&gt;sr6_local_srh</title>
<path fill="none" stroke="black" d="M469.88,-416.96C489.16,-421.69 511.66,-428.1 530.31,-434.18"/>
<polygon fill="black" stroke="black" points="529.04,-437.45 539.64,-437.33 531.28,-430.82 529.04,-437.45"/>
</g>
<!-- sr6_local&#45;&gt;ip_input -->
<g id="edge76" class="edge">
<title>sr6_local&#45;&gt;ip_input</title>
<path fill="none" stroke="black" d="M598.56,-397.02C622.07,-397.02 655.88,-397.02 681.76,-397.02"/>
<polygon fill="black" stroke="black" points="681.51,-400.52 691.51,-397.02 681.51,-393.52 681.51,-400.52"/>
</g>
<!-- sr6_local&#45;&gt;ip6_input -->
<g id="edge77" class="edge">
<title>sr6_local&#45;&gt;ip6_input</title>
<path fill="none" stroke="black" d="M543.61,-388.82C506.36,-377.98 434.61,-362.63 378.79,-384.02 353.76,-393.61 331.6,-414.87 316.77,-431.98"/>
<polygon fill="black" stroke="black" points="314.38,-429.38 310.67,-439.31 319.76,-433.86 314.38,-429.38"/>
</g>
<!-- sr6_local&#45;&gt;ip6_input_local -->
<g id="edge78" class="edge">
<title>sr6_local&#45;&gt;ip6_input_local</title>
<path fill="none" stroke="black" d="M543.6,-404.76C526.99,-407.65 504.45,-410.32 483.58,-412.02"/>
<polygon fill="black" stroke="black" points="483.44,-408.52 473.72,-412.75 483.95,-415.5 483.44,-408.52"/>
</g>
<!-- sr6_local_srh&#45;&gt;ip_input -->
<g id="edge79" class="edge">
<title>sr6_local_srh&#45;&gt;ip_input</title>
<path fill="none" stroke="black" d="M602.13,-439.56C626.54,-430.7 660.3,-418.46 685.33,-409.38"/>
<polygon fill="black" stroke="black" points="686.52,-412.67 694.73,-405.97 684.13,-406.09 686.52,-412.67"/>
</g>
<!-- sr6_local_srh&#45;&gt;ip6_input -->
<g id="edge80" class="edge">
<title>sr6_local_srh&#45;&gt;ip6_input</title>
<path fill="none" stroke="black" d="M528.3,-451.91C476.97,-453.04 388.75,-455 337.54,-456.13"/>
<polygon fill="black" stroke="black" points="337.72,-452.63 327.8,-456.35 337.87,-459.62 337.72,-452.63"/>
</g>
<!-- sr6_local_srh&#45;&gt;ip6_input_local -->
<g id="edge81" class="edge">
<title>sr6_local_srh&#45;&gt;ip6_input_local</title>
<path fill="none" stroke="black" d="M529.37,-446.09C509.97,-441.47 486.57,-434.9 466.99,-428.58"/>
<polygon fill="black" stroke="black" points="468.29,-425.33 457.69,-425.49 466.08,-431.97 468.29,-425.33"/>
</g>
<!-- l4_loopback_output&#45;&gt;loopback_output -->
<g id="edge75" class="edge">
<title>l4_loopback_output&#45;&gt;loopback_output</title>
<path fill="none" stroke="black" d="M1310.7,-209.28C1405.91,-228.98 1613.7,-271.98 1713.23,-292.57"/>
<polygon fill="black" stroke="black" points="1712.26,-295.95 1722.76,-294.54 1713.68,-289.09 1712.26,-295.95"/>
</g>
</g>
</svg>
