<?xml version="1.0" encoding="UTF-8" standalone="no"?>
<!DOCTYPE svg PUBLIC "-//W3C//DTD SVG 1.1//EN"
 "http://www.w3.org/Graphics/SVG/1.1/DTD/svg11.dtd">
<!-- Generated by graphviz version 2.43.0 (0)
 -->
<!-- Title: gr&#45;0002 Pages: 1 -->
<svg width="2101pt" height="854pt"
 viewBox="0.00 0.00 2101.45 854.00" xmlns="http://www.w3.org/2000/svg" xmlns:xlink="http://www.w3.org/1999/xlink">
<g id="graph0" class="graph" transform="scale(1 1) rotate(0) translate(4 850)">
<title>gr&#45;0002</title>
<polygon fill="white" stroke="transparent" points="-4,4 -4,-850 2097.45,-850 2097.45,4 -4,4"/>
<!-- control_input -->
<g id="node1" class="node">
<title>control_input</title>
<ellipse fill="none" stroke="blue" stroke-width="2" cx="40.16" cy="-679" rx="40.32" ry="18"/>
<text text-anchor="middle" x="40.16" y="-676.2" font-family="sans" font-size="11.00">control_input</text>
</g>
<!-- kernel_input -->
<g id="node2" class="node">
<title>kernel_input</title>
<ellipse fill="none" stroke="black" cx="153.77" cy="-568" rx="37.4" ry="18"/>
<text text-anchor="middle" x="153.77" y="-565.2" font-family="sans" font-size="11.00">kernel_input</text>
</g>
<!-- control_input&#45;&gt;kernel_input -->
<g id="edge1" class="edge">
<title>control_input&#45;&gt;kernel_input</title>
<path fill="none" stroke="blue" stroke-width="2" d="M57.56,-662.59C72.77,-647.38 96.05,-624.13 116.32,-604 120.43,-599.93 124.79,-595.6 129.03,-591.41"/>
<polygon fill="blue" stroke="blue" stroke-width="2" points="131.77,-593.63 136.42,-584.11 126.85,-588.65 131.77,-593.63"/>
</g>
<!-- arp_output_request -->
<g id="node3" class="node">
<title>arp_output_request</title>
<ellipse fill="none" stroke="black" cx="1387.55" cy="-110" rx="59.31" ry="18"/>
<text text-anchor="middle" x="1387.55" y="-107.2" font-family="sans" font-size="11.00">arp_output_request</text>
</g>
<!-- control_input&#45;&gt;arp_output_request -->
<g id="edge2" class="edge">
<title>control_input&#45;&gt;arp_output_request</title>
<path fill="none" stroke="blue" stroke-width="2" d="M42.2,-661C46.85,-585.28 67.69,-293.09 116.32,-217 161.65,-146.08 193.6,-118 277.78,-118 277.78,-118 277.78,-118 1140.71,-118 1200.91,-118 1269.36,-115.57 1318.71,-113.39"/>
<polygon fill="blue" stroke="blue" stroke-width="2" points="1319.11,-116.88 1328.95,-112.93 1318.8,-109.89 1319.11,-116.88"/>
</g>
<!-- icmp_local_send -->
<g id="node4" class="node">
<title>icmp_local_send</title>
<ellipse fill="none" stroke="black" cx="415.72" cy="-614" rx="49.28" ry="18"/>
<text text-anchor="middle" x="415.72" y="-611.2" font-family="sans" font-size="11.00">icmp_local_send</text>
</g>
<!-- control_input&#45;&gt;icmp_local_send -->
<g id="edge3" class="edge">
<title>control_input&#45;&gt;icmp_local_send</title>
<path fill="none" stroke="blue" stroke-width="2" d="M66.88,-665.35C81.08,-658.43 99.25,-650.55 116.32,-646 197.71,-624.33 295.29,-617.26 356.17,-615"/>
<polygon fill="blue" stroke="blue" stroke-width="2" points="356.48,-618.5 366.35,-614.66 356.24,-611.5 356.48,-618.5"/>
</g>
<!-- icmp6_local_send -->
<g id="node5" class="node">
<title>icmp6_local_send</title>
<ellipse fill="none" stroke="black" cx="776.09" cy="-782" rx="53.37" ry="18"/>
<text text-anchor="middle" x="776.09" y="-779.2" font-family="sans" font-size="11.00">icmp6_local_send</text>
</g>
<!-- control_input&#45;&gt;icmp6_local_send -->
<g id="edge4" class="edge">
<title>control_input&#45;&gt;icmp6_local_send</title>
<path fill="none" stroke="blue" stroke-width="2" d="M54.11,-696.04C67.7,-712.62 90.64,-737.14 116.32,-750 181.44,-782.61 204.95,-778 277.78,-778 277.78,-778 277.78,-778 543.36,-778 600.59,-778 665.76,-779.23 712.38,-780.33"/>
<polygon fill="blue" stroke="blue" stroke-width="2" points="712.55,-783.84 722.63,-780.58 712.72,-776.84 712.55,-783.84"/>
</g>
<!-- ndp_ns_output -->
<g id="node6" class="node">
<title>ndp_ns_output</title>
<ellipse fill="none" stroke="black" cx="909.78" cy="-744" rx="44.51" ry="18"/>
<text text-anchor="middle" x="909.78" y="-741.2" font-family="sans" font-size="11.00">ndp_ns_output</text>
</g>
<!-- control_input&#45;&gt;ndp_ns_output -->
<g id="edge5" class="edge">
<title>control_input&#45;&gt;ndp_ns_output</title>
<path fill="none" stroke="blue" stroke-width="2" d="M67.3,-692.53C81.47,-699.34 99.48,-707.14 116.32,-712 186.03,-732.09 205.23,-736 277.78,-736 277.78,-736 277.78,-736 654.25,-736 723.74,-736 803.84,-739.02 855.33,-741.34"/>
<polygon fill="blue" stroke="blue" stroke-width="2" points="855.41,-744.85 865.56,-741.81 855.73,-737.86 855.41,-744.85"/>
</g>
<!-- ip_output -->
<g id="node7" class="node">
<title>ip_output</title>
<ellipse fill="none" stroke="black" cx="909.78" cy="-397" rx="29.12" ry="18"/>
<text text-anchor="middle" x="909.78" y="-394.2" font-family="sans" font-size="11.00">ip_output</text>
</g>
<!-- control_input&#45;&gt;ip_output -->
<g id="edge6" class="edge">
<title>control_input&#45;&gt;ip_output</title>
<path fill="none" stroke="blue" stroke-width="2" d="M80.17,-680.77C156.12,-683.08 328.34,-682.72 465.11,-641 636.51,-588.71 816.26,-464.98 882.38,-416.74"/>
<polygon fill="blue" stroke="blue" stroke-width="2" points="884.6,-419.46 890.59,-410.72 880.46,-413.81 884.6,-419.46"/>
</g>
<!-- arp_output_reply -->
<g id="node8" class="node">
<title>arp_output_reply</title>
<ellipse fill="none" stroke="black" cx="278.78" cy="-72" rx="51.62" ry="18"/>
<text text-anchor="middle" x="278.78" y="-69.2" font-family="sans" font-size="11.00">arp_output_reply</text>
</g>
<!-- control_input&#45;&gt;arp_output_reply -->
<g id="edge7" class="edge">
<title>control_input&#45;&gt;arp_output_reply</title>
<path fill="none" stroke="blue" stroke-width="2" d="M40.82,-660.88C39.52,-572.44 38.48,-187.13 116.32,-104 142.01,-76.57 183.92,-68.88 218.6,-67.88"/>
<polygon fill="blue" stroke="blue" stroke-width="2" points="218.67,-71.38 228.63,-67.77 218.6,-64.38 218.67,-71.38"/>
</g>
<!-- ip6_output -->
<g id="node9" class="node">
<title>ip6_output</title>
<ellipse fill="none" stroke="black" cx="1780.48" cy="-630" rx="32.63" ry="18"/>
<text text-anchor="middle" x="1780.48" y="-627.2" font-family="sans" font-size="11.00">ip6_output</text>
</g>
<!-- control_input&#45;&gt;ip6_output -->
<g id="edge8" class="edge">
<title>control_input&#45;&gt;ip6_output</title>
<path fill="none" stroke="blue" stroke-width="2" d="M54.63,-696.22C67.81,-715.96 89.77,-747.38 116.32,-767 178.01,-812.59 201.07,-828 277.78,-828 277.78,-828 277.78,-828 1524.95,-828 1612.88,-828 1636.49,-798.49 1702.15,-740 1729.11,-715.98 1750.54,-680.47 1763.94,-656.18"/>
<polygon fill="blue" stroke="blue" stroke-width="2" points="1767.15,-657.61 1768.85,-647.15 1761,-654.26 1767.15,-657.61"/>
</g>
<!-- control_input&#45;&gt;ip6_output -->
<g id="edge10" class="edge">
<title>control_input&#45;&gt;ip6_output</title>
<path fill="none" stroke="blue" stroke-width="2" d="M47.8,-697.06C59.22,-720.92 84.45,-761.45 116.32,-785 178.01,-830.59 201.07,-846 277.78,-846 277.78,-846 277.78,-846 1524.95,-846 1612.88,-846 1636.49,-816.49 1702.15,-758 1733.74,-729.85 1757.75,-685.91 1770.13,-657.32"/>
<polygon fill="blue" stroke="blue" stroke-width="2" points="1773.44,-658.48 1774.02,-647.9 1766.97,-655.81 1773.44,-658.48"/>
</g>
<!-- ndp_na_output -->
<g id="node10" class="node">
<title>ndp_na_output</title>
<ellipse fill="none" stroke="black" cx="1139.71" cy="-706" rx="45.09" ry="18"/>
<text text-anchor="middle" x="1139.71" y="-703.2" font-family="sans" font-size="11.00">ndp_na_output</text>
</g>
<!-- control_input&#45;&gt;ndp_na_output -->
<g id="edge9" class="edge">
<title>control_input&#45;&gt;ndp_na_output</title>
<path fill="none" stroke="blue" stroke-width="2" d="M79.2,-683.94C125.88,-689.57 207.51,-698 277.78,-698 277.78,-698 277.78,-698 910.78,-698 970.41,-698 1038.77,-700.77 1084.95,-703.05"/>
<polygon fill="blue" stroke="blue" stroke-width="2" points="1084.87,-706.55 1095.03,-703.56 1085.22,-699.56 1084.87,-706.55"/>
</g>
<!-- ip_input -->
<g id="node14" class="node">
<title>ip_input</title>
<ellipse fill="none" stroke="black" cx="278.78" cy="-328" rx="27" ry="18"/>
<text text-anchor="middle" x="278.78" y="-325.2" font-family="sans" font-size="11.00">ip_input</text>
</g>
<!-- kernel_input&#45;&gt;ip_input -->
<g id="edge16" class="edge">
<title>kernel_input&#45;&gt;ip_input</title>
<path fill="none" stroke="black" d="M163.82,-550.35C185.25,-508.54 239.2,-403.27 264.41,-354.08"/>
<polygon fill="black" stroke="black" points="267.6,-355.52 269.05,-345.03 261.37,-352.33 267.6,-355.52"/>
</g>
<!-- ip6_input -->
<g id="node15" class="node">
<title>ip6_input</title>
<ellipse fill="none" stroke="black" cx="1139.71" cy="-549" rx="28.44" ry="18"/>
<text text-anchor="middle" x="1139.71" y="-546.2" font-family="sans" font-size="11.00">ip6_input</text>
</g>
<!-- kernel_input&#45;&gt;ip6_input -->
<g id="edge17" class="edge">
<title>kernel_input&#45;&gt;ip6_input</title>
<path fill="none" stroke="black" d="M191.08,-570.22C249.02,-573.77 365.97,-580.93 465.11,-587 602.88,-595.44 637.06,-606 775.09,-606 775.09,-606 775.09,-606 910.78,-606 977.51,-606 994.38,-597.91 1058.66,-580 1074.76,-575.51 1092.11,-569.01 1106.53,-563.12"/>
<polygon fill="black" stroke="black" points="1108.11,-566.25 1115.99,-559.17 1105.42,-559.79 1108.11,-566.25"/>
</g>
<!-- eth_output -->
<g id="node16" class="node">
<title>eth_output</title>
<ellipse fill="none" stroke="black" cx="1913.63" cy="-90" rx="33.8" ry="18"/>
<text text-anchor="middle" x="1913.63" y="-87.2" font-family="sans" font-size="11.00">eth_output</text>
</g>
<!-- arp_output_request&#45;&gt;eth_output -->
<g id="edge28" class="edge">
<title>arp_output_request&#45;&gt;eth_output</title>
<path fill="none" stroke="black" d="M1446.39,-107.79C1552.5,-103.74 1776.01,-95.21 1869.78,-91.63"/>
<polygon fill="black" stroke="black" points="1870.17,-95.12 1880.03,-91.24 1869.91,-88.13 1870.17,-95.12"/>
</g>
<!-- icmp_output -->
<g id="node28" class="node">
<title>icmp_output</title>
<ellipse fill="none" stroke="black" cx="776.09" cy="-332" rx="37.98" ry="18"/>
<text text-anchor="middle" x="776.09" y="-329.2" font-family="sans" font-size="11.00">icmp_output</text>
</g>
<!-- icmp_local_send&#45;&gt;icmp_output -->
<g id="edge33" class="edge">
<title>icmp_local_send&#45;&gt;icmp_output</title>
<path fill="none" stroke="black" d="M437.54,-597.62C498.71,-549.48 677.95,-408.44 747.27,-353.89"/>
<polygon fill="black" stroke="black" points="749.85,-356.32 755.54,-347.38 745.52,-350.81 749.85,-356.32"/>
</g>
<!-- icmp6_output -->
<g id="node35" class="node">
<title>icmp6_output</title>
<ellipse fill="none" stroke="black" cx="1651.67" cy="-722" rx="41.58" ry="18"/>
<text text-anchor="middle" x="1651.67" y="-719.2" font-family="sans" font-size="11.00">icmp6_output</text>
</g>
<!-- icmp6_local_send&#45;&gt;icmp6_output -->
<g id="edge55" class="edge">
<title>icmp6_local_send&#45;&gt;icmp6_output</title>
<path fill="none" stroke="black" d="M828.98,-784.66C878.83,-786.99 956.28,-790 1023.47,-790 1023.47,-790 1023.47,-790 1388.55,-790 1470.31,-790 1561.95,-758.62 1612.32,-738.49"/>
<polygon fill="black" stroke="black" points="1613.88,-741.64 1621.83,-734.63 1611.24,-735.15 1613.88,-741.64"/>
</g>
<!-- ndp_ns_output&#45;&gt;icmp6_output -->
<g id="edge71" class="edge">
<title>ndp_ns_output&#45;&gt;icmp6_output</title>
<path fill="none" stroke="black" d="M954.03,-746.42C999.87,-748.78 1074.37,-752 1138.71,-752 1138.71,-752 1138.71,-752 1388.55,-752 1463.91,-752 1550.68,-739.61 1603.06,-730.75"/>
<polygon fill="black" stroke="black" points="1603.8,-734.18 1613.06,-729.03 1602.61,-727.28 1603.8,-734.18"/>
</g>
<!-- ip_output&#45;&gt;eth_output -->
<g id="edge44" class="edge">
<title>ip_output&#45;&gt;eth_output</title>
<path fill="none" stroke="black" d="M927.97,-382.53C943.37,-370.29 967.04,-353.16 990.28,-343 1071.57,-307.47 1098.86,-320.2 1184.75,-298 1450.09,-229.44 1766.1,-134.56 1874.19,-101.73"/>
<polygon fill="black" stroke="black" points="1875.44,-105.01 1883.99,-98.75 1873.4,-98.31 1875.44,-105.01"/>
</g>
<!-- vrf_output -->
<g id="node21" class="node">
<title>vrf_output</title>
<ellipse fill="none" stroke="black" cx="1024.47" cy="-553" rx="32.04" ry="18"/>
<text text-anchor="middle" x="1024.47" y="-550.2" font-family="sans" font-size="11.00">vrf_output</text>
</g>
<!-- ip_output&#45;&gt;vrf_output -->
<g id="edge46" class="edge">
<title>ip_output&#45;&gt;vrf_output</title>
<path fill="none" stroke="black" d="M922.62,-413.4C942.36,-440.71 982.08,-495.7 1005.35,-527.91"/>
<polygon fill="black" stroke="black" points="1002.75,-530.29 1011.44,-536.35 1008.43,-526.19 1002.75,-530.29"/>
</g>
<!-- ip_hold -->
<g id="node29" class="node">
<title>ip_hold</title>
<ellipse fill="none" stroke="black" cx="1139.71" cy="-408" rx="27" ry="18"/>
<text text-anchor="middle" x="1139.71" y="-405.2" font-family="sans" font-size="11.00">ip_hold</text>
</g>
<!-- ip_output&#45;&gt;ip_hold -->
<g id="edge45" class="edge">
<title>ip_output&#45;&gt;ip_hold</title>
<path fill="none" stroke="black" d="M939.18,-398.37C980.5,-400.37 1057.18,-404.07 1102.5,-406.25"/>
<polygon fill="black" stroke="black" points="1102.61,-409.76 1112.77,-406.75 1102.95,-402.77 1102.61,-409.76"/>
</g>
<!-- ipip_output -->
<g id="node32" class="node">
<title>ipip_output</title>
<ellipse fill="none" stroke="black" cx="1024.47" cy="-370" rx="34.38" ry="18"/>
<text text-anchor="middle" x="1024.47" y="-367.2" font-family="sans" font-size="11.00">ipip_output</text>
</g>
<!-- ip_output&#45;&gt;ipip_output -->
<g id="edge47" class="edge">
<title>ip_output&#45;&gt;ipip_output</title>
<path fill="none" stroke="black" d="M933.31,-386.07C946.7,-381.76 964.12,-377.23 980.07,-373.81"/>
<polygon fill="black" stroke="black" points="981.19,-377.15 990.29,-371.73 979.8,-370.29 981.19,-377.15"/>
</g>
<!-- sr6_output -->
<g id="node33" class="node">
<title>sr6_output</title>
<ellipse fill="none" stroke="black" cx="1913.63" cy="-576" rx="33.21" ry="18"/>
<text text-anchor="middle" x="1913.63" y="-573.2" font-family="sans" font-size="11.00">sr6_output</text>
</g>
<!-- ip_output&#45;&gt;sr6_output -->
<g id="edge48" class="edge">
<title>ip_output&#45;&gt;sr6_output</title>
<path fill="none" stroke="black" d="M937.21,-403.65C952.64,-407.45 972.52,-412.2 990.28,-416 994.46,-416.89 1288.73,-470.8 1292.39,-473 1314.35,-486.2 1305.89,-505.78 1328.39,-518 1421.97,-568.82 1751.99,-575.32 1870.15,-575.99"/>
<polygon fill="black" stroke="black" points="1870.24,-579.49 1880.26,-576.04 1870.27,-572.49 1870.24,-579.49"/>
</g>
<!-- arp_output_reply&#45;&gt;eth_output -->
<g id="edge27" class="edge">
<title>arp_output_reply&#45;&gt;eth_output</title>
<path fill="none" stroke="black" d="M329.91,-69.56C382.55,-67.2 467.75,-64 541.36,-64 541.36,-64 541.36,-64 1652.67,-64 1730.11,-64 1819.89,-75.57 1871.1,-83.27"/>
<polygon fill="black" stroke="black" points="1870.7,-86.75 1881.11,-84.8 1871.76,-79.83 1870.7,-86.75"/>
</g>
<!-- ip6_output&#45;&gt;eth_output -->
<g id="edge64" class="edge">
<title>ip6_output&#45;&gt;eth_output</title>
<path fill="none" stroke="black" d="M1784.26,-611.93C1790.95,-568.4 1808.45,-454.3 1822.81,-359 1839.01,-251.47 1795.04,-205.07 1858.81,-117 1862.93,-111.31 1868.59,-106.75 1874.71,-103.11"/>
<polygon fill="black" stroke="black" points="1876.55,-106.1 1883.86,-98.43 1873.36,-99.87 1876.55,-106.1"/>
</g>
<!-- ip6_output&#45;&gt;vrf_output -->
<g id="edge66" class="edge">
<title>ip6_output&#45;&gt;vrf_output</title>
<path fill="none" stroke="black" d="M1751.53,-638.44C1704.99,-651.72 1608.48,-676 1524.95,-676 1386.55,-676 1386.55,-676 1386.55,-676 1312.38,-676 1291.57,-679.04 1220.75,-657 1157.36,-637.27 1090.54,-596.77 1053.83,-572.54"/>
<polygon fill="black" stroke="black" points="1055.42,-569.4 1045.16,-566.76 1051.54,-575.22 1055.42,-569.4"/>
</g>
<!-- ip6_output&#45;&gt;sr6_output -->
<g id="edge67" class="edge">
<title>ip6_output&#45;&gt;sr6_output</title>
<path fill="none" stroke="black" d="M1802.26,-616.35C1821.22,-606.84 1849.75,-594.7 1873.05,-586.04"/>
<polygon fill="black" stroke="black" points="1874.46,-589.25 1882.67,-582.56 1872.08,-582.67 1874.46,-589.25"/>
</g>
<!-- ip6_hold -->
<g id="node40" class="node">
<title>ip6_hold</title>
<ellipse fill="none" stroke="black" cx="1913.63" cy="-630" rx="27" ry="18"/>
<text text-anchor="middle" x="1913.63" y="-627.2" font-family="sans" font-size="11.00">ip6_hold</text>
</g>
<!-- ip6_output&#45;&gt;ip6_hold -->
<g id="edge65" class="edge">
<title>ip6_output&#45;&gt;ip6_hold</title>
<path fill="none" stroke="black" d="M1813.23,-630C1832.25,-630 1856.5,-630 1876.28,-630"/>
<polygon fill="black" stroke="black" points="1876.46,-633.5 1886.46,-630 1876.46,-626.5 1876.46,-633.5"/>
</g>
<!-- ndp_na_output&#45;&gt;icmp6_output -->
<g id="edge69" class="edge">
<title>ndp_na_output&#45;&gt;icmp6_output</title>
<path fill="none" stroke="black" d="M1184.63,-707.38C1278.78,-710.33 1499.61,-717.26 1599.73,-720.4"/>
<polygon fill="black" stroke="black" points="1599.79,-723.91 1609.89,-720.72 1600.01,-716.91 1599.79,-723.91"/>
</g>
<!-- control_output -->
<g id="node11" class="node">
<title>control_output</title>
<ellipse fill="none" stroke="black" cx="2048.94" cy="-359" rx="44.51" ry="18"/>
<text text-anchor="middle" x="2048.94" y="-356.2" font-family="sans" font-size="11.00">control_output</text>
</g>
<!-- eth_input -->
<g id="node12" class="node">
<title>eth_input</title>
<ellipse fill="none" stroke="black" cx="153.77" cy="-244" rx="29.12" ry="18"/>
<text text-anchor="middle" x="153.77" y="-241.2" font-family="sans" font-size="11.00">eth_input</text>
</g>
<!-- arp_input -->
<g id="node13" class="node">
<title>arp_input</title>
<ellipse fill="none" stroke="black" cx="1780.48" cy="-186" rx="29.12" ry="18"/>
<text text-anchor="middle" x="1780.48" y="-183.2" font-family="sans" font-size="11.00">arp_input</text>
</g>
<!-- eth_input&#45;&gt;arp_input -->
<g id="edge11" class="edge">
<title>eth_input&#45;&gt;arp_input</title>
<path fill="none" stroke="black" d="M175.53,-231.76C218.57,-207.58 321.34,-156 414.72,-156 414.72,-156 414.72,-156 1388.55,-156 1518.36,-156 1671.72,-172.65 1741.5,-181.14"/>
<polygon fill="black" stroke="black" points="1741.21,-184.63 1751.57,-182.38 1742.07,-177.69 1741.21,-184.63"/>
</g>
<!-- eth_input&#45;&gt;ip_input -->
<g id="edge12" class="edge">
<title>eth_input&#45;&gt;ip_input</title>
<path fill="none" stroke="black" d="M173.99,-257.12C194.6,-271.2 227.49,-293.66 250.71,-309.52"/>
<polygon fill="black" stroke="black" points="248.86,-312.49 259.09,-315.24 252.81,-306.71 248.86,-312.49"/>
</g>
<!-- eth_input&#45;&gt;ip6_input -->
<g id="edge13" class="edge">
<title>eth_input&#45;&gt;ip6_input</title>
<path fill="none" stroke="black" d="M162.5,-261.44C188.84,-317.89 280.93,-492 414.72,-492 414.72,-492 414.72,-492 910.78,-492 982.3,-492 1062.78,-518.74 1106.39,-535.59"/>
<polygon fill="black" stroke="black" points="1105.3,-538.92 1115.89,-539.33 1107.86,-532.41 1105.3,-538.92"/>
</g>
<!-- arp_input_request -->
<g id="node22" class="node">
<title>arp_input_request</title>
<ellipse fill="none" stroke="black" cx="1913.63" cy="-198" rx="54.63" ry="18"/>
<text text-anchor="middle" x="1913.63" y="-195.2" font-family="sans" font-size="11.00">arp_input_request</text>
</g>
<!-- arp_input&#45;&gt;arp_input_request -->
<g id="edge23" class="edge">
<title>arp_input&#45;&gt;arp_input_request</title>
<path fill="none" stroke="black" d="M1809.61,-188.57C1821.6,-189.67 1836.11,-191 1850.4,-192.31"/>
<polygon fill="black" stroke="black" points="1850.45,-195.83 1860.73,-193.25 1851.09,-188.85 1850.45,-195.83"/>
</g>
<!-- arp_input_reply -->
<g id="node23" class="node">
<title>arp_input_reply</title>
<ellipse fill="none" stroke="black" cx="1913.63" cy="-144" rx="47.43" ry="18"/>
<text text-anchor="middle" x="1913.63" y="-141.2" font-family="sans" font-size="11.00">arp_input_reply</text>
</g>
<!-- arp_input&#45;&gt;arp_input_reply -->
<g id="edge24" class="edge">
<title>arp_input&#45;&gt;arp_input_reply</title>
<path fill="none" stroke="black" d="M1806.76,-177.9C1823.91,-172.41 1847.05,-165 1867.32,-158.51"/>
<polygon fill="black" stroke="black" points="1868.55,-161.79 1877.01,-155.41 1866.41,-155.12 1868.55,-161.79"/>
</g>
<!-- ip_input&#45;&gt;ip_output -->
<g id="edge38" class="edge">
<title>ip_input&#45;&gt;ip_output</title>
<path fill="none" stroke="black" d="M298.66,-340.18C315.74,-350.72 341.88,-365.69 366.33,-375 441,-403.43 461.46,-416 541.36,-416 541.36,-416 541.36,-416 654.25,-416 731.4,-416 821.35,-407.21 870.99,-401.59"/>
<polygon fill="black" stroke="black" points="871.42,-405.06 880.96,-400.44 870.62,-398.11 871.42,-405.06"/>
</g>
<!-- dnat44 -->
<g id="node24" class="node">
<title>dnat44</title>
<ellipse fill="none" stroke="black" cx="415.72" cy="-328" rx="27" ry="18"/>
<text text-anchor="middle" x="415.72" y="-325.2" font-family="sans" font-size="11.00">dnat44</text>
</g>
<!-- ip_input&#45;&gt;dnat44 -->
<g id="edge40" class="edge">
<title>ip_input&#45;&gt;dnat44</title>
<path fill="none" stroke="black" d="M305.8,-328C326.38,-328 355.38,-328 378.28,-328"/>
<polygon fill="black" stroke="black" points="378.32,-331.5 388.32,-328 378.32,-324.5 378.32,-331.5"/>
</g>
<!-- ip_forward -->
<g id="node25" class="node">
<title>ip_forward</title>
<ellipse fill="none" stroke="black" cx="542.36" cy="-370" rx="32.63" ry="18"/>
<text text-anchor="middle" x="542.36" y="-367.2" font-family="sans" font-size="11.00">ip_forward</text>
</g>
<!-- ip_input&#45;&gt;ip_forward -->
<g id="edge37" class="edge">
<title>ip_input&#45;&gt;ip_forward</title>
<path fill="none" stroke="black" d="M302.57,-336.6C319.83,-342.75 344.25,-350.66 366.33,-355 411.41,-363.85 464.04,-367.48 499.72,-368.97"/>
<polygon fill="black" stroke="black" points="499.65,-372.47 509.77,-369.35 499.91,-365.47 499.65,-372.47"/>
</g>
<!-- ip_input_local -->
<g id="node26" class="node">
<title>ip_input_local</title>
<ellipse fill="none" stroke="black" cx="542.36" cy="-286" rx="41.49" ry="18"/>
<text text-anchor="middle" x="542.36" y="-283.2" font-family="sans" font-size="11.00">ip_input_local</text>
</g>
<!-- ip_input&#45;&gt;ip_input_local -->
<g id="edge39" class="edge">
<title>ip_input&#45;&gt;ip_input_local</title>
<path fill="none" stroke="black" d="M302.57,-319.4C319.83,-313.25 344.25,-305.34 366.33,-301 407.87,-292.84 455.82,-289.12 491.01,-287.42"/>
<polygon fill="black" stroke="black" points="491.21,-290.92 501.04,-286.98 490.9,-283.93 491.21,-290.92"/>
</g>
<!-- ip6_input&#45;&gt;ip6_output -->
<g id="edge59" class="edge">
<title>ip6_input&#45;&gt;ip6_output</title>
<path fill="none" stroke="black" d="M1166.38,-555.1C1210.91,-565.12 1305.5,-584 1386.55,-584 1386.55,-584 1386.55,-584 1524.95,-584 1602.93,-584 1692.23,-605.17 1741.62,-618.78"/>
<polygon fill="black" stroke="black" points="1740.96,-622.23 1751.53,-621.56 1742.85,-615.49 1740.96,-622.23"/>
</g>
<!-- ip6_forward -->
<g id="node39" class="node">
<title>ip6_forward</title>
<ellipse fill="none" stroke="black" cx="1256.57" cy="-630" rx="35.64" ry="18"/>
<text text-anchor="middle" x="1256.57" y="-627.2" font-family="sans" font-size="11.00">ip6_forward</text>
</g>
<!-- ip6_input&#45;&gt;ip6_forward -->
<g id="edge58" class="edge">
<title>ip6_input&#45;&gt;ip6_forward</title>
<path fill="none" stroke="black" d="M1159.42,-562.19C1177.63,-575.04 1205.58,-594.74 1226.65,-609.6"/>
<polygon fill="black" stroke="black" points="1224.74,-612.54 1234.93,-615.44 1228.77,-606.82 1224.74,-612.54"/>
</g>
<!-- ip6_input_local -->
<g id="node41" class="node">
<title>ip6_input_local</title>
<ellipse fill="none" stroke="black" cx="1387.55" cy="-491" rx="45.09" ry="18"/>
<text text-anchor="middle" x="1387.55" y="-488.2" font-family="sans" font-size="11.00">ip6_input_local</text>
</g>
<!-- ip6_input&#45;&gt;ip6_input_local -->
<g id="edge60" class="edge">
<title>ip6_input&#45;&gt;ip6_input_local</title>
<path fill="none" stroke="black" d="M1167.92,-546.88C1198.56,-544.07 1249.65,-538.13 1292.39,-527 1310.94,-522.17 1330.85,-514.89 1347.56,-508.13"/>
<polygon fill="black" stroke="black" points="1349.09,-511.29 1357,-504.24 1346.42,-504.82 1349.09,-511.29"/>
</g>
<!-- sr6_local -->
<g id="node42" class="node">
<title>sr6_local</title>
<ellipse fill="none" stroke="black" cx="1256.57" cy="-500" rx="27.86" ry="18"/>
<text text-anchor="middle" x="1256.57" y="-497.2" font-family="sans" font-size="11.00">sr6_local</text>
</g>
<!-- ip6_input&#45;&gt;sr6_local -->
<g id="edge61" class="edge">
<title>ip6_input&#45;&gt;sr6_local</title>
<path fill="none" stroke="black" d="M1159.42,-535.88C1175.92,-527.18 1200.4,-516.36 1220.53,-508.68"/>
<polygon fill="black" stroke="black" points="1221.83,-511.93 1230,-505.18 1219.41,-505.36 1221.83,-511.93"/>
</g>
<!-- port_tx -->
<g id="node17" class="node">
<title>port_tx</title>
<ellipse fill="none" stroke="black" cx="2048.94" cy="-60" rx="27" ry="18"/>
<text text-anchor="middle" x="2048.94" y="-57.2" font-family="sans" font-size="11.00">port_tx</text>
</g>
<!-- eth_output&#45;&gt;port_tx -->
<g id="edge14" class="edge">
<title>eth_output&#45;&gt;port_tx</title>
<path fill="none" stroke="black" d="M1944.88,-83.19C1965.21,-78.62 1992.07,-72.57 2013.27,-67.8"/>
<polygon fill="black" stroke="black" points="2014.18,-71.19 2023.16,-65.58 2012.64,-64.36 2014.18,-71.19"/>
</g>
<!-- l1_xconnect -->
<g id="node18" class="node">
<title>l1_xconnect</title>
<ellipse fill="none" stroke="black" cx="278.78" cy="-18" rx="36.23" ry="18"/>
<text text-anchor="middle" x="278.78" y="-15.2" font-family="sans" font-size="11.00">l1_xconnect</text>
</g>
<!-- l1_xconnect&#45;&gt;port_tx -->
<g id="edge15" class="edge">
<title>l1_xconnect&#45;&gt;port_tx</title>
<path fill="none" stroke="black" d="M315.31,-18.89C365.63,-20.07 460.51,-22 541.36,-22 541.36,-22 541.36,-22 1781.48,-22 1865.42,-22 1962.75,-40.71 2013.36,-51.87"/>
<polygon fill="black" stroke="black" points="2012.61,-55.29 2023.13,-54.06 2014.14,-48.46 2012.61,-55.29"/>
</g>
<!-- kernel_output -->
<g id="node19" class="node">
<title>kernel_output</title>
<ellipse fill="none" stroke="black" cx="1780.48" cy="-278" rx="42.17" ry="18"/>
<text text-anchor="middle" x="1780.48" y="-275.2" font-family="sans" font-size="11.00">kernel_output</text>
</g>
<!-- kernel_output&#45;&gt;control_output -->
<g id="edge18" class="edge">
<title>kernel_output&#45;&gt;control_output</title>
<path fill="none" stroke="black" d="M1815.5,-288.34C1863.21,-302.85 1950.09,-329.26 2003.06,-345.36"/>
<polygon fill="black" stroke="black" points="2002.27,-348.78 2012.86,-348.33 2004.31,-342.08 2002.27,-348.78"/>
</g>
<!-- port_rx -->
<g id="node20" class="node">
<title>port_rx</title>
<ellipse fill="none" stroke="blue" stroke-width="2" cx="40.16" cy="-136" rx="27" ry="18"/>
<text text-anchor="middle" x="40.16" y="-133.2" font-family="sans" font-size="11.00">port_rx</text>
</g>
<!-- port_rx&#45;&gt;eth_input -->
<g id="edge19" class="edge">
<title>port_rx&#45;&gt;eth_input</title>
<path fill="none" stroke="blue" stroke-width="2" d="M56.21,-150.57C75.16,-168.9 107.89,-200.57 129.93,-221.9"/>
<polygon fill="blue" stroke="blue" stroke-width="2" points="127.62,-224.53 137.24,-228.97 132.49,-219.5 127.62,-224.53"/>
</g>
<!-- port_rx&#45;&gt;l1_xconnect -->
<g id="edge20" class="edge">
<title>port_rx&#45;&gt;l1_xconnect</title>
<path fill="none" stroke="blue" stroke-width="2" d="M53.22,-120C66.76,-103.13 90.29,-76.97 116.32,-62 152.73,-41.07 199.5,-29.75 233.32,-23.85"/>
<polygon fill="blue" stroke="blue" stroke-width="2" points="234.07,-27.28 243.37,-22.2 232.94,-20.37 234.07,-27.28"/>
</g>
<!-- vrf_output&#45;&gt;ip_input -->
<g id="edge21" class="edge">
<title>vrf_output&#45;&gt;ip_input</title>
<path fill="none" stroke="black" d="M992.32,-553.15C893.01,-552.26 577.99,-538.58 366.33,-407 341.31,-391.44 316.9,-368.21 300.41,-350.96"/>
<polygon fill="black" stroke="black" points="302.82,-348.4 293.43,-343.5 297.71,-353.19 302.82,-348.4"/>
</g>
<!-- vrf_output&#45;&gt;ip6_input -->
<g id="edge22" class="edge">
<title>vrf_output&#45;&gt;ip6_input</title>
<path fill="none" stroke="black" d="M1056.71,-551.9C1070.52,-551.41 1086.85,-550.83 1101.3,-550.32"/>
<polygon fill="black" stroke="black" points="1101.55,-553.81 1111.42,-549.96 1101.3,-546.82 1101.55,-553.81"/>
</g>
<!-- arp_input_request&#45;&gt;control_output -->
<g id="edge26" class="edge">
<title>arp_input_request&#45;&gt;control_output</title>
<path fill="none" stroke="black" d="M1945.21,-212.75C1953.33,-217.55 1961.7,-223.37 1968.44,-230 1998.96,-260.04 2022.82,-304.05 2036.14,-332.1"/>
<polygon fill="black" stroke="black" points="2033.03,-333.71 2040.41,-341.31 2039.38,-330.77 2033.03,-333.71"/>
</g>
<!-- arp_input_reply&#45;&gt;control_output -->
<g id="edge25" class="edge">
<title>arp_input_reply&#45;&gt;control_output</title>
<path fill="none" stroke="black" d="M1948.41,-156.38C1955.69,-160.22 1962.87,-165.05 1968.44,-171 2011.93,-217.41 2033.51,-291.14 2042.53,-331.08"/>
<polygon fill="black" stroke="black" points="2039.13,-331.9 2044.66,-340.93 2045.97,-330.42 2039.13,-331.9"/>
</g>
<!-- dnat44&#45;&gt;ip_forward -->
<g id="edge29" class="edge">
<title>dnat44&#45;&gt;ip_forward</title>
<path fill="none" stroke="black" d="M440.17,-335.9C458.31,-342.01 483.76,-350.59 504.61,-357.62"/>
<polygon fill="black" stroke="black" points="503.52,-360.94 514.11,-360.82 505.75,-354.31 503.52,-360.94"/>
</g>
<!-- dnat44&#45;&gt;ip_input_local -->
<g id="edge30" class="edge">
<title>dnat44&#45;&gt;ip_input_local</title>
<path fill="none" stroke="black" d="M440.17,-320.1C456.81,-314.49 479.63,-306.8 499.38,-300.15"/>
<polygon fill="black" stroke="black" points="500.72,-303.39 509.08,-296.88 498.49,-296.75 500.72,-303.39"/>
</g>
<!-- ip_forward&#45;&gt;ip_output -->
<g id="edge35" class="edge">
<title>ip_forward&#45;&gt;ip_output</title>
<path fill="none" stroke="black" d="M574.83,-372.33C641.66,-377.26 797.54,-388.78 870.21,-394.15"/>
<polygon fill="black" stroke="black" points="870.07,-397.65 880.3,-394.9 870.59,-390.67 870.07,-397.65"/>
</g>
<!-- icmp_input -->
<g id="node27" class="node">
<title>icmp_input</title>
<ellipse fill="none" stroke="black" cx="653.25" cy="-332" rx="33.8" ry="18"/>
<text text-anchor="middle" x="653.25" y="-329.2" font-family="sans" font-size="11.00">icmp_input</text>
</g>
<!-- ip_input_local&#45;&gt;icmp_input -->
<g id="edge41" class="edge">
<title>ip_input_local&#45;&gt;icmp_input</title>
<path fill="none" stroke="black" d="M572.54,-298.33C586.15,-304.08 602.48,-310.97 616.8,-317.02"/>
<polygon fill="black" stroke="black" points="615.76,-320.38 626.34,-321.05 618.49,-313.94 615.76,-320.38"/>
</g>
<!-- ipip_input -->
<g id="node30" class="node">
<title>ipip_input</title>
<ellipse fill="none" stroke="black" cx="653.25" cy="-240" rx="29.7" ry="18"/>
<text text-anchor="middle" x="653.25" y="-237.2" font-family="sans" font-size="11.00">ipip_input</text>
</g>
<!-- ip_input_local&#45;&gt;ipip_input -->
<g id="edge42" class="edge">
<title>ip_input_local&#45;&gt;ipip_input</title>
<path fill="none" stroke="black" d="M572.54,-273.67C586.8,-267.65 604.04,-260.37 618.83,-254.12"/>
<polygon fill="black" stroke="black" points="620.29,-257.3 628.14,-250.19 617.57,-250.85 620.29,-257.3"/>
</g>
<!-- l4_input_local -->
<g id="node31" class="node">
<title>l4_input_local</title>
<ellipse fill="none" stroke="black" cx="1523.95" cy="-308" rx="41.49" ry="18"/>
<text text-anchor="middle" x="1523.95" y="-305.2" font-family="sans" font-size="11.00">l4_input_local</text>
</g>
<!-- ip_input_local&#45;&gt;l4_input_local -->
<g id="edge43" class="edge">
<title>ip_input_local&#45;&gt;l4_input_local</title>
<path fill="none" stroke="black" d="M582.89,-282.03C619.23,-278.59 674.63,-273.88 722.9,-272 872.02,-266.2 909.55,-266.23 1058.66,-272 1210.08,-277.86 1388.66,-294.44 1473.46,-302.9"/>
<polygon fill="black" stroke="black" points="1473.27,-306.4 1483.57,-303.91 1473.97,-299.43 1473.27,-306.4"/>
</g>
<!-- icmp_input&#45;&gt;control_output -->
<g id="edge32" class="edge">
<title>icmp_input&#45;&gt;control_output</title>
<path fill="none" stroke="black" d="M679.13,-320.24C691.93,-314.7 707.95,-308.55 722.9,-305 744.61,-299.85 1500.64,-232 1522.95,-232 1522.95,-232 1522.95,-232 1652.67,-232 1796.05,-232 1841.49,-231.37 1968.44,-298 1987.94,-308.23 2007.59,-323.26 2022.47,-335.83"/>
<polygon fill="black" stroke="black" points="2020.37,-338.64 2030.22,-342.52 2024.94,-333.34 2020.37,-338.64"/>
</g>
<!-- icmp_input&#45;&gt;icmp_output -->
<g id="edge31" class="edge">
<title>icmp_input&#45;&gt;icmp_output</title>
<path fill="none" stroke="black" d="M686.95,-332C699.54,-332 714.18,-332 727.86,-332"/>
<polygon fill="black" stroke="black" points="728.1,-335.5 738.1,-332 728.1,-328.5 728.1,-335.5"/>
</g>
<!-- icmp_output&#45;&gt;ip_output -->
<g id="edge34" class="edge">
<title>icmp_output&#45;&gt;ip_output</title>
<path fill="none" stroke="black" d="M803.11,-344.84C824.36,-355.33 854.47,-370.2 877.12,-381.37"/>
<polygon fill="black" stroke="black" points="875.8,-384.63 886.32,-385.92 878.9,-378.35 875.8,-384.63"/>
</g>
<!-- ip_hold&#45;&gt;control_output -->
<g id="edge36" class="edge">
<title>ip_hold&#45;&gt;control_output</title>
<path fill="none" stroke="black" d="M1165.84,-412.68C1255.58,-429.38 1557.23,-485.16 1601.2,-489 1645.9,-492.9 1657.43,-492.68 1702.15,-489 1756.32,-484.54 1769.24,-478.22 1822.81,-469 1887.61,-457.85 1910.58,-474.22 1968.44,-443 1994.03,-429.19 2016.11,-404.12 2030.46,-384.96"/>
<polygon fill="black" stroke="black" points="2033.47,-386.78 2036.5,-376.63 2027.8,-382.67 2033.47,-386.78"/>
</g>
<!-- ipip_input&#45;&gt;ip_input -->
<g id="edge73" class="edge">
<title>ipip_input&#45;&gt;ip_input</title>
<path fill="none" stroke="black" d="M623.51,-241.49C571.11,-244.89 457.11,-255.44 366.33,-286 346.49,-292.68 325.31,-302.89 308.88,-311.58"/>
<polygon fill="black" stroke="black" points="306.94,-308.65 299.79,-316.47 310.26,-314.81 306.94,-308.65"/>
</g>
<!-- l4_kernel_output -->
<g id="node43" class="node">
<title>l4_kernel_output</title>
<ellipse fill="none" stroke="black" cx="1651.67" cy="-278" rx="50.45" ry="18"/>
<text text-anchor="middle" x="1651.67" y="-275.2" font-family="sans" font-size="11.00">l4_kernel_output</text>
</g>
<!-- l4_input_local&#45;&gt;l4_kernel_output -->
<g id="edge75" class="edge">
<title>l4_input_local&#45;&gt;l4_kernel_output</title>
<path fill="none" stroke="black" d="M1560.64,-299.48C1572.68,-296.61 1586.35,-293.35 1599.35,-290.25"/>
<polygon fill="black" stroke="black" points="1600.2,-293.64 1609.12,-287.92 1598.58,-286.83 1600.2,-293.64"/>
</g>
<!-- ipip_output&#45;&gt;ip_output -->
<g id="edge74" class="edge">
<title>ipip_output&#45;&gt;ip_output</title>
<path fill="none" stroke="black" d="M998.12,-381.82C983.77,-386.3 965.52,-390.9 949.42,-394.19"/>
<polygon fill="black" stroke="black" points="948.38,-390.82 939.21,-396.14 949.69,-397.7 948.38,-390.82"/>
</g>
<!-- sr6_output&#45;&gt;ip6_output -->
<g id="edge80" class="edge">
<title>sr6_output&#45;&gt;ip6_output</title>
<path fill="none" stroke="black" d="M1891.56,-589.79C1872.54,-599.32 1844.05,-611.42 1820.83,-620.04"/>
<polygon fill="black" stroke="black" points="1819.45,-616.82 1811.24,-623.51 1821.83,-623.4 1819.45,-616.82"/>
</g>
<!-- icmp6_input -->
<g id="node34" class="node">
<title>icmp6_input</title>
<ellipse fill="none" stroke="black" cx="1523.95" cy="-417" rx="37.4" ry="18"/>
<text text-anchor="middle" x="1523.95" y="-414.2" font-family="sans" font-size="11.00">icmp6_input</text>
</g>
<!-- icmp6_input&#45;&gt;control_output -->
<g id="edge53" class="edge">
<title>icmp6_input&#45;&gt;control_output</title>
<path fill="none" stroke="black" d="M1548.1,-403.14C1562.77,-395.11 1582.46,-385.69 1601.2,-381 1638.37,-371.7 1883.8,-363.66 1994.25,-360.47"/>
<polygon fill="black" stroke="black" points="1994.61,-363.96 2004.5,-360.18 1994.41,-356.96 1994.61,-363.96"/>
</g>
<!-- icmp6_input&#45;&gt;icmp6_output -->
<g id="edge49" class="edge">
<title>icmp6_input&#45;&gt;icmp6_output</title>
<path fill="none" stroke="black" d="M1532.26,-434.72C1553.3,-485.78 1614.2,-633.51 1639.47,-694.83"/>
<polygon fill="black" stroke="black" points="1636.3,-696.32 1643.35,-704.23 1642.78,-693.66 1636.3,-696.32"/>
</g>
<!-- ndp_ns_input -->
<g id="node36" class="node">
<title>ndp_ns_input</title>
<ellipse fill="none" stroke="black" cx="1780.48" cy="-332" rx="40.32" ry="18"/>
<text text-anchor="middle" x="1780.48" y="-329.2" font-family="sans" font-size="11.00">ndp_ns_input</text>
</g>
<!-- icmp6_input&#45;&gt;ndp_ns_input -->
<g id="edge50" class="edge">
<title>icmp6_input&#45;&gt;ndp_ns_input</title>
<path fill="none" stroke="black" d="M1538.04,-400C1551.79,-383.54 1575.03,-359.45 1601.2,-348 1642.32,-330.01 1693.78,-327.22 1730.83,-328.21"/>
<polygon fill="black" stroke="black" points="1730.76,-331.71 1740.88,-328.58 1731.01,-324.72 1730.76,-331.71"/>
</g>
<!-- ndp_na_input -->
<g id="node37" class="node">
<title>ndp_na_input</title>
<ellipse fill="none" stroke="black" cx="1651.67" cy="-462" rx="40.91" ry="18"/>
<text text-anchor="middle" x="1651.67" y="-459.2" font-family="sans" font-size="11.00">ndp_na_input</text>
</g>
<!-- icmp6_input&#45;&gt;ndp_na_input -->
<g id="edge51" class="edge">
<title>icmp6_input&#45;&gt;ndp_na_input</title>
<path fill="none" stroke="black" d="M1554.43,-427.55C1571.04,-433.5 1592.03,-441.01 1610.17,-447.5"/>
<polygon fill="black" stroke="black" points="1609.03,-450.81 1619.63,-450.89 1611.39,-444.22 1609.03,-450.81"/>
</g>
<!-- ndp_rs_input -->
<g id="node38" class="node">
<title>ndp_rs_input</title>
<ellipse fill="none" stroke="black" cx="1651.67" cy="-408" rx="39.15" ry="18"/>
<text text-anchor="middle" x="1651.67" y="-405.2" font-family="sans" font-size="11.00">ndp_rs_input</text>
</g>
<!-- icmp6_input&#45;&gt;ndp_rs_input -->
<g id="edge52" class="edge">
<title>icmp6_input&#45;&gt;ndp_rs_input</title>
<path fill="none" stroke="black" d="M1561.32,-414.4C1574.15,-413.48 1588.78,-412.43 1602.43,-411.45"/>
<polygon fill="black" stroke="black" points="1602.92,-414.93 1612.64,-410.72 1602.42,-407.95 1602.92,-414.93"/>
</g>
<!-- icmp6_output&#45;&gt;ip6_output -->
<g id="edge54" class="edge">
<title>icmp6_output&#45;&gt;ip6_output</title>
<path fill="none" stroke="black" d="M1676.35,-707.27C1684.62,-701.97 1693.89,-695.86 1702.15,-690 1719.53,-677.67 1738.43,-663.03 1753.2,-651.29"/>
<polygon fill="black" stroke="black" points="1755.75,-653.73 1761.38,-644.76 1751.38,-648.27 1755.75,-653.73"/>
</g>
<!-- ndp_ns_input&#45;&gt;control_output -->
<g id="edge70" class="edge">
<title>ndp_ns_input&#45;&gt;control_output</title>
<path fill="none" stroke="black" d="M1819.94,-335.9C1866.15,-340.58 1943.9,-348.46 1995.56,-353.69"/>
<polygon fill="black" stroke="black" points="1995.23,-357.18 2005.53,-354.7 1995.93,-350.21 1995.23,-357.18"/>
</g>
<!-- ndp_na_input&#45;&gt;control_output -->
<g id="edge68" class="edge">
<title>ndp_na_input&#45;&gt;control_output</title>
<path fill="none" stroke="black" d="M1692.56,-461.64C1753.96,-459.84 1874.39,-451.35 1968.44,-414 1987.61,-406.39 2006.69,-393.41 2021.36,-381.97"/>
<polygon fill="black" stroke="black" points="2023.85,-384.46 2029.45,-375.47 2019.46,-379.01 2023.85,-384.46"/>
</g>
<!-- ndp_rs_input&#45;&gt;control_output -->
<g id="edge72" class="edge">
<title>ndp_rs_input&#45;&gt;control_output</title>
<path fill="none" stroke="black" d="M1690.67,-410.21C1750.55,-412.78 1870.19,-414.18 1968.44,-392 1982.99,-388.72 1998.27,-382.98 2011.51,-377.2"/>
<polygon fill="black" stroke="black" points="2013.08,-380.33 2020.75,-373.02 2010.19,-373.95 2013.08,-380.33"/>
</g>
<!-- ip6_forward&#45;&gt;ip6_output -->
<g id="edge56" class="edge">
<title>ip6_forward&#45;&gt;ip6_output</title>
<path fill="none" stroke="black" d="M1292.63,-630C1385.45,-630 1637.34,-630 1737.54,-630"/>
<polygon fill="black" stroke="black" points="1737.6,-633.5 1747.6,-630 1737.6,-626.5 1737.6,-633.5"/>
</g>
<!-- ip6_hold&#45;&gt;control_output -->
<g id="edge57" class="edge">
<title>ip6_hold&#45;&gt;control_output</title>
<path fill="none" stroke="black" d="M1938.48,-622.74C1948.95,-618.49 1960.6,-612.11 1968.44,-603 2023.27,-539.26 2040.47,-436.89 2045.72,-387.49"/>
<polygon fill="black" stroke="black" points="2049.23,-387.52 2046.72,-377.23 2042.26,-386.84 2049.23,-387.52"/>
</g>
<!-- ip6_input_local&#45;&gt;l4_input_local -->
<g id="edge63" class="edge">
<title>ip6_input_local&#45;&gt;l4_input_local</title>
<path fill="none" stroke="black" d="M1401.19,-473.78C1424.97,-441.41 1476.44,-371.33 1504.24,-333.48"/>
<polygon fill="black" stroke="black" points="1507.34,-335.17 1510.44,-325.04 1501.7,-331.03 1507.34,-335.17"/>
</g>
<!-- ip6_input_local&#45;&gt;icmp6_input -->
<g id="edge62" class="edge">
<title>ip6_input_local&#45;&gt;icmp6_input</title>
<path fill="none" stroke="black" d="M1414.78,-476.56C1436.23,-464.75 1466.68,-447.98 1489.81,-435.25"/>
<polygon fill="black" stroke="black" points="1491.52,-438.3 1498.6,-430.41 1488.15,-432.17 1491.52,-438.3"/>
</g>
<!-- sr6_local&#45;&gt;ip_input -->
<g id="edge77" class="edge">
<title>sr6_local&#45;&gt;ip_input</title>
<path fill="none" stroke="black" d="M1229.48,-496.03C1194.38,-489.38 1132.06,-472.81 1094.66,-435 1063.79,-403.78 1090.27,-373.47 1058.66,-343 932.65,-221.51 859.47,-242.3 686.9,-213 545,-188.9 497.38,-199.48 366.33,-259 341.52,-270.27 317.64,-290.22 301.27,-305.78"/>
<polygon fill="black" stroke="black" points="298.58,-303.52 293.87,-313.01 303.47,-308.53 298.58,-303.52"/>
</g>
<!-- sr6_local&#45;&gt;ip6_input -->
<g id="edge78" class="edge">
<title>sr6_local&#45;&gt;ip6_input</title>
<path fill="none" stroke="black" d="M1237.12,-512.99C1220.76,-521.63 1196.4,-532.41 1176.27,-540.13"/>
<polygon fill="black" stroke="black" points="1174.94,-536.89 1166.77,-543.64 1177.37,-543.45 1174.94,-536.89"/>
</g>
<!-- sr6_local&#45;&gt;ip6_input_local -->
<g id="edge79" class="edge">
<title>sr6_local&#45;&gt;ip6_input_local</title>
<path fill="none" stroke="black" d="M1284.3,-498.14C1298.35,-497.15 1316.1,-495.92 1332.85,-494.75"/>
<polygon fill="black" stroke="black" points="1333.37,-498.22 1343.11,-494.03 1332.89,-491.24 1333.37,-498.22"/>
</g>
<!-- l4_kernel_output&#45;&gt;kernel_output -->
<g id="edge76" class="edge">
<title>l4_kernel_output&#45;&gt;kernel_output</title>
<path fill="none" stroke="black" d="M1702.43,-278C1710.81,-278 1719.53,-278 1727.96,-278"/>
<polygon fill="black" stroke="black" points="1728.06,-281.5 1738.06,-278 1728.06,-274.5 1728.06,-281.5"/>
</g>
</g>
</svg>
