<?xml version="1.0" encoding="UTF-8" standalone="no"?>
<!DOCTYPE svg PUBLIC "-//W3C//DTD SVG 1.1//EN"
 "http://www.w3.org/Graphics/SVG/1.1/DTD/svg11.dtd">
<!-- Generated by graphviz version 9.0.0 (20230911.1827)
 -->
<!-- Title: gr&#45;0003 Pages: 1 -->
<svg width="1236pt" height="637pt"
 viewBox="0.00 0.00 1236.40 637.00" xmlns="http://www.w3.org/2000/svg" xmlns:xlink="http://www.w3.org/1999/xlink">
<g id="graph0" class="graph" transform="scale(1 1) rotate(0) translate(4 633)">
<title>gr&#45;0003</title>
<polygon fill="white" stroke="none" points="-4,4 -4,-633 1232.4,-633 1232.4,4 -4,4"/>
<!-- control_input -->
<g id="node1" class="node">
<title>control_input</title>
<ellipse fill="none" stroke="blue" stroke-width="2" cx="522.4" cy="-342" rx="41.62" ry="18"/>
<text text-anchor="middle" x="522.4" y="-338.3" font-family="sans" font-size="11.00">control_input</text>
</g>
<!-- arp_output_request -->
<g id="node2" class="node">
<title>arp_output_request</title>
<ellipse fill="none" stroke="black" cx="861.96" cy="-339" rx="61.42" ry="18"/>
<text text-anchor="middle" x="861.96" y="-335.3" font-family="sans" font-size="11.00">arp_output_request</text>
</g>
<!-- control_input&#45;&gt;arp_output_request -->
<g id="edge1" class="edge">
<title>control_input&#45;&gt;arp_output_request</title>
<path fill="none" stroke="blue" stroke-width="2" d="M563.2,-338.16C582.11,-336.52 605.06,-334.81 625.71,-334 687.37,-331.59 702.86,-332.4 764.54,-334 772.81,-334.21 781.48,-334.53 790.08,-334.91"/>
<polygon fill="blue" stroke="blue" stroke-width="2" points="788.14,-338.32 798.29,-335.28 788.46,-331.33 788.14,-338.32"/>
</g>
<!-- ndp_ns_output -->
<g id="node3" class="node">
<title>ndp_ns_output</title>
<ellipse fill="none" stroke="black" cx="695.13" cy="-361" rx="46.26" ry="18"/>
<text text-anchor="middle" x="695.13" y="-357.3" font-family="sans" font-size="11.00">ndp_ns_output</text>
</g>
<!-- control_input&#45;&gt;ndp_ns_output -->
<g id="edge2" class="edge">
<title>control_input&#45;&gt;ndp_ns_output</title>
<path fill="none" stroke="blue" stroke-width="2" d="M563,-346.41C585.53,-348.91 614.11,-352.09 638.83,-354.85"/>
<polygon fill="blue" stroke="blue" stroke-width="2" points="636.91,-358.15 647.23,-355.78 637.68,-351.2 636.91,-358.15"/>
</g>
<!-- eth_output -->
<g id="node8" class="node">
<title>eth_output</title>
<ellipse fill="none" stroke="black" cx="1032.58" cy="-312" rx="34.89" ry="18"/>
<text text-anchor="middle" x="1032.58" y="-308.3" font-family="sans" font-size="11.00">eth_output</text>
</g>
<!-- arp_output_request&#45;&gt;eth_output -->
<g id="edge11" class="edge">
<title>arp_output_request&#45;&gt;eth_output</title>
<path fill="none" stroke="black" d="M916.31,-330.46C939.21,-326.79 965.65,-322.56 987.43,-319.07"/>
<polygon fill="black" stroke="black" points="987.85,-322.55 997.17,-317.51 986.75,-315.63 987.85,-322.55"/>
</g>
<!-- ip6_output -->
<g id="node25" class="node">
<title>ip6_output</title>
<ellipse fill="none" stroke="black" cx="861.96" cy="-469" rx="34.04" ry="18"/>
<text text-anchor="middle" x="861.96" y="-465.3" font-family="sans" font-size="11.00">ip6_output</text>
</g>
<!-- ndp_ns_output&#45;&gt;ip6_output -->
<g id="edge42" class="edge">
<title>ndp_ns_output&#45;&gt;ip6_output</title>
<path fill="none" stroke="black" d="M731.61,-372.51C742.52,-376.7 754.34,-381.92 764.54,-388 791.46,-404.03 818.45,-427.5 837,-445.05"/>
<polygon fill="black" stroke="black" points="834.43,-447.43 844.06,-451.84 839.28,-442.39 834.43,-447.43"/>
</g>
<!-- eth_input -->
<g id="node4" class="node">
<title>eth_input</title>
<ellipse fill="none" stroke="black" cx="152.87" cy="-235" rx="30.25" ry="18"/>
<text text-anchor="middle" x="152.87" y="-231.3" font-family="sans" font-size="11.00">eth_input</text>
</g>
<!-- arp_input -->
<g id="node5" class="node">
<title>arp_input</title>
<ellipse fill="none" stroke="black" cx="372.41" cy="-235" rx="30.25" ry="18"/>
<text text-anchor="middle" x="372.41" y="-231.3" font-family="sans" font-size="11.00">arp_input</text>
</g>
<!-- eth_input&#45;&gt;arp_input -->
<g id="edge3" class="edge">
<title>eth_input&#45;&gt;arp_input</title>
<path fill="none" stroke="black" d="M183.21,-235C221.16,-235 287.48,-235 330.4,-235"/>
<polygon fill="black" stroke="black" points="330.33,-238.5 340.33,-235 330.33,-231.5 330.33,-238.5"/>
</g>
<!-- ip_input -->
<g id="node6" class="node">
<title>ip_input</title>
<ellipse fill="none" stroke="black" cx="254.85" cy="-108" rx="27" ry="18"/>
<text text-anchor="middle" x="254.85" y="-104.3" font-family="sans" font-size="11.00">ip_input</text>
</g>
<!-- eth_input&#45;&gt;ip_input -->
<g id="edge4" class="edge">
<title>eth_input&#45;&gt;ip_input</title>
<path fill="none" stroke="black" d="M166.73,-218.66C183.85,-196.91 214.27,-158.28 234.25,-132.9"/>
<polygon fill="black" stroke="black" points="236.97,-135.09 240.41,-125.07 231.47,-130.76 236.97,-135.09"/>
</g>
<!-- ip6_input -->
<g id="node7" class="node">
<title>ip6_input</title>
<ellipse fill="none" stroke="black" cx="254.85" cy="-539" rx="29.41" ry="18"/>
<text text-anchor="middle" x="254.85" y="-535.3" font-family="sans" font-size="11.00">ip6_input</text>
</g>
<!-- eth_input&#45;&gt;ip6_input -->
<g id="edge5" class="edge">
<title>eth_input&#45;&gt;ip6_input</title>
<path fill="none" stroke="black" d="M159.68,-252.66C176.28,-303.13 224.05,-448.38 244.44,-510.39"/>
<polygon fill="black" stroke="black" points="241.1,-511.45 247.55,-519.86 247.75,-509.26 241.1,-511.45"/>
</g>
<!-- arp_output_reply -->
<g id="node11" class="node">
<title>arp_output_reply</title>
<ellipse fill="none" stroke="black" cx="861.96" cy="-285" rx="53.41" ry="18"/>
<text text-anchor="middle" x="861.96" y="-281.3" font-family="sans" font-size="11.00">arp_output_reply</text>
</g>
<!-- arp_input&#45;&gt;arp_output_reply -->
<g id="edge8" class="edge">
<title>arp_input&#45;&gt;arp_output_reply</title>
<path fill="none" stroke="black" d="M402.45,-237.98C479.98,-245.93 693.17,-267.79 799.29,-278.68"/>
<polygon fill="black" stroke="black" points="798.64,-282.13 808.94,-279.67 799.35,-275.16 798.64,-282.13"/>
</g>
<!-- ip_output -->
<g id="node12" class="node">
<title>ip_output</title>
<ellipse fill="none" stroke="black" cx="522.4" cy="-193" rx="30.25" ry="18"/>
<text text-anchor="middle" x="522.4" y="-189.3" font-family="sans" font-size="11.00">ip_output</text>
</g>
<!-- arp_input&#45;&gt;ip_output -->
<g id="edge9" class="edge">
<title>arp_input&#45;&gt;ip_output</title>
<path fill="none" stroke="black" d="M400.21,-227.39C423.57,-220.76 457.71,-211.08 483.8,-203.67"/>
<polygon fill="black" stroke="black" points="484.68,-207.06 493.34,-200.96 482.77,-200.33 484.68,-207.06"/>
</g>
<!-- ip_error_dest_unreach -->
<g id="node16" class="node">
<title>ip_error_dest_unreach</title>
<ellipse fill="none" stroke="black" cx="695.13" cy="-63" rx="69.42" ry="18"/>
<text text-anchor="middle" x="695.13" y="-59.3" font-family="sans" font-size="11.00">ip_error_dest_unreach</text>
</g>
<!-- ip_input&#45;&gt;ip_error_dest_unreach -->
<g id="edge20" class="edge">
<title>ip_input&#45;&gt;ip_error_dest_unreach</title>
<path fill="none" stroke="black" d="M277.68,-97.91C291.22,-92.16 309.13,-85.43 325.73,-82 423.86,-61.71 539.66,-59.13 614.87,-60.18"/>
<polygon fill="black" stroke="black" points="614.55,-63.68 624.61,-60.35 614.67,-56.68 614.55,-63.68"/>
</g>
<!-- ip_forward -->
<g id="node17" class="node">
<title>ip_forward</title>
<ellipse fill="none" stroke="black" cx="372.41" cy="-109" rx="33.62" ry="18"/>
<text text-anchor="middle" x="372.41" y="-105.3" font-family="sans" font-size="11.00">ip_forward</text>
</g>
<!-- ip_input&#45;&gt;ip_forward -->
<g id="edge18" class="edge">
<title>ip_input&#45;&gt;ip_forward</title>
<path fill="none" stroke="black" d="M282.07,-108.23C295.44,-108.34 312.07,-108.49 327.34,-108.62"/>
<polygon fill="black" stroke="black" points="327.13,-112.12 337.16,-108.7 327.19,-105.12 327.13,-112.12"/>
</g>
<!-- ip_input_local -->
<g id="node18" class="node">
<title>ip_input_local</title>
<ellipse fill="none" stroke="black" cx="42.89" cy="-62" rx="42.89" ry="18"/>
<text text-anchor="middle" x="42.89" y="-58.3" font-family="sans" font-size="11.00">ip_input_local</text>
</g>
<!-- ip_input&#45;&gt;ip_input_local -->
<g id="edge19" class="edge">
<title>ip_input&#45;&gt;ip_input_local</title>
<path fill="none" stroke="black" d="M231.94,-98.01C218.38,-92.22 200.47,-85.24 183.96,-81 155.6,-73.7 123.24,-69.08 96.77,-66.23"/>
<polygon fill="black" stroke="black" points="97.25,-62.76 86.95,-65.22 96.54,-69.72 97.25,-62.76"/>
</g>
<!-- ip6_error_dest_unreach -->
<g id="node26" class="node">
<title>ip6_error_dest_unreach</title>
<ellipse fill="none" stroke="black" cx="1032.58" cy="-557" rx="73.21" ry="18"/>
<text text-anchor="middle" x="1032.58" y="-553.3" font-family="sans" font-size="11.00">ip6_error_dest_unreach</text>
</g>
<!-- ip6_input&#45;&gt;ip6_error_dest_unreach -->
<g id="edge36" class="edge">
<title>ip6_input&#45;&gt;ip6_error_dest_unreach</title>
<path fill="none" stroke="black" d="M284.12,-541.47C332.62,-545.49 434.84,-553 521.4,-553 521.4,-553 521.4,-553 696.13,-553 781.88,-553 879.95,-554.32 947.81,-555.45"/>
<polygon fill="black" stroke="black" points="947.7,-558.95 957.76,-555.61 947.82,-551.95 947.7,-558.95"/>
</g>
<!-- ip6_forward -->
<g id="node28" class="node">
<title>ip6_forward</title>
<ellipse fill="none" stroke="black" cx="695.13" cy="-599" rx="37.41" ry="18"/>
<text text-anchor="middle" x="695.13" y="-595.3" font-family="sans" font-size="11.00">ip6_forward</text>
</g>
<!-- ip6_input&#45;&gt;ip6_forward -->
<g id="edge34" class="edge">
<title>ip6_input&#45;&gt;ip6_forward</title>
<path fill="none" stroke="black" d="M278.59,-550.09C291.99,-556.12 309.46,-563.12 325.73,-567 438.43,-593.85 575.29,-598.74 646.26,-599.3"/>
<polygon fill="black" stroke="black" points="645.95,-602.8 655.97,-599.35 645.99,-595.8 645.95,-602.8"/>
</g>
<!-- ip6_input_local -->
<g id="node29" class="node">
<title>ip6_input_local</title>
<ellipse fill="none" stroke="black" cx="372.41" cy="-497" rx="46.68" ry="18"/>
<text text-anchor="middle" x="372.41" y="-493.3" font-family="sans" font-size="11.00">ip6_input_local</text>
</g>
<!-- ip6_input&#45;&gt;ip6_input_local -->
<g id="edge35" class="edge">
<title>ip6_input&#45;&gt;ip6_input_local</title>
<path fill="none" stroke="black" d="M280.64,-529.99C294.11,-525.09 311.18,-518.89 326.87,-513.19"/>
<polygon fill="black" stroke="black" points="327.83,-516.56 336.03,-509.86 325.44,-509.98 327.83,-516.56"/>
</g>
<!-- port_tx -->
<g id="node9" class="node">
<title>port_tx</title>
<ellipse fill="none" stroke="black" cx="1185.09" cy="-312" rx="27" ry="18"/>
<text text-anchor="middle" x="1185.09" y="-308.3" font-family="sans" font-size="11.00">port_tx</text>
</g>
<!-- eth_output&#45;&gt;port_tx -->
<g id="edge6" class="edge">
<title>eth_output&#45;&gt;port_tx</title>
<path fill="none" stroke="black" d="M1067.73,-312C1091.29,-312 1122.59,-312 1146.8,-312"/>
<polygon fill="black" stroke="black" points="1146.53,-315.5 1156.53,-312 1146.53,-308.5 1146.53,-315.5"/>
</g>
<!-- port_rx -->
<g id="node10" class="node">
<title>port_rx</title>
<ellipse fill="none" stroke="blue" stroke-width="2" cx="42.89" cy="-235" rx="27" ry="18"/>
<text text-anchor="middle" x="42.89" y="-231.3" font-family="sans" font-size="11.00">port_rx</text>
</g>
<!-- port_rx&#45;&gt;eth_input -->
<g id="edge7" class="edge">
<title>port_rx&#45;&gt;eth_input</title>
<path fill="none" stroke="blue" stroke-width="2" d="M70.3,-235C82.59,-235 97.49,-235 111.18,-235"/>
<polygon fill="blue" stroke="blue" stroke-width="2" points="109.27,-238.5 119.27,-235 109.27,-231.5 109.27,-238.5"/>
</g>
<!-- arp_output_reply&#45;&gt;eth_output -->
<g id="edge10" class="edge">
<title>arp_output_reply&#45;&gt;eth_output</title>
<path fill="none" stroke="black" d="M910.83,-292.66C935.01,-296.54 964.14,-301.2 987.74,-304.98"/>
<polygon fill="black" stroke="black" points="986.91,-308.39 997.33,-306.52 988.01,-301.48 986.91,-308.39"/>
</g>
<!-- ip_output&#45;&gt;eth_output -->
<g id="edge23" class="edge">
<title>ip_output&#45;&gt;eth_output</title>
<path fill="none" stroke="black" d="M549.68,-200.95C570.21,-206.92 599.56,-214.9 625.71,-220 756.61,-245.51 795.76,-219.23 923.37,-258 950.18,-266.14 978.45,-280.47 999.36,-292.32"/>
<polygon fill="black" stroke="black" points="997.58,-295.33 1007.98,-297.32 1001.08,-289.28 997.58,-295.33"/>
</g>
<!-- ip_output&#45;&gt;ip_error_dest_unreach -->
<g id="edge24" class="edge">
<title>ip_output&#45;&gt;ip_error_dest_unreach</title>
<path fill="none" stroke="black" d="M541.99,-178.84C570.95,-156.79 627.16,-113.99 662.55,-87.04"/>
<polygon fill="black" stroke="black" points="664.47,-89.98 670.3,-81.14 660.23,-84.41 664.47,-89.98"/>
</g>
<!-- ipip_output -->
<g id="node20" class="node">
<title>ipip_output</title>
<ellipse fill="none" stroke="black" cx="695.13" cy="-193" rx="35.73" ry="18"/>
<text text-anchor="middle" x="695.13" y="-189.3" font-family="sans" font-size="11.00">ipip_output</text>
</g>
<!-- ip_output&#45;&gt;ipip_output -->
<g id="edge25" class="edge">
<title>ip_output&#45;&gt;ipip_output</title>
<path fill="none" stroke="black" d="M551.59,-187.83C578.13,-186.06 618.31,-185.78 649.25,-186.98"/>
<polygon fill="black" stroke="black" points="648.95,-190.47 659.1,-187.44 649.27,-183.47 648.95,-190.47"/>
</g>
<!-- icmp_input -->
<g id="node13" class="node">
<title>icmp_input</title>
<ellipse fill="none" stroke="black" cx="254.85" cy="-18" rx="34.89" ry="18"/>
<text text-anchor="middle" x="254.85" y="-14.3" font-family="sans" font-size="11.00">icmp_input</text>
</g>
<!-- icmp_output -->
<g id="node14" class="node">
<title>icmp_output</title>
<ellipse fill="none" stroke="black" cx="861.96" cy="-86" rx="39.52" ry="18"/>
<text text-anchor="middle" x="861.96" y="-82.3" font-family="sans" font-size="11.00">icmp_output</text>
</g>
<!-- icmp_input&#45;&gt;icmp_output -->
<g id="edge12" class="edge">
<title>icmp_input&#45;&gt;icmp_output</title>
<path fill="none" stroke="black" d="M289.31,-14.2C371.76,-5.89 590.61,9.69 764.54,-36 787.52,-42.04 811.23,-54.24 829.39,-65.08"/>
<polygon fill="black" stroke="black" points="827.49,-68.02 837.84,-70.28 831.16,-62.06 827.49,-68.02"/>
</g>
<!-- icmp_output&#45;&gt;ip_output -->
<g id="edge13" class="edge">
<title>icmp_output&#45;&gt;ip_output</title>
<path fill="none" stroke="black" d="M828.69,-96.23C765.75,-116.18 626.95,-160.18 560.4,-181.27"/>
<polygon fill="black" stroke="black" points="559.52,-177.88 551.05,-184.24 561.64,-184.55 559.52,-177.88"/>
</g>
<!-- ip_error_ttl_exceeded -->
<g id="node15" class="node">
<title>ip_error_ttl_exceeded</title>
<ellipse fill="none" stroke="black" cx="522.4" cy="-109" rx="67.31" ry="18"/>
<text text-anchor="middle" x="522.4" y="-105.3" font-family="sans" font-size="11.00">ip_error_ttl_exceeded</text>
</g>
<!-- ip_error_ttl_exceeded&#45;&gt;icmp_output -->
<g id="edge14" class="edge">
<title>ip_error_ttl_exceeded&#45;&gt;icmp_output</title>
<path fill="none" stroke="black" d="M588.08,-104.59C653.23,-100.15 752.33,-93.4 811.46,-89.37"/>
<polygon fill="black" stroke="black" points="811.49,-92.88 821.23,-88.71 811.01,-85.9 811.49,-92.88"/>
</g>
<!-- ip_error_dest_unreach&#45;&gt;icmp_output -->
<g id="edge15" class="edge">
<title>ip_error_dest_unreach&#45;&gt;icmp_output</title>
<path fill="none" stroke="black" d="M757.03,-71.5C775.39,-74.06 795.28,-76.84 812.69,-79.27"/>
<polygon fill="black" stroke="black" points="811.85,-82.68 822.24,-80.6 812.82,-75.75 811.85,-82.68"/>
</g>
<!-- ip_forward&#45;&gt;ip_output -->
<g id="edge16" class="edge">
<title>ip_forward&#45;&gt;ip_output</title>
<path fill="none" stroke="black" d="M396.21,-121.94C421.34,-136.2 461.92,-159.24 490.03,-175.2"/>
<polygon fill="black" stroke="black" points="488.04,-178.09 498.46,-179.98 491.49,-172 488.04,-178.09"/>
</g>
<!-- ip_forward&#45;&gt;ip_error_ttl_exceeded -->
<g id="edge17" class="edge">
<title>ip_forward&#45;&gt;ip_error_ttl_exceeded</title>
<path fill="none" stroke="black" d="M406.25,-109C417.32,-109 430.18,-109 443.22,-109"/>
<polygon fill="black" stroke="black" points="443.17,-112.5 453.17,-109 443.17,-105.5 443.17,-112.5"/>
</g>
<!-- ip_input_local&#45;&gt;icmp_input -->
<g id="edge21" class="edge">
<title>ip_input_local&#45;&gt;icmp_input</title>
<path fill="none" stroke="black" d="M81.91,-54.03C118.21,-46.42 172.86,-34.97 210.76,-27.03"/>
<polygon fill="black" stroke="black" points="211.39,-30.47 220.46,-25 209.96,-23.62 211.39,-30.47"/>
</g>
<!-- ipip_input -->
<g id="node19" class="node">
<title>ipip_input</title>
<ellipse fill="none" stroke="black" cx="152.87" cy="-108" rx="31.1" ry="18"/>
<text text-anchor="middle" x="152.87" y="-104.3" font-family="sans" font-size="11.00">ipip_input</text>
</g>
<!-- ip_input_local&#45;&gt;ipip_input -->
<g id="edge22" class="edge">
<title>ip_input_local&#45;&gt;ipip_input</title>
<path fill="none" stroke="black" d="M73.97,-74.81C87.16,-80.44 102.75,-87.07 116.5,-92.93"/>
<polygon fill="black" stroke="black" points="115.08,-96.13 125.66,-96.83 117.83,-89.69 115.08,-96.13"/>
</g>
<!-- ipip_input&#45;&gt;ip_input -->
<g id="edge43" class="edge">
<title>ipip_input&#45;&gt;ip_input</title>
<path fill="none" stroke="black" d="M184.41,-108C194.42,-108 205.67,-108 216.15,-108"/>
<polygon fill="black" stroke="black" points="216.03,-111.5 226.03,-108 216.03,-104.5 216.03,-111.5"/>
</g>
<!-- ipip_output&#45;&gt;ip_output -->
<g id="edge44" class="edge">
<title>ipip_output&#45;&gt;ip_output</title>
<path fill="none" stroke="black" d="M660.61,-198.49C632.53,-200.06 592.39,-200.16 562.77,-198.79"/>
<polygon fill="black" stroke="black" points="563.28,-195.31 553.1,-198.25 562.89,-202.3 563.28,-195.31"/>
</g>
<!-- icmp6_input -->
<g id="node21" class="node">
<title>icmp6_input</title>
<ellipse fill="none" stroke="black" cx="522.4" cy="-488" rx="38.68" ry="18"/>
<text text-anchor="middle" x="522.4" y="-484.3" font-family="sans" font-size="11.00">icmp6_input</text>
</g>
<!-- icmp6_output -->
<g id="node22" class="node">
<title>icmp6_output</title>
<ellipse fill="none" stroke="black" cx="1185.09" cy="-534" rx="43.31" ry="18"/>
<text text-anchor="middle" x="1185.09" y="-530.3" font-family="sans" font-size="11.00">icmp6_output</text>
</g>
<!-- icmp6_input&#45;&gt;icmp6_output -->
<g id="edge26" class="edge">
<title>icmp6_input&#45;&gt;icmp6_output</title>
<path fill="none" stroke="black" d="M560.81,-491.02C580.18,-492.55 604.21,-494.43 625.71,-496 811.21,-509.56 1031.5,-524.09 1130.84,-530.55"/>
<polygon fill="black" stroke="black" points="1130.34,-534.03 1140.55,-531.19 1130.79,-527.04 1130.34,-534.03"/>
</g>
<!-- ndp_ns_input -->
<g id="node23" class="node">
<title>ndp_ns_input</title>
<ellipse fill="none" stroke="black" cx="695.13" cy="-469" rx="41.62" ry="18"/>
<text text-anchor="middle" x="695.13" y="-465.3" font-family="sans" font-size="11.00">ndp_ns_input</text>
</g>
<!-- icmp6_input&#45;&gt;ndp_ns_input -->
<g id="edge27" class="edge">
<title>icmp6_input&#45;&gt;ndp_ns_input</title>
<path fill="none" stroke="black" d="M560.44,-483.88C584.62,-481.19 616.51,-477.64 643.07,-474.68"/>
<polygon fill="black" stroke="black" points="643.42,-478.16 652.97,-473.58 642.65,-471.21 643.42,-478.16"/>
</g>
<!-- ndp_na_input -->
<g id="node24" class="node">
<title>ndp_na_input</title>
<ellipse fill="none" stroke="black" cx="695.13" cy="-415" rx="42.04" ry="18"/>
<text text-anchor="middle" x="695.13" y="-411.3" font-family="sans" font-size="11.00">ndp_na_input</text>
</g>
<!-- icmp6_input&#45;&gt;ndp_na_input -->
<g id="edge28" class="edge">
<title>icmp6_input&#45;&gt;ndp_na_input</title>
<path fill="none" stroke="black" d="M550.6,-475.35C571.13,-465.91 600.05,-452.82 625.71,-442 634.32,-438.37 643.61,-434.6 652.47,-431.08"/>
<polygon fill="black" stroke="black" points="653.58,-434.4 661.6,-427.48 651.01,-427.89 653.58,-434.4"/>
</g>
<!-- icmp6_output&#45;&gt;ip6_output -->
<g id="edge29" class="edge">
<title>icmp6_output&#45;&gt;ip6_output</title>
<path fill="none" stroke="black" d="M1158.82,-519.46C1143.87,-511.53 1124.29,-502.28 1105.79,-497 1038.35,-477.75 956.79,-471.68 907.44,-469.8"/>
<polygon fill="black" stroke="black" points="907.85,-466.31 897.73,-469.48 907.61,-473.31 907.85,-466.31"/>
</g>
<!-- ndp_ns_input&#45;&gt;ip6_output -->
<g id="edge41" class="edge">
<title>ndp_ns_input&#45;&gt;ip6_output</title>
<path fill="none" stroke="black" d="M736.87,-469C760.98,-469 791.56,-469 816.32,-469"/>
<polygon fill="black" stroke="black" points="816.09,-472.5 826.09,-469 816.09,-465.5 816.09,-472.5"/>
</g>
<!-- ndp_na_input&#45;&gt;ip6_output -->
<g id="edge40" class="edge">
<title>ndp_na_input&#45;&gt;ip6_output</title>
<path fill="none" stroke="black" d="M729.09,-425.8C755.79,-434.55 793.49,-446.9 821.75,-456.15"/>
<polygon fill="black" stroke="black" points="820.42,-459.4 831.02,-459.19 822.6,-452.75 820.42,-459.4"/>
</g>
<!-- ip6_output&#45;&gt;eth_output -->
<g id="edge38" class="edge">
<title>ip6_output&#45;&gt;eth_output</title>
<path fill="none" stroke="black" d="M879.74,-453.37C909.46,-425.7 971.49,-367.95 1006.37,-335.48"/>
<polygon fill="black" stroke="black" points="1008.57,-338.2 1013.51,-328.83 1003.8,-333.08 1008.57,-338.2"/>
</g>
<!-- ip6_output&#45;&gt;ip6_error_dest_unreach -->
<g id="edge39" class="edge">
<title>ip6_output&#45;&gt;ip6_error_dest_unreach</title>
<path fill="none" stroke="black" d="M887.12,-481.61C913.91,-495.59 957.6,-518.39 989.93,-535.26"/>
<polygon fill="black" stroke="black" points="988.16,-538.29 998.65,-539.81 991.4,-532.08 988.16,-538.29"/>
</g>
<!-- ip6_error_dest_unreach&#45;&gt;icmp6_output -->
<g id="edge30" class="edge">
<title>ip6_error_dest_unreach&#45;&gt;icmp6_output</title>
<path fill="none" stroke="black" d="M1095.67,-547.51C1108.07,-545.62 1120.95,-543.65 1132.93,-541.82"/>
<polygon fill="black" stroke="black" points="1133.24,-545.31 1142.59,-540.34 1132.18,-538.39 1133.24,-545.31"/>
</g>
<!-- ip6_error_ttl_exceeded -->
<g id="node27" class="node">
<title>ip6_error_ttl_exceeded</title>
<ellipse fill="none" stroke="black" cx="1032.58" cy="-611" rx="71.1" ry="18"/>
<text text-anchor="middle" x="1032.58" y="-607.3" font-family="sans" font-size="11.00">ip6_error_ttl_exceeded</text>
</g>
<!-- ip6_error_ttl_exceeded&#45;&gt;icmp6_output -->
<g id="edge31" class="edge">
<title>ip6_error_ttl_exceeded&#45;&gt;icmp6_output</title>
<path fill="none" stroke="black" d="M1076.6,-596.61C1086.36,-592.88 1096.57,-588.6 1105.79,-584 1121.97,-575.92 1139,-565.33 1153.03,-555.97"/>
<polygon fill="black" stroke="black" points="1154.65,-559.1 1160.96,-550.59 1150.72,-553.31 1154.65,-559.1"/>
</g>
<!-- ip6_forward&#45;&gt;ip6_output -->
<g id="edge32" class="edge">
<title>ip6_forward&#45;&gt;ip6_output</title>
<path fill="none" stroke="black" d="M715.68,-583.58C744.83,-560.58 799.82,-517.22 833.15,-490.93"/>
<polygon fill="black" stroke="black" points="835.06,-493.88 840.75,-484.94 830.73,-488.38 835.06,-493.88"/>
</g>
<!-- ip6_forward&#45;&gt;ip6_error_ttl_exceeded -->
<g id="edge33" class="edge">
<title>ip6_forward&#45;&gt;ip6_error_ttl_exceeded</title>
<path fill="none" stroke="black" d="M732.66,-600.31C784.62,-602.17 881.23,-605.62 950.56,-608.1"/>
<polygon fill="black" stroke="black" points="950.25,-611.59 960.37,-608.45 950.5,-604.6 950.25,-611.59"/>
</g>
<!-- ip6_input_local&#45;&gt;icmp6_input -->
<g id="edge37" class="edge">
<title>ip6_input_local&#45;&gt;icmp6_input</title>
<path fill="none" stroke="black" d="M419.02,-494.23C436.02,-493.19 455.37,-492.02 472.64,-490.97"/>
<polygon fill="black" stroke="black" points="472.36,-494.49 482.13,-490.39 471.94,-487.5 472.36,-494.49"/>
</g>
</g>
</svg>
