<?xml version="1.0" encoding="UTF-8" standalone="no"?>
<!DOCTYPE svg PUBLIC "-//W3C//DTD SVG 1.1//EN"
 "http://www.w3.org/Graphics/SVG/1.1/DTD/svg11.dtd">
<!-- Generated by graphviz version 2.44.0 (0)
 -->
<!-- Title: gr&#45;0004 Pages: 1 -->
<svg width="1199pt" height="720pt"
 viewBox="0.00 0.00 1199.09 720.19" xmlns="http://www.w3.org/2000/svg" xmlns:xlink="http://www.w3.org/1999/xlink">
<g id="graph0" class="graph" transform="scale(1 1) rotate(0) translate(4 716.19)">
<title>gr&#45;0004</title>
<polygon fill="white" stroke="transparent" points="-4,4 -4,-716.19 1195.09,-716.19 1195.09,4 -4,4"/>
<!-- control_input -->
<g id="node1" class="node">
<title>control_input</title>
<ellipse fill="none" stroke="blue" stroke-width="2" cx="40.16" cy="-483.19" rx="40.32" ry="18"/>
<text text-anchor="middle" x="40.16" y="-480.39" font-family="sans" font-size="11.00">control_input</text>
</g>
<!-- loopback_input -->
<g id="node2" class="node">
<title>loopback_input</title>
<ellipse fill="none" stroke="black" cx="165.71" cy="-298.19" rx="45.68" ry="18"/>
<text text-anchor="middle" x="165.71" y="-295.39" font-family="sans" font-size="11.00">loopback_input</text>
</g>
<!-- control_input&#45;&gt;loopback_input -->
<g id="edge1" class="edge">
<title>control_input&#45;&gt;loopback_input</title>
<path fill="none" stroke="blue" stroke-width="2" d="M60.66,-467.43C67.35,-461.49 74.58,-454.42 80.32,-447.19 96.83,-426.41 131.36,-362.13 150.74,-325.14"/>
<polygon fill="blue" stroke="blue" stroke-width="2" points="154.03,-326.42 155.55,-315.93 147.82,-323.18 154.03,-326.42"/>
</g>
<!-- arp_output_request -->
<g id="node3" class="node">
<title>arp_output_request</title>
<ellipse fill="none" stroke="black" cx="310.25" cy="-650.19" rx="59.31" ry="18"/>
<text text-anchor="middle" x="310.25" y="-647.39" font-family="sans" font-size="11.00">arp_output_request</text>
</g>
<!-- control_input&#45;&gt;arp_output_request -->
<g id="edge2" class="edge">
<title>control_input&#45;&gt;arp_output_request</title>
<path fill="none" stroke="blue" stroke-width="2" d="M64.48,-497.71C111.79,-527.18 219.22,-594.1 274.69,-628.65"/>
<polygon fill="blue" stroke="blue" stroke-width="2" points="273.11,-631.79 283.45,-634.11 276.81,-625.85 273.11,-631.79"/>
</g>
<!-- icmp_local_send -->
<g id="node4" class="node">
<title>icmp_local_send</title>
<ellipse fill="none" stroke="black" cx="165.71" cy="-122.19" rx="49.28" ry="18"/>
<text text-anchor="middle" x="165.71" y="-119.39" font-family="sans" font-size="11.00">icmp_local_send</text>
</g>
<!-- control_input&#45;&gt;icmp_local_send -->
<g id="edge3" class="edge">
<title>control_input&#45;&gt;icmp_local_send</title>
<path fill="none" stroke="blue" stroke-width="2" d="M62.41,-467.98C69.09,-462.19 75.87,-455.06 80.32,-447.19 119.62,-377.68 95.96,-348.39 116.32,-271.19 127.62,-228.37 144.11,-179.75 154.63,-150.03"/>
<polygon fill="blue" stroke="blue" stroke-width="2" points="158.02,-150.93 158.08,-140.34 151.43,-148.58 158.02,-150.93"/>
</g>
<!-- ndp_ns_output -->
<g id="node5" class="node">
<title>ndp_ns_output</title>
<ellipse fill="none" stroke="black" cx="310.25" cy="-535.19" rx="44.51" ry="18"/>
<text text-anchor="middle" x="310.25" y="-532.39" font-family="sans" font-size="11.00">ndp_ns_output</text>
</g>
<!-- control_input&#45;&gt;ndp_ns_output -->
<g id="edge4" class="edge">
<title>control_input&#45;&gt;ndp_ns_output</title>
<path fill="none" stroke="blue" stroke-width="2" d="M77.32,-490.2C124.45,-499.34 207.07,-515.37 259.93,-525.62"/>
<polygon fill="blue" stroke="blue" stroke-width="2" points="259.27,-529.06 269.76,-527.52 260.61,-522.18 259.27,-529.06"/>
</g>
<!-- ip_input_local -->
<g id="node13" class="node">
<title>ip_input_local</title>
<ellipse fill="none" stroke="black" cx="310.25" cy="-252.19" rx="41.49" ry="18"/>
<text text-anchor="middle" x="310.25" y="-249.39" font-family="sans" font-size="11.00">ip_input_local</text>
</g>
<!-- loopback_input&#45;&gt;ip_input_local -->
<g id="edge9" class="edge">
<title>loopback_input&#45;&gt;ip_input_local</title>
<path fill="none" stroke="black" d="M201.58,-286.93C221.36,-280.55 246.26,-272.52 267.12,-265.78"/>
<polygon fill="black" stroke="black" points="268.26,-269.09 276.7,-262.69 266.11,-262.43 268.26,-269.09"/>
</g>
<!-- ip_output -->
<g id="node14" class="node">
<title>ip_output</title>
<ellipse fill="none" stroke="black" cx="877.58" cy="-205.19" rx="29.12" ry="18"/>
<text text-anchor="middle" x="877.58" y="-202.39" font-family="sans" font-size="11.00">ip_output</text>
</g>
<!-- loopback_input&#45;&gt;ip_output -->
<g id="edge10" class="edge">
<title>loopback_input&#45;&gt;ip_output</title>
<path fill="none" stroke="black" d="M178.46,-280.62C213.36,-230.81 321.91,-92.19 449.46,-92.19 449.46,-92.19 449.46,-92.19 601.97,-92.19 699.08,-92.19 801.95,-153.36 849.53,-185.69"/>
<polygon fill="black" stroke="black" points="847.81,-188.75 858.03,-191.56 851.79,-182.99 847.81,-188.75"/>
</g>
<!-- ip6_input_local -->
<g id="node15" class="node">
<title>ip6_input_local</title>
<ellipse fill="none" stroke="black" cx="450.46" cy="-382.19" rx="45.09" ry="18"/>
<text text-anchor="middle" x="450.46" y="-379.39" font-family="sans" font-size="11.00">ip6_input_local</text>
</g>
<!-- loopback_input&#45;&gt;ip6_input_local -->
<g id="edge11" class="edge">
<title>loopback_input&#45;&gt;ip6_input_local</title>
<path fill="none" stroke="black" d="M211.52,-296.7C253.77,-296.85 318.1,-301.13 369.41,-322.19 388.16,-329.88 389.21,-338 405.41,-350.19 409.85,-353.52 414.57,-357.01 419.21,-360.41"/>
<polygon fill="black" stroke="black" points="417.25,-363.32 427.4,-366.37 421.37,-357.66 417.25,-363.32"/>
</g>
<!-- ip6_output -->
<g id="node16" class="node">
<title>ip6_output</title>
<ellipse fill="none" stroke="black" cx="877.58" cy="-497.19" rx="32.63" ry="18"/>
<text text-anchor="middle" x="877.58" y="-494.39" font-family="sans" font-size="11.00">ip6_output</text>
</g>
<!-- loopback_input&#45;&gt;ip6_output -->
<g id="edge12" class="edge">
<title>loopback_input&#45;&gt;ip6_output</title>
<path fill="none" stroke="black" d="M195.67,-311.77C258.05,-341.01 399.98,-407.45 405.41,-409.19 486.26,-435.08 737.52,-475.6 836.2,-490.98"/>
<polygon fill="black" stroke="black" points="835.67,-494.44 846.09,-492.52 836.75,-487.52 835.67,-494.44"/>
</g>
<!-- eth_output -->
<g id="node11" class="node">
<title>eth_output</title>
<ellipse fill="none" stroke="black" cx="1015.61" cy="-444.19" rx="33.8" ry="18"/>
<text text-anchor="middle" x="1015.61" y="-441.39" font-family="sans" font-size="11.00">eth_output</text>
</g>
<!-- arp_output_request&#45;&gt;eth_output -->
<g id="edge18" class="edge">
<title>arp_output_request&#45;&gt;eth_output</title>
<path fill="none" stroke="black" d="M349.45,-663.79C404.2,-682.04 508.46,-712.19 599.97,-712.19 599.97,-712.19 599.97,-712.19 749.23,-712.19 884.03,-712.19 973.65,-538.86 1003.57,-470.99"/>
<polygon fill="black" stroke="black" points="1006.8,-472.34 1007.55,-461.77 1000.38,-469.56 1006.8,-472.34"/>
</g>
<!-- icmp_output -->
<g id="node21" class="node">
<title>icmp_output</title>
<ellipse fill="none" stroke="black" cx="600.97" cy="-46.19" rx="37.98" ry="18"/>
<text text-anchor="middle" x="600.97" y="-43.39" font-family="sans" font-size="11.00">icmp_output</text>
</g>
<!-- icmp_local_send&#45;&gt;icmp_output -->
<g id="edge21" class="edge">
<title>icmp_local_send&#45;&gt;icmp_output</title>
<path fill="none" stroke="black" d="M191.97,-106.71C234.26,-81.9 322.86,-34.43 405.41,-19.19 444.79,-11.91 455.78,-14.14 495.5,-19.19 517.02,-21.92 540.45,-27.71 559.66,-33.22"/>
<polygon fill="black" stroke="black" points="558.7,-36.59 569.29,-36.07 560.69,-29.88 558.7,-36.59"/>
</g>
<!-- ndp_ns_output&#45;&gt;ip6_output -->
<g id="edge49" class="edge">
<title>ndp_ns_output&#45;&gt;ip6_output</title>
<path fill="none" stroke="black" d="M354.84,-537.42C370.75,-538.14 388.89,-538.83 405.41,-539.19 445.44,-540.04 456.64,-548.81 495.5,-539.19 513.06,-534.84 514.33,-525.87 531.5,-520.19 606.19,-495.49 628,-499.2 706.44,-493.19 743.48,-490.34 752.88,-492.33 790.02,-493.19 804.66,-493.52 820.69,-494.18 834.93,-494.87"/>
<polygon fill="black" stroke="black" points="834.77,-498.37 844.93,-495.37 835.12,-491.38 834.77,-498.37"/>
</g>
<!-- control_output -->
<g id="node6" class="node">
<title>control_output</title>
<ellipse fill="none" stroke="black" cx="1146.58" cy="-136.19" rx="44.51" ry="18"/>
<text text-anchor="middle" x="1146.58" y="-133.39" font-family="sans" font-size="11.00">control_output</text>
</g>
<!-- eth_input -->
<g id="node7" class="node">
<title>eth_input</title>
<ellipse fill="none" stroke="black" cx="165.71" cy="-420.19" rx="29.12" ry="18"/>
<text text-anchor="middle" x="165.71" y="-417.39" font-family="sans" font-size="11.00">eth_input</text>
</g>
<!-- arp_input -->
<g id="node8" class="node">
<title>arp_input</title>
<ellipse fill="none" stroke="black" cx="748.23" cy="-390.19" rx="29.12" ry="18"/>
<text text-anchor="middle" x="748.23" y="-387.39" font-family="sans" font-size="11.00">arp_input</text>
</g>
<!-- eth_input&#45;&gt;arp_input -->
<g id="edge5" class="edge">
<title>eth_input&#45;&gt;arp_input</title>
<path fill="none" stroke="black" d="M190.6,-430.02C207.24,-436.32 230.12,-443.91 251.1,-447.19 423,-474.02 630.25,-423.76 711.81,-400.78"/>
<polygon fill="black" stroke="black" points="712.92,-404.11 721.57,-397.99 710.99,-397.38 712.92,-404.11"/>
</g>
<!-- ip_input -->
<g id="node9" class="node">
<title>ip_input</title>
<ellipse fill="none" stroke="black" cx="600.97" cy="-187.19" rx="27" ry="18"/>
<text text-anchor="middle" x="600.97" y="-184.39" font-family="sans" font-size="11.00">ip_input</text>
</g>
<!-- eth_input&#45;&gt;ip_input -->
<g id="edge6" class="edge">
<title>eth_input&#45;&gt;ip_input</title>
<path fill="none" stroke="black" d="M187.31,-407.81C242.29,-374.99 397.42,-283.68 531.5,-217.19 543.31,-211.33 556.53,-205.4 568.17,-200.37"/>
<polygon fill="black" stroke="black" points="569.7,-203.53 577.52,-196.39 566.95,-197.09 569.7,-203.53"/>
</g>
<!-- ip6_input -->
<g id="node10" class="node">
<title>ip6_input</title>
<ellipse fill="none" stroke="black" cx="310.25" cy="-420.19" rx="28.44" ry="18"/>
<text text-anchor="middle" x="310.25" y="-417.39" font-family="sans" font-size="11.00">ip6_input</text>
</g>
<!-- eth_input&#45;&gt;ip6_input -->
<g id="edge7" class="edge">
<title>eth_input&#45;&gt;ip6_input</title>
<path fill="none" stroke="black" d="M195.21,-420.19C217.15,-420.19 247.67,-420.19 271.62,-420.19"/>
<polygon fill="black" stroke="black" points="271.77,-423.69 281.77,-420.19 271.77,-416.69 271.77,-423.69"/>
</g>
<!-- arp_input&#45;&gt;ip_output -->
<g id="edge16" class="edge">
<title>arp_input&#45;&gt;ip_output</title>
<path fill="none" stroke="black" d="M760.53,-373.77C782.9,-341.27 832.95,-268.56 859.42,-230.11"/>
<polygon fill="black" stroke="black" points="862.51,-231.79 865.3,-221.57 856.75,-227.82 862.51,-231.79"/>
</g>
<!-- arp_output_reply -->
<g id="node19" class="node">
<title>arp_output_reply</title>
<ellipse fill="none" stroke="black" cx="877.58" cy="-392.19" rx="51.62" ry="18"/>
<text text-anchor="middle" x="877.58" y="-389.39" font-family="sans" font-size="11.00">arp_output_reply</text>
</g>
<!-- arp_input&#45;&gt;arp_output_reply -->
<g id="edge15" class="edge">
<title>arp_input&#45;&gt;arp_output_reply</title>
<path fill="none" stroke="black" d="M777.81,-390.63C789.14,-390.81 802.64,-391.02 815.96,-391.23"/>
<polygon fill="black" stroke="black" points="816.01,-394.73 826.07,-391.39 816.12,-387.74 816.01,-394.73"/>
</g>
<!-- ip_input&#45;&gt;ip_input_local -->
<g id="edge25" class="edge">
<title>ip_input&#45;&gt;ip_input_local</title>
<path fill="none" stroke="black" d="M573.97,-187.3C536.17,-188.06 464.15,-191.78 405.41,-208.19 384.59,-214 362.63,-224.01 345.17,-233.01"/>
<polygon fill="black" stroke="black" points="343.16,-230.11 335.96,-237.88 346.44,-236.3 343.16,-230.11"/>
</g>
<!-- ip_forward -->
<g id="node22" class="node">
<title>ip_forward</title>
<ellipse fill="none" stroke="black" cx="748.23" cy="-193.19" rx="32.63" ry="18"/>
<text text-anchor="middle" x="748.23" y="-190.39" font-family="sans" font-size="11.00">ip_forward</text>
</g>
<!-- ip_input&#45;&gt;ip_forward -->
<g id="edge24" class="edge">
<title>ip_input&#45;&gt;ip_forward</title>
<path fill="none" stroke="black" d="M627.94,-188.26C649.43,-189.15 680.38,-190.42 705.36,-191.46"/>
<polygon fill="black" stroke="black" points="705.53,-194.97 715.66,-191.88 705.82,-187.97 705.53,-194.97"/>
</g>
<!-- ip6_input&#45;&gt;ip6_input_local -->
<g id="edge40" class="edge">
<title>ip6_input&#45;&gt;ip6_input_local</title>
<path fill="none" stroke="black" d="M336.6,-413.22C355.12,-408.12 380.75,-401.08 402.91,-394.98"/>
<polygon fill="black" stroke="black" points="404.1,-398.29 412.81,-392.26 402.24,-391.54 404.1,-398.29"/>
</g>
<!-- ip6_forward -->
<g id="node32" class="node">
<title>ip6_forward</title>
<ellipse fill="none" stroke="black" cx="450.46" cy="-512.19" rx="35.64" ry="18"/>
<text text-anchor="middle" x="450.46" y="-509.39" font-family="sans" font-size="11.00">ip6_forward</text>
</g>
<!-- ip6_input&#45;&gt;ip6_forward -->
<g id="edge39" class="edge">
<title>ip6_input&#45;&gt;ip6_forward</title>
<path fill="none" stroke="black" d="M330.47,-432.98C353.53,-448.33 392.45,-474.24 419.47,-492.22"/>
<polygon fill="black" stroke="black" points="417.87,-495.37 428.14,-497.99 421.75,-489.54 417.87,-495.37"/>
</g>
<!-- port_tx -->
<g id="node12" class="node">
<title>port_tx</title>
<ellipse fill="none" stroke="black" cx="1146.58" cy="-444.19" rx="27" ry="18"/>
<text text-anchor="middle" x="1146.58" y="-441.39" font-family="sans" font-size="11.00">port_tx</text>
</g>
<!-- eth_output&#45;&gt;port_tx -->
<g id="edge8" class="edge">
<title>eth_output&#45;&gt;port_tx</title>
<path fill="none" stroke="black" d="M1049.49,-444.19C1067.66,-444.19 1090.29,-444.19 1109.03,-444.19"/>
<polygon fill="black" stroke="black" points="1109.26,-447.69 1119.26,-444.19 1109.26,-440.69 1109.26,-447.69"/>
</g>
<!-- icmp_input -->
<g id="node20" class="node">
<title>icmp_input</title>
<ellipse fill="none" stroke="black" cx="450.46" cy="-46.19" rx="33.8" ry="18"/>
<text text-anchor="middle" x="450.46" y="-43.39" font-family="sans" font-size="11.00">icmp_input</text>
</g>
<!-- ip_input_local&#45;&gt;icmp_input -->
<g id="edge26" class="edge">
<title>ip_input_local&#45;&gt;icmp_input</title>
<path fill="none" stroke="black" d="M322.81,-234.79C340.53,-208.15 375.51,-155.64 405.41,-111.19 414.2,-98.12 424.03,-83.6 432.17,-71.61"/>
<polygon fill="black" stroke="black" points="435.3,-73.24 438.02,-63 429.5,-69.31 435.3,-73.24"/>
</g>
<!-- ipip_input -->
<g id="node23" class="node">
<title>ipip_input</title>
<ellipse fill="none" stroke="black" cx="450.46" cy="-138.19" rx="29.7" ry="18"/>
<text text-anchor="middle" x="450.46" y="-135.39" font-family="sans" font-size="11.00">ipip_input</text>
</g>
<!-- ip_input_local&#45;&gt;ipip_input -->
<g id="edge27" class="edge">
<title>ip_input_local&#45;&gt;ipip_input</title>
<path fill="none" stroke="black" d="M328.9,-235.98C347.53,-219.09 377.94,-192.06 405.41,-170.19 410.65,-166.01 416.37,-161.7 421.89,-157.64"/>
<polygon fill="black" stroke="black" points="424.28,-160.23 430.32,-151.53 420.17,-154.56 424.28,-160.23"/>
</g>
<!-- tcp_redirect_loopback -->
<g id="node24" class="node">
<title>tcp_redirect_loopback</title>
<ellipse fill="none" stroke="black" cx="600.97" cy="-244.19" rx="66.42" ry="18"/>
<text text-anchor="middle" x="600.97" y="-241.39" font-family="sans" font-size="11.00">tcp_redirect_loopback</text>
</g>
<!-- ip_input_local&#45;&gt;tcp_redirect_loopback -->
<g id="edge28" class="edge">
<title>ip_input_local&#45;&gt;tcp_redirect_loopback</title>
<path fill="none" stroke="black" d="M351.7,-251.06C396.48,-249.82 469.64,-247.8 524.97,-246.26"/>
<polygon fill="black" stroke="black" points="525.18,-249.76 535.08,-245.98 524.99,-242.76 525.18,-249.76"/>
</g>
<!-- udp_redirect_loopback -->
<g id="node25" class="node">
<title>udp_redirect_loopback</title>
<ellipse fill="none" stroke="black" cx="600.97" cy="-298.19" rx="67.68" ry="18"/>
<text text-anchor="middle" x="600.97" y="-295.39" font-family="sans" font-size="11.00">udp_redirect_loopback</text>
</g>
<!-- ip_input_local&#45;&gt;udp_redirect_loopback -->
<g id="edge29" class="edge">
<title>ip_input_local&#45;&gt;udp_redirect_loopback</title>
<path fill="none" stroke="black" d="M349.3,-258.25C395.81,-265.66 475.36,-278.33 532.38,-287.42"/>
<polygon fill="black" stroke="black" points="531.97,-290.9 542.4,-289.01 533.07,-283.98 531.97,-290.9"/>
</g>
<!-- sctp_redirect_loopback -->
<g id="node26" class="node">
<title>sctp_redirect_loopback</title>
<ellipse fill="none" stroke="black" cx="600.97" cy="-352.19" rx="69.44" ry="18"/>
<text text-anchor="middle" x="600.97" y="-349.39" font-family="sans" font-size="11.00">sctp_redirect_loopback</text>
</g>
<!-- ip_input_local&#45;&gt;sctp_redirect_loopback -->
<g id="edge30" class="edge">
<title>ip_input_local&#45;&gt;sctp_redirect_loopback</title>
<path fill="none" stroke="black" d="M341.65,-264.23C360.03,-271.4 383.97,-280.57 405.41,-288.19 452.82,-305.04 507.27,-322.81 546.48,-335.34"/>
<polygon fill="black" stroke="black" points="545.52,-338.71 556.11,-338.41 547.65,-332.04 545.52,-338.71"/>
</g>
<!-- ip_output&#45;&gt;eth_output -->
<g id="edge31" class="edge">
<title>ip_output&#45;&gt;eth_output</title>
<path fill="none" stroke="black" d="M888.14,-221.99C911.55,-263.12 971.84,-369.04 999.87,-418.29"/>
<polygon fill="black" stroke="black" points="996.88,-420.12 1004.87,-427.08 1002.97,-416.66 996.88,-420.12"/>
</g>
<!-- loopback_output -->
<g id="node17" class="node">
<title>loopback_output</title>
<ellipse fill="none" stroke="black" cx="1015.61" cy="-277.19" rx="50.45" ry="18"/>
<text text-anchor="middle" x="1015.61" y="-274.39" font-family="sans" font-size="11.00">loopback_output</text>
</g>
<!-- ip_output&#45;&gt;loopback_output -->
<g id="edge32" class="edge">
<title>ip_output&#45;&gt;loopback_output</title>
<path fill="none" stroke="black" d="M900.43,-216.75C921.21,-227.75 952.87,-244.51 977.58,-257.59"/>
<polygon fill="black" stroke="black" points="976.2,-260.82 986.68,-262.4 979.48,-254.63 976.2,-260.82"/>
</g>
<!-- ipip_output -->
<g id="node27" class="node">
<title>ipip_output</title>
<ellipse fill="none" stroke="black" cx="1015.61" cy="-205.19" rx="34.38" ry="18"/>
<text text-anchor="middle" x="1015.61" y="-202.39" font-family="sans" font-size="11.00">ipip_output</text>
</g>
<!-- ip_output&#45;&gt;ipip_output -->
<g id="edge33" class="edge">
<title>ip_output&#45;&gt;ipip_output</title>
<path fill="none" stroke="black" d="M905.78,-199.66C925.05,-198.33 951.27,-198.08 973.14,-198.92"/>
<polygon fill="black" stroke="black" points="973.01,-202.41 983.16,-199.39 973.34,-195.42 973.01,-202.41"/>
</g>
<!-- ip6_input_local&#45;&gt;tcp_redirect_loopback -->
<g id="edge42" class="edge">
<title>ip6_input_local&#45;&gt;tcp_redirect_loopback</title>
<path fill="none" stroke="black" d="M460.14,-364.37C472.75,-340.18 498.3,-297 531.5,-271.19 536.09,-267.62 541.21,-264.47 546.53,-261.7"/>
<polygon fill="black" stroke="black" points="548.07,-264.84 555.6,-257.38 545.07,-258.51 548.07,-264.84"/>
</g>
<!-- ip6_input_local&#45;&gt;udp_redirect_loopback -->
<g id="edge43" class="edge">
<title>ip6_input_local&#45;&gt;udp_redirect_loopback</title>
<path fill="none" stroke="black" d="M471.29,-365.98C486.97,-353.7 509.76,-336.98 531.5,-325.19 537.18,-322.11 543.28,-319.19 549.42,-316.49"/>
<polygon fill="black" stroke="black" points="551.18,-319.55 559.04,-312.44 548.47,-313.1 551.18,-319.55"/>
</g>
<!-- ip6_input_local&#45;&gt;sctp_redirect_loopback -->
<g id="edge44" class="edge">
<title>ip6_input_local&#45;&gt;sctp_redirect_loopback</title>
<path fill="none" stroke="black" d="M490.87,-374.22C504.61,-371.45 520.42,-368.26 535.66,-365.18"/>
<polygon fill="black" stroke="black" points="536.45,-368.59 545.56,-363.18 535.06,-361.73 536.45,-368.59"/>
</g>
<!-- icmp6_input -->
<g id="node28" class="node">
<title>icmp6_input</title>
<ellipse fill="none" stroke="black" cx="600.97" cy="-547.19" rx="37.4" ry="18"/>
<text text-anchor="middle" x="600.97" y="-544.39" font-family="sans" font-size="11.00">icmp6_input</text>
</g>
<!-- ip6_input_local&#45;&gt;icmp6_input -->
<g id="edge41" class="edge">
<title>ip6_input_local&#45;&gt;icmp6_input</title>
<path fill="none" stroke="black" d="M466.79,-399.22C493.27,-428.65 547.67,-489.08 578.11,-522.9"/>
<polygon fill="black" stroke="black" points="575.65,-525.4 584.94,-530.49 580.85,-520.71 575.65,-525.4"/>
</g>
<!-- ip6_output&#45;&gt;eth_output -->
<g id="edge45" class="edge">
<title>ip6_output&#45;&gt;eth_output</title>
<path fill="none" stroke="black" d="M904.8,-486.97C925.75,-478.81 955.32,-467.29 978.5,-458.25"/>
<polygon fill="black" stroke="black" points="979.95,-461.45 988,-454.55 977.41,-454.92 979.95,-461.45"/>
</g>
<!-- ip6_output&#45;&gt;loopback_output -->
<g id="edge46" class="edge">
<title>ip6_output&#45;&gt;loopback_output</title>
<path fill="none" stroke="black" d="M889.79,-480.25C900.14,-464.52 915.88,-440.4 929.13,-419.19 954.07,-379.28 982.02,-332.42 998.96,-303.77"/>
<polygon fill="black" stroke="black" points="1002.2,-305.18 1004.27,-294.79 996.17,-301.62 1002.2,-305.18"/>
</g>
<!-- loopback_output&#45;&gt;control_output -->
<g id="edge13" class="edge">
<title>loopback_output&#45;&gt;control_output</title>
<path fill="none" stroke="black" d="M1035.99,-260.69C1045.37,-252.43 1056.62,-242.1 1066.08,-232.19 1087.92,-209.31 1110.73,-181.27 1126.29,-161.42"/>
<polygon fill="black" stroke="black" points="1129.11,-163.49 1132.49,-153.45 1123.58,-159.19 1129.11,-163.49"/>
</g>
<!-- port_rx -->
<g id="node18" class="node">
<title>port_rx</title>
<ellipse fill="none" stroke="blue" stroke-width="2" cx="40.16" cy="-420.19" rx="27" ry="18"/>
<text text-anchor="middle" x="40.16" y="-417.39" font-family="sans" font-size="11.00">port_rx</text>
</g>
<!-- port_rx&#45;&gt;eth_input -->
<g id="edge14" class="edge">
<title>port_rx&#45;&gt;eth_input</title>
<path fill="none" stroke="blue" stroke-width="2" d="M67.36,-420.19C84.46,-420.19 107.06,-420.19 126.19,-420.19"/>
<polygon fill="blue" stroke="blue" stroke-width="2" points="126.39,-423.69 136.39,-420.19 126.39,-416.69 126.39,-423.69"/>
</g>
<!-- arp_output_reply&#45;&gt;eth_output -->
<g id="edge17" class="edge">
<title>arp_output_reply&#45;&gt;eth_output</title>
<path fill="none" stroke="black" d="M912.9,-405.31C932.79,-412.91 957.81,-422.48 978.07,-430.22"/>
<polygon fill="black" stroke="black" points="976.99,-433.55 987.58,-433.85 979.49,-427.01 976.99,-433.55"/>
</g>
<!-- icmp_input&#45;&gt;control_output -->
<g id="edge20" class="edge">
<title>icmp_input&#45;&gt;control_output</title>
<path fill="none" stroke="black" d="M477.7,-35.57C493.12,-29.79 513.13,-23.04 531.5,-19.19 625.71,0.56 650.98,-0.19 747.23,-0.19 747.23,-0.19 747.23,-0.19 878.58,-0.19 976.77,-0.19 1075.32,-74.12 1120.32,-112.96"/>
<polygon fill="black" stroke="black" points="1118.26,-115.81 1128.08,-119.78 1122.88,-110.55 1118.26,-115.81"/>
</g>
<!-- icmp_input&#45;&gt;icmp_output -->
<g id="edge19" class="edge">
<title>icmp_input&#45;&gt;icmp_output</title>
<path fill="none" stroke="black" d="M484.42,-46.19C504.48,-46.19 530.45,-46.19 552.68,-46.19"/>
<polygon fill="black" stroke="black" points="552.93,-49.69 562.93,-46.19 552.93,-42.69 552.93,-49.69"/>
</g>
<!-- icmp_output&#45;&gt;ip_output -->
<g id="edge22" class="edge">
<title>icmp_output&#45;&gt;ip_output</title>
<path fill="none" stroke="black" d="M638.93,-44.25C679.21,-43.91 744.03,-48.67 790.02,-78.19 827.34,-102.14 852.69,-148.52 865.88,-178.12"/>
<polygon fill="black" stroke="black" points="862.72,-179.64 869.88,-187.45 869.15,-176.88 862.72,-179.64"/>
</g>
<!-- ip_forward&#45;&gt;ip_output -->
<g id="edge23" class="edge">
<title>ip_forward&#45;&gt;ip_output</title>
<path fill="none" stroke="black" d="M780.38,-196.12C797.82,-197.76 819.71,-199.83 838.2,-201.57"/>
<polygon fill="black" stroke="black" points="838.07,-205.07 848.35,-202.53 838.72,-198.1 838.07,-205.07"/>
</g>
<!-- ipip_input&#45;&gt;ip_input -->
<g id="edge50" class="edge">
<title>ipip_input&#45;&gt;ip_input</title>
<path fill="none" stroke="black" d="M476.99,-146.61C501.7,-154.76 539.29,-167.17 566.41,-176.11"/>
<polygon fill="black" stroke="black" points="565.65,-179.55 576.24,-179.36 567.84,-172.9 565.65,-179.55"/>
</g>
<!-- tcp_redirect_loopback&#45;&gt;loopback_output -->
<g id="edge52" class="edge">
<title>tcp_redirect_loopback&#45;&gt;loopback_output</title>
<path fill="none" stroke="black" d="M664.64,-249.2C743.83,-255.53 879.06,-266.35 956.18,-272.51"/>
<polygon fill="black" stroke="black" points="955.96,-276.01 966.21,-273.32 956.52,-269.03 955.96,-276.01"/>
</g>
<!-- udp_redirect_loopback&#45;&gt;loopback_output -->
<g id="edge53" class="edge">
<title>udp_redirect_loopback&#45;&gt;loopback_output</title>
<path fill="none" stroke="black" d="M667.81,-294.83C747.02,-290.8 878.84,-284.09 955.11,-280.21"/>
<polygon fill="black" stroke="black" points="955.69,-283.69 965.49,-279.69 955.33,-276.7 955.69,-283.69"/>
</g>
<!-- sctp_redirect_loopback&#45;&gt;loopback_output -->
<g id="edge54" class="edge">
<title>sctp_redirect_loopback&#45;&gt;loopback_output</title>
<path fill="none" stroke="black" d="M661.58,-343.33C727.31,-333.28 836.1,-315.87 929.13,-297.19 940.34,-294.93 952.32,-292.28 963.66,-289.66"/>
<polygon fill="black" stroke="black" points="964.48,-293.07 973.42,-287.38 962.89,-286.25 964.48,-293.07"/>
</g>
<!-- ipip_output&#45;&gt;ip_output -->
<g id="edge51" class="edge">
<title>ipip_output&#45;&gt;ip_output</title>
<path fill="none" stroke="black" d="M983.16,-210.98C963.13,-212.14 937.08,-212.24 915.99,-211.29"/>
<polygon fill="black" stroke="black" points="915.96,-207.78 905.78,-210.71 915.56,-214.77 915.96,-207.78"/>
</g>
<!-- icmp6_output -->
<g id="node29" class="node">
<title>icmp6_output</title>
<ellipse fill="none" stroke="black" cx="748.23" cy="-520.19" rx="41.58" ry="18"/>
<text text-anchor="middle" x="748.23" y="-517.39" font-family="sans" font-size="11.00">icmp6_output</text>
</g>
<!-- icmp6_input&#45;&gt;icmp6_output -->
<g id="edge34" class="edge">
<title>icmp6_input&#45;&gt;icmp6_output</title>
<path fill="none" stroke="black" d="M636.03,-540.86C654.98,-537.33 678.87,-532.89 699.64,-529.03"/>
<polygon fill="black" stroke="black" points="700.36,-532.46 709.56,-527.19 699.08,-525.57 700.36,-532.46"/>
</g>
<!-- ndp_ns_input -->
<g id="node30" class="node">
<title>ndp_ns_input</title>
<ellipse fill="none" stroke="black" cx="748.23" cy="-628.19" rx="40.32" ry="18"/>
<text text-anchor="middle" x="748.23" y="-625.39" font-family="sans" font-size="11.00">ndp_ns_input</text>
</g>
<!-- icmp6_input&#45;&gt;ndp_ns_input -->
<g id="edge35" class="edge">
<title>icmp6_input&#45;&gt;ndp_ns_input</title>
<path fill="none" stroke="black" d="M626.28,-560.74C650.12,-574.04 686.68,-594.42 713.36,-609.3"/>
<polygon fill="black" stroke="black" points="711.91,-612.5 722.35,-614.31 715.32,-606.39 711.91,-612.5"/>
</g>
<!-- ndp_na_input -->
<g id="node31" class="node">
<title>ndp_na_input</title>
<ellipse fill="none" stroke="black" cx="748.23" cy="-574.19" rx="40.91" ry="18"/>
<text text-anchor="middle" x="748.23" y="-571.39" font-family="sans" font-size="11.00">ndp_na_input</text>
</g>
<!-- icmp6_input&#45;&gt;ndp_na_input -->
<g id="edge36" class="edge">
<title>icmp6_input&#45;&gt;ndp_na_input</title>
<path fill="none" stroke="black" d="M636.03,-553.52C655.2,-557.08 679.41,-561.58 700.35,-565.47"/>
<polygon fill="black" stroke="black" points="699.86,-568.94 710.33,-567.33 701.14,-562.06 699.86,-568.94"/>
</g>
<!-- icmp6_output&#45;&gt;ip6_output -->
<g id="edge37" class="edge">
<title>icmp6_output&#45;&gt;ip6_output</title>
<path fill="none" stroke="black" d="M787.09,-513.35C802.61,-510.54 820.59,-507.3 836.34,-504.45"/>
<polygon fill="black" stroke="black" points="837.11,-507.87 846.32,-502.65 835.86,-500.98 837.11,-507.87"/>
</g>
<!-- ndp_ns_input&#45;&gt;ip6_output -->
<g id="edge48" class="edge">
<title>ndp_ns_input&#45;&gt;ip6_output</title>
<path fill="none" stroke="black" d="M773.38,-613.88C779.08,-610.06 784.96,-605.72 790.02,-601.19 816.89,-577.1 842.68,-544.48 859.01,-522.23"/>
<polygon fill="black" stroke="black" points="861.96,-524.12 864.99,-513.96 856.29,-520.01 861.96,-524.12"/>
</g>
<!-- ndp_na_input&#45;&gt;ip6_output -->
<g id="edge47" class="edge">
<title>ndp_na_input&#45;&gt;ip6_output</title>
<path fill="none" stroke="black" d="M773.18,-559.7C793.83,-547.22 823.74,-529.13 846.09,-515.62"/>
<polygon fill="black" stroke="black" points="848.11,-518.49 854.85,-510.32 844.49,-512.5 848.11,-518.49"/>
</g>
<!-- ip6_forward&#45;&gt;ip6_output -->
<g id="edge38" class="edge">
<title>ip6_forward&#45;&gt;ip6_output</title>
<path fill="none" stroke="black" d="M466.66,-528.44C515.62,-578.78 672.81,-724.62 790.02,-655.19 837.74,-626.92 860.88,-562 870.6,-524.77"/>
<polygon fill="black" stroke="black" points="874,-525.6 872.99,-515.06 867.2,-523.93 874,-525.6"/>
</g>
</g>
</svg>
