<?xml version="1.0" encoding="UTF-8" standalone="no"?>
<!DOCTYPE svg PUBLIC "-//W3C//DTD SVG 1.1//EN"
 "http://www.w3.org/Graphics/SVG/1.1/DTD/svg11.dtd">
<!-- Generated by graphviz version 2.43.0 (0)
 -->
<!-- Title: gr&#45;0002 Pages: 1 -->
<svg width="1773pt" height="948pt"
 viewBox="0.00 0.00 1773.10 948.00" xmlns="http://www.w3.org/2000/svg" xmlns:xlink="http://www.w3.org/1999/xlink">
<g id="graph0" class="graph" transform="scale(1 1) rotate(0) translate(4 944)">
<title>gr&#45;0002</title>
<polygon fill="white" stroke="transparent" points="-4,4 -4,-944 1769.1,-944 1769.1,4 -4,4"/>
<!-- control_input -->
<g id="node1" class="node">
<title>control_input</title>
<ellipse fill="none" stroke="blue" stroke-width="2" cx="40.16" cy="-231" rx="40.32" ry="18"/>
<text text-anchor="middle" x="40.16" y="-228.2" font-family="sans" font-size="11.00">control_input</text>
</g>
<!-- loopback_input -->
<g id="node2" class="node">
<title>loopback_input</title>
<ellipse fill="none" stroke="black" cx="161.91" cy="-296" rx="45.68" ry="18"/>
<text text-anchor="middle" x="161.91" y="-293.2" font-family="sans" font-size="11.00">loopback_input</text>
</g>
<!-- control_input&#45;&gt;loopback_input -->
<g id="edge1" class="edge">
<title>control_input&#45;&gt;loopback_input</title>
<path fill="none" stroke="blue" stroke-width="2" d="M66.56,-244.78C83.67,-254.07 106.48,-266.45 125.38,-276.71"/>
<polygon fill="blue" stroke="blue" stroke-width="2" points="123.85,-279.86 134.31,-281.56 127.19,-273.71 123.85,-279.86"/>
</g>
<!-- arp_output_request -->
<g id="node3" class="node">
<title>arp_output_request</title>
<ellipse fill="none" stroke="black" cx="553.75" cy="-110" rx="59.31" ry="18"/>
<text text-anchor="middle" x="553.75" y="-107.2" font-family="sans" font-size="11.00">arp_output_request</text>
</g>
<!-- control_input&#45;&gt;arp_output_request -->
<g id="edge2" class="edge">
<title>control_input&#45;&gt;arp_output_request</title>
<path fill="none" stroke="blue" stroke-width="2" d="M50.33,-213.27C62.33,-192.14 85.51,-157.7 116.32,-142 237.59,-80.19 402.87,-89.22 491.17,-100.21"/>
<polygon fill="blue" stroke="blue" stroke-width="2" points="490.92,-103.71 501.29,-101.52 491.82,-96.77 490.92,-103.71"/>
</g>
<!-- icmp_local_send -->
<g id="node4" class="node">
<title>icmp_local_send</title>
<ellipse fill="none" stroke="black" cx="553.75" cy="-296" rx="49.28" ry="18"/>
<text text-anchor="middle" x="553.75" y="-293.2" font-family="sans" font-size="11.00">icmp_local_send</text>
</g>
<!-- control_input&#45;&gt;icmp_local_send -->
<g id="edge3" class="edge">
<title>control_input&#45;&gt;icmp_local_send</title>
<path fill="none" stroke="blue" stroke-width="2" d="M79.2,-235.83C168.5,-247.18 391.95,-275.57 496.79,-288.89"/>
<polygon fill="blue" stroke="blue" stroke-width="2" points="496.5,-292.38 506.86,-290.17 497.38,-285.44 496.5,-292.38"/>
</g>
<!-- icmp6_local_send -->
<g id="node5" class="node">
<title>icmp6_local_send</title>
<ellipse fill="none" stroke="black" cx="702.1" cy="-692" rx="53.37" ry="18"/>
<text text-anchor="middle" x="702.1" y="-689.2" font-family="sans" font-size="11.00">icmp6_local_send</text>
</g>
<!-- control_input&#45;&gt;icmp6_local_send -->
<g id="edge4" class="edge">
<title>control_input&#45;&gt;icmp6_local_send</title>
<path fill="none" stroke="blue" stroke-width="2" d="M42.23,-249.04C48.25,-333.29 85.45,-684 287,-684 287,-684 287,-684 414.55,-684 492.02,-684 581.21,-686.96 639.24,-689.28"/>
<polygon fill="blue" stroke="blue" stroke-width="2" points="639.21,-692.78 649.34,-689.69 639.49,-685.78 639.21,-692.78"/>
</g>
<!-- ndp_ns_output -->
<g id="node6" class="node">
<title>ndp_ns_output</title>
<ellipse fill="none" stroke="black" cx="288" cy="-774" rx="44.51" ry="18"/>
<text text-anchor="middle" x="288" y="-771.2" font-family="sans" font-size="11.00">ndp_ns_output</text>
</g>
<!-- control_input&#45;&gt;ndp_ns_output -->
<g id="edge5" class="edge">
<title>control_input&#45;&gt;ndp_ns_output</title>
<path fill="none" stroke="blue" stroke-width="2" d="M41.16,-249.2C41.53,-331.43 47.29,-667.43 116.32,-740 146.11,-771.32 195.9,-778.25 234.04,-778.27"/>
<polygon fill="blue" stroke="blue" stroke-width="2" points="234.52,-781.77 244.46,-778.11 234.41,-774.77 234.52,-781.77"/>
</g>
<!-- ip_output -->
<g id="node7" class="node">
<title>ip_output</title>
<ellipse fill="none" stroke="black" cx="1198.87" cy="-367" rx="29.12" ry="18"/>
<text text-anchor="middle" x="1198.87" y="-364.2" font-family="sans" font-size="11.00">ip_output</text>
</g>
<!-- control_input&#45;&gt;ip_output -->
<g id="edge6" class="edge">
<title>control_input&#45;&gt;ip_output</title>
<path fill="none" stroke="blue" stroke-width="2" d="M78.99,-226.25C127.21,-220.63 213.16,-212 287,-212 287,-212 287,-212 703.1,-212 797.53,-212 1069.54,-316.13 1164.6,-353.69"/>
<polygon fill="blue" stroke="blue" stroke-width="2" points="1163.42,-356.99 1174.01,-357.42 1166,-350.48 1163.42,-356.99"/>
</g>
<!-- arp_output_reply -->
<g id="node8" class="node">
<title>arp_output_reply</title>
<ellipse fill="none" stroke="black" cx="702.1" cy="-64" rx="51.62" ry="18"/>
<text text-anchor="middle" x="702.1" y="-61.2" font-family="sans" font-size="11.00">arp_output_reply</text>
</g>
<!-- control_input&#45;&gt;arp_output_reply -->
<g id="edge7" class="edge">
<title>control_input&#45;&gt;arp_output_reply</title>
<path fill="none" stroke="blue" stroke-width="2" d="M46.91,-213.01C56.64,-185.56 79.03,-133.5 116.32,-106 179.2,-59.64 208.88,-64 287,-64 287,-64 287,-64 414.55,-64 492.45,-64 582.27,-64 640.28,-64"/>
<polygon fill="blue" stroke="blue" stroke-width="2" points="640.37,-67.5 650.37,-64 640.37,-60.5 640.37,-67.5"/>
</g>
<!-- ip6_output -->
<g id="node9" class="node">
<title>ip6_output</title>
<ellipse fill="none" stroke="black" cx="1453.76" cy="-348" rx="32.63" ry="18"/>
<text text-anchor="middle" x="1453.76" y="-345.2" font-family="sans" font-size="11.00">ip6_output</text>
</g>
<!-- control_input&#45;&gt;ip6_output -->
<g id="edge8" class="edge">
<title>control_input&#45;&gt;ip6_output</title>
<path fill="none" stroke="blue" stroke-width="2" d="M62.68,-216.01C104.79,-193.71 201.49,-156 287,-156 287,-156 287,-156 1199.87,-156 1287.79,-156 1308.66,-188.75 1377.06,-244 1403.88,-265.66 1427.32,-298.4 1440.75,-321.58"/>
<polygon fill="blue" stroke="blue" stroke-width="2" points="1437.82,-323.5 1445.72,-330.56 1443.94,-320.11 1437.82,-323.5"/>
</g>
<!-- control_input&#45;&gt;ip6_output -->
<g id="edge10" class="edge">
<title>control_input&#45;&gt;ip6_output</title>
<path fill="none" stroke="blue" stroke-width="2" d="M75,-221.91C121.7,-205.37 209,-174 287,-174 287,-174 287,-174 1199.87,-174 1287.79,-174 1308.66,-206.75 1377.06,-262 1399.11,-279.81 1418.87,-305.11 1432.68,-323.82"/>
<polygon fill="blue" stroke="blue" stroke-width="2" points="1429.86,-325.89 1438.58,-331.9 1435.51,-321.76 1429.86,-325.89"/>
</g>
<!-- ndp_na_output -->
<g id="node10" class="node">
<title>ndp_na_output</title>
<ellipse fill="none" stroke="black" cx="413.55" cy="-730" rx="45.09" ry="18"/>
<text text-anchor="middle" x="413.55" y="-727.2" font-family="sans" font-size="11.00">ndp_na_output</text>
</g>
<!-- control_input&#45;&gt;ndp_na_output -->
<g id="edge9" class="edge">
<title>control_input&#45;&gt;ndp_na_output</title>
<path fill="none" stroke="blue" stroke-width="2" d="M41.28,-249.14C42.17,-327.39 49.92,-634.96 116.32,-698 150,-729.97 282.16,-732.84 358.09,-731.7"/>
<polygon fill="blue" stroke="blue" stroke-width="2" points="358.48,-735.19 368.42,-731.51 358.36,-728.19 358.48,-735.19"/>
</g>
<!-- ip_input -->
<g id="node14" class="node">
<title>ip_input</title>
<ellipse fill="none" stroke="black" cx="553.75" cy="-429" rx="27" ry="18"/>
<text text-anchor="middle" x="553.75" y="-426.2" font-family="sans" font-size="11.00">ip_input</text>
</g>
<!-- loopback_input&#45;&gt;ip_input -->
<g id="edge16" class="edge">
<title>loopback_input&#45;&gt;ip_input</title>
<path fill="none" stroke="black" d="M197.17,-307.69C271.34,-332.99 446.03,-392.59 519.39,-417.62"/>
<polygon fill="black" stroke="black" points="518.46,-421 529.05,-420.91 520.72,-414.37 518.46,-421"/>
</g>
<!-- ip6_input -->
<g id="node15" class="node">
<title>ip6_input</title>
<ellipse fill="none" stroke="black" cx="288" cy="-448" rx="28.44" ry="18"/>
<text text-anchor="middle" x="288" y="-445.2" font-family="sans" font-size="11.00">ip6_input</text>
</g>
<!-- loopback_input&#45;&gt;ip6_input -->
<g id="edge17" class="edge">
<title>loopback_input&#45;&gt;ip6_input</title>
<path fill="none" stroke="black" d="M176.9,-313.14C199.04,-340.25 242.19,-393.11 267.39,-423.98"/>
<polygon fill="black" stroke="black" points="264.96,-426.54 274,-432.07 270.38,-422.11 264.96,-426.54"/>
</g>
<!-- eth_output -->
<g id="node16" class="node">
<title>eth_output</title>
<ellipse fill="none" stroke="black" cx="1585.28" cy="-118" rx="33.8" ry="18"/>
<text text-anchor="middle" x="1585.28" y="-115.2" font-family="sans" font-size="11.00">eth_output</text>
</g>
<!-- arp_output_request&#45;&gt;eth_output -->
<g id="edge26" class="edge">
<title>arp_output_request&#45;&gt;eth_output</title>
<path fill="none" stroke="black" d="M612.52,-112.64C668.5,-114.97 755.82,-118 831.53,-118 831.53,-118 831.53,-118 1336.27,-118 1408.22,-118 1491.92,-118 1541.37,-118"/>
<polygon fill="black" stroke="black" points="1541.38,-121.5 1551.38,-118 1541.38,-114.5 1541.38,-121.5"/>
</g>
<!-- icmp_output -->
<g id="node27" class="node">
<title>icmp_output</title>
<ellipse fill="none" stroke="black" cx="1066.26" cy="-432" rx="37.98" ry="18"/>
<text text-anchor="middle" x="1066.26" y="-429.2" font-family="sans" font-size="11.00">icmp_output</text>
</g>
<!-- icmp_local_send&#45;&gt;icmp_output -->
<g id="edge31" class="edge">
<title>icmp_local_send&#45;&gt;icmp_output</title>
<path fill="none" stroke="black" d="M602.4,-299.23C665.55,-304.43 779.93,-317.05 873.78,-345 931.69,-362.25 994.74,-393.55 1032.09,-413.53"/>
<polygon fill="black" stroke="black" points="1030.55,-416.67 1041.01,-418.35 1033.88,-410.52 1030.55,-416.67"/>
</g>
<!-- icmp6_output -->
<g id="node34" class="node">
<title>icmp6_output</title>
<ellipse fill="none" stroke="black" cx="1335.27" cy="-664" rx="41.58" ry="18"/>
<text text-anchor="middle" x="1335.27" y="-661.2" font-family="sans" font-size="11.00">icmp6_output</text>
</g>
<!-- icmp6_local_send&#45;&gt;icmp6_output -->
<g id="edge53" class="edge">
<title>icmp6_local_send&#45;&gt;icmp6_output</title>
<path fill="none" stroke="black" d="M755.11,-694.66C805.07,-696.99 882.68,-700 950.02,-700 950.02,-700 950.02,-700 1067.26,-700 1145.1,-700 1234.56,-684.79 1287.65,-674.14"/>
<polygon fill="black" stroke="black" points="1288.67,-677.51 1297.77,-672.08 1287.27,-670.65 1288.67,-677.51"/>
</g>
<!-- ndp_ns_output&#45;&gt;icmp6_output -->
<g id="edge69" class="edge">
<title>ndp_ns_output&#45;&gt;icmp6_output</title>
<path fill="none" stroke="black" d="M332.87,-774.54C385.21,-775.13 475.37,-776 552.75,-776 552.75,-776 552.75,-776 1067.26,-776 1154.03,-776 1180.39,-771.84 1257.48,-732 1276.5,-722.17 1277.45,-714.19 1293.48,-700 1298.3,-695.73 1303.46,-691.17 1308.42,-686.79"/>
<polygon fill="black" stroke="black" points="1310.8,-689.36 1315.98,-680.11 1306.17,-684.11 1310.8,-689.36"/>
</g>
<!-- ip_output&#45;&gt;eth_output -->
<g id="edge42" class="edge">
<title>ip_output&#45;&gt;eth_output</title>
<path fill="none" stroke="black" d="M1219.72,-354.14C1282.81,-313.27 1478.92,-186.25 1554.32,-137.41"/>
<polygon fill="black" stroke="black" points="1556.41,-140.22 1562.9,-131.85 1552.61,-134.35 1556.41,-140.22"/>
</g>
<!-- loopback_output -->
<g id="node19" class="node">
<title>loopback_output</title>
<ellipse fill="none" stroke="black" cx="1585.28" cy="-442" rx="50.45" ry="18"/>
<text text-anchor="middle" x="1585.28" y="-439.2" font-family="sans" font-size="11.00">loopback_output</text>
</g>
<!-- ip_output&#45;&gt;loopback_output -->
<g id="edge44" class="edge">
<title>ip_output&#45;&gt;loopback_output</title>
<path fill="none" stroke="black" d="M1218.06,-380.86C1236.12,-393.77 1265.14,-412.31 1293.48,-421 1371.13,-444.82 1465.69,-447.03 1525.46,-445.36"/>
<polygon fill="black" stroke="black" points="1525.59,-448.86 1535.47,-445.04 1525.36,-441.86 1525.59,-448.86"/>
</g>
<!-- ip_hold -->
<g id="node28" class="node">
<title>ip_hold</title>
<ellipse fill="none" stroke="black" cx="1335.27" cy="-486" rx="27" ry="18"/>
<text text-anchor="middle" x="1335.27" y="-483.2" font-family="sans" font-size="11.00">ip_hold</text>
</g>
<!-- ip_output&#45;&gt;ip_hold -->
<g id="edge43" class="edge">
<title>ip_output&#45;&gt;ip_hold</title>
<path fill="none" stroke="black" d="M1215.4,-382.19C1233.68,-399.89 1265.14,-429.79 1293.48,-454 1298.21,-458.05 1303.37,-462.24 1308.37,-466.21"/>
<polygon fill="black" stroke="black" points="1306.51,-469.2 1316.54,-472.61 1310.83,-463.69 1306.51,-469.2"/>
</g>
<!-- ipip_output -->
<g id="node31" class="node">
<title>ipip_output</title>
<ellipse fill="none" stroke="black" cx="1335.27" cy="-340" rx="34.38" ry="18"/>
<text text-anchor="middle" x="1335.27" y="-337.2" font-family="sans" font-size="11.00">ipip_output</text>
</g>
<!-- ip_output&#45;&gt;ipip_output -->
<g id="edge45" class="edge">
<title>ip_output&#45;&gt;ipip_output</title>
<path fill="none" stroke="black" d="M1223.28,-357.03C1241.93,-351.78 1268.56,-346.07 1291.05,-342.33"/>
<polygon fill="black" stroke="black" points="1291.72,-345.77 1301.06,-340.76 1290.63,-338.85 1291.72,-345.77"/>
</g>
<!-- sr6_output -->
<g id="node32" class="node">
<title>sr6_output</title>
<ellipse fill="none" stroke="black" cx="1335.27" cy="-394" rx="33.21" ry="18"/>
<text text-anchor="middle" x="1335.27" y="-391.2" font-family="sans" font-size="11.00">sr6_output</text>
</g>
<!-- ip_output&#45;&gt;sr6_output -->
<g id="edge46" class="edge">
<title>ip_output&#45;&gt;sr6_output</title>
<path fill="none" stroke="black" d="M1227.06,-372.46C1246.27,-376.32 1272.32,-381.56 1293.94,-385.9"/>
<polygon fill="black" stroke="black" points="1293.33,-389.35 1303.83,-387.88 1294.71,-382.48 1293.33,-389.35"/>
</g>
<!-- arp_output_reply&#45;&gt;eth_output -->
<g id="edge25" class="edge">
<title>arp_output_reply&#45;&gt;eth_output</title>
<path fill="none" stroke="black" d="M753.69,-64.73C879.36,-66.95 1215.65,-75.3 1494.47,-104 1510.41,-105.64 1527.84,-108.18 1543.07,-110.65"/>
<polygon fill="black" stroke="black" points="1542.77,-114.15 1553.21,-112.34 1543.92,-107.25 1542.77,-114.15"/>
</g>
<!-- ip6_output&#45;&gt;eth_output -->
<g id="edge62" class="edge">
<title>ip6_output&#45;&gt;eth_output</title>
<path fill="none" stroke="black" d="M1472.34,-332.79C1479.79,-325.75 1488.17,-316.97 1494.47,-308 1531.78,-254.8 1560.64,-183.67 1574.75,-145.3"/>
<polygon fill="black" stroke="black" points="1578.07,-146.43 1578.18,-135.84 1571.49,-144.05 1578.07,-146.43"/>
</g>
<!-- ip6_output&#45;&gt;loopback_output -->
<g id="edge64" class="edge">
<title>ip6_output&#45;&gt;loopback_output</title>
<path fill="none" stroke="black" d="M1474.15,-362.07C1495.24,-377.37 1529.21,-402.04 1553.86,-419.92"/>
<polygon fill="black" stroke="black" points="1552,-422.9 1562.15,-425.94 1556.11,-417.23 1552,-422.9"/>
</g>
<!-- ip6_output&#45;&gt;sr6_output -->
<g id="edge65" class="edge">
<title>ip6_output&#45;&gt;sr6_output</title>
<path fill="none" stroke="black" d="M1431.79,-361.61C1416.31,-369.11 1394.76,-377.99 1376.05,-384.73"/>
<polygon fill="black" stroke="black" points="1374.86,-381.44 1366.57,-388.04 1377.17,-388.05 1374.86,-381.44"/>
</g>
<!-- ip6_hold -->
<g id="node39" class="node">
<title>ip6_hold</title>
<ellipse fill="none" stroke="black" cx="1585.28" cy="-375" rx="27" ry="18"/>
<text text-anchor="middle" x="1585.28" y="-372.2" font-family="sans" font-size="11.00">ip6_hold</text>
</g>
<!-- ip6_output&#45;&gt;ip6_hold -->
<g id="edge63" class="edge">
<title>ip6_output&#45;&gt;ip6_hold</title>
<path fill="none" stroke="black" d="M1484.48,-354.19C1503.77,-358.22 1529.01,-363.48 1549.27,-367.7"/>
<polygon fill="black" stroke="black" points="1548.56,-371.13 1559.07,-369.74 1549.99,-364.28 1548.56,-371.13"/>
</g>
<!-- ndp_na_output&#45;&gt;icmp6_output -->
<g id="edge67" class="edge">
<title>ndp_na_output&#45;&gt;icmp6_output</title>
<path fill="none" stroke="black" d="M458.72,-732C514.99,-734.37 615.25,-738 701.1,-738 701.1,-738 701.1,-738 1067.26,-738 1153.3,-738 1175.89,-729.33 1257.48,-702 1272.12,-697.09 1287.51,-689.92 1300.64,-683.12"/>
<polygon fill="black" stroke="black" points="1302.57,-686.06 1309.76,-678.28 1299.28,-679.88 1302.57,-686.06"/>
</g>
<!-- control_output -->
<g id="node11" class="node">
<title>control_output</title>
<ellipse fill="none" stroke="black" cx="1720.6" cy="-707" rx="44.51" ry="18"/>
<text text-anchor="middle" x="1720.6" y="-704.2" font-family="sans" font-size="11.00">control_output</text>
</g>
<!-- eth_input -->
<g id="node12" class="node">
<title>eth_input</title>
<ellipse fill="none" stroke="black" cx="161.91" cy="-425" rx="29.12" ry="18"/>
<text text-anchor="middle" x="161.91" y="-422.2" font-family="sans" font-size="11.00">eth_input</text>
</g>
<!-- arp_input -->
<g id="node13" class="node">
<title>arp_input</title>
<ellipse fill="none" stroke="black" cx="1453.76" cy="-884" rx="29.12" ry="18"/>
<text text-anchor="middle" x="1453.76" y="-881.2" font-family="sans" font-size="11.00">arp_input</text>
</g>
<!-- eth_input&#45;&gt;arp_input -->
<g id="edge11" class="edge">
<title>eth_input&#45;&gt;arp_input</title>
<path fill="none" stroke="black" d="M171.62,-442.34C199.17,-494.44 289.84,-646 412.55,-646 412.55,-646 412.55,-646 554.75,-646 644.28,-646 669.01,-641.11 755.28,-665 938.04,-715.61 957.93,-796.83 1140.25,-849 1236.06,-876.42 1354.13,-882.53 1414,-883.78"/>
<polygon fill="black" stroke="black" points="1414.08,-887.28 1424.14,-883.96 1414.2,-880.28 1414.08,-887.28"/>
</g>
<!-- eth_input&#45;&gt;ip_input -->
<g id="edge12" class="edge">
<title>eth_input&#45;&gt;ip_input</title>
<path fill="none" stroke="black" d="M191.24,-423.25C206.68,-422.38 226.13,-421.43 243.5,-421 339.07,-418.63 363.08,-416.95 458.6,-421 477.74,-421.81 499,-423.55 516.48,-425.19"/>
<polygon fill="black" stroke="black" points="516.52,-428.72 526.81,-426.2 517.2,-421.75 516.52,-428.72"/>
</g>
<!-- eth_input&#45;&gt;ip6_input -->
<g id="edge13" class="edge">
<title>eth_input&#45;&gt;ip6_input</title>
<path fill="none" stroke="black" d="M190.14,-430.05C207.92,-433.34 231.34,-437.68 250.7,-441.27"/>
<polygon fill="black" stroke="black" points="250.21,-444.74 260.68,-443.12 251.49,-437.86 250.21,-444.74"/>
</g>
<!-- arp_input_request -->
<g id="node21" class="node">
<title>arp_input_request</title>
<ellipse fill="none" stroke="black" cx="1585.28" cy="-922" rx="54.63" ry="18"/>
<text text-anchor="middle" x="1585.28" y="-919.2" font-family="sans" font-size="11.00">arp_input_request</text>
</g>
<!-- arp_input&#45;&gt;arp_input_request -->
<g id="edge21" class="edge">
<title>arp_input&#45;&gt;arp_input_request</title>
<path fill="none" stroke="black" d="M1480.66,-891.6C1495.99,-896.1 1515.93,-901.95 1534.22,-907.31"/>
<polygon fill="black" stroke="black" points="1533.31,-910.69 1543.89,-910.15 1535.28,-903.98 1533.31,-910.69"/>
</g>
<!-- arp_input_reply -->
<g id="node22" class="node">
<title>arp_input_reply</title>
<ellipse fill="none" stroke="black" cx="1585.28" cy="-868" rx="47.43" ry="18"/>
<text text-anchor="middle" x="1585.28" y="-865.2" font-family="sans" font-size="11.00">arp_input_reply</text>
</g>
<!-- arp_input&#45;&gt;arp_input_reply -->
<g id="edge22" class="edge">
<title>arp_input&#45;&gt;arp_input_reply</title>
<path fill="none" stroke="black" d="M1482.55,-880.57C1496.46,-878.85 1513.79,-876.71 1530.19,-874.68"/>
<polygon fill="black" stroke="black" points="1530.74,-878.14 1540.24,-873.44 1529.88,-871.19 1530.74,-878.14"/>
</g>
<!-- ip_input&#45;&gt;ip_output -->
<g id="edge36" class="edge">
<title>ip_input&#45;&gt;ip_output</title>
<path fill="none" stroke="black" d="M580.81,-426.59C635.24,-421.55 764.97,-409.49 873.78,-399 977.04,-389.05 1098.76,-376.92 1159.44,-370.85"/>
<polygon fill="black" stroke="black" points="1160.09,-374.31 1169.69,-369.83 1159.39,-367.34 1160.09,-374.31"/>
</g>
<!-- dnat44 -->
<g id="node23" class="node">
<title>dnat44</title>
<ellipse fill="none" stroke="black" cx="702.1" cy="-448" rx="27" ry="18"/>
<text text-anchor="middle" x="702.1" y="-445.2" font-family="sans" font-size="11.00">dnat44</text>
</g>
<!-- ip_input&#45;&gt;dnat44 -->
<g id="edge38" class="edge">
<title>ip_input&#45;&gt;dnat44</title>
<path fill="none" stroke="black" d="M580.58,-432.35C604.2,-435.42 639.34,-439.98 665.59,-443.39"/>
<polygon fill="black" stroke="black" points="665.16,-446.86 675.53,-444.68 666.06,-439.92 665.16,-446.86"/>
</g>
<!-- ip_forward -->
<g id="node24" class="node">
<title>ip_forward</title>
<ellipse fill="none" stroke="black" cx="832.53" cy="-372" rx="32.63" ry="18"/>
<text text-anchor="middle" x="832.53" y="-369.2" font-family="sans" font-size="11.00">ip_forward</text>
</g>
<!-- ip_input&#45;&gt;ip_forward -->
<g id="edge35" class="edge">
<title>ip_input&#45;&gt;ip_forward</title>
<path fill="none" stroke="black" d="M575.01,-417.88C593.63,-408.23 622.3,-394.77 648.91,-388 696.14,-375.99 752.19,-372.62 789.63,-371.86"/>
<polygon fill="black" stroke="black" points="789.72,-375.35 799.67,-371.7 789.62,-368.36 789.72,-375.35"/>
</g>
<!-- ip_input_local -->
<g id="node25" class="node">
<title>ip_input_local</title>
<ellipse fill="none" stroke="black" cx="832.53" cy="-524" rx="41.49" ry="18"/>
<text text-anchor="middle" x="832.53" y="-521.2" font-family="sans" font-size="11.00">ip_input_local</text>
</g>
<!-- ip_input&#45;&gt;ip_input_local -->
<g id="edge37" class="edge">
<title>ip_input&#45;&gt;ip_input_local</title>
<path fill="none" stroke="black" d="M567.85,-444.73C584.51,-463.48 615.2,-494.04 648.91,-508 691.24,-525.54 743.71,-528.41 781.54,-527.56"/>
<polygon fill="black" stroke="black" points="781.91,-531.05 791.8,-527.24 781.69,-524.06 781.91,-531.05"/>
</g>
<!-- ip6_input&#45;&gt;ip6_output -->
<g id="edge57" class="edge">
<title>ip6_input&#45;&gt;ip6_output</title>
<path fill="none" stroke="black" d="M301.2,-431.75C330.02,-394.82 406.55,-305 494.6,-269 745.75,-166.31 834.08,-211.96 1104.25,-237 1227.07,-248.38 1264.81,-236.86 1377.06,-288 1396.89,-297.03 1416.09,-312.36 1430.2,-325.25"/>
<polygon fill="black" stroke="black" points="1427.8,-327.8 1437.48,-332.11 1432.6,-322.71 1427.8,-327.8"/>
</g>
<!-- ip6_forward -->
<g id="node38" class="node">
<title>ip6_forward</title>
<ellipse fill="none" stroke="black" cx="1066.26" cy="-264" rx="35.64" ry="18"/>
<text text-anchor="middle" x="1066.26" y="-261.2" font-family="sans" font-size="11.00">ip6_forward</text>
</g>
<!-- ip6_input&#45;&gt;ip6_forward -->
<g id="edge56" class="edge">
<title>ip6_input&#45;&gt;ip6_forward</title>
<path fill="none" stroke="black" d="M312.8,-439.18C328.49,-433.55 349.56,-426.33 368.51,-421 613.05,-352.13 912.47,-292.93 1022.28,-272.04"/>
<polygon fill="black" stroke="black" points="1023.13,-275.44 1032.3,-270.14 1021.83,-268.56 1023.13,-275.44"/>
</g>
<!-- ip6_input_local -->
<g id="node40" class="node">
<title>ip6_input_local</title>
<ellipse fill="none" stroke="black" cx="553.75" cy="-551" rx="45.09" ry="18"/>
<text text-anchor="middle" x="553.75" y="-548.2" font-family="sans" font-size="11.00">ip6_input_local</text>
</g>
<!-- ip6_input&#45;&gt;ip6_input_local -->
<g id="edge58" class="edge">
<title>ip6_input&#45;&gt;ip6_input_local</title>
<path fill="none" stroke="black" d="M312.41,-457.14C357.13,-474.6 455.24,-512.92 511.3,-534.81"/>
<polygon fill="black" stroke="black" points="510.33,-538.19 520.92,-538.57 512.88,-531.67 510.33,-538.19"/>
</g>
<!-- sr6_local -->
<g id="node41" class="node">
<title>sr6_local</title>
<ellipse fill="none" stroke="black" cx="413.55" cy="-448" rx="27.86" ry="18"/>
<text text-anchor="middle" x="413.55" y="-445.2" font-family="sans" font-size="11.00">sr6_local</text>
</g>
<!-- ip6_input&#45;&gt;sr6_local -->
<g id="edge59" class="edge">
<title>ip6_input&#45;&gt;sr6_local</title>
<path fill="none" stroke="black" d="M314.9,-442.39C332.9,-441.09 357.1,-440.9 376.92,-441.82"/>
<polygon fill="black" stroke="black" points="376.92,-445.32 387.11,-442.42 377.33,-438.34 376.92,-445.32"/>
</g>
<!-- port_tx -->
<g id="node17" class="node">
<title>port_tx</title>
<ellipse fill="none" stroke="black" cx="1720.6" cy="-80" rx="27" ry="18"/>
<text text-anchor="middle" x="1720.6" y="-77.2" font-family="sans" font-size="11.00">port_tx</text>
</g>
<!-- eth_output&#45;&gt;port_tx -->
<g id="edge14" class="edge">
<title>eth_output&#45;&gt;port_tx</title>
<path fill="none" stroke="black" d="M1615.21,-109.75C1635.84,-103.88 1663.65,-95.95 1685.38,-89.75"/>
<polygon fill="black" stroke="black" points="1686.54,-93.06 1695.19,-86.96 1684.62,-86.33 1686.54,-93.06"/>
</g>
<!-- l1_xconnect -->
<g id="node18" class="node">
<title>l1_xconnect</title>
<ellipse fill="none" stroke="black" cx="288" cy="-18" rx="36.23" ry="18"/>
<text text-anchor="middle" x="288" y="-15.2" font-family="sans" font-size="11.00">l1_xconnect</text>
</g>
<!-- l1_xconnect&#45;&gt;port_tx -->
<g id="edge15" class="edge">
<title>l1_xconnect&#45;&gt;port_tx</title>
<path fill="none" stroke="black" d="M324.41,-18C375.04,-18 471.02,-18 552.75,-18 552.75,-18 552.75,-18 833.53,-18 1164.72,-18 1563.84,-61.64 1683.82,-75.69"/>
<polygon fill="black" stroke="black" points="1683.57,-79.19 1693.91,-76.88 1684.39,-72.24 1683.57,-79.19"/>
</g>
<!-- loopback_output&#45;&gt;control_output -->
<g id="edge18" class="edge">
<title>loopback_output&#45;&gt;control_output</title>
<path fill="none" stroke="black" d="M1616.47,-456.17C1625.06,-461.39 1633.79,-468.03 1640.1,-476 1689.17,-538.02 1708.94,-632.25 1716.05,-678.86"/>
<polygon fill="black" stroke="black" points="1712.6,-679.45 1717.49,-688.85 1719.53,-678.45 1712.6,-679.45"/>
</g>
<!-- port_rx -->
<g id="node20" class="node">
<title>port_rx</title>
<ellipse fill="none" stroke="blue" stroke-width="2" cx="40.16" cy="-109" rx="27" ry="18"/>
<text text-anchor="middle" x="40.16" y="-106.2" font-family="sans" font-size="11.00">port_rx</text>
</g>
<!-- port_rx&#45;&gt;eth_input -->
<g id="edge19" class="edge">
<title>port_rx&#45;&gt;eth_input</title>
<path fill="none" stroke="blue" stroke-width="2" d="M48.89,-126.31C57.19,-145.2 70.5,-176.44 80.32,-204 98.87,-256.05 97.22,-271.15 116.32,-323 125.91,-349.03 138.76,-377.93 148.2,-398.3"/>
<polygon fill="blue" stroke="blue" stroke-width="2" points="145.13,-399.99 152.54,-407.57 151.47,-397.03 145.13,-399.99"/>
</g>
<!-- port_rx&#45;&gt;l1_xconnect -->
<g id="edge20" class="edge">
<title>port_rx&#45;&gt;l1_xconnect</title>
<path fill="none" stroke="blue" stroke-width="2" d="M55.55,-94.18C69.71,-80.5 92.6,-60.75 116.32,-50 156.31,-31.88 206.04,-24.02 241.48,-20.61"/>
<polygon fill="blue" stroke="blue" stroke-width="2" points="241.88,-24.09 251.53,-19.73 241.27,-17.12 241.88,-24.09"/>
</g>
<!-- arp_input_request&#45;&gt;control_output -->
<g id="edge24" class="edge">
<title>arp_input_request&#45;&gt;control_output</title>
<path fill="none" stroke="black" d="M1622.02,-908.56C1628.62,-904.9 1635.02,-900.42 1640.1,-895 1683.58,-848.59 1705.17,-774.86 1714.19,-734.92"/>
<polygon fill="black" stroke="black" points="1717.63,-735.58 1716.31,-725.07 1710.79,-734.1 1717.63,-735.58"/>
</g>
<!-- arp_input_reply&#45;&gt;control_output -->
<g id="edge23" class="edge">
<title>arp_input_reply&#45;&gt;control_output</title>
<path fill="none" stroke="black" d="M1615.47,-854.06C1624.01,-849.12 1632.97,-843.01 1640.1,-836 1670.62,-805.96 1694.47,-761.95 1707.8,-733.9"/>
<polygon fill="black" stroke="black" points="1711.04,-735.23 1712.06,-724.69 1704.68,-732.29 1711.04,-735.23"/>
</g>
<!-- dnat44&#45;&gt;ip_forward -->
<g id="edge27" class="edge">
<title>dnat44&#45;&gt;ip_forward</title>
<path fill="none" stroke="black" d="M722.88,-436.29C743.6,-424.03 776.41,-404.62 800.56,-390.33"/>
<polygon fill="black" stroke="black" points="802.53,-393.23 809.35,-385.13 798.96,-387.21 802.53,-393.23"/>
</g>
<!-- dnat44&#45;&gt;ip_input_local -->
<g id="edge28" class="edge">
<title>dnat44&#45;&gt;ip_input_local</title>
<path fill="none" stroke="black" d="M722.88,-459.71C742.97,-471.6 774.44,-490.22 798.36,-504.37"/>
<polygon fill="black" stroke="black" points="796.72,-507.47 807.11,-509.55 800.29,-501.44 796.72,-507.47"/>
</g>
<!-- ip_forward&#45;&gt;ip_output -->
<g id="edge33" class="edge">
<title>ip_forward&#45;&gt;ip_output</title>
<path fill="none" stroke="black" d="M865.23,-371.57C932.05,-370.65 1087.19,-368.52 1159.49,-367.53"/>
<polygon fill="black" stroke="black" points="1159.59,-371.03 1169.54,-367.39 1159.49,-364.03 1159.59,-371.03"/>
</g>
<!-- icmp_input -->
<g id="node26" class="node">
<title>icmp_input</title>
<ellipse fill="none" stroke="black" cx="951.02" cy="-524" rx="33.8" ry="18"/>
<text text-anchor="middle" x="951.02" y="-521.2" font-family="sans" font-size="11.00">icmp_input</text>
</g>
<!-- ip_input_local&#45;&gt;icmp_input -->
<g id="edge39" class="edge">
<title>ip_input_local&#45;&gt;icmp_input</title>
<path fill="none" stroke="black" d="M873.95,-524C884.6,-524 896.14,-524 906.94,-524"/>
<polygon fill="black" stroke="black" points="907,-527.5 917,-524 907,-520.5 907,-527.5"/>
</g>
<!-- ipip_input -->
<g id="node29" class="node">
<title>ipip_input</title>
<ellipse fill="none" stroke="black" cx="951.02" cy="-470" rx="29.7" ry="18"/>
<text text-anchor="middle" x="951.02" y="-467.2" font-family="sans" font-size="11.00">ipip_input</text>
</g>
<!-- ip_input_local&#45;&gt;ipip_input -->
<g id="edge40" class="edge">
<title>ip_input_local&#45;&gt;ipip_input</title>
<path fill="none" stroke="black" d="M861.43,-511.07C878.24,-503.27 899.73,-493.31 917.34,-485.15"/>
<polygon fill="black" stroke="black" points="919.06,-488.21 926.66,-480.83 916.12,-481.86 919.06,-488.21"/>
</g>
<!-- l4_input_local -->
<g id="node30" class="node">
<title>l4_input_local</title>
<ellipse fill="none" stroke="black" cx="951.02" cy="-578" rx="41.49" ry="18"/>
<text text-anchor="middle" x="951.02" y="-575.2" font-family="sans" font-size="11.00">l4_input_local</text>
</g>
<!-- ip_input_local&#45;&gt;l4_input_local -->
<g id="edge41" class="edge">
<title>ip_input_local&#45;&gt;l4_input_local</title>
<path fill="none" stroke="black" d="M861.43,-536.93C876.74,-544.03 895.92,-552.92 912.52,-560.62"/>
<polygon fill="black" stroke="black" points="911.4,-563.95 921.94,-564.98 914.34,-557.6 911.4,-563.95"/>
</g>
<!-- icmp_input&#45;&gt;control_output -->
<g id="edge30" class="edge">
<title>icmp_input&#45;&gt;control_output</title>
<path fill="none" stroke="black" d="M984.62,-525.74C1031.69,-528.09 1121.43,-532 1197.87,-532 1197.87,-532 1197.87,-532 1454.76,-532 1562.34,-532 1659.84,-633.75 1700.09,-682.08"/>
<polygon fill="black" stroke="black" points="1697.45,-684.38 1706.49,-689.9 1702.86,-679.95 1697.45,-684.38"/>
</g>
<!-- icmp_input&#45;&gt;icmp_output -->
<g id="edge29" class="edge">
<title>icmp_input&#45;&gt;icmp_output</title>
<path fill="none" stroke="black" d="M973.71,-510.24C979.83,-506.14 986.42,-501.54 992.27,-497 1009.09,-483.97 1026.94,-468.11 1040.78,-455.32"/>
<polygon fill="black" stroke="black" points="1043.5,-457.57 1048.43,-448.19 1038.73,-452.45 1043.5,-457.57"/>
</g>
<!-- icmp_output&#45;&gt;ip_output -->
<g id="edge32" class="edge">
<title>icmp_output&#45;&gt;ip_output</title>
<path fill="none" stroke="black" d="M1093.06,-419.16C1114.14,-408.67 1144.01,-393.8 1166.47,-382.63"/>
<polygon fill="black" stroke="black" points="1168.2,-385.67 1175.59,-378.08 1165.08,-379.41 1168.2,-385.67"/>
</g>
<!-- ip_hold&#45;&gt;control_output -->
<g id="edge34" class="edge">
<title>ip_hold&#45;&gt;control_output</title>
<path fill="none" stroke="black" d="M1361.3,-480.84C1417.4,-470.8 1554.93,-454.75 1640.1,-518 1692.26,-556.74 1710.46,-636.32 1716.6,-678.81"/>
<polygon fill="black" stroke="black" points="1713.14,-679.31 1717.92,-688.76 1720.08,-678.39 1713.14,-679.31"/>
</g>
<!-- ipip_input&#45;&gt;ip_input -->
<g id="edge71" class="edge">
<title>ipip_input&#45;&gt;ip_input</title>
<path fill="none" stroke="black" d="M922.15,-474.89C868.44,-483.35 747.22,-497.73 648.91,-475 625.21,-469.52 600.59,-457.22 582.47,-446.71"/>
<polygon fill="black" stroke="black" points="584,-443.55 573.62,-441.43 580.41,-449.56 584,-443.55"/>
</g>
<!-- l4_loopback_output -->
<g id="node42" class="node">
<title>l4_loopback_output</title>
<ellipse fill="none" stroke="black" cx="1198.87" cy="-578" rx="58.73" ry="18"/>
<text text-anchor="middle" x="1198.87" y="-575.2" font-family="sans" font-size="11.00">l4_loopback_output</text>
</g>
<!-- l4_input_local&#45;&gt;l4_loopback_output -->
<g id="edge73" class="edge">
<title>l4_input_local&#45;&gt;l4_loopback_output</title>
<path fill="none" stroke="black" d="M992.34,-578C1029.63,-578 1085.77,-578 1129.97,-578"/>
<polygon fill="black" stroke="black" points="1130.06,-581.5 1140.06,-578 1130.06,-574.5 1130.06,-581.5"/>
</g>
<!-- ipip_output&#45;&gt;ip_output -->
<g id="edge72" class="edge">
<title>ipip_output&#45;&gt;ip_output</title>
<path fill="none" stroke="black" d="M1307.63,-350.86C1287.87,-356.22 1260.61,-361.92 1238.46,-365.42"/>
<polygon fill="black" stroke="black" points="1237.75,-361.99 1228.37,-366.91 1238.77,-368.91 1237.75,-361.99"/>
</g>
<!-- sr6_output&#45;&gt;ip6_output -->
<g id="edge78" class="edge">
<title>sr6_output&#45;&gt;ip6_output</title>
<path fill="none" stroke="black" d="M1357.1,-380.46C1372.7,-372.89 1394.52,-363.9 1413.38,-357.13"/>
<polygon fill="black" stroke="black" points="1414.63,-360.4 1422.92,-353.8 1412.33,-353.79 1414.63,-360.4"/>
</g>
<!-- icmp6_input -->
<g id="node33" class="node">
<title>icmp6_input</title>
<ellipse fill="none" stroke="black" cx="1198.87" cy="-822" rx="37.4" ry="18"/>
<text text-anchor="middle" x="1198.87" y="-819.2" font-family="sans" font-size="11.00">icmp6_input</text>
</g>
<!-- icmp6_input&#45;&gt;control_output -->
<g id="edge51" class="edge">
<title>icmp6_input&#45;&gt;control_output</title>
<path fill="none" stroke="black" d="M1235.12,-817.08C1310.39,-806.15 1492,-777.49 1640.1,-736 1652.93,-732.4 1666.66,-727.71 1679.03,-723.16"/>
<polygon fill="black" stroke="black" points="1680.49,-726.35 1688.62,-719.55 1678.03,-719.79 1680.49,-726.35"/>
</g>
<!-- icmp6_input&#45;&gt;icmp6_output -->
<g id="edge47" class="edge">
<title>icmp6_input&#45;&gt;icmp6_output</title>
<path fill="none" stroke="black" d="M1228.73,-810.91C1238.92,-805.82 1249.75,-798.9 1257.48,-790 1286.8,-756.21 1266.92,-732 1293.48,-696 1296.33,-692.13 1299.78,-688.48 1303.43,-685.13"/>
<polygon fill="black" stroke="black" points="1305.7,-687.79 1311.13,-678.69 1301.21,-682.43 1305.7,-687.79"/>
</g>
<!-- ndp_ns_input -->
<g id="node35" class="node">
<title>ndp_ns_input</title>
<ellipse fill="none" stroke="black" cx="1453.76" cy="-738" rx="40.32" ry="18"/>
<text text-anchor="middle" x="1453.76" y="-735.2" font-family="sans" font-size="11.00">ndp_ns_input</text>
</g>
<!-- icmp6_input&#45;&gt;ndp_ns_input -->
<g id="edge48" class="edge">
<title>icmp6_input&#45;&gt;ndp_ns_input</title>
<path fill="none" stroke="black" d="M1224.24,-808.53C1249.51,-794.63 1286.34,-774.61 1293.48,-772 1329.78,-758.73 1372.74,-749.94 1404.88,-744.62"/>
<polygon fill="black" stroke="black" points="1405.6,-748.05 1414.92,-743.02 1404.49,-741.14 1405.6,-748.05"/>
</g>
<!-- ndp_na_input -->
<g id="node36" class="node">
<title>ndp_na_input</title>
<ellipse fill="none" stroke="black" cx="1453.76" cy="-684" rx="40.91" ry="18"/>
<text text-anchor="middle" x="1453.76" y="-681.2" font-family="sans" font-size="11.00">ndp_na_input</text>
</g>
<!-- icmp6_input&#45;&gt;ndp_na_input -->
<g id="edge49" class="edge">
<title>icmp6_input&#45;&gt;ndp_na_input</title>
<path fill="none" stroke="black" d="M1226.73,-809.77C1236.91,-804.47 1248.26,-797.7 1257.48,-790 1276.87,-773.8 1273.03,-760.85 1293.48,-746 1327.86,-721.03 1373.61,-704.6 1407.26,-694.96"/>
<polygon fill="black" stroke="black" points="1408.58,-698.23 1417.29,-692.19 1406.71,-691.48 1408.58,-698.23"/>
</g>
<!-- ndp_rs_input -->
<g id="node37" class="node">
<title>ndp_rs_input</title>
<ellipse fill="none" stroke="black" cx="1453.76" cy="-830" rx="39.15" ry="18"/>
<text text-anchor="middle" x="1453.76" y="-827.2" font-family="sans" font-size="11.00">ndp_rs_input</text>
</g>
<!-- icmp6_input&#45;&gt;ndp_rs_input -->
<g id="edge50" class="edge">
<title>icmp6_input&#45;&gt;ndp_rs_input</title>
<path fill="none" stroke="black" d="M1236.37,-823.15C1280.68,-824.56 1355.55,-826.92 1404.57,-828.48"/>
<polygon fill="black" stroke="black" points="1404.51,-831.98 1414.61,-828.79 1404.73,-824.98 1404.51,-831.98"/>
</g>
<!-- icmp6_output&#45;&gt;ip6_output -->
<g id="edge52" class="edge">
<title>icmp6_output&#45;&gt;ip6_output</title>
<path fill="none" stroke="black" d="M1342.87,-646.11C1362.29,-593.42 1419.36,-438.6 1442.67,-375.37"/>
<polygon fill="black" stroke="black" points="1446.06,-376.29 1446.24,-365.7 1439.49,-373.87 1446.06,-376.29"/>
</g>
<!-- ndp_ns_input&#45;&gt;control_output -->
<g id="edge68" class="edge">
<title>ndp_ns_input&#45;&gt;control_output</title>
<path fill="none" stroke="black" d="M1492.71,-733.56C1538.47,-728.2 1615.64,-719.17 1667.1,-713.15"/>
<polygon fill="black" stroke="black" points="1667.82,-716.58 1677.35,-711.95 1667.01,-709.63 1667.82,-716.58"/>
</g>
<!-- ndp_na_input&#45;&gt;control_output -->
<g id="edge66" class="edge">
<title>ndp_na_input&#45;&gt;control_output</title>
<path fill="none" stroke="black" d="M1493.84,-687.39C1539.61,-691.37 1615.64,-697.97 1666.67,-702.4"/>
<polygon fill="black" stroke="black" points="1666.58,-705.91 1676.85,-703.29 1667.19,-698.93 1666.58,-705.91"/>
</g>
<!-- ndp_rs_input&#45;&gt;control_output -->
<g id="edge70" class="edge">
<title>ndp_rs_input&#45;&gt;control_output</title>
<path fill="none" stroke="black" d="M1493.09,-830.7C1532.39,-829.8 1594.12,-823.83 1640.1,-798 1667.46,-782.63 1690,-754.14 1704,-733.12"/>
<polygon fill="black" stroke="black" points="1707,-734.93 1709.47,-724.62 1701.11,-731.14 1707,-734.93"/>
</g>
<!-- ip6_forward&#45;&gt;ip6_output -->
<g id="edge54" class="edge">
<title>ip6_forward&#45;&gt;ip6_output</title>
<path fill="none" stroke="black" d="M1101.88,-266.35C1159.88,-270.96 1279.89,-283.48 1377.06,-313 1391.89,-317.5 1407.55,-324.36 1420.75,-330.81"/>
<polygon fill="black" stroke="black" points="1419.38,-334.04 1429.89,-335.4 1422.52,-327.79 1419.38,-334.04"/>
</g>
<!-- ip6_hold&#45;&gt;control_output -->
<g id="edge55" class="edge">
<title>ip6_hold&#45;&gt;control_output</title>
<path fill="none" stroke="black" d="M1607.16,-385.93C1618.45,-392.85 1631.76,-402.79 1640.1,-415 1697.56,-499.23 1713.59,-623.55 1717.98,-678.78"/>
<polygon fill="black" stroke="black" points="1714.5,-679.16 1718.71,-688.88 1721.48,-678.65 1714.5,-679.16"/>
</g>
<!-- ip6_input_local&#45;&gt;l4_input_local -->
<g id="edge61" class="edge">
<title>ip6_input_local&#45;&gt;l4_input_local</title>
<path fill="none" stroke="black" d="M598.19,-553.97C672.08,-559.01 821.83,-569.24 899.99,-574.58"/>
<polygon fill="black" stroke="black" points="899.86,-578.08 910.07,-575.27 900.33,-571.1 899.86,-578.08"/>
</g>
<!-- ip6_input_local&#45;&gt;icmp6_input -->
<g id="edge60" class="edge">
<title>ip6_input_local&#45;&gt;icmp6_input</title>
<path fill="none" stroke="black" d="M591.79,-560.8C609.1,-565.29 630.02,-570.59 648.91,-575 800.83,-610.5 852.19,-579.31 992.27,-648 1069.68,-685.96 1142.24,-759.5 1176.77,-797.68"/>
<polygon fill="black" stroke="black" points="1174.28,-800.14 1183.55,-805.26 1179.5,-795.48 1174.28,-800.14"/>
</g>
<!-- sr6_local&#45;&gt;ip_input -->
<g id="edge75" class="edge">
<title>sr6_local&#45;&gt;ip_input</title>
<path fill="none" stroke="black" d="M440.87,-444.38C462.43,-441.42 493.15,-437.19 516.94,-433.92"/>
<polygon fill="black" stroke="black" points="517.57,-437.37 527,-432.54 516.62,-430.44 517.57,-437.37"/>
</g>
<!-- sr6_local&#45;&gt;ip6_input -->
<g id="edge76" class="edge">
<title>sr6_local&#45;&gt;ip6_input</title>
<path fill="none" stroke="black" d="M387.11,-453.58C369.22,-454.89 345.03,-455.1 325.14,-454.2"/>
<polygon fill="black" stroke="black" points="325.09,-450.7 314.9,-453.61 324.68,-457.68 325.09,-450.7"/>
</g>
<!-- sr6_local&#45;&gt;ip6_input_local -->
<g id="edge77" class="edge">
<title>sr6_local&#45;&gt;ip6_input_local</title>
<path fill="none" stroke="black" d="M432.34,-461.25C455.33,-478.39 495.68,-508.47 523.29,-529.04"/>
<polygon fill="black" stroke="black" points="521.3,-531.93 531.41,-535.1 525.49,-526.31 521.3,-531.93"/>
</g>
<!-- l4_loopback_output&#45;&gt;loopback_output -->
<g id="edge74" class="edge">
<title>l4_loopback_output&#45;&gt;loopback_output</title>
<path fill="none" stroke="black" d="M1238.13,-564.46C1309.47,-539.22 1462.45,-485.1 1538.88,-458.06"/>
<polygon fill="black" stroke="black" points="1540.44,-461.22 1548.7,-454.59 1538.1,-454.63 1540.44,-461.22"/>
</g>
</g>
</svg>
