<?xml version="1.0" encoding="UTF-8" standalone="no"?>
<!DOCTYPE svg PUBLIC "-//W3C//DTD SVG 1.1//EN"
 "http://www.w3.org/Graphics/SVG/1.1/DTD/svg11.dtd">
<!-- Generated by graphviz version 12.2.1 (20241206.2353)
 -->
<!-- Title: grout Pages: 1 -->
<svg width="2555pt" height="1087pt"
 viewBox="0.00 0.00 2554.71 1086.77" xmlns="http://www.w3.org/2000/svg" xmlns:xlink="http://www.w3.org/1999/xlink">
<g id="graph0" class="graph" transform="scale(1 1) rotate(0) translate(4 1082.77)">
<title>grout</title>
<polygon fill="white" stroke="none" points="-4,4 -4,-1082.77 2550.71,-1082.77 2550.71,4 -4,4"/>
<!-- control_input -->
<g id="node1" class="node">
<title>control_input</title>
<ellipse fill="none" stroke="blue" stroke-width="2" cx="41.62" cy="-610.77" rx="41.62" ry="18"/>
<text text-anchor="middle" x="41.62" y="-607.07" font-family="sans" font-size="11.00">control_input</text>
</g>
<!-- loopback_input -->
<g id="node2" class="node">
<title>loopback_input</title>
<ellipse fill="none" stroke="black" cx="166.76" cy="-610.77" rx="47.52" ry="18"/>
<text text-anchor="middle" x="166.76" y="-607.07" font-family="sans" font-size="11.00">loopback_input</text>
</g>
<!-- control_input&#45;&gt;loopback_input -->
<g id="edge1" class="edge">
<title>control_input&#45;&gt;loopback_input</title>
<path fill="none" stroke="blue" stroke-width="2" d="M83.63,-610.77C91.33,-610.77 99.52,-610.77 107.63,-610.77"/>
<polygon fill="blue" stroke="blue" stroke-width="2" points="105.96,-614.27 115.96,-610.77 105.96,-607.27 105.96,-614.27"/>
</g>
<!-- arp_output_request -->
<g id="node3" class="node">
<title>arp_output_request</title>
<ellipse fill="none" stroke="black" cx="441.05" cy="-1055.77" rx="61.42" ry="18"/>
<text text-anchor="middle" x="441.05" y="-1052.07" font-family="sans" font-size="11.00">arp_output_request</text>
</g>
<!-- control_input&#45;&gt;arp_output_request -->
<g id="edge2" class="edge">
<title>control_input&#45;&gt;arp_output_request</title>
<path fill="none" stroke="blue" stroke-width="2" d="M43.23,-629.2C46.04,-702.04 60.27,-968.41 119.25,-1022.77 189.59,-1087.61 308.94,-1080.6 380.54,-1068.76"/>
<polygon fill="blue" stroke="blue" stroke-width="2" points="379.38,-1072.52 388.63,-1067.35 378.18,-1065.62 379.38,-1072.52"/>
</g>
<!-- icmp_local_send -->
<g id="node4" class="node">
<title>icmp_local_send</title>
<ellipse fill="none" stroke="black" cx="441.05" cy="-882.77" rx="51.31" ry="18"/>
<text text-anchor="middle" x="441.05" y="-879.07" font-family="sans" font-size="11.00">icmp_local_send</text>
</g>
<!-- control_input&#45;&gt;icmp_local_send -->
<g id="edge3" class="edge">
<title>control_input&#45;&gt;icmp_local_send</title>
<path fill="none" stroke="blue" stroke-width="2" d="M43.88,-629.21C47.65,-669.32 62.44,-764.86 119.25,-813.77 192.04,-876.45 308.11,-886.49 378.87,-886.05"/>
<polygon fill="blue" stroke="blue" stroke-width="2" points="377.28,-889.57 387.23,-885.93 377.18,-882.57 377.28,-889.57"/>
</g>
<!-- icmp6_local_send -->
<g id="node5" class="node">
<title>icmp6_local_send</title>
<ellipse fill="none" stroke="black" cx="1169.09" cy="-264.77" rx="55.1" ry="18"/>
<text text-anchor="middle" x="1169.09" y="-261.07" font-family="sans" font-size="11.00">icmp6_local_send</text>
</g>
<!-- control_input&#45;&gt;icmp6_local_send -->
<g id="edge4" class="edge">
<title>control_input&#45;&gt;icmp6_local_send</title>
<path fill="none" stroke="blue" stroke-width="2" d="M44.4,-592.72C50.73,-532.08 74.32,-337.24 119.25,-296.77 178.14,-243.72 216.7,-272.77 295.96,-272.77 295.96,-272.77 295.96,-272.77 868.85,-272.77 949.41,-272.77 1042.13,-269.84 1102.74,-267.52"/>
<polygon fill="blue" stroke="blue" stroke-width="2" points="1101.16,-271.09 1111.02,-267.2 1100.89,-264.09 1101.16,-271.09"/>
</g>
<!-- ndp_ns_output -->
<g id="node6" class="node">
<title>ndp_ns_output</title>
<ellipse fill="none" stroke="black" cx="1481.28" cy="-302.77" rx="46.26" ry="18"/>
<text text-anchor="middle" x="1481.28" y="-299.07" font-family="sans" font-size="11.00">ndp_ns_output</text>
</g>
<!-- control_input&#45;&gt;ndp_ns_output -->
<g id="edge5" class="edge">
<title>control_input&#45;&gt;ndp_ns_output</title>
<path fill="none" stroke="blue" stroke-width="2" d="M47.89,-592.9C68.13,-528.32 147.35,-310.77 295.96,-310.77 295.96,-310.77 295.96,-310.77 1170.09,-310.77 1258.71,-310.77 1361.53,-307.47 1423.7,-305.11"/>
<polygon fill="blue" stroke="blue" stroke-width="2" points="1421.94,-308.68 1431.8,-304.79 1421.67,-301.68 1421.94,-308.68"/>
</g>
<!-- ip_output -->
<g id="node7" class="node">
<title>ip_output</title>
<ellipse fill="none" stroke="black" cx="1169.09" cy="-726.77" rx="30.25" ry="18"/>
<text text-anchor="middle" x="1169.09" y="-723.07" font-family="sans" font-size="11.00">ip_output</text>
</g>
<!-- control_input&#45;&gt;ip_output -->
<g id="edge6" class="edge">
<title>control_input&#45;&gt;ip_output</title>
<path fill="none" stroke="blue" stroke-width="2" d="M43.4,-629.06C46.21,-673.14 59.21,-786.44 119.25,-852.77 176.62,-916.16 210.47,-928.77 295.96,-928.77 295.96,-928.77 295.96,-928.77 722.66,-928.77 895.85,-928.77 1075.83,-800.54 1141.83,-748.41"/>
<polygon fill="blue" stroke="blue" stroke-width="2" points="1142.74,-752.17 1148.37,-743.19 1138.37,-746.7 1142.74,-752.17"/>
</g>
<!-- arp_output_reply -->
<g id="node8" class="node">
<title>arp_output_reply</title>
<ellipse fill="none" stroke="black" cx="1024.58" cy="-1010.77" rx="53.41" ry="18"/>
<text text-anchor="middle" x="1024.58" y="-1007.07" font-family="sans" font-size="11.00">arp_output_reply</text>
</g>
<!-- control_input&#45;&gt;arp_output_reply -->
<g id="edge7" class="edge">
<title>control_input&#45;&gt;arp_output_reply</title>
<path fill="none" stroke="blue" stroke-width="2" d="M44.56,-629.04C51.53,-691.41 77.12,-894.74 119.25,-942.77 174.53,-1005.8 212.12,-1008.77 295.96,-1008.77 295.96,-1008.77 295.96,-1008.77 722.66,-1008.77 804.38,-1008.77 898.58,-1009.52 959.5,-1010.1"/>
<polygon fill="blue" stroke="blue" stroke-width="2" points="957.79,-1013.58 967.82,-1010.18 957.86,-1006.58 957.79,-1013.58"/>
</g>
<!-- ip6_output -->
<g id="node9" class="node">
<title>ip6_output</title>
<ellipse fill="none" stroke="black" cx="2183.63" cy="-542.77" rx="34.04" ry="18"/>
<text text-anchor="middle" x="2183.63" y="-539.07" font-family="sans" font-size="11.00">ip6_output</text>
</g>
<!-- control_input&#45;&gt;ip6_output -->
<g id="edge8" class="edge">
<title>control_input&#45;&gt;ip6_output</title>
<path fill="none" stroke="blue" stroke-width="2" d="M43.6,-592.45C47.71,-522.45 65.94,-273.09 119.25,-218.77 175.52,-161.43 215.63,-180.77 295.96,-180.77 295.96,-180.77 295.96,-180.77 1746.46,-180.77 1824.78,-180.77 2036.57,-178.16 2095.48,-229.77 2138.7,-267.63 2168.32,-443.44 2178.62,-513.67"/>
<polygon fill="blue" stroke="blue" stroke-width="2" points="2174.89,-512.36 2179.78,-521.76 2181.82,-511.36 2174.89,-512.36"/>
</g>
<!-- ndp_na_output -->
<g id="node10" class="node">
<title>ndp_na_output</title>
<ellipse fill="none" stroke="black" cx="296.96" cy="-226.77" rx="46.68" ry="18"/>
<text text-anchor="middle" x="296.96" y="-223.07" font-family="sans" font-size="11.00">ndp_na_output</text>
</g>
<!-- control_input&#45;&gt;ndp_na_output -->
<g id="edge9" class="edge">
<title>control_input&#45;&gt;ndp_na_output</title>
<path fill="none" stroke="blue" stroke-width="2" d="M43.98,-592.49C49.22,-527.07 70.31,-306.01 119.25,-258.77 150.82,-228.29 201.11,-221.65 239.98,-221.86"/>
<polygon fill="blue" stroke="blue" stroke-width="2" points="238.28,-225.32 248.35,-222.04 238.43,-218.32 238.28,-225.32"/>
</g>
<!-- eth_input -->
<g id="node12" class="node">
<title>eth_input</title>
<ellipse fill="none" stroke="black" cx="296.96" cy="-610.77" rx="30.25" ry="18"/>
<text text-anchor="middle" x="296.96" y="-607.07" font-family="sans" font-size="11.00">eth_input</text>
</g>
<!-- loopback_input&#45;&gt;eth_input -->
<g id="edge15" class="edge">
<title>loopback_input&#45;&gt;eth_input</title>
<path fill="none" stroke="black" d="M214.77,-610.77C228.01,-610.77 242.3,-610.77 255.15,-610.77"/>
<polygon fill="black" stroke="black" points="254.95,-614.27 264.95,-610.77 254.95,-607.27 254.95,-614.27"/>
</g>
<!-- eth_output -->
<g id="node16" class="node">
<title>eth_output</title>
<ellipse fill="none" stroke="black" cx="2344.99" cy="-1002.77" rx="34.89" ry="18"/>
<text text-anchor="middle" x="2344.99" y="-999.07" font-family="sans" font-size="11.00">eth_output</text>
</g>
<!-- arp_output_request&#45;&gt;eth_output -->
<g id="edge26" class="edge">
<title>arp_output_request&#45;&gt;eth_output</title>
<path fill="none" stroke="black" d="M502.92,-1056.11C559.36,-1056.4 645.68,-1056.77 720.66,-1056.77 720.66,-1056.77 720.66,-1056.77 868.85,-1056.77 1476.64,-1056.77 1629.89,-1064.71 2235.78,-1016.77 2256.99,-1015.09 2280.42,-1012.19 2300.04,-1009.46"/>
<polygon fill="black" stroke="black" points="2300.5,-1012.93 2309.91,-1008.06 2299.51,-1006 2300.5,-1012.93"/>
</g>
<!-- icmp_output -->
<g id="node25" class="node">
<title>icmp_output</title>
<ellipse fill="none" stroke="black" cx="1024.58" cy="-764.77" rx="39.52" ry="18"/>
<text text-anchor="middle" x="1024.58" y="-761.07" font-family="sans" font-size="11.00">icmp_output</text>
</g>
<!-- icmp_local_send&#45;&gt;icmp_output -->
<g id="edge29" class="edge">
<title>icmp_local_send&#45;&gt;icmp_output</title>
<path fill="none" stroke="black" d="M491,-887.44C582.86,-894.09 785.3,-898.65 935.16,-828.77 954.57,-819.72 953.96,-809.51 971.16,-796.77 976.84,-792.56 983.1,-788.39 989.24,-784.52"/>
<polygon fill="black" stroke="black" points="990.73,-787.71 997.43,-779.5 987.07,-781.74 990.73,-787.71"/>
</g>
<!-- icmp6_output -->
<g id="node38" class="node">
<title>icmp6_output</title>
<ellipse fill="none" stroke="black" cx="2034.91" cy="-256.77" rx="43.31" ry="18"/>
<text text-anchor="middle" x="2034.91" y="-253.07" font-family="sans" font-size="11.00">icmp6_output</text>
</g>
<!-- icmp6_local_send&#45;&gt;icmp6_output -->
<g id="edge55" class="edge">
<title>icmp6_local_send&#45;&gt;icmp6_output</title>
<path fill="none" stroke="black" d="M1224.15,-262.53C1286.04,-260.16 1390.45,-256.77 1480.28,-256.77 1480.28,-256.77 1480.28,-256.77 1746.46,-256.77 1827.93,-256.77 1922.39,-256.77 1980.14,-256.77"/>
<polygon fill="black" stroke="black" points="1980.02,-260.27 1990.02,-256.77 1980.02,-253.27 1980.02,-260.27"/>
</g>
<!-- ndp_ns_output&#45;&gt;icmp6_output -->
<g id="edge74" class="edge">
<title>ndp_ns_output&#45;&gt;icmp6_output</title>
<path fill="none" stroke="black" d="M1527.69,-300.72C1609.81,-296.76 1788.4,-286.99 1938.33,-270.77 1952.81,-269.2 1968.45,-267.09 1982.81,-264.98"/>
<polygon fill="black" stroke="black" points="1983.14,-268.47 1992.51,-263.53 1982.1,-261.55 1983.14,-268.47"/>
</g>
<!-- ip_output&#45;&gt;eth_output -->
<g id="edge43" class="edge">
<title>ip_output&#45;&gt;eth_output</title>
<path fill="none" stroke="black" d="M1191.6,-739.37C1209.42,-749.29 1235.71,-762.74 1260.19,-770.77 1354.66,-801.76 1380.86,-810.77 1480.28,-810.77 1480.28,-810.77 1480.28,-810.77 1746.46,-810.77 1861.66,-810.77 2194.24,-941.77 2306.48,-987.36"/>
<polygon fill="black" stroke="black" points="2304.96,-990.52 2315.54,-991.05 2307.6,-984.03 2304.96,-990.52"/>
</g>
<!-- loop_xvrf -->
<g id="node20" class="node">
<title>loop_xvrf</title>
<ellipse fill="none" stroke="black" cx="1329.61" cy="-477.77" rx="29.83" ry="18"/>
<text text-anchor="middle" x="1329.61" y="-474.07" font-family="sans" font-size="11.00">loop_xvrf</text>
</g>
<!-- ip_output&#45;&gt;loop_xvrf -->
<g id="edge46" class="edge">
<title>ip_output&#45;&gt;loop_xvrf</title>
<path fill="none" stroke="black" d="M1180.74,-710.05C1207.75,-667.62 1279.09,-555.55 1311.8,-504.18"/>
<polygon fill="black" stroke="black" points="1314.57,-506.34 1316.99,-496.03 1308.66,-502.58 1314.57,-506.34"/>
</g>
<!-- ip_hold -->
<g id="node28" class="node">
<title>ip_hold</title>
<ellipse fill="none" stroke="black" cx="1481.28" cy="-753.77" rx="27" ry="18"/>
<text text-anchor="middle" x="1481.28" y="-750.07" font-family="sans" font-size="11.00">ip_hold</text>
</g>
<!-- ip_output&#45;&gt;ip_hold -->
<g id="edge44" class="edge">
<title>ip_output&#45;&gt;ip_hold</title>
<path fill="none" stroke="black" d="M1195.28,-736.47C1213.1,-742.8 1237.73,-750.48 1260.19,-753.77 1323.91,-763.11 1399.13,-760.15 1443.08,-757.04"/>
<polygon fill="black" stroke="black" points="1443.13,-760.55 1452.84,-756.3 1442.61,-753.57 1443.13,-760.55"/>
</g>
<!-- ip_error_dest_unreach -->
<g id="node31" class="node">
<title>ip_error_dest_unreach</title>
<ellipse fill="none" stroke="black" cx="1329.61" cy="-623.77" rx="69.42" ry="18"/>
<text text-anchor="middle" x="1329.61" y="-620.07" font-family="sans" font-size="11.00">ip_error_dest_unreach</text>
</g>
<!-- ip_output&#45;&gt;ip_error_dest_unreach -->
<g id="edge45" class="edge">
<title>ip_output&#45;&gt;ip_error_dest_unreach</title>
<path fill="none" stroke="black" d="M1190.03,-713.27C1208.22,-701.01 1235.89,-682.49 1260.19,-666.77 1270.46,-660.13 1281.66,-653.03 1291.98,-646.55"/>
<polygon fill="black" stroke="black" points="1293.63,-649.64 1300.25,-641.36 1289.92,-643.7 1293.63,-649.64"/>
</g>
<!-- ipip_output -->
<g id="node35" class="node">
<title>ipip_output</title>
<ellipse fill="none" stroke="black" cx="1329.61" cy="-726.77" rx="35.73" ry="18"/>
<text text-anchor="middle" x="1329.61" y="-723.07" font-family="sans" font-size="11.00">ipip_output</text>
</g>
<!-- ip_output&#45;&gt;ipip_output -->
<g id="edge47" class="edge">
<title>ip_output&#45;&gt;ipip_output</title>
<path fill="none" stroke="black" d="M1198.43,-721.45C1222.2,-719.87 1256.56,-719.6 1284.01,-720.63"/>
<polygon fill="black" stroke="black" points="1283.63,-724.12 1293.79,-721.08 1283.96,-717.12 1283.63,-724.12"/>
</g>
<!-- sr6_output -->
<g id="node36" class="node">
<title>sr6_output</title>
<ellipse fill="none" stroke="black" cx="2344.99" cy="-588.77" rx="34.46" ry="18"/>
<text text-anchor="middle" x="2344.99" y="-585.07" font-family="sans" font-size="11.00">sr6_output</text>
</g>
<!-- ip_output&#45;&gt;sr6_output -->
<g id="edge48" class="edge">
<title>ip_output&#45;&gt;sr6_output</title>
<path fill="none" stroke="black" d="M1195.38,-717.67C1213.25,-711.62 1237.9,-704.03 1260.19,-699.77 1356.63,-681.36 1382.1,-680.77 1480.28,-680.77 1480.28,-680.77 1480.28,-680.77 2035.91,-680.77 2125.14,-680.77 2151.78,-691.88 2235.78,-661.77 2266.68,-650.7 2297.25,-628.79 2317.97,-611.85"/>
<polygon fill="black" stroke="black" points="2320.19,-614.56 2325.61,-605.45 2315.69,-609.19 2320.19,-614.56"/>
</g>
<!-- arp_output_reply&#45;&gt;eth_output -->
<g id="edge25" class="edge">
<title>arp_output_reply&#45;&gt;eth_output</title>
<path fill="none" stroke="black" d="M1077.85,-1008.55C1138.24,-1006.18 1240.59,-1002.77 1328.61,-1002.77 1328.61,-1002.77 1328.61,-1002.77 2035.91,-1002.77 2129.17,-1002.77 2238.32,-1002.77 2298.45,-1002.77"/>
<polygon fill="black" stroke="black" points="2298.28,-1006.27 2308.28,-1002.77 2298.28,-999.27 2298.28,-1006.27"/>
</g>
<!-- ip6_output&#45;&gt;eth_output -->
<g id="edge66" class="edge">
<title>ip6_output&#45;&gt;eth_output</title>
<path fill="none" stroke="black" d="M2201.23,-558.46C2213.03,-570.68 2228.08,-588.73 2235.78,-607.77 2294.74,-753.56 2187.21,-827.19 2271.78,-959.77 2279.65,-972.1 2292.42,-981.36 2305.05,-988.07"/>
<polygon fill="black" stroke="black" points="2303.17,-991.05 2313.69,-992.26 2306.22,-984.75 2303.17,-991.05"/>
</g>
<!-- ip6_output&#45;&gt;loop_xvrf -->
<g id="edge69" class="edge">
<title>ip6_output&#45;&gt;loop_xvrf</title>
<path fill="none" stroke="black" d="M2154.36,-552.49C2137.49,-557.8 2115.52,-563.87 2095.48,-566.77 1861.11,-600.73 1794.65,-587.45 1563.54,-535.77 1494.36,-520.3 1414.29,-499.79 1368.33,-487.76"/>
<polygon fill="black" stroke="black" points="1369.43,-484.43 1358.87,-485.27 1367.66,-491.2 1369.43,-484.43"/>
</g>
<!-- ip6_output&#45;&gt;sr6_output -->
<g id="edge70" class="edge">
<title>ip6_output&#45;&gt;sr6_output</title>
<path fill="none" stroke="black" d="M2217.26,-546.62C2243.84,-552.77 2281.28,-563.53 2308.58,-572.83"/>
<polygon fill="black" stroke="black" points="2307.2,-576.05 2317.8,-576.07 2309.52,-569.45 2307.2,-576.05"/>
</g>
<!-- ip6_hold -->
<g id="node44" class="node">
<title>ip6_hold</title>
<ellipse fill="none" stroke="black" cx="2344.99" cy="-534.77" rx="27" ry="18"/>
<text text-anchor="middle" x="2344.99" y="-531.07" font-family="sans" font-size="11.00">ip6_hold</text>
</g>
<!-- ip6_output&#45;&gt;ip6_hold -->
<g id="edge67" class="edge">
<title>ip6_output&#45;&gt;ip6_hold</title>
<path fill="none" stroke="black" d="M2217.65,-541.11C2243.46,-539.82 2279.35,-538.02 2306.29,-536.66"/>
<polygon fill="black" stroke="black" points="2306.27,-540.17 2316.09,-536.17 2305.92,-533.18 2306.27,-540.17"/>
</g>
<!-- ip6_error_dest_unreach -->
<g id="node46" class="node">
<title>ip6_error_dest_unreach</title>
<ellipse fill="none" stroke="black" cx="2344.99" cy="-424.77" rx="73.21" ry="18"/>
<text text-anchor="middle" x="2344.99" y="-421.07" font-family="sans" font-size="11.00">ip6_error_dest_unreach</text>
</g>
<!-- ip6_output&#45;&gt;ip6_error_dest_unreach -->
<g id="edge68" class="edge">
<title>ip6_output&#45;&gt;ip6_error_dest_unreach</title>
<path fill="none" stroke="black" d="M2204.49,-528.06C2231.3,-508.21 2279.39,-472.6 2311.5,-448.83"/>
<polygon fill="black" stroke="black" points="2313.34,-451.82 2319.29,-443.06 2309.17,-446.2 2313.34,-451.82"/>
</g>
<!-- ndp_na_output&#45;&gt;icmp6_output -->
<g id="edge72" class="edge">
<title>ndp_na_output&#45;&gt;icmp6_output</title>
<path fill="none" stroke="black" d="M343.67,-224.74C401.08,-222.37 502.62,-218.77 589.62,-218.77 589.62,-218.77 589.62,-218.77 1746.46,-218.77 1830.76,-218.77 1927.77,-235.03 1984.79,-246.28"/>
<polygon fill="black" stroke="black" points="1984.01,-249.69 1994.51,-248.23 1985.39,-242.83 1984.01,-249.69"/>
</g>
<!-- control_output -->
<g id="node11" class="node">
<title>control_output</title>
<ellipse fill="none" stroke="black" cx="2500.45" cy="-584.77" rx="46.26" ry="18"/>
<text text-anchor="middle" x="2500.45" y="-581.07" font-family="sans" font-size="11.00">control_output</text>
</g>
<!-- arp_input -->
<g id="node13" class="node">
<title>arp_input</title>
<ellipse fill="none" stroke="black" cx="2183.63" cy="-878.77" rx="30.25" ry="18"/>
<text text-anchor="middle" x="2183.63" y="-875.07" font-family="sans" font-size="11.00">arp_input</text>
</g>
<!-- eth_input&#45;&gt;arp_input -->
<g id="edge10" class="edge">
<title>eth_input&#45;&gt;arp_input</title>
<path fill="none" stroke="black" d="M319.83,-623.02C361.68,-646.25 456.23,-697.79 538.47,-735.77 799.73,-856.41 880.32,-886.77 1168.09,-886.77 1168.09,-886.77 1168.09,-886.77 1896.45,-886.77 1983.74,-886.77 2085.94,-883.01 2141.52,-880.64"/>
<polygon fill="black" stroke="black" points="2141.62,-884.14 2151.46,-880.21 2141.32,-877.15 2141.62,-884.14"/>
</g>
<!-- ip_input -->
<g id="node14" class="node">
<title>ip_input</title>
<ellipse fill="none" stroke="black" cx="441.05" cy="-561.77" rx="27" ry="18"/>
<text text-anchor="middle" x="441.05" y="-558.07" font-family="sans" font-size="11.00">ip_input</text>
</g>
<!-- eth_input&#45;&gt;ip_input -->
<g id="edge11" class="edge">
<title>eth_input&#45;&gt;ip_input</title>
<path fill="none" stroke="black" d="M323.69,-601.9C346.68,-593.97 380.54,-582.29 405.81,-573.58"/>
<polygon fill="black" stroke="black" points="406.66,-576.99 414.97,-570.42 404.37,-570.37 406.66,-576.99"/>
</g>
<!-- ip6_input -->
<g id="node15" class="node">
<title>ip6_input</title>
<ellipse fill="none" stroke="black" cx="1481.28" cy="-409.77" rx="29.41" ry="18"/>
<text text-anchor="middle" x="1481.28" y="-406.07" font-family="sans" font-size="11.00">ip6_input</text>
</g>
<!-- eth_input&#45;&gt;ip6_input -->
<g id="edge12" class="edge">
<title>eth_input&#45;&gt;ip6_input</title>
<path fill="none" stroke="black" d="M306.33,-593.58C336.04,-535.29 442.6,-348.77 589.62,-348.77 589.62,-348.77 589.62,-348.77 868.85,-348.77 1086.21,-348.77 1344.89,-387.41 1441.43,-403.18"/>
<polygon fill="black" stroke="black" points="1440.72,-406.61 1451.16,-404.79 1441.86,-399.71 1440.72,-406.61"/>
</g>
<!-- arp_input_request -->
<g id="node22" class="node">
<title>arp_input_request</title>
<ellipse fill="none" stroke="black" cx="2344.99" cy="-932.77" rx="56.78" ry="18"/>
<text text-anchor="middle" x="2344.99" y="-929.07" font-family="sans" font-size="11.00">arp_input_request</text>
</g>
<!-- arp_input&#45;&gt;arp_input_request -->
<g id="edge21" class="edge">
<title>arp_input&#45;&gt;arp_input_request</title>
<path fill="none" stroke="black" d="M2210.59,-887.57C2233.25,-895.24 2266.75,-906.6 2294.51,-916.01"/>
<polygon fill="black" stroke="black" points="2293.2,-919.26 2303.79,-919.15 2295.45,-912.63 2293.2,-919.26"/>
</g>
<!-- arp_input_reply -->
<g id="node23" class="node">
<title>arp_input_reply</title>
<ellipse fill="none" stroke="black" cx="2344.99" cy="-878.77" rx="48.78" ry="18"/>
<text text-anchor="middle" x="2344.99" y="-875.07" font-family="sans" font-size="11.00">arp_input_reply</text>
</g>
<!-- arp_input&#45;&gt;arp_input_reply -->
<g id="edge22" class="edge">
<title>arp_input&#45;&gt;arp_input_reply</title>
<path fill="none" stroke="black" d="M2214.23,-878.77C2233.88,-878.77 2260.36,-878.77 2284.27,-878.77"/>
<polygon fill="black" stroke="black" points="2284.25,-882.27 2294.25,-878.77 2284.25,-875.27 2284.25,-882.27"/>
</g>
<!-- ip_input&#45;&gt;ip_output -->
<g id="edge36" class="edge">
<title>ip_input&#45;&gt;ip_output</title>
<path fill="none" stroke="black" d="M451.05,-578.9C465.93,-605.72 498.06,-657.76 538.47,-688.77 638.28,-765.36 677.09,-771.54 800.54,-795.77 859.25,-807.29 882.88,-824.86 935.16,-795.77 961.68,-781.02 945.07,-753.25 971.16,-737.77 1019.62,-709.02 1087.13,-712.68 1129.19,-718.97"/>
<polygon fill="black" stroke="black" points="1128.42,-722.39 1138.85,-720.54 1129.54,-715.48 1128.42,-722.39"/>
</g>
<!-- ip_forward -->
<g id="node26" class="node">
<title>ip_forward</title>
<ellipse fill="none" stroke="black" cx="721.66" cy="-676.77" rx="33.62" ry="18"/>
<text text-anchor="middle" x="721.66" y="-673.07" font-family="sans" font-size="11.00">ip_forward</text>
</g>
<!-- ip_input&#45;&gt;ip_forward -->
<g id="edge34" class="edge">
<title>ip_input&#45;&gt;ip_forward</title>
<path fill="none" stroke="black" d="M451.66,-578.41C466.67,-602.62 498.18,-646.72 538.47,-665.77 582.47,-686.58 639.26,-686.38 677.65,-682.89"/>
<polygon fill="black" stroke="black" points="677.85,-686.38 687.44,-681.87 677.13,-679.42 677.85,-686.38"/>
</g>
<!-- dnat44_dynamic -->
<g id="node29" class="node">
<title>dnat44_dynamic</title>
<ellipse fill="none" stroke="black" cx="590.62" cy="-638.77" rx="52.15" ry="18"/>
<text text-anchor="middle" x="590.62" y="-635.07" font-family="sans" font-size="11.00">dnat44_dynamic</text>
</g>
<!-- ip_input&#45;&gt;dnat44_dynamic -->
<g id="edge35" class="edge">
<title>ip_input&#45;&gt;dnat44_dynamic</title>
<path fill="none" stroke="black" d="M462.88,-572.64C485.67,-584.53 522.69,-603.85 550.85,-618.54"/>
<polygon fill="black" stroke="black" points="548.96,-621.5 559.44,-623.02 552.19,-615.29 548.96,-621.5"/>
</g>
<!-- ip_input_local -->
<g id="node30" class="node">
<title>ip_input_local</title>
<ellipse fill="none" stroke="black" cx="721.66" cy="-546.77" rx="42.89" ry="18"/>
<text text-anchor="middle" x="721.66" y="-543.07" font-family="sans" font-size="11.00">ip_input_local</text>
</g>
<!-- ip_input&#45;&gt;ip_input_local -->
<g id="edge37" class="edge">
<title>ip_input&#45;&gt;ip_input_local</title>
<path fill="none" stroke="black" d="M468.26,-560.36C513.73,-557.91 608.04,-552.83 667.62,-549.63"/>
<polygon fill="black" stroke="black" points="667.74,-553.12 677.54,-549.09 667.37,-546.13 667.74,-553.12"/>
</g>
<!-- ip_input&#45;&gt;ip_error_dest_unreach -->
<g id="edge38" class="edge">
<title>ip_input&#45;&gt;ip_error_dest_unreach</title>
<path fill="none" stroke="black" d="M461.48,-549.63C505.69,-523.2 617.99,-462.77 720.66,-462.77 720.66,-462.77 720.66,-462.77 1025.58,-462.77 1139.94,-462.77 1253.19,-553.31 1302.69,-598.6"/>
<polygon fill="black" stroke="black" points="1300.08,-600.95 1309.79,-605.2 1304.85,-595.83 1300.08,-600.95"/>
</g>
<!-- dnat44_static -->
<g id="node32" class="node">
<title>dnat44_static</title>
<ellipse fill="none" stroke="black" cx="590.62" cy="-584.77" rx="43.31" ry="18"/>
<text text-anchor="middle" x="590.62" y="-581.07" font-family="sans" font-size="11.00">dnat44_static</text>
</g>
<!-- ip_input&#45;&gt;dnat44_static -->
<g id="edge39" class="edge">
<title>ip_input&#45;&gt;dnat44_static</title>
<path fill="none" stroke="black" d="M467.76,-565.78C487.13,-568.8 514.34,-573.04 538.13,-576.74"/>
<polygon fill="black" stroke="black" points="537.57,-580.2 547.99,-578.28 538.65,-573.28 537.57,-580.2"/>
</g>
<!-- ip6_input&#45;&gt;ip6_output -->
<g id="edge60" class="edge">
<title>ip6_input&#45;&gt;ip6_output</title>
<path fill="none" stroke="black" d="M1506.05,-419.76C1522.04,-426.1 1543.74,-433.98 1563.54,-438.77 1642.38,-457.84 1663.34,-462.77 1744.46,-462.77 1744.46,-462.77 1744.46,-462.77 1896.45,-462.77 1989.84,-462.77 2094.25,-502.77 2147.4,-526.21"/>
<polygon fill="black" stroke="black" points="2145.7,-529.28 2156.26,-530.17 2148.56,-522.89 2145.7,-529.28"/>
</g>
<!-- ip6_forward -->
<g id="node42" class="node">
<title>ip6_forward</title>
<ellipse fill="none" stroke="black" cx="1600.95" cy="-508.77" rx="37.41" ry="18"/>
<text text-anchor="middle" x="1600.95" y="-505.07" font-family="sans" font-size="11.00">ip6_forward</text>
</g>
<!-- ip6_input&#45;&gt;ip6_forward -->
<g id="edge59" class="edge">
<title>ip6_input&#45;&gt;ip6_forward</title>
<path fill="none" stroke="black" d="M1499.39,-424.17C1518.55,-440.29 1549.87,-466.64 1572.47,-485.65"/>
<polygon fill="black" stroke="black" points="1570.2,-488.31 1580.1,-492.07 1574.7,-482.96 1570.2,-488.31"/>
</g>
<!-- ip6_input_local -->
<g id="node45" class="node">
<title>ip6_input_local</title>
<ellipse fill="none" stroke="black" cx="1745.46" cy="-378.77" rx="46.68" ry="18"/>
<text text-anchor="middle" x="1745.46" y="-375.07" font-family="sans" font-size="11.00">ip6_input_local</text>
</g>
<!-- ip6_input&#45;&gt;ip6_input_local -->
<g id="edge61" class="edge">
<title>ip6_input&#45;&gt;ip6_input_local</title>
<path fill="none" stroke="black" d="M1510.59,-406.42C1553.23,-401.38 1634.78,-391.74 1689.4,-385.28"/>
<polygon fill="black" stroke="black" points="1689.6,-388.78 1699.12,-384.13 1688.78,-381.83 1689.6,-388.78"/>
</g>
<!-- ip6_input&#45;&gt;ip6_error_dest_unreach -->
<g id="edge62" class="edge">
<title>ip6_input&#45;&gt;ip6_error_dest_unreach</title>
<path fill="none" stroke="black" d="M1510.57,-412.45C1558.61,-416.77 1659.2,-424.77 1744.46,-424.77 1744.46,-424.77 1744.46,-424.77 2035.91,-424.77 2111.81,-424.77 2198.24,-424.77 2260.2,-424.77"/>
<polygon fill="black" stroke="black" points="2259.96,-428.27 2269.96,-424.77 2259.96,-421.27 2259.96,-428.27"/>
</g>
<!-- sr6_local -->
<g id="node47" class="node">
<title>sr6_local</title>
<ellipse fill="none" stroke="black" cx="1600.95" cy="-340.77" rx="28.57" ry="18"/>
<text text-anchor="middle" x="1600.95" y="-337.07" font-family="sans" font-size="11.00">sr6_local</text>
</g>
<!-- ip6_input&#45;&gt;sr6_local -->
<g id="edge63" class="edge">
<title>ip6_input&#45;&gt;sr6_local</title>
<path fill="none" stroke="black" d="M1499.14,-394.98C1516.47,-382.91 1543.95,-366.36 1565.85,-354.58"/>
<polygon fill="black" stroke="black" points="1567.2,-357.82 1574.43,-350.08 1563.95,-351.62 1567.2,-357.82"/>
</g>
<!-- port_tx -->
<g id="node17" class="node">
<title>port_tx</title>
<ellipse fill="none" stroke="black" cx="2500.45" cy="-1040.77" rx="27" ry="18"/>
<text text-anchor="middle" x="2500.45" y="-1037.07" font-family="sans" font-size="11.00">port_tx</text>
</g>
<!-- eth_output&#45;&gt;port_tx -->
<g id="edge13" class="edge">
<title>eth_output&#45;&gt;port_tx</title>
<path fill="none" stroke="black" d="M2377.04,-1010.46C2402.22,-1016.69 2437.71,-1025.48 2464,-1031.99"/>
<polygon fill="black" stroke="black" points="2462.99,-1035.35 2473.53,-1034.35 2464.67,-1028.55 2462.99,-1035.35"/>
</g>
<!-- l1_xconnect -->
<g id="node18" class="node">
<title>l1_xconnect</title>
<ellipse fill="none" stroke="black" cx="590.62" cy="-844.77" rx="38.25" ry="18"/>
<text text-anchor="middle" x="590.62" y="-841.07" font-family="sans" font-size="11.00">l1_xconnect</text>
</g>
<!-- l1_xconnect&#45;&gt;port_tx -->
<g id="edge14" class="edge">
<title>l1_xconnect&#45;&gt;port_tx</title>
<path fill="none" stroke="black" d="M621.78,-855.63C706.6,-885.17 954.95,-964.77 1168.09,-964.77 1168.09,-964.77 1168.09,-964.77 1601.95,-964.77 1800.5,-964.77 1835.35,-1078.77 2033.91,-1078.77 2033.91,-1078.77 2033.91,-1078.77 2184.63,-1078.77 2286.1,-1078.77 2404.64,-1059.07 2463.08,-1048.04"/>
<polygon fill="black" stroke="black" points="2463.63,-1051.5 2472.79,-1046.18 2462.31,-1044.63 2463.63,-1051.5"/>
</g>
<!-- loopback_output -->
<g id="node19" class="node">
<title>loopback_output</title>
<ellipse fill="none" stroke="black" cx="2183.63" cy="-634.77" rx="52.15" ry="18"/>
<text text-anchor="middle" x="2183.63" y="-631.07" font-family="sans" font-size="11.00">loopback_output</text>
</g>
<!-- loopback_output&#45;&gt;control_output -->
<g id="edge16" class="edge">
<title>loopback_output&#45;&gt;control_output</title>
<path fill="none" stroke="black" d="M2235.83,-634.75C2283.58,-633.76 2356.5,-629.75 2418.2,-615.77 2431.89,-612.67 2446.35,-607.73 2459.22,-602.7"/>
<polygon fill="black" stroke="black" points="2460.25,-606.06 2468.2,-599.06 2457.62,-599.57 2460.25,-606.06"/>
</g>
<!-- loop_xvrf&#45;&gt;ip_input -->
<g id="edge17" class="edge">
<title>loop_xvrf&#45;&gt;ip_input</title>
<path fill="none" stroke="black" d="M1302.13,-469.95C1249.79,-455.21 1129.19,-424.77 1025.58,-424.77 720.66,-424.77 720.66,-424.77 720.66,-424.77 637.36,-424.77 611.48,-428.68 538.47,-468.77 507.39,-485.83 479.14,-515.55 461.36,-536.8"/>
<polygon fill="black" stroke="black" points="458.75,-534.48 455.14,-544.44 464.17,-538.9 458.75,-534.48"/>
</g>
<!-- loop_xvrf&#45;&gt;ip6_input -->
<g id="edge18" class="edge">
<title>loop_xvrf&#45;&gt;ip6_input</title>
<path fill="none" stroke="black" d="M1353.99,-467.15C1378.93,-455.82 1418.63,-437.78 1446.86,-424.96"/>
<polygon fill="black" stroke="black" points="1448.02,-428.27 1455.68,-420.95 1445.13,-421.9 1448.02,-428.27"/>
</g>
<!-- port_rx -->
<g id="node21" class="node">
<title>port_rx</title>
<ellipse fill="none" stroke="blue" stroke-width="2" cx="166.76" cy="-786.77" rx="27" ry="18"/>
<text text-anchor="middle" x="166.76" y="-783.07" font-family="sans" font-size="11.00">port_rx</text>
</g>
<!-- port_rx&#45;&gt;eth_input -->
<g id="edge19" class="edge">
<title>port_rx&#45;&gt;eth_input</title>
<path fill="none" stroke="blue" stroke-width="2" d="M179.6,-770.53C201.96,-739.83 250.58,-673.07 277.35,-636.32"/>
<polygon fill="blue" stroke="blue" stroke-width="2" points="279.13,-639.82 282.19,-629.68 273.47,-635.7 279.13,-639.82"/>
</g>
<!-- port_rx&#45;&gt;l1_xconnect -->
<g id="edge20" class="edge">
<title>port_rx&#45;&gt;l1_xconnect</title>
<path fill="none" stroke="blue" stroke-width="2" d="M193.52,-790.31C262.6,-799.81 452.8,-825.96 542.12,-838.24"/>
<polygon fill="blue" stroke="blue" stroke-width="2" points="540.14,-841.5 550.52,-839.39 541.09,-834.57 540.14,-841.5"/>
</g>
<!-- arp_input_request&#45;&gt;control_output -->
<g id="edge24" class="edge">
<title>arp_input_request&#45;&gt;control_output</title>
<path fill="none" stroke="black" d="M2392.82,-922.73C2402.29,-918.8 2411.41,-913.35 2418.2,-905.77 2457.26,-862.15 2485.61,-684.69 2495.56,-614.01"/>
<polygon fill="black" stroke="black" points="2498.99,-614.75 2496.89,-604.37 2492.05,-613.79 2498.99,-614.75"/>
</g>
<!-- arp_input_reply&#45;&gt;control_output -->
<g id="edge23" class="edge">
<title>arp_input_reply&#45;&gt;control_output</title>
<path fill="none" stroke="black" d="M2385.47,-868.27C2397.36,-863.42 2409.54,-856.5 2418.2,-846.77 2478.41,-779.11 2494,-667.38 2498.04,-614.4"/>
<polygon fill="black" stroke="black" points="2501.52,-614.86 2498.69,-604.65 2494.53,-614.39 2501.52,-614.86"/>
</g>
<!-- icmp_input -->
<g id="node24" class="node">
<title>icmp_input</title>
<ellipse fill="none" stroke="black" cx="867.85" cy="-714.77" rx="34.89" ry="18"/>
<text text-anchor="middle" x="867.85" y="-711.07" font-family="sans" font-size="11.00">icmp_input</text>
</g>
<!-- icmp_input&#45;&gt;control_output -->
<g id="edge28" class="edge">
<title>icmp_input&#45;&gt;control_output</title>
<path fill="none" stroke="black" d="M899.14,-723.08C911.16,-727.37 924.62,-733.47 935.16,-741.77 956.68,-758.7 948.79,-775.99 971.16,-791.77 1045.62,-844.29 1076.98,-848.77 1168.09,-848.77 1168.09,-848.77 1168.09,-848.77 1746.46,-848.77 2052.56,-848.77 2165.6,-869.67 2418.2,-696.77 2449.07,-675.64 2472.45,-638.76 2486.03,-613.12"/>
<polygon fill="black" stroke="black" points="2489.13,-614.75 2490.56,-604.25 2482.9,-611.57 2489.13,-614.75"/>
</g>
<!-- icmp_input&#45;&gt;icmp_output -->
<g id="edge27" class="edge">
<title>icmp_input&#45;&gt;icmp_output</title>
<path fill="none" stroke="black" d="M897.96,-724.17C921.32,-731.72 954.46,-742.43 980.83,-750.96"/>
<polygon fill="black" stroke="black" points="979.64,-754.25 990.23,-753.99 981.79,-747.59 979.64,-754.25"/>
</g>
<!-- icmp_output&#45;&gt;ip_output -->
<g id="edge30" class="edge">
<title>icmp_output&#45;&gt;ip_output</title>
<path fill="none" stroke="black" d="M1059.35,-755.76C1080.66,-750.08 1108.22,-742.73 1130.26,-736.86"/>
<polygon fill="black" stroke="black" points="1131,-740.28 1139.76,-734.32 1129.2,-733.52 1131,-740.28"/>
</g>
<!-- ip_forward&#45;&gt;ip_output -->
<g id="edge31" class="edge">
<title>ip_forward&#45;&gt;ip_output</title>
<path fill="none" stroke="black" d="M755.76,-677.17C818.92,-678.42 960.77,-683.56 1077.99,-704.77 1095.21,-707.88 1114.03,-712.32 1130.01,-716.39"/>
<polygon fill="black" stroke="black" points="1129.05,-719.75 1139.61,-718.88 1130.81,-712.98 1129.05,-719.75"/>
</g>
<!-- ip_error_ttl_exceeded -->
<g id="node27" class="node">
<title>ip_error_ttl_exceeded</title>
<ellipse fill="none" stroke="black" cx="867.85" cy="-768.77" rx="67.31" ry="18"/>
<text text-anchor="middle" x="867.85" y="-765.07" font-family="sans" font-size="11.00">ip_error_ttl_exceeded</text>
</g>
<!-- ip_forward&#45;&gt;ip_error_ttl_exceeded -->
<g id="edge32" class="edge">
<title>ip_forward&#45;&gt;ip_error_ttl_exceeded</title>
<path fill="none" stroke="black" d="M738.53,-692.57C753.53,-706.85 777.14,-727.71 800.54,-741.77 805.35,-744.66 810.52,-747.36 815.77,-749.87"/>
<polygon fill="black" stroke="black" points="813.98,-752.9 824.54,-753.8 816.84,-746.51 813.98,-752.9"/>
</g>
<!-- ip_hold&#45;&gt;control_output -->
<g id="edge33" class="edge">
<title>ip_hold&#45;&gt;control_output</title>
<path fill="none" stroke="black" d="M1507.89,-750.02C1554.74,-743.51 1657.42,-730.77 1744.46,-730.77 1744.46,-730.77 1744.46,-730.77 2184.63,-730.77 2299.72,-730.77 2418.35,-649.47 2471.15,-608.21"/>
<polygon fill="black" stroke="black" points="2473.09,-611.13 2478.75,-602.18 2468.74,-605.65 2473.09,-611.13"/>
</g>
<!-- dnat44_dynamic&#45;&gt;ip_forward -->
<g id="edge80" class="edge">
<title>dnat44_dynamic&#45;&gt;ip_forward</title>
<path fill="none" stroke="black" d="M631.04,-650.38C646.78,-655.01 664.89,-660.35 680.69,-665"/>
<polygon fill="black" stroke="black" points="679.68,-668.35 690.27,-667.82 681.66,-661.64 679.68,-668.35"/>
</g>
<!-- dnat44_dynamic&#45;&gt;ip_input_local -->
<g id="edge81" class="edge">
<title>dnat44_dynamic&#45;&gt;ip_input_local</title>
<path fill="none" stroke="black" d="M621.98,-624.09C628.97,-620.34 636.26,-616.13 642.77,-611.77 660.94,-599.59 679.82,-583.92 694.43,-571.03"/>
<polygon fill="black" stroke="black" points="696.7,-573.7 701.81,-564.42 692.03,-568.48 696.7,-573.7"/>
</g>
<!-- dnat44_dynamic&#45;&gt;ip_error_dest_unreach -->
<g id="edge82" class="edge">
<title>dnat44_dynamic&#45;&gt;ip_error_dest_unreach</title>
<path fill="none" stroke="black" d="M642.59,-636.4C697.83,-634.04 788.57,-630.77 866.85,-630.77 866.85,-630.77 866.85,-630.77 1025.58,-630.77 1101.46,-630.77 1188.01,-628.55 1249.13,-626.61"/>
<polygon fill="black" stroke="black" points="1249.23,-630.11 1259.11,-626.29 1249,-623.11 1249.23,-630.11"/>
</g>
<!-- ip_input_local&#45;&gt;icmp_input -->
<g id="edge40" class="edge">
<title>ip_input_local&#45;&gt;icmp_input</title>
<path fill="none" stroke="black" d="M737.28,-563.8C762.78,-593.51 815.51,-654.95 845.24,-689.59"/>
<polygon fill="black" stroke="black" points="842.47,-691.73 851.64,-697.04 847.78,-687.17 842.47,-691.73"/>
</g>
<!-- ipip_input -->
<g id="node33" class="node">
<title>ipip_input</title>
<ellipse fill="none" stroke="black" cx="867.85" cy="-508.77" rx="31.1" ry="18"/>
<text text-anchor="middle" x="867.85" y="-505.07" font-family="sans" font-size="11.00">ipip_input</text>
</g>
<!-- ip_input_local&#45;&gt;ipip_input -->
<g id="edge41" class="edge">
<title>ip_input_local&#45;&gt;ipip_input</title>
<path fill="none" stroke="black" d="M758.67,-537.28C779.74,-531.73 806.35,-524.71 827.91,-519.03"/>
<polygon fill="black" stroke="black" points="828.74,-522.43 837.52,-516.5 826.96,-515.66 828.74,-522.43"/>
</g>
<!-- l4_input_local -->
<g id="node34" class="node">
<title>l4_input_local</title>
<ellipse fill="none" stroke="black" cx="1895.45" cy="-634.77" rx="42.89" ry="18"/>
<text text-anchor="middle" x="1895.45" y="-631.07" font-family="sans" font-size="11.00">l4_input_local</text>
</g>
<!-- ip_input_local&#45;&gt;l4_input_local -->
<g id="edge42" class="edge">
<title>ip_input_local&#45;&gt;l4_input_local</title>
<path fill="none" stroke="black" d="M764.22,-549.8C870.1,-557.54 1158.62,-578.66 1399.02,-596.77 1560.34,-608.92 1751.17,-623.66 1841.7,-630.68"/>
<polygon fill="black" stroke="black" points="1841.27,-634.15 1851.51,-631.44 1841.81,-627.17 1841.27,-634.15"/>
</g>
<!-- dnat44_static&#45;&gt;ip_forward -->
<g id="edge83" class="edge">
<title>dnat44_static&#45;&gt;ip_forward</title>
<path fill="none" stroke="black" d="M619.84,-598.31C627.47,-602.34 635.6,-606.96 642.77,-611.77 661.43,-624.28 680.82,-640.45 695.59,-653.54"/>
<polygon fill="black" stroke="black" points="693.24,-656.13 703.02,-660.22 697.92,-650.93 693.24,-656.13"/>
</g>
<!-- dnat44_static&#45;&gt;ip_input_local -->
<g id="edge84" class="edge">
<title>dnat44_static&#45;&gt;ip_input_local</title>
<path fill="none" stroke="black" d="M626.54,-574.49C641.46,-570.09 659.07,-564.91 675,-560.21"/>
<polygon fill="black" stroke="black" points="675.65,-563.67 684.26,-557.49 673.68,-556.96 675.65,-563.67"/>
</g>
<!-- dnat44_static&#45;&gt;ip_error_dest_unreach -->
<g id="edge85" class="edge">
<title>dnat44_static&#45;&gt;ip_error_dest_unreach</title>
<path fill="none" stroke="black" d="M634.04,-586.77C688.09,-589.14 784.39,-592.77 866.85,-592.77 866.85,-592.77 866.85,-592.77 1025.58,-592.77 1105.86,-592.77 1197.48,-603.67 1258.77,-612.54"/>
<polygon fill="black" stroke="black" points="1257.95,-615.96 1268.35,-613.95 1258.97,-609.04 1257.95,-615.96"/>
</g>
<!-- ipip_input&#45;&gt;ip_input -->
<g id="edge76" class="edge">
<title>ipip_input&#45;&gt;ip_input</title>
<path fill="none" stroke="black" d="M836.46,-509.45C799.2,-510.54 734.16,-513.26 678.77,-519.77 607.27,-528.17 524.66,-544.32 478.36,-553.96"/>
<polygon fill="black" stroke="black" points="477.68,-550.53 468.61,-556.01 479.12,-557.38 477.68,-550.53"/>
</g>
<!-- l4_loopback_output -->
<g id="node48" class="node">
<title>l4_loopback_output</title>
<ellipse fill="none" stroke="black" cx="2034.91" cy="-634.77" rx="60.57" ry="18"/>
<text text-anchor="middle" x="2034.91" y="-631.07" font-family="sans" font-size="11.00">l4_loopback_output</text>
</g>
<!-- l4_input_local&#45;&gt;l4_loopback_output -->
<g id="edge78" class="edge">
<title>l4_input_local&#45;&gt;l4_loopback_output</title>
<path fill="none" stroke="black" d="M1938.81,-634.77C1946.37,-634.77 1954.43,-634.77 1962.54,-634.77"/>
<polygon fill="black" stroke="black" points="1962.48,-638.27 1972.48,-634.77 1962.48,-631.27 1962.48,-638.27"/>
</g>
<!-- ipip_output&#45;&gt;ip_output -->
<g id="edge77" class="edge">
<title>ipip_output&#45;&gt;ip_output</title>
<path fill="none" stroke="black" d="M1295.3,-732.39C1270.4,-733.78 1236.27,-733.89 1209.92,-732.72"/>
<polygon fill="black" stroke="black" points="1210.12,-729.22 1199.94,-732.17 1209.74,-736.21 1210.12,-729.22"/>
</g>
<!-- sr6_output&#45;&gt;ip6_output -->
<g id="edge90" class="edge">
<title>sr6_output&#45;&gt;ip6_output</title>
<path fill="none" stroke="black" d="M2311.11,-584.86C2284.47,-578.69 2247.03,-567.92 2219.8,-558.63"/>
<polygon fill="black" stroke="black" points="2221.2,-555.42 2210.61,-555.4 2218.88,-562.02 2221.2,-555.42"/>
</g>
<!-- icmp6_input -->
<g id="node37" class="node">
<title>icmp6_input</title>
<ellipse fill="none" stroke="black" cx="1895.45" cy="-134.77" rx="38.68" ry="18"/>
<text text-anchor="middle" x="1895.45" y="-131.07" font-family="sans" font-size="11.00">icmp6_input</text>
</g>
<!-- icmp6_input&#45;&gt;control_output -->
<g id="edge53" class="edge">
<title>icmp6_input&#45;&gt;control_output</title>
<path fill="none" stroke="black" d="M1931.06,-142.43C2023.94,-164.77 2280.87,-238.59 2418.2,-397.77 2459.04,-445.11 2482.21,-516.16 2492.64,-555.65"/>
<polygon fill="black" stroke="black" points="2489.2,-556.31 2495.05,-565.14 2495.98,-554.58 2489.2,-556.31"/>
</g>
<!-- icmp6_input&#45;&gt;icmp6_output -->
<g id="edge49" class="edge">
<title>icmp6_input&#45;&gt;icmp6_output</title>
<path fill="none" stroke="black" d="M1914.42,-150.72C1938.06,-171.7 1979.8,-208.75 2007.16,-233.03"/>
<polygon fill="black" stroke="black" points="2004.56,-235.4 2014.36,-239.42 2009.21,-230.17 2004.56,-235.4"/>
</g>
<!-- ndp_ns_input -->
<g id="node39" class="node">
<title>ndp_ns_input</title>
<ellipse fill="none" stroke="black" cx="2183.63" cy="-134.77" rx="41.62" ry="18"/>
<text text-anchor="middle" x="2183.63" y="-131.07" font-family="sans" font-size="11.00">ndp_ns_input</text>
</g>
<!-- icmp6_input&#45;&gt;ndp_ns_input -->
<g id="edge50" class="edge">
<title>icmp6_input&#45;&gt;ndp_ns_input</title>
<path fill="none" stroke="black" d="M1934.45,-134.77C1984.81,-134.77 2073.86,-134.77 2130.48,-134.77"/>
<polygon fill="black" stroke="black" points="2130.18,-138.27 2140.18,-134.77 2130.18,-131.27 2130.18,-138.27"/>
</g>
<!-- ndp_na_input -->
<g id="node40" class="node">
<title>ndp_na_input</title>
<ellipse fill="none" stroke="black" cx="2034.91" cy="-88.77" rx="42.04" ry="18"/>
<text text-anchor="middle" x="2034.91" y="-85.07" font-family="sans" font-size="11.00">ndp_na_input</text>
</g>
<!-- icmp6_input&#45;&gt;ndp_na_input -->
<g id="edge51" class="edge">
<title>icmp6_input&#45;&gt;ndp_na_input</title>
<path fill="none" stroke="black" d="M1927.64,-124.33C1946.09,-118.16 1969.74,-110.24 1990.04,-103.45"/>
<polygon fill="black" stroke="black" points="1991.11,-106.78 1999.49,-100.29 1988.89,-100.14 1991.11,-106.78"/>
</g>
<!-- ndp_rs_input -->
<g id="node41" class="node">
<title>ndp_rs_input</title>
<ellipse fill="none" stroke="black" cx="2034.91" cy="-34.77" rx="40.36" ry="18"/>
<text text-anchor="middle" x="2034.91" y="-31.07" font-family="sans" font-size="11.00">ndp_rs_input</text>
</g>
<!-- icmp6_input&#45;&gt;ndp_rs_input -->
<g id="edge52" class="edge">
<title>icmp6_input&#45;&gt;ndp_rs_input</title>
<path fill="none" stroke="black" d="M1911.25,-118.02C1926.03,-102.04 1949.99,-78.04 1974.33,-61.77 1980.16,-57.88 1986.63,-54.29 1993.11,-51.09"/>
<polygon fill="black" stroke="black" points="1994.23,-54.43 2001.82,-47.04 1991.28,-48.09 1994.23,-54.43"/>
</g>
<!-- icmp6_output&#45;&gt;ip6_output -->
<g id="edge54" class="edge">
<title>icmp6_output&#45;&gt;ip6_output</title>
<path fill="none" stroke="black" d="M2045.09,-274.66C2069.95,-323.13 2138.74,-457.21 2168.55,-515.32"/>
<polygon fill="black" stroke="black" points="2165.27,-516.61 2172.95,-523.9 2171.5,-513.41 2165.27,-516.61"/>
</g>
<!-- ndp_ns_input&#45;&gt;control_output -->
<g id="edge73" class="edge">
<title>ndp_ns_input&#45;&gt;control_output</title>
<path fill="none" stroke="black" d="M2222.59,-127.81C2274.06,-120.75 2365.56,-117 2418.2,-166.77 2474.83,-220.32 2493.29,-469.23 2498.05,-555.36"/>
<polygon fill="black" stroke="black" points="2494.54,-555.3 2498.56,-565.1 2501.53,-554.93 2494.54,-555.3"/>
</g>
<!-- ndp_na_input&#45;&gt;control_output -->
<g id="edge71" class="edge">
<title>ndp_na_input&#45;&gt;control_output</title>
<path fill="none" stroke="black" d="M2070.88,-79.14C2145.37,-60.97 2320.78,-30.93 2418.2,-119.77 2482.74,-178.63 2496.13,-461.91 2498.81,-555.03"/>
<polygon fill="black" stroke="black" points="2495.31,-554.97 2499.07,-564.87 2502.3,-554.79 2495.31,-554.97"/>
</g>
<!-- ndp_rs_input&#45;&gt;control_output -->
<g id="edge75" class="edge">
<title>ndp_rs_input&#45;&gt;control_output</title>
<path fill="none" stroke="black" d="M2068.95,-24.66C2142.31,-4.46 2320.02,31.68 2418.2,-57.77 2492.1,-125.11 2499.14,-453.97 2499.53,-555.11"/>
<polygon fill="black" stroke="black" points="2496.03,-555.04 2499.55,-565.03 2503.03,-555.02 2496.03,-555.04"/>
</g>
<!-- ip6_forward&#45;&gt;ip6_output -->
<g id="edge56" class="edge">
<title>ip6_forward&#45;&gt;ip6_output</title>
<path fill="none" stroke="black" d="M1628.82,-521.31C1642.2,-526.89 1658.8,-532.85 1674.36,-535.77 1843.5,-567.48 2049.86,-554.94 2138.61,-547.17"/>
<polygon fill="black" stroke="black" points="2138.69,-550.68 2148.33,-546.29 2138.06,-543.71 2138.69,-550.68"/>
</g>
<!-- ip6_error_ttl_exceeded -->
<g id="node43" class="node">
<title>ip6_error_ttl_exceeded</title>
<ellipse fill="none" stroke="black" cx="1745.46" cy="-508.77" rx="71.1" ry="18"/>
<text text-anchor="middle" x="1745.46" y="-505.07" font-family="sans" font-size="11.00">ip6_error_ttl_exceeded</text>
</g>
<!-- ip6_forward&#45;&gt;ip6_error_ttl_exceeded -->
<g id="edge57" class="edge">
<title>ip6_forward&#45;&gt;ip6_error_ttl_exceeded</title>
<path fill="none" stroke="black" d="M1638.65,-508.77C1646.13,-508.77 1654.29,-508.77 1662.64,-508.77"/>
<polygon fill="black" stroke="black" points="1662.6,-512.27 1672.6,-508.77 1662.6,-505.27 1662.6,-512.27"/>
</g>
<!-- ip6_hold&#45;&gt;control_output -->
<g id="edge58" class="edge">
<title>ip6_hold&#45;&gt;control_output</title>
<path fill="none" stroke="black" d="M2369.63,-542.47C2391.9,-549.73 2425.87,-560.8 2453.47,-569.79"/>
<polygon fill="black" stroke="black" points="2452.05,-573.01 2462.65,-572.78 2454.22,-566.35 2452.05,-573.01"/>
</g>
<!-- ip6_input_local&#45;&gt;l4_input_local -->
<g id="edge65" class="edge">
<title>ip6_input_local&#45;&gt;l4_input_local</title>
<path fill="none" stroke="black" d="M1759.32,-396.19C1773.94,-416.32 1798.17,-450.68 1816.56,-481.77 1841.68,-524.22 1866.87,-575.73 1881.54,-606.84"/>
<polygon fill="black" stroke="black" points="1878.22,-608 1885.63,-615.57 1884.56,-605.03 1878.22,-608"/>
</g>
<!-- ip6_input_local&#45;&gt;icmp6_input -->
<g id="edge64" class="edge">
<title>ip6_input_local&#45;&gt;icmp6_input</title>
<path fill="none" stroke="black" d="M1757.1,-361.22C1782.65,-319.1 1847.57,-212.06 1878.1,-161.72"/>
<polygon fill="black" stroke="black" points="1880.92,-163.82 1883.12,-153.45 1874.94,-160.19 1880.92,-163.82"/>
</g>
<!-- sr6_local&#45;&gt;ip_input -->
<g id="edge86" class="edge">
<title>sr6_local&#45;&gt;ip_input</title>
<path fill="none" stroke="black" d="M1572.43,-343.75C1475.94,-353.95 1143.87,-386.77 868.85,-386.77 720.66,-386.77 720.66,-386.77 720.66,-386.77 637.94,-386.77 607.58,-379.33 538.47,-424.77 497.6,-451.64 468.82,-502.33 453.88,-533.95"/>
<polygon fill="black" stroke="black" points="450.77,-532.34 449.8,-542.89 457.14,-535.24 450.77,-532.34"/>
</g>
<!-- sr6_local&#45;&gt;ip6_input -->
<g id="edge87" class="edge">
<title>sr6_local&#45;&gt;ip6_input</title>
<path fill="none" stroke="black" d="M1583.35,-355.37C1566.24,-367.32 1539.04,-383.72 1517.16,-395.54"/>
<polygon fill="black" stroke="black" points="1515.79,-392.31 1508.57,-400.07 1519.05,-398.5 1515.79,-392.31"/>
</g>
<!-- sr6_local&#45;&gt;ip6_input_local -->
<g id="edge88" class="edge">
<title>sr6_local&#45;&gt;ip6_input_local</title>
<path fill="none" stroke="black" d="M1627.76,-347.65C1646.57,-352.67 1672.65,-359.62 1695.38,-365.68"/>
<polygon fill="black" stroke="black" points="1694.2,-368.99 1704.76,-368.19 1696,-362.23 1694.2,-368.99"/>
</g>
<!-- sr6_local&#45;&gt;ip6_error_dest_unreach -->
<g id="edge89" class="edge">
<title>sr6_local&#45;&gt;ip6_error_dest_unreach</title>
<path fill="none" stroke="black" d="M1629.78,-341.43C1670.76,-342.57 1749.71,-345.44 1816.56,-351.77 1980.28,-367.27 2171.15,-396.48 2272.38,-412.86"/>
<polygon fill="black" stroke="black" points="2271.75,-416.3 2282.18,-414.45 2272.87,-409.39 2271.75,-416.3"/>
</g>
<!-- l4_loopback_output&#45;&gt;loopback_output -->
<g id="edge79" class="edge">
<title>l4_loopback_output&#45;&gt;loopback_output</title>
<path fill="none" stroke="black" d="M2095.59,-634.77C2103.48,-634.77 2111.58,-634.77 2119.53,-634.77"/>
<polygon fill="black" stroke="black" points="2119.49,-638.27 2129.49,-634.77 2119.49,-631.27 2119.49,-638.27"/>
</g>
</g>
</svg>
