<?xml version="1.0" encoding="UTF-8" standalone="no"?>
<!DOCTYPE svg PUBLIC "-//W3C//DTD SVG 1.1//EN"
 "http://www.w3.org/Graphics/SVG/1.1/DTD/svg11.dtd">
<!-- Generated by graphviz version 9.0.0 (20230911.1827)
 -->
<!-- Title: br&#45;0003 Pages: 1 -->
<svg width="1741pt" height="610pt"
 viewBox="0.00 0.00 1741.27 610.41" xmlns="http://www.w3.org/2000/svg" xmlns:xlink="http://www.w3.org/1999/xlink">
<g id="graph0" class="graph" transform="scale(1 1) rotate(0) translate(4 606.41)">
<title>br&#45;0003</title>
<polygon fill="white" stroke="none" points="-4,4 -4,-606.41 1737.27,-606.41 1737.27,4 -4,4"/>
<!-- eth_input -->
<g id="node1" class="node">
<title>eth_input</title>
<ellipse fill="none" stroke="black" cx="120.25" cy="-406.41" rx="30.25" ry="18"/>
<text text-anchor="middle" x="120.25" y="-402.71" font-family="sans" font-size="11.00">eth_input</text>
</g>
<!-- eth_input_unknown_type -->
<g id="node2" class="node">
<title>eth_input_unknown_type</title>
<ellipse fill="none" stroke="darkorange" cx="263.92" cy="-483.41" rx="77.42" ry="18"/>
<text text-anchor="middle" x="263.92" y="-479.71" font-family="sans" font-size="11.00">eth_input_unknown_type</text>
</g>
<!-- eth_input&#45;&gt;eth_input_unknown_type -->
<g id="edge1" class="edge">
<title>eth_input&#45;&gt;eth_input_unknown_type</title>
<path fill="none" stroke="black" d="M137.68,-421.35C150.31,-432.22 168.56,-446.68 186.51,-456.41 192.21,-459.5 198.34,-462.36 204.56,-464.96"/>
<polygon fill="black" stroke="black" points="203.05,-468.13 213.64,-468.54 205.62,-461.62 203.05,-468.13"/>
</g>
<!-- eth_input_unknown_vlan -->
<g id="node3" class="node">
<title>eth_input_unknown_vlan</title>
<ellipse fill="none" stroke="darkorange" cx="263.92" cy="-429.41" rx="76.58" ry="18"/>
<text text-anchor="middle" x="263.92" y="-425.71" font-family="sans" font-size="11.00">eth_input_unknown_vlan</text>
</g>
<!-- eth_input&#45;&gt;eth_input_unknown_vlan -->
<g id="edge2" class="edge">
<title>eth_input&#45;&gt;eth_input_unknown_vlan</title>
<path fill="none" stroke="black" d="M149.92,-411.06C161.28,-412.91 174.91,-415.12 188.71,-417.36"/>
<polygon fill="black" stroke="black" points="187.85,-420.77 198.28,-418.92 188.97,-413.86 187.85,-420.77"/>
</g>
<!-- arp_input -->
<g id="node4" class="node">
<title>arp_input</title>
<ellipse fill="none" stroke="black" cx="858.33" cy="-403.41" rx="30.25" ry="18"/>
<text text-anchor="middle" x="858.33" y="-399.71" font-family="sans" font-size="11.00">arp_input</text>
</g>
<!-- eth_input&#45;&gt;arp_input -->
<g id="edge3" class="edge">
<title>eth_input&#45;&gt;arp_input</title>
<path fill="none" stroke="black" d="M150.47,-404.24C161.73,-403.5 174.71,-402.77 186.51,-402.41 255.29,-400.3 272.53,-402.34 341.34,-402.41 518.02,-402.58 728.72,-403.08 816.16,-403.3"/>
<polygon fill="black" stroke="black" points="816.14,-406.8 826.15,-403.33 816.16,-399.8 816.14,-406.8"/>
</g>
<!-- ip_input -->
<g id="node5" class="node">
<title>ip_input</title>
<ellipse fill="none" stroke="black" cx="263.92" cy="-152.41" rx="27" ry="18"/>
<text text-anchor="middle" x="263.92" y="-148.71" font-family="sans" font-size="11.00">ip_input</text>
</g>
<!-- eth_input&#45;&gt;ip_input -->
<g id="edge4" class="edge">
<title>eth_input&#45;&gt;ip_input</title>
<path fill="none" stroke="black" d="M130.77,-389.35C154.91,-346.06 218.71,-231.68 247.93,-179.3"/>
<polygon fill="black" stroke="black" points="250.9,-181.16 252.71,-170.72 244.78,-177.75 250.9,-181.16"/>
</g>
<!-- arp_output_reply -->
<g id="node11" class="node">
<title>arp_output_reply</title>
<ellipse fill="none" stroke="black" cx="1045.8" cy="-584.41" rx="53.41" ry="18"/>
<text text-anchor="middle" x="1045.8" y="-580.71" font-family="sans" font-size="11.00">arp_output_reply</text>
</g>
<!-- arp_input&#45;&gt;arp_output_reply -->
<g id="edge9" class="edge">
<title>arp_input&#45;&gt;arp_output_reply</title>
<path fill="none" stroke="black" d="M867.53,-420.8C883.25,-452.38 920.59,-519.39 970.91,-557.41 977.2,-562.17 984.42,-566.15 991.82,-569.47"/>
<polygon fill="black" stroke="black" points="990.35,-572.65 1000.93,-573.16 992.98,-566.16 990.35,-572.65"/>
</g>
<!-- arp_input_reply -->
<g id="node12" class="node">
<title>arp_input_reply</title>
<ellipse fill="none" stroke="darkorange" cx="1045.8" cy="-530.41" rx="48.78" ry="18"/>
<text text-anchor="middle" x="1045.8" y="-526.71" font-family="sans" font-size="11.00">arp_input_reply</text>
</g>
<!-- arp_input&#45;&gt;arp_input_reply -->
<g id="edge10" class="edge">
<title>arp_input&#45;&gt;arp_input_reply</title>
<path fill="none" stroke="black" d="M873.37,-419.33C893.2,-440.98 931.43,-479.72 970.91,-503.41 978.56,-508.01 987.13,-512.02 995.64,-515.44"/>
<polygon fill="black" stroke="black" points="994.31,-518.68 1004.9,-518.93 996.78,-512.13 994.31,-518.68"/>
</g>
<!-- arp_input_op_unsupp -->
<g id="node13" class="node">
<title>arp_input_op_unsupp</title>
<ellipse fill="none" stroke="darkorange" cx="1045.8" cy="-476.41" rx="66.05" ry="18"/>
<text text-anchor="middle" x="1045.8" y="-472.71" font-family="sans" font-size="11.00">arp_input_op_unsupp</text>
</g>
<!-- arp_input&#45;&gt;arp_input_op_unsupp -->
<g id="edge11" class="edge">
<title>arp_input&#45;&gt;arp_input_op_unsupp</title>
<path fill="none" stroke="black" d="M883.59,-413.75C906.12,-423.26 940.63,-437.65 970.91,-449.41 978.26,-452.27 986.06,-455.21 993.73,-458.06"/>
<polygon fill="black" stroke="black" points="992.4,-461.3 1003,-461.47 994.82,-454.73 992.4,-461.3"/>
</g>
<!-- arp_input_proto_unsupp -->
<g id="node14" class="node">
<title>arp_input_proto_unsupp</title>
<ellipse fill="none" stroke="darkorange" cx="1045.8" cy="-422.41" rx="74.89" ry="18"/>
<text text-anchor="middle" x="1045.8" y="-418.71" font-family="sans" font-size="11.00">arp_input_proto_unsupp</text>
</g>
<!-- arp_input&#45;&gt;arp_input_proto_unsupp -->
<g id="edge12" class="edge">
<title>arp_input&#45;&gt;arp_input_proto_unsupp</title>
<path fill="none" stroke="black" d="M888.31,-406.38C908.99,-408.5 937.88,-411.46 965.21,-414.26"/>
<polygon fill="black" stroke="black" points="964.58,-417.71 974.89,-415.25 965.3,-410.75 964.58,-417.71"/>
</g>
<!-- arp_input_error -->
<g id="node15" class="node">
<title>arp_input_error</title>
<ellipse fill="none" stroke="darkorange" cx="1045.8" cy="-368.41" rx="48.36" ry="18"/>
<text text-anchor="middle" x="1045.8" y="-364.71" font-family="sans" font-size="11.00">arp_input_error</text>
</g>
<!-- arp_input&#45;&gt;arp_input_error -->
<g id="edge13" class="edge">
<title>arp_input&#45;&gt;arp_input_error</title>
<path fill="none" stroke="black" d="M887.5,-398.09C914.9,-392.92 957.24,-384.93 991.09,-378.54"/>
<polygon fill="black" stroke="black" points="991.55,-382.02 1000.72,-376.73 990.25,-375.14 991.55,-382.02"/>
</g>
<!-- arp_input_drop -->
<g id="node16" class="node">
<title>arp_input_drop</title>
<ellipse fill="none" stroke="darkorange" cx="1045.8" cy="-314.41" rx="47.1" ry="18"/>
<text text-anchor="middle" x="1045.8" y="-310.71" font-family="sans" font-size="11.00">arp_input_drop</text>
</g>
<!-- arp_input&#45;&gt;arp_input_drop -->
<g id="edge14" class="edge">
<title>arp_input&#45;&gt;arp_input_drop</title>
<path fill="none" stroke="black" d="M880.21,-390.51C902.25,-377.2 938.25,-356.34 970.91,-341.41 979.74,-337.37 989.38,-333.49 998.68,-329.99"/>
<polygon fill="black" stroke="black" points="999.78,-333.32 1007.96,-326.6 997.37,-326.75 999.78,-333.32"/>
</g>
<!-- ip_output -->
<g id="node17" class="node">
<title>ip_output</title>
<ellipse fill="none" stroke="black" cx="1045.8" cy="-260.41" rx="30.25" ry="18"/>
<text text-anchor="middle" x="1045.8" y="-256.71" font-family="sans" font-size="11.00">ip_output</text>
</g>
<!-- arp_input&#45;&gt;ip_output -->
<g id="edge15" class="edge">
<title>arp_input&#45;&gt;ip_output</title>
<path fill="none" stroke="black" d="M873.79,-387.6C901.33,-357.61 959.55,-294.81 970.91,-287.41 981.77,-280.33 994.74,-274.79 1006.75,-270.62"/>
<polygon fill="black" stroke="black" points="1007.56,-274.04 1016,-267.63 1005.4,-267.38 1007.56,-274.04"/>
</g>
<!-- ip_forward -->
<g id="node26" class="node">
<title>ip_forward</title>
<ellipse fill="none" stroke="black" cx="450.97" cy="-260.41" rx="33.62" ry="18"/>
<text text-anchor="middle" x="450.97" y="-256.71" font-family="sans" font-size="11.00">ip_forward</text>
</g>
<!-- ip_input&#45;&gt;ip_forward -->
<g id="edge27" class="edge">
<title>ip_input&#45;&gt;ip_forward</title>
<path fill="none" stroke="black" d="M281.5,-166.56C302.64,-184.06 340.84,-213.93 377.34,-233.41 387.76,-238.97 399.56,-243.89 410.59,-247.95"/>
<polygon fill="black" stroke="black" points="409.25,-251.19 419.84,-251.22 411.58,-244.59 409.25,-251.19"/>
</g>
<!-- ip_input_local -->
<g id="node28" class="node">
<title>ip_input_local</title>
<ellipse fill="none" stroke="black" cx="450.97" cy="-206.41" rx="42.89" ry="18"/>
<text text-anchor="middle" x="450.97" y="-202.71" font-family="sans" font-size="11.00">ip_input_local</text>
</g>
<!-- ip_input&#45;&gt;ip_input_local -->
<g id="edge28" class="edge">
<title>ip_input&#45;&gt;ip_input_local</title>
<path fill="none" stroke="black" d="M289.12,-159.47C318.24,-167.97 367.76,-182.42 404.18,-193.05"/>
<polygon fill="black" stroke="black" points="402.99,-196.35 413.58,-195.79 404.96,-189.63 402.99,-196.35"/>
</g>
<!-- ip_input_no_route -->
<g id="node29" class="node">
<title>ip_input_no_route</title>
<ellipse fill="none" stroke="darkorange" cx="450.97" cy="-152.41" rx="55.52" ry="18"/>
<text text-anchor="middle" x="450.97" y="-148.71" font-family="sans" font-size="11.00">ip_input_no_route</text>
</g>
<!-- ip_input&#45;&gt;ip_input_no_route -->
<g id="edge29" class="edge">
<title>ip_input&#45;&gt;ip_input_no_route</title>
<path fill="none" stroke="black" d="M291.04,-152.41C315.11,-152.41 351.83,-152.41 383.92,-152.41"/>
<polygon fill="black" stroke="black" points="383.53,-155.91 393.53,-152.41 383.53,-148.91 383.53,-155.91"/>
</g>
<!-- ip_input_bad_checksum -->
<g id="node30" class="node">
<title>ip_input_bad_checksum</title>
<ellipse fill="none" stroke="darkorange" cx="450.97" cy="-98.41" rx="73.63" ry="18"/>
<text text-anchor="middle" x="450.97" y="-94.71" font-family="sans" font-size="11.00">ip_input_bad_checksum</text>
</g>
<!-- ip_input&#45;&gt;ip_input_bad_checksum -->
<g id="edge30" class="edge">
<title>ip_input&#45;&gt;ip_input_bad_checksum</title>
<path fill="none" stroke="black" d="M289.12,-145.35C314.93,-137.82 356.77,-125.61 391.31,-115.53"/>
<polygon fill="black" stroke="black" points="392.17,-118.92 400.79,-112.76 390.21,-112.2 392.17,-118.92"/>
</g>
<!-- ip_input_bad_length -->
<g id="node31" class="node">
<title>ip_input_bad_length</title>
<ellipse fill="none" stroke="darkorange" cx="450.97" cy="-44.41" rx="62.26" ry="18"/>
<text text-anchor="middle" x="450.97" y="-40.71" font-family="sans" font-size="11.00">ip_input_bad_length</text>
</g>
<!-- ip_input&#45;&gt;ip_input_bad_length -->
<g id="edge31" class="edge">
<title>ip_input&#45;&gt;ip_input_bad_length</title>
<path fill="none" stroke="black" d="M281.5,-138.26C302.64,-120.76 340.84,-90.89 377.34,-71.41 383.8,-67.96 390.8,-64.76 397.81,-61.86"/>
<polygon fill="black" stroke="black" points="398.61,-65.3 406.62,-58.38 396.04,-58.79 398.61,-65.3"/>
</g>
<!-- eth_output -->
<g id="node6" class="node">
<title>eth_output</title>
<ellipse fill="none" stroke="black" cx="1404.31" cy="-422.41" rx="34.89" ry="18"/>
<text text-anchor="middle" x="1404.31" y="-418.71" font-family="sans" font-size="11.00">eth_output</text>
</g>
<!-- port_tx -->
<g id="node7" class="node">
<title>port_tx</title>
<ellipse fill="none" stroke="black" cx="1561.45" cy="-449.41" rx="27" ry="18"/>
<text text-anchor="middle" x="1561.45" y="-445.71" font-family="sans" font-size="11.00">port_tx</text>
</g>
<!-- eth_output&#45;&gt;port_tx -->
<g id="edge5" class="edge">
<title>eth_output&#45;&gt;port_tx</title>
<path fill="none" stroke="black" d="M1437.83,-428.07C1462.95,-432.44 1497.71,-438.49 1523.81,-443.03"/>
<polygon fill="black" stroke="black" points="1523.19,-446.48 1533.64,-444.74 1524.39,-439.58 1523.19,-446.48"/>
</g>
<!-- eth_output_inval -->
<g id="node8" class="node">
<title>eth_output_inval</title>
<ellipse fill="none" stroke="darkorange" cx="1561.45" cy="-395.41" rx="52.57" ry="18"/>
<text text-anchor="middle" x="1561.45" y="-391.71" font-family="sans" font-size="11.00">eth_output_inval</text>
</g>
<!-- eth_output&#45;&gt;eth_output_inval -->
<g id="edge6" class="edge">
<title>eth_output&#45;&gt;eth_output_inval</title>
<path fill="none" stroke="black" d="M1437.83,-416.75C1456.6,-413.48 1480.74,-409.28 1502.64,-405.47"/>
<polygon fill="black" stroke="black" points="1503.1,-408.94 1512.35,-403.78 1501.9,-402.05 1503.1,-408.94"/>
</g>
<!-- port_tx_error -->
<g id="node10" class="node">
<title>port_tx_error</title>
<ellipse fill="none" stroke="darkorange" cx="1691.65" cy="-449.41" rx="41.62" ry="18"/>
<text text-anchor="middle" x="1691.65" y="-445.71" font-family="sans" font-size="11.00">port_tx_error</text>
</g>
<!-- port_tx&#45;&gt;port_tx_error -->
<g id="edge8" class="edge">
<title>port_tx&#45;&gt;port_tx_error</title>
<path fill="none" stroke="black" d="M1588.7,-449.41C1603.07,-449.41 1621.38,-449.41 1638.51,-449.41"/>
<polygon fill="black" stroke="black" points="1638.03,-452.91 1648.03,-449.41 1638.03,-445.91 1638.03,-452.91"/>
</g>
<!-- port_rx -->
<g id="node9" class="node">
<title>port_rx</title>
<ellipse fill="none" stroke="blue" stroke-width="2" cx="27" cy="-406.41" rx="27" ry="18"/>
<text text-anchor="middle" x="27" y="-402.71" font-family="sans" font-size="11.00">port_rx</text>
</g>
<!-- port_rx&#45;&gt;eth_input -->
<g id="edge7" class="edge">
<title>port_rx&#45;&gt;eth_input</title>
<path fill="none" stroke="blue" stroke-width="2" d="M54.39,-406.41C61.91,-406.41 70.27,-406.41 78.43,-406.41"/>
<polygon fill="blue" stroke="blue" stroke-width="2" points="76.69,-409.91 86.69,-406.41 76.69,-402.91 76.69,-409.91"/>
</g>
<!-- arp_output_reply&#45;&gt;eth_output -->
<g id="edge16" class="edge">
<title>arp_output_reply&#45;&gt;eth_output</title>
<path fill="none" stroke="black" d="M1094.46,-592.18C1147.98,-598.45 1235.72,-601.17 1299.73,-565.41 1345.61,-539.78 1376.49,-484.34 1391.89,-450.52"/>
<polygon fill="black" stroke="black" points="1394.92,-452.31 1395.73,-441.75 1388.51,-449.5 1394.92,-452.31"/>
</g>
<!-- arp_output_reply_error -->
<g id="node18" class="node">
<title>arp_output_reply_error</title>
<ellipse fill="none" stroke="darkorange" cx="1228.21" cy="-538.41" rx="71.52" ry="18"/>
<text text-anchor="middle" x="1228.21" y="-534.71" font-family="sans" font-size="11.00">arp_output_reply_error</text>
</g>
<!-- arp_output_reply&#45;&gt;arp_output_reply_error -->
<g id="edge17" class="edge">
<title>arp_output_reply&#45;&gt;arp_output_reply_error</title>
<path fill="none" stroke="black" d="M1089.1,-573.63C1111.96,-567.8 1140.6,-560.49 1165.87,-554.05"/>
<polygon fill="black" stroke="black" points="1166.55,-557.49 1175.37,-551.63 1164.82,-550.71 1166.55,-557.49"/>
</g>
<!-- ip_output&#45;&gt;eth_output -->
<g id="edge35" class="edge">
<title>ip_output&#45;&gt;eth_output</title>
<path fill="none" stroke="black" d="M1075.33,-264.68C1090.61,-268.34 1108.69,-275.07 1120.69,-287.41 1155.95,-323.69 1117.31,-363.63 1156.69,-395.41 1214.46,-442.03 1306.22,-438.12 1360.03,-430.58"/>
<polygon fill="black" stroke="black" points="1360.37,-434.07 1369.73,-429.11 1359.32,-427.15 1360.37,-434.07"/>
</g>
<!-- arp_output_request -->
<g id="node19" class="node">
<title>arp_output_request</title>
<ellipse fill="none" stroke="black" cx="1228.21" cy="-368.41" rx="61.42" ry="18"/>
<text text-anchor="middle" x="1228.21" y="-364.71" font-family="sans" font-size="11.00">arp_output_request</text>
</g>
<!-- ip_output&#45;&gt;arp_output_request -->
<g id="edge38" class="edge">
<title>ip_output&#45;&gt;arp_output_request</title>
<path fill="none" stroke="black" d="M1074.86,-266.19C1089.62,-270.28 1107.38,-276.94 1120.69,-287.41 1143.36,-305.24 1134.15,-323.4 1156.69,-341.41 1161.42,-345.2 1166.75,-348.49 1172.3,-351.36"/>
<polygon fill="black" stroke="black" points="1170.53,-354.4 1181.08,-355.42 1173.47,-348.04 1170.53,-354.4"/>
</g>
<!-- ip_output_no_route -->
<g id="node34" class="node">
<title>ip_output_no_route</title>
<ellipse fill="none" stroke="darkorange" cx="1228.21" cy="-314.41" rx="60.15" ry="18"/>
<text text-anchor="middle" x="1228.21" y="-310.71" font-family="sans" font-size="11.00">ip_output_no_route</text>
</g>
<!-- ip_output&#45;&gt;ip_output_no_route -->
<g id="edge36" class="edge">
<title>ip_output&#45;&gt;ip_output_no_route</title>
<path fill="none" stroke="black" d="M1073.42,-268.38C1099.75,-276.26 1140.78,-288.54 1173.85,-298.44"/>
<polygon fill="black" stroke="black" points="1172.69,-301.74 1183.27,-301.26 1174.7,-295.04 1172.69,-301.74"/>
</g>
<!-- ip_output_error -->
<g id="node35" class="node">
<title>ip_output_error</title>
<ellipse fill="none" stroke="darkorange" cx="1228.21" cy="-260.41" rx="48.36" ry="18"/>
<text text-anchor="middle" x="1228.21" y="-256.71" font-family="sans" font-size="11.00">ip_output_error</text>
</g>
<!-- ip_output&#45;&gt;ip_output_error -->
<g id="edge37" class="edge">
<title>ip_output&#45;&gt;ip_output_error</title>
<path fill="none" stroke="black" d="M1076.18,-260.41C1100.97,-260.41 1137.24,-260.41 1168.01,-260.41"/>
<polygon fill="black" stroke="black" points="1167.99,-263.91 1177.99,-260.41 1167.99,-256.91 1167.99,-263.91"/>
</g>
<!-- ipip_output -->
<g id="node36" class="node">
<title>ipip_output</title>
<ellipse fill="none" stroke="black" cx="1228.21" cy="-206.41" rx="35.73" ry="18"/>
<text text-anchor="middle" x="1228.21" y="-202.71" font-family="sans" font-size="11.00">ipip_output</text>
</g>
<!-- ip_output&#45;&gt;ipip_output -->
<g id="edge39" class="edge">
<title>ip_output&#45;&gt;ipip_output</title>
<path fill="none" stroke="black" d="M1069.65,-248.9C1097.88,-238.19 1146.57,-223.2 1182.37,-213.91"/>
<polygon fill="black" stroke="black" points="1183.19,-217.31 1192.03,-211.47 1181.48,-210.52 1183.19,-217.31"/>
</g>
<!-- arp_output_request&#45;&gt;eth_output -->
<g id="edge18" class="edge">
<title>arp_output_request&#45;&gt;eth_output</title>
<path fill="none" stroke="black" d="M1271.35,-381.48C1299.21,-390.12 1335.53,-401.39 1363,-409.91"/>
<polygon fill="black" stroke="black" points="1361.78,-413.19 1372.37,-412.81 1363.85,-406.51 1361.78,-413.19"/>
</g>
<!-- arp_queue_full -->
<g id="node20" class="node">
<title>arp_queue_full</title>
<ellipse fill="none" stroke="darkorange" cx="1404.31" cy="-368.41" rx="45.83" ry="18"/>
<text text-anchor="middle" x="1404.31" y="-364.71" font-family="sans" font-size="11.00">arp_queue_full</text>
</g>
<!-- arp_output_request&#45;&gt;arp_queue_full -->
<g id="edge19" class="edge">
<title>arp_output_request&#45;&gt;arp_queue_full</title>
<path fill="none" stroke="black" d="M1290.1,-368.41C1308.53,-368.41 1328.68,-368.41 1346.8,-368.41"/>
<polygon fill="black" stroke="black" points="1346.58,-371.91 1356.58,-368.41 1346.58,-364.91 1346.58,-371.91"/>
</g>
<!-- arp_output_error -->
<g id="node21" class="node">
<title>arp_output_error</title>
<ellipse fill="none" stroke="darkorange" cx="1404.31" cy="-314.41" rx="52.99" ry="18"/>
<text text-anchor="middle" x="1404.31" y="-310.71" font-family="sans" font-size="11.00">arp_output_error</text>
</g>
<!-- arp_output_request&#45;&gt;arp_output_error -->
<g id="edge20" class="edge">
<title>arp_output_request&#45;&gt;arp_output_error</title>
<path fill="none" stroke="black" d="M1271.35,-355.34C1296.1,-347.66 1327.51,-337.92 1353.47,-329.87"/>
<polygon fill="black" stroke="black" points="1354.27,-333.28 1362.79,-326.98 1352.2,-326.6 1354.27,-333.28"/>
</g>
<!-- icmp_input -->
<g id="node22" class="node">
<title>icmp_input</title>
<ellipse fill="none" stroke="black" cx="653.18" cy="-206.41" rx="34.89" ry="18"/>
<text text-anchor="middle" x="653.18" y="-202.71" font-family="sans" font-size="11.00">icmp_input</text>
</g>
<!-- icmp_output -->
<g id="node23" class="node">
<title>icmp_output</title>
<ellipse fill="none" stroke="black" cx="858.33" cy="-260.41" rx="39.52" ry="18"/>
<text text-anchor="middle" x="858.33" y="-256.71" font-family="sans" font-size="11.00">icmp_output</text>
</g>
<!-- icmp_input&#45;&gt;icmp_output -->
<g id="edge21" class="edge">
<title>icmp_input&#45;&gt;icmp_output</title>
<path fill="none" stroke="black" d="M684.59,-214.49C718.54,-223.52 773.81,-238.21 812.67,-248.54"/>
<polygon fill="black" stroke="black" points="811.63,-251.88 822.19,-251.07 813.43,-245.12 811.63,-251.88"/>
</g>
<!-- icmp_input_invalid -->
<g id="node24" class="node">
<title>icmp_input_invalid</title>
<ellipse fill="none" stroke="darkorange" cx="858.33" cy="-206.41" rx="58.05" ry="18"/>
<text text-anchor="middle" x="858.33" y="-202.71" font-family="sans" font-size="11.00">icmp_input_invalid</text>
</g>
<!-- icmp_input&#45;&gt;icmp_input_invalid -->
<g id="edge22" class="edge">
<title>icmp_input&#45;&gt;icmp_input_invalid</title>
<path fill="none" stroke="black" d="M688.18,-206.41C715.58,-206.41 754.99,-206.41 788.87,-206.41"/>
<polygon fill="black" stroke="black" points="788.61,-209.91 798.61,-206.41 788.61,-202.91 788.61,-209.91"/>
</g>
<!-- icmp_input_unsupported -->
<g id="node25" class="node">
<title>icmp_input_unsupported</title>
<ellipse fill="none" stroke="darkorange" cx="858.33" cy="-152.41" rx="76.58" ry="18"/>
<text text-anchor="middle" x="858.33" y="-148.71" font-family="sans" font-size="11.00">icmp_input_unsupported</text>
</g>
<!-- icmp_input&#45;&gt;icmp_input_unsupported -->
<g id="edge23" class="edge">
<title>icmp_input&#45;&gt;icmp_input_unsupported</title>
<path fill="none" stroke="black" d="M684.59,-198.33C713.68,-190.59 758.42,-178.7 795.08,-168.96"/>
<polygon fill="black" stroke="black" points="795.94,-172.35 804.71,-166.4 794.14,-165.58 795.94,-172.35"/>
</g>
<!-- icmp_output&#45;&gt;ip_output -->
<g id="edge24" class="edge">
<title>icmp_output&#45;&gt;ip_output</title>
<path fill="none" stroke="black" d="M898.21,-260.41C929.1,-260.41 972.2,-260.41 1003.67,-260.41"/>
<polygon fill="black" stroke="black" points="1003.59,-263.91 1013.59,-260.41 1003.59,-256.91 1003.59,-263.91"/>
</g>
<!-- ip_forward&#45;&gt;ip_output -->
<g id="edge25" class="edge">
<title>ip_forward&#45;&gt;ip_output</title>
<path fill="none" stroke="black" d="M480.2,-269.44C501.92,-275.89 532.82,-284.01 560.6,-287.41 725.72,-307.62 769.75,-307.4 934.91,-287.41 959.42,-284.44 986.36,-277.88 1007.43,-271.96"/>
<polygon fill="black" stroke="black" points="1008.39,-275.33 1017.03,-269.19 1006.45,-268.61 1008.39,-275.33"/>
</g>
<!-- ip_forward_ttl_exceeded -->
<g id="node27" class="node">
<title>ip_forward_ttl_exceeded</title>
<ellipse fill="none" stroke="darkorange" cx="653.18" cy="-260.41" rx="75.73" ry="18"/>
<text text-anchor="middle" x="653.18" y="-256.71" font-family="sans" font-size="11.00">ip_forward_ttl_exceeded</text>
</g>
<!-- ip_forward&#45;&gt;ip_forward_ttl_exceeded -->
<g id="edge26" class="edge">
<title>ip_forward&#45;&gt;ip_forward_ttl_exceeded</title>
<path fill="none" stroke="black" d="M485.03,-260.41C507.09,-260.41 537.19,-260.41 565.77,-260.41"/>
<polygon fill="black" stroke="black" points="565.54,-263.91 575.54,-260.41 565.54,-256.91 565.54,-263.91"/>
</g>
<!-- ip_input_local&#45;&gt;icmp_input -->
<g id="edge33" class="edge">
<title>ip_input_local&#45;&gt;icmp_input</title>
<path fill="none" stroke="black" d="M493.94,-206.41C526.86,-206.41 572.63,-206.41 606.47,-206.41"/>
<polygon fill="black" stroke="black" points="606.4,-209.91 616.4,-206.41 606.4,-202.91 606.4,-209.91"/>
</g>
<!-- ip_input_local_unknown_proto -->
<g id="node32" class="node">
<title>ip_input_local_unknown_proto</title>
<ellipse fill="none" stroke="darkorange" cx="653.18" cy="-152.41" rx="92.58" ry="18"/>
<text text-anchor="middle" x="653.18" y="-148.71" font-family="sans" font-size="11.00">ip_input_local_unknown_proto</text>
</g>
<!-- ip_input_local&#45;&gt;ip_input_local_unknown_proto -->
<g id="edge32" class="edge">
<title>ip_input_local&#45;&gt;ip_input_local_unknown_proto</title>
<path fill="none" stroke="black" d="M487.76,-196.76C515.15,-189.37 553.67,-178.98 586.54,-170.11"/>
<polygon fill="black" stroke="black" points="587.24,-173.55 595.98,-167.57 585.42,-166.79 587.24,-173.55"/>
</g>
<!-- ipip_input -->
<g id="node33" class="node">
<title>ipip_input</title>
<ellipse fill="none" stroke="black" cx="653.18" cy="-48.41" rx="31.1" ry="18"/>
<text text-anchor="middle" x="653.18" y="-44.71" font-family="sans" font-size="11.00">ipip_input</text>
</g>
<!-- ip_input_local&#45;&gt;ipip_input -->
<g id="edge34" class="edge">
<title>ip_input_local&#45;&gt;ipip_input</title>
<path fill="none" stroke="black" d="M489,-197.6C501.19,-193.46 514.26,-187.59 524.6,-179.41 547.22,-161.51 541.37,-146.91 560.6,-125.41 579.55,-104.22 604.42,-83.68 623.46,-69.15"/>
<polygon fill="black" stroke="black" points="625.44,-72.03 631.34,-63.23 621.24,-66.44 625.44,-72.03"/>
</g>
<!-- ipip_input&#45;&gt;ip_input -->
<g id="edge40" class="edge">
<title>ipip_input&#45;&gt;ip_input</title>
<path fill="none" stroke="black" d="M628.01,-37.52C578.39,-16.86 462.56,22.52 377.34,-17.41 329.99,-39.6 295.64,-92.62 278.12,-125.22"/>
<polygon fill="black" stroke="black" points="275.23,-123.19 273.72,-133.68 281.44,-126.42 275.23,-123.19"/>
</g>
<!-- ipip_input_no_tunnel -->
<g id="node37" class="node">
<title>ipip_input_no_tunnel</title>
<ellipse fill="none" stroke="darkorange" cx="858.33" cy="-48.41" rx="63.94" ry="18"/>
<text text-anchor="middle" x="858.33" y="-44.71" font-family="sans" font-size="11.00">ipip_input_no_tunnel</text>
</g>
<!-- ipip_input&#45;&gt;ipip_input_no_tunnel -->
<g id="edge41" class="edge">
<title>ipip_input&#45;&gt;ipip_input_no_tunnel</title>
<path fill="none" stroke="black" d="M684.59,-48.41C710.45,-48.41 748.67,-48.41 782.58,-48.41"/>
<polygon fill="black" stroke="black" points="782.39,-51.91 792.39,-48.41 782.39,-44.91 782.39,-51.91"/>
</g>
<!-- ipip_output&#45;&gt;ip_output -->
<g id="edge42" class="edge">
<title>ipip_output&#45;&gt;ip_output</title>
<path fill="none" stroke="black" d="M1201.79,-218.89C1171.85,-230.04 1121.73,-245.32 1086.61,-254.2"/>
<polygon fill="black" stroke="black" points="1086.14,-250.72 1077.25,-256.49 1087.8,-257.52 1086.14,-250.72"/>
</g>
<!-- ipip_output_no_tunnel -->
<g id="node38" class="node">
<title>ipip_output_no_tunnel</title>
<ellipse fill="none" stroke="darkorange" cx="1404.31" cy="-206.41" rx="68.57" ry="18"/>
<text text-anchor="middle" x="1404.31" y="-202.71" font-family="sans" font-size="11.00">ipip_output_no_tunnel</text>
</g>
<!-- ipip_output&#45;&gt;ipip_output_no_tunnel -->
<g id="edge43" class="edge">
<title>ipip_output&#45;&gt;ipip_output_no_tunnel</title>
<path fill="none" stroke="black" d="M1264.02,-206.41C1281.35,-206.41 1303.06,-206.41 1324.15,-206.41"/>
<polygon fill="black" stroke="black" points="1323.91,-209.91 1333.91,-206.41 1323.91,-202.91 1323.91,-209.91"/>
</g>
</g>
</svg>
