<?xml version="1.0" encoding="UTF-8" standalone="no"?>
<!DOCTYPE svg PUBLIC "-//W3C//DTD SVG 1.1//EN"
 "http://www.w3.org/Graphics/SVG/1.1/DTD/svg11.dtd">
<!-- Generated by graphviz version 12.2.1 (20241206.2353)
 -->
<!-- Title: gr&#45;0002 Pages: 1 -->
<svg width="1731pt" height="1160pt"
 viewBox="0.00 0.00 1731.07 1160.00" xmlns="http://www.w3.org/2000/svg" xmlns:xlink="http://www.w3.org/1999/xlink">
<g id="graph0" class="graph" transform="scale(1 1) rotate(0) translate(4 1156)">
<title>gr&#45;0002</title>
<polygon fill="white" stroke="none" points="-4,4 -4,-1156 1727.07,-1156 1727.07,4 -4,4"/>
<!-- dnat44_dynamic -->
<g id="node1" class="node">
<title>dnat44_dynamic</title>
<ellipse fill="none" stroke="black" cx="52.15" cy="-1060" rx="52.15" ry="18"/>
<text text-anchor="middle" x="52.15" y="-1056.3" font-family="sans" font-size="11.00">dnat44_dynamic</text>
</g>
<!-- ip_forward -->
<g id="node2" class="node">
<title>ip_forward</title>
<ellipse fill="none" stroke="black" cx="181.93" cy="-999" rx="33.62" ry="18"/>
<text text-anchor="middle" x="181.93" y="-995.3" font-family="sans" font-size="11.00">ip_forward</text>
</g>
<!-- dnat44_dynamic&#45;&gt;ip_forward -->
<g id="edge1" class="edge">
<title>dnat44_dynamic&#45;&gt;ip_forward</title>
<path fill="none" stroke="black" d="M83.76,-1045.39C102.44,-1036.47 126.4,-1025.03 145.85,-1015.74"/>
<polygon fill="black" stroke="black" points="147.25,-1018.95 154.77,-1011.49 144.24,-1012.64 147.25,-1018.95"/>
</g>
<!-- ip_input_local -->
<g id="node3" class="node">
<title>ip_input_local</title>
<ellipse fill="none" stroke="black" cx="1122.77" cy="-930" rx="42.89" ry="18"/>
<text text-anchor="middle" x="1122.77" y="-926.3" font-family="sans" font-size="11.00">ip_input_local</text>
</g>
<!-- dnat44_dynamic&#45;&gt;ip_input_local -->
<g id="edge2" class="edge">
<title>dnat44_dynamic&#45;&gt;ip_input_local</title>
<path fill="none" stroke="black" d="M89.49,-1072.8C138.16,-1088.77 227.49,-1114 306.07,-1114 306.07,-1114 306.07,-1114 860.85,-1114 968.9,-1114 1063.69,-1007.31 1102.76,-956.41"/>
<polygon fill="black" stroke="black" points="1105.48,-958.61 1108.7,-948.52 1099.89,-954.41 1105.48,-958.61"/>
</g>
<!-- ip_output -->
<g id="node13" class="node">
<title>ip_output</title>
<ellipse fill="none" stroke="black" cx="307.07" cy="-786" rx="30.25" ry="18"/>
<text text-anchor="middle" x="307.07" y="-782.3" font-family="sans" font-size="11.00">ip_output</text>
</g>
<!-- ip_forward&#45;&gt;ip_output -->
<g id="edge37" class="edge">
<title>ip_forward&#45;&gt;ip_output</title>
<path fill="none" stroke="black" d="M193,-981.57C214.49,-944.41 264.92,-857.18 290.54,-812.86"/>
<polygon fill="black" stroke="black" points="293.46,-814.8 295.44,-804.39 287.4,-811.29 293.46,-814.8"/>
</g>
<!-- icmp_input -->
<g id="node29" class="node">
<title>icmp_input</title>
<ellipse fill="none" stroke="black" cx="1244.96" cy="-938" rx="34.89" ry="18"/>
<text text-anchor="middle" x="1244.96" y="-934.3" font-family="sans" font-size="11.00">icmp_input</text>
</g>
<!-- ip_input_local&#45;&gt;icmp_input -->
<g id="edge44" class="edge">
<title>ip_input_local&#45;&gt;icmp_input</title>
<path fill="none" stroke="black" d="M1165.47,-932.78C1176.13,-933.48 1187.64,-934.25 1198.47,-934.97"/>
<polygon fill="black" stroke="black" points="1198.17,-938.46 1208.38,-935.63 1198.64,-931.48 1198.17,-938.46"/>
</g>
<!-- ipip_input -->
<g id="node32" class="node">
<title>ipip_input</title>
<ellipse fill="none" stroke="black" cx="1244.96" cy="-884" rx="31.1" ry="18"/>
<text text-anchor="middle" x="1244.96" y="-880.3" font-family="sans" font-size="11.00">ipip_input</text>
</g>
<!-- ip_input_local&#45;&gt;ipip_input -->
<g id="edge45" class="edge">
<title>ip_input_local&#45;&gt;ipip_input</title>
<path fill="none" stroke="black" d="M1155.35,-917.91C1171.44,-911.76 1191.08,-904.24 1207.78,-897.85"/>
<polygon fill="black" stroke="black" points="1208.76,-901.22 1216.84,-894.38 1206.25,-894.68 1208.76,-901.22"/>
</g>
<!-- l4_input_local -->
<g id="node33" class="node">
<title>l4_input_local</title>
<ellipse fill="none" stroke="black" cx="1244.96" cy="-754" rx="42.89" ry="18"/>
<text text-anchor="middle" x="1244.96" y="-750.3" font-family="sans" font-size="11.00">l4_input_local</text>
</g>
<!-- ip_input_local&#45;&gt;l4_input_local -->
<g id="edge46" class="edge">
<title>ip_input_local&#45;&gt;l4_input_local</title>
<path fill="none" stroke="black" d="M1135.73,-912.48C1156.88,-881.51 1200.98,-816.94 1225.87,-780.5"/>
<polygon fill="black" stroke="black" points="1228.44,-782.93 1231.19,-772.7 1222.66,-778.98 1228.44,-782.93"/>
</g>
<!-- dnat44_static -->
<g id="node4" class="node">
<title>dnat44_static</title>
<ellipse fill="none" stroke="black" cx="997.21" cy="-960" rx="43.31" ry="18"/>
<text text-anchor="middle" x="997.21" y="-956.3" font-family="sans" font-size="11.00">dnat44_static</text>
</g>
<!-- dnat44_static&#45;&gt;ip_forward -->
<g id="edge3" class="edge">
<title>dnat44_static&#45;&gt;ip_forward</title>
<path fill="none" stroke="black" d="M974.76,-975.64C929.17,-1007.31 818.23,-1076 713.81,-1076 558.46,-1076 558.46,-1076 558.46,-1076 433,-1076 288.69,-1034.25 221.31,-1012.23"/>
<polygon fill="black" stroke="black" points="222.82,-1009.05 212.23,-1009.23 220.62,-1015.69 222.82,-1009.05"/>
</g>
<!-- dnat44_static&#45;&gt;ip_input_local -->
<g id="edge4" class="edge">
<title>dnat44_static&#45;&gt;ip_input_local</title>
<path fill="none" stroke="black" d="M1035.28,-951C1047.49,-948.04 1061.23,-944.7 1074.11,-941.57"/>
<polygon fill="black" stroke="black" points="1074.79,-945.01 1083.68,-939.25 1073.13,-938.21 1074.79,-945.01"/>
</g>
<!-- snat44_conntrack -->
<g id="node5" class="node">
<title>snat44_conntrack</title>
<ellipse fill="none" stroke="black" cx="712.81" cy="-992" rx="55.94" ry="18"/>
<text text-anchor="middle" x="712.81" y="-988.3" font-family="sans" font-size="11.00">snat44_conntrack</text>
</g>
<!-- control_output -->
<g id="node6" class="node">
<title>control_output</title>
<ellipse fill="none" stroke="black" cx="1676.82" cy="-662" rx="46.26" ry="18"/>
<text text-anchor="middle" x="1676.82" y="-658.3" font-family="sans" font-size="11.00">control_output</text>
</g>
<!-- snat44_conntrack&#45;&gt;control_output -->
<g id="edge5" class="edge">
<title>snat44_conntrack&#45;&gt;control_output</title>
<path fill="none" stroke="black" d="M730.1,-1009.43C770.73,-1050.9 881.54,-1152 996.21,-1152 996.21,-1152 996.21,-1152 1385.42,-1152 1600.63,-1152 1659.8,-797.87 1672.71,-691.72"/>
<polygon fill="black" stroke="black" points="1676.18,-692.15 1673.85,-681.82 1669.23,-691.35 1676.18,-692.15"/>
</g>
<!-- control_input -->
<g id="node7" class="node">
<title>control_input</title>
<ellipse fill="none" stroke="blue" stroke-width="2" cx="181.93" cy="-253" rx="41.62" ry="18"/>
<text text-anchor="middle" x="181.93" y="-249.3" font-family="sans" font-size="11.00">control_input</text>
</g>
<!-- loopback_input -->
<g id="node8" class="node">
<title>loopback_input</title>
<ellipse fill="none" stroke="black" cx="307.07" cy="-377" rx="47.52" ry="18"/>
<text text-anchor="middle" x="307.07" y="-373.3" font-family="sans" font-size="11.00">loopback_input</text>
</g>
<!-- control_input&#45;&gt;loopback_input -->
<g id="edge6" class="edge">
<title>control_input&#45;&gt;loopback_input</title>
<path fill="none" stroke="blue" stroke-width="2" d="M199.53,-269.72C220.56,-290.89 256.96,-327.55 281.28,-352.04"/>
<polygon fill="blue" stroke="blue" stroke-width="2" points="277.67,-353.37 287.2,-358 282.63,-348.44 277.67,-353.37"/>
</g>
<!-- arp_output_request -->
<g id="node9" class="node">
<title>arp_output_request</title>
<ellipse fill="none" stroke="black" cx="559.46" cy="-18" rx="61.42" ry="18"/>
<text text-anchor="middle" x="559.46" y="-14.3" font-family="sans" font-size="11.00">arp_output_request</text>
</g>
<!-- control_input&#45;&gt;arp_output_request -->
<g id="edge7" class="edge">
<title>control_input&#45;&gt;arp_output_request</title>
<path fill="none" stroke="blue" stroke-width="2" d="M183.76,-234.72C186.71,-194.07 199.95,-96.09 259.55,-50 326.87,2.06 429.71,0.78 495.5,-7.01"/>
<polygon fill="blue" stroke="blue" stroke-width="2" points="493.16,-10.24 503.53,-8.03 494.05,-3.29 493.16,-10.24"/>
</g>
<!-- icmp_local_send -->
<g id="node10" class="node">
<title>icmp_local_send</title>
<ellipse fill="none" stroke="black" cx="559.46" cy="-809" rx="51.31" ry="18"/>
<text text-anchor="middle" x="559.46" y="-805.3" font-family="sans" font-size="11.00">icmp_local_send</text>
</g>
<!-- control_input&#45;&gt;icmp_local_send -->
<g id="edge8" class="edge">
<title>control_input&#45;&gt;icmp_local_send</title>
<path fill="none" stroke="blue" stroke-width="2" d="M184.02,-271.22C189.73,-363.49 217.54,-776.35 259.55,-813 329.97,-874.44 449.23,-847.46 513.77,-826.06"/>
<polygon fill="blue" stroke="blue" stroke-width="2" points="513.21,-829.95 521.53,-823.4 510.94,-823.33 513.21,-829.95"/>
</g>
<!-- icmp6_local_send -->
<g id="node11" class="node">
<title>icmp6_local_send</title>
<ellipse fill="none" stroke="black" cx="859.85" cy="-194" rx="55.1" ry="18"/>
<text text-anchor="middle" x="859.85" y="-190.3" font-family="sans" font-size="11.00">icmp6_local_send</text>
</g>
<!-- control_input&#45;&gt;icmp6_local_send -->
<g id="edge9" class="edge">
<title>control_input&#45;&gt;icmp6_local_send</title>
<path fill="none" stroke="blue" stroke-width="2" d="M210.34,-239.52C224.68,-233 242.72,-225.6 259.55,-221 331.3,-201.39 350.93,-198 425.31,-198 425.31,-198 425.31,-198 560.46,-198 640.52,-198 732.66,-196.54 793.12,-195.39"/>
<polygon fill="blue" stroke="blue" stroke-width="2" points="791.45,-198.92 801.38,-195.23 791.31,-191.92 791.45,-198.92"/>
</g>
<!-- ndp_ns_output -->
<g id="node12" class="node">
<title>ndp_ns_output</title>
<ellipse fill="none" stroke="black" cx="997.21" cy="-156" rx="46.26" ry="18"/>
<text text-anchor="middle" x="997.21" y="-152.3" font-family="sans" font-size="11.00">ndp_ns_output</text>
</g>
<!-- control_input&#45;&gt;ndp_ns_output -->
<g id="edge10" class="edge">
<title>control_input&#45;&gt;ndp_ns_output</title>
<path fill="none" stroke="blue" stroke-width="2" d="M199.49,-236.43C213.97,-223.12 236.28,-205.32 259.55,-197 384.45,-152.35 789.39,-153.11 939.52,-155.03"/>
<polygon fill="blue" stroke="blue" stroke-width="2" points="937.65,-158.5 947.7,-155.14 937.75,-151.5 937.65,-158.5"/>
</g>
<!-- control_input&#45;&gt;ip_output -->
<g id="edge11" class="edge">
<title>control_input&#45;&gt;ip_output</title>
<path fill="none" stroke="blue" stroke-width="2" d="M187.16,-271.35C205.37,-350.16 277.04,-660.34 299.38,-757.05"/>
<polygon fill="blue" stroke="blue" stroke-width="2" points="295.57,-756.1 301.23,-765.05 302.39,-754.52 295.57,-756.1"/>
</g>
<!-- arp_output_reply -->
<g id="node14" class="node">
<title>arp_output_reply</title>
<ellipse fill="none" stroke="black" cx="712.81" cy="-64" rx="53.41" ry="18"/>
<text text-anchor="middle" x="712.81" y="-60.3" font-family="sans" font-size="11.00">arp_output_reply</text>
</g>
<!-- control_input&#45;&gt;arp_output_reply -->
<g id="edge12" class="edge">
<title>control_input&#45;&gt;arp_output_reply</title>
<path fill="none" stroke="blue" stroke-width="2" d="M186.48,-234.68C193.83,-202.35 213.95,-135.7 259.55,-105 321.37,-63.38 538.55,-60.87 647.89,-62.41"/>
<polygon fill="blue" stroke="blue" stroke-width="2" points="646.01,-65.88 656.06,-62.54 646.12,-58.88 646.01,-65.88"/>
</g>
<!-- ip6_output -->
<g id="node15" class="node">
<title>ip6_output</title>
<ellipse fill="none" stroke="black" cx="1244.96" cy="-445" rx="34.04" ry="18"/>
<text text-anchor="middle" x="1244.96" y="-441.3" font-family="sans" font-size="11.00">ip6_output</text>
</g>
<!-- control_input&#45;&gt;ip6_output -->
<g id="edge13" class="edge">
<title>control_input&#45;&gt;ip6_output</title>
<path fill="none" stroke="blue" stroke-width="2" d="M221.05,-259.56C268.37,-271.69 351.84,-294 425.31,-294 425.31,-294 425.31,-294 713.81,-294 908.96,-294 1131.18,-384.88 1212.25,-425.84"/>
<polygon fill="blue" stroke="blue" stroke-width="2" points="1209.12,-428.17 1219.61,-429.65 1212.34,-421.95 1209.12,-428.17"/>
</g>
<!-- control_input&#45;&gt;ip6_output -->
<g id="edge15" class="edge">
<title>control_input&#45;&gt;ip6_output</title>
<path fill="none" stroke="blue" stroke-width="2" d="M208.4,-267.29C252.17,-285.18 344.75,-312 425.31,-312 425.31,-312 425.31,-312 713.81,-312 903,-312 1117.62,-397.42 1204.43,-431.56"/>
<polygon fill="blue" stroke="blue" stroke-width="2" points="1201.69,-434.24 1212.28,-434.63 1204.24,-427.72 1201.69,-434.24"/>
</g>
<!-- ndp_na_output -->
<g id="node16" class="node">
<title>ndp_na_output</title>
<ellipse fill="none" stroke="black" cx="559.46" cy="-110" rx="46.68" ry="18"/>
<text text-anchor="middle" x="559.46" y="-106.3" font-family="sans" font-size="11.00">ndp_na_output</text>
</g>
<!-- control_input&#45;&gt;ndp_na_output -->
<g id="edge14" class="edge">
<title>control_input&#45;&gt;ndp_na_output</title>
<path fill="none" stroke="blue" stroke-width="2" d="M189.6,-235.16C200.16,-209.67 223.32,-163.55 259.55,-142 335.03,-97.1 440.43,-97.4 503.8,-102.88"/>
<polygon fill="blue" stroke="blue" stroke-width="2" points="501.83,-106.21 512.12,-103.67 502.49,-99.24 501.83,-106.21"/>
</g>
<!-- eth_input -->
<g id="node17" class="node">
<title>eth_input</title>
<ellipse fill="none" stroke="black" cx="426.31" cy="-396" rx="30.25" ry="18"/>
<text text-anchor="middle" x="426.31" y="-392.3" font-family="sans" font-size="11.00">eth_input</text>
</g>
<!-- loopback_input&#45;&gt;eth_input -->
<g id="edge21" class="edge">
<title>loopback_input&#45;&gt;eth_input</title>
<path fill="none" stroke="black" d="M351.39,-384.02C362.62,-385.84 374.66,-387.79 385.69,-389.58"/>
<polygon fill="black" stroke="black" points="384.82,-392.98 395.25,-391.13 385.94,-386.07 384.82,-392.98"/>
</g>
<!-- eth_output -->
<g id="node21" class="node">
<title>eth_output</title>
<ellipse fill="none" stroke="black" cx="1384.42" cy="-264" rx="34.89" ry="18"/>
<text text-anchor="middle" x="1384.42" y="-260.3" font-family="sans" font-size="11.00">eth_output</text>
</g>
<!-- arp_output_request&#45;&gt;eth_output -->
<g id="edge32" class="edge">
<title>arp_output_request&#45;&gt;eth_output</title>
<path fill="none" stroke="black" d="M621.32,-18C681.62,-18 776.61,-18 858.85,-18 858.85,-18 858.85,-18 1123.77,-18 1249.39,-18 1338.62,-171.61 1370.52,-236.06"/>
<polygon fill="black" stroke="black" points="1367.31,-237.47 1374.82,-244.95 1373.61,-234.42 1367.31,-237.47"/>
</g>
<!-- icmp_output -->
<g id="node30" class="node">
<title>icmp_output</title>
<ellipse fill="none" stroke="black" cx="1384.42" cy="-938" rx="39.52" ry="18"/>
<text text-anchor="middle" x="1384.42" y="-934.3" font-family="sans" font-size="11.00">icmp_output</text>
</g>
<!-- icmp_local_send&#45;&gt;icmp_output -->
<g id="edge35" class="edge">
<title>icmp_local_send&#45;&gt;icmp_output</title>
<path fill="none" stroke="black" d="M610.93,-810.5C765.47,-815.36 1225.52,-831.78 1287.85,-857 1317.27,-868.9 1344.19,-893.55 1361.92,-912.54"/>
<polygon fill="black" stroke="black" points="1359.3,-914.87 1368.6,-919.95 1364.5,-910.18 1359.3,-914.87"/>
</g>
<!-- icmp6_output -->
<g id="node37" class="node">
<title>icmp6_output</title>
<ellipse fill="none" stroke="black" cx="1122.77" cy="-194" rx="43.31" ry="18"/>
<text text-anchor="middle" x="1122.77" y="-190.3" font-family="sans" font-size="11.00">icmp6_output</text>
</g>
<!-- icmp6_local_send&#45;&gt;icmp6_output -->
<g id="edge59" class="edge">
<title>icmp6_local_send&#45;&gt;icmp6_output</title>
<path fill="none" stroke="black" d="M915.23,-194C959.93,-194 1022.93,-194 1067.58,-194"/>
<polygon fill="black" stroke="black" points="1067.56,-197.5 1077.56,-194 1067.56,-190.5 1067.56,-197.5"/>
</g>
<!-- ndp_ns_output&#45;&gt;icmp6_output -->
<g id="edge75" class="edge">
<title>ndp_ns_output&#45;&gt;icmp6_output</title>
<path fill="none" stroke="black" d="M1034.28,-167.09C1047.43,-171.14 1062.48,-175.76 1076.34,-180.03"/>
<polygon fill="black" stroke="black" points="1075.11,-183.31 1085.69,-182.91 1077.16,-176.62 1075.11,-183.31"/>
</g>
<!-- ip_output&#45;&gt;snat44_conntrack -->
<g id="edge48" class="edge">
<title>ip_output&#45;&gt;snat44_conntrack</title>
<path fill="none" stroke="black" d="M313.66,-803.77C323.9,-833.26 348.55,-891.99 390.59,-922 466.27,-976.03 575.74,-989.64 645.32,-992.4"/>
<polygon fill="black" stroke="black" points="644.94,-995.89 655.05,-992.71 645.17,-988.89 644.94,-995.89"/>
</g>
<!-- ip_output&#45;&gt;eth_output -->
<g id="edge47" class="edge">
<title>ip_output&#45;&gt;eth_output</title>
<path fill="none" stroke="black" d="M308.91,-767.84C312.68,-694.87 330.59,-424.23 390.59,-369 445.83,-318.15 483.37,-350 558.46,-350 558.46,-350 558.46,-350 713.81,-350 952.47,-350 1235.09,-295.59 1340.76,-273.33"/>
<polygon fill="black" stroke="black" points="1341.36,-276.78 1350.41,-271.28 1339.9,-269.93 1341.36,-276.78"/>
</g>
<!-- loop_xvrf -->
<g id="node25" class="node">
<title>loop_xvrf</title>
<ellipse fill="none" stroke="black" cx="426.31" cy="-614" rx="29.83" ry="18"/>
<text text-anchor="middle" x="426.31" y="-610.3" font-family="sans" font-size="11.00">loop_xvrf</text>
</g>
<!-- ip_output&#45;&gt;loop_xvrf -->
<g id="edge50" class="edge">
<title>ip_output&#45;&gt;loop_xvrf</title>
<path fill="none" stroke="black" d="M319.52,-769.19C340.06,-739.06 383.29,-675.65 407.65,-639.92"/>
<polygon fill="black" stroke="black" points="410.39,-642.11 413.13,-631.87 404.61,-638.16 410.39,-642.11"/>
</g>
<!-- ip_hold -->
<g id="node31" class="node">
<title>ip_hold</title>
<ellipse fill="none" stroke="black" cx="997.21" cy="-792" rx="27" ry="18"/>
<text text-anchor="middle" x="997.21" y="-788.3" font-family="sans" font-size="11.00">ip_hold</text>
</g>
<!-- ip_output&#45;&gt;ip_hold -->
<g id="edge49" class="edge">
<title>ip_output&#45;&gt;ip_hold</title>
<path fill="none" stroke="black" d="M332.98,-776.38C349.17,-770.49 370.85,-763.3 390.59,-759 463.95,-743.02 483.37,-740 558.46,-740 558.46,-740 558.46,-740 713.81,-740 804.38,-740 908.62,-766.19 961.52,-781.39"/>
<polygon fill="black" stroke="black" points="960.27,-784.68 970.85,-784.12 962.24,-777.96 960.27,-784.68"/>
</g>
<!-- ipip_output -->
<g id="node34" class="node">
<title>ipip_output</title>
<ellipse fill="none" stroke="black" cx="426.31" cy="-786" rx="35.73" ry="18"/>
<text text-anchor="middle" x="426.31" y="-782.3" font-family="sans" font-size="11.00">ipip_output</text>
</g>
<!-- ip_output&#45;&gt;ipip_output -->
<g id="edge51" class="edge">
<title>ip_output&#45;&gt;ipip_output</title>
<path fill="none" stroke="black" d="M336.15,-780.14C349.65,-779.27 366.14,-779.04 381.25,-779.44"/>
<polygon fill="black" stroke="black" points="380.83,-782.92 390.96,-779.81 381.1,-775.93 380.83,-782.92"/>
</g>
<!-- sr6_output -->
<g id="node35" class="node">
<title>sr6_output</title>
<ellipse fill="none" stroke="black" cx="1384.42" cy="-493" rx="34.46" ry="18"/>
<text text-anchor="middle" x="1384.42" y="-489.3" font-family="sans" font-size="11.00">sr6_output</text>
</g>
<!-- ip_output&#45;&gt;sr6_output -->
<g id="edge52" class="edge">
<title>ip_output&#45;&gt;sr6_output</title>
<path fill="none" stroke="black" d="M328.83,-773.07C345.16,-763.31 368.73,-750.07 390.59,-741 552.47,-673.77 626.3,-731.14 768.75,-629 791.3,-612.83 781.11,-592.53 804.75,-578 894.45,-522.89 1218.46,-501.29 1338.38,-495.07"/>
<polygon fill="black" stroke="black" points="1338.34,-498.58 1348.15,-494.58 1337.99,-491.59 1338.34,-498.58"/>
</g>
<!-- arp_output_reply&#45;&gt;eth_output -->
<g id="edge31" class="edge">
<title>arp_output_reply&#45;&gt;eth_output</title>
<path fill="none" stroke="black" d="M766.18,-66.19C832.05,-70.04 948.06,-80.42 1043.46,-108 1161.75,-142.2 1291.32,-211.32 1350.56,-244.87"/>
<polygon fill="black" stroke="black" points="1348.72,-247.85 1359.14,-249.76 1352.19,-241.77 1348.72,-247.85"/>
</g>
<!-- ip6_output&#45;&gt;eth_output -->
<g id="edge68" class="edge">
<title>ip6_output&#45;&gt;eth_output</title>
<path fill="none" stroke="black" d="M1258.65,-428.3C1282.73,-396.59 1335.21,-327.49 1363.84,-289.79"/>
<polygon fill="black" stroke="black" points="1366.39,-292.21 1369.65,-282.13 1360.82,-287.98 1366.39,-292.21"/>
</g>
<!-- ip6_output&#45;&gt;loop_xvrf -->
<g id="edge70" class="edge">
<title>ip6_output&#45;&gt;loop_xvrf</title>
<path fill="none" stroke="black" d="M1211.43,-440.88C1164.44,-435.29 1074.81,-426 998.21,-426 711.81,-426 711.81,-426 711.81,-426 606.35,-426 581.17,-464.1 498.04,-529 476.75,-545.62 457.49,-569.65 444.47,-587.92"/>
<polygon fill="black" stroke="black" points="441.76,-585.69 438.94,-595.9 447.52,-589.68 441.76,-585.69"/>
</g>
<!-- ip6_output&#45;&gt;sr6_output -->
<g id="edge71" class="edge">
<title>ip6_output&#45;&gt;sr6_output</title>
<path fill="none" stroke="black" d="M1277.84,-450.33C1299.42,-456.63 1327.87,-466.54 1349.81,-475.36"/>
<polygon fill="black" stroke="black" points="1348.32,-478.54 1358.9,-479.14 1351.01,-472.07 1348.32,-478.54"/>
</g>
<!-- ip6_hold -->
<g id="node42" class="node">
<title>ip6_hold</title>
<ellipse fill="none" stroke="black" cx="1537.78" cy="-532" rx="27" ry="18"/>
<text text-anchor="middle" x="1537.78" y="-528.3" font-family="sans" font-size="11.00">ip6_hold</text>
</g>
<!-- ip6_output&#45;&gt;ip6_hold -->
<g id="edge69" class="edge">
<title>ip6_output&#45;&gt;ip6_hold</title>
<path fill="none" stroke="black" d="M1278.89,-442.48C1319.69,-440.68 1390.49,-441.93 1445,-466 1464.58,-474.65 1463.79,-485.27 1481,-498 1488.97,-503.9 1498,-509.74 1506.44,-514.86"/>
<polygon fill="black" stroke="black" points="1504.65,-517.87 1515.03,-519.95 1508.21,-511.84 1504.65,-517.87"/>
</g>
<!-- ndp_na_output&#45;&gt;icmp6_output -->
<g id="edge73" class="edge">
<title>ndp_na_output&#45;&gt;icmp6_output</title>
<path fill="none" stroke="black" d="M606.07,-108.1C710.61,-104.34 964.51,-98.74 1043.46,-129 1065.11,-137.3 1085.15,-154.17 1099.53,-168.65"/>
<polygon fill="black" stroke="black" points="1096.84,-170.89 1106.27,-175.72 1101.9,-166.06 1096.84,-170.89"/>
</g>
<!-- arp_input -->
<g id="node18" class="node">
<title>arp_input</title>
<ellipse fill="none" stroke="black" cx="1384.42" cy="-401" rx="30.25" ry="18"/>
<text text-anchor="middle" x="1384.42" y="-397.3" font-family="sans" font-size="11.00">arp_input</text>
</g>
<!-- eth_input&#45;&gt;arp_input -->
<g id="edge16" class="edge">
<title>eth_input&#45;&gt;arp_input</title>
<path fill="none" stroke="black" d="M456.98,-396.16C595.97,-396.88 1182.75,-399.95 1342.9,-400.79"/>
<polygon fill="black" stroke="black" points="1342.57,-404.29 1352.59,-400.84 1342.61,-397.29 1342.57,-404.29"/>
</g>
<!-- ip_input -->
<g id="node19" class="node">
<title>ip_input</title>
<ellipse fill="none" stroke="black" cx="859.85" cy="-876" rx="27" ry="18"/>
<text text-anchor="middle" x="859.85" y="-872.3" font-family="sans" font-size="11.00">ip_input</text>
</g>
<!-- eth_input&#45;&gt;ip_input -->
<g id="edge17" class="edge">
<title>eth_input&#45;&gt;ip_input</title>
<path fill="none" stroke="black" d="M430,-414.31C436.14,-450.4 454.18,-531.68 498.04,-583 538.86,-630.77 567.43,-619.95 620.87,-653 688.14,-694.61 711.76,-697.16 768.75,-752 799.56,-781.65 827.19,-822.92 843.49,-849.56"/>
<polygon fill="black" stroke="black" points="840.43,-851.26 848.59,-858.03 846.43,-847.65 840.43,-851.26"/>
</g>
<!-- ip6_input -->
<g id="node20" class="node">
<title>ip6_input</title>
<ellipse fill="none" stroke="black" cx="559.46" cy="-556" rx="29.41" ry="18"/>
<text text-anchor="middle" x="559.46" y="-552.3" font-family="sans" font-size="11.00">ip6_input</text>
</g>
<!-- eth_input&#45;&gt;ip6_input -->
<g id="edge18" class="edge">
<title>eth_input&#45;&gt;ip6_input</title>
<path fill="none" stroke="black" d="M440.61,-412.22C463.7,-440.4 511.35,-498.53 538.45,-531.59"/>
<polygon fill="black" stroke="black" points="535.51,-533.52 544.55,-539.04 540.92,-529.09 535.51,-533.52"/>
</g>
<!-- arp_input_request -->
<g id="node27" class="node">
<title>arp_input_request</title>
<ellipse fill="none" stroke="black" cx="1537.78" cy="-471" rx="56.78" ry="18"/>
<text text-anchor="middle" x="1537.78" y="-467.3" font-family="sans" font-size="11.00">arp_input_request</text>
</g>
<!-- arp_input&#45;&gt;arp_input_request -->
<g id="edge27" class="edge">
<title>arp_input&#45;&gt;arp_input_request</title>
<path fill="none" stroke="black" d="M1409.07,-411.94C1431.85,-422.47 1466.83,-438.65 1494.42,-451.41"/>
<polygon fill="black" stroke="black" points="1492.67,-454.46 1503.21,-455.48 1495.61,-448.1 1492.67,-454.46"/>
</g>
<!-- arp_input_reply -->
<g id="node28" class="node">
<title>arp_input_reply</title>
<ellipse fill="none" stroke="black" cx="1537.78" cy="-403" rx="48.78" ry="18"/>
<text text-anchor="middle" x="1537.78" y="-399.3" font-family="sans" font-size="11.00">arp_input_reply</text>
</g>
<!-- arp_input&#45;&gt;arp_input_reply -->
<g id="edge28" class="edge">
<title>arp_input&#45;&gt;arp_input_reply</title>
<path fill="none" stroke="black" d="M1414.97,-401.39C1432.69,-401.62 1455.86,-401.93 1477.24,-402.21"/>
<polygon fill="black" stroke="black" points="1476.99,-405.71 1487.04,-402.34 1477.08,-398.71 1476.99,-405.71"/>
</g>
<!-- ip_input&#45;&gt;dnat44_dynamic -->
<g id="edge40" class="edge">
<title>ip_input&#45;&gt;dnat44_dynamic</title>
<path fill="none" stroke="black" d="M853.55,-893.97C843.14,-925.63 816.78,-990.68 768.75,-1019 659.26,-1083.58 268.77,-1071.2 115.52,-1063.56"/>
<polygon fill="black" stroke="black" points="115.71,-1060.07 105.54,-1063.05 115.35,-1067.06 115.71,-1060.07"/>
</g>
<!-- ip_input&#45;&gt;ip_forward -->
<g id="edge39" class="edge">
<title>ip_input&#45;&gt;ip_forward</title>
<path fill="none" stroke="black" d="M833.5,-880.61C731.87,-899.11 353.23,-968.01 225.39,-991.27"/>
<polygon fill="black" stroke="black" points="224.87,-987.81 215.66,-993.04 226.12,-994.7 224.87,-987.81"/>
</g>
<!-- ip_input&#45;&gt;ip_input_local -->
<g id="edge42" class="edge">
<title>ip_input&#45;&gt;ip_input_local</title>
<path fill="none" stroke="black" d="M885.87,-881.18C928.83,-890.07 1017.35,-908.39 1072.9,-919.89"/>
<polygon fill="black" stroke="black" points="1071.9,-923.25 1082.4,-921.85 1073.32,-916.4 1071.9,-923.25"/>
</g>
<!-- ip_input&#45;&gt;dnat44_static -->
<g id="edge43" class="edge">
<title>ip_input&#45;&gt;dnat44_static</title>
<path fill="none" stroke="black" d="M880.25,-888.04C901.76,-901.39 936.87,-923.18 962.83,-939.29"/>
<polygon fill="black" stroke="black" points="960.66,-942.06 971,-944.36 964.35,-936.11 960.66,-942.06"/>
</g>
<!-- ip_input&#45;&gt;ip_output -->
<g id="edge41" class="edge">
<title>ip_input&#45;&gt;ip_output</title>
<path fill="none" stroke="black" d="M832.49,-874.85C760.5,-871.19 554.92,-857.34 390.59,-813 375.31,-808.88 358.69,-803.6 344.4,-798.8"/>
<polygon fill="black" stroke="black" points="345.53,-795.49 334.94,-795.58 343.28,-802.12 345.53,-795.49"/>
</g>
<!-- ip6_input&#45;&gt;ip6_output -->
<g id="edge63" class="edge">
<title>ip6_input&#45;&gt;ip6_output</title>
<path fill="none" stroke="black" d="M575.15,-540.58C592.75,-523.23 624,-495.79 656.87,-483 740.91,-450.32 768.69,-464 858.85,-464 858.85,-464 858.85,-464 998.21,-464 1069.12,-464 1151.21,-456.04 1200.28,-450.42"/>
<polygon fill="black" stroke="black" points="1200.4,-453.93 1209.92,-449.3 1199.59,-446.98 1200.4,-453.93"/>
</g>
<!-- ip6_forward -->
<g id="node41" class="node">
<title>ip6_forward</title>
<ellipse fill="none" stroke="black" cx="712.81" cy="-510" rx="37.41" ry="18"/>
<text text-anchor="middle" x="712.81" y="-506.3" font-family="sans" font-size="11.00">ip6_forward</text>
</g>
<!-- ip6_input&#45;&gt;ip6_forward -->
<g id="edge62" class="edge">
<title>ip6_input&#45;&gt;ip6_forward</title>
<path fill="none" stroke="black" d="M586.48,-548.09C609.25,-541.17 642.78,-530.98 669.43,-522.88"/>
<polygon fill="black" stroke="black" points="670.38,-526.25 678.93,-519.99 668.34,-519.55 670.38,-526.25"/>
</g>
<!-- ip6_input_local -->
<g id="node43" class="node">
<title>ip6_input_local</title>
<ellipse fill="none" stroke="black" cx="859.85" cy="-605" rx="46.68" ry="18"/>
<text text-anchor="middle" x="859.85" y="-601.3" font-family="sans" font-size="11.00">ip6_input_local</text>
</g>
<!-- ip6_input&#45;&gt;ip6_input_local -->
<g id="edge64" class="edge">
<title>ip6_input&#45;&gt;ip6_input_local</title>
<path fill="none" stroke="black" d="M589.06,-556.53C629.5,-557.75 705.49,-561.77 768.75,-575 784.31,-578.25 800.93,-583.31 815.61,-588.36"/>
<polygon fill="black" stroke="black" points="814.38,-591.63 824.97,-591.67 816.72,-585.04 814.38,-591.63"/>
</g>
<!-- sr6_local -->
<g id="node44" class="node">
<title>sr6_local</title>
<ellipse fill="none" stroke="black" cx="712.81" cy="-602" rx="28.57" ry="18"/>
<text text-anchor="middle" x="712.81" y="-598.3" font-family="sans" font-size="11.00">sr6_local</text>
</g>
<!-- ip6_input&#45;&gt;sr6_local -->
<g id="edge65" class="edge">
<title>ip6_input&#45;&gt;sr6_local</title>
<path fill="none" stroke="black" d="M588.57,-559.16C614.42,-565.28 652.71,-576.84 679.74,-586.62"/>
<polygon fill="black" stroke="black" points="678.2,-589.78 688.79,-590.01 680.66,-583.22 678.2,-589.78"/>
</g>
<!-- port_tx -->
<g id="node22" class="node">
<title>port_tx</title>
<ellipse fill="none" stroke="black" cx="1537.78" cy="-241" rx="27" ry="18"/>
<text text-anchor="middle" x="1537.78" y="-237.3" font-family="sans" font-size="11.00">port_tx</text>
</g>
<!-- eth_output&#45;&gt;port_tx -->
<g id="edge19" class="edge">
<title>eth_output&#45;&gt;port_tx</title>
<path fill="none" stroke="black" d="M1418.27,-259.01C1442.28,-255.36 1474.88,-250.41 1499.82,-246.62"/>
<polygon fill="black" stroke="black" points="1500.16,-250.1 1509.52,-245.14 1499.11,-243.18 1500.16,-250.1"/>
</g>
<!-- l1_xconnect -->
<g id="node23" class="node">
<title>l1_xconnect</title>
<ellipse fill="none" stroke="black" cx="859.85" cy="-248" rx="38.25" ry="18"/>
<text text-anchor="middle" x="859.85" y="-244.3" font-family="sans" font-size="11.00">l1_xconnect</text>
</g>
<!-- l1_xconnect&#45;&gt;port_tx -->
<g id="edge20" class="edge">
<title>l1_xconnect&#45;&gt;port_tx</title>
<path fill="none" stroke="black" d="M898.1,-246.25C990.63,-242.13 1238.38,-232.5 1445,-237 1462.83,-237.39 1482.6,-238.2 1499.21,-238.99"/>
<polygon fill="black" stroke="black" points="1499.01,-242.49 1509.17,-239.48 1499.35,-235.5 1499.01,-242.49"/>
</g>
<!-- loopback_output -->
<g id="node24" class="node">
<title>loopback_output</title>
<ellipse fill="none" stroke="black" cx="1537.78" cy="-752" rx="52.15" ry="18"/>
<text text-anchor="middle" x="1537.78" y="-748.3" font-family="sans" font-size="11.00">loopback_output</text>
</g>
<!-- loopback_output&#45;&gt;control_output -->
<g id="edge22" class="edge">
<title>loopback_output&#45;&gt;control_output</title>
<path fill="none" stroke="black" d="M1565.08,-736.39C1574.45,-730.71 1585.05,-724.17 1594.56,-718 1611.19,-707.22 1629.38,-694.75 1644.32,-684.31"/>
<polygon fill="black" stroke="black" points="1646.21,-687.27 1652.39,-678.66 1642.19,-681.53 1646.21,-687.27"/>
</g>
<!-- loop_xvrf&#45;&gt;ip_input -->
<g id="edge23" class="edge">
<title>loop_xvrf&#45;&gt;ip_input</title>
<path fill="none" stroke="black" d="M448.13,-626.64C518.44,-669.33 747.33,-808.29 829.31,-858.06"/>
<polygon fill="black" stroke="black" points="827.34,-860.96 837.7,-863.16 830.97,-854.98 827.34,-860.96"/>
</g>
<!-- loop_xvrf&#45;&gt;ip6_input -->
<g id="edge24" class="edge">
<title>loop_xvrf&#45;&gt;ip6_input</title>
<path fill="none" stroke="black" d="M451.06,-603.5C471.58,-594.42 501.47,-581.2 524.52,-571.01"/>
<polygon fill="black" stroke="black" points="525.77,-574.28 533.5,-567.04 522.94,-567.88 525.77,-574.28"/>
</g>
<!-- port_rx -->
<g id="node26" class="node">
<title>port_rx</title>
<ellipse fill="none" stroke="blue" stroke-width="2" cx="307.07" cy="-248" rx="27" ry="18"/>
<text text-anchor="middle" x="307.07" y="-244.3" font-family="sans" font-size="11.00">port_rx</text>
</g>
<!-- port_rx&#45;&gt;eth_input -->
<g id="edge25" class="edge">
<title>port_rx&#45;&gt;eth_input</title>
<path fill="none" stroke="blue" stroke-width="2" d="M320.61,-263.84C340.96,-289.52 381.3,-340.44 405.54,-371.04"/>
<polygon fill="blue" stroke="blue" stroke-width="2" points="401.67,-371.79 410.62,-377.45 407.15,-367.44 401.67,-371.79"/>
</g>
<!-- port_rx&#45;&gt;l1_xconnect -->
<g id="edge26" class="edge">
<title>port_rx&#45;&gt;l1_xconnect</title>
<path fill="none" stroke="blue" stroke-width="2" d="M334.26,-248C420.57,-248 696.93,-248 809.96,-248"/>
<polygon fill="blue" stroke="blue" stroke-width="2" points="808.31,-251.5 818.31,-248 808.31,-244.5 808.31,-251.5"/>
</g>
<!-- arp_input_request&#45;&gt;control_output -->
<g id="edge30" class="edge">
<title>arp_input_request&#45;&gt;control_output</title>
<path fill="none" stroke="black" d="M1570.24,-486.1C1578.84,-491.26 1587.68,-497.62 1594.56,-505 1630.11,-543.11 1654.25,-599.74 1666.47,-633.55"/>
<polygon fill="black" stroke="black" points="1663.05,-634.38 1669.66,-642.66 1669.66,-632.06 1663.05,-634.38"/>
</g>
<!-- arp_input_reply&#45;&gt;control_output -->
<g id="edge29" class="edge">
<title>arp_input_reply&#45;&gt;control_output</title>
<path fill="none" stroke="black" d="M1565.6,-418.07C1575.8,-424.89 1586.81,-433.74 1594.56,-444 1638.83,-502.6 1661.2,-587.94 1670.45,-632.46"/>
<polygon fill="black" stroke="black" points="1667,-633.02 1672.38,-642.15 1673.86,-631.65 1667,-633.02"/>
</g>
<!-- icmp_input&#45;&gt;control_output -->
<g id="edge34" class="edge">
<title>icmp_input&#45;&gt;control_output</title>
<path fill="none" stroke="black" d="M1274.49,-928.01C1357.17,-899.01 1591.36,-816.76 1594.56,-814 1633.07,-780.85 1656.24,-724.8 1667.48,-690.82"/>
<polygon fill="black" stroke="black" points="1670.7,-692.24 1670.38,-681.65 1664.03,-690.12 1670.7,-692.24"/>
</g>
<!-- icmp_input&#45;&gt;icmp_output -->
<g id="edge33" class="edge">
<title>icmp_input&#45;&gt;icmp_output</title>
<path fill="none" stroke="black" d="M1280.3,-938C1296.34,-938 1315.76,-938 1333.4,-938"/>
<polygon fill="black" stroke="black" points="1333.17,-941.5 1343.17,-938 1333.17,-934.5 1333.17,-941.5"/>
</g>
<!-- icmp_output&#45;&gt;ip_output -->
<g id="edge36" class="edge">
<title>icmp_output&#45;&gt;ip_output</title>
<path fill="none" stroke="black" d="M1351.91,-948.5C1333.45,-954.24 1309.55,-960.99 1287.85,-965 1180.61,-984.8 1152.41,-982.11 1043.46,-987 1002.39,-988.85 991.71,-992.43 950.95,-987 695.16,-952.92 628.23,-935.58 390.59,-835 371.96,-827.12 352.44,-815.69 337.06,-805.85"/>
<polygon fill="black" stroke="black" points="339.16,-803.04 328.88,-800.5 335.33,-808.9 339.16,-803.04"/>
</g>
<!-- ip_hold&#45;&gt;control_output -->
<g id="edge38" class="edge">
<title>ip_hold&#45;&gt;control_output</title>
<path fill="none" stroke="black" d="M1024.38,-793.41C1069.29,-795.71 1163.92,-800 1243.96,-800 1243.96,-800 1243.96,-800 1385.42,-800 1478.84,-800 1514.05,-826.38 1594.56,-779 1628.81,-758.85 1652.07,-717.9 1664.65,-690.2"/>
<polygon fill="black" stroke="black" points="1667.73,-691.91 1668.5,-681.34 1661.31,-689.12 1667.73,-691.91"/>
</g>
<!-- ipip_input&#45;&gt;ip_input -->
<g id="edge77" class="edge">
<title>ipip_input&#45;&gt;ip_input</title>
<path fill="none" stroke="black" d="M1213.51,-883.36C1144.11,-881.91 974.36,-878.37 898.52,-876.79"/>
<polygon fill="black" stroke="black" points="898.77,-873.29 888.7,-876.58 898.62,-880.29 898.77,-873.29"/>
</g>
<!-- l4_loopback_output -->
<g id="node45" class="node">
<title>l4_loopback_output</title>
<ellipse fill="none" stroke="black" cx="1384.42" cy="-752" rx="60.57" ry="18"/>
<text text-anchor="middle" x="1384.42" y="-748.3" font-family="sans" font-size="11.00">l4_loopback_output</text>
</g>
<!-- l4_input_local&#45;&gt;l4_loopback_output -->
<g id="edge79" class="edge">
<title>l4_input_local&#45;&gt;l4_loopback_output</title>
<path fill="none" stroke="black" d="M1287.95,-753.39C1295.66,-753.28 1303.9,-753.16 1312.19,-753.04"/>
<polygon fill="black" stroke="black" points="1312.01,-756.54 1321.96,-752.89 1311.91,-749.54 1312.01,-756.54"/>
</g>
<!-- ipip_output&#45;&gt;ip_output -->
<g id="edge78" class="edge">
<title>ipip_output&#45;&gt;ip_output</title>
<path fill="none" stroke="black" d="M392.47,-792.13C378.48,-792.85 362.05,-792.94 347.42,-792.41"/>
<polygon fill="black" stroke="black" points="347.82,-788.93 337.66,-791.93 347.48,-795.92 347.82,-788.93"/>
</g>
<!-- sr6_output&#45;&gt;ip6_output -->
<g id="edge84" class="edge">
<title>sr6_output&#45;&gt;ip6_output</title>
<path fill="none" stroke="black" d="M1351.07,-487.53C1329.49,-481.2 1301.19,-471.34 1279.4,-462.56"/>
<polygon fill="black" stroke="black" points="1280.95,-459.42 1270.37,-458.81 1278.26,-465.88 1280.95,-459.42"/>
</g>
<!-- icmp6_input -->
<g id="node36" class="node">
<title>icmp6_input</title>
<ellipse fill="none" stroke="black" cx="997.21" cy="-609" rx="38.68" ry="18"/>
<text text-anchor="middle" x="997.21" y="-605.3" font-family="sans" font-size="11.00">icmp6_input</text>
</g>
<!-- icmp6_input&#45;&gt;control_output -->
<g id="edge57" class="edge">
<title>icmp6_input&#45;&gt;control_output</title>
<path fill="none" stroke="black" d="M1035.6,-611.93C1148.43,-620.75 1485.89,-647.14 1619.98,-657.63"/>
<polygon fill="black" stroke="black" points="1619.43,-661.1 1629.67,-658.39 1619.98,-654.12 1619.43,-661.1"/>
</g>
<!-- icmp6_input&#45;&gt;icmp6_output -->
<g id="edge53" class="edge">
<title>icmp6_input&#45;&gt;icmp6_output</title>
<path fill="none" stroke="black" d="M1003.6,-590.9C1022.99,-525.77 1089.32,-302.98 1113.15,-222.93"/>
<polygon fill="black" stroke="black" points="1116.42,-224.23 1115.92,-213.64 1109.71,-222.23 1116.42,-224.23"/>
</g>
<!-- ndp_ns_input -->
<g id="node38" class="node">
<title>ndp_ns_input</title>
<ellipse fill="none" stroke="black" cx="1244.96" cy="-578" rx="41.62" ry="18"/>
<text text-anchor="middle" x="1244.96" y="-574.3" font-family="sans" font-size="11.00">ndp_ns_input</text>
</g>
<!-- icmp6_input&#45;&gt;ndp_ns_input -->
<g id="edge54" class="edge">
<title>icmp6_input&#45;&gt;ndp_ns_input</title>
<path fill="none" stroke="black" d="M1035,-604.36C1077.06,-599.05 1146.16,-590.34 1193.29,-584.39"/>
<polygon fill="black" stroke="black" points="1193.49,-587.89 1202.97,-583.17 1192.61,-580.95 1193.49,-587.89"/>
</g>
<!-- ndp_na_input -->
<g id="node39" class="node">
<title>ndp_na_input</title>
<ellipse fill="none" stroke="black" cx="1122.77" cy="-716" rx="42.04" ry="18"/>
<text text-anchor="middle" x="1122.77" y="-712.3" font-family="sans" font-size="11.00">ndp_na_input</text>
</g>
<!-- icmp6_input&#45;&gt;ndp_na_input -->
<g id="edge55" class="edge">
<title>icmp6_input&#45;&gt;ndp_na_input</title>
<path fill="none" stroke="black" d="M1013.17,-625.67C1028.82,-642.62 1054.54,-669.14 1079.46,-689 1082.02,-691.04 1084.73,-693.06 1087.5,-695.02"/>
<polygon fill="black" stroke="black" points="1085.5,-697.89 1095.75,-700.58 1089.41,-692.08 1085.5,-697.89"/>
</g>
<!-- ndp_rs_input -->
<g id="node40" class="node">
<title>ndp_rs_input</title>
<ellipse fill="none" stroke="black" cx="1122.77" cy="-662" rx="40.36" ry="18"/>
<text text-anchor="middle" x="1122.77" y="-658.3" font-family="sans" font-size="11.00">ndp_rs_input</text>
</g>
<!-- icmp6_input&#45;&gt;ndp_rs_input -->
<g id="edge56" class="edge">
<title>icmp6_input&#45;&gt;ndp_rs_input</title>
<path fill="none" stroke="black" d="M1026.55,-621.16C1043.03,-628.23 1064.06,-637.25 1082.15,-645.01"/>
<polygon fill="black" stroke="black" points="1080.73,-648.21 1091.3,-648.93 1083.49,-641.77 1080.73,-648.21"/>
</g>
<!-- icmp6_output&#45;&gt;ip6_output -->
<g id="edge58" class="edge">
<title>icmp6_output&#45;&gt;ip6_output</title>
<path fill="none" stroke="black" d="M1132.22,-211.65C1152.82,-254.68 1205.77,-365.24 1230.66,-417.21"/>
<polygon fill="black" stroke="black" points="1227.39,-418.5 1234.87,-426 1233.7,-415.47 1227.39,-418.5"/>
</g>
<!-- ndp_ns_input&#45;&gt;control_output -->
<g id="edge74" class="edge">
<title>ndp_ns_input&#45;&gt;control_output</title>
<path fill="none" stroke="black" d="M1286.72,-575.61C1353.16,-573.05 1488.07,-573.47 1594.56,-610 1613.41,-616.46 1632.28,-628.15 1647.09,-638.8"/>
<polygon fill="black" stroke="black" points="1644.87,-641.51 1654.98,-644.69 1649.06,-635.9 1644.87,-641.51"/>
</g>
<!-- ndp_na_input&#45;&gt;control_output -->
<g id="edge72" class="edge">
<title>ndp_na_input&#45;&gt;control_output</title>
<path fill="none" stroke="black" d="M1164.83,-713.7C1246.77,-708.85 1436.31,-696.32 1594.56,-676 1603.95,-674.79 1613.91,-673.28 1623.52,-671.69"/>
<polygon fill="black" stroke="black" points="1623.82,-675.19 1633.09,-670.06 1622.65,-668.29 1623.82,-675.19"/>
</g>
<!-- ndp_rs_input&#45;&gt;control_output -->
<g id="edge76" class="edge">
<title>ndp_rs_input&#45;&gt;control_output</title>
<path fill="none" stroke="black" d="M1163.47,-662C1259.94,-662 1506.93,-662 1619,-662"/>
<polygon fill="black" stroke="black" points="1618.86,-665.5 1628.86,-662 1618.86,-658.5 1618.86,-665.5"/>
</g>
<!-- ip6_forward&#45;&gt;ip6_output -->
<g id="edge60" class="edge">
<title>ip6_forward&#45;&gt;ip6_output</title>
<path fill="none" stroke="black" d="M750.48,-511.45C828.28,-513.64 1015.11,-514.26 1166.08,-478 1180.95,-474.43 1196.61,-468.3 1209.96,-462.29"/>
<polygon fill="black" stroke="black" points="1211.17,-465.59 1218.74,-458.18 1208.2,-459.25 1211.17,-465.59"/>
</g>
<!-- ip6_hold&#45;&gt;control_output -->
<g id="edge61" class="edge">
<title>ip6_hold&#45;&gt;control_output</title>
<path fill="none" stroke="black" d="M1559.37,-543.36C1570.35,-549.88 1583.78,-558.62 1594.56,-568 1617.93,-588.31 1640.63,-615.39 1656.07,-635.27"/>
<polygon fill="black" stroke="black" points="1653.27,-637.36 1662.12,-643.18 1658.83,-633.11 1653.27,-637.36"/>
</g>
<!-- ip6_input_local&#45;&gt;l4_input_local -->
<g id="edge67" class="edge">
<title>ip6_input_local&#45;&gt;l4_input_local</title>
<path fill="none" stroke="black" d="M879.65,-621.56C915.53,-652.03 997.53,-716.31 1079.46,-743 1115.49,-754.74 1158.25,-757.28 1191.14,-756.99"/>
<polygon fill="black" stroke="black" points="1190.89,-760.5 1200.83,-756.81 1190.76,-753.5 1190.89,-760.5"/>
</g>
<!-- ip6_input_local&#45;&gt;icmp6_input -->
<g id="edge66" class="edge">
<title>ip6_input_local&#45;&gt;icmp6_input</title>
<path fill="none" stroke="black" d="M906.68,-606.35C919.73,-606.74 933.99,-607.16 947.22,-607.55"/>
<polygon fill="black" stroke="black" points="946.91,-611.04 957.01,-607.84 947.12,-604.05 946.91,-611.04"/>
</g>
<!-- sr6_local&#45;&gt;ip_input -->
<g id="edge81" class="edge">
<title>sr6_local&#45;&gt;ip_input</title>
<path fill="none" stroke="black" d="M737.73,-611.46C748.45,-616.72 760.51,-624.21 768.75,-634 822.66,-698.02 845.86,-797.35 854.47,-846.46"/>
<polygon fill="black" stroke="black" points="851.02,-847.02 856.11,-856.32 857.92,-845.88 851.02,-847.02"/>
</g>
<!-- sr6_local&#45;&gt;ip6_input -->
<g id="edge82" class="edge">
<title>sr6_local&#45;&gt;ip6_input</title>
<path fill="none" stroke="black" d="M684.39,-599.01C658.7,-592.96 620.27,-581.39 593.03,-571.56"/>
<polygon fill="black" stroke="black" points="594.47,-568.37 583.88,-568.15 592.03,-574.92 594.47,-568.37"/>
</g>
<!-- sr6_local&#45;&gt;ip6_input_local -->
<g id="edge83" class="edge">
<title>sr6_local&#45;&gt;ip6_input_local</title>
<path fill="none" stroke="black" d="M741.78,-602.58C758.79,-602.93 781.15,-603.39 801.77,-603.82"/>
<polygon fill="black" stroke="black" points="801.41,-607.31 811.48,-604.02 801.56,-600.31 801.41,-607.31"/>
</g>
<!-- l4_loopback_output&#45;&gt;loopback_output -->
<g id="edge80" class="edge">
<title>l4_loopback_output&#45;&gt;loopback_output</title>
<path fill="none" stroke="black" d="M1445.24,-752C1454.64,-752 1464.38,-752 1473.85,-752"/>
<polygon fill="black" stroke="black" points="1473.71,-755.5 1483.71,-752 1473.71,-748.5 1473.71,-755.5"/>
</g>
</g>
</svg>
