<?xml version="1.0" encoding="UTF-8" standalone="no"?>
<!DOCTYPE svg PUBLIC "-//W3C//DTD SVG 1.1//EN"
 "http://www.w3.org/Graphics/SVG/1.1/DTD/svg11.dtd">
<!-- Generated by graphviz version 2.44.0 (0)
 -->
<!-- Title: gr&#45;0002 Pages: 1 -->
<svg width="2276pt" height="964pt"
 viewBox="0.00 0.00 2276.38 964.45" xmlns="http://www.w3.org/2000/svg" xmlns:xlink="http://www.w3.org/1999/xlink">
<g id="graph0" class="graph" transform="scale(1 1) rotate(0) translate(4 960.45)">
<title>gr&#45;0002</title>
<polygon fill="white" stroke="transparent" points="-4,4 -4,-960.45 2272.38,-960.45 2272.38,4 -4,4"/>
<!-- control_input -->
<g id="node1" class="node">
<title>control_input</title>
<ellipse fill="none" stroke="blue" stroke-width="2" cx="40.16" cy="-333.96" rx="40.32" ry="18"/>
<text text-anchor="middle" x="40.16" y="-331.16" font-family="sans" font-size="11.00">control_input</text>
</g>
<!-- loopback_input -->
<g id="node2" class="node">
<title>loopback_input</title>
<ellipse fill="none" stroke="black" cx="161.91" cy="-538.96" rx="45.68" ry="18"/>
<text text-anchor="middle" x="161.91" y="-536.16" font-family="sans" font-size="11.00">loopback_input</text>
</g>
<!-- control_input&#45;&gt;loopback_input -->
<g id="edge1" class="edge">
<title>control_input&#45;&gt;loopback_input</title>
<path fill="none" stroke="blue" stroke-width="2" d="M51.37,-351.44C72.4,-387.44 120.63,-470.01 145.48,-512.56"/>
<polygon fill="blue" stroke="blue" stroke-width="2" points="142.49,-514.37 150.56,-521.24 148.54,-510.84 142.49,-514.37"/>
</g>
<!-- arp_output_request -->
<g id="node3" class="node">
<title>arp_output_request</title>
<ellipse fill="none" stroke="black" cx="437.43" cy="-871.96" rx="59.31" ry="18"/>
<text text-anchor="middle" x="437.43" y="-869.16" font-family="sans" font-size="11.00">arp_output_request</text>
</g>
<!-- control_input&#45;&gt;arp_output_request -->
<g id="edge2" class="edge">
<title>control_input&#45;&gt;arp_output_request</title>
<path fill="none" stroke="blue" stroke-width="2" d="M41.02,-352.21C40.77,-434.65 44.25,-771.26 116.32,-839.96 186.55,-906.91 308.85,-897.74 380.23,-884.92"/>
<polygon fill="blue" stroke="blue" stroke-width="2" points="381.2,-888.3 390.38,-883.01 379.91,-881.42 381.2,-888.3"/>
</g>
<!-- icmp_local_send -->
<g id="node4" class="node">
<title>icmp_local_send</title>
<ellipse fill="none" stroke="black" cx="292.89" cy="-398.96" rx="49.28" ry="18"/>
<text text-anchor="middle" x="292.89" y="-396.16" font-family="sans" font-size="11.00">icmp_local_send</text>
</g>
<!-- control_input&#45;&gt;icmp_local_send -->
<g id="edge3" class="edge">
<title>control_input&#45;&gt;icmp_local_send</title>
<path fill="none" stroke="blue" stroke-width="2" d="M75.24,-342.8C118.33,-353.97 192.85,-373.29 242.26,-386.1"/>
<polygon fill="blue" stroke="blue" stroke-width="2" points="241.54,-389.53 252.09,-388.65 243.29,-382.75 241.54,-389.53"/>
</g>
<!-- icmp6_local_send -->
<g id="node5" class="node">
<title>icmp6_local_send</title>
<ellipse fill="none" stroke="black" cx="946.68" cy="-253.96" rx="53.37" ry="18"/>
<text text-anchor="middle" x="946.68" y="-251.16" font-family="sans" font-size="11.00">icmp6_local_send</text>
</g>
<!-- control_input&#45;&gt;icmp6_local_send -->
<g id="edge4" class="edge">
<title>control_input&#45;&gt;icmp6_local_send</title>
<path fill="none" stroke="blue" stroke-width="2" d="M66.21,-320.16C80.5,-312.83 98.98,-304.27 116.32,-298.96 191.88,-275.84 212.87,-270.96 291.89,-270.96 291.89,-270.96 291.89,-270.96 713.95,-270.96 772.58,-270.96 839.33,-265.49 886.08,-260.75"/>
<polygon fill="blue" stroke="blue" stroke-width="2" points="886.45,-264.23 896.04,-259.72 885.73,-257.27 886.45,-264.23"/>
</g>
<!-- ndp_ns_output -->
<g id="node6" class="node">
<title>ndp_ns_output</title>
<ellipse fill="none" stroke="black" cx="1080.37" cy="-303.96" rx="44.51" ry="18"/>
<text text-anchor="middle" x="1080.37" y="-301.16" font-family="sans" font-size="11.00">ndp_ns_output</text>
</g>
<!-- control_input&#45;&gt;ndp_ns_output -->
<g id="edge5" class="edge">
<title>control_input&#45;&gt;ndp_ns_output</title>
<path fill="none" stroke="blue" stroke-width="2" d="M78.88,-328.83C127.88,-322.61 216.1,-312.96 291.89,-312.96 291.89,-312.96 291.89,-312.96 824.85,-312.96 894.34,-312.96 974.44,-309.57 1025.93,-306.95"/>
<polygon fill="blue" stroke="blue" stroke-width="2" points="1026.35,-310.44 1036.15,-306.42 1025.99,-303.45 1026.35,-310.44"/>
</g>
<!-- ip_output -->
<g id="node7" class="node">
<title>ip_output</title>
<ellipse fill="none" stroke="black" cx="1080.37" cy="-676.96" rx="29.12" ry="18"/>
<text text-anchor="middle" x="1080.37" y="-674.16" font-family="sans" font-size="11.00">ip_output</text>
</g>
<!-- control_input&#45;&gt;ip_output -->
<g id="edge6" class="edge">
<title>control_input&#45;&gt;ip_output</title>
<path fill="none" stroke="blue" stroke-width="2" d="M42.95,-352.03C49.84,-418.88 76.28,-651.58 116.32,-712.96 167.02,-790.69 199.09,-825.96 291.89,-825.96 291.89,-825.96 291.89,-825.96 713.95,-825.96 849.5,-825.96 993.79,-736.97 1052.35,-696.54"/>
<polygon fill="blue" stroke="blue" stroke-width="2" points="1054.49,-699.31 1060.68,-690.72 1050.48,-693.58 1054.49,-699.31"/>
</g>
<!-- arp_output_reply -->
<g id="node8" class="node">
<title>arp_output_reply</title>
<ellipse fill="none" stroke="black" cx="584.15" cy="-915.96" rx="51.62" ry="18"/>
<text text-anchor="middle" x="584.15" y="-913.16" font-family="sans" font-size="11.00">arp_output_reply</text>
</g>
<!-- control_input&#45;&gt;arp_output_reply -->
<g id="edge7" class="edge">
<title>control_input&#45;&gt;arp_output_reply</title>
<path fill="none" stroke="blue" stroke-width="2" d="M41.01,-352.15C40.69,-437.47 43.71,-797.39 116.32,-875.96 224.02,-992.52 438.69,-954.65 534.74,-930.04"/>
<polygon fill="blue" stroke="blue" stroke-width="2" points="535.7,-933.41 544.48,-927.48 533.92,-926.64 535.7,-933.41"/>
</g>
<!-- ip6_output -->
<g id="node9" class="node">
<title>ip6_output</title>
<ellipse fill="none" stroke="black" cx="1947.27" cy="-416.96" rx="32.63" ry="18"/>
<text text-anchor="middle" x="1947.27" y="-414.16" font-family="sans" font-size="11.00">ip6_output</text>
</g>
<!-- control_input&#45;&gt;ip6_output -->
<g id="edge8" class="edge">
<title>control_input&#45;&gt;ip6_output</title>
<path fill="none" stroke="blue" stroke-width="2" d="M46.17,-315.98C56.09,-288.43 80.42,-237.28 116.32,-207.96 181.14,-155.05 208.21,-139.96 291.89,-139.96 291.89,-139.96 291.89,-139.96 1545.03,-139.96 1617.7,-139.96 1805.15,-178.24 1860.8,-224.96 1911.43,-267.47 1933.84,-346.62 1942.14,-388.98"/>
<polygon fill="blue" stroke="blue" stroke-width="2" points="1938.72,-389.7 1943.96,-398.91 1945.6,-388.45 1938.72,-389.7"/>
</g>
<!-- control_input&#45;&gt;ip6_output -->
<g id="edge10" class="edge">
<title>control_input&#45;&gt;ip6_output</title>
<path fill="none" stroke="blue" stroke-width="2" d="M51.2,-316.26C63.16,-292.48 85.46,-251.16 116.32,-225.96 181.14,-173.05 208.21,-157.96 291.89,-157.96 291.89,-157.96 291.89,-157.96 1545.03,-157.96 1617.7,-157.96 1805.15,-196.24 1860.8,-242.96 1906.71,-281.5 1929.41,-350.16 1939.44,-388.86"/>
<polygon fill="blue" stroke="blue" stroke-width="2" points="1936.13,-390.07 1941.94,-398.93 1942.93,-388.38 1936.13,-390.07"/>
</g>
<!-- ndp_na_output -->
<g id="node10" class="node">
<title>ndp_na_output</title>
<ellipse fill="none" stroke="black" cx="1310.3" cy="-203.96" rx="45.09" ry="18"/>
<text text-anchor="middle" x="1310.3" y="-201.16" font-family="sans" font-size="11.00">ndp_na_output</text>
</g>
<!-- control_input&#45;&gt;ndp_na_output -->
<g id="edge9" class="edge">
<title>control_input&#45;&gt;ndp_na_output</title>
<path fill="none" stroke="blue" stroke-width="2" d="M57.56,-317.69C72.04,-304.03 94.22,-284.76 116.32,-271.96 188.47,-230.21 208.53,-205.96 291.89,-205.96 291.89,-205.96 291.89,-205.96 1081.37,-205.96 1140.79,-205.96 1208.91,-205.28 1255.09,-204.71"/>
<polygon fill="blue" stroke="blue" stroke-width="2" points="1255.23,-208.21 1265.18,-204.58 1255.14,-201.21 1255.23,-208.21"/>
</g>
<!-- eth_input -->
<g id="node12" class="node">
<title>eth_input</title>
<ellipse fill="none" stroke="black" cx="292.89" cy="-565.96" rx="29.12" ry="18"/>
<text text-anchor="middle" x="292.89" y="-563.16" font-family="sans" font-size="11.00">eth_input</text>
</g>
<!-- loopback_input&#45;&gt;eth_input -->
<g id="edge16" class="edge">
<title>loopback_input&#45;&gt;eth_input</title>
<path fill="none" stroke="black" d="M202.66,-547.29C219.18,-550.74 238.24,-554.73 254.5,-558.14"/>
<polygon fill="black" stroke="black" points="254.22,-561.65 264.72,-560.28 255.65,-554.8 254.22,-561.65"/>
</g>
<!-- eth_output -->
<g id="node16" class="node">
<title>eth_output</title>
<ellipse fill="none" stroke="black" cx="2088.56" cy="-867.96" rx="33.8" ry="18"/>
<text text-anchor="middle" x="2088.56" y="-865.16" font-family="sans" font-size="11.00">eth_output</text>
</g>
<!-- arp_output_request&#45;&gt;eth_output -->
<g id="edge27" class="edge">
<title>arp_output_request&#45;&gt;eth_output</title>
<path fill="none" stroke="black" d="M496.59,-870.62C551.96,-869.46 637.63,-867.96 711.95,-867.96 711.95,-867.96 711.95,-867.96 1803.19,-867.96 1888.76,-867.96 1988.82,-867.96 2044.52,-867.96"/>
<polygon fill="black" stroke="black" points="2044.72,-871.46 2054.72,-867.96 2044.72,-864.46 2044.72,-871.46"/>
</g>
<!-- icmp_output -->
<g id="node28" class="node">
<title>icmp_output</title>
<ellipse fill="none" stroke="black" cx="946.68" cy="-615.96" rx="37.98" ry="18"/>
<text text-anchor="middle" x="946.68" y="-613.16" font-family="sans" font-size="11.00">icmp_output</text>
</g>
<!-- icmp_local_send&#45;&gt;icmp_output -->
<g id="edge32" class="edge">
<title>icmp_local_send&#45;&gt;icmp_output</title>
<path fill="none" stroke="black" d="M342.25,-401.29C444.29,-408.12 686.23,-434.51 857.5,-534.96 883.15,-550.01 907.68,-573.54 924.32,-591.37"/>
<polygon fill="black" stroke="black" points="922.06,-594.09 931.39,-599.11 927.23,-589.37 922.06,-594.09"/>
</g>
<!-- icmp6_output -->
<g id="node35" class="node">
<title>icmp6_output</title>
<ellipse fill="none" stroke="black" cx="1802.19" cy="-260.96" rx="41.58" ry="18"/>
<text text-anchor="middle" x="1802.19" y="-258.16" font-family="sans" font-size="11.00">icmp6_output</text>
</g>
<!-- icmp6_local_send&#45;&gt;icmp6_output -->
<g id="edge54" class="edge">
<title>icmp6_local_send&#45;&gt;icmp6_output</title>
<path fill="none" stroke="black" d="M1000.11,-254.39C1153.12,-255.65 1597.86,-259.3 1749.68,-260.54"/>
<polygon fill="black" stroke="black" points="1750.07,-264.05 1760.1,-260.63 1750.13,-257.05 1750.07,-264.05"/>
</g>
<!-- ndp_ns_output&#45;&gt;icmp6_output -->
<g id="edge70" class="edge">
<title>ndp_ns_output&#45;&gt;icmp6_output</title>
<path fill="none" stroke="black" d="M1124.51,-301.39C1250.14,-293.88 1615.38,-272.06 1750.31,-264"/>
<polygon fill="black" stroke="black" points="1750.61,-267.49 1760.38,-263.4 1750.19,-260.51 1750.61,-267.49"/>
</g>
<!-- ip_output&#45;&gt;eth_output -->
<g id="edge43" class="edge">
<title>ip_output&#45;&gt;eth_output</title>
<path fill="none" stroke="black" d="M1101.08,-689.95C1116.66,-699.56 1139.3,-712.13 1160.87,-718.96 1224.28,-739.04 1242.8,-737.96 1309.3,-737.96 1309.3,-737.96 1309.3,-737.96 1803.19,-737.96 1906.63,-737.96 2013.64,-810 2061.59,-846.82"/>
<polygon fill="black" stroke="black" points="2059.54,-849.66 2069.58,-853.05 2063.85,-844.14 2059.54,-849.66"/>
</g>
<!-- loop_xvrf -->
<g id="node20" class="node">
<title>loop_xvrf</title>
<ellipse fill="none" stroke="black" cx="1195.07" cy="-458.96" rx="28.53" ry="18"/>
<text text-anchor="middle" x="1195.07" y="-456.16" font-family="sans" font-size="11.00">loop_xvrf</text>
</g>
<!-- ip_output&#45;&gt;loop_xvrf -->
<g id="edge45" class="edge">
<title>ip_output&#45;&gt;loop_xvrf</title>
<path fill="none" stroke="black" d="M1090.21,-659.86C1109.88,-621.81 1157.35,-530 1180.67,-484.87"/>
<polygon fill="black" stroke="black" points="1183.78,-486.48 1185.26,-475.99 1177.56,-483.27 1183.78,-486.48"/>
</g>
<!-- ip_hold -->
<g id="node29" class="node">
<title>ip_hold</title>
<ellipse fill="none" stroke="black" cx="1310.3" cy="-653.96" rx="27" ry="18"/>
<text text-anchor="middle" x="1310.3" y="-651.16" font-family="sans" font-size="11.00">ip_hold</text>
</g>
<!-- ip_output&#45;&gt;ip_hold -->
<g id="edge44" class="edge">
<title>ip_output&#45;&gt;ip_hold</title>
<path fill="none" stroke="black" d="M1108.9,-672.28C1124.17,-669.82 1143.54,-666.91 1160.87,-664.96 1199.12,-660.67 1243.1,-657.65 1273.2,-655.87"/>
<polygon fill="black" stroke="black" points="1273.46,-659.36 1283.24,-655.3 1273.06,-652.38 1273.46,-659.36"/>
</g>
<!-- ipip_output -->
<g id="node32" class="node">
<title>ipip_output</title>
<ellipse fill="none" stroke="black" cx="1195.07" cy="-691.96" rx="34.38" ry="18"/>
<text text-anchor="middle" x="1195.07" y="-689.16" font-family="sans" font-size="11.00">ipip_output</text>
</g>
<!-- ip_output&#45;&gt;ipip_output -->
<g id="edge46" class="edge">
<title>ip_output&#45;&gt;ipip_output</title>
<path fill="none" stroke="black" d="M1109.52,-674.78C1123.5,-675.76 1140.61,-677.87 1155.77,-680.43"/>
<polygon fill="black" stroke="black" points="1155.42,-683.93 1165.89,-682.28 1156.68,-677.04 1155.42,-683.93"/>
</g>
<!-- sr6_output -->
<g id="node33" class="node">
<title>sr6_output</title>
<ellipse fill="none" stroke="black" cx="2088.56" cy="-439.96" rx="33.21" ry="18"/>
<text text-anchor="middle" x="2088.56" y="-437.16" font-family="sans" font-size="11.00">sr6_output</text>
</g>
<!-- ip_output&#45;&gt;sr6_output -->
<g id="edge47" class="edge">
<title>ip_output&#45;&gt;sr6_output</title>
<path fill="none" stroke="black" d="M1103.35,-665.57C1143.24,-645.97 1230.75,-607.96 1309.3,-607.96 1309.3,-607.96 1309.3,-607.96 1667.33,-607.96 1820.13,-607.96 1862.3,-583.69 1997.75,-512.96 2022.92,-499.82 2047.68,-478.93 2064.8,-462.86"/>
<polygon fill="black" stroke="black" points="2067.31,-465.31 2072.11,-455.87 2062.47,-460.26 2067.31,-465.31"/>
</g>
<!-- arp_output_reply&#45;&gt;eth_output -->
<g id="edge26" class="edge">
<title>arp_output_reply&#45;&gt;eth_output</title>
<path fill="none" stroke="black" d="M635.2,-912.63C683.29,-909.73 758,-905.96 822.85,-905.96 822.85,-905.96 822.85,-905.96 1803.19,-905.96 1890.69,-905.96 1992.02,-888.07 2046.99,-876.84"/>
<polygon fill="black" stroke="black" points="2047.94,-880.22 2057.02,-874.76 2046.52,-873.36 2047.94,-880.22"/>
</g>
<!-- ip6_output&#45;&gt;eth_output -->
<g id="edge63" class="edge">
<title>ip6_output&#45;&gt;eth_output</title>
<path fill="none" stroke="black" d="M1970.19,-430.01C1980.3,-437.23 1991.43,-447.14 1997.75,-458.96 2063.92,-582.87 1990.26,-639.4 2033.75,-772.96 2041.97,-798.21 2057.3,-824.27 2069.51,-842.7"/>
<polygon fill="black" stroke="black" points="2066.69,-844.78 2075.2,-851.09 2072.49,-840.85 2066.69,-844.78"/>
</g>
<!-- ip6_output&#45;&gt;loop_xvrf -->
<g id="edge65" class="edge">
<title>ip6_output&#45;&gt;loop_xvrf</title>
<path fill="none" stroke="black" d="M1918.45,-425.78C1901.87,-430.69 1880.32,-436.51 1860.8,-439.96 1654.78,-476.46 1600.4,-483.51 1391.35,-474.96 1336.4,-472.72 1272.97,-466.93 1233.68,-462.97"/>
<polygon fill="black" stroke="black" points="1233.82,-459.46 1223.51,-461.93 1233.1,-466.42 1233.82,-459.46"/>
</g>
<!-- ip6_output&#45;&gt;sr6_output -->
<g id="edge66" class="edge">
<title>ip6_output&#45;&gt;sr6_output</title>
<path fill="none" stroke="black" d="M1979.88,-416.42C2000.95,-418.68 2028.71,-423.17 2050.77,-427.86"/>
<polygon fill="black" stroke="black" points="2050.25,-431.33 2060.77,-430.09 2051.77,-424.49 2050.25,-431.33"/>
</g>
<!-- ip6_hold -->
<g id="node40" class="node">
<title>ip6_hold</title>
<ellipse fill="none" stroke="black" cx="2088.56" cy="-385.96" rx="27" ry="18"/>
<text text-anchor="middle" x="2088.56" y="-383.16" font-family="sans" font-size="11.00">ip6_hold</text>
</g>
<!-- ip6_output&#45;&gt;ip6_hold -->
<g id="edge64" class="edge">
<title>ip6_output&#45;&gt;ip6_hold</title>
<path fill="none" stroke="black" d="M1977.81,-410.39C1999.7,-405.52 2029.59,-398.87 2052.66,-393.73"/>
<polygon fill="black" stroke="black" points="2053.72,-397.08 2062.72,-391.49 2052.2,-390.25 2053.72,-397.08"/>
</g>
<!-- ndp_na_output&#45;&gt;icmp6_output -->
<g id="edge68" class="edge">
<title>ndp_na_output&#45;&gt;icmp6_output</title>
<path fill="none" stroke="black" d="M1354.8,-200.52C1428.5,-195.84 1582.11,-191.04 1707.57,-219.96 1728,-224.67 1749.5,-233.77 1766.75,-242.19"/>
<polygon fill="black" stroke="black" points="1765.35,-245.41 1775.85,-246.78 1768.49,-239.16 1765.35,-245.41"/>
</g>
<!-- control_output -->
<g id="node11" class="node">
<title>control_output</title>
<ellipse fill="none" stroke="black" cx="2223.88" cy="-435.96" rx="44.51" ry="18"/>
<text text-anchor="middle" x="2223.88" y="-433.16" font-family="sans" font-size="11.00">control_output</text>
</g>
<!-- arp_input -->
<g id="node13" class="node">
<title>arp_input</title>
<ellipse fill="none" stroke="black" cx="1947.27" cy="-691.96" rx="29.12" ry="18"/>
<text text-anchor="middle" x="1947.27" y="-689.16" font-family="sans" font-size="11.00">arp_input</text>
</g>
<!-- eth_input&#45;&gt;arp_input -->
<g id="edge11" class="edge">
<title>eth_input&#45;&gt;arp_input</title>
<path fill="none" stroke="black" d="M306.71,-581.97C344.13,-626.74 458.46,-749.96 583.15,-749.96 583.15,-749.96 583.15,-749.96 713.95,-749.96 876.77,-749.96 916.55,-775.96 1079.37,-775.96 1079.37,-775.96 1079.37,-775.96 1667.33,-775.96 1760.69,-775.96 1864.46,-732.29 1915.07,-707.92"/>
<polygon fill="black" stroke="black" points="1916.73,-711.01 1924.18,-703.47 1913.66,-704.72 1916.73,-711.01"/>
</g>
<!-- ip_input -->
<g id="node14" class="node">
<title>ip_input</title>
<ellipse fill="none" stroke="black" cx="437.43" cy="-565.96" rx="27" ry="18"/>
<text text-anchor="middle" x="437.43" y="-563.16" font-family="sans" font-size="11.00">ip_input</text>
</g>
<!-- eth_input&#45;&gt;ip_input -->
<g id="edge12" class="edge">
<title>eth_input&#45;&gt;ip_input</title>
<path fill="none" stroke="black" d="M322.39,-565.96C344.75,-565.96 376.03,-565.96 400.18,-565.96"/>
<polygon fill="black" stroke="black" points="400.38,-569.46 410.38,-565.96 400.38,-562.46 400.38,-569.46"/>
</g>
<!-- ip6_input -->
<g id="node15" class="node">
<title>ip6_input</title>
<ellipse fill="none" stroke="black" cx="1310.3" cy="-371.96" rx="28.44" ry="18"/>
<text text-anchor="middle" x="1310.3" y="-369.16" font-family="sans" font-size="11.00">ip6_input</text>
</g>
<!-- eth_input&#45;&gt;ip6_input -->
<g id="edge13" class="edge">
<title>eth_input&#45;&gt;ip6_input</title>
<path fill="none" stroke="black" d="M305.58,-549.43C341.21,-501.19 453.91,-363.96 583.15,-363.96 583.15,-363.96 583.15,-363.96 1081.37,-363.96 1148.45,-363.96 1226.57,-367.47 1271.74,-369.84"/>
<polygon fill="black" stroke="black" points="1271.77,-373.35 1281.95,-370.38 1272.15,-366.36 1271.77,-373.35"/>
</g>
<!-- arp_input_request -->
<g id="node22" class="node">
<title>arp_input_request</title>
<ellipse fill="none" stroke="black" cx="2088.56" cy="-691.96" rx="54.63" ry="18"/>
<text text-anchor="middle" x="2088.56" y="-689.16" font-family="sans" font-size="11.00">arp_input_request</text>
</g>
<!-- arp_input&#45;&gt;arp_input_request -->
<g id="edge22" class="edge">
<title>arp_input&#45;&gt;arp_input_request</title>
<path fill="none" stroke="black" d="M1976.8,-691.96C1990.37,-691.96 2007.2,-691.96 2023.6,-691.96"/>
<polygon fill="black" stroke="black" points="2023.73,-695.46 2033.73,-691.96 2023.73,-688.46 2023.73,-695.46"/>
</g>
<!-- arp_input_reply -->
<g id="node23" class="node">
<title>arp_input_reply</title>
<ellipse fill="none" stroke="black" cx="2088.56" cy="-745.96" rx="47.43" ry="18"/>
<text text-anchor="middle" x="2088.56" y="-743.16" font-family="sans" font-size="11.00">arp_input_reply</text>
</g>
<!-- arp_input&#45;&gt;arp_input_reply -->
<g id="edge23" class="edge">
<title>arp_input&#45;&gt;arp_input_reply</title>
<path fill="none" stroke="black" d="M1972.54,-701.37C1992.54,-709.13 2021.39,-720.31 2045.19,-729.54"/>
<polygon fill="black" stroke="black" points="2044.12,-732.88 2054.71,-733.23 2046.65,-726.35 2044.12,-732.88"/>
</g>
<!-- ip_input&#45;&gt;ip_output -->
<g id="edge37" class="edge">
<title>ip_input&#45;&gt;ip_output</title>
<path fill="none" stroke="black" d="M452.35,-581.21C469.36,-598.68 499.93,-626.51 532.59,-638.96 625.62,-674.46 931.97,-677.31 1040.68,-677.18"/>
<polygon fill="black" stroke="black" points="1040.88,-680.68 1050.87,-677.15 1040.86,-673.68 1040.88,-680.68"/>
</g>
<!-- dnat44 -->
<g id="node24" class="node">
<title>dnat44</title>
<ellipse fill="none" stroke="black" cx="584.15" cy="-611.96" rx="27" ry="18"/>
<text text-anchor="middle" x="584.15" y="-609.16" font-family="sans" font-size="11.00">dnat44</text>
</g>
<!-- ip_input&#45;&gt;dnat44 -->
<g id="edge39" class="edge">
<title>ip_input&#45;&gt;dnat44</title>
<path fill="none" stroke="black" d="M462,-573.46C485.87,-581.04 522.98,-592.84 549.84,-601.38"/>
<polygon fill="black" stroke="black" points="548.99,-604.78 559.58,-604.47 551.11,-598.11 548.99,-604.78"/>
</g>
<!-- ip_forward -->
<g id="node25" class="node">
<title>ip_forward</title>
<ellipse fill="none" stroke="black" cx="712.95" cy="-703.96" rx="32.63" ry="18"/>
<text text-anchor="middle" x="712.95" y="-701.16" font-family="sans" font-size="11.00">ip_forward</text>
</g>
<!-- ip_input&#45;&gt;ip_forward -->
<g id="edge36" class="edge">
<title>ip_input&#45;&gt;ip_forward</title>
<path fill="none" stroke="black" d="M448.18,-582.72C463.09,-606.71 493.93,-650.32 532.59,-671.96 575.35,-695.91 632.05,-702.59 670.15,-704.14"/>
<polygon fill="black" stroke="black" points="670.28,-707.64 680.38,-704.45 670.49,-700.65 670.28,-707.64"/>
</g>
<!-- ip_input_local -->
<g id="node26" class="node">
<title>ip_input_local</title>
<ellipse fill="none" stroke="black" cx="712.95" cy="-527.96" rx="41.49" ry="18"/>
<text text-anchor="middle" x="712.95" y="-525.16" font-family="sans" font-size="11.00">ip_input_local</text>
</g>
<!-- ip_input&#45;&gt;ip_input_local -->
<g id="edge38" class="edge">
<title>ip_input&#45;&gt;ip_input_local</title>
<path fill="none" stroke="black" d="M463.99,-562.06C482.92,-559.2 509.35,-555.25 532.59,-551.96 576.62,-545.75 626.78,-539.07 662.84,-534.34"/>
<polygon fill="black" stroke="black" points="663.63,-537.77 673.09,-533 662.72,-530.83 663.63,-537.77"/>
</g>
<!-- ip6_input&#45;&gt;ip6_output -->
<g id="edge58" class="edge">
<title>ip6_input&#45;&gt;ip6_output</title>
<path fill="none" stroke="black" d="M1337.23,-377.54C1379.91,-386.21 1467.78,-401.96 1543.03,-401.96 1543.03,-401.96 1543.03,-401.96 1667.33,-401.96 1751.67,-401.96 1850.15,-408.89 1904.63,-413.33"/>
<polygon fill="black" stroke="black" points="1904.67,-416.84 1914.93,-414.18 1905.25,-409.87 1904.67,-416.84"/>
</g>
<!-- ip6_forward -->
<g id="node39" class="node">
<title>ip6_forward</title>
<ellipse fill="none" stroke="black" cx="1427.17" cy="-447.96" rx="35.64" ry="18"/>
<text text-anchor="middle" x="1427.17" y="-445.16" font-family="sans" font-size="11.00">ip6_forward</text>
</g>
<!-- ip6_input&#45;&gt;ip6_forward -->
<g id="edge57" class="edge">
<title>ip6_input&#45;&gt;ip6_forward</title>
<path fill="none" stroke="black" d="M1330.53,-384.69C1348.41,-396.52 1375.34,-414.33 1396.07,-428.05"/>
<polygon fill="black" stroke="black" points="1394.26,-431.05 1404.53,-433.65 1398.12,-425.21 1394.26,-431.05"/>
</g>
<!-- ip6_input_local -->
<g id="node41" class="node">
<title>ip6_input_local</title>
<ellipse fill="none" stroke="black" cx="1544.03" cy="-336.96" rx="45.09" ry="18"/>
<text text-anchor="middle" x="1544.03" y="-334.16" font-family="sans" font-size="11.00">ip6_input_local</text>
</g>
<!-- ip6_input&#45;&gt;ip6_input_local -->
<g id="edge59" class="edge">
<title>ip6_input&#45;&gt;ip6_input_local</title>
<path fill="none" stroke="black" d="M1337.89,-367.95C1375.21,-362.31 1443.9,-351.94 1491.45,-344.76"/>
<polygon fill="black" stroke="black" points="1492.19,-348.18 1501.56,-343.23 1491.15,-341.26 1492.19,-348.18"/>
</g>
<!-- sr6_local -->
<g id="node42" class="node">
<title>sr6_local</title>
<ellipse fill="none" stroke="black" cx="1427.17" cy="-317.96" rx="27.86" ry="18"/>
<text text-anchor="middle" x="1427.17" y="-315.16" font-family="sans" font-size="11.00">sr6_local</text>
</g>
<!-- ip6_input&#45;&gt;sr6_local -->
<g id="edge60" class="edge">
<title>ip6_input&#45;&gt;sr6_local</title>
<path fill="none" stroke="black" d="M1329.25,-358.46C1345.92,-348.89 1371.19,-336.62 1391.74,-327.91"/>
<polygon fill="black" stroke="black" points="1393.18,-331.1 1401.1,-324.06 1390.52,-324.62 1393.18,-331.1"/>
</g>
<!-- port_tx -->
<g id="node17" class="node">
<title>port_tx</title>
<ellipse fill="none" stroke="black" cx="2223.88" cy="-905.96" rx="27" ry="18"/>
<text text-anchor="middle" x="2223.88" y="-903.16" font-family="sans" font-size="11.00">port_tx</text>
</g>
<!-- eth_output&#45;&gt;port_tx -->
<g id="edge14" class="edge">
<title>eth_output&#45;&gt;port_tx</title>
<path fill="none" stroke="black" d="M2118.49,-876.21C2139.12,-882.09 2166.93,-890.02 2188.66,-896.21"/>
<polygon fill="black" stroke="black" points="2187.9,-899.63 2198.48,-899.01 2189.82,-892.9 2187.9,-899.63"/>
</g>
<!-- l1_xconnect -->
<g id="node18" class="node">
<title>l1_xconnect</title>
<ellipse fill="none" stroke="black" cx="1544.03" cy="-821.96" rx="36.23" ry="18"/>
<text text-anchor="middle" x="1544.03" y="-819.16" font-family="sans" font-size="11.00">l1_xconnect</text>
</g>
<!-- l1_xconnect&#45;&gt;port_tx -->
<g id="edge15" class="edge">
<title>l1_xconnect&#45;&gt;port_tx</title>
<path fill="none" stroke="black" d="M1578.38,-828.01C1657.25,-842.07 1861.59,-877.14 2033.75,-894.96 2086.83,-900.46 2148.59,-903.41 2186.72,-904.83"/>
<polygon fill="black" stroke="black" points="2186.7,-908.33 2196.82,-905.19 2186.95,-901.34 2186.7,-908.33"/>
</g>
<!-- loopback_output -->
<g id="node19" class="node">
<title>loopback_output</title>
<ellipse fill="none" stroke="black" cx="1947.27" cy="-485.96" rx="50.45" ry="18"/>
<text text-anchor="middle" x="1947.27" y="-483.16" font-family="sans" font-size="11.00">loopback_output</text>
</g>
<!-- loopback_output&#45;&gt;control_output -->
<g id="edge17" class="edge">
<title>loopback_output&#45;&gt;control_output</title>
<path fill="none" stroke="black" d="M1997.8,-484.88C2037.61,-483.13 2094.72,-478.59 2143.38,-466.96 2157.16,-463.67 2171.73,-458.52 2184.59,-453.35"/>
<polygon fill="black" stroke="black" points="2186.15,-456.49 2194.05,-449.42 2183.47,-450.02 2186.15,-456.49"/>
</g>
<!-- loop_xvrf&#45;&gt;ip_input -->
<g id="edge18" class="edge">
<title>loop_xvrf&#45;&gt;ip_input</title>
<path fill="none" stroke="black" d="M1166.14,-459.71C1087.74,-462.13 859.08,-471.39 671.7,-500.96 608.94,-510.87 593.65,-516.39 532.59,-533.96 511.87,-539.93 488.96,-547.69 470.93,-554.07"/>
<polygon fill="black" stroke="black" points="469.69,-550.8 461.45,-557.46 472.05,-557.39 469.69,-550.8"/>
</g>
<!-- loop_xvrf&#45;&gt;ip6_input -->
<g id="edge19" class="edge">
<title>loop_xvrf&#45;&gt;ip6_input</title>
<path fill="none" stroke="black" d="M1214.01,-445.18C1232.73,-430.8 1262.25,-408.12 1283.48,-391.81"/>
<polygon fill="black" stroke="black" points="1285.65,-394.55 1291.44,-385.69 1281.38,-389 1285.65,-394.55"/>
</g>
<!-- port_rx -->
<g id="node21" class="node">
<title>port_rx</title>
<ellipse fill="none" stroke="blue" stroke-width="2" cx="161.91" cy="-685.96" rx="27" ry="18"/>
<text text-anchor="middle" x="161.91" y="-683.16" font-family="sans" font-size="11.00">port_rx</text>
</g>
<!-- port_rx&#45;&gt;eth_input -->
<g id="edge20" class="edge">
<title>port_rx&#45;&gt;eth_input</title>
<path fill="none" stroke="blue" stroke-width="2" d="M178.47,-671.49C200.81,-650.7 242.17,-612.22 268.29,-587.92"/>
<polygon fill="blue" stroke="blue" stroke-width="2" points="270.93,-590.24 275.87,-580.87 266.16,-585.12 270.93,-590.24"/>
</g>
<!-- port_rx&#45;&gt;l1_xconnect -->
<g id="edge21" class="edge">
<title>port_rx&#45;&gt;l1_xconnect</title>
<path fill="none" stroke="blue" stroke-width="2" d="M184.56,-696.31C239.63,-722.24 384.36,-787.96 436.43,-787.96 436.43,-787.96 436.43,-787.96 713.95,-787.96 876.77,-787.96 916.55,-813.96 1079.37,-813.96 1079.37,-813.96 1079.37,-813.96 1311.3,-813.96 1376.05,-813.96 1450.91,-817.12 1497.62,-819.47"/>
<polygon fill="blue" stroke="blue" stroke-width="2" points="1497.55,-822.97 1507.71,-819.99 1497.91,-815.98 1497.55,-822.97"/>
</g>
<!-- arp_input_request&#45;&gt;control_output -->
<g id="edge25" class="edge">
<title>arp_input_request&#45;&gt;control_output</title>
<path fill="none" stroke="black" d="M2121.95,-677.59C2129.79,-672.89 2137.58,-667.02 2143.38,-659.96 2192,-600.78 2211.91,-509.66 2219.18,-464.03"/>
<polygon fill="black" stroke="black" points="2222.67,-464.38 2220.69,-453.97 2215.75,-463.34 2222.67,-464.38"/>
</g>
<!-- arp_input_reply&#45;&gt;control_output -->
<g id="edge24" class="edge">
<title>arp_input_reply&#45;&gt;control_output</title>
<path fill="none" stroke="black" d="M2124.19,-733.93C2131.34,-730.09 2138.25,-725.17 2143.38,-718.96 2206.4,-642.57 2219.56,-519.37 2222.24,-464.23"/>
<polygon fill="black" stroke="black" points="2225.74,-464.28 2222.65,-454.14 2218.74,-463.99 2225.74,-464.28"/>
</g>
<!-- dnat44&#45;&gt;ip_forward -->
<g id="edge28" class="edge">
<title>dnat44&#45;&gt;ip_forward</title>
<path fill="none" stroke="black" d="M603.05,-624.95C624.18,-640.28 659.56,-665.95 684.24,-683.86"/>
<polygon fill="black" stroke="black" points="682.33,-686.8 692.48,-689.84 686.44,-681.13 682.33,-686.8"/>
</g>
<!-- dnat44&#45;&gt;ip_input_local -->
<g id="edge29" class="edge">
<title>dnat44&#45;&gt;ip_input_local</title>
<path fill="none" stroke="black" d="M603.86,-599.57C624.1,-586.16 656.73,-564.55 680.84,-548.57"/>
<polygon fill="black" stroke="black" points="682.9,-551.41 689.3,-542.97 679.03,-545.57 682.9,-551.41"/>
</g>
<!-- ip_forward&#45;&gt;ip_output -->
<g id="edge34" class="edge">
<title>ip_forward&#45;&gt;ip_output</title>
<path fill="none" stroke="black" d="M745.42,-701.64C812.25,-696.7 968.13,-685.18 1040.8,-679.81"/>
<polygon fill="black" stroke="black" points="1041.18,-683.3 1050.9,-679.07 1040.67,-676.32 1041.18,-683.3"/>
</g>
<!-- icmp_input -->
<g id="node27" class="node">
<title>icmp_input</title>
<ellipse fill="none" stroke="black" cx="823.85" cy="-561.96" rx="33.8" ry="18"/>
<text text-anchor="middle" x="823.85" y="-559.16" font-family="sans" font-size="11.00">icmp_input</text>
</g>
<!-- ip_input_local&#45;&gt;icmp_input -->
<g id="edge40" class="edge">
<title>ip_input_local&#45;&gt;icmp_input</title>
<path fill="none" stroke="black" d="M746.92,-538.26C758.87,-541.99 772.47,-546.24 784.82,-550.09"/>
<polygon fill="black" stroke="black" points="783.82,-553.45 794.41,-553.09 785.91,-546.76 783.82,-553.45"/>
</g>
<!-- ipip_input -->
<g id="node30" class="node">
<title>ipip_input</title>
<ellipse fill="none" stroke="black" cx="823.85" cy="-615.96" rx="29.7" ry="18"/>
<text text-anchor="middle" x="823.85" y="-613.16" font-family="sans" font-size="11.00">ipip_input</text>
</g>
<!-- ip_input_local&#45;&gt;ipip_input -->
<g id="edge41" class="edge">
<title>ip_input_local&#45;&gt;ipip_input</title>
<path fill="none" stroke="black" d="M733.64,-543.54C740.2,-548.75 747.52,-554.59 754.2,-559.96 768.54,-571.52 784.49,-584.52 797.4,-595.08"/>
<polygon fill="black" stroke="black" points="795.45,-598.01 805.4,-601.63 799.88,-592.59 795.45,-598.01"/>
</g>
<!-- l4_input_local -->
<g id="node31" class="node">
<title>l4_input_local</title>
<ellipse fill="none" stroke="black" cx="1666.33" cy="-523.96" rx="41.49" ry="18"/>
<text text-anchor="middle" x="1666.33" y="-521.16" font-family="sans" font-size="11.00">l4_input_local</text>
</g>
<!-- ip_input_local&#45;&gt;l4_input_local -->
<g id="edge42" class="edge">
<title>ip_input_local&#45;&gt;l4_input_local</title>
<path fill="none" stroke="black" d="M754.22,-527.8C906.47,-527.16 1446.79,-524.88 1614.98,-524.18"/>
<polygon fill="black" stroke="black" points="1615.06,-527.68 1625.04,-524.13 1615.03,-520.68 1615.06,-527.68"/>
</g>
<!-- icmp_input&#45;&gt;control_output -->
<g id="edge31" class="edge">
<title>icmp_input&#45;&gt;control_output</title>
<path fill="none" stroke="black" d="M857.38,-563.64C905.77,-565.99 999.57,-569.96 1079.37,-569.96 1079.37,-569.96 1079.37,-569.96 1948.27,-569.96 2048.36,-569.96 2150.08,-497.18 2196.66,-458.9"/>
<polygon fill="black" stroke="black" points="2199.01,-461.49 2204.44,-452.4 2194.52,-456.12 2199.01,-461.49"/>
</g>
<!-- icmp_input&#45;&gt;icmp_output -->
<g id="edge30" class="edge">
<title>icmp_input&#45;&gt;icmp_output</title>
<path fill="none" stroke="black" d="M850.18,-573.28C867.23,-580.9 889.98,-591.07 909.01,-599.57"/>
<polygon fill="black" stroke="black" points="907.72,-602.84 918.28,-603.72 910.58,-596.44 907.72,-602.84"/>
</g>
<!-- icmp_output&#45;&gt;ip_output -->
<g id="edge33" class="edge">
<title>icmp_output&#45;&gt;ip_output</title>
<path fill="none" stroke="black" d="M974.33,-628.31C995.38,-638.06 1024.82,-651.69 1047.18,-662.05"/>
<polygon fill="black" stroke="black" points="1045.74,-665.24 1056.28,-666.27 1048.68,-658.89 1045.74,-665.24"/>
</g>
<!-- ip_hold&#45;&gt;control_output -->
<g id="edge35" class="edge">
<title>ip_hold&#45;&gt;control_output</title>
<path fill="none" stroke="black" d="M1337.36,-652.48C1380.23,-650.17 1468.36,-645.96 1543.03,-645.96 1543.03,-645.96 1543.03,-645.96 1948.27,-645.96 2039.26,-645.96 2073.37,-642.07 2143.38,-583.96 2181.65,-552.2 2204.21,-497.07 2215.01,-463.81"/>
<polygon fill="black" stroke="black" points="2218.49,-464.42 2218.11,-453.84 2211.8,-462.35 2218.49,-464.42"/>
</g>
<!-- ipip_input&#45;&gt;ip_input -->
<g id="edge72" class="edge">
<title>ipip_input&#45;&gt;ip_input</title>
<path fill="none" stroke="black" d="M795.03,-610.75C758.56,-604.05 692.52,-592.4 635.7,-584.96 579.61,-577.63 514.19,-571.88 474.57,-568.7"/>
<polygon fill="black" stroke="black" points="474.59,-565.19 464.35,-567.89 474.04,-572.17 474.59,-565.19"/>
</g>
<!-- l4_loopback_output -->
<g id="node43" class="node">
<title>l4_loopback_output</title>
<ellipse fill="none" stroke="black" cx="1802.19" cy="-523.96" rx="58.73" ry="18"/>
<text text-anchor="middle" x="1802.19" y="-521.16" font-family="sans" font-size="11.00">l4_loopback_output</text>
</g>
<!-- l4_input_local&#45;&gt;l4_loopback_output -->
<g id="edge74" class="edge">
<title>l4_input_local&#45;&gt;l4_loopback_output</title>
<path fill="none" stroke="black" d="M1707.85,-523.96C1715.93,-523.96 1724.61,-523.96 1733.32,-523.96"/>
<polygon fill="black" stroke="black" points="1733.52,-527.46 1743.52,-523.96 1733.52,-520.46 1733.52,-527.46"/>
</g>
<!-- ipip_output&#45;&gt;ip_output -->
<g id="edge73" class="edge">
<title>ipip_output&#45;&gt;ip_output</title>
<path fill="none" stroke="black" d="M1160.68,-693.75C1146.52,-692.55 1130.02,-690.37 1115.76,-687.81"/>
<polygon fill="black" stroke="black" points="1116.31,-684.36 1105.82,-685.9 1114.98,-691.23 1116.31,-684.36"/>
</g>
<!-- sr6_output&#45;&gt;ip6_output -->
<g id="edge79" class="edge">
<title>sr6_output&#45;&gt;ip6_output</title>
<path fill="none" stroke="black" d="M2055.26,-440.43C2034.17,-438.14 2006.59,-433.66 1984.72,-429"/>
<polygon fill="black" stroke="black" points="1985.32,-425.55 1974.8,-426.78 1983.8,-432.38 1985.32,-425.55"/>
</g>
<!-- icmp6_input -->
<g id="node34" class="node">
<title>icmp6_input</title>
<ellipse fill="none" stroke="black" cx="1666.33" cy="-93.96" rx="37.4" ry="18"/>
<text text-anchor="middle" x="1666.33" y="-91.16" font-family="sans" font-size="11.00">icmp6_input</text>
</g>
<!-- icmp6_input&#45;&gt;control_output -->
<g id="edge52" class="edge">
<title>icmp6_input&#45;&gt;control_output</title>
<path fill="none" stroke="black" d="M1703.86,-95.91C1743.43,-98.87 1807.97,-106.18 1860.8,-123.96 1996.56,-169.65 2044.08,-175.73 2143.38,-278.96 2179.65,-316.68 2202.98,-374.21 2214.44,-408.15"/>
<polygon fill="black" stroke="black" points="2211.19,-409.46 2217.62,-417.88 2217.84,-407.29 2211.19,-409.46"/>
</g>
<!-- icmp6_input&#45;&gt;icmp6_output -->
<g id="edge48" class="edge">
<title>icmp6_input&#45;&gt;icmp6_output</title>
<path fill="none" stroke="black" d="M1680.9,-110.9C1704.55,-140.4 1753.43,-201.38 1781.04,-235.84"/>
<polygon fill="black" stroke="black" points="1778.59,-238.37 1787.58,-243.99 1784.06,-234 1778.59,-238.37"/>
</g>
<!-- ndp_ns_input -->
<g id="node36" class="node">
<title>ndp_ns_input</title>
<ellipse fill="none" stroke="black" cx="1947.27" cy="-66.96" rx="40.32" ry="18"/>
<text text-anchor="middle" x="1947.27" y="-64.16" font-family="sans" font-size="11.00">ndp_ns_input</text>
</g>
<!-- icmp6_input&#45;&gt;ndp_ns_input -->
<g id="edge49" class="edge">
<title>icmp6_input&#45;&gt;ndp_ns_input</title>
<path fill="none" stroke="black" d="M1703.22,-90.49C1752.71,-85.7 1842.06,-77.05 1897.55,-71.68"/>
<polygon fill="black" stroke="black" points="1898.22,-75.13 1907.83,-70.69 1897.54,-68.17 1898.22,-75.13"/>
</g>
<!-- ndp_na_input -->
<g id="node37" class="node">
<title>ndp_na_input</title>
<ellipse fill="none" stroke="black" cx="1802.19" cy="-20.96" rx="40.91" ry="18"/>
<text text-anchor="middle" x="1802.19" y="-18.16" font-family="sans" font-size="11.00">ndp_na_input</text>
</g>
<!-- icmp6_input&#45;&gt;ndp_na_input -->
<g id="edge50" class="edge">
<title>icmp6_input&#45;&gt;ndp_na_input</title>
<path fill="none" stroke="black" d="M1691.88,-80.58C1712.93,-69.09 1743.5,-52.43 1766.95,-39.63"/>
<polygon fill="black" stroke="black" points="1768.78,-42.63 1775.88,-34.77 1765.43,-36.48 1768.78,-42.63"/>
</g>
<!-- ndp_rs_input -->
<g id="node38" class="node">
<title>ndp_rs_input</title>
<ellipse fill="none" stroke="black" cx="1802.19" cy="-150.96" rx="39.15" ry="18"/>
<text text-anchor="middle" x="1802.19" y="-148.16" font-family="sans" font-size="11.00">ndp_rs_input</text>
</g>
<!-- icmp6_input&#45;&gt;ndp_rs_input -->
<g id="edge51" class="edge">
<title>icmp6_input&#45;&gt;ndp_rs_input</title>
<path fill="none" stroke="black" d="M1695.06,-105.78C1714.94,-114.24 1741.94,-125.74 1763.73,-135.02"/>
<polygon fill="black" stroke="black" points="1762.45,-138.28 1773.03,-138.97 1765.2,-131.84 1762.45,-138.28"/>
</g>
<!-- icmp6_output&#45;&gt;ip6_output -->
<g id="edge53" class="edge">
<title>icmp6_output&#45;&gt;ip6_output</title>
<path fill="none" stroke="black" d="M1818.5,-277.66C1844.02,-305.48 1895.33,-361.43 1924.57,-393.3"/>
<polygon fill="black" stroke="black" points="1922.16,-395.85 1931.5,-400.86 1927.32,-391.12 1922.16,-395.85"/>
</g>
<!-- ndp_ns_input&#45;&gt;control_output -->
<g id="edge69" class="edge">
<title>ndp_ns_input&#45;&gt;control_output</title>
<path fill="none" stroke="black" d="M1985.86,-61.83C2029.52,-58.12 2100.97,-59.39 2143.38,-98.96 2188.73,-141.29 2212.63,-334.44 2220.19,-407.69"/>
<polygon fill="black" stroke="black" points="2216.74,-408.38 2221.23,-417.98 2223.71,-407.68 2216.74,-408.38"/>
</g>
<!-- ndp_na_input&#45;&gt;control_output -->
<g id="edge67" class="edge">
<title>ndp_na_input&#45;&gt;control_output</title>
<path fill="none" stroke="black" d="M1838.45,-12.7C1906.91,1.06 2058.52,20.02 2143.38,-57.96 2195.01,-105.42 2215.34,-327.67 2221.06,-407.4"/>
<polygon fill="black" stroke="black" points="2217.58,-407.94 2221.77,-417.67 2224.57,-407.46 2217.58,-407.94"/>
</g>
<!-- ndp_rs_input&#45;&gt;control_output -->
<g id="edge71" class="edge">
<title>ndp_rs_input&#45;&gt;control_output</title>
<path fill="none" stroke="black" d="M1829.24,-164.23C1888.01,-194.72 2034.28,-273.73 2143.38,-358.96 2163.94,-375.03 2185.05,-395.71 2200.35,-411.6"/>
<polygon fill="black" stroke="black" points="2197.94,-414.14 2207.37,-418.97 2203.01,-409.31 2197.94,-414.14"/>
</g>
<!-- ip6_forward&#45;&gt;ip6_output -->
<g id="edge55" class="edge">
<title>ip6_forward&#45;&gt;ip6_output</title>
<path fill="none" stroke="black" d="M1462.97,-445.88C1555.02,-440.37 1804.66,-425.44 1904.34,-419.47"/>
<polygon fill="black" stroke="black" points="1904.85,-422.95 1914.63,-418.86 1904.43,-415.96 1904.85,-422.95"/>
</g>
<!-- ip6_hold&#45;&gt;control_output -->
<g id="edge56" class="edge">
<title>ip6_hold&#45;&gt;control_output</title>
<path fill="none" stroke="black" d="M2112.48,-394.56C2131.24,-401.6 2158.28,-411.74 2180.9,-420.22"/>
<polygon fill="black" stroke="black" points="2179.7,-423.51 2190.29,-423.74 2182.15,-416.95 2179.7,-423.51"/>
</g>
<!-- ip6_input_local&#45;&gt;l4_input_local -->
<g id="edge62" class="edge">
<title>ip6_input_local&#45;&gt;l4_input_local</title>
<path fill="none" stroke="black" d="M1556.35,-354.56C1577.63,-387.64 1623.7,-459.25 1648.58,-497.93"/>
<polygon fill="black" stroke="black" points="1645.77,-500.04 1654.13,-506.56 1651.66,-496.25 1645.77,-500.04"/>
</g>
<!-- ip6_input_local&#45;&gt;icmp6_input -->
<g id="edge61" class="edge">
<title>ip6_input_local&#45;&gt;icmp6_input</title>
<path fill="none" stroke="black" d="M1553.88,-319.1C1574.79,-276.86 1627.34,-170.69 1652.07,-120.74"/>
<polygon fill="black" stroke="black" points="1655.33,-122.05 1656.63,-111.53 1649.06,-118.94 1655.33,-122.05"/>
</g>
<!-- sr6_local&#45;&gt;ip_input -->
<g id="edge76" class="edge">
<title>sr6_local&#45;&gt;ip_input</title>
<path fill="none" stroke="black" d="M1400.23,-322.22C1368.42,-327.47 1312.84,-336.7 1265.26,-344.96 1123.97,-369.5 1091.08,-401.96 947.68,-401.96 711.95,-401.96 711.95,-401.96 711.95,-401.96 603.57,-401.96 501.01,-497.85 458.74,-542.99"/>
<polygon fill="black" stroke="black" points="455.99,-540.81 451.79,-550.54 461.14,-545.55 455.99,-540.81"/>
</g>
<!-- sr6_local&#45;&gt;ip6_input -->
<g id="edge77" class="edge">
<title>sr6_local&#45;&gt;ip6_input</title>
<path fill="none" stroke="black" d="M1408.24,-331.46C1391.68,-340.97 1366.62,-353.15 1346.13,-361.85"/>
<polygon fill="black" stroke="black" points="1344.71,-358.65 1336.8,-365.7 1347.38,-365.13 1344.71,-358.65"/>
</g>
<!-- sr6_local&#45;&gt;ip6_input_local -->
<g id="edge78" class="edge">
<title>sr6_local&#45;&gt;ip6_input_local</title>
<path fill="none" stroke="black" d="M1454.23,-322.28C1465.52,-324.14 1479.14,-326.4 1492.29,-328.57"/>
<polygon fill="black" stroke="black" points="1491.76,-332.03 1502.2,-330.21 1492.91,-325.13 1491.76,-332.03"/>
</g>
<!-- l4_loopback_output&#45;&gt;loopback_output -->
<g id="edge75" class="edge">
<title>l4_loopback_output&#45;&gt;loopback_output</title>
<path fill="none" stroke="black" d="M1847.29,-512.25C1862.79,-508.14 1880.32,-503.48 1896.28,-499.24"/>
<polygon fill="black" stroke="black" points="1897.21,-502.62 1905.97,-496.67 1895.41,-495.85 1897.21,-502.62"/>
</g>
</g>
</svg>
