<?xml version="1.0" encoding="UTF-8" standalone="no"?>
<!DOCTYPE svg PUBLIC "-//W3C//DTD SVG 1.1//EN"
 "http://www.w3.org/Graphics/SVG/1.1/DTD/svg11.dtd">
<!-- Generated by graphviz version 13.1.2 (20250808.2320)
 -->
<!-- Pages: 1 -->
<svg width="2270pt" height="851pt"
 viewBox="0.00 0.00 2270.00 851.00" xmlns="http://www.w3.org/2000/svg" xmlns:xlink="http://www.w3.org/1999/xlink">
<g id="graph0" class="graph" transform="scale(1 1) rotate(0) translate(4 847)">
<polygon fill="white" stroke="none" points="-4,4 -4,-847 2265.96,-847 2265.96,4 -4,4"/>
<!-- bond_output -->
<g id="node1" class="node">
<title>bond_output</title>
<ellipse fill="none" stroke="black" cx="2021.2" cy="-257" rx="39.94" ry="18"/>
<text xml:space="preserve" text-anchor="middle" x="2021.2" y="-253.3" font-family="sans" font-size="11.00">bond_output</text>
</g>
<!-- port_output -->
<g id="node3" class="node">
<title>port_output</title>
<ellipse fill="none" stroke="black" cx="2134.55" cy="-303" rx="37.41" ry="18"/>
<text xml:space="preserve" text-anchor="middle" x="2134.55" y="-299.3" font-family="sans" font-size="11.00">port_output</text>
</g>
<!-- bond_output&#45;&gt;port_output -->
<g id="edge1" class="edge">
<title>bond_output&#45;&gt;port_output</title>
<path fill="none" stroke="black" d="M2051.45,-269.09C2064.7,-274.56 2080.55,-281.1 2094.77,-286.98"/>
<polygon fill="black" stroke="black" points="2093.28,-290.15 2103.86,-290.73 2095.95,-283.68 2093.28,-290.15"/>
</g>
<!-- l1_xconnect -->
<g id="node2" class="node">
<title>l1_xconnect</title>
<ellipse fill="none" stroke="black" cx="905.82" cy="-781" rx="38.25" ry="18"/>
<text xml:space="preserve" text-anchor="middle" x="905.82" y="-777.3" font-family="sans" font-size="11.00">l1_xconnect</text>
</g>
<!-- l1_xconnect&#45;&gt;port_output -->
<g id="edge9" class="edge">
<title>l1_xconnect&#45;&gt;port_output</title>
<path fill="none" stroke="black" d="M933.21,-793.85C973.01,-812.01 1051.23,-843 1121.42,-843 1121.42,-843 1121.42,-843 1911.37,-843 2022.76,-843 2106.62,-445.13 2128.14,-332.43"/>
<polygon fill="black" stroke="black" points="2131.55,-333.24 2129.97,-322.76 2124.67,-331.94 2131.55,-333.24"/>
</g>
<!-- port_tx -->
<g id="node5" class="node">
<title>port_tx</title>
<ellipse fill="none" stroke="black" cx="2234.96" cy="-303" rx="27" ry="18"/>
<text xml:space="preserve" text-anchor="middle" x="2234.96" y="-299.3" font-family="sans" font-size="11.00">port_tx</text>
</g>
<!-- port_output&#45;&gt;port_tx -->
<g id="edge15" class="edge">
<title>port_output&#45;&gt;port_tx</title>
<path fill="none" stroke="black" d="M2172.19,-303C2180.12,-303 2188.52,-303 2196.48,-303"/>
<polygon fill="black" stroke="black" points="2196.22,-306.5 2206.22,-303 2196.22,-299.5 2196.22,-306.5"/>
</g>
<!-- port_rx -->
<g id="node4" class="node">
<title>port_rx</title>
<ellipse fill="none" stroke="blue" stroke-width="2" cx="27" cy="-451" rx="27" ry="18"/>
<text xml:space="preserve" text-anchor="middle" x="27" y="-447.3" font-family="sans" font-size="11.00">port_rx</text>
</g>
<!-- port_rx&#45;&gt;l1_xconnect -->
<g id="edge17" class="edge">
<title>port_rx&#45;&gt;l1_xconnect</title>
<path fill="none" stroke="blue" stroke-width="2" d="M32.37,-469.01C49.1,-533.06 115.29,-746 256.1,-746 256.1,-746 256.1,-746 650.92,-746 724.61,-746 809.21,-760.65 859.77,-770.99"/>
<polygon fill="blue" stroke="blue" stroke-width="2" points="857.47,-774.09 867.98,-772.7 858.9,-767.23 857.47,-774.09"/>
</g>
<!-- eth_input -->
<g id="node6" class="node">
<title>eth_input</title>
<ellipse fill="none" stroke="black" cx="138.07" cy="-310" rx="30.25" ry="18"/>
<text xml:space="preserve" text-anchor="middle" x="138.07" y="-306.3" font-family="sans" font-size="11.00">eth_input</text>
</g>
<!-- port_rx&#45;&gt;eth_input -->
<g id="edge16" class="edge">
<title>port_rx&#45;&gt;eth_input</title>
<path fill="none" stroke="blue" stroke-width="2" d="M40.3,-435.1C59.02,-410.9 94.85,-364.58 117.27,-335.6"/>
<polygon fill="blue" stroke="blue" stroke-width="2" points="119.11,-338.94 122.46,-328.89 113.58,-334.66 119.11,-338.94"/>
</g>
<!-- lacp_input -->
<g id="node8" class="node">
<title>lacp_input</title>
<polygon fill="none" stroke="dodgerblue" points="292.05,-117 222.15,-117 222.15,-81 292.05,-81 292.05,-117"/>
<text xml:space="preserve" text-anchor="middle" x="257.1" y="-95.3" font-family="sans" font-size="11.00">lacp_input</text>
</g>
<!-- eth_input&#45;&gt;lacp_input -->
<g id="edge3" class="edge">
<title>eth_input&#45;&gt;lacp_input</title>
<path fill="none" stroke="black" d="M144.84,-292.04C156.18,-258.36 183.68,-184.35 222.15,-131 223.43,-129.23 224.82,-127.47 226.27,-125.75"/>
<polygon fill="black" stroke="black" points="228.68,-128.3 232.95,-118.61 223.56,-123.52 228.68,-128.3"/>
</g>
<!-- snap_input -->
<g id="node10" class="node">
<title>snap_input</title>
<ellipse fill="none" stroke="black" cx="1122.42" cy="-145" rx="34.89" ry="18"/>
<text xml:space="preserve" text-anchor="middle" x="1122.42" y="-141.3" font-family="sans" font-size="11.00">snap_input</text>
</g>
<!-- eth_input&#45;&gt;snap_input -->
<g id="edge2" class="edge">
<title>eth_input&#45;&gt;snap_input</title>
<path fill="none" stroke="black" d="M151.33,-293.58C184,-251.84 277.94,-145 383.37,-145 383.37,-145 383.37,-145 906.82,-145 965.18,-145 1032.46,-145 1075.9,-145"/>
<polygon fill="black" stroke="black" points="1075.71,-148.5 1085.71,-145 1075.71,-141.5 1075.71,-148.5"/>
</g>
<!-- arp_input -->
<g id="node11" class="node">
<title>arp_input</title>
<ellipse fill="none" stroke="black" cx="257.1" cy="-45" rx="30.25" ry="18"/>
<text xml:space="preserve" text-anchor="middle" x="257.1" y="-41.3" font-family="sans" font-size="11.00">arp_input</text>
</g>
<!-- eth_input&#45;&gt;arp_input -->
<g id="edge4" class="edge">
<title>eth_input&#45;&gt;arp_input</title>
<path fill="none" stroke="black" d="M141.88,-291.7C149.06,-249.54 171.23,-143.73 222.15,-72 223.75,-69.74 225.59,-67.58 227.57,-65.52"/>
<polygon fill="black" stroke="black" points="229.48,-68.52 234.55,-59.22 224.79,-63.32 229.48,-68.52"/>
</g>
<!-- ip_input -->
<g id="node22" class="node">
<title>ip_input</title>
<ellipse fill="none" stroke="black" cx="257.1" cy="-452" rx="27" ry="18"/>
<text xml:space="preserve" text-anchor="middle" x="257.1" y="-448.3" font-family="sans" font-size="11.00">ip_input</text>
</g>
<!-- eth_input&#45;&gt;ip_input -->
<g id="edge5" class="edge">
<title>eth_input&#45;&gt;ip_input</title>
<path fill="none" stroke="black" d="M152.5,-326.29C172.98,-351.14 212.15,-398.67 236.02,-427.63"/>
<polygon fill="black" stroke="black" points="233.17,-429.67 242.23,-435.17 238.57,-425.22 233.17,-429.67"/>
</g>
<!-- ip6_input -->
<g id="node28" class="node">
<title>ip6_input</title>
<ellipse fill="none" stroke="black" cx="1122.42" cy="-589" rx="29.41" ry="18"/>
<text xml:space="preserve" text-anchor="middle" x="1122.42" y="-585.3" font-family="sans" font-size="11.00">ip6_input</text>
</g>
<!-- eth_input&#45;&gt;ip6_input -->
<g id="edge6" class="edge">
<title>eth_input&#45;&gt;ip6_input</title>
<path fill="none" stroke="black" d="M143.11,-327.94C159.59,-396.07 228.44,-635 383.37,-635 383.37,-635 383.37,-635 906.82,-635 971.69,-635 988.67,-632.02 1051.53,-616 1063.66,-612.91 1076.55,-608.32 1087.91,-603.81"/>
<polygon fill="black" stroke="black" points="1088.94,-607.17 1096.86,-600.13 1086.28,-600.69 1088.94,-607.17"/>
</g>
<!-- eth_output -->
<g id="node7" class="node">
<title>eth_output</title>
<ellipse fill="none" stroke="black" cx="1910.37" cy="-257" rx="34.89" ry="18"/>
<text xml:space="preserve" text-anchor="middle" x="1910.37" y="-253.3" font-family="sans" font-size="11.00">eth_output</text>
</g>
<!-- eth_output&#45;&gt;bond_output -->
<g id="edge7" class="edge">
<title>eth_output&#45;&gt;bond_output</title>
<path fill="none" stroke="black" d="M1945.51,-257C1953.13,-257 1961.38,-257 1969.51,-257"/>
<polygon fill="black" stroke="black" points="1969.35,-260.5 1979.35,-257 1969.35,-253.5 1969.35,-260.5"/>
</g>
<!-- eth_output&#45;&gt;port_output -->
<g id="edge8" class="edge">
<title>eth_output&#45;&gt;port_output</title>
<path fill="none" stroke="black" d="M1937.43,-268.82C1950.36,-274.23 1966.37,-280.26 1981.26,-284 2015.74,-292.67 2055.66,-297.47 2085.97,-300.07"/>
<polygon fill="black" stroke="black" points="2085.33,-303.53 2095.58,-300.84 2085.89,-296.55 2085.33,-303.53"/>
</g>
<!-- lacp_output -->
<g id="node9" class="node">
<title>lacp_output</title>
<polygon fill="none" stroke="dodgerblue" points="1818.11,-248 1739.96,-248 1739.96,-212 1818.11,-212 1818.11,-248"/>
<text xml:space="preserve" text-anchor="middle" x="1779.04" y="-226.3" font-family="sans" font-size="11.00">lacp_output</text>
</g>
<!-- lacp_output&#45;&gt;eth_output -->
<g id="edge10" class="edge">
<title>lacp_output&#45;&gt;eth_output</title>
<path fill="none" stroke="dodgerblue" d="M1818.49,-238.03C1833.59,-241.18 1850.99,-244.81 1866.49,-248.05"/>
<polygon fill="dodgerblue" stroke="dodgerblue" points="1865.4,-251.4 1875.9,-250.01 1866.83,-244.54 1865.4,-251.4"/>
</g>
<!-- l2_redirect -->
<g id="node51" class="node">
<title>l2_redirect</title>
<ellipse fill="none" stroke="black" cx="1622.01" cy="-210" rx="34.04" ry="18"/>
<text xml:space="preserve" text-anchor="middle" x="1622.01" y="-206.3" font-family="sans" font-size="11.00">l2_redirect</text>
</g>
<!-- snap_input&#45;&gt;l2_redirect -->
<g id="edge18" class="edge">
<title>snap_input&#45;&gt;l2_redirect</title>
<path fill="none" stroke="black" d="M1156.45,-149.32C1243.53,-160.69 1479.38,-191.5 1577.39,-204.3"/>
<polygon fill="black" stroke="black" points="1576.77,-207.75 1587.14,-205.57 1577.68,-200.81 1576.77,-207.75"/>
</g>
<!-- arp_input_reply -->
<g id="node12" class="node">
<title>arp_input_reply</title>
<polygon fill="none" stroke="dodgerblue" points="433.57,-90 335.17,-90 335.17,-54 433.57,-54 433.57,-90"/>
<text xml:space="preserve" text-anchor="middle" x="384.37" y="-68.3" font-family="sans" font-size="11.00">arp_input_reply</text>
</g>
<!-- arp_input&#45;&gt;arp_input_reply -->
<g id="edge20" class="edge">
<title>arp_input&#45;&gt;arp_input_reply</title>
<path fill="none" stroke="black" d="M285.9,-50.99C297.17,-53.42 310.63,-56.32 323.91,-59.18"/>
<polygon fill="black" stroke="black" points="322.97,-62.56 333.48,-61.25 324.45,-55.72 322.97,-62.56"/>
</g>
<!-- arp_input_request -->
<g id="node13" class="node">
<title>arp_input_request</title>
<polygon fill="none" stroke="dodgerblue" points="440.7,-36 328.05,-36 328.05,0 440.7,0 440.7,-36"/>
<text xml:space="preserve" text-anchor="middle" x="384.37" y="-14.3" font-family="sans" font-size="11.00">arp_input_request</text>
</g>
<!-- arp_input&#45;&gt;arp_input_request -->
<g id="edge19" class="edge">
<title>arp_input&#45;&gt;arp_input_request</title>
<path fill="none" stroke="black" d="M285.9,-39.01C295.05,-37.04 305.65,-34.75 316.43,-32.43"/>
<polygon fill="black" stroke="black" points="317.14,-35.86 326.18,-30.33 315.67,-29.01 317.14,-35.86"/>
</g>
<!-- arp_output_reply -->
<g id="node14" class="node">
<title>arp_output_reply</title>
<polygon fill="none" stroke="dodgerblue" points="1832.36,-194 1725.71,-194 1725.71,-158 1832.36,-158 1832.36,-194"/>
<text xml:space="preserve" text-anchor="middle" x="1779.04" y="-172.3" font-family="sans" font-size="11.00">arp_output_reply</text>
</g>
<!-- arp_output_reply&#45;&gt;eth_output -->
<g id="edge21" class="edge">
<title>arp_output_reply&#45;&gt;eth_output</title>
<path fill="none" stroke="dodgerblue" d="M1823.82,-194.47C1829.2,-197.15 1834.54,-200.02 1839.49,-203 1854.71,-212.17 1870.47,-224.1 1883.16,-234.41"/>
<polygon fill="dodgerblue" stroke="dodgerblue" points="1880.71,-236.93 1890.64,-240.61 1885.17,-231.54 1880.71,-236.93"/>
</g>
<!-- arp_output_request -->
<g id="node15" class="node">
<title>arp_output_request</title>
<polygon fill="none" stroke="dodgerblue" points="1839.49,-302 1718.59,-302 1718.59,-266 1839.49,-266 1839.49,-302"/>
<text xml:space="preserve" text-anchor="middle" x="1779.04" y="-280.3" font-family="sans" font-size="11.00">arp_output_request</text>
</g>
<!-- arp_output_request&#45;&gt;eth_output -->
<g id="edge22" class="edge">
<title>arp_output_request&#45;&gt;eth_output</title>
<path fill="none" stroke="dodgerblue" d="M1839.78,-271.53C1848.7,-269.67 1857.75,-267.78 1866.23,-266.01"/>
<polygon fill="dodgerblue" stroke="dodgerblue" points="1866.84,-269.45 1875.91,-263.99 1865.41,-262.6 1866.84,-269.45"/>
</g>
<!-- loopback_input -->
<g id="node16" class="node">
<title>loopback_input</title>
<polygon fill="none" stroke="dodgerblue" points="186.15,-600 90,-600 90,-564 186.15,-564 186.15,-600"/>
<text xml:space="preserve" text-anchor="middle" x="138.07" y="-578.3" font-family="sans" font-size="11.00">loopback_input</text>
</g>
<!-- loopback_input&#45;&gt;ip_input -->
<g id="edge11" class="edge">
<title>loopback_input&#45;&gt;ip_input</title>
<path fill="none" stroke="dodgerblue" d="M155.59,-563.65C176.33,-540.61 211.95,-501.04 234.74,-475.73"/>
<polygon fill="dodgerblue" stroke="dodgerblue" points="237.12,-478.31 241.21,-468.54 231.92,-473.63 237.12,-478.31"/>
</g>
<!-- loopback_input&#45;&gt;ip6_input -->
<g id="edge12" class="edge">
<title>loopback_input&#45;&gt;ip6_input</title>
<path fill="none" stroke="dodgerblue" d="M161.35,-600.45C184.74,-619.74 218.63,-647.46 222.15,-649 288.5,-678.09 310.93,-673 383.37,-673 383.37,-673 383.37,-673 906.82,-673 972.02,-673 992.46,-676.59 1051.53,-649 1069.83,-640.45 1087.09,-625.73 1099.88,-613.01"/>
<polygon fill="dodgerblue" stroke="dodgerblue" points="1102.11,-615.73 1106.55,-606.11 1097.08,-610.87 1102.11,-615.73"/>
</g>
<!-- loopback_output -->
<g id="node17" class="node">
<title>loopback_output</title>
<polygon fill="none" stroke="dodgerblue" points="1831.24,-431 1726.84,-431 1726.84,-395 1831.24,-395 1831.24,-431"/>
<text xml:space="preserve" text-anchor="middle" x="1779.04" y="-409.3" font-family="sans" font-size="11.00">loopback_output</text>
</g>
<!-- loop_xvrf -->
<g id="node18" class="node">
<title>loop_xvrf</title>
<ellipse fill="none" stroke="black" cx="1015.8" cy="-589" rx="29.83" ry="18"/>
<text xml:space="preserve" text-anchor="middle" x="1015.8" y="-585.3" font-family="sans" font-size="11.00">loop_xvrf</text>
</g>
<!-- loop_xvrf&#45;&gt;ip_input -->
<g id="edge13" class="edge">
<title>loop_xvrf&#45;&gt;ip_input</title>
<path fill="none" stroke="black" d="M985.48,-589C941.87,-589 857.34,-589 785.47,-589 518.59,-589 518.59,-589 518.59,-589 433.23,-589 399.87,-611.12 328.05,-565 297.3,-545.25 277.83,-506.69 267.45,-480.15"/>
<polygon fill="black" stroke="black" points="270.82,-479.19 264.07,-471.02 264.26,-481.62 270.82,-479.19"/>
</g>
<!-- loop_xvrf&#45;&gt;ip6_input -->
<g id="edge14" class="edge">
<title>loop_xvrf&#45;&gt;ip6_input</title>
<path fill="none" stroke="black" d="M1045.94,-589C1056.92,-589 1069.59,-589 1081.39,-589"/>
<polygon fill="black" stroke="black" points="1081.28,-592.5 1091.28,-589 1081.28,-585.5 1081.28,-592.5"/>
</g>
<!-- ip_forward -->
<g id="node19" class="node">
<title>ip_forward</title>
<ellipse fill="none" stroke="black" cx="519.59" cy="-365" rx="33.62" ry="18"/>
<text xml:space="preserve" text-anchor="middle" x="519.59" y="-361.3" font-family="sans" font-size="11.00">ip_forward</text>
</g>
<!-- ip_output -->
<g id="node25" class="node">
<title>ip_output</title>
<ellipse fill="none" stroke="black" cx="905.82" cy="-321" rx="30.25" ry="18"/>
<text xml:space="preserve" text-anchor="middle" x="905.82" y="-317.3" font-family="sans" font-size="11.00">ip_output</text>
</g>
<!-- ip_forward&#45;&gt;ip_output -->
<g id="edge26" class="edge">
<title>ip_forward&#45;&gt;ip_output</title>
<path fill="none" stroke="black" d="M544.62,-352.75C596.62,-327.75 723.62,-274.74 831.57,-294 844.75,-296.35 858.66,-300.91 870.78,-305.62"/>
<polygon fill="black" stroke="black" points="869.35,-308.81 879.93,-309.35 872,-302.33 869.35,-308.81"/>
</g>
<!-- ip_fragment -->
<g id="node20" class="node">
<title>ip_fragment</title>
<ellipse fill="none" stroke="black" cx="784.47" cy="-321" rx="38.25" ry="18"/>
<text xml:space="preserve" text-anchor="middle" x="784.47" y="-317.3" font-family="sans" font-size="11.00">ip_fragment</text>
</g>
<!-- ip_fragment&#45;&gt;ip_output -->
<g id="edge27" class="edge">
<title>ip_fragment&#45;&gt;ip_output</title>
<path fill="none" stroke="black" d="M820.96,-314.77C835.05,-314.13 851.32,-314.08 865.75,-314.62"/>
<polygon fill="black" stroke="black" points="865.18,-318.1 875.34,-315.1 865.53,-311.11 865.18,-318.1"/>
</g>
<!-- ip_hold -->
<g id="node21" class="node">
<title>ip_hold</title>
<polygon fill="none" stroke="dodgerblue" points="1042.8,-431 988.8,-431 988.8,-395 1042.8,-395 1042.8,-431"/>
<text xml:space="preserve" text-anchor="middle" x="1015.8" y="-409.3" font-family="sans" font-size="11.00">ip_hold</text>
</g>
<!-- ip_input&#45;&gt;ip_forward -->
<g id="edge28" class="edge">
<title>ip_input&#45;&gt;ip_forward</title>
<path fill="none" stroke="black" d="M263.95,-434.4C273.17,-409.86 293.67,-366.31 328.05,-348 376.41,-322.24 441.58,-336.75 481.8,-350.32"/>
<polygon fill="black" stroke="black" points="480.43,-353.54 491.02,-353.58 482.76,-346.94 480.43,-353.54"/>
</g>
<!-- ip_input_local -->
<g id="node24" class="node">
<title>ip_input_local</title>
<ellipse fill="none" stroke="black" cx="519.59" cy="-429" rx="42.89" ry="18"/>
<text xml:space="preserve" text-anchor="middle" x="519.59" y="-425.3" font-family="sans" font-size="11.00">ip_input_local</text>
</g>
<!-- ip_input&#45;&gt;ip_input_local -->
<g id="edge31" class="edge">
<title>ip_input&#45;&gt;ip_input_local</title>
<path fill="none" stroke="black" d="M284.02,-455.61C319.62,-459.87 385.51,-465.29 440.7,-456 453.23,-453.89 466.45,-449.99 478.36,-445.8"/>
<polygon fill="black" stroke="black" points="479.28,-449.19 487.45,-442.44 476.86,-442.63 479.28,-449.19"/>
</g>
<!-- ip_input&#45;&gt;ip_output -->
<g id="edge30" class="edge">
<title>ip_input&#45;&gt;ip_output</title>
<path fill="none" stroke="black" d="M262.24,-434.28C269.84,-406.27 288.97,-352.64 328.05,-330 371.37,-304.9 390.63,-329.81 440.7,-330 556.56,-330.44 588.13,-307.51 701.37,-332 718.49,-335.7 720.25,-344.37 737.37,-348 778.33,-356.69 790.35,-355.35 831.57,-348 844.75,-345.65 858.66,-341.09 870.78,-336.38"/>
<polygon fill="black" stroke="black" points="872,-339.67 879.93,-332.65 869.35,-333.19 872,-339.67"/>
</g>
<!-- dnat44_dynamic -->
<g id="node34" class="node">
<title>dnat44_dynamic</title>
<ellipse fill="none" stroke="black" cx="384.37" cy="-429" rx="52.15" ry="18"/>
<text xml:space="preserve" text-anchor="middle" x="384.37" y="-425.3" font-family="sans" font-size="11.00">dnat44_dynamic</text>
</g>
<!-- ip_input&#45;&gt;dnat44_dynamic -->
<g id="edge29" class="edge">
<title>ip_input&#45;&gt;dnat44_dynamic</title>
<path fill="none" stroke="black" d="M283.45,-447.35C295.81,-445.08 311.22,-442.25 326.21,-439.49"/>
<polygon fill="black" stroke="black" points="326.84,-442.94 336.05,-437.69 325.58,-436.05 326.84,-442.94"/>
</g>
<!-- dnat44_static -->
<g id="node35" class="node">
<title>dnat44_static</title>
<ellipse fill="none" stroke="black" cx="384.37" cy="-375" rx="43.31" ry="18"/>
<text xml:space="preserve" text-anchor="middle" x="384.37" y="-371.3" font-family="sans" font-size="11.00">dnat44_static</text>
</g>
<!-- ip_input&#45;&gt;dnat44_static -->
<g id="edge32" class="edge">
<title>ip_input&#45;&gt;dnat44_static</title>
<path fill="none" stroke="black" d="M275.38,-438.42C289.21,-427.85 309.33,-413.15 328.05,-402 333.03,-399.03 338.38,-396.11 343.73,-393.35"/>
<polygon fill="black" stroke="black" points="345.16,-396.54 352.54,-388.94 342.03,-390.28 345.16,-396.54"/>
</g>
<!-- ip_loadbalance -->
<g id="node23" class="node">
<title>ip_loadbalance</title>
<ellipse fill="none" stroke="black" cx="784.47" cy="-229" rx="47.1" ry="18"/>
<text xml:space="preserve" text-anchor="middle" x="784.47" y="-225.3" font-family="sans" font-size="11.00">ip_loadbalance</text>
</g>
<!-- ip_loadbalance&#45;&gt;ip_output -->
<g id="edge33" class="edge">
<title>ip_loadbalance&#45;&gt;ip_output</title>
<path fill="none" stroke="black" d="M817.94,-242.15C822.56,-245.33 827.21,-248.71 831.57,-252 850.11,-265.99 870.49,-282.81 885.04,-296.59"/>
<polygon fill="black" stroke="black" points="882.22,-298.72 891.8,-303.25 887.13,-293.74 882.22,-298.72"/>
</g>
<!-- ipip_input -->
<g id="node32" class="node">
<title>ipip_input</title>
<ellipse fill="none" stroke="black" cx="649.92" cy="-505" rx="31.1" ry="18"/>
<text xml:space="preserve" text-anchor="middle" x="649.92" y="-501.3" font-family="sans" font-size="11.00">ipip_input</text>
</g>
<!-- ip_input_local&#45;&gt;ipip_input -->
<g id="edge35" class="edge">
<title>ip_input_local&#45;&gt;ipip_input</title>
<path fill="none" stroke="black" d="M545.33,-443.65C565.92,-455.85 595.36,-473.28 617.59,-486.45"/>
<polygon fill="black" stroke="black" points="615.55,-489.31 625.94,-491.39 619.12,-483.28 615.55,-489.31"/>
</g>
<!-- icmp_input -->
<g id="node38" class="node">
<title>icmp_input</title>
<ellipse fill="none" stroke="black" cx="649.92" cy="-413" rx="34.89" ry="18"/>
<text xml:space="preserve" text-anchor="middle" x="649.92" y="-409.3" font-family="sans" font-size="11.00">icmp_input</text>
</g>
<!-- ip_input_local&#45;&gt;icmp_input -->
<g id="edge34" class="edge">
<title>ip_input_local&#45;&gt;icmp_input</title>
<path fill="none" stroke="black" d="M561.19,-423.94C574.85,-422.24 590.15,-420.33 604.11,-418.59"/>
<polygon fill="black" stroke="black" points="604.46,-422.07 613.95,-417.36 603.6,-415.12 604.46,-422.07"/>
</g>
<!-- l4_input_local -->
<g id="node49" class="node">
<title>l4_input_local</title>
<ellipse fill="none" stroke="black" cx="1470.62" cy="-436" rx="42.89" ry="18"/>
<text xml:space="preserve" text-anchor="middle" x="1470.62" y="-432.3" font-family="sans" font-size="11.00">l4_input_local</text>
</g>
<!-- ip_input_local&#45;&gt;l4_input_local -->
<g id="edge36" class="edge">
<title>ip_input_local&#45;&gt;l4_input_local</title>
<path fill="none" stroke="black" d="M559.18,-436.19C610.29,-445.06 703.31,-459 783.47,-459 783.47,-459 783.47,-459 1222.87,-459 1290.92,-459 1369.08,-450.22 1418.88,-443.51"/>
<polygon fill="black" stroke="black" points="1419.05,-447.02 1428.48,-442.19 1418.1,-440.08 1419.05,-447.02"/>
</g>
<!-- ospf_redirect -->
<g id="node52" class="node">
<title>ospf_redirect</title>
<ellipse fill="none" stroke="black" cx="1470.62" cy="-229" rx="41.62" ry="18"/>
<text xml:space="preserve" text-anchor="middle" x="1470.62" y="-225.3" font-family="sans" font-size="11.00">ospf_redirect</text>
</g>
<!-- ip_input_local&#45;&gt;ospf_redirect -->
<g id="edge37" class="edge">
<title>ip_input_local&#45;&gt;ospf_redirect</title>
<path fill="none" stroke="black" d="M540.95,-413.2C548.21,-407.03 556.14,-399.61 562.47,-392 582.36,-368.09 578.93,-356.19 598.47,-332 651.6,-266.22 658.73,-233.06 737.37,-202 861.64,-152.92 1275,-202.56 1419.35,-221.96"/>
<polygon fill="black" stroke="black" points="1418.59,-225.39 1428.97,-223.27 1419.53,-218.46 1418.59,-225.39"/>
</g>
<!-- ip_output&#45;&gt;eth_output -->
<g id="edge38" class="edge">
<title>ip_output&#45;&gt;eth_output</title>
<path fill="none" stroke="black" d="M927.93,-308.17C1000.45,-265.35 1247.26,-130 1469.62,-130 1469.62,-130 1469.62,-130 1623.01,-130 1719.6,-130 1756.75,-99.18 1839.49,-149 1869.32,-166.96 1888.74,-203.11 1899.36,-228.63"/>
<polygon fill="black" stroke="black" points="1896.03,-229.73 1902.95,-237.75 1902.55,-227.17 1896.03,-229.73"/>
</g>
<!-- ip_output&#45;&gt;loop_xvrf -->
<g id="edge41" class="edge">
<title>ip_output&#45;&gt;loop_xvrf</title>
<path fill="none" stroke="black" d="M913.91,-338.58C932.21,-384.01 981.2,-505.6 1003.49,-560.91"/>
<polygon fill="black" stroke="black" points="1000.14,-561.98 1007.13,-569.95 1006.64,-559.36 1000.14,-561.98"/>
</g>
<!-- ip_output&#45;&gt;ip_fragment -->
<g id="edge40" class="edge">
<title>ip_output&#45;&gt;ip_fragment</title>
<path fill="none" stroke="black" d="M876.86,-326.82C863.56,-327.68 847.3,-327.95 832.21,-327.61"/>
<polygon fill="black" stroke="black" points="832.58,-324.12 822.47,-327.28 832.35,-331.11 832.58,-324.12"/>
</g>
<!-- ip_output&#45;&gt;ip_hold -->
<g id="edge39" class="edge">
<title>ip_output&#45;&gt;ip_hold</title>
<path fill="none" stroke="black" d="M923.14,-336.03C937.81,-349.4 960.07,-369.37 980.08,-386 980.72,-386.53 981.36,-387.07 982.02,-387.6"/>
<polygon fill="black" stroke="black" points="979.56,-390.12 989.55,-393.66 983.95,-384.67 979.56,-390.12"/>
</g>
<!-- ip_output&#45;&gt;ip_loadbalance -->
<g id="edge42" class="edge">
<title>ip_output&#45;&gt;ip_loadbalance</title>
<path fill="none" stroke="black" d="M882.1,-309.37C867.82,-298.62 848.89,-283.07 831.57,-270 824.24,-264.47 816.06,-258.68 808.65,-253.11"/>
<polygon fill="black" stroke="black" points="811.04,-250.53 801,-247.16 806.74,-256.06 811.04,-250.53"/>
</g>
<!-- ipip_output -->
<g id="node33" class="node">
<title>ipip_output</title>
<ellipse fill="none" stroke="black" cx="1015.8" cy="-359" rx="35.73" ry="18"/>
<text xml:space="preserve" text-anchor="middle" x="1015.8" y="-355.3" font-family="sans" font-size="11.00">ipip_output</text>
</g>
<!-- ip_output&#45;&gt;ipip_output -->
<g id="edge43" class="edge">
<title>ip_output&#45;&gt;ipip_output</title>
<path fill="none" stroke="black" d="M935.76,-325.13C949.8,-329.23 966.74,-335.11 981.33,-340.92"/>
<polygon fill="black" stroke="black" points="979.97,-344.15 990.55,-344.74 982.65,-337.68 979.97,-344.15"/>
</g>
<!-- sr6_output -->
<g id="node37" class="node">
<title>sr6_output</title>
<ellipse fill="none" stroke="black" cx="1910.37" cy="-478" rx="34.46" ry="18"/>
<text xml:space="preserve" text-anchor="middle" x="1910.37" y="-474.3" font-family="sans" font-size="11.00">sr6_output</text>
</g>
<!-- ip_output&#45;&gt;sr6_output -->
<g id="edge44" class="edge">
<title>ip_output&#45;&gt;sr6_output</title>
<path fill="none" stroke="black" d="M936.31,-319.2C977.67,-316.85 1055.24,-313 1121.42,-313 1121.42,-313 1121.42,-313 1471.62,-313 1638.3,-313 1704.44,-288.29 1839.49,-386 1863.12,-403.1 1882.46,-430.46 1894.75,-450.91"/>
<polygon fill="black" stroke="black" points="1891.56,-452.39 1899.61,-459.29 1897.62,-448.88 1891.56,-452.39"/>
</g>
<!-- ip6_forward -->
<g id="node26" class="node">
<title>ip6_forward</title>
<ellipse fill="none" stroke="black" cx="1333.12" cy="-726" rx="37.41" ry="18"/>
<text xml:space="preserve" text-anchor="middle" x="1333.12" y="-722.3" font-family="sans" font-size="11.00">ip6_forward</text>
</g>
<!-- ip6_output -->
<g id="node31" class="node">
<title>ip6_output</title>
<ellipse fill="none" stroke="black" cx="1779.04" cy="-505" rx="34.04" ry="18"/>
<text xml:space="preserve" text-anchor="middle" x="1779.04" y="-501.3" font-family="sans" font-size="11.00">ip6_output</text>
</g>
<!-- ip6_forward&#45;&gt;ip6_output -->
<g id="edge51" class="edge">
<title>ip6_forward&#45;&gt;ip6_output</title>
<path fill="none" stroke="black" d="M1361.52,-738.11C1424.5,-763.92 1581.91,-816.62 1682.59,-748 1754.17,-699.21 1772.07,-587.84 1776.55,-534.52"/>
<polygon fill="black" stroke="black" points="1780.03,-534.91 1777.26,-524.68 1773.05,-534.4 1780.03,-534.91"/>
</g>
<!-- ip6_hold -->
<g id="node27" class="node">
<title>ip6_hold</title>
<polygon fill="none" stroke="dodgerblue" points="1940.07,-550 1880.67,-550 1880.67,-514 1940.07,-514 1940.07,-550"/>
<text xml:space="preserve" text-anchor="middle" x="1910.37" y="-528.3" font-family="sans" font-size="11.00">ip6_hold</text>
</g>
<!-- ip6_input&#45;&gt;ip6_forward -->
<g id="edge52" class="edge">
<title>ip6_input&#45;&gt;ip6_forward</title>
<path fill="none" stroke="black" d="M1143.43,-602.14C1179.77,-626 1256.89,-676.62 1300.45,-705.21"/>
<polygon fill="black" stroke="black" points="1298.43,-708.08 1308.71,-710.64 1302.27,-702.22 1298.43,-708.08"/>
</g>
<!-- ip6_input_local -->
<g id="node30" class="node">
<title>ip6_input_local</title>
<ellipse fill="none" stroke="black" cx="1333.12" cy="-505" rx="46.68" ry="18"/>
<text xml:space="preserve" text-anchor="middle" x="1333.12" y="-501.3" font-family="sans" font-size="11.00">ip6_input_local</text>
</g>
<!-- ip6_input&#45;&gt;ip6_input_local -->
<g id="edge54" class="edge">
<title>ip6_input&#45;&gt;ip6_input_local</title>
<path fill="none" stroke="black" d="M1147.77,-579.2C1182.39,-565.27 1246.37,-539.51 1289.09,-522.32"/>
<polygon fill="black" stroke="black" points="1290.36,-525.58 1298.33,-518.6 1287.74,-519.09 1290.36,-525.58"/>
</g>
<!-- ip6_input&#45;&gt;ip6_output -->
<g id="edge53" class="edge">
<title>ip6_input&#45;&gt;ip6_output</title>
<path fill="none" stroke="black" d="M1150.98,-583.63C1176.74,-578.55 1216.27,-570.59 1250.44,-563 1308.15,-550.18 1322.69,-547.32 1379.79,-532 1461.14,-510.18 1478.09,-490.13 1561.44,-478 1614.72,-470.25 1629.26,-470.6 1682.59,-478 1701.76,-480.66 1722.49,-486.19 1739.72,-491.55"/>
<polygon fill="black" stroke="black" points="1738.46,-494.82 1749.05,-494.56 1740.6,-488.16 1738.46,-494.82"/>
</g>
<!-- sr6_local -->
<g id="node36" class="node">
<title>sr6_local</title>
<ellipse fill="none" stroke="black" cx="1221.87" cy="-505" rx="28.57" ry="18"/>
<text xml:space="preserve" text-anchor="middle" x="1221.87" y="-501.3" font-family="sans" font-size="11.00">sr6_local</text>
</g>
<!-- ip6_input&#45;&gt;sr6_local -->
<g id="edge55" class="edge">
<title>ip6_input&#45;&gt;sr6_local</title>
<path fill="none" stroke="black" d="M1136.56,-572.88C1150.52,-558.89 1173.03,-538.99 1191.29,-524.23"/>
<polygon fill="black" stroke="black" points="1193.26,-527.14 1198.93,-518.19 1188.92,-521.65 1193.26,-527.14"/>
</g>
<!-- ip6_loadbalance -->
<g id="node29" class="node">
<title>ip6_loadbalance</title>
<ellipse fill="none" stroke="black" cx="1622.01" cy="-505" rx="50.89" ry="18"/>
<text xml:space="preserve" text-anchor="middle" x="1622.01" y="-501.3" font-family="sans" font-size="11.00">ip6_loadbalance</text>
</g>
<!-- ip6_loadbalance&#45;&gt;ip6_output -->
<g id="edge56" class="edge">
<title>ip6_loadbalance&#45;&gt;ip6_output</title>
<path fill="none" stroke="black" d="M1669.95,-498.74C1690.66,-498.04 1714.84,-498.09 1735.07,-498.88"/>
<polygon fill="black" stroke="black" points="1734.8,-502.38 1744.96,-499.37 1735.14,-495.38 1734.8,-502.38"/>
</g>
<!-- icmp6_input -->
<g id="node41" class="node">
<title>icmp6_input</title>
<polygon fill="none" stroke="dodgerblue" points="1510.82,-577 1430.42,-577 1430.42,-541 1510.82,-541 1510.82,-577"/>
<text xml:space="preserve" text-anchor="middle" x="1470.62" y="-555.3" font-family="sans" font-size="11.00">icmp6_input</text>
</g>
<!-- ip6_input_local&#45;&gt;icmp6_input -->
<g id="edge57" class="edge">
<title>ip6_input_local&#45;&gt;icmp6_input</title>
<path fill="none" stroke="black" d="M1366.57,-517.93C1382.54,-524.3 1402.14,-532.11 1419.94,-539.2"/>
<polygon fill="black" stroke="black" points="1418.19,-542.27 1428.77,-542.72 1420.78,-535.77 1418.19,-542.27"/>
</g>
<!-- ip6_input_local&#45;&gt;l4_input_local -->
<g id="edge58" class="edge">
<title>ip6_input_local&#45;&gt;l4_input_local</title>
<path fill="none" stroke="black" d="M1362.52,-490.54C1382.89,-480.16 1410.51,-466.1 1432.6,-454.85"/>
<polygon fill="black" stroke="black" points="1433.96,-458.08 1441.28,-450.43 1430.79,-451.85 1433.96,-458.08"/>
</g>
<!-- ip6_input_local&#45;&gt;ospf_redirect -->
<g id="edge59" class="edge">
<title>ip6_input_local&#45;&gt;ospf_redirect</title>
<path fill="none" stroke="black" d="M1342.8,-487.32C1365.74,-440.59 1428.09,-313.59 1455.9,-256.93"/>
<polygon fill="black" stroke="black" points="1458.9,-258.77 1460.16,-248.25 1452.62,-255.69 1458.9,-258.77"/>
</g>
<!-- ip6_output&#45;&gt;eth_output -->
<g id="edge60" class="edge">
<title>ip6_output&#45;&gt;eth_output</title>
<path fill="none" stroke="black" d="M1797.31,-489.58C1810.32,-477.22 1827.84,-458.87 1839.49,-440 1870.43,-389.86 1891.5,-323.77 1901.89,-286.28"/>
<polygon fill="black" stroke="black" points="1905.26,-287.2 1904.49,-276.64 1898.5,-285.38 1905.26,-287.2"/>
</g>
<!-- ip6_output&#45;&gt;loop_xvrf -->
<g id="edge62" class="edge">
<title>ip6_output&#45;&gt;loop_xvrf</title>
<path fill="none" stroke="black" d="M1777.83,-523.35C1776.17,-573.44 1764.12,-713.19 1682.59,-779 1609.07,-838.34 1566.09,-805 1471.62,-805 1220.87,-805 1220.87,-805 1220.87,-805 1118.61,-805 1052.36,-675.49 1027.67,-617.04"/>
<polygon fill="black" stroke="black" points="1031.02,-616 1023.99,-608.08 1024.55,-618.66 1031.02,-616"/>
</g>
<!-- ip6_output&#45;&gt;ip6_hold -->
<g id="edge61" class="edge">
<title>ip6_output&#45;&gt;ip6_hold</title>
<path fill="none" stroke="black" d="M1811.35,-511.54C1828.81,-515.18 1850.73,-519.76 1869.42,-523.66"/>
<polygon fill="black" stroke="black" points="1868.58,-527.06 1879.08,-525.68 1870.01,-520.21 1868.58,-527.06"/>
</g>
<!-- ip6_output&#45;&gt;ip6_loadbalance -->
<g id="edge63" class="edge">
<title>ip6_output&#45;&gt;ip6_loadbalance</title>
<path fill="none" stroke="black" d="M1746.47,-510.56C1727.73,-511.67 1703.38,-512 1681.27,-511.56"/>
<polygon fill="black" stroke="black" points="1681.55,-508.07 1671.46,-511.3 1681.36,-515.07 1681.55,-508.07"/>
</g>
<!-- ip6_output&#45;&gt;sr6_output -->
<g id="edge64" class="edge">
<title>ip6_output&#45;&gt;sr6_output</title>
<path fill="none" stroke="black" d="M1806.52,-493.9C1823.13,-489.26 1844.96,-484.41 1864.24,-480.95"/>
<polygon fill="black" stroke="black" points="1864.77,-484.41 1874.04,-479.3 1863.6,-477.51 1864.77,-484.41"/>
</g>
<!-- ipip_input&#45;&gt;ip_input -->
<g id="edge67" class="edge">
<title>ipip_input&#45;&gt;ip_input</title>
<path fill="none" stroke="black" d="M618.56,-503.92C561.26,-501.44 433.49,-493.88 328.05,-473 316.2,-470.65 303.49,-467.15 292.19,-463.67"/>
<polygon fill="black" stroke="black" points="293.48,-460.41 282.89,-460.7 291.36,-467.07 293.48,-460.41"/>
</g>
<!-- ipip_output&#45;&gt;ip_output -->
<g id="edge68" class="edge">
<title>ipip_output&#45;&gt;ip_output</title>
<path fill="none" stroke="black" d="M981.3,-353.51C967.47,-349.28 951.52,-343.63 937.94,-338.13"/>
<polygon fill="black" stroke="black" points="939.61,-335.04 929.04,-334.37 936.89,-341.49 939.61,-335.04"/>
</g>
<!-- dnat44_dynamic&#45;&gt;ip_forward -->
<g id="edge73" class="edge">
<title>dnat44_dynamic&#45;&gt;ip_forward</title>
<path fill="none" stroke="black" d="M415.94,-414.32C436.18,-404.59 462.77,-391.82 483.82,-381.7"/>
<polygon fill="black" stroke="black" points="485.09,-384.98 492.59,-377.49 482.06,-378.67 485.09,-384.98"/>
</g>
<!-- dnat44_dynamic&#45;&gt;ip_input_local -->
<g id="edge74" class="edge">
<title>dnat44_dynamic&#45;&gt;ip_input_local</title>
<path fill="none" stroke="black" d="M436.88,-429C446.04,-429 455.61,-429 464.83,-429"/>
<polygon fill="black" stroke="black" points="464.76,-432.5 474.76,-429 464.76,-425.5 464.76,-432.5"/>
</g>
<!-- dnat44_static&#45;&gt;ip_forward -->
<g id="edge75" class="edge">
<title>dnat44_static&#45;&gt;ip_forward</title>
<path fill="none" stroke="black" d="M427.52,-371.84C442.59,-370.71 459.59,-369.43 474.79,-368.29"/>
<polygon fill="black" stroke="black" points="474.78,-371.8 484.49,-367.56 474.26,-364.82 474.78,-371.8"/>
</g>
<!-- dnat44_static&#45;&gt;ip_input_local -->
<g id="edge76" class="edge">
<title>dnat44_static&#45;&gt;ip_input_local</title>
<path fill="none" stroke="black" d="M416.27,-387.52C434.43,-394.89 457.61,-404.28 477.32,-412.27"/>
<polygon fill="black" stroke="black" points="475.87,-415.46 486.46,-415.97 478.5,-408.97 475.87,-415.46"/>
</g>
<!-- sr6_local&#45;&gt;ip_input -->
<g id="edge77" class="edge">
<title>sr6_local&#45;&gt;ip_input</title>
<path fill="none" stroke="black" d="M1193.55,-508.32C1106.57,-518.43 828.34,-547.23 598.47,-532 477.49,-523.98 442.07,-537.22 328.05,-496 312.61,-490.42 297,-481.04 284.46,-472.37"/>
<polygon fill="black" stroke="black" points="286.51,-469.53 276.34,-466.54 282.42,-475.22 286.51,-469.53"/>
</g>
<!-- sr6_local&#45;&gt;ip6_input -->
<g id="edge78" class="edge">
<title>sr6_local&#45;&gt;ip6_input</title>
<path fill="none" stroke="black" d="M1207.7,-521.14C1193.72,-535.15 1171.17,-555.08 1152.91,-569.84"/>
<polygon fill="black" stroke="black" points="1150.94,-566.93 1145.27,-575.88 1155.28,-572.42 1150.94,-566.93"/>
</g>
<!-- sr6_local&#45;&gt;ip6_input_local -->
<g id="edge79" class="edge">
<title>sr6_local&#45;&gt;ip6_input_local</title>
<path fill="none" stroke="black" d="M1250.72,-505C1258.11,-505 1266.36,-505 1274.71,-505"/>
<polygon fill="black" stroke="black" points="1274.55,-508.5 1284.55,-505 1274.55,-501.5 1274.55,-508.5"/>
</g>
<!-- sr6_output&#45;&gt;ip6_output -->
<g id="edge80" class="edge">
<title>sr6_output&#45;&gt;ip6_output</title>
<path fill="none" stroke="black" d="M1882.69,-489.15C1865.97,-493.82 1843.99,-498.69 1824.66,-502.14"/>
<polygon fill="black" stroke="black" points="1824.12,-498.68 1814.84,-503.78 1825.28,-505.58 1824.12,-498.68"/>
</g>
<!-- icmp_output -->
<g id="node40" class="node">
<title>icmp_output</title>
<ellipse fill="none" stroke="black" cx="784.47" cy="-413" rx="39.52" ry="18"/>
<text xml:space="preserve" text-anchor="middle" x="784.47" y="-409.3" font-family="sans" font-size="11.00">icmp_output</text>
</g>
<!-- icmp_input&#45;&gt;icmp_output -->
<g id="edge23" class="edge">
<title>icmp_input&#45;&gt;icmp_output</title>
<path fill="none" stroke="black" d="M685.06,-413C699.75,-413 717.22,-413 733.33,-413"/>
<polygon fill="black" stroke="black" points="733.25,-416.5 743.25,-413 733.25,-409.5 733.25,-416.5"/>
</g>
<!-- icmp_local_send -->
<g id="node39" class="node">
<title>icmp_local_send</title>
<polygon fill="none" stroke="dodgerblue" points="701.37,-377 598.47,-377 598.47,-341 701.37,-341 701.37,-377"/>
<text xml:space="preserve" text-anchor="middle" x="649.92" y="-355.3" font-family="sans" font-size="11.00">icmp_local_send</text>
</g>
<!-- icmp_local_send&#45;&gt;icmp_output -->
<g id="edge24" class="edge">
<title>icmp_local_send&#45;&gt;icmp_output</title>
<path fill="none" stroke="dodgerblue" d="M696.17,-377.43C711.62,-383.73 728.77,-390.71 743.75,-396.82"/>
<polygon fill="dodgerblue" stroke="dodgerblue" points="742.24,-399.98 752.82,-400.51 744.88,-393.5 742.24,-399.98"/>
</g>
<!-- icmp_output&#45;&gt;ip_output -->
<g id="edge25" class="edge">
<title>icmp_output&#45;&gt;ip_output</title>
<path fill="none" stroke="black" d="M807.77,-398.05C815.41,-392.79 823.95,-386.75 831.57,-381 847.71,-368.81 865.26,-354.48 879.13,-342.88"/>
<polygon fill="black" stroke="black" points="881.11,-345.79 886.51,-336.68 876.6,-340.43 881.11,-345.79"/>
</g>
<!-- icmp6_output -->
<g id="node42" class="node">
<title>icmp6_output</title>
<ellipse fill="none" stroke="black" cx="1622.01" cy="-721" rx="43.31" ry="18"/>
<text xml:space="preserve" text-anchor="middle" x="1622.01" y="-717.3" font-family="sans" font-size="11.00">icmp6_output</text>
</g>
<!-- icmp6_input&#45;&gt;icmp6_output -->
<g id="edge45" class="edge">
<title>icmp6_input&#45;&gt;icmp6_output</title>
<path fill="none" stroke="dodgerblue" d="M1511.28,-574.24C1516.54,-577.52 1521.47,-581.42 1525.44,-586 1558.57,-624.24 1527.57,-656.42 1561.44,-694 1565.53,-698.53 1570.52,-702.35 1575.87,-705.56"/>
<polygon fill="dodgerblue" stroke="dodgerblue" points="1573.91,-708.49 1584.4,-709.99 1577.14,-702.28 1573.91,-708.49"/>
</g>
<!-- ndp_na_input -->
<g id="node44" class="node">
<title>ndp_na_input</title>
<polygon fill="none" stroke="dodgerblue" points="1665.21,-685 1578.81,-685 1578.81,-649 1665.21,-649 1665.21,-685"/>
<text xml:space="preserve" text-anchor="middle" x="1622.01" y="-663.3" font-family="sans" font-size="11.00">ndp_na_input</text>
</g>
<!-- icmp6_input&#45;&gt;ndp_na_input -->
<g id="edge47" class="edge">
<title>icmp6_input&#45;&gt;ndp_na_input</title>
<path fill="none" stroke="dodgerblue" d="M1511.09,-575.75C1516.19,-578.77 1521.13,-582.19 1525.44,-586 1547.05,-605.1 1539.46,-621.33 1561.44,-640 1563.76,-641.97 1566.24,-643.81 1568.82,-645.55"/>
<polygon fill="dodgerblue" stroke="dodgerblue" points="1566.87,-648.46 1577.25,-650.57 1570.45,-642.45 1566.87,-648.46"/>
</g>
<!-- ndp_ns_input -->
<g id="node46" class="node">
<title>ndp_ns_input</title>
<polygon fill="none" stroke="dodgerblue" points="1664.84,-631 1579.19,-631 1579.19,-595 1664.84,-595 1664.84,-631"/>
<text xml:space="preserve" text-anchor="middle" x="1622.01" y="-609.3" font-family="sans" font-size="11.00">ndp_ns_input</text>
</g>
<!-- icmp6_input&#45;&gt;ndp_ns_input -->
<g id="edge46" class="edge">
<title>icmp6_input&#45;&gt;ndp_ns_input</title>
<path fill="none" stroke="dodgerblue" d="M1511.26,-573.33C1528.68,-579.62 1549.38,-587.11 1568.09,-593.87"/>
<polygon fill="dodgerblue" stroke="dodgerblue" points="1566.81,-597.13 1577.41,-597.24 1569.19,-590.55 1566.81,-597.13"/>
</g>
<!-- ndp_rs_input -->
<g id="node48" class="node">
<title>ndp_rs_input</title>
<polygon fill="none" stroke="dodgerblue" points="1663.71,-577 1580.31,-577 1580.31,-541 1663.71,-541 1663.71,-577"/>
<text xml:space="preserve" text-anchor="middle" x="1622.01" y="-555.3" font-family="sans" font-size="11.00">ndp_rs_input</text>
</g>
<!-- icmp6_input&#45;&gt;ndp_rs_input -->
<g id="edge48" class="edge">
<title>icmp6_input&#45;&gt;ndp_rs_input</title>
<path fill="none" stroke="dodgerblue" d="M1511.26,-559C1528.8,-559 1549.67,-559 1568.48,-559"/>
<polygon fill="dodgerblue" stroke="dodgerblue" points="1568.37,-562.5 1578.37,-559 1568.37,-555.5 1568.37,-562.5"/>
</g>
<!-- icmp6_output&#45;&gt;ip6_output -->
<g id="edge49" class="edge">
<title>icmp6_output&#45;&gt;ip6_output</title>
<path fill="none" stroke="black" d="M1657.3,-710.17C1666.29,-706.15 1675.46,-700.84 1682.59,-694 1729.92,-648.62 1757.64,-574.71 1770.09,-534.07"/>
<polygon fill="black" stroke="black" points="1773.44,-535.1 1772.91,-524.51 1766.72,-533.12 1773.44,-535.1"/>
</g>
<!-- icmp6_local_send -->
<g id="node43" class="node">
<title>icmp6_local_send</title>
<polygon fill="none" stroke="dodgerblue" points="1525.44,-631 1415.79,-631 1415.79,-595 1525.44,-595 1525.44,-631"/>
<text xml:space="preserve" text-anchor="middle" x="1470.62" y="-609.3" font-family="sans" font-size="11.00">icmp6_local_send</text>
</g>
<!-- icmp6_local_send&#45;&gt;icmp6_output -->
<g id="edge50" class="edge">
<title>icmp6_local_send&#45;&gt;icmp6_output</title>
<path fill="none" stroke="dodgerblue" d="M1513.85,-631.44C1517.97,-634.03 1521.92,-636.88 1525.44,-640 1547.05,-659.1 1539.46,-675.33 1561.44,-694 1566.2,-698.04 1571.67,-701.6 1577.31,-704.68"/>
<polygon fill="dodgerblue" stroke="dodgerblue" points="1575.69,-707.78 1586.2,-709.07 1578.78,-701.5 1575.69,-707.78"/>
</g>
<!-- ndp_na_output -->
<g id="node45" class="node">
<title>ndp_na_output</title>
<polygon fill="none" stroke="dodgerblue" points="1517.94,-739 1423.29,-739 1423.29,-703 1517.94,-703 1517.94,-739"/>
<text xml:space="preserve" text-anchor="middle" x="1470.62" y="-717.3" font-family="sans" font-size="11.00">ndp_na_output</text>
</g>
<!-- ndp_na_output&#45;&gt;icmp6_output -->
<g id="edge65" class="edge">
<title>ndp_na_output&#45;&gt;icmp6_output</title>
<path fill="none" stroke="dodgerblue" d="M1518.07,-721C1533.58,-721 1550.99,-721 1567.02,-721"/>
<polygon fill="dodgerblue" stroke="dodgerblue" points="1566.89,-724.5 1576.89,-721 1566.89,-717.5 1566.89,-724.5"/>
</g>
<!-- ndp_ns_output -->
<g id="node47" class="node">
<title>ndp_ns_output</title>
<polygon fill="none" stroke="dodgerblue" points="1517.57,-685 1423.67,-685 1423.67,-649 1517.57,-649 1517.57,-685"/>
<text xml:space="preserve" text-anchor="middle" x="1470.62" y="-663.3" font-family="sans" font-size="11.00">ndp_ns_output</text>
</g>
<!-- ndp_ns_output&#45;&gt;icmp6_output -->
<g id="edge66" class="edge">
<title>ndp_ns_output&#45;&gt;icmp6_output</title>
<path fill="none" stroke="dodgerblue" d="M1517.66,-683.64C1536.87,-690.58 1559.05,-698.6 1577.94,-705.43"/>
<polygon fill="dodgerblue" stroke="dodgerblue" points="1576.61,-708.67 1587.2,-708.78 1578.99,-702.09 1576.61,-708.67"/>
</g>
<!-- l4_loopback_output -->
<g id="node50" class="node">
<title>l4_loopback_output</title>
<ellipse fill="none" stroke="black" cx="1622.01" cy="-413" rx="60.57" ry="18"/>
<text xml:space="preserve" text-anchor="middle" x="1622.01" y="-409.3" font-family="sans" font-size="11.00">l4_loopback_output</text>
</g>
<!-- l4_input_local&#45;&gt;l4_loopback_output -->
<g id="edge69" class="edge">
<title>l4_input_local&#45;&gt;l4_loopback_output</title>
<path fill="none" stroke="black" d="M1511.26,-429.9C1525.1,-427.77 1541.02,-425.31 1556.37,-422.95"/>
<polygon fill="black" stroke="black" points="1556.55,-426.47 1565.9,-421.48 1555.49,-419.55 1556.55,-426.47"/>
</g>
<!-- dhcp_input -->
<g id="node53" class="node">
<title>dhcp_input</title>
<ellipse fill="none" stroke="black" cx="1622.01" cy="-359" rx="34.89" ry="18"/>
<text xml:space="preserve" text-anchor="middle" x="1622.01" y="-355.3" font-family="sans" font-size="11.00">dhcp_input</text>
</g>
<!-- l4_input_local&#45;&gt;dhcp_input -->
<g id="edge70" class="edge">
<title>l4_input_local&#45;&gt;dhcp_input</title>
<path fill="none" stroke="black" d="M1496.49,-421.43C1514.36,-411.14 1539.13,-397.24 1561.44,-386 1568.68,-382.35 1576.51,-378.64 1584.04,-375.18"/>
<polygon fill="black" stroke="black" points="1585.35,-378.43 1593.02,-371.12 1582.47,-372.06 1585.35,-378.43"/>
</g>
<!-- l4_loopback_output&#45;&gt;loopback_output -->
<g id="edge71" class="edge">
<title>l4_loopback_output&#45;&gt;loopback_output</title>
<path fill="none" stroke="black" d="M1682.95,-413C1693.59,-413 1704.69,-413 1715.4,-413"/>
<polygon fill="black" stroke="black" points="1715.31,-416.5 1725.31,-413 1715.31,-409.5 1715.31,-416.5"/>
</g>
<!-- ospf_redirect&#45;&gt;l2_redirect -->
<g id="edge72" class="edge">
<title>ospf_redirect&#45;&gt;l2_redirect</title>
<path fill="none" stroke="black" d="M1510.87,-224.01C1531.29,-221.41 1556.32,-218.23 1577.35,-215.55"/>
<polygon fill="black" stroke="black" points="1577.59,-219.05 1587.07,-214.32 1576.71,-212.11 1577.59,-219.05"/>
</g>
</g>
</svg>
