<?xml version="1.0" encoding="UTF-8" standalone="no"?>
<!DOCTYPE svg PUBLIC "-//W3C//DTD SVG 1.1//EN"
 "http://www.w3.org/Graphics/SVG/1.1/DTD/svg11.dtd">
<!-- Generated by graphviz version 2.44.0 (0)
 -->
<!-- Title: gr&#45;0&#45;0002&#45;dplane Pages: 1 -->
<svg width="1837pt" height="848pt"
 viewBox="0.00 0.00 1837.14 848.00" xmlns="http://www.w3.org/2000/svg" xmlns:xlink="http://www.w3.org/1999/xlink">
<g id="graph0" class="graph" transform="scale(1 1) rotate(0) translate(4 844)">
<title>gr&#45;0&#45;0002&#45;dplane</title>
<polygon fill="white" stroke="transparent" points="-4,4 -4,-844 1833.14,-844 1833.14,4 -4,4"/>
<!-- control_input -->
<g id="node1" class="node">
<title>control_input</title>
<ellipse fill="none" stroke="blue" stroke-width="2" cx="40.16" cy="-675" rx="40.32" ry="18"/>
<text text-anchor="middle" x="40.16" y="-672.2" font-family="sans" font-size="11.00">control_input</text>
</g>
<!-- loopback_input -->
<g id="node2" class="node">
<title>loopback_input</title>
<ellipse fill="none" stroke="black" cx="161.91" cy="-403" rx="45.68" ry="18"/>
<text text-anchor="middle" x="161.91" y="-400.2" font-family="sans" font-size="11.00">loopback_input</text>
</g>
<!-- control_input&#45;&gt;loopback_input -->
<g id="edge1" class="edge">
<title>control_input&#45;&gt;loopback_input</title>
<path fill="none" stroke="blue" stroke-width="2" d="M49.02,-657.15C69.49,-610.66 124.56,-485.58 148.97,-430.12"/>
<polygon fill="blue" stroke="blue" stroke-width="2" points="152.2,-431.47 153.03,-420.91 145.79,-428.65 152.2,-431.47"/>
</g>
<!-- arp_output_request -->
<g id="node3" class="node">
<title>arp_output_request</title>
<ellipse fill="none" stroke="black" cx="1213.52" cy="-146" rx="59.31" ry="18"/>
<text text-anchor="middle" x="1213.52" y="-143.2" font-family="sans" font-size="11.00">arp_output_request</text>
</g>
<!-- control_input&#45;&gt;arp_output_request -->
<g id="edge2" class="edge">
<title>control_input&#45;&gt;arp_output_request</title>
<path fill="none" stroke="blue" stroke-width="2" d="M41.39,-656.97C42.77,-577.74 52.28,-261.2 116.32,-191 171.71,-130.28 213.5,-146 295.69,-146 295.69,-146 295.69,-146 947.14,-146 1014.12,-146 1090.61,-146 1144.21,-146"/>
<polygon fill="blue" stroke="blue" stroke-width="2" points="1144.28,-149.5 1154.28,-146 1144.28,-142.5 1144.28,-149.5"/>
</g>
<!-- icmp_local_send -->
<g id="node4" class="node">
<title>icmp_local_send</title>
<ellipse fill="none" stroke="black" cx="686.36" cy="-544" rx="49.28" ry="18"/>
<text text-anchor="middle" x="686.36" y="-541.2" font-family="sans" font-size="11.00">icmp_local_send</text>
</g>
<!-- control_input&#45;&gt;icmp_local_send -->
<g id="edge3" class="edge">
<title>control_input&#45;&gt;icmp_local_send</title>
<path fill="none" stroke="blue" stroke-width="2" d="M58.78,-658.92C98.12,-624.74 197.41,-548 295.69,-548 295.69,-548 295.69,-548 431.38,-548 498.21,-548 574.93,-546.6 626.4,-545.45"/>
<polygon fill="blue" stroke="blue" stroke-width="2" points="626.75,-548.95 636.67,-545.22 626.6,-541.95 626.75,-548.95"/>
</g>
<!-- icmp6_local_send -->
<g id="node5" class="node">
<title>icmp6_local_send</title>
<ellipse fill="none" stroke="black" cx="296.69" cy="-730" rx="53.37" ry="18"/>
<text text-anchor="middle" x="296.69" y="-727.2" font-family="sans" font-size="11.00">icmp6_local_send</text>
</g>
<!-- control_input&#45;&gt;icmp6_local_send -->
<g id="edge4" class="edge">
<title>control_input&#45;&gt;icmp6_local_send</title>
<path fill="none" stroke="blue" stroke-width="2" d="M72.75,-685.59C86.09,-689.82 101.86,-694.51 116.32,-698 156.34,-707.66 202.03,-715.77 237.28,-721.4"/>
<polygon fill="blue" stroke="blue" stroke-width="2" points="236.98,-724.9 247.4,-723 238.07,-717.98 236.98,-724.9"/>
</g>
<!-- ndp_ns_output -->
<g id="node6" class="node">
<title>ndp_ns_output</title>
<ellipse fill="none" stroke="black" cx="430.38" cy="-822" rx="44.51" ry="18"/>
<text text-anchor="middle" x="430.38" y="-819.2" font-family="sans" font-size="11.00">ndp_ns_output</text>
</g>
<!-- control_input&#45;&gt;ndp_ns_output -->
<g id="edge5" class="edge">
<title>control_input&#45;&gt;ndp_ns_output</title>
<path fill="none" stroke="blue" stroke-width="2" d="M47.24,-693.05C57.14,-719.36 79.45,-767.55 116.32,-790 197.49,-839.42 312.89,-836.45 378.52,-829.48"/>
<polygon fill="blue" stroke="blue" stroke-width="2" points="379.08,-832.94 388.62,-828.33 378.29,-825.98 379.08,-832.94"/>
</g>
<!-- ip6_output -->
<g id="node7" class="node">
<title>ip6_output</title>
<ellipse fill="none" stroke="black" cx="1499.89" cy="-590" rx="32.63" ry="18"/>
<text text-anchor="middle" x="1499.89" y="-587.2" font-family="sans" font-size="11.00">ip6_output</text>
</g>
<!-- control_input&#45;&gt;ip6_output -->
<g id="edge6" class="edge">
<title>control_input&#45;&gt;ip6_output</title>
<path fill="none" stroke="blue" stroke-width="2" d="M78.26,-668.87C127.81,-666 218.36,-666 295.69,-666 295.69,-666 295.69,-666 1214.52,-666 1306.44,-666 1408.35,-624.72 1461.68,-602.74"/>
<polygon fill="blue" stroke="blue" stroke-width="2" points="1463.15,-605.92 1471.06,-598.88 1460.48,-599.45 1463.15,-605.92"/>
</g>
<!-- control_input&#45;&gt;ip6_output -->
<g id="edge8" class="edge">
<title>control_input&#45;&gt;ip6_output</title>
<path fill="none" stroke="blue" stroke-width="2" d="M78.26,-681.13C127.81,-684 218.36,-684 295.69,-684 295.69,-684 295.69,-684 1214.52,-684 1312.3,-684 1421.38,-637.29 1471.28,-609.46"/>
<polygon fill="blue" stroke="blue" stroke-width="2" points="1473.25,-612.36 1480.17,-604.33 1469.76,-606.29 1473.25,-612.36"/>
</g>
<!-- ndp_na_output -->
<g id="node8" class="node">
<title>ndp_na_output</title>
<ellipse fill="none" stroke="black" cx="555.92" cy="-776" rx="45.09" ry="18"/>
<text text-anchor="middle" x="555.92" y="-773.2" font-family="sans" font-size="11.00">ndp_na_output</text>
</g>
<!-- control_input&#45;&gt;ndp_na_output -->
<g id="edge7" class="edge">
<title>control_input&#45;&gt;ndp_na_output</title>
<path fill="none" stroke="blue" stroke-width="2" d="M62.73,-689.94C77.34,-699.55 97.36,-711.73 116.32,-720 245.67,-776.42 415.42,-780.69 500.85,-778.61"/>
<polygon fill="blue" stroke="blue" stroke-width="2" points="501.19,-782.1 511.09,-778.32 500.99,-775.1 501.19,-782.1"/>
</g>
<!-- ip_input -->
<g id="node12" class="node">
<title>ip_input</title>
<ellipse fill="none" stroke="black" cx="555.92" cy="-285" rx="27" ry="18"/>
<text text-anchor="middle" x="555.92" y="-282.2" font-family="sans" font-size="11.00">ip_input</text>
</g>
<!-- loopback_input&#45;&gt;ip_input -->
<g id="edge14" class="edge">
<title>loopback_input&#45;&gt;ip_input</title>
<path fill="none" stroke="black" d="M196.93,-391.28C211.26,-386.42 228.15,-380.81 243.5,-376 343.89,-344.53 463.58,-310.54 520.96,-294.46"/>
<polygon fill="black" stroke="black" points="521.91,-297.82 530.6,-291.76 520.03,-291.08 521.91,-297.82"/>
</g>
<!-- ip6_input -->
<g id="node13" class="node">
<title>ip6_input</title>
<ellipse fill="none" stroke="black" cx="296.69" cy="-403" rx="28.44" ry="18"/>
<text text-anchor="middle" x="296.69" y="-400.2" font-family="sans" font-size="11.00">ip6_input</text>
</g>
<!-- loopback_input&#45;&gt;ip6_input -->
<g id="edge15" class="edge">
<title>loopback_input&#45;&gt;ip6_input</title>
<path fill="none" stroke="black" d="M207.86,-403C224.12,-403 242.3,-403 257.89,-403"/>
<polygon fill="black" stroke="black" points="258.21,-406.5 268.21,-403 258.21,-399.5 258.21,-406.5"/>
</g>
<!-- eth_output -->
<g id="node14" class="node">
<title>eth_output</title>
<ellipse fill="none" stroke="black" cx="1638.47" cy="-146" rx="33.8" ry="18"/>
<text text-anchor="middle" x="1638.47" y="-143.2" font-family="sans" font-size="11.00">eth_output</text>
</g>
<!-- arp_output_request&#45;&gt;eth_output -->
<g id="edge27" class="edge">
<title>arp_output_request&#45;&gt;eth_output</title>
<path fill="none" stroke="black" d="M1272.88,-146C1359.02,-146 1518.22,-146 1594.51,-146"/>
<polygon fill="black" stroke="black" points="1594.71,-149.5 1604.71,-146 1594.71,-142.5 1594.71,-149.5"/>
</g>
<!-- icmp_output -->
<g id="node29" class="node">
<title>icmp_output</title>
<ellipse fill="none" stroke="black" cx="1077.66" cy="-322" rx="37.98" ry="18"/>
<text text-anchor="middle" x="1077.66" y="-319.2" font-family="sans" font-size="11.00">icmp_output</text>
</g>
<!-- icmp_local_send&#45;&gt;icmp_output -->
<g id="edge31" class="edge">
<title>icmp_local_send&#45;&gt;icmp_output</title>
<path fill="none" stroke="black" d="M733.37,-549.64C799.61,-555.18 922.5,-555.47 1000.95,-495 1002.51,-493.8 1044.22,-397.3 1065.05,-348.97"/>
<polygon fill="black" stroke="black" points="1068.3,-350.28 1069.04,-339.71 1061.87,-347.51 1068.3,-350.28"/>
</g>
<!-- icmp6_output -->
<g id="node38" class="node">
<title>icmp6_output</title>
<ellipse fill="none" stroke="black" cx="813.54" cy="-730" rx="41.58" ry="18"/>
<text text-anchor="middle" x="813.54" y="-727.2" font-family="sans" font-size="11.00">icmp6_output</text>
</g>
<!-- icmp6_local_send&#45;&gt;icmp6_output -->
<g id="edge53" class="edge">
<title>icmp6_local_send&#45;&gt;icmp6_output</title>
<path fill="none" stroke="black" d="M349.89,-730C448.92,-730 662.94,-730 761.26,-730"/>
<polygon fill="black" stroke="black" points="761.53,-733.5 771.53,-730 761.53,-726.5 761.53,-733.5"/>
</g>
<!-- ndp_ns_output&#45;&gt;icmp6_output -->
<g id="edge69" class="edge">
<title>ndp_ns_output&#45;&gt;icmp6_output</title>
<path fill="none" stroke="black" d="M474.52,-819.04C508.97,-816.23 558.35,-811.19 600.97,-803 661.97,-791.28 677.46,-787.48 735.75,-766 749.4,-760.97 763.95,-754.46 776.68,-748.36"/>
<polygon fill="black" stroke="black" points="778.55,-751.34 786,-743.81 775.48,-745.05 778.55,-751.34"/>
</g>
<!-- ip6_output&#45;&gt;eth_output -->
<g id="edge62" class="edge">
<title>ip6_output&#45;&gt;eth_output</title>
<path fill="none" stroke="black" d="M1516.58,-574.28C1528.06,-561.9 1543.11,-543.67 1551.99,-525 1559.69,-508.83 1613.46,-258.56 1631.55,-173.81"/>
<polygon fill="black" stroke="black" points="1635,-174.39 1633.67,-163.88 1628.16,-172.93 1635,-174.39"/>
</g>
<!-- loopback_output -->
<g id="node17" class="node">
<title>loopback_output</title>
<ellipse fill="none" stroke="black" cx="1638.47" cy="-406" rx="50.45" ry="18"/>
<text text-anchor="middle" x="1638.47" y="-403.2" font-family="sans" font-size="11.00">loopback_output</text>
</g>
<!-- ip6_output&#45;&gt;loopback_output -->
<g id="edge64" class="edge">
<title>ip6_output&#45;&gt;loopback_output</title>
<path fill="none" stroke="black" d="M1514.12,-573.59C1524.55,-560.54 1539.4,-541.75 1551.99,-525 1575.82,-493.31 1602.31,-456.1 1619.4,-431.83"/>
<polygon fill="black" stroke="black" points="1622.36,-433.71 1625.24,-423.51 1616.63,-429.68 1622.36,-433.71"/>
</g>
<!-- sr6_output -->
<g id="node34" class="node">
<title>sr6_output</title>
<ellipse fill="none" stroke="black" cx="1360.23" cy="-544" rx="33.21" ry="18"/>
<text text-anchor="middle" x="1360.23" y="-541.2" font-family="sans" font-size="11.00">sr6_output</text>
</g>
<!-- ip6_output&#45;&gt;sr6_output -->
<g id="edge65" class="edge">
<title>ip6_output&#45;&gt;sr6_output</title>
<path fill="none" stroke="black" d="M1468.14,-585.45C1445.92,-579.36 1415.98,-569.38 1393.44,-560.58"/>
<polygon fill="black" stroke="black" points="1394.55,-557.25 1383.97,-556.76 1391.93,-563.75 1394.55,-557.25"/>
</g>
<!-- ip6_hold -->
<g id="node43" class="node">
<title>ip6_hold</title>
<ellipse fill="none" stroke="black" cx="1638.47" cy="-613" rx="27" ry="18"/>
<text text-anchor="middle" x="1638.47" y="-610.2" font-family="sans" font-size="11.00">ip6_hold</text>
</g>
<!-- ip6_output&#45;&gt;ip6_hold -->
<g id="edge63" class="edge">
<title>ip6_output&#45;&gt;ip6_hold</title>
<path fill="none" stroke="black" d="M1531.2,-595.1C1552.1,-598.62 1579.95,-603.31 1601.9,-607.01"/>
<polygon fill="black" stroke="black" points="1601.39,-610.47 1611.83,-608.68 1602.55,-603.57 1601.39,-610.47"/>
</g>
<!-- ndp_na_output&#45;&gt;icmp6_output -->
<g id="edge67" class="edge">
<title>ndp_na_output&#45;&gt;icmp6_output</title>
<path fill="none" stroke="black" d="M597.41,-768.79C633.66,-762.33 688.26,-752.58 735.75,-744 745.05,-742.32 754.98,-740.52 764.52,-738.78"/>
<polygon fill="black" stroke="black" points="765.44,-742.17 774.65,-736.93 764.19,-735.28 765.44,-742.17"/>
</g>
<!-- control_output -->
<g id="node9" class="node">
<title>control_output</title>
<ellipse fill="none" stroke="black" cx="1777.04" cy="-452" rx="44.51" ry="18"/>
<text text-anchor="middle" x="1777.04" y="-449.2" font-family="sans" font-size="11.00">control_output</text>
</g>
<!-- eth_input -->
<g id="node10" class="node">
<title>eth_input</title>
<ellipse fill="none" stroke="black" cx="161.91" cy="-218" rx="29.12" ry="18"/>
<text text-anchor="middle" x="161.91" y="-215.2" font-family="sans" font-size="11.00">eth_input</text>
</g>
<!-- arp_input -->
<g id="node11" class="node">
<title>arp_input</title>
<ellipse fill="none" stroke="black" cx="813.54" cy="-100" rx="29.12" ry="18"/>
<text text-anchor="middle" x="813.54" y="-97.2" font-family="sans" font-size="11.00">arp_input</text>
</g>
<!-- eth_input&#45;&gt;arp_input -->
<g id="edge9" class="edge">
<title>eth_input&#45;&gt;arp_input</title>
<path fill="none" stroke="black" d="M190.41,-213.01C293.44,-194.29 656.71,-128.3 775,-106.82"/>
<polygon fill="black" stroke="black" points="775.82,-110.23 785.03,-105 774.57,-103.34 775.82,-110.23"/>
</g>
<!-- eth_input&#45;&gt;ip_input -->
<g id="edge10" class="edge">
<title>eth_input&#45;&gt;ip_input</title>
<path fill="none" stroke="black" d="M190.48,-222.71C259.97,-234.59 442.27,-265.75 519.52,-278.95"/>
<polygon fill="black" stroke="black" points="519.25,-282.45 529.7,-280.69 520.43,-275.55 519.25,-282.45"/>
</g>
<!-- eth_input&#45;&gt;ip6_input -->
<g id="edge11" class="edge">
<title>eth_input&#45;&gt;ip6_input</title>
<path fill="none" stroke="black" d="M174.69,-234.42C198.02,-266.92 250.2,-339.63 277.8,-378.07"/>
<polygon fill="black" stroke="black" points="275.26,-380.54 283.93,-386.62 280.94,-376.45 275.26,-380.54"/>
</g>
<!-- arp_input_request -->
<g id="node23" class="node">
<title>arp_input_request</title>
<ellipse fill="none" stroke="black" cx="946.14" cy="-46" rx="54.63" ry="18"/>
<text text-anchor="middle" x="946.14" y="-43.2" font-family="sans" font-size="11.00">arp_input_request</text>
</g>
<!-- arp_input&#45;&gt;arp_input_request -->
<g id="edge22" class="edge">
<title>arp_input&#45;&gt;arp_input_request</title>
<path fill="none" stroke="black" d="M838.19,-90.22C855.91,-82.89 880.65,-72.66 901.88,-63.89"/>
<polygon fill="black" stroke="black" points="903.44,-67.03 911.35,-59.97 900.77,-60.56 903.44,-67.03"/>
</g>
<!-- arp_input_reply -->
<g id="node24" class="node">
<title>arp_input_reply</title>
<ellipse fill="none" stroke="black" cx="946.14" cy="-100" rx="47.43" ry="18"/>
<text text-anchor="middle" x="946.14" y="-97.2" font-family="sans" font-size="11.00">arp_input_reply</text>
</g>
<!-- arp_input&#45;&gt;arp_input_reply -->
<g id="edge23" class="edge">
<title>arp_input&#45;&gt;arp_input_reply</title>
<path fill="none" stroke="black" d="M842.87,-100C856.29,-100 872.81,-100 888.63,-100"/>
<polygon fill="black" stroke="black" points="888.88,-103.5 898.88,-100 888.88,-96.5 888.88,-103.5"/>
</g>
<!-- ip_output -->
<g id="node20" class="node">
<title>ip_output</title>
<ellipse fill="none" stroke="black" cx="1213.52" cy="-238" rx="29.12" ry="18"/>
<text text-anchor="middle" x="1213.52" y="-235.2" font-family="sans" font-size="11.00">ip_output</text>
</g>
<!-- ip_input&#45;&gt;ip_output -->
<g id="edge36" class="edge">
<title>ip_input&#45;&gt;ip_output</title>
<path fill="none" stroke="black" d="M575.18,-272.21C615.8,-245.03 717.58,-184 812.54,-184 812.54,-184 812.54,-184 947.14,-184 1031.37,-184 1127.68,-210.45 1177.91,-226.32"/>
<polygon fill="black" stroke="black" points="1177.02,-229.72 1187.62,-229.44 1179.17,-223.05 1177.02,-229.72"/>
</g>
<!-- dnat44 -->
<g id="node25" class="node">
<title>dnat44</title>
<ellipse fill="none" stroke="black" cx="686.36" cy="-306" rx="27" ry="18"/>
<text text-anchor="middle" x="686.36" y="-303.2" font-family="sans" font-size="11.00">dnat44</text>
</g>
<!-- ip_input&#45;&gt;dnat44 -->
<g id="edge38" class="edge">
<title>ip_input&#45;&gt;dnat44</title>
<path fill="none" stroke="black" d="M582.3,-289.15C601.65,-292.31 628.54,-296.71 649.99,-300.22"/>
<polygon fill="black" stroke="black" points="649.6,-303.7 660.04,-301.86 650.73,-296.79 649.6,-303.7"/>
</g>
<!-- ip_forward -->
<g id="node26" class="node">
<title>ip_forward</title>
<ellipse fill="none" stroke="black" cx="813.54" cy="-268" rx="32.63" ry="18"/>
<text text-anchor="middle" x="813.54" y="-265.2" font-family="sans" font-size="11.00">ip_forward</text>
</g>
<!-- ip_input&#45;&gt;ip_forward -->
<g id="edge35" class="edge">
<title>ip_input&#45;&gt;ip_forward</title>
<path fill="none" stroke="black" d="M582.87,-282.97C598.54,-281.77 618.9,-280.24 636.97,-279 682.86,-275.84 735.53,-272.59 771.12,-270.45"/>
<polygon fill="black" stroke="black" points="771.36,-273.94 781.13,-269.85 770.94,-266.96 771.36,-273.94"/>
</g>
<!-- ip_input_local -->
<g id="node27" class="node">
<title>ip_input_local</title>
<ellipse fill="none" stroke="black" cx="813.54" cy="-322" rx="41.49" ry="18"/>
<text text-anchor="middle" x="813.54" y="-319.2" font-family="sans" font-size="11.00">ip_input_local</text>
</g>
<!-- ip_input&#45;&gt;ip_input_local -->
<g id="edge37" class="edge">
<title>ip_input&#45;&gt;ip_input_local</title>
<path fill="none" stroke="black" d="M573.77,-298.85C589.15,-310.53 613.08,-326.39 636.97,-333 680.1,-344.94 731.38,-339.61 767.34,-332.86"/>
<polygon fill="black" stroke="black" points="768.4,-336.22 777.52,-330.84 767.03,-329.36 768.4,-336.22"/>
</g>
<!-- ip6_input&#45;&gt;ip6_output -->
<g id="edge57" class="edge">
<title>ip6_input&#45;&gt;ip6_output</title>
<path fill="none" stroke="black" d="M306.52,-420.28C334.83,-472.97 428.84,-628 554.92,-628 554.92,-628 554.92,-628 1214.52,-628 1302.49,-628 1404.43,-609.91 1459.2,-598.7"/>
<polygon fill="black" stroke="black" points="1460.1,-602.08 1469.18,-596.62 1458.68,-595.23 1460.1,-602.08"/>
</g>
<!-- ip6_forward -->
<g id="node42" class="node">
<title>ip6_forward</title>
<ellipse fill="none" stroke="black" cx="430.38" cy="-492" rx="35.64" ry="18"/>
<text text-anchor="middle" x="430.38" y="-489.2" font-family="sans" font-size="11.00">ip6_forward</text>
</g>
<!-- ip6_input&#45;&gt;ip6_forward -->
<g id="edge56" class="edge">
<title>ip6_input&#45;&gt;ip6_forward</title>
<path fill="none" stroke="black" d="M316.84,-415.94C338.53,-430.6 374.16,-454.69 399.52,-471.82"/>
<polygon fill="black" stroke="black" points="397.77,-474.87 408.02,-477.57 401.69,-469.07 397.77,-474.87"/>
</g>
<!-- ip6_input_local -->
<g id="node44" class="node">
<title>ip6_input_local</title>
<ellipse fill="none" stroke="black" cx="555.92" cy="-403" rx="45.09" ry="18"/>
<text text-anchor="middle" x="555.92" y="-400.2" font-family="sans" font-size="11.00">ip6_input_local</text>
</g>
<!-- ip6_input&#45;&gt;ip6_input_local -->
<g id="edge58" class="edge">
<title>ip6_input&#45;&gt;ip6_input_local</title>
<path fill="none" stroke="black" d="M325.08,-404.56C342.49,-405.48 365.49,-406.54 385.87,-407 425.42,-407.9 435.33,-407.99 474.88,-407 483.38,-406.79 492.38,-406.45 501.16,-406.06"/>
<polygon fill="black" stroke="black" points="501.5,-409.54 511.32,-405.57 501.16,-402.55 501.5,-409.54"/>
</g>
<!-- sr6_local -->
<g id="node45" class="node">
<title>sr6_local</title>
<ellipse fill="none" stroke="black" cx="430.38" cy="-380" rx="27.86" ry="18"/>
<text text-anchor="middle" x="430.38" y="-377.2" font-family="sans" font-size="11.00">sr6_local</text>
</g>
<!-- ip6_input&#45;&gt;sr6_local -->
<g id="edge59" class="edge">
<title>ip6_input&#45;&gt;sr6_local</title>
<path fill="none" stroke="black" d="M320.93,-393.65C340.65,-388.61 369.31,-383.32 392.21,-380.35"/>
<polygon fill="black" stroke="black" points="392.76,-383.81 402.28,-379.15 391.93,-376.85 392.76,-383.81"/>
</g>
<!-- port_tx -->
<g id="node15" class="node">
<title>port_tx</title>
<ellipse fill="none" stroke="black" cx="1777.04" cy="-73" rx="27" ry="18"/>
<text text-anchor="middle" x="1777.04" y="-70.2" font-family="sans" font-size="11.00">port_tx</text>
</g>
<!-- eth_output&#45;&gt;port_tx -->
<g id="edge12" class="edge">
<title>eth_output&#45;&gt;port_tx</title>
<path fill="none" stroke="black" d="M1662.95,-133.45C1686.07,-121.09 1721.48,-102.16 1746.51,-88.79"/>
<polygon fill="black" stroke="black" points="1748.37,-91.76 1755.54,-83.96 1745.07,-85.58 1748.37,-91.76"/>
</g>
<!-- l1_xconnect -->
<g id="node16" class="node">
<title>l1_xconnect</title>
<ellipse fill="none" stroke="black" cx="296.69" cy="-50" rx="36.23" ry="18"/>
<text text-anchor="middle" x="296.69" y="-47.2" font-family="sans" font-size="11.00">l1_xconnect</text>
</g>
<!-- l1_xconnect&#45;&gt;port_tx -->
<g id="edge13" class="edge">
<title>l1_xconnect&#45;&gt;port_tx</title>
<path fill="none" stroke="black" d="M327.42,-40.36C374.95,-25.83 471.21,0 554.92,0 554.92,0 554.92,0 1500.89,0 1591.94,0 1694.43,-37.8 1744.75,-59"/>
<polygon fill="black" stroke="black" points="1743.53,-62.28 1754.1,-63 1746.28,-55.85 1743.53,-62.28"/>
</g>
<!-- loopback_output&#45;&gt;control_output -->
<g id="edge16" class="edge">
<title>loopback_output&#45;&gt;control_output</title>
<path fill="none" stroke="black" d="M1675.71,-418.21C1693.12,-424.07 1714.14,-431.15 1732.42,-437.31"/>
<polygon fill="black" stroke="black" points="1731.39,-440.65 1741.98,-440.53 1733.62,-434.02 1731.39,-440.65"/>
</g>
<!-- port_rx -->
<g id="node18" class="node">
<title>port_rx</title>
<ellipse fill="none" stroke="blue" stroke-width="2" cx="40.16" cy="-149" rx="27" ry="18"/>
<text text-anchor="middle" x="40.16" y="-146.2" font-family="sans" font-size="11.00">port_rx</text>
</g>
<!-- port_rx&#45;&gt;eth_input -->
<g id="edge17" class="edge">
<title>port_rx&#45;&gt;eth_input</title>
<path fill="none" stroke="blue" stroke-width="2" d="M61.2,-160.55C80.31,-171.56 109.33,-188.28 131.14,-200.85"/>
<polygon fill="blue" stroke="blue" stroke-width="2" points="129.58,-203.99 140,-205.95 133.08,-197.92 129.58,-203.99"/>
</g>
<!-- port_rx&#45;&gt;l1_xconnect -->
<g id="edge18" class="edge">
<title>port_rx&#45;&gt;l1_xconnect</title>
<path fill="none" stroke="blue" stroke-width="2" d="M63.75,-140.21C107.5,-123.2 204.21,-85.58 257.91,-64.69"/>
<polygon fill="blue" stroke="blue" stroke-width="2" points="259.36,-67.89 267.41,-61 256.82,-61.36 259.36,-67.89"/>
</g>
<!-- nh4_unreachable -->
<g id="node19" class="node">
<title>nh4_unreachable</title>
<ellipse fill="none" stroke="black" cx="1499.89" cy="-303" rx="52.2" ry="18"/>
<text text-anchor="middle" x="1499.89" y="-300.2" font-family="sans" font-size="11.00">nh4_unreachable</text>
</g>
<!-- nh4_unreachable&#45;&gt;ip_output -->
<g id="edge19" class="edge">
<title>nh4_unreachable&#45;&gt;ip_output</title>
<path fill="none" stroke="black" d="M1455.93,-293.18C1400.13,-280.43 1303.67,-258.38 1251.16,-246.38"/>
<polygon fill="black" stroke="black" points="1251.8,-242.93 1241.27,-244.12 1250.24,-249.76 1251.8,-242.93"/>
</g>
<!-- ip_output&#45;&gt;eth_output -->
<g id="edge42" class="edge">
<title>ip_output&#45;&gt;eth_output</title>
<path fill="none" stroke="black" d="M1242.9,-237.19C1281.49,-235.66 1352.5,-231.29 1411.79,-219 1480.39,-204.78 1557.48,-177.22 1601.48,-160.33"/>
<polygon fill="black" stroke="black" points="1602.82,-163.57 1610.88,-156.69 1600.29,-157.04 1602.82,-163.57"/>
</g>
<!-- ip_output&#45;&gt;loopback_output -->
<g id="edge44" class="edge">
<title>ip_output&#45;&gt;loopback_output</title>
<path fill="none" stroke="black" d="M1223.8,-255.15C1238.34,-280.21 1268.97,-326.29 1308.68,-349 1353.83,-374.82 1497.41,-392.46 1579.12,-400.7"/>
<polygon fill="black" stroke="black" points="1578.96,-404.2 1589.25,-401.7 1579.65,-397.23 1578.96,-404.2"/>
</g>
<!-- ip_hold -->
<g id="node30" class="node">
<title>ip_hold</title>
<ellipse fill="none" stroke="black" cx="1360.23" cy="-322" rx="27" ry="18"/>
<text text-anchor="middle" x="1360.23" y="-319.2" font-family="sans" font-size="11.00">ip_hold</text>
</g>
<!-- ip_output&#45;&gt;ip_hold -->
<g id="edge43" class="edge">
<title>ip_output&#45;&gt;ip_hold</title>
<path fill="none" stroke="black" d="M1235.56,-250.21C1260.49,-264.69 1302.17,-288.88 1330.17,-305.13"/>
<polygon fill="black" stroke="black" points="1328.69,-308.32 1339.1,-310.31 1332.21,-302.27 1328.69,-308.32"/>
</g>
<!-- ipip_output -->
<g id="node33" class="node">
<title>ipip_output</title>
<ellipse fill="none" stroke="black" cx="1360.23" cy="-192" rx="34.38" ry="18"/>
<text text-anchor="middle" x="1360.23" y="-189.2" font-family="sans" font-size="11.00">ipip_output</text>
</g>
<!-- ip_output&#45;&gt;ipip_output -->
<g id="edge45" class="edge">
<title>ip_output&#45;&gt;ipip_output</title>
<path fill="none" stroke="black" d="M1235.87,-226.26C1257.21,-217.61 1290.57,-206.59 1317.23,-199.16"/>
<polygon fill="black" stroke="black" points="1318.34,-202.49 1327.08,-196.5 1316.51,-195.73 1318.34,-202.49"/>
</g>
<!-- ip_output&#45;&gt;sr6_output -->
<g id="edge46" class="edge">
<title>ip_output&#45;&gt;sr6_output</title>
<path fill="none" stroke="black" d="M1222.71,-255.33C1246.84,-306.33 1317.7,-456.18 1346.67,-517.44"/>
<polygon fill="black" stroke="black" points="1343.51,-518.94 1350.95,-526.48 1349.84,-515.95 1343.51,-518.94"/>
</g>
<!-- arp_probe -->
<g id="node21" class="node">
<title>arp_probe</title>
<ellipse fill="none" stroke="black" cx="1077.66" cy="-100" rx="30.87" ry="18"/>
<text text-anchor="middle" x="1077.66" y="-97.2" font-family="sans" font-size="11.00">arp_probe</text>
</g>
<!-- arp_probe&#45;&gt;ip_output -->
<g id="edge20" class="edge">
<title>arp_probe&#45;&gt;ip_output</title>
<path fill="none" stroke="black" d="M1093.75,-115.56C1117.38,-139.92 1163.2,-187.16 1190.51,-215.31"/>
<polygon fill="black" stroke="black" points="1188.21,-217.96 1197.68,-222.71 1193.23,-213.09 1188.21,-217.96"/>
</g>
<!-- arp_output_reply -->
<g id="node22" class="node">
<title>arp_output_reply</title>
<ellipse fill="none" stroke="black" cx="1360.23" cy="-100" rx="51.62" ry="18"/>
<text text-anchor="middle" x="1360.23" y="-97.2" font-family="sans" font-size="11.00">arp_output_reply</text>
</g>
<!-- arp_probe&#45;&gt;arp_output_reply -->
<g id="edge21" class="edge">
<title>arp_probe&#45;&gt;arp_output_reply</title>
<path fill="none" stroke="black" d="M1108.68,-100C1153.76,-100 1239.87,-100 1298.41,-100"/>
<polygon fill="black" stroke="black" points="1298.65,-103.5 1308.65,-100 1298.65,-96.5 1298.65,-103.5"/>
</g>
<!-- arp_output_reply&#45;&gt;eth_output -->
<g id="edge26" class="edge">
<title>arp_output_reply&#45;&gt;eth_output</title>
<path fill="none" stroke="black" d="M1407.16,-107.65C1459.83,-116.42 1545.43,-130.67 1596.11,-139.11"/>
<polygon fill="black" stroke="black" points="1595.62,-142.58 1606.06,-140.77 1596.77,-135.68 1595.62,-142.58"/>
</g>
<!-- arp_input_request&#45;&gt;arp_probe -->
<g id="edge25" class="edge">
<title>arp_input_request&#45;&gt;arp_probe</title>
<path fill="none" stroke="black" d="M980.83,-60.05C999.94,-68.01 1023.78,-77.95 1042.89,-85.92"/>
<polygon fill="black" stroke="black" points="1041.56,-89.16 1052.14,-89.78 1044.25,-82.7 1041.56,-89.16"/>
</g>
<!-- arp_input_reply&#45;&gt;arp_probe -->
<g id="edge24" class="edge">
<title>arp_input_reply&#45;&gt;arp_probe</title>
<path fill="none" stroke="black" d="M993.53,-100C1007.39,-100 1022.48,-100 1035.94,-100"/>
<polygon fill="black" stroke="black" points="1036.34,-103.5 1046.34,-100 1036.34,-96.5 1036.34,-103.5"/>
</g>
<!-- dnat44&#45;&gt;ip_forward -->
<g id="edge28" class="edge">
<title>dnat44&#45;&gt;ip_forward</title>
<path fill="none" stroke="black" d="M711.2,-298.76C729.12,-293.32 754.03,-285.76 774.67,-279.5"/>
<polygon fill="black" stroke="black" points="775.86,-282.79 784.41,-276.54 773.82,-276.09 775.86,-282.79"/>
</g>
<!-- dnat44&#45;&gt;ip_input_local -->
<g id="edge29" class="edge">
<title>dnat44&#45;&gt;ip_input_local</title>
<path fill="none" stroke="black" d="M712.99,-309.28C727.58,-311.14 746.34,-313.54 763.64,-315.75"/>
<polygon fill="black" stroke="black" points="763.25,-319.23 773.61,-317.02 764.14,-312.29 763.25,-319.23"/>
</g>
<!-- ip_forward&#45;&gt;ip_output -->
<g id="edge33" class="edge">
<title>ip_forward&#45;&gt;ip_output</title>
<path fill="none" stroke="black" d="M839.57,-256.84C854.31,-250.88 873.51,-244.13 891.32,-241 992.1,-223.31 1113.42,-229.44 1174.06,-234.33"/>
<polygon fill="black" stroke="black" points="1174.05,-237.84 1184.31,-235.19 1174.64,-230.86 1174.05,-237.84"/>
</g>
<!-- icmp_input -->
<g id="node28" class="node">
<title>icmp_input</title>
<ellipse fill="none" stroke="black" cx="946.14" cy="-322" rx="33.8" ry="18"/>
<text text-anchor="middle" x="946.14" y="-319.2" font-family="sans" font-size="11.00">icmp_input</text>
</g>
<!-- ip_input_local&#45;&gt;icmp_input -->
<g id="edge39" class="edge">
<title>ip_input_local&#45;&gt;icmp_input</title>
<path fill="none" stroke="black" d="M854.79,-322C869.77,-322 886.82,-322 902.05,-322"/>
<polygon fill="black" stroke="black" points="902.25,-325.5 912.25,-322 902.25,-318.5 902.25,-325.5"/>
</g>
<!-- ipip_input -->
<g id="node31" class="node">
<title>ipip_input</title>
<ellipse fill="none" stroke="black" cx="946.14" cy="-268" rx="29.7" ry="18"/>
<text text-anchor="middle" x="946.14" y="-265.2" font-family="sans" font-size="11.00">ipip_input</text>
</g>
<!-- ip_input_local&#45;&gt;ipip_input -->
<g id="edge40" class="edge">
<title>ip_input_local&#45;&gt;ipip_input</title>
<path fill="none" stroke="black" d="M844.17,-309.75C864.18,-301.47 890.64,-290.53 911.45,-281.93"/>
<polygon fill="black" stroke="black" points="912.96,-285.09 920.87,-278.04 910.29,-278.62 912.96,-285.09"/>
</g>
<!-- l4_input_local -->
<g id="node32" class="node">
<title>l4_input_local</title>
<ellipse fill="none" stroke="black" cx="946.14" cy="-376" rx="41.49" ry="18"/>
<text text-anchor="middle" x="946.14" y="-373.2" font-family="sans" font-size="11.00">l4_input_local</text>
</g>
<!-- ip_input_local&#45;&gt;l4_input_local -->
<g id="edge41" class="edge">
<title>ip_input_local&#45;&gt;l4_input_local</title>
<path fill="none" stroke="black" d="M844.17,-334.25C862.54,-341.85 886.34,-351.69 906.22,-359.91"/>
<polygon fill="black" stroke="black" points="905.04,-363.21 915.62,-363.8 907.72,-356.74 905.04,-363.21"/>
</g>
<!-- icmp_input&#45;&gt;icmp_output -->
<g id="edge30" class="edge">
<title>icmp_input&#45;&gt;icmp_output</title>
<path fill="none" stroke="black" d="M979.82,-322C994.7,-322 1012.6,-322 1028.94,-322"/>
<polygon fill="black" stroke="black" points="1029.4,-325.5 1039.4,-322 1029.4,-318.5 1029.4,-325.5"/>
</g>
<!-- icmp_output&#45;&gt;ip_output -->
<g id="edge32" class="edge">
<title>icmp_output&#45;&gt;ip_output</title>
<path fill="none" stroke="black" d="M1101.37,-307.75C1124.09,-293.49 1159.11,-271.51 1183.76,-256.05"/>
<polygon fill="black" stroke="black" points="1185.72,-258.95 1192.33,-250.67 1182,-253.02 1185.72,-258.95"/>
</g>
<!-- ip_hold&#45;&gt;nh4_unreachable -->
<g id="edge34" class="edge">
<title>ip_hold&#45;&gt;nh4_unreachable</title>
<path fill="none" stroke="black" d="M1386.8,-318.47C1402.09,-316.36 1422.18,-313.59 1441.11,-310.98"/>
<polygon fill="black" stroke="black" points="1441.75,-314.42 1451.18,-309.59 1440.79,-307.49 1441.75,-314.42"/>
</g>
<!-- ipip_input&#45;&gt;ip_input -->
<g id="edge71" class="edge">
<title>ipip_input&#45;&gt;ip_input</title>
<path fill="none" stroke="black" d="M920.42,-258.44C902.62,-252.08 877.88,-244.32 855.32,-241 758.75,-226.8 644.61,-256.6 589.69,-273.86"/>
<polygon fill="black" stroke="black" points="588.59,-270.54 580.14,-276.92 590.73,-277.2 588.59,-270.54"/>
</g>
<!-- l4_loopback_output -->
<g id="node46" class="node">
<title>l4_loopback_output</title>
<ellipse fill="none" stroke="black" cx="1213.52" cy="-399" rx="58.73" ry="18"/>
<text text-anchor="middle" x="1213.52" y="-396.2" font-family="sans" font-size="11.00">l4_loopback_output</text>
</g>
<!-- l4_input_local&#45;&gt;l4_loopback_output -->
<g id="edge73" class="edge">
<title>l4_input_local&#45;&gt;l4_loopback_output</title>
<path fill="none" stroke="black" d="M986.87,-379.44C1029.07,-383.1 1096.5,-388.94 1146.67,-393.29"/>
<polygon fill="black" stroke="black" points="1146.51,-396.79 1156.78,-394.17 1147.11,-389.82 1146.51,-396.79"/>
</g>
<!-- ipip_output&#45;&gt;ip_output -->
<g id="edge72" class="edge">
<title>ipip_output&#45;&gt;ip_output</title>
<path fill="none" stroke="black" d="M1335.72,-204.61C1313.11,-213.61 1278.55,-224.88 1252.11,-232.05"/>
<polygon fill="black" stroke="black" points="1251.21,-228.67 1242.42,-234.59 1252.98,-235.44 1251.21,-228.67"/>
</g>
<!-- sr6_output&#45;&gt;ip6_output -->
<g id="edge78" class="edge">
<title>sr6_output&#45;&gt;ip6_output</title>
<path fill="none" stroke="black" d="M1392.47,-548.68C1414.72,-554.81 1444.53,-564.76 1466.94,-573.52"/>
<polygon fill="black" stroke="black" points="1465.77,-576.82 1476.36,-577.32 1468.39,-570.33 1465.77,-576.82"/>
</g>
<!-- nh6_unreachable -->
<g id="node35" class="node">
<title>nh6_unreachable</title>
<ellipse fill="none" stroke="black" cx="1777.04" cy="-590" rx="52.2" ry="18"/>
<text text-anchor="middle" x="1777.04" y="-587.2" font-family="sans" font-size="11.00">nh6_unreachable</text>
</g>
<!-- nh6_unreachable&#45;&gt;ip6_output -->
<g id="edge47" class="edge">
<title>nh6_unreachable&#45;&gt;ip6_output</title>
<path fill="none" stroke="black" d="M1725.39,-587.28C1713.44,-586.75 1700.74,-586.27 1688.94,-586 1644.09,-584.97 1632.85,-584.97 1587.99,-586 1573.14,-586.34 1556.87,-587.01 1542.45,-587.7"/>
<polygon fill="black" stroke="black" points="1542.14,-584.21 1532.33,-588.21 1542.49,-591.2 1542.14,-584.21"/>
</g>
<!-- ndp_router_solicit -->
<g id="node36" class="node">
<title>ndp_router_solicit</title>
<ellipse fill="none" stroke="black" cx="946.14" cy="-468" rx="53.96" ry="18"/>
<text text-anchor="middle" x="946.14" y="-465.2" font-family="sans" font-size="11.00">ndp_router_solicit</text>
</g>
<!-- icmp6_input -->
<g id="node37" class="node">
<title>icmp6_input</title>
<ellipse fill="none" stroke="black" cx="686.36" cy="-468" rx="37.4" ry="18"/>
<text text-anchor="middle" x="686.36" y="-465.2" font-family="sans" font-size="11.00">icmp6_input</text>
</g>
<!-- icmp6_input&#45;&gt;icmp6_output -->
<g id="edge48" class="edge">
<title>icmp6_input&#45;&gt;icmp6_output</title>
<path fill="none" stroke="black" d="M706.38,-483.65C716.24,-492.57 727.84,-504.46 735.75,-517 773.92,-577.54 796.63,-659.71 806.57,-702.12"/>
<polygon fill="black" stroke="black" points="803.19,-703.03 808.82,-712 810.02,-701.48 803.19,-703.03"/>
</g>
<!-- ndp_ns_input -->
<g id="node39" class="node">
<title>ndp_ns_input</title>
<ellipse fill="none" stroke="black" cx="1499.89" cy="-498" rx="40.32" ry="18"/>
<text text-anchor="middle" x="1499.89" y="-495.2" font-family="sans" font-size="11.00">ndp_ns_input</text>
</g>
<!-- icmp6_input&#45;&gt;ndp_ns_input -->
<g id="edge49" class="edge">
<title>icmp6_input&#45;&gt;ndp_ns_input</title>
<path fill="none" stroke="black" d="M715.73,-479.47C731.86,-485.38 752.6,-491.97 771.75,-495 1024.41,-534.97 1332.67,-513.54 1450.21,-502.87"/>
<polygon fill="black" stroke="black" points="1450.69,-506.34 1460.33,-501.94 1450.05,-499.37 1450.69,-506.34"/>
</g>
<!-- ndp_na_input -->
<g id="node40" class="node">
<title>ndp_na_input</title>
<ellipse fill="none" stroke="black" cx="1077.66" cy="-441" rx="40.91" ry="18"/>
<text text-anchor="middle" x="1077.66" y="-438.2" font-family="sans" font-size="11.00">ndp_na_input</text>
</g>
<!-- icmp6_input&#45;&gt;ndp_na_input -->
<g id="edge50" class="edge">
<title>icmp6_input&#45;&gt;ndp_na_input</title>
<path fill="none" stroke="black" d="M715.73,-456.5C731.85,-450.58 752.6,-443.99 771.75,-441 861.24,-427.03 967.31,-431.74 1027.82,-436.39"/>
<polygon fill="black" stroke="black" points="1027.61,-439.89 1037.86,-437.2 1028.17,-432.91 1027.61,-439.89"/>
</g>
<!-- ndp_rs_input -->
<g id="node41" class="node">
<title>ndp_rs_input</title>
<ellipse fill="none" stroke="black" cx="813.54" cy="-468" rx="39.15" ry="18"/>
<text text-anchor="middle" x="813.54" y="-465.2" font-family="sans" font-size="11.00">ndp_rs_input</text>
</g>
<!-- icmp6_input&#45;&gt;ndp_rs_input -->
<g id="edge51" class="edge">
<title>icmp6_input&#45;&gt;ndp_rs_input</title>
<path fill="none" stroke="black" d="M723.9,-468C736.55,-468 750.93,-468 764.37,-468"/>
<polygon fill="black" stroke="black" points="764.42,-471.5 774.42,-468 764.42,-464.5 764.42,-471.5"/>
</g>
<!-- icmp6_output&#45;&gt;ip6_output -->
<g id="edge52" class="edge">
<title>icmp6_output&#45;&gt;ip6_output</title>
<path fill="none" stroke="black" d="M855.39,-728.99C906.96,-727.81 998.38,-726 1076.66,-726 1076.66,-726 1076.66,-726 1214.52,-726 1303.07,-726 1334.79,-741.74 1411.79,-698 1445.22,-679.01 1470.82,-641.72 1485.37,-616.33"/>
<polygon fill="black" stroke="black" points="1488.61,-617.69 1490.39,-607.24 1482.49,-614.3 1488.61,-617.69"/>
</g>
<!-- ndp_ns_input&#45;&gt;control_output -->
<g id="edge68" class="edge">
<title>ndp_ns_input&#45;&gt;control_output</title>
<path fill="none" stroke="black" d="M1537.72,-491.84C1586,-483.77 1670.95,-469.57 1725.3,-460.48"/>
<polygon fill="black" stroke="black" points="1726.13,-463.89 1735.41,-458.79 1724.97,-456.99 1726.13,-463.89"/>
</g>
<!-- ndp_na_input&#45;&gt;control_output -->
<g id="edge66" class="edge">
<title>ndp_na_input&#45;&gt;control_output</title>
<path fill="none" stroke="black" d="M1118.13,-443.52C1172.42,-446.77 1273.19,-452 1359.23,-452 1359.23,-452 1359.23,-452 1500.89,-452 1577.63,-452 1666.41,-452 1721.9,-452"/>
<polygon fill="black" stroke="black" points="1722.2,-455.5 1732.2,-452 1722.2,-448.5 1722.2,-455.5"/>
</g>
<!-- ndp_rs_input&#45;&gt;ndp_router_solicit -->
<g id="edge70" class="edge">
<title>ndp_rs_input&#45;&gt;ndp_router_solicit</title>
<path fill="none" stroke="black" d="M852.66,-468C861.92,-468 872.07,-468 882.15,-468"/>
<polygon fill="black" stroke="black" points="882.16,-471.5 892.16,-468 882.16,-464.5 882.16,-471.5"/>
</g>
<!-- ip6_forward&#45;&gt;ip6_output -->
<g id="edge54" class="edge">
<title>ip6_forward&#45;&gt;ip6_output</title>
<path fill="none" stroke="black" d="M452.39,-506.25C494.58,-533.43 593.43,-590 685.36,-590 685.36,-590 685.36,-590 1214.52,-590 1300.56,-590 1401.24,-590 1456.75,-590"/>
<polygon fill="black" stroke="black" points="1456.91,-593.5 1466.91,-590 1456.91,-586.5 1456.91,-593.5"/>
</g>
<!-- ip6_hold&#45;&gt;nh6_unreachable -->
<g id="edge55" class="edge">
<title>ip6_hold&#45;&gt;nh6_unreachable</title>
<path fill="none" stroke="black" d="M1664.84,-608.73C1680.27,-606.13 1700.62,-602.7 1719.69,-599.49"/>
<polygon fill="black" stroke="black" points="1720.53,-602.9 1729.81,-597.79 1719.36,-596 1720.53,-602.9"/>
</g>
<!-- ip6_input_local&#45;&gt;l4_input_local -->
<g id="edge61" class="edge">
<title>ip6_input_local&#45;&gt;l4_input_local</title>
<path fill="none" stroke="black" d="M600.7,-399.96C673.33,-394.9 818.32,-384.82 894.97,-379.49"/>
<polygon fill="black" stroke="black" points="895.58,-382.96 905.31,-378.77 895.09,-375.97 895.58,-382.96"/>
</g>
<!-- ip6_input_local&#45;&gt;icmp6_input -->
<g id="edge60" class="edge">
<title>ip6_input_local&#45;&gt;icmp6_input</title>
<path fill="none" stroke="black" d="M584.48,-416.94C603.91,-426.78 630.07,-440.02 650.89,-450.55"/>
<polygon fill="black" stroke="black" points="649.53,-453.79 660.03,-455.18 652.69,-447.54 649.53,-453.79"/>
</g>
<!-- sr6_local&#45;&gt;ip_input -->
<g id="edge75" class="edge">
<title>sr6_local&#45;&gt;ip_input</title>
<path fill="none" stroke="black" d="M449.08,-366.39C470.21,-350.14 505.69,-322.86 529.69,-304.41"/>
<polygon fill="black" stroke="black" points="531.86,-307.15 537.65,-298.28 527.59,-301.6 531.86,-307.15"/>
</g>
<!-- sr6_local&#45;&gt;ip6_input -->
<g id="edge76" class="edge">
<title>sr6_local&#45;&gt;ip6_input</title>
<path fill="none" stroke="black" d="M406.51,-389.25C386.85,-394.31 358.1,-399.63 335.09,-402.62"/>
<polygon fill="black" stroke="black" points="334.49,-399.17 324.97,-403.83 335.32,-406.12 334.49,-399.17"/>
</g>
<!-- sr6_local&#45;&gt;ip6_input_local -->
<g id="edge77" class="edge">
<title>sr6_local&#45;&gt;ip6_input_local</title>
<path fill="none" stroke="black" d="M457.28,-384.82C470.99,-387.37 488.31,-390.6 504.54,-393.62"/>
<polygon fill="black" stroke="black" points="503.99,-397.08 514.47,-395.47 505.28,-390.2 503.99,-397.08"/>
</g>
<!-- l4_loopback_output&#45;&gt;loopback_output -->
<g id="edge74" class="edge">
<title>l4_loopback_output&#45;&gt;loopback_output</title>
<path fill="none" stroke="black" d="M1272.44,-399.96C1352.61,-401.29 1496.65,-403.67 1577.75,-405.01"/>
<polygon fill="black" stroke="black" points="1577.75,-408.51 1587.81,-405.18 1577.87,-401.51 1577.75,-408.51"/>
</g>
</g>
</svg>
