<?xml version="1.0" encoding="UTF-8" standalone="no"?>
<!DOCTYPE svg PUBLIC "-//W3C//DTD SVG 1.1//EN"
 "http://www.w3.org/Graphics/SVG/1.1/DTD/svg11.dtd">
<!-- Generated by graphviz version 12.2.1 (20241206.2353)
 -->
<!-- Pages: 1 -->
<svg width="2247pt" height="869pt"
 viewBox="0.00 0.00 2247.01 869.00" xmlns="http://www.w3.org/2000/svg" xmlns:xlink="http://www.w3.org/1999/xlink">
<g id="graph0" class="graph" transform="scale(1 1) rotate(0) translate(4 865)">
<polygon fill="white" stroke="none" points="-4,4 -4,-865 2243.01,-865 2243.01,4 -4,4"/>
<!-- bond_output -->
<g id="node1" class="node">
<title>bond_output</title>
<ellipse fill="none" stroke="black" cx="1997.08" cy="-81" rx="40.69" ry="18"/>
<text text-anchor="middle" x="1997.08" y="-78.42" font-family="sans" font-size="11.00">bond_output</text>
</g>
<!-- port_output -->
<g id="node3" class="node">
<title>port_output</title>
<ellipse fill="none" stroke="black" cx="2111.39" cy="-81" rx="37.62" ry="18"/>
<text text-anchor="middle" x="2111.39" y="-78.42" font-family="sans" font-size="11.00">port_output</text>
</g>
<!-- bond_output&#45;&gt;port_output -->
<g id="edge1" class="edge">
<title>bond_output&#45;&gt;port_output</title>
<path fill="none" stroke="black" d="M2037.99,-81C2045.88,-81 2054.23,-81 2062.35,-81"/>
<polygon fill="black" stroke="black" points="2062.09,-84.5 2072.09,-81 2062.09,-77.5 2062.09,-84.5"/>
</g>
<!-- l1_xconnect -->
<g id="node2" class="node">
<title>l1_xconnect</title>
<ellipse fill="none" stroke="black" cx="891.87" cy="-58" rx="36.74" ry="18"/>
<text text-anchor="middle" x="891.87" y="-55.42" font-family="sans" font-size="11.00">l1_xconnect</text>
</g>
<!-- l1_xconnect&#45;&gt;port_output -->
<g id="edge9" class="edge">
<title>l1_xconnect&#45;&gt;port_output</title>
<path fill="none" stroke="black" d="M919.65,-45.84C959.61,-28.83 1037.63,0 1107.21,0 1107.21,0 1107.21,0 1886.84,0 1958.35,0 2035.43,-37.08 2077.81,-61.07"/>
<polygon fill="black" stroke="black" points="2075.84,-63.97 2086.25,-65.95 2079.34,-57.91 2075.84,-63.97"/>
</g>
<!-- port_tx -->
<g id="node5" class="node">
<title>port_tx</title>
<ellipse fill="none" stroke="black" cx="2212.01" cy="-81" rx="27" ry="18"/>
<text text-anchor="middle" x="2212.01" y="-78.42" font-family="sans" font-size="11.00">port_tx</text>
</g>
<!-- port_output&#45;&gt;port_tx -->
<g id="edge15" class="edge">
<title>port_output&#45;&gt;port_tx</title>
<path fill="none" stroke="black" d="M2149.39,-81C2157.16,-81 2165.36,-81 2173.16,-81"/>
<polygon fill="black" stroke="black" points="2173.06,-84.5 2183.06,-81 2173.06,-77.5 2173.06,-84.5"/>
</g>
<!-- port_rx -->
<g id="node4" class="node">
<title>port_rx</title>
<ellipse fill="none" stroke="blue" stroke-width="2" cx="27" cy="-394" rx="27" ry="18"/>
<text text-anchor="middle" x="27" y="-391.43" font-family="sans" font-size="11.00">port_rx</text>
</g>
<!-- port_rx&#45;&gt;l1_xconnect -->
<g id="edge17" class="edge">
<title>port_rx&#45;&gt;l1_xconnect</title>
<path fill="none" stroke="blue" stroke-width="2" d="M31.95,-375.95C47.38,-310.72 109.95,-91 252.72,-91 252.72,-91 252.72,-91 640.91,-91 713.6,-91 797.17,-77.11 846.91,-67.36"/>
<polygon fill="blue" stroke="blue" stroke-width="2" points="845.81,-71.15 854.93,-65.75 844.44,-64.28 845.81,-71.15"/>
</g>
<!-- eth_input -->
<g id="node6" class="node">
<title>eth_input</title>
<ellipse fill="none" stroke="black" cx="136.95" cy="-721" rx="30.17" ry="18"/>
<text text-anchor="middle" x="136.95" y="-718.42" font-family="sans" font-size="11.00">eth_input</text>
</g>
<!-- port_rx&#45;&gt;eth_input -->
<g id="edge16" class="edge">
<title>port_rx&#45;&gt;eth_input</title>
<path fill="none" stroke="blue" stroke-width="2" d="M33.8,-411.58C51.49,-465.14 104.8,-626.65 126.56,-692.54"/>
<polygon fill="blue" stroke="blue" stroke-width="2" points="122.71,-692.06 129.17,-700.46 129.36,-689.86 122.71,-692.06"/>
</g>
<!-- lacp_input -->
<g id="node9" class="node">
<title>lacp_input</title>
<polygon fill="none" stroke="dodgerblue" points="287.55,-762 219.9,-762 219.9,-726 287.55,-726 287.55,-762"/>
<text text-anchor="middle" x="253.72" y="-741.42" font-family="sans" font-size="11.00">lacp_input</text>
</g>
<!-- eth_input&#45;&gt;lacp_input -->
<g id="edge3" class="edge">
<title>eth_input&#45;&gt;lacp_input</title>
<path fill="none" stroke="black" d="M166.03,-726.63C178.8,-729.19 194.23,-732.28 208.51,-735.14"/>
<polygon fill="black" stroke="black" points="207.66,-738.54 218.16,-737.07 209.04,-731.68 207.66,-738.54"/>
</g>
<!-- snap_input -->
<g id="node11" class="node">
<title>snap_input</title>
<ellipse fill="none" stroke="black" cx="1108.21" cy="-843" rx="34.99" ry="18"/>
<text text-anchor="middle" x="1108.21" y="-840.42" font-family="sans" font-size="11.00">snap_input</text>
</g>
<!-- eth_input&#45;&gt;snap_input -->
<g id="edge2" class="edge">
<title>eth_input&#45;&gt;snap_input</title>
<path fill="none" stroke="black" d="M146.2,-738.5C158.54,-762.5 184.23,-804.95 219.9,-825 281.07,-859.38 306.46,-844 376.62,-844 376.62,-844 376.62,-844 892.87,-844 951.16,-844 1018.36,-843.63 1061.75,-843.33"/>
<polygon fill="black" stroke="black" points="1061.57,-846.84 1071.54,-843.27 1061.52,-839.84 1061.57,-846.84"/>
</g>
<!-- arp_input -->
<g id="node12" class="node">
<title>arp_input</title>
<ellipse fill="none" stroke="black" cx="253.72" cy="-798" rx="30.61" ry="18"/>
<text text-anchor="middle" x="253.72" y="-795.42" font-family="sans" font-size="11.00">arp_input</text>
</g>
<!-- eth_input&#45;&gt;arp_input -->
<g id="edge4" class="edge">
<title>eth_input&#45;&gt;arp_input</title>
<path fill="none" stroke="black" d="M157.94,-734.41C175.94,-746.48 202.62,-764.38 223.09,-778.12"/>
<polygon fill="black" stroke="black" points="221.07,-780.98 231.32,-783.64 224.97,-775.16 221.07,-780.98"/>
</g>
<!-- ip_input -->
<g id="node24" class="node">
<title>ip_input</title>
<ellipse fill="none" stroke="black" cx="253.72" cy="-453" rx="27" ry="18"/>
<text text-anchor="middle" x="253.72" y="-450.43" font-family="sans" font-size="11.00">ip_input</text>
</g>
<!-- eth_input&#45;&gt;ip_input -->
<g id="edge5" class="edge">
<title>eth_input&#45;&gt;ip_input</title>
<path fill="none" stroke="black" d="M145.48,-703.42C164.98,-657.88 217.26,-535.82 240.86,-480.69"/>
<polygon fill="black" stroke="black" points="244,-482.26 244.72,-471.69 237.57,-479.51 244,-482.26"/>
</g>
<!-- ip6_input -->
<g id="node30" class="node">
<title>ip6_input</title>
<ellipse fill="none" stroke="black" cx="1108.21" cy="-541" rx="29.73" ry="18"/>
<text text-anchor="middle" x="1108.21" y="-538.42" font-family="sans" font-size="11.00">ip6_input</text>
</g>
<!-- eth_input&#45;&gt;ip6_input -->
<g id="edge6" class="edge">
<title>eth_input&#45;&gt;ip6_input</title>
<path fill="none" stroke="black" d="M166.52,-716.46C211.22,-709.75 300.44,-698 376.62,-698 376.62,-698 376.62,-698 512.02,-698 732.58,-698 984.37,-595.95 1073.67,-556.4"/>
<polygon fill="black" stroke="black" points="1074.9,-559.69 1082.6,-552.41 1072.04,-553.3 1074.9,-559.69"/>
</g>
<!-- eth_output -->
<g id="node7" class="node">
<title>eth_output</title>
<ellipse fill="none" stroke="black" cx="1885.84" cy="-127" rx="34.55" ry="18"/>
<text text-anchor="middle" x="1885.84" y="-124.42" font-family="sans" font-size="11.00">eth_output</text>
</g>
<!-- eth_output&#45;&gt;bond_output -->
<g id="edge7" class="edge">
<title>eth_output&#45;&gt;bond_output</title>
<path fill="none" stroke="black" d="M1913.57,-115.75C1926.45,-110.32 1942.17,-103.7 1956.41,-97.7"/>
<polygon fill="black" stroke="black" points="1957.7,-100.96 1965.56,-93.85 1954.98,-94.51 1957.7,-100.96"/>
</g>
<!-- eth_output&#45;&gt;port_output -->
<g id="edge8" class="edge">
<title>eth_output&#45;&gt;port_output</title>
<path fill="none" stroke="black" d="M1920.52,-124.99C1951.37,-122.63 1998.14,-117.72 2037.77,-108 2049.13,-105.21 2061.16,-101.2 2072.09,-97.12"/>
<polygon fill="black" stroke="black" points="2073.11,-100.48 2081.17,-93.6 2070.58,-93.95 2073.11,-100.48"/>
</g>
<!-- l2_redirect -->
<g id="node8" class="node">
<title>l2_redirect</title>
<polygon fill="none" stroke="dodgerblue" points="1637,-854 1568.6,-854 1568.6,-818 1637,-818 1637,-854"/>
<text text-anchor="middle" x="1602.8" y="-833.42" font-family="sans" font-size="11.00">l2_redirect</text>
</g>
<!-- lacp_output -->
<g id="node10" class="node">
<title>lacp_output</title>
<polygon fill="none" stroke="dodgerblue" points="1795.04,-118 1719.89,-118 1719.89,-82 1795.04,-82 1795.04,-118"/>
<text text-anchor="middle" x="1757.47" y="-97.42" font-family="sans" font-size="11.00">lacp_output</text>
</g>
<!-- lacp_output&#45;&gt;eth_output -->
<g id="edge10" class="edge">
<title>lacp_output&#45;&gt;eth_output</title>
<path fill="none" stroke="dodgerblue" d="M1795.36,-107.88C1809.99,-111.01 1826.91,-114.62 1842.07,-117.86"/>
<polygon fill="dodgerblue" stroke="dodgerblue" points="1841.27,-121.27 1851.78,-119.94 1842.73,-114.42 1841.27,-121.27"/>
</g>
<!-- snap_input&#45;&gt;l2_redirect -->
<g id="edge18" class="edge">
<title>snap_input&#45;&gt;l2_redirect</title>
<path fill="none" stroke="black" d="M1143.46,-842.51C1230.27,-841.28 1458.97,-838.03 1556.59,-836.64"/>
<polygon fill="black" stroke="black" points="1556.64,-840.14 1566.59,-836.5 1556.54,-833.14 1556.64,-840.14"/>
</g>
<!-- arp_input_reply -->
<g id="node13" class="node">
<title>arp_input_reply</title>
<polygon fill="none" stroke="dodgerblue" points="424.95,-816 330.3,-816 330.3,-780 424.95,-780 424.95,-816"/>
<text text-anchor="middle" x="377.62" y="-795.42" font-family="sans" font-size="11.00">arp_input_reply</text>
</g>
<!-- arp_input&#45;&gt;arp_input_reply -->
<g id="edge20" class="edge">
<title>arp_input&#45;&gt;arp_input_reply</title>
<path fill="none" stroke="black" d="M284.55,-798C294.91,-798 306.91,-798 318.76,-798"/>
<polygon fill="black" stroke="black" points="318.5,-801.5 328.5,-798 318.5,-794.5 318.5,-801.5"/>
</g>
<!-- arp_input_request -->
<g id="node14" class="node">
<title>arp_input_request</title>
<polygon fill="none" stroke="dodgerblue" points="431.7,-762 323.55,-762 323.55,-726 431.7,-726 431.7,-762"/>
<text text-anchor="middle" x="377.62" y="-741.42" font-family="sans" font-size="11.00">arp_input_request</text>
</g>
<!-- arp_input&#45;&gt;arp_input_request -->
<g id="edge19" class="edge">
<title>arp_input&#45;&gt;arp_input_request</title>
<path fill="none" stroke="black" d="M278.81,-787.33C292.01,-781.48 308.92,-773.99 324.94,-766.89"/>
<polygon fill="black" stroke="black" points="326.19,-770.17 333.92,-762.92 323.36,-763.77 326.19,-770.17"/>
</g>
<!-- arp_output_reply -->
<g id="node15" class="node">
<title>arp_output_reply</title>
<polygon fill="none" stroke="dodgerblue" points="1808.54,-64 1706.39,-64 1706.39,-28 1808.54,-28 1808.54,-64"/>
<text text-anchor="middle" x="1757.47" y="-43.42" font-family="sans" font-size="11.00">arp_output_reply</text>
</g>
<!-- arp_output_reply&#45;&gt;eth_output -->
<g id="edge21" class="edge">
<title>arp_output_reply&#45;&gt;eth_output</title>
<path fill="none" stroke="dodgerblue" d="M1800,-64.44C1805.24,-67.14 1810.46,-70.02 1815.29,-73 1830.27,-82.22 1845.84,-94.06 1858.44,-104.31"/>
<polygon fill="dodgerblue" stroke="dodgerblue" points="1855.93,-106.78 1865.87,-110.46 1860.39,-101.39 1855.93,-106.78"/>
</g>
<!-- arp_output_request -->
<g id="node16" class="node">
<title>arp_output_request</title>
<polygon fill="none" stroke="dodgerblue" points="1815.29,-172 1699.64,-172 1699.64,-136 1815.29,-136 1815.29,-172"/>
<text text-anchor="middle" x="1757.47" y="-151.43" font-family="sans" font-size="11.00">arp_output_request</text>
</g>
<!-- arp_output_request&#45;&gt;eth_output -->
<g id="edge22" class="edge">
<title>arp_output_request&#45;&gt;eth_output</title>
<path fill="none" stroke="dodgerblue" d="M1815.74,-141.76C1824.63,-139.86 1833.68,-137.93 1842.17,-136.12"/>
<polygon fill="dodgerblue" stroke="dodgerblue" points="1842.81,-139.56 1851.86,-134.05 1841.35,-132.71 1842.81,-139.56"/>
</g>
<!-- ospf_redirect -->
<g id="node17" class="node">
<title>ospf_redirect</title>
<ellipse fill="none" stroke="black" cx="1453.37" cy="-714" rx="41.13" ry="18"/>
<text text-anchor="middle" x="1453.37" y="-711.42" font-family="sans" font-size="11.00">ospf_redirect</text>
</g>
<!-- ospf_redirect&#45;&gt;l2_redirect -->
<g id="edge72" class="edge">
<title>ospf_redirect&#45;&gt;l2_redirect</title>
<path fill="none" stroke="black" d="M1467.84,-731.05C1483.94,-750.66 1512.43,-782.96 1541.95,-805 1547.12,-808.86 1552.83,-812.49 1558.62,-815.81"/>
<polygon fill="black" stroke="black" points="1556.56,-818.68 1567.01,-820.38 1559.9,-812.53 1556.56,-818.68"/>
</g>
<!-- loopback_input -->
<g id="node18" class="node">
<title>loopback_input</title>
<polygon fill="none" stroke="dodgerblue" points="183.9,-314 90,-314 90,-278 183.9,-278 183.9,-314"/>
<text text-anchor="middle" x="136.95" y="-293.43" font-family="sans" font-size="11.00">loopback_input</text>
</g>
<!-- loopback_input&#45;&gt;ip_input -->
<g id="edge11" class="edge">
<title>loopback_input&#45;&gt;ip_input</title>
<path fill="none" stroke="dodgerblue" d="M151.34,-314.32C171.81,-342.32 210.95,-395.86 234.15,-427.6"/>
<polygon fill="dodgerblue" stroke="dodgerblue" points="231.18,-429.47 239.91,-435.47 236.84,-425.33 231.18,-429.47"/>
</g>
<!-- loopback_input&#45;&gt;ip6_input -->
<g id="edge12" class="edge">
<title>loopback_input&#45;&gt;ip6_input</title>
<path fill="none" stroke="dodgerblue" d="M155.5,-277.65C192.6,-240.95 283.25,-162 376.62,-162 376.62,-162 376.62,-162 892.87,-162 969.67,-162 992.9,-194.28 1037.22,-257 1093.48,-336.62 1104.72,-456.54 1106.82,-511.54"/>
<polygon fill="dodgerblue" stroke="dodgerblue" points="1103.32,-511.45 1107.11,-521.34 1110.32,-511.24 1103.32,-511.45"/>
</g>
<!-- loopback_output -->
<g id="node19" class="node">
<title>loopback_output</title>
<polygon fill="none" stroke="dodgerblue" points="1808.17,-796 1706.77,-796 1706.77,-760 1808.17,-760 1808.17,-796"/>
<text text-anchor="middle" x="1757.47" y="-775.42" font-family="sans" font-size="11.00">loopback_output</text>
</g>
<!-- loop_xvrf -->
<g id="node20" class="node">
<title>loop_xvrf</title>
<ellipse fill="none" stroke="black" cx="1000.92" cy="-411" rx="29.73" ry="18"/>
<text text-anchor="middle" x="1000.92" y="-408.43" font-family="sans" font-size="11.00">loop_xvrf</text>
</g>
<!-- loop_xvrf&#45;&gt;ip_input -->
<g id="edge13" class="edge">
<title>loop_xvrf&#45;&gt;ip_input</title>
<path fill="none" stroke="black" d="M977.05,-399.83C936.85,-381.24 850.46,-346 773.3,-346 510.02,-346 510.02,-346 510.02,-346 420.88,-346 326.9,-402.16 281.88,-433.11"/>
<polygon fill="black" stroke="black" points="279.95,-430.19 273.77,-438.8 283.97,-435.92 279.95,-430.19"/>
</g>
<!-- loop_xvrf&#45;&gt;ip6_input -->
<g id="edge14" class="edge">
<title>loop_xvrf&#45;&gt;ip6_input</title>
<path fill="none" stroke="black" d="M1015.04,-427.2C1033.11,-449.51 1065.81,-489.89 1087.01,-516.06"/>
<polygon fill="black" stroke="black" points="1084.29,-518.26 1093.3,-523.83 1089.73,-513.85 1084.29,-518.26"/>
</g>
<!-- ip_forward -->
<g id="node21" class="node">
<title>ip_forward</title>
<ellipse fill="none" stroke="black" cx="511.02" cy="-465" rx="34.55" ry="18"/>
<text text-anchor="middle" x="511.02" y="-462.43" font-family="sans" font-size="11.00">ip_forward</text>
</g>
<!-- ip_output -->
<g id="node27" class="node">
<title>ip_output</title>
<ellipse fill="none" stroke="black" cx="891.87" cy="-284" rx="30.61" ry="18"/>
<text text-anchor="middle" x="891.87" y="-281.43" font-family="sans" font-size="11.00">ip_output</text>
</g>
<!-- ip_forward&#45;&gt;ip_output -->
<g id="edge26" class="edge">
<title>ip_forward&#45;&gt;ip_output</title>
<path fill="none" stroke="black" d="M528.57,-449.2C543.67,-435.47 567.11,-415.84 590.33,-403 684.74,-350.82 720.36,-365.36 819.13,-322 832.64,-316.07 847.1,-308.63 859.47,-301.92"/>
<polygon fill="black" stroke="black" points="860.91,-305.12 867.98,-297.22 857.53,-298.99 860.91,-305.12"/>
</g>
<!-- ip_fragment -->
<g id="node22" class="node">
<title>ip_fragment</title>
<ellipse fill="none" stroke="black" cx="772.3" cy="-208" rx="38.5" ry="18"/>
<text text-anchor="middle" x="772.3" y="-205.43" font-family="sans" font-size="11.00">ip_fragment</text>
</g>
<!-- ip_fragment&#45;&gt;ip_output -->
<g id="edge27" class="edge">
<title>ip_fragment&#45;&gt;ip_output</title>
<path fill="none" stroke="black" d="M805.02,-217.42C809.78,-220.17 814.61,-223.13 819.13,-226 836.15,-236.81 854.96,-249.7 869.05,-260.82"/>
<polygon fill="black" stroke="black" points="866.45,-263.22 876.39,-266.88 870.91,-257.81 866.45,-263.22"/>
</g>
<!-- ip_hold -->
<g id="node23" class="node">
<title>ip_hold</title>
<polygon fill="none" stroke="dodgerblue" points="1027.92,-356 973.92,-356 973.92,-320 1027.92,-320 1027.92,-356"/>
<text text-anchor="middle" x="1000.92" y="-335.43" font-family="sans" font-size="11.00">ip_hold</text>
</g>
<!-- ip_input&#45;&gt;ip_forward -->
<g id="edge28" class="edge">
<title>ip_input&#45;&gt;ip_forward</title>
<path fill="none" stroke="black" d="M280.85,-451.12C293.71,-450.29 309.43,-449.41 323.55,-449 371.6,-447.6 383.88,-444.16 431.7,-449 443.73,-450.22 456.65,-452.46 468.45,-454.89"/>
<polygon fill="black" stroke="black" points="467.37,-458.23 477.88,-456.93 468.85,-451.39 467.37,-458.23"/>
</g>
<!-- ip_input_local -->
<g id="node26" class="node">
<title>ip_input_local</title>
<ellipse fill="none" stroke="black" cx="511.02" cy="-538" rx="43.32" ry="18"/>
<text text-anchor="middle" x="511.02" y="-535.42" font-family="sans" font-size="11.00">ip_input_local</text>
</g>
<!-- ip_input&#45;&gt;ip_input_local -->
<g id="edge31" class="edge">
<title>ip_input&#45;&gt;ip_input_local</title>
<path fill="none" stroke="black" d="M260.39,-470.59C269.36,-495.12 289.41,-538.65 323.55,-557 368.91,-581.38 429.45,-568.35 469.06,-554.86"/>
<polygon fill="black" stroke="black" points="470.24,-558.15 478.47,-551.48 467.88,-551.56 470.24,-558.15"/>
</g>
<!-- ip_input&#45;&gt;ip_output -->
<g id="edge30" class="edge">
<title>ip_input&#45;&gt;ip_output</title>
<path fill="none" stroke="black" d="M259.36,-435.1C267.43,-407.88 286.82,-356.64 323.55,-332 392.94,-285.45 426.46,-308 510.02,-308 510.02,-308 510.02,-308 640.91,-308 715.37,-308 801.75,-297.32 850.99,-290.2"/>
<polygon fill="black" stroke="black" points="851.21,-293.71 860.59,-288.79 850.19,-286.78 851.21,-293.71"/>
</g>
<!-- dnat44_dynamic -->
<g id="node36" class="node">
<title>dnat44_dynamic</title>
<ellipse fill="none" stroke="black" cx="377.62" cy="-530" rx="50.77" ry="18"/>
<text text-anchor="middle" x="377.62" y="-527.42" font-family="sans" font-size="11.00">dnat44_dynamic</text>
</g>
<!-- ip_input&#45;&gt;dnat44_dynamic -->
<g id="edge29" class="edge">
<title>ip_input&#45;&gt;dnat44_dynamic</title>
<path fill="none" stroke="black" d="M272.02,-466.74C285.63,-477.26 305.29,-491.82 323.55,-503 327.57,-505.46 331.84,-507.9 336.14,-510.25"/>
<polygon fill="black" stroke="black" points="334.32,-513.25 344.8,-514.82 337.59,-507.06 334.32,-513.25"/>
</g>
<!-- dnat44_static -->
<g id="node37" class="node">
<title>dnat44_static</title>
<ellipse fill="none" stroke="black" cx="377.62" cy="-476" rx="41.13" ry="18"/>
<text text-anchor="middle" x="377.62" y="-473.43" font-family="sans" font-size="11.00">dnat44_static</text>
</g>
<!-- ip_input&#45;&gt;dnat44_static -->
<g id="edge32" class="edge">
<title>ip_input&#45;&gt;dnat44_static</title>
<path fill="none" stroke="black" d="M279.98,-457.77C293.92,-460.4 311.71,-463.75 328.21,-466.86"/>
<polygon fill="black" stroke="black" points="327.4,-470.27 337.88,-468.69 328.7,-463.4 327.4,-470.27"/>
</g>
<!-- ip_loadbalance -->
<g id="node25" class="node">
<title>ip_loadbalance</title>
<ellipse fill="none" stroke="black" cx="772.3" cy="-262" rx="46.82" ry="18"/>
<text text-anchor="middle" x="772.3" y="-259.43" font-family="sans" font-size="11.00">ip_loadbalance</text>
</g>
<!-- ip_loadbalance&#45;&gt;ip_output -->
<g id="edge33" class="edge">
<title>ip_loadbalance&#45;&gt;ip_output</title>
<path fill="none" stroke="black" d="M819.1,-263.97C831.09,-265.93 843.84,-268.43 855.21,-271.07"/>
<polygon fill="black" stroke="black" points="854.04,-274.38 864.58,-273.37 855.71,-267.58 854.04,-274.38"/>
</g>
<!-- ip_input_local&#45;&gt;ospf_redirect -->
<g id="edge37" class="edge">
<title>ip_input_local&#45;&gt;ospf_redirect</title>
<path fill="none" stroke="black" d="M532.96,-553.88C548.18,-564.79 569.67,-578.89 590.33,-588 762.8,-664.05 811.43,-698 999.92,-698 999.92,-698 999.92,-698 1208.18,-698 1275.24,-698 1352.44,-704.08 1401.78,-708.75"/>
<polygon fill="black" stroke="black" points="1401.3,-712.22 1411.59,-709.69 1401.97,-705.25 1401.3,-712.22"/>
</g>
<!-- ipip_input -->
<g id="node34" class="node">
<title>ipip_input</title>
<ellipse fill="none" stroke="black" cx="639.91" cy="-484" rx="31.92" ry="18"/>
<text text-anchor="middle" x="639.91" y="-481.43" font-family="sans" font-size="11.00">ipip_input</text>
</g>
<!-- ip_input_local&#45;&gt;ipip_input -->
<g id="edge35" class="edge">
<title>ip_input_local&#45;&gt;ipip_input</title>
<path fill="none" stroke="black" d="M542.09,-525.2C560.43,-517.4 583.97,-507.38 603.25,-499.17"/>
<polygon fill="black" stroke="black" points="604.53,-502.43 612.36,-495.3 601.79,-495.99 604.53,-502.43"/>
</g>
<!-- icmp_input -->
<g id="node40" class="node">
<title>icmp_input</title>
<ellipse fill="none" stroke="black" cx="639.91" cy="-538" rx="35.43" ry="18"/>
<text text-anchor="middle" x="639.91" y="-535.42" font-family="sans" font-size="11.00">icmp_input</text>
</g>
<!-- ip_input_local&#45;&gt;icmp_input -->
<g id="edge34" class="edge">
<title>ip_input_local&#45;&gt;icmp_input</title>
<path fill="none" stroke="black" d="M554.62,-538C566.97,-538 580.5,-538 593.04,-538"/>
<polygon fill="black" stroke="black" points="592.7,-541.5 602.7,-538 592.7,-534.5 592.7,-541.5"/>
</g>
<!-- l4_input_local -->
<g id="node51" class="node">
<title>l4_input_local</title>
<ellipse fill="none" stroke="black" cx="1453.37" cy="-660" rx="42.88" ry="18"/>
<text text-anchor="middle" x="1453.37" y="-657.42" font-family="sans" font-size="11.00">l4_input_local</text>
</g>
<!-- ip_input_local&#45;&gt;l4_input_local -->
<g id="edge36" class="edge">
<title>ip_input_local&#45;&gt;l4_input_local</title>
<path fill="none" stroke="black" d="M543.69,-550.13C557.82,-555.23 574.75,-560.91 590.33,-565 597.39,-566.85 1099.91,-660 1107.21,-660 1107.21,-660 1107.21,-660 1208.18,-660 1273.72,-660 1349.16,-660 1398.64,-660"/>
<polygon fill="black" stroke="black" points="1398.51,-663.5 1408.51,-660 1398.51,-656.5 1398.51,-663.5"/>
</g>
<!-- ip_output&#45;&gt;eth_output -->
<g id="edge38" class="edge">
<title>ip_output&#45;&gt;eth_output</title>
<path fill="none" stroke="black" d="M911.44,-269.8C925.42,-259.7 945.39,-246.48 964.61,-238 1024.63,-211.54 1041.62,-200 1107.21,-200 1107.21,-200 1107.21,-200 1603.8,-200 1698.17,-200 1727.47,-215.56 1815.29,-181 1832.23,-174.33 1848.46,-162.18 1860.98,-151.09"/>
<polygon fill="black" stroke="black" points="1863.33,-153.69 1868.28,-144.33 1858.57,-148.56 1863.33,-153.69"/>
</g>
<!-- ip_output&#45;&gt;loop_xvrf -->
<g id="edge41" class="edge">
<title>ip_output&#45;&gt;loop_xvrf</title>
<path fill="none" stroke="black" d="M906.43,-300.08C924.77,-321.84 957.65,-360.85 979.12,-386.33"/>
<polygon fill="black" stroke="black" points="976.37,-388.5 985.49,-393.89 981.72,-383.99 976.37,-388.5"/>
</g>
<!-- ip_output&#45;&gt;ip_fragment -->
<g id="edge40" class="edge">
<title>ip_output&#45;&gt;ip_fragment</title>
<path fill="none" stroke="black" d="M865.58,-274.12C851.96,-265.65 834.79,-253.95 819.13,-244 812.42,-239.74 805.05,-235.3 798.22,-230.93"/>
<polygon fill="black" stroke="black" points="800.26,-228.08 789.99,-225.46 796.38,-233.91 800.26,-228.08"/>
</g>
<!-- ip_output&#45;&gt;ip_hold -->
<g id="edge39" class="edge">
<title>ip_output&#45;&gt;ip_hold</title>
<path fill="none" stroke="black" d="M915.83,-295.58C929.74,-302.6 947.79,-311.71 963.6,-319.68"/>
<polygon fill="black" stroke="black" points="961.74,-322.66 972.25,-324.04 964.9,-316.41 961.74,-322.66"/>
</g>
<!-- ip_output&#45;&gt;ip_loadbalance -->
<g id="edge42" class="edge">
<title>ip_output&#45;&gt;ip_loadbalance</title>
<path fill="none" stroke="black" d="M860.78,-284.35C847.82,-282.68 832.38,-279.99 818.12,-276.96"/>
<polygon fill="black" stroke="black" points="818.99,-273.57 808.47,-274.81 817.47,-280.4 818.99,-273.57"/>
</g>
<!-- ipip_output -->
<g id="node35" class="node">
<title>ipip_output</title>
<ellipse fill="none" stroke="black" cx="1000.92" cy="-284" rx="36.3" ry="18"/>
<text text-anchor="middle" x="1000.92" y="-281.43" font-family="sans" font-size="11.00">ipip_output</text>
</g>
<!-- ip_output&#45;&gt;ipip_output -->
<g id="edge43" class="edge">
<title>ip_output&#45;&gt;ipip_output</title>
<path fill="none" stroke="black" d="M920.99,-277.98C931.49,-277.33 943.69,-277.11 955.31,-277.33"/>
<polygon fill="black" stroke="black" points="955.04,-280.83 965.14,-277.65 955.26,-273.83 955.04,-280.83"/>
</g>
<!-- sr6_output -->
<g id="node39" class="node">
<title>sr6_output</title>
<ellipse fill="none" stroke="black" cx="1885.84" cy="-365" rx="34.11" ry="18"/>
<text text-anchor="middle" x="1885.84" y="-362.43" font-family="sans" font-size="11.00">sr6_output</text>
</g>
<!-- ip_output&#45;&gt;sr6_output -->
<g id="edge44" class="edge">
<title>ip_output&#45;&gt;sr6_output</title>
<path fill="none" stroke="black" d="M917,-273.35C930.72,-267.69 948.35,-261.09 964.61,-257 1026.62,-241.42 1043.27,-238 1107.21,-238 1107.21,-238 1107.21,-238 1603.8,-238 1704.69,-238 1809.33,-306.81 1857.53,-343.13"/>
<polygon fill="black" stroke="black" points="1855.14,-345.7 1865.2,-349.01 1859.4,-340.15 1855.14,-345.7"/>
</g>
<!-- ip6_forward -->
<g id="node28" class="node">
<title>ip6_forward</title>
<ellipse fill="none" stroke="black" cx="1317.98" cy="-476" rx="38.06" ry="18"/>
<text text-anchor="middle" x="1317.98" y="-473.43" font-family="sans" font-size="11.00">ip6_forward</text>
</g>
<!-- ip6_output -->
<g id="node33" class="node">
<title>ip6_output</title>
<ellipse fill="none" stroke="black" cx="1757.47" cy="-392" rx="34.11" ry="18"/>
<text text-anchor="middle" x="1757.47" y="-389.43" font-family="sans" font-size="11.00">ip6_output</text>
</g>
<!-- ip6_forward&#45;&gt;ip6_output -->
<g id="edge51" class="edge">
<title>ip6_forward&#45;&gt;ip6_output</title>
<path fill="none" stroke="black" d="M1355.85,-479.33C1420.21,-483.86 1556.37,-487.75 1663.64,-452 1688.14,-443.84 1712.52,-427.68 1730.15,-414.19"/>
<polygon fill="black" stroke="black" points="1731.85,-417.31 1737.53,-408.37 1727.51,-411.81 1731.85,-417.31"/>
</g>
<!-- ip6_hold -->
<g id="node29" class="node">
<title>ip6_hold</title>
<polygon fill="none" stroke="dodgerblue" points="1915.17,-437 1856.52,-437 1856.52,-401 1915.17,-401 1915.17,-437"/>
<text text-anchor="middle" x="1885.84" y="-416.43" font-family="sans" font-size="11.00">ip6_hold</text>
</g>
<!-- ip6_input&#45;&gt;ip6_forward -->
<g id="edge52" class="edge">
<title>ip6_input&#45;&gt;ip6_forward</title>
<path fill="none" stroke="black" d="M1131.08,-529.21C1144.64,-522.28 1162.58,-513.78 1179.2,-508 1208.93,-497.67 1243.44,-489.66 1270.48,-484.24"/>
<polygon fill="black" stroke="black" points="1270.94,-487.71 1280.09,-482.36 1269.6,-480.84 1270.94,-487.71"/>
</g>
<!-- ip6_input_local -->
<g id="node32" class="node">
<title>ip6_input_local</title>
<ellipse fill="none" stroke="black" cx="1317.98" cy="-606" rx="46.82" ry="18"/>
<text text-anchor="middle" x="1317.98" y="-603.42" font-family="sans" font-size="11.00">ip6_input_local</text>
</g>
<!-- ip6_input&#45;&gt;ip6_input_local -->
<g id="edge54" class="edge">
<title>ip6_input&#45;&gt;ip6_input_local</title>
<path fill="none" stroke="black" d="M1135.32,-548.67C1160.83,-556.21 1200.74,-568.13 1235.16,-579 1246.83,-582.69 1259.4,-586.78 1271.11,-590.63"/>
<polygon fill="black" stroke="black" points="1269.97,-593.94 1280.57,-593.76 1272.17,-587.3 1269.97,-593.94"/>
</g>
<!-- ip6_input&#45;&gt;ip6_output -->
<g id="edge53" class="edge">
<title>ip6_input&#45;&gt;ip6_output</title>
<path fill="none" stroke="black" d="M1137.96,-543.8C1222.9,-550.83 1478.3,-563.05 1663.64,-478 1693.25,-464.41 1719.7,-437.71 1736.72,-417.65"/>
<polygon fill="black" stroke="black" points="1739.25,-420.08 1742.89,-410.13 1733.84,-415.64 1739.25,-420.08"/>
</g>
<!-- sr6_local -->
<g id="node38" class="node">
<title>sr6_local</title>
<ellipse fill="none" stroke="black" cx="1207.18" cy="-606" rx="27.98" ry="18"/>
<text text-anchor="middle" x="1207.18" y="-603.42" font-family="sans" font-size="11.00">sr6_local</text>
</g>
<!-- ip6_input&#45;&gt;sr6_local -->
<g id="edge55" class="edge">
<title>ip6_input&#45;&gt;sr6_local</title>
<path fill="none" stroke="black" d="M1133.18,-551.15C1148.09,-560.03 1167.19,-572.84 1182.11,-583.94"/>
<polygon fill="black" stroke="black" points="1179.96,-586.71 1190.03,-590.02 1184.23,-581.16 1179.96,-586.71"/>
</g>
<!-- ip6_loadbalance -->
<g id="node31" class="node">
<title>ip6_loadbalance</title>
<ellipse fill="none" stroke="black" cx="1602.8" cy="-392" rx="50.33" ry="18"/>
<text text-anchor="middle" x="1602.8" y="-389.43" font-family="sans" font-size="11.00">ip6_loadbalance</text>
</g>
<!-- ip6_loadbalance&#45;&gt;ip6_output -->
<g id="edge56" class="edge">
<title>ip6_loadbalance&#45;&gt;ip6_output</title>
<path fill="none" stroke="black" d="M1650.43,-385.73C1670.42,-385.05 1693.63,-385.09 1713.23,-385.85"/>
<polygon fill="black" stroke="black" points="1712.94,-389.34 1723.1,-386.32 1713.27,-382.35 1712.94,-389.34"/>
</g>
<!-- ip6_input_local&#45;&gt;ospf_redirect -->
<g id="edge59" class="edge">
<title>ip6_input_local&#45;&gt;ospf_redirect</title>
<path fill="none" stroke="black" d="M1333.69,-623.34C1349.16,-640.87 1374.82,-668.01 1400.8,-687 1404.9,-690 1409.39,-692.86 1413.94,-695.53"/>
<polygon fill="black" stroke="black" points="1412.13,-698.53 1422.58,-700.29 1415.51,-692.4 1412.13,-698.53"/>
</g>
<!-- icmp6_input -->
<g id="node43" class="node">
<title>icmp6_input</title>
<polygon fill="none" stroke="dodgerblue" points="1492.45,-624 1414.3,-624 1414.3,-588 1492.45,-588 1492.45,-624"/>
<text text-anchor="middle" x="1453.37" y="-603.42" font-family="sans" font-size="11.00">icmp6_input</text>
</g>
<!-- ip6_input_local&#45;&gt;icmp6_input -->
<g id="edge57" class="edge">
<title>ip6_input_local&#45;&gt;icmp6_input</title>
<path fill="none" stroke="black" d="M1365.26,-606C1377.35,-606 1390.43,-606 1402.69,-606"/>
<polygon fill="black" stroke="black" points="1402.62,-609.5 1412.62,-606 1402.62,-602.5 1402.62,-609.5"/>
</g>
<!-- ip6_input_local&#45;&gt;l4_input_local -->
<g id="edge58" class="edge">
<title>ip6_input_local&#45;&gt;l4_input_local</title>
<path fill="none" stroke="black" d="M1351.27,-619.07C1369.27,-626.36 1391.88,-635.51 1411.15,-643.31"/>
<polygon fill="black" stroke="black" points="1409.77,-646.53 1420.35,-647.04 1412.4,-640.04 1409.77,-646.53"/>
</g>
<!-- ip6_output&#45;&gt;eth_output -->
<g id="edge60" class="edge">
<title>ip6_output&#45;&gt;eth_output</title>
<path fill="none" stroke="black" d="M1766.76,-374.61C1788.13,-329.8 1845.24,-210.04 1871.41,-155.17"/>
<polygon fill="black" stroke="black" points="1874.56,-156.7 1875.7,-146.17 1868.24,-153.68 1874.56,-156.7"/>
</g>
<!-- ip6_output&#45;&gt;loop_xvrf -->
<g id="edge62" class="edge">
<title>ip6_output&#45;&gt;loop_xvrf</title>
<path fill="none" stroke="black" d="M1728.89,-402.25C1710.66,-408.47 1686.07,-415.8 1663.64,-419 1430.05,-452.28 1145.38,-427.02 1041.92,-415.72"/>
<polygon fill="black" stroke="black" points="1042.33,-412.24 1032,-414.62 1041.55,-419.2 1042.33,-412.24"/>
</g>
<!-- ip6_output&#45;&gt;ip6_hold -->
<g id="edge61" class="edge">
<title>ip6_output&#45;&gt;ip6_hold</title>
<path fill="none" stroke="black" d="M1789.71,-398.67C1806.37,-402.24 1827.07,-406.66 1844.9,-410.47"/>
<polygon fill="black" stroke="black" points="1844.13,-413.88 1854.64,-412.55 1845.6,-407.04 1844.13,-413.88"/>
</g>
<!-- ip6_output&#45;&gt;ip6_loadbalance -->
<g id="edge63" class="edge">
<title>ip6_output&#45;&gt;ip6_loadbalance</title>
<path fill="none" stroke="black" d="M1724.61,-397.61C1706.41,-398.67 1683.03,-398.99 1661.69,-398.57"/>
<polygon fill="black" stroke="black" points="1662.03,-395.08 1651.94,-398.31 1661.85,-402.08 1662.03,-395.08"/>
</g>
<!-- ip6_output&#45;&gt;sr6_output -->
<g id="edge64" class="edge">
<title>ip6_output&#45;&gt;sr6_output</title>
<path fill="none" stroke="black" d="M1784.65,-380.81C1800.7,-376.24 1821.66,-371.47 1840.26,-368.04"/>
<polygon fill="black" stroke="black" points="1840.72,-371.51 1849.98,-366.36 1839.53,-364.62 1840.72,-371.51"/>
</g>
<!-- ipip_input&#45;&gt;ip_input -->
<g id="edge67" class="edge">
<title>ipip_input&#45;&gt;ip_input</title>
<path fill="none" stroke="black" d="M616.4,-471.58C591.93,-458.11 556.03,-438.43 554.33,-438 461.5,-414.39 347.42,-432.45 290.53,-444.49"/>
<polygon fill="black" stroke="black" points="289.79,-441.07 280.77,-446.62 291.28,-447.9 289.79,-441.07"/>
</g>
<!-- ipip_output&#45;&gt;ip_output -->
<g id="edge68" class="edge">
<title>ipip_output&#45;&gt;ip_output</title>
<path fill="none" stroke="black" d="M966.66,-290.3C955.79,-290.81 943.61,-290.89 932.33,-290.54"/>
<polygon fill="black" stroke="black" points="932.66,-287.05 922.51,-290.09 932.34,-294.04 932.66,-287.05"/>
</g>
<!-- dnat44_dynamic&#45;&gt;ip_forward -->
<g id="edge73" class="edge">
<title>dnat44_dynamic&#45;&gt;ip_forward</title>
<path fill="none" stroke="black" d="M408.44,-515.25C428.17,-505.49 454.13,-492.65 474.86,-482.39"/>
<polygon fill="black" stroke="black" points="476.4,-485.53 483.81,-477.96 473.3,-479.26 476.4,-485.53"/>
</g>
<!-- dnat44_dynamic&#45;&gt;ip_input_local -->
<g id="edge74" class="edge">
<title>dnat44_dynamic&#45;&gt;ip_input_local</title>
<path fill="none" stroke="black" d="M427.92,-533C437.24,-533.57 447.03,-534.17 456.47,-534.74"/>
<polygon fill="black" stroke="black" points="456.06,-538.22 466.25,-535.34 456.48,-531.23 456.06,-538.22"/>
</g>
<!-- dnat44_static&#45;&gt;ip_forward -->
<g id="edge75" class="edge">
<title>dnat44_static&#45;&gt;ip_forward</title>
<path fill="none" stroke="black" d="M418.4,-472.67C433.21,-471.43 450.11,-470.02 465.33,-468.74"/>
<polygon fill="black" stroke="black" points="465.39,-472.25 475.06,-467.93 464.81,-465.27 465.39,-472.25"/>
</g>
<!-- dnat44_static&#45;&gt;ip_input_local -->
<g id="edge76" class="edge">
<title>dnat44_static&#45;&gt;ip_input_local</title>
<path fill="none" stroke="black" d="M406.49,-489.15C425.22,-497.99 450.18,-509.76 470.89,-519.54"/>
<polygon fill="black" stroke="black" points="469.38,-522.69 479.91,-523.8 472.36,-516.36 469.38,-522.69"/>
</g>
<!-- sr6_local&#45;&gt;ip_input -->
<g id="edge77" class="edge">
<title>sr6_local&#45;&gt;ip_input</title>
<path fill="none" stroke="black" d="M1181.22,-613.46C1070.36,-645 615.22,-757.82 323.55,-578 289.11,-556.77 270.6,-511.75 261.71,-481.94"/>
<polygon fill="black" stroke="black" points="265.12,-481.12 259.07,-472.42 258.37,-482.99 265.12,-481.12"/>
</g>
<!-- sr6_local&#45;&gt;ip6_input -->
<g id="edge78" class="edge">
<title>sr6_local&#45;&gt;ip6_input</title>
<path fill="none" stroke="black" d="M1183.2,-596.44C1168.14,-587.53 1148.48,-574.38 1133.22,-563.01"/>
<polygon fill="black" stroke="black" points="1135.63,-560.45 1125.56,-557.14 1131.37,-566 1135.63,-560.45"/>
</g>
<!-- sr6_local&#45;&gt;ip6_input_local -->
<g id="edge79" class="edge">
<title>sr6_local&#45;&gt;ip6_input_local</title>
<path fill="none" stroke="black" d="M1235.63,-606C1242.99,-606 1251.23,-606 1259.56,-606"/>
<polygon fill="black" stroke="black" points="1259.39,-609.5 1269.39,-606 1259.39,-602.5 1259.39,-609.5"/>
</g>
<!-- sr6_output&#45;&gt;ip6_output -->
<g id="edge80" class="edge">
<title>sr6_output&#45;&gt;ip6_output</title>
<path fill="none" stroke="black" d="M1858.77,-376.16C1842.76,-380.72 1821.82,-385.5 1803.22,-388.93"/>
<polygon fill="black" stroke="black" points="1802.75,-385.46 1793.49,-390.62 1803.94,-392.35 1802.75,-385.46"/>
</g>
<!-- icmp_output -->
<g id="node42" class="node">
<title>icmp_output</title>
<ellipse fill="none" stroke="black" cx="772.3" cy="-430" rx="39.81" ry="18"/>
<text text-anchor="middle" x="772.3" y="-427.43" font-family="sans" font-size="11.00">icmp_output</text>
</g>
<!-- icmp_input&#45;&gt;icmp_output -->
<g id="edge23" class="edge">
<title>icmp_input&#45;&gt;icmp_output</title>
<path fill="none" stroke="black" d="M666.18,-525.65C673.93,-521.42 682.31,-516.39 689.48,-511 711.54,-494.45 733.58,-472.21 749.22,-455.23"/>
<polygon fill="black" stroke="black" points="751.65,-457.76 755.77,-448 746.46,-453.06 751.65,-457.76"/>
</g>
<!-- icmp_local_send -->
<g id="node41" class="node">
<title>icmp_local_send</title>
<polygon fill="none" stroke="dodgerblue" points="689.48,-448 590.33,-448 590.33,-412 689.48,-412 689.48,-448"/>
<text text-anchor="middle" x="639.91" y="-427.43" font-family="sans" font-size="11.00">icmp_local_send</text>
</g>
<!-- icmp_local_send&#45;&gt;icmp_output -->
<g id="edge24" class="edge">
<title>icmp_local_send&#45;&gt;icmp_output</title>
<path fill="none" stroke="dodgerblue" d="M689.83,-430C700.02,-430 710.77,-430 721.01,-430"/>
<polygon fill="dodgerblue" stroke="dodgerblue" points="720.77,-433.5 730.77,-430 720.77,-426.5 720.77,-433.5"/>
</g>
<!-- icmp_output&#45;&gt;ip_output -->
<g id="edge25" class="edge">
<title>icmp_output&#45;&gt;ip_output</title>
<path fill="none" stroke="black" d="M797.57,-415.71C804.98,-410.67 812.83,-404.6 819.13,-398 844,-371.9 864.94,-335.89 877.66,-311.37"/>
<polygon fill="black" stroke="black" points="880.67,-313.16 882.07,-302.66 874.43,-310 880.67,-313.16"/>
</g>
<!-- icmp6_output -->
<g id="node44" class="node">
<title>icmp6_output</title>
<ellipse fill="none" stroke="black" cx="1602.8" cy="-338" rx="43.32" ry="18"/>
<text text-anchor="middle" x="1602.8" y="-335.43" font-family="sans" font-size="11.00">icmp6_output</text>
</g>
<!-- icmp6_input&#45;&gt;icmp6_output -->
<g id="edge45" class="edge">
<title>icmp6_input&#45;&gt;icmp6_output</title>
<path fill="none" stroke="dodgerblue" d="M1459.04,-587.7C1472.15,-537.49 1510.39,-399.03 1541.95,-365 1546.16,-360.46 1551.29,-356.62 1556.75,-353.41"/>
<polygon fill="dodgerblue" stroke="dodgerblue" points="1558.15,-356.62 1565.46,-348.95 1554.96,-350.39 1558.15,-356.62"/>
</g>
<!-- ndp_na_input -->
<g id="node46" class="node">
<title>ndp_na_input</title>
<polygon fill="none" stroke="dodgerblue" points="1645.25,-688 1560.35,-688 1560.35,-652 1645.25,-652 1645.25,-688"/>
<text text-anchor="middle" x="1602.8" y="-667.42" font-family="sans" font-size="11.00">ndp_na_input</text>
</g>
<!-- icmp6_input&#45;&gt;ndp_na_input -->
<g id="edge47" class="edge">
<title>icmp6_input&#45;&gt;ndp_na_input</title>
<path fill="none" stroke="dodgerblue" d="M1492.72,-622.65C1510.06,-630.18 1530.82,-639.19 1549.56,-647.32"/>
<polygon fill="dodgerblue" stroke="dodgerblue" points="1548.06,-650.49 1558.63,-651.26 1550.85,-644.07 1548.06,-650.49"/>
</g>
<!-- ndp_ns_input -->
<g id="node48" class="node">
<title>ndp_ns_input</title>
<polygon fill="none" stroke="dodgerblue" points="1644.87,-634 1560.72,-634 1560.72,-598 1644.87,-598 1644.87,-634"/>
<text text-anchor="middle" x="1602.8" y="-613.42" font-family="sans" font-size="11.00">ndp_ns_input</text>
</g>
<!-- icmp6_input&#45;&gt;ndp_ns_input -->
<g id="edge46" class="edge">
<title>icmp6_input&#45;&gt;ndp_ns_input</title>
<path fill="none" stroke="dodgerblue" d="M1492.72,-608.6C1509.89,-609.77 1530.41,-611.16 1549,-612.42"/>
<polygon fill="dodgerblue" stroke="dodgerblue" points="1548.55,-615.9 1558.77,-613.08 1549.03,-608.91 1548.55,-615.9"/>
</g>
<!-- ndp_rs_input -->
<g id="node50" class="node">
<title>ndp_rs_input</title>
<polygon fill="none" stroke="dodgerblue" points="1643.75,-580 1561.85,-580 1561.85,-544 1643.75,-544 1643.75,-580"/>
<text text-anchor="middle" x="1602.8" y="-559.42" font-family="sans" font-size="11.00">ndp_rs_input</text>
</g>
<!-- icmp6_input&#45;&gt;ndp_rs_input -->
<g id="edge48" class="edge">
<title>icmp6_input&#45;&gt;ndp_rs_input</title>
<path fill="none" stroke="dodgerblue" d="M1492.72,-594.55C1510.41,-589.28 1531.66,-582.93 1550.68,-577.26"/>
<polygon fill="dodgerblue" stroke="dodgerblue" points="1551.55,-580.65 1560.13,-574.44 1549.55,-573.94 1551.55,-580.65"/>
</g>
<!-- icmp6_output&#45;&gt;ip6_output -->
<g id="edge49" class="edge">
<title>icmp6_output&#45;&gt;ip6_output</title>
<path fill="none" stroke="black" d="M1636.55,-349.58C1660.36,-358.01 1692.68,-369.44 1717.77,-378.31"/>
<polygon fill="black" stroke="black" points="1716.36,-381.53 1726.95,-381.56 1718.69,-374.93 1716.36,-381.53"/>
</g>
<!-- icmp6_local_send -->
<g id="node45" class="node">
<title>icmp6_local_send</title>
<polygon fill="none" stroke="dodgerblue" points="1505.95,-356 1400.8,-356 1400.8,-320 1505.95,-320 1505.95,-356"/>
<text text-anchor="middle" x="1453.37" y="-335.43" font-family="sans" font-size="11.00">icmp6_local_send</text>
</g>
<!-- icmp6_local_send&#45;&gt;icmp6_output -->
<g id="edge50" class="edge">
<title>icmp6_local_send&#45;&gt;icmp6_output</title>
<path fill="none" stroke="dodgerblue" d="M1506.35,-338C1519.82,-338 1534.36,-338 1547.92,-338"/>
<polygon fill="dodgerblue" stroke="dodgerblue" points="1547.53,-341.5 1557.53,-338 1547.53,-334.5 1547.53,-341.5"/>
</g>
<!-- ndp_na_output -->
<g id="node47" class="node">
<title>ndp_na_output</title>
<polygon fill="none" stroke="dodgerblue" points="1499.57,-302 1407.17,-302 1407.17,-266 1499.57,-266 1499.57,-302"/>
<text text-anchor="middle" x="1453.37" y="-281.43" font-family="sans" font-size="11.00">ndp_na_output</text>
</g>
<!-- ndp_na_output&#45;&gt;icmp6_output -->
<g id="edge65" class="edge">
<title>ndp_na_output&#45;&gt;icmp6_output</title>
<path fill="none" stroke="dodgerblue" d="M1499.81,-300.64C1518.53,-307.5 1540.13,-315.41 1558.61,-322.18"/>
<polygon fill="dodgerblue" stroke="dodgerblue" points="1557.36,-325.45 1567.95,-325.6 1559.77,-318.88 1557.36,-325.45"/>
</g>
<!-- ndp_ns_output -->
<g id="node49" class="node">
<title>ndp_ns_output</title>
<polygon fill="none" stroke="dodgerblue" points="1499.2,-410 1407.55,-410 1407.55,-374 1499.2,-374 1499.2,-410"/>
<text text-anchor="middle" x="1453.37" y="-389.43" font-family="sans" font-size="11.00">ndp_ns_output</text>
</g>
<!-- ndp_ns_output&#45;&gt;icmp6_output -->
<g id="edge66" class="edge">
<title>ndp_ns_output&#45;&gt;icmp6_output</title>
<path fill="none" stroke="dodgerblue" d="M1499.41,-375.5C1518.38,-368.56 1540.35,-360.51 1559.06,-353.65"/>
<polygon fill="dodgerblue" stroke="dodgerblue" points="1560.05,-357.02 1568.24,-350.29 1557.64,-350.44 1560.05,-357.02"/>
</g>
<!-- l4_loopback_output -->
<g id="node52" class="node">
<title>l4_loopback_output</title>
<ellipse fill="none" stroke="black" cx="1602.8" cy="-778" rx="60.85" ry="18"/>
<text text-anchor="middle" x="1602.8" y="-775.42" font-family="sans" font-size="11.00">l4_loopback_output</text>
</g>
<!-- l4_input_local&#45;&gt;l4_loopback_output -->
<g id="edge69" class="edge">
<title>l4_input_local&#45;&gt;l4_loopback_output</title>
<path fill="none" stroke="black" d="M1485.22,-672.47C1492.57,-676.38 1500,-681.23 1505.95,-687 1529.37,-709.73 1517.87,-728.97 1541.95,-751 1545.03,-753.82 1548.46,-756.39 1552.07,-758.71"/>
<polygon fill="black" stroke="black" points="1550.2,-761.68 1560.62,-763.58 1553.66,-755.59 1550.2,-761.68"/>
</g>
<!-- dhcp_input -->
<g id="node53" class="node">
<title>dhcp_input</title>
<polygon fill="none" stroke="dodgerblue" points="1638.87,-742 1566.72,-742 1566.72,-706 1638.87,-706 1638.87,-742"/>
<text text-anchor="middle" x="1602.8" y="-721.42" font-family="sans" font-size="11.00">dhcp_input</text>
</g>
<!-- l4_input_local&#45;&gt;dhcp_input -->
<g id="edge70" class="edge">
<title>l4_input_local&#45;&gt;dhcp_input</title>
<path fill="none" stroke="black" d="M1484.21,-672.95C1504.78,-681.88 1532.53,-693.93 1555.9,-704.08"/>
<polygon fill="black" stroke="black" points="1554.34,-707.21 1564.9,-707.98 1557.12,-700.79 1554.34,-707.21"/>
</g>
<!-- l4_loopback_output&#45;&gt;loopback_output -->
<g id="edge71" class="edge">
<title>l4_loopback_output&#45;&gt;loopback_output</title>
<path fill="none" stroke="black" d="M1664.14,-778C1674.31,-778 1684.88,-778 1695.08,-778"/>
<polygon fill="black" stroke="black" points="1694.88,-781.5 1704.88,-778 1694.88,-774.5 1694.88,-781.5"/>
</g>
</g>
</svg>
