<?xml version="1.0" encoding="UTF-8" standalone="no"?>
<!DOCTYPE svg PUBLIC "-//W3C//DTD SVG 1.1//EN"
 "http://www.w3.org/Graphics/SVG/1.1/DTD/svg11.dtd">
<!-- Generated by graphviz version 2.44.0 (0)
 -->
<!-- Title: gr&#45;0002 Pages: 1 -->
<svg width="2299pt" height="879pt"
 viewBox="0.00 0.00 2299.18 879.47" xmlns="http://www.w3.org/2000/svg" xmlns:xlink="http://www.w3.org/1999/xlink">
<g id="graph0" class="graph" transform="scale(1 1) rotate(0) translate(4 875.47)">
<title>gr&#45;0002</title>
<polygon fill="white" stroke="transparent" points="-4,4 -4,-875.47 2295.18,-875.47 2295.18,4 -4,4"/>
<!-- control_input -->
<g id="node1" class="node">
<title>control_input</title>
<ellipse fill="none" stroke="blue" stroke-width="2" cx="40.16" cy="-231" rx="40.32" ry="18"/>
<text text-anchor="middle" x="40.16" y="-228.2" font-family="sans" font-size="11.00">control_input</text>
</g>
<!-- loopback_input -->
<g id="node2" class="node">
<title>loopback_input</title>
<ellipse fill="none" stroke="black" cx="161.91" cy="-255" rx="45.68" ry="18"/>
<text text-anchor="middle" x="161.91" y="-252.2" font-family="sans" font-size="11.00">loopback_input</text>
</g>
<!-- control_input&#45;&gt;loopback_input -->
<g id="edge1" class="edge">
<title>control_input&#45;&gt;loopback_input</title>
<path fill="none" stroke="blue" stroke-width="2" d="M77.09,-238.2C87.75,-240.34 99.62,-242.72 110.99,-245"/>
<polygon fill="blue" stroke="blue" stroke-width="2" points="110.32,-248.43 120.82,-246.96 111.7,-241.57 110.32,-248.43"/>
</g>
<!-- arp_output_request -->
<g id="node3" class="node">
<title>arp_output_request</title>
<ellipse fill="none" stroke="black" cx="437.43" cy="-851" rx="59.31" ry="18"/>
<text text-anchor="middle" x="437.43" y="-848.2" font-family="sans" font-size="11.00">arp_output_request</text>
</g>
<!-- control_input&#45;&gt;arp_output_request -->
<g id="edge2" class="edge">
<title>control_input&#45;&gt;arp_output_request</title>
<path fill="none" stroke="blue" stroke-width="2" d="M42.19,-249.27C47.68,-343.77 74.84,-774.17 116.32,-815 185.37,-882.95 307.55,-875.43 379.34,-863.45"/>
<polygon fill="blue" stroke="blue" stroke-width="2" points="380.3,-866.84 389.55,-861.66 379.1,-859.94 380.3,-866.84"/>
</g>
<!-- icmp_local_send -->
<g id="node4" class="node">
<title>icmp_local_send</title>
<ellipse fill="none" stroke="black" cx="292.89" cy="-411" rx="49.28" ry="18"/>
<text text-anchor="middle" x="292.89" y="-408.2" font-family="sans" font-size="11.00">icmp_local_send</text>
</g>
<!-- control_input&#45;&gt;icmp_local_send -->
<g id="edge3" class="edge">
<title>control_input&#45;&gt;icmp_local_send</title>
<path fill="none" stroke="blue" stroke-width="2" d="M45.35,-249.18C53.44,-279.99 74.26,-342.2 116.32,-374 149.71,-399.24 196.42,-408.18 233.26,-410.97"/>
<polygon fill="blue" stroke="blue" stroke-width="2" points="233.17,-414.47 243.37,-411.61 233.61,-407.49 233.17,-414.47"/>
</g>
<!-- icmp6_local_send -->
<g id="node5" class="node">
<title>icmp6_local_send</title>
<ellipse fill="none" stroke="black" cx="946.68" cy="-18" rx="53.37" ry="18"/>
<text text-anchor="middle" x="946.68" y="-15.2" font-family="sans" font-size="11.00">icmp6_local_send</text>
</g>
<!-- control_input&#45;&gt;icmp6_local_send -->
<g id="edge4" class="edge">
<title>control_input&#45;&gt;icmp6_local_send</title>
<path fill="none" stroke="blue" stroke-width="2" d="M43.07,-212.86C47.96,-176.12 64.48,-92.94 116.32,-52 178.39,-2.98 212.8,-23 291.89,-23 291.89,-23 291.89,-23 713.95,-23 771.38,-23 836.79,-21.45 883.44,-20.07"/>
<polygon fill="blue" stroke="blue" stroke-width="2" points="883.8,-23.56 893.69,-19.76 883.59,-16.57 883.8,-23.56"/>
</g>
<!-- ndp_ns_output -->
<g id="node6" class="node">
<title>ndp_ns_output</title>
<ellipse fill="none" stroke="black" cx="1080.37" cy="-62" rx="44.51" ry="18"/>
<text text-anchor="middle" x="1080.37" y="-59.2" font-family="sans" font-size="11.00">ndp_ns_output</text>
</g>
<!-- control_input&#45;&gt;ndp_ns_output -->
<g id="edge5" class="edge">
<title>control_input&#45;&gt;ndp_ns_output</title>
<path fill="none" stroke="blue" stroke-width="2" d="M45.56,-212.87C53.86,-182.85 74.85,-123.21 116.32,-94 180.92,-48.5 212.87,-66 291.89,-66 291.89,-66 291.89,-66 824.85,-66 894.1,-66 973.94,-64.5 1025.46,-63.34"/>
<polygon fill="blue" stroke="blue" stroke-width="2" points="1025.77,-66.83 1035.69,-63.1 1025.61,-59.83 1025.77,-66.83"/>
</g>
<!-- ip_output -->
<g id="node7" class="node">
<title>ip_output</title>
<ellipse fill="none" stroke="black" cx="1080.37" cy="-622" rx="29.12" ry="18"/>
<text text-anchor="middle" x="1080.37" y="-619.2" font-family="sans" font-size="11.00">ip_output</text>
</g>
<!-- control_input&#45;&gt;ip_output -->
<g id="edge6" class="edge">
<title>control_input&#45;&gt;ip_output</title>
<path fill="none" stroke="blue" stroke-width="2" d="M41.73,-249.09C45.57,-337.86 74.75,-723 291.89,-723 291.89,-723 291.89,-723 824.85,-723 912.87,-723 1006.71,-670.17 1051.91,-640.92"/>
<polygon fill="blue" stroke="blue" stroke-width="2" points="1053.85,-643.83 1060.28,-635.41 1050,-637.99 1053.85,-643.83"/>
</g>
<!-- arp_output_reply -->
<g id="node8" class="node">
<title>arp_output_reply</title>
<ellipse fill="none" stroke="black" cx="584.15" cy="-807" rx="51.62" ry="18"/>
<text text-anchor="middle" x="584.15" y="-804.2" font-family="sans" font-size="11.00">arp_output_reply</text>
</g>
<!-- control_input&#45;&gt;arp_output_reply -->
<g id="edge7" class="edge">
<title>control_input&#45;&gt;arp_output_reply</title>
<path fill="none" stroke="blue" stroke-width="2" d="M41.34,-249.22C42.49,-330.8 51.19,-661.82 116.32,-737 168.17,-796.84 407.68,-806.23 522.04,-807.23"/>
<polygon fill="blue" stroke="blue" stroke-width="2" points="522.35,-810.73 532.38,-807.3 522.4,-803.73 522.35,-810.73"/>
</g>
<!-- ip6_output -->
<g id="node9" class="node">
<title>ip6_output</title>
<ellipse fill="none" stroke="black" cx="1970.07" cy="-289" rx="32.63" ry="18"/>
<text text-anchor="middle" x="1970.07" y="-286.2" font-family="sans" font-size="11.00">ip6_output</text>
</g>
<!-- control_input&#45;&gt;ip6_output -->
<g id="edge8" class="edge">
<title>control_input&#45;&gt;ip6_output</title>
<path fill="none" stroke="blue" stroke-width="2" d="M61.33,-215.47C103.13,-190.55 202.74,-146 291.89,-146 291.89,-146 291.89,-146 1567.83,-146 1713.28,-146 1749,-176.86 1883.6,-232 1905.99,-241.17 1929.88,-254.97 1946.69,-266.96"/>
<polygon fill="blue" stroke="blue" stroke-width="2" points="1944.69,-269.84 1954.8,-273.03 1948.89,-264.24 1944.69,-269.84"/>
</g>
<!-- control_input&#45;&gt;ip6_output -->
<g id="edge10" class="edge">
<title>control_input&#45;&gt;ip6_output</title>
<path fill="none" stroke="blue" stroke-width="2" d="M73.08,-220.59C119.82,-201.36 210.24,-164 291.89,-164 291.89,-164 291.89,-164 1567.83,-164 1713.28,-164 1749,-194.86 1883.6,-250 1900.55,-256.95 1918.36,-266.54 1933.31,-274.65"/>
<polygon fill="blue" stroke="blue" stroke-width="2" points="1931.75,-277.79 1942.21,-279.48 1935.09,-271.64 1931.75,-277.79"/>
</g>
<!-- ndp_na_output -->
<g id="node10" class="node">
<title>ndp_na_output</title>
<ellipse fill="none" stroke="black" cx="1333.1" cy="-100" rx="45.09" ry="18"/>
<text text-anchor="middle" x="1333.1" y="-97.2" font-family="sans" font-size="11.00">ndp_na_output</text>
</g>
<!-- control_input&#45;&gt;ndp_na_output -->
<g id="edge9" class="edge">
<title>control_input&#45;&gt;ndp_na_output</title>
<path fill="none" stroke="blue" stroke-width="2" d="M49.18,-213.26C60.56,-190.32 83.71,-151.05 116.32,-132 184.33,-92.28 213.13,-108 291.89,-108 291.89,-108 291.89,-108 1081.37,-108 1149.21,-108 1227.32,-105.04 1278.09,-102.72"/>
<polygon fill="blue" stroke="blue" stroke-width="2" points="1278.35,-106.21 1288.18,-102.25 1278.03,-99.22 1278.35,-106.21"/>
</g>
<!-- eth_input -->
<g id="node12" class="node">
<title>eth_input</title>
<ellipse fill="none" stroke="black" cx="292.89" cy="-332" rx="29.12" ry="18"/>
<text text-anchor="middle" x="292.89" y="-329.2" font-family="sans" font-size="11.00">eth_input</text>
</g>
<!-- loopback_input&#45;&gt;eth_input -->
<g id="edge16" class="edge">
<title>loopback_input&#45;&gt;eth_input</title>
<path fill="none" stroke="black" d="M187.78,-269.85C209.14,-282.6 239.97,-301 262.53,-314.48"/>
<polygon fill="black" stroke="black" points="260.96,-317.61 271.34,-319.74 264.55,-311.6 260.96,-317.61"/>
</g>
<!-- eth_output -->
<g id="node16" class="node">
<title>eth_output</title>
<ellipse fill="none" stroke="black" cx="2111.36" cy="-814" rx="33.8" ry="18"/>
<text text-anchor="middle" x="2111.36" y="-811.2" font-family="sans" font-size="11.00">eth_output</text>
</g>
<!-- arp_output_request&#45;&gt;eth_output -->
<g id="edge27" class="edge">
<title>arp_output_request&#45;&gt;eth_output</title>
<path fill="none" stroke="black" d="M496.59,-851.67C551.96,-852.25 637.63,-853 711.95,-853 711.95,-853 711.95,-853 1825.98,-853 1913.76,-853 2015.38,-834.54 2070.23,-823.02"/>
<polygon fill="black" stroke="black" points="2071.19,-826.39 2080.24,-820.88 2069.73,-819.55 2071.19,-826.39"/>
</g>
<!-- icmp_output -->
<g id="node28" class="node">
<title>icmp_output</title>
<ellipse fill="none" stroke="black" cx="946.68" cy="-622" rx="37.98" ry="18"/>
<text text-anchor="middle" x="946.68" y="-619.2" font-family="sans" font-size="11.00">icmp_output</text>
</g>
<!-- icmp_local_send&#45;&gt;icmp_output -->
<g id="edge32" class="edge">
<title>icmp_local_send&#45;&gt;icmp_output</title>
<path fill="none" stroke="black" d="M301.92,-428.98C330.53,-489.94 433.73,-685 583.15,-685 583.15,-685 583.15,-685 713.95,-685 785.23,-685 864.65,-656.9 909.55,-638.24"/>
<polygon fill="black" stroke="black" points="911.02,-641.42 918.86,-634.3 908.29,-634.97 911.02,-641.42"/>
</g>
<!-- icmp6_output -->
<g id="node36" class="node">
<title>icmp6_output</title>
<ellipse fill="none" stroke="black" cx="1824.98" cy="-100" rx="41.58" ry="18"/>
<text text-anchor="middle" x="1824.98" y="-97.2" font-family="sans" font-size="11.00">icmp6_output</text>
</g>
<!-- icmp6_local_send&#45;&gt;icmp6_output -->
<g id="edge57" class="edge">
<title>icmp6_local_send&#45;&gt;icmp6_output</title>
<path fill="none" stroke="black" d="M1000.02,-17.36C1052.1,-16.77 1134.3,-16 1205.46,-16 1205.46,-16 1205.46,-16 1567.83,-16 1650.75,-16 1741.6,-56.24 1789.68,-81.02"/>
<polygon fill="black" stroke="black" points="1788.22,-84.21 1798.71,-85.75 1791.47,-78.01 1788.22,-84.21"/>
</g>
<!-- ndp_ns_output&#45;&gt;icmp6_output -->
<g id="edge76" class="edge">
<title>ndp_ns_output&#45;&gt;icmp6_output</title>
<path fill="none" stroke="black" d="M1124.84,-59.77C1174.83,-57.4 1259.37,-54 1332.1,-54 1332.1,-54 1332.1,-54 1567.83,-54 1643.28,-54 1729.29,-73.57 1779.98,-87.19"/>
<polygon fill="black" stroke="black" points="1779.37,-90.65 1789.94,-89.91 1781.22,-83.89 1779.37,-90.65"/>
</g>
<!-- ip_output&#45;&gt;eth_output -->
<g id="edge45" class="edge">
<title>ip_output&#45;&gt;eth_output</title>
<path fill="none" stroke="black" d="M1092.3,-638.66C1105.87,-657.8 1130.93,-688.44 1160.87,-703 1229.73,-736.48 1255.53,-722 1332.1,-722 1332.1,-722 1332.1,-722 1825.98,-722 1921.73,-722 2027.19,-769.79 2078.62,-796.49"/>
<polygon fill="black" stroke="black" points="2077.1,-799.64 2087.58,-801.21 2080.36,-793.45 2077.1,-799.64"/>
</g>
<!-- loop_xvrf -->
<g id="node20" class="node">
<title>loop_xvrf</title>
<ellipse fill="none" stroke="black" cx="1206.46" cy="-378" rx="28.53" ry="18"/>
<text text-anchor="middle" x="1206.46" y="-375.2" font-family="sans" font-size="11.00">loop_xvrf</text>
</g>
<!-- ip_output&#45;&gt;loop_xvrf -->
<g id="edge47" class="edge">
<title>ip_output&#45;&gt;loop_xvrf</title>
<path fill="none" stroke="black" d="M1090.1,-604.84C1111.5,-562.75 1166.72,-454.19 1192.21,-404.07"/>
<polygon fill="black" stroke="black" points="1195.33,-405.64 1196.75,-395.14 1189.09,-402.47 1195.33,-405.64"/>
</g>
<!-- ip_hold -->
<g id="node29" class="node">
<title>ip_hold</title>
<ellipse fill="none" stroke="black" cx="1333.1" cy="-626" rx="27" ry="18"/>
<text text-anchor="middle" x="1333.1" y="-623.2" font-family="sans" font-size="11.00">ip_hold</text>
</g>
<!-- ip_output&#45;&gt;ip_hold -->
<g id="edge46" class="edge">
<title>ip_output&#45;&gt;ip_hold</title>
<path fill="none" stroke="black" d="M1104.85,-611.76C1120.41,-605.54 1141.46,-598.21 1160.87,-595 1200.86,-588.4 1212.22,-587.56 1252.05,-595 1268.95,-598.16 1286.88,-604.77 1301.47,-611.07"/>
<polygon fill="black" stroke="black" points="1300.43,-614.44 1310.99,-615.35 1303.3,-608.06 1300.43,-614.44"/>
</g>
<!-- ip_loadbalance -->
<g id="node30" class="node">
<title>ip_loadbalance</title>
<ellipse fill="none" stroke="black" cx="1206.46" cy="-676" rx="45.68" ry="18"/>
<text text-anchor="middle" x="1206.46" y="-673.2" font-family="sans" font-size="11.00">ip_loadbalance</text>
</g>
<!-- ip_output&#45;&gt;ip_loadbalance -->
<g id="edge48" class="edge">
<title>ip_output&#45;&gt;ip_loadbalance</title>
<path fill="none" stroke="black" d="M1108.3,-628.04C1127.37,-635.03 1153.05,-646.1 1173.22,-655.97"/>
<polygon fill="black" stroke="black" points="1171.84,-659.19 1182.34,-660.55 1174.98,-652.93 1171.84,-659.19"/>
</g>
<!-- ipip_output -->
<g id="node33" class="node">
<title>ipip_output</title>
<ellipse fill="none" stroke="black" cx="1206.46" cy="-622" rx="34.38" ry="18"/>
<text text-anchor="middle" x="1206.46" y="-619.2" font-family="sans" font-size="11.00">ipip_output</text>
</g>
<!-- ip_output&#45;&gt;ipip_output -->
<g id="edge49" class="edge">
<title>ip_output&#45;&gt;ipip_output</title>
<path fill="none" stroke="black" d="M1108.3,-616.32C1124.46,-615.21 1145.37,-614.96 1163.64,-615.58"/>
<polygon fill="black" stroke="black" points="1163.62,-619.08 1173.76,-616.03 1163.92,-612.09 1163.62,-619.08"/>
</g>
<!-- sr6_output -->
<g id="node34" class="node">
<title>sr6_output</title>
<ellipse fill="none" stroke="black" cx="2111.36" cy="-350" rx="33.21" ry="18"/>
<text text-anchor="middle" x="2111.36" y="-347.2" font-family="sans" font-size="11.00">sr6_output</text>
</g>
<!-- ip_output&#45;&gt;sr6_output -->
<g id="edge50" class="edge">
<title>ip_output&#45;&gt;sr6_output</title>
<path fill="none" stroke="black" d="M1103.72,-610.85C1119.5,-603.16 1141.26,-592.93 1160.87,-585 1357.5,-505.48 1442.92,-557.21 1611.87,-429 1634.27,-412.01 1623.37,-390.77 1647.87,-377 1719.07,-337.01 1968.31,-343.47 2068.34,-347.86"/>
<polygon fill="black" stroke="black" points="2068.24,-351.35 2078.39,-348.31 2068.56,-344.36 2068.24,-351.35"/>
</g>
<!-- arp_output_reply&#45;&gt;eth_output -->
<g id="edge26" class="edge">
<title>arp_output_reply&#45;&gt;eth_output</title>
<path fill="none" stroke="black" d="M635.68,-809.35C683.79,-811.38 758.24,-814 822.85,-814 822.85,-814 822.85,-814 1825.98,-814 1911.56,-814 2011.61,-814 2067.31,-814"/>
<polygon fill="black" stroke="black" points="2067.51,-817.5 2077.51,-814 2067.51,-810.5 2067.51,-817.5"/>
</g>
<!-- ip6_output&#45;&gt;eth_output -->
<g id="edge68" class="edge">
<title>ip6_output&#45;&gt;eth_output</title>
<path fill="none" stroke="black" d="M1978.99,-306.64C1989.57,-330.73 2008.41,-375.46 2020.54,-415 2062.48,-551.64 2093.99,-720.09 2105.55,-785.84"/>
<polygon fill="black" stroke="black" points="2102.13,-786.6 2107.29,-795.85 2109.02,-785.4 2102.13,-786.6"/>
</g>
<!-- ip6_output&#45;&gt;loop_xvrf -->
<g id="edge70" class="edge">
<title>ip6_output&#45;&gt;loop_xvrf</title>
<path fill="none" stroke="black" d="M1938.65,-293.76C1859.68,-306.18 1653.88,-338.84 1647.87,-343 1621.68,-361.14 1639.49,-389.1 1611.87,-405 1535.71,-448.85 1501.84,-410.7 1414.14,-405 1354.52,-401.12 1285.82,-391.01 1244.56,-384.33"/>
<polygon fill="black" stroke="black" points="1244.87,-380.83 1234.44,-382.66 1243.74,-387.74 1244.87,-380.83"/>
</g>
<!-- ip6_output&#45;&gt;sr6_output -->
<g id="edge72" class="edge">
<title>ip6_output&#45;&gt;sr6_output</title>
<path fill="none" stroke="black" d="M2000.27,-296.17C2023.93,-305.03 2057.13,-319.56 2080.87,-331.45"/>
<polygon fill="black" stroke="black" points="2079.28,-334.57 2089.78,-336.03 2082.48,-328.35 2079.28,-334.57"/>
</g>
<!-- ip6_hold -->
<g id="node41" class="node">
<title>ip6_hold</title>
<ellipse fill="none" stroke="black" cx="2111.36" cy="-242" rx="27" ry="18"/>
<text text-anchor="middle" x="2111.36" y="-239.2" font-family="sans" font-size="11.00">ip6_hold</text>
</g>
<!-- ip6_output&#45;&gt;ip6_hold -->
<g id="edge69" class="edge">
<title>ip6_output&#45;&gt;ip6_hold</title>
<path fill="none" stroke="black" d="M1998.26,-279.83C2020.84,-272.21 2053.05,-261.34 2077.16,-253.2"/>
<polygon fill="black" stroke="black" points="2078.58,-256.41 2086.94,-249.9 2076.35,-249.78 2078.58,-256.41"/>
</g>
<!-- ip6_loadbalance -->
<g id="node44" class="node">
<title>ip6_loadbalance</title>
<ellipse fill="none" stroke="black" cx="2111.36" cy="-296" rx="48.69" ry="18"/>
<text text-anchor="middle" x="2111.36" y="-293.2" font-family="sans" font-size="11.00">ip6_loadbalance</text>
</g>
<!-- ip6_output&#45;&gt;ip6_loadbalance -->
<g id="edge71" class="edge">
<title>ip6_output&#45;&gt;ip6_loadbalance</title>
<path fill="none" stroke="black" d="M2001.98,-284.83C2018.35,-284.68 2038.89,-285.43 2057.69,-286.78"/>
<polygon fill="black" stroke="black" points="2057.66,-290.29 2067.91,-287.6 2058.22,-283.32 2057.66,-290.29"/>
</g>
<!-- ndp_na_output&#45;&gt;icmp6_output -->
<g id="edge74" class="edge">
<title>ndp_na_output&#45;&gt;icmp6_output</title>
<path fill="none" stroke="black" d="M1378.44,-100C1469.33,-100 1676.35,-100 1772.78,-100"/>
<polygon fill="black" stroke="black" points="1772.87,-103.5 1782.87,-100 1772.87,-96.5 1772.87,-103.5"/>
</g>
<!-- control_output -->
<g id="node11" class="node">
<title>control_output</title>
<ellipse fill="none" stroke="black" cx="2246.67" cy="-467" rx="44.51" ry="18"/>
<text text-anchor="middle" x="2246.67" y="-464.2" font-family="sans" font-size="11.00">control_output</text>
</g>
<!-- arp_input -->
<g id="node13" class="node">
<title>arp_input</title>
<ellipse fill="none" stroke="black" cx="1970.07" cy="-146" rx="29.12" ry="18"/>
<text text-anchor="middle" x="1970.07" y="-143.2" font-family="sans" font-size="11.00">arp_input</text>
</g>
<!-- eth_input&#45;&gt;arp_input -->
<g id="edge11" class="edge">
<title>eth_input&#45;&gt;arp_input</title>
<path fill="none" stroke="black" d="M311.26,-317.84C354.41,-284.15 471.11,-202 583.15,-202 583.15,-202 583.15,-202 1567.83,-202 1703.3,-202 1862.06,-170.3 1932.37,-154.6"/>
<polygon fill="black" stroke="black" points="1933.5,-157.93 1942.48,-152.32 1931.96,-151.1 1933.5,-157.93"/>
</g>
<!-- ip_input -->
<g id="node14" class="node">
<title>ip_input</title>
<ellipse fill="none" stroke="black" cx="437.43" cy="-499" rx="27" ry="18"/>
<text text-anchor="middle" x="437.43" y="-496.2" font-family="sans" font-size="11.00">ip_input</text>
</g>
<!-- eth_input&#45;&gt;ip_input -->
<g id="edge12" class="edge">
<title>eth_input&#45;&gt;ip_input</title>
<path fill="none" stroke="black" d="M308.54,-347.24C318.28,-357.48 331.24,-371.37 342.27,-384 369.18,-414.81 398.87,-451.57 417.58,-475.08"/>
<polygon fill="black" stroke="black" points="414.99,-477.45 423.95,-483.11 420.48,-473.1 414.99,-477.45"/>
</g>
<!-- ip6_input -->
<g id="node15" class="node">
<title>ip6_input</title>
<ellipse fill="none" stroke="black" cx="1333.1" cy="-332" rx="28.44" ry="18"/>
<text text-anchor="middle" x="1333.1" y="-329.2" font-family="sans" font-size="11.00">ip6_input</text>
</g>
<!-- eth_input&#45;&gt;ip6_input -->
<g id="edge13" class="edge">
<title>eth_input&#45;&gt;ip6_input</title>
<path fill="none" stroke="black" d="M322.22,-332C374.02,-332 487.48,-332 583.15,-332 583.15,-332 583.15,-332 1081.37,-332 1157,-332 1245.47,-332 1294.51,-332"/>
<polygon fill="black" stroke="black" points="1294.64,-335.5 1304.64,-332 1294.64,-328.5 1294.64,-335.5"/>
</g>
<!-- arp_input_request -->
<g id="node22" class="node">
<title>arp_input_request</title>
<ellipse fill="none" stroke="black" cx="2111.36" cy="-134" rx="54.63" ry="18"/>
<text text-anchor="middle" x="2111.36" y="-131.2" font-family="sans" font-size="11.00">arp_input_request</text>
</g>
<!-- arp_input&#45;&gt;arp_input_request -->
<g id="edge22" class="edge">
<title>arp_input&#45;&gt;arp_input_request</title>
<path fill="none" stroke="black" d="M1999.26,-143.57C2013.41,-142.35 2031.16,-140.82 2048.28,-139.35"/>
<polygon fill="black" stroke="black" points="2048.6,-142.83 2058.26,-138.49 2048,-135.86 2048.6,-142.83"/>
</g>
<!-- arp_input_reply -->
<g id="node23" class="node">
<title>arp_input_reply</title>
<ellipse fill="none" stroke="black" cx="2111.36" cy="-188" rx="47.43" ry="18"/>
<text text-anchor="middle" x="2111.36" y="-185.2" font-family="sans" font-size="11.00">arp_input_reply</text>
</g>
<!-- arp_input&#45;&gt;arp_input_reply -->
<g id="edge23" class="edge">
<title>arp_input&#45;&gt;arp_input_reply</title>
<path fill="none" stroke="black" d="M1996.62,-153.7C2015.43,-159.38 2041.54,-167.25 2063.99,-174.02"/>
<polygon fill="black" stroke="black" points="2063.1,-177.41 2073.69,-176.94 2065.12,-170.71 2063.1,-177.41"/>
</g>
<!-- ip_input&#45;&gt;ip_output -->
<g id="edge37" class="edge">
<title>ip_input&#45;&gt;ip_output</title>
<path fill="none" stroke="black" d="M447.76,-515.84C462.35,-540.4 493.04,-585.48 532.59,-607 715.75,-706.65 794.14,-682.98 999.87,-649 1015.49,-646.42 1032.17,-641.17 1046.2,-635.98"/>
<polygon fill="black" stroke="black" points="1047.82,-639.1 1055.89,-632.24 1045.3,-632.57 1047.82,-639.1"/>
</g>
<!-- dnat44 -->
<g id="node24" class="node">
<title>dnat44</title>
<ellipse fill="none" stroke="black" cx="584.15" cy="-545" rx="27" ry="18"/>
<text text-anchor="middle" x="584.15" y="-542.2" font-family="sans" font-size="11.00">dnat44</text>
</g>
<!-- ip_input&#45;&gt;dnat44 -->
<g id="edge39" class="edge">
<title>ip_input&#45;&gt;dnat44</title>
<path fill="none" stroke="black" d="M462,-506.49C485.87,-514.08 522.98,-525.87 549.84,-534.41"/>
<polygon fill="black" stroke="black" points="548.99,-537.82 559.58,-537.51 551.11,-531.15 548.99,-537.82"/>
</g>
<!-- ip_forward -->
<g id="node25" class="node">
<title>ip_forward</title>
<ellipse fill="none" stroke="black" cx="712.95" cy="-600" rx="32.63" ry="18"/>
<text text-anchor="middle" x="712.95" y="-597.2" font-family="sans" font-size="11.00">ip_forward</text>
</g>
<!-- ip_input&#45;&gt;ip_forward -->
<g id="edge36" class="edge">
<title>ip_input&#45;&gt;ip_forward</title>
<path fill="none" stroke="black" d="M457.43,-511.48C475.21,-526.53 503.34,-550.39 532.59,-563 577.95,-582.57 635.02,-588.67 672.44,-592.53"/>
<polygon fill="black" stroke="black" points="672.14,-596.01 682.45,-593.56 672.86,-589.05 672.14,-596.01"/>
</g>
<!-- ip_input&#45;&gt;ip_forward -->
<g id="edge40" class="edge">
<title>ip_input&#45;&gt;ip_forward</title>
<path fill="none" stroke="black" d="M448.55,-515.48C464.65,-535.15 497.83,-566.01 532.59,-581 577.82,-600.51 634.68,-606.63 672.11,-606.4"/>
<polygon fill="black" stroke="black" points="672.21,-609.89 682.13,-606.17 672.05,-602.9 672.21,-609.89"/>
</g>
<!-- ip_input_local -->
<g id="node26" class="node">
<title>ip_input_local</title>
<ellipse fill="none" stroke="black" cx="712.95" cy="-467" rx="41.49" ry="18"/>
<text text-anchor="middle" x="712.95" y="-464.2" font-family="sans" font-size="11.00">ip_input_local</text>
</g>
<!-- ip_input&#45;&gt;ip_input_local -->
<g id="edge38" class="edge">
<title>ip_input&#45;&gt;ip_input_local</title>
<path fill="none" stroke="black" d="M463.96,-494.87C482.88,-491.89 509.3,-487.9 532.59,-485 576.26,-479.57 626.07,-474.67 662.1,-471.36"/>
<polygon fill="black" stroke="black" points="662.71,-474.82 672.35,-470.43 662.07,-467.85 662.71,-474.82"/>
</g>
<!-- ip6_input&#45;&gt;ip6_output -->
<g id="edge61" class="edge">
<title>ip6_input&#45;&gt;ip6_output</title>
<path fill="none" stroke="black" d="M1346.57,-315.81C1360.86,-298.56 1385.96,-271.99 1414.14,-259 1475.84,-230.55 1497.89,-240 1565.83,-240 1565.83,-240 1565.83,-240 1690.12,-240 1777.43,-240 1877.81,-263.57 1931.14,-278.02"/>
<polygon fill="black" stroke="black" points="1930.27,-281.41 1940.85,-280.69 1932.13,-274.66 1930.27,-281.41"/>
</g>
<!-- ip6_forward -->
<g id="node40" class="node">
<title>ip6_forward</title>
<ellipse fill="none" stroke="black" cx="1449.96" cy="-286" rx="35.64" ry="18"/>
<text text-anchor="middle" x="1449.96" y="-283.2" font-family="sans" font-size="11.00">ip6_forward</text>
</g>
<!-- ip6_input&#45;&gt;ip6_forward -->
<g id="edge60" class="edge">
<title>ip6_input&#45;&gt;ip6_forward</title>
<path fill="none" stroke="black" d="M1353.07,-319.24C1367.72,-311.92 1388.55,-303.12 1407.05,-296.26"/>
<polygon fill="black" stroke="black" points="1408.25,-299.55 1416.47,-292.86 1405.88,-292.96 1408.25,-299.55"/>
</g>
<!-- ip6_input&#45;&gt;ip6_forward -->
<g id="edge63" class="edge">
<title>ip6_input&#45;&gt;ip6_forward</title>
<path fill="none" stroke="black" d="M1360.45,-327.23C1377.55,-321.56 1399.91,-312.71 1417.88,-304.52"/>
<polygon fill="black" stroke="black" points="1419.79,-307.49 1427.35,-300.07 1416.81,-301.16 1419.79,-307.49"/>
</g>
<!-- ip6_input_local -->
<g id="node42" class="node">
<title>ip6_input_local</title>
<ellipse fill="none" stroke="black" cx="1566.83" cy="-378" rx="45.09" ry="18"/>
<text text-anchor="middle" x="1566.83" y="-375.2" font-family="sans" font-size="11.00">ip6_input_local</text>
</g>
<!-- ip6_input&#45;&gt;ip6_input_local -->
<g id="edge62" class="edge">
<title>ip6_input&#45;&gt;ip6_input_local</title>
<path fill="none" stroke="black" d="M1361.23,-333.75C1391.81,-336.1 1442.84,-341.17 1485.78,-351 1498.53,-353.92 1512.11,-358.08 1524.39,-362.26"/>
<polygon fill="black" stroke="black" points="1523.33,-365.6 1533.92,-365.6 1525.64,-358.99 1523.33,-365.6"/>
</g>
<!-- sr6_local -->
<g id="node43" class="node">
<title>sr6_local</title>
<ellipse fill="none" stroke="black" cx="1449.96" cy="-378" rx="27.86" ry="18"/>
<text text-anchor="middle" x="1449.96" y="-375.2" font-family="sans" font-size="11.00">sr6_local</text>
</g>
<!-- ip6_input&#45;&gt;sr6_local -->
<g id="edge64" class="edge">
<title>ip6_input&#45;&gt;sr6_local</title>
<path fill="none" stroke="black" d="M1360.45,-336.77C1378.5,-342.75 1402.41,-352.28 1420.83,-360.83"/>
<polygon fill="black" stroke="black" points="1419.37,-364.02 1429.9,-365.19 1422.4,-357.71 1419.37,-364.02"/>
</g>
<!-- port_tx -->
<g id="node17" class="node">
<title>port_tx</title>
<ellipse fill="none" stroke="black" cx="2246.67" cy="-791" rx="27" ry="18"/>
<text text-anchor="middle" x="2246.67" y="-788.2" font-family="sans" font-size="11.00">port_tx</text>
</g>
<!-- eth_output&#45;&gt;port_tx -->
<g id="edge14" class="edge">
<title>eth_output&#45;&gt;port_tx</title>
<path fill="none" stroke="black" d="M2143.61,-808.61C2163.63,-805.15 2189.64,-800.67 2210.4,-797.09"/>
<polygon fill="black" stroke="black" points="2211.15,-800.51 2220.41,-795.36 2209.96,-793.61 2211.15,-800.51"/>
</g>
<!-- l1_xconnect -->
<g id="node18" class="node">
<title>l1_xconnect</title>
<ellipse fill="none" stroke="black" cx="1566.83" cy="-768" rx="36.23" ry="18"/>
<text text-anchor="middle" x="1566.83" y="-765.2" font-family="sans" font-size="11.00">l1_xconnect</text>
</g>
<!-- l1_xconnect&#45;&gt;port_tx -->
<g id="edge15" class="edge">
<title>l1_xconnect&#45;&gt;port_tx</title>
<path fill="none" stroke="black" d="M1603.47,-768C1652.95,-768 1745.27,-768 1823.98,-768 1823.98,-768 1823.98,-768 1971.07,-768 2057,-768 2157.54,-779.32 2209.88,-786.08"/>
<polygon fill="black" stroke="black" points="2209.62,-789.58 2219.99,-787.41 2210.53,-782.64 2209.62,-789.58"/>
</g>
<!-- loopback_output -->
<g id="node19" class="node">
<title>loopback_output</title>
<ellipse fill="none" stroke="black" cx="1970.07" cy="-579" rx="50.45" ry="18"/>
<text text-anchor="middle" x="1970.07" y="-576.2" font-family="sans" font-size="11.00">loopback_output</text>
</g>
<!-- loopback_output&#45;&gt;control_output -->
<g id="edge17" class="edge">
<title>loopback_output&#45;&gt;control_output</title>
<path fill="none" stroke="black" d="M2020.44,-577.28C2061.44,-574.11 2120.26,-565.43 2166.17,-542 2189.7,-529.99 2211.15,-508.86 2225.82,-492.09"/>
<polygon fill="black" stroke="black" points="2228.66,-494.15 2232.46,-484.26 2223.33,-489.62 2228.66,-494.15"/>
</g>
<!-- loop_xvrf&#45;&gt;ip_input -->
<g id="edge18" class="edge">
<title>loop_xvrf&#45;&gt;ip_input</title>
<path fill="none" stroke="black" d="M1177.62,-378.54C1130.35,-379.4 1031.38,-381 947.68,-381 711.95,-381 711.95,-381 711.95,-381 631.4,-381 604.81,-371.32 532.59,-407 500.75,-422.73 472.88,-453.26 455.88,-474.82"/>
<polygon fill="black" stroke="black" points="453.01,-472.82 449.7,-482.88 458.57,-477.07 453.01,-472.82"/>
</g>
<!-- loop_xvrf&#45;&gt;ip6_input -->
<g id="edge19" class="edge">
<title>loop_xvrf&#45;&gt;ip6_input</title>
<path fill="none" stroke="black" d="M1231.49,-369.13C1250.55,-362.1 1277.39,-352.19 1298.56,-344.38"/>
<polygon fill="black" stroke="black" points="1299.97,-347.59 1308.14,-340.84 1297.55,-341.02 1299.97,-347.59"/>
</g>
<!-- port_rx -->
<g id="node21" class="node">
<title>port_rx</title>
<ellipse fill="none" stroke="blue" stroke-width="2" cx="161.91" cy="-347" rx="27" ry="18"/>
<text text-anchor="middle" x="161.91" y="-344.2" font-family="sans" font-size="11.00">port_rx</text>
</g>
<!-- port_rx&#45;&gt;eth_input -->
<g id="edge20" class="edge">
<title>port_rx&#45;&gt;eth_input</title>
<path fill="none" stroke="blue" stroke-width="2" d="M188.7,-344C207.32,-341.84 232.76,-338.88 253.72,-336.44"/>
<polygon fill="blue" stroke="blue" stroke-width="2" points="254.38,-339.89 263.91,-335.25 253.57,-332.93 254.38,-339.89"/>
</g>
<!-- port_rx&#45;&gt;l1_xconnect -->
<g id="edge21" class="edge">
<title>port_rx&#45;&gt;l1_xconnect</title>
<path fill="none" stroke="blue" stroke-width="2" d="M165.66,-365.06C178.92,-444.74 243.68,-761 436.43,-761 436.43,-761 436.43,-761 1334.1,-761 1398.83,-761 1473.69,-763.76 1520.41,-765.82"/>
<polygon fill="blue" stroke="blue" stroke-width="2" points="1520.36,-769.32 1530.51,-766.27 1520.67,-762.33 1520.36,-769.32"/>
</g>
<!-- arp_input_request&#45;&gt;control_output -->
<g id="edge25" class="edge">
<title>arp_input_request&#45;&gt;control_output</title>
<path fill="none" stroke="black" d="M2149.29,-147.2C2155.64,-150.85 2161.64,-155.39 2166.17,-161 2233.94,-244.8 2244.52,-380.06 2245.77,-438.55"/>
<polygon fill="black" stroke="black" points="2242.28,-438.91 2245.91,-448.86 2249.28,-438.82 2242.28,-438.91"/>
</g>
<!-- arp_input_reply&#45;&gt;control_output -->
<g id="edge24" class="edge">
<title>arp_input_reply&#45;&gt;control_output</title>
<path fill="none" stroke="black" d="M2146.56,-200.01C2153.82,-203.86 2160.88,-208.79 2166.17,-215 2222.72,-281.37 2239.12,-388.08 2243.82,-438.66"/>
<polygon fill="black" stroke="black" points="2240.35,-439.18 2244.68,-448.85 2247.33,-438.59 2240.35,-439.18"/>
</g>
<!-- dnat44&#45;&gt;ip_forward -->
<g id="edge28" class="edge">
<title>dnat44&#45;&gt;ip_forward</title>
<path fill="none" stroke="black" d="M607.23,-554.58C626.52,-562.94 654.84,-575.23 677.16,-584.91"/>
<polygon fill="black" stroke="black" points="676.07,-588.25 686.63,-589.02 678.85,-581.83 676.07,-588.25"/>
</g>
<!-- dnat44&#45;&gt;ip_input_local -->
<g id="edge29" class="edge">
<title>dnat44&#45;&gt;ip_input_local</title>
<path fill="none" stroke="black" d="M604.68,-532.98C624.64,-520.71 655.98,-501.43 679.64,-486.88"/>
<polygon fill="black" stroke="black" points="681.6,-489.78 688.29,-481.56 677.94,-483.81 681.6,-489.78"/>
</g>
<!-- ip_forward&#45;&gt;ip_output -->
<g id="edge34" class="edge">
<title>ip_forward&#45;&gt;ip_output</title>
<path fill="none" stroke="black" d="M744.68,-595.86C797.34,-589.56 908.03,-579.83 999.87,-595 1015.49,-597.58 1032.17,-602.83 1046.2,-608.02"/>
<polygon fill="black" stroke="black" points="1045.3,-611.43 1055.89,-611.76 1047.82,-604.9 1045.3,-611.43"/>
</g>
<!-- icmp_input -->
<g id="node27" class="node">
<title>icmp_input</title>
<ellipse fill="none" stroke="black" cx="823.85" cy="-505" rx="33.8" ry="18"/>
<text text-anchor="middle" x="823.85" y="-502.2" font-family="sans" font-size="11.00">icmp_input</text>
</g>
<!-- ip_input_local&#45;&gt;icmp_input -->
<g id="edge42" class="edge">
<title>ip_input_local&#45;&gt;icmp_input</title>
<path fill="none" stroke="black" d="M745.74,-478.09C758.25,-482.46 772.7,-487.5 785.68,-492.03"/>
<polygon fill="black" stroke="black" points="784.67,-495.39 795.27,-495.38 786.98,-488.78 784.67,-495.39"/>
</g>
<!-- ipip_input -->
<g id="node31" class="node">
<title>ipip_input</title>
<ellipse fill="none" stroke="black" cx="823.85" cy="-559" rx="29.7" ry="18"/>
<text text-anchor="middle" x="823.85" y="-556.2" font-family="sans" font-size="11.00">ipip_input</text>
</g>
<!-- ip_input_local&#45;&gt;ipip_input -->
<g id="edge43" class="edge">
<title>ip_input_local&#45;&gt;ipip_input</title>
<path fill="none" stroke="black" d="M734.24,-482.68C740.7,-487.79 747.82,-493.55 754.2,-499 770.7,-513.1 773.83,-517.75 790.2,-532 792.43,-533.95 794.78,-535.95 797.13,-537.94"/>
<polygon fill="black" stroke="black" points="795.17,-540.86 805.09,-544.59 799.66,-535.49 795.17,-540.86"/>
</g>
<!-- l4_input_local -->
<g id="node32" class="node">
<title>l4_input_local</title>
<ellipse fill="none" stroke="black" cx="1689.12" cy="-462" rx="41.49" ry="18"/>
<text text-anchor="middle" x="1689.12" y="-459.2" font-family="sans" font-size="11.00">l4_input_local</text>
</g>
<!-- ip_input_local&#45;&gt;l4_input_local -->
<g id="edge44" class="edge">
<title>ip_input_local&#45;&gt;l4_input_local</title>
<path fill="none" stroke="black" d="M754.45,-466.45C853.2,-465.14 1114.24,-462 1332.1,-462 1332.1,-462 1332.1,-462 1450.96,-462 1515.41,-462 1589.7,-462 1637.71,-462"/>
<polygon fill="black" stroke="black" points="1637.84,-465.5 1647.84,-462 1637.84,-458.5 1637.84,-465.5"/>
</g>
<!-- icmp_input&#45;&gt;control_output -->
<g id="edge31" class="edge">
<title>icmp_input&#45;&gt;control_output</title>
<path fill="none" stroke="black" d="M857.79,-503.94C906.3,-502.47 999.82,-500 1079.37,-500 1079.37,-500 1079.37,-500 1334.1,-500 1532.45,-500 1569.58,-586.14 1766.37,-611 1818.06,-617.53 1831.5,-611.95 1883.6,-611 1944.49,-609.89 1960.2,-614.27 2020.54,-606 2086.49,-596.96 2110.38,-607.31 2166.17,-571 2195.77,-551.74 2218.72,-517.55 2232.2,-493.64"/>
<polygon fill="black" stroke="black" points="2235.34,-495.18 2237.06,-484.73 2229.2,-491.83 2235.34,-495.18"/>
</g>
<!-- icmp_input&#45;&gt;icmp_output -->
<g id="edge30" class="edge">
<title>icmp_input&#45;&gt;icmp_output</title>
<path fill="none" stroke="black" d="M843.44,-519.81C848.11,-523.68 853.05,-527.92 857.5,-532 880.89,-553.5 906.13,-579.58 923.58,-598.11"/>
<polygon fill="black" stroke="black" points="921.17,-600.66 930.56,-605.56 926.28,-595.87 921.17,-600.66"/>
</g>
<!-- icmp_output&#45;&gt;ip_output -->
<g id="edge33" class="edge">
<title>icmp_output&#45;&gt;ip_output</title>
<path fill="none" stroke="black" d="M984.72,-622C1002.27,-622 1023.22,-622 1040.95,-622"/>
<polygon fill="black" stroke="black" points="1040.96,-625.5 1050.96,-622 1040.96,-618.5 1040.96,-625.5"/>
</g>
<!-- ip_hold&#45;&gt;control_output -->
<g id="edge35" class="edge">
<title>ip_hold&#45;&gt;control_output</title>
<path fill="none" stroke="black" d="M1357.86,-633.22C1399.55,-645.23 1488.76,-668 1565.83,-668 1565.83,-668 1565.83,-668 1971.07,-668 2058.43,-668 2095.86,-695.86 2166.17,-644 2214.95,-608.02 2234.43,-535.19 2241.71,-495.07"/>
<polygon fill="black" stroke="black" points="2245.17,-495.59 2243.38,-485.15 2238.26,-494.43 2245.17,-495.59"/>
</g>
<!-- ip_loadbalance&#45;&gt;ip_output -->
<g id="edge41" class="edge">
<title>ip_loadbalance&#45;&gt;ip_output</title>
<path fill="none" stroke="black" d="M1168.32,-666.08C1149.48,-658.69 1126.97,-648.74 1109.57,-640.04"/>
<polygon fill="black" stroke="black" points="1110.98,-636.82 1100.49,-635.36 1107.78,-643.05 1110.98,-636.82"/>
</g>
<!-- ipip_input&#45;&gt;ip_input -->
<g id="edge78" class="edge">
<title>ipip_input&#45;&gt;ip_input</title>
<path fill="none" stroke="black" d="M796.08,-552.08C759.92,-542.97 693.37,-527.06 635.7,-518 579.7,-509.2 514.06,-503.86 474.39,-501.17"/>
<polygon fill="black" stroke="black" points="474.62,-497.67 464.41,-500.51 474.15,-504.66 474.62,-497.67"/>
</g>
<!-- l4_loopback_output -->
<g id="node45" class="node">
<title>l4_loopback_output</title>
<ellipse fill="none" stroke="black" cx="1824.98" cy="-584" rx="58.73" ry="18"/>
<text text-anchor="middle" x="1824.98" y="-581.2" font-family="sans" font-size="11.00">l4_loopback_output</text>
</g>
<!-- l4_input_local&#45;&gt;l4_loopback_output -->
<g id="edge80" class="edge">
<title>l4_input_local&#45;&gt;l4_loopback_output</title>
<path fill="none" stroke="black" d="M1700.59,-479.44C1713.76,-500.18 1738.11,-534.78 1766.37,-557 1770.13,-559.96 1774.27,-562.69 1778.55,-565.19"/>
<polygon fill="black" stroke="black" points="1777,-568.33 1787.47,-569.98 1780.32,-562.16 1777,-568.33"/>
</g>
<!-- ipip_output&#45;&gt;ip_output -->
<g id="edge79" class="edge">
<title>ipip_output&#45;&gt;ip_output</title>
<path fill="none" stroke="black" d="M1173.76,-627.97C1156.99,-628.91 1136.3,-629 1118.75,-628.25"/>
<polygon fill="black" stroke="black" points="1118.47,-624.73 1108.3,-627.68 1118.09,-631.72 1118.47,-624.73"/>
</g>
<!-- sr6_output&#45;&gt;ip6_output -->
<g id="edge85" class="edge">
<title>sr6_output&#45;&gt;ip6_output</title>
<path fill="none" stroke="black" d="M2080.83,-342.71C2057.17,-333.83 2024.14,-319.37 2000.51,-307.52"/>
<polygon fill="black" stroke="black" points="2001.82,-304.26 1991.32,-302.8 1998.61,-310.48 2001.82,-304.26"/>
</g>
<!-- icmp6_input -->
<g id="node35" class="node">
<title>icmp6_input</title>
<ellipse fill="none" stroke="black" cx="1689.12" cy="-404" rx="37.4" ry="18"/>
<text text-anchor="middle" x="1689.12" y="-401.2" font-family="sans" font-size="11.00">icmp6_input</text>
</g>
<!-- icmp6_input&#45;&gt;control_output -->
<g id="edge55" class="edge">
<title>icmp6_input&#45;&gt;control_output</title>
<path fill="none" stroke="black" d="M1711.13,-418.68C1725.91,-428.28 1746.51,-440.24 1766.37,-447 1915.02,-497.59 2104.68,-484.51 2194.33,-474.11"/>
<polygon fill="black" stroke="black" points="2194.98,-477.55 2204.49,-472.89 2194.15,-470.6 2194.98,-477.55"/>
</g>
<!-- icmp6_input&#45;&gt;icmp6_output -->
<g id="edge51" class="edge">
<title>icmp6_input&#45;&gt;icmp6_output</title>
<path fill="none" stroke="black" d="M1697.9,-386.34C1720.31,-335.45 1785.15,-188.2 1812.06,-127.08"/>
<polygon fill="black" stroke="black" points="1815.36,-128.27 1816.18,-117.71 1808.95,-125.45 1815.36,-128.27"/>
</g>
<!-- ndp_ns_input -->
<g id="node37" class="node">
<title>ndp_ns_input</title>
<ellipse fill="none" stroke="black" cx="1970.07" cy="-442" rx="40.32" ry="18"/>
<text text-anchor="middle" x="1970.07" y="-439.2" font-family="sans" font-size="11.00">ndp_ns_input</text>
</g>
<!-- icmp6_input&#45;&gt;ndp_ns_input -->
<g id="edge52" class="edge">
<title>icmp6_input&#45;&gt;ndp_ns_input</title>
<path fill="none" stroke="black" d="M1719.8,-414.61C1733.76,-419.16 1750.73,-424.1 1766.37,-427 1818.18,-436.61 1878.53,-440.11 1919.81,-441.36"/>
<polygon fill="black" stroke="black" points="1919.79,-444.86 1929.88,-441.64 1919.98,-437.87 1919.79,-444.86"/>
</g>
<!-- ndp_na_input -->
<g id="node38" class="node">
<title>ndp_na_input</title>
<ellipse fill="none" stroke="black" cx="1824.98" cy="-400" rx="40.91" ry="18"/>
<text text-anchor="middle" x="1824.98" y="-397.2" font-family="sans" font-size="11.00">ndp_na_input</text>
</g>
<!-- icmp6_input&#45;&gt;ndp_na_input -->
<g id="edge53" class="edge">
<title>icmp6_input&#45;&gt;ndp_na_input</title>
<path fill="none" stroke="black" d="M1726.7,-402.91C1741.3,-402.47 1758.36,-401.96 1774.07,-401.49"/>
<polygon fill="black" stroke="black" points="1774.27,-404.99 1784.16,-401.19 1774.06,-397.99 1774.27,-404.99"/>
</g>
<!-- ndp_rs_input -->
<g id="node39" class="node">
<title>ndp_rs_input</title>
<ellipse fill="none" stroke="black" cx="1824.98" cy="-530" rx="39.15" ry="18"/>
<text text-anchor="middle" x="1824.98" y="-527.2" font-family="sans" font-size="11.00">ndp_rs_input</text>
</g>
<!-- icmp6_input&#45;&gt;ndp_rs_input -->
<g id="edge54" class="edge">
<title>icmp6_input&#45;&gt;ndp_rs_input</title>
<path fill="none" stroke="black" d="M1711.95,-418.33C1718.34,-423.16 1725.04,-428.88 1730.37,-435 1751.55,-459.31 1743.43,-475.34 1766.37,-498 1772.21,-503.77 1779.29,-508.81 1786.47,-513.09"/>
<polygon fill="black" stroke="black" points="1785.09,-516.32 1795.53,-518.1 1788.47,-510.2 1785.09,-516.32"/>
</g>
<!-- icmp6_output&#45;&gt;ip6_output -->
<g id="edge56" class="edge">
<title>icmp6_output&#45;&gt;ip6_output</title>
<path fill="none" stroke="black" d="M1840.51,-117.01C1852.35,-131.03 1869.39,-151.54 1883.6,-170 1908.05,-201.78 1934.79,-239.55 1951.74,-263.87"/>
<polygon fill="black" stroke="black" points="1948.94,-265.97 1957.52,-272.19 1954.69,-261.98 1948.94,-265.97"/>
</g>
<!-- ndp_ns_input&#45;&gt;control_output -->
<g id="edge75" class="edge">
<title>ndp_ns_input&#45;&gt;control_output</title>
<path fill="none" stroke="black" d="M2009.54,-445.5C2057.38,-449.86 2139.28,-457.31 2192.94,-462.2"/>
<polygon fill="black" stroke="black" points="2192.67,-465.69 2202.95,-463.11 2193.31,-458.72 2192.67,-465.69"/>
</g>
<!-- ndp_na_input&#45;&gt;control_output -->
<g id="edge73" class="edge">
<title>ndp_na_input&#45;&gt;control_output</title>
<path fill="none" stroke="black" d="M1865.65,-401.51C1905.09,-403.38 1967.23,-407.31 2020.54,-415 2086.04,-424.45 2101.8,-430.66 2166.17,-446 2177.02,-448.58 2188.64,-451.55 2199.56,-454.42"/>
<polygon fill="black" stroke="black" points="2198.79,-457.83 2209.35,-457.01 2200.59,-451.07 2198.79,-457.83"/>
</g>
<!-- ndp_rs_input&#45;&gt;control_output -->
<g id="edge77" class="edge">
<title>ndp_rs_input&#45;&gt;control_output</title>
<path fill="none" stroke="black" d="M1864.16,-530.94C1927.81,-531.61 2059.19,-529.14 2166.17,-502 2180.99,-498.24 2196.54,-491.97 2209.92,-485.76"/>
<polygon fill="black" stroke="black" points="2211.74,-488.78 2219.24,-481.3 2208.71,-482.47 2211.74,-488.78"/>
</g>
<!-- ip6_forward&#45;&gt;ip6_output -->
<g id="edge58" class="edge">
<title>ip6_forward&#45;&gt;ip6_output</title>
<path fill="none" stroke="black" d="M1486.17,-286.2C1578.57,-286.74 1827.76,-288.18 1927.23,-288.76"/>
<polygon fill="black" stroke="black" points="1927.47,-292.26 1937.49,-288.82 1927.51,-285.26 1927.47,-292.26"/>
</g>
<!-- ip6_hold&#45;&gt;control_output -->
<g id="edge59" class="edge">
<title>ip6_hold&#45;&gt;control_output</title>
<path fill="none" stroke="black" d="M2135.94,-249.5C2146.35,-253.81 2158.03,-260.15 2166.17,-269 2211.62,-318.4 2232.57,-397.08 2240.92,-438.83"/>
<polygon fill="black" stroke="black" points="2237.52,-439.68 2242.83,-448.85 2244.4,-438.38 2237.52,-439.68"/>
</g>
<!-- ip6_input_local&#45;&gt;l4_input_local -->
<g id="edge67" class="edge">
<title>ip6_input_local&#45;&gt;l4_input_local</title>
<path fill="none" stroke="black" d="M1590.17,-393.6C1609.28,-406.95 1636.95,-426.27 1658.01,-440.98"/>
<polygon fill="black" stroke="black" points="1656.1,-443.91 1666.3,-446.76 1660.11,-438.17 1656.1,-443.91"/>
</g>
<!-- ip6_input_local&#45;&gt;icmp6_input -->
<g id="edge66" class="edge">
<title>ip6_input_local&#45;&gt;icmp6_input</title>
<path fill="none" stroke="black" d="M1606.88,-386.44C1618.89,-389.04 1632.18,-391.91 1644.47,-394.57"/>
<polygon fill="black" stroke="black" points="1644,-398.04 1654.51,-396.74 1645.48,-391.2 1644,-398.04"/>
</g>
<!-- sr6_local&#45;&gt;ip_input -->
<g id="edge82" class="edge">
<title>sr6_local&#45;&gt;ip_input</title>
<path fill="none" stroke="black" d="M1422.94,-382.4C1385.34,-388.58 1313.58,-399.64 1252.05,-405 1062.77,-421.48 1014.85,-421 824.85,-421 711.95,-421 711.95,-421 711.95,-421 620.75,-421 518.78,-461.6 469.05,-484.21"/>
<polygon fill="black" stroke="black" points="467.43,-481.11 459.82,-488.48 470.36,-487.46 467.43,-481.11"/>
</g>
<!-- sr6_local&#45;&gt;ip6_input -->
<g id="edge83" class="edge">
<title>sr6_local&#45;&gt;ip6_input</title>
<path fill="none" stroke="black" d="M1423.09,-373.38C1404.98,-367.42 1380.8,-357.78 1362.21,-349.16"/>
<polygon fill="black" stroke="black" points="1363.59,-345.94 1353.07,-344.76 1360.56,-352.25 1363.59,-345.94"/>
</g>
<!-- sr6_local&#45;&gt;ip6_input_local -->
<g id="edge84" class="edge">
<title>sr6_local&#45;&gt;ip6_input_local</title>
<path fill="none" stroke="black" d="M1477.89,-378C1487.95,-378 1499.75,-378 1511.4,-378"/>
<polygon fill="black" stroke="black" points="1511.54,-381.5 1521.54,-378 1511.54,-374.5 1511.54,-381.5"/>
</g>
<!-- ip6_loadbalance&#45;&gt;ip6_output -->
<g id="edge65" class="edge">
<title>ip6_loadbalance&#45;&gt;ip6_output</title>
<path fill="none" stroke="black" d="M2063.65,-300.07C2046.46,-299.72 2027.17,-298.67 2010.66,-297.15"/>
<polygon fill="black" stroke="black" points="2010.57,-293.62 2000.27,-296.08 2009.86,-300.58 2010.57,-293.62"/>
</g>
<!-- l4_loopback_output&#45;&gt;loopback_output -->
<g id="edge81" class="edge">
<title>l4_loopback_output&#45;&gt;loopback_output</title>
<path fill="none" stroke="black" d="M1883.36,-582C1891.96,-581.69 1900.85,-581.38 1909.5,-581.08"/>
<polygon fill="black" stroke="black" points="1909.64,-584.58 1919.52,-580.73 1909.4,-577.58 1909.64,-584.58"/>
</g>
</g>
</svg>
