<?xml version="1.0" encoding="UTF-8" standalone="no"?>
<!DOCTYPE svg PUBLIC "-//W3C//DTD SVG 1.1//EN"
 "http://www.w3.org/Graphics/SVG/1.1/DTD/svg11.dtd">
<!-- Generated by graphviz version 12.2.1 (20241206.2353)
 -->
<!-- Title: gr&#45;0002 Pages: 1 -->
<svg width="1822pt" height="948pt"
 viewBox="0.00 0.00 1821.68 948.00" xmlns="http://www.w3.org/2000/svg" xmlns:xlink="http://www.w3.org/1999/xlink">
<g id="graph0" class="graph" transform="scale(1 1) rotate(0) translate(4 944)">
<title>gr&#45;0002</title>
<polygon fill="white" stroke="none" points="-4,4 -4,-944 1817.68,-944 1817.68,4 -4,4"/>
<!-- control_input -->
<g id="node1" class="node">
<title>control_input</title>
<ellipse fill="none" stroke="blue" stroke-width="2" cx="41.62" cy="-231" rx="41.62" ry="18"/>
<text text-anchor="middle" x="41.62" y="-227.3" font-family="sans" font-size="11.00">control_input</text>
</g>
<!-- loopback_input -->
<g id="node2" class="node">
<title>loopback_input</title>
<ellipse fill="none" stroke="black" cx="166.76" cy="-296" rx="47.52" ry="18"/>
<text text-anchor="middle" x="166.76" y="-292.3" font-family="sans" font-size="11.00">loopback_input</text>
</g>
<!-- control_input&#45;&gt;loopback_input -->
<g id="edge1" class="edge">
<title>control_input&#45;&gt;loopback_input</title>
<path fill="none" stroke="blue" stroke-width="2" d="M69.04,-244.94C86.21,-254.01 108.87,-265.97 127.94,-276.04"/>
<polygon fill="blue" stroke="blue" stroke-width="2" points="124.96,-278.42 135.43,-279.99 128.22,-272.23 124.96,-278.42"/>
</g>
<!-- arp_output_request -->
<g id="node3" class="node">
<title>arp_output_request</title>
<ellipse fill="none" stroke="black" cx="569.56" cy="-110" rx="61.42" ry="18"/>
<text text-anchor="middle" x="569.56" y="-106.3" font-family="sans" font-size="11.00">arp_output_request</text>
</g>
<!-- control_input&#45;&gt;arp_output_request -->
<g id="edge2" class="edge">
<title>control_input&#45;&gt;arp_output_request</title>
<path fill="none" stroke="blue" stroke-width="2" d="M52.05,-213.26C64.37,-192.1 88.09,-157.65 119.25,-142 243.89,-79.38 412.98,-88.49 504.06,-99.77"/>
<polygon fill="blue" stroke="blue" stroke-width="2" points="501.94,-103.02 512.3,-100.83 502.84,-96.08 501.94,-103.02"/>
</g>
<!-- icmp_local_send -->
<g id="node4" class="node">
<title>icmp_local_send</title>
<ellipse fill="none" stroke="black" cx="569.56" cy="-296" rx="51.31" ry="18"/>
<text text-anchor="middle" x="569.56" y="-292.3" font-family="sans" font-size="11.00">icmp_local_send</text>
</g>
<!-- control_input&#45;&gt;icmp_local_send -->
<g id="edge3" class="edge">
<title>control_input&#45;&gt;icmp_local_send</title>
<path fill="none" stroke="blue" stroke-width="2" d="M82.15,-235.89C173.78,-247.21 401.06,-275.3 509.36,-288.68"/>
<polygon fill="blue" stroke="blue" stroke-width="2" points="507.35,-291.96 517.71,-289.71 508.21,-285.01 507.35,-291.96"/>
</g>
<!-- icmp6_local_send -->
<g id="node5" class="node">
<title>icmp6_local_send</title>
<ellipse fill="none" stroke="black" cx="722.08" cy="-692" rx="55.1" ry="18"/>
<text text-anchor="middle" x="722.08" y="-688.3" font-family="sans" font-size="11.00">icmp6_local_send</text>
</g>
<!-- control_input&#45;&gt;icmp6_local_send -->
<g id="edge4" class="edge">
<title>control_input&#45;&gt;icmp6_local_send</title>
<path fill="none" stroke="blue" stroke-width="2" d="M43.94,-249.32C51.08,-334.07 92.87,-684 295.54,-684 295.54,-684 295.54,-684 426.47,-684 505.42,-684 596.23,-686.91 655.92,-689.22"/>
<polygon fill="blue" stroke="blue" stroke-width="2" points="653.91,-692.64 664.04,-689.53 654.18,-685.64 653.91,-692.64"/>
</g>
<!-- ndp_ns_output -->
<g id="node6" class="node">
<title>ndp_ns_output</title>
<ellipse fill="none" stroke="black" cx="296.54" cy="-774" rx="46.26" ry="18"/>
<text text-anchor="middle" x="296.54" y="-770.3" font-family="sans" font-size="11.00">ndp_ns_output</text>
</g>
<!-- control_input&#45;&gt;ndp_ns_output -->
<g id="edge5" class="edge">
<title>control_input&#45;&gt;ndp_ns_output</title>
<path fill="none" stroke="blue" stroke-width="2" d="M42.67,-249.49C43.26,-332.24 49.94,-667.79 119.25,-740 149.83,-771.86 200.55,-778.87 239.76,-778.78"/>
<polygon fill="blue" stroke="blue" stroke-width="2" points="238.31,-782.31 248.24,-778.61 238.17,-775.31 238.31,-782.31"/>
</g>
<!-- ip_output -->
<g id="node7" class="node">
<title>ip_output</title>
<ellipse fill="none" stroke="black" cx="1232.33" cy="-367" rx="30.25" ry="18"/>
<text text-anchor="middle" x="1232.33" y="-363.3" font-family="sans" font-size="11.00">ip_output</text>
</g>
<!-- control_input&#45;&gt;ip_output -->
<g id="edge6" class="edge">
<title>control_input&#45;&gt;ip_output</title>
<path fill="none" stroke="blue" stroke-width="2" d="M81.98,-226.21C131.67,-220.58 219.8,-212 295.54,-212 295.54,-212 295.54,-212 723.08,-212 819.45,-212 1097.09,-315.26 1195.9,-353.22"/>
<polygon fill="blue" stroke="blue" stroke-width="2" points="1193.09,-355.88 1203.68,-356.22 1195.61,-349.35 1193.09,-355.88"/>
</g>
<!-- arp_output_reply -->
<g id="node8" class="node">
<title>arp_output_reply</title>
<ellipse fill="none" stroke="black" cx="722.08" cy="-64" rx="53.41" ry="18"/>
<text text-anchor="middle" x="722.08" y="-60.3" font-family="sans" font-size="11.00">arp_output_reply</text>
</g>
<!-- control_input&#45;&gt;arp_output_reply -->
<g id="edge7" class="edge">
<title>control_input&#45;&gt;arp_output_reply</title>
<path fill="none" stroke="blue" stroke-width="2" d="M48.56,-212.97C58.58,-185.47 81.54,-133.34 119.25,-106 184.45,-58.72 214.99,-64 295.54,-64 295.54,-64 295.54,-64 426.47,-64 505.83,-64 597.21,-64 656.89,-64"/>
<polygon fill="blue" stroke="blue" stroke-width="2" points="655.36,-67.5 665.36,-64 655.36,-60.5 655.36,-67.5"/>
</g>
<!-- ip6_output -->
<g id="node9" class="node">
<title>ip6_output</title>
<ellipse fill="none" stroke="black" cx="1493.56" cy="-348" rx="34.04" ry="18"/>
<text text-anchor="middle" x="1493.56" y="-344.3" font-family="sans" font-size="11.00">ip6_output</text>
</g>
<!-- control_input&#45;&gt;ip6_output -->
<g id="edge8" class="edge">
<title>control_input&#45;&gt;ip6_output</title>
<path fill="none" stroke="blue" stroke-width="2" d="M65.12,-215.83C108.68,-193.51 207.96,-156 295.54,-156 295.54,-156 295.54,-156 1233.33,-156 1323.25,-156 1345.02,-188.18 1415.52,-244 1442.23,-265.15 1465.72,-297.1 1479.53,-320.22"/>
<polygon fill="blue" stroke="blue" stroke-width="2" points="1475.7,-320.56 1483.68,-327.52 1481.79,-317.1 1475.7,-320.56"/>
</g>
<!-- control_input&#45;&gt;ip6_output -->
<g id="edge10" class="edge">
<title>control_input&#45;&gt;ip6_output</title>
<path fill="none" stroke="blue" stroke-width="2" d="M77.88,-221.77C126.08,-205.2 215.67,-174 295.54,-174 295.54,-174 295.54,-174 1233.33,-174 1323.25,-174 1345.02,-206.18 1415.52,-262 1437.49,-279.4 1457.29,-304.11 1471.31,-322.74"/>
<polygon fill="blue" stroke="blue" stroke-width="2" points="1467.51,-323.49 1476.29,-329.42 1473.12,-319.31 1467.51,-323.49"/>
</g>
<!-- ndp_na_output -->
<g id="node10" class="node">
<title>ndp_na_output</title>
<ellipse fill="none" stroke="black" cx="425.47" cy="-730" rx="46.68" ry="18"/>
<text text-anchor="middle" x="425.47" y="-726.3" font-family="sans" font-size="11.00">ndp_na_output</text>
</g>
<!-- control_input&#45;&gt;ndp_na_output -->
<g id="edge9" class="edge">
<title>control_input&#45;&gt;ndp_na_output</title>
<path fill="none" stroke="blue" stroke-width="2" d="M42.8,-249.41C43.94,-328.12 52.69,-635.2 119.25,-698 153.92,-730.72 289.26,-733.33 367.59,-731.94"/>
<polygon fill="blue" stroke="blue" stroke-width="2" points="365.76,-735.48 375.69,-731.77 365.62,-728.48 365.76,-735.48"/>
</g>
<!-- ip_input -->
<g id="node14" class="node">
<title>ip_input</title>
<ellipse fill="none" stroke="black" cx="569.56" cy="-429" rx="27" ry="18"/>
<text text-anchor="middle" x="569.56" y="-425.3" font-family="sans" font-size="11.00">ip_input</text>
</g>
<!-- loopback_input&#45;&gt;ip_input -->
<g id="edge16" class="edge">
<title>loopback_input&#45;&gt;ip_input</title>
<path fill="none" stroke="black" d="M203.33,-307.8C279.69,-333.14 458.47,-392.47 533.95,-417.52"/>
<polygon fill="black" stroke="black" points="532.71,-420.79 543.3,-420.62 534.91,-414.15 532.71,-420.79"/>
</g>
<!-- ip6_input -->
<g id="node15" class="node">
<title>ip6_input</title>
<ellipse fill="none" stroke="black" cx="296.54" cy="-448" rx="29.41" ry="18"/>
<text text-anchor="middle" x="296.54" y="-444.3" font-family="sans" font-size="11.00">ip6_input</text>
</g>
<!-- loopback_input&#45;&gt;ip6_input -->
<g id="edge17" class="edge">
<title>loopback_input&#45;&gt;ip6_input</title>
<path fill="none" stroke="black" d="M182.42,-313.44C205.21,-340.55 249.21,-392.89 275.11,-423.69"/>
<polygon fill="black" stroke="black" points="272.12,-425.58 281.23,-430.98 277.48,-421.08 272.12,-425.58"/>
</g>
<!-- eth_output -->
<g id="node16" class="node">
<title>eth_output</title>
<ellipse fill="none" stroke="black" cx="1628.39" cy="-118" rx="34.89" ry="18"/>
<text text-anchor="middle" x="1628.39" y="-114.3" font-family="sans" font-size="11.00">eth_output</text>
</g>
<!-- arp_output_request&#45;&gt;eth_output -->
<g id="edge26" class="edge">
<title>arp_output_request&#45;&gt;eth_output</title>
<path fill="none" stroke="black" d="M630.77,-112.68C688.34,-115 777.61,-118 855.06,-118 855.06,-118 855.06,-118 1373.21,-118 1446.29,-118 1531.18,-118 1582.03,-118"/>
<polygon fill="black" stroke="black" points="1581.75,-121.5 1591.75,-118 1581.75,-114.5 1581.75,-121.5"/>
</g>
<!-- icmp_output -->
<g id="node27" class="node">
<title>icmp_output</title>
<ellipse fill="none" stroke="black" cx="1096.24" cy="-432" rx="39.52" ry="18"/>
<text text-anchor="middle" x="1096.24" y="-428.3" font-family="sans" font-size="11.00">icmp_output</text>
</g>
<!-- icmp_local_send&#45;&gt;icmp_output -->
<g id="edge31" class="edge">
<title>icmp_local_send&#45;&gt;icmp_output</title>
<path fill="none" stroke="black" d="M620.41,-299.25C685.54,-304.44 802.63,-317.03 898.95,-345 957.52,-362.01 1021.4,-392.82 1059.88,-412.83"/>
<polygon fill="black" stroke="black" points="1058.22,-415.91 1068.7,-417.47 1061.48,-409.72 1058.22,-415.91"/>
</g>
<!-- icmp6_output -->
<g id="node34" class="node">
<title>icmp6_output</title>
<ellipse fill="none" stroke="black" cx="1372.21" cy="-664" rx="43.31" ry="18"/>
<text text-anchor="middle" x="1372.21" y="-660.3" font-family="sans" font-size="11.00">icmp6_output</text>
</g>
<!-- icmp6_local_send&#45;&gt;icmp6_output -->
<g id="edge53" class="edge">
<title>icmp6_local_send&#45;&gt;icmp6_output</title>
<path fill="none" stroke="black" d="M777.02,-694.69C828.38,-697.01 907.85,-700 976.84,-700 976.84,-700 976.84,-700 1097.24,-700 1176.51,-700 1267.6,-685 1322.22,-674.37"/>
<polygon fill="black" stroke="black" points="1322.69,-677.84 1331.82,-672.46 1321.33,-670.97 1322.69,-677.84"/>
</g>
<!-- ndp_ns_output&#45;&gt;icmp6_output -->
<g id="edge69" class="edge">
<title>ndp_ns_output&#45;&gt;icmp6_output</title>
<path fill="none" stroke="black" d="M343.09,-774.54C396.95,-775.13 489.28,-776 568.56,-776 568.56,-776 568.56,-776 1097.24,-776 1186.37,-776 1213.36,-772.22 1292.9,-732 1293.67,-731.61 1321.71,-707.21 1344.02,-687.75"/>
<polygon fill="black" stroke="black" points="1346.15,-690.53 1351.38,-681.32 1341.55,-685.26 1346.15,-690.53"/>
</g>
<!-- ip_output&#45;&gt;eth_output -->
<g id="edge42" class="edge">
<title>ip_output&#45;&gt;eth_output</title>
<path fill="none" stroke="black" d="M1253.96,-353.96C1318.68,-313.07 1517.98,-187.14 1595.8,-137.96"/>
<polygon fill="black" stroke="black" points="1597.66,-140.93 1604.24,-132.63 1593.92,-135.01 1597.66,-140.93"/>
</g>
<!-- loopback_output -->
<g id="node19" class="node">
<title>loopback_output</title>
<ellipse fill="none" stroke="black" cx="1628.39" cy="-442" rx="52.15" ry="18"/>
<text text-anchor="middle" x="1628.39" y="-438.3" font-family="sans" font-size="11.00">loopback_output</text>
</g>
<!-- ip_output&#45;&gt;loopback_output -->
<g id="edge44" class="edge">
<title>ip_output&#45;&gt;loopback_output</title>
<path fill="none" stroke="black" d="M1251.95,-380.87C1270.42,-393.79 1300.07,-412.32 1328.9,-421 1407.88,-444.76 1503.71,-447.13 1565.1,-445.5"/>
<polygon fill="black" stroke="black" points="1565.13,-449 1575.02,-445.18 1564.91,-442 1565.13,-449"/>
</g>
<!-- ip_hold -->
<g id="node28" class="node">
<title>ip_hold</title>
<ellipse fill="none" stroke="black" cx="1372.21" cy="-486" rx="27" ry="18"/>
<text text-anchor="middle" x="1372.21" y="-482.3" font-family="sans" font-size="11.00">ip_hold</text>
</g>
<!-- ip_output&#45;&gt;ip_hold -->
<g id="edge43" class="edge">
<title>ip_output&#45;&gt;ip_hold</title>
<path fill="none" stroke="black" d="M1249.17,-382.24C1267.81,-399.98 1299.9,-429.92 1328.9,-454 1333.77,-458.04 1339.08,-462.23 1344.24,-466.18"/>
<polygon fill="black" stroke="black" points="1341.93,-468.82 1352.02,-472.05 1346.15,-463.23 1341.93,-468.82"/>
</g>
<!-- ipip_output -->
<g id="node31" class="node">
<title>ipip_output</title>
<ellipse fill="none" stroke="black" cx="1372.21" cy="-340" rx="35.73" ry="18"/>
<text text-anchor="middle" x="1372.21" y="-336.3" font-family="sans" font-size="11.00">ipip_output</text>
</g>
<!-- ip_output&#45;&gt;ipip_output -->
<g id="edge45" class="edge">
<title>ip_output&#45;&gt;ipip_output</title>
<path fill="none" stroke="black" d="M1257.98,-356.86C1276.52,-351.81 1302.46,-346.36 1324.84,-342.66"/>
<polygon fill="black" stroke="black" points="1325.32,-346.13 1334.66,-341.13 1324.24,-339.21 1325.32,-346.13"/>
</g>
<!-- sr6_headend -->
<g id="node32" class="node">
<title>sr6_headend</title>
<ellipse fill="none" stroke="black" cx="1372.21" cy="-394" rx="40.78" ry="18"/>
<text text-anchor="middle" x="1372.21" y="-390.3" font-family="sans" font-size="11.00">sr6_headend</text>
</g>
<!-- ip_output&#45;&gt;sr6_headend -->
<g id="edge46" class="edge">
<title>ip_output&#45;&gt;sr6_headend</title>
<path fill="none" stroke="black" d="M1261.56,-372.53C1279.31,-376 1302.67,-380.58 1323.27,-384.61"/>
<polygon fill="black" stroke="black" points="1322.4,-388.01 1332.88,-386.49 1323.74,-381.14 1322.4,-388.01"/>
</g>
<!-- arp_output_reply&#45;&gt;eth_output -->
<g id="edge25" class="edge">
<title>arp_output_reply&#45;&gt;eth_output</title>
<path fill="none" stroke="black" d="M775.5,-64.73C904.88,-66.92 1249.64,-75.23 1535.61,-104 1551.45,-105.59 1568.74,-108.04 1584,-110.45"/>
<polygon fill="black" stroke="black" points="1583.28,-113.88 1593.72,-112.03 1584.4,-106.97 1583.28,-113.88"/>
</g>
<!-- ip6_output&#45;&gt;eth_output -->
<g id="edge62" class="edge">
<title>ip6_output&#45;&gt;eth_output</title>
<path fill="none" stroke="black" d="M1512.73,-332.85C1520.42,-325.83 1529.09,-317.04 1535.61,-308 1573.41,-255.51 1602.73,-185.04 1617.28,-146.36"/>
<polygon fill="black" stroke="black" points="1620.45,-147.9 1620.63,-137.31 1613.88,-145.47 1620.45,-147.9"/>
</g>
<!-- ip6_output&#45;&gt;loopback_output -->
<g id="edge64" class="edge">
<title>ip6_output&#45;&gt;loopback_output</title>
<path fill="none" stroke="black" d="M1515.03,-362.48C1536.45,-377.64 1570.38,-401.66 1595.36,-419.33"/>
<polygon fill="black" stroke="black" points="1593.03,-421.97 1603.21,-424.89 1597.07,-416.26 1593.03,-421.97"/>
</g>
<!-- ip6_output&#45;&gt;sr6_headend -->
<g id="edge65" class="edge">
<title>ip6_output&#45;&gt;sr6_headend</title>
<path fill="none" stroke="black" d="M1470.77,-361.76C1456.57,-368.45 1437.5,-376.22 1419.99,-382.58"/>
<polygon fill="black" stroke="black" points="1419.04,-379.2 1410.77,-385.83 1421.37,-385.8 1419.04,-379.2"/>
</g>
<!-- ip6_hold -->
<g id="node39" class="node">
<title>ip6_hold</title>
<ellipse fill="none" stroke="black" cx="1628.39" cy="-375" rx="27" ry="18"/>
<text text-anchor="middle" x="1628.39" y="-371.3" font-family="sans" font-size="11.00">ip6_hold</text>
</g>
<!-- ip6_output&#45;&gt;ip6_hold -->
<g id="edge63" class="edge">
<title>ip6_output&#45;&gt;ip6_hold</title>
<path fill="none" stroke="black" d="M1525.7,-354.33C1545.28,-358.31 1570.62,-363.46 1591.1,-367.62"/>
<polygon fill="black" stroke="black" points="1590.24,-371.02 1600.74,-369.58 1591.64,-364.16 1590.24,-371.02"/>
</g>
<!-- ndp_na_output&#45;&gt;icmp6_output -->
<g id="edge67" class="edge">
<title>ndp_na_output&#45;&gt;icmp6_output</title>
<path fill="none" stroke="black" d="M472.13,-732.01C530.04,-734.38 632.94,-738 721.08,-738 721.08,-738 721.08,-738 1097.24,-738 1185.66,-738 1208.88,-729.55 1292.9,-702 1307.41,-697.24 1322.65,-690.33 1335.8,-683.69"/>
<polygon fill="black" stroke="black" points="1337.24,-686.89 1344.5,-679.18 1334.01,-680.68 1337.24,-686.89"/>
</g>
<!-- control_output -->
<g id="node11" class="node">
<title>control_output</title>
<ellipse fill="none" stroke="black" cx="1767.43" cy="-707" rx="46.26" ry="18"/>
<text text-anchor="middle" x="1767.43" y="-703.3" font-family="sans" font-size="11.00">control_output</text>
</g>
<!-- eth_input -->
<g id="node12" class="node">
<title>eth_input</title>
<ellipse fill="none" stroke="black" cx="166.76" cy="-425" rx="30.25" ry="18"/>
<text text-anchor="middle" x="166.76" y="-421.3" font-family="sans" font-size="11.00">eth_input</text>
</g>
<!-- arp_input -->
<g id="node13" class="node">
<title>arp_input</title>
<ellipse fill="none" stroke="black" cx="1493.56" cy="-884" rx="30.25" ry="18"/>
<text text-anchor="middle" x="1493.56" y="-880.3" font-family="sans" font-size="11.00">arp_input</text>
</g>
<!-- eth_input&#45;&gt;arp_input -->
<g id="edge11" class="edge">
<title>eth_input&#45;&gt;arp_input</title>
<path fill="none" stroke="black" d="M176.86,-442.34C205.57,-494.44 299.8,-646 424.47,-646 424.47,-646 424.47,-646 570.56,-646 662.78,-646 688.16,-640.94 777.18,-665 963.97,-715.5 985.4,-796.92 1171.76,-849 1269.84,-876.41 1390.39,-882.54 1452.04,-883.79"/>
<polygon fill="black" stroke="black" points="1451.63,-887.29 1461.69,-883.95 1451.75,-880.29 1451.63,-887.29"/>
</g>
<!-- eth_input&#45;&gt;ip_input -->
<g id="edge12" class="edge">
<title>eth_input&#45;&gt;ip_input</title>
<path fill="none" stroke="black" d="M197.16,-423.23C212.91,-422.37 232.65,-421.43 250.28,-421 348.86,-418.61 373.63,-416.92 472.15,-421 491.6,-421.81 513.21,-423.52 531.03,-425.16"/>
<polygon fill="black" stroke="black" points="530.62,-428.64 540.9,-426.1 531.28,-421.67 530.62,-428.64"/>
</g>
<!-- eth_input&#45;&gt;ip6_input -->
<g id="edge13" class="edge">
<title>eth_input&#45;&gt;ip6_input</title>
<path fill="none" stroke="black" d="M196.12,-430.1C213.98,-433.32 237.28,-437.51 256.83,-441.03"/>
<polygon fill="black" stroke="black" points="256.19,-444.47 266.65,-442.8 257.43,-437.58 256.19,-444.47"/>
</g>
<!-- arp_input_request -->
<g id="node21" class="node">
<title>arp_input_request</title>
<ellipse fill="none" stroke="black" cx="1628.39" cy="-922" rx="56.78" ry="18"/>
<text text-anchor="middle" x="1628.39" y="-918.3" font-family="sans" font-size="11.00">arp_input_request</text>
</g>
<!-- arp_input&#45;&gt;arp_input_request -->
<g id="edge21" class="edge">
<title>arp_input&#45;&gt;arp_input_request</title>
<path fill="none" stroke="black" d="M1521.44,-891.69C1536.57,-896.02 1556,-901.58 1574.09,-906.75"/>
<polygon fill="black" stroke="black" points="1573.09,-910.11 1583.66,-909.49 1575.01,-903.38 1573.09,-910.11"/>
</g>
<!-- arp_input_reply -->
<g id="node22" class="node">
<title>arp_input_reply</title>
<ellipse fill="none" stroke="black" cx="1628.39" cy="-868" rx="48.78" ry="18"/>
<text text-anchor="middle" x="1628.39" y="-864.3" font-family="sans" font-size="11.00">arp_input_reply</text>
</g>
<!-- arp_input&#45;&gt;arp_input_reply -->
<g id="edge22" class="edge">
<title>arp_input&#45;&gt;arp_input_reply</title>
<path fill="none" stroke="black" d="M1523.71,-880.49C1537.49,-878.83 1554.42,-876.79 1570.58,-874.84"/>
<polygon fill="black" stroke="black" points="1570.59,-878.37 1580.1,-873.7 1569.75,-871.42 1570.59,-878.37"/>
</g>
<!-- ip_input&#45;&gt;ip_output -->
<g id="edge36" class="edge">
<title>ip_input&#45;&gt;ip_output</title>
<path fill="none" stroke="black" d="M596.53,-426.67C652.05,-421.68 786.38,-409.56 898.95,-399 1004.14,-389.13 1128.02,-377.1 1190.66,-370.98"/>
<polygon fill="black" stroke="black" points="1190.87,-374.48 1200.48,-370.02 1190.19,-367.51 1190.87,-374.48"/>
</g>
<!-- dnat44 -->
<g id="node23" class="node">
<title>dnat44</title>
<ellipse fill="none" stroke="black" cx="722.08" cy="-448" rx="27" ry="18"/>
<text text-anchor="middle" x="722.08" y="-444.3" font-family="sans" font-size="11.00">dnat44</text>
</g>
<!-- ip_input&#45;&gt;dnat44 -->
<g id="edge38" class="edge">
<title>ip_input&#45;&gt;dnat44</title>
<path fill="none" stroke="black" d="M596.44,-432.27C620.45,-435.3 656.48,-439.85 683.63,-443.27"/>
<polygon fill="black" stroke="black" points="683.18,-446.74 693.54,-444.52 684.05,-439.8 683.18,-446.74"/>
</g>
<!-- ip_forward -->
<g id="node24" class="node">
<title>ip_forward</title>
<ellipse fill="none" stroke="black" cx="856.06" cy="-372" rx="33.62" ry="18"/>
<text text-anchor="middle" x="856.06" y="-368.3" font-family="sans" font-size="11.00">ip_forward</text>
</g>
<!-- ip_input&#45;&gt;ip_forward -->
<g id="edge35" class="edge">
<title>ip_input&#45;&gt;ip_forward</title>
<path fill="none" stroke="black" d="M591.34,-417.88C610.42,-408.22 639.79,-394.75 666.98,-388 715.26,-376.01 772.41,-372.61 810.94,-371.83"/>
<polygon fill="black" stroke="black" points="810.81,-375.34 820.76,-371.69 810.71,-368.34 810.81,-375.34"/>
</g>
<!-- ip_input_local -->
<g id="node25" class="node">
<title>ip_input_local</title>
<ellipse fill="none" stroke="black" cx="856.06" cy="-524" rx="42.89" ry="18"/>
<text text-anchor="middle" x="856.06" y="-520.3" font-family="sans" font-size="11.00">ip_input_local</text>
</g>
<!-- ip_input&#45;&gt;ip_input_local -->
<g id="edge37" class="edge">
<title>ip_input&#45;&gt;ip_input_local</title>
<path fill="none" stroke="black" d="M583.75,-444.41C600.82,-463.15 632.49,-494 666.98,-508 710.23,-525.56 763.58,-528.53 802.4,-527.71"/>
<polygon fill="black" stroke="black" points="802.05,-531.23 811.93,-527.42 801.83,-524.23 802.05,-531.23"/>
</g>
<!-- ip6_input&#45;&gt;ip6_output -->
<g id="edge57" class="edge">
<title>ip6_input&#45;&gt;ip6_output</title>
<path fill="none" stroke="black" d="M310.13,-431.73C339.85,-394.77 418.62,-304.9 508.15,-269 767.38,-165.05 857.59,-211.85 1135.76,-237 1261.63,-248.38 1300.17,-236.35 1415.52,-288 1435.25,-296.84 1454.44,-311.76 1468.74,-324.51"/>
<polygon fill="black" stroke="black" points="1466.13,-326.87 1475.85,-331.07 1470.87,-321.72 1466.13,-326.87"/>
</g>
<!-- ip6_forward -->
<g id="node38" class="node">
<title>ip6_forward</title>
<ellipse fill="none" stroke="black" cx="1096.24" cy="-264" rx="37.41" ry="18"/>
<text text-anchor="middle" x="1096.24" y="-260.3" font-family="sans" font-size="11.00">ip6_forward</text>
</g>
<!-- ip6_input&#45;&gt;ip6_forward -->
<g id="edge56" class="edge">
<title>ip6_input&#45;&gt;ip6_forward</title>
<path fill="none" stroke="black" d="M322.58,-438.92C338.54,-433.32 359.73,-426.24 378.79,-421 629.26,-352.15 935.48,-293.34 1049.56,-272.28"/>
<polygon fill="black" stroke="black" points="1049.93,-275.77 1059.14,-270.52 1048.67,-268.89 1049.93,-275.77"/>
</g>
<!-- ip6_input_local -->
<g id="node40" class="node">
<title>ip6_input_local</title>
<ellipse fill="none" stroke="black" cx="569.56" cy="-551" rx="46.68" ry="18"/>
<text text-anchor="middle" x="569.56" y="-547.3" font-family="sans" font-size="11.00">ip6_input_local</text>
</g>
<!-- ip6_input&#45;&gt;ip6_input_local -->
<g id="edge58" class="edge">
<title>ip6_input&#45;&gt;ip6_input_local</title>
<path fill="none" stroke="black" d="M322.07,-457.32C367.97,-474.77 467.41,-512.56 524.97,-534.43"/>
<polygon fill="black" stroke="black" points="523.55,-537.64 534.14,-537.92 526.04,-531.09 523.55,-537.64"/>
</g>
<!-- sr6_local -->
<g id="node41" class="node">
<title>sr6_local</title>
<ellipse fill="none" stroke="black" cx="425.47" cy="-448" rx="28.57" ry="18"/>
<text text-anchor="middle" x="425.47" y="-444.3" font-family="sans" font-size="11.00">sr6_local</text>
</g>
<!-- ip6_input&#45;&gt;sr6_local -->
<g id="edge59" class="edge">
<title>ip6_input&#45;&gt;sr6_local</title>
<path fill="none" stroke="black" d="M324.77,-442.34C342.83,-441.11 366.78,-440.92 386.68,-441.77"/>
<polygon fill="black" stroke="black" points="386.46,-445.26 396.64,-442.32 386.85,-438.27 386.46,-445.26"/>
</g>
<!-- port_tx -->
<g id="node17" class="node">
<title>port_tx</title>
<ellipse fill="none" stroke="black" cx="1767.43" cy="-80" rx="27" ry="18"/>
<text text-anchor="middle" x="1767.43" y="-76.3" font-family="sans" font-size="11.00">port_tx</text>
</g>
<!-- eth_output&#45;&gt;port_tx -->
<g id="edge14" class="edge">
<title>eth_output&#45;&gt;port_tx</title>
<path fill="none" stroke="black" d="M1659.8,-109.57C1680.89,-103.72 1709.03,-95.92 1731.11,-89.79"/>
<polygon fill="black" stroke="black" points="1731.87,-93.21 1740.57,-87.17 1730,-86.47 1731.87,-93.21"/>
</g>
<!-- l1_xconnect -->
<g id="node18" class="node">
<title>l1_xconnect</title>
<ellipse fill="none" stroke="black" cx="296.54" cy="-18" rx="38.25" ry="18"/>
<text text-anchor="middle" x="296.54" y="-14.3" font-family="sans" font-size="11.00">l1_xconnect</text>
</g>
<!-- l1_xconnect&#45;&gt;port_tx -->
<g id="edge15" class="edge">
<title>l1_xconnect&#45;&gt;port_tx</title>
<path fill="none" stroke="black" d="M335.25,-18C387.6,-18 485.28,-18 568.56,-18 568.56,-18 568.56,-18 857.06,-18 1196.27,-18 1605.02,-61.47 1729,-75.61"/>
<polygon fill="black" stroke="black" points="1728.59,-79.09 1738.93,-76.75 1729.39,-72.13 1728.59,-79.09"/>
</g>
<!-- loopback_output&#45;&gt;control_output -->
<g id="edge18" class="edge">
<title>loopback_output&#45;&gt;control_output</title>
<path fill="none" stroke="black" d="M1661.23,-456.34C1669.95,-461.51 1678.75,-468.07 1685.17,-476 1734.65,-537.08 1755.05,-630.44 1762.56,-677.58"/>
<polygon fill="black" stroke="black" points="1759.07,-677.92 1764.01,-687.29 1765.99,-676.88 1759.07,-677.92"/>
</g>
<!-- port_rx -->
<g id="node20" class="node">
<title>port_rx</title>
<ellipse fill="none" stroke="blue" stroke-width="2" cx="41.62" cy="-109" rx="27" ry="18"/>
<text text-anchor="middle" x="41.62" y="-105.3" font-family="sans" font-size="11.00">port_rx</text>
</g>
<!-- port_rx&#45;&gt;eth_input -->
<g id="edge19" class="edge">
<title>port_rx&#45;&gt;eth_input</title>
<path fill="none" stroke="blue" stroke-width="2" d="M50.69,-126.28C59.35,-145.14 73.19,-176.35 83.25,-204 102.14,-255.93 99.74,-271.3 119.25,-323 128.97,-348.78 142.17,-377.24 152.02,-397.53"/>
<polygon fill="blue" stroke="blue" stroke-width="2" points="148.09,-397.46 155.63,-404.9 154.37,-394.38 148.09,-397.46"/>
</g>
<!-- port_rx&#45;&gt;l1_xconnect -->
<g id="edge20" class="edge">
<title>port_rx&#45;&gt;l1_xconnect</title>
<path fill="none" stroke="blue" stroke-width="2" d="M57.33,-94.15C71.79,-80.46 95.16,-60.7 119.25,-50 160.04,-31.89 210.48,-24.03 246.94,-20.62"/>
<polygon fill="blue" stroke="blue" stroke-width="2" points="245.57,-24.24 255.24,-19.91 244.98,-17.27 245.57,-24.24"/>
</g>
<!-- arp_input_request&#45;&gt;control_output -->
<g id="edge24" class="edge">
<title>arp_input_request&#45;&gt;control_output</title>
<path fill="none" stroke="black" d="M1666.98,-908.41C1673.62,-904.79 1680.04,-900.36 1685.17,-895 1728.74,-849.53 1750.91,-777 1760.45,-736.61"/>
<polygon fill="black" stroke="black" points="1763.85,-737.41 1762.63,-726.88 1757.02,-735.88 1763.85,-737.41"/>
</g>
<!-- arp_input_reply&#45;&gt;control_output -->
<g id="edge23" class="edge">
<title>arp_input_reply&#45;&gt;control_output</title>
<path fill="none" stroke="black" d="M1659.9,-854.02C1668.67,-849.11 1677.84,-843.03 1685.17,-836 1715.86,-806.56 1740.03,-763.26 1753.78,-735.09"/>
<polygon fill="black" stroke="black" points="1756.92,-736.65 1758.05,-726.11 1750.6,-733.64 1756.92,-736.65"/>
</g>
<!-- dnat44&#45;&gt;ip_forward -->
<g id="edge27" class="edge">
<title>dnat44&#45;&gt;ip_forward</title>
<path fill="none" stroke="black" d="M743.12,-436.46C764.17,-424.34 797.58,-405.1 822.43,-390.79"/>
<polygon fill="black" stroke="black" points="823.93,-393.97 830.85,-385.94 820.44,-387.9 823.93,-393.97"/>
</g>
<!-- dnat44&#45;&gt;ip_input_local -->
<g id="edge28" class="edge">
<title>dnat44&#45;&gt;ip_input_local</title>
<path fill="none" stroke="black" d="M743.12,-459.54C763.53,-471.29 795.58,-489.75 820.16,-503.9"/>
<polygon fill="black" stroke="black" points="818.13,-506.77 828.54,-508.73 821.62,-500.7 818.13,-506.77"/>
</g>
<!-- ip_forward&#45;&gt;ip_output -->
<g id="edge33" class="edge">
<title>ip_forward&#45;&gt;ip_output</title>
<path fill="none" stroke="black" d="M889.95,-371.56C958.35,-370.65 1115.8,-368.54 1190.53,-367.55"/>
<polygon fill="black" stroke="black" points="1190.32,-371.05 1200.27,-367.41 1190.23,-364.05 1190.32,-371.05"/>
</g>
<!-- icmp_input -->
<g id="node26" class="node">
<title>icmp_input</title>
<ellipse fill="none" stroke="black" cx="977.84" cy="-524" rx="34.89" ry="18"/>
<text text-anchor="middle" x="977.84" y="-520.3" font-family="sans" font-size="11.00">icmp_input</text>
</g>
<!-- ip_input_local&#45;&gt;icmp_input -->
<g id="edge39" class="edge">
<title>ip_input_local&#45;&gt;icmp_input</title>
<path fill="none" stroke="black" d="M899.29,-524C909.57,-524 920.6,-524 931.04,-524"/>
<polygon fill="black" stroke="black" points="930.97,-527.5 940.97,-524 930.97,-520.5 930.97,-527.5"/>
</g>
<!-- ipip_input -->
<g id="node29" class="node">
<title>ipip_input</title>
<ellipse fill="none" stroke="black" cx="977.84" cy="-470" rx="31.1" ry="18"/>
<text text-anchor="middle" x="977.84" y="-466.3" font-family="sans" font-size="11.00">ipip_input</text>
</g>
<!-- ip_input_local&#45;&gt;ipip_input -->
<g id="edge40" class="edge">
<title>ip_input_local&#45;&gt;ipip_input</title>
<path fill="none" stroke="black" d="M886.36,-510.79C903.22,-503.19 924.51,-493.59 942.19,-485.62"/>
<polygon fill="black" stroke="black" points="943.61,-488.82 951.29,-481.52 940.74,-482.44 943.61,-488.82"/>
</g>
<!-- l4_input_local -->
<g id="node30" class="node">
<title>l4_input_local</title>
<ellipse fill="none" stroke="black" cx="977.84" cy="-578" rx="42.89" ry="18"/>
<text text-anchor="middle" x="977.84" y="-574.3" font-family="sans" font-size="11.00">l4_input_local</text>
</g>
<!-- ip_input_local&#45;&gt;l4_input_local -->
<g id="edge41" class="edge">
<title>ip_input_local&#45;&gt;l4_input_local</title>
<path fill="none" stroke="black" d="M886.36,-537.21C901.85,-544.19 921.06,-552.85 937.8,-560.4"/>
<polygon fill="black" stroke="black" points="935.9,-563.38 946.46,-564.3 938.78,-557 935.9,-563.38"/>
</g>
<!-- icmp_input&#45;&gt;control_output -->
<g id="edge30" class="edge">
<title>icmp_input&#45;&gt;control_output</title>
<path fill="none" stroke="black" d="M1012.72,-525.76C1061.17,-528.11 1153.04,-532 1231.33,-532 1231.33,-532 1231.33,-532 1494.56,-532 1603.19,-532 1702.95,-632.01 1745.17,-680.82"/>
<polygon fill="black" stroke="black" points="1742.48,-683.07 1751.62,-688.43 1747.82,-678.54 1742.48,-683.07"/>
</g>
<!-- icmp_input&#45;&gt;icmp_output -->
<g id="edge29" class="edge">
<title>icmp_input&#45;&gt;icmp_output</title>
<path fill="none" stroke="black" d="M1001.42,-510.29C1007.79,-506.2 1014.64,-501.58 1020.72,-497 1037.76,-484.18 1055.81,-468.5 1069.88,-455.75"/>
<polygon fill="black" stroke="black" points="1071.95,-458.6 1076.96,-449.26 1067.22,-453.44 1071.95,-458.6"/>
</g>
<!-- icmp_output&#45;&gt;ip_output -->
<g id="edge32" class="edge">
<title>icmp_output&#45;&gt;ip_output</title>
<path fill="none" stroke="black" d="M1124.37,-418.85C1145.65,-408.53 1175.35,-394.14 1198.05,-383.13"/>
<polygon fill="black" stroke="black" points="1199.42,-386.36 1206.89,-378.85 1196.37,-380.06 1199.42,-386.36"/>
</g>
<!-- ip_hold&#45;&gt;control_output -->
<g id="edge34" class="edge">
<title>ip_hold&#45;&gt;control_output</title>
<path fill="none" stroke="black" d="M1398.44,-480.75C1455.67,-470.35 1597.19,-453.38 1685.17,-518 1737.16,-556.18 1756.24,-634.55 1762.96,-677.41"/>
<polygon fill="black" stroke="black" points="1759.49,-677.84 1764.37,-687.24 1766.42,-676.85 1759.49,-677.84"/>
</g>
<!-- ipip_input&#45;&gt;ip_input -->
<g id="edge71" class="edge">
<title>ipip_input&#45;&gt;ip_input</title>
<path fill="none" stroke="black" d="M947.74,-474.99C892.29,-483.51 767.99,-497.86 666.98,-475 642.98,-469.57 617.95,-457.41 599.41,-446.95"/>
<polygon fill="black" stroke="black" points="601.28,-443.99 590.88,-441.98 597.75,-450.04 601.28,-443.99"/>
</g>
<!-- l4_loopback_output -->
<g id="node42" class="node">
<title>l4_loopback_output</title>
<ellipse fill="none" stroke="black" cx="1232.33" cy="-578" rx="60.57" ry="18"/>
<text text-anchor="middle" x="1232.33" y="-574.3" font-family="sans" font-size="11.00">l4_loopback_output</text>
</g>
<!-- l4_input_local&#45;&gt;l4_loopback_output -->
<g id="edge73" class="edge">
<title>l4_input_local&#45;&gt;l4_loopback_output</title>
<path fill="none" stroke="black" d="M1021.1,-578C1058.94,-578 1115.2,-578 1160,-578"/>
<polygon fill="black" stroke="black" points="1159.91,-581.5 1169.91,-578 1159.91,-574.5 1159.91,-581.5"/>
</g>
<!-- ipip_output&#45;&gt;ip_output -->
<g id="edge72" class="edge">
<title>ipip_output&#45;&gt;ip_output</title>
<path fill="none" stroke="black" d="M1343.56,-350.95C1323.66,-356.19 1296.5,-361.74 1274.11,-365.24"/>
<polygon fill="black" stroke="black" points="1273.8,-361.74 1264.41,-366.65 1274.81,-368.67 1273.8,-361.74"/>
</g>
<!-- sr6_headend&#45;&gt;ip6_output -->
<g id="edge78" class="edge">
<title>sr6_headend&#45;&gt;ip6_output</title>
<path fill="none" stroke="black" d="M1397.08,-379.28C1412.29,-372.22 1432.42,-364.14 1450.28,-357.81"/>
<polygon fill="black" stroke="black" points="1451.29,-361.16 1459.61,-354.61 1449.02,-354.54 1451.29,-361.16"/>
</g>
<!-- icmp6_input -->
<g id="node33" class="node">
<title>icmp6_input</title>
<ellipse fill="none" stroke="black" cx="1232.33" cy="-822" rx="38.68" ry="18"/>
<text text-anchor="middle" x="1232.33" y="-818.3" font-family="sans" font-size="11.00">icmp6_input</text>
</g>
<!-- icmp6_input&#45;&gt;control_output -->
<g id="edge51" class="edge">
<title>icmp6_input&#45;&gt;control_output</title>
<path fill="none" stroke="black" d="M1270.12,-817.22C1347.74,-806.66 1533.61,-778.91 1685.17,-737 1698.06,-733.43 1711.81,-728.73 1724.25,-724.1"/>
<polygon fill="black" stroke="black" points="1725.29,-727.45 1733.39,-720.62 1722.8,-720.91 1725.29,-727.45"/>
</g>
<!-- icmp6_input&#45;&gt;icmp6_output -->
<g id="edge47" class="edge">
<title>icmp6_input&#45;&gt;icmp6_output</title>
<path fill="none" stroke="black" d="M1263.48,-810.95C1273.93,-805.89 1284.99,-798.99 1292.9,-790 1322.46,-756.42 1302.03,-731.76 1328.9,-696 1331.57,-692.46 1334.72,-689.12 1338.09,-686.02"/>
<polygon fill="black" stroke="black" points="1340.1,-688.91 1345.59,-679.85 1335.64,-683.51 1340.1,-688.91"/>
</g>
<!-- ndp_ns_input -->
<g id="node35" class="node">
<title>ndp_ns_input</title>
<ellipse fill="none" stroke="black" cx="1493.56" cy="-738" rx="41.62" ry="18"/>
<text text-anchor="middle" x="1493.56" y="-734.3" font-family="sans" font-size="11.00">ndp_ns_input</text>
</g>
<!-- icmp6_input&#45;&gt;ndp_ns_input -->
<g id="edge48" class="edge">
<title>icmp6_input&#45;&gt;ndp_ns_input</title>
<path fill="none" stroke="black" d="M1258.22,-808.52C1284.03,-794.62 1321.63,-774.6 1328.9,-772 1365.81,-758.8 1409.33,-750.07 1442.22,-744.76"/>
<polygon fill="black" stroke="black" points="1442.54,-748.25 1451.88,-743.25 1441.46,-741.33 1442.54,-748.25"/>
</g>
<!-- ndp_na_input -->
<g id="node36" class="node">
<title>ndp_na_input</title>
<ellipse fill="none" stroke="black" cx="1493.56" cy="-684" rx="42.04" ry="18"/>
<text text-anchor="middle" x="1493.56" y="-680.3" font-family="sans" font-size="11.00">ndp_na_input</text>
</g>
<!-- icmp6_input&#45;&gt;ndp_na_input -->
<g id="edge49" class="edge">
<title>icmp6_input&#45;&gt;ndp_na_input</title>
<path fill="none" stroke="black" d="M1261.43,-809.76C1271.88,-804.5 1283.48,-797.76 1292.9,-790 1312.41,-773.94 1308.39,-760.75 1328.9,-746 1363.85,-720.86 1410.23,-704.56 1444.7,-695.01"/>
<polygon fill="black" stroke="black" points="1445.22,-698.5 1453.98,-692.54 1443.41,-691.73 1445.22,-698.5"/>
</g>
<!-- ndp_rs_input -->
<g id="node37" class="node">
<title>ndp_rs_input</title>
<ellipse fill="none" stroke="black" cx="1493.56" cy="-830" rx="40.36" ry="18"/>
<text text-anchor="middle" x="1493.56" y="-826.3" font-family="sans" font-size="11.00">ndp_rs_input</text>
</g>
<!-- icmp6_input&#45;&gt;ndp_rs_input -->
<g id="edge50" class="edge">
<title>icmp6_input&#45;&gt;ndp_rs_input</title>
<path fill="none" stroke="black" d="M1271.3,-823.17C1316.44,-824.56 1391.95,-826.9 1442.01,-828.44"/>
<polygon fill="black" stroke="black" points="1441.6,-831.93 1451.7,-828.74 1441.81,-824.93 1441.6,-831.93"/>
</g>
<!-- icmp6_output&#45;&gt;ip6_output -->
<g id="edge52" class="edge">
<title>icmp6_output&#45;&gt;ip6_output</title>
<path fill="none" stroke="black" d="M1379.97,-646.11C1399.79,-593.64 1457.86,-439.88 1481.93,-376.16"/>
<polygon fill="black" stroke="black" points="1485.08,-377.71 1485.34,-367.11 1478.54,-375.23 1485.08,-377.71"/>
</g>
<!-- ndp_ns_input&#45;&gt;control_output -->
<g id="edge68" class="edge">
<title>ndp_ns_input&#45;&gt;control_output</title>
<path fill="none" stroke="black" d="M1534.39,-733.46C1581.1,-728.13 1658.83,-719.27 1711.32,-713.28"/>
<polygon fill="black" stroke="black" points="1711.4,-716.8 1720.94,-712.19 1710.6,-709.84 1711.4,-716.8"/>
</g>
<!-- ndp_na_input&#45;&gt;control_output -->
<g id="edge66" class="edge">
<title>ndp_na_input&#45;&gt;control_output</title>
<path fill="none" stroke="black" d="M1535.26,-687.44C1581.81,-691.38 1658.3,-697.85 1710.44,-702.26"/>
<polygon fill="black" stroke="black" points="1710.06,-705.74 1720.32,-703.1 1710.65,-698.77 1710.06,-705.74"/>
</g>
<!-- ndp_rs_input&#45;&gt;control_output -->
<g id="edge70" class="edge">
<title>ndp_rs_input&#45;&gt;control_output</title>
<path fill="none" stroke="black" d="M1534.29,-830.83C1574.67,-830.02 1637.87,-824.1 1685.17,-798 1712.55,-782.9 1735.37,-754.95 1749.79,-734"/>
<polygon fill="black" stroke="black" points="1752.54,-736.18 1755.16,-725.91 1746.71,-732.31 1752.54,-736.18"/>
</g>
<!-- ip6_forward&#45;&gt;ip6_output -->
<g id="edge54" class="edge">
<title>ip6_forward&#45;&gt;ip6_output</title>
<path fill="none" stroke="black" d="M1133.75,-266.36C1193.66,-270.96 1316.13,-283.39 1415.52,-313 1430.18,-317.37 1445.67,-323.98 1458.88,-330.28"/>
<polygon fill="black" stroke="black" points="1457.05,-333.28 1467.57,-334.55 1460.14,-327 1457.05,-333.28"/>
</g>
<!-- ip6_hold&#45;&gt;control_output -->
<g id="edge55" class="edge">
<title>ip6_hold&#45;&gt;control_output</title>
<path fill="none" stroke="black" d="M1650.73,-385.62C1662.49,-392.5 1676.43,-402.5 1685.17,-415 1743.31,-498.17 1759.97,-621.74 1764.65,-677.64"/>
<polygon fill="black" stroke="black" points="1761.13,-677.6 1765.38,-687.3 1768.11,-677.07 1761.13,-677.6"/>
</g>
<!-- ip6_input_local&#45;&gt;l4_input_local -->
<g id="edge61" class="edge">
<title>ip6_input_local&#45;&gt;l4_input_local</title>
<path fill="none" stroke="black" d="M615.98,-554.02C691.67,-559.05 843.21,-569.12 923.72,-574.47"/>
<polygon fill="black" stroke="black" points="923.34,-577.95 933.55,-575.12 923.8,-570.97 923.34,-577.95"/>
</g>
<!-- ip6_input_local&#45;&gt;icmp6_input -->
<g id="edge60" class="edge">
<title>ip6_input_local&#45;&gt;icmp6_input</title>
<path fill="none" stroke="black" d="M608.95,-560.93C626.59,-565.4 647.8,-570.64 666.98,-575 823.51,-610.62 875.96,-578.61 1020.72,-648 1099.25,-685.64 1173.47,-758.8 1209.17,-797.16"/>
<polygon fill="black" stroke="black" points="1206.23,-799.13 1215.57,-804.12 1211.38,-794.39 1206.23,-799.13"/>
</g>
<!-- sr6_local&#45;&gt;ip_input -->
<g id="edge75" class="edge">
<title>sr6_local&#45;&gt;ip_input</title>
<path fill="none" stroke="black" d="M453.87,-444.34C475.91,-441.39 507.09,-437.22 531.39,-433.97"/>
<polygon fill="black" stroke="black" points="531.74,-437.46 541.19,-432.66 530.81,-430.52 531.74,-437.46"/>
</g>
<!-- sr6_local&#45;&gt;ip6_input -->
<g id="edge76" class="edge">
<title>sr6_local&#45;&gt;ip6_input</title>
<path fill="none" stroke="black" d="M398.15,-453.59C380.21,-454.86 356.16,-455.09 336.06,-454.26"/>
<polygon fill="black" stroke="black" points="336.45,-450.78 326.28,-453.74 336.08,-457.77 336.45,-450.78"/>
</g>
<!-- sr6_local&#45;&gt;ip6_input_local -->
<g id="edge77" class="edge">
<title>sr6_local&#45;&gt;ip6_input_local</title>
<path fill="none" stroke="black" d="M445.05,-461.47C468.57,-478.51 509.42,-508.13 537.67,-528.6"/>
<polygon fill="black" stroke="black" points="535.34,-531.24 545.5,-534.28 539.45,-525.58 535.34,-531.24"/>
</g>
<!-- l4_loopback_output&#45;&gt;loopback_output -->
<g id="edge74" class="edge">
<title>l4_loopback_output&#45;&gt;loopback_output</title>
<path fill="none" stroke="black" d="M1272.92,-564.34C1345.9,-539.15 1501.34,-485.5 1579.87,-458.4"/>
<polygon fill="black" stroke="black" points="1580.68,-461.82 1589,-455.25 1578.4,-455.2 1580.68,-461.82"/>
</g>
</g>
</svg>
