<?xml version="1.0" encoding="UTF-8" standalone="no"?>
<!DOCTYPE svg PUBLIC "-//W3C//DTD SVG 1.1//EN"
 "http://www.w3.org/Graphics/SVG/1.1/DTD/svg11.dtd">
<!-- Generated by graphviz version 2.44.0 (0)
 -->
<!-- Title: gr&#45;0005 Pages: 1 -->
<svg width="1175pt" height="836pt"
 viewBox="0.00 0.00 1175.21 836.00" xmlns="http://www.w3.org/2000/svg" xmlns:xlink="http://www.w3.org/1999/xlink">
<g id="graph0" class="graph" transform="scale(1 1) rotate(0) translate(4 832)">
<title>gr&#45;0005</title>
<polygon fill="white" stroke="transparent" points="-4,4 -4,-832 1171.21,-832 1171.21,4 -4,4"/>
<!-- control_input -->
<g id="node1" class="node">
<title>control_input</title>
<ellipse fill="none" stroke="blue" stroke-width="2" cx="40.16" cy="-597" rx="40.32" ry="18"/>
<text text-anchor="middle" x="40.16" y="-594.2" font-family="sans" font-size="11.00">control_input</text>
</g>
<!-- loopback_input -->
<g id="node2" class="node">
<title>loopback_input</title>
<ellipse fill="none" stroke="black" cx="161.91" cy="-542" rx="45.68" ry="18"/>
<text text-anchor="middle" x="161.91" y="-539.2" font-family="sans" font-size="11.00">loopback_input</text>
</g>
<!-- control_input&#45;&gt;loopback_input -->
<g id="edge1" class="edge">
<title>control_input&#45;&gt;loopback_input</title>
<path fill="none" stroke="blue" stroke-width="2" d="M68.94,-584.24C84.79,-576.96 104.91,-567.72 122.29,-559.74"/>
<polygon fill="blue" stroke="blue" stroke-width="2" points="123.99,-562.81 131.62,-555.45 121.07,-556.45 123.99,-562.81"/>
</g>
<!-- arp_output_request -->
<g id="node3" class="node">
<title>arp_output_request</title>
<ellipse fill="none" stroke="black" cx="302.66" cy="-810" rx="59.31" ry="18"/>
<text text-anchor="middle" x="302.66" y="-807.2" font-family="sans" font-size="11.00">arp_output_request</text>
</g>
<!-- control_input&#45;&gt;arp_output_request -->
<g id="edge2" class="edge">
<title>control_input&#45;&gt;arp_output_request</title>
<path fill="none" stroke="blue" stroke-width="2" d="M42.99,-615.02C47.76,-651.96 64.09,-736.27 116.32,-778 149.34,-804.38 196.35,-812.26 234.76,-813.61"/>
<polygon fill="blue" stroke="blue" stroke-width="2" points="234.76,-817.11 244.83,-813.83 234.91,-810.12 234.76,-817.11"/>
</g>
<!-- icmp_local_send -->
<g id="node4" class="node">
<title>icmp_local_send</title>
<ellipse fill="none" stroke="black" cx="302.66" cy="-686" rx="49.28" ry="18"/>
<text text-anchor="middle" x="302.66" y="-683.2" font-family="sans" font-size="11.00">icmp_local_send</text>
</g>
<!-- control_input&#45;&gt;icmp_local_send -->
<g id="edge3" class="edge">
<title>control_input&#45;&gt;icmp_local_send</title>
<path fill="none" stroke="blue" stroke-width="2" d="M72.58,-607.74C118.35,-623.37 203.6,-652.5 256.21,-670.47"/>
<polygon fill="blue" stroke="blue" stroke-width="2" points="255.36,-673.88 265.96,-673.8 257.62,-667.26 255.36,-673.88"/>
</g>
<!-- ndp_ns_output -->
<g id="node5" class="node">
<title>ndp_ns_output</title>
<ellipse fill="none" stroke="black" cx="161.91" cy="-278" rx="44.51" ry="18"/>
<text text-anchor="middle" x="161.91" y="-275.2" font-family="sans" font-size="11.00">ndp_ns_output</text>
</g>
<!-- control_input&#45;&gt;ndp_ns_output -->
<g id="edge4" class="edge">
<title>control_input&#45;&gt;ndp_ns_output</title>
<path fill="none" stroke="blue" stroke-width="2" d="M41.75,-578.79C44.12,-530.64 56.07,-397.65 116.32,-310 119.14,-305.9 122.67,-302.14 126.5,-298.75"/>
<polygon fill="blue" stroke="blue" stroke-width="2" points="128.96,-301.27 134.64,-292.33 124.62,-295.77 128.96,-301.27"/>
</g>
<!-- ip_output -->
<g id="node6" class="node">
<title>ip_output</title>
<ellipse fill="none" stroke="black" cx="846.64" cy="-644" rx="29.12" ry="18"/>
<text text-anchor="middle" x="846.64" y="-641.2" font-family="sans" font-size="11.00">ip_output</text>
</g>
<!-- control_input&#45;&gt;ip_output -->
<g id="edge5" class="edge">
<title>control_input&#45;&gt;ip_output</title>
<path fill="none" stroke="blue" stroke-width="2" d="M54.68,-613.93C90.24,-656.39 191.26,-764 301.66,-764 301.66,-764 301.66,-764 566.15,-764 673.77,-764 688.73,-708.51 788.03,-667 795.8,-663.75 804.2,-660.34 812.12,-657.17"/>
<polygon fill="blue" stroke="blue" stroke-width="2" points="813.47,-660.4 821.46,-653.45 810.88,-653.9 813.47,-660.4"/>
</g>
<!-- ip6_output -->
<g id="node7" class="node">
<title>ip6_output</title>
<ellipse fill="none" stroke="black" cx="846.64" cy="-307" rx="32.63" ry="18"/>
<text text-anchor="middle" x="846.64" y="-304.2" font-family="sans" font-size="11.00">ip6_output</text>
</g>
<!-- control_input&#45;&gt;ip6_output -->
<g id="edge6" class="edge">
<title>control_input&#45;&gt;ip6_output</title>
<path fill="none" stroke="blue" stroke-width="2" d="M50.07,-579.37C74.13,-533.8 145.31,-411.87 243.5,-358 296.85,-328.73 589.93,-326.96 752.03,-315 769.11,-313.74 787.93,-312.17 804.18,-310.75"/>
<polygon fill="blue" stroke="blue" stroke-width="2" points="804.8,-314.21 814.45,-309.85 804.18,-307.24 804.8,-314.21"/>
</g>
<!-- loopback_input&#45;&gt;ip_output -->
<g id="edge12" class="edge">
<title>loopback_input&#45;&gt;ip_output</title>
<path fill="none" stroke="black" d="M207.84,-542C262.97,-542 359.29,-542 441.86,-542 441.86,-542 441.86,-542 566.15,-542 662.96,-542 767.82,-596.67 817.06,-625.96"/>
<polygon fill="black" stroke="black" points="815.5,-629.11 825.87,-631.29 819.12,-623.12 815.5,-629.11"/>
</g>
<!-- loopback_input&#45;&gt;ip6_output -->
<g id="edge14" class="edge">
<title>loopback_input&#45;&gt;ip6_output</title>
<path fill="none" stroke="black" d="M182.06,-525.55C225.27,-490.16 334.97,-410 441.86,-410 441.86,-410 441.86,-410 566.15,-410 662.54,-410 766.74,-355.39 816.27,-325.7"/>
<polygon fill="black" stroke="black" points="818.15,-328.66 824.87,-320.47 814.51,-322.68 818.15,-328.66"/>
</g>
<!-- ip_input_local -->
<g id="node15" class="node">
<title>ip_input_local</title>
<ellipse fill="none" stroke="black" cx="302.66" cy="-588" rx="41.49" ry="18"/>
<text text-anchor="middle" x="302.66" y="-585.2" font-family="sans" font-size="11.00">ip_input_local</text>
</g>
<!-- loopback_input&#45;&gt;ip_input_local -->
<g id="edge11" class="edge">
<title>loopback_input&#45;&gt;ip_input_local</title>
<path fill="none" stroke="black" d="M197.56,-553.49C216.38,-559.73 239.78,-567.49 259.63,-574.07"/>
<polygon fill="black" stroke="black" points="258.75,-577.46 269.35,-577.29 260.96,-570.82 258.75,-577.46"/>
</g>
<!-- ip6_input_local -->
<g id="node16" class="node">
<title>ip6_input_local</title>
<ellipse fill="none" stroke="black" cx="442.86" cy="-364" rx="45.09" ry="18"/>
<text text-anchor="middle" x="442.86" y="-361.2" font-family="sans" font-size="11.00">ip6_input_local</text>
</g>
<!-- loopback_input&#45;&gt;ip6_input_local -->
<g id="edge13" class="edge">
<title>loopback_input&#45;&gt;ip6_input_local</title>
<path fill="none" stroke="black" d="M167.39,-523.7C176.15,-492.06 198.75,-427.49 243.5,-396 285.67,-366.33 345.27,-360.25 388.12,-360.42"/>
<polygon fill="black" stroke="black" points="388.3,-363.92 398.35,-360.57 388.41,-356.92 388.3,-363.92"/>
</g>
<!-- eth_output -->
<g id="node13" class="node">
<title>eth_output</title>
<ellipse fill="none" stroke="black" cx="991.73" cy="-590" rx="33.8" ry="18"/>
<text text-anchor="middle" x="991.73" y="-587.2" font-family="sans" font-size="11.00">eth_output</text>
</g>
<!-- arp_output_request&#45;&gt;eth_output -->
<g id="edge23" class="edge">
<title>arp_output_request&#45;&gt;eth_output</title>
<path fill="none" stroke="black" d="M361.85,-808.6C414.64,-807.44 494.61,-806 564.15,-806 564.15,-806 564.15,-806 698.21,-806 746.33,-806 831.83,-746.02 905.25,-671 925.43,-650.38 919.98,-636.47 941.25,-617 945.69,-612.94 950.86,-609.27 956.14,-606.04"/>
<polygon fill="black" stroke="black" points="958.04,-608.98 965.03,-601.02 954.6,-602.89 958.04,-608.98"/>
</g>
<!-- icmp_output -->
<g id="node23" class="node">
<title>icmp_output</title>
<ellipse fill="none" stroke="black" cx="565.15" cy="-680" rx="37.98" ry="18"/>
<text text-anchor="middle" x="565.15" y="-677.2" font-family="sans" font-size="11.00">icmp_output</text>
</g>
<!-- icmp_local_send&#45;&gt;icmp_output -->
<g id="edge26" class="edge">
<title>icmp_local_send&#45;&gt;icmp_output</title>
<path fill="none" stroke="black" d="M342.3,-696.75C379.71,-705.66 437.93,-715.59 487.9,-707 501.12,-704.73 515.08,-700.4 527.4,-695.86"/>
<polygon fill="black" stroke="black" points="528.8,-699.07 536.87,-692.21 526.28,-692.53 528.8,-699.07"/>
</g>
<!-- ndp_ns_output&#45;&gt;ip6_output -->
<g id="edge57" class="edge">
<title>ndp_ns_output&#45;&gt;ip6_output</title>
<path fill="none" stroke="black" d="M206.4,-279.85C330.12,-285.1 682.93,-300.09 804.15,-305.24"/>
<polygon fill="black" stroke="black" points="804.01,-308.73 814.15,-305.66 804.31,-301.74 804.01,-308.73"/>
</g>
<!-- ip_output&#45;&gt;eth_output -->
<g id="edge36" class="edge">
<title>ip_output&#45;&gt;eth_output</title>
<path fill="none" stroke="black" d="M871.91,-634.84C894.54,-626.3 928.58,-613.46 954.43,-603.7"/>
<polygon fill="black" stroke="black" points="955.78,-606.93 963.9,-600.13 953.31,-600.38 955.78,-606.93"/>
</g>
<!-- loopback_output -->
<g id="node17" class="node">
<title>loopback_output</title>
<ellipse fill="none" stroke="black" cx="991.73" cy="-367" rx="50.45" ry="18"/>
<text text-anchor="middle" x="991.73" y="-364.2" font-family="sans" font-size="11.00">loopback_output</text>
</g>
<!-- ip_output&#45;&gt;loopback_output -->
<g id="edge38" class="edge">
<title>ip_output&#45;&gt;loopback_output</title>
<path fill="none" stroke="black" d="M856.59,-626.67C880.83,-579.76 947.84,-450.03 976.94,-393.69"/>
<polygon fill="black" stroke="black" points="980.12,-395.17 981.6,-384.68 973.9,-391.96 980.12,-395.17"/>
</g>
<!-- ip_hold -->
<g id="node25" class="node">
<title>ip_hold</title>
<ellipse fill="none" stroke="black" cx="991.73" cy="-644" rx="27" ry="18"/>
<text text-anchor="middle" x="991.73" y="-641.2" font-family="sans" font-size="11.00">ip_hold</text>
</g>
<!-- ip_output&#45;&gt;ip_hold -->
<g id="edge37" class="edge">
<title>ip_output&#45;&gt;ip_hold</title>
<path fill="none" stroke="black" d="M876.25,-644C898.7,-644 930.1,-644 954.34,-644"/>
<polygon fill="black" stroke="black" points="954.57,-647.5 964.57,-644 954.57,-640.5 954.57,-647.5"/>
</g>
<!-- ipip_output -->
<g id="node28" class="node">
<title>ipip_output</title>
<ellipse fill="none" stroke="black" cx="991.73" cy="-698" rx="34.38" ry="18"/>
<text text-anchor="middle" x="991.73" y="-695.2" font-family="sans" font-size="11.00">ipip_output</text>
</g>
<!-- ip_output&#45;&gt;ipip_output -->
<g id="edge39" class="edge">
<title>ip_output&#45;&gt;ipip_output</title>
<path fill="none" stroke="black" d="M874.89,-648.85C899.05,-656.3 934.32,-669.53 959.58,-680.56"/>
<polygon fill="black" stroke="black" points="958.18,-683.77 968.73,-684.67 961.04,-677.38 958.18,-683.77"/>
</g>
<!-- ip6_output&#45;&gt;eth_output -->
<g id="edge51" class="edge">
<title>ip6_output&#45;&gt;eth_output</title>
<path fill="none" stroke="black" d="M861.17,-323.43C873.65,-339.1 892.19,-363.71 905.25,-387 938.91,-446.98 967.46,-522.87 981.47,-562.72"/>
<polygon fill="black" stroke="black" points="978.2,-563.97 984.79,-572.27 984.81,-561.67 978.2,-563.97"/>
</g>
<!-- ip6_output&#45;&gt;loopback_output -->
<g id="edge53" class="edge">
<title>ip6_output&#45;&gt;loopback_output</title>
<path fill="none" stroke="black" d="M873.22,-317.73C894.23,-326.53 924.4,-339.19 948.91,-349.46"/>
<polygon fill="black" stroke="black" points="947.76,-352.78 958.34,-353.42 950.47,-346.32 947.76,-352.78"/>
</g>
<!-- ip6_hold -->
<g id="node34" class="node">
<title>ip6_hold</title>
<ellipse fill="none" stroke="black" cx="991.73" cy="-278" rx="27" ry="18"/>
<text text-anchor="middle" x="991.73" y="-275.2" font-family="sans" font-size="11.00">ip6_hold</text>
</g>
<!-- ip6_output&#45;&gt;ip6_hold -->
<g id="edge52" class="edge">
<title>ip6_output&#45;&gt;ip6_hold</title>
<path fill="none" stroke="black" d="M877.64,-300.92C900.34,-296.32 931.58,-289.99 955.47,-285.15"/>
<polygon fill="black" stroke="black" points="956.44,-288.52 965.55,-283.1 955.05,-281.66 956.44,-288.52"/>
</g>
<!-- control_output -->
<g id="node8" class="node">
<title>control_output</title>
<ellipse fill="none" stroke="black" cx="1122.7" cy="-228" rx="44.51" ry="18"/>
<text text-anchor="middle" x="1122.7" y="-225.2" font-family="sans" font-size="11.00">control_output</text>
</g>
<!-- eth_input -->
<g id="node9" class="node">
<title>eth_input</title>
<ellipse fill="none" stroke="black" cx="161.91" cy="-224" rx="29.12" ry="18"/>
<text text-anchor="middle" x="161.91" y="-221.2" font-family="sans" font-size="11.00">eth_input</text>
</g>
<!-- arp_input -->
<g id="node10" class="node">
<title>arp_input</title>
<ellipse fill="none" stroke="black" cx="565.15" cy="-61" rx="29.12" ry="18"/>
<text text-anchor="middle" x="565.15" y="-58.2" font-family="sans" font-size="11.00">arp_input</text>
</g>
<!-- eth_input&#45;&gt;arp_input -->
<g id="edge7" class="edge">
<title>eth_input&#45;&gt;arp_input</title>
<path fill="none" stroke="black" d="M186.81,-214.29C255.25,-186.49 452.1,-106.52 530.93,-74.5"/>
<polygon fill="black" stroke="black" points="532.43,-77.66 540.38,-70.66 529.8,-71.18 532.43,-77.66"/>
</g>
<!-- ip_input -->
<g id="node11" class="node">
<title>ip_input</title>
<ellipse fill="none" stroke="black" cx="565.15" cy="-588" rx="27" ry="18"/>
<text text-anchor="middle" x="565.15" y="-585.2" font-family="sans" font-size="11.00">ip_input</text>
</g>
<!-- eth_input&#45;&gt;ip_input -->
<g id="edge8" class="edge">
<title>eth_input&#45;&gt;ip_input</title>
<path fill="none" stroke="black" d="M184.38,-235.75C191.92,-240.2 200.3,-245.52 207.5,-251 346.03,-356.48 490.69,-508.34 543.4,-565.29"/>
<polygon fill="black" stroke="black" points="540.86,-567.7 550.21,-572.68 546.01,-562.96 540.86,-567.7"/>
</g>
<!-- ip6_input -->
<g id="node12" class="node">
<title>ip6_input</title>
<ellipse fill="none" stroke="black" cx="302.66" cy="-234" rx="28.44" ry="18"/>
<text text-anchor="middle" x="302.66" y="-231.2" font-family="sans" font-size="11.00">ip6_input</text>
</g>
<!-- eth_input&#45;&gt;ip6_input -->
<g id="edge9" class="edge">
<title>eth_input&#45;&gt;ip6_input</title>
<path fill="none" stroke="black" d="M191.32,-226.05C212.36,-227.56 241.23,-229.64 264.16,-231.3"/>
<polygon fill="black" stroke="black" points="264,-234.8 274.23,-232.02 264.51,-227.81 264,-234.8"/>
</g>
<!-- arp_input_request -->
<g id="node19" class="node">
<title>arp_input_request</title>
<ellipse fill="none" stroke="black" cx="697.21" cy="-61" rx="54.63" ry="18"/>
<text text-anchor="middle" x="697.21" y="-58.2" font-family="sans" font-size="11.00">arp_input_request</text>
</g>
<!-- arp_input&#45;&gt;arp_input_request -->
<g id="edge17" class="edge">
<title>arp_input&#45;&gt;arp_input_request</title>
<path fill="none" stroke="black" d="M594.69,-61C605.84,-61 619.09,-61 632.29,-61"/>
<polygon fill="black" stroke="black" points="632.33,-64.5 642.33,-61 632.33,-57.5 632.33,-64.5"/>
</g>
<!-- arp_input_reply -->
<g id="node20" class="node">
<title>arp_input_reply</title>
<ellipse fill="none" stroke="black" cx="846.64" cy="-18" rx="47.43" ry="18"/>
<text text-anchor="middle" x="846.64" y="-15.2" font-family="sans" font-size="11.00">arp_input_reply</text>
</g>
<!-- arp_input&#45;&gt;arp_input_reply -->
<g id="edge18" class="edge">
<title>arp_input&#45;&gt;arp_input_reply</title>
<path fill="none" stroke="black" d="M589.73,-50.85C604.56,-44.91 624.27,-37.85 642.4,-34 691.23,-23.62 747.95,-19.82 789.04,-18.5"/>
<polygon fill="black" stroke="black" points="789.24,-22 799.14,-18.22 789.04,-15 789.24,-22"/>
</g>
<!-- ip_input&#45;&gt;ip_input_local -->
<g id="edge31" class="edge">
<title>ip_input&#45;&gt;ip_input_local</title>
<path fill="none" stroke="black" d="M542.33,-597.97C527.37,-604.24 506.86,-611.74 487.9,-615 448.44,-621.78 437.46,-620.57 397.81,-615 380.1,-612.51 361.05,-607.51 344.75,-602.48"/>
<polygon fill="black" stroke="black" points="345.59,-599.07 334.99,-599.37 343.46,-605.74 345.59,-599.07"/>
</g>
<!-- ip_forward -->
<g id="node24" class="node">
<title>ip_forward</title>
<ellipse fill="none" stroke="black" cx="697.21" cy="-632" rx="32.63" ry="18"/>
<text text-anchor="middle" x="697.21" y="-629.2" font-family="sans" font-size="11.00">ip_forward</text>
</g>
<!-- ip_input&#45;&gt;ip_forward -->
<g id="edge30" class="edge">
<title>ip_input&#45;&gt;ip_forward</title>
<path fill="none" stroke="black" d="M589.7,-595.97C609.09,-602.53 636.91,-611.94 659.26,-619.5"/>
<polygon fill="black" stroke="black" points="658.18,-622.83 668.78,-622.72 660.43,-616.2 658.18,-622.83"/>
</g>
<!-- ip6_input&#45;&gt;ip6_input_local -->
<g id="edge47" class="edge">
<title>ip6_input&#45;&gt;ip6_input_local</title>
<path fill="none" stroke="black" d="M319.24,-248.66C342.99,-271 388.46,-313.77 416.86,-340.48"/>
<polygon fill="black" stroke="black" points="414.7,-343.26 424.38,-347.56 419.5,-338.16 414.7,-343.26"/>
</g>
<!-- ip6_forward -->
<g id="node33" class="node">
<title>ip6_forward</title>
<ellipse fill="none" stroke="black" cx="442.86" cy="-234" rx="35.64" ry="18"/>
<text text-anchor="middle" x="442.86" y="-231.2" font-family="sans" font-size="11.00">ip6_forward</text>
</g>
<!-- ip6_input&#45;&gt;ip6_forward -->
<g id="edge46" class="edge">
<title>ip6_input&#45;&gt;ip6_forward</title>
<path fill="none" stroke="black" d="M330.96,-234C349.77,-234 375.2,-234 396.97,-234"/>
<polygon fill="black" stroke="black" points="396.99,-237.5 406.99,-234 396.99,-230.5 396.99,-237.5"/>
</g>
<!-- port_tx -->
<g id="node14" class="node">
<title>port_tx</title>
<ellipse fill="none" stroke="black" cx="1122.7" cy="-590" rx="27" ry="18"/>
<text text-anchor="middle" x="1122.7" y="-587.2" font-family="sans" font-size="11.00">port_tx</text>
</g>
<!-- eth_output&#45;&gt;port_tx -->
<g id="edge10" class="edge">
<title>eth_output&#45;&gt;port_tx</title>
<path fill="none" stroke="black" d="M1025.61,-590C1043.79,-590 1066.41,-590 1085.15,-590"/>
<polygon fill="black" stroke="black" points="1085.38,-593.5 1095.38,-590 1085.38,-586.5 1085.38,-593.5"/>
</g>
<!-- icmp_input -->
<g id="node22" class="node">
<title>icmp_input</title>
<ellipse fill="none" stroke="black" cx="442.86" cy="-680" rx="33.8" ry="18"/>
<text text-anchor="middle" x="442.86" y="-677.2" font-family="sans" font-size="11.00">icmp_input</text>
</g>
<!-- ip_input_local&#45;&gt;icmp_input -->
<g id="edge32" class="edge">
<title>ip_input_local&#45;&gt;icmp_input</title>
<path fill="none" stroke="black" d="M326.17,-602.99C349.7,-618.65 386.74,-643.31 412.54,-660.49"/>
<polygon fill="black" stroke="black" points="410.9,-663.6 421.16,-666.22 414.78,-657.77 410.9,-663.6"/>
</g>
<!-- ipip_input -->
<g id="node26" class="node">
<title>ipip_input</title>
<ellipse fill="none" stroke="black" cx="442.86" cy="-588" rx="29.7" ry="18"/>
<text text-anchor="middle" x="442.86" y="-585.2" font-family="sans" font-size="11.00">ipip_input</text>
</g>
<!-- ip_input_local&#45;&gt;ipip_input -->
<g id="edge33" class="edge">
<title>ip_input_local&#45;&gt;ipip_input</title>
<path fill="none" stroke="black" d="M344,-588C362.47,-588 384.27,-588 402.61,-588"/>
<polygon fill="black" stroke="black" points="402.67,-591.5 412.67,-588 402.67,-584.5 402.67,-591.5"/>
</g>
<!-- l4_input_local -->
<g id="node27" class="node">
<title>l4_input_local</title>
<ellipse fill="none" stroke="black" cx="565.15" cy="-456" rx="41.49" ry="18"/>
<text text-anchor="middle" x="565.15" y="-453.2" font-family="sans" font-size="11.00">l4_input_local</text>
</g>
<!-- ip_input_local&#45;&gt;l4_input_local -->
<g id="edge34" class="edge">
<title>ip_input_local&#45;&gt;l4_input_local</title>
<path fill="none" stroke="black" d="M325.87,-572.77C369.71,-547.25 467.97,-497.11 523.65,-471.47"/>
<polygon fill="black" stroke="black" points="525.21,-474.61 532.86,-467.28 522.31,-468.23 525.21,-474.61"/>
</g>
<!-- ip_input_local&#45;&gt;l4_input_local -->
<g id="edge35" class="edge">
<title>ip_input_local&#45;&gt;l4_input_local</title>
<path fill="none" stroke="black" d="M335.08,-576.66C385.4,-554.06 483.46,-504.36 533.37,-476.15"/>
<polygon fill="black" stroke="black" points="535.17,-479.15 542.11,-471.14 531.69,-473.07 535.17,-479.15"/>
</g>
<!-- ip6_input_local&#45;&gt;l4_input_local -->
<g id="edge49" class="edge">
<title>ip6_input_local&#45;&gt;l4_input_local</title>
<path fill="none" stroke="black" d="M470.26,-378.49C491.29,-393.11 520.46,-415.49 540.68,-432.57"/>
<polygon fill="black" stroke="black" points="538.63,-435.42 548.49,-439.3 543.2,-430.12 538.63,-435.42"/>
</g>
<!-- ip6_input_local&#45;&gt;l4_input_local -->
<g id="edge50" class="edge">
<title>ip6_input_local&#45;&gt;l4_input_local</title>
<path fill="none" stroke="black" d="M459.58,-380.76C477.39,-396.46 506.94,-419.53 530.1,-436.11"/>
<polygon fill="black" stroke="black" points="528.11,-438.99 538.3,-441.89 532.15,-433.27 528.11,-438.99"/>
</g>
<!-- icmp6_input -->
<g id="node29" class="node">
<title>icmp6_input</title>
<ellipse fill="none" stroke="black" cx="565.15" cy="-196" rx="37.4" ry="18"/>
<text text-anchor="middle" x="565.15" y="-193.2" font-family="sans" font-size="11.00">icmp6_input</text>
</g>
<!-- ip6_input_local&#45;&gt;icmp6_input -->
<g id="edge48" class="edge">
<title>ip6_input_local&#45;&gt;icmp6_input</title>
<path fill="none" stroke="black" d="M456.28,-346.65C477.64,-316.82 521.41,-255.69 546.13,-221.17"/>
<polygon fill="black" stroke="black" points="549,-223.17 551.98,-213 543.31,-219.09 549,-223.17"/>
</g>
<!-- loopback_output&#45;&gt;control_output -->
<g id="edge15" class="edge">
<title>loopback_output&#45;&gt;control_output</title>
<path fill="none" stroke="black" d="M1008.54,-349.96C1031.29,-325.44 1073.36,-280.1 1099.3,-252.14"/>
<polygon fill="black" stroke="black" points="1101.93,-254.46 1106.16,-244.75 1096.8,-249.7 1101.93,-254.46"/>
</g>
<!-- port_rx -->
<g id="node18" class="node">
<title>port_rx</title>
<ellipse fill="none" stroke="blue" stroke-width="2" cx="40.16" cy="-224" rx="27" ry="18"/>
<text text-anchor="middle" x="40.16" y="-221.2" font-family="sans" font-size="11.00">port_rx</text>
</g>
<!-- port_rx&#45;&gt;eth_input -->
<g id="edge16" class="edge">
<title>port_rx&#45;&gt;eth_input</title>
<path fill="none" stroke="blue" stroke-width="2" d="M67.44,-224C83.56,-224 104.47,-224 122.43,-224"/>
<polygon fill="blue" stroke="blue" stroke-width="2" points="122.6,-227.5 132.6,-224 122.6,-220.5 122.6,-227.5"/>
</g>
<!-- arp_input_request&#45;&gt;control_output -->
<g id="edge20" class="edge">
<title>arp_input_request&#45;&gt;control_output</title>
<path fill="none" stroke="black" d="M744.34,-70.32C812.18,-85.14 941.68,-117.77 1042.2,-169 1061.32,-178.75 1080.71,-193.02 1095.55,-205.09"/>
<polygon fill="black" stroke="black" points="1093.37,-207.83 1103.29,-211.53 1097.84,-202.44 1093.37,-207.83"/>
</g>
<!-- arp_output_reply -->
<g id="node21" class="node">
<title>arp_output_reply</title>
<ellipse fill="none" stroke="black" cx="846.64" cy="-250" rx="51.62" ry="18"/>
<text text-anchor="middle" x="846.64" y="-247.2" font-family="sans" font-size="11.00">arp_output_reply</text>
</g>
<!-- arp_input_request&#45;&gt;arp_output_reply -->
<g id="edge21" class="edge">
<title>arp_input_request&#45;&gt;arp_output_reply</title>
<path fill="none" stroke="black" d="M733.16,-74.79C739.9,-78.44 746.55,-82.84 752.03,-88 793.01,-126.63 821.42,-187.25 835.49,-222.35"/>
<polygon fill="black" stroke="black" points="832.34,-223.9 839.24,-231.95 838.86,-221.36 832.34,-223.9"/>
</g>
<!-- arp_input_reply&#45;&gt;control_output -->
<g id="edge19" class="edge">
<title>arp_input_reply&#45;&gt;control_output</title>
<path fill="none" stroke="black" d="M893.72,-20.11C936.48,-24.28 999.74,-36.38 1042.2,-71 1083.37,-104.56 1105.28,-164.94 1115.11,-200.24"/>
<polygon fill="black" stroke="black" points="1111.73,-201.14 1117.68,-209.91 1118.5,-199.34 1111.73,-201.14"/>
</g>
<!-- arp_output_reply&#45;&gt;eth_output -->
<g id="edge22" class="edge">
<title>arp_output_reply&#45;&gt;eth_output</title>
<path fill="none" stroke="black" d="M883.25,-262.77C891.44,-267.15 899.44,-272.81 905.25,-280 914.35,-291.25 964.76,-487.56 983.61,-561.84"/>
<polygon fill="black" stroke="black" points="980.31,-563.04 986.16,-571.88 987.09,-561.32 980.31,-563.04"/>
</g>
<!-- icmp_input&#45;&gt;control_output -->
<g id="edge25" class="edge">
<title>icmp_input&#45;&gt;control_output</title>
<path fill="none" stroke="black" d="M471.13,-669.86C576.27,-630.36 953.77,-484.46 1042.2,-394 1081.13,-354.17 1103.91,-291.63 1114.48,-255.76"/>
<polygon fill="black" stroke="black" points="1117.89,-256.55 1117.25,-245.97 1111.16,-254.64 1117.89,-256.55"/>
</g>
<!-- icmp_input&#45;&gt;icmp_output -->
<g id="edge24" class="edge">
<title>icmp_input&#45;&gt;icmp_output</title>
<path fill="none" stroke="black" d="M476.73,-680C489.15,-680 503.53,-680 517,-680"/>
<polygon fill="black" stroke="black" points="517.08,-683.5 527.08,-680 517.08,-676.5 517.08,-683.5"/>
</g>
<!-- icmp_output&#45;&gt;ip_output -->
<g id="edge27" class="edge">
<title>icmp_output&#45;&gt;ip_output</title>
<path fill="none" stroke="black" d="M602.54,-676.39C640.06,-672.56 700.22,-666.07 752.03,-659 770.53,-656.47 791.02,-653.24 808.1,-650.42"/>
<polygon fill="black" stroke="black" points="808.96,-653.83 818.25,-648.73 807.81,-646.92 808.96,-653.83"/>
</g>
<!-- ip_forward&#45;&gt;ip_output -->
<g id="edge28" class="edge">
<title>ip_forward&#45;&gt;ip_output</title>
<path fill="none" stroke="black" d="M729.48,-634.54C752.16,-636.39 782.96,-638.9 807.15,-640.87"/>
<polygon fill="black" stroke="black" points="807.16,-644.38 817.41,-641.7 807.73,-637.4 807.16,-644.38"/>
</g>
<!-- ip_hold&#45;&gt;control_output -->
<g id="edge29" class="edge">
<title>ip_hold&#45;&gt;control_output</title>
<path fill="none" stroke="black" d="M1016.15,-636.23C1025.59,-631.97 1035.75,-625.73 1042.2,-617 1085.04,-559.02 1110.95,-336.11 1119,-256.48"/>
<polygon fill="black" stroke="black" points="1122.51,-256.52 1120.01,-246.22 1115.54,-255.83 1122.51,-256.52"/>
</g>
<!-- ipip_input&#45;&gt;ip_input -->
<g id="edge58" class="edge">
<title>ipip_input&#45;&gt;ip_input</title>
<path fill="none" stroke="black" d="M472.98,-588C489.33,-588 509.9,-588 527.36,-588"/>
<polygon fill="black" stroke="black" points="527.76,-591.5 537.76,-588 527.76,-584.5 527.76,-591.5"/>
</g>
<!-- l4_loopback_output -->
<g id="node35" class="node">
<title>l4_loopback_output</title>
<ellipse fill="none" stroke="black" cx="846.64" cy="-414" rx="58.73" ry="18"/>
<text text-anchor="middle" x="846.64" y="-411.2" font-family="sans" font-size="11.00">l4_loopback_output</text>
</g>
<!-- l4_input_local&#45;&gt;l4_loopback_output -->
<g id="edge60" class="edge">
<title>l4_input_local&#45;&gt;l4_loopback_output</title>
<path fill="none" stroke="black" d="M604.43,-450.25C650.59,-443.31 728.81,-431.56 783.62,-423.32"/>
<polygon fill="black" stroke="black" points="784.2,-426.77 793.57,-421.82 783.16,-419.85 784.2,-426.77"/>
</g>
<!-- ipip_output&#45;&gt;ip_output -->
<g id="edge59" class="edge">
<title>ipip_output&#45;&gt;ip_output</title>
<path fill="none" stroke="black" d="M959.32,-691.85C934.85,-684.05 901.11,-671.28 877.14,-660.72"/>
<polygon fill="black" stroke="black" points="878.39,-657.44 867.84,-656.5 875.5,-663.81 878.39,-657.44"/>
</g>
<!-- icmp6_output -->
<g id="node30" class="node">
<title>icmp6_output</title>
<ellipse fill="none" stroke="black" cx="697.21" cy="-223" rx="41.58" ry="18"/>
<text text-anchor="middle" x="697.21" y="-220.2" font-family="sans" font-size="11.00">icmp6_output</text>
</g>
<!-- icmp6_input&#45;&gt;icmp6_output -->
<g id="edge40" class="edge">
<title>icmp6_input&#45;&gt;icmp6_output</title>
<path fill="none" stroke="black" d="M599.98,-203.02C615.07,-206.15 633.09,-209.9 649.43,-213.29"/>
<polygon fill="black" stroke="black" points="648.85,-216.74 659.35,-215.35 650.27,-209.89 648.85,-216.74"/>
</g>
<!-- ndp_ns_input -->
<g id="node31" class="node">
<title>ndp_ns_input</title>
<ellipse fill="none" stroke="black" cx="697.21" cy="-169" rx="40.32" ry="18"/>
<text text-anchor="middle" x="697.21" y="-166.2" font-family="sans" font-size="11.00">ndp_ns_input</text>
</g>
<!-- icmp6_input&#45;&gt;ndp_ns_input -->
<g id="edge41" class="edge">
<title>icmp6_input&#45;&gt;ndp_ns_input</title>
<path fill="none" stroke="black" d="M599.98,-188.98C615.32,-185.79 633.68,-181.98 650.24,-178.54"/>
<polygon fill="black" stroke="black" points="651.19,-181.92 660.27,-176.46 649.77,-175.07 651.19,-181.92"/>
</g>
<!-- ndp_na_input -->
<g id="node32" class="node">
<title>ndp_na_input</title>
<ellipse fill="none" stroke="black" cx="697.21" cy="-115" rx="40.91" ry="18"/>
<text text-anchor="middle" x="697.21" y="-112.2" font-family="sans" font-size="11.00">ndp_na_input</text>
</g>
<!-- icmp6_input&#45;&gt;ndp_na_input -->
<g id="edge42" class="edge">
<title>icmp6_input&#45;&gt;ndp_na_input</title>
<path fill="none" stroke="black" d="M585.66,-180.94C600.75,-169.6 622.37,-154.02 642.4,-142 647.81,-138.75 653.66,-135.53 659.44,-132.51"/>
<polygon fill="black" stroke="black" points="661.08,-135.61 668.4,-127.95 657.9,-129.37 661.08,-135.61"/>
</g>
<!-- icmp6_output&#45;&gt;ip6_output -->
<g id="edge43" class="edge">
<title>icmp6_output&#45;&gt;ip6_output</title>
<path fill="none" stroke="black" d="M722.63,-237.43C731.85,-242.91 742.44,-249.22 752.03,-255 768.09,-264.68 771.7,-267.78 788.03,-277 796.02,-281.51 804.75,-286.19 812.94,-290.47"/>
<polygon fill="black" stroke="black" points="811.41,-293.62 821.9,-295.1 814.62,-287.4 811.41,-293.62"/>
</g>
<!-- ndp_ns_input&#45;&gt;ip6_output -->
<g id="edge55" class="edge">
<title>ndp_ns_input&#45;&gt;ip6_output</title>
<path fill="none" stroke="black" d="M729.12,-180.02C737.33,-184.08 745.68,-189.35 752.03,-196 779.22,-224.5 761.05,-248.3 788.03,-277 794.08,-283.44 801.82,-288.74 809.65,-293.01"/>
<polygon fill="black" stroke="black" points="808.28,-296.24 818.8,-297.54 811.39,-289.96 808.28,-296.24"/>
</g>
<!-- ndp_ns_input&#45;&gt;control_output -->
<g id="edge56" class="edge">
<title>ndp_ns_input&#45;&gt;control_output</title>
<path fill="none" stroke="black" d="M735.79,-174.24C811.85,-184.83 984.1,-208.83 1070.41,-220.85"/>
<polygon fill="black" stroke="black" points="1070.11,-224.35 1080.49,-222.26 1071.07,-217.41 1070.11,-224.35"/>
</g>
<!-- ndp_na_input&#45;&gt;control_output -->
<g id="edge54" class="edge">
<title>ndp_na_input&#45;&gt;control_output</title>
<path fill="none" stroke="black" d="M734.17,-122.69C797.11,-136.4 931.1,-166.79 1042.2,-200 1054.59,-203.7 1067.9,-208.19 1080.02,-212.47"/>
<polygon fill="black" stroke="black" points="1078.85,-215.77 1089.44,-215.84 1081.21,-209.18 1078.85,-215.77"/>
</g>
<!-- ip6_forward&#45;&gt;ip6_output -->
<g id="edge44" class="edge">
<title>ip6_forward&#45;&gt;ip6_output</title>
<path fill="none" stroke="black" d="M476.74,-239.97C549.83,-253.25 725.61,-285.19 805.23,-299.66"/>
<polygon fill="black" stroke="black" points="804.89,-303.15 815.36,-301.5 806.14,-296.27 804.89,-303.15"/>
</g>
<!-- ip6_hold&#45;&gt;control_output -->
<g id="edge45" class="edge">
<title>ip6_hold&#45;&gt;control_output</title>
<path fill="none" stroke="black" d="M1015.49,-269.18C1033.43,-262.22 1058.91,-252.34 1080.42,-244.01"/>
<polygon fill="black" stroke="black" points="1081.92,-247.18 1089.98,-240.3 1079.39,-240.65 1081.92,-247.18"/>
</g>
<!-- l4_loopback_output&#45;&gt;loopback_output -->
<g id="edge61" class="edge">
<title>l4_loopback_output&#45;&gt;loopback_output</title>
<path fill="none" stroke="black" d="M887.5,-400.91C905.16,-395.11 926.06,-388.24 944.41,-382.21"/>
<polygon fill="black" stroke="black" points="945.62,-385.5 954.02,-379.06 943.43,-378.85 945.62,-385.5"/>
</g>
</g>
</svg>
