<?xml version="1.0" encoding="UTF-8" standalone="no"?>
<!DOCTYPE svg PUBLIC "-//W3C//DTD SVG 1.1//EN"
 "http://www.w3.org/Graphics/SVG/1.1/DTD/svg11.dtd">
<!-- Generated by graphviz version 12.1.0 (20240811.2233)
 -->
<!-- Title: gr&#45;0003 Pages: 1 -->
<svg width="1205pt" height="862pt"
 viewBox="0.00 0.00 1205.24 862.00" xmlns="http://www.w3.org/2000/svg" xmlns:xlink="http://www.w3.org/1999/xlink">
<g id="graph0" class="graph" transform="scale(1 1) rotate(0) translate(4 858)">
<title>gr&#45;0003</title>
<polygon fill="white" stroke="none" points="-4,4 -4,-858 1201.24,-858 1201.24,4 -4,4"/>
<!-- control_input -->
<g id="node1" class="node">
<title>control_input</title>
<ellipse fill="none" stroke="blue" stroke-width="2" cx="41.62" cy="-614" rx="41.62" ry="18"/>
<text text-anchor="middle" x="41.62" y="-610.3" font-family="sans" font-size="11.00">control_input</text>
</g>
<!-- loopback_input -->
<g id="node2" class="node">
<title>loopback_input</title>
<ellipse fill="none" stroke="black" cx="174.34" cy="-576" rx="47.52" ry="18"/>
<text text-anchor="middle" x="174.34" y="-572.3" font-family="sans" font-size="11.00">loopback_input</text>
</g>
<!-- control_input&#45;&gt;loopback_input -->
<g id="edge1" class="edge">
<title>control_input&#45;&gt;loopback_input</title>
<path fill="none" stroke="blue" stroke-width="2" d="M76.97,-604.02C91.72,-599.73 109.21,-594.64 125.22,-589.99"/>
<polygon fill="blue" stroke="blue" stroke-width="2" points="124.48,-593.85 133.11,-587.7 122.53,-587.13 124.48,-593.85"/>
</g>
<!-- arp_output_request -->
<g id="node3" class="node">
<title>arp_output_request</title>
<ellipse fill="none" stroke="black" cx="326.86" cy="-782" rx="61.42" ry="18"/>
<text text-anchor="middle" x="326.86" y="-778.3" font-family="sans" font-size="11.00">arp_output_request</text>
</g>
<!-- control_input&#45;&gt;arp_output_request -->
<g id="edge2" class="edge">
<title>control_input&#45;&gt;arp_output_request</title>
<path fill="none" stroke="blue" stroke-width="2" d="M47.24,-632.03C55.9,-661.88 77.58,-721.15 119.25,-750 158.61,-777.26 212.26,-784.92 255.03,-785.95"/>
<polygon fill="blue" stroke="blue" stroke-width="2" points="253.43,-789.43 263.47,-786.04 253.51,-782.43 253.43,-789.43"/>
</g>
<!-- icmp_local_send -->
<g id="node4" class="node">
<title>icmp_local_send</title>
<ellipse fill="none" stroke="black" cx="326.86" cy="-645" rx="51.31" ry="18"/>
<text text-anchor="middle" x="326.86" y="-641.3" font-family="sans" font-size="11.00">icmp_local_send</text>
</g>
<!-- control_input&#45;&gt;icmp_local_send -->
<g id="edge3" class="edge">
<title>control_input&#45;&gt;icmp_local_send</title>
<path fill="none" stroke="blue" stroke-width="2" d="M82.3,-618.34C130.06,-623.57 210.72,-632.4 266.04,-638.45"/>
<polygon fill="blue" stroke="blue" stroke-width="2" points="264.11,-641.76 274.43,-639.37 264.87,-634.8 264.11,-641.76"/>
</g>
<!-- icmp6_local_send -->
<g id="node5" class="node">
<title>icmp6_local_send</title>
<ellipse fill="none" stroke="black" cx="174.34" cy="-238" rx="55.1" ry="18"/>
<text text-anchor="middle" x="174.34" y="-234.3" font-family="sans" font-size="11.00">icmp6_local_send</text>
</g>
<!-- control_input&#45;&gt;icmp6_local_send -->
<g id="edge4" class="edge">
<title>control_input&#45;&gt;icmp6_local_send</title>
<path fill="none" stroke="blue" stroke-width="2" d="M47.11,-595.97C62.62,-533.74 113.34,-331.09 119.25,-318 127.79,-299.07 140.73,-279.73 151.81,-264.81"/>
<polygon fill="blue" stroke="blue" stroke-width="2" points="153.65,-268.17 156.93,-258.1 148.08,-263.93 153.65,-268.17"/>
</g>
<!-- ndp_ns_output -->
<g id="node6" class="node">
<title>ndp_ns_output</title>
<ellipse fill="none" stroke="black" cx="174.34" cy="-345" rx="46.26" ry="18"/>
<text text-anchor="middle" x="174.34" y="-341.3" font-family="sans" font-size="11.00">ndp_ns_output</text>
</g>
<!-- control_input&#45;&gt;ndp_ns_output -->
<g id="edge5" class="edge">
<title>control_input&#45;&gt;ndp_ns_output</title>
<path fill="none" stroke="blue" stroke-width="2" d="M46.17,-595.69C54.31,-556.83 76.95,-464.23 119.25,-398 126,-387.42 135.25,-377.36 144.18,-368.9"/>
<polygon fill="blue" stroke="blue" stroke-width="2" points="145.25,-372.65 150.31,-363.35 140.55,-367.46 145.25,-372.65"/>
</g>
<!-- ip_output -->
<g id="node7" class="node">
<title>ip_output</title>
<ellipse fill="none" stroke="black" cx="858.59" cy="-622" rx="30.25" ry="18"/>
<text text-anchor="middle" x="858.59" y="-618.3" font-family="sans" font-size="11.00">ip_output</text>
</g>
<!-- control_input&#45;&gt;ip_output -->
<g id="edge6" class="edge">
<title>control_input&#45;&gt;ip_output</title>
<path fill="none" stroke="blue" stroke-width="2" d="M70.09,-627.52C142.43,-661.57 344.52,-746.62 517.63,-725 628.82,-711.12 655.89,-698.98 762.02,-663 783.07,-655.86 805.98,-646.1 824.1,-637.9"/>
<polygon fill="blue" stroke="blue" stroke-width="2" points="824.05,-641.77 831.67,-634.42 821.12,-635.41 824.05,-641.77"/>
</g>
<!-- arp_output_reply -->
<g id="node8" class="node">
<title>arp_output_reply</title>
<ellipse fill="none" stroke="black" cx="326.86" cy="-836" rx="53.41" ry="18"/>
<text text-anchor="middle" x="326.86" y="-832.3" font-family="sans" font-size="11.00">arp_output_reply</text>
</g>
<!-- control_input&#45;&gt;arp_output_reply -->
<g id="edge7" class="edge">
<title>control_input&#45;&gt;arp_output_reply</title>
<path fill="none" stroke="blue" stroke-width="2" d="M45.71,-632.15C52.53,-666.55 72.17,-741.32 119.25,-781 159.19,-814.67 217.67,-827.94 262.22,-833.07"/>
<polygon fill="blue" stroke="blue" stroke-width="2" points="260.2,-836.38 270.51,-833.92 260.92,-829.42 260.2,-836.38"/>
</g>
<!-- ip6_output -->
<g id="node9" class="node">
<title>ip6_output</title>
<ellipse fill="none" stroke="black" cx="858.59" cy="-365" rx="34.04" ry="18"/>
<text text-anchor="middle" x="858.59" y="-361.3" font-family="sans" font-size="11.00">ip6_output</text>
</g>
<!-- control_input&#45;&gt;ip6_output -->
<g id="edge8" class="edge">
<title>control_input&#45;&gt;ip6_output</title>
<path fill="none" stroke="blue" stroke-width="2" d="M57.65,-597.19C72,-582.22 94.97,-560.9 119.25,-549 281.74,-469.37 350.81,-535.12 517.63,-465 535.36,-457.55 535.97,-448.62 553.63,-441 640.9,-403.36 670.06,-417.04 762.02,-393 780.54,-388.16 800.92,-382.26 818.09,-377.14"/>
<polygon fill="blue" stroke="blue" stroke-width="2" points="817.39,-381 825.96,-374.77 815.37,-374.3 817.39,-381"/>
</g>
<!-- ip_input -->
<g id="node13" class="node">
<title>ip_input</title>
<ellipse fill="none" stroke="black" cx="326.86" cy="-576" rx="27" ry="18"/>
<text text-anchor="middle" x="326.86" y="-572.3" font-family="sans" font-size="11.00">ip_input</text>
</g>
<!-- loopback_input&#45;&gt;ip_input -->
<g id="edge13" class="edge">
<title>loopback_input&#45;&gt;ip_input</title>
<path fill="none" stroke="black" d="M222.14,-576C243.4,-576 268.2,-576 288.22,-576"/>
<polygon fill="black" stroke="black" points="288.18,-579.5 298.18,-576 288.18,-572.5 288.18,-579.5"/>
</g>
<!-- ip6_input -->
<g id="node14" class="node">
<title>ip6_input</title>
<ellipse fill="none" stroke="black" cx="326.86" cy="-425" rx="29.41" ry="18"/>
<text text-anchor="middle" x="326.86" y="-421.3" font-family="sans" font-size="11.00">ip6_input</text>
</g>
<!-- loopback_input&#45;&gt;ip6_input -->
<g id="edge14" class="edge">
<title>loopback_input&#45;&gt;ip6_input</title>
<path fill="none" stroke="black" d="M192.32,-558.97C219.3,-531.9 272.05,-478.98 302.55,-448.38"/>
<polygon fill="black" stroke="black" points="304.88,-451.01 309.46,-441.45 299.92,-446.06 304.88,-451.01"/>
</g>
<!-- eth_output -->
<g id="node15" class="node">
<title>eth_output</title>
<ellipse fill="none" stroke="black" cx="1011.95" cy="-729" rx="34.89" ry="18"/>
<text text-anchor="middle" x="1011.95" y="-725.3" font-family="sans" font-size="11.00">eth_output</text>
</g>
<!-- arp_output_request&#45;&gt;eth_output -->
<g id="edge22" class="edge">
<title>arp_output_request&#45;&gt;eth_output</title>
<path fill="none" stroke="black" d="M388.72,-782C442.97,-782 524.53,-782 595.51,-782 595.51,-782 595.51,-782 719.71,-782 810.58,-782 914.86,-756.72 970.68,-741.07"/>
<polygon fill="black" stroke="black" points="971.39,-744.51 980.05,-738.41 969.47,-737.78 971.39,-744.51"/>
</g>
<!-- icmp_output -->
<g id="node22" class="node">
<title>icmp_output</title>
<ellipse fill="none" stroke="black" cx="718.71" cy="-576" rx="39.52" ry="18"/>
<text text-anchor="middle" x="718.71" y="-572.3" font-family="sans" font-size="11.00">icmp_output</text>
</g>
<!-- icmp_local_send&#45;&gt;icmp_output -->
<g id="edge25" class="edge">
<title>icmp_local_send&#45;&gt;icmp_output</title>
<path fill="none" stroke="black" d="M377.51,-641.36C439.46,-636.12 548.33,-624.61 639.4,-603 651.93,-600.03 665.28,-595.83 677.35,-591.62"/>
<polygon fill="black" stroke="black" points="678.34,-594.98 686.57,-588.31 675.98,-588.4 678.34,-594.98"/>
</g>
<!-- icmp6_output -->
<g id="node30" class="node">
<title>icmp6_output</title>
<ellipse fill="none" stroke="black" cx="718.71" cy="-300" rx="43.31" ry="18"/>
<text text-anchor="middle" x="718.71" y="-296.3" font-family="sans" font-size="11.00">icmp6_output</text>
</g>
<!-- icmp6_local_send&#45;&gt;icmp6_output -->
<g id="edge45" class="edge">
<title>icmp6_local_send&#45;&gt;icmp6_output</title>
<path fill="none" stroke="black" d="M226.86,-243.89C330.08,-255.69 561.24,-282.11 665.24,-294"/>
<polygon fill="black" stroke="black" points="664.55,-297.45 674.88,-295.1 665.35,-290.49 664.55,-297.45"/>
</g>
<!-- ndp_ns_output&#45;&gt;icmp6_output -->
<g id="edge59" class="edge">
<title>ndp_ns_output&#45;&gt;icmp6_output</title>
<path fill="none" stroke="black" d="M219.86,-341.21C269.66,-336.98 352.74,-329.94 424.27,-324 508.32,-317.02 605.93,-309.07 664.7,-304.29"/>
<polygon fill="black" stroke="black" points="664.72,-307.8 674.41,-303.51 664.16,-300.83 664.72,-307.8"/>
</g>
<!-- ip_output&#45;&gt;eth_output -->
<g id="edge35" class="edge">
<title>ip_output&#45;&gt;eth_output</title>
<path fill="none" stroke="black" d="M879.07,-635.77C905,-654.1 951.11,-686.7 981.36,-708.08"/>
<polygon fill="black" stroke="black" points="979.16,-710.81 989.34,-713.73 983.2,-705.1 979.16,-710.81"/>
</g>
<!-- loopback_output -->
<g id="node17" class="node">
<title>loopback_output</title>
<ellipse fill="none" stroke="black" cx="1011.95" cy="-404" rx="52.15" ry="18"/>
<text text-anchor="middle" x="1011.95" y="-400.3" font-family="sans" font-size="11.00">loopback_output</text>
</g>
<!-- ip_output&#45;&gt;loopback_output -->
<g id="edge37" class="edge">
<title>ip_output&#45;&gt;loopback_output</title>
<path fill="none" stroke="black" d="M871.21,-605.26C897.27,-567.73 960.53,-476.62 992.21,-430.98"/>
<polygon fill="black" stroke="black" points="994.96,-433.16 997.79,-422.95 989.21,-429.17 994.96,-433.16"/>
</g>
<!-- ip_hold -->
<g id="node24" class="node">
<title>ip_hold</title>
<ellipse fill="none" stroke="black" cx="1011.95" cy="-560" rx="27" ry="18"/>
<text text-anchor="middle" x="1011.95" y="-556.3" font-family="sans" font-size="11.00">ip_hold</text>
</g>
<!-- ip_output&#45;&gt;ip_hold -->
<g id="edge36" class="edge">
<title>ip_output&#45;&gt;ip_hold</title>
<path fill="none" stroke="black" d="M884.24,-611.9C909.68,-601.48 949.52,-585.16 977.72,-573.61"/>
<polygon fill="black" stroke="black" points="978.95,-576.89 986.88,-569.86 976.3,-570.41 978.95,-576.89"/>
</g>
<!-- ipip_output -->
<g id="node28" class="node">
<title>ipip_output</title>
<ellipse fill="none" stroke="black" cx="1011.95" cy="-622" rx="35.73" ry="18"/>
<text text-anchor="middle" x="1011.95" y="-618.3" font-family="sans" font-size="11.00">ipip_output</text>
</g>
<!-- ip_output&#45;&gt;ipip_output -->
<g id="edge38" class="edge">
<title>ip_output&#45;&gt;ipip_output</title>
<path fill="none" stroke="black" d="M887.7,-616.61C909.8,-615.13 940.98,-614.86 966.46,-615.79"/>
<polygon fill="black" stroke="black" points="966.04,-619.27 976.19,-616.23 966.36,-612.28 966.04,-619.27"/>
</g>
<!-- arp_output_reply&#45;&gt;eth_output -->
<g id="edge21" class="edge">
<title>arp_output_reply&#45;&gt;eth_output</title>
<path fill="none" stroke="black" d="M380.16,-833.51C434.1,-831.16 520.67,-828 595.51,-828 595.51,-828 595.51,-828 719.71,-828 810.89,-828 834.21,-813.11 919.16,-780 940.32,-771.75 962.61,-759.46 979.93,-749.01"/>
<polygon fill="black" stroke="black" points="981.54,-752.13 988.22,-743.9 977.87,-746.17 981.54,-752.13"/>
</g>
<!-- ip6_output&#45;&gt;eth_output -->
<g id="edge53" class="edge">
<title>ip6_output&#45;&gt;eth_output</title>
<path fill="none" stroke="black" d="M883.62,-377.56C896.25,-385.44 910.81,-396.81 919.16,-411 973.4,-503.21 915.53,-549.63 955.16,-649 963.16,-669.06 977.04,-688.98 988.94,-703.93"/>
<polygon fill="black" stroke="black" points="986.02,-705.89 995.07,-711.39 991.42,-701.44 986.02,-705.89"/>
</g>
<!-- ip6_output&#45;&gt;loopback_output -->
<g id="edge55" class="edge">
<title>ip6_output&#45;&gt;loopback_output</title>
<path fill="none" stroke="black" d="M889.85,-372.8C909.43,-377.84 935.43,-384.54 958.32,-390.44"/>
<polygon fill="black" stroke="black" points="957.24,-393.78 967.8,-392.88 958.99,-387 957.24,-393.78"/>
</g>
<!-- ip6_hold -->
<g id="node35" class="node">
<title>ip6_hold</title>
<ellipse fill="none" stroke="black" cx="1011.95" cy="-319" rx="27" ry="18"/>
<text text-anchor="middle" x="1011.95" y="-315.3" font-family="sans" font-size="11.00">ip6_hold</text>
</g>
<!-- ip6_output&#45;&gt;ip6_hold -->
<g id="edge54" class="edge">
<title>ip6_output&#45;&gt;ip6_hold</title>
<path fill="none" stroke="black" d="M888.77,-356.13C913.73,-348.55 949.69,-337.62 976.14,-329.58"/>
<polygon fill="black" stroke="black" points="976.84,-333.02 985.39,-326.77 974.8,-326.33 976.84,-333.02"/>
</g>
<!-- control_output -->
<g id="node10" class="node">
<title>control_output</title>
<ellipse fill="none" stroke="black" cx="1150.98" cy="-225" rx="46.26" ry="18"/>
<text text-anchor="middle" x="1150.98" y="-221.3" font-family="sans" font-size="11.00">control_output</text>
</g>
<!-- eth_input -->
<g id="node11" class="node">
<title>eth_input</title>
<ellipse fill="none" stroke="black" cx="174.34" cy="-425" rx="30.25" ry="18"/>
<text text-anchor="middle" x="174.34" y="-421.3" font-family="sans" font-size="11.00">eth_input</text>
</g>
<!-- arp_input -->
<g id="node12" class="node">
<title>arp_input</title>
<ellipse fill="none" stroke="black" cx="858.59" cy="-56" rx="30.25" ry="18"/>
<text text-anchor="middle" x="858.59" y="-52.3" font-family="sans" font-size="11.00">arp_input</text>
</g>
<!-- eth_input&#45;&gt;arp_input -->
<g id="edge9" class="edge">
<title>eth_input&#45;&gt;arp_input</title>
<path fill="none" stroke="black" d="M191.84,-410.16C242.42,-365.33 401.17,-229.56 553.63,-151 604.39,-124.84 620.95,-127.23 675.4,-110 725.14,-94.26 782.95,-77.36 819.88,-66.74"/>
<polygon fill="black" stroke="black" points="820.54,-70.19 829.18,-64.07 818.61,-63.46 820.54,-70.19"/>
</g>
<!-- eth_input&#45;&gt;ip_input -->
<g id="edge10" class="edge">
<title>eth_input&#45;&gt;ip_input</title>
<path fill="none" stroke="black" d="M190.89,-440.59C217.52,-467.31 272.02,-521.99 303,-553.07"/>
<polygon fill="black" stroke="black" points="300.46,-555.48 310,-560.09 305.42,-550.54 300.46,-555.48"/>
</g>
<!-- eth_input&#45;&gt;ip6_input -->
<g id="edge11" class="edge">
<title>eth_input&#45;&gt;ip6_input</title>
<path fill="none" stroke="black" d="M205.08,-425C228.08,-425 260.17,-425 285.49,-425"/>
<polygon fill="black" stroke="black" points="285.44,-428.5 295.44,-425 285.44,-421.5 285.44,-428.5"/>
</g>
<!-- arp_input_request -->
<g id="node19" class="node">
<title>arp_input_request</title>
<ellipse fill="none" stroke="black" cx="1011.95" cy="-72" rx="56.78" ry="18"/>
<text text-anchor="middle" x="1011.95" y="-68.3" font-family="sans" font-size="11.00">arp_input_request</text>
</g>
<!-- arp_input&#45;&gt;arp_input_request -->
<g id="edge17" class="edge">
<title>arp_input&#45;&gt;arp_input_request</title>
<path fill="none" stroke="black" d="M888.77,-59.08C905.15,-60.82 926.27,-63.05 946.33,-65.17"/>
<polygon fill="black" stroke="black" points="945.83,-68.64 956.14,-66.21 946.57,-61.67 945.83,-68.64"/>
</g>
<!-- arp_input_reply -->
<g id="node20" class="node">
<title>arp_input_reply</title>
<ellipse fill="none" stroke="black" cx="1011.95" cy="-18" rx="48.78" ry="18"/>
<text text-anchor="middle" x="1011.95" y="-14.3" font-family="sans" font-size="11.00">arp_input_reply</text>
</g>
<!-- arp_input&#45;&gt;arp_input_reply -->
<g id="edge18" class="edge">
<title>arp_input&#45;&gt;arp_input_reply</title>
<path fill="none" stroke="black" d="M887,-49.12C907.31,-44.02 935.59,-36.92 960.01,-30.79"/>
<polygon fill="black" stroke="black" points="960.6,-34.25 969.45,-28.42 958.9,-27.46 960.6,-34.25"/>
</g>
<!-- ip_input&#45;&gt;ip_output -->
<g id="edge30" class="edge">
<title>ip_input&#45;&gt;ip_output</title>
<path fill="none" stroke="black" d="M353.6,-580.05C373,-583.03 400.27,-587.05 424.27,-590 568.13,-607.66 740.13,-616.84 817,-620.32"/>
<polygon fill="black" stroke="black" points="816.41,-623.79 826.56,-620.74 816.72,-616.8 816.41,-623.79"/>
</g>
<!-- ip_forward -->
<g id="node23" class="node">
<title>ip_forward</title>
<ellipse fill="none" stroke="black" cx="470.95" cy="-698" rx="33.62" ry="18"/>
<text text-anchor="middle" x="470.95" y="-694.3" font-family="sans" font-size="11.00">ip_forward</text>
</g>
<!-- ip_input&#45;&gt;ip_forward -->
<g id="edge29" class="edge">
<title>ip_input&#45;&gt;ip_forward</title>
<path fill="none" stroke="black" d="M347.23,-588.27C359.39,-596.26 375.19,-607.17 388.27,-618 409.37,-635.46 431.45,-657.33 447.32,-673.79"/>
<polygon fill="black" stroke="black" points="444.54,-675.94 453.98,-680.76 449.6,-671.11 444.54,-675.94"/>
</g>
<!-- ip_input_local -->
<g id="node25" class="node">
<title>ip_input_local</title>
<ellipse fill="none" stroke="black" cx="470.95" cy="-530" rx="42.89" ry="18"/>
<text text-anchor="middle" x="470.95" y="-526.3" font-family="sans" font-size="11.00">ip_input_local</text>
</g>
<!-- ip_input&#45;&gt;ip_input_local -->
<g id="edge31" class="edge">
<title>ip_input&#45;&gt;ip_input_local</title>
<path fill="none" stroke="black" d="M351.64,-568.3C371.72,-561.8 401,-552.32 425.41,-544.42"/>
<polygon fill="black" stroke="black" points="426.36,-547.79 434.8,-541.38 424.21,-541.13 426.36,-547.79"/>
</g>
<!-- ip6_input&#45;&gt;ip6_output -->
<g id="edge49" class="edge">
<title>ip6_input&#45;&gt;ip6_output</title>
<path fill="none" stroke="black" d="M342.89,-409.81C360.57,-393.13 391.67,-367.34 424.27,-357 562.19,-313.26 737.4,-339.74 816.06,-355.63"/>
<polygon fill="black" stroke="black" points="814.97,-358.98 825.47,-357.58 816.39,-352.13 814.97,-358.98"/>
</g>
<!-- ip6_forward -->
<g id="node34" class="node">
<title>ip6_forward</title>
<ellipse fill="none" stroke="black" cx="470.95" cy="-438" rx="37.41" ry="18"/>
<text text-anchor="middle" x="470.95" y="-434.3" font-family="sans" font-size="11.00">ip6_forward</text>
</g>
<!-- ip6_input&#45;&gt;ip6_forward -->
<g id="edge48" class="edge">
<title>ip6_input&#45;&gt;ip6_forward</title>
<path fill="none" stroke="black" d="M356.27,-427.6C375.15,-429.33 400.4,-431.64 422.31,-433.64"/>
<polygon fill="black" stroke="black" points="421.96,-437.12 432.24,-434.55 422.6,-430.15 421.96,-437.12"/>
</g>
<!-- ip6_input_local -->
<g id="node36" class="node">
<title>ip6_input_local</title>
<ellipse fill="none" stroke="black" cx="470.95" cy="-384" rx="46.68" ry="18"/>
<text text-anchor="middle" x="470.95" y="-380.3" font-family="sans" font-size="11.00">ip6_input_local</text>
</g>
<!-- ip6_input&#45;&gt;ip6_input_local -->
<g id="edge50" class="edge">
<title>ip6_input&#45;&gt;ip6_input_local</title>
<path fill="none" stroke="black" d="M353.92,-417.48C372.92,-412 399.22,-404.41 421.98,-397.84"/>
<polygon fill="black" stroke="black" points="422.72,-401.27 431.36,-395.13 420.78,-394.54 422.72,-401.27"/>
</g>
<!-- port_tx -->
<g id="node16" class="node">
<title>port_tx</title>
<ellipse fill="none" stroke="black" cx="1150.98" cy="-729" rx="27" ry="18"/>
<text text-anchor="middle" x="1150.98" y="-725.3" font-family="sans" font-size="11.00">port_tx</text>
</g>
<!-- eth_output&#45;&gt;port_tx -->
<g id="edge12" class="edge">
<title>eth_output&#45;&gt;port_tx</title>
<path fill="none" stroke="black" d="M1047.17,-729C1066.92,-729 1091.79,-729 1112.12,-729"/>
<polygon fill="black" stroke="black" points="1111.98,-732.5 1121.98,-729 1111.98,-725.5 1111.98,-732.5"/>
</g>
<!-- loopback_output&#45;&gt;control_output -->
<g id="edge15" class="edge">
<title>loopback_output&#45;&gt;control_output</title>
<path fill="none" stroke="black" d="M1030.87,-386.97C1042.24,-375.78 1056.98,-360.57 1068.73,-346 1093.3,-315.53 1117.84,-277.7 1133.42,-252.54"/>
<polygon fill="black" stroke="black" points="1136.29,-254.55 1138.54,-244.2 1130.33,-250.89 1136.29,-254.55"/>
</g>
<!-- port_rx -->
<g id="node18" class="node">
<title>port_rx</title>
<ellipse fill="none" stroke="blue" stroke-width="2" cx="41.62" cy="-425" rx="27" ry="18"/>
<text text-anchor="middle" x="41.62" y="-421.3" font-family="sans" font-size="11.00">port_rx</text>
</g>
<!-- port_rx&#45;&gt;eth_input -->
<g id="edge16" class="edge">
<title>port_rx&#45;&gt;eth_input</title>
<path fill="none" stroke="blue" stroke-width="2" d="M69.08,-425C87.25,-425 111.72,-425 132.4,-425"/>
<polygon fill="blue" stroke="blue" stroke-width="2" points="130.71,-428.5 140.71,-425 130.71,-421.5 130.71,-428.5"/>
</g>
<!-- arp_input_request&#45;&gt;control_output -->
<g id="edge20" class="edge">
<title>arp_input_request&#45;&gt;control_output</title>
<path fill="none" stroke="black" d="M1044.78,-86.93C1053.1,-91.69 1061.7,-97.45 1068.73,-104 1097.85,-131.14 1121.87,-170.62 1136.06,-197.02"/>
<polygon fill="black" stroke="black" points="1132.9,-198.55 1140.64,-205.78 1139.1,-195.3 1132.9,-198.55"/>
</g>
<!-- arp_input_reply&#45;&gt;control_output -->
<g id="edge19" class="edge">
<title>arp_input_reply&#45;&gt;control_output</title>
<path fill="none" stroke="black" d="M1048.15,-30.43C1055.6,-34.26 1062.95,-39.06 1068.73,-45 1110.78,-88.19 1133.4,-156.95 1143.44,-195.79"/>
<polygon fill="black" stroke="black" points="1140,-196.49 1145.8,-205.36 1146.8,-194.81 1140,-196.49"/>
</g>
<!-- icmp_input -->
<g id="node21" class="node">
<title>icmp_input</title>
<ellipse fill="none" stroke="black" cx="596.51" cy="-522" rx="34.89" ry="18"/>
<text text-anchor="middle" x="596.51" y="-518.3" font-family="sans" font-size="11.00">icmp_input</text>
</g>
<!-- icmp_input&#45;&gt;control_output -->
<g id="edge24" class="edge">
<title>icmp_input&#45;&gt;control_output</title>
<path fill="none" stroke="black" d="M631.04,-525.88C715.47,-533.7 939.28,-542.11 1068.73,-431 1122.04,-385.24 1140.65,-299.84 1146.93,-254.71"/>
<polygon fill="black" stroke="black" points="1150.39,-255.24 1148.17,-244.88 1143.44,-254.36 1150.39,-255.24"/>
</g>
<!-- icmp_input&#45;&gt;icmp_output -->
<g id="edge23" class="edge">
<title>icmp_input&#45;&gt;icmp_output</title>
<path fill="none" stroke="black" d="M623.59,-533.72C639.87,-541.03 661.11,-550.57 679.29,-558.74"/>
<polygon fill="black" stroke="black" points="677.65,-561.84 688.2,-562.74 680.51,-555.45 677.65,-561.84"/>
</g>
<!-- icmp_output&#45;&gt;ip_output -->
<g id="edge26" class="edge">
<title>icmp_output&#45;&gt;ip_output</title>
<path fill="none" stroke="black" d="M751.34,-586.55C772.06,-593.47 799.21,-602.52 820.88,-609.75"/>
<polygon fill="black" stroke="black" points="819.62,-613.02 830.21,-612.87 821.83,-606.38 819.62,-613.02"/>
</g>
<!-- ip_forward&#45;&gt;ip_output -->
<g id="edge27" class="edge">
<title>ip_forward&#45;&gt;ip_output</title>
<path fill="none" stroke="black" d="M502.86,-691.91C572.47,-678.19 741.47,-644.88 818.35,-629.73"/>
<polygon fill="black" stroke="black" points="818.81,-633.21 827.95,-627.84 817.46,-626.34 818.81,-633.21"/>
</g>
<!-- ip_hold&#45;&gt;control_output -->
<g id="edge28" class="edge">
<title>ip_hold&#45;&gt;control_output</title>
<path fill="none" stroke="black" d="M1034.3,-549.39C1046.06,-542.51 1060.01,-532.51 1068.73,-520 1127.31,-435.96 1143.74,-311.13 1148.28,-254.65"/>
<polygon fill="black" stroke="black" points="1151.76,-255.11 1148.99,-244.88 1144.78,-254.6 1151.76,-255.11"/>
</g>
<!-- ip_input_local&#45;&gt;icmp_input -->
<g id="edge32" class="edge">
<title>ip_input_local&#45;&gt;icmp_input</title>
<path fill="none" stroke="black" d="M513.78,-527.29C525.56,-526.53 538.42,-525.7 550.39,-524.92"/>
<polygon fill="black" stroke="black" points="550.25,-528.44 560,-524.3 549.8,-521.45 550.25,-528.44"/>
</g>
<!-- ipip_input -->
<g id="node26" class="node">
<title>ipip_input</title>
<ellipse fill="none" stroke="black" cx="596.51" cy="-576" rx="31.1" ry="18"/>
<text text-anchor="middle" x="596.51" y="-572.3" font-family="sans" font-size="11.00">ipip_input</text>
</g>
<!-- ip_input_local&#45;&gt;ipip_input -->
<g id="edge33" class="edge">
<title>ip_input_local&#45;&gt;ipip_input</title>
<path fill="none" stroke="black" d="M503.77,-541.85C520.71,-548.15 541.61,-555.93 559.18,-562.47"/>
<polygon fill="black" stroke="black" points="557.61,-565.62 568.2,-565.83 560.05,-559.06 557.61,-565.62"/>
</g>
<!-- l4_input_local -->
<g id="node27" class="node">
<title>l4_input_local</title>
<ellipse fill="none" stroke="black" cx="596.51" cy="-468" rx="42.89" ry="18"/>
<text text-anchor="middle" x="596.51" y="-464.3" font-family="sans" font-size="11.00">l4_input_local</text>
</g>
<!-- ip_input_local&#45;&gt;l4_input_local -->
<g id="edge34" class="edge">
<title>ip_input_local&#45;&gt;l4_input_local</title>
<path fill="none" stroke="black" d="M499.37,-516.24C516.65,-507.57 539.18,-496.26 558.09,-486.78"/>
<polygon fill="black" stroke="black" points="559.45,-490.01 566.82,-482.4 556.31,-483.76 559.45,-490.01"/>
</g>
<!-- ipip_input&#45;&gt;ip_input -->
<g id="edge61" class="edge">
<title>ipip_input&#45;&gt;ip_input</title>
<path fill="none" stroke="black" d="M565.18,-576C515.96,-576 418.83,-576 365.35,-576"/>
<polygon fill="black" stroke="black" points="365.52,-572.5 355.52,-576 365.52,-579.5 365.52,-572.5"/>
</g>
<!-- l4_loopback_output -->
<g id="node37" class="node">
<title>l4_loopback_output</title>
<ellipse fill="none" stroke="black" cx="858.59" cy="-438" rx="60.57" ry="18"/>
<text text-anchor="middle" x="858.59" y="-434.3" font-family="sans" font-size="11.00">l4_loopback_output</text>
</g>
<!-- l4_input_local&#45;&gt;l4_loopback_output -->
<g id="edge63" class="edge">
<title>l4_input_local&#45;&gt;l4_loopback_output</title>
<path fill="none" stroke="black" d="M638.44,-463.28C679.09,-458.59 742.14,-451.32 790.2,-445.77"/>
<polygon fill="black" stroke="black" points="790.41,-449.27 799.94,-444.65 789.61,-442.32 790.41,-449.27"/>
</g>
<!-- ipip_output&#45;&gt;ip_output -->
<g id="edge62" class="edge">
<title>ipip_output&#45;&gt;ip_output</title>
<path fill="none" stroke="black" d="M977.7,-627.7C954.54,-628.99 923.54,-629.09 899.11,-628.01"/>
<polygon fill="black" stroke="black" points="899.39,-624.52 889.21,-627.47 899.01,-631.51 899.39,-624.52"/>
</g>
<!-- icmp6_input -->
<g id="node29" class="node">
<title>icmp6_input</title>
<ellipse fill="none" stroke="black" cx="596.51" cy="-178" rx="38.68" ry="18"/>
<text text-anchor="middle" x="596.51" y="-174.3" font-family="sans" font-size="11.00">icmp6_input</text>
</g>
<!-- icmp6_input&#45;&gt;control_output -->
<g id="edge43" class="edge">
<title>icmp6_input&#45;&gt;control_output</title>
<path fill="none" stroke="black" d="M632.64,-170.87C645.97,-168.5 661.33,-166.17 675.4,-165 713.76,-161.82 723.61,-162.38 762.02,-165 899.29,-174.35 933.29,-182.77 1068.73,-207 1078.86,-208.81 1089.65,-211.01 1099.93,-213.24"/>
<polygon fill="black" stroke="black" points="1098.85,-216.58 1109.37,-215.32 1100.36,-209.75 1098.85,-216.58"/>
</g>
<!-- icmp6_input&#45;&gt;icmp6_output -->
<g id="edge39" class="edge">
<title>icmp6_input&#45;&gt;icmp6_output</title>
<path fill="none" stroke="black" d="M619.8,-192.45C626.58,-197.49 633.74,-203.53 639.4,-210 660.64,-234.27 653.16,-249.65 675.4,-273 677.4,-275.1 679.59,-277.11 681.89,-279.01"/>
<polygon fill="black" stroke="black" points="679.8,-281.82 689.93,-284.94 683.96,-276.19 679.8,-281.82"/>
</g>
<!-- ndp_ns_input -->
<g id="node31" class="node">
<title>ndp_ns_input</title>
<ellipse fill="none" stroke="black" cx="718.71" cy="-246" rx="41.62" ry="18"/>
<text text-anchor="middle" x="718.71" y="-242.3" font-family="sans" font-size="11.00">ndp_ns_input</text>
</g>
<!-- icmp6_input&#45;&gt;ndp_ns_input -->
<g id="edge40" class="edge">
<title>icmp6_input&#45;&gt;ndp_ns_input</title>
<path fill="none" stroke="black" d="M622.13,-191.92C639.48,-201.74 662.97,-215.03 682.33,-225.98"/>
<polygon fill="black" stroke="black" points="680.56,-229 690.98,-230.88 684,-222.91 680.56,-229"/>
</g>
<!-- ndp_na_input -->
<g id="node32" class="node">
<title>ndp_na_input</title>
<ellipse fill="none" stroke="black" cx="858.59" cy="-110" rx="42.04" ry="18"/>
<text text-anchor="middle" x="858.59" y="-106.3" font-family="sans" font-size="11.00">ndp_na_input</text>
</g>
<!-- icmp6_input&#45;&gt;ndp_na_input -->
<g id="edge41" class="edge">
<title>icmp6_input&#45;&gt;ndp_na_input</title>
<path fill="none" stroke="black" d="M617.85,-162.8C632.93,-152.34 654.43,-139.11 675.4,-132 717.65,-117.68 768.18,-112.44 805.3,-110.64"/>
<polygon fill="black" stroke="black" points="805.01,-114.15 814.85,-110.24 804.72,-107.16 805.01,-114.15"/>
</g>
<!-- ndp_rs_input -->
<g id="node33" class="node">
<title>ndp_rs_input</title>
<ellipse fill="none" stroke="black" cx="718.71" cy="-192" rx="40.36" ry="18"/>
<text text-anchor="middle" x="718.71" y="-188.3" font-family="sans" font-size="11.00">ndp_rs_input</text>
</g>
<!-- icmp6_input&#45;&gt;ndp_rs_input -->
<g id="edge42" class="edge">
<title>icmp6_input&#45;&gt;ndp_rs_input</title>
<path fill="none" stroke="black" d="M634.56,-182.31C645.1,-183.54 656.77,-184.9 667.94,-186.2"/>
<polygon fill="black" stroke="black" points="667.49,-189.67 677.83,-187.36 668.3,-182.72 667.49,-189.67"/>
</g>
<!-- icmp6_output&#45;&gt;ip6_output -->
<g id="edge44" class="edge">
<title>icmp6_output&#45;&gt;ip6_output</title>
<path fill="none" stroke="black" d="M748.28,-313.47C769.66,-323.55 799.04,-337.4 821.96,-348.2"/>
<polygon fill="black" stroke="black" points="820.4,-351.34 830.93,-352.43 823.38,-345 820.4,-351.34"/>
</g>
<!-- ndp_ns_input&#45;&gt;ip6_output -->
<g id="edge57" class="edge">
<title>ndp_ns_input&#45;&gt;ip6_output</title>
<path fill="none" stroke="black" d="M744.44,-260.62C750.35,-264.43 756.54,-268.69 762.02,-273 788.53,-293.89 816.01,-321.01 834.66,-340.38"/>
<polygon fill="black" stroke="black" points="832.1,-342.77 841.53,-347.59 837.16,-337.94 832.1,-342.77"/>
</g>
<!-- ndp_ns_input&#45;&gt;control_output -->
<g id="edge58" class="edge">
<title>ndp_ns_input&#45;&gt;control_output</title>
<path fill="none" stroke="black" d="M760.58,-244.01C837.77,-240.24 1005.15,-232.07 1093.21,-227.77"/>
<polygon fill="black" stroke="black" points="1093.24,-231.27 1103.06,-227.29 1092.9,-224.28 1093.24,-231.27"/>
</g>
<!-- ndp_na_input&#45;&gt;control_output -->
<g id="edge56" class="edge">
<title>ndp_na_input&#45;&gt;control_output</title>
<path fill="none" stroke="black" d="M900.84,-108.78C944.8,-109.14 1015.29,-114.59 1068.73,-142 1094.36,-155.15 1116.69,-179.47 1131.42,-198.4"/>
<polygon fill="black" stroke="black" points="1128.5,-200.34 1137.31,-206.24 1134.1,-196.14 1128.5,-200.34"/>
</g>
<!-- ndp_rs_input&#45;&gt;control_output -->
<g id="edge60" class="edge">
<title>ndp_rs_input&#45;&gt;control_output</title>
<path fill="none" stroke="black" d="M758.65,-194.99C835.07,-200.85 1004.94,-213.88 1093.62,-220.68"/>
<polygon fill="black" stroke="black" points="1093.31,-224.16 1103.55,-221.44 1093.84,-217.18 1093.31,-224.16"/>
</g>
<!-- ip6_forward&#45;&gt;ip6_output -->
<g id="edge46" class="edge">
<title>ip6_forward&#45;&gt;ip6_output</title>
<path fill="none" stroke="black" d="M499.84,-426.09C515.41,-419.86 535.31,-412.6 553.63,-408 644.49,-385.16 753.88,-373.41 813.52,-368.29"/>
<polygon fill="black" stroke="black" points="813.58,-371.8 823.26,-367.48 813,-364.82 813.58,-371.8"/>
</g>
<!-- ip6_hold&#45;&gt;control_output -->
<g id="edge47" class="edge">
<title>ip6_hold&#45;&gt;control_output</title>
<path fill="none" stroke="black" d="M1031.43,-306.32C1053.55,-291.15 1090.97,-265.48 1117.86,-247.03"/>
<polygon fill="black" stroke="black" points="1119.73,-250 1126,-241.45 1115.77,-244.22 1119.73,-250"/>
</g>
<!-- ip6_input_local&#45;&gt;l4_input_local -->
<g id="edge52" class="edge">
<title>ip6_input_local&#45;&gt;l4_input_local</title>
<path fill="none" stroke="black" d="M498.31,-398.99C504.71,-402.79 511.47,-406.94 517.63,-411 534.04,-421.82 551.76,-434.69 566.15,-445.46"/>
<polygon fill="black" stroke="black" points="563.78,-448.06 573.87,-451.28 567.99,-442.47 563.78,-448.06"/>
</g>
<!-- ip6_input_local&#45;&gt;icmp6_input -->
<g id="edge51" class="edge">
<title>ip6_input_local&#45;&gt;icmp6_input</title>
<path fill="none" stroke="black" d="M482.49,-366.44C504.05,-330.48 553.37,-248.27 579.14,-205.3"/>
<polygon fill="black" stroke="black" points="582.08,-207.19 584.23,-196.82 576.08,-203.59 582.08,-207.19"/>
</g>
<!-- l4_loopback_output&#45;&gt;loopback_output -->
<g id="edge64" class="edge">
<title>l4_loopback_output&#45;&gt;loopback_output</title>
<path fill="none" stroke="black" d="M907.9,-427.15C923.28,-423.69 940.41,-419.84 956.22,-416.29"/>
<polygon fill="black" stroke="black" points="956.98,-419.71 965.97,-414.1 955.45,-412.88 956.98,-419.71"/>
</g>
</g>
</svg>
