<?xml version="1.0" encoding="UTF-8" standalone="no"?>
<!DOCTYPE svg PUBLIC "-//W3C//DTD SVG 1.1//EN"
 "http://www.w3.org/Graphics/SVG/1.1/DTD/svg11.dtd">
<!-- Generated by graphviz version 2.44.0 (0)
 -->
<!-- Title: gr&#45;0&#45;0002&#45;dplane Pages: 1 -->
<svg width="1836pt" height="800pt"
 viewBox="0.00 0.00 1836.06 800.00" xmlns="http://www.w3.org/2000/svg" xmlns:xlink="http://www.w3.org/1999/xlink">
<g id="graph0" class="graph" transform="scale(1 1) rotate(0) translate(4 796)">
<title>gr&#45;0&#45;0002&#45;dplane</title>
<polygon fill="white" stroke="transparent" points="-4,4 -4,-796 1832.06,-796 1832.06,4 -4,4"/>
<!-- control_input -->
<g id="node1" class="node">
<title>control_input</title>
<ellipse fill="none" stroke="blue" stroke-width="2" cx="40.16" cy="-209" rx="40.32" ry="18"/>
<text text-anchor="middle" x="40.16" y="-206.2" font-family="sans" font-size="11.00">control_input</text>
</g>
<!-- loopback_input -->
<g id="node2" class="node">
<title>loopback_input</title>
<ellipse fill="none" stroke="black" cx="161.91" cy="-329" rx="45.68" ry="18"/>
<text text-anchor="middle" x="161.91" y="-326.2" font-family="sans" font-size="11.00">loopback_input</text>
</g>
<!-- control_input&#45;&gt;loopback_input -->
<g id="edge1" class="edge">
<title>control_input&#45;&gt;loopback_input</title>
<path fill="none" stroke="blue" stroke-width="2" d="M57.81,-225.69C78.34,-246.26 113.38,-281.37 136.84,-304.88"/>
<polygon fill="blue" stroke="blue" stroke-width="2" points="134.47,-307.46 144.02,-312.07 139.43,-302.52 134.47,-307.46"/>
</g>
<!-- arp_output_request -->
<g id="node3" class="node">
<title>arp_output_request</title>
<ellipse fill="none" stroke="black" cx="1213.52" cy="-654" rx="59.31" ry="18"/>
<text text-anchor="middle" x="1213.52" y="-651.2" font-family="sans" font-size="11.00">arp_output_request</text>
</g>
<!-- control_input&#45;&gt;arp_output_request -->
<g id="edge2" class="edge">
<title>control_input&#45;&gt;arp_output_request</title>
<path fill="none" stroke="blue" stroke-width="2" d="M42.82,-227.22C51.44,-309.93 98.58,-646 295.69,-646 295.69,-646 295.69,-646 947.14,-646 1014.37,-646 1091.13,-648.6 1144.74,-650.83"/>
<polygon fill="blue" stroke="blue" stroke-width="2" points="1144.67,-654.33 1154.81,-651.26 1144.97,-647.34 1144.67,-654.33"/>
</g>
<!-- icmp_local_send -->
<g id="node4" class="node">
<title>icmp_local_send</title>
<ellipse fill="none" stroke="black" cx="686.36" cy="-600" rx="49.28" ry="18"/>
<text text-anchor="middle" x="686.36" y="-597.2" font-family="sans" font-size="11.00">icmp_local_send</text>
</g>
<!-- control_input&#45;&gt;icmp_local_send -->
<g id="edge3" class="edge">
<title>control_input&#45;&gt;icmp_local_send</title>
<path fill="none" stroke="blue" stroke-width="2" d="M45.92,-226.82C54.87,-257.17 76.95,-319.2 116.32,-356 270.53,-500.13 522.98,-566.71 632.22,-589.91"/>
<polygon fill="blue" stroke="blue" stroke-width="2" points="631.52,-593.34 642.02,-591.96 632.95,-586.49 631.52,-593.34"/>
</g>
<!-- icmp6_local_send -->
<g id="node5" class="node">
<title>icmp6_local_send</title>
<ellipse fill="none" stroke="black" cx="296.69" cy="-113" rx="53.37" ry="18"/>
<text text-anchor="middle" x="296.69" y="-110.2" font-family="sans" font-size="11.00">icmp6_local_send</text>
</g>
<!-- control_input&#45;&gt;icmp6_local_send -->
<g id="edge4" class="edge">
<title>control_input&#45;&gt;icmp6_local_send</title>
<path fill="none" stroke="blue" stroke-width="2" d="M56.49,-192.3C70.62,-177.99 92.89,-157.99 116.32,-147 153.15,-129.73 198.13,-121.23 233.83,-117.05"/>
<polygon fill="blue" stroke="blue" stroke-width="2" points="234.55,-120.49 244.11,-115.93 233.79,-113.53 234.55,-120.49"/>
</g>
<!-- ndp_ns_output -->
<g id="node6" class="node">
<title>ndp_ns_output</title>
<ellipse fill="none" stroke="black" cx="430.38" cy="-62" rx="44.51" ry="18"/>
<text text-anchor="middle" x="430.38" y="-59.2" font-family="sans" font-size="11.00">ndp_ns_output</text>
</g>
<!-- control_input&#45;&gt;ndp_ns_output -->
<g id="edge5" class="edge">
<title>control_input&#45;&gt;ndp_ns_output</title>
<path fill="none" stroke="blue" stroke-width="2" d="M50.65,-191.53C62.97,-170.54 86.49,-135.81 116.32,-117 196.41,-66.51 309.76,-58.99 375.82,-59.53"/>
<polygon fill="blue" stroke="blue" stroke-width="2" points="375.95,-63.03 386,-59.68 376.05,-56.03 375.95,-63.03"/>
</g>
<!-- ip6_output -->
<g id="node7" class="node">
<title>ip6_output</title>
<ellipse fill="none" stroke="black" cx="1514" cy="-287" rx="32.63" ry="18"/>
<text text-anchor="middle" x="1514" y="-284.2" font-family="sans" font-size="11.00">ip6_output</text>
</g>
<!-- control_input&#45;&gt;ip6_output -->
<g id="edge6" class="edge">
<title>control_input&#45;&gt;ip6_output</title>
<path fill="none" stroke="blue" stroke-width="2" d="M78.26,-202.87C127.81,-200 218.36,-200 295.69,-200 295.69,-200 295.69,-200 947.14,-200 1149.13,-200 1387.92,-249.38 1477.08,-274.09"/>
<polygon fill="blue" stroke="blue" stroke-width="2" points="1476.37,-277.53 1486.95,-276.91 1478.29,-270.8 1476.37,-277.53"/>
</g>
<!-- control_input&#45;&gt;ip6_output -->
<g id="edge8" class="edge">
<title>control_input&#45;&gt;ip6_output</title>
<path fill="none" stroke="blue" stroke-width="2" d="M78.26,-215.13C127.81,-218 218.36,-218 295.69,-218 295.69,-218 295.69,-218 947.14,-218 1145.28,-218 1378.82,-265.51 1471.81,-282.09"/>
<polygon fill="blue" stroke="blue" stroke-width="2" points="1471.47,-285.59 1481.93,-283.87 1472.68,-278.69 1471.47,-285.59"/>
</g>
<!-- ndp_na_output -->
<g id="node8" class="node">
<title>ndp_na_output</title>
<ellipse fill="none" stroke="black" cx="555.92" cy="-154" rx="45.09" ry="18"/>
<text text-anchor="middle" x="555.92" y="-151.2" font-family="sans" font-size="11.00">ndp_na_output</text>
</g>
<!-- control_input&#45;&gt;ndp_na_output -->
<g id="edge7" class="edge">
<title>control_input&#45;&gt;ndp_na_output</title>
<path fill="none" stroke="blue" stroke-width="2" d="M71.85,-197.9C85.33,-193.48 101.43,-188.78 116.32,-186 253.02,-160.43 417.25,-155.05 500.62,-154.07"/>
<polygon fill="blue" stroke="blue" stroke-width="2" points="500.65,-157.57 510.62,-153.97 500.58,-150.57 500.65,-157.57"/>
</g>
<!-- ip_input -->
<g id="node12" class="node">
<title>ip_input</title>
<ellipse fill="none" stroke="black" cx="555.92" cy="-463" rx="27" ry="18"/>
<text text-anchor="middle" x="555.92" y="-460.2" font-family="sans" font-size="11.00">ip_input</text>
</g>
<!-- loopback_input&#45;&gt;ip_input -->
<g id="edge14" class="edge">
<title>loopback_input&#45;&gt;ip_input</title>
<path fill="none" stroke="black" d="M193.57,-342.1C236.22,-360.06 316.1,-392.75 385.87,-416 431.84,-431.31 485.94,-445.74 520.33,-454.47"/>
<polygon fill="black" stroke="black" points="519.78,-457.94 530.34,-456.99 521.49,-451.16 519.78,-457.94"/>
</g>
<!-- ip6_input -->
<g id="node13" class="node">
<title>ip6_input</title>
<ellipse fill="none" stroke="black" cx="296.69" cy="-329" rx="28.44" ry="18"/>
<text text-anchor="middle" x="296.69" y="-326.2" font-family="sans" font-size="11.00">ip6_input</text>
</g>
<!-- loopback_input&#45;&gt;ip6_input -->
<g id="edge15" class="edge">
<title>loopback_input&#45;&gt;ip6_input</title>
<path fill="none" stroke="black" d="M207.86,-329C224.12,-329 242.3,-329 257.89,-329"/>
<polygon fill="black" stroke="black" points="258.21,-332.5 268.21,-329 258.21,-325.5 258.21,-332.5"/>
</g>
<!-- eth_output -->
<g id="node14" class="node">
<title>eth_output</title>
<ellipse fill="none" stroke="black" cx="1652.58" cy="-662" rx="33.8" ry="18"/>
<text text-anchor="middle" x="1652.58" y="-659.2" font-family="sans" font-size="11.00">eth_output</text>
</g>
<!-- arp_output_request&#45;&gt;eth_output -->
<g id="edge27" class="edge">
<title>arp_output_request&#45;&gt;eth_output</title>
<path fill="none" stroke="black" d="M1273.01,-655.07C1362.17,-656.7 1529.99,-659.77 1608.74,-661.22"/>
<polygon fill="black" stroke="black" points="1608.73,-664.72 1618.79,-661.4 1608.86,-657.72 1608.73,-664.72"/>
</g>
<!-- icmp_output -->
<g id="node29" class="node">
<title>icmp_output</title>
<ellipse fill="none" stroke="black" cx="1077.66" cy="-466" rx="37.98" ry="18"/>
<text text-anchor="middle" x="1077.66" y="-463.2" font-family="sans" font-size="11.00">icmp_output</text>
</g>
<!-- icmp_local_send&#45;&gt;icmp_output -->
<g id="edge31" class="edge">
<title>icmp_local_send&#45;&gt;icmp_output</title>
<path fill="none" stroke="black" d="M723.16,-587.96C781.45,-568.33 900.47,-528.06 1000.95,-493 1012.79,-488.87 1025.64,-484.31 1037.34,-480.14"/>
<polygon fill="black" stroke="black" points="1038.61,-483.4 1046.85,-476.74 1036.25,-476.81 1038.61,-483.4"/>
</g>
<!-- icmp6_output -->
<g id="node36" class="node">
<title>icmp6_output</title>
<ellipse fill="none" stroke="black" cx="813.54" cy="-148" rx="41.58" ry="18"/>
<text text-anchor="middle" x="813.54" y="-145.2" font-family="sans" font-size="11.00">icmp6_output</text>
</g>
<!-- icmp6_local_send&#45;&gt;icmp6_output -->
<g id="edge52" class="edge">
<title>icmp6_local_send&#45;&gt;icmp6_output</title>
<path fill="none" stroke="black" d="M349.79,-114.57C410.25,-116.58 512.91,-120.6 600.97,-127 656.41,-131.03 719.83,-137.58 762.66,-142.3"/>
<polygon fill="black" stroke="black" points="762.49,-145.8 772.82,-143.43 763.26,-138.84 762.49,-145.8"/>
</g>
<!-- ndp_ns_output&#45;&gt;icmp6_output -->
<g id="edge68" class="edge">
<title>ndp_ns_output&#45;&gt;icmp6_output</title>
<path fill="none" stroke="black" d="M474.77,-59.84C535.26,-58.3 647.44,-60.88 735.75,-94 746.11,-97.89 767.08,-112.84 784.49,-126.03"/>
<polygon fill="black" stroke="black" points="782.62,-129.01 792.69,-132.31 786.88,-123.45 782.62,-129.01"/>
</g>
<!-- ip6_output&#45;&gt;eth_output -->
<g id="edge61" class="edge">
<title>ip6_output&#45;&gt;eth_output</title>
<path fill="none" stroke="black" d="M1521.41,-304.58C1543.27,-364.61 1615.05,-561.7 1641.59,-634.58"/>
<polygon fill="black" stroke="black" points="1638.32,-635.82 1645.03,-644.02 1644.9,-633.42 1638.32,-635.82"/>
</g>
<!-- loopback_output -->
<g id="node17" class="node">
<title>loopback_output</title>
<ellipse fill="none" stroke="black" cx="1652.58" cy="-215" rx="50.45" ry="18"/>
<text text-anchor="middle" x="1652.58" y="-212.2" font-family="sans" font-size="11.00">loopback_output</text>
</g>
<!-- ip6_output&#45;&gt;loopback_output -->
<g id="edge63" class="edge">
<title>ip6_output&#45;&gt;loopback_output</title>
<path fill="none" stroke="black" d="M1538.17,-274.79C1559.09,-263.76 1590.24,-247.34 1614.6,-234.5"/>
<polygon fill="black" stroke="black" points="1616.35,-237.53 1623.57,-229.77 1613.09,-231.33 1616.35,-237.53"/>
</g>
<!-- sr6_output -->
<g id="node34" class="node">
<title>sr6_output</title>
<ellipse fill="none" stroke="black" cx="1367.29" cy="-394" rx="33.21" ry="18"/>
<text text-anchor="middle" x="1367.29" y="-391.2" font-family="sans" font-size="11.00">sr6_output</text>
</g>
<!-- ip6_output&#45;&gt;sr6_output -->
<g id="edge64" class="edge">
<title>ip6_output&#45;&gt;sr6_output</title>
<path fill="none" stroke="black" d="M1501.79,-303.96C1485.77,-322.36 1455.04,-350.68 1425.9,-371 1420.1,-375.05 1413.74,-379 1407.43,-382.55"/>
<polygon fill="black" stroke="black" points="1405.48,-379.63 1398.3,-387.42 1408.77,-385.81 1405.48,-379.63"/>
</g>
<!-- ip6_hold -->
<g id="node41" class="node">
<title>ip6_hold</title>
<ellipse fill="none" stroke="black" cx="1652.58" cy="-281" rx="27" ry="18"/>
<text text-anchor="middle" x="1652.58" y="-278.2" font-family="sans" font-size="11.00">ip6_hold</text>
</g>
<!-- ip6_output&#45;&gt;ip6_hold -->
<g id="edge62" class="edge">
<title>ip6_output&#45;&gt;ip6_hold</title>
<path fill="none" stroke="black" d="M1546.68,-285.61C1567.27,-284.7 1594.16,-283.52 1615.56,-282.58"/>
<polygon fill="black" stroke="black" points="1615.73,-286.08 1625.57,-282.14 1615.42,-279.09 1615.73,-286.08"/>
</g>
<!-- ndp_na_output&#45;&gt;icmp6_output -->
<g id="edge66" class="edge">
<title>ndp_na_output&#45;&gt;icmp6_output</title>
<path fill="none" stroke="black" d="M601.16,-152.96C645.79,-151.91 714.64,-150.3 761.55,-149.2"/>
<polygon fill="black" stroke="black" points="761.88,-152.69 771.79,-148.96 761.72,-145.69 761.88,-152.69"/>
</g>
<!-- control_output -->
<g id="node9" class="node">
<title>control_output</title>
<ellipse fill="none" stroke="black" cx="1783.55" cy="-110" rx="44.51" ry="18"/>
<text text-anchor="middle" x="1783.55" y="-107.2" font-family="sans" font-size="11.00">control_output</text>
</g>
<!-- eth_input -->
<g id="node10" class="node">
<title>eth_input</title>
<ellipse fill="none" stroke="black" cx="161.91" cy="-692" rx="29.12" ry="18"/>
<text text-anchor="middle" x="161.91" y="-689.2" font-family="sans" font-size="11.00">eth_input</text>
</g>
<!-- arp_input -->
<g id="node11" class="node">
<title>arp_input</title>
<ellipse fill="none" stroke="black" cx="813.54" cy="-692" rx="29.12" ry="18"/>
<text text-anchor="middle" x="813.54" y="-689.2" font-family="sans" font-size="11.00">arp_input</text>
</g>
<!-- eth_input&#45;&gt;arp_input -->
<g id="edge9" class="edge">
<title>eth_input&#45;&gt;arp_input</title>
<path fill="none" stroke="black" d="M191.31,-692C240.01,-692 342.64,-692 429.38,-692 429.38,-692 429.38,-692 556.92,-692 633.98,-692 724.11,-692 774.12,-692"/>
<polygon fill="black" stroke="black" points="774.17,-695.5 784.17,-692 774.17,-688.5 774.17,-695.5"/>
</g>
<!-- eth_input&#45;&gt;ip_input -->
<g id="edge10" class="edge">
<title>eth_input&#45;&gt;ip_input</title>
<path fill="none" stroke="black" d="M183.71,-679.85C249.13,-641.63 450.84,-523.8 526.16,-479.8"/>
<polygon fill="black" stroke="black" points="528.25,-482.64 535.11,-474.57 524.71,-476.59 528.25,-482.64"/>
</g>
<!-- eth_input&#45;&gt;ip6_input -->
<g id="edge11" class="edge">
<title>eth_input&#45;&gt;ip6_input</title>
<path fill="none" stroke="black" d="M169.32,-674.49C190.69,-616.04 259.72,-427.34 285.68,-356.35"/>
<polygon fill="black" stroke="black" points="289.04,-357.35 289.19,-346.76 282.47,-354.95 289.04,-357.35"/>
</g>
<!-- arp_input_request -->
<g id="node23" class="node">
<title>arp_input_request</title>
<ellipse fill="none" stroke="black" cx="946.14" cy="-692" rx="54.63" ry="18"/>
<text text-anchor="middle" x="946.14" y="-689.2" font-family="sans" font-size="11.00">arp_input_request</text>
</g>
<!-- arp_input&#45;&gt;arp_input_request -->
<g id="edge22" class="edge">
<title>arp_input&#45;&gt;arp_input_request</title>
<path fill="none" stroke="black" d="M842.87,-692C854.17,-692 867.67,-692 881.1,-692"/>
<polygon fill="black" stroke="black" points="881.32,-695.5 891.32,-692 881.32,-688.5 881.32,-695.5"/>
</g>
<!-- arp_input_reply -->
<g id="node24" class="node">
<title>arp_input_reply</title>
<ellipse fill="none" stroke="black" cx="946.14" cy="-746" rx="47.43" ry="18"/>
<text text-anchor="middle" x="946.14" y="-743.2" font-family="sans" font-size="11.00">arp_input_reply</text>
</g>
<!-- arp_input&#45;&gt;arp_input_reply -->
<g id="edge23" class="edge">
<title>arp_input&#45;&gt;arp_input_reply</title>
<path fill="none" stroke="black" d="M838.19,-701.78C856.5,-709.35 882.31,-720.02 903.99,-728.99"/>
<polygon fill="black" stroke="black" points="902.73,-732.25 913.31,-732.84 905.4,-725.78 902.73,-732.25"/>
</g>
<!-- ip_output -->
<g id="node20" class="node">
<title>ip_output</title>
<ellipse fill="none" stroke="black" cx="1213.52" cy="-512" rx="29.12" ry="18"/>
<text text-anchor="middle" x="1213.52" y="-509.2" font-family="sans" font-size="11.00">ip_output</text>
</g>
<!-- ip_input&#45;&gt;ip_output -->
<g id="edge36" class="edge">
<title>ip_input&#45;&gt;ip_output</title>
<path fill="none" stroke="black" d="M574.35,-476.54C589.92,-487.97 613.79,-503.89 636.97,-513 693.75,-535.31 711.02,-533.2 771.75,-539 920.81,-553.25 1098.98,-530.04 1175.08,-518.23"/>
<polygon fill="black" stroke="black" points="1175.8,-521.66 1185.13,-516.65 1174.71,-514.75 1175.8,-521.66"/>
</g>
<!-- dnat44 -->
<g id="node25" class="node">
<title>dnat44</title>
<ellipse fill="none" stroke="black" cx="686.36" cy="-432" rx="27" ry="18"/>
<text text-anchor="middle" x="686.36" y="-429.2" font-family="sans" font-size="11.00">dnat44</text>
</g>
<!-- ip_input&#45;&gt;dnat44 -->
<g id="edge38" class="edge">
<title>ip_input&#45;&gt;dnat44</title>
<path fill="none" stroke="black" d="M581.69,-457.02C601.32,-452.28 628.99,-445.61 650.8,-440.34"/>
<polygon fill="black" stroke="black" points="651.77,-443.71 660.67,-437.96 650.13,-436.9 651.77,-443.71"/>
</g>
<!-- ip_forward -->
<g id="node26" class="node">
<title>ip_forward</title>
<ellipse fill="none" stroke="black" cx="813.54" cy="-512" rx="32.63" ry="18"/>
<text text-anchor="middle" x="813.54" y="-509.2" font-family="sans" font-size="11.00">ip_forward</text>
</g>
<!-- ip_input&#45;&gt;ip_forward -->
<g id="edge35" class="edge">
<title>ip_input&#45;&gt;ip_forward</title>
<path fill="none" stroke="black" d="M578.93,-472.55C594.77,-479.04 616.82,-487.27 636.97,-492 681.96,-502.56 734.79,-507.62 770.65,-509.99"/>
<polygon fill="black" stroke="black" points="770.56,-513.49 780.76,-510.62 770.99,-506.5 770.56,-513.49"/>
</g>
<!-- ip_input_local -->
<g id="node27" class="node">
<title>ip_input_local</title>
<ellipse fill="none" stroke="black" cx="813.54" cy="-412" rx="41.49" ry="18"/>
<text text-anchor="middle" x="813.54" y="-409.2" font-family="sans" font-size="11.00">ip_input_local</text>
</g>
<!-- ip_input&#45;&gt;ip_input_local -->
<g id="edge37" class="edge">
<title>ip_input&#45;&gt;ip_input_local</title>
<path fill="none" stroke="black" d="M571.51,-447.95C586.42,-433.75 611.01,-413.42 636.97,-405 679.36,-391.26 730.54,-395.48 766.67,-401.64"/>
<polygon fill="black" stroke="black" points="766.45,-405.15 776.91,-403.5 767.7,-398.27 766.45,-405.15"/>
</g>
<!-- ip6_input&#45;&gt;ip6_output -->
<g id="edge56" class="edge">
<title>ip6_input&#45;&gt;ip6_output</title>
<path fill="none" stroke="black" d="M318.44,-340.52C328.09,-345.97 339.66,-352.67 349.87,-359 366.22,-369.13 367.47,-377.43 385.87,-383 423.73,-394.46 435.37,-385.04 474.88,-383 625.55,-375.21 661.66,-348 812.54,-348 812.54,-348 812.54,-348 1214.52,-348 1309.47,-348 1333.64,-339.45 1425.9,-317 1443.11,-312.81 1461.73,-306.63 1477.32,-300.97"/>
<polygon fill="black" stroke="black" points="1478.92,-304.11 1487.08,-297.35 1476.49,-297.55 1478.92,-304.11"/>
</g>
<!-- ip6_forward -->
<g id="node40" class="node">
<title>ip6_forward</title>
<ellipse fill="none" stroke="black" cx="430.38" cy="-356" rx="35.64" ry="18"/>
<text text-anchor="middle" x="430.38" y="-353.2" font-family="sans" font-size="11.00">ip6_forward</text>
</g>
<!-- ip6_input&#45;&gt;ip6_forward -->
<g id="edge55" class="edge">
<title>ip6_input&#45;&gt;ip6_forward</title>
<path fill="none" stroke="black" d="M323.7,-334.33C341.74,-338.03 366.16,-343.04 386.99,-347.31"/>
<polygon fill="black" stroke="black" points="386.38,-350.76 396.88,-349.34 387.78,-343.9 386.38,-350.76"/>
</g>
<!-- ip6_input_local -->
<g id="node42" class="node">
<title>ip6_input_local</title>
<ellipse fill="none" stroke="black" cx="555.92" cy="-264" rx="45.09" ry="18"/>
<text text-anchor="middle" x="555.92" y="-261.2" font-family="sans" font-size="11.00">ip6_input_local</text>
</g>
<!-- ip6_input&#45;&gt;ip6_input_local -->
<g id="edge57" class="edge">
<title>ip6_input&#45;&gt;ip6_input_local</title>
<path fill="none" stroke="black" d="M314.68,-315.09C331.58,-302.14 358.84,-283.58 385.87,-275 423.09,-263.19 467.18,-260.67 500.99,-260.98"/>
<polygon fill="black" stroke="black" points="501.08,-264.49 511.14,-261.16 501.2,-257.49 501.08,-264.49"/>
</g>
<!-- sr6_local -->
<g id="node43" class="node">
<title>sr6_local</title>
<ellipse fill="none" stroke="black" cx="430.38" cy="-302" rx="27.86" ry="18"/>
<text text-anchor="middle" x="430.38" y="-299.2" font-family="sans" font-size="11.00">sr6_local</text>
</g>
<!-- ip6_input&#45;&gt;sr6_local -->
<g id="edge58" class="edge">
<title>ip6_input&#45;&gt;sr6_local</title>
<path fill="none" stroke="black" d="M320.32,-319.12C340.09,-313.42 369.17,-307.16 392.32,-303.46"/>
<polygon fill="black" stroke="black" points="393.11,-306.88 402.49,-301.95 392.09,-299.95 393.11,-306.88"/>
</g>
<!-- port_tx -->
<g id="node15" class="node">
<title>port_tx</title>
<ellipse fill="none" stroke="black" cx="1783.55" cy="-727" rx="27" ry="18"/>
<text text-anchor="middle" x="1783.55" y="-724.2" font-family="sans" font-size="11.00">port_tx</text>
</g>
<!-- eth_output&#45;&gt;port_tx -->
<g id="edge12" class="edge">
<title>eth_output&#45;&gt;port_tx</title>
<path fill="none" stroke="black" d="M1677.54,-674.07C1698.57,-684.67 1729.28,-700.15 1752.06,-711.63"/>
<polygon fill="black" stroke="black" points="1750.79,-714.91 1761.29,-716.28 1753.94,-708.66 1750.79,-714.91"/>
</g>
<!-- l1_xconnect -->
<g id="node16" class="node">
<title>l1_xconnect</title>
<ellipse fill="none" stroke="black" cx="296.69" cy="-765" rx="36.23" ry="18"/>
<text text-anchor="middle" x="296.69" y="-762.2" font-family="sans" font-size="11.00">l1_xconnect</text>
</g>
<!-- l1_xconnect&#45;&gt;port_tx -->
<g id="edge13" class="edge">
<title>l1_xconnect&#45;&gt;port_tx</title>
<path fill="none" stroke="black" d="M331.28,-770.79C380.28,-778.73 474.32,-792 554.92,-792 554.92,-792 554.92,-792 1515,-792 1602.21,-792 1701,-758.99 1750.57,-740.02"/>
<polygon fill="black" stroke="black" points="1752.05,-743.2 1760.1,-736.31 1749.51,-736.68 1752.05,-743.2"/>
</g>
<!-- loopback_output&#45;&gt;control_output -->
<g id="edge16" class="edge">
<title>loopback_output&#45;&gt;control_output</title>
<path fill="none" stroke="black" d="M1673.73,-198.59C1695.5,-180.87 1730.33,-152.51 1754.71,-132.67"/>
<polygon fill="black" stroke="black" points="1757,-135.32 1762.54,-126.29 1752.58,-129.89 1757,-135.32"/>
</g>
<!-- port_rx -->
<g id="node18" class="node">
<title>port_rx</title>
<ellipse fill="none" stroke="blue" stroke-width="2" cx="40.16" cy="-715" rx="27" ry="18"/>
<text text-anchor="middle" x="40.16" y="-712.2" font-family="sans" font-size="11.00">port_rx</text>
</g>
<!-- port_rx&#45;&gt;eth_input -->
<g id="edge17" class="edge">
<title>port_rx&#45;&gt;eth_input</title>
<path fill="none" stroke="blue" stroke-width="2" d="M66.26,-710.18C82.93,-706.98 105.1,-702.72 123.79,-699.13"/>
<polygon fill="blue" stroke="blue" stroke-width="2" points="124.6,-702.54 133.76,-697.22 123.28,-695.66 124.6,-702.54"/>
</g>
<!-- port_rx&#45;&gt;l1_xconnect -->
<g id="edge18" class="edge">
<title>port_rx&#45;&gt;l1_xconnect</title>
<path fill="none" stroke="blue" stroke-width="2" d="M66.5,-719.98C109.97,-728.52 199.23,-746.05 252.62,-756.54"/>
<polygon fill="blue" stroke="blue" stroke-width="2" points="251.99,-759.98 262.48,-758.48 253.34,-753.11 251.99,-759.98"/>
</g>
<!-- nh4_unreachable -->
<g id="node19" class="node">
<title>nh4_unreachable</title>
<ellipse fill="none" stroke="black" cx="1514" cy="-559" rx="52.2" ry="18"/>
<text text-anchor="middle" x="1514" y="-556.2" font-family="sans" font-size="11.00">nh4_unreachable</text>
</g>
<!-- nh4_unreachable&#45;&gt;ip_output -->
<g id="edge19" class="edge">
<title>nh4_unreachable&#45;&gt;ip_output</title>
<path fill="none" stroke="black" d="M1466.39,-551.66C1407.24,-542.35 1306.4,-526.47 1251.98,-517.9"/>
<polygon fill="black" stroke="black" points="1252.49,-514.44 1242.06,-516.34 1251.4,-521.35 1252.49,-514.44"/>
</g>
<!-- ip_output&#45;&gt;eth_output -->
<g id="edge42" class="edge">
<title>ip_output&#45;&gt;eth_output</title>
<path fill="none" stroke="black" d="M1226.08,-528.55C1242.01,-549.97 1272.86,-586.72 1308.68,-605 1360.57,-631.49 1529.24,-650.44 1609.02,-658.16"/>
<polygon fill="black" stroke="black" points="1608.93,-661.67 1619.21,-659.13 1609.59,-654.7 1608.93,-661.67"/>
</g>
<!-- ip_output&#45;&gt;loopback_output -->
<g id="edge44" class="edge">
<title>ip_output&#45;&gt;loopback_output</title>
<path fill="none" stroke="black" d="M1242.84,-512.87C1285.37,-512.94 1367.01,-508.24 1425.9,-475 1508.54,-428.36 1510.32,-390.76 1566.11,-314 1584.39,-288.84 1581.56,-277.34 1602.11,-254 1607.39,-248 1613.69,-242.24 1620,-237.08"/>
<polygon fill="black" stroke="black" points="1622.19,-239.81 1627.91,-230.89 1617.88,-234.29 1622.19,-239.81"/>
</g>
<!-- ip_hold -->
<g id="node30" class="node">
<title>ip_hold</title>
<ellipse fill="none" stroke="black" cx="1367.29" cy="-578" rx="27" ry="18"/>
<text text-anchor="middle" x="1367.29" y="-575.2" font-family="sans" font-size="11.00">ip_hold</text>
</g>
<!-- ip_output&#45;&gt;ip_hold -->
<g id="edge43" class="edge">
<title>ip_output&#45;&gt;ip_hold</title>
<path fill="none" stroke="black" d="M1237.9,-522.17C1263.9,-533.47 1306.02,-551.79 1334.88,-564.34"/>
<polygon fill="black" stroke="black" points="1333.55,-567.58 1344.12,-568.36 1336.34,-561.16 1333.55,-567.58"/>
</g>
<!-- ipip_output -->
<g id="node33" class="node">
<title>ipip_output</title>
<ellipse fill="none" stroke="black" cx="1367.29" cy="-448" rx="34.38" ry="18"/>
<text text-anchor="middle" x="1367.29" y="-445.2" font-family="sans" font-size="11.00">ipip_output</text>
</g>
<!-- ip_output&#45;&gt;ipip_output -->
<g id="edge45" class="edge">
<title>ip_output&#45;&gt;ipip_output</title>
<path fill="none" stroke="black" d="M1234.05,-499.06C1257.21,-487.12 1296.42,-470.15 1326.14,-458.89"/>
<polygon fill="black" stroke="black" points="1327.66,-462.07 1335.82,-455.31 1325.23,-455.5 1327.66,-462.07"/>
</g>
<!-- ip_output&#45;&gt;sr6_output -->
<g id="edge46" class="edge">
<title>ip_output&#45;&gt;sr6_output</title>
<path fill="none" stroke="black" d="M1227.88,-496.2C1245.04,-476.64 1276.48,-443.18 1308.68,-421 1315.39,-416.37 1323.02,-412.17 1330.49,-408.53"/>
<polygon fill="black" stroke="black" points="1332.17,-411.61 1339.77,-404.23 1329.23,-405.26 1332.17,-411.61"/>
</g>
<!-- arp_probe -->
<g id="node21" class="node">
<title>arp_probe</title>
<ellipse fill="none" stroke="black" cx="1077.66" cy="-700" rx="30.87" ry="18"/>
<text text-anchor="middle" x="1077.66" y="-697.2" font-family="sans" font-size="11.00">arp_probe</text>
</g>
<!-- arp_probe&#45;&gt;ip_output -->
<g id="edge20" class="edge">
<title>arp_probe&#45;&gt;ip_output</title>
<path fill="none" stroke="black" d="M1090.54,-683.32C1114.21,-650.06 1167.38,-575.4 1195.04,-536.55"/>
<polygon fill="black" stroke="black" points="1197.91,-538.55 1200.86,-528.38 1192.21,-534.49 1197.91,-538.55"/>
</g>
<!-- arp_output_reply -->
<g id="node22" class="node">
<title>arp_output_reply</title>
<ellipse fill="none" stroke="black" cx="1514" cy="-708" rx="51.62" ry="18"/>
<text text-anchor="middle" x="1514" y="-705.2" font-family="sans" font-size="11.00">arp_output_reply</text>
</g>
<!-- arp_probe&#45;&gt;arp_output_reply -->
<g id="edge21" class="edge">
<title>arp_probe&#45;&gt;arp_output_reply</title>
<path fill="none" stroke="black" d="M1108.86,-700.56C1179.69,-701.86 1357.65,-705.14 1452.03,-706.88"/>
<polygon fill="black" stroke="black" points="1452.22,-710.38 1462.28,-707.07 1452.35,-703.38 1452.22,-710.38"/>
</g>
<!-- arp_output_reply&#45;&gt;eth_output -->
<g id="edge26" class="edge">
<title>arp_output_reply&#45;&gt;eth_output</title>
<path fill="none" stroke="black" d="M1551.6,-695.67C1570.85,-689.19 1594.4,-681.26 1613.82,-674.72"/>
<polygon fill="black" stroke="black" points="1615.19,-677.95 1623.55,-671.44 1612.95,-671.32 1615.19,-677.95"/>
</g>
<!-- arp_input_request&#45;&gt;arp_probe -->
<g id="edge25" class="edge">
<title>arp_input_request&#45;&gt;arp_probe</title>
<path fill="none" stroke="black" d="M1000.19,-695.28C1012.39,-696.03 1025.16,-696.82 1036.69,-697.53"/>
<polygon fill="black" stroke="black" points="1036.68,-701.04 1046.88,-698.16 1037.12,-694.05 1036.68,-701.04"/>
</g>
<!-- arp_input_reply&#45;&gt;arp_probe -->
<g id="edge24" class="edge">
<title>arp_input_reply&#45;&gt;arp_probe</title>
<path fill="none" stroke="black" d="M981.17,-733.91C999.59,-727.37 1022.34,-719.29 1041.01,-712.66"/>
<polygon fill="black" stroke="black" points="1042.38,-715.89 1050.63,-709.24 1040.03,-709.29 1042.38,-715.89"/>
</g>
<!-- dnat44&#45;&gt;ip_forward -->
<g id="edge28" class="edge">
<title>dnat44&#45;&gt;ip_forward</title>
<path fill="none" stroke="black" d="M706.37,-444.15C726.63,-457.1 758.97,-477.77 782.64,-492.89"/>
<polygon fill="black" stroke="black" points="780.93,-495.96 791.25,-498.39 784.7,-490.06 780.93,-495.96"/>
</g>
<!-- dnat44&#45;&gt;ip_input_local -->
<g id="edge29" class="edge">
<title>dnat44&#45;&gt;ip_input_local</title>
<path fill="none" stroke="black" d="M712.69,-427.95C727.5,-425.59 746.69,-422.52 764.28,-419.71"/>
<polygon fill="black" stroke="black" points="765.08,-423.13 774.4,-418.09 763.98,-416.21 765.08,-423.13"/>
</g>
<!-- ip_forward&#45;&gt;ip_output -->
<g id="edge33" class="edge">
<title>ip_forward&#45;&gt;ip_output</title>
<path fill="none" stroke="black" d="M846.43,-512C918.75,-512 1094.97,-512 1173.57,-512"/>
<polygon fill="black" stroke="black" points="1173.99,-515.5 1183.99,-512 1173.99,-508.5 1173.99,-515.5"/>
</g>
<!-- icmp_input -->
<g id="node28" class="node">
<title>icmp_input</title>
<ellipse fill="none" stroke="black" cx="946.14" cy="-412" rx="33.8" ry="18"/>
<text text-anchor="middle" x="946.14" y="-409.2" font-family="sans" font-size="11.00">icmp_input</text>
</g>
<!-- ip_input_local&#45;&gt;icmp_input -->
<g id="edge39" class="edge">
<title>ip_input_local&#45;&gt;icmp_input</title>
<path fill="none" stroke="black" d="M854.79,-412C869.77,-412 886.82,-412 902.05,-412"/>
<polygon fill="black" stroke="black" points="902.25,-415.5 912.25,-412 902.25,-408.5 902.25,-415.5"/>
</g>
<!-- ipip_input -->
<g id="node31" class="node">
<title>ipip_input</title>
<ellipse fill="none" stroke="black" cx="946.14" cy="-466" rx="29.7" ry="18"/>
<text text-anchor="middle" x="946.14" y="-463.2" font-family="sans" font-size="11.00">ipip_input</text>
</g>
<!-- ip_input_local&#45;&gt;ipip_input -->
<g id="edge40" class="edge">
<title>ip_input_local&#45;&gt;ipip_input</title>
<path fill="none" stroke="black" d="M844.17,-424.25C864.18,-432.53 890.64,-443.47 911.45,-452.07"/>
<polygon fill="black" stroke="black" points="910.29,-455.38 920.87,-455.96 912.96,-448.91 910.29,-455.38"/>
</g>
<!-- l4_input_local -->
<g id="node32" class="node">
<title>l4_input_local</title>
<ellipse fill="none" stroke="black" cx="946.14" cy="-264" rx="41.49" ry="18"/>
<text text-anchor="middle" x="946.14" y="-261.2" font-family="sans" font-size="11.00">l4_input_local</text>
</g>
<!-- ip_input_local&#45;&gt;l4_input_local -->
<g id="edge41" class="edge">
<title>ip_input_local&#45;&gt;l4_input_local</title>
<path fill="none" stroke="black" d="M829.26,-395.31C852.29,-369.22 896.93,-318.63 923.58,-288.43"/>
<polygon fill="black" stroke="black" points="926.27,-290.67 930.26,-280.86 921.02,-286.04 926.27,-290.67"/>
</g>
<!-- icmp_input&#45;&gt;icmp_output -->
<g id="edge30" class="edge">
<title>icmp_input&#45;&gt;icmp_output</title>
<path fill="none" stroke="black" d="M973.35,-422.93C992.32,-430.84 1018.24,-441.64 1039.37,-450.45"/>
<polygon fill="black" stroke="black" points="1038.12,-453.72 1048.69,-454.34 1040.81,-447.26 1038.12,-453.72"/>
</g>
<!-- icmp_output&#45;&gt;ip_output -->
<g id="edge32" class="edge">
<title>icmp_output&#45;&gt;ip_output</title>
<path fill="none" stroke="black" d="M1109.03,-476.44C1129.54,-483.49 1156.66,-492.8 1177.99,-500.13"/>
<polygon fill="black" stroke="black" points="1177.04,-503.51 1187.64,-503.45 1179.32,-496.89 1177.04,-503.51"/>
</g>
<!-- ip_hold&#45;&gt;nh4_unreachable -->
<g id="edge34" class="edge">
<title>ip_hold&#45;&gt;nh4_unreachable</title>
<path fill="none" stroke="black" d="M1393.83,-574.65C1410.78,-572.42 1433.74,-569.41 1454.98,-566.62"/>
<polygon fill="black" stroke="black" points="1455.46,-570.09 1464.92,-565.31 1454.54,-563.15 1455.46,-570.09"/>
</g>
<!-- ipip_input&#45;&gt;ip_input -->
<g id="edge70" class="edge">
<title>ipip_input&#45;&gt;ip_input</title>
<path fill="none" stroke="black" d="M916.05,-465.78C846.28,-465.24 669.56,-463.87 593.1,-463.28"/>
<polygon fill="black" stroke="black" points="593.03,-459.78 583,-463.2 592.97,-466.78 593.03,-459.78"/>
</g>
<!-- l4_loopback_output -->
<g id="node44" class="node">
<title>l4_loopback_output</title>
<ellipse fill="none" stroke="black" cx="1367.29" cy="-208" rx="58.73" ry="18"/>
<text text-anchor="middle" x="1367.29" y="-205.2" font-family="sans" font-size="11.00">l4_loopback_output</text>
</g>
<!-- l4_input_local&#45;&gt;l4_loopback_output -->
<g id="edge72" class="edge">
<title>l4_input_local&#45;&gt;l4_loopback_output</title>
<path fill="none" stroke="black" d="M985.82,-258.83C1058.24,-249.16 1214.91,-228.22 1302.95,-216.46"/>
<polygon fill="black" stroke="black" points="1303.62,-219.9 1313.07,-215.11 1302.7,-212.97 1303.62,-219.9"/>
</g>
<!-- ipip_output&#45;&gt;ip_output -->
<g id="edge71" class="edge">
<title>ipip_output&#45;&gt;ip_output</title>
<path fill="none" stroke="black" d="M1345.15,-461.76C1320.77,-474.18 1280.28,-491.59 1250.83,-502.55"/>
<polygon fill="black" stroke="black" points="1249.51,-499.3 1241.3,-506 1251.9,-505.88 1249.51,-499.3"/>
</g>
<!-- sr6_output&#45;&gt;ip6_output -->
<g id="edge77" class="edge">
<title>sr6_output&#45;&gt;ip6_output</title>
<path fill="none" stroke="black" d="M1384.71,-378.52C1396.54,-371 1412.67,-362.23 1425.9,-353 1446.11,-338.91 1467.09,-320.96 1483.39,-307.17"/>
<polygon fill="black" stroke="black" points="1486.07,-309.49 1491.46,-300.37 1481.56,-304.14 1486.07,-309.49"/>
</g>
<!-- icmp6_input -->
<g id="node35" class="node">
<title>icmp6_input</title>
<ellipse fill="none" stroke="black" cx="686.36" cy="-24" rx="37.4" ry="18"/>
<text text-anchor="middle" x="686.36" y="-21.2" font-family="sans" font-size="11.00">icmp6_input</text>
</g>
<!-- icmp6_input&#45;&gt;icmp6_output -->
<g id="edge47" class="edge">
<title>icmp6_input&#45;&gt;icmp6_output</title>
<path fill="none" stroke="black" d="M712.1,-37.37C720.23,-42.51 728.92,-48.87 735.75,-56 757.25,-78.47 751.17,-92.68 771.75,-116 774.93,-119.61 778.56,-123.1 782.31,-126.37"/>
<polygon fill="black" stroke="black" points="780.13,-129.11 790.09,-132.75 784.57,-123.7 780.13,-129.11"/>
</g>
<!-- ndp_ns_input -->
<g id="node37" class="node">
<title>ndp_ns_input</title>
<ellipse fill="none" stroke="black" cx="1514" cy="-64" rx="40.32" ry="18"/>
<text text-anchor="middle" x="1514" y="-61.2" font-family="sans" font-size="11.00">ndp_ns_input</text>
</g>
<!-- icmp6_input&#45;&gt;ndp_ns_input -->
<g id="edge48" class="edge">
<title>icmp6_input&#45;&gt;ndp_ns_input</title>
<path fill="none" stroke="black" d="M719.66,-32.29C768.24,-44 863.17,-64 945.14,-64 945.14,-64 945.14,-64 1214.52,-64 1302.02,-64 1403.96,-64 1463.21,-64"/>
<polygon fill="black" stroke="black" points="1463.41,-67.5 1473.41,-64 1463.41,-60.5 1463.41,-67.5"/>
</g>
<!-- ndp_na_input -->
<g id="node38" class="node">
<title>ndp_na_input</title>
<ellipse fill="none" stroke="black" cx="1077.66" cy="-18" rx="40.91" ry="18"/>
<text text-anchor="middle" x="1077.66" y="-15.2" font-family="sans" font-size="11.00">ndp_na_input</text>
</g>
<!-- icmp6_input&#45;&gt;ndp_na_input -->
<g id="edge49" class="edge">
<title>icmp6_input&#45;&gt;ndp_na_input</title>
<path fill="none" stroke="black" d="M723.98,-23.44C794.09,-22.36 947.31,-19.99 1026.72,-18.77"/>
<polygon fill="black" stroke="black" points="1027.01,-22.27 1036.96,-18.61 1026.9,-15.27 1027.01,-22.27"/>
</g>
<!-- ndp_rs_input -->
<g id="node39" class="node">
<title>ndp_rs_input</title>
<ellipse fill="none" stroke="black" cx="1213.52" cy="-110" rx="39.15" ry="18"/>
<text text-anchor="middle" x="1213.52" y="-107.2" font-family="sans" font-size="11.00">ndp_rs_input</text>
</g>
<!-- icmp6_input&#45;&gt;ndp_rs_input -->
<g id="edge50" class="edge">
<title>icmp6_input&#45;&gt;ndp_rs_input</title>
<path fill="none" stroke="black" d="M705.72,-39.62C721.94,-52.42 746.82,-69.72 771.75,-78 908.77,-123.54 1082.55,-119.42 1164.98,-114.04"/>
<polygon fill="black" stroke="black" points="1165.31,-117.52 1175.05,-113.34 1164.83,-110.54 1165.31,-117.52"/>
</g>
<!-- icmp6_output&#45;&gt;ip6_output -->
<g id="edge51" class="edge">
<title>icmp6_output&#45;&gt;ip6_output</title>
<path fill="none" stroke="black" d="M854.93,-150.5C906.4,-153.46 998.1,-158 1076.66,-158 1076.66,-158 1076.66,-158 1214.52,-158 1309.02,-158 1342.77,-136.05 1425.9,-181 1459.16,-198.98 1484.66,-235.41 1499.24,-260.5"/>
<polygon fill="black" stroke="black" points="1496.34,-262.49 1504.28,-269.5 1502.45,-259.07 1496.34,-262.49"/>
</g>
<!-- ndp_ns_input&#45;&gt;control_output -->
<g id="edge67" class="edge">
<title>ndp_ns_input&#45;&gt;control_output</title>
<path fill="none" stroke="black" d="M1551.77,-70.19C1589.68,-76.59 1650.52,-86.9 1703.05,-96 1712.58,-97.65 1722.75,-99.43 1732.53,-101.15"/>
<polygon fill="black" stroke="black" points="1732.07,-104.62 1742.52,-102.9 1733.28,-97.72 1732.07,-104.62"/>
</g>
<!-- ndp_na_input&#45;&gt;control_output -->
<g id="edge65" class="edge">
<title>ndp_na_input&#45;&gt;control_output</title>
<path fill="none" stroke="black" d="M1118.67,-18C1174.24,-18 1277.9,-18 1366.29,-18 1366.29,-18 1366.29,-18 1515,-18 1603.14,-18 1699.17,-63.2 1748.72,-90.23"/>
<polygon fill="black" stroke="black" points="1747.27,-93.43 1757.71,-95.22 1750.66,-87.31 1747.27,-93.43"/>
</g>
<!-- ndp_rs_input&#45;&gt;control_output -->
<g id="edge69" class="edge">
<title>ndp_rs_input&#45;&gt;control_output</title>
<path fill="none" stroke="black" d="M1252.67,-110C1351.21,-110 1614.46,-110 1728.57,-110"/>
<polygon fill="black" stroke="black" points="1728.81,-113.5 1738.81,-110 1728.81,-106.5 1728.81,-113.5"/>
</g>
<!-- ip6_forward&#45;&gt;ip6_output -->
<g id="edge53" class="edge">
<title>ip6_forward&#45;&gt;ip6_output</title>
<path fill="none" stroke="black" d="M461.55,-346.91C508.8,-333.51 603.35,-310 685.36,-310 685.36,-310 685.36,-310 1214.52,-310 1306.75,-310 1414.54,-298.95 1472,-292.17"/>
<polygon fill="black" stroke="black" points="1472.61,-295.62 1482.13,-290.95 1471.78,-288.67 1472.61,-295.62"/>
</g>
<!-- ip6_hold&#45;&gt;control_output -->
<g id="edge54" class="edge">
<title>ip6_hold&#45;&gt;control_output</title>
<path fill="none" stroke="black" d="M1672.32,-268.7C1682.19,-261.64 1694.08,-252.17 1703.05,-242 1731.7,-209.51 1755.91,-165.32 1769.84,-137.22"/>
<polygon fill="black" stroke="black" points="1773.1,-138.52 1774.33,-128 1766.8,-135.46 1773.1,-138.52"/>
</g>
<!-- ip6_input_local&#45;&gt;l4_input_local -->
<g id="edge60" class="edge">
<title>ip6_input_local&#45;&gt;l4_input_local</title>
<path fill="none" stroke="black" d="M601.08,-264C673.68,-264 817.84,-264 894.48,-264"/>
<polygon fill="black" stroke="black" points="894.83,-267.5 904.83,-264 894.83,-260.5 894.83,-267.5"/>
</g>
<!-- ip6_input_local&#45;&gt;icmp6_input -->
<g id="edge59" class="edge">
<title>ip6_input_local&#45;&gt;icmp6_input</title>
<path fill="none" stroke="black" d="M566.37,-246.35C588.69,-204.64 644.8,-99.78 671.21,-50.44"/>
<polygon fill="black" stroke="black" points="674.44,-51.82 676.07,-41.35 668.27,-48.52 674.44,-51.82"/>
</g>
<!-- sr6_local&#45;&gt;ip_input -->
<g id="edge74" class="edge">
<title>sr6_local&#45;&gt;ip_input</title>
<path fill="none" stroke="black" d="M453.21,-312.8C460.65,-317.15 468.65,-322.66 474.88,-329 506.15,-360.81 530.3,-407.11 543.56,-436.11"/>
<polygon fill="black" stroke="black" points="540.52,-437.89 547.79,-445.6 546.91,-435.04 540.52,-437.89"/>
</g>
<!-- sr6_local&#45;&gt;ip6_input -->
<g id="edge75" class="edge">
<title>sr6_local&#45;&gt;ip6_input</title>
<path fill="none" stroke="black" d="M406.94,-311.83C387.28,-317.51 358.32,-323.75 335.15,-327.48"/>
<polygon fill="black" stroke="black" points="334.35,-324.06 324.97,-329 335.38,-330.98 334.35,-324.06"/>
</g>
<!-- sr6_local&#45;&gt;ip6_input_local -->
<g id="edge76" class="edge">
<title>sr6_local&#45;&gt;ip6_input_local</title>
<path fill="none" stroke="black" d="M455.79,-294.49C471.28,-289.73 491.81,-283.41 510.16,-277.77"/>
<polygon fill="black" stroke="black" points="511.28,-281.09 519.8,-274.8 509.22,-274.4 511.28,-281.09"/>
</g>
<!-- l4_loopback_output&#45;&gt;loopback_output -->
<g id="edge73" class="edge">
<title>l4_loopback_output&#45;&gt;loopback_output</title>
<path fill="none" stroke="black" d="M1425.96,-209.42C1474.29,-210.62 1543.03,-212.32 1591.92,-213.53"/>
<polygon fill="black" stroke="black" points="1591.95,-217.03 1602.03,-213.78 1592.12,-210.03 1591.95,-217.03"/>
</g>
</g>
</svg>
