<?xml version="1.0" encoding="UTF-8" standalone="no"?>
<!DOCTYPE svg PUBLIC "-//W3C//DTD SVG 1.1//EN"
 "http://www.w3.org/Graphics/SVG/1.1/DTD/svg11.dtd">
<!-- Generated by graphviz version 12.2.1 (20241206.2353)
 -->
<!-- Title: gr&#45;0002 Pages: 1 -->
<svg width="1574pt" height="1044pt"
 viewBox="0.00 0.00 1573.93 1044.00" xmlns="http://www.w3.org/2000/svg" xmlns:xlink="http://www.w3.org/1999/xlink">
<g id="graph0" class="graph" transform="scale(1 1) rotate(0) translate(4 1040)">
<title>gr&#45;0002</title>
<polygon fill="white" stroke="none" points="-4,4 -4,-1040 1569.93,-1040 1569.93,4 -4,4"/>
<!-- dnat44_static -->
<g id="node1" class="node">
<title>dnat44_static</title>
<ellipse fill="none" stroke="black" cx="43.31" cy="-982" rx="43.31" ry="18"/>
<text text-anchor="middle" x="43.31" y="-978.3" font-family="sans" font-size="11.00">dnat44_static</text>
</g>
<!-- ip_forward -->
<g id="node2" class="node">
<title>ip_forward</title>
<ellipse fill="none" stroke="black" cx="164.24" cy="-936" rx="33.62" ry="18"/>
<text text-anchor="middle" x="164.24" y="-932.3" font-family="sans" font-size="11.00">ip_forward</text>
</g>
<!-- dnat44_static&#45;&gt;ip_forward -->
<g id="edge1" class="edge">
<title>dnat44_static&#45;&gt;ip_forward</title>
<path fill="none" stroke="black" d="M75.87,-969.79C91.19,-963.87 109.7,-956.71 125.74,-950.5"/>
<polygon fill="black" stroke="black" points="126.9,-953.81 134.96,-946.94 124.37,-947.28 126.9,-953.81"/>
</g>
<!-- ip_input_local -->
<g id="node3" class="node">
<title>ip_input_local</title>
<ellipse fill="none" stroke="black" cx="961.41" cy="-876" rx="42.89" ry="18"/>
<text text-anchor="middle" x="961.41" y="-872.3" font-family="sans" font-size="11.00">ip_input_local</text>
</g>
<!-- dnat44_static&#45;&gt;ip_input_local -->
<g id="edge2" class="edge">
<title>dnat44_static&#45;&gt;ip_input_local</title>
<path fill="none" stroke="black" d="M76.57,-993.85C122.81,-1009.75 210.91,-1036 288.38,-1036 288.38,-1036 288.38,-1036 409.63,-1036 609.88,-1036 835.42,-937.25 922.93,-894.91"/>
<polygon fill="black" stroke="black" points="924.34,-898.12 931.78,-890.58 921.26,-891.83 924.34,-898.12"/>
</g>
<!-- ip_output -->
<g id="node10" class="node">
<title>ip_output</title>
<ellipse fill="none" stroke="black" cx="289.38" cy="-761" rx="30.25" ry="18"/>
<text text-anchor="middle" x="289.38" y="-757.3" font-family="sans" font-size="11.00">ip_output</text>
</g>
<!-- ip_forward&#45;&gt;ip_output -->
<g id="edge34" class="edge">
<title>ip_forward&#45;&gt;ip_output</title>
<path fill="none" stroke="black" d="M177.05,-919.22C198.65,-888.51 244.68,-823.1 270.27,-786.74"/>
<polygon fill="black" stroke="black" points="272.84,-789.16 275.74,-778.97 267.12,-785.13 272.84,-789.16"/>
</g>
<!-- icmp_input -->
<g id="node27" class="node">
<title>icmp_input</title>
<ellipse fill="none" stroke="black" cx="1087.4" cy="-892" rx="34.89" ry="18"/>
<text text-anchor="middle" x="1087.4" y="-888.3" font-family="sans" font-size="11.00">icmp_input</text>
</g>
<!-- ip_input_local&#45;&gt;icmp_input -->
<g id="edge40" class="edge">
<title>ip_input_local&#45;&gt;icmp_input</title>
<path fill="none" stroke="black" d="M1003.01,-881.24C1015.44,-882.84 1029.19,-884.62 1041.87,-886.25"/>
<polygon fill="black" stroke="black" points="1041.29,-889.71 1051.65,-887.52 1042.18,-882.77 1041.29,-889.71"/>
</g>
<!-- ipip_input -->
<g id="node30" class="node">
<title>ipip_input</title>
<ellipse fill="none" stroke="black" cx="1087.4" cy="-838" rx="31.1" ry="18"/>
<text text-anchor="middle" x="1087.4" y="-834.3" font-family="sans" font-size="11.00">ipip_input</text>
</g>
<!-- ip_input_local&#45;&gt;ipip_input -->
<g id="edge41" class="edge">
<title>ip_input_local&#45;&gt;ipip_input</title>
<path fill="none" stroke="black" d="M996.95,-865.41C1013.02,-860.49 1032.17,-854.62 1048.62,-849.58"/>
<polygon fill="black" stroke="black" points="1049.52,-852.96 1058.06,-846.68 1047.47,-846.27 1049.52,-852.96"/>
</g>
<!-- l4_input_local -->
<g id="node31" class="node">
<title>l4_input_local</title>
<ellipse fill="none" stroke="black" cx="1087.4" cy="-746" rx="42.89" ry="18"/>
<text text-anchor="middle" x="1087.4" y="-742.3" font-family="sans" font-size="11.00">l4_input_local</text>
</g>
<!-- ip_input_local&#45;&gt;l4_input_local -->
<g id="edge42" class="edge">
<title>ip_input_local&#45;&gt;l4_input_local</title>
<path fill="none" stroke="black" d="M978.37,-859.27C999.76,-836.84 1037.89,-796.85 1062.66,-770.89"/>
<polygon fill="black" stroke="black" points="1065.09,-773.41 1069.46,-763.76 1060.02,-768.58 1065.09,-773.41"/>
</g>
<!-- control_input -->
<g id="node4" class="node">
<title>control_input</title>
<ellipse fill="none" stroke="blue" stroke-width="2" cx="164.24" cy="-245" rx="41.62" ry="18"/>
<text text-anchor="middle" x="164.24" y="-241.3" font-family="sans" font-size="11.00">control_input</text>
</g>
<!-- loopback_input -->
<g id="node5" class="node">
<title>loopback_input</title>
<ellipse fill="none" stroke="black" cx="289.38" cy="-404" rx="47.52" ry="18"/>
<text text-anchor="middle" x="289.38" y="-400.3" font-family="sans" font-size="11.00">loopback_input</text>
</g>
<!-- control_input&#45;&gt;loopback_input -->
<g id="edge3" class="edge">
<title>control_input&#45;&gt;loopback_input</title>
<path fill="none" stroke="blue" stroke-width="2" d="M172.2,-263.16C183.42,-290.57 207.76,-342.9 241.86,-377 244.15,-379.29 246.68,-381.46 249.33,-383.49"/>
<polygon fill="blue" stroke="blue" stroke-width="2" points="245.95,-385.42 256.18,-388.17 249.9,-379.64 245.95,-385.42"/>
</g>
<!-- arp_output_request -->
<g id="node6" class="node">
<title>arp_output_request</title>
<ellipse fill="none" stroke="black" cx="541.77" cy="-18" rx="61.42" ry="18"/>
<text text-anchor="middle" x="541.77" y="-14.3" font-family="sans" font-size="11.00">arp_output_request</text>
</g>
<!-- control_input&#45;&gt;arp_output_request -->
<g id="edge4" class="edge">
<title>control_input&#45;&gt;arp_output_request</title>
<path fill="none" stroke="blue" stroke-width="2" d="M167.2,-226.6C172.21,-189.36 189.09,-105.09 241.86,-64 307.62,-12.81 406.74,-7.41 472.57,-10.7"/>
<polygon fill="blue" stroke="blue" stroke-width="2" points="470.84,-14.11 481.03,-11.2 471.26,-7.12 470.84,-14.11"/>
</g>
<!-- icmp_local_send -->
<g id="node7" class="node">
<title>icmp_local_send</title>
<ellipse fill="none" stroke="black" cx="541.77" cy="-914" rx="51.31" ry="18"/>
<text text-anchor="middle" x="541.77" y="-910.3" font-family="sans" font-size="11.00">icmp_local_send</text>
</g>
<!-- control_input&#45;&gt;icmp_local_send -->
<g id="edge5" class="edge">
<title>control_input&#45;&gt;icmp_local_send</title>
<path fill="none" stroke="blue" stroke-width="2" d="M165.47,-263.22C166.9,-347.95 176.74,-702.97 241.86,-788 299.92,-863.81 412.2,-894.47 481.4,-906.54"/>
<polygon fill="blue" stroke="blue" stroke-width="2" points="479.12,-909.7 489.56,-907.89 480.27,-902.8 479.12,-909.7"/>
</g>
<!-- icmp6_local_send -->
<g id="node8" class="node">
<title>icmp6_local_send</title>
<ellipse fill="none" stroke="black" cx="694.28" cy="-110" rx="55.1" ry="18"/>
<text text-anchor="middle" x="694.28" y="-106.3" font-family="sans" font-size="11.00">icmp6_local_send</text>
</g>
<!-- control_input&#45;&gt;icmp6_local_send -->
<g id="edge6" class="edge">
<title>control_input&#45;&gt;icmp6_local_send</title>
<path fill="none" stroke="blue" stroke-width="2" d="M172.74,-227.04C183.88,-202.93 207.26,-160.95 241.86,-142 306.52,-106.59 518.96,-105.9 627.78,-108.05"/>
<polygon fill="blue" stroke="blue" stroke-width="2" points="626.15,-111.52 636.22,-108.23 626.3,-104.52 626.15,-111.52"/>
</g>
<!-- ndp_ns_output -->
<g id="node9" class="node">
<title>ndp_ns_output</title>
<ellipse fill="none" stroke="black" cx="832.06" cy="-198" rx="46.26" ry="18"/>
<text text-anchor="middle" x="832.06" y="-194.3" font-family="sans" font-size="11.00">ndp_ns_output</text>
</g>
<!-- control_input&#45;&gt;ndp_ns_output -->
<g id="edge7" class="edge">
<title>control_input&#45;&gt;ndp_ns_output</title>
<path fill="none" stroke="blue" stroke-width="2" d="M197.33,-233.81C243.31,-218.8 330.87,-194 407.63,-194 407.63,-194 407.63,-194 542.77,-194 623.08,-194 715.96,-195.57 774.12,-196.74"/>
<polygon fill="blue" stroke="blue" stroke-width="2" points="772.53,-200.21 782.6,-196.92 772.67,-193.21 772.53,-200.21"/>
</g>
<!-- control_input&#45;&gt;ip_output -->
<g id="edge8" class="edge">
<title>control_input&#45;&gt;ip_output</title>
<path fill="none" stroke="blue" stroke-width="2" d="M169.55,-263.06C187.8,-339.53 258.79,-636.99 281.41,-731.8"/>
<polygon fill="blue" stroke="blue" stroke-width="2" points="277.61,-730.96 283.34,-739.87 284.42,-729.33 277.61,-730.96"/>
</g>
<!-- arp_output_reply -->
<g id="node11" class="node">
<title>arp_output_reply</title>
<ellipse fill="none" stroke="black" cx="541.77" cy="-72" rx="53.41" ry="18"/>
<text text-anchor="middle" x="541.77" y="-68.3" font-family="sans" font-size="11.00">arp_output_reply</text>
</g>
<!-- control_input&#45;&gt;arp_output_reply -->
<g id="edge9" class="edge">
<title>control_input&#45;&gt;arp_output_reply</title>
<path fill="none" stroke="blue" stroke-width="2" d="M169.24,-227.1C177.19,-196.18 198.1,-133.29 241.86,-104 313.46,-56.08 417.02,-56.65 481.54,-63.11"/>
<polygon fill="blue" stroke="blue" stroke-width="2" points="479.4,-66.4 489.72,-64 480.16,-59.44 479.4,-66.4"/>
</g>
<!-- ip6_output -->
<g id="node12" class="node">
<title>ip6_output</title>
<ellipse fill="none" stroke="black" cx="1227.28" cy="-445" rx="34.04" ry="18"/>
<text text-anchor="middle" x="1227.28" y="-441.3" font-family="sans" font-size="11.00">ip6_output</text>
</g>
<!-- control_input&#45;&gt;ip6_output -->
<g id="edge10" class="edge">
<title>control_input&#45;&gt;ip6_output</title>
<path fill="none" stroke="blue" stroke-width="2" d="M203.36,-251.56C250.69,-263.69 334.15,-286 407.63,-286 407.63,-286 407.63,-286 833.06,-286 908.23,-286 1116.59,-382.9 1195.47,-425.61"/>
<polygon fill="blue" stroke="blue" stroke-width="2" points="1192.19,-427.8 1202.64,-429.56 1195.57,-421.67 1192.19,-427.8"/>
</g>
<!-- control_input&#45;&gt;ip6_output -->
<g id="edge12" class="edge">
<title>control_input&#45;&gt;ip6_output</title>
<path fill="none" stroke="blue" stroke-width="2" d="M190.71,-259.29C234.49,-277.18 327.06,-304 407.63,-304 407.63,-304 407.63,-304 833.06,-304 905.86,-304 1103.57,-394.88 1187.62,-430.92"/>
<polygon fill="blue" stroke="blue" stroke-width="2" points="1184.64,-433.46 1195.22,-434.15 1187.38,-427.01 1184.64,-433.46"/>
</g>
<!-- ndp_na_output -->
<g id="node13" class="node">
<title>ndp_na_output</title>
<ellipse fill="none" stroke="black" cx="961.41" cy="-156" rx="46.68" ry="18"/>
<text text-anchor="middle" x="961.41" y="-152.3" font-family="sans" font-size="11.00">ndp_na_output</text>
</g>
<!-- control_input&#45;&gt;ndp_na_output -->
<g id="edge11" class="edge">
<title>control_input&#45;&gt;ndp_na_output</title>
<path fill="none" stroke="blue" stroke-width="2" d="M185.65,-229.27C200.52,-218.51 221.52,-204.67 241.86,-196 311.58,-166.29 331.84,-156 407.63,-156 407.63,-156 407.63,-156 542.77,-156 671.48,-156 822.51,-156 903.02,-156"/>
<polygon fill="blue" stroke="blue" stroke-width="2" points="901.34,-159.5 911.34,-156 901.34,-152.5 901.34,-159.5"/>
</g>
<!-- eth_input -->
<g id="node15" class="node">
<title>eth_input</title>
<ellipse fill="none" stroke="black" cx="408.63" cy="-404" rx="30.25" ry="18"/>
<text text-anchor="middle" x="408.63" y="-400.3" font-family="sans" font-size="11.00">eth_input</text>
</g>
<!-- loopback_input&#45;&gt;eth_input -->
<g id="edge18" class="edge">
<title>loopback_input&#45;&gt;eth_input</title>
<path fill="none" stroke="black" d="M337.39,-404C347.18,-404 357.41,-404 366.94,-404"/>
<polygon fill="black" stroke="black" points="366.63,-407.5 376.63,-404 366.63,-400.5 366.63,-407.5"/>
</g>
<!-- eth_output -->
<g id="node19" class="node">
<title>eth_output</title>
<ellipse fill="none" stroke="black" cx="1380.63" cy="-102" rx="34.89" ry="18"/>
<text text-anchor="middle" x="1380.63" y="-98.3" font-family="sans" font-size="11.00">eth_output</text>
</g>
<!-- arp_output_request&#45;&gt;eth_output -->
<g id="edge29" class="edge">
<title>arp_output_request&#45;&gt;eth_output</title>
<path fill="none" stroke="black" d="M602.94,-20.64C661.25,-22.97 752.2,-26 831.06,-26 831.06,-26 831.06,-26 962.41,-26 1102.82,-26 1265.58,-68.18 1339.46,-89.69"/>
<polygon fill="black" stroke="black" points="1338.09,-92.94 1348.67,-92.4 1340.07,-86.22 1338.09,-92.94"/>
</g>
<!-- icmp_output -->
<g id="node28" class="node">
<title>icmp_output</title>
<ellipse fill="none" stroke="black" cx="1227.28" cy="-938" rx="39.52" ry="18"/>
<text text-anchor="middle" x="1227.28" y="-934.3" font-family="sans" font-size="11.00">icmp_output</text>
</g>
<!-- icmp_local_send&#45;&gt;icmp_output -->
<g id="edge32" class="edge">
<title>icmp_local_send&#45;&gt;icmp_output</title>
<path fill="none" stroke="black" d="M593.31,-915.77C719.99,-920.22 1049.96,-931.81 1176.18,-936.24"/>
<polygon fill="black" stroke="black" points="1175.76,-939.73 1185.88,-936.58 1176.01,-932.73 1175.76,-939.73"/>
</g>
<!-- icmp6_output -->
<g id="node35" class="node">
<title>icmp6_output</title>
<ellipse fill="none" stroke="black" cx="1087.4" cy="-202" rx="43.31" ry="18"/>
<text text-anchor="middle" x="1087.4" y="-198.3" font-family="sans" font-size="11.00">icmp6_output</text>
</g>
<!-- icmp6_local_send&#45;&gt;icmp6_output -->
<g id="edge54" class="edge">
<title>icmp6_local_send&#45;&gt;icmp6_output</title>
<path fill="none" stroke="black" d="M745.61,-102.96C809.48,-96.23 921.72,-91.92 1008.09,-129 1031.43,-139.02 1052.17,-159.15 1066.43,-175.74"/>
<polygon fill="black" stroke="black" points="1063.64,-177.85 1072.7,-183.34 1069.04,-173.4 1063.64,-177.85"/>
</g>
<!-- ndp_ns_output&#45;&gt;icmp6_output -->
<g id="edge70" class="edge">
<title>ndp_ns_output&#45;&gt;icmp6_output</title>
<path fill="none" stroke="black" d="M878.64,-198.72C921.76,-199.4 986.49,-200.42 1032.23,-201.14"/>
<polygon fill="black" stroke="black" points="1032.14,-204.64 1042.2,-201.3 1032.25,-197.64 1032.14,-204.64"/>
</g>
<!-- ip_output&#45;&gt;eth_output -->
<g id="edge43" class="edge">
<title>ip_output&#45;&gt;eth_output</title>
<path fill="none" stroke="black" d="M291.7,-743.02C297.1,-674.35 319.82,-429.76 372.9,-377 426.95,-323.27 464.56,-342 540.77,-342 540.77,-342 540.77,-342 833.06,-342 1048.73,-342 1274.94,-183.41 1352.04,-124.06"/>
<polygon fill="black" stroke="black" points="1354.16,-126.85 1359.91,-117.94 1349.86,-121.32 1354.16,-126.85"/>
</g>
<!-- loop_xvrf -->
<g id="node23" class="node">
<title>loop_xvrf</title>
<ellipse fill="none" stroke="black" cx="408.63" cy="-593" rx="29.83" ry="18"/>
<text text-anchor="middle" x="408.63" y="-589.3" font-family="sans" font-size="11.00">loop_xvrf</text>
</g>
<!-- ip_output&#45;&gt;loop_xvrf -->
<g id="edge45" class="edge">
<title>ip_output&#45;&gt;loop_xvrf</title>
<path fill="none" stroke="black" d="M302.05,-744.28C322.59,-714.84 365.33,-653.6 389.66,-618.74"/>
<polygon fill="black" stroke="black" points="392.28,-621.1 395.14,-610.9 386.54,-617.09 392.28,-621.1"/>
</g>
<!-- ip_hold -->
<g id="node29" class="node">
<title>ip_hold</title>
<ellipse fill="none" stroke="black" cx="832.06" cy="-761" rx="27" ry="18"/>
<text text-anchor="middle" x="832.06" y="-757.3" font-family="sans" font-size="11.00">ip_hold</text>
</g>
<!-- ip_output&#45;&gt;ip_hold -->
<g id="edge44" class="edge">
<title>ip_output&#45;&gt;ip_hold</title>
<path fill="none" stroke="black" d="M319.77,-759.23C335.52,-758.37 355.26,-757.43 372.9,-757 529.09,-753.22 715.31,-757.59 793.54,-759.84"/>
<polygon fill="black" stroke="black" points="793.1,-763.32 803.2,-760.12 793.31,-756.33 793.1,-763.32"/>
</g>
<!-- ipip_output -->
<g id="node32" class="node">
<title>ipip_output</title>
<ellipse fill="none" stroke="black" cx="408.63" cy="-784" rx="35.73" ry="18"/>
<text text-anchor="middle" x="408.63" y="-780.3" font-family="sans" font-size="11.00">ipip_output</text>
</g>
<!-- ip_output&#45;&gt;ipip_output -->
<g id="edge46" class="edge">
<title>ip_output&#45;&gt;ipip_output</title>
<path fill="none" stroke="black" d="M319.97,-760.85C334.81,-762.88 352.99,-766.29 368.93,-770.02"/>
<polygon fill="black" stroke="black" points="368.05,-773.41 378.59,-772.4 369.72,-766.61 368.05,-773.41"/>
</g>
<!-- sr6_output -->
<g id="node33" class="node">
<title>sr6_output</title>
<ellipse fill="none" stroke="black" cx="1380.63" cy="-516" rx="34.46" ry="18"/>
<text text-anchor="middle" x="1380.63" y="-512.3" font-family="sans" font-size="11.00">sr6_output</text>
</g>
<!-- ip_output&#45;&gt;sr6_output -->
<g id="edge47" class="edge">
<title>ip_output&#45;&gt;sr6_output</title>
<path fill="none" stroke="black" d="M319.05,-756.85C423.48,-741.35 782.37,-684.57 878.74,-623 900.61,-609.02 892.41,-590.26 914.74,-577 1012.35,-519.02 1054.09,-549.39 1166.7,-535 1224.54,-527.61 1291.58,-522.14 1334.74,-519.01"/>
<polygon fill="black" stroke="black" points="1334.75,-522.52 1344.48,-518.31 1334.25,-515.53 1334.75,-522.52"/>
</g>
<!-- arp_output_reply&#45;&gt;eth_output -->
<g id="edge28" class="edge">
<title>arp_output_reply&#45;&gt;eth_output</title>
<path fill="none" stroke="black" d="M595.12,-73.88C747.74,-79.35 1190.49,-95.22 1334.09,-100.37"/>
<polygon fill="black" stroke="black" points="1333.84,-103.86 1343.96,-100.72 1334.09,-96.87 1333.84,-103.86"/>
</g>
<!-- ip6_output&#45;&gt;eth_output -->
<g id="edge63" class="edge">
<title>ip6_output&#45;&gt;eth_output</title>
<path fill="none" stroke="black" d="M1254.23,-433.68C1266,-427.37 1279.19,-418.45 1287.85,-407 1321.52,-362.49 1359.17,-198.51 1373.58,-131.16"/>
<polygon fill="black" stroke="black" points="1376.95,-132.11 1375.6,-121.61 1370.1,-130.66 1376.95,-132.11"/>
</g>
<!-- ip6_output&#45;&gt;loop_xvrf -->
<g id="edge65" class="edge">
<title>ip6_output&#45;&gt;loop_xvrf</title>
<path fill="none" stroke="black" d="M1194.3,-439.6C1144.77,-431.72 1046.45,-418 962.41,-418 693.28,-418 693.28,-418 693.28,-418 591.05,-418 562.3,-443.88 480.35,-505 457.98,-521.69 438.61,-547.04 425.83,-566.25"/>
<polygon fill="black" stroke="black" points="422.89,-564.36 420.42,-574.66 428.77,-568.15 422.89,-564.36"/>
</g>
<!-- ip6_output&#45;&gt;sr6_output -->
<g id="edge66" class="edge">
<title>ip6_output&#45;&gt;sr6_output</title>
<path fill="none" stroke="black" d="M1257.82,-453.38C1284.25,-464.1 1322.82,-482.18 1349.45,-496.32"/>
<polygon fill="black" stroke="black" points="1347.57,-499.28 1358.03,-500.99 1350.92,-493.14 1347.57,-499.28"/>
</g>
<!-- ip6_hold -->
<g id="node40" class="node">
<title>ip6_hold</title>
<ellipse fill="none" stroke="black" cx="1380.63" cy="-462" rx="27" ry="18"/>
<text text-anchor="middle" x="1380.63" y="-458.3" font-family="sans" font-size="11.00">ip6_hold</text>
</g>
<!-- ip6_output&#45;&gt;ip6_hold -->
<g id="edge64" class="edge">
<title>ip6_output&#45;&gt;ip6_hold</title>
<path fill="none" stroke="black" d="M1261.12,-448.69C1285.14,-451.39 1317.74,-455.05 1342.67,-457.85"/>
<polygon fill="black" stroke="black" points="1342.04,-461.3 1352.37,-458.94 1342.82,-454.34 1342.04,-461.3"/>
</g>
<!-- ndp_na_output&#45;&gt;icmp6_output -->
<g id="edge68" class="edge">
<title>ndp_na_output&#45;&gt;icmp6_output</title>
<path fill="none" stroke="black" d="M995.96,-168.45C1010.65,-173.9 1028.05,-180.35 1043.65,-186.14"/>
<polygon fill="black" stroke="black" points="1042.09,-189.29 1052.68,-189.49 1044.52,-182.73 1042.09,-189.29"/>
</g>
<!-- control_output -->
<g id="node14" class="node">
<title>control_output</title>
<ellipse fill="none" stroke="black" cx="1519.67" cy="-627" rx="46.26" ry="18"/>
<text text-anchor="middle" x="1519.67" y="-623.3" font-family="sans" font-size="11.00">control_output</text>
</g>
<!-- arp_input -->
<g id="node16" class="node">
<title>arp_input</title>
<ellipse fill="none" stroke="black" cx="1227.28" cy="-380" rx="30.25" ry="18"/>
<text text-anchor="middle" x="1227.28" y="-376.3" font-family="sans" font-size="11.00">arp_input</text>
</g>
<!-- eth_input&#45;&gt;arp_input -->
<g id="edge13" class="edge">
<title>eth_input&#45;&gt;arp_input</title>
<path fill="none" stroke="black" d="M438.55,-399.93C489.78,-393.08 599.88,-380 693.28,-380 693.28,-380 693.28,-380 962.41,-380 1041.25,-380 1133.33,-380 1185.23,-380"/>
<polygon fill="black" stroke="black" points="1185.08,-383.5 1195.08,-380 1185.08,-376.5 1185.08,-383.5"/>
</g>
<!-- ip_input -->
<g id="node17" class="node">
<title>ip_input</title>
<ellipse fill="none" stroke="black" cx="832.06" cy="-830" rx="27" ry="18"/>
<text text-anchor="middle" x="832.06" y="-826.3" font-family="sans" font-size="11.00">ip_input</text>
</g>
<!-- eth_input&#45;&gt;ip_input -->
<g id="edge14" class="edge">
<title>eth_input&#45;&gt;ip_input</title>
<path fill="none" stroke="black" d="M414.17,-422.16C422.69,-453.23 443.62,-517.25 480.35,-559 526.84,-611.82 700.36,-675.52 749.38,-726 771.58,-748.86 765.43,-763.16 785.38,-788 791.26,-795.32 798.44,-802.53 805.34,-808.85"/>
<polygon fill="black" stroke="black" points="802.87,-811.34 812.69,-815.32 807.5,-806.09 802.87,-811.34"/>
</g>
<!-- ip6_input -->
<g id="node18" class="node">
<title>ip6_input</title>
<ellipse fill="none" stroke="black" cx="541.77" cy="-532" rx="29.41" ry="18"/>
<text text-anchor="middle" x="541.77" y="-528.3" font-family="sans" font-size="11.00">ip6_input</text>
</g>
<!-- eth_input&#45;&gt;ip6_input -->
<g id="edge15" class="edge">
<title>eth_input&#45;&gt;ip6_input</title>
<path fill="none" stroke="black" d="M425.45,-419.44C448.31,-441.76 490.76,-483.19 517.29,-509.09"/>
<polygon fill="black" stroke="black" points="514.62,-511.37 524.22,-515.85 519.51,-506.36 514.62,-511.37"/>
</g>
<!-- arp_input_request -->
<g id="node25" class="node">
<title>arp_input_request</title>
<ellipse fill="none" stroke="black" cx="1380.63" cy="-408" rx="56.78" ry="18"/>
<text text-anchor="middle" x="1380.63" y="-404.3" font-family="sans" font-size="11.00">arp_input_request</text>
</g>
<!-- arp_input&#45;&gt;arp_input_request -->
<g id="edge24" class="edge">
<title>arp_input&#45;&gt;arp_input_request</title>
<path fill="none" stroke="black" d="M1256.75,-385.27C1274.47,-388.54 1297.94,-392.89 1319.61,-396.9"/>
<polygon fill="black" stroke="black" points="1318.79,-400.3 1329.26,-398.68 1320.06,-393.42 1318.79,-400.3"/>
</g>
<!-- arp_input_reply -->
<g id="node26" class="node">
<title>arp_input_reply</title>
<ellipse fill="none" stroke="black" cx="1380.63" cy="-354" rx="48.78" ry="18"/>
<text text-anchor="middle" x="1380.63" y="-350.3" font-family="sans" font-size="11.00">arp_input_reply</text>
</g>
<!-- arp_input&#45;&gt;arp_input_reply -->
<g id="edge25" class="edge">
<title>arp_input&#45;&gt;arp_input_reply</title>
<path fill="none" stroke="black" d="M1256.75,-375.11C1275.88,-371.82 1301.72,-367.38 1324.76,-363.43"/>
<polygon fill="black" stroke="black" points="1325.06,-366.93 1334.32,-361.78 1323.87,-360.03 1325.06,-366.93"/>
</g>
<!-- ip_input&#45;&gt;dnat44_static -->
<g id="edge39" class="edge">
<title>ip_input&#45;&gt;dnat44_static</title>
<path fill="none" stroke="black" d="M812.31,-842.58C774.64,-867.03 686.26,-920.41 603.18,-941 422.2,-985.85 198.95,-986.53 98.17,-984.03"/>
<polygon fill="black" stroke="black" points="98.39,-980.54 88.3,-983.76 98.2,-987.53 98.39,-980.54"/>
</g>
<!-- ip_input&#45;&gt;ip_forward -->
<g id="edge36" class="edge">
<title>ip_input&#45;&gt;ip_forward</title>
<path fill="none" stroke="black" d="M807.37,-838.08C791.21,-843.31 769.21,-849.9 749.38,-854 631.41,-878.4 599.67,-870.41 480.35,-887 382.47,-900.61 267.89,-919.06 207.48,-928.99"/>
<polygon fill="black" stroke="black" points="207.29,-925.47 197.99,-930.55 208.43,-932.38 207.29,-925.47"/>
</g>
<!-- ip_input&#45;&gt;ip_input_local -->
<g id="edge38" class="edge">
<title>ip_input&#45;&gt;ip_input_local</title>
<path fill="none" stroke="black" d="M856.42,-838.44C873.46,-844.59 897.05,-853.11 917.45,-860.48"/>
<polygon fill="black" stroke="black" points="916.07,-863.71 926.67,-863.81 918.45,-857.12 916.07,-863.71"/>
</g>
<!-- ip_input&#45;&gt;ip_output -->
<g id="edge37" class="edge">
<title>ip_input&#45;&gt;ip_output</title>
<path fill="none" stroke="black" d="M805.48,-834.07C734.34,-844.34 529.06,-866.67 372.9,-811 354.06,-804.28 353.94,-794.48 336.9,-784 332.84,-781.5 328.47,-779.06 324.1,-776.75"/>
<polygon fill="black" stroke="black" points="325.88,-773.72 315.37,-772.33 322.71,-779.97 325.88,-773.72"/>
</g>
<!-- ip6_input&#45;&gt;ip6_output -->
<g id="edge58" class="edge">
<title>ip6_input&#45;&gt;ip6_output</title>
<path fill="none" stroke="black" d="M566.14,-521.43C614.51,-500.55 729.61,-456 831.06,-456 831.06,-456 831.06,-456 962.41,-456 1039.78,-456 1129.79,-451.22 1182.17,-447.96"/>
<polygon fill="black" stroke="black" points="1182.12,-451.47 1191.88,-447.35 1181.67,-444.49 1182.12,-451.47"/>
</g>
<!-- ip6_forward -->
<g id="node39" class="node">
<title>ip6_forward</title>
<ellipse fill="none" stroke="black" cx="961.41" cy="-502" rx="37.41" ry="18"/>
<text text-anchor="middle" x="961.41" y="-498.3" font-family="sans" font-size="11.00">ip6_forward</text>
</g>
<!-- ip6_input&#45;&gt;ip6_forward -->
<g id="edge57" class="edge">
<title>ip6_input&#45;&gt;ip6_forward</title>
<path fill="none" stroke="black" d="M571.48,-529.94C642.13,-524.86 825.04,-511.72 912.48,-505.44"/>
<polygon fill="black" stroke="black" points="912.68,-508.94 922.41,-504.73 912.18,-501.96 912.68,-508.94"/>
</g>
<!-- ip6_input_local -->
<g id="node41" class="node">
<title>ip6_input_local</title>
<ellipse fill="none" stroke="black" cx="832.06" cy="-596" rx="46.68" ry="18"/>
<text text-anchor="middle" x="832.06" y="-592.3" font-family="sans" font-size="11.00">ip6_input_local</text>
</g>
<!-- ip6_input&#45;&gt;ip6_input_local -->
<g id="edge59" class="edge">
<title>ip6_input&#45;&gt;ip6_input_local</title>
<path fill="none" stroke="black" d="M571.55,-530.98C612.14,-530.36 688.08,-532.2 749.38,-551 766.61,-556.28 784.3,-565.48 798.79,-574.19"/>
<polygon fill="black" stroke="black" points="796.64,-576.97 806.98,-579.29 800.34,-571.03 796.64,-576.97"/>
</g>
<!-- sr6_local -->
<g id="node42" class="node">
<title>sr6_local</title>
<ellipse fill="none" stroke="black" cx="694.28" cy="-578" rx="28.57" ry="18"/>
<text text-anchor="middle" x="694.28" y="-574.3" font-family="sans" font-size="11.00">sr6_local</text>
</g>
<!-- ip6_input&#45;&gt;sr6_local -->
<g id="edge60" class="edge">
<title>ip6_input&#45;&gt;sr6_local</title>
<path fill="none" stroke="black" d="M571.08,-535.24C596.71,-541.37 634.44,-552.82 661.19,-562.54"/>
<polygon fill="black" stroke="black" points="659.9,-565.8 670.49,-566.05 662.37,-559.25 659.9,-565.8"/>
</g>
<!-- port_tx -->
<g id="node20" class="node">
<title>port_tx</title>
<ellipse fill="none" stroke="black" cx="1519.67" cy="-64" rx="27" ry="18"/>
<text text-anchor="middle" x="1519.67" y="-60.3" font-family="sans" font-size="11.00">port_tx</text>
</g>
<!-- eth_output&#45;&gt;port_tx -->
<g id="edge16" class="edge">
<title>eth_output&#45;&gt;port_tx</title>
<path fill="none" stroke="black" d="M1412.05,-93.57C1433.13,-87.72 1461.27,-79.92 1483.35,-73.79"/>
<polygon fill="black" stroke="black" points="1484.12,-77.21 1492.82,-71.17 1482.25,-70.47 1484.12,-77.21"/>
</g>
<!-- l1_xconnect -->
<g id="node21" class="node">
<title>l1_xconnect</title>
<ellipse fill="none" stroke="black" cx="694.28" cy="-240" rx="38.25" ry="18"/>
<text text-anchor="middle" x="694.28" y="-236.3" font-family="sans" font-size="11.00">l1_xconnect</text>
</g>
<!-- l1_xconnect&#45;&gt;port_tx -->
<g id="edge17" class="edge">
<title>l1_xconnect&#45;&gt;port_tx</title>
<path fill="none" stroke="black" d="M732.88,-239.47C770.21,-238.35 828.92,-234.98 878.74,-225 1083.43,-183.98 1118.97,-115.04 1323.85,-75 1377.63,-64.49 1441.24,-62.87 1480.77,-63.1"/>
<polygon fill="black" stroke="black" points="1480.68,-66.6 1490.72,-63.21 1480.76,-59.6 1480.68,-66.6"/>
</g>
<!-- loopback_output -->
<g id="node22" class="node">
<title>loopback_output</title>
<ellipse fill="none" stroke="black" cx="1380.63" cy="-740" rx="52.15" ry="18"/>
<text text-anchor="middle" x="1380.63" y="-736.3" font-family="sans" font-size="11.00">loopback_output</text>
</g>
<!-- loopback_output&#45;&gt;control_output -->
<g id="edge19" class="edge">
<title>loopback_output&#45;&gt;control_output</title>
<path fill="none" stroke="black" d="M1406.63,-724.11C1416.46,-717.57 1427.69,-709.73 1437.42,-702 1457.2,-686.27 1478.12,-666.89 1493.78,-651.77"/>
<polygon fill="black" stroke="black" points="1496.09,-654.4 1500.81,-644.92 1491.21,-649.39 1496.09,-654.4"/>
</g>
<!-- loop_xvrf&#45;&gt;ip_input -->
<g id="edge20" class="edge">
<title>loop_xvrf&#45;&gt;ip_input</title>
<path fill="none" stroke="black" d="M429.53,-606.16C443.58,-615.33 462.94,-627.71 480.35,-638 596.72,-706.77 738.98,-782.02 800.41,-814.09"/>
<polygon fill="black" stroke="black" points="798.41,-817 808.9,-818.51 801.65,-810.79 798.41,-817"/>
</g>
<!-- loop_xvrf&#45;&gt;ip6_input -->
<g id="edge21" class="edge">
<title>loop_xvrf&#45;&gt;ip6_input</title>
<path fill="none" stroke="black" d="M433.07,-582.09C453.68,-572.51 483.91,-558.45 507.1,-547.66"/>
<polygon fill="black" stroke="black" points="508.56,-550.84 516.15,-543.45 505.61,-544.49 508.56,-550.84"/>
</g>
<!-- port_rx -->
<g id="node24" class="node">
<title>port_rx</title>
<ellipse fill="none" stroke="blue" stroke-width="2" cx="289.38" cy="-350" rx="27" ry="18"/>
<text text-anchor="middle" x="289.38" y="-346.3" font-family="sans" font-size="11.00">port_rx</text>
</g>
<!-- port_rx&#45;&gt;eth_input -->
<g id="edge22" class="edge">
<title>port_rx&#45;&gt;eth_input</title>
<path fill="none" stroke="blue" stroke-width="2" d="M312.16,-360.03C329.37,-367.96 353.7,-379.16 373.5,-388.28"/>
<polygon fill="blue" stroke="blue" stroke-width="2" points="370.65,-390.82 381.2,-391.83 373.58,-384.47 370.65,-390.82"/>
</g>
<!-- port_rx&#45;&gt;l1_xconnect -->
<g id="edge23" class="edge">
<title>port_rx&#45;&gt;l1_xconnect</title>
<path fill="none" stroke="blue" stroke-width="2" d="M314.98,-343.28C381.38,-325.16 564.94,-275.04 649.54,-251.94"/>
<polygon fill="blue" stroke="blue" stroke-width="2" points="648.92,-255.74 657.64,-249.73 647.07,-248.99 648.92,-255.74"/>
</g>
<!-- arp_input_request&#45;&gt;control_output -->
<g id="edge27" class="edge">
<title>arp_input_request&#45;&gt;control_output</title>
<path fill="none" stroke="black" d="M1419.25,-421.56C1425.89,-425.18 1432.3,-429.62 1437.42,-435 1481.91,-481.79 1503.85,-556.6 1513.06,-597.66"/>
<polygon fill="black" stroke="black" points="1509.61,-598.24 1515.11,-607.3 1516.45,-596.79 1509.61,-598.24"/>
</g>
<!-- arp_input_reply&#45;&gt;control_output -->
<g id="edge26" class="edge">
<title>arp_input_reply&#45;&gt;control_output</title>
<path fill="none" stroke="black" d="M1417.59,-366.15C1424.92,-369.97 1432.03,-374.85 1437.42,-381 1493.01,-444.44 1510.75,-546.95 1516.27,-597.24"/>
<polygon fill="black" stroke="black" points="1512.78,-597.45 1517.25,-607.06 1519.74,-596.76 1512.78,-597.45"/>
</g>
<!-- icmp_input&#45;&gt;control_output -->
<g id="edge31" class="edge">
<title>icmp_input&#45;&gt;control_output</title>
<path fill="none" stroke="black" d="M1122.72,-892.92C1190.69,-892.93 1343.92,-883.66 1437.42,-806 1483.91,-767.38 1504.96,-696.53 1513.52,-656.52"/>
<polygon fill="black" stroke="black" points="1516.92,-657.38 1515.45,-646.89 1510.06,-656.01 1516.92,-657.38"/>
</g>
<!-- icmp_input&#45;&gt;icmp_output -->
<g id="edge30" class="edge">
<title>icmp_input&#45;&gt;icmp_output</title>
<path fill="none" stroke="black" d="M1117.3,-901.64C1136.53,-908.06 1162.13,-916.6 1183.68,-923.79"/>
<polygon fill="black" stroke="black" points="1182.49,-927.08 1193.09,-926.93 1184.71,-920.44 1182.49,-927.08"/>
</g>
<!-- icmp_output&#45;&gt;ip_output -->
<g id="edge33" class="edge">
<title>icmp_output&#45;&gt;ip_output</title>
<path fill="none" stroke="black" d="M1203.68,-952.67C1159.33,-980.01 1056.97,-1036 962.41,-1036 831.06,-1036 831.06,-1036 831.06,-1036 669.57,-1036 621.17,-1020.04 480.35,-941 407.54,-900.13 341.37,-825.18 309.83,-786.14"/>
<polygon fill="black" stroke="black" points="312.84,-784.3 303.87,-778.67 307.36,-788.67 312.84,-784.3"/>
</g>
<!-- ip_hold&#45;&gt;control_output -->
<g id="edge35" class="edge">
<title>ip_hold&#45;&gt;control_output</title>
<path fill="none" stroke="black" d="M858.1,-766.12C903.44,-774.92 1002.21,-792 1086.4,-792 1086.4,-792 1086.4,-792 1228.28,-792 1321.89,-792 1359.21,-818.45 1437.42,-767 1476.9,-741.02 1499.57,-688.76 1510.48,-655.96"/>
<polygon fill="black" stroke="black" points="1513.74,-657.27 1513.41,-646.68 1507.06,-655.17 1513.74,-657.27"/>
</g>
<!-- ipip_input&#45;&gt;ip_input -->
<g id="edge72" class="edge">
<title>ipip_input&#45;&gt;ip_input</title>
<path fill="none" stroke="black" d="M1056.09,-837.04C1009.65,-835.58 920.98,-832.78 870.56,-831.18"/>
<polygon fill="black" stroke="black" points="870.83,-827.69 860.73,-830.87 870.61,-834.69 870.83,-827.69"/>
</g>
<!-- l4_loopback_output -->
<g id="node43" class="node">
<title>l4_loopback_output</title>
<ellipse fill="none" stroke="black" cx="1227.28" cy="-746" rx="60.57" ry="18"/>
<text text-anchor="middle" x="1227.28" y="-742.3" font-family="sans" font-size="11.00">l4_loopback_output</text>
</g>
<!-- l4_input_local&#45;&gt;l4_loopback_output -->
<g id="edge74" class="edge">
<title>l4_input_local&#45;&gt;l4_loopback_output</title>
<path fill="none" stroke="black" d="M1130.51,-746C1138.3,-746 1146.63,-746 1155,-746"/>
<polygon fill="black" stroke="black" points="1154.88,-749.5 1164.88,-746 1154.88,-742.5 1154.88,-749.5"/>
</g>
<!-- ipip_output&#45;&gt;ip_output -->
<g id="edge73" class="edge">
<title>ipip_output&#45;&gt;ip_output</title>
<path fill="none" stroke="black" d="M372.69,-783.38C357.79,-781.14 340.45,-777.74 325.53,-774.14"/>
<polygon fill="black" stroke="black" points="326.7,-770.83 316.14,-771.73 324.96,-777.61 326.7,-770.83"/>
</g>
<!-- sr6_output&#45;&gt;ip6_output -->
<g id="edge79" class="edge">
<title>sr6_output&#45;&gt;ip6_output</title>
<path fill="none" stroke="black" d="M1349.65,-507.45C1323.27,-496.72 1285.03,-478.79 1258.56,-464.73"/>
<polygon fill="black" stroke="black" points="1260.48,-461.79 1250.02,-460.09 1257.13,-467.94 1260.48,-461.79"/>
</g>
<!-- icmp6_input -->
<g id="node34" class="node">
<title>icmp6_input</title>
<ellipse fill="none" stroke="black" cx="961.41" cy="-604" rx="38.68" ry="18"/>
<text text-anchor="middle" x="961.41" y="-600.3" font-family="sans" font-size="11.00">icmp6_input</text>
</g>
<!-- icmp6_input&#45;&gt;control_output -->
<g id="edge52" class="edge">
<title>icmp6_input&#45;&gt;control_output</title>
<path fill="none" stroke="black" d="M1000.21,-605.56C1095.95,-609.52 1348.48,-619.96 1461.99,-624.66"/>
<polygon fill="black" stroke="black" points="1461.53,-628.14 1471.67,-625.06 1461.82,-621.15 1461.53,-628.14"/>
</g>
<!-- icmp6_input&#45;&gt;icmp6_output -->
<g id="edge48" class="edge">
<title>icmp6_input&#45;&gt;icmp6_output</title>
<path fill="none" stroke="black" d="M974.94,-586.95C985.19,-572.26 999.37,-550.14 1008.09,-529 1051.29,-424.2 1074.01,-290.24 1082.46,-231.66"/>
<polygon fill="black" stroke="black" points="1085.92,-232.23 1083.84,-221.84 1078.98,-231.25 1085.92,-232.23"/>
</g>
<!-- ndp_ns_input -->
<g id="node36" class="node">
<title>ndp_ns_input</title>
<ellipse fill="none" stroke="black" cx="1227.28" cy="-562" rx="41.62" ry="18"/>
<text text-anchor="middle" x="1227.28" y="-558.3" font-family="sans" font-size="11.00">ndp_ns_input</text>
</g>
<!-- icmp6_input&#45;&gt;ndp_ns_input -->
<g id="edge49" class="edge">
<title>icmp6_input&#45;&gt;ndp_ns_input</title>
<path fill="none" stroke="black" d="M998.55,-598.25C1044.61,-590.92 1124.46,-578.21 1176.32,-569.95"/>
<polygon fill="black" stroke="black" points="1176.76,-573.43 1186.09,-568.4 1175.66,-566.51 1176.76,-573.43"/>
</g>
<!-- ndp_na_input -->
<g id="node37" class="node">
<title>ndp_na_input</title>
<ellipse fill="none" stroke="black" cx="1227.28" cy="-692" rx="42.04" ry="18"/>
<text text-anchor="middle" x="1227.28" y="-688.3" font-family="sans" font-size="11.00">ndp_na_input</text>
</g>
<!-- icmp6_input&#45;&gt;ndp_na_input -->
<g id="edge50" class="edge">
<title>icmp6_input&#45;&gt;ndp_na_input</title>
<path fill="none" stroke="black" d="M974.59,-621.1C988.87,-639.6 1014.4,-668.16 1044.09,-681 1085.6,-698.95 1137.46,-700.3 1175.22,-697.99"/>
<polygon fill="black" stroke="black" points="1175.23,-701.5 1184.95,-697.28 1174.72,-694.51 1175.23,-701.5"/>
</g>
<!-- ndp_rs_input -->
<g id="node38" class="node">
<title>ndp_rs_input</title>
<ellipse fill="none" stroke="black" cx="1087.4" cy="-654" rx="40.36" ry="18"/>
<text text-anchor="middle" x="1087.4" y="-650.3" font-family="sans" font-size="11.00">ndp_rs_input</text>
</g>
<!-- icmp6_input&#45;&gt;ndp_rs_input -->
<g id="edge51" class="edge">
<title>icmp6_input&#45;&gt;ndp_rs_input</title>
<path fill="none" stroke="black" d="M991.48,-615.72C1007.72,-622.27 1028.21,-630.53 1045.99,-637.7"/>
<polygon fill="black" stroke="black" points="1044.66,-640.94 1055.24,-641.44 1047.28,-634.45 1044.66,-640.94"/>
</g>
<!-- icmp6_output&#45;&gt;ip6_output -->
<g id="edge53" class="edge">
<title>icmp6_output&#45;&gt;ip6_output</title>
<path fill="none" stroke="black" d="M1097.75,-219.74C1106.88,-237.47 1120.81,-265.66 1130.7,-291 1150.34,-341.28 1133.95,-364.09 1166.7,-407 1173.03,-415.29 1181.72,-422.26 1190.52,-427.88"/>
<polygon fill="black" stroke="black" points="1188.66,-430.85 1199.06,-432.88 1192.19,-424.81 1188.66,-430.85"/>
</g>
<!-- ndp_ns_input&#45;&gt;control_output -->
<g id="edge69" class="edge">
<title>ndp_ns_input&#45;&gt;control_output</title>
<path fill="none" stroke="black" d="M1268.56,-565.34C1311.11,-569.53 1379.87,-578.15 1437.42,-594 1451.18,-597.79 1465.76,-603.23 1478.71,-608.6"/>
<polygon fill="black" stroke="black" points="1477.19,-611.76 1487.76,-612.47 1479.94,-605.32 1477.19,-611.76"/>
</g>
<!-- ndp_na_input&#45;&gt;control_output -->
<g id="edge67" class="edge">
<title>ndp_na_input&#45;&gt;control_output</title>
<path fill="none" stroke="black" d="M1268.96,-688.62C1311.54,-684.42 1380.05,-675.8 1437.42,-660 1451.18,-656.21 1465.76,-650.77 1478.71,-645.4"/>
<polygon fill="black" stroke="black" points="1479.94,-648.68 1487.76,-641.53 1477.19,-642.24 1479.94,-648.68"/>
</g>
<!-- ndp_rs_input&#45;&gt;control_output -->
<g id="edge71" class="edge">
<title>ndp_rs_input&#45;&gt;control_output</title>
<path fill="none" stroke="black" d="M1127.72,-651.53C1204.26,-646.73 1373.49,-636.11 1462.08,-630.55"/>
<polygon fill="black" stroke="black" points="1462.24,-634.05 1472,-629.93 1461.8,-627.06 1462.24,-634.05"/>
</g>
<!-- ip6_forward&#45;&gt;ip6_output -->
<g id="edge55" class="edge">
<title>ip6_forward&#45;&gt;ip6_output</title>
<path fill="none" stroke="black" d="M997.04,-496.12C1031.16,-490.17 1084.72,-480.37 1130.7,-470 1148.96,-465.88 1169.01,-460.73 1186.01,-456.18"/>
<polygon fill="black" stroke="black" points="1186.5,-459.68 1195.24,-453.69 1184.67,-452.92 1186.5,-459.68"/>
</g>
<!-- ip6_hold&#45;&gt;control_output -->
<g id="edge56" class="edge">
<title>ip6_hold&#45;&gt;control_output</title>
<path fill="none" stroke="black" d="M1405.48,-469.92C1416.14,-474.31 1428.32,-480.61 1437.42,-489 1471.1,-520.05 1495.08,-568.3 1507.9,-598.74"/>
<polygon fill="black" stroke="black" points="1504.53,-599.74 1511.54,-607.69 1511.01,-597.1 1504.53,-599.74"/>
</g>
<!-- ip6_input_local&#45;&gt;l4_input_local -->
<g id="edge62" class="edge">
<title>ip6_input_local&#45;&gt;l4_input_local</title>
<path fill="none" stroke="black" d="M858.74,-611.21C904.5,-638.3 1000.15,-694.93 1051.7,-725.46"/>
<polygon fill="black" stroke="black" points="1049.7,-728.34 1060.09,-730.43 1053.27,-722.32 1049.7,-728.34"/>
</g>
<!-- ip6_input_local&#45;&gt;icmp6_input -->
<g id="edge61" class="edge">
<title>ip6_input_local&#45;&gt;icmp6_input</title>
<path fill="none" stroke="black" d="M878.32,-598.84C889.14,-599.52 900.74,-600.25 911.72,-600.94"/>
<polygon fill="black" stroke="black" points="911.15,-604.41 921.35,-601.55 911.59,-597.43 911.15,-604.41"/>
</g>
<!-- sr6_local&#45;&gt;ip_input -->
<g id="edge76" class="edge">
<title>sr6_local&#45;&gt;ip_input</title>
<path fill="none" stroke="black" d="M719.54,-586.99C730.25,-592.15 742.05,-599.68 749.38,-610 796.15,-675.78 745.74,-717.69 785.38,-788 790,-796.18 796.76,-803.66 803.69,-809.97"/>
<polygon fill="black" stroke="black" points="801.32,-812.56 811.23,-816.32 805.83,-807.2 801.32,-812.56"/>
</g>
<!-- sr6_local&#45;&gt;ip6_input -->
<g id="edge77" class="edge">
<title>sr6_local&#45;&gt;ip6_input</title>
<path fill="none" stroke="black" d="M665.75,-574.94C640.19,-568.88 602.12,-557.35 575.12,-547.55"/>
<polygon fill="black" stroke="black" points="576.66,-544.39 566.07,-544.15 574.2,-550.94 576.66,-544.39"/>
</g>
<!-- sr6_local&#45;&gt;ip6_input_local -->
<g id="edge78" class="edge">
<title>sr6_local&#45;&gt;ip6_input_local</title>
<path fill="none" stroke="black" d="M722.76,-581.64C738.1,-583.68 757.76,-586.28 776.11,-588.72"/>
<polygon fill="black" stroke="black" points="775.45,-592.16 785.82,-590 776.37,-585.22 775.45,-592.16"/>
</g>
<!-- l4_loopback_output&#45;&gt;loopback_output -->
<g id="edge75" class="edge">
<title>l4_loopback_output&#45;&gt;loopback_output</title>
<path fill="none" stroke="black" d="M1287.66,-743.65C1297.42,-743.26 1307.57,-742.86 1317.4,-742.47"/>
<polygon fill="black" stroke="black" points="1317.38,-745.97 1327.24,-742.08 1317.11,-738.98 1317.38,-745.97"/>
</g>
</g>
</svg>
