<?xml version="1.0" encoding="UTF-8" standalone="no"?>
<!DOCTYPE svg PUBLIC "-//W3C//DTD SVG 1.1//EN"
 "http://www.w3.org/Graphics/SVG/1.1/DTD/svg11.dtd">
<!-- Generated by graphviz version 13.1.2 (20250808.2320)
 -->
<!-- Pages: 1 -->
<svg width="2191pt" height="988pt"
 viewBox="0.00 0.00 2191.00 988.00" xmlns="http://www.w3.org/2000/svg" xmlns:xlink="http://www.w3.org/1999/xlink">
<g id="graph0" class="graph" transform="scale(1 1) rotate(0) translate(4 984)">
<polygon fill="white" stroke="none" points="-4,4 -4,-984 2186.68,-984 2186.68,4 -4,4"/>
<!-- bond_output -->
<g id="node1" class="node">
<title>bond_output</title>
<ellipse fill="none" stroke="black" cx="154.97" cy="-475" rx="39.94" ry="18"/>
<text xml:space="preserve" text-anchor="middle" x="154.97" y="-471.3" font-family="sans" font-size="11.00">bond_output</text>
</g>
<!-- port_output -->
<g id="node3" class="node">
<title>port_output</title>
<ellipse fill="none" stroke="black" cx="270.01" cy="-475" rx="37.41" ry="18"/>
<text xml:space="preserve" text-anchor="middle" x="270.01" y="-471.3" font-family="sans" font-size="11.00">port_output</text>
</g>
<!-- bond_output&#45;&gt;port_output -->
<g id="edge1" class="edge">
<title>bond_output&#45;&gt;port_output</title>
<path fill="none" stroke="black" d="M195.19,-475C203.43,-475 212.22,-475 220.75,-475"/>
<polygon fill="black" stroke="black" points="220.63,-478.5 230.63,-475 220.63,-471.5 220.63,-478.5"/>
</g>
<!-- iface_output -->
<g id="node2" class="node">
<title>iface_output</title>
<ellipse fill="none" stroke="black" cx="39.52" cy="-521" rx="39.52" ry="18"/>
<text xml:space="preserve" text-anchor="middle" x="39.52" y="-517.3" font-family="sans" font-size="11.00">iface_output</text>
</g>
<!-- iface_output&#45;&gt;bond_output -->
<g id="edge8" class="edge">
<title>iface_output&#45;&gt;bond_output</title>
<path fill="none" stroke="black" d="M70.03,-509.03C83.56,-503.55 99.79,-496.97 114.36,-491.06"/>
<polygon fill="black" stroke="black" points="115.25,-494.48 123.21,-487.47 112.62,-487.99 115.25,-494.48"/>
</g>
<!-- iface_output&#45;&gt;port_output -->
<g id="edge9" class="edge">
<title>iface_output&#45;&gt;port_output</title>
<path fill="none" stroke="black" d="M52.05,-503.51C64.97,-485.7 87.7,-459.16 115.04,-448 153.52,-432.29 201.08,-445.05 233.07,-457.83"/>
<polygon fill="black" stroke="black" points="231.32,-460.89 241.9,-461.54 234.03,-454.44 231.32,-460.89"/>
</g>
<!-- bridge_input -->
<g id="node19" class="node">
<title>bridge_input</title>
<ellipse fill="none" stroke="black" cx="154.97" cy="-621" rx="39.52" ry="18"/>
<text xml:space="preserve" text-anchor="middle" x="154.97" y="-617.3" font-family="sans" font-size="11.00">bridge_input</text>
</g>
<!-- iface_output&#45;&gt;bridge_input -->
<g id="edge10" class="edge">
<title>iface_output&#45;&gt;bridge_input</title>
<path fill="none" stroke="black" d="M64.06,-535.27C78.59,-547.52 97.69,-564.98 115.04,-580 120.99,-585.16 127.57,-590.65 133.6,-595.98"/>
<polygon fill="black" stroke="black" points="131.07,-598.41 140.8,-602.62 135.82,-593.27 131.07,-598.41"/>
</g>
<!-- port_tx -->
<g id="node5" class="node">
<title>port_tx</title>
<ellipse fill="none" stroke="black" cx="393.18" cy="-475" rx="27" ry="18"/>
<text xml:space="preserve" text-anchor="middle" x="393.18" y="-471.3" font-family="sans" font-size="11.00">port_tx</text>
</g>
<!-- port_output&#45;&gt;port_tx -->
<g id="edge16" class="edge">
<title>port_output&#45;&gt;port_tx</title>
<path fill="none" stroke="black" d="M307.69,-475C322.53,-475 339.65,-475 354.58,-475"/>
<polygon fill="black" stroke="black" points="354.49,-478.5 364.49,-475 354.49,-471.5 354.49,-478.5"/>
</g>
<!-- port_rx -->
<g id="node4" class="node">
<title>port_rx</title>
<ellipse fill="none" stroke="blue" stroke-width="2" cx="39.52" cy="-621" rx="27" ry="18"/>
<text xml:space="preserve" text-anchor="middle" x="39.52" y="-617.3" font-family="sans" font-size="11.00">port_rx</text>
</g>
<!-- xconnect -->
<g id="node6" class="node">
<title>xconnect</title>
<ellipse fill="none" stroke="black" cx="154.97" cy="-529" rx="29.83" ry="18"/>
<text xml:space="preserve" text-anchor="middle" x="154.97" y="-525.3" font-family="sans" font-size="11.00">xconnect</text>
</g>
<!-- port_rx&#45;&gt;xconnect -->
<g id="edge18" class="edge">
<title>port_rx&#45;&gt;xconnect</title>
<path fill="none" stroke="blue" stroke-width="2" d="M57.26,-607.43C75.81,-592.38 105.98,-567.92 127.69,-550.31"/>
<polygon fill="blue" stroke="blue" stroke-width="2" points="128.5,-554.16 134.07,-545.14 124.09,-548.72 128.5,-554.16"/>
</g>
<!-- eth_input -->
<g id="node7" class="node">
<title>eth_input</title>
<ellipse fill="none" stroke="black" cx="393.18" cy="-648" rx="30.25" ry="18"/>
<text xml:space="preserve" text-anchor="middle" x="393.18" y="-644.3" font-family="sans" font-size="11.00">eth_input</text>
</g>
<!-- port_rx&#45;&gt;eth_input -->
<g id="edge17" class="edge">
<title>port_rx&#45;&gt;eth_input</title>
<path fill="none" stroke="blue" stroke-width="2" d="M62.14,-631.1C76.72,-637.35 96.6,-644.76 115.04,-648 198.26,-662.61 297.72,-657.18 351.98,-652.32"/>
<polygon fill="blue" stroke="blue" stroke-width="2" points="350.53,-655.97 360.15,-651.55 349.87,-649.01 350.53,-655.97"/>
</g>
<!-- port_rx&#45;&gt;bridge_input -->
<g id="edge19" class="edge">
<title>port_rx&#45;&gt;bridge_input</title>
<path fill="none" stroke="blue" stroke-width="2" d="M66.83,-621C77.86,-621 91.06,-621 103.81,-621"/>
<polygon fill="blue" stroke="blue" stroke-width="2" points="102.3,-624.5 112.3,-621 102.3,-617.5 102.3,-624.5"/>
</g>
<!-- xconnect&#45;&gt;port_output -->
<g id="edge21" class="edge">
<title>xconnect&#45;&gt;port_output</title>
<path fill="none" stroke="black" d="M179.12,-517.94C194.56,-510.56 215.18,-500.71 232.78,-492.31"/>
<polygon fill="black" stroke="black" points="233.85,-495.68 241.36,-488.21 230.83,-489.36 233.85,-495.68"/>
</g>
<!-- lacp_input -->
<g id="node10" class="node">
<title>lacp_input</title>
<polygon fill="none" stroke="dodgerblue" points="547.16,-693 477.26,-693 477.26,-657 547.16,-657 547.16,-693"/>
<text xml:space="preserve" text-anchor="middle" x="512.21" y="-671.3" font-family="sans" font-size="11.00">lacp_input</text>
</g>
<!-- eth_input&#45;&gt;lacp_input -->
<g id="edge3" class="edge">
<title>eth_input&#45;&gt;lacp_input</title>
<path fill="none" stroke="black" d="M421.91,-654.4C435.06,-657.43 451.09,-661.13 465.93,-664.55"/>
<polygon fill="black" stroke="black" points="464.97,-667.93 475.5,-666.76 466.55,-661.1 464.97,-667.93"/>
</g>
<!-- snap_input -->
<g id="node12" class="node">
<title>snap_input</title>
<ellipse fill="none" stroke="black" cx="1157.56" cy="-857" rx="34.89" ry="18"/>
<text xml:space="preserve" text-anchor="middle" x="1157.56" y="-853.3" font-family="sans" font-size="11.00">snap_input</text>
</g>
<!-- eth_input&#45;&gt;snap_input -->
<g id="edge2" class="edge">
<title>eth_input&#45;&gt;snap_input</title>
<path fill="none" stroke="black" d="M402.95,-665.15C430.27,-715.93 519.23,-862 638.48,-862 638.48,-862 638.48,-862 906.03,-862 977.72,-862 1060.92,-859.93 1111.11,-858.45"/>
<polygon fill="black" stroke="black" points="1111.12,-861.95 1121.01,-858.16 1110.91,-854.96 1111.12,-861.95"/>
</g>
<!-- arp_input -->
<g id="node13" class="node">
<title>arp_input</title>
<ellipse fill="none" stroke="black" cx="512.21" cy="-908" rx="30.25" ry="18"/>
<text xml:space="preserve" text-anchor="middle" x="512.21" y="-904.3" font-family="sans" font-size="11.00">arp_input</text>
</g>
<!-- eth_input&#45;&gt;arp_input -->
<g id="edge4" class="edge">
<title>eth_input&#45;&gt;arp_input</title>
<path fill="none" stroke="black" d="M397.78,-666.16C406.4,-706.55 431.04,-805.8 477.26,-876 479.46,-879.35 482.08,-882.6 484.88,-885.66"/>
<polygon fill="black" stroke="black" points="482.37,-888.11 491.93,-892.67 487.3,-883.14 482.37,-888.11"/>
</g>
<!-- ip_input -->
<g id="node27" class="node">
<title>ip_input</title>
<ellipse fill="none" stroke="black" cx="512.21" cy="-621" rx="27" ry="18"/>
<text xml:space="preserve" text-anchor="middle" x="512.21" y="-617.3" font-family="sans" font-size="11.00">ip_input</text>
</g>
<!-- eth_input&#45;&gt;ip_input -->
<g id="edge5" class="edge">
<title>eth_input&#45;&gt;ip_input</title>
<path fill="none" stroke="black" d="M421.91,-641.6C437.99,-637.89 458.41,-633.18 475.66,-629.2"/>
<polygon fill="black" stroke="black" points="476.02,-632.71 484.98,-627.05 474.45,-625.89 476.02,-632.71"/>
</g>
<!-- ip6_input -->
<g id="node33" class="node">
<title>ip6_input</title>
<ellipse fill="none" stroke="black" cx="1365.31" cy="-472" rx="29.41" ry="18"/>
<text xml:space="preserve" text-anchor="middle" x="1365.31" y="-468.3" font-family="sans" font-size="11.00">ip6_input</text>
</g>
<!-- eth_input&#45;&gt;ip6_input -->
<g id="edge6" class="edge">
<title>eth_input&#45;&gt;ip6_input</title>
<path fill="none" stroke="black" d="M399.58,-630.05C419.68,-567.22 496.49,-361 638.48,-361 638.48,-361 638.48,-361 1158.56,-361 1232.27,-361 1304.94,-416.86 1340.96,-449.33"/>
<polygon fill="black" stroke="black" points="1338.47,-451.79 1348.19,-456 1343.21,-446.65 1338.47,-451.79"/>
</g>
<!-- eth_output -->
<g id="node8" class="node">
<title>eth_output</title>
<ellipse fill="none" stroke="black" cx="2147.79" cy="-137" rx="34.89" ry="18"/>
<text xml:space="preserve" text-anchor="middle" x="2147.79" y="-133.3" font-family="sans" font-size="11.00">eth_output</text>
</g>
<!-- eth_output&#45;&gt;iface_output -->
<g id="edge7" class="edge">
<title>eth_output&#45;&gt;iface_output</title>
<path fill="none" stroke="black" d="M2131.26,-120.69C2118.1,-108.02 2098.04,-91.26 2076.91,-83 1986.96,-47.83 1957.01,-64 1860.43,-64 269.01,-64 269.01,-64 269.01,-64 77.22,-64 46.41,-389.98 41.46,-491.31"/>
<polygon fill="black" stroke="black" points="37.98,-490.87 41.04,-501.01 44.97,-491.17 37.98,-490.87"/>
</g>
<!-- l2_redirect -->
<g id="node9" class="node">
<title>l2_redirect</title>
<polygon fill="none" stroke="dodgerblue" points="1895.51,-833 1823.36,-833 1823.36,-797 1895.51,-797 1895.51,-833"/>
<text xml:space="preserve" text-anchor="middle" x="1859.43" y="-811.3" font-family="sans" font-size="11.00">l2_redirect</text>
</g>
<!-- lacp_output -->
<g id="node11" class="node">
<title>lacp_output</title>
<polygon fill="none" stroke="dodgerblue" points="2055.53,-36 1977.38,-36 1977.38,0 2055.53,0 2055.53,-36"/>
<text xml:space="preserve" text-anchor="middle" x="2016.46" y="-14.3" font-family="sans" font-size="11.00">lacp_output</text>
</g>
<!-- lacp_output&#45;&gt;eth_output -->
<g id="edge11" class="edge">
<title>lacp_output&#45;&gt;eth_output</title>
<path fill="none" stroke="dodgerblue" d="M2056.01,-35.82C2063.3,-39.98 2070.6,-44.75 2076.91,-50 2097.74,-67.33 2116.67,-91.69 2129.55,-110.23"/>
<polygon fill="dodgerblue" stroke="dodgerblue" points="2126.54,-112.02 2135.04,-118.33 2132.33,-108.09 2126.54,-112.02"/>
</g>
<!-- snap_input&#45;&gt;l2_redirect -->
<g id="edge20" class="edge">
<title>snap_input&#45;&gt;l2_redirect</title>
<path fill="none" stroke="black" d="M1192.01,-853.32C1232.68,-849.17 1303.44,-843 1364.31,-843 1364.31,-843 1364.31,-843 1571.53,-843 1656.75,-843 1755.52,-830.61 1812.13,-822.32"/>
<polygon fill="black" stroke="black" points="1812.33,-825.82 1821.71,-820.89 1811.3,-818.9 1812.33,-825.82"/>
</g>
<!-- arp_input_reply -->
<g id="node14" class="node">
<title>arp_input_reply</title>
<polygon fill="none" stroke="dodgerblue" points="688.68,-926 590.28,-926 590.28,-890 688.68,-890 688.68,-926"/>
<text xml:space="preserve" text-anchor="middle" x="639.48" y="-904.3" font-family="sans" font-size="11.00">arp_input_reply</text>
</g>
<!-- arp_input&#45;&gt;arp_input_reply -->
<g id="edge23" class="edge">
<title>arp_input&#45;&gt;arp_input_reply</title>
<path fill="none" stroke="black" d="M542.89,-908C553.64,-908 566.2,-908 578.61,-908"/>
<polygon fill="black" stroke="black" points="578.39,-911.5 588.39,-908 578.39,-904.5 578.39,-911.5"/>
</g>
<!-- arp_input_request -->
<g id="node15" class="node">
<title>arp_input_request</title>
<polygon fill="none" stroke="dodgerblue" points="695.81,-980 583.16,-980 583.16,-944 695.81,-944 695.81,-980"/>
<text xml:space="preserve" text-anchor="middle" x="639.48" y="-958.3" font-family="sans" font-size="11.00">arp_input_request</text>
</g>
<!-- arp_input&#45;&gt;arp_input_request -->
<g id="edge22" class="edge">
<title>arp_input&#45;&gt;arp_input_request</title>
<path fill="none" stroke="black" d="M537.36,-918.41C551.02,-924.3 568.67,-931.91 585.38,-939.11"/>
<polygon fill="black" stroke="black" points="583.67,-942.19 594.24,-942.93 586.44,-935.76 583.67,-942.19"/>
</g>
<!-- arp_output_reply -->
<g id="node16" class="node">
<title>arp_output_reply</title>
<polygon fill="none" stroke="dodgerblue" points="2069.78,-182 1963.13,-182 1963.13,-146 2069.78,-146 2069.78,-182"/>
<text xml:space="preserve" text-anchor="middle" x="2016.46" y="-160.3" font-family="sans" font-size="11.00">arp_output_reply</text>
</g>
<!-- arp_output_reply&#45;&gt;eth_output -->
<g id="edge24" class="edge">
<title>arp_output_reply&#45;&gt;eth_output</title>
<path fill="none" stroke="dodgerblue" d="M2070.06,-153.02C2081.38,-150.66 2093.2,-148.19 2104.09,-145.91"/>
<polygon fill="dodgerblue" stroke="dodgerblue" points="2104.47,-149.41 2113.55,-143.94 2103.04,-142.56 2104.47,-149.41"/>
</g>
<!-- arp_output_request -->
<g id="node17" class="node">
<title>arp_output_request</title>
<polygon fill="none" stroke="dodgerblue" points="2076.91,-128 1956.01,-128 1956.01,-92 2076.91,-92 2076.91,-128"/>
<text xml:space="preserve" text-anchor="middle" x="2016.46" y="-106.3" font-family="sans" font-size="11.00">arp_output_request</text>
</g>
<!-- arp_output_request&#45;&gt;eth_output -->
<g id="edge25" class="edge">
<title>arp_output_request&#45;&gt;eth_output</title>
<path fill="none" stroke="dodgerblue" d="M2077.2,-122.47C2086.12,-124.33 2095.17,-126.22 2103.65,-127.99"/>
<polygon fill="dodgerblue" stroke="dodgerblue" points="2102.83,-131.4 2113.33,-130.01 2104.26,-124.55 2102.83,-131.4"/>
</g>
<!-- bridge_flood -->
<g id="node18" class="node">
<title>bridge_flood</title>
<ellipse fill="none" stroke="black" cx="270.01" cy="-583" rx="39.1" ry="18"/>
<text xml:space="preserve" text-anchor="middle" x="270.01" y="-579.3" font-family="sans" font-size="11.00">bridge_flood</text>
</g>
<!-- bridge_flood&#45;&gt;iface_output -->
<g id="edge72" class="edge">
<title>bridge_flood&#45;&gt;iface_output</title>
<path fill="none" stroke="black" d="M231.32,-579.22C199.73,-575.39 153.72,-568.24 115.04,-556 101.86,-551.83 88.01,-545.82 75.87,-539.95"/>
<polygon fill="black" stroke="black" points="77.57,-536.89 67.06,-535.56 74.45,-543.15 77.57,-536.89"/>
</g>
<!-- bridge_flood&#45;&gt;eth_input -->
<g id="edge73" class="edge">
<title>bridge_flood&#45;&gt;eth_input</title>
<path fill="none" stroke="black" d="M296.41,-596.63C314.97,-606.58 340.26,-620.15 360.2,-630.84"/>
<polygon fill="black" stroke="black" points="358.27,-633.78 368.73,-635.42 361.58,-627.61 358.27,-633.78"/>
</g>
<!-- bridge_input&#45;&gt;iface_output -->
<g id="edge74" class="edge">
<title>bridge_input&#45;&gt;iface_output</title>
<path fill="none" stroke="black" d="M127.01,-608.04C122.97,-604.78 118.87,-601.32 115.04,-598 95.93,-581.46 74.69,-561.96 59.79,-546.48"/>
<polygon fill="black" stroke="black" points="62.63,-544.39 53.25,-539.45 57.5,-549.16 62.63,-544.39"/>
</g>
<!-- bridge_input&#45;&gt;eth_input -->
<g id="edge75" class="edge">
<title>bridge_input&#45;&gt;eth_input</title>
<path fill="none" stroke="black" d="M193.66,-625.31C236.94,-630.26 307.67,-638.34 351.98,-643.4"/>
<polygon fill="black" stroke="black" points="351.35,-646.86 361.68,-644.51 352.15,-639.9 351.35,-646.86"/>
</g>
<!-- bridge_input&#45;&gt;bridge_flood -->
<g id="edge76" class="edge">
<title>bridge_input&#45;&gt;bridge_flood</title>
<path fill="none" stroke="black" d="M187.46,-610.41C199.71,-606.3 213.92,-601.52 227.02,-597.12"/>
<polygon fill="black" stroke="black" points="227.89,-600.51 236.26,-594.01 225.66,-593.88 227.89,-600.51"/>
</g>
<!-- ospf_redirect -->
<g id="node20" class="node">
<title>ospf_redirect</title>
<ellipse fill="none" stroke="black" cx="1708.03" cy="-786" rx="41.62" ry="18"/>
<text xml:space="preserve" text-anchor="middle" x="1708.03" y="-782.3" font-family="sans" font-size="11.00">ospf_redirect</text>
</g>
<!-- ospf_redirect&#45;&gt;l2_redirect -->
<g id="edge80" class="edge">
<title>ospf_redirect&#45;&gt;l2_redirect</title>
<path fill="none" stroke="black" d="M1746.35,-793.24C1766.11,-797.08 1790.58,-801.83 1811.6,-805.91"/>
<polygon fill="black" stroke="black" points="1810.91,-809.34 1821.39,-807.81 1812.24,-802.47 1810.91,-809.34"/>
</g>
<!-- loopback_input -->
<g id="node21" class="node">
<title>loopback_input</title>
<polygon fill="none" stroke="dodgerblue" points="441.26,-315 345.11,-315 345.11,-279 441.26,-279 441.26,-315"/>
<text xml:space="preserve" text-anchor="middle" x="393.18" y="-293.3" font-family="sans" font-size="11.00">loopback_input</text>
</g>
<!-- loopback_input&#45;&gt;ip_input -->
<g id="edge12" class="edge">
<title>loopback_input&#45;&gt;ip_input</title>
<path fill="none" stroke="dodgerblue" d="M400.81,-315.35C420.28,-369.27 477.45,-527.54 500.94,-592.59"/>
<polygon fill="dodgerblue" stroke="dodgerblue" points="497.59,-593.61 504.28,-601.83 504.17,-591.23 497.59,-593.61"/>
</g>
<!-- loopback_input&#45;&gt;ip6_input -->
<g id="edge13" class="edge">
<title>loopback_input&#45;&gt;ip6_input</title>
<path fill="none" stroke="dodgerblue" d="M413.96,-278.56C453.41,-243.78 546.05,-172 638.48,-172 638.48,-172 638.48,-172 1158.56,-172 1289.25,-172 1343.09,-368.01 1358.93,-443.16"/>
<polygon fill="dodgerblue" stroke="dodgerblue" points="1355.44,-443.54 1360.86,-452.65 1362.3,-442.15 1355.44,-443.54"/>
</g>
<!-- loopback_output -->
<g id="node22" class="node">
<title>loopback_output</title>
<polygon fill="none" stroke="dodgerblue" points="2068.66,-712 1964.26,-712 1964.26,-676 2068.66,-676 2068.66,-712"/>
<text xml:space="preserve" text-anchor="middle" x="2016.46" y="-690.3" font-family="sans" font-size="11.00">loopback_output</text>
</g>
<!-- loop_xvrf -->
<g id="node23" class="node">
<title>loop_xvrf</title>
<ellipse fill="none" stroke="black" cx="1264.17" cy="-469" rx="29.83" ry="18"/>
<text xml:space="preserve" text-anchor="middle" x="1264.17" y="-465.3" font-family="sans" font-size="11.00">loop_xvrf</text>
</g>
<!-- loop_xvrf&#45;&gt;ip_input -->
<g id="edge14" class="edge">
<title>loop_xvrf&#45;&gt;ip_input</title>
<path fill="none" stroke="black" d="M1241.14,-457.13C1201.98,-437.15 1117.14,-399 1040.58,-399 773.69,-399 773.69,-399 773.69,-399 685.79,-399 648.96,-393.72 583.16,-452 541.76,-488.66 524.31,-553.66 517.39,-591.46"/>
<polygon fill="black" stroke="black" points="513.95,-590.78 515.74,-601.22 520.86,-591.94 513.95,-590.78"/>
</g>
<!-- loop_xvrf&#45;&gt;ip6_input -->
<g id="edge15" class="edge">
<title>loop_xvrf&#45;&gt;ip6_input</title>
<path fill="none" stroke="black" d="M1294.38,-469.88C1303.74,-470.17 1314.27,-470.49 1324.27,-470.79"/>
<polygon fill="black" stroke="black" points="1324.04,-474.28 1334.14,-471.09 1324.25,-467.29 1324.04,-474.28"/>
</g>
<!-- ip_forward -->
<g id="node24" class="node">
<title>ip_forward</title>
<ellipse fill="none" stroke="black" cx="774.69" cy="-648" rx="33.62" ry="18"/>
<text xml:space="preserve" text-anchor="middle" x="774.69" y="-644.3" font-family="sans" font-size="11.00">ip_forward</text>
</g>
<!-- ip_output -->
<g id="node30" class="node">
<title>ip_output</title>
<ellipse fill="none" stroke="black" cx="1157.56" cy="-537" rx="30.25" ry="18"/>
<text xml:space="preserve" text-anchor="middle" x="1157.56" y="-533.3" font-family="sans" font-size="11.00">ip_output</text>
</g>
<!-- ip_forward&#45;&gt;ip_output -->
<g id="edge29" class="edge">
<title>ip_forward&#45;&gt;ip_output</title>
<path fill="none" stroke="black" d="M806.02,-640.93C862.01,-627.63 985.15,-597.22 1086.67,-564 1098.17,-560.24 1110.54,-555.65 1121.62,-551.32"/>
<polygon fill="black" stroke="black" points="1122.79,-554.63 1130.8,-547.69 1120.21,-548.12 1122.79,-554.63"/>
</g>
<!-- ip_fragment -->
<g id="node25" class="node">
<title>ip_fragment</title>
<ellipse fill="none" stroke="black" cx="1039.58" cy="-537" rx="38.25" ry="18"/>
<text xml:space="preserve" text-anchor="middle" x="1039.58" y="-533.3" font-family="sans" font-size="11.00">ip_fragment</text>
</g>
<!-- ip_fragment&#45;&gt;ip_output -->
<g id="edge30" class="edge">
<title>ip_fragment&#45;&gt;ip_output</title>
<path fill="none" stroke="black" d="M1076,-530.73C1089.09,-530.15 1104,-530.1 1117.39,-530.58"/>
<polygon fill="black" stroke="black" points="1117.03,-534.06 1127.19,-531.06 1117.37,-527.07 1117.03,-534.06"/>
</g>
<!-- ip_hold -->
<g id="node26" class="node">
<title>ip_hold</title>
<polygon fill="none" stroke="dodgerblue" points="1291.17,-609 1237.17,-609 1237.17,-573 1291.17,-573 1291.17,-609"/>
<text xml:space="preserve" text-anchor="middle" x="1264.17" y="-587.3" font-family="sans" font-size="11.00">ip_hold</text>
</g>
<!-- ip_input&#45;&gt;ip_forward -->
<g id="edge31" class="edge">
<title>ip_input&#45;&gt;ip_forward</title>
<path fill="none" stroke="black" d="M539.13,-623.69C583.73,-628.31 675.43,-637.81 730.02,-643.47"/>
<polygon fill="black" stroke="black" points="729.59,-646.95 739.9,-644.5 730.32,-639.99 729.59,-646.95"/>
</g>
<!-- ip_input_local -->
<g id="node29" class="node">
<title>ip_input_local</title>
<ellipse fill="none" stroke="black" cx="774.69" cy="-732" rx="42.89" ry="18"/>
<text xml:space="preserve" text-anchor="middle" x="774.69" y="-728.3" font-family="sans" font-size="11.00">ip_input_local</text>
</g>
<!-- ip_input&#45;&gt;ip_input_local -->
<g id="edge34" class="edge">
<title>ip_input&#45;&gt;ip_input_local</title>
<path fill="none" stroke="black" d="M532.53,-633.39C537.84,-637.52 543.2,-642.49 547.16,-648 574.69,-686.38 544.51,-720.84 583.16,-748 627.41,-779.1 692.52,-764.13 734,-749.14"/>
<polygon fill="black" stroke="black" points="735,-752.5 743.11,-745.68 732.52,-745.95 735,-752.5"/>
</g>
<!-- ip_input&#45;&gt;ip_output -->
<g id="edge33" class="edge">
<title>ip_input&#45;&gt;ip_output</title>
<path fill="none" stroke="black" d="M524.62,-604.67C557.58,-559.64 657.97,-437 773.69,-437 773.69,-437 773.69,-437 906.03,-437 986.76,-437 1015.14,-418.59 1086.67,-456 1109.86,-468.13 1128.7,-491.44 1140.95,-509.96"/>
<polygon fill="black" stroke="black" points="1137.95,-511.78 1146.25,-518.37 1143.87,-508.04 1137.95,-511.78"/>
</g>
<!-- dnat44_dynamic -->
<g id="node39" class="node">
<title>dnat44_dynamic</title>
<ellipse fill="none" stroke="black" cx="639.48" cy="-721" rx="52.15" ry="18"/>
<text xml:space="preserve" text-anchor="middle" x="639.48" y="-717.3" font-family="sans" font-size="11.00">dnat44_dynamic</text>
</g>
<!-- ip_input&#45;&gt;dnat44_dynamic -->
<g id="edge32" class="edge">
<title>ip_input&#45;&gt;dnat44_dynamic</title>
<path fill="none" stroke="black" d="M531.14,-633.99C536.52,-638.21 542.28,-643.08 547.16,-648 565.44,-666.43 562.97,-677.67 583.16,-694 586.61,-696.79 590.4,-699.39 594.32,-701.79"/>
<polygon fill="black" stroke="black" points="592.49,-704.77 602.93,-706.57 595.89,-698.65 592.49,-704.77"/>
</g>
<!-- dnat44_static -->
<g id="node40" class="node">
<title>dnat44_static</title>
<ellipse fill="none" stroke="black" cx="639.48" cy="-667" rx="43.31" ry="18"/>
<text xml:space="preserve" text-anchor="middle" x="639.48" y="-663.3" font-family="sans" font-size="11.00">dnat44_static</text>
</g>
<!-- ip_input&#45;&gt;dnat44_static -->
<g id="edge35" class="edge">
<title>ip_input&#45;&gt;dnat44_static</title>
<path fill="none" stroke="black" d="M536.47,-629.54C553.07,-635.64 575.87,-644.01 595.71,-651.29"/>
<polygon fill="black" stroke="black" points="594.35,-654.52 604.94,-654.68 596.76,-647.95 594.35,-654.52"/>
</g>
<!-- ip_loadbalance -->
<g id="node28" class="node">
<title>ip_loadbalance</title>
<ellipse fill="none" stroke="black" cx="1039.58" cy="-629" rx="47.1" ry="18"/>
<text xml:space="preserve" text-anchor="middle" x="1039.58" y="-625.3" font-family="sans" font-size="11.00">ip_loadbalance</text>
</g>
<!-- ip_loadbalance&#45;&gt;ip_output -->
<g id="edge36" class="edge">
<title>ip_loadbalance&#45;&gt;ip_output</title>
<path fill="none" stroke="black" d="M1054.97,-611.86C1064.2,-604.38 1076.34,-595.98 1086.67,-588 1099.88,-577.79 1113.94,-565.93 1125.95,-556.07"/>
<polygon fill="black" stroke="black" points="1127.96,-558.96 1133.52,-549.94 1123.55,-553.52 1127.96,-558.96"/>
</g>
<!-- ip_input_local&#45;&gt;ospf_redirect -->
<g id="edge40" class="edge">
<title>ip_input_local&#45;&gt;ospf_redirect</title>
<path fill="none" stroke="black" d="M812.45,-740.72C863.06,-751.94 957.18,-770 1038.58,-770 1038.58,-770 1038.58,-770 1460.29,-770 1528.05,-770 1606.06,-776.08 1655.91,-780.75"/>
<polygon fill="black" stroke="black" points="1655.55,-784.23 1665.84,-781.69 1656.21,-777.26 1655.55,-784.23"/>
</g>
<!-- ipip_input -->
<g id="node37" class="node">
<title>ipip_input</title>
<ellipse fill="none" stroke="black" cx="905.03" cy="-816" rx="31.1" ry="18"/>
<text xml:space="preserve" text-anchor="middle" x="905.03" y="-812.3" font-family="sans" font-size="11.00">ipip_input</text>
</g>
<!-- ip_input_local&#45;&gt;ipip_input -->
<g id="edge38" class="edge">
<title>ip_input_local&#45;&gt;ipip_input</title>
<path fill="none" stroke="black" d="M798.43,-747.39C813.92,-757.81 834.91,-771.85 853.58,-784 860.12,-788.26 867.17,-792.78 873.88,-797.04"/>
<polygon fill="black" stroke="black" points="871.74,-799.83 882.06,-802.22 875.49,-793.91 871.74,-799.83"/>
</g>
<!-- icmp_input -->
<g id="node43" class="node">
<title>icmp_input</title>
<ellipse fill="none" stroke="black" cx="905.03" cy="-537" rx="34.89" ry="18"/>
<text xml:space="preserve" text-anchor="middle" x="905.03" y="-533.3" font-family="sans" font-size="11.00">icmp_input</text>
</g>
<!-- ip_input_local&#45;&gt;icmp_input -->
<g id="edge37" class="edge">
<title>ip_input_local&#45;&gt;icmp_input</title>
<path fill="none" stroke="black" d="M788.86,-714.78C797.29,-703.59 808.33,-688.61 817.58,-675 843.33,-637.09 871.13,-591.86 888.06,-563.78"/>
<polygon fill="black" stroke="black" points="890.85,-565.93 893,-555.55 884.85,-562.32 890.85,-565.93"/>
</g>
<!-- l4_input_local -->
<g id="node54" class="node">
<title>l4_input_local</title>
<ellipse fill="none" stroke="black" cx="1708.03" cy="-694" rx="42.89" ry="18"/>
<text xml:space="preserve" text-anchor="middle" x="1708.03" y="-690.3" font-family="sans" font-size="11.00">l4_input_local</text>
</g>
<!-- ip_input_local&#45;&gt;l4_input_local -->
<g id="edge39" class="edge">
<title>ip_input_local&#45;&gt;l4_input_local</title>
<path fill="none" stroke="black" d="M818.03,-732C869.99,-732 960.76,-732 1038.58,-732 1038.58,-732 1038.58,-732 1460.29,-732 1530.26,-732 1610.09,-716.89 1659.54,-705.73"/>
<polygon fill="black" stroke="black" points="1660.08,-709.19 1669.04,-703.54 1658.51,-702.37 1660.08,-709.19"/>
</g>
<!-- ip_output&#45;&gt;eth_output -->
<g id="edge41" class="edge">
<title>ip_output&#45;&gt;eth_output</title>
<path fill="none" stroke="black" d="M1160.93,-518.95C1171.06,-450.4 1217.08,-210 1364.31,-210 1364.31,-210 1364.31,-210 1860.43,-210 1957.01,-210 1986.96,-226.17 2076.91,-191 2093.91,-184.35 2110.22,-172.2 2122.8,-161.11"/>
<polygon fill="black" stroke="black" points="2125.16,-163.69 2130.14,-154.34 2120.42,-158.54 2125.16,-163.69"/>
</g>
<!-- ip_output&#45;&gt;loop_xvrf -->
<g id="edge44" class="edge">
<title>ip_output&#45;&gt;loop_xvrf</title>
<path fill="none" stroke="black" d="M1178.98,-523.73C1194.63,-513.55 1216.44,-499.37 1233.95,-488"/>
<polygon fill="black" stroke="black" points="1235.41,-491.22 1241.89,-482.83 1231.6,-485.35 1235.41,-491.22"/>
</g>
<!-- ip_output&#45;&gt;ip_fragment -->
<g id="edge43" class="edge">
<title>ip_output&#45;&gt;ip_fragment</title>
<path fill="none" stroke="black" d="M1128.7,-542.86C1116.34,-543.66 1101.46,-543.92 1087.47,-543.64"/>
<polygon fill="black" stroke="black" points="1087.62,-540.14 1077.52,-543.32 1087.4,-547.14 1087.62,-540.14"/>
</g>
<!-- ip_output&#45;&gt;ip_hold -->
<g id="edge42" class="edge">
<title>ip_output&#45;&gt;ip_hold</title>
<path fill="none" stroke="black" d="M1181.26,-548.72C1194.54,-555.57 1211.62,-564.39 1226.74,-572.19"/>
<polygon fill="black" stroke="black" points="1224.99,-575.23 1235.48,-576.71 1228.2,-569.01 1224.99,-575.23"/>
</g>
<!-- ip_output&#45;&gt;ip_loadbalance -->
<g id="edge45" class="edge">
<title>ip_output&#45;&gt;ip_loadbalance</title>
<path fill="none" stroke="black" d="M1145.24,-553.76C1131.66,-568.62 1108.05,-589.47 1086.67,-606 1085.19,-607.15 1083.67,-608.3 1082.12,-609.45"/>
<polygon fill="black" stroke="black" points="1080.42,-606.37 1074.35,-615.06 1084.51,-612.05 1080.42,-606.37"/>
</g>
<!-- ipip_output -->
<g id="node38" class="node">
<title>ipip_output</title>
<ellipse fill="none" stroke="black" cx="1264.17" cy="-537" rx="35.73" ry="18"/>
<text xml:space="preserve" text-anchor="middle" x="1264.17" y="-533.3" font-family="sans" font-size="11.00">ipip_output</text>
</g>
<!-- ip_output&#45;&gt;ipip_output -->
<g id="edge46" class="edge">
<title>ip_output&#45;&gt;ipip_output</title>
<path fill="none" stroke="black" d="M1186.59,-530.94C1196.56,-530.33 1208.05,-530.12 1219.04,-530.32"/>
<polygon fill="black" stroke="black" points="1218.61,-533.81 1228.72,-530.63 1218.83,-526.82 1218.61,-533.81"/>
</g>
<!-- sr6_output -->
<g id="node42" class="node">
<title>sr6_output</title>
<ellipse fill="none" stroke="black" cx="2147.79" cy="-536" rx="34.46" ry="18"/>
<text xml:space="preserve" text-anchor="middle" x="2147.79" y="-532.3" font-family="sans" font-size="11.00">sr6_output</text>
</g>
<!-- ip_output&#45;&gt;sr6_output -->
<g id="edge47" class="edge">
<title>ip_output&#45;&gt;sr6_output</title>
<path fill="none" stroke="black" d="M1169.23,-553.8C1196.42,-594.3 1272.65,-694 1364.31,-694 1364.31,-694 1364.31,-694 1460.29,-694 1734.6,-694 1851.25,-876.98 2076.91,-721 2127.91,-685.74 2141.73,-608.16 2145.45,-565.52"/>
<polygon fill="black" stroke="black" points="2148.93,-565.97 2146.16,-555.74 2141.94,-565.46 2148.93,-565.97"/>
</g>
<!-- ip6_forward -->
<g id="node31" class="node">
<title>ip6_forward</title>
<ellipse fill="none" stroke="black" cx="1570.53" cy="-367" rx="37.41" ry="18"/>
<text xml:space="preserve" text-anchor="middle" x="1570.53" y="-363.3" font-family="sans" font-size="11.00">ip6_forward</text>
</g>
<!-- ip6_output -->
<g id="node36" class="node">
<title>ip6_output</title>
<ellipse fill="none" stroke="black" cx="2016.46" cy="-509" rx="34.04" ry="18"/>
<text xml:space="preserve" text-anchor="middle" x="2016.46" y="-505.3" font-family="sans" font-size="11.00">ip6_output</text>
</g>
<!-- ip6_forward&#45;&gt;ip6_output -->
<g id="edge54" class="edge">
<title>ip6_forward&#45;&gt;ip6_output</title>
<path fill="none" stroke="black" d="M1594.43,-352.8C1653.42,-318.21 1813.46,-237.22 1920.01,-305 1981.01,-343.81 2003.69,-432.98 2011.58,-479.52"/>
<polygon fill="black" stroke="black" points="2008.08,-479.8 2013.08,-489.14 2014.99,-478.72 2008.08,-479.8"/>
</g>
<!-- ip6_hold -->
<g id="node32" class="node">
<title>ip6_hold</title>
<polygon fill="none" stroke="dodgerblue" points="2177.49,-500 2118.09,-500 2118.09,-464 2177.49,-464 2177.49,-500"/>
<text xml:space="preserve" text-anchor="middle" x="2147.79" y="-478.3" font-family="sans" font-size="11.00">ip6_hold</text>
</g>
<!-- ip6_input&#45;&gt;ip6_forward -->
<g id="edge55" class="edge">
<title>ip6_input&#45;&gt;ip6_forward</title>
<path fill="none" stroke="black" d="M1388.44,-460.56C1423.53,-442.43 1492.24,-406.93 1534.2,-385.26"/>
<polygon fill="black" stroke="black" points="1535.63,-388.45 1542.91,-380.76 1532.42,-382.24 1535.63,-388.45"/>
</g>
<!-- ip6_input_local -->
<g id="node35" class="node">
<title>ip6_input_local</title>
<ellipse fill="none" stroke="black" cx="1570.53" cy="-570" rx="46.68" ry="18"/>
<text xml:space="preserve" text-anchor="middle" x="1570.53" y="-566.3" font-family="sans" font-size="11.00">ip6_input_local</text>
</g>
<!-- ip6_input&#45;&gt;ip6_input_local -->
<g id="edge57" class="edge">
<title>ip6_input&#45;&gt;ip6_input_local</title>
<path fill="none" stroke="black" d="M1389.23,-483.05C1423.49,-499.57 1488.5,-530.92 1530.38,-551.12"/>
<polygon fill="black" stroke="black" points="1528.6,-554.15 1539.13,-555.34 1531.65,-547.84 1528.6,-554.15"/>
</g>
<!-- ip6_input&#45;&gt;ip6_output -->
<g id="edge56" class="edge">
<title>ip6_input&#45;&gt;ip6_output</title>
<path fill="none" stroke="black" d="M1394.54,-475.18C1433.75,-479.31 1506.94,-486 1569.53,-486 1569.53,-486 1569.53,-486 1709.03,-486 1802.81,-486 1912.28,-496.84 1971.67,-503.64"/>
<polygon fill="black" stroke="black" points="1971.02,-507.09 1981.36,-504.77 1971.83,-500.14 1971.02,-507.09"/>
</g>
<!-- sr6_local -->
<g id="node41" class="node">
<title>sr6_local</title>
<ellipse fill="none" stroke="black" cx="1459.29" cy="-570" rx="28.57" ry="18"/>
<text xml:space="preserve" text-anchor="middle" x="1459.29" y="-566.3" font-family="sans" font-size="11.00">sr6_local</text>
</g>
<!-- ip6_input&#45;&gt;sr6_local -->
<g id="edge58" class="edge">
<title>ip6_input&#45;&gt;sr6_local</title>
<path fill="none" stroke="black" d="M1384.48,-485.86C1400.5,-501.27 1423.73,-526.01 1439.83,-544.8"/>
<polygon fill="black" stroke="black" points="1437.02,-546.9 1446.13,-552.32 1442.39,-542.4 1437.02,-546.9"/>
</g>
<!-- ip6_loadbalance -->
<g id="node34" class="node">
<title>ip6_loadbalance</title>
<ellipse fill="none" stroke="black" cx="1859.43" cy="-640" rx="50.89" ry="18"/>
<text xml:space="preserve" text-anchor="middle" x="1859.43" y="-636.3" font-family="sans" font-size="11.00">ip6_loadbalance</text>
</g>
<!-- ip6_loadbalance&#45;&gt;ip6_output -->
<g id="edge59" class="edge">
<title>ip6_loadbalance&#45;&gt;ip6_output</title>
<path fill="none" stroke="black" d="M1883.95,-623.79C1895.42,-618.32 1909.06,-611.93 1920.01,-604 1948.01,-583.71 1974.15,-554.19 1991.96,-533.29"/>
<polygon fill="black" stroke="black" points="1994.53,-535.67 1998.33,-525.78 1989.19,-531.15 1994.53,-535.67"/>
</g>
<!-- ip6_input_local&#45;&gt;ospf_redirect -->
<g id="edge62" class="edge">
<title>ip6_input_local&#45;&gt;ospf_redirect</title>
<path fill="none" stroke="black" d="M1579.78,-587.86C1593.45,-616.79 1622.36,-675.3 1653.21,-721 1662.49,-734.74 1674.08,-749.03 1684.13,-760.71"/>
<polygon fill="black" stroke="black" points="1681.23,-762.71 1690.45,-767.93 1686.5,-758.1 1681.23,-762.71"/>
</g>
<!-- icmp6_input -->
<g id="node46" class="node">
<title>icmp6_input</title>
<polygon fill="none" stroke="dodgerblue" points="1748.23,-458 1667.83,-458 1667.83,-422 1748.23,-422 1748.23,-458"/>
<text xml:space="preserve" text-anchor="middle" x="1708.03" y="-436.3" font-family="sans" font-size="11.00">icmp6_input</text>
</g>
<!-- ip6_input_local&#45;&gt;icmp6_input -->
<g id="edge60" class="edge">
<title>ip6_input_local&#45;&gt;icmp6_input</title>
<path fill="none" stroke="black" d="M1588.97,-553.27C1611.93,-531.24 1652.56,-492.27 1679.64,-466.28"/>
<polygon fill="black" stroke="black" points="1682.03,-468.84 1686.83,-459.39 1677.19,-463.78 1682.03,-468.84"/>
</g>
<!-- ip6_input_local&#45;&gt;l4_input_local -->
<g id="edge61" class="edge">
<title>ip6_input_local&#45;&gt;l4_input_local</title>
<path fill="none" stroke="black" d="M1583.05,-587.64C1597.45,-608.65 1623.83,-643.82 1653.21,-667 1657.4,-670.31 1662.06,-673.37 1666.84,-676.15"/>
<polygon fill="black" stroke="black" points="1664.89,-679.08 1675.36,-680.74 1668.22,-672.92 1664.89,-679.08"/>
</g>
<!-- ip6_output&#45;&gt;eth_output -->
<g id="edge63" class="edge">
<title>ip6_output&#45;&gt;eth_output</title>
<path fill="none" stroke="black" d="M2023.69,-491.06C2044.48,-431.27 2111.51,-238.48 2136.91,-165.42"/>
<polygon fill="black" stroke="black" points="2140.14,-166.79 2140.12,-156.19 2133.53,-164.49 2140.14,-166.79"/>
</g>
<!-- ip6_output&#45;&gt;loop_xvrf -->
<g id="edge65" class="edge">
<title>ip6_output&#45;&gt;loop_xvrf</title>
<path fill="none" stroke="black" d="M2014.03,-490.71C2009.45,-445.75 1990.97,-329.55 1920.01,-275 1845.06,-217.39 1803.56,-248 1709.03,-248 1458.29,-248 1458.29,-248 1458.29,-248 1357.05,-248 1296.63,-381.13 1274.65,-440.74"/>
<polygon fill="black" stroke="black" points="1271.46,-439.27 1271.39,-449.86 1278.05,-441.62 1271.46,-439.27"/>
</g>
<!-- ip6_output&#45;&gt;ip6_hold -->
<g id="edge64" class="edge">
<title>ip6_output&#45;&gt;ip6_hold</title>
<path fill="none" stroke="black" d="M2048.76,-502.46C2066.22,-498.82 2088.15,-494.24 2106.84,-490.34"/>
<polygon fill="black" stroke="black" points="2107.43,-493.79 2116.5,-488.32 2106,-486.94 2107.43,-493.79"/>
</g>
<!-- ip6_output&#45;&gt;ip6_loadbalance -->
<g id="edge66" class="edge">
<title>ip6_output&#45;&gt;ip6_loadbalance</title>
<path fill="none" stroke="black" d="M2006.97,-526.44C1991.67,-551.09 1957.52,-594.83 1920.01,-622 1918.21,-623.3 1916.35,-624.56 1914.43,-625.77"/>
<polygon fill="black" stroke="black" points="1912.79,-622.67 1905.84,-630.66 1916.26,-628.76 1912.79,-622.67"/>
</g>
<!-- ip6_output&#45;&gt;sr6_output -->
<g id="edge67" class="edge">
<title>ip6_output&#45;&gt;sr6_output</title>
<path fill="none" stroke="black" d="M2050.76,-509.96C2068.61,-512.75 2090.67,-517.29 2109.14,-521.94"/>
<polygon fill="black" stroke="black" points="2108.09,-525.28 2118.65,-524.46 2109.88,-518.52 2108.09,-525.28"/>
</g>
<!-- ipip_input&#45;&gt;ip_input -->
<g id="edge70" class="edge">
<title>ipip_input&#45;&gt;ip_input</title>
<path fill="none" stroke="black" d="M875.06,-821.33C813.29,-830.92 667.42,-843.83 583.16,-771 540.06,-733.76 578.93,-695.27 547.16,-648 545.38,-645.36 543.27,-642.86 540.98,-640.52"/>
<polygon fill="black" stroke="black" points="543.69,-638.25 533.88,-634.24 539.05,-643.49 543.69,-638.25"/>
</g>
<!-- ipip_output&#45;&gt;ip_output -->
<g id="edge71" class="edge">
<title>ipip_output&#45;&gt;ip_output</title>
<path fill="none" stroke="black" d="M1230.23,-543.32C1219.93,-543.8 1208.47,-543.88 1197.79,-543.56"/>
<polygon fill="black" stroke="black" points="1198.25,-540.08 1188.1,-543.13 1197.94,-547.07 1198.25,-540.08"/>
</g>
<!-- dnat44_dynamic&#45;&gt;ip_forward -->
<g id="edge81" class="edge">
<title>dnat44_dynamic&#45;&gt;ip_forward</title>
<path fill="none" stroke="black" d="M671.43,-706.43C679.43,-702.52 687.99,-698.2 695.81,-694 711.27,-685.68 728.09,-675.84 742.13,-667.41"/>
<polygon fill="black" stroke="black" points="743.76,-670.51 750.51,-662.34 740.14,-664.53 743.76,-670.51"/>
</g>
<!-- dnat44_dynamic&#45;&gt;ip_input_local -->
<g id="edge82" class="edge">
<title>dnat44_dynamic&#45;&gt;ip_input_local</title>
<path fill="none" stroke="black" d="M690.46,-725.13C700.33,-725.94 710.72,-726.8 720.69,-727.62"/>
<polygon fill="black" stroke="black" points="720.37,-731.11 730.63,-728.44 720.95,-724.13 720.37,-731.11"/>
</g>
<!-- dnat44_static&#45;&gt;ip_forward -->
<g id="edge83" class="edge">
<title>dnat44_static&#45;&gt;ip_forward</title>
<path fill="none" stroke="black" d="M680.81,-661.25C696.58,-659 714.7,-656.41 730.72,-654.13"/>
<polygon fill="black" stroke="black" points="731.05,-657.62 740.45,-652.74 730.06,-650.69 731.05,-657.62"/>
</g>
<!-- dnat44_static&#45;&gt;ip_input_local -->
<g id="edge84" class="edge">
<title>dnat44_static&#45;&gt;ip_input_local</title>
<path fill="none" stroke="black" d="M668.41,-680.63C687.94,-690.16 714.28,-703.01 735.72,-713.47"/>
<polygon fill="black" stroke="black" points="733.92,-716.49 744.44,-717.73 736.99,-710.2 733.92,-716.49"/>
</g>
<!-- sr6_local&#45;&gt;ip_input -->
<g id="edge85" class="edge">
<title>sr6_local&#45;&gt;ip_input</title>
<path fill="none" stroke="black" d="M1433.57,-578.48C1402.62,-588.87 1347.82,-606.51 1299.9,-618 1166.02,-650.1 1129.48,-669.57 992.48,-656 913.59,-648.18 896.47,-628.82 817.58,-621 721.85,-611.52 608.35,-615.52 550.76,-618.63"/>
<polygon fill="black" stroke="black" points="550.65,-615.13 540.86,-619.18 551.04,-622.12 550.65,-615.13"/>
</g>
<!-- sr6_local&#45;&gt;ip6_input -->
<g id="edge86" class="edge">
<title>sr6_local&#45;&gt;ip6_input</title>
<path fill="none" stroke="black" d="M1440.27,-556.29C1424.28,-540.92 1401.03,-516.16 1384.88,-497.33"/>
<polygon fill="black" stroke="black" points="1387.67,-495.21 1378.56,-489.79 1382.3,-499.7 1387.67,-495.21"/>
</g>
<!-- sr6_local&#45;&gt;ip6_input_local -->
<g id="edge87" class="edge">
<title>sr6_local&#45;&gt;ip6_input_local</title>
<path fill="none" stroke="black" d="M1488.14,-570C1495.53,-570 1503.78,-570 1512.13,-570"/>
<polygon fill="black" stroke="black" points="1511.97,-573.5 1521.97,-570 1511.97,-566.5 1511.97,-573.5"/>
</g>
<!-- sr6_output&#45;&gt;ip6_output -->
<g id="edge88" class="edge">
<title>sr6_output&#45;&gt;ip6_output</title>
<path fill="none" stroke="black" d="M2112.95,-534.95C2095.11,-532.15 2073.18,-527.62 2054.83,-522.99"/>
<polygon fill="black" stroke="black" points="2055.97,-519.67 2045.4,-520.49 2054.17,-526.43 2055.97,-519.67"/>
</g>
<!-- icmp_output -->
<g id="node45" class="node">
<title>icmp_output</title>
<ellipse fill="none" stroke="black" cx="1039.58" cy="-483" rx="39.52" ry="18"/>
<text xml:space="preserve" text-anchor="middle" x="1039.58" y="-479.3" font-family="sans" font-size="11.00">icmp_output</text>
</g>
<!-- icmp_input&#45;&gt;icmp_output -->
<g id="edge26" class="edge">
<title>icmp_input&#45;&gt;icmp_output</title>
<path fill="none" stroke="black" d="M933.17,-525.94C952,-518.27 977.41,-507.92 998.55,-499.31"/>
<polygon fill="black" stroke="black" points="999.82,-502.57 1007.76,-495.55 997.18,-496.08 999.82,-502.57"/>
</g>
<!-- icmp_local_send -->
<g id="node44" class="node">
<title>icmp_local_send</title>
<polygon fill="none" stroke="dodgerblue" points="956.48,-501 853.58,-501 853.58,-465 956.48,-465 956.48,-501"/>
<text xml:space="preserve" text-anchor="middle" x="905.03" y="-479.3" font-family="sans" font-size="11.00">icmp_local_send</text>
</g>
<!-- icmp_local_send&#45;&gt;icmp_output -->
<g id="edge27" class="edge">
<title>icmp_local_send&#45;&gt;icmp_output</title>
<path fill="none" stroke="dodgerblue" d="M956.9,-483C967.19,-483 978,-483 988.27,-483"/>
<polygon fill="dodgerblue" stroke="dodgerblue" points="988.07,-486.5 998.07,-483 988.07,-479.5 988.07,-486.5"/>
</g>
<!-- icmp_output&#45;&gt;ip_output -->
<g id="edge28" class="edge">
<title>icmp_output&#45;&gt;ip_output</title>
<path fill="none" stroke="black" d="M1068.06,-495.8C1084.48,-503.44 1105.46,-513.21 1122.88,-521.32"/>
<polygon fill="black" stroke="black" points="1121.27,-524.43 1131.81,-525.48 1124.22,-518.08 1121.27,-524.43"/>
</g>
<!-- icmp6_output -->
<g id="node48" class="node">
<title>icmp6_output</title>
<ellipse fill="none" stroke="black" cx="1859.43" cy="-532" rx="43.31" ry="18"/>
<text xml:space="preserve" text-anchor="middle" x="1859.43" y="-528.3" font-family="sans" font-size="11.00">icmp6_output</text>
</g>
<!-- icmp6_input&#45;&gt;icmp6_output -->
<g id="edge48" class="edge">
<title>icmp6_input&#45;&gt;icmp6_output</title>
<path fill="none" stroke="dodgerblue" d="M1738.91,-458.4C1763.57,-473.58 1798.56,-495.13 1824.32,-510.99"/>
<polygon fill="dodgerblue" stroke="dodgerblue" points="1822.4,-513.92 1832.75,-516.18 1826.07,-507.96 1822.4,-513.92"/>
</g>
<!-- ndp_na_input -->
<g id="node49" class="node">
<title>ndp_na_input</title>
<polygon fill="none" stroke="dodgerblue" points="1902.63,-404 1816.23,-404 1816.23,-368 1902.63,-368 1902.63,-404"/>
<text xml:space="preserve" text-anchor="middle" x="1859.43" y="-382.3" font-family="sans" font-size="11.00">ndp_na_input</text>
</g>
<!-- icmp6_input&#45;&gt;ndp_na_input -->
<g id="edge50" class="edge">
<title>icmp6_input&#45;&gt;ndp_na_input</title>
<path fill="none" stroke="dodgerblue" d="M1748.68,-425.67C1766.02,-419.4 1786.63,-411.95 1805.27,-405.22"/>
<polygon fill="dodgerblue" stroke="dodgerblue" points="1806.35,-408.55 1814.56,-401.86 1803.97,-401.97 1806.35,-408.55"/>
</g>
<!-- ndp_ns_input -->
<g id="node51" class="node">
<title>ndp_ns_input</title>
<polygon fill="none" stroke="dodgerblue" points="1902.26,-350 1816.61,-350 1816.61,-314 1902.26,-314 1902.26,-350"/>
<text xml:space="preserve" text-anchor="middle" x="1859.43" y="-328.3" font-family="sans" font-size="11.00">ndp_ns_input</text>
</g>
<!-- icmp6_input&#45;&gt;ndp_ns_input -->
<g id="edge49" class="edge">
<title>icmp6_input&#45;&gt;ndp_ns_input</title>
<path fill="none" stroke="dodgerblue" d="M1725.92,-421.8C1743.04,-404.11 1770.93,-377.29 1798.86,-359 1801.23,-357.45 1803.7,-355.94 1806.24,-354.49"/>
<polygon fill="dodgerblue" stroke="dodgerblue" points="1807.72,-357.67 1814.89,-349.87 1804.42,-351.49 1807.72,-357.67"/>
</g>
<!-- ndp_rs_input -->
<g id="node53" class="node">
<title>ndp_rs_input</title>
<polygon fill="none" stroke="dodgerblue" points="1901.13,-458 1817.73,-458 1817.73,-422 1901.13,-422 1901.13,-458"/>
<text xml:space="preserve" text-anchor="middle" x="1859.43" y="-436.3" font-family="sans" font-size="11.00">ndp_rs_input</text>
</g>
<!-- icmp6_input&#45;&gt;ndp_rs_input -->
<g id="edge51" class="edge">
<title>icmp6_input&#45;&gt;ndp_rs_input</title>
<path fill="none" stroke="dodgerblue" d="M1748.68,-440C1766.22,-440 1787.09,-440 1805.9,-440"/>
<polygon fill="dodgerblue" stroke="dodgerblue" points="1805.79,-443.5 1815.79,-440 1805.79,-436.5 1805.79,-443.5"/>
</g>
<!-- icmp6_local_send -->
<g id="node47" class="node">
<title>icmp6_local_send</title>
<polygon fill="none" stroke="dodgerblue" points="1762.86,-658 1653.21,-658 1653.21,-622 1762.86,-622 1762.86,-658"/>
<text xml:space="preserve" text-anchor="middle" x="1708.03" y="-636.3" font-family="sans" font-size="11.00">icmp6_local_send</text>
</g>
<!-- icmp6_local_send&#45;&gt;icmp6_output -->
<g id="edge52" class="edge">
<title>icmp6_local_send&#45;&gt;icmp6_output</title>
<path fill="none" stroke="dodgerblue" d="M1751.27,-621.56C1755.39,-618.97 1759.34,-616.12 1762.86,-613 1784.47,-593.9 1776.88,-577.67 1798.86,-559 1803.62,-554.96 1809.08,-551.4 1814.73,-548.32"/>
<polygon fill="dodgerblue" stroke="dodgerblue" points="1816.2,-551.5 1823.62,-543.93 1813.1,-545.22 1816.2,-551.5"/>
</g>
<!-- icmp6_output&#45;&gt;ip6_output -->
<g id="edge53" class="edge">
<title>icmp6_output&#45;&gt;ip6_output</title>
<path fill="none" stroke="black" d="M1900.76,-526.02C1922.61,-522.78 1949.62,-518.77 1971.95,-515.46"/>
<polygon fill="black" stroke="black" points="1972.26,-518.95 1981.64,-514.02 1971.24,-512.02 1972.26,-518.95"/>
</g>
<!-- ndp_na_output -->
<g id="node50" class="node">
<title>ndp_na_output</title>
<polygon fill="none" stroke="dodgerblue" points="1755.36,-604 1660.71,-604 1660.71,-568 1755.36,-568 1755.36,-604"/>
<text xml:space="preserve" text-anchor="middle" x="1708.03" y="-582.3" font-family="sans" font-size="11.00">ndp_na_output</text>
</g>
<!-- ndp_na_output&#45;&gt;icmp6_output -->
<g id="edge68" class="edge">
<title>ndp_na_output&#45;&gt;icmp6_output</title>
<path fill="none" stroke="dodgerblue" d="M1755.49,-569.21C1774.53,-562.33 1796.45,-554.4 1815.16,-547.64"/>
<polygon fill="dodgerblue" stroke="dodgerblue" points="1816.12,-551.02 1824.33,-544.33 1813.74,-544.43 1816.12,-551.02"/>
</g>
<!-- ndp_ns_output -->
<g id="node52" class="node">
<title>ndp_ns_output</title>
<polygon fill="none" stroke="dodgerblue" points="1754.98,-550 1661.08,-550 1661.08,-514 1754.98,-514 1754.98,-550"/>
<text xml:space="preserve" text-anchor="middle" x="1708.03" y="-528.3" font-family="sans" font-size="11.00">ndp_ns_output</text>
</g>
<!-- ndp_ns_output&#45;&gt;icmp6_output -->
<g id="edge69" class="edge">
<title>ndp_ns_output&#45;&gt;icmp6_output</title>
<path fill="none" stroke="dodgerblue" d="M1755.08,-532C1770.67,-532 1788.23,-532 1804.38,-532"/>
<polygon fill="dodgerblue" stroke="dodgerblue" points="1804.34,-535.5 1814.34,-532 1804.34,-528.5 1804.34,-535.5"/>
</g>
<!-- l4_loopback_output -->
<g id="node55" class="node">
<title>l4_loopback_output</title>
<ellipse fill="none" stroke="black" cx="1859.43" cy="-694" rx="60.57" ry="18"/>
<text xml:space="preserve" text-anchor="middle" x="1859.43" y="-690.3" font-family="sans" font-size="11.00">l4_loopback_output</text>
</g>
<!-- l4_input_local&#45;&gt;l4_loopback_output -->
<g id="edge77" class="edge">
<title>l4_input_local&#45;&gt;l4_loopback_output</title>
<path fill="none" stroke="black" d="M1751.05,-694C1762.35,-694 1774.89,-694 1787.3,-694"/>
<polygon fill="black" stroke="black" points="1787.11,-697.5 1797.11,-694 1787.11,-690.5 1787.11,-697.5"/>
</g>
<!-- dhcp_input -->
<g id="node56" class="node">
<title>dhcp_input</title>
<polygon fill="none" stroke="dodgerblue" points="1896.26,-604 1822.61,-604 1822.61,-568 1896.26,-568 1896.26,-604"/>
<text xml:space="preserve" text-anchor="middle" x="1859.43" y="-582.3" font-family="sans" font-size="11.00">dhcp_input</text>
</g>
<!-- l4_input_local&#45;&gt;dhcp_input -->
<g id="edge78" class="edge">
<title>l4_input_local&#45;&gt;dhcp_input</title>
<path fill="none" stroke="black" d="M1740.37,-681.69C1748.22,-677.72 1756.28,-672.82 1762.86,-667 1784.47,-647.9 1776.88,-631.67 1798.86,-613 1802.92,-609.55 1807.49,-606.46 1812.25,-603.71"/>
<polygon fill="black" stroke="black" points="1813.58,-606.96 1820.84,-599.24 1810.35,-600.75 1813.58,-606.96"/>
</g>
<!-- l4_loopback_output&#45;&gt;loopback_output -->
<g id="edge79" class="edge">
<title>l4_loopback_output&#45;&gt;loopback_output</title>
<path fill="none" stroke="black" d="M1920.37,-694C1931.01,-694 1942.11,-694 1952.82,-694"/>
<polygon fill="black" stroke="black" points="1952.73,-697.5 1962.73,-694 1952.73,-690.5 1952.73,-697.5"/>
</g>
</g>
</svg>
