<?xml version="1.0" encoding="UTF-8" standalone="no"?>
<!DOCTYPE svg PUBLIC "-//W3C//DTD SVG 1.1//EN"
 "http://www.w3.org/Graphics/SVG/1.1/DTD/svg11.dtd">
<!-- Generated by graphviz version 13.1.2 (20250808.2320)
 -->
<!-- Title: grout Pages: 1 -->
<svg width="1508pt" height="1075pt"
 viewBox="0.00 0.00 1508.00 1075.00" xmlns="http://www.w3.org/2000/svg" xmlns:xlink="http://www.w3.org/1999/xlink">
<g id="graph0" class="graph" transform="scale(1 1) rotate(0) translate(4 1070.74)">
<title>grout</title>
<polygon fill="white" stroke="none" points="-4,4 -4,-1070.74 1504.09,-1070.74 1504.09,4 -4,4"/>
<!-- bond_output -->
<g id="node1" class="node">
<title>bond_output</title>
<ellipse fill="none" stroke="black" cx="1247.07" cy="-387" rx="39.94" ry="18"/>
<text xml:space="preserve" text-anchor="middle" x="1247.07" y="-383.3" font-family="sans" font-size="11.00">bond_output</text>
</g>
<!-- port_output -->
<g id="node2" class="node">
<title>port_output</title>
<ellipse fill="none" stroke="black" cx="1372.68" cy="-387" rx="37.41" ry="18"/>
<text xml:space="preserve" text-anchor="middle" x="1372.68" y="-383.3" font-family="sans" font-size="11.00">port_output</text>
</g>
<!-- bond_output&#45;&gt;port_output -->
<g id="edge1" class="edge">
<title>bond_output&#45;&gt;port_output</title>
<path fill="none" stroke="black" d="M1287.18,-387C1298.76,-387 1311.57,-387 1323.64,-387"/>
<polygon fill="black" stroke="black" points="1323.42,-390.5 1333.42,-387 1323.42,-383.5 1323.42,-390.5"/>
</g>
<!-- port_tx -->
<g id="node16" class="node">
<title>port_tx</title>
<ellipse fill="none" stroke="black" cx="1473.09" cy="-387" rx="27" ry="18"/>
<text xml:space="preserve" text-anchor="middle" x="1473.09" y="-383.3" font-family="sans" font-size="11.00">port_tx</text>
</g>
<!-- port_output&#45;&gt;port_tx -->
<g id="edge15" class="edge">
<title>port_output&#45;&gt;port_tx</title>
<path fill="none" stroke="black" d="M1410.33,-387C1418.26,-387 1426.66,-387 1434.62,-387"/>
<polygon fill="black" stroke="black" points="1434.35,-390.5 1444.35,-387 1434.35,-383.5 1434.35,-390.5"/>
</g>
<!-- eth_input -->
<g id="node3" class="node">
<title>eth_input</title>
<ellipse fill="none" stroke="black" cx="144.58" cy="-953" rx="30.25" ry="18"/>
<text xml:space="preserve" text-anchor="middle" x="144.58" y="-949.3" font-family="sans" font-size="11.00">eth_input</text>
</g>
<!-- snap_input -->
<g id="node4" class="node">
<title>snap_input</title>
<ellipse fill="none" stroke="black" cx="529.88" cy="-958" rx="34.89" ry="18"/>
<text xml:space="preserve" text-anchor="middle" x="529.88" y="-954.3" font-family="sans" font-size="11.00">snap_input</text>
</g>
<!-- eth_input&#45;&gt;snap_input -->
<g id="edge2" class="edge">
<title>eth_input&#45;&gt;snap_input</title>
<path fill="none" stroke="black" d="M175.15,-951.27C229.21,-948.41 347.59,-943.53 447.21,-949 459.3,-949.66 472.35,-950.88 484.39,-952.2"/>
<polygon fill="black" stroke="black" points="483.73,-955.65 494.07,-953.32 484.53,-948.7 483.73,-955.65"/>
</g>
<!-- lacp_input -->
<g id="node5" class="node">
<title>lacp_input</title>
<polygon fill="none" stroke="dodgerblue" points="298.56,-1048 228.66,-1048 228.66,-1012 298.56,-1012 298.56,-1048"/>
<text xml:space="preserve" text-anchor="middle" x="263.61" y="-1026.3" font-family="sans" font-size="11.00">lacp_input</text>
</g>
<!-- eth_input&#45;&gt;lacp_input -->
<g id="edge3" class="edge">
<title>eth_input&#45;&gt;lacp_input</title>
<path fill="none" stroke="black" d="M165.7,-966.24C182.1,-977.03 205.7,-992.56 225.51,-1005.59"/>
<polygon fill="black" stroke="black" points="223.33,-1008.35 233.61,-1010.92 227.18,-1002.5 223.33,-1008.35"/>
</g>
<!-- arp_input -->
<g id="node6" class="node">
<title>arp_input</title>
<ellipse fill="none" stroke="black" cx="263.61" cy="-976" rx="30.25" ry="18"/>
<text xml:space="preserve" text-anchor="middle" x="263.61" y="-972.3" font-family="sans" font-size="11.00">arp_input</text>
</g>
<!-- eth_input&#45;&gt;arp_input -->
<g id="edge4" class="edge">
<title>eth_input&#45;&gt;arp_input</title>
<path fill="none" stroke="black" d="M173.61,-958.51C188.56,-961.45 207.18,-965.11 223.52,-968.32"/>
<polygon fill="black" stroke="black" points="222.43,-971.67 232.91,-970.16 223.78,-964.8 222.43,-971.67"/>
</g>
<!-- ip_input -->
<g id="node7" class="node">
<title>ip_input</title>
<ellipse fill="none" stroke="black" cx="529.88" cy="-317" rx="27" ry="18"/>
<text xml:space="preserve" text-anchor="middle" x="529.88" y="-313.3" font-family="sans" font-size="11.00">ip_input</text>
</g>
<!-- eth_input&#45;&gt;ip_input -->
<g id="edge5" class="edge">
<title>eth_input&#45;&gt;ip_input</title>
<path fill="none" stroke="black" d="M145.53,-934.77C146.18,-877.9 154.41,-700.42 228.66,-581 294.51,-475.09 355.98,-490.04 447.21,-405 469.22,-384.48 492.38,-359.12 508.39,-340.9"/>
<polygon fill="black" stroke="black" points="510.72,-343.56 514.65,-333.72 505.44,-338.96 510.72,-343.56"/>
</g>
<!-- ip6_input -->
<g id="node8" class="node">
<title>ip6_input</title>
<ellipse fill="none" stroke="black" cx="263.61" cy="-608" rx="29.41" ry="18"/>
<text xml:space="preserve" text-anchor="middle" x="263.61" y="-604.3" font-family="sans" font-size="11.00">ip6_input</text>
</g>
<!-- eth_input&#45;&gt;ip6_input -->
<g id="edge6" class="edge">
<title>eth_input&#45;&gt;ip6_input</title>
<path fill="none" stroke="black" d="M151.55,-935.42C170.52,-879.49 229.59,-705.32 252.96,-636.45"/>
<polygon fill="black" stroke="black" points="256.13,-637.99 256.03,-627.39 249.5,-635.74 256.13,-637.99"/>
</g>
<!-- l2_redirect -->
<g id="node11" class="node">
<title>l2_redirect</title>
<ellipse fill="none" stroke="black" cx="1098.3" cy="-949" rx="34.04" ry="18"/>
<text xml:space="preserve" text-anchor="middle" x="1098.3" y="-945.3" font-family="sans" font-size="11.00">l2_redirect</text>
</g>
<!-- snap_input&#45;&gt;l2_redirect -->
<g id="edge18" class="edge">
<title>snap_input&#45;&gt;l2_redirect</title>
<path fill="none" stroke="black" d="M565.04,-957.46C662.65,-955.91 942.85,-951.45 1052.52,-949.71"/>
<polygon fill="black" stroke="black" points="1052.35,-953.21 1062.3,-949.56 1052.24,-946.22 1052.35,-953.21"/>
</g>
<!-- arp_input_request -->
<g id="node18" class="node">
<title>arp_input_request</title>
<polygon fill="none" stroke="dodgerblue" points="447.21,-994 334.56,-994 334.56,-958 447.21,-958 447.21,-994"/>
<text xml:space="preserve" text-anchor="middle" x="390.88" y="-972.3" font-family="sans" font-size="11.00">arp_input_request</text>
</g>
<!-- arp_input&#45;&gt;arp_input_request -->
<g id="edge19" class="edge">
<title>arp_input&#45;&gt;arp_input_request</title>
<path fill="none" stroke="black" d="M294.29,-976C303.02,-976 312.94,-976 323.01,-976"/>
<polygon fill="black" stroke="black" points="322.86,-979.5 332.86,-976 322.86,-972.5 322.86,-979.5"/>
</g>
<!-- arp_input_reply -->
<g id="node19" class="node">
<title>arp_input_reply</title>
<polygon fill="none" stroke="dodgerblue" points="440.08,-1048 341.68,-1048 341.68,-1012 440.08,-1012 440.08,-1048"/>
<text xml:space="preserve" text-anchor="middle" x="390.88" y="-1026.3" font-family="sans" font-size="11.00">arp_input_reply</text>
</g>
<!-- arp_input&#45;&gt;arp_input_reply -->
<g id="edge20" class="edge">
<title>arp_input&#45;&gt;arp_input_reply</title>
<path fill="none" stroke="black" d="M288.76,-986.41C302.42,-992.3 320.07,-999.91 336.79,-1007.11"/>
<polygon fill="black" stroke="black" points="335.07,-1010.19 345.64,-1010.93 337.84,-1003.76 335.07,-1010.19"/>
</g>
<!-- ip_output -->
<g id="node25" class="node">
<title>ip_output</title>
<ellipse fill="none" stroke="black" cx="30.25" cy="-294" rx="30.25" ry="18"/>
<text xml:space="preserve" text-anchor="middle" x="30.25" y="-290.3" font-family="sans" font-size="11.00">ip_output</text>
</g>
<!-- ip_input&#45;&gt;ip_output -->
<g id="edge30" class="edge">
<title>ip_input&#45;&gt;ip_output</title>
<path fill="none" stroke="black" d="M509.01,-305.1C492.84,-295.82 469.17,-283.19 447.21,-275 338.1,-234.31 308.27,-226.88 192.66,-213 150.23,-207.91 135.05,-194.55 96.51,-213 73.42,-224.05 55.89,-247.7 44.85,-266.6"/>
<polygon fill="black" stroke="black" points="41.88,-264.74 40.11,-275.18 48.01,-268.12 41.88,-264.74"/>
</g>
<!-- ip_forward -->
<g id="node26" class="node">
<title>ip_forward</title>
<ellipse fill="none" stroke="black" cx="801.52" cy="-390" rx="33.62" ry="18"/>
<text xml:space="preserve" text-anchor="middle" x="801.52" y="-386.3" font-family="sans" font-size="11.00">ip_forward</text>
</g>
<!-- ip_input&#45;&gt;ip_forward -->
<g id="edge28" class="edge">
<title>ip_input&#45;&gt;ip_forward</title>
<path fill="none" stroke="black" d="M547.1,-331.21C562.71,-343.99 587.58,-362.1 612.56,-371 659.59,-387.77 717.16,-391.31 756.1,-391.43"/>
<polygon fill="black" stroke="black" points="756.06,-394.93 766.04,-391.38 756.02,-387.93 756.06,-394.93"/>
</g>
<!-- dnat44_dynamic -->
<g id="node29" class="node">
<title>dnat44_dynamic</title>
<ellipse fill="none" stroke="black" cx="667.38" cy="-290" rx="52.15" ry="18"/>
<text xml:space="preserve" text-anchor="middle" x="667.38" y="-286.3" font-family="sans" font-size="11.00">dnat44_dynamic</text>
</g>
<!-- ip_input&#45;&gt;dnat44_dynamic -->
<g id="edge29" class="edge">
<title>ip_input&#45;&gt;dnat44_dynamic</title>
<path fill="none" stroke="black" d="M556.05,-311.98C571.33,-308.94 591.48,-304.93 610.37,-301.16"/>
<polygon fill="black" stroke="black" points="611,-304.61 620.12,-299.22 609.63,-297.74 611,-304.61"/>
</g>
<!-- ip_input_local -->
<g id="node30" class="node">
<title>ip_input_local</title>
<ellipse fill="none" stroke="black" cx="801.52" cy="-336" rx="42.89" ry="18"/>
<text xml:space="preserve" text-anchor="middle" x="801.52" y="-332.3" font-family="sans" font-size="11.00">ip_input_local</text>
</g>
<!-- ip_input&#45;&gt;ip_input_local -->
<g id="edge31" class="edge">
<title>ip_input&#45;&gt;ip_input_local</title>
<path fill="none" stroke="black" d="M546.61,-302.47C562.07,-289.25 587,-270.68 612.56,-263 659.23,-248.97 676.87,-245.14 722.21,-263 745.99,-272.37 766.82,-292.74 781.01,-309.59"/>
<polygon fill="black" stroke="black" points="778.23,-311.72 787.23,-317.31 783.68,-307.33 778.23,-311.72"/>
</g>
<!-- dnat44_static -->
<g id="node31" class="node">
<title>dnat44_static</title>
<ellipse fill="none" stroke="black" cx="667.38" cy="-344" rx="43.31" ry="18"/>
<text xml:space="preserve" text-anchor="middle" x="667.38" y="-340.3" font-family="sans" font-size="11.00">dnat44_static</text>
</g>
<!-- ip_input&#45;&gt;dnat44_static -->
<g id="edge32" class="edge">
<title>ip_input&#45;&gt;dnat44_static</title>
<path fill="none" stroke="black" d="M556.05,-322.02C573.04,-325.4 596.02,-329.98 616.62,-334.08"/>
<polygon fill="black" stroke="black" points="615.79,-337.49 626.28,-336.01 617.15,-330.62 615.79,-337.49"/>
</g>
<!-- ip6_output -->
<g id="node43" class="node">
<title>ip6_output</title>
<ellipse fill="none" stroke="black" cx="941.27" cy="-684" rx="34.04" ry="18"/>
<text xml:space="preserve" text-anchor="middle" x="941.27" y="-680.3" font-family="sans" font-size="11.00">ip6_output</text>
</g>
<!-- ip6_input&#45;&gt;ip6_output -->
<g id="edge53" class="edge">
<title>ip6_input&#45;&gt;ip6_output</title>
<path fill="none" stroke="black" d="M281.49,-622.55C294.95,-633.31 314.76,-647.38 334.56,-655 497.01,-717.55 556.09,-658.97 722.21,-711 739.28,-716.35 740.8,-724.89 758.21,-729 795.67,-737.84 807.26,-737.41 844.82,-729 867.24,-723.98 890.6,-713.08 908.6,-703.27"/>
<polygon fill="black" stroke="black" points="910.22,-706.37 917.21,-698.41 906.78,-700.28 910.22,-706.37"/>
</g>
<!-- ip6_forward -->
<g id="node45" class="node">
<title>ip6_forward</title>
<ellipse fill="none" stroke="black" cx="390.88" cy="-554" rx="37.41" ry="18"/>
<text xml:space="preserve" text-anchor="middle" x="390.88" y="-550.3" font-family="sans" font-size="11.00">ip6_forward</text>
</g>
<!-- ip6_input&#45;&gt;ip6_forward -->
<g id="edge52" class="edge">
<title>ip6_input&#45;&gt;ip6_forward</title>
<path fill="none" stroke="black" d="M288.46,-597.72C306.36,-590 331.21,-579.29 351.84,-570.4"/>
<polygon fill="black" stroke="black" points="352.99,-573.71 360.79,-566.54 350.22,-567.28 352.99,-573.71"/>
</g>
<!-- ip6_input_local -->
<g id="node47" class="node">
<title>ip6_input_local</title>
<ellipse fill="none" stroke="black" cx="529.88" cy="-646" rx="46.68" ry="18"/>
<text xml:space="preserve" text-anchor="middle" x="529.88" y="-642.3" font-family="sans" font-size="11.00">ip6_input_local</text>
</g>
<!-- ip6_input&#45;&gt;ip6_input_local -->
<g id="edge54" class="edge">
<title>ip6_input&#45;&gt;ip6_input_local</title>
<path fill="none" stroke="black" d="M287.37,-618.86C300.78,-624.74 318.27,-631.49 334.56,-635 380,-644.8 432.73,-647.25 471.79,-647.41"/>
<polygon fill="black" stroke="black" points="471.68,-650.91 481.68,-647.4 471.67,-643.91 471.68,-650.91"/>
</g>
<!-- sr6_local -->
<g id="node48" class="node">
<title>sr6_local</title>
<ellipse fill="none" stroke="black" cx="390.88" cy="-608" rx="28.57" ry="18"/>
<text xml:space="preserve" text-anchor="middle" x="390.88" y="-604.3" font-family="sans" font-size="11.00">sr6_local</text>
</g>
<!-- ip6_input&#45;&gt;sr6_local -->
<g id="edge55" class="edge">
<title>ip6_input&#45;&gt;sr6_local</title>
<path fill="none" stroke="black" d="M291.79,-602.32C309.51,-601.12 332.88,-600.93 352.36,-601.76"/>
<polygon fill="black" stroke="black" points="351.92,-605.24 362.1,-602.3 352.31,-598.25 351.92,-605.24"/>
</g>
<!-- eth_output -->
<g id="node9" class="node">
<title>eth_output</title>
<ellipse fill="none" stroke="black" cx="1098.3" cy="-341" rx="34.89" ry="18"/>
<text xml:space="preserve" text-anchor="middle" x="1098.3" y="-337.3" font-family="sans" font-size="11.00">eth_output</text>
</g>
<!-- eth_output&#45;&gt;bond_output -->
<g id="edge7" class="edge">
<title>eth_output&#45;&gt;bond_output</title>
<path fill="none" stroke="black" d="M1128.65,-350.2C1149.81,-356.83 1178.72,-365.89 1202.56,-373.36"/>
<polygon fill="black" stroke="black" points="1201.42,-376.67 1212.01,-376.32 1203.51,-369.99 1201.42,-376.67"/>
</g>
<!-- eth_output&#45;&gt;port_output -->
<g id="edge8" class="edge">
<title>eth_output&#45;&gt;port_output</title>
<path fill="none" stroke="black" d="M1133.34,-341.53C1173.49,-342.77 1242,-346.84 1299.27,-360 1310.75,-362.64 1322.86,-366.64 1333.83,-370.76"/>
<polygon fill="black" stroke="black" points="1332.35,-373.94 1342.94,-374.32 1334.9,-367.42 1332.35,-373.94"/>
</g>
<!-- l1_xconnect -->
<g id="node10" class="node">
<title>l1_xconnect</title>
<ellipse fill="none" stroke="black" cx="529.88" cy="-1023" rx="38.25" ry="18"/>
<text xml:space="preserve" text-anchor="middle" x="529.88" y="-1019.3" font-family="sans" font-size="11.00">l1_xconnect</text>
</g>
<!-- l1_xconnect&#45;&gt;port_output -->
<g id="edge9" class="edge">
<title>l1_xconnect&#45;&gt;port_output</title>
<path fill="none" stroke="black" d="M568.38,-1020.96C620.45,-1018.3 717.61,-1014 800.52,-1014 800.52,-1014 800.52,-1014 1099.3,-1014 1363.18,-1014 1374.16,-541.02 1372.48,-416.66"/>
<polygon fill="black" stroke="black" points="1375.98,-416.87 1372.31,-406.94 1368.99,-417 1375.98,-416.87"/>
</g>
<!-- lacp_output -->
<g id="node12" class="node">
<title>lacp_output</title>
<polygon fill="none" stroke="dodgerblue" points="980.35,-436 902.2,-436 902.2,-400 980.35,-400 980.35,-436"/>
<text xml:space="preserve" text-anchor="middle" x="941.27" y="-414.3" font-family="sans" font-size="11.00">lacp_output</text>
</g>
<!-- lacp_output&#45;&gt;eth_output -->
<g id="edge10" class="edge">
<title>lacp_output&#45;&gt;eth_output</title>
<path fill="none" stroke="dodgerblue" d="M980.8,-400.88C987.79,-397.67 995,-394.28 1001.72,-391 1022.4,-380.9 1045.25,-368.98 1063.42,-359.31"/>
<polygon fill="dodgerblue" stroke="dodgerblue" points="1065.02,-362.42 1072.19,-354.62 1061.72,-356.25 1065.02,-362.42"/>
</g>
<!-- loopback_input -->
<g id="node13" class="node">
<title>loopback_input</title>
<polygon fill="none" stroke="dodgerblue" points="192.66,-258 96.51,-258 96.51,-222 192.66,-222 192.66,-258"/>
<text xml:space="preserve" text-anchor="middle" x="144.58" y="-236.3" font-family="sans" font-size="11.00">loopback_input</text>
</g>
<!-- loopback_input&#45;&gt;ip_input -->
<g id="edge11" class="edge">
<title>loopback_input&#45;&gt;ip_input</title>
<path fill="none" stroke="dodgerblue" d="M192.97,-249.52C270.41,-265.08 422.44,-295.62 492.25,-309.64"/>
<polygon fill="dodgerblue" stroke="dodgerblue" points="491.54,-313.07 502.03,-311.61 492.92,-306.2 491.54,-313.07"/>
</g>
<!-- loopback_input&#45;&gt;ip6_input -->
<g id="edge12" class="edge">
<title>loopback_input&#45;&gt;ip6_input</title>
<path fill="none" stroke="dodgerblue" d="M184.41,-258.34C187.51,-260.91 190.34,-263.79 192.66,-267 228.97,-317.21 251.99,-505.82 259.72,-578.86"/>
<polygon fill="dodgerblue" stroke="dodgerblue" points="256.2,-578.84 260.71,-588.43 263.16,-578.12 256.2,-578.84"/>
</g>
<!-- loopback_output -->
<g id="node14" class="node">
<title>loopback_output</title>
<polygon fill="none" stroke="dodgerblue" points="1299.27,-475 1194.87,-475 1194.87,-439 1299.27,-439 1299.27,-475"/>
<text xml:space="preserve" text-anchor="middle" x="1247.07" y="-453.3" font-family="sans" font-size="11.00">loopback_output</text>
</g>
<!-- loop_xvrf -->
<g id="node15" class="node">
<title>loop_xvrf</title>
<ellipse fill="none" stroke="black" cx="144.58" cy="-570" rx="29.83" ry="18"/>
<text xml:space="preserve" text-anchor="middle" x="144.58" y="-566.3" font-family="sans" font-size="11.00">loop_xvrf</text>
</g>
<!-- loop_xvrf&#45;&gt;ip_input -->
<g id="edge13" class="edge">
<title>loop_xvrf&#45;&gt;ip_input</title>
<path fill="none" stroke="black" d="M160.66,-554.4C176.69,-538.26 203.2,-512.83 228.66,-494 320.97,-425.72 441.4,-361.41 497.53,-332.7"/>
<polygon fill="black" stroke="black" points="498.88,-335.94 506.21,-328.29 495.71,-329.7 498.88,-335.94"/>
</g>
<!-- loop_xvrf&#45;&gt;ip6_input -->
<g id="edge14" class="edge">
<title>loop_xvrf&#45;&gt;ip6_input</title>
<path fill="none" stroke="black" d="M171.55,-578.43C187.65,-583.66 208.56,-590.45 226.28,-596.21"/>
<polygon fill="black" stroke="black" points="225.08,-599.49 235.67,-599.25 227.24,-592.84 225.08,-599.49"/>
</g>
<!-- port_rx -->
<g id="node17" class="node">
<title>port_rx</title>
<ellipse fill="none" stroke="blue" stroke-width="2" cx="30.25" cy="-1014" rx="27" ry="18"/>
<text xml:space="preserve" text-anchor="middle" x="30.25" y="-1010.3" font-family="sans" font-size="11.00">port_rx</text>
</g>
<!-- port_rx&#45;&gt;eth_input -->
<g id="edge16" class="edge">
<title>port_rx&#45;&gt;eth_input</title>
<path fill="none" stroke="blue" stroke-width="2" d="M51.86,-1002.81C68.53,-993.76 92.31,-980.85 111.47,-970.44"/>
<polygon fill="blue" stroke="blue" stroke-width="2" points="111.8,-974.24 118.91,-966.4 108.45,-968.09 111.8,-974.24"/>
</g>
<!-- port_rx&#45;&gt;l1_xconnect -->
<g id="edge17" class="edge">
<title>port_rx&#45;&gt;l1_xconnect</title>
<path fill="none" stroke="blue" stroke-width="2" d="M54.94,-1021.36C118.83,-1040.16 299.84,-1086.45 447.21,-1057 462.93,-1053.86 479.41,-1047.63 493.42,-1041.34"/>
<polygon fill="blue" stroke="blue" stroke-width="2" points="493.28,-1045.27 500.85,-1037.87 490.31,-1038.93 493.28,-1045.27"/>
</g>
<!-- arp_output_reply -->
<g id="node20" class="node">
<title>arp_output_reply</title>
<polygon fill="none" stroke="dodgerblue" points="994.6,-328 887.95,-328 887.95,-292 994.6,-292 994.6,-328"/>
<text xml:space="preserve" text-anchor="middle" x="941.27" y="-306.3" font-family="sans" font-size="11.00">arp_output_reply</text>
</g>
<!-- arp_output_reply&#45;&gt;eth_output -->
<g id="edge21" class="edge">
<title>arp_output_reply&#45;&gt;eth_output</title>
<path fill="none" stroke="dodgerblue" d="M994.76,-320.5C1014.02,-324.35 1035.58,-328.66 1053.95,-332.33"/>
<polygon fill="dodgerblue" stroke="dodgerblue" points="1053.24,-335.76 1063.73,-334.29 1054.61,-328.89 1053.24,-335.76"/>
</g>
<!-- arp_output_request -->
<g id="node21" class="node">
<title>arp_output_request</title>
<polygon fill="none" stroke="dodgerblue" points="1001.72,-274 880.82,-274 880.82,-238 1001.72,-238 1001.72,-274"/>
<text xml:space="preserve" text-anchor="middle" x="941.27" y="-252.3" font-family="sans" font-size="11.00">arp_output_request</text>
</g>
<!-- arp_output_request&#45;&gt;eth_output -->
<g id="edge22" class="edge">
<title>arp_output_request&#45;&gt;eth_output</title>
<path fill="none" stroke="dodgerblue" d="M984.47,-274.41C990.32,-277.18 996.21,-280.09 1001.72,-283 1023.74,-294.62 1047.68,-309.16 1066.09,-320.77"/>
<polygon fill="dodgerblue" stroke="dodgerblue" points="1064.12,-323.66 1074.43,-326.07 1067.87,-317.75 1064.12,-323.66"/>
</g>
<!-- icmp_input -->
<g id="node22" class="node">
<title>icmp_input</title>
<ellipse fill="none" stroke="black" cx="941.27" cy="-202" rx="34.89" ry="18"/>
<text xml:space="preserve" text-anchor="middle" x="941.27" y="-198.3" font-family="sans" font-size="11.00">icmp_input</text>
</g>
<!-- icmp_output -->
<g id="node23" class="node">
<title>icmp_output</title>
<ellipse fill="none" stroke="black" cx="1098.3" cy="-110" rx="39.52" ry="18"/>
<text xml:space="preserve" text-anchor="middle" x="1098.3" y="-106.3" font-family="sans" font-size="11.00">icmp_output</text>
</g>
<!-- icmp_input&#45;&gt;icmp_output -->
<g id="edge23" class="edge">
<title>icmp_input&#45;&gt;icmp_output</title>
<path fill="none" stroke="black" d="M965.15,-188.43C991.18,-172.98 1033.94,-147.6 1063.74,-129.91"/>
<polygon fill="black" stroke="black" points="1065.19,-133.12 1072.01,-125.01 1061.62,-127.1 1065.19,-133.12"/>
</g>
<!-- icmp_output&#45;&gt;ip_output -->
<g id="edge25" class="edge">
<title>icmp_output&#45;&gt;ip_output</title>
<path fill="none" stroke="black" d="M1065.78,-99.55C1047.31,-93.81 1023.42,-87.06 1001.72,-83 914.31,-66.62 891.45,-64 802.52,-64 262.61,-64 262.61,-64 262.61,-64 178.64,-64 154.06,-92.86 96.51,-154 66.35,-186.03 48.05,-234.5 38.79,-265.18"/>
<polygon fill="black" stroke="black" points="35.5,-263.97 36.1,-274.55 42.23,-265.91 35.5,-263.97"/>
</g>
<!-- icmp_local_send -->
<g id="node24" class="node">
<title>icmp_local_send</title>
<polygon fill="none" stroke="dodgerblue" points="992.72,-128 889.82,-128 889.82,-92 992.72,-92 992.72,-128"/>
<text xml:space="preserve" text-anchor="middle" x="941.27" y="-106.3" font-family="sans" font-size="11.00">icmp_local_send</text>
</g>
<!-- icmp_local_send&#45;&gt;icmp_output -->
<g id="edge24" class="edge">
<title>icmp_local_send&#45;&gt;icmp_output</title>
<path fill="none" stroke="dodgerblue" d="M993.03,-110C1010.56,-110 1030.17,-110 1047.62,-110"/>
<polygon fill="dodgerblue" stroke="dodgerblue" points="1047.21,-113.5 1057.21,-110 1047.21,-106.5 1047.21,-113.5"/>
</g>
<!-- ip_output&#45;&gt;eth_output -->
<g id="edge38" class="edge">
<title>ip_output&#45;&gt;eth_output</title>
<path fill="none" stroke="black" d="M38.86,-276.24C48.92,-254.89 68.69,-219.5 96.51,-200 159.04,-156.16 186.24,-156 262.61,-156 262.61,-156 262.61,-156 802.52,-156 891.45,-156 926.93,-126.88 1001.72,-175 1051.02,-206.72 1077.74,-273.46 1089.6,-311.95"/>
<polygon fill="black" stroke="black" points="1086.22,-312.86 1092.39,-321.47 1092.94,-310.89 1086.22,-312.86"/>
</g>
<!-- ip_output&#45;&gt;loop_xvrf -->
<g id="edge41" class="edge">
<title>ip_output&#45;&gt;loop_xvrf</title>
<path fill="none" stroke="black" d="M34.79,-312.26C42.51,-349.8 62.92,-437.77 96.51,-505 103.63,-519.26 113.79,-533.76 122.85,-545.43"/>
<polygon fill="black" stroke="black" points="119.88,-547.32 128.85,-552.95 125.35,-542.95 119.88,-547.32"/>
</g>
<!-- ip_fragment -->
<g id="node27" class="node">
<title>ip_fragment</title>
<ellipse fill="none" stroke="black" cx="144.58" cy="-18" rx="38.25" ry="18"/>
<text xml:space="preserve" text-anchor="middle" x="144.58" y="-14.3" font-family="sans" font-size="11.00">ip_fragment</text>
</g>
<!-- ip_output&#45;&gt;ip_fragment -->
<g id="edge40" class="edge">
<title>ip_output&#45;&gt;ip_fragment</title>
<path fill="none" stroke="black" d="M31.68,-275.8C33.53,-231.07 43.44,-115.72 96.51,-41 98.21,-38.6 100.15,-36.33 102.25,-34.2"/>
<polygon fill="black" stroke="black" points="104.52,-36.87 109.85,-27.71 99.97,-31.55 104.52,-36.87"/>
</g>
<!-- ip_hold -->
<g id="node28" class="node">
<title>ip_hold</title>
<polygon fill="none" stroke="dodgerblue" points="171.58,-496 117.58,-496 117.58,-460 171.58,-460 171.58,-496"/>
<text xml:space="preserve" text-anchor="middle" x="144.58" y="-474.3" font-family="sans" font-size="11.00">ip_hold</text>
</g>
<!-- ip_output&#45;&gt;ip_hold -->
<g id="edge39" class="edge">
<title>ip_output&#45;&gt;ip_hold</title>
<path fill="none" stroke="black" d="M35.47,-312.15C43.27,-342.56 62.34,-404.57 96.51,-446 99.94,-450.16 104.05,-454.01 108.4,-457.48"/>
<polygon fill="black" stroke="black" points="106.12,-460.15 116.27,-463.18 110.22,-454.48 106.12,-460.15"/>
</g>
<!-- ip_loadbalance -->
<g id="node32" class="node">
<title>ip_loadbalance</title>
<ellipse fill="none" stroke="black" cx="144.58" cy="-348" rx="47.1" ry="18"/>
<text xml:space="preserve" text-anchor="middle" x="144.58" y="-344.3" font-family="sans" font-size="11.00">ip_loadbalance</text>
</g>
<!-- ip_output&#45;&gt;ip_loadbalance -->
<g id="edge42" class="edge">
<title>ip_output&#45;&gt;ip_loadbalance</title>
<path fill="none" stroke="black" d="M58.44,-301.19C74.47,-307.84 94.82,-317.53 111.61,-326.47"/>
<polygon fill="black" stroke="black" points="109.76,-329.45 120.21,-331.18 113.12,-323.31 109.76,-329.45"/>
</g>
<!-- ipip_output -->
<g id="node36" class="node">
<title>ipip_output</title>
<ellipse fill="none" stroke="black" cx="144.58" cy="-294" rx="35.73" ry="18"/>
<text xml:space="preserve" text-anchor="middle" x="144.58" y="-290.3" font-family="sans" font-size="11.00">ipip_output</text>
</g>
<!-- ip_output&#45;&gt;ipip_output -->
<g id="edge43" class="edge">
<title>ip_output&#45;&gt;ipip_output</title>
<path fill="none" stroke="black" d="M59.31,-288.07C71.37,-287.3 85.76,-287.07 99.21,-287.38"/>
<polygon fill="black" stroke="black" points="99.07,-290.88 109.19,-287.74 99.32,-283.89 99.07,-290.88"/>
</g>
<!-- sr6_output -->
<g id="node37" class="node">
<title>sr6_output</title>
<ellipse fill="none" stroke="black" cx="1098.3" cy="-630" rx="34.46" ry="18"/>
<text xml:space="preserve" text-anchor="middle" x="1098.3" y="-626.3" font-family="sans" font-size="11.00">sr6_output</text>
</g>
<!-- ip_output&#45;&gt;sr6_output -->
<g id="edge44" class="edge">
<title>ip_output&#45;&gt;sr6_output</title>
<path fill="none" stroke="black" d="M36.83,-311.66C45.47,-335.95 64.53,-379.15 96.51,-401 235.95,-496.3 682.03,-489.01 844.82,-534 923.82,-555.83 1012.64,-592.6 1061.04,-613.74"/>
<polygon fill="black" stroke="black" points="1059.36,-616.82 1069.92,-617.64 1062.18,-610.41 1059.36,-616.82"/>
</g>
<!-- ip_forward&#45;&gt;ip_output -->
<g id="edge26" class="edge">
<title>ip_forward&#45;&gt;ip_output</title>
<path fill="none" stroke="black" d="M767.77,-392.56C753.75,-393.53 737.19,-394.52 722.21,-395 673.5,-396.55 661.28,-395.94 612.56,-395 497.82,-392.78 199.05,-426.53 96.51,-375 73.63,-363.51 56.09,-339.91 44.98,-321.13"/>
<polygon fill="black" stroke="black" points="48.15,-319.64 40.21,-312.63 42.05,-323.06 48.15,-319.64"/>
</g>
<!-- ip_fragment&#45;&gt;ip_output -->
<g id="edge27" class="edge">
<title>ip_fragment&#45;&gt;ip_output</title>
<path fill="none" stroke="black" d="M126,-33.83C115.97,-40.44 103.94,-48.53 96.51,-59 51.08,-122.97 37.27,-216.71 33.08,-264.29"/>
<polygon fill="black" stroke="black" points="29.6,-263.86 32.31,-274.1 36.58,-264.41 29.6,-263.86"/>
</g>
<!-- dnat44_dynamic&#45;&gt;ip_forward -->
<g id="edge73" class="edge">
<title>dnat44_dynamic&#45;&gt;ip_forward</title>
<path fill="none" stroke="black" d="M701.67,-303.81C708.82,-307.54 716.06,-311.97 722.21,-317 742.3,-333.44 738.99,-345.54 758.21,-363 761.29,-365.8 764.7,-368.5 768.2,-371.03"/>
<polygon fill="black" stroke="black" points="766.04,-373.79 776.29,-376.47 769.94,-367.98 766.04,-373.79"/>
</g>
<!-- dnat44_dynamic&#45;&gt;ip_input_local -->
<g id="edge74" class="edge">
<title>dnat44_dynamic&#45;&gt;ip_input_local</title>
<path fill="none" stroke="black" d="M705.19,-302.81C721.23,-308.4 740.14,-314.98 756.88,-320.81"/>
<polygon fill="black" stroke="black" points="755.49,-324.03 766.09,-324.01 757.79,-317.42 755.49,-324.03"/>
</g>
<!-- ip_input_local&#45;&gt;icmp_input -->
<g id="edge34" class="edge">
<title>ip_input_local&#45;&gt;icmp_input</title>
<path fill="none" stroke="black" d="M811.69,-318.28C824.45,-295.08 849.57,-254.41 880.82,-229 886.85,-224.1 893.91,-219.89 901.02,-216.35"/>
<polygon fill="black" stroke="black" points="902.33,-219.6 909.98,-212.27 899.43,-213.23 902.33,-219.6"/>
</g>
<!-- ipip_input -->
<g id="node33" class="node">
<title>ipip_input</title>
<ellipse fill="none" stroke="black" cx="941.27" cy="-364" rx="31.1" ry="18"/>
<text xml:space="preserve" text-anchor="middle" x="941.27" y="-360.3" font-family="sans" font-size="11.00">ipip_input</text>
</g>
<!-- ip_input_local&#45;&gt;ipip_input -->
<g id="edge35" class="edge">
<title>ip_input_local&#45;&gt;ipip_input</title>
<path fill="none" stroke="black" d="M840.52,-343.73C859.12,-347.51 881.51,-352.06 900.35,-355.89"/>
<polygon fill="black" stroke="black" points="899.59,-359.3 910.08,-357.86 900.98,-352.44 899.59,-359.3"/>
</g>
<!-- l4_input_local -->
<g id="node34" class="node">
<title>l4_input_local</title>
<ellipse fill="none" stroke="black" cx="941.27" cy="-472" rx="42.89" ry="18"/>
<text xml:space="preserve" text-anchor="middle" x="941.27" y="-468.3" font-family="sans" font-size="11.00">l4_input_local</text>
</g>
<!-- ip_input_local&#45;&gt;l4_input_local -->
<g id="edge36" class="edge">
<title>ip_input_local&#45;&gt;l4_input_local</title>
<path fill="none" stroke="black" d="M829.46,-349.81C835.04,-353.55 840.52,-357.97 844.82,-363 870.71,-393.23 852.86,-416.68 880.82,-445 885.15,-449.39 890.33,-453.13 895.79,-456.3"/>
<polygon fill="black" stroke="black" points="893.97,-459.3 904.47,-460.72 897.15,-453.06 893.97,-459.3"/>
</g>
<!-- ospf_redirect -->
<g id="node35" class="node">
<title>ospf_redirect</title>
<ellipse fill="none" stroke="black" cx="941.27" cy="-922" rx="41.62" ry="18"/>
<text xml:space="preserve" text-anchor="middle" x="941.27" y="-918.3" font-family="sans" font-size="11.00">ospf_redirect</text>
</g>
<!-- ip_input_local&#45;&gt;ospf_redirect -->
<g id="edge37" class="edge">
<title>ip_input_local&#45;&gt;ospf_redirect</title>
<path fill="none" stroke="black" d="M831.13,-349.22C836.47,-352.94 841.44,-357.51 844.82,-363 885.65,-429.16 866.23,-634.64 880.82,-711 893.47,-777.17 917.06,-852.73 930.4,-893.04"/>
<polygon fill="black" stroke="black" points="927.07,-894.1 933.56,-902.47 933.7,-891.88 927.07,-894.1"/>
</g>
<!-- dnat44_static&#45;&gt;ip_forward -->
<g id="edge75" class="edge">
<title>dnat44_static&#45;&gt;ip_forward</title>
<path fill="none" stroke="black" d="M701.39,-355.49C719.79,-361.9 742.8,-369.91 762.02,-376.6"/>
<polygon fill="black" stroke="black" points="760.81,-379.88 771.41,-379.87 763.11,-373.27 760.81,-379.88"/>
</g>
<!-- dnat44_static&#45;&gt;ip_input_local -->
<g id="edge76" class="edge">
<title>dnat44_static&#45;&gt;ip_input_local</title>
<path fill="none" stroke="black" d="M710.55,-341.45C722.23,-340.74 735.06,-339.96 747.28,-339.22"/>
<polygon fill="black" stroke="black" points="747.46,-342.72 757.23,-338.62 747.04,-335.73 747.46,-342.72"/>
</g>
<!-- ip_loadbalance&#45;&gt;ip_output -->
<g id="edge33" class="edge">
<title>ip_loadbalance&#45;&gt;ip_output</title>
<path fill="none" stroke="black" d="M107.28,-336.91C91.85,-330.12 74.12,-321.46 59.67,-313.62"/>
<polygon fill="black" stroke="black" points="61.56,-310.66 51.12,-308.82 58.13,-316.77 61.56,-310.66"/>
</g>
<!-- ipip_input&#45;&gt;ip_input -->
<g id="edge67" class="edge">
<title>ipip_input&#45;&gt;ip_input</title>
<path fill="none" stroke="black" d="M914.73,-353.97C903.97,-349.34 891.5,-343.45 880.82,-337 863.48,-326.51 861.95,-319.85 844.82,-309 793.24,-276.32 781.61,-261.16 722.21,-247 674.8,-235.7 658.27,-230.09 612.56,-247 588.03,-256.07 565.89,-276.17 550.87,-292.52"/>
<polygon fill="black" stroke="black" points="548.28,-290.16 544.29,-299.98 553.53,-294.79 548.28,-290.16"/>
</g>
<!-- l4_loopback_output -->
<g id="node52" class="node">
<title>l4_loopback_output</title>
<ellipse fill="none" stroke="black" cx="1098.3" cy="-457" rx="60.57" ry="18"/>
<text xml:space="preserve" text-anchor="middle" x="1098.3" y="-453.3" font-family="sans" font-size="11.00">l4_loopback_output</text>
</g>
<!-- l4_input_local&#45;&gt;l4_loopback_output -->
<g id="edge69" class="edge">
<title>l4_input_local&#45;&gt;l4_loopback_output</title>
<path fill="none" stroke="black" d="M983.41,-468.02C997.41,-466.66 1013.46,-465.11 1029.01,-463.61"/>
<polygon fill="black" stroke="black" points="1029.09,-467.12 1038.7,-462.67 1028.41,-460.15 1029.09,-467.12"/>
</g>
<!-- dhcp_input -->
<g id="node53" class="node">
<title>dhcp_input</title>
<ellipse fill="none" stroke="black" cx="1098.3" cy="-511" rx="34.89" ry="18"/>
<text xml:space="preserve" text-anchor="middle" x="1098.3" y="-507.3" font-family="sans" font-size="11.00">dhcp_input</text>
</g>
<!-- l4_input_local&#45;&gt;dhcp_input -->
<g id="edge70" class="edge">
<title>l4_input_local&#45;&gt;dhcp_input</title>
<path fill="none" stroke="black" d="M978.62,-481.14C1001.64,-486.94 1031.49,-494.44 1055.49,-500.48"/>
<polygon fill="black" stroke="black" points="1054.39,-503.81 1064.94,-502.86 1056.1,-497.03 1054.39,-503.81"/>
</g>
<!-- ospf_redirect&#45;&gt;l2_redirect -->
<g id="edge72" class="edge">
<title>ospf_redirect&#45;&gt;l2_redirect</title>
<path fill="none" stroke="black" d="M980.2,-928.6C1002.59,-932.5 1031,-937.45 1054.24,-941.5"/>
<polygon fill="black" stroke="black" points="1053.57,-944.94 1064.02,-943.2 1054.77,-938.04 1053.57,-944.94"/>
</g>
<!-- ipip_output&#45;&gt;ip_output -->
<g id="edge68" class="edge">
<title>ipip_output&#45;&gt;ip_output</title>
<path fill="none" stroke="black" d="M110.7,-300.21C98.09,-300.83 83.57,-300.92 70.43,-300.47"/>
<polygon fill="black" stroke="black" points="70.98,-296.99 60.82,-300.01 70.64,-303.98 70.98,-296.99"/>
</g>
<!-- sr6_output&#45;&gt;ip6_output -->
<g id="edge80" class="edge">
<title>sr6_output&#45;&gt;ip6_output</title>
<path fill="none" stroke="black" d="M1074.16,-643.04C1050.69,-653.11 1013.81,-666.33 985.01,-675.22"/>
<polygon fill="black" stroke="black" points="984.04,-671.86 975.47,-678.08 986.05,-678.56 984.04,-671.86"/>
</g>
<!-- icmp6_input -->
<g id="node38" class="node">
<title>icmp6_input</title>
<polygon fill="none" stroke="dodgerblue" points="707.58,-664 627.18,-664 627.18,-628 707.58,-628 707.58,-664"/>
<text xml:space="preserve" text-anchor="middle" x="667.38" y="-642.3" font-family="sans" font-size="11.00">icmp6_input</text>
</g>
<!-- icmp6_output -->
<g id="node39" class="node">
<title>icmp6_output</title>
<ellipse fill="none" stroke="black" cx="801.52" cy="-794" rx="43.31" ry="18"/>
<text xml:space="preserve" text-anchor="middle" x="801.52" y="-790.3" font-family="sans" font-size="11.00">icmp6_output</text>
</g>
<!-- icmp6_input&#45;&gt;icmp6_output -->
<g id="edge45" class="edge">
<title>icmp6_input&#45;&gt;icmp6_output</title>
<path fill="none" stroke="dodgerblue" d="M684.85,-664.45C708.3,-690.71 751.39,-738.97 777.84,-768.6"/>
<polygon fill="dodgerblue" stroke="dodgerblue" points="775.2,-770.9 784.47,-776.03 780.42,-766.23 775.2,-770.9"/>
</g>
<!-- ndp_ns_input -->
<g id="node40" class="node">
<title>ndp_ns_input</title>
<polygon fill="none" stroke="dodgerblue" points="844.34,-720 758.69,-720 758.69,-684 844.34,-684 844.34,-720"/>
<text xml:space="preserve" text-anchor="middle" x="801.52" y="-698.3" font-family="sans" font-size="11.00">ndp_ns_input</text>
</g>
<!-- icmp6_input&#45;&gt;ndp_ns_input -->
<g id="edge46" class="edge">
<title>icmp6_input&#45;&gt;ndp_ns_input</title>
<path fill="none" stroke="dodgerblue" d="M708.03,-662.8C720.62,-668.14 734.75,-674.13 748.11,-679.79"/>
<polygon fill="dodgerblue" stroke="dodgerblue" points="746.64,-682.97 757.21,-683.65 749.37,-676.52 746.64,-682.97"/>
</g>
<!-- ndp_na_input -->
<g id="node41" class="node">
<title>ndp_na_input</title>
<polygon fill="none" stroke="dodgerblue" points="844.72,-666 758.32,-666 758.32,-630 844.72,-630 844.72,-666"/>
<text xml:space="preserve" text-anchor="middle" x="801.52" y="-644.3" font-family="sans" font-size="11.00">ndp_na_input</text>
</g>
<!-- icmp6_input&#45;&gt;ndp_na_input -->
<g id="edge47" class="edge">
<title>icmp6_input&#45;&gt;ndp_na_input</title>
<path fill="none" stroke="dodgerblue" d="M708.03,-646.6C720.26,-646.79 733.93,-646.99 746.94,-647.19"/>
<polygon fill="dodgerblue" stroke="dodgerblue" points="746.58,-650.68 756.63,-647.34 746.68,-643.68 746.58,-650.68"/>
</g>
<!-- ndp_rs_input -->
<g id="node42" class="node">
<title>ndp_rs_input</title>
<polygon fill="none" stroke="dodgerblue" points="843.22,-612 759.82,-612 759.82,-576 843.22,-576 843.22,-612"/>
<text xml:space="preserve" text-anchor="middle" x="801.52" y="-590.3" font-family="sans" font-size="11.00">ndp_rs_input</text>
</g>
<!-- icmp6_input&#45;&gt;ndp_rs_input -->
<g id="edge48" class="edge">
<title>icmp6_input&#45;&gt;ndp_rs_input</title>
<path fill="none" stroke="dodgerblue" d="M708.03,-630.4C720.86,-625.35 735.29,-619.67 748.87,-614.33"/>
<polygon fill="dodgerblue" stroke="dodgerblue" points="750.09,-617.6 758.12,-610.69 747.53,-611.09 750.09,-617.6"/>
</g>
<!-- icmp6_output&#45;&gt;ip6_output -->
<g id="edge49" class="edge">
<title>icmp6_output&#45;&gt;ip6_output</title>
<path fill="none" stroke="black" d="M823.73,-778.2C830.51,-773.09 838.02,-767.35 844.82,-762 868.24,-743.58 894.42,-722.13 913.43,-706.39"/>
<polygon fill="black" stroke="black" points="915.52,-709.2 920.98,-700.13 911.05,-703.82 915.52,-709.2"/>
</g>
<!-- ip6_output&#45;&gt;eth_output -->
<g id="edge60" class="edge">
<title>ip6_output&#45;&gt;eth_output</title>
<path fill="none" stroke="black" d="M947.51,-665.85C960.12,-623.31 994.34,-514.43 1037.72,-430 1049.27,-407.53 1065.34,-383.85 1077.87,-366.57"/>
<polygon fill="black" stroke="black" points="1080.42,-369.02 1083.53,-358.89 1074.78,-364.87 1080.42,-369.02"/>
</g>
<!-- ip6_output&#45;&gt;loop_xvrf -->
<g id="edge62" class="edge">
<title>ip6_output&#45;&gt;loop_xvrf</title>
<path fill="none" stroke="black" d="M932.16,-701.51C918.11,-730.1 886.69,-787.03 844.82,-821 812.97,-846.85 702.24,-892 668.38,-892 389.88,-892 389.88,-892 389.88,-892 243.38,-892 173.35,-677.83 152.5,-598.82"/>
<polygon fill="black" stroke="black" points="155.91,-598.06 150.05,-589.24 149.13,-599.79 155.91,-598.06"/>
</g>
<!-- ip6_output&#45;&gt;sr6_output -->
<g id="edge64" class="edge">
<title>ip6_output&#45;&gt;sr6_output</title>
<path fill="none" stroke="black" d="M965.48,-670.93C988.82,-660.92 1025.36,-647.82 1054.06,-638.94"/>
<polygon fill="black" stroke="black" points="1055,-642.31 1063.57,-636.08 1052.99,-635.6 1055,-642.31"/>
</g>
<!-- ip6_hold -->
<g id="node46" class="node">
<title>ip6_hold</title>
<polygon fill="none" stroke="dodgerblue" points="1128,-756 1068.6,-756 1068.6,-720 1128,-720 1128,-756"/>
<text xml:space="preserve" text-anchor="middle" x="1098.3" y="-734.3" font-family="sans" font-size="11.00">ip6_hold</text>
</g>
<!-- ip6_output&#45;&gt;ip6_hold -->
<g id="edge61" class="edge">
<title>ip6_output&#45;&gt;ip6_hold</title>
<path fill="none" stroke="black" d="M970.35,-693.78C994.66,-702.25 1030.1,-714.59 1057.36,-724.09"/>
<polygon fill="black" stroke="black" points="1056.09,-727.35 1066.69,-727.34 1058.4,-720.74 1056.09,-727.35"/>
</g>
<!-- ip6_loadbalance -->
<g id="node49" class="node">
<title>ip6_loadbalance</title>
<ellipse fill="none" stroke="black" cx="1098.3" cy="-684" rx="50.89" ry="18"/>
<text xml:space="preserve" text-anchor="middle" x="1098.3" y="-680.3" font-family="sans" font-size="11.00">ip6_loadbalance</text>
</g>
<!-- ip6_output&#45;&gt;ip6_loadbalance -->
<g id="edge63" class="edge">
<title>ip6_output&#45;&gt;ip6_loadbalance</title>
<path fill="none" stroke="black" d="M974.02,-678.43C992.65,-677.33 1016.78,-677 1038.74,-677.43"/>
<polygon fill="black" stroke="black" points="1038.39,-680.92 1048.48,-677.69 1038.58,-673.93 1038.39,-680.92"/>
</g>
<!-- icmp6_local_send -->
<g id="node44" class="node">
<title>icmp6_local_send</title>
<polygon fill="none" stroke="dodgerblue" points="722.21,-864 612.56,-864 612.56,-828 722.21,-828 722.21,-864"/>
<text xml:space="preserve" text-anchor="middle" x="667.38" y="-842.3" font-family="sans" font-size="11.00">icmp6_local_send</text>
</g>
<!-- icmp6_local_send&#45;&gt;icmp6_output -->
<g id="edge50" class="edge">
<title>icmp6_local_send&#45;&gt;icmp6_output</title>
<path fill="none" stroke="dodgerblue" d="M715.34,-827.52C729.39,-821.99 744.7,-815.97 758.41,-810.57"/>
<polygon fill="dodgerblue" stroke="dodgerblue" points="759.58,-813.87 767.61,-806.95 757.02,-807.36 759.58,-813.87"/>
</g>
<!-- ip6_forward&#45;&gt;ip6_output -->
<g id="edge51" class="edge">
<title>ip6_forward&#45;&gt;ip6_output</title>
<path fill="none" stroke="black" d="M425.1,-546.06C503.16,-529.21 702.44,-496.88 844.82,-567 883.19,-585.9 911.43,-628.23 926.86,-656.45"/>
<polygon fill="black" stroke="black" points="923.68,-657.94 931.43,-665.16 929.88,-654.68 923.68,-657.94"/>
</g>
<!-- ip6_input_local&#45;&gt;l4_input_local -->
<g id="edge58" class="edge">
<title>ip6_input_local&#45;&gt;l4_input_local</title>
<path fill="none" stroke="black" d="M562.33,-632.64C635.7,-601.45 818.19,-523.89 899.76,-489.22"/>
<polygon fill="black" stroke="black" points="900.89,-492.54 908.72,-485.41 898.15,-486.1 900.89,-492.54"/>
</g>
<!-- ip6_input_local&#45;&gt;ospf_redirect -->
<g id="edge59" class="edge">
<title>ip6_input_local&#45;&gt;ospf_redirect</title>
<path fill="none" stroke="black" d="M531.48,-664.23C533.98,-707.94 546.82,-819.08 612.56,-873 691.98,-938.14 820.05,-936.25 890.26,-929.14"/>
<polygon fill="black" stroke="black" points="890.36,-932.65 899.92,-928.08 889.6,-925.69 890.36,-932.65"/>
</g>
<!-- ip6_input_local&#45;&gt;icmp6_input -->
<g id="edge57" class="edge">
<title>ip6_input_local&#45;&gt;icmp6_input</title>
<path fill="none" stroke="black" d="M576.76,-646C589.22,-646 602.79,-646 615.51,-646"/>
<polygon fill="black" stroke="black" points="615.38,-649.5 625.38,-646 615.38,-642.5 615.38,-649.5"/>
</g>
<!-- sr6_local&#45;&gt;ip_input -->
<g id="edge77" class="edge">
<title>sr6_local&#45;&gt;ip_input</title>
<path fill="none" stroke="black" d="M417.31,-600.61C427.85,-596.39 439.42,-590.09 447.21,-581 506.57,-511.71 522.81,-399.67 527.23,-346.64"/>
<polygon fill="black" stroke="black" points="530.71,-347.11 527.96,-336.87 523.73,-346.59 530.71,-347.11"/>
</g>
<!-- sr6_local&#45;&gt;ip6_input -->
<g id="edge78" class="edge">
<title>sr6_local&#45;&gt;ip6_input</title>
<path fill="none" stroke="black" d="M363.61,-613.62C346.08,-614.86 322.75,-615.08 303.13,-614.28"/>
<polygon fill="black" stroke="black" points="303.47,-610.8 293.3,-613.76 303.1,-617.79 303.47,-610.8"/>
</g>
<!-- sr6_local&#45;&gt;ip6_input_local -->
<g id="edge79" class="edge">
<title>sr6_local&#45;&gt;ip6_input_local</title>
<path fill="none" stroke="black" d="M417.65,-615.15C435.19,-620.01 458.96,-626.61 480.02,-632.45"/>
<polygon fill="black" stroke="black" points="479.03,-635.81 489.61,-635.11 480.91,-629.06 479.03,-635.81"/>
</g>
<!-- ip6_loadbalance&#45;&gt;ip6_output -->
<g id="edge56" class="edge">
<title>ip6_loadbalance&#45;&gt;ip6_output</title>
<path fill="none" stroke="black" d="M1049.99,-690.27C1029.4,-690.96 1005.44,-690.91 985.35,-690.12"/>
<polygon fill="black" stroke="black" points="985.69,-686.63 975.53,-689.64 985.35,-693.62 985.69,-686.63"/>
</g>
<!-- ndp_na_output -->
<g id="node50" class="node">
<title>ndp_na_output</title>
<polygon fill="none" stroke="dodgerblue" points="714.71,-810 620.06,-810 620.06,-774 714.71,-774 714.71,-810"/>
<text xml:space="preserve" text-anchor="middle" x="667.38" y="-788.3" font-family="sans" font-size="11.00">ndp_na_output</text>
</g>
<!-- ndp_na_output&#45;&gt;icmp6_output -->
<g id="edge65" class="edge">
<title>ndp_na_output&#45;&gt;icmp6_output</title>
<path fill="none" stroke="dodgerblue" d="M714.97,-792.71C725.23,-792.86 736.17,-793.03 746.69,-793.19"/>
<polygon fill="dodgerblue" stroke="dodgerblue" points="746.32,-796.68 756.37,-793.33 746.42,-789.68 746.32,-796.68"/>
</g>
<!-- ndp_ns_output -->
<g id="node51" class="node">
<title>ndp_ns_output</title>
<polygon fill="none" stroke="dodgerblue" points="714.33,-756 620.43,-756 620.43,-720 714.33,-720 714.33,-756"/>
<text xml:space="preserve" text-anchor="middle" x="667.38" y="-734.3" font-family="sans" font-size="11.00">ndp_ns_output</text>
</g>
<!-- ndp_ns_output&#45;&gt;icmp6_output -->
<g id="edge66" class="edge">
<title>ndp_ns_output&#45;&gt;icmp6_output</title>
<path fill="none" stroke="dodgerblue" d="M712.02,-756.49C727.38,-763 744.58,-770.29 759.7,-776.7"/>
<polygon fill="dodgerblue" stroke="dodgerblue" points="758.33,-779.92 768.9,-780.6 761.06,-773.47 758.33,-779.92"/>
</g>
<!-- l4_loopback_output&#45;&gt;loopback_output -->
<g id="edge71" class="edge">
<title>l4_loopback_output&#45;&gt;loopback_output</title>
<path fill="none" stroke="black" d="M1159,-457C1166.89,-457 1175,-457 1182.95,-457"/>
<polygon fill="black" stroke="black" points="1182.91,-460.5 1192.91,-457 1182.91,-453.5 1182.91,-460.5"/>
</g>
</g>
</svg>
