<?xml version="1.0" encoding="UTF-8" standalone="no"?>
<!DOCTYPE svg PUBLIC "-//W3C//DTD SVG 1.1//EN"
 "http://www.w3.org/Graphics/SVG/1.1/DTD/svg11.dtd">
<!-- Generated by graphviz version 8.1.0 (20230707.0739)
 -->
<!-- Title: br&#45;0003 Pages: 1 -->
<svg width="1675pt" height="417pt"
 viewBox="0.00 0.00 1675.09 417.00" xmlns="http://www.w3.org/2000/svg" xmlns:xlink="http://www.w3.org/1999/xlink">
<g id="graph0" class="graph" transform="scale(1 1) rotate(0) translate(4 413)">
<title>br&#45;0003</title>
<polygon fill="white" stroke="none" points="-4,4 -4,-413 1671.09,-413 1671.09,4 -4,4"/>
<!-- ipv4_output_no_route -->
<g id="node1" class="node">
<title>ipv4_output_no_route</title>
<ellipse fill="none" stroke="darkorange" cx="1325.49" cy="-264" rx="67.73" ry="18"/>
<text text-anchor="middle" x="1325.49" y="-260.3" font-family="sans" font-size="11.00">ipv4_output_no_route</text>
</g>
<!-- ipv4_output_error -->
<g id="node2" class="node">
<title>ipv4_output_error</title>
<ellipse fill="none" stroke="darkorange" cx="1325.49" cy="-210" rx="55.94" ry="18"/>
<text text-anchor="middle" x="1325.49" y="-206.3" font-family="sans" font-size="11.00">ipv4_output_error</text>
</g>
<!-- ipv4_output -->
<g id="node3" class="node">
<title>ipv4_output</title>
<ellipse fill="none" stroke="black" cx="1130.44" cy="-245" rx="37.83" ry="18"/>
<text text-anchor="middle" x="1130.44" y="-241.3" font-family="sans" font-size="11.00">ipv4_output</text>
</g>
<!-- ipv4_output&#45;&gt;ipv4_output_no_route -->
<g id="edge2" class="edge">
<title>ipv4_output&#45;&gt;ipv4_output_no_route</title>
<path fill="none" stroke="black" d="M1167.75,-248.57C1191.09,-250.87 1222.25,-253.94 1250.64,-256.73"/>
<polygon fill="black" stroke="black" points="1250.07,-260.29 1260.36,-257.79 1250.75,-253.32 1250.07,-260.29"/>
</g>
<!-- ipv4_output&#45;&gt;ipv4_output_error -->
<g id="edge3" class="edge">
<title>ipv4_output&#45;&gt;ipv4_output_error</title>
<path fill="none" stroke="black" d="M1166.4,-238.66C1193.93,-233.67 1232.92,-226.6 1265.3,-220.73"/>
<polygon fill="black" stroke="black" points="1265.78,-224.02 1274.99,-218.79 1264.53,-217.13 1265.78,-224.02"/>
</g>
<!-- eth_tx -->
<g id="node4" class="node">
<title>eth_tx</title>
<ellipse fill="none" stroke="black" cx="1482.21" cy="-164" rx="27" ry="18"/>
<text text-anchor="middle" x="1482.21" y="-160.3" font-family="sans" font-size="11.00">eth_tx</text>
</g>
<!-- ipv4_output&#45;&gt;eth_tx -->
<g id="edge1" class="edge">
<title>ipv4_output&#45;&gt;eth_tx</title>
<path fill="none" stroke="black" d="M1154.15,-230.61C1178.67,-215.87 1219.38,-193.64 1257.76,-183 1321.43,-165.34 1398.9,-162.74 1443.88,-163"/>
<polygon fill="black" stroke="black" points="1443.82,-166.51 1453.86,-163.13 1443.9,-159.51 1443.82,-166.51"/>
</g>
<!-- arp_output_request -->
<g id="node5" class="node">
<title>arp_output_request</title>
<ellipse fill="none" stroke="black" cx="1325.49" cy="-318" rx="61.42" ry="18"/>
<text text-anchor="middle" x="1325.49" y="-314.3" font-family="sans" font-size="11.00">arp_output_request</text>
</g>
<!-- ipv4_output&#45;&gt;arp_output_request -->
<g id="edge4" class="edge">
<title>ipv4_output&#45;&gt;arp_output_request</title>
<path fill="none" stroke="black" d="M1160.76,-256.09C1191.52,-267.72 1240.34,-286.18 1276.68,-299.92"/>
<polygon fill="black" stroke="black" points="1274.98,-303.4 1285.58,-303.66 1277.46,-296.85 1274.98,-303.4"/>
</g>
<!-- eth_tx_no_dest -->
<g id="node25" class="node">
<title>eth_tx_no_dest</title>
<ellipse fill="none" stroke="darkorange" cx="1619.15" cy="-191" rx="47.94" ry="18"/>
<text text-anchor="middle" x="1619.15" y="-187.3" font-family="sans" font-size="11.00">eth_tx_no_dest</text>
</g>
<!-- eth_tx&#45;&gt;eth_tx_no_dest -->
<g id="edge28" class="edge">
<title>eth_tx&#45;&gt;eth_tx_no_dest</title>
<path fill="none" stroke="black" d="M1508.59,-169.08C1524.63,-172.29 1545.95,-176.55 1565.52,-180.47"/>
<polygon fill="black" stroke="black" points="1564.68,-184.07 1575.17,-182.6 1566.05,-177.21 1564.68,-184.07"/>
</g>
<!-- eth_tx_error -->
<g id="node26" class="node">
<title>eth_tx_error</title>
<ellipse fill="none" stroke="darkorange" cx="1619.15" cy="-137" rx="39.1" ry="18"/>
<text text-anchor="middle" x="1619.15" y="-133.3" font-family="sans" font-size="11.00">eth_tx_error</text>
</g>
<!-- eth_tx&#45;&gt;eth_tx_error -->
<g id="edge27" class="edge">
<title>eth_tx&#45;&gt;eth_tx_error</title>
<path fill="none" stroke="black" d="M1508.59,-158.92C1526.41,-155.36 1550.74,-150.49 1571.94,-146.25"/>
<polygon fill="black" stroke="black" points="1572.58,-149.49 1581.7,-144.09 1571.2,-142.62 1572.58,-149.49"/>
</g>
<!-- arp_output_request&#45;&gt;eth_tx -->
<g id="edge18" class="edge">
<title>arp_output_request&#45;&gt;eth_tx</title>
<path fill="none" stroke="black" d="M1369.11,-305.07C1377.61,-301.34 1386.1,-296.7 1393.22,-291 1427.55,-263.54 1453.98,-219.2 1468.56,-190.84"/>
<polygon fill="black" stroke="black" points="1472.06,-192.68 1473.39,-182.17 1465.79,-189.55 1472.06,-192.68"/>
</g>
<!-- arp_output_error -->
<g id="node18" class="node">
<title>arp_output_error</title>
<ellipse fill="none" stroke="darkorange" cx="1482.21" cy="-291" rx="52.99" ry="18"/>
<text text-anchor="middle" x="1482.21" y="-287.3" font-family="sans" font-size="11.00">arp_output_error</text>
</g>
<!-- arp_output_request&#45;&gt;arp_output_error -->
<g id="edge20" class="edge">
<title>arp_output_request&#45;&gt;arp_output_error</title>
<path fill="none" stroke="black" d="M1378.87,-308.86C1393.33,-306.34 1409.1,-303.58 1423.83,-301.01"/>
<polygon fill="black" stroke="black" points="1424.09,-304.35 1433.34,-299.18 1422.88,-297.45 1424.09,-304.35"/>
</g>
<!-- arp_queue_full -->
<g id="node19" class="node">
<title>arp_queue_full</title>
<ellipse fill="none" stroke="darkorange" cx="1482.21" cy="-345" rx="45.83" ry="18"/>
<text text-anchor="middle" x="1482.21" y="-341.3" font-family="sans" font-size="11.00">arp_queue_full</text>
</g>
<!-- arp_output_request&#45;&gt;arp_queue_full -->
<g id="edge19" class="edge">
<title>arp_output_request&#45;&gt;arp_queue_full</title>
<path fill="none" stroke="black" d="M1378.87,-327.14C1395.12,-329.98 1413.02,-333.1 1429.25,-335.93"/>
<polygon fill="black" stroke="black" points="1428.18,-339.47 1438.64,-337.74 1429.39,-332.58 1428.18,-339.47"/>
</g>
<!-- ipv4_input_local_unknown_proto -->
<g id="node6" class="node">
<title>ipv4_input_local_unknown_proto</title>
<ellipse fill="none" stroke="darkorange" cx="713.82" cy="-241" rx="100.16" ry="18"/>
<text text-anchor="middle" x="713.82" y="-237.3" font-family="sans" font-size="11.00">ipv4_input_local_unknown_proto</text>
</g>
<!-- ipv4_input_local -->
<g id="node7" class="node">
<title>ipv4_input_local</title>
<ellipse fill="none" stroke="black" cx="496.45" cy="-295" rx="50.47" ry="18"/>
<text text-anchor="middle" x="496.45" y="-291.3" font-family="sans" font-size="11.00">ipv4_input_local</text>
</g>
<!-- ipv4_input_local&#45;&gt;ipv4_input_local_unknown_proto -->
<g id="edge5" class="edge">
<title>ipv4_input_local&#45;&gt;ipv4_input_local_unknown_proto</title>
<path fill="none" stroke="black" d="M538.47,-284.72C568.11,-277.28 608.86,-267.07 643.51,-258.38"/>
<polygon fill="black" stroke="black" points="644.2,-261.56 653.05,-255.73 642.5,-254.77 644.2,-261.56"/>
</g>
<!-- icmp_input -->
<g id="node8" class="node">
<title>icmp_input</title>
<ellipse fill="none" stroke="black" cx="713.82" cy="-295" rx="34.89" ry="18"/>
<text text-anchor="middle" x="713.82" y="-291.3" font-family="sans" font-size="11.00">icmp_input</text>
</g>
<!-- ipv4_input_local&#45;&gt;icmp_input -->
<g id="edge6" class="edge">
<title>ipv4_input_local&#45;&gt;icmp_input</title>
<path fill="none" stroke="black" d="M547.4,-295C583.73,-295 632.5,-295 667.67,-295"/>
<polygon fill="black" stroke="black" points="667.57,-298.5 677.57,-295 667.57,-291.5 667.57,-298.5"/>
</g>
<!-- icmp_output -->
<g id="node15" class="node">
<title>icmp_output</title>
<ellipse fill="none" stroke="black" cx="926.55" cy="-245" rx="39.52" ry="18"/>
<text text-anchor="middle" x="926.55" y="-241.3" font-family="sans" font-size="11.00">icmp_output</text>
</g>
<!-- icmp_input&#45;&gt;icmp_output -->
<g id="edge15" class="edge">
<title>icmp_input&#45;&gt;icmp_output</title>
<path fill="none" stroke="black" d="M745.91,-287.62C781.36,-279.21 839.63,-265.39 880.15,-255.77"/>
<polygon fill="black" stroke="black" points="880.9,-258.95 889.82,-253.24 879.28,-252.14 880.9,-258.95"/>
</g>
<!-- icmp_input_unsupported -->
<g id="node16" class="node">
<title>icmp_input_unsupported</title>
<ellipse fill="none" stroke="darkorange" cx="926.55" cy="-191" rx="76.58" ry="18"/>
<text text-anchor="middle" x="926.55" y="-187.3" font-family="sans" font-size="11.00">icmp_input_unsupported</text>
</g>
<!-- icmp_input&#45;&gt;icmp_input_unsupported -->
<g id="edge17" class="edge">
<title>icmp_input&#45;&gt;icmp_input_unsupported</title>
<path fill="none" stroke="black" d="M748.45,-291.58C768.86,-288.18 794.62,-281.42 813.97,-268 836.48,-252.4 828.09,-234.46 849.97,-218 854.38,-214.68 859.24,-211.74 864.3,-209.15"/>
<polygon fill="black" stroke="black" points="865.59,-211.94 873.2,-204.57 862.66,-205.59 865.59,-211.94"/>
</g>
<!-- icmp_input_invalid -->
<g id="node17" class="node">
<title>icmp_input_invalid</title>
<ellipse fill="none" stroke="darkorange" cx="926.55" cy="-299" rx="58.05" ry="18"/>
<text text-anchor="middle" x="926.55" y="-295.3" font-family="sans" font-size="11.00">icmp_input_invalid</text>
</g>
<!-- icmp_input&#45;&gt;icmp_input_invalid -->
<g id="edge16" class="edge">
<title>icmp_input&#45;&gt;icmp_input_invalid</title>
<path fill="none" stroke="black" d="M749.14,-295.65C778.32,-296.21 821.09,-297.02 857.21,-297.7"/>
<polygon fill="black" stroke="black" points="857.11,-301.22 867.18,-297.91 857.25,-294.22 857.11,-301.22"/>
</g>
<!-- ipv4_input_bad_length -->
<g id="node9" class="node">
<title>ipv4_input_bad_length</title>
<ellipse fill="none" stroke="darkorange" cx="496.45" cy="-241" rx="69.84" ry="18"/>
<text text-anchor="middle" x="496.45" y="-237.3" font-family="sans" font-size="11.00">ipv4_input_bad_length</text>
</g>
<!-- ipv4_input_bad_checksum -->
<g id="node10" class="node">
<title>ipv4_input_bad_checksum</title>
<ellipse fill="none" stroke="darkorange" cx="496.45" cy="-187" rx="81.21" ry="18"/>
<text text-anchor="middle" x="496.45" y="-183.3" font-family="sans" font-size="11.00">ipv4_input_bad_checksum</text>
</g>
<!-- ipv4_input_no_route -->
<g id="node11" class="node">
<title>ipv4_input_no_route</title>
<ellipse fill="none" stroke="darkorange" cx="496.45" cy="-133" rx="63.1" ry="18"/>
<text text-anchor="middle" x="496.45" y="-129.3" font-family="sans" font-size="11.00">ipv4_input_no_route</text>
</g>
<!-- ipv4_input -->
<g id="node12" class="node">
<title>ipv4_input</title>
<ellipse fill="none" stroke="black" cx="290.45" cy="-214" rx="33.2" ry="18"/>
<text text-anchor="middle" x="290.45" y="-210.3" font-family="sans" font-size="11.00">ipv4_input</text>
</g>
<!-- ipv4_input&#45;&gt;ipv4_input_local -->
<g id="edge8" class="edge">
<title>ipv4_input&#45;&gt;ipv4_input_local</title>
<path fill="none" stroke="black" d="M316.32,-225.61C341.13,-237 380.46,-254.59 415.24,-268 425.52,-271.96 436.67,-275.92 447.28,-279.54"/>
<polygon fill="black" stroke="black" points="446.07,-283.16 456.67,-283.03 448.3,-276.53 446.07,-283.16"/>
</g>
<!-- ipv4_input&#45;&gt;ipv4_input_bad_length -->
<g id="edge11" class="edge">
<title>ipv4_input&#45;&gt;ipv4_input_bad_length</title>
<path fill="none" stroke="black" d="M322.88,-218.16C349.52,-221.69 388.75,-226.88 423.08,-231.42"/>
<polygon fill="black" stroke="black" points="422.19,-234.97 432.56,-232.81 423.11,-228.03 422.19,-234.97"/>
</g>
<!-- ipv4_input&#45;&gt;ipv4_input_bad_checksum -->
<g id="edge10" class="edge">
<title>ipv4_input&#45;&gt;ipv4_input_bad_checksum</title>
<path fill="none" stroke="black" d="M322.88,-209.84C347.48,-206.58 382.83,-201.91 415.13,-197.63"/>
<polygon fill="black" stroke="black" points="415.49,-200.98 424.95,-196.2 414.57,-194.04 415.49,-200.98"/>
</g>
<!-- ipv4_input&#45;&gt;ipv4_input_no_route -->
<g id="edge9" class="edge">
<title>ipv4_input&#45;&gt;ipv4_input_no_route</title>
<path fill="none" stroke="black" d="M316.32,-202.39C341.13,-191 380.46,-173.41 415.24,-160 424.11,-156.58 433.61,-153.17 442.87,-149.97"/>
<polygon fill="black" stroke="black" points="443.82,-153.01 452.16,-146.47 441.57,-146.38 443.82,-153.01"/>
</g>
<!-- ipv4_forward -->
<g id="node13" class="node">
<title>ipv4_forward</title>
<ellipse fill="none" stroke="black" cx="496.45" cy="-349" rx="41.2" ry="18"/>
<text text-anchor="middle" x="496.45" y="-345.3" font-family="sans" font-size="11.00">ipv4_forward</text>
</g>
<!-- ipv4_input&#45;&gt;ipv4_forward -->
<g id="edge7" class="edge">
<title>ipv4_input&#45;&gt;ipv4_forward</title>
<path fill="none" stroke="black" d="M305.93,-230.15C327.61,-253.43 370.72,-296.44 415.24,-322 425.78,-328.05 437.88,-333.01 449.43,-336.95"/>
<polygon fill="black" stroke="black" points="448.23,-340.56 458.82,-340.28 450.37,-333.89 448.23,-340.56"/>
</g>
<!-- ipv4_forward&#45;&gt;ipv4_output -->
<g id="edge12" class="edge">
<title>ipv4_forward&#45;&gt;ipv4_output</title>
<path fill="none" stroke="black" d="M536.38,-353.93C622.81,-363.46 836.25,-379.05 1003.13,-326 1041.38,-313.84 1079.34,-286.97 1103.51,-267.51"/>
<polygon fill="black" stroke="black" points="1105.27,-269.77 1110.76,-260.72 1100.82,-264.37 1105.27,-269.77"/>
</g>
<!-- ipv4_forward_ttl_exceeded -->
<g id="node14" class="node">
<title>ipv4_forward_ttl_exceeded</title>
<ellipse fill="none" stroke="darkorange" cx="713.82" cy="-391" rx="83.31" ry="18"/>
<text text-anchor="middle" x="713.82" y="-387.3" font-family="sans" font-size="11.00">ipv4_forward_ttl_exceeded</text>
</g>
<!-- ipv4_forward&#45;&gt;ipv4_forward_ttl_exceeded -->
<g id="edge13" class="edge">
<title>ipv4_forward&#45;&gt;ipv4_forward_ttl_exceeded</title>
<path fill="none" stroke="black" d="M534.47,-356.22C563.36,-361.85 604.38,-369.85 639.8,-376.76"/>
<polygon fill="black" stroke="black" points="639.11,-380.39 649.6,-378.87 640.45,-373.52 639.11,-380.39"/>
</g>
<!-- icmp_output&#45;&gt;ipv4_output -->
<g id="edge14" class="edge">
<title>icmp_output&#45;&gt;ipv4_output</title>
<path fill="none" stroke="black" d="M966.48,-245C999.25,-245 1046.27,-245 1081.39,-245"/>
<polygon fill="black" stroke="black" points="1081.34,-248.5 1091.34,-245 1081.34,-241.5 1081.34,-248.5"/>
</g>
<!-- arp_output_reply -->
<g id="node20" class="node">
<title>arp_output_reply</title>
<ellipse fill="none" stroke="black" cx="1325.49" cy="-118" rx="53.41" ry="18"/>
<text text-anchor="middle" x="1325.49" y="-114.3" font-family="sans" font-size="11.00">arp_output_reply</text>
</g>
<!-- arp_output_reply&#45;&gt;eth_tx -->
<g id="edge21" class="edge">
<title>arp_output_reply&#45;&gt;eth_tx</title>
<path fill="none" stroke="black" d="M1366.33,-129.85C1391.18,-137.23 1422.84,-146.65 1446.63,-153.72"/>
<polygon fill="black" stroke="black" points="1445.37,-157.29 1455.95,-156.79 1447.36,-150.58 1445.37,-157.29"/>
</g>
<!-- arp_input_proto_unsupported -->
<g id="node21" class="node">
<title>arp_input_proto_unsupported</title>
<ellipse fill="none" stroke="darkorange" cx="1130.44" cy="-72" rx="91.31" ry="18"/>
<text text-anchor="middle" x="1130.44" y="-68.3" font-family="sans" font-size="11.00">arp_input_proto_unsupported</text>
</g>
<!-- arp_input_op_unsupported -->
<g id="node22" class="node">
<title>arp_input_op_unsupported</title>
<ellipse fill="none" stroke="darkorange" cx="1130.44" cy="-18" rx="82.47" ry="18"/>
<text text-anchor="middle" x="1130.44" y="-14.3" font-family="sans" font-size="11.00">arp_input_op_unsupported</text>
</g>
<!-- arp_input_reply -->
<g id="node23" class="node">
<title>arp_input_reply</title>
<ellipse fill="none" stroke="darkorange" cx="1130.44" cy="-164" rx="48.78" ry="18"/>
<text text-anchor="middle" x="1130.44" y="-160.3" font-family="sans" font-size="11.00">arp_input_reply</text>
</g>
<!-- arp_input -->
<g id="node24" class="node">
<title>arp_input</title>
<ellipse fill="none" stroke="black" cx="926.55" cy="-91" rx="30.25" ry="18"/>
<text text-anchor="middle" x="926.55" y="-87.3" font-family="sans" font-size="11.00">arp_input</text>
</g>
<!-- arp_input&#45;&gt;ipv4_output -->
<g id="edge26" class="edge">
<title>arp_input&#45;&gt;ipv4_output</title>
<path fill="none" stroke="black" d="M942.98,-106.59C963.79,-127.19 1002.47,-164 1039.13,-191 1056.87,-204.07 1077.95,-216.82 1095.28,-226.64"/>
<polygon fill="black" stroke="black" points="1093.04,-229.96 1103.48,-231.78 1096.46,-223.85 1093.04,-229.96"/>
</g>
<!-- arp_input&#45;&gt;arp_output_reply -->
<g id="edge22" class="edge">
<title>arp_input&#45;&gt;arp_output_reply</title>
<path fill="none" stroke="black" d="M956.91,-93.15C979.41,-94.78 1011.23,-97.07 1039.13,-99 1115.79,-104.3 1204.06,-110.14 1261.88,-113.92"/>
<polygon fill="black" stroke="black" points="1261.46,-117.47 1271.67,-114.63 1261.92,-110.48 1261.46,-117.47"/>
</g>
<!-- arp_input&#45;&gt;arp_input_proto_unsupported -->
<g id="edge25" class="edge">
<title>arp_input&#45;&gt;arp_input_proto_unsupported</title>
<path fill="none" stroke="black" d="M956.91,-88.24C978.04,-86.25 1007.81,-83.45 1036.67,-80.73"/>
<polygon fill="black" stroke="black" points="1036.62,-84.16 1046.25,-79.74 1035.96,-77.19 1036.62,-84.16"/>
</g>
<!-- arp_input&#45;&gt;arp_input_op_unsupported -->
<g id="edge24" class="edge">
<title>arp_input&#45;&gt;arp_input_op_unsupported</title>
<path fill="none" stroke="black" d="M951.22,-80.43C973.63,-70.62 1008.32,-55.92 1039.13,-45 1048.41,-41.71 1058.33,-38.47 1068.06,-35.44"/>
<polygon fill="black" stroke="black" points="1068.98,-38.52 1077.52,-32.25 1066.93,-31.82 1068.98,-38.52"/>
</g>
<!-- arp_input&#45;&gt;arp_input_reply -->
<g id="edge23" class="edge">
<title>arp_input&#45;&gt;arp_input_reply</title>
<path fill="none" stroke="black" d="M952.78,-100.37C975.37,-108.73 1009.43,-121.28 1039.13,-132 1053.73,-137.27 1069.69,-142.95 1084.08,-148.04"/>
<polygon fill="black" stroke="black" points="1082.64,-151.6 1093.24,-151.63 1084.97,-145 1082.64,-151.6"/>
</g>
<!-- eth_rx -->
<g id="node27" class="node">
<title>eth_rx</title>
<ellipse fill="none" stroke="blue" stroke-width="2" cx="27" cy="-87" rx="27" ry="18"/>
<text text-anchor="middle" x="27" y="-83.3" font-family="sans" font-size="11.00">eth_rx</text>
</g>
<!-- eth_classify -->
<g id="node28" class="node">
<title>eth_classify</title>
<ellipse fill="none" stroke="black" cx="127.83" cy="-87" rx="37.83" ry="18"/>
<text text-anchor="middle" x="127.83" y="-83.3" font-family="sans" font-size="11.00">eth_classify</text>
</g>
<!-- eth_rx&#45;&gt;eth_classify -->
<g id="edge29" class="edge">
<title>eth_rx&#45;&gt;eth_classify</title>
<path fill="none" stroke="blue" stroke-width="2" d="M54.49,-87C62.04,-87 70.51,-87 78.93,-87"/>
<polygon fill="blue" stroke="blue" stroke-width="2" points="76.87,-90.5 86.87,-87 76.87,-83.5 76.87,-90.5"/>
</g>
<!-- eth_classify&#45;&gt;ipv4_input -->
<g id="edge31" class="edge">
<title>eth_classify&#45;&gt;ipv4_input</title>
<path fill="none" stroke="black" d="M148.21,-102.32C176.73,-124.87 230.13,-167.1 262.48,-192.67"/>
<polygon fill="black" stroke="black" points="259.99,-195.95 270,-199.41 264.33,-190.46 259.99,-195.95"/>
</g>
<!-- eth_classify&#45;&gt;arp_input -->
<g id="edge32" class="edge">
<title>eth_classify&#45;&gt;arp_input</title>
<path fill="none" stroke="black" d="M165.93,-87.19C298.44,-87.85 747.84,-90.11 885.28,-90.8"/>
<polygon fill="black" stroke="black" points="885.1,-94.3 895.12,-90.85 885.14,-87.3 885.1,-94.3"/>
</g>
<!-- eth_classify_unknown_ptype -->
<g id="node29" class="node">
<title>eth_classify_unknown_ptype</title>
<ellipse fill="none" stroke="darkorange" cx="290.45" cy="-41" rx="88.79" ry="18"/>
<text text-anchor="middle" x="290.45" y="-37.3" font-family="sans" font-size="11.00">eth_classify_unknown_ptype</text>
</g>
<!-- eth_classify&#45;&gt;eth_classify_unknown_ptype -->
<g id="edge30" class="edge">
<title>eth_classify&#45;&gt;eth_classify_unknown_ptype</title>
<path fill="none" stroke="black" d="M160.95,-77.8C179.84,-72.39 204.37,-65.37 226.93,-58.91"/>
<polygon fill="black" stroke="black" points="227.82,-62 236.47,-55.89 225.9,-55.28 227.82,-62"/>
</g>
</g>
</svg>
