<?xml version="1.0" encoding="UTF-8" standalone="no"?>
<!DOCTYPE svg PUBLIC "-//W3C//DTD SVG 1.1//EN"
 "http://www.w3.org/Graphics/SVG/1.1/DTD/svg11.dtd">
<!-- Generated by graphviz version 2.43.0 (0)
 -->
<!-- Title: gr&#45;0002 Pages: 1 -->
<svg width="2200pt" height="832pt"
 viewBox="0.00 0.00 2200.40 832.00" xmlns="http://www.w3.org/2000/svg" xmlns:xlink="http://www.w3.org/1999/xlink">
<g id="graph0" class="graph" transform="scale(1 1) rotate(0) translate(4 828)">
<title>gr&#45;0002</title>
<polygon fill="white" stroke="transparent" points="-4,4 -4,-828 2196.4,-828 2196.4,4 -4,4"/>
<!-- control_input -->
<g id="node1" class="node">
<title>control_input</title>
<ellipse fill="none" stroke="blue" stroke-width="2" cx="40.16" cy="-570" rx="40.32" ry="18"/>
<text text-anchor="middle" x="40.16" y="-567.2" font-family="sans" font-size="11.00">control_input</text>
</g>
<!-- loopback_input -->
<g id="node2" class="node">
<title>loopback_input</title>
<ellipse fill="none" stroke="black" cx="161.91" cy="-370" rx="45.68" ry="18"/>
<text text-anchor="middle" x="161.91" y="-367.2" font-family="sans" font-size="11.00">loopback_input</text>
</g>
<!-- control_input&#45;&gt;loopback_input -->
<g id="edge1" class="edge">
<title>control_input&#45;&gt;loopback_input</title>
<path fill="none" stroke="blue" stroke-width="2" d="M51.58,-552.6C72.63,-517.44 120.36,-437.73 145.21,-396.23"/>
<polygon fill="blue" stroke="blue" stroke-width="2" points="148.3,-397.88 150.43,-387.5 142.29,-394.28 148.3,-397.88"/>
</g>
<!-- arp_output_request -->
<g id="node3" class="node">
<title>arp_output_request</title>
<ellipse fill="none" stroke="black" cx="302.66" cy="-644" rx="59.31" ry="18"/>
<text text-anchor="middle" x="302.66" y="-641.2" font-family="sans" font-size="11.00">arp_output_request</text>
</g>
<!-- control_input&#45;&gt;arp_output_request -->
<g id="edge2" class="edge">
<title>control_input&#45;&gt;arp_output_request</title>
<path fill="none" stroke="blue" stroke-width="2" d="M64.01,-584.54C78.49,-593.15 97.9,-603.58 116.32,-610 155.01,-623.48 200.19,-631.91 236.26,-637"/>
<polygon fill="blue" stroke="blue" stroke-width="2" points="235.8,-640.47 246.18,-638.35 236.74,-633.53 235.8,-640.47"/>
</g>
<!-- icmp_local_send -->
<g id="node4" class="node">
<title>icmp_local_send</title>
<ellipse fill="none" stroke="black" cx="449.37" cy="-454" rx="49.28" ry="18"/>
<text text-anchor="middle" x="449.37" y="-451.2" font-family="sans" font-size="11.00">icmp_local_send</text>
</g>
<!-- control_input&#45;&gt;icmp_local_send -->
<g id="edge3" class="edge">
<title>control_input&#45;&gt;icmp_local_send</title>
<path fill="none" stroke="blue" stroke-width="2" d="M51.08,-552.66C63.51,-532.76 86.81,-500.93 116.32,-486 204.67,-441.29 323.12,-442.03 392.05,-447.45"/>
<polygon fill="blue" stroke="blue" stroke-width="2" points="392.01,-450.96 402.27,-448.32 392.6,-443.98 392.01,-450.96"/>
</g>
<!-- icmp6_local_send -->
<g id="node5" class="node">
<title>icmp6_local_send</title>
<ellipse fill="none" stroke="black" cx="811.91" cy="-707" rx="53.37" ry="18"/>
<text text-anchor="middle" x="811.91" y="-704.2" font-family="sans" font-size="11.00">icmp6_local_send</text>
</g>
<!-- control_input&#45;&gt;icmp6_local_send -->
<g id="edge4" class="edge">
<title>control_input&#45;&gt;icmp6_local_send</title>
<path fill="none" stroke="blue" stroke-width="2" d="M56.46,-586.47C70.73,-601 93.24,-621.85 116.32,-635 191.79,-678 214.8,-697 301.66,-697 301.66,-697 301.66,-697 579.18,-697 636.83,-697 702.48,-700.13 749.14,-702.88"/>
<polygon fill="blue" stroke="blue" stroke-width="2" points="749.2,-706.39 759.39,-703.5 749.62,-699.41 749.2,-706.39"/>
</g>
<!-- ndp_ns_output -->
<g id="node6" class="node">
<title>ndp_ns_output</title>
<ellipse fill="none" stroke="black" cx="945.6" cy="-806" rx="44.51" ry="18"/>
<text text-anchor="middle" x="945.6" y="-803.2" font-family="sans" font-size="11.00">ndp_ns_output</text>
</g>
<!-- control_input&#45;&gt;ndp_ns_output -->
<g id="edge5" class="edge">
<title>control_input&#45;&gt;ndp_ns_output</title>
<path fill="none" stroke="blue" stroke-width="2" d="M42.16,-588.08C45.4,-627.85 59.06,-723.13 116.32,-770 180.89,-822.85 218.21,-800 301.66,-800 301.66,-800 301.66,-800 690.07,-800 759.34,-800 839.17,-802.25 890.69,-803.99"/>
<polygon fill="blue" stroke="blue" stroke-width="2" points="890.8,-807.5 900.92,-804.34 891.04,-800.5 890.8,-807.5"/>
</g>
<!-- ip_output -->
<g id="node7" class="node">
<title>ip_output</title>
<ellipse fill="none" stroke="black" cx="945.6" cy="-332" rx="29.12" ry="18"/>
<text text-anchor="middle" x="945.6" y="-329.2" font-family="sans" font-size="11.00">ip_output</text>
</g>
<!-- control_input&#45;&gt;ip_output -->
<g id="edge6" class="edge">
<title>control_input&#45;&gt;ip_output</title>
<path fill="none" stroke="blue" stroke-width="2" d="M60.99,-554.5C75.48,-544.05 96.06,-530.95 116.32,-524 279.03,-468.22 332.99,-518.14 500.93,-481 658.54,-446.14 838.7,-375.66 911.51,-345.83"/>
<polygon fill="blue" stroke="blue" stroke-width="2" points="913.14,-348.94 921.06,-341.9 910.48,-342.47 913.14,-348.94"/>
</g>
<!-- arp_output_reply -->
<g id="node8" class="node">
<title>arp_output_reply</title>
<ellipse fill="none" stroke="black" cx="449.37" cy="-602" rx="51.62" ry="18"/>
<text text-anchor="middle" x="449.37" y="-599.2" font-family="sans" font-size="11.00">arp_output_reply</text>
</g>
<!-- control_input&#45;&gt;arp_output_reply -->
<g id="edge7" class="edge">
<title>control_input&#45;&gt;arp_output_reply</title>
<path fill="none" stroke="blue" stroke-width="2" d="M79.84,-573.04C151.28,-578.65 304.36,-590.68 389.02,-597.34"/>
<polygon fill="blue" stroke="blue" stroke-width="2" points="388.75,-600.83 399,-598.12 389.3,-593.85 388.75,-600.83"/>
</g>
<!-- ip6_output -->
<g id="node9" class="node">
<title>ip6_output</title>
<ellipse fill="none" stroke="black" cx="1175.53" cy="-424" rx="32.63" ry="18"/>
<text text-anchor="middle" x="1175.53" y="-421.2" font-family="sans" font-size="11.00">ip6_output</text>
</g>
<!-- control_input&#45;&gt;ip6_output -->
<g id="edge8" class="edge">
<title>control_input&#45;&gt;ip6_output</title>
<path fill="none" stroke="blue" stroke-width="2" d="M73.16,-559.58C122.22,-549.62 219.03,-538 301.66,-538 301.66,-538 301.66,-538 579.18,-538 792.77,-538 1040.72,-461.13 1135.22,-433.38"/>
<polygon fill="blue" stroke="blue" stroke-width="2" points="1136.31,-436.7 1144.93,-430.54 1134.35,-429.98 1136.31,-436.7"/>
</g>
<!-- control_input&#45;&gt;ip6_output -->
<g id="edge10" class="edge">
<title>control_input&#45;&gt;ip6_output</title>
<path fill="none" stroke="blue" stroke-width="2" d="M80.34,-570.57C131.23,-566.56 222.89,-556 301.66,-556 301.66,-556 301.66,-556 579.18,-556 797.89,-556 1052.63,-475.4 1141.75,-439.92"/>
<polygon fill="blue" stroke="blue" stroke-width="2" points="1143.13,-443.14 1151.07,-436.12 1140.49,-436.65 1143.13,-443.14"/>
</g>
<!-- ndp_na_output -->
<g id="node10" class="node">
<title>ndp_na_output</title>
<ellipse fill="none" stroke="black" cx="1175.53" cy="-762" rx="45.09" ry="18"/>
<text text-anchor="middle" x="1175.53" y="-759.2" font-family="sans" font-size="11.00">ndp_na_output</text>
</g>
<!-- control_input&#45;&gt;ndp_na_output -->
<g id="edge9" class="edge">
<title>control_input&#45;&gt;ndp_na_output</title>
<path fill="none" stroke="blue" stroke-width="2" d="M50.41,-587.66C62.82,-609.89 86.75,-648.05 116.32,-672 186.61,-728.91 211.22,-756 301.66,-756 301.66,-756 301.66,-756 946.6,-756 1006.03,-756 1074.15,-758.06 1120.33,-759.77"/>
<polygon fill="blue" stroke="blue" stroke-width="2" points="1120.29,-763.27 1130.42,-760.15 1120.55,-756.28 1120.29,-763.27"/>
</g>
<!-- ip_input -->
<g id="node14" class="node">
<title>ip_input</title>
<ellipse fill="none" stroke="black" cx="302.66" cy="-202" rx="27" ry="18"/>
<text text-anchor="middle" x="302.66" y="-199.2" font-family="sans" font-size="11.00">ip_input</text>
</g>
<!-- loopback_input&#45;&gt;ip_input -->
<g id="edge16" class="edge">
<title>loopback_input&#45;&gt;ip_input</title>
<path fill="none" stroke="black" d="M176.98,-352.97C201.87,-322.82 253.74,-260.02 282.1,-225.68"/>
<polygon fill="black" stroke="black" points="285.1,-227.54 288.77,-217.6 279.7,-223.08 285.1,-227.54"/>
</g>
<!-- ip6_input -->
<g id="node15" class="node">
<title>ip6_input</title>
<ellipse fill="none" stroke="black" cx="1388.09" cy="-298" rx="28.44" ry="18"/>
<text text-anchor="middle" x="1388.09" y="-295.2" font-family="sans" font-size="11.00">ip6_input</text>
</g>
<!-- loopback_input&#45;&gt;ip6_input -->
<g id="edge17" class="edge">
<title>loopback_input&#45;&gt;ip6_input</title>
<path fill="none" stroke="black" d="M207.25,-372.79C341.5,-380.52 755.17,-399.12 1094.48,-359 1167.77,-350.33 1184.31,-337.94 1256.57,-323 1288.29,-316.44 1324.46,-309.56 1350.67,-304.68"/>
<polygon fill="black" stroke="black" points="1351.36,-308.11 1360.55,-302.85 1350.08,-301.23 1351.36,-308.11"/>
</g>
<!-- eth_output -->
<g id="node16" class="node">
<title>eth_output</title>
<ellipse fill="none" stroke="black" cx="1290.22" cy="-602" rx="33.8" ry="18"/>
<text text-anchor="middle" x="1290.22" y="-599.2" font-family="sans" font-size="11.00">eth_output</text>
</g>
<!-- arp_output_request&#45;&gt;eth_output -->
<g id="edge26" class="edge">
<title>arp_output_request&#45;&gt;eth_output</title>
<path fill="none" stroke="black" d="M361.98,-643.39C474.6,-642.27 729.83,-640 944.6,-640 944.6,-640 944.6,-640 1061.29,-640 1128.28,-640 1204.86,-623.83 1250.02,-612.59"/>
<polygon fill="black" stroke="black" points="1251.15,-615.91 1259.98,-610.06 1249.42,-609.13 1251.15,-615.91"/>
</g>
<!-- icmp_output -->
<g id="node27" class="node">
<title>icmp_output</title>
<ellipse fill="none" stroke="black" cx="811.91" cy="-264" rx="37.98" ry="18"/>
<text text-anchor="middle" x="811.91" y="-261.2" font-family="sans" font-size="11.00">icmp_output</text>
</g>
<!-- icmp_local_send&#45;&gt;icmp_output -->
<g id="edge31" class="edge">
<title>icmp_local_send&#45;&gt;icmp_output</title>
<path fill="none" stroke="black" d="M478.87,-439.53C512.54,-422.4 570.2,-392.9 619.42,-367 674.85,-337.83 738.88,-303.2 777.07,-282.44"/>
<polygon fill="black" stroke="black" points="779.08,-285.33 786.2,-277.48 775.74,-279.18 779.08,-285.33"/>
</g>
<!-- icmp6_output -->
<g id="node35" class="node">
<title>icmp6_output</title>
<ellipse fill="none" stroke="black" cx="1863.15" cy="-716" rx="41.58" ry="18"/>
<text text-anchor="middle" x="1863.15" y="-713.2" font-family="sans" font-size="11.00">icmp6_output</text>
</g>
<!-- icmp6_local_send&#45;&gt;icmp6_output -->
<g id="edge54" class="edge">
<title>icmp6_local_send&#45;&gt;icmp6_output</title>
<path fill="none" stroke="black" d="M864.8,-710C914.65,-712.61 992.09,-716 1059.29,-716 1059.29,-716 1059.29,-716 1606,-716 1677.14,-716 1759.4,-716 1811.1,-716"/>
<polygon fill="black" stroke="black" points="1811.34,-719.5 1821.34,-716 1811.34,-712.5 1811.34,-719.5"/>
</g>
<!-- ndp_ns_output&#45;&gt;icmp6_output -->
<g id="edge71" class="edge">
<title>ndp_ns_output&#45;&gt;icmp6_output</title>
<path fill="none" stroke="black" d="M990.29,-806.61C1036.17,-807.2 1110.42,-808 1174.53,-808 1174.53,-808 1174.53,-808 1606,-808 1690.61,-808 1782.18,-762.99 1829.58,-735.93"/>
<polygon fill="black" stroke="black" points="1831.56,-738.83 1838.45,-730.78 1828.05,-732.78 1831.56,-738.83"/>
</g>
<!-- ip_output&#45;&gt;eth_output -->
<g id="edge42" class="edge">
<title>ip_output&#45;&gt;eth_output</title>
<path fill="none" stroke="black" d="M947.99,-350.2C952.11,-390.78 967.9,-489.1 1026.1,-540 1034.54,-547.38 1177,-578.29 1248.69,-593.49"/>
<polygon fill="black" stroke="black" points="1248.22,-596.97 1258.73,-595.61 1249.67,-590.12 1248.22,-596.97"/>
</g>
<!-- loopback_output -->
<g id="node19" class="node">
<title>loopback_output</title>
<ellipse fill="none" stroke="black" cx="2012.58" cy="-221" rx="50.45" ry="18"/>
<text text-anchor="middle" x="2012.58" y="-218.2" font-family="sans" font-size="11.00">loopback_output</text>
</g>
<!-- ip_output&#45;&gt;loopback_output -->
<g id="edge44" class="edge">
<title>ip_output&#45;&gt;loopback_output</title>
<path fill="none" stroke="black" d="M961.92,-316.8C996.58,-284.09 1084.99,-210 1174.53,-210 1174.53,-210 1174.53,-210 1728.29,-210 1805.79,-210 1895.12,-214.16 1952.41,-217.36"/>
<polygon fill="black" stroke="black" points="1952.54,-220.88 1962.73,-217.95 1952.94,-213.89 1952.54,-220.88"/>
</g>
<!-- ip_hold -->
<g id="node28" class="node">
<title>ip_hold</title>
<ellipse fill="none" stroke="black" cx="1605" cy="-554" rx="27" ry="18"/>
<text text-anchor="middle" x="1605" y="-551.2" font-family="sans" font-size="11.00">ip_hold</text>
</g>
<!-- ip_output&#45;&gt;ip_hold -->
<g id="edge43" class="edge">
<title>ip_output&#45;&gt;ip_hold</title>
<path fill="none" stroke="black" d="M953.78,-349.74C965.23,-375.77 990.04,-424.13 1026.1,-451 1195.65,-577.32 1469.95,-566.54 1567.85,-557.92"/>
<polygon fill="black" stroke="black" points="1568.47,-561.38 1578.1,-556.96 1567.82,-554.41 1568.47,-561.38"/>
</g>
<!-- ipip_output -->
<g id="node31" class="node">
<title>ipip_output</title>
<ellipse fill="none" stroke="black" cx="1060.29" cy="-332" rx="34.38" ry="18"/>
<text text-anchor="middle" x="1060.29" y="-329.2" font-family="sans" font-size="11.00">ipip_output</text>
</g>
<!-- ip_output&#45;&gt;ipip_output -->
<g id="edge45" class="edge">
<title>ip_output&#45;&gt;ipip_output</title>
<path fill="none" stroke="black" d="M973.59,-326.14C986.69,-325.27 1002.73,-325.04 1017.37,-325.45"/>
<polygon fill="black" stroke="black" points="1017.59,-328.96 1027.72,-325.87 1017.87,-321.97 1017.59,-328.96"/>
</g>
<!-- sr6_output -->
<g id="node32" class="node">
<title>sr6_output</title>
<ellipse fill="none" stroke="black" cx="1060.29" cy="-424" rx="33.21" ry="18"/>
<text text-anchor="middle" x="1060.29" y="-421.2" font-family="sans" font-size="11.00">sr6_output</text>
</g>
<!-- ip_output&#45;&gt;sr6_output -->
<g id="edge46" class="edge">
<title>ip_output&#45;&gt;sr6_output</title>
<path fill="none" stroke="black" d="M964.21,-346.38C982.68,-361.45 1011.91,-385.32 1033.09,-402.61"/>
<polygon fill="black" stroke="black" points="1031.1,-405.5 1041.06,-409.12 1035.53,-400.08 1031.1,-405.5"/>
</g>
<!-- vrf_output -->
<g id="node33" class="node">
<title>vrf_output</title>
<ellipse fill="none" stroke="black" cx="1290.22" cy="-256" rx="32.04" ry="18"/>
<text text-anchor="middle" x="1290.22" y="-253.2" font-family="sans" font-size="11.00">vrf_output</text>
</g>
<!-- ip_output&#45;&gt;vrf_output -->
<g id="edge47" class="edge">
<title>ip_output&#45;&gt;vrf_output</title>
<path fill="none" stroke="black" d="M971.03,-322.69C986.62,-317 1007.34,-309.9 1026.1,-305 1103.91,-284.66 1196.78,-269.42 1248.78,-261.69"/>
<polygon fill="black" stroke="black" points="1249.54,-265.11 1258.92,-260.2 1248.52,-258.19 1249.54,-265.11"/>
</g>
<!-- arp_output_reply&#45;&gt;eth_output -->
<g id="edge25" class="edge">
<title>arp_output_reply&#45;&gt;eth_output</title>
<path fill="none" stroke="black" d="M501.38,-602C549.51,-602 623.69,-602 688.07,-602 688.07,-602 688.07,-602 1061.29,-602 1125.72,-602 1200.39,-602 1246.22,-602"/>
<polygon fill="black" stroke="black" points="1246.38,-605.5 1256.38,-602 1246.38,-598.5 1246.38,-605.5"/>
</g>
<!-- ip6_output&#45;&gt;eth_output -->
<g id="edge63" class="edge">
<title>ip6_output&#45;&gt;eth_output</title>
<path fill="none" stroke="black" d="M1187.33,-441.07C1207.19,-472.43 1249.59,-539.4 1272.95,-576.29"/>
<polygon fill="black" stroke="black" points="1270.14,-578.41 1278.45,-584.98 1276.06,-574.66 1270.14,-578.41"/>
</g>
<!-- ip6_output&#45;&gt;loopback_output -->
<g id="edge65" class="edge">
<title>ip6_output&#45;&gt;loopback_output</title>
<path fill="none" stroke="black" d="M1208.08,-422.41C1269.59,-418.81 1409.52,-408.13 1523.95,-381 1652.77,-350.46 1678.55,-321.67 1804.54,-281 1857.95,-263.76 1919.84,-246.13 1961.94,-234.48"/>
<polygon fill="black" stroke="black" points="1962.96,-237.83 1971.67,-231.8 1961.1,-231.08 1962.96,-237.83"/>
</g>
<!-- ip6_output&#45;&gt;sr6_output -->
<g id="edge66" class="edge">
<title>ip6_output&#45;&gt;sr6_output</title>
<path fill="none" stroke="black" d="M1144.49,-430.04C1131.48,-430.79 1116.04,-430.95 1102.02,-430.51"/>
<polygon fill="black" stroke="black" points="1101.78,-426.99 1091.64,-430.06 1101.48,-433.99 1101.78,-426.99"/>
</g>
<!-- ip6_output&#45;&gt;vrf_output -->
<g id="edge67" class="edge">
<title>ip6_output&#45;&gt;vrf_output</title>
<path fill="none" stroke="black" d="M1187.75,-407.28C1207.58,-377.72 1248.92,-316.08 1272.26,-281.29"/>
<polygon fill="black" stroke="black" points="1275.39,-282.91 1278.05,-272.66 1269.57,-279.01 1275.39,-282.91"/>
</g>
<!-- ip6_hold -->
<g id="node40" class="node">
<title>ip6_hold</title>
<ellipse fill="none" stroke="black" cx="1388.09" cy="-462" rx="27" ry="18"/>
<text text-anchor="middle" x="1388.09" y="-459.2" font-family="sans" font-size="11.00">ip6_hold</text>
</g>
<!-- ip6_output&#45;&gt;ip6_hold -->
<g id="edge64" class="edge">
<title>ip6_output&#45;&gt;ip6_hold</title>
<path fill="none" stroke="black" d="M1206.7,-429.44C1245.09,-436.37 1311.29,-448.32 1351.93,-455.65"/>
<polygon fill="black" stroke="black" points="1351.46,-459.13 1361.92,-457.46 1352.7,-452.24 1351.46,-459.13"/>
</g>
<!-- ndp_na_output&#45;&gt;icmp6_output -->
<g id="edge69" class="edge">
<title>ndp_na_output&#45;&gt;icmp6_output</title>
<path fill="none" stroke="black" d="M1220.48,-760.68C1263.08,-759.51 1329.51,-758 1387.09,-758 1387.09,-758 1387.09,-758 1606,-758 1680.83,-758 1766.36,-740.33 1817.23,-727.91"/>
<polygon fill="black" stroke="black" points="1818.37,-731.23 1827.23,-725.43 1816.68,-724.44 1818.37,-731.23"/>
</g>
<!-- control_output -->
<g id="node11" class="node">
<title>control_output</title>
<ellipse fill="none" stroke="black" cx="2147.9" cy="-297" rx="44.51" ry="18"/>
<text text-anchor="middle" x="2147.9" y="-294.2" font-family="sans" font-size="11.00">control_output</text>
</g>
<!-- eth_input -->
<g id="node12" class="node">
<title>eth_input</title>
<ellipse fill="none" stroke="black" cx="161.91" cy="-126" rx="29.12" ry="18"/>
<text text-anchor="middle" x="161.91" y="-123.2" font-family="sans" font-size="11.00">eth_input</text>
</g>
<!-- arp_input -->
<g id="node13" class="node">
<title>arp_input</title>
<ellipse fill="none" stroke="black" cx="1863.15" cy="-18" rx="29.12" ry="18"/>
<text text-anchor="middle" x="1863.15" y="-15.2" font-family="sans" font-size="11.00">arp_input</text>
</g>
<!-- eth_input&#45;&gt;arp_input -->
<g id="edge11" class="edge">
<title>eth_input&#45;&gt;arp_input</title>
<path fill="none" stroke="black" d="M176.39,-110.34C191.2,-94.19 216.48,-69.5 243.5,-56 326.81,-14.37 355.24,-12 448.37,-12 448.37,-12 448.37,-12 1606,-12 1683.24,-12 1773.55,-14.76 1823.66,-16.54"/>
<polygon fill="black" stroke="black" points="1823.61,-20.04 1833.73,-16.9 1823.86,-13.04 1823.61,-20.04"/>
</g>
<!-- eth_input&#45;&gt;ip_input -->
<g id="edge12" class="edge">
<title>eth_input&#45;&gt;ip_input</title>
<path fill="none" stroke="black" d="M184.29,-137.71C207.95,-150.67 246.23,-171.64 272.6,-186.08"/>
<polygon fill="black" stroke="black" points="270.93,-189.16 281.39,-190.9 274.3,-183.02 270.93,-189.16"/>
</g>
<!-- eth_input&#45;&gt;ip6_input -->
<g id="edge13" class="edge">
<title>eth_input&#45;&gt;ip6_input</title>
<path fill="none" stroke="black" d="M186.04,-115.43C233.92,-94.55 347.85,-50 448.37,-50 448.37,-50 448.37,-50 1176.53,-50 1291.26,-50 1356.49,-206.15 1378.54,-270.64"/>
<polygon fill="black" stroke="black" points="1375.23,-271.78 1381.71,-280.16 1381.87,-269.57 1375.23,-271.78"/>
</g>
<!-- arp_input_request -->
<g id="node21" class="node">
<title>arp_input_request</title>
<ellipse fill="none" stroke="black" cx="2012.58" cy="-18" rx="54.63" ry="18"/>
<text text-anchor="middle" x="2012.58" y="-15.2" font-family="sans" font-size="11.00">arp_input_request</text>
</g>
<!-- arp_input&#45;&gt;arp_input_request -->
<g id="edge21" class="edge">
<title>arp_input&#45;&gt;arp_input_request</title>
<path fill="none" stroke="black" d="M1892.58,-18C1908.18,-18 1928.21,-18 1947.36,-18"/>
<polygon fill="black" stroke="black" points="1947.57,-21.5 1957.57,-18 1947.57,-14.5 1947.57,-21.5"/>
</g>
<!-- arp_input_reply -->
<g id="node22" class="node">
<title>arp_input_reply</title>
<ellipse fill="none" stroke="black" cx="2012.58" cy="-72" rx="47.43" ry="18"/>
<text text-anchor="middle" x="2012.58" y="-69.2" font-family="sans" font-size="11.00">arp_input_reply</text>
</g>
<!-- arp_input&#45;&gt;arp_input_reply -->
<g id="edge22" class="edge">
<title>arp_input&#45;&gt;arp_input_reply</title>
<path fill="none" stroke="black" d="M1888.83,-27.04C1910.49,-34.97 1942.49,-46.69 1968.38,-56.18"/>
<polygon fill="black" stroke="black" points="1967.38,-59.54 1977.98,-59.69 1969.79,-52.97 1967.38,-59.54"/>
</g>
<!-- ip_input&#45;&gt;ip_output -->
<g id="edge36" class="edge">
<title>ip_input&#45;&gt;ip_output</title>
<path fill="none" stroke="black" d="M317.65,-217.05C334.73,-234.34 365.37,-261.98 397.81,-275 444.79,-293.85 789.34,-320.6 906.06,-329.21"/>
<polygon fill="black" stroke="black" points="906.08,-332.72 916.31,-329.97 906.6,-325.74 906.08,-332.72"/>
</g>
<!-- dnat44 -->
<g id="node23" class="node">
<title>dnat44</title>
<ellipse fill="none" stroke="black" cx="449.37" cy="-248" rx="27" ry="18"/>
<text text-anchor="middle" x="449.37" y="-245.2" font-family="sans" font-size="11.00">dnat44</text>
</g>
<!-- ip_input&#45;&gt;dnat44 -->
<g id="edge38" class="edge">
<title>ip_input&#45;&gt;dnat44</title>
<path fill="none" stroke="black" d="M327.23,-209.49C351.09,-217.08 388.2,-228.87 415.06,-237.41"/>
<polygon fill="black" stroke="black" points="414.22,-240.82 424.81,-240.51 416.34,-234.15 414.22,-240.82"/>
</g>
<!-- ip_forward -->
<g id="node24" class="node">
<title>ip_forward</title>
<ellipse fill="none" stroke="black" cx="578.18" cy="-340" rx="32.63" ry="18"/>
<text text-anchor="middle" x="578.18" y="-337.2" font-family="sans" font-size="11.00">ip_forward</text>
</g>
<!-- ip_input&#45;&gt;ip_forward -->
<g id="edge35" class="edge">
<title>ip_input&#45;&gt;ip_forward</title>
<path fill="none" stroke="black" d="M313.4,-218.76C328.31,-242.74 359.16,-286.35 397.81,-308 440.57,-331.95 497.27,-338.63 535.38,-340.17"/>
<polygon fill="black" stroke="black" points="535.5,-343.68 545.6,-340.48 535.71,-336.68 535.5,-343.68"/>
</g>
<!-- ip_input_local -->
<g id="node25" class="node">
<title>ip_input_local</title>
<ellipse fill="none" stroke="black" cx="578.18" cy="-172" rx="41.49" ry="18"/>
<text text-anchor="middle" x="578.18" y="-169.2" font-family="sans" font-size="11.00">ip_input_local</text>
</g>
<!-- ip_input&#45;&gt;ip_input_local -->
<g id="edge37" class="edge">
<title>ip_input&#45;&gt;ip_input_local</title>
<path fill="none" stroke="black" d="M329.18,-197.79C348.09,-194.77 374.51,-190.77 397.81,-188 441.33,-182.83 490.96,-178.52 526.97,-175.69"/>
<polygon fill="black" stroke="black" points="527.51,-179.15 537.21,-174.89 526.97,-172.18 527.51,-179.15"/>
</g>
<!-- ip6_input&#45;&gt;ip6_output -->
<g id="edge58" class="edge">
<title>ip6_input&#45;&gt;ip6_output</title>
<path fill="none" stroke="black" d="M1364.27,-308.06C1337.7,-320.1 1292.81,-341.5 1256.57,-364 1237.65,-375.75 1217.6,-390.79 1202.3,-402.87"/>
<polygon fill="black" stroke="black" points="1199.95,-400.26 1194.32,-409.23 1204.32,-405.73 1199.95,-400.26"/>
</g>
<!-- ip6_forward -->
<g id="node39" class="node">
<title>ip6_forward</title>
<ellipse fill="none" stroke="black" cx="1488.13" cy="-354" rx="35.64" ry="18"/>
<text text-anchor="middle" x="1488.13" y="-351.2" font-family="sans" font-size="11.00">ip6_forward</text>
</g>
<!-- ip6_input&#45;&gt;ip6_forward -->
<g id="edge57" class="edge">
<title>ip6_input&#45;&gt;ip6_forward</title>
<path fill="none" stroke="black" d="M1409.88,-309.88C1422.92,-317.32 1439.99,-327.07 1454.77,-335.51"/>
<polygon fill="black" stroke="black" points="1453.2,-338.65 1463.62,-340.57 1456.67,-332.57 1453.2,-338.65"/>
</g>
<!-- ip6_input_local -->
<g id="node41" class="node">
<title>ip6_input_local</title>
<ellipse fill="none" stroke="black" cx="1605" cy="-282" rx="45.09" ry="18"/>
<text text-anchor="middle" x="1605" y="-279.2" font-family="sans" font-size="11.00">ip6_input_local</text>
</g>
<!-- ip6_input&#45;&gt;ip6_input_local -->
<g id="edge59" class="edge">
<title>ip6_input&#45;&gt;ip6_input_local</title>
<path fill="none" stroke="black" d="M1416.31,-295.97C1449.91,-293.47 1507.82,-289.16 1550.46,-285.99"/>
<polygon fill="black" stroke="black" points="1550.95,-289.46 1560.67,-285.23 1550.44,-282.48 1550.95,-289.46"/>
</g>
<!-- sr6_local -->
<g id="node42" class="node">
<title>sr6_local</title>
<ellipse fill="none" stroke="black" cx="1488.13" cy="-259" rx="27.86" ry="18"/>
<text text-anchor="middle" x="1488.13" y="-256.2" font-family="sans" font-size="11.00">sr6_local</text>
</g>
<!-- ip6_input&#45;&gt;sr6_local -->
<g id="edge60" class="edge">
<title>ip6_input&#45;&gt;sr6_local</title>
<path fill="none" stroke="black" d="M1408,-285.02C1420.2,-278.95 1436.48,-272.12 1451.09,-266.8"/>
<polygon fill="black" stroke="black" points="1452.59,-269.99 1460.88,-263.39 1450.28,-263.38 1452.59,-269.99"/>
</g>
<!-- port_tx -->
<g id="node17" class="node">
<title>port_tx</title>
<ellipse fill="none" stroke="black" cx="1388.09" cy="-636" rx="27" ry="18"/>
<text text-anchor="middle" x="1388.09" y="-633.2" font-family="sans" font-size="11.00">port_tx</text>
</g>
<!-- eth_output&#45;&gt;port_tx -->
<g id="edge14" class="edge">
<title>eth_output&#45;&gt;port_tx</title>
<path fill="none" stroke="black" d="M1318.7,-611.74C1329.74,-615.66 1342.56,-620.21 1354.1,-624.3"/>
<polygon fill="black" stroke="black" points="1353.24,-627.71 1363.83,-627.75 1355.58,-621.11 1353.24,-627.71"/>
</g>
<!-- l1_xconnect -->
<g id="node18" class="node">
<title>l1_xconnect</title>
<ellipse fill="none" stroke="black" cx="302.66" cy="-416" rx="36.23" ry="18"/>
<text text-anchor="middle" x="302.66" y="-413.2" font-family="sans" font-size="11.00">l1_xconnect</text>
</g>
<!-- l1_xconnect&#45;&gt;port_tx -->
<g id="edge15" class="edge">
<title>l1_xconnect&#45;&gt;port_tx</title>
<path fill="none" stroke="black" d="M339.17,-415.79C378.85,-416.07 444.87,-418.04 500.93,-427 844.21,-481.86 913.24,-574.51 1256.57,-629 1288.09,-634 1324.37,-635.62 1350.66,-636.06"/>
<polygon fill="black" stroke="black" points="1350.88,-639.57 1360.92,-636.19 1350.97,-632.57 1350.88,-639.57"/>
</g>
<!-- loopback_output&#45;&gt;control_output -->
<g id="edge18" class="edge">
<title>loopback_output&#45;&gt;control_output</title>
<path fill="none" stroke="black" d="M2040.24,-236.2C2060.94,-248 2089.82,-264.46 2112.3,-277.28"/>
<polygon fill="black" stroke="black" points="2110.77,-280.43 2121.19,-282.35 2114.24,-274.35 2110.77,-280.43"/>
</g>
<!-- port_rx -->
<g id="node20" class="node">
<title>port_rx</title>
<ellipse fill="none" stroke="blue" stroke-width="2" cx="40.16" cy="-233" rx="27" ry="18"/>
<text text-anchor="middle" x="40.16" y="-230.2" font-family="sans" font-size="11.00">port_rx</text>
</g>
<!-- port_rx&#45;&gt;eth_input -->
<g id="edge19" class="edge">
<title>port_rx&#45;&gt;eth_input</title>
<path fill="none" stroke="blue" stroke-width="2" d="M57.31,-218.57C77.85,-200.22 113.46,-168.39 137.11,-147.26"/>
<polygon fill="blue" stroke="blue" stroke-width="2" points="139.51,-149.82 144.63,-140.54 134.85,-144.6 139.51,-149.82"/>
</g>
<!-- port_rx&#45;&gt;l1_xconnect -->
<g id="edge20" class="edge">
<title>port_rx&#45;&gt;l1_xconnect</title>
<path fill="none" stroke="blue" stroke-width="2" d="M43.56,-250.97C49.23,-285.68 66.93,-361.62 116.32,-397 157.44,-426.46 217.49,-427.01 257.99,-422.99"/>
<polygon fill="blue" stroke="blue" stroke-width="2" points="258.55,-426.45 268.1,-421.85 257.77,-419.49 258.55,-426.45"/>
</g>
<!-- arp_input_request&#45;&gt;control_output -->
<g id="edge24" class="edge">
<title>arp_input_request&#45;&gt;control_output</title>
<path fill="none" stroke="black" d="M2050.01,-31.23C2056.48,-34.89 2062.65,-39.43 2067.4,-45 2123.94,-111.37 2140.35,-218.08 2145.05,-268.66"/>
<polygon fill="black" stroke="black" points="2141.58,-269.18 2145.9,-278.85 2148.55,-268.59 2141.58,-269.18"/>
</g>
<!-- arp_input_reply&#45;&gt;control_output -->
<g id="edge23" class="edge">
<title>arp_input_reply&#45;&gt;control_output</title>
<path fill="none" stroke="black" d="M2044.05,-85.58C2052.45,-90.44 2061,-96.6 2067.4,-104 2110.02,-153.34 2132,-228.66 2141.3,-269.07"/>
<polygon fill="black" stroke="black" points="2137.92,-270.01 2143.5,-279.02 2144.76,-268.5 2137.92,-270.01"/>
</g>
<!-- dnat44&#45;&gt;ip_forward -->
<g id="edge27" class="edge">
<title>dnat44&#45;&gt;ip_forward</title>
<path fill="none" stroke="black" d="M468.27,-260.99C489.4,-276.32 524.78,-301.99 549.46,-319.89"/>
<polygon fill="black" stroke="black" points="547.56,-322.83 557.7,-325.87 551.67,-317.17 547.56,-322.83"/>
</g>
<!-- dnat44&#45;&gt;ip_input_local -->
<g id="edge28" class="edge">
<title>dnat44&#45;&gt;ip_input_local</title>
<path fill="none" stroke="black" d="M469.91,-236.29C489.74,-224.4 520.81,-205.78 544.42,-191.63"/>
<polygon fill="black" stroke="black" points="546.29,-194.59 553.07,-186.45 542.69,-188.59 546.29,-194.59"/>
</g>
<!-- ip_forward&#45;&gt;ip_output -->
<g id="edge33" class="edge">
<title>ip_forward&#45;&gt;ip_output</title>
<path fill="none" stroke="black" d="M610.97,-339.3C677.99,-337.84 833.59,-334.43 906.11,-332.84"/>
<polygon fill="black" stroke="black" points="906.27,-336.34 916.19,-332.62 906.11,-329.34 906.27,-336.34"/>
</g>
<!-- icmp_input -->
<g id="node26" class="node">
<title>icmp_input</title>
<ellipse fill="none" stroke="black" cx="689.07" cy="-210" rx="33.8" ry="18"/>
<text text-anchor="middle" x="689.07" y="-207.2" font-family="sans" font-size="11.00">icmp_input</text>
</g>
<!-- ip_input_local&#45;&gt;icmp_input -->
<g id="edge39" class="edge">
<title>ip_input_local&#45;&gt;icmp_input</title>
<path fill="none" stroke="black" d="M610.97,-183.09C623.47,-187.46 637.92,-192.5 650.9,-197.03"/>
<polygon fill="black" stroke="black" points="649.9,-200.39 660.49,-200.38 652.2,-193.78 649.9,-200.39"/>
</g>
<!-- ipip_input -->
<g id="node29" class="node">
<title>ipip_input</title>
<ellipse fill="none" stroke="black" cx="689.07" cy="-264" rx="29.7" ry="18"/>
<text text-anchor="middle" x="689.07" y="-261.2" font-family="sans" font-size="11.00">ipip_input</text>
</g>
<!-- ip_input_local&#45;&gt;ipip_input -->
<g id="edge40" class="edge">
<title>ip_input_local&#45;&gt;ipip_input</title>
<path fill="none" stroke="black" d="M599.46,-187.68C605.92,-192.79 613.04,-198.55 619.42,-204 635.93,-218.1 639.05,-222.75 655.42,-237 657.66,-238.95 660,-240.95 662.36,-242.94"/>
<polygon fill="black" stroke="black" points="660.39,-245.86 670.31,-249.59 664.88,-240.49 660.39,-245.86"/>
</g>
<!-- l4_input_local -->
<g id="node30" class="node">
<title>l4_input_local</title>
<ellipse fill="none" stroke="black" cx="1727.29" cy="-164" rx="41.49" ry="18"/>
<text text-anchor="middle" x="1727.29" y="-161.2" font-family="sans" font-size="11.00">l4_input_local</text>
</g>
<!-- ip_input_local&#45;&gt;l4_input_local -->
<g id="edge41" class="edge">
<title>ip_input_local&#45;&gt;l4_input_local</title>
<path fill="none" stroke="black" d="M616.66,-165.51C682.7,-154.66 824.21,-134 944.6,-134 944.6,-134 944.6,-134 1291.22,-134 1431.25,-134 1596.03,-149.66 1676.71,-158.35"/>
<polygon fill="black" stroke="black" points="1676.74,-161.87 1687.06,-159.48 1677.5,-154.91 1676.74,-161.87"/>
</g>
<!-- icmp_input&#45;&gt;control_output -->
<g id="edge30" class="edge">
<title>icmp_input&#45;&gt;control_output</title>
<path fill="none" stroke="black" d="M722.03,-205.75C799.49,-195.84 1003.48,-172 1174.53,-172 1174.53,-172 1174.53,-172 1291.22,-172 1432.29,-172 1462.93,-118 1604,-118 1604,-118 1604,-118 1864.15,-118 1903.5,-118 2019.91,-158.41 2067.4,-194 2095.04,-214.72 2118.03,-247.44 2132.06,-270.43"/>
<polygon fill="black" stroke="black" points="2129.22,-272.51 2137.33,-279.32 2135.24,-268.94 2129.22,-272.51"/>
</g>
<!-- icmp_input&#45;&gt;icmp_output -->
<g id="edge29" class="edge">
<title>icmp_input&#45;&gt;icmp_output</title>
<path fill="none" stroke="black" d="M715.4,-221.32C732.45,-228.94 755.21,-239.11 774.23,-247.61"/>
<polygon fill="black" stroke="black" points="772.95,-250.87 783.51,-251.76 775.8,-244.48 772.95,-250.87"/>
</g>
<!-- icmp_output&#45;&gt;ip_output -->
<g id="edge32" class="edge">
<title>icmp_output&#45;&gt;ip_output</title>
<path fill="none" stroke="black" d="M838.3,-277.11C859.71,-288.17 890.45,-304.04 913.37,-315.87"/>
<polygon fill="black" stroke="black" points="911.86,-319.03 922.35,-320.51 915.07,-312.81 911.86,-319.03"/>
</g>
<!-- ip_hold&#45;&gt;control_output -->
<g id="edge34" class="edge">
<title>ip_hold&#45;&gt;control_output</title>
<path fill="none" stroke="black" d="M1631.74,-557.42C1707.42,-566.01 1932.31,-580.87 2067.4,-476 2115.72,-438.48 2135.39,-365.28 2142.81,-325.09"/>
<polygon fill="black" stroke="black" points="2146.27,-325.6 2144.52,-315.15 2139.38,-324.42 2146.27,-325.6"/>
</g>
<!-- ipip_input&#45;&gt;ip_input -->
<g id="edge73" class="edge">
<title>ipip_input&#45;&gt;ip_input</title>
<path fill="none" stroke="black" d="M661.63,-256.78C625.58,-247.2 558.84,-230.4 500.93,-221 444.97,-211.92 379.32,-206.65 339.64,-204.06"/>
<polygon fill="black" stroke="black" points="339.85,-200.56 329.64,-203.42 339.4,-207.55 339.85,-200.56"/>
</g>
<!-- l4_loopback_output -->
<g id="node43" class="node">
<title>l4_loopback_output</title>
<ellipse fill="none" stroke="black" cx="1863.15" cy="-164" rx="58.73" ry="18"/>
<text text-anchor="middle" x="1863.15" y="-161.2" font-family="sans" font-size="11.00">l4_loopback_output</text>
</g>
<!-- l4_input_local&#45;&gt;l4_loopback_output -->
<g id="edge75" class="edge">
<title>l4_input_local&#45;&gt;l4_loopback_output</title>
<path fill="none" stroke="black" d="M1768.82,-164C1776.89,-164 1785.58,-164 1794.29,-164"/>
<polygon fill="black" stroke="black" points="1794.48,-167.5 1804.48,-164 1794.48,-160.5 1794.48,-167.5"/>
</g>
<!-- ipip_output&#45;&gt;ip_output -->
<g id="edge74" class="edge">
<title>ipip_output&#45;&gt;ip_output</title>
<path fill="none" stroke="black" d="M1027.72,-338.13C1014.01,-338.86 997.86,-338.94 983.59,-338.38"/>
<polygon fill="black" stroke="black" points="983.76,-334.89 973.59,-337.86 983.39,-341.88 983.76,-334.89"/>
</g>
<!-- sr6_output&#45;&gt;ip6_output -->
<g id="edge80" class="edge">
<title>sr6_output&#45;&gt;ip6_output</title>
<path fill="none" stroke="black" d="M1091.64,-417.94C1104.69,-417.2 1120.13,-417.06 1134.13,-417.5"/>
<polygon fill="black" stroke="black" points="1134.35,-421.02 1144.49,-417.96 1134.66,-414.02 1134.35,-421.02"/>
</g>
<!-- vrf_output&#45;&gt;ip_input -->
<g id="edge81" class="edge">
<title>vrf_output&#45;&gt;ip_input</title>
<path fill="none" stroke="black" d="M1262.34,-247.12C1165.08,-216.03 822.23,-115.58 536.93,-145 464.21,-152.5 381.67,-176.47 336.88,-190.82"/>
<polygon fill="black" stroke="black" points="335.55,-187.57 327.12,-193.99 337.71,-194.23 335.55,-187.57"/>
</g>
<!-- vrf_output&#45;&gt;ip6_input -->
<g id="edge82" class="edge">
<title>vrf_output&#45;&gt;ip6_input</title>
<path fill="none" stroke="black" d="M1315.91,-266.82C1327.85,-272.05 1342.32,-278.39 1355.09,-283.98"/>
<polygon fill="black" stroke="black" points="1353.89,-287.28 1364.46,-288.08 1356.7,-280.87 1353.89,-287.28"/>
</g>
<!-- icmp6_input -->
<g id="node34" class="node">
<title>icmp6_input</title>
<ellipse fill="none" stroke="black" cx="1727.29" cy="-355" rx="37.4" ry="18"/>
<text text-anchor="middle" x="1727.29" y="-352.2" font-family="sans" font-size="11.00">icmp6_input</text>
</g>
<!-- icmp6_input&#45;&gt;control_output -->
<g id="edge52" class="edge">
<title>icmp6_input&#45;&gt;control_output</title>
<path fill="none" stroke="black" d="M1745.91,-339.29C1760.48,-327.38 1782.32,-311.92 1804.54,-305 1904.02,-274.02 2027.74,-281.71 2095.9,-289.64"/>
<polygon fill="black" stroke="black" points="2095.59,-293.13 2105.94,-290.86 2096.44,-286.18 2095.59,-293.13"/>
</g>
<!-- icmp6_input&#45;&gt;icmp6_output -->
<g id="edge48" class="edge">
<title>icmp6_input&#45;&gt;icmp6_output</title>
<path fill="none" stroke="black" d="M1734.93,-372.9C1756.65,-431.48 1825.72,-617.74 1851.93,-688.43"/>
<polygon fill="black" stroke="black" points="1848.72,-689.83 1855.47,-697.99 1855.28,-687.4 1848.72,-689.83"/>
</g>
<!-- ndp_ns_input -->
<g id="node36" class="node">
<title>ndp_ns_input</title>
<ellipse fill="none" stroke="black" cx="2012.58" cy="-416" rx="40.32" ry="18"/>
<text text-anchor="middle" x="2012.58" y="-413.2" font-family="sans" font-size="11.00">ndp_ns_input</text>
</g>
<!-- icmp6_input&#45;&gt;ndp_ns_input -->
<g id="edge49" class="edge">
<title>icmp6_input&#45;&gt;ndp_ns_input</title>
<path fill="none" stroke="black" d="M1760.49,-363.36C1774.06,-366.79 1790.03,-370.72 1804.54,-374 1859.57,-386.43 1923.21,-399.09 1965.26,-407.21"/>
<polygon fill="black" stroke="black" points="1964.72,-410.67 1975.2,-409.12 1966.04,-403.8 1964.72,-410.67"/>
</g>
<!-- ndp_na_input -->
<g id="node37" class="node">
<title>ndp_na_input</title>
<ellipse fill="none" stroke="black" cx="2012.58" cy="-362" rx="40.91" ry="18"/>
<text text-anchor="middle" x="2012.58" y="-359.2" font-family="sans" font-size="11.00">ndp_na_input</text>
</g>
<!-- icmp6_input&#45;&gt;ndp_na_input -->
<g id="edge50" class="edge">
<title>icmp6_input&#45;&gt;ndp_na_input</title>
<path fill="none" stroke="black" d="M1764.74,-357.19C1777.34,-357.88 1791.56,-358.57 1804.54,-359 1858.03,-360.79 1919.33,-361.51 1961.26,-361.8"/>
<polygon fill="black" stroke="black" points="1961.47,-365.31 1971.49,-361.87 1961.51,-358.31 1961.47,-365.31"/>
</g>
<!-- ndp_rs_input -->
<g id="node38" class="node">
<title>ndp_rs_input</title>
<ellipse fill="none" stroke="black" cx="1863.15" cy="-332" rx="39.15" ry="18"/>
<text text-anchor="middle" x="1863.15" y="-329.2" font-family="sans" font-size="11.00">ndp_rs_input</text>
</g>
<!-- icmp6_input&#45;&gt;ndp_rs_input -->
<g id="edge51" class="edge">
<title>icmp6_input&#45;&gt;ndp_rs_input</title>
<path fill="none" stroke="black" d="M1762.76,-349.08C1779.08,-346.27 1798.8,-342.89 1816.35,-339.87"/>
<polygon fill="black" stroke="black" points="1817.13,-343.29 1826.4,-338.14 1815.95,-336.39 1817.13,-343.29"/>
</g>
<!-- icmp6_output&#45;&gt;ip6_output -->
<g id="edge53" class="edge">
<title>icmp6_output&#45;&gt;ip6_output</title>
<path fill="none" stroke="black" d="M1849.28,-698.92C1819.26,-660.52 1740.23,-567.57 1650.05,-527 1584.37,-497.46 1561.15,-508 1489.13,-508 1387.09,-508 1387.09,-508 1387.09,-508 1317.86,-508 1244.36,-468.34 1205.14,-443.53"/>
<polygon fill="black" stroke="black" points="1206.69,-440.36 1196.39,-437.87 1202.89,-446.24 1206.69,-440.36"/>
</g>
<!-- ndp_ns_input&#45;&gt;control_output -->
<g id="edge70" class="edge">
<title>ndp_ns_input&#45;&gt;control_output</title>
<path fill="none" stroke="black" d="M2042.76,-403.96C2051.12,-399.83 2059.97,-394.78 2067.4,-389 2091.77,-370.02 2114.26,-342.68 2129.05,-322.73"/>
<polygon fill="black" stroke="black" points="2132.05,-324.56 2135.09,-314.42 2126.38,-320.45 2132.05,-324.56"/>
</g>
<!-- ndp_na_input&#45;&gt;control_output -->
<g id="edge68" class="edge">
<title>ndp_na_input&#45;&gt;control_output</title>
<path fill="none" stroke="black" d="M2040.56,-348.85C2060.4,-339.17 2087.61,-325.91 2109.54,-315.21"/>
<polygon fill="black" stroke="black" points="2111.12,-318.34 2118.58,-310.81 2108.06,-312.04 2111.12,-318.34"/>
</g>
<!-- ndp_rs_input&#45;&gt;control_output -->
<g id="edge72" class="edge">
<title>ndp_rs_input&#45;&gt;control_output</title>
<path fill="none" stroke="black" d="M1901.12,-327.42C1950.58,-321.3 2038.57,-310.41 2094.76,-303.45"/>
<polygon fill="black" stroke="black" points="2095.37,-306.91 2104.86,-302.2 2094.51,-299.96 2095.37,-306.91"/>
</g>
<!-- ip6_forward&#45;&gt;ip6_output -->
<g id="edge55" class="edge">
<title>ip6_forward&#45;&gt;ip6_output</title>
<path fill="none" stroke="black" d="M1454.15,-360.19C1409.27,-368.76 1326.53,-385.12 1256.57,-402 1242.73,-405.34 1227.65,-409.38 1214.35,-413.08"/>
<polygon fill="black" stroke="black" points="1213.25,-409.75 1204.57,-415.83 1215.14,-416.49 1213.25,-409.75"/>
</g>
<!-- ip6_hold&#45;&gt;control_output -->
<g id="edge56" class="edge">
<title>ip6_hold&#45;&gt;control_output</title>
<path fill="none" stroke="black" d="M1415.23,-462C1455.68,-462 1535.91,-462 1604,-462 1604,-462 1604,-462 1864.15,-462 1954.88,-462 1991.64,-492.92 2067.4,-443 2108.89,-415.65 2130.53,-359.04 2140.26,-324.91"/>
<polygon fill="black" stroke="black" points="2143.68,-325.66 2142.9,-315.09 2136.92,-323.84 2143.68,-325.66"/>
</g>
<!-- ip6_input_local&#45;&gt;l4_input_local -->
<g id="edge62" class="edge">
<title>ip6_input_local&#45;&gt;l4_input_local</title>
<path fill="none" stroke="black" d="M1622.98,-265.34C1643.67,-245.05 1678.75,-210.63 1702.22,-187.61"/>
<polygon fill="black" stroke="black" points="1704.71,-190.07 1709.4,-180.57 1699.81,-185.08 1704.71,-190.07"/>
</g>
<!-- ip6_input_local&#45;&gt;icmp6_input -->
<g id="edge61" class="edge">
<title>ip6_input_local&#45;&gt;icmp6_input</title>
<path fill="none" stroke="black" d="M1630.63,-296.95C1649.11,-308.16 1674.56,-323.6 1694.56,-335.74"/>
<polygon fill="black" stroke="black" points="1692.96,-338.86 1703.32,-341.06 1696.59,-332.88 1692.96,-338.86"/>
</g>
<!-- sr6_local&#45;&gt;ip_input -->
<g id="edge77" class="edge">
<title>sr6_local&#45;&gt;ip_input</title>
<path fill="none" stroke="black" d="M1465.28,-248.25C1406.88,-220.22 1241.66,-145.28 1094.48,-120 850.14,-78.03 784.54,-124.69 536.93,-137 475.05,-140.08 456.99,-127.66 397.81,-146 372.68,-153.79 347.21,-169.52 329.11,-182.33"/>
<polygon fill="black" stroke="black" points="326.88,-179.62 320.85,-188.33 330.99,-185.28 326.88,-179.62"/>
</g>
<!-- sr6_local&#45;&gt;ip6_input -->
<g id="edge78" class="edge">
<title>sr6_local&#45;&gt;ip6_input</title>
<path fill="none" stroke="black" d="M1468.35,-271.92C1456.2,-277.96 1439.99,-284.78 1425.4,-290.1"/>
<polygon fill="black" stroke="black" points="1423.91,-286.92 1415.62,-293.52 1426.22,-293.52 1423.91,-286.92"/>
</g>
<!-- sr6_local&#45;&gt;ip6_input_local -->
<g id="edge79" class="edge">
<title>sr6_local&#45;&gt;ip6_input_local</title>
<path fill="none" stroke="black" d="M1514.91,-264.16C1526.51,-266.48 1540.61,-269.31 1554.14,-272.02"/>
<polygon fill="black" stroke="black" points="1553.83,-275.52 1564.32,-274.06 1555.2,-268.66 1553.83,-275.52"/>
</g>
<!-- l4_loopback_output&#45;&gt;loopback_output -->
<g id="edge76" class="edge">
<title>l4_loopback_output&#45;&gt;loopback_output</title>
<path fill="none" stroke="black" d="M1900.6,-178.09C1921,-185.98 1946.59,-195.87 1968.04,-204.17"/>
<polygon fill="black" stroke="black" points="1966.99,-207.51 1977.58,-207.85 1969.51,-200.98 1966.99,-207.51"/>
</g>
</g>
</svg>
