<?xml version="1.0" encoding="UTF-8" standalone="no"?>
<!DOCTYPE svg PUBLIC "-//W3C//DTD SVG 1.1//EN"
 "http://www.w3.org/Graphics/SVG/1.1/DTD/svg11.dtd">
<!-- Generated by graphviz version 13.1.2 (20250808.2320)
 -->
<!-- Pages: 1 -->
<svg width="2270pt" height="868pt"
 viewBox="0.00 0.00 2270.00 868.00" xmlns="http://www.w3.org/2000/svg" xmlns:xlink="http://www.w3.org/1999/xlink">
<g id="graph0" class="graph" transform="scale(1 1) rotate(0) translate(4 864)">
<polygon fill="white" stroke="none" points="-4,4 -4,-864 2265.96,-864 2265.96,4 -4,4"/>
<!-- bond_output -->
<g id="node1" class="node">
<title>bond_output</title>
<ellipse fill="none" stroke="black" cx="2021.2" cy="-81" rx="39.94" ry="18"/>
<text xml:space="preserve" text-anchor="middle" x="2021.2" y="-77.3" font-family="sans" font-size="11.00">bond_output</text>
</g>
<!-- port_output -->
<g id="node3" class="node">
<title>port_output</title>
<ellipse fill="none" stroke="black" cx="2134.55" cy="-81" rx="37.41" ry="18"/>
<text xml:space="preserve" text-anchor="middle" x="2134.55" y="-77.3" font-family="sans" font-size="11.00">port_output</text>
</g>
<!-- bond_output&#45;&gt;port_output -->
<g id="edge1" class="edge">
<title>bond_output&#45;&gt;port_output</title>
<path fill="none" stroke="black" d="M2061.46,-81C2069.2,-81 2077.4,-81 2085.4,-81"/>
<polygon fill="black" stroke="black" points="2085.37,-84.5 2095.37,-81 2085.37,-77.5 2085.37,-84.5"/>
</g>
<!-- l1_xconnect -->
<g id="node2" class="node">
<title>l1_xconnect</title>
<ellipse fill="none" stroke="black" cx="905.82" cy="-58" rx="38.25" ry="18"/>
<text xml:space="preserve" text-anchor="middle" x="905.82" y="-54.3" font-family="sans" font-size="11.00">l1_xconnect</text>
</g>
<!-- l1_xconnect&#45;&gt;port_output -->
<g id="edge9" class="edge">
<title>l1_xconnect&#45;&gt;port_output</title>
<path fill="none" stroke="black" d="M934.3,-45.56C974.51,-28.52 1052.14,0 1121.42,0 1121.42,0 1121.42,0 1911.37,0 1982.49,0 2059.08,-37.08 2101.19,-61.07"/>
<polygon fill="black" stroke="black" points="2099.16,-63.94 2109.57,-65.94 2102.68,-57.89 2099.16,-63.94"/>
</g>
<!-- port_tx -->
<g id="node5" class="node">
<title>port_tx</title>
<ellipse fill="none" stroke="black" cx="2234.96" cy="-81" rx="27" ry="18"/>
<text xml:space="preserve" text-anchor="middle" x="2234.96" y="-77.3" font-family="sans" font-size="11.00">port_tx</text>
</g>
<!-- port_output&#45;&gt;port_tx -->
<g id="edge15" class="edge">
<title>port_output&#45;&gt;port_tx</title>
<path fill="none" stroke="black" d="M2172.19,-81C2180.12,-81 2188.52,-81 2196.48,-81"/>
<polygon fill="black" stroke="black" points="2196.22,-84.5 2206.22,-81 2196.22,-77.5 2196.22,-84.5"/>
</g>
<!-- port_rx -->
<g id="node4" class="node">
<title>port_rx</title>
<ellipse fill="none" stroke="blue" stroke-width="2" cx="27" cy="-394" rx="27" ry="18"/>
<text xml:space="preserve" text-anchor="middle" x="27" y="-390.3" font-family="sans" font-size="11.00">port_rx</text>
</g>
<!-- port_rx&#45;&gt;l1_xconnect -->
<g id="edge17" class="edge">
<title>port_rx&#45;&gt;l1_xconnect</title>
<path fill="none" stroke="blue" stroke-width="2" d="M32.1,-375.95C48.08,-310.72 112.56,-91 256.1,-91 256.1,-91 256.1,-91 650.92,-91 724.33,-91 808.68,-77.27 859.31,-67.52"/>
<polygon fill="blue" stroke="blue" stroke-width="2" points="858.4,-71.27 867.54,-65.91 857.05,-64.4 858.4,-71.27"/>
</g>
<!-- eth_input -->
<g id="node6" class="node">
<title>eth_input</title>
<ellipse fill="none" stroke="black" cx="138.07" cy="-721" rx="30.25" ry="18"/>
<text xml:space="preserve" text-anchor="middle" x="138.07" y="-717.3" font-family="sans" font-size="11.00">eth_input</text>
</g>
<!-- port_rx&#45;&gt;eth_input -->
<g id="edge16" class="edge">
<title>port_rx&#45;&gt;eth_input</title>
<path fill="none" stroke="blue" stroke-width="2" d="M33.86,-411.58C51.73,-465.14 105.6,-626.65 127.58,-692.54"/>
<polygon fill="blue" stroke="blue" stroke-width="2" points="123.74,-692.08 130.22,-700.46 130.38,-689.87 123.74,-692.08"/>
</g>
<!-- lacp_input -->
<g id="node9" class="node">
<title>lacp_input</title>
<polygon fill="none" stroke="dodgerblue" points="292.05,-762 222.15,-762 222.15,-726 292.05,-726 292.05,-762"/>
<text xml:space="preserve" text-anchor="middle" x="257.1" y="-740.3" font-family="sans" font-size="11.00">lacp_input</text>
</g>
<!-- eth_input&#45;&gt;lacp_input -->
<g id="edge3" class="edge">
<title>eth_input&#45;&gt;lacp_input</title>
<path fill="none" stroke="black" d="M167.11,-726.51C180.25,-729.09 196.25,-732.24 211.03,-735.14"/>
<polygon fill="black" stroke="black" points="210.07,-738.52 220.55,-737.01 211.42,-731.65 210.07,-738.52"/>
</g>
<!-- snap_input -->
<g id="node11" class="node">
<title>snap_input</title>
<ellipse fill="none" stroke="black" cx="1122.42" cy="-842" rx="34.89" ry="18"/>
<text xml:space="preserve" text-anchor="middle" x="1122.42" y="-838.3" font-family="sans" font-size="11.00">snap_input</text>
</g>
<!-- eth_input&#45;&gt;snap_input -->
<g id="edge2" class="edge">
<title>eth_input&#45;&gt;snap_input</title>
<path fill="none" stroke="black" d="M147.5,-738.52C160.07,-762.55 186.19,-805.03 222.15,-825 285.22,-860.04 311.22,-844 383.37,-844 383.37,-844 383.37,-844 906.82,-844 965.18,-844 1032.47,-843.25 1075.9,-842.67"/>
<polygon fill="black" stroke="black" points="1075.76,-846.17 1085.71,-842.54 1075.66,-839.17 1075.76,-846.17"/>
</g>
<!-- arp_input -->
<g id="node12" class="node">
<title>arp_input</title>
<ellipse fill="none" stroke="black" cx="257.1" cy="-798" rx="30.25" ry="18"/>
<text xml:space="preserve" text-anchor="middle" x="257.1" y="-794.3" font-family="sans" font-size="11.00">arp_input</text>
</g>
<!-- eth_input&#45;&gt;arp_input -->
<g id="edge4" class="edge">
<title>eth_input&#45;&gt;arp_input</title>
<path fill="none" stroke="black" d="M159.19,-734.24C177.7,-746.41 205.37,-764.62 226.42,-778.47"/>
<polygon fill="black" stroke="black" points="224.31,-781.27 234.59,-783.85 228.16,-775.43 224.31,-781.27"/>
</g>
<!-- ip_input -->
<g id="node24" class="node">
<title>ip_input</title>
<ellipse fill="none" stroke="black" cx="257.1" cy="-453" rx="27" ry="18"/>
<text xml:space="preserve" text-anchor="middle" x="257.1" y="-449.3" font-family="sans" font-size="11.00">ip_input</text>
</g>
<!-- eth_input&#45;&gt;ip_input -->
<g id="edge5" class="edge">
<title>eth_input&#45;&gt;ip_input</title>
<path fill="none" stroke="black" d="M146.75,-703.42C166.64,-657.88 219.94,-535.82 244.01,-480.69"/>
<polygon fill="black" stroke="black" points="247.15,-482.25 247.94,-471.69 240.73,-479.45 247.15,-482.25"/>
</g>
<!-- ip6_input -->
<g id="node30" class="node">
<title>ip6_input</title>
<ellipse fill="none" stroke="black" cx="1122.42" cy="-541" rx="29.41" ry="18"/>
<text xml:space="preserve" text-anchor="middle" x="1122.42" y="-537.3" font-family="sans" font-size="11.00">ip6_input</text>
</g>
<!-- eth_input&#45;&gt;ip6_input -->
<g id="edge6" class="edge">
<title>eth_input&#45;&gt;ip6_input</title>
<path fill="none" stroke="black" d="M167.58,-716.57C213.08,-709.88 304.99,-698 383.37,-698 383.37,-698 383.37,-698 520.59,-698 743.36,-698 997.95,-595.71 1087.86,-556.26"/>
<polygon fill="black" stroke="black" points="1089.12,-559.53 1096.85,-552.28 1086.29,-553.13 1089.12,-559.53"/>
</g>
<!-- eth_output -->
<g id="node7" class="node">
<title>eth_output</title>
<ellipse fill="none" stroke="black" cx="1910.37" cy="-127" rx="34.89" ry="18"/>
<text xml:space="preserve" text-anchor="middle" x="1910.37" y="-123.3" font-family="sans" font-size="11.00">eth_output</text>
</g>
<!-- eth_output&#45;&gt;bond_output -->
<g id="edge7" class="edge">
<title>eth_output&#45;&gt;bond_output</title>
<path fill="none" stroke="black" d="M1938.27,-115.63C1951.11,-110.2 1966.73,-103.6 1980.87,-97.63"/>
<polygon fill="black" stroke="black" points="1982.08,-100.91 1989.93,-93.8 1979.35,-94.47 1982.08,-100.91"/>
</g>
<!-- eth_output&#45;&gt;port_output -->
<g id="edge8" class="edge">
<title>eth_output&#45;&gt;port_output</title>
<path fill="none" stroke="black" d="M1945.39,-124.93C1976.01,-122.54 2022.07,-117.62 2061.14,-108 2072.47,-105.21 2084.46,-101.2 2095.36,-97.11"/>
<polygon fill="black" stroke="black" points="2096.36,-100.48 2104.41,-93.6 2093.82,-93.96 2096.36,-100.48"/>
</g>
<!-- l2_redirect -->
<g id="node8" class="node">
<title>l2_redirect</title>
<polygon fill="none" stroke="dodgerblue" points="1658.09,-854 1585.94,-854 1585.94,-818 1658.09,-818 1658.09,-854"/>
<text xml:space="preserve" text-anchor="middle" x="1622.01" y="-832.3" font-family="sans" font-size="11.00">l2_redirect</text>
</g>
<!-- lacp_output -->
<g id="node10" class="node">
<title>lacp_output</title>
<polygon fill="none" stroke="dodgerblue" points="1818.11,-118 1739.96,-118 1739.96,-82 1818.11,-82 1818.11,-118"/>
<text xml:space="preserve" text-anchor="middle" x="1779.04" y="-96.3" font-family="sans" font-size="11.00">lacp_output</text>
</g>
<!-- lacp_output&#45;&gt;eth_output -->
<g id="edge10" class="edge">
<title>lacp_output&#45;&gt;eth_output</title>
<path fill="none" stroke="dodgerblue" d="M1818.49,-108.03C1833.59,-111.18 1850.99,-114.81 1866.49,-118.05"/>
<polygon fill="dodgerblue" stroke="dodgerblue" points="1865.4,-121.4 1875.9,-120.01 1866.83,-114.54 1865.4,-121.4"/>
</g>
<!-- snap_input&#45;&gt;l2_redirect -->
<g id="edge18" class="edge">
<title>snap_input&#45;&gt;l2_redirect</title>
<path fill="none" stroke="black" d="M1157.62,-841.59C1244.65,-840.54 1474.67,-837.76 1574.12,-836.57"/>
<polygon fill="black" stroke="black" points="1574.11,-840.07 1584.06,-836.45 1574.02,-833.07 1574.11,-840.07"/>
</g>
<!-- arp_input_reply -->
<g id="node13" class="node">
<title>arp_input_reply</title>
<polygon fill="none" stroke="dodgerblue" points="433.57,-816 335.17,-816 335.17,-780 433.57,-780 433.57,-816"/>
<text xml:space="preserve" text-anchor="middle" x="384.37" y="-794.3" font-family="sans" font-size="11.00">arp_input_reply</text>
</g>
<!-- arp_input&#45;&gt;arp_input_reply -->
<g id="edge20" class="edge">
<title>arp_input&#45;&gt;arp_input_reply</title>
<path fill="none" stroke="black" d="M287.79,-798C298.54,-798 311.09,-798 323.5,-798"/>
<polygon fill="black" stroke="black" points="323.29,-801.5 333.29,-798 323.29,-794.5 323.29,-801.5"/>
</g>
<!-- arp_input_request -->
<g id="node14" class="node">
<title>arp_input_request</title>
<polygon fill="none" stroke="dodgerblue" points="440.7,-762 328.05,-762 328.05,-726 440.7,-726 440.7,-762"/>
<text xml:space="preserve" text-anchor="middle" x="384.37" y="-740.3" font-family="sans" font-size="11.00">arp_input_request</text>
</g>
<!-- arp_input&#45;&gt;arp_input_request -->
<g id="edge19" class="edge">
<title>arp_input&#45;&gt;arp_input_request</title>
<path fill="none" stroke="black" d="M282.25,-787.59C295.91,-781.7 313.56,-774.09 330.28,-766.89"/>
<polygon fill="black" stroke="black" points="331.34,-770.24 339.14,-763.07 328.57,-763.81 331.34,-770.24"/>
</g>
<!-- arp_output_reply -->
<g id="node15" class="node">
<title>arp_output_reply</title>
<polygon fill="none" stroke="dodgerblue" points="1832.36,-64 1725.71,-64 1725.71,-28 1832.36,-28 1832.36,-64"/>
<text xml:space="preserve" text-anchor="middle" x="1779.04" y="-42.3" font-family="sans" font-size="11.00">arp_output_reply</text>
</g>
<!-- arp_output_reply&#45;&gt;eth_output -->
<g id="edge21" class="edge">
<title>arp_output_reply&#45;&gt;eth_output</title>
<path fill="none" stroke="dodgerblue" d="M1823.82,-64.47C1829.2,-67.15 1834.54,-70.02 1839.49,-73 1854.71,-82.17 1870.47,-94.1 1883.16,-104.41"/>
<polygon fill="dodgerblue" stroke="dodgerblue" points="1880.71,-106.93 1890.64,-110.61 1885.17,-101.54 1880.71,-106.93"/>
</g>
<!-- arp_output_request -->
<g id="node16" class="node">
<title>arp_output_request</title>
<polygon fill="none" stroke="dodgerblue" points="1839.49,-172 1718.59,-172 1718.59,-136 1839.49,-136 1839.49,-172"/>
<text xml:space="preserve" text-anchor="middle" x="1779.04" y="-150.3" font-family="sans" font-size="11.00">arp_output_request</text>
</g>
<!-- arp_output_request&#45;&gt;eth_output -->
<g id="edge22" class="edge">
<title>arp_output_request&#45;&gt;eth_output</title>
<path fill="none" stroke="dodgerblue" d="M1839.78,-141.53C1848.7,-139.67 1857.75,-137.78 1866.23,-136.01"/>
<polygon fill="dodgerblue" stroke="dodgerblue" points="1866.84,-139.45 1875.91,-133.99 1865.41,-132.6 1866.84,-139.45"/>
</g>
<!-- ospf_redirect -->
<g id="node17" class="node">
<title>ospf_redirect</title>
<ellipse fill="none" stroke="black" cx="1470.62" cy="-714" rx="41.62" ry="18"/>
<text xml:space="preserve" text-anchor="middle" x="1470.62" y="-710.3" font-family="sans" font-size="11.00">ospf_redirect</text>
</g>
<!-- ospf_redirect&#45;&gt;l2_redirect -->
<g id="edge72" class="edge">
<title>ospf_redirect&#45;&gt;l2_redirect</title>
<path fill="none" stroke="black" d="M1485.05,-731.2C1501.43,-751.32 1530.74,-784.71 1561.44,-807 1565.81,-810.17 1570.57,-813.15 1575.45,-815.91"/>
<polygon fill="black" stroke="black" points="1573.69,-818.94 1584.17,-820.53 1576.97,-812.75 1573.69,-818.94"/>
</g>
<!-- loopback_input -->
<g id="node18" class="node">
<title>loopback_input</title>
<polygon fill="none" stroke="dodgerblue" points="186.15,-314 90,-314 90,-278 186.15,-278 186.15,-314"/>
<text xml:space="preserve" text-anchor="middle" x="138.07" y="-292.3" font-family="sans" font-size="11.00">loopback_input</text>
</g>
<!-- loopback_input&#45;&gt;ip_input -->
<g id="edge11" class="edge">
<title>loopback_input&#45;&gt;ip_input</title>
<path fill="none" stroke="dodgerblue" d="M152.73,-314.32C173.71,-342.47 213.92,-396.42 237.53,-428.09"/>
<polygon fill="dodgerblue" stroke="dodgerblue" points="234.6,-430.02 243.38,-435.94 240.21,-425.83 234.6,-430.02"/>
</g>
<!-- loopback_input&#45;&gt;ip6_input -->
<g id="edge12" class="edge">
<title>loopback_input&#45;&gt;ip6_input</title>
<path fill="none" stroke="dodgerblue" d="M157.13,-277.65C195.25,-240.95 288.32,-162 383.37,-162 383.37,-162 383.37,-162 906.82,-162 983.76,-162 1007.11,-194.19 1051.53,-257 1107.82,-336.59 1118.99,-456.52 1121.05,-511.53"/>
<polygon fill="dodgerblue" stroke="dodgerblue" points="1117.55,-511.45 1121.34,-521.34 1124.54,-511.24 1117.55,-511.45"/>
</g>
<!-- loopback_output -->
<g id="node19" class="node">
<title>loopback_output</title>
<polygon fill="none" stroke="dodgerblue" points="1831.24,-798 1726.84,-798 1726.84,-762 1831.24,-762 1831.24,-798"/>
<text xml:space="preserve" text-anchor="middle" x="1779.04" y="-776.3" font-family="sans" font-size="11.00">loopback_output</text>
</g>
<!-- loop_xvrf -->
<g id="node20" class="node">
<title>loop_xvrf</title>
<ellipse fill="none" stroke="black" cx="1015.8" cy="-411" rx="29.83" ry="18"/>
<text xml:space="preserve" text-anchor="middle" x="1015.8" y="-407.3" font-family="sans" font-size="11.00">loop_xvrf</text>
</g>
<!-- loop_xvrf&#45;&gt;ip_input -->
<g id="edge13" class="edge">
<title>loop_xvrf&#45;&gt;ip_input</title>
<path fill="none" stroke="black" d="M991.65,-399.83C950.95,-381.24 863.48,-346 785.47,-346 518.59,-346 518.59,-346 518.59,-346 427.49,-346 331.01,-402.68 285.24,-433.54"/>
<polygon fill="black" stroke="black" points="283.51,-430.48 277.25,-439.02 287.48,-436.25 283.51,-430.48"/>
</g>
<!-- loop_xvrf&#45;&gt;ip6_input -->
<g id="edge14" class="edge">
<title>loop_xvrf&#45;&gt;ip6_input</title>
<path fill="none" stroke="black" d="M1029.84,-427.2C1047.79,-449.51 1080.29,-489.89 1101.35,-516.06"/>
<polygon fill="black" stroke="black" points="1098.6,-518.23 1107.59,-523.82 1104.05,-513.84 1098.6,-518.23"/>
</g>
<!-- ip_forward -->
<g id="node21" class="node">
<title>ip_forward</title>
<ellipse fill="none" stroke="black" cx="519.59" cy="-465" rx="33.62" ry="18"/>
<text xml:space="preserve" text-anchor="middle" x="519.59" y="-461.3" font-family="sans" font-size="11.00">ip_forward</text>
</g>
<!-- ip_output -->
<g id="node27" class="node">
<title>ip_output</title>
<ellipse fill="none" stroke="black" cx="905.82" cy="-284" rx="30.25" ry="18"/>
<text xml:space="preserve" text-anchor="middle" x="905.82" y="-280.3" font-family="sans" font-size="11.00">ip_output</text>
</g>
<!-- ip_forward&#45;&gt;ip_output -->
<g id="edge26" class="edge">
<title>ip_forward&#45;&gt;ip_output</title>
<path fill="none" stroke="black" d="M537.02,-449.16C552.01,-435.41 575.31,-415.76 598.47,-403 694.54,-350.09 730.83,-365.36 831.57,-322 845.45,-316.03 860.32,-308.52 873.02,-301.77"/>
<polygon fill="black" stroke="black" points="874.64,-304.87 881.77,-297.04 871.31,-298.71 874.64,-304.87"/>
</g>
<!-- ip_fragment -->
<g id="node22" class="node">
<title>ip_fragment</title>
<ellipse fill="none" stroke="black" cx="784.47" cy="-208" rx="38.25" ry="18"/>
<text xml:space="preserve" text-anchor="middle" x="784.47" y="-204.3" font-family="sans" font-size="11.00">ip_fragment</text>
</g>
<!-- ip_fragment&#45;&gt;ip_output -->
<g id="edge27" class="edge">
<title>ip_fragment&#45;&gt;ip_output</title>
<path fill="none" stroke="black" d="M817.36,-217.45C822.15,-220.2 827.01,-223.14 831.57,-226 848.9,-236.86 868.12,-249.74 882.51,-260.86"/>
<polygon fill="black" stroke="black" points="880.05,-263.37 890.03,-266.91 884.44,-257.92 880.05,-263.37"/>
</g>
<!-- ip_hold -->
<g id="node23" class="node">
<title>ip_hold</title>
<polygon fill="none" stroke="dodgerblue" points="1042.8,-356 988.8,-356 988.8,-320 1042.8,-320 1042.8,-356"/>
<text xml:space="preserve" text-anchor="middle" x="1015.8" y="-334.3" font-family="sans" font-size="11.00">ip_hold</text>
</g>
<!-- ip_input&#45;&gt;ip_forward -->
<g id="edge28" class="edge">
<title>ip_input&#45;&gt;ip_forward</title>
<path fill="none" stroke="black" d="M284.33,-451.14C297.45,-450.31 313.58,-449.41 328.05,-449 378.1,-447.57 390.89,-443.94 440.7,-449 452.88,-450.24 465.96,-452.54 477.86,-455.01"/>
<polygon fill="black" stroke="black" points="476.85,-458.38 487.37,-457.09 478.35,-451.54 476.85,-458.38"/>
</g>
<!-- ip_input_local -->
<g id="node26" class="node">
<title>ip_input_local</title>
<ellipse fill="none" stroke="black" cx="519.59" cy="-538" rx="42.89" ry="18"/>
<text xml:space="preserve" text-anchor="middle" x="519.59" y="-534.3" font-family="sans" font-size="11.00">ip_input_local</text>
</g>
<!-- ip_input&#45;&gt;ip_input_local -->
<g id="edge31" class="edge">
<title>ip_input&#45;&gt;ip_input_local</title>
<path fill="none" stroke="black" d="M263.95,-470.6C273.17,-495.14 293.67,-538.69 328.05,-557 374.85,-581.92 437.3,-568.41 477.73,-554.69"/>
<polygon fill="black" stroke="black" points="478.85,-558 487.09,-551.35 476.5,-551.41 478.85,-558"/>
</g>
<!-- ip_input&#45;&gt;ip_output -->
<g id="edge30" class="edge">
<title>ip_input&#45;&gt;ip_output</title>
<path fill="none" stroke="black" d="M262.89,-435.08C271.21,-407.84 291.05,-356.56 328.05,-332 399.16,-284.8 433.23,-308 518.59,-308 518.59,-308 518.59,-308 650.92,-308 726.96,-308 815.24,-297.2 865.12,-290.09"/>
<polygon fill="black" stroke="black" points="865.46,-293.58 874.85,-288.68 864.45,-286.65 865.46,-293.58"/>
</g>
<!-- dnat44_dynamic -->
<g id="node36" class="node">
<title>dnat44_dynamic</title>
<ellipse fill="none" stroke="black" cx="384.37" cy="-530" rx="52.15" ry="18"/>
<text xml:space="preserve" text-anchor="middle" x="384.37" y="-526.3" font-family="sans" font-size="11.00">dnat44_dynamic</text>
</g>
<!-- ip_input&#45;&gt;dnat44_dynamic -->
<g id="edge29" class="edge">
<title>ip_input&#45;&gt;dnat44_dynamic</title>
<path fill="none" stroke="black" d="M275.38,-466.58C289.21,-477.15 309.33,-491.85 328.05,-503 332.35,-505.56 336.93,-508.09 341.54,-510.51"/>
<polygon fill="black" stroke="black" points="339.74,-513.52 350.24,-514.93 342.9,-507.28 339.74,-513.52"/>
</g>
<!-- dnat44_static -->
<g id="node37" class="node">
<title>dnat44_static</title>
<ellipse fill="none" stroke="black" cx="384.37" cy="-476" rx="43.31" ry="18"/>
<text xml:space="preserve" text-anchor="middle" x="384.37" y="-472.3" font-family="sans" font-size="11.00">dnat44_static</text>
</g>
<!-- ip_input&#45;&gt;dnat44_static -->
<g id="edge32" class="edge">
<title>ip_input&#45;&gt;dnat44_static</title>
<path fill="none" stroke="black" d="M283.45,-457.65C297.76,-460.28 316.15,-463.66 333.25,-466.8"/>
<polygon fill="black" stroke="black" points="332.29,-470.18 342.75,-468.54 333.55,-463.29 332.29,-470.18"/>
</g>
<!-- ip_loadbalance -->
<g id="node25" class="node">
<title>ip_loadbalance</title>
<ellipse fill="none" stroke="black" cx="784.47" cy="-262" rx="47.1" ry="18"/>
<text xml:space="preserve" text-anchor="middle" x="784.47" y="-258.3" font-family="sans" font-size="11.00">ip_loadbalance</text>
</g>
<!-- ip_loadbalance&#45;&gt;ip_output -->
<g id="edge33" class="edge">
<title>ip_loadbalance&#45;&gt;ip_output</title>
<path fill="none" stroke="black" d="M831.61,-263.91C844.01,-265.91 857.23,-268.46 868.98,-271.15"/>
<polygon fill="black" stroke="black" points="868.13,-274.54 878.68,-273.51 869.79,-267.74 868.13,-274.54"/>
</g>
<!-- ip_input_local&#45;&gt;ospf_redirect -->
<g id="edge37" class="edge">
<title>ip_input_local&#45;&gt;ospf_redirect</title>
<path fill="none" stroke="black" d="M541.39,-553.91C556.52,-564.84 577.88,-578.94 598.47,-588 773.65,-665.08 823.42,-698 1014.8,-698 1014.8,-698 1014.8,-698 1222.87,-698 1290.63,-698 1368.64,-704.08 1418.5,-708.75"/>
<polygon fill="black" stroke="black" points="1418.13,-712.23 1428.42,-709.69 1418.79,-705.26 1418.13,-712.23"/>
</g>
<!-- ipip_input -->
<g id="node34" class="node">
<title>ipip_input</title>
<ellipse fill="none" stroke="black" cx="649.92" cy="-484" rx="31.1" ry="18"/>
<text xml:space="preserve" text-anchor="middle" x="649.92" y="-480.3" font-family="sans" font-size="11.00">ipip_input</text>
</g>
<!-- ip_input_local&#45;&gt;ipip_input -->
<g id="edge35" class="edge">
<title>ip_input_local&#45;&gt;ipip_input</title>
<path fill="none" stroke="black" d="M550.68,-525.34C569.55,-517.4 593.98,-507.12 613.75,-498.8"/>
<polygon fill="black" stroke="black" points="614.93,-502.1 622.79,-494.99 612.22,-495.65 614.93,-502.1"/>
</g>
<!-- icmp_input -->
<g id="node40" class="node">
<title>icmp_input</title>
<ellipse fill="none" stroke="black" cx="649.92" cy="-538" rx="34.89" ry="18"/>
<text xml:space="preserve" text-anchor="middle" x="649.92" y="-534.3" font-family="sans" font-size="11.00">icmp_input</text>
</g>
<!-- ip_input_local&#45;&gt;icmp_input -->
<g id="edge34" class="edge">
<title>ip_input_local&#45;&gt;icmp_input</title>
<path fill="none" stroke="black" d="M562.96,-538C575.95,-538 590.29,-538 603.48,-538"/>
<polygon fill="black" stroke="black" points="603.19,-541.5 613.19,-538 603.19,-534.5 603.19,-541.5"/>
</g>
<!-- l4_input_local -->
<g id="node51" class="node">
<title>l4_input_local</title>
<ellipse fill="none" stroke="black" cx="1470.62" cy="-660" rx="42.89" ry="18"/>
<text xml:space="preserve" text-anchor="middle" x="1470.62" y="-656.3" font-family="sans" font-size="11.00">l4_input_local</text>
</g>
<!-- ip_input_local&#45;&gt;l4_input_local -->
<g id="edge36" class="edge">
<title>ip_input_local&#45;&gt;l4_input_local</title>
<path fill="none" stroke="black" d="M552.08,-550.16C566.12,-555.25 582.97,-560.93 598.47,-565 602.04,-565.94 1117.73,-660 1121.42,-660 1121.42,-660 1121.42,-660 1222.87,-660 1289.3,-660 1365.79,-660 1415.77,-660"/>
<polygon fill="black" stroke="black" points="1415.75,-663.5 1425.75,-660 1415.75,-656.5 1415.75,-663.5"/>
</g>
<!-- ip_output&#45;&gt;eth_output -->
<g id="edge38" class="edge">
<title>ip_output&#45;&gt;eth_output</title>
<path fill="none" stroke="black" d="M925.54,-270.05C939.84,-259.94 960.4,-246.59 980.08,-238 1039.69,-211.97 1056.37,-200 1121.42,-200 1121.42,-200 1121.42,-200 1623.01,-200 1719.6,-200 1749.54,-216.17 1839.49,-181 1856.5,-174.35 1872.8,-162.2 1885.38,-151.11"/>
<polygon fill="black" stroke="black" points="1887.75,-153.69 1892.73,-144.34 1883,-148.54 1887.75,-153.69"/>
</g>
<!-- ip_output&#45;&gt;loop_xvrf -->
<g id="edge41" class="edge">
<title>ip_output&#45;&gt;loop_xvrf</title>
<path fill="none" stroke="black" d="M920.5,-300.08C939,-321.84 972.17,-360.85 993.83,-386.33"/>
<polygon fill="black" stroke="black" points="991.11,-388.54 1000.26,-393.89 996.45,-384.01 991.11,-388.54"/>
</g>
<!-- ip_output&#45;&gt;ip_fragment -->
<g id="edge40" class="edge">
<title>ip_output&#45;&gt;ip_fragment</title>
<path fill="none" stroke="black" d="M879.64,-274.57C865.62,-266.07 847.78,-254.15 831.57,-244 824.81,-239.77 817.39,-235.33 810.51,-230.96"/>
<polygon fill="black" stroke="black" points="812.51,-228.08 802.24,-225.48 808.64,-233.92 812.51,-228.08"/>
</g>
<!-- ip_output&#45;&gt;ip_hold -->
<g id="edge39" class="edge">
<title>ip_output&#45;&gt;ip_hold</title>
<path fill="none" stroke="black" d="M929.72,-295.45C943.84,-302.51 962.26,-311.72 978.35,-319.77"/>
<polygon fill="black" stroke="black" points="976.65,-322.84 987.16,-324.18 979.79,-316.57 976.65,-322.84"/>
</g>
<!-- ip_output&#45;&gt;ip_loadbalance -->
<g id="edge42" class="edge">
<title>ip_output&#45;&gt;ip_loadbalance</title>
<path fill="none" stroke="black" d="M875.32,-284.48C861.81,-282.8 845.49,-280.01 830.5,-276.87"/>
<polygon fill="black" stroke="black" points="831.35,-273.47 820.83,-274.73 829.84,-280.3 831.35,-273.47"/>
</g>
<!-- ipip_output -->
<g id="node35" class="node">
<title>ipip_output</title>
<ellipse fill="none" stroke="black" cx="1015.8" cy="-284" rx="35.73" ry="18"/>
<text xml:space="preserve" text-anchor="middle" x="1015.8" y="-280.3" font-family="sans" font-size="11.00">ipip_output</text>
</g>
<!-- ip_output&#45;&gt;ipip_output -->
<g id="edge43" class="edge">
<title>ip_output&#45;&gt;ipip_output</title>
<path fill="none" stroke="black" d="M934.63,-278.01C945.62,-277.32 958.51,-277.1 970.71,-277.35"/>
<polygon fill="black" stroke="black" points="970.48,-280.85 980.59,-277.69 970.72,-273.85 970.48,-280.85"/>
</g>
<!-- sr6_output -->
<g id="node39" class="node">
<title>sr6_output</title>
<ellipse fill="none" stroke="black" cx="1910.37" cy="-365" rx="34.46" ry="18"/>
<text xml:space="preserve" text-anchor="middle" x="1910.37" y="-361.3" font-family="sans" font-size="11.00">sr6_output</text>
</g>
<!-- ip_output&#45;&gt;sr6_output -->
<g id="edge44" class="edge">
<title>ip_output&#45;&gt;sr6_output</title>
<path fill="none" stroke="black" d="M930.82,-273.64C944.92,-267.93 963.24,-261.18 980.08,-257 1041.59,-241.73 1058.03,-238 1121.42,-238 1121.42,-238 1121.42,-238 1623.01,-238 1725.5,-238 1832.26,-306.81 1881.48,-343.13"/>
<polygon fill="black" stroke="black" points="1879.23,-345.82 1889.33,-349.02 1883.43,-340.22 1879.23,-345.82"/>
</g>
<!-- ip6_forward -->
<g id="node28" class="node">
<title>ip6_forward</title>
<ellipse fill="none" stroke="black" cx="1333.12" cy="-476" rx="37.41" ry="18"/>
<text xml:space="preserve" text-anchor="middle" x="1333.12" y="-472.3" font-family="sans" font-size="11.00">ip6_forward</text>
</g>
<!-- ip6_output -->
<g id="node33" class="node">
<title>ip6_output</title>
<ellipse fill="none" stroke="black" cx="1779.04" cy="-392" rx="34.04" ry="18"/>
<text xml:space="preserve" text-anchor="middle" x="1779.04" y="-388.3" font-family="sans" font-size="11.00">ip6_output</text>
</g>
<!-- ip6_forward&#45;&gt;ip6_output -->
<g id="edge51" class="edge">
<title>ip6_forward&#45;&gt;ip6_output</title>
<path fill="none" stroke="black" d="M1370.32,-479.19C1434.88,-483.65 1573.32,-487.6 1682.59,-452 1707.79,-443.79 1733.03,-427.48 1751.22,-413.94"/>
<polygon fill="black" stroke="black" points="1753.05,-416.95 1758.86,-408.08 1748.79,-411.39 1753.05,-416.95"/>
</g>
<!-- ip6_hold -->
<g id="node29" class="node">
<title>ip6_hold</title>
<polygon fill="none" stroke="dodgerblue" points="1940.07,-437 1880.67,-437 1880.67,-401 1940.07,-401 1940.07,-437"/>
<text xml:space="preserve" text-anchor="middle" x="1910.37" y="-415.3" font-family="sans" font-size="11.00">ip6_hold</text>
</g>
<!-- ip6_input&#45;&gt;ip6_forward -->
<g id="edge52" class="edge">
<title>ip6_input&#45;&gt;ip6_forward</title>
<path fill="none" stroke="black" d="M1145.25,-529.2C1158.78,-522.27 1176.7,-513.76 1193.3,-508 1223.56,-497.5 1258.73,-489.44 1286.09,-484.03"/>
<polygon fill="black" stroke="black" points="1286.66,-487.49 1295.82,-482.16 1285.34,-480.61 1286.66,-487.49"/>
</g>
<!-- ip6_input_local -->
<g id="node32" class="node">
<title>ip6_input_local</title>
<ellipse fill="none" stroke="black" cx="1333.12" cy="-606" rx="46.68" ry="18"/>
<text xml:space="preserve" text-anchor="middle" x="1333.12" y="-602.3" font-family="sans" font-size="11.00">ip6_input_local</text>
</g>
<!-- ip6_input&#45;&gt;ip6_input_local -->
<g id="edge54" class="edge">
<title>ip6_input&#45;&gt;ip6_input_local</title>
<path fill="none" stroke="black" d="M1149.27,-548.5C1174.98,-556.01 1215.53,-568.01 1250.44,-579 1262.1,-582.67 1274.65,-586.75 1286.33,-590.61"/>
<polygon fill="black" stroke="black" points="1285.18,-593.92 1295.77,-593.74 1287.38,-587.27 1285.18,-593.92"/>
</g>
<!-- ip6_input&#45;&gt;ip6_output -->
<g id="edge53" class="edge">
<title>ip6_input&#45;&gt;ip6_output</title>
<path fill="none" stroke="black" d="M1151.75,-543.68C1236.64,-550.53 1494.61,-562.58 1682.59,-478 1712.93,-464.35 1740.32,-437.41 1757.89,-417.3"/>
<polygon fill="black" stroke="black" points="1760.48,-419.66 1764.27,-409.77 1755.14,-415.14 1760.48,-419.66"/>
</g>
<!-- sr6_local -->
<g id="node38" class="node">
<title>sr6_local</title>
<ellipse fill="none" stroke="black" cx="1221.87" cy="-606" rx="28.57" ry="18"/>
<text xml:space="preserve" text-anchor="middle" x="1221.87" y="-602.3" font-family="sans" font-size="11.00">sr6_local</text>
</g>
<!-- ip6_input&#45;&gt;sr6_local -->
<g id="edge55" class="edge">
<title>ip6_input&#45;&gt;sr6_local</title>
<path fill="none" stroke="black" d="M1147.01,-550.86C1162.12,-559.79 1181.68,-572.82 1196.87,-584.09"/>
<polygon fill="black" stroke="black" points="1194.42,-586.61 1204.49,-589.9 1198.66,-581.05 1194.42,-586.61"/>
</g>
<!-- ip6_loadbalance -->
<g id="node31" class="node">
<title>ip6_loadbalance</title>
<ellipse fill="none" stroke="black" cx="1622.01" cy="-392" rx="50.89" ry="18"/>
<text xml:space="preserve" text-anchor="middle" x="1622.01" y="-388.3" font-family="sans" font-size="11.00">ip6_loadbalance</text>
</g>
<!-- ip6_loadbalance&#45;&gt;ip6_output -->
<g id="edge56" class="edge">
<title>ip6_loadbalance&#45;&gt;ip6_output</title>
<path fill="none" stroke="black" d="M1669.95,-385.74C1690.66,-385.04 1714.84,-385.09 1735.07,-385.88"/>
<polygon fill="black" stroke="black" points="1734.8,-389.38 1744.96,-386.37 1735.14,-382.38 1734.8,-389.38"/>
</g>
<!-- ip6_input_local&#45;&gt;ospf_redirect -->
<g id="edge59" class="edge">
<title>ip6_input_local&#45;&gt;ospf_redirect</title>
<path fill="none" stroke="black" d="M1348.72,-623.43C1364.11,-641.04 1389.68,-668.24 1415.79,-687 1420.23,-690.19 1425.09,-693.2 1430.03,-695.97"/>
<polygon fill="black" stroke="black" points="1428.34,-699.03 1438.81,-700.61 1431.6,-692.84 1428.34,-699.03"/>
</g>
<!-- icmp6_input -->
<g id="node43" class="node">
<title>icmp6_input</title>
<polygon fill="none" stroke="dodgerblue" points="1510.82,-624 1430.42,-624 1430.42,-588 1510.82,-588 1510.82,-624"/>
<text xml:space="preserve" text-anchor="middle" x="1470.62" y="-602.3" font-family="sans" font-size="11.00">icmp6_input</text>
</g>
<!-- ip6_input_local&#45;&gt;icmp6_input -->
<g id="edge57" class="edge">
<title>ip6_input_local&#45;&gt;icmp6_input</title>
<path fill="none" stroke="black" d="M1379.99,-606C1392.45,-606 1406.02,-606 1418.74,-606"/>
<polygon fill="black" stroke="black" points="1418.61,-609.5 1428.61,-606 1418.61,-602.5 1418.61,-609.5"/>
</g>
<!-- ip6_input_local&#45;&gt;l4_input_local -->
<g id="edge58" class="edge">
<title>ip6_input_local&#45;&gt;l4_input_local</title>
<path fill="none" stroke="black" d="M1366.57,-618.93C1385.07,-626.31 1408.44,-635.62 1428.24,-643.51"/>
<polygon fill="black" stroke="black" points="1426.83,-646.72 1437.42,-647.17 1429.42,-640.21 1426.83,-646.72"/>
</g>
<!-- ip6_output&#45;&gt;eth_output -->
<g id="edge60" class="edge">
<title>ip6_output&#45;&gt;eth_output</title>
<path fill="none" stroke="black" d="M1788.52,-374.61C1810.45,-329.69 1869.12,-209.47 1895.82,-154.78"/>
<polygon fill="black" stroke="black" points="1898.95,-156.33 1900.19,-145.81 1892.66,-153.26 1898.95,-156.33"/>
</g>
<!-- ip6_output&#45;&gt;loop_xvrf -->
<g id="edge62" class="edge">
<title>ip6_output&#45;&gt;loop_xvrf</title>
<path fill="none" stroke="black" d="M1750.49,-401.98C1731.65,-408.25 1705.96,-415.76 1682.59,-419 1447.2,-451.65 1160.52,-426.7 1056.72,-415.61"/>
<polygon fill="black" stroke="black" points="1057.37,-412.16 1047.05,-414.56 1056.61,-419.12 1057.37,-412.16"/>
</g>
<!-- ip6_output&#45;&gt;ip6_hold -->
<g id="edge61" class="edge">
<title>ip6_output&#45;&gt;ip6_hold</title>
<path fill="none" stroke="black" d="M1811.35,-398.54C1828.81,-402.18 1850.73,-406.76 1869.42,-410.66"/>
<polygon fill="black" stroke="black" points="1868.58,-414.06 1879.08,-412.68 1870.01,-407.21 1868.58,-414.06"/>
</g>
<!-- ip6_output&#45;&gt;ip6_loadbalance -->
<g id="edge63" class="edge">
<title>ip6_output&#45;&gt;ip6_loadbalance</title>
<path fill="none" stroke="black" d="M1746.47,-397.56C1727.73,-398.67 1703.38,-399 1681.27,-398.56"/>
<polygon fill="black" stroke="black" points="1681.55,-395.07 1671.46,-398.3 1681.36,-402.07 1681.55,-395.07"/>
</g>
<!-- ip6_output&#45;&gt;sr6_output -->
<g id="edge64" class="edge">
<title>ip6_output&#45;&gt;sr6_output</title>
<path fill="none" stroke="black" d="M1806.52,-380.9C1823.13,-376.26 1844.96,-371.41 1864.24,-367.95"/>
<polygon fill="black" stroke="black" points="1864.77,-371.41 1874.04,-366.3 1863.6,-364.51 1864.77,-371.41"/>
</g>
<!-- ipip_input&#45;&gt;ip_input -->
<g id="edge67" class="edge">
<title>ipip_input&#45;&gt;ip_input</title>
<path fill="none" stroke="black" d="M626.51,-471.99C601.18,-458.43 563.35,-438.22 562.47,-438 467.86,-414.4 351.72,-432.55 294.09,-444.58"/>
<polygon fill="black" stroke="black" points="293.55,-441.11 284.51,-446.64 295.03,-447.95 293.55,-441.11"/>
</g>
<!-- ipip_output&#45;&gt;ip_output -->
<g id="edge68" class="edge">
<title>ipip_output&#45;&gt;ip_output</title>
<path fill="none" stroke="black" d="M982.1,-290.26C970.74,-290.81 957.87,-290.9 946.03,-290.52"/>
<polygon fill="black" stroke="black" points="946.29,-287.03 936.14,-290.06 945.97,-294.02 946.29,-287.03"/>
</g>
<!-- dnat44_dynamic&#45;&gt;ip_forward -->
<g id="edge73" class="edge">
<title>dnat44_dynamic&#45;&gt;ip_forward</title>
<path fill="none" stroke="black" d="M415.6,-515.25C435.83,-505.38 462.51,-492.36 483.65,-482.05"/>
<polygon fill="black" stroke="black" points="485.02,-485.28 492.47,-477.74 481.95,-478.98 485.02,-485.28"/>
</g>
<!-- dnat44_dynamic&#45;&gt;ip_input_local -->
<g id="edge74" class="edge">
<title>dnat44_dynamic&#45;&gt;ip_input_local</title>
<path fill="none" stroke="black" d="M436.12,-533.05C445.63,-533.62 455.6,-534.22 465.19,-534.79"/>
<polygon fill="black" stroke="black" points="464.94,-538.28 475.14,-535.39 465.36,-531.3 464.94,-538.28"/>
</g>
<!-- dnat44_static&#45;&gt;ip_forward -->
<g id="edge75" class="edge">
<title>dnat44_static&#45;&gt;ip_forward</title>
<path fill="none" stroke="black" d="M427.16,-472.55C442.36,-471.29 459.57,-469.87 474.93,-468.6"/>
<polygon fill="black" stroke="black" points="475.06,-472.11 484.74,-467.79 474.49,-465.13 475.06,-472.11"/>
</g>
<!-- dnat44_static&#45;&gt;ip_input_local -->
<g id="edge76" class="edge">
<title>dnat44_static&#45;&gt;ip_input_local</title>
<path fill="none" stroke="black" d="M414.28,-489.45C433.53,-498.41 459.03,-510.28 480.01,-520.04"/>
<polygon fill="black" stroke="black" points="478.28,-523.1 488.82,-524.15 481.23,-516.75 478.28,-523.1"/>
</g>
<!-- sr6_local&#45;&gt;ip_input -->
<g id="edge77" class="edge">
<title>sr6_local&#45;&gt;ip_input</title>
<path fill="none" stroke="black" d="M1195.65,-613.5C1083.65,-645.25 623.76,-758.81 328.05,-578 293.4,-556.81 274.49,-511.78 265.34,-481.96"/>
<polygon fill="black" stroke="black" points="268.73,-481.08 262.62,-472.43 262,-483.01 268.73,-481.08"/>
</g>
<!-- sr6_local&#45;&gt;ip6_input -->
<g id="edge78" class="edge">
<title>sr6_local&#45;&gt;ip6_input</title>
<path fill="none" stroke="black" d="M1197.4,-596.22C1182.29,-587.3 1162.71,-574.25 1147.48,-562.96"/>
<polygon fill="black" stroke="black" points="1149.92,-560.42 1139.85,-557.14 1145.67,-565.99 1149.92,-560.42"/>
</g>
<!-- sr6_local&#45;&gt;ip6_input_local -->
<g id="edge79" class="edge">
<title>sr6_local&#45;&gt;ip6_input_local</title>
<path fill="none" stroke="black" d="M1250.72,-606C1258.11,-606 1266.36,-606 1274.71,-606"/>
<polygon fill="black" stroke="black" points="1274.55,-609.5 1284.55,-606 1274.55,-602.5 1274.55,-609.5"/>
</g>
<!-- sr6_output&#45;&gt;ip6_output -->
<g id="edge80" class="edge">
<title>sr6_output&#45;&gt;ip6_output</title>
<path fill="none" stroke="black" d="M1882.69,-376.15C1865.97,-380.82 1843.99,-385.69 1824.66,-389.14"/>
<polygon fill="black" stroke="black" points="1824.12,-385.68 1814.84,-390.78 1825.28,-392.58 1824.12,-385.68"/>
</g>
<!-- icmp_output -->
<g id="node42" class="node">
<title>icmp_output</title>
<ellipse fill="none" stroke="black" cx="784.47" cy="-430" rx="39.52" ry="18"/>
<text xml:space="preserve" text-anchor="middle" x="784.47" y="-426.3" font-family="sans" font-size="11.00">icmp_output</text>
</g>
<!-- icmp_input&#45;&gt;icmp_output -->
<g id="edge23" class="edge">
<title>icmp_input&#45;&gt;icmp_output</title>
<path fill="none" stroke="black" d="M676.67,-526.04C684.87,-521.76 693.78,-516.6 701.37,-511 723.61,-494.61 745.72,-472.37 761.38,-455.33"/>
<polygon fill="black" stroke="black" points="763.83,-457.85 767.94,-448.08 758.64,-453.15 763.83,-457.85"/>
</g>
<!-- icmp_local_send -->
<g id="node41" class="node">
<title>icmp_local_send</title>
<polygon fill="none" stroke="dodgerblue" points="701.37,-448 598.47,-448 598.47,-412 701.37,-412 701.37,-448"/>
<text xml:space="preserve" text-anchor="middle" x="649.92" y="-426.3" font-family="sans" font-size="11.00">icmp_local_send</text>
</g>
<!-- icmp_local_send&#45;&gt;icmp_output -->
<g id="edge24" class="edge">
<title>icmp_local_send&#45;&gt;icmp_output</title>
<path fill="none" stroke="dodgerblue" d="M701.79,-430C712.08,-430 722.9,-430 733.17,-430"/>
<polygon fill="dodgerblue" stroke="dodgerblue" points="732.96,-433.5 742.96,-430 732.96,-426.5 732.96,-433.5"/>
</g>
<!-- icmp_output&#45;&gt;ip_output -->
<g id="edge25" class="edge">
<title>icmp_output&#45;&gt;ip_output</title>
<path fill="none" stroke="black" d="M809.37,-416.01C816.97,-410.91 825.07,-404.73 831.57,-398 856.76,-371.9 878.18,-335.89 891.23,-311.37"/>
<polygon fill="black" stroke="black" points="894.25,-313.14 895.76,-302.65 888.04,-309.91 894.25,-313.14"/>
</g>
<!-- icmp6_output -->
<g id="node44" class="node">
<title>icmp6_output</title>
<ellipse fill="none" stroke="black" cx="1622.01" cy="-338" rx="43.31" ry="18"/>
<text xml:space="preserve" text-anchor="middle" x="1622.01" y="-334.3" font-family="sans" font-size="11.00">icmp6_output</text>
</g>
<!-- icmp6_input&#45;&gt;icmp6_output -->
<g id="edge45" class="edge">
<title>icmp6_input&#45;&gt;icmp6_output</title>
<path fill="none" stroke="dodgerblue" d="M1476.47,-587.7C1490.07,-537.49 1529.68,-399.03 1561.44,-365 1565.61,-360.54 1570.65,-356.76 1576.02,-353.57"/>
<polygon fill="dodgerblue" stroke="dodgerblue" points="1577.29,-356.86 1584.57,-349.16 1574.07,-350.64 1577.29,-356.86"/>
</g>
<!-- ndp_na_input -->
<g id="node46" class="node">
<title>ndp_na_input</title>
<polygon fill="none" stroke="dodgerblue" points="1665.21,-690 1578.81,-690 1578.81,-654 1665.21,-654 1665.21,-690"/>
<text xml:space="preserve" text-anchor="middle" x="1622.01" y="-668.3" font-family="sans" font-size="11.00">ndp_na_input</text>
</g>
<!-- icmp6_input&#45;&gt;ndp_na_input -->
<g id="edge47" class="edge">
<title>icmp6_input&#45;&gt;ndp_na_input</title>
<path fill="none" stroke="dodgerblue" d="M1511.26,-623.51C1528.98,-631.34 1550.11,-640.68 1569.08,-649.06"/>
<polygon fill="dodgerblue" stroke="dodgerblue" points="1567.41,-652.15 1577.97,-652.98 1570.24,-645.74 1567.41,-652.15"/>
</g>
<!-- ndp_ns_input -->
<g id="node48" class="node">
<title>ndp_ns_input</title>
<polygon fill="none" stroke="dodgerblue" points="1664.84,-636 1579.19,-636 1579.19,-600 1664.84,-600 1664.84,-636"/>
<text xml:space="preserve" text-anchor="middle" x="1622.01" y="-614.3" font-family="sans" font-size="11.00">ndp_ns_input</text>
</g>
<!-- icmp6_input&#45;&gt;ndp_ns_input -->
<g id="edge46" class="edge">
<title>icmp6_input&#45;&gt;ndp_ns_input</title>
<path fill="none" stroke="dodgerblue" d="M1511.26,-609.18C1528.51,-610.57 1548.99,-612.21 1567.56,-613.71"/>
<polygon fill="dodgerblue" stroke="dodgerblue" points="1567.07,-617.18 1577.32,-614.49 1567.63,-610.2 1567.07,-617.18"/>
</g>
<!-- ndp_rs_input -->
<g id="node50" class="node">
<title>ndp_rs_input</title>
<polygon fill="none" stroke="dodgerblue" points="1663.71,-582 1580.31,-582 1580.31,-546 1663.71,-546 1663.71,-582"/>
<text xml:space="preserve" text-anchor="middle" x="1622.01" y="-560.3" font-family="sans" font-size="11.00">ndp_rs_input</text>
</g>
<!-- icmp6_input&#45;&gt;ndp_rs_input -->
<g id="edge48" class="edge">
<title>icmp6_input&#45;&gt;ndp_rs_input</title>
<path fill="none" stroke="dodgerblue" d="M1511.26,-594.86C1528.96,-589.88 1550.07,-583.95 1569.02,-578.62"/>
<polygon fill="dodgerblue" stroke="dodgerblue" points="1569.74,-582.05 1578.42,-575.97 1567.85,-575.31 1569.74,-582.05"/>
</g>
<!-- icmp6_output&#45;&gt;ip6_output -->
<g id="edge49" class="edge">
<title>icmp6_output&#45;&gt;ip6_output</title>
<path fill="none" stroke="black" d="M1655.89,-349.45C1680.2,-357.92 1713.4,-369.48 1739.05,-378.42"/>
<polygon fill="black" stroke="black" points="1737.86,-381.71 1748.46,-381.7 1740.16,-375.1 1737.86,-381.71"/>
</g>
<!-- icmp6_local_send -->
<g id="node45" class="node">
<title>icmp6_local_send</title>
<polygon fill="none" stroke="dodgerblue" points="1525.44,-356 1415.79,-356 1415.79,-320 1525.44,-320 1525.44,-356"/>
<text xml:space="preserve" text-anchor="middle" x="1470.62" y="-334.3" font-family="sans" font-size="11.00">icmp6_local_send</text>
</g>
<!-- icmp6_local_send&#45;&gt;icmp6_output -->
<g id="edge50" class="edge">
<title>icmp6_local_send&#45;&gt;icmp6_output</title>
<path fill="none" stroke="dodgerblue" d="M1525.55,-338C1539.13,-338 1553.71,-338 1567.28,-338"/>
<polygon fill="dodgerblue" stroke="dodgerblue" points="1566.89,-341.5 1576.89,-338 1566.89,-334.5 1566.89,-341.5"/>
</g>
<!-- ndp_na_output -->
<g id="node47" class="node">
<title>ndp_na_output</title>
<polygon fill="none" stroke="dodgerblue" points="1517.94,-302 1423.29,-302 1423.29,-266 1517.94,-266 1517.94,-302"/>
<text xml:space="preserve" text-anchor="middle" x="1470.62" y="-280.3" font-family="sans" font-size="11.00">ndp_na_output</text>
</g>
<!-- ndp_na_output&#45;&gt;icmp6_output -->
<g id="edge65" class="edge">
<title>ndp_na_output&#45;&gt;icmp6_output</title>
<path fill="none" stroke="dodgerblue" d="M1518.07,-300.79C1537.11,-307.67 1559.03,-315.6 1577.74,-322.36"/>
<polygon fill="dodgerblue" stroke="dodgerblue" points="1576.32,-325.57 1586.91,-325.67 1578.7,-318.98 1576.32,-325.57"/>
</g>
<!-- ndp_ns_output -->
<g id="node49" class="node">
<title>ndp_ns_output</title>
<polygon fill="none" stroke="dodgerblue" points="1517.57,-410 1423.67,-410 1423.67,-374 1517.57,-374 1517.57,-410"/>
<text xml:space="preserve" text-anchor="middle" x="1470.62" y="-388.3" font-family="sans" font-size="11.00">ndp_ns_output</text>
</g>
<!-- ndp_ns_output&#45;&gt;icmp6_output -->
<g id="edge66" class="edge">
<title>ndp_ns_output&#45;&gt;icmp6_output</title>
<path fill="none" stroke="dodgerblue" d="M1517.66,-375.36C1536.87,-368.42 1559.05,-360.4 1577.94,-353.57"/>
<polygon fill="dodgerblue" stroke="dodgerblue" points="1578.99,-356.91 1587.2,-350.22 1576.61,-350.33 1578.99,-356.91"/>
</g>
<!-- l4_loopback_output -->
<g id="node52" class="node">
<title>l4_loopback_output</title>
<ellipse fill="none" stroke="black" cx="1622.01" cy="-780" rx="60.57" ry="18"/>
<text xml:space="preserve" text-anchor="middle" x="1622.01" y="-776.3" font-family="sans" font-size="11.00">l4_loopback_output</text>
</g>
<!-- l4_input_local&#45;&gt;l4_loopback_output -->
<g id="edge69" class="edge">
<title>l4_input_local&#45;&gt;l4_loopback_output</title>
<path fill="none" stroke="black" d="M1503.31,-671.92C1511.16,-675.89 1519.13,-680.9 1525.44,-687 1549.47,-710.22 1536.96,-730.26 1561.44,-753 1564.49,-755.83 1567.89,-758.41 1571.47,-760.74"/>
<polygon fill="black" stroke="black" points="1569.55,-763.67 1579.97,-765.61 1573.03,-757.6 1569.55,-763.67"/>
</g>
<!-- dhcp_input -->
<g id="node53" class="node">
<title>dhcp_input</title>
<polygon fill="none" stroke="dodgerblue" points="1658.84,-744 1585.19,-744 1585.19,-708 1658.84,-708 1658.84,-744"/>
<text xml:space="preserve" text-anchor="middle" x="1622.01" y="-722.3" font-family="sans" font-size="11.00">dhcp_input</text>
</g>
<!-- l4_input_local&#45;&gt;dhcp_input -->
<g id="edge70" class="edge">
<title>l4_input_local&#45;&gt;dhcp_input</title>
<path fill="none" stroke="black" d="M1501.13,-673.04C1522.02,-682.27 1550.46,-694.83 1574.4,-705.41"/>
<polygon fill="black" stroke="black" points="1572.75,-708.5 1583.31,-709.34 1575.57,-702.1 1572.75,-708.5"/>
</g>
<!-- l4_loopback_output&#45;&gt;loopback_output -->
<g id="edge71" class="edge">
<title>l4_loopback_output&#45;&gt;loopback_output</title>
<path fill="none" stroke="black" d="M1682.95,-780C1693.59,-780 1704.69,-780 1715.4,-780"/>
<polygon fill="black" stroke="black" points="1715.31,-783.5 1725.31,-780 1715.31,-776.5 1715.31,-783.5"/>
</g>
</g>
</svg>
