<?xml version="1.0" encoding="UTF-8" standalone="no"?>
<!DOCTYPE svg PUBLIC "-//W3C//DTD SVG 1.1//EN"
 "http://www.w3.org/Graphics/SVG/1.1/DTD/svg11.dtd">
<!-- Generated by graphviz version 12.2.1 (20241206.2353)
 -->
<!-- Title: gr&#45;0002 Pages: 1 -->
<svg width="1713pt" height="1071pt"
 viewBox="0.00 0.00 1713.39 1071.00" xmlns="http://www.w3.org/2000/svg" xmlns:xlink="http://www.w3.org/1999/xlink">
<g id="graph0" class="graph" transform="scale(1 1) rotate(0) translate(4 1067)">
<title>gr&#45;0002</title>
<polygon fill="white" stroke="none" points="-4,4 -4,-1067 1709.39,-1067 1709.39,4 -4,4"/>
<!-- dnat44_dynamic -->
<g id="node1" class="node">
<title>dnat44_dynamic</title>
<ellipse fill="none" stroke="black" cx="52.15" cy="-170" rx="52.15" ry="18"/>
<text text-anchor="middle" x="52.15" y="-166.3" font-family="sans" font-size="11.00">dnat44_dynamic</text>
</g>
<!-- ip_forward -->
<g id="node2" class="node">
<title>ip_forward</title>
<ellipse fill="none" stroke="black" cx="181.93" cy="-170" rx="33.62" ry="18"/>
<text text-anchor="middle" x="181.93" y="-166.3" font-family="sans" font-size="11.00">ip_forward</text>
</g>
<!-- dnat44_dynamic&#45;&gt;ip_forward -->
<g id="edge1" class="edge">
<title>dnat44_dynamic&#45;&gt;ip_forward</title>
<path fill="none" stroke="black" d="M104.75,-170C115.32,-170 126.35,-170 136.64,-170"/>
<polygon fill="black" stroke="black" points="136.35,-173.5 146.35,-170 136.35,-166.5 136.35,-173.5"/>
</g>
<!-- ip_input_local -->
<g id="node3" class="node">
<title>ip_input_local</title>
<ellipse fill="none" stroke="black" cx="1105.08" cy="-182" rx="42.89" ry="18"/>
<text text-anchor="middle" x="1105.08" y="-178.3" font-family="sans" font-size="11.00">ip_input_local</text>
</g>
<!-- dnat44_dynamic&#45;&gt;ip_input_local -->
<g id="edge2" class="edge">
<title>dnat44_dynamic&#45;&gt;ip_input_local</title>
<path fill="none" stroke="black" d="M75.53,-153.44C118.1,-123.62 214.66,-64 306.07,-64 306.07,-64 306.07,-64 560.46,-64 770.85,-64 823.63,-92.68 1025.77,-151 1038.6,-154.7 1052.23,-159.7 1064.46,-164.61"/>
<polygon fill="black" stroke="black" points="1062.82,-167.72 1073.4,-168.28 1065.48,-161.24 1062.82,-167.72"/>
</g>
<!-- ip_output -->
<g id="node11" class="node">
<title>ip_output</title>
<ellipse fill="none" stroke="black" cx="307.07" cy="-361" rx="30.25" ry="18"/>
<text text-anchor="middle" x="307.07" y="-357.3" font-family="sans" font-size="11.00">ip_output</text>
</g>
<!-- ip_forward&#45;&gt;ip_output -->
<g id="edge36" class="edge">
<title>ip_forward&#45;&gt;ip_output</title>
<path fill="none" stroke="black" d="M194.07,-187.29C215.69,-220.82 263.45,-294.9 289.06,-334.62"/>
<polygon fill="black" stroke="black" points="286.03,-336.38 294.39,-342.89 291.91,-332.59 286.03,-336.38"/>
</g>
<!-- icmp_input -->
<g id="node28" class="node">
<title>icmp_input</title>
<ellipse fill="none" stroke="black" cx="1227.28" cy="-186" rx="34.89" ry="18"/>
<text text-anchor="middle" x="1227.28" y="-182.3" font-family="sans" font-size="11.00">icmp_input</text>
</g>
<!-- ip_input_local&#45;&gt;icmp_input -->
<g id="edge43" class="edge">
<title>ip_input_local&#45;&gt;icmp_input</title>
<path fill="none" stroke="black" d="M1148.12,-183.4C1158.66,-183.75 1170.02,-184.13 1180.72,-184.48"/>
<polygon fill="black" stroke="black" points="1180.38,-187.97 1190.49,-184.81 1180.61,-180.98 1180.38,-187.97"/>
</g>
<!-- ipip_input -->
<g id="node31" class="node">
<title>ipip_input</title>
<ellipse fill="none" stroke="black" cx="1227.28" cy="-132" rx="31.1" ry="18"/>
<text text-anchor="middle" x="1227.28" y="-128.3" font-family="sans" font-size="11.00">ipip_input</text>
</g>
<!-- ip_input_local&#45;&gt;ipip_input -->
<g id="edge44" class="edge">
<title>ip_input_local&#45;&gt;ipip_input</title>
<path fill="none" stroke="black" d="M1136.41,-169.38C1153,-162.48 1173.63,-153.9 1190.94,-146.7"/>
<polygon fill="black" stroke="black" points="1191.94,-150.07 1199.83,-143 1189.25,-143.61 1191.94,-150.07"/>
</g>
<!-- l4_input_local -->
<g id="node32" class="node">
<title>l4_input_local</title>
<ellipse fill="none" stroke="black" cx="1227.28" cy="-243" rx="42.89" ry="18"/>
<text text-anchor="middle" x="1227.28" y="-239.3" font-family="sans" font-size="11.00">l4_input_local</text>
</g>
<!-- ip_input_local&#45;&gt;l4_input_local -->
<g id="edge45" class="edge">
<title>ip_input_local&#45;&gt;l4_input_local</title>
<path fill="none" stroke="black" d="M1133.36,-195.84C1149.8,-204.19 1170.97,-214.93 1188.95,-224.06"/>
<polygon fill="black" stroke="black" points="1187.26,-227.12 1197.76,-228.53 1190.43,-220.88 1187.26,-227.12"/>
</g>
<!-- dnat44_static -->
<g id="node4" class="node">
<title>dnat44_static</title>
<ellipse fill="none" stroke="black" cx="979.1" cy="-178" rx="43.31" ry="18"/>
<text text-anchor="middle" x="979.1" y="-174.3" font-family="sans" font-size="11.00">dnat44_static</text>
</g>
<!-- dnat44_static&#45;&gt;ip_forward -->
<g id="edge3" class="edge">
<title>dnat44_static&#45;&gt;ip_forward</title>
<path fill="none" stroke="black" d="M935.77,-175.8C868.91,-172.46 734.74,-166.23 620.87,-164 566.29,-162.93 552.63,-163.48 498.04,-164 401.35,-164.92 287.99,-167.43 227.05,-168.89"/>
<polygon fill="black" stroke="black" points="227.01,-165.39 217.1,-169.14 227.18,-172.39 227.01,-165.39"/>
</g>
<!-- dnat44_static&#45;&gt;ip_input_local -->
<g id="edge4" class="edge">
<title>dnat44_static&#45;&gt;ip_input_local</title>
<path fill="none" stroke="black" d="M1022.77,-179.38C1031.83,-179.67 1041.51,-179.98 1050.91,-180.28"/>
<polygon fill="black" stroke="black" points="1050.55,-183.77 1060.66,-180.6 1050.78,-176.78 1050.55,-183.77"/>
</g>
<!-- control_input -->
<g id="node5" class="node">
<title>control_input</title>
<ellipse fill="none" stroke="blue" stroke-width="2" cx="181.93" cy="-817" rx="41.62" ry="18"/>
<text text-anchor="middle" x="181.93" y="-813.3" font-family="sans" font-size="11.00">control_input</text>
</g>
<!-- loopback_input -->
<g id="node6" class="node">
<title>loopback_input</title>
<ellipse fill="none" stroke="black" cx="307.07" cy="-674" rx="47.52" ry="18"/>
<text text-anchor="middle" x="307.07" y="-670.3" font-family="sans" font-size="11.00">loopback_input</text>
</g>
<!-- control_input&#45;&gt;loopback_input -->
<g id="edge5" class="edge">
<title>control_input&#45;&gt;loopback_input</title>
<path fill="none" stroke="blue" stroke-width="2" d="M192.7,-799.22C205.88,-776.24 231.04,-735.76 259.55,-707 263.36,-703.16 267.66,-699.45 272.07,-696"/>
<polygon fill="blue" stroke="blue" stroke-width="2" points="272.74,-699.86 278.71,-691.11 268.59,-694.22 272.74,-699.86"/>
</g>
<!-- arp_output_request -->
<g id="node7" class="node">
<title>arp_output_request</title>
<ellipse fill="none" stroke="black" cx="559.46" cy="-987" rx="61.42" ry="18"/>
<text text-anchor="middle" x="559.46" y="-983.3" font-family="sans" font-size="11.00">arp_output_request</text>
</g>
<!-- control_input&#45;&gt;arp_output_request -->
<g id="edge6" class="edge">
<title>control_input&#45;&gt;arp_output_request</title>
<path fill="none" stroke="blue" stroke-width="2" d="M187.18,-835.01C195.41,-865.46 216.6,-926.54 259.55,-955 329.01,-1001.03 428.1,-1002.09 492.84,-996.37"/>
<polygon fill="blue" stroke="blue" stroke-width="2" points="491.48,-1000.02 501.1,-995.57 490.81,-993.05 491.48,-1000.02"/>
</g>
<!-- icmp_local_send -->
<g id="node8" class="node">
<title>icmp_local_send</title>
<ellipse fill="none" stroke="black" cx="559.46" cy="-18" rx="51.31" ry="18"/>
<text text-anchor="middle" x="559.46" y="-14.3" font-family="sans" font-size="11.00">icmp_local_send</text>
</g>
<!-- control_input&#45;&gt;icmp_local_send -->
<g id="edge7" class="edge">
<title>control_input&#45;&gt;icmp_local_send</title>
<path fill="none" stroke="blue" stroke-width="2" d="M184.37,-798.71C190.75,-721.04 217.83,-418.74 259.55,-334 324.58,-201.89 463.96,-87.7 526.7,-40.78"/>
<polygon fill="blue" stroke="blue" stroke-width="2" points="527.35,-44.65 533.3,-35.89 523.18,-39.03 527.35,-44.65"/>
</g>
<!-- icmp6_local_send -->
<g id="node9" class="node">
<title>icmp6_local_send</title>
<ellipse fill="none" stroke="black" cx="711.97" cy="-903" rx="55.1" ry="18"/>
<text text-anchor="middle" x="711.97" y="-899.3" font-family="sans" font-size="11.00">icmp6_local_send</text>
</g>
<!-- control_input&#45;&gt;icmp6_local_send -->
<g id="edge8" class="edge">
<title>control_input&#45;&gt;icmp6_local_send</title>
<path fill="none" stroke="blue" stroke-width="2" d="M206.87,-831.64C221.54,-839.89 241.01,-849.61 259.55,-855 392.76,-893.76 556.22,-901.91 645.34,-903.22"/>
<polygon fill="blue" stroke="blue" stroke-width="2" points="643.56,-906.7 653.6,-903.32 643.64,-899.7 643.56,-906.7"/>
</g>
<!-- ndp_ns_output -->
<g id="node10" class="node">
<title>ndp_ns_output</title>
<ellipse fill="none" stroke="black" cx="849.75" cy="-827" rx="46.26" ry="18"/>
<text text-anchor="middle" x="849.75" y="-823.3" font-family="sans" font-size="11.00">ndp_ns_output</text>
</g>
<!-- control_input&#45;&gt;ndp_ns_output -->
<g id="edge9" class="edge">
<title>control_input&#45;&gt;ndp_ns_output</title>
<path fill="none" stroke="blue" stroke-width="2" d="M223.64,-817.07C338.06,-817.31 661.03,-818.3 767.07,-822 775.27,-822.29 783.92,-822.7 792.41,-823.16"/>
<polygon fill="blue" stroke="blue" stroke-width="2" points="790.62,-826.56 800.81,-823.65 791.03,-819.58 790.62,-826.56"/>
</g>
<!-- control_input&#45;&gt;ip_output -->
<g id="edge10" class="edge">
<title>control_input&#45;&gt;ip_output</title>
<path fill="none" stroke="blue" stroke-width="2" d="M187.83,-798.84C206.75,-728.76 275.14,-475.51 298.32,-389.68"/>
<polygon fill="blue" stroke="blue" stroke-width="2" points="301.27,-392.2 300.49,-381.64 294.51,-390.38 301.27,-392.2"/>
</g>
<!-- arp_output_reply -->
<g id="node12" class="node">
<title>arp_output_reply</title>
<ellipse fill="none" stroke="black" cx="559.46" cy="-1041" rx="53.41" ry="18"/>
<text text-anchor="middle" x="559.46" y="-1037.3" font-family="sans" font-size="11.00">arp_output_reply</text>
</g>
<!-- control_input&#45;&gt;arp_output_reply -->
<g id="edge11" class="edge">
<title>control_input&#45;&gt;arp_output_reply</title>
<path fill="none" stroke="blue" stroke-width="2" d="M185.55,-835.24C191.66,-870.53 210.24,-948.1 259.55,-987 327.12,-1040.3 430.01,-1047.59 495.74,-1045.87"/>
<polygon fill="blue" stroke="blue" stroke-width="2" points="494.26,-1049.42 504.13,-1045.58 494.01,-1042.43 494.26,-1049.42"/>
</g>
<!-- ip6_output -->
<g id="node13" class="node">
<title>ip6_output</title>
<ellipse fill="none" stroke="black" cx="1227.28" cy="-587" rx="34.04" ry="18"/>
<text text-anchor="middle" x="1227.28" y="-583.3" font-family="sans" font-size="11.00">ip6_output</text>
</g>
<!-- control_input&#45;&gt;ip6_output -->
<g id="edge12" class="edge">
<title>control_input&#45;&gt;ip6_output</title>
<path fill="none" stroke="blue" stroke-width="2" d="M216.45,-806.51C318.68,-781.31 635.43,-718.28 896.42,-659 999.28,-635.64 1119.43,-605.38 1182.5,-592.34"/>
<polygon fill="blue" stroke="blue" stroke-width="2" points="1181.51,-596.11 1190.63,-590.7 1180.13,-589.24 1181.51,-596.11"/>
</g>
<!-- control_input&#45;&gt;ip6_output -->
<g id="edge14" class="edge">
<title>control_input&#45;&gt;ip6_output</title>
<path fill="none" stroke="blue" stroke-width="2" d="M222.87,-813.39C331.39,-796.78 640.67,-735.09 896.42,-677 1003.38,-652.71 1129.06,-620.95 1189.78,-601.95"/>
<polygon fill="blue" stroke="blue" stroke-width="2" points="1189.36,-605.76 1197.81,-599.37 1187.21,-599.1 1189.36,-605.76"/>
</g>
<!-- ndp_na_output -->
<g id="node14" class="node">
<title>ndp_na_output</title>
<ellipse fill="none" stroke="black" cx="979.1" cy="-936" rx="46.68" ry="18"/>
<text text-anchor="middle" x="979.1" y="-932.3" font-family="sans" font-size="11.00">ndp_na_output</text>
</g>
<!-- control_input&#45;&gt;ndp_na_output -->
<g id="edge13" class="edge">
<title>control_input&#45;&gt;ndp_na_output</title>
<path fill="none" stroke="blue" stroke-width="2" d="M198.23,-833.8C212.59,-848.44 235.41,-869.01 259.55,-880 313.29,-904.47 332.07,-894.02 390.59,-902 508.5,-918.08 538.1,-922.66 656.87,-930 748.98,-935.69 856.21,-936.53 920.54,-936.42"/>
<polygon fill="blue" stroke="blue" stroke-width="2" points="919.02,-939.92 929.01,-936.39 919,-932.92 919.02,-939.92"/>
</g>
<!-- eth_input -->
<g id="node16" class="node">
<title>eth_input</title>
<ellipse fill="none" stroke="black" cx="426.31" cy="-663" rx="30.25" ry="18"/>
<text text-anchor="middle" x="426.31" y="-659.3" font-family="sans" font-size="11.00">eth_input</text>
</g>
<!-- loopback_input&#45;&gt;eth_input -->
<g id="edge20" class="edge">
<title>loopback_input&#45;&gt;eth_input</title>
<path fill="none" stroke="black" d="M353.73,-669.72C363.99,-668.75 374.81,-667.74 384.84,-666.8"/>
<polygon fill="black" stroke="black" points="385.04,-670.29 394.67,-665.88 384.38,-663.32 385.04,-670.29"/>
</g>
<!-- eth_output -->
<g id="node20" class="node">
<title>eth_output</title>
<ellipse fill="none" stroke="black" cx="1366.74" cy="-987" rx="34.89" ry="18"/>
<text text-anchor="middle" x="1366.74" y="-983.3" font-family="sans" font-size="11.00">eth_output</text>
</g>
<!-- arp_output_request&#45;&gt;eth_output -->
<g id="edge31" class="edge">
<title>arp_output_request&#45;&gt;eth_output</title>
<path fill="none" stroke="black" d="M621.2,-987C679.54,-987 770.17,-987 848.75,-987 848.75,-987 848.75,-987 1106.08,-987 1181.15,-987 1268.43,-987 1320.27,-987"/>
<polygon fill="black" stroke="black" points="1320.2,-990.5 1330.2,-987 1320.2,-983.5 1320.2,-990.5"/>
</g>
<!-- icmp_output -->
<g id="node29" class="node">
<title>icmp_output</title>
<ellipse fill="none" stroke="black" cx="1366.74" cy="-56" rx="39.52" ry="18"/>
<text text-anchor="middle" x="1366.74" y="-52.3" font-family="sans" font-size="11.00">icmp_output</text>
</g>
<!-- icmp_local_send&#45;&gt;icmp_output -->
<g id="edge34" class="edge">
<title>icmp_local_send&#45;&gt;icmp_output</title>
<path fill="none" stroke="black" d="M611.23,-18C668.82,-18 765.54,-18 848.75,-18 848.75,-18 848.75,-18 1106.08,-18 1181.69,-18 1268.38,-33.97 1320.02,-45.2"/>
<polygon fill="black" stroke="black" points="1319.12,-48.59 1329.64,-47.33 1320.63,-41.75 1319.12,-48.59"/>
</g>
<!-- icmp6_output -->
<g id="node36" class="node">
<title>icmp6_output</title>
<ellipse fill="none" stroke="black" cx="1105.08" cy="-827" rx="43.31" ry="18"/>
<text text-anchor="middle" x="1105.08" y="-823.3" font-family="sans" font-size="11.00">icmp6_output</text>
</g>
<!-- icmp6_local_send&#45;&gt;icmp6_output -->
<g id="edge57" class="edge">
<title>icmp6_local_send&#45;&gt;icmp6_output</title>
<path fill="none" stroke="black" d="M760.15,-893.83C834.45,-879.39 978.09,-851.48 1054.1,-836.71"/>
<polygon fill="black" stroke="black" points="1054.62,-840.18 1063.77,-834.83 1053.28,-833.31 1054.62,-840.18"/>
</g>
<!-- ndp_ns_output&#45;&gt;icmp6_output -->
<g id="edge73" class="edge">
<title>ndp_ns_output&#45;&gt;icmp6_output</title>
<path fill="none" stroke="black" d="M896.33,-827C939.44,-827 1004.18,-827 1049.91,-827"/>
<polygon fill="black" stroke="black" points="1049.88,-830.5 1059.88,-827 1049.88,-823.5 1049.88,-830.5"/>
</g>
<!-- ip_output&#45;&gt;eth_output -->
<g id="edge46" class="edge">
<title>ip_output&#45;&gt;eth_output</title>
<path fill="none" stroke="black" d="M309.99,-379.01C317.03,-441.44 343.48,-647.05 390.59,-690 488.21,-779.02 845.98,-781 978.1,-781 978.1,-781 978.1,-781 1106.08,-781 1220.11,-781 1313.19,-904.44 1349.43,-960.21"/>
<polygon fill="black" stroke="black" points="1346.39,-961.96 1354.71,-968.51 1352.3,-958.2 1346.39,-961.96"/>
</g>
<!-- loop_xvrf -->
<g id="node24" class="node">
<title>loop_xvrf</title>
<ellipse fill="none" stroke="black" cx="426.31" cy="-454" rx="29.83" ry="18"/>
<text text-anchor="middle" x="426.31" y="-450.3" font-family="sans" font-size="11.00">loop_xvrf</text>
</g>
<!-- ip_output&#45;&gt;loop_xvrf -->
<g id="edge48" class="edge">
<title>ip_output&#45;&gt;loop_xvrf</title>
<path fill="none" stroke="black" d="M326.13,-375.33C345.46,-390.66 376.35,-415.16 398.51,-432.74"/>
<polygon fill="black" stroke="black" points="396.23,-435.4 406.24,-438.87 400.58,-429.91 396.23,-435.4"/>
</g>
<!-- ip_hold -->
<g id="node30" class="node">
<title>ip_hold</title>
<ellipse fill="none" stroke="black" cx="849.75" cy="-641" rx="27" ry="18"/>
<text text-anchor="middle" x="849.75" y="-637.3" font-family="sans" font-size="11.00">ip_hold</text>
</g>
<!-- ip_output&#45;&gt;ip_hold -->
<g id="edge47" class="edge">
<title>ip_output&#45;&gt;ip_hold</title>
<path fill="none" stroke="black" d="M315.2,-378.72C335.44,-426.31 398.31,-556.86 498.04,-609 601.29,-662.98 745.15,-654.33 811.95,-646.38"/>
<polygon fill="black" stroke="black" points="812.14,-649.88 821.62,-645.16 811.26,-642.94 812.14,-649.88"/>
</g>
<!-- ipip_output -->
<g id="node33" class="node">
<title>ipip_output</title>
<ellipse fill="none" stroke="black" cx="426.31" cy="-338" rx="35.73" ry="18"/>
<text text-anchor="middle" x="426.31" y="-334.3" font-family="sans" font-size="11.00">ipip_output</text>
</g>
<!-- ip_output&#45;&gt;ipip_output -->
<g id="edge49" class="edge">
<title>ip_output&#45;&gt;ipip_output</title>
<path fill="none" stroke="black" d="M332.36,-350.64C345.85,-346.96 363.09,-343.24 379.05,-340.46"/>
<polygon fill="black" stroke="black" points="379.57,-343.92 388.88,-338.86 378.45,-337.01 379.57,-343.92"/>
</g>
<!-- sr6_output -->
<g id="node34" class="node">
<title>sr6_output</title>
<ellipse fill="none" stroke="black" cx="1366.74" cy="-541" rx="34.46" ry="18"/>
<text text-anchor="middle" x="1366.74" y="-537.3" font-family="sans" font-size="11.00">sr6_output</text>
</g>
<!-- ip_output&#45;&gt;sr6_output -->
<g id="edge50" class="edge">
<title>ip_output&#45;&gt;sr6_output</title>
<path fill="none" stroke="black" d="M337.35,-362.41C452.61,-368.03 870.05,-388.99 896.42,-399 915.37,-406.19 914.28,-417.95 932.42,-427 985.72,-453.58 1004.21,-446.73 1061.77,-462 1155.65,-486.9 1266.05,-515.4 1324.53,-530.43"/>
<polygon fill="black" stroke="black" points="1323.49,-533.78 1334.04,-532.87 1325.23,-527 1323.49,-533.78"/>
</g>
<!-- arp_output_reply&#45;&gt;eth_output -->
<g id="edge30" class="edge">
<title>arp_output_reply&#45;&gt;eth_output</title>
<path fill="none" stroke="black" d="M611.7,-1036.44C669.31,-1031.71 765.66,-1025 848.75,-1025 848.75,-1025 848.75,-1025 1106.08,-1025 1183.59,-1025 1272.76,-1008.22 1323.86,-996.96"/>
<polygon fill="black" stroke="black" points="1324.31,-1000.44 1333.3,-994.84 1322.77,-993.61 1324.31,-1000.44"/>
</g>
<!-- ip6_output&#45;&gt;eth_output -->
<g id="edge66" class="edge">
<title>ip6_output&#45;&gt;eth_output</title>
<path fill="none" stroke="black" d="M1234.45,-604.96C1256.16,-668.15 1329.15,-880.54 1355.85,-958.22"/>
<polygon fill="black" stroke="black" points="1352.53,-959.33 1359.09,-967.65 1359.15,-957.06 1352.53,-959.33"/>
</g>
<!-- ip6_output&#45;&gt;loop_xvrf -->
<g id="edge68" class="edge">
<title>ip6_output&#45;&gt;loop_xvrf</title>
<path fill="none" stroke="black" d="M1193.24,-588.76C1146,-591.11 1056.43,-595 980.1,-595 710.97,-595 710.97,-595 710.97,-595 605.79,-595 499.45,-516.31 452.39,-476.5"/>
<polygon fill="black" stroke="black" points="454.79,-473.95 444.93,-470.08 450.22,-479.25 454.79,-473.95"/>
</g>
<!-- ip6_output&#45;&gt;sr6_output -->
<g id="edge69" class="edge">
<title>ip6_output&#45;&gt;sr6_output</title>
<path fill="none" stroke="black" d="M1251.59,-573.98C1270.97,-565.93 1299.06,-556.16 1322.52,-549.14"/>
<polygon fill="black" stroke="black" points="1323.18,-552.6 1331.82,-546.45 1321.24,-545.87 1323.18,-552.6"/>
</g>
<!-- ip6_hold -->
<g id="node41" class="node">
<title>ip6_hold</title>
<ellipse fill="none" stroke="black" cx="1520.09" cy="-530" rx="27" ry="18"/>
<text text-anchor="middle" x="1520.09" y="-526.3" font-family="sans" font-size="11.00">ip6_hold</text>
</g>
<!-- ip6_output&#45;&gt;ip6_hold -->
<g id="edge67" class="edge">
<title>ip6_output&#45;&gt;ip6_hold</title>
<path fill="none" stroke="black" d="M1261.54,-586.82C1301.47,-585.93 1370.21,-582.21 1427.31,-568 1448.24,-562.79 1470.62,-553.61 1488.04,-545.57"/>
<polygon fill="black" stroke="black" points="1489.29,-548.85 1496.82,-541.41 1486.29,-542.53 1489.29,-548.85"/>
</g>
<!-- ndp_na_output&#45;&gt;icmp6_output -->
<g id="edge71" class="edge">
<title>ndp_na_output&#45;&gt;icmp6_output</title>
<path fill="none" stroke="black" d="M998.93,-919.45C1019.71,-901.17 1053.35,-871.6 1076.97,-850.84"/>
<polygon fill="black" stroke="black" points="1079.14,-853.58 1084.34,-844.35 1074.52,-848.33 1079.14,-853.58"/>
</g>
<!-- control_output -->
<g id="node15" class="node">
<title>control_output</title>
<ellipse fill="none" stroke="black" cx="1659.13" cy="-406" rx="46.26" ry="18"/>
<text text-anchor="middle" x="1659.13" y="-402.3" font-family="sans" font-size="11.00">control_output</text>
</g>
<!-- arp_input -->
<g id="node17" class="node">
<title>arp_input</title>
<ellipse fill="none" stroke="black" cx="1366.74" cy="-727" rx="30.25" ry="18"/>
<text text-anchor="middle" x="1366.74" y="-723.3" font-family="sans" font-size="11.00">arp_input</text>
</g>
<!-- eth_input&#45;&gt;arp_input -->
<g id="edge15" class="edge">
<title>eth_input&#45;&gt;arp_input</title>
<path fill="none" stroke="black" d="M456.69,-665C593.44,-674.33 1167.71,-713.49 1325.48,-724.25"/>
<polygon fill="black" stroke="black" points="1324.8,-727.72 1335.02,-724.91 1325.28,-720.73 1324.8,-727.72"/>
</g>
<!-- ip_input -->
<g id="node18" class="node">
<title>ip_input</title>
<ellipse fill="none" stroke="black" cx="849.75" cy="-224" rx="27" ry="18"/>
<text text-anchor="middle" x="849.75" y="-220.3" font-family="sans" font-size="11.00">ip_input</text>
</g>
<!-- eth_input&#45;&gt;ip_input -->
<g id="edge16" class="edge">
<title>eth_input&#45;&gt;ip_input</title>
<path fill="none" stroke="black" d="M428.61,-644.57C432.36,-604.77 446.5,-509.9 498.04,-454 538.35,-410.29 566.75,-425.62 620.87,-401 686.45,-371.17 711.17,-376.45 767.07,-331 795.03,-308.27 818.93,-274.1 833.53,-250.53"/>
<polygon fill="black" stroke="black" points="836.43,-252.49 838.6,-242.12 830.44,-248.88 836.43,-252.49"/>
</g>
<!-- ip6_input -->
<g id="node19" class="node">
<title>ip6_input</title>
<ellipse fill="none" stroke="black" cx="559.46" cy="-481" rx="29.41" ry="18"/>
<text text-anchor="middle" x="559.46" y="-477.3" font-family="sans" font-size="11.00">ip6_input</text>
</g>
<!-- eth_input&#45;&gt;ip6_input -->
<g id="edge17" class="edge">
<title>eth_input&#45;&gt;ip6_input</title>
<path fill="none" stroke="black" d="M439.18,-646.53C462.14,-614.66 512.77,-544.4 540.1,-506.47"/>
<polygon fill="black" stroke="black" points="542.63,-508.95 545.63,-498.79 536.95,-504.86 542.63,-508.95"/>
</g>
<!-- arp_input_request -->
<g id="node26" class="node">
<title>arp_input_request</title>
<ellipse fill="none" stroke="black" cx="1520.09" cy="-679" rx="56.78" ry="18"/>
<text text-anchor="middle" x="1520.09" y="-675.3" font-family="sans" font-size="11.00">arp_input_request</text>
</g>
<!-- arp_input&#45;&gt;arp_input_request -->
<g id="edge26" class="edge">
<title>arp_input&#45;&gt;arp_input_request</title>
<path fill="none" stroke="black" d="M1394.1,-718.64C1414.46,-712.18 1443.26,-703.05 1468.09,-695.18"/>
<polygon fill="black" stroke="black" points="1468.89,-698.59 1477.36,-692.23 1466.77,-691.92 1468.89,-698.59"/>
</g>
<!-- arp_input_reply -->
<g id="node27" class="node">
<title>arp_input_reply</title>
<ellipse fill="none" stroke="black" cx="1520.09" cy="-733" rx="48.78" ry="18"/>
<text text-anchor="middle" x="1520.09" y="-729.3" font-family="sans" font-size="11.00">arp_input_reply</text>
</g>
<!-- arp_input&#45;&gt;arp_input_reply -->
<g id="edge27" class="edge">
<title>arp_input&#45;&gt;arp_input_reply</title>
<path fill="none" stroke="black" d="M1397.28,-728.17C1415.07,-728.88 1438.37,-729.8 1459.82,-730.65"/>
<polygon fill="black" stroke="black" points="1459.52,-734.14 1469.65,-731.04 1459.79,-727.15 1459.52,-734.14"/>
</g>
<!-- ip_input&#45;&gt;dnat44_dynamic -->
<g id="edge39" class="edge">
<title>ip_input&#45;&gt;dnat44_dynamic</title>
<path fill="none" stroke="black" d="M822.52,-222.78C771.87,-220.55 657.09,-216 560.46,-216 306.07,-216 306.07,-216 306.07,-216 231.91,-216 212.87,-212.26 140.3,-197 127.23,-194.25 113.32,-190.39 100.54,-186.44"/>
<polygon fill="black" stroke="black" points="101.68,-183.13 91.09,-183.43 99.55,-189.8 101.68,-183.13"/>
</g>
<!-- ip_input&#45;&gt;ip_forward -->
<g id="edge38" class="edge">
<title>ip_input&#45;&gt;ip_forward</title>
<path fill="none" stroke="black" d="M824.66,-216.51C808.51,-211.73 786.68,-205.76 767.07,-202 676.28,-184.6 652.9,-178 560.46,-178 425.31,-178 425.31,-178 425.31,-178 356.08,-178 275.78,-174.7 227.19,-172.34"/>
<polygon fill="black" stroke="black" points="227.52,-168.85 217.36,-171.85 227.17,-175.84 227.52,-168.85"/>
</g>
<!-- ip_input&#45;&gt;ip_input_local -->
<g id="edge41" class="edge">
<title>ip_input&#45;&gt;ip_input_local</title>
<path fill="none" stroke="black" d="M877.06,-222.6C911.5,-220.44 973.62,-215.4 1025.77,-205 1037.03,-202.75 1049,-199.63 1060.11,-196.4"/>
<polygon fill="black" stroke="black" points="1060.85,-199.83 1069.42,-193.61 1058.84,-193.13 1060.85,-199.83"/>
</g>
<!-- ip_input&#45;&gt;dnat44_static -->
<g id="edge42" class="edge">
<title>ip_input&#45;&gt;dnat44_static</title>
<path fill="none" stroke="black" d="M874.1,-215.56C891.15,-209.41 914.74,-200.89 935.14,-193.52"/>
<polygon fill="black" stroke="black" points="936.14,-196.88 944.35,-190.19 933.76,-190.29 936.14,-196.88"/>
</g>
<!-- ip_input&#45;&gt;ip_output -->
<g id="edge40" class="edge">
<title>ip_input&#45;&gt;ip_output</title>
<path fill="none" stroke="black" d="M822.53,-225.71C751.03,-231.05 547.44,-250.84 390.59,-311 371.34,-318.38 351.53,-330.22 336.15,-340.52"/>
<polygon fill="black" stroke="black" points="334.22,-337.6 327.97,-346.15 338.19,-343.36 334.22,-337.6"/>
</g>
<!-- ip6_input&#45;&gt;ip6_output -->
<g id="edge61" class="edge">
<title>ip6_input&#45;&gt;ip6_output</title>
<path fill="none" stroke="black" d="M583.82,-491.57C632.2,-512.45 747.3,-557 848.75,-557 848.75,-557 848.75,-557 980.1,-557 1052.05,-557 1134.96,-569.78 1183.86,-578.66"/>
<polygon fill="black" stroke="black" points="1182.99,-582.06 1193.46,-580.44 1184.26,-575.17 1182.99,-582.06"/>
</g>
<!-- ip6_forward -->
<g id="node40" class="node">
<title>ip6_forward</title>
<ellipse fill="none" stroke="black" cx="979.1" cy="-511" rx="37.41" ry="18"/>
<text text-anchor="middle" x="979.1" y="-507.3" font-family="sans" font-size="11.00">ip6_forward</text>
</g>
<!-- ip6_input&#45;&gt;ip6_forward -->
<g id="edge60" class="edge">
<title>ip6_input&#45;&gt;ip6_forward</title>
<path fill="none" stroke="black" d="M589.16,-483.06C659.82,-488.14 842.73,-501.28 930.17,-507.56"/>
<polygon fill="black" stroke="black" points="929.87,-511.04 940.09,-508.27 930.37,-504.06 929.87,-511.04"/>
</g>
<!-- ip6_input_local -->
<g id="node42" class="node">
<title>ip6_input_local</title>
<ellipse fill="none" stroke="black" cx="849.75" cy="-426" rx="46.68" ry="18"/>
<text text-anchor="middle" x="849.75" y="-422.3" font-family="sans" font-size="11.00">ip6_input_local</text>
</g>
<!-- ip6_input&#45;&gt;ip6_input_local -->
<g id="edge62" class="edge">
<title>ip6_input&#45;&gt;ip6_input_local</title>
<path fill="none" stroke="black" d="M589.02,-481.26C629.36,-480.98 705,-478.08 767.07,-462 781.98,-458.14 797.63,-451.84 811.2,-445.59"/>
<polygon fill="black" stroke="black" points="812.69,-448.76 820.21,-441.29 809.68,-442.44 812.69,-448.76"/>
</g>
<!-- sr6_local -->
<g id="node43" class="node">
<title>sr6_local</title>
<ellipse fill="none" stroke="black" cx="711.97" cy="-435" rx="28.57" ry="18"/>
<text text-anchor="middle" x="711.97" y="-431.3" font-family="sans" font-size="11.00">sr6_local</text>
</g>
<!-- ip6_input&#45;&gt;sr6_local -->
<g id="edge63" class="edge">
<title>ip6_input&#45;&gt;sr6_local</title>
<path fill="none" stroke="black" d="M582.34,-469.38C605.95,-460.16 644,-448.18 672.6,-440.76"/>
<polygon fill="black" stroke="black" points="673.11,-444.24 681.97,-438.42 671.42,-437.44 673.11,-444.24"/>
</g>
<!-- port_tx -->
<g id="node21" class="node">
<title>port_tx</title>
<ellipse fill="none" stroke="black" cx="1520.09" cy="-1025" rx="27" ry="18"/>
<text text-anchor="middle" x="1520.09" y="-1021.3" font-family="sans" font-size="11.00">port_tx</text>
</g>
<!-- eth_output&#45;&gt;port_tx -->
<g id="edge18" class="edge">
<title>eth_output&#45;&gt;port_tx</title>
<path fill="none" stroke="black" d="M1398.73,-994.78C1423.33,-1000.96 1457.75,-1009.6 1483.48,-1016.06"/>
<polygon fill="black" stroke="black" points="1482.6,-1019.45 1493.15,-1018.49 1484.31,-1012.66 1482.6,-1019.45"/>
</g>
<!-- l1_xconnect -->
<g id="node22" class="node">
<title>l1_xconnect</title>
<ellipse fill="none" stroke="black" cx="711.97" cy="-849" rx="38.25" ry="18"/>
<text text-anchor="middle" x="711.97" y="-845.3" font-family="sans" font-size="11.00">l1_xconnect</text>
</g>
<!-- l1_xconnect&#45;&gt;port_tx -->
<g id="edge19" class="edge">
<title>l1_xconnect&#45;&gt;port_tx</title>
<path fill="none" stroke="black" d="M741,-861.25C749.63,-865.48 758.98,-870.54 767.07,-876 870.92,-946.14 852.78,-1063 978.1,-1063 978.1,-1063 978.1,-1063 1228.28,-1063 1320.54,-1063 1427.9,-1043.96 1482.75,-1032.84"/>
<polygon fill="black" stroke="black" points="1483.38,-1036.28 1492.47,-1030.83 1481.97,-1029.42 1483.38,-1036.28"/>
</g>
<!-- loopback_output -->
<g id="node23" class="node">
<title>loopback_output</title>
<ellipse fill="none" stroke="black" cx="1520.09" cy="-250" rx="52.15" ry="18"/>
<text text-anchor="middle" x="1520.09" y="-246.3" font-family="sans" font-size="11.00">loopback_output</text>
</g>
<!-- loopback_output&#45;&gt;control_output -->
<g id="edge21" class="edge">
<title>loopback_output&#45;&gt;control_output</title>
<path fill="none" stroke="black" d="M1548.77,-265.38C1558.28,-271.41 1568.6,-278.84 1576.88,-287 1604.74,-314.49 1628.89,-352.82 1643.46,-378.48"/>
<polygon fill="black" stroke="black" points="1640.27,-379.94 1648.19,-386.98 1646.39,-376.54 1640.27,-379.94"/>
</g>
<!-- loop_xvrf&#45;&gt;ip_input -->
<g id="edge22" class="edge">
<title>loop_xvrf&#45;&gt;ip_input</title>
<path fill="none" stroke="black" d="M448.07,-441.28C462.02,-432.91 480.91,-421.89 498.04,-413 614.9,-352.36 654.97,-358.04 767.07,-289 787.58,-276.37 808.81,-259.33 824.48,-245.87"/>
<polygon fill="black" stroke="black" points="826.65,-248.62 831.88,-239.41 822.04,-243.35 826.65,-248.62"/>
</g>
<!-- loop_xvrf&#45;&gt;ip6_input -->
<g id="edge23" class="edge">
<title>loop_xvrf&#45;&gt;ip6_input</title>
<path fill="none" stroke="black" d="M455.13,-459.73C474.03,-463.62 499.29,-468.82 520.1,-473.1"/>
<polygon fill="black" stroke="black" points="519.15,-476.48 529.65,-475.07 520.56,-469.62 519.15,-476.48"/>
</g>
<!-- port_rx -->
<g id="node25" class="node">
<title>port_rx</title>
<ellipse fill="none" stroke="blue" stroke-width="2" cx="307.07" cy="-734" rx="27" ry="18"/>
<text text-anchor="middle" x="307.07" y="-730.3" font-family="sans" font-size="11.00">port_rx</text>
</g>
<!-- port_rx&#45;&gt;eth_input -->
<g id="edge24" class="edge">
<title>port_rx&#45;&gt;eth_input</title>
<path fill="none" stroke="blue" stroke-width="2" d="M327.69,-722.12C345.95,-711.06 373.46,-694.4 394.62,-681.58"/>
<polygon fill="blue" stroke="blue" stroke-width="2" points="395.11,-685.38 401.85,-677.21 391.48,-679.4 395.11,-685.38"/>
</g>
<!-- port_rx&#45;&gt;l1_xconnect -->
<g id="edge25" class="edge">
<title>port_rx&#45;&gt;l1_xconnect</title>
<path fill="none" stroke="blue" stroke-width="2" d="M332.36,-740.93C398.56,-759.83 582.82,-812.42 667.45,-836.58"/>
<polygon fill="blue" stroke="blue" stroke-width="2" points="664.98,-839.51 675.56,-838.89 666.9,-832.78 664.98,-839.51"/>
</g>
<!-- arp_input_request&#45;&gt;control_output -->
<g id="edge29" class="edge">
<title>arp_input_request&#45;&gt;control_output</title>
<path fill="none" stroke="black" d="M1555.32,-664.55C1563.25,-659.9 1571.07,-654.07 1576.88,-647 1629.06,-583.46 1648.32,-484.84 1654.94,-435.79"/>
<polygon fill="black" stroke="black" points="1658.41,-436.3 1656.18,-425.95 1651.46,-435.43 1658.41,-436.3"/>
</g>
<!-- arp_input_reply&#45;&gt;control_output -->
<g id="edge28" class="edge">
<title>arp_input_reply&#45;&gt;control_output</title>
<path fill="none" stroke="black" d="M1557.3,-721.06C1564.62,-717.23 1571.66,-712.29 1576.88,-706 1643.92,-625.14 1655.99,-493.8 1657.92,-435.5"/>
<polygon fill="black" stroke="black" points="1661.41,-435.8 1658.16,-425.72 1654.41,-435.63 1661.41,-435.8"/>
</g>
<!-- icmp_input&#45;&gt;control_output -->
<g id="edge33" class="edge">
<title>icmp_input&#45;&gt;control_output</title>
<path fill="none" stroke="black" d="M1260.35,-179.66C1326.55,-168.48 1480.2,-152.61 1576.88,-223 1627.26,-259.69 1646.93,-334.75 1654.19,-376.44"/>
<polygon fill="black" stroke="black" points="1650.72,-376.93 1655.76,-386.25 1657.63,-375.82 1650.72,-376.93"/>
</g>
<!-- icmp_input&#45;&gt;icmp_output -->
<g id="edge32" class="edge">
<title>icmp_input&#45;&gt;icmp_output</title>
<path fill="none" stroke="black" d="M1251.18,-172.7C1257.56,-168.61 1264.33,-163.89 1270.16,-159 1298.46,-135.28 1326.71,-103.6 1345.07,-81.66"/>
<polygon fill="black" stroke="black" points="1347.67,-84.01 1351.35,-74.08 1342.28,-79.55 1347.67,-84.01"/>
</g>
<!-- icmp_output&#45;&gt;ip_output -->
<g id="edge35" class="edge">
<title>icmp_output&#45;&gt;ip_output</title>
<path fill="none" stroke="black" d="M1327.02,-56C1276.28,-56 1184.52,-56 1106.08,-56 978.1,-56 978.1,-56 978.1,-56 698.01,-56 627.82,-135.1 390.59,-284 367.41,-298.55 344.96,-320.14 329.34,-336.76"/>
<polygon fill="black" stroke="black" points="327.05,-334.09 322.86,-343.82 332.2,-338.82 327.05,-334.09"/>
</g>
<!-- ip_hold&#45;&gt;control_output -->
<g id="edge37" class="edge">
<title>ip_hold&#45;&gt;control_output</title>
<path fill="none" stroke="black" d="M877,-639.62C922.99,-637.34 1021.13,-633 1104.08,-633 1104.08,-633 1104.08,-633 1367.74,-633 1466.63,-633 1502.06,-621.68 1576.88,-557 1615.12,-523.94 1638.38,-468.3 1649.71,-434.58"/>
<polygon fill="black" stroke="black" points="1652.9,-436.09 1652.63,-425.49 1646.24,-433.94 1652.9,-436.09"/>
</g>
<!-- ipip_input&#45;&gt;ip_input -->
<g id="edge75" class="edge">
<title>ipip_input&#45;&gt;ip_input</title>
<path fill="none" stroke="black" d="M1196.91,-127.8C1142.35,-121.3 1022.71,-113.15 932.42,-151 907.48,-161.46 885.04,-182.82 870.03,-199.75"/>
<polygon fill="black" stroke="black" points="867.7,-197.09 863.86,-206.97 873.02,-201.64 867.7,-197.09"/>
</g>
<!-- l4_loopback_output -->
<g id="node44" class="node">
<title>l4_loopback_output</title>
<ellipse fill="none" stroke="black" cx="1366.74" cy="-247" rx="60.57" ry="18"/>
<text text-anchor="middle" x="1366.74" y="-243.3" font-family="sans" font-size="11.00">l4_loopback_output</text>
</g>
<!-- l4_input_local&#45;&gt;l4_loopback_output -->
<g id="edge77" class="edge">
<title>l4_input_local&#45;&gt;l4_loopback_output</title>
<path fill="none" stroke="black" d="M1270.27,-244.22C1278.03,-244.45 1286.33,-244.69 1294.68,-244.93"/>
<polygon fill="black" stroke="black" points="1294.43,-248.43 1304.53,-245.22 1294.63,-241.43 1294.43,-248.43"/>
</g>
<!-- ipip_output&#45;&gt;ip_output -->
<g id="edge76" class="edge">
<title>ipip_output&#45;&gt;ip_output</title>
<path fill="none" stroke="black" d="M397.75,-349.23C383.22,-353.04 365.11,-356.81 348.97,-359.44"/>
<polygon fill="black" stroke="black" points="348.52,-355.97 339.15,-360.92 349.56,-362.89 348.52,-355.97"/>
</g>
<!-- sr6_output&#45;&gt;ip6_output -->
<g id="edge82" class="edge">
<title>sr6_output&#45;&gt;ip6_output</title>
<path fill="none" stroke="black" d="M1342.3,-554.07C1322.87,-562.13 1294.72,-571.92 1271.25,-578.93"/>
<polygon fill="black" stroke="black" points="1270.59,-575.48 1261.96,-581.62 1272.54,-582.2 1270.59,-575.48"/>
</g>
<!-- icmp6_input -->
<g id="node35" class="node">
<title>icmp6_input</title>
<ellipse fill="none" stroke="black" cx="979.1" cy="-400" rx="38.68" ry="18"/>
<text text-anchor="middle" x="979.1" y="-396.3" font-family="sans" font-size="11.00">icmp6_input</text>
</g>
<!-- icmp6_input&#45;&gt;control_output -->
<g id="edge55" class="edge">
<title>icmp6_input&#45;&gt;control_output</title>
<path fill="none" stroke="black" d="M1000.3,-384.7C1016.1,-373.76 1039.11,-359.94 1061.77,-354 1099.01,-344.24 1109.93,-352.25 1148.39,-354 1339.42,-362.68 1387.14,-369.21 1576.88,-393 1586.05,-394.15 1595.77,-395.55 1605.19,-397"/>
<polygon fill="black" stroke="black" points="1604.54,-400.44 1614.96,-398.54 1605.63,-393.52 1604.54,-400.44"/>
</g>
<!-- icmp6_input&#45;&gt;icmp6_output -->
<g id="edge51" class="edge">
<title>icmp6_input&#45;&gt;icmp6_output</title>
<path fill="none" stroke="black" d="M991.37,-417.35C1001.66,-433.88 1016.62,-459.78 1025.77,-484 1067.99,-595.72 1091.4,-736.88 1100.1,-797.33"/>
<polygon fill="black" stroke="black" points="1096.63,-797.72 1101.48,-807.14 1103.56,-796.75 1096.63,-797.72"/>
</g>
<!-- ndp_ns_input -->
<g id="node37" class="node">
<title>ndp_ns_input</title>
<ellipse fill="none" stroke="black" cx="1227.28" cy="-297" rx="41.62" ry="18"/>
<text text-anchor="middle" x="1227.28" y="-293.3" font-family="sans" font-size="11.00">ndp_ns_input</text>
</g>
<!-- icmp6_input&#45;&gt;ndp_ns_input -->
<g id="edge52" class="edge">
<title>icmp6_input&#45;&gt;ndp_ns_input</title>
<path fill="none" stroke="black" d="M992.39,-382.93C1006.77,-364.37 1032.38,-335.44 1061.77,-321 1096.65,-303.86 1140.34,-298.11 1173.92,-296.51"/>
<polygon fill="black" stroke="black" points="1173.97,-300.01 1183.84,-296.16 1173.72,-293.02 1173.97,-300.01"/>
</g>
<!-- ndp_na_input -->
<g id="node38" class="node">
<title>ndp_na_input</title>
<ellipse fill="none" stroke="black" cx="1105.08" cy="-435" rx="42.04" ry="18"/>
<text text-anchor="middle" x="1105.08" y="-431.3" font-family="sans" font-size="11.00">ndp_na_input</text>
</g>
<!-- icmp6_input&#45;&gt;ndp_na_input -->
<g id="edge53" class="edge">
<title>icmp6_input&#45;&gt;ndp_na_input</title>
<path fill="none" stroke="black" d="M1012.67,-409.2C1026.65,-413.14 1043.21,-417.82 1058.38,-422.1"/>
<polygon fill="black" stroke="black" points="1057.09,-425.37 1067.66,-424.72 1058.99,-418.63 1057.09,-425.37"/>
</g>
<!-- ndp_rs_input -->
<g id="node39" class="node">
<title>ndp_rs_input</title>
<ellipse fill="none" stroke="black" cx="1105.08" cy="-381" rx="40.36" ry="18"/>
<text text-anchor="middle" x="1105.08" y="-377.3" font-family="sans" font-size="11.00">ndp_rs_input</text>
</g>
<!-- icmp6_input&#45;&gt;ndp_rs_input -->
<g id="edge54" class="edge">
<title>icmp6_input&#45;&gt;ndp_rs_input</title>
<path fill="none" stroke="black" d="M1016.29,-394.45C1028.46,-392.59 1042.23,-390.48 1055.2,-388.49"/>
<polygon fill="black" stroke="black" points="1055.48,-391.99 1064.84,-387.01 1054.42,-385.07 1055.48,-391.99"/>
</g>
<!-- icmp6_output&#45;&gt;ip6_output -->
<g id="edge56" class="edge">
<title>icmp6_output&#45;&gt;ip6_output</title>
<path fill="none" stroke="black" d="M1114.92,-809.35C1135.63,-768 1187.42,-664.59 1212.39,-614.74"/>
<polygon fill="black" stroke="black" points="1215.4,-616.54 1216.75,-606.03 1209.14,-613.4 1215.4,-616.54"/>
</g>
<!-- ndp_ns_input&#45;&gt;control_output -->
<g id="edge72" class="edge">
<title>ndp_ns_input&#45;&gt;control_output</title>
<path fill="none" stroke="black" d="M1268.03,-292.51C1335.06,-286.66 1473.34,-282.14 1576.88,-329 1601.6,-340.19 1623.53,-362.09 1638.36,-379.68"/>
<polygon fill="black" stroke="black" points="1635.47,-381.67 1644.49,-387.23 1640.9,-377.26 1635.47,-381.67"/>
</g>
<!-- ndp_na_input&#45;&gt;control_output -->
<g id="edge70" class="edge">
<title>ndp_na_input&#45;&gt;control_output</title>
<path fill="none" stroke="black" d="M1147.36,-433.62C1229.3,-430.75 1418.28,-423.53 1576.88,-413 1585.23,-412.45 1594.05,-411.77 1602.69,-411.07"/>
<polygon fill="black" stroke="black" points="1602.7,-414.58 1612.37,-410.26 1602.11,-407.61 1602.7,-414.58"/>
</g>
<!-- ndp_rs_input&#45;&gt;control_output -->
<g id="edge74" class="edge">
<title>ndp_rs_input&#45;&gt;control_output</title>
<path fill="none" stroke="black" d="M1145.34,-382.78C1241.58,-387.14 1489.51,-398.36 1601.61,-403.44"/>
<polygon fill="black" stroke="black" points="1601.32,-406.93 1611.47,-403.89 1601.64,-399.94 1601.32,-406.93"/>
</g>
<!-- ip6_forward&#45;&gt;ip6_output -->
<g id="edge58" class="edge">
<title>ip6_forward&#45;&gt;ip6_output</title>
<path fill="none" stroke="black" d="M1016.13,-514.41C1050.84,-518.49 1104.41,-526.89 1148.39,-543 1164.94,-549.06 1182.12,-558.39 1196.12,-566.9"/>
<polygon fill="black" stroke="black" points="1194.08,-569.76 1204.41,-572.1 1197.79,-563.82 1194.08,-569.76"/>
</g>
<!-- ip6_hold&#45;&gt;control_output -->
<g id="edge59" class="edge">
<title>ip6_hold&#45;&gt;control_output</title>
<path fill="none" stroke="black" d="M1537.08,-515.53C1560.24,-494.57 1603.42,-455.5 1631.46,-430.14"/>
<polygon fill="black" stroke="black" points="1633.44,-433.06 1638.51,-423.76 1628.75,-427.87 1633.44,-433.06"/>
</g>
<!-- ip6_input_local&#45;&gt;l4_input_local -->
<g id="edge65" class="edge">
<title>ip6_input_local&#45;&gt;l4_input_local</title>
<path fill="none" stroke="black" d="M874.58,-410.29C890.81,-399.65 912.83,-385.34 932.42,-373 989.43,-337.11 1000.39,-321.74 1061.77,-294 1099.6,-276.91 1144.77,-263.36 1178.2,-254.53"/>
<polygon fill="black" stroke="black" points="1178.79,-257.99 1187.59,-252.1 1177.03,-251.22 1178.79,-257.99"/>
</g>
<!-- ip6_input_local&#45;&gt;icmp6_input -->
<g id="edge64" class="edge">
<title>ip6_input_local&#45;&gt;icmp6_input</title>
<path fill="none" stroke="black" d="M891.74,-417.63C904.56,-415.01 918.8,-412.11 931.95,-409.42"/>
<polygon fill="black" stroke="black" points="932.59,-412.86 941.68,-407.43 931.19,-406.01 932.59,-412.86"/>
</g>
<!-- sr6_local&#45;&gt;ip_input -->
<g id="edge79" class="edge">
<title>sr6_local&#45;&gt;ip_input</title>
<path fill="none" stroke="black" d="M736.22,-425.2C746.7,-419.87 758.61,-412.41 767.07,-403 807.12,-358.46 830.63,-290.95 841.46,-252.84"/>
<polygon fill="black" stroke="black" points="844.76,-254.04 844.02,-243.47 838.01,-252.19 844.76,-254.04"/>
</g>
<!-- sr6_local&#45;&gt;ip6_input -->
<g id="edge80" class="edge">
<title>sr6_local&#45;&gt;ip6_input</title>
<path fill="none" stroke="black" d="M689.6,-446.42C666.25,-455.58 628.37,-467.53 599.66,-475.03"/>
<polygon fill="black" stroke="black" points="599.08,-471.56 590.23,-477.39 600.79,-478.35 599.08,-471.56"/>
</g>
<!-- sr6_local&#45;&gt;ip6_input_local -->
<g id="edge81" class="edge">
<title>sr6_local&#45;&gt;ip6_input_local</title>
<path fill="none" stroke="black" d="M740.77,-433.16C755.54,-432.18 774.25,-430.94 791.92,-429.77"/>
<polygon fill="black" stroke="black" points="792.08,-433.26 801.83,-429.11 791.62,-426.28 792.08,-433.26"/>
</g>
<!-- l4_loopback_output&#45;&gt;loopback_output -->
<g id="edge78" class="edge">
<title>l4_loopback_output&#45;&gt;loopback_output</title>
<path fill="none" stroke="black" d="M1427.56,-248.19C1436.96,-248.37 1446.7,-248.57 1456.16,-248.75"/>
<polygon fill="black" stroke="black" points="1455.95,-252.25 1466.02,-248.95 1456.09,-245.25 1455.95,-252.25"/>
</g>
</g>
</svg>
