<?xml version="1.0" encoding="UTF-8" standalone="no"?>
<!DOCTYPE svg PUBLIC "-//W3C//DTD SVG 1.1//EN"
 "http://www.w3.org/Graphics/SVG/1.1/DTD/svg11.dtd">
<!-- Generated by graphviz version 12.1.0 (20240811.2233)
 -->
<!-- Title: gr&#45;0003 Pages: 1 -->
<svg width="1208pt" height="696pt"
 viewBox="0.00 0.00 1207.77 696.00" xmlns="http://www.w3.org/2000/svg" xmlns:xlink="http://www.w3.org/1999/xlink">
<g id="graph0" class="graph" transform="scale(1 1) rotate(0) translate(4 692)">
<title>gr&#45;0003</title>
<polygon fill="white" stroke="none" points="-4,4 -4,-692 1203.77,-692 1203.77,4 -4,4"/>
<!-- control_input -->
<g id="node1" class="node">
<title>control_input</title>
<ellipse fill="none" stroke="blue" stroke-width="2" cx="41.62" cy="-405" rx="41.62" ry="18"/>
<text text-anchor="middle" x="41.62" y="-401.3" font-family="sans" font-size="11.00">control_input</text>
</g>
<!-- loopback_input -->
<g id="node2" class="node">
<title>loopback_input</title>
<ellipse fill="none" stroke="black" cx="166.76" cy="-378" rx="47.52" ry="18"/>
<text text-anchor="middle" x="166.76" y="-374.3" font-family="sans" font-size="11.00">loopback_input</text>
</g>
<!-- control_input&#45;&gt;loopback_input -->
<g id="edge1" class="edge">
<title>control_input&#45;&gt;loopback_input</title>
<path fill="none" stroke="blue" stroke-width="2" d="M79.24,-396.97C90.2,-394.57 102.43,-391.89 114.16,-389.31"/>
<polygon fill="blue" stroke="blue" stroke-width="2" points="113.23,-393.1 122.24,-387.54 111.73,-386.27 113.23,-393.1"/>
</g>
<!-- arp_output_request -->
<g id="node3" class="node">
<title>arp_output_request</title>
<ellipse fill="none" stroke="black" cx="311.7" cy="-650" rx="61.42" ry="18"/>
<text text-anchor="middle" x="311.7" y="-646.3" font-family="sans" font-size="11.00">arp_output_request</text>
</g>
<!-- control_input&#45;&gt;arp_output_request -->
<g id="edge2" class="edge">
<title>control_input&#45;&gt;arp_output_request</title>
<path fill="none" stroke="blue" stroke-width="2" d="M57.86,-421.94C66.33,-432.09 76.48,-445.59 83.25,-459 108.51,-509.1 80.81,-539.13 119.25,-580 151.67,-614.48 202.47,-632.04 243.59,-640.94"/>
<polygon fill="blue" stroke="blue" stroke-width="2" points="241.18,-644.03 251.67,-642.58 242.57,-637.16 241.18,-644.03"/>
</g>
<!-- icmp_local_send -->
<g id="node4" class="node">
<title>icmp_local_send</title>
<ellipse fill="none" stroke="black" cx="311.7" cy="-103" rx="51.31" ry="18"/>
<text text-anchor="middle" x="311.7" y="-99.3" font-family="sans" font-size="11.00">icmp_local_send</text>
</g>
<!-- control_input&#45;&gt;icmp_local_send -->
<g id="edge3" class="edge">
<title>control_input&#45;&gt;icmp_local_send</title>
<path fill="none" stroke="blue" stroke-width="2" d="M56.58,-388C89.47,-348.11 174.76,-245.74 250.28,-164 261.49,-151.87 274.31,-138.82 285.25,-127.91"/>
<polygon fill="blue" stroke="blue" stroke-width="2" points="286.4,-131.7 291.04,-122.17 281.47,-126.73 286.4,-131.7"/>
</g>
<!-- ndp_ns_output -->
<g id="node5" class="node">
<title>ndp_ns_output</title>
<ellipse fill="none" stroke="black" cx="166.76" cy="-432" rx="46.26" ry="18"/>
<text text-anchor="middle" x="166.76" y="-428.3" font-family="sans" font-size="11.00">ndp_ns_output</text>
</g>
<!-- control_input&#45;&gt;ndp_ns_output -->
<g id="edge4" class="edge">
<title>control_input&#45;&gt;ndp_ns_output</title>
<path fill="none" stroke="blue" stroke-width="2" d="M79.24,-413.03C90.3,-415.45 102.67,-418.17 114.51,-420.76"/>
<polygon fill="blue" stroke="blue" stroke-width="2" points="112.16,-423.83 122.68,-422.55 113.66,-416.99 112.16,-423.83"/>
</g>
<!-- ip_output -->
<g id="node6" class="node">
<title>ip_output</title>
<ellipse fill="none" stroke="black" cx="870.38" cy="-114" rx="30.25" ry="18"/>
<text text-anchor="middle" x="870.38" y="-110.3" font-family="sans" font-size="11.00">ip_output</text>
</g>
<!-- control_input&#45;&gt;ip_output -->
<g id="edge5" class="edge">
<title>control_input&#45;&gt;ip_output</title>
<path fill="none" stroke="blue" stroke-width="2" d="M45.42,-386.81C58.66,-308.01 122.45,0 310.7,0 310.7,0 310.7,0 582.35,0 682.93,0 790.22,-61.2 840.38,-93.92"/>
<polygon fill="blue" stroke="blue" stroke-width="2" points="837.13,-95.96 847.39,-98.58 841,-90.13 837.13,-95.96"/>
</g>
<!-- ip6_output -->
<g id="node7" class="node">
<title>ip6_output</title>
<ellipse fill="none" stroke="black" cx="870.38" cy="-444" rx="34.04" ry="18"/>
<text text-anchor="middle" x="870.38" y="-440.3" font-family="sans" font-size="11.00">ip6_output</text>
</g>
<!-- control_input&#45;&gt;ip6_output -->
<g id="edge6" class="edge">
<title>control_input&#45;&gt;ip6_output</title>
<path fill="none" stroke="blue" stroke-width="2" d="M56.05,-422.32C64.09,-432.83 74.43,-446.56 83.25,-459 99.92,-482.53 94.65,-497.93 119.25,-513 229.85,-580.78 279.62,-539.43 409.11,-547 571.37,-556.48 627.18,-590.11 773.81,-520 794.22,-510.24 792.33,-498.37 809.81,-484 818.43,-476.91 828.31,-469.88 837.52,-463.74"/>
<polygon fill="blue" stroke="blue" stroke-width="2" points="838.14,-467.51 844.61,-459.12 834.32,-461.65 838.14,-467.51"/>
</g>
<!-- ip_input -->
<g id="node11" class="node">
<title>ip_input</title>
<ellipse fill="none" stroke="black" cx="311.7" cy="-191" rx="27" ry="18"/>
<text text-anchor="middle" x="311.7" y="-187.3" font-family="sans" font-size="11.00">ip_input</text>
</g>
<!-- loopback_input&#45;&gt;ip_input -->
<g id="edge11" class="edge">
<title>loopback_input&#45;&gt;ip_input</title>
<path fill="none" stroke="black" d="M181.21,-360.41C206.71,-327.05 262.16,-254.5 291.54,-216.07"/>
<polygon fill="black" stroke="black" points="294.2,-218.35 297.49,-208.28 288.64,-214.1 294.2,-218.35"/>
</g>
<!-- ip6_input -->
<g id="node12" class="node">
<title>ip6_input</title>
<ellipse fill="none" stroke="black" cx="311.7" cy="-482" rx="29.41" ry="18"/>
<text text-anchor="middle" x="311.7" y="-478.3" font-family="sans" font-size="11.00">ip6_input</text>
</g>
<!-- loopback_input&#45;&gt;ip6_input -->
<g id="edge12" class="edge">
<title>loopback_input&#45;&gt;ip6_input</title>
<path fill="none" stroke="black" d="M194.75,-392.76C201.26,-396.56 208.12,-400.78 214.28,-405 239.36,-422.15 266.23,-443.92 285.22,-459.94"/>
<polygon fill="black" stroke="black" points="282.83,-462.5 292.72,-466.31 287.37,-457.17 282.83,-462.5"/>
</g>
<!-- eth_output -->
<g id="node13" class="node">
<title>eth_output</title>
<ellipse fill="none" stroke="black" cx="1019.1" cy="-635" rx="34.89" ry="18"/>
<text text-anchor="middle" x="1019.1" y="-631.3" font-family="sans" font-size="11.00">eth_output</text>
</g>
<!-- arp_output_request&#45;&gt;eth_output -->
<g id="edge21" class="edge">
<title>arp_output_request&#45;&gt;eth_output</title>
<path fill="none" stroke="black" d="M361.25,-661.09C414.65,-672.31 503.15,-688 580.35,-688 580.35,-688 580.35,-688 718.02,-688 813.16,-688 838.16,-686.98 930.95,-666 947.72,-662.21 965.7,-656.17 980.94,-650.43"/>
<polygon fill="black" stroke="black" points="982.04,-653.76 990.1,-646.88 979.51,-647.23 982.04,-653.76"/>
</g>
<!-- icmp_output -->
<g id="node21" class="node">
<title>icmp_output</title>
<ellipse fill="none" stroke="black" cx="717.02" cy="-160" rx="39.52" ry="18"/>
<text text-anchor="middle" x="717.02" y="-156.3" font-family="sans" font-size="11.00">icmp_output</text>
</g>
<!-- icmp_local_send&#45;&gt;icmp_output -->
<g id="edge24" class="edge">
<title>icmp_local_send&#45;&gt;icmp_output</title>
<path fill="none" stroke="black" d="M337.75,-87.22C356.57,-76.33 383.43,-62.81 409.11,-57 449.58,-47.84 462.02,-47.76 502.47,-57 571.46,-72.77 644.11,-113.81 684.38,-139.07"/>
<polygon fill="black" stroke="black" points="682.31,-141.9 692.62,-144.32 686.06,-136 682.31,-141.9"/>
</g>
<!-- ndp_ns_output&#45;&gt;ip6_output -->
<g id="edge55" class="edge">
<title>ndp_ns_output&#45;&gt;ip6_output</title>
<path fill="none" stroke="black" d="M213.26,-432.78C340.34,-434.95 698.04,-441.07 824.44,-443.23"/>
<polygon fill="black" stroke="black" points="824.37,-446.73 834.42,-443.4 824.49,-439.73 824.37,-446.73"/>
</g>
<!-- ip_output&#45;&gt;eth_output -->
<g id="edge34" class="edge">
<title>ip_output&#45;&gt;eth_output</title>
<path fill="none" stroke="black" d="M882.49,-130.67C896.09,-151.89 918.81,-190.12 930.95,-226 962.43,-319.02 946.23,-348.01 966.95,-444 979.47,-501.98 998.4,-568.71 1009.37,-605.96"/>
<polygon fill="black" stroke="black" points="1006.01,-606.93 1012.21,-615.52 1012.72,-604.94 1006.01,-606.93"/>
</g>
<!-- loopback_output -->
<g id="node15" class="node">
<title>loopback_output</title>
<ellipse fill="none" stroke="black" cx="1019.1" cy="-255" rx="52.15" ry="18"/>
<text text-anchor="middle" x="1019.1" y="-251.3" font-family="sans" font-size="11.00">loopback_output</text>
</g>
<!-- ip_output&#45;&gt;loopback_output -->
<g id="edge36" class="edge">
<title>ip_output&#45;&gt;loopback_output</title>
<path fill="none" stroke="black" d="M887.36,-129.36C912.62,-153.63 961.99,-201.08 992.31,-230.21"/>
<polygon fill="black" stroke="black" points="989.59,-232.46 999.23,-236.86 994.45,-227.41 989.59,-232.46"/>
</g>
<!-- ip_hold -->
<g id="node23" class="node">
<title>ip_hold</title>
<ellipse fill="none" stroke="black" cx="1019.1" cy="-160" rx="27" ry="18"/>
<text text-anchor="middle" x="1019.1" y="-156.3" font-family="sans" font-size="11.00">ip_hold</text>
</g>
<!-- ip_output&#45;&gt;ip_hold -->
<g id="edge35" class="edge">
<title>ip_output&#45;&gt;ip_hold</title>
<path fill="none" stroke="black" d="M897.61,-122.22C921.56,-129.73 957.12,-140.88 983.41,-149.12"/>
<polygon fill="black" stroke="black" points="982.01,-152.35 992.6,-152 984.11,-145.67 982.01,-152.35"/>
</g>
<!-- ipip_output -->
<g id="node27" class="node">
<title>ipip_output</title>
<ellipse fill="none" stroke="black" cx="1019.1" cy="-106" rx="35.73" ry="18"/>
<text text-anchor="middle" x="1019.1" y="-102.3" font-family="sans" font-size="11.00">ipip_output</text>
</g>
<!-- ip_output&#45;&gt;ipip_output -->
<g id="edge37" class="edge">
<title>ip_output&#45;&gt;ipip_output</title>
<path fill="none" stroke="black" d="M898.63,-107.13C919.29,-104.57 948.14,-102.69 972.32,-102.19"/>
<polygon fill="black" stroke="black" points="972.28,-105.69 982.24,-102.07 972.2,-98.69 972.28,-105.69"/>
</g>
<!-- ip6_output&#45;&gt;eth_output -->
<g id="edge49" class="edge">
<title>ip6_output&#45;&gt;eth_output</title>
<path fill="none" stroke="black" d="M895.31,-456.62C907.02,-463.61 920.75,-473.08 930.95,-484 965.52,-521 992.12,-574.12 1006.41,-606.49"/>
<polygon fill="black" stroke="black" points="1003.18,-607.83 1010.35,-615.63 1009.61,-605.06 1003.18,-607.83"/>
</g>
<!-- ip6_output&#45;&gt;loopback_output -->
<g id="edge51" class="edge">
<title>ip6_output&#45;&gt;loopback_output</title>
<path fill="none" stroke="black" d="M884.4,-427.23C909.98,-394.27 966.97,-320.86 997.64,-281.36"/>
<polygon fill="black" stroke="black" points="1000.18,-283.8 1003.55,-273.75 994.65,-279.5 1000.18,-283.8"/>
</g>
<!-- ip6_hold -->
<g id="node33" class="node">
<title>ip6_hold</title>
<ellipse fill="none" stroke="black" cx="1019.1" cy="-417" rx="27" ry="18"/>
<text text-anchor="middle" x="1019.1" y="-413.3" font-family="sans" font-size="11.00">ip6_hold</text>
</g>
<!-- ip6_output&#45;&gt;ip6_hold -->
<g id="edge50" class="edge">
<title>ip6_output&#45;&gt;ip6_hold</title>
<path fill="none" stroke="black" d="M902.86,-438.21C925.87,-433.97 957.15,-428.22 981.31,-423.77"/>
<polygon fill="black" stroke="black" points="981.85,-427.23 991.05,-421.98 980.58,-420.35 981.85,-427.23"/>
</g>
<!-- control_output -->
<g id="node8" class="node">
<title>control_output</title>
<ellipse fill="none" stroke="black" cx="1153.51" cy="-324" rx="46.26" ry="18"/>
<text text-anchor="middle" x="1153.51" y="-320.3" font-family="sans" font-size="11.00">control_output</text>
</g>
<!-- eth_input -->
<g id="node9" class="node">
<title>eth_input</title>
<ellipse fill="none" stroke="black" cx="166.76" cy="-486" rx="30.25" ry="18"/>
<text text-anchor="middle" x="166.76" y="-482.3" font-family="sans" font-size="11.00">eth_input</text>
</g>
<!-- arp_input -->
<g id="node10" class="node">
<title>arp_input</title>
<ellipse fill="none" stroke="black" cx="581.35" cy="-604" rx="30.25" ry="18"/>
<text text-anchor="middle" x="581.35" y="-600.3" font-family="sans" font-size="11.00">arp_input</text>
</g>
<!-- eth_input&#45;&gt;arp_input -->
<g id="edge7" class="edge">
<title>eth_input&#45;&gt;arp_input</title>
<path fill="none" stroke="black" d="M194.52,-493.65C265.81,-514.04 460.5,-569.72 542.82,-593.26"/>
<polygon fill="black" stroke="black" points="541.63,-596.57 552.21,-595.95 543.55,-589.83 541.63,-596.57"/>
</g>
<!-- eth_input&#45;&gt;ip_input -->
<g id="edge8" class="edge">
<title>eth_input&#45;&gt;ip_input</title>
<path fill="none" stroke="black" d="M192.35,-475.87C200.23,-471.63 208.42,-466.03 214.28,-459 274.66,-386.6 298.58,-273.4 306.86,-220.32"/>
<polygon fill="black" stroke="black" points="310.31,-220.96 308.3,-210.56 303.38,-219.94 310.31,-220.96"/>
</g>
<!-- eth_input&#45;&gt;ip6_input -->
<g id="edge9" class="edge">
<title>eth_input&#45;&gt;ip6_input</title>
<path fill="none" stroke="black" d="M197.38,-485.17C218.65,-484.58 247.54,-483.77 270.84,-483.12"/>
<polygon fill="black" stroke="black" points="270.69,-486.62 280.58,-482.84 270.49,-479.62 270.69,-486.62"/>
</g>
<!-- arp_input_request -->
<g id="node17" class="node">
<title>arp_input_request</title>
<ellipse fill="none" stroke="black" cx="717.02" cy="-642" rx="56.78" ry="18"/>
<text text-anchor="middle" x="717.02" y="-638.3" font-family="sans" font-size="11.00">arp_input_request</text>
</g>
<!-- arp_input&#45;&gt;arp_input_request -->
<g id="edge15" class="edge">
<title>arp_input&#45;&gt;arp_input_request</title>
<path fill="none" stroke="black" d="M609.08,-611.6C624.49,-615.98 644.4,-621.64 662.86,-626.89"/>
<polygon fill="black" stroke="black" points="661.78,-630.22 672.36,-629.59 663.7,-623.49 661.78,-630.22"/>
</g>
<!-- arp_input_reply -->
<g id="node18" class="node">
<title>arp_input_reply</title>
<ellipse fill="none" stroke="black" cx="870.38" cy="-511" rx="48.78" ry="18"/>
<text text-anchor="middle" x="870.38" y="-507.3" font-family="sans" font-size="11.00">arp_input_reply</text>
</g>
<!-- arp_input&#45;&gt;arp_input_reply -->
<g id="edge16" class="edge">
<title>arp_input&#45;&gt;arp_input_reply</title>
<path fill="none" stroke="black" d="M611.85,-602.73C650.3,-600.26 719.08,-593.04 773.81,-572 791.53,-565.19 793.8,-559.22 809.81,-549 818.06,-543.73 826.95,-538.06 835.29,-532.74"/>
<polygon fill="black" stroke="black" points="836.92,-535.85 843.46,-527.52 833.15,-529.95 836.92,-535.85"/>
</g>
<!-- ip_input&#45;&gt;ip_output -->
<g id="edge29" class="edge">
<title>ip_input&#45;&gt;ip_output</title>
<path fill="none" stroke="black" d="M337.23,-184.23C356.69,-178.9 384.61,-171.33 409.11,-165 466.45,-150.18 479.91,-141.85 538.47,-133 642.17,-117.33 765.93,-114.34 828.64,-113.92"/>
<polygon fill="black" stroke="black" points="828.48,-117.42 838.46,-113.88 828.45,-110.42 828.48,-117.42"/>
</g>
<!-- ip_forward -->
<g id="node22" class="node">
<title>ip_forward</title>
<ellipse fill="none" stroke="black" cx="455.79" cy="-84" rx="33.62" ry="18"/>
<text text-anchor="middle" x="455.79" y="-80.3" font-family="sans" font-size="11.00">ip_forward</text>
</g>
<!-- ip_input&#45;&gt;ip_forward -->
<g id="edge28" class="edge">
<title>ip_input&#45;&gt;ip_forward</title>
<path fill="none" stroke="black" d="M329.92,-177.19C349.05,-161.94 380.97,-136.79 409.11,-116 414.18,-112.26 419.61,-108.36 424.91,-104.61"/>
<polygon fill="black" stroke="black" points="426.75,-107.6 432.93,-98.99 422.73,-101.86 426.75,-107.6"/>
</g>
<!-- ip_input_local -->
<g id="node24" class="node">
<title>ip_input_local</title>
<ellipse fill="none" stroke="black" cx="455.79" cy="-214" rx="42.89" ry="18"/>
<text text-anchor="middle" x="455.79" y="-210.3" font-family="sans" font-size="11.00">ip_input_local</text>
</g>
<!-- ip_input&#45;&gt;ip_input_local -->
<g id="edge30" class="edge">
<title>ip_input&#45;&gt;ip_input_local</title>
<path fill="none" stroke="black" d="M338.43,-195.17C356.68,-198.12 381.78,-202.18 404,-205.78"/>
<polygon fill="black" stroke="black" points="403.38,-209.22 413.81,-207.37 404.5,-202.31 403.38,-209.22"/>
</g>
<!-- ip6_input&#45;&gt;ip6_output -->
<g id="edge45" class="edge">
<title>ip6_input&#45;&gt;ip6_output</title>
<path fill="none" stroke="black" d="M341.37,-481.44C413.93,-479.82 610.67,-474.16 773.81,-458 791.16,-456.28 810.19,-453.65 826.67,-451.13"/>
<polygon fill="black" stroke="black" points="826.78,-454.65 836.12,-449.65 825.7,-447.74 826.78,-454.65"/>
</g>
<!-- ip6_forward -->
<g id="node32" class="node">
<title>ip6_forward</title>
<ellipse fill="none" stroke="black" cx="455.79" cy="-520" rx="37.41" ry="18"/>
<text text-anchor="middle" x="455.79" y="-516.3" font-family="sans" font-size="11.00">ip6_forward</text>
</g>
<!-- ip6_input&#45;&gt;ip6_forward -->
<g id="edge44" class="edge">
<title>ip6_input&#45;&gt;ip6_forward</title>
<path fill="none" stroke="black" d="M339.09,-489.06C359.46,-494.51 388.07,-502.16 411.74,-508.49"/>
<polygon fill="black" stroke="black" points="410.53,-511.79 421.1,-510.99 412.34,-505.02 410.53,-511.79"/>
</g>
<!-- ip6_input_local -->
<g id="node34" class="node">
<title>ip6_input_local</title>
<ellipse fill="none" stroke="black" cx="455.79" cy="-344" rx="46.68" ry="18"/>
<text text-anchor="middle" x="455.79" y="-340.3" font-family="sans" font-size="11.00">ip6_input_local</text>
</g>
<!-- ip6_input&#45;&gt;ip6_input_local -->
<g id="edge46" class="edge">
<title>ip6_input&#45;&gt;ip6_input_local</title>
<path fill="none" stroke="black" d="M328.45,-466.7C352.91,-442.94 400.27,-396.95 429.55,-368.52"/>
<polygon fill="black" stroke="black" points="431.83,-371.18 436.56,-361.7 426.95,-366.16 431.83,-371.18"/>
</g>
<!-- port_tx -->
<g id="node14" class="node">
<title>port_tx</title>
<ellipse fill="none" stroke="black" cx="1153.51" cy="-635" rx="27" ry="18"/>
<text text-anchor="middle" x="1153.51" y="-631.3" font-family="sans" font-size="11.00">port_tx</text>
</g>
<!-- eth_output&#45;&gt;port_tx -->
<g id="edge10" class="edge">
<title>eth_output&#45;&gt;port_tx</title>
<path fill="none" stroke="black" d="M1054.2,-635C1072.73,-635 1095.69,-635 1114.75,-635"/>
<polygon fill="black" stroke="black" points="1114.54,-638.5 1124.54,-635 1114.54,-631.5 1114.54,-638.5"/>
</g>
<!-- loopback_output&#45;&gt;control_output -->
<g id="edge13" class="edge">
<title>loopback_output&#45;&gt;control_output</title>
<path fill="none" stroke="black" d="M1049.16,-270.14C1068.44,-280.19 1093.93,-293.47 1114.77,-304.33"/>
<polygon fill="black" stroke="black" points="1113.05,-307.38 1123.54,-308.9 1116.29,-301.18 1113.05,-307.38"/>
</g>
<!-- port_rx -->
<g id="node16" class="node">
<title>port_rx</title>
<ellipse fill="none" stroke="blue" stroke-width="2" cx="41.62" cy="-486" rx="27" ry="18"/>
<text text-anchor="middle" x="41.62" y="-482.3" font-family="sans" font-size="11.00">port_rx</text>
</g>
<!-- port_rx&#45;&gt;eth_input -->
<g id="edge14" class="edge">
<title>port_rx&#45;&gt;eth_input</title>
<path fill="none" stroke="blue" stroke-width="2" d="M69.04,-486C85.35,-486 106.61,-486 125.04,-486"/>
<polygon fill="blue" stroke="blue" stroke-width="2" points="123.34,-489.5 133.34,-486 123.34,-482.5 123.34,-489.5"/>
</g>
<!-- arp_input_request&#45;&gt;control_output -->
<g id="edge18" class="edge">
<title>arp_input_request&#45;&gt;control_output</title>
<path fill="none" stroke="black" d="M755.85,-628.49C836.67,-599.07 1022.79,-528.12 1071.26,-482 1109.3,-445.8 1132.68,-387.87 1144.07,-353.12"/>
<polygon fill="black" stroke="black" points="1147.37,-354.32 1147.03,-343.73 1140.69,-352.22 1147.37,-354.32"/>
</g>
<!-- arp_output_reply -->
<g id="node19" class="node">
<title>arp_output_reply</title>
<ellipse fill="none" stroke="black" cx="870.38" cy="-639" rx="53.41" ry="18"/>
<text text-anchor="middle" x="870.38" y="-635.3" font-family="sans" font-size="11.00">arp_output_reply</text>
</g>
<!-- arp_input_request&#45;&gt;arp_output_reply -->
<g id="edge19" class="edge">
<title>arp_input_request&#45;&gt;arp_output_reply</title>
<path fill="none" stroke="black" d="M773.95,-640.89C784.22,-640.69 795.01,-640.47 805.48,-640.27"/>
<polygon fill="black" stroke="black" points="805.25,-643.77 815.18,-640.07 805.11,-636.77 805.25,-643.77"/>
</g>
<!-- arp_input_reply&#45;&gt;control_output -->
<g id="edge17" class="edge">
<title>arp_input_reply&#45;&gt;control_output</title>
<path fill="none" stroke="black" d="M916.17,-504.51C959.45,-496.41 1025.06,-479.08 1071.26,-444 1103.13,-419.79 1126.77,-379.33 1140.1,-352.17"/>
<polygon fill="black" stroke="black" points="1143.25,-353.68 1144.37,-343.14 1136.93,-350.68 1143.25,-353.68"/>
</g>
<!-- arp_output_reply&#45;&gt;eth_output -->
<g id="edge20" class="edge">
<title>arp_output_reply&#45;&gt;eth_output</title>
<path fill="none" stroke="black" d="M923.94,-637.57C939.92,-637.13 957.35,-636.66 972.82,-636.23"/>
<polygon fill="black" stroke="black" points="972.79,-639.74 982.69,-635.97 972.6,-632.74 972.79,-639.74"/>
</g>
<!-- icmp_input -->
<g id="node20" class="node">
<title>icmp_input</title>
<ellipse fill="none" stroke="black" cx="581.35" cy="-214" rx="34.89" ry="18"/>
<text text-anchor="middle" x="581.35" y="-210.3" font-family="sans" font-size="11.00">icmp_input</text>
</g>
<!-- icmp_input&#45;&gt;control_output -->
<g id="edge23" class="edge">
<title>icmp_input&#45;&gt;control_output</title>
<path fill="none" stroke="black" d="M616.26,-211.45C713.4,-204.69 990.91,-189.34 1071.26,-228 1101.11,-242.37 1124.13,-273.44 1137.92,-296.36"/>
<polygon fill="black" stroke="black" points="1134.82,-297.99 1142.84,-304.91 1140.89,-294.5 1134.82,-297.99"/>
</g>
<!-- icmp_input&#45;&gt;icmp_output -->
<g id="edge22" class="edge">
<title>icmp_input&#45;&gt;icmp_output</title>
<path fill="none" stroke="black" d="M609.4,-203.07C628.59,-195.32 654.66,-184.79 676.21,-176.08"/>
<polygon fill="black" stroke="black" points="677.33,-179.41 685.29,-172.42 674.71,-172.92 677.33,-179.41"/>
</g>
<!-- icmp_output&#45;&gt;ip_output -->
<g id="edge25" class="edge">
<title>icmp_output&#45;&gt;ip_output</title>
<path fill="none" stroke="black" d="M750.49,-150.13C774.45,-142.85 807.09,-132.93 832.11,-125.33"/>
<polygon fill="black" stroke="black" points="833.01,-128.71 841.56,-122.46 830.97,-122.01 833.01,-128.71"/>
</g>
<!-- ip_forward&#45;&gt;ip_output -->
<g id="edge26" class="edge">
<title>ip_forward&#45;&gt;ip_output</title>
<path fill="none" stroke="black" d="M489.73,-84.63C547.41,-85.97 670.43,-89.84 773.81,-100 792.25,-101.81 812.58,-104.67 829.73,-107.33"/>
<polygon fill="black" stroke="black" points="829.11,-110.78 839.53,-108.89 830.21,-103.86 829.11,-110.78"/>
</g>
<!-- ip_hold&#45;&gt;control_output -->
<g id="edge27" class="edge">
<title>ip_hold&#45;&gt;control_output</title>
<path fill="none" stroke="black" d="M1041.59,-170.51C1051.39,-176 1062.69,-183.38 1071.26,-192 1101.85,-222.82 1126.16,-267.24 1139.96,-295.86"/>
<polygon fill="black" stroke="black" points="1136.65,-297.07 1144.07,-304.63 1142.99,-294.09 1136.65,-297.07"/>
</g>
<!-- ip_input_local&#45;&gt;icmp_input -->
<g id="edge31" class="edge">
<title>ip_input_local&#45;&gt;icmp_input</title>
<path fill="none" stroke="black" d="M498.97,-214C510.5,-214 523.06,-214 534.77,-214"/>
<polygon fill="black" stroke="black" points="534.63,-217.5 544.63,-214 534.63,-210.5 534.63,-217.5"/>
</g>
<!-- ipip_input -->
<g id="node25" class="node">
<title>ipip_input</title>
<ellipse fill="none" stroke="black" cx="581.35" cy="-160" rx="31.1" ry="18"/>
<text text-anchor="middle" x="581.35" y="-156.3" font-family="sans" font-size="11.00">ipip_input</text>
</g>
<!-- ip_input_local&#45;&gt;ipip_input -->
<g id="edge32" class="edge">
<title>ip_input_local&#45;&gt;ipip_input</title>
<path fill="none" stroke="black" d="M486.39,-201.07C504.17,-193.29 526.9,-183.36 545.54,-175.21"/>
<polygon fill="black" stroke="black" points="546.83,-178.47 554.59,-171.26 544.03,-172.06 546.83,-178.47"/>
</g>
<!-- l4_input_local -->
<g id="node26" class="node">
<title>l4_input_local</title>
<ellipse fill="none" stroke="black" cx="581.35" cy="-268" rx="42.89" ry="18"/>
<text text-anchor="middle" x="581.35" y="-264.3" font-family="sans" font-size="11.00">l4_input_local</text>
</g>
<!-- ip_input_local&#45;&gt;l4_input_local -->
<g id="edge33" class="edge">
<title>ip_input_local&#45;&gt;l4_input_local</title>
<path fill="none" stroke="black" d="M486.39,-226.93C502.47,-233.96 522.59,-242.76 540.08,-250.4"/>
<polygon fill="black" stroke="black" points="538.62,-253.58 549.18,-254.38 541.42,-247.17 538.62,-253.58"/>
</g>
<!-- ipip_input&#45;&gt;ip_input -->
<g id="edge56" class="edge">
<title>ipip_input&#45;&gt;ip_input</title>
<path fill="none" stroke="black" d="M550.73,-163.43C501.59,-169.12 403.35,-180.5 349.73,-186.71"/>
<polygon fill="black" stroke="black" points="349.4,-183.23 339.87,-187.85 350.2,-190.18 349.4,-183.23"/>
</g>
<!-- l4_loopback_output -->
<g id="node35" class="node">
<title>l4_loopback_output</title>
<ellipse fill="none" stroke="black" cx="870.38" cy="-253" rx="60.57" ry="18"/>
<text text-anchor="middle" x="870.38" y="-249.3" font-family="sans" font-size="11.00">l4_loopback_output</text>
</g>
<!-- l4_input_local&#45;&gt;l4_loopback_output -->
<g id="edge58" class="edge">
<title>l4_input_local&#45;&gt;l4_loopback_output</title>
<path fill="none" stroke="black" d="M623.98,-265.2C635.71,-264.45 648.47,-263.66 660.24,-263 706.42,-260.41 758.36,-257.93 798.93,-256.08"/>
<polygon fill="black" stroke="black" points="798.98,-259.58 808.81,-255.63 798.66,-252.59 798.98,-259.58"/>
</g>
<!-- ipip_output&#45;&gt;ip_output -->
<g id="edge57" class="edge">
<title>ipip_output&#45;&gt;ip_output</title>
<path fill="none" stroke="black" d="M986.12,-113.43C964.27,-115.88 935.14,-117.61 911.7,-117.9"/>
<polygon fill="black" stroke="black" points="911.88,-114.4 901.88,-117.92 911.89,-121.4 911.88,-114.4"/>
</g>
<!-- icmp6_input -->
<g id="node28" class="node">
<title>icmp6_input</title>
<ellipse fill="none" stroke="black" cx="581.35" cy="-344" rx="38.68" ry="18"/>
<text text-anchor="middle" x="581.35" y="-340.3" font-family="sans" font-size="11.00">icmp6_input</text>
</g>
<!-- icmp6_output -->
<g id="node29" class="node">
<title>icmp6_output</title>
<ellipse fill="none" stroke="black" cx="717.02" cy="-398" rx="43.31" ry="18"/>
<text text-anchor="middle" x="717.02" y="-394.3" font-family="sans" font-size="11.00">icmp6_output</text>
</g>
<!-- icmp6_input&#45;&gt;icmp6_output -->
<g id="edge38" class="edge">
<title>icmp6_input&#45;&gt;icmp6_output</title>
<path fill="none" stroke="black" d="M611.36,-355.72C629.84,-363.18 654.08,-372.98 674.58,-381.26"/>
<polygon fill="black" stroke="black" points="673.23,-384.49 683.81,-384.99 675.85,-378 673.23,-384.49"/>
</g>
<!-- ndp_ns_input -->
<g id="node30" class="node">
<title>ndp_ns_input</title>
<ellipse fill="none" stroke="black" cx="717.02" cy="-344" rx="41.62" ry="18"/>
<text text-anchor="middle" x="717.02" y="-340.3" font-family="sans" font-size="11.00">ndp_ns_input</text>
</g>
<!-- icmp6_input&#45;&gt;ndp_ns_input -->
<g id="edge39" class="edge">
<title>icmp6_input&#45;&gt;ndp_ns_input</title>
<path fill="none" stroke="black" d="M620.3,-344C633.82,-344 649.3,-344 663.8,-344"/>
<polygon fill="black" stroke="black" points="663.66,-347.5 673.66,-344 663.66,-340.5 663.66,-347.5"/>
</g>
<!-- ndp_na_input -->
<g id="node31" class="node">
<title>ndp_na_input</title>
<ellipse fill="none" stroke="black" cx="717.02" cy="-290" rx="42.04" ry="18"/>
<text text-anchor="middle" x="717.02" y="-286.3" font-family="sans" font-size="11.00">ndp_na_input</text>
</g>
<!-- icmp6_input&#45;&gt;ndp_na_input -->
<g id="edge40" class="edge">
<title>icmp6_input&#45;&gt;ndp_na_input</title>
<path fill="none" stroke="black" d="M611.36,-332.28C629.97,-324.76 654.43,-314.88 675.01,-306.57"/>
<polygon fill="black" stroke="black" points="676.32,-309.81 684.28,-302.82 673.7,-303.32 676.32,-309.81"/>
</g>
<!-- icmp6_output&#45;&gt;ip6_output -->
<g id="edge41" class="edge">
<title>icmp6_output&#45;&gt;ip6_output</title>
<path fill="none" stroke="black" d="M752.75,-408.55C775.65,-415.51 805.72,-424.65 829.59,-431.91"/>
<polygon fill="black" stroke="black" points="828.38,-435.2 838.96,-434.76 830.41,-428.5 828.38,-435.2"/>
</g>
<!-- ndp_ns_input&#45;&gt;ip6_output -->
<g id="edge53" class="edge">
<title>ndp_ns_input&#45;&gt;ip6_output</title>
<path fill="none" stroke="black" d="M747.28,-356.8C756.01,-360.97 765.47,-365.87 773.81,-371 798.3,-386.07 824.1,-406.05 842.72,-421.3"/>
<polygon fill="black" stroke="black" points="840.4,-423.93 850.33,-427.61 844.86,-418.54 840.4,-423.93"/>
</g>
<!-- ndp_ns_input&#45;&gt;control_output -->
<g id="edge54" class="edge">
<title>ndp_ns_input&#45;&gt;control_output</title>
<path fill="none" stroke="black" d="M758.9,-342.12C836.84,-338.53 1006.83,-330.71 1095.74,-326.61"/>
<polygon fill="black" stroke="black" points="1095.87,-330.11 1105.7,-326.15 1095.55,-323.12 1095.87,-330.11"/>
</g>
<!-- ndp_na_input&#45;&gt;control_output -->
<g id="edge52" class="edge">
<title>ndp_na_input&#45;&gt;control_output</title>
<path fill="none" stroke="black" d="M758.9,-293.2C837.04,-299.31 1007.71,-312.67 1096.43,-319.61"/>
<polygon fill="black" stroke="black" points="1096.12,-323.1 1106.36,-320.39 1096.67,-316.12 1096.12,-323.1"/>
</g>
<!-- ip6_forward&#45;&gt;ip6_output -->
<g id="edge42" class="edge">
<title>ip6_forward&#45;&gt;ip6_output</title>
<path fill="none" stroke="black" d="M493.33,-522.13C553.27,-524.56 675.61,-524.98 773.81,-496 797.35,-489.05 821.61,-475.76 839.8,-464.36"/>
<polygon fill="black" stroke="black" points="841.47,-467.45 847.97,-459.09 837.67,-461.57 841.47,-467.45"/>
</g>
<!-- ip6_hold&#45;&gt;control_output -->
<g id="edge43" class="edge">
<title>ip6_hold&#45;&gt;control_output</title>
<path fill="none" stroke="black" d="M1038.52,-404.07C1059.69,-389.2 1094.82,-364.52 1120.5,-346.49"/>
<polygon fill="black" stroke="black" points="1122.41,-349.42 1128.59,-340.8 1118.39,-343.69 1122.41,-349.42"/>
</g>
<!-- ip6_input_local&#45;&gt;l4_input_local -->
<g id="edge48" class="edge">
<title>ip6_input_local&#45;&gt;l4_input_local</title>
<path fill="none" stroke="black" d="M481.8,-328.62C500.46,-317.14 526.17,-301.33 546.65,-288.73"/>
<polygon fill="black" stroke="black" points="548.25,-291.85 554.94,-283.63 544.59,-285.89 548.25,-291.85"/>
</g>
<!-- ip6_input_local&#45;&gt;icmp6_input -->
<g id="edge47" class="edge">
<title>ip6_input_local&#45;&gt;icmp6_input</title>
<path fill="none" stroke="black" d="M502.8,-344C511.97,-344 521.63,-344 530.91,-344"/>
<polygon fill="black" stroke="black" points="530.87,-347.5 540.87,-344 530.87,-340.5 530.87,-347.5"/>
</g>
<!-- l4_loopback_output&#45;&gt;loopback_output -->
<g id="edge59" class="edge">
<title>l4_loopback_output&#45;&gt;loopback_output</title>
<path fill="none" stroke="black" d="M931.06,-253.81C939.15,-253.92 947.47,-254.04 955.6,-254.15"/>
<polygon fill="black" stroke="black" points="955.38,-257.65 965.43,-254.28 955.48,-250.65 955.38,-257.65"/>
</g>
</g>
</svg>
