<?xml version="1.0" encoding="UTF-8" standalone="no"?>
<!DOCTYPE svg PUBLIC "-//W3C//DTD SVG 1.1//EN"
 "http://www.w3.org/Graphics/SVG/1.1/DTD/svg11.dtd">
<!-- Generated by graphviz version 2.44.0 (0)
 -->
<!-- Title: gr&#45;0005 Pages: 1 -->
<svg width="1651pt" height="852pt"
 viewBox="0.00 0.00 1650.54 852.00" xmlns="http://www.w3.org/2000/svg" xmlns:xlink="http://www.w3.org/1999/xlink">
<g id="graph0" class="graph" transform="scale(1 1) rotate(0) translate(4 848)">
<title>gr&#45;0005</title>
<polygon fill="white" stroke="transparent" points="-4,4 -4,-848 1646.54,-848 1646.54,4 -4,4"/>
<!-- control_input -->
<g id="node1" class="node">
<title>control_input</title>
<ellipse fill="none" stroke="blue" stroke-width="2" cx="482.75" cy="-460" rx="40.32" ry="18"/>
<text text-anchor="middle" x="482.75" y="-457.2" font-family="sans" font-size="11.00">control_input</text>
</g>
<!-- control_input_unknown_type -->
<g id="node2" class="node">
<title>control_input_unknown_type</title>
<ellipse fill="none" stroke="darkorange" cx="679.39" cy="-456" rx="86" ry="18"/>
<text text-anchor="middle" x="679.39" y="-453.2" font-family="sans" font-size="11.00">control_input_unknown_type</text>
</g>
<!-- control_input&#45;&gt;control_input_unknown_type -->
<g id="edge1" class="edge">
<title>control_input&#45;&gt;control_input_unknown_type</title>
<path fill="none" stroke="blue" stroke-width="2" d="M523.14,-459.19C540.69,-458.83 562.19,-458.39 583.53,-457.95"/>
<polygon fill="blue" stroke="blue" stroke-width="2" points="583.72,-461.45 593.64,-457.74 583.57,-454.45 583.72,-461.45"/>
</g>
<!-- arp_output_request -->
<g id="node3" class="node">
<title>arp_output_request</title>
<ellipse fill="none" stroke="black" cx="679.39" cy="-510" rx="59.31" ry="18"/>
<text text-anchor="middle" x="679.39" y="-507.2" font-family="sans" font-size="11.00">arp_output_request</text>
</g>
<!-- control_input&#45;&gt;arp_output_request -->
<g id="edge2" class="edge">
<title>control_input&#45;&gt;arp_output_request</title>
<path fill="none" stroke="blue" stroke-width="2" d="M518.1,-468.82C547.4,-476.35 590.05,-487.31 623.99,-496.03"/>
<polygon fill="blue" stroke="blue" stroke-width="2" points="623.21,-499.44 633.77,-498.54 624.95,-492.66 623.21,-499.44"/>
</g>
<!-- icmp_output_request -->
<g id="node4" class="node">
<title>icmp_output_request</title>
<ellipse fill="none" stroke="black" cx="679.39" cy="-364" rx="63.5" ry="18"/>
<text text-anchor="middle" x="679.39" y="-361.2" font-family="sans" font-size="11.00">icmp_output_request</text>
</g>
<!-- control_input&#45;&gt;icmp_output_request -->
<g id="edge3" class="edge">
<title>control_input&#45;&gt;icmp_output_request</title>
<path fill="none" stroke="blue" stroke-width="2" d="M514.84,-449.08C527.15,-444.48 541.32,-438.85 553.84,-433 584.43,-418.72 617.82,-400.04 642.33,-385.72"/>
<polygon fill="blue" stroke="blue" stroke-width="2" points="644.42,-388.55 651.26,-380.46 640.87,-382.52 644.42,-388.55"/>
</g>
<!-- eth_output -->
<g id="node13" class="node">
<title>eth_output</title>
<ellipse fill="none" stroke="black" cx="1288.87" cy="-576" rx="33.8" ry="18"/>
<text text-anchor="middle" x="1288.87" y="-573.2" font-family="sans" font-size="11.00">eth_output</text>
</g>
<!-- arp_output_request&#45;&gt;eth_output -->
<g id="edge24" class="edge">
<title>arp_output_request&#45;&gt;eth_output</title>
<path fill="none" stroke="black" d="M735.32,-503.87C829.27,-495.19 1025.96,-484.87 1183.94,-529 1201.57,-533.92 1203.4,-541.16 1219.94,-549 1229.85,-553.7 1240.8,-558.3 1250.97,-562.33"/>
<polygon fill="black" stroke="black" points="1249.83,-565.65 1260.42,-566.01 1252.37,-559.12 1249.83,-565.65"/>
</g>
<!-- arp_output_error -->
<g id="node27" class="node">
<title>arp_output_error</title>
<ellipse fill="none" stroke="darkorange" cx="886.35" cy="-464" rx="51.03" ry="18"/>
<text text-anchor="middle" x="886.35" y="-461.2" font-family="sans" font-size="11.00">arp_output_error</text>
</g>
<!-- arp_output_request&#45;&gt;arp_output_error -->
<g id="edge25" class="edge">
<title>arp_output_request&#45;&gt;arp_output_error</title>
<path fill="none" stroke="black" d="M727.41,-499.45C758.9,-492.38 800.39,-483.07 832.94,-475.76"/>
<polygon fill="black" stroke="black" points="833.74,-479.17 842.73,-473.56 832.21,-472.34 833.74,-479.17"/>
</g>
<!-- icmp_output -->
<g id="node29" class="node">
<title>icmp_output</title>
<ellipse fill="none" stroke="black" cx="886.35" cy="-272" rx="37.98" ry="18"/>
<text text-anchor="middle" x="886.35" y="-269.2" font-family="sans" font-size="11.00">icmp_output</text>
</g>
<!-- icmp_output_request&#45;&gt;icmp_output -->
<g id="edge33" class="edge">
<title>icmp_output_request&#45;&gt;icmp_output</title>
<path fill="none" stroke="black" d="M722.32,-350.72C737.22,-345.64 754,-339.49 768.94,-333 797.82,-320.46 829.39,-303.71 852.36,-290.94"/>
<polygon fill="black" stroke="black" points="854.32,-293.85 861.33,-285.91 850.89,-287.75 854.32,-293.85"/>
</g>
<!-- icmp_request_output_error -->
<g id="node32" class="node">
<title>icmp_request_output_error</title>
<ellipse fill="none" stroke="darkorange" cx="886.35" cy="-364" rx="81.32" ry="18"/>
<text text-anchor="middle" x="886.35" y="-361.2" font-family="sans" font-size="11.00">icmp_request_output_error</text>
</g>
<!-- icmp_output_request&#45;&gt;icmp_request_output_error -->
<g id="edge32" class="edge">
<title>icmp_output_request&#45;&gt;icmp_request_output_error</title>
<path fill="none" stroke="black" d="M743,-364C759.24,-364 777.06,-364 794.43,-364"/>
<polygon fill="black" stroke="black" points="794.59,-367.5 804.59,-364 794.59,-360.5 794.59,-367.5"/>
</g>
<!-- control_output -->
<g id="node5" class="node">
<title>control_output</title>
<ellipse fill="none" stroke="black" cx="886.35" cy="-72" rx="44.51" ry="18"/>
<text text-anchor="middle" x="886.35" y="-69.2" font-family="sans" font-size="11.00">control_output</text>
</g>
<!-- control_output_unknown_type -->
<g id="node6" class="node">
<title>control_output_unknown_type</title>
<ellipse fill="none" stroke="darkorange" cx="1093.85" cy="-72" rx="90.18" ry="18"/>
<text text-anchor="middle" x="1093.85" y="-69.2" font-family="sans" font-size="11.00">control_output_unknown_type</text>
</g>
<!-- control_output&#45;&gt;control_output_unknown_type -->
<g id="edge4" class="edge">
<title>control_output&#45;&gt;control_output_unknown_type</title>
<path fill="none" stroke="black" d="M930.93,-72C949.32,-72 971.55,-72 993.56,-72"/>
<polygon fill="black" stroke="black" points="993.65,-75.5 1003.65,-72 993.65,-68.5 993.65,-75.5"/>
</g>
<!-- error_no_headroom -->
<g id="node7" class="node">
<title>error_no_headroom</title>
<ellipse fill="none" stroke="darkorange" cx="1460" cy="-314" rx="59.31" ry="18"/>
<text text-anchor="middle" x="1460" y="-311.2" font-family="sans" font-size="11.00">error_no_headroom</text>
</g>
<!-- eth_input -->
<g id="node8" class="node">
<title>eth_input</title>
<ellipse fill="none" stroke="black" cx="139.93" cy="-271" rx="29.12" ry="18"/>
<text text-anchor="middle" x="139.93" y="-268.2" font-family="sans" font-size="11.00">eth_input</text>
</g>
<!-- eth_input_unknown_type -->
<g id="node9" class="node">
<title>eth_input_unknown_type</title>
<ellipse fill="none" stroke="darkorange" cx="300.76" cy="-244" rx="74.79" ry="18"/>
<text text-anchor="middle" x="300.76" y="-241.2" font-family="sans" font-size="11.00">eth_input_unknown_type</text>
</g>
<!-- eth_input&#45;&gt;eth_input_unknown_type -->
<g id="edge5" class="edge">
<title>eth_input&#45;&gt;eth_input_unknown_type</title>
<path fill="none" stroke="black" d="M168.6,-266.3C185.4,-263.44 207.68,-259.65 229.09,-256.01"/>
<polygon fill="black" stroke="black" points="229.91,-259.42 239.18,-254.3 228.73,-252.52 229.91,-259.42"/>
</g>
<!-- eth_input_unknown_vlan -->
<g id="node10" class="node">
<title>eth_input_unknown_vlan</title>
<ellipse fill="none" stroke="darkorange" cx="300.76" cy="-190" rx="73.62" ry="18"/>
<text text-anchor="middle" x="300.76" y="-187.2" font-family="sans" font-size="11.00">eth_input_unknown_vlan</text>
</g>
<!-- eth_input&#45;&gt;eth_input_unknown_vlan -->
<g id="edge6" class="edge">
<title>eth_input&#45;&gt;eth_input_unknown_vlan</title>
<path fill="none" stroke="black" d="M163.23,-259.54C171.72,-254.96 181.39,-249.48 189.86,-244 206.66,-233.14 208.28,-226.53 225.86,-217 231.91,-213.72 238.44,-210.68 245.03,-207.92"/>
<polygon fill="black" stroke="black" points="246.68,-211.03 254.68,-204.08 244.09,-204.53 246.68,-211.03"/>
</g>
<!-- arp_input -->
<g id="node11" class="node">
<title>arp_input</title>
<ellipse fill="none" stroke="black" cx="886.35" cy="-637" rx="29.12" ry="18"/>
<text text-anchor="middle" x="886.35" y="-634.2" font-family="sans" font-size="11.00">arp_input</text>
</g>
<!-- eth_input&#45;&gt;arp_input -->
<g id="edge7" class="edge">
<title>eth_input&#45;&gt;arp_input</title>
<path fill="none" stroke="black" d="M155.93,-286.39C194.72,-325.37 302.9,-428.98 411.65,-487 563.29,-567.89 765.8,-613.73 848.17,-630.08"/>
<polygon fill="black" stroke="black" points="847.58,-633.53 858.06,-632.01 848.92,-626.66 847.58,-633.53"/>
</g>
<!-- ip_input -->
<g id="node12" class="node">
<title>ip_input</title>
<ellipse fill="none" stroke="black" cx="300.76" cy="-298" rx="27" ry="18"/>
<text text-anchor="middle" x="300.76" y="-295.2" font-family="sans" font-size="11.00">ip_input</text>
</g>
<!-- eth_input&#45;&gt;ip_input -->
<g id="edge8" class="edge">
<title>eth_input&#45;&gt;ip_input</title>
<path fill="none" stroke="black" d="M168.6,-275.7C195.19,-280.22 235.5,-287.08 264.41,-291.99"/>
<polygon fill="black" stroke="black" points="264.06,-295.48 274.5,-293.71 265.23,-288.58 264.06,-295.48"/>
</g>
<!-- arp_output_reply -->
<g id="node19" class="node">
<title>arp_output_reply</title>
<ellipse fill="none" stroke="black" cx="1093.85" cy="-826" rx="51.62" ry="18"/>
<text text-anchor="middle" x="1093.85" y="-823.2" font-family="sans" font-size="11.00">arp_output_reply</text>
</g>
<!-- arp_input&#45;&gt;arp_output_reply -->
<g id="edge15" class="edge">
<title>arp_input&#45;&gt;arp_output_reply</title>
<path fill="none" stroke="black" d="M895.03,-654.28C910.64,-687.41 949.25,-760.01 1003.76,-799 1013.72,-806.13 1025.59,-811.4 1037.37,-815.29"/>
<polygon fill="black" stroke="black" points="1036.61,-818.72 1047.19,-818.25 1038.63,-812.02 1036.61,-818.72"/>
</g>
<!-- arp_input_reply -->
<g id="node20" class="node">
<title>arp_input_reply</title>
<ellipse fill="none" stroke="darkorange" cx="1093.85" cy="-772" rx="47.43" ry="18"/>
<text text-anchor="middle" x="1093.85" y="-769.2" font-family="sans" font-size="11.00">arp_input_reply</text>
</g>
<!-- arp_input&#45;&gt;arp_input_reply -->
<g id="edge16" class="edge">
<title>arp_input&#45;&gt;arp_input_reply</title>
<path fill="none" stroke="black" d="M900.33,-652.98C920.21,-676.46 960.48,-720.16 1003.76,-745 1015.49,-751.73 1029.07,-756.95 1042.03,-760.92"/>
<polygon fill="black" stroke="black" points="1041.21,-764.32 1051.79,-763.72 1043.14,-757.6 1041.21,-764.32"/>
</g>
<!-- arp_input_op_unsupp -->
<g id="node21" class="node">
<title>arp_input_op_unsupp</title>
<ellipse fill="none" stroke="darkorange" cx="1093.85" cy="-718" rx="63.5" ry="18"/>
<text text-anchor="middle" x="1093.85" y="-715.2" font-family="sans" font-size="11.00">arp_input_op_unsupp</text>
</g>
<!-- arp_input&#45;&gt;arp_input_op_unsupp -->
<g id="edge17" class="edge">
<title>arp_input&#45;&gt;arp_input_op_unsupp</title>
<path fill="none" stroke="black" d="M909.27,-648.29C932.38,-659.93 970.04,-678.14 1003.76,-691 1014.62,-695.14 1026.41,-699.09 1037.75,-702.62"/>
<polygon fill="black" stroke="black" points="1036.98,-706.05 1047.57,-705.61 1039.03,-699.35 1036.98,-706.05"/>
</g>
<!-- arp_input_proto_unsupp -->
<g id="node22" class="node">
<title>arp_input_proto_unsupp</title>
<ellipse fill="none" stroke="darkorange" cx="1093.85" cy="-664" rx="72.36" ry="18"/>
<text text-anchor="middle" x="1093.85" y="-661.2" font-family="sans" font-size="11.00">arp_input_proto_unsupp</text>
</g>
<!-- arp_input&#45;&gt;arp_input_proto_unsupp -->
<g id="edge18" class="edge">
<title>arp_input&#45;&gt;arp_input_proto_unsupp</title>
<path fill="none" stroke="black" d="M915.06,-640.64C941.7,-644.14 983.13,-649.58 1019.3,-654.34"/>
<polygon fill="black" stroke="black" points="1018.97,-657.82 1029.35,-655.66 1019.89,-650.88 1018.97,-657.82"/>
</g>
<!-- arp_input_error -->
<g id="node23" class="node">
<title>arp_input_error</title>
<ellipse fill="none" stroke="darkorange" cx="1093.85" cy="-610" rx="46.85" ry="18"/>
<text text-anchor="middle" x="1093.85" y="-607.2" font-family="sans" font-size="11.00">arp_input_error</text>
</g>
<!-- arp_input&#45;&gt;arp_input_error -->
<g id="edge19" class="edge">
<title>arp_input&#45;&gt;arp_input_error</title>
<path fill="none" stroke="black" d="M915.06,-633.36C946.81,-629.19 999.57,-622.26 1039.39,-617.02"/>
<polygon fill="black" stroke="black" points="1040.01,-620.47 1049.47,-615.7 1039.1,-613.53 1040.01,-620.47"/>
</g>
<!-- arp_input_drop -->
<g id="node24" class="node">
<title>arp_input_drop</title>
<ellipse fill="none" stroke="darkorange" cx="1093.85" cy="-556" rx="45.68" ry="18"/>
<text text-anchor="middle" x="1093.85" y="-553.2" font-family="sans" font-size="11.00">arp_input_drop</text>
</g>
<!-- arp_input&#45;&gt;arp_input_drop -->
<g id="edge20" class="edge">
<title>arp_input&#45;&gt;arp_input_drop</title>
<path fill="none" stroke="black" d="M909.27,-625.71C932.38,-614.07 970.04,-595.86 1003.76,-583 1017.25,-577.86 1032.17,-573.02 1045.88,-568.89"/>
<polygon fill="black" stroke="black" points="1047.01,-572.21 1055.61,-566.02 1045.03,-565.49 1047.01,-572.21"/>
</g>
<!-- ip_output -->
<g id="node25" class="node">
<title>ip_output</title>
<ellipse fill="none" stroke="black" cx="1093.85" cy="-464" rx="29.12" ry="18"/>
<text text-anchor="middle" x="1093.85" y="-461.2" font-family="sans" font-size="11.00">ip_output</text>
</g>
<!-- arp_input&#45;&gt;ip_output -->
<g id="edge21" class="edge">
<title>arp_input&#45;&gt;ip_output</title>
<path fill="none" stroke="black" d="M902.64,-621.72C924.4,-600.23 965.88,-560.2 1003.76,-529 1023.7,-512.57 1047.36,-495.41 1065.29,-482.84"/>
<polygon fill="black" stroke="black" points="1067.38,-485.65 1073.59,-477.07 1063.38,-479.91 1067.38,-485.65"/>
</g>
<!-- ip_forward -->
<g id="node33" class="node">
<title>ip_forward</title>
<ellipse fill="none" stroke="black" cx="482.75" cy="-298" rx="32.63" ry="18"/>
<text text-anchor="middle" x="482.75" y="-295.2" font-family="sans" font-size="11.00">ip_forward</text>
</g>
<!-- ip_input&#45;&gt;ip_forward -->
<g id="edge40" class="edge">
<title>ip_input&#45;&gt;ip_forward</title>
<path fill="none" stroke="black" d="M327.93,-298C357.26,-298 405.24,-298 439.82,-298"/>
<polygon fill="black" stroke="black" points="440.08,-301.5 450.08,-298 440.08,-294.5 440.08,-301.5"/>
</g>
<!-- ip_input_no_route -->
<g id="node35" class="node">
<title>ip_input_no_route</title>
<ellipse fill="none" stroke="black" cx="679.39" cy="-252" rx="53.96" ry="18"/>
<text text-anchor="middle" x="679.39" y="-249.2" font-family="sans" font-size="11.00">ip_input_no_route</text>
</g>
<!-- ip_input&#45;&gt;ip_input_no_route -->
<g id="edge42" class="edge">
<title>ip_input&#45;&gt;ip_input_no_route</title>
<path fill="none" stroke="black" d="M325.96,-290.8C348.07,-284.52 381.76,-275.7 411.65,-271 480.91,-260.11 561.28,-255.45 615.55,-253.47"/>
<polygon fill="black" stroke="black" points="615.84,-256.96 625.71,-253.12 615.59,-249.97 615.84,-256.96"/>
</g>
<!-- ip_input_local -->
<g id="node36" class="node">
<title>ip_input_local</title>
<ellipse fill="none" stroke="black" cx="482.75" cy="-183" rx="41.49" ry="18"/>
<text text-anchor="middle" x="482.75" y="-180.2" font-family="sans" font-size="11.00">ip_input_local</text>
</g>
<!-- ip_input&#45;&gt;ip_input_local -->
<g id="edge41" class="edge">
<title>ip_input&#45;&gt;ip_input_local</title>
<path fill="none" stroke="black" d="M326.13,-291.72C341.08,-287.25 360.24,-280.36 375.65,-271 394.2,-259.73 395.1,-252.04 411.65,-238 425,-226.67 440.25,-214.61 453.11,-204.67"/>
<polygon fill="black" stroke="black" points="455.37,-207.35 461.17,-198.48 451.11,-201.8 455.37,-207.35"/>
</g>
<!-- ip_input_bad_checksum -->
<g id="node37" class="node">
<title>ip_input_bad_checksum</title>
<ellipse fill="none" stroke="darkorange" cx="482.75" cy="-406" rx="71.19" ry="18"/>
<text text-anchor="middle" x="482.75" y="-403.2" font-family="sans" font-size="11.00">ip_input_bad_checksum</text>
</g>
<!-- ip_input&#45;&gt;ip_input_bad_checksum -->
<g id="edge43" class="edge">
<title>ip_input&#45;&gt;ip_input_bad_checksum</title>
<path fill="none" stroke="black" d="M317.94,-312.11C338.58,-329.58 375.9,-359.4 411.65,-379 417.28,-382.09 423.34,-384.98 429.45,-387.65"/>
<polygon fill="black" stroke="black" points="428.46,-391.03 439.04,-391.64 431.15,-384.57 428.46,-391.03"/>
</g>
<!-- ip_input_bad_length -->
<g id="node38" class="node">
<title>ip_input_bad_length</title>
<ellipse fill="none" stroke="darkorange" cx="482.75" cy="-352" rx="60.48" ry="18"/>
<text text-anchor="middle" x="482.75" y="-349.2" font-family="sans" font-size="11.00">ip_input_bad_length</text>
</g>
<!-- ip_input&#45;&gt;ip_input_bad_length -->
<g id="edge44" class="edge">
<title>ip_input&#45;&gt;ip_input_bad_length</title>
<path fill="none" stroke="black" d="M325.66,-305.17C352.03,-313.08 395.28,-326.06 429.57,-336.35"/>
<polygon fill="black" stroke="black" points="428.85,-339.79 439.44,-339.31 430.87,-333.08 428.85,-339.79"/>
</g>
<!-- eth_output&#45;&gt;error_no_headroom -->
<g id="edge11" class="edge">
<title>eth_output&#45;&gt;error_no_headroom</title>
<path fill="none" stroke="black" d="M1320.49,-569.39C1333.33,-565.31 1347.6,-558.91 1357.79,-549 1388.99,-518.68 1431.7,-397.18 1450.04,-341.78"/>
<polygon fill="black" stroke="black" points="1453.48,-342.53 1453.27,-331.94 1446.83,-340.34 1453.48,-342.53"/>
</g>
<!-- port_tx -->
<g id="node14" class="node">
<title>port_tx</title>
<ellipse fill="none" stroke="black" cx="1460" cy="-630" rx="27" ry="18"/>
<text text-anchor="middle" x="1460" y="-627.2" font-family="sans" font-size="11.00">port_tx</text>
</g>
<!-- eth_output&#45;&gt;port_tx -->
<g id="edge9" class="edge">
<title>eth_output&#45;&gt;port_tx</title>
<path fill="none" stroke="black" d="M1318.18,-585.04C1347.79,-594.49 1394.25,-609.33 1425.63,-619.35"/>
<polygon fill="black" stroke="black" points="1424.66,-622.71 1435.25,-622.42 1426.79,-616.04 1424.66,-622.71"/>
</g>
<!-- eth_output_inval -->
<g id="node15" class="node">
<title>eth_output_inval</title>
<ellipse fill="none" stroke="darkorange" cx="1460" cy="-576" rx="50.45" ry="18"/>
<text text-anchor="middle" x="1460" y="-573.2" font-family="sans" font-size="11.00">eth_output_inval</text>
</g>
<!-- eth_output&#45;&gt;eth_output_inval -->
<g id="edge10" class="edge">
<title>eth_output&#45;&gt;eth_output_inval</title>
<path fill="none" stroke="black" d="M1322.88,-576C1344.61,-576 1373.68,-576 1399.37,-576"/>
<polygon fill="black" stroke="black" points="1399.4,-579.5 1409.4,-576 1399.4,-572.5 1399.4,-579.5"/>
</g>
<!-- port_tx_error -->
<g id="node18" class="node">
<title>port_tx_error</title>
<ellipse fill="none" stroke="darkorange" cx="1602.38" cy="-630" rx="40.32" ry="18"/>
<text text-anchor="middle" x="1602.38" y="-627.2" font-family="sans" font-size="11.00">port_tx_error</text>
</g>
<!-- port_tx&#45;&gt;port_tx_error -->
<g id="edge14" class="edge">
<title>port_tx&#45;&gt;port_tx_error</title>
<path fill="none" stroke="black" d="M1487.08,-630C1505.29,-630 1530.15,-630 1552.04,-630"/>
<polygon fill="black" stroke="black" points="1552.18,-633.5 1562.18,-630 1552.18,-626.5 1552.18,-633.5"/>
</g>
<!-- port_rx -->
<g id="node16" class="node">
<title>port_rx</title>
<ellipse fill="none" stroke="blue" stroke-width="2" cx="27" cy="-244" rx="27" ry="18"/>
<text text-anchor="middle" x="27" y="-241.2" font-family="sans" font-size="11.00">port_rx</text>
</g>
<!-- port_rx&#45;&gt;eth_input -->
<g id="edge12" class="edge">
<title>port_rx&#45;&gt;eth_input</title>
<path fill="none" stroke="blue" stroke-width="2" d="M52.62,-249.99C67.31,-253.57 86.24,-258.18 102.63,-262.16"/>
<polygon fill="blue" stroke="blue" stroke-width="2" points="101.9,-265.59 112.44,-264.55 103.55,-258.79 101.9,-265.59"/>
</g>
<!-- port_rx_no_iface -->
<g id="node17" class="node">
<title>port_rx_no_iface</title>
<ellipse fill="none" stroke="darkorange" cx="139.93" cy="-217" rx="49.86" ry="18"/>
<text text-anchor="middle" x="139.93" y="-214.2" font-family="sans" font-size="11.00">port_rx_no_iface</text>
</g>
<!-- port_rx&#45;&gt;port_rx_no_iface -->
<g id="edge13" class="edge">
<title>port_rx&#45;&gt;port_rx_no_iface</title>
<path fill="none" stroke="blue" stroke-width="2" d="M52.62,-238.01C63.1,-235.46 75.72,-232.38 88.05,-229.38"/>
<polygon fill="blue" stroke="blue" stroke-width="2" points="88.93,-232.77 97.82,-227.01 87.28,-225.97 88.93,-232.77"/>
</g>
<!-- arp_output_reply&#45;&gt;eth_output -->
<g id="edge22" class="edge">
<title>arp_output_reply&#45;&gt;eth_output</title>
<path fill="none" stroke="black" d="M1142.02,-819.46C1156.76,-815.5 1172.22,-809.17 1183.94,-799 1244.54,-746.44 1272.16,-650.99 1282.57,-603.86"/>
<polygon fill="black" stroke="black" points="1286,-604.54 1284.65,-594.03 1279.15,-603.1 1286,-604.54"/>
</g>
<!-- arp_output_reply_error -->
<g id="node26" class="node">
<title>arp_output_reply_error</title>
<ellipse fill="none" stroke="darkorange" cx="1288.87" cy="-826" rx="68.85" ry="18"/>
<text text-anchor="middle" x="1288.87" y="-823.2" font-family="sans" font-size="11.00">arp_output_reply_error</text>
</g>
<!-- arp_output_reply&#45;&gt;arp_output_reply_error -->
<g id="edge23" class="edge">
<title>arp_output_reply&#45;&gt;arp_output_reply_error</title>
<path fill="none" stroke="black" d="M1145.56,-826C1165.14,-826 1187.98,-826 1209.57,-826"/>
<polygon fill="black" stroke="black" points="1209.71,-829.5 1219.71,-826 1209.71,-822.5 1209.71,-829.5"/>
</g>
<!-- ip_output&#45;&gt;eth_output -->
<g id="edge48" class="edge">
<title>ip_output&#45;&gt;eth_output</title>
<path fill="none" stroke="black" d="M1122.35,-469.17C1141.17,-473.77 1165.89,-482 1183.94,-496 1206.45,-513.45 1197.73,-531.18 1219.94,-549 1228.34,-555.74 1238.64,-560.98 1248.65,-564.97"/>
<polygon fill="black" stroke="black" points="1247.5,-568.28 1258.09,-568.43 1249.9,-561.7 1247.5,-568.28"/>
</g>
<!-- ip_output_no_route -->
<g id="node41" class="node">
<title>ip_output_no_route</title>
<ellipse fill="none" stroke="darkorange" cx="1288.87" cy="-360" rx="58.14" ry="18"/>
<text text-anchor="middle" x="1288.87" y="-357.2" font-family="sans" font-size="11.00">ip_output_no_route</text>
</g>
<!-- ip_output&#45;&gt;ip_output_no_route -->
<g id="edge49" class="edge">
<title>ip_output&#45;&gt;ip_output_no_route</title>
<path fill="none" stroke="black" d="M1114.17,-450.64C1138.24,-434.34 1180.96,-406.56 1219.94,-387 1226.57,-383.67 1233.71,-380.46 1240.79,-377.48"/>
<polygon fill="black" stroke="black" points="1242.41,-380.6 1250.34,-373.57 1239.76,-374.12 1242.41,-380.6"/>
</g>
<!-- ip_output_error -->
<g id="node42" class="node">
<title>ip_output_error</title>
<ellipse fill="none" stroke="darkorange" cx="1288.87" cy="-468" rx="46.85" ry="18"/>
<text text-anchor="middle" x="1288.87" y="-465.2" font-family="sans" font-size="11.00">ip_output_error</text>
</g>
<!-- ip_output&#45;&gt;ip_output_error -->
<g id="edge50" class="edge">
<title>ip_output&#45;&gt;ip_output_error</title>
<path fill="none" stroke="black" d="M1123.33,-464.59C1151.77,-465.18 1196.25,-466.1 1231.8,-466.84"/>
<polygon fill="black" stroke="black" points="1231.97,-470.34 1242.04,-467.05 1232.11,-463.34 1231.97,-470.34"/>
</g>
<!-- arp_queue_full -->
<g id="node43" class="node">
<title>arp_queue_full</title>
<ellipse fill="none" stroke="darkorange" cx="1288.87" cy="-414" rx="43.92" ry="18"/>
<text text-anchor="middle" x="1288.87" y="-411.2" font-family="sans" font-size="11.00">arp_queue_full</text>
</g>
<!-- ip_output&#45;&gt;arp_queue_full -->
<g id="edge51" class="edge">
<title>ip_output&#45;&gt;arp_queue_full</title>
<path fill="none" stroke="black" d="M1121.28,-457.15C1152.18,-449.15 1203.87,-435.76 1241.49,-426.01"/>
<polygon fill="black" stroke="black" points="1242.41,-429.39 1251.21,-423.5 1240.65,-422.61 1242.41,-429.39"/>
</g>
<!-- ipip_output -->
<g id="node44" class="node">
<title>ipip_output</title>
<ellipse fill="none" stroke="black" cx="1288.87" cy="-522" rx="34.38" ry="18"/>
<text text-anchor="middle" x="1288.87" y="-519.2" font-family="sans" font-size="11.00">ipip_output</text>
</g>
<!-- ip_output&#45;&gt;ipip_output -->
<g id="edge52" class="edge">
<title>ip_output&#45;&gt;ipip_output</title>
<path fill="none" stroke="black" d="M1122.92,-467.51C1157.56,-475.62 1216.46,-493.19 1253.7,-506.44"/>
<polygon fill="black" stroke="black" points="1252.54,-509.74 1263.14,-509.87 1254.94,-503.16 1252.54,-509.74"/>
</g>
<!-- icmp_input -->
<g id="node28" class="node">
<title>icmp_input</title>
<ellipse fill="none" stroke="black" cx="679.39" cy="-144" rx="33.8" ry="18"/>
<text text-anchor="middle" x="679.39" y="-141.2" font-family="sans" font-size="11.00">icmp_input</text>
</g>
<!-- icmp_input&#45;&gt;control_output -->
<g id="edge27" class="edge">
<title>icmp_input&#45;&gt;control_output</title>
<path fill="none" stroke="black" d="M709.93,-136.33C727.35,-131.48 749.69,-124.69 768.94,-117 785.56,-110.37 788.42,-105.86 804.94,-99 816.31,-94.28 828.83,-89.76 840.53,-85.82"/>
<polygon fill="black" stroke="black" points="841.73,-89.11 850.13,-82.65 839.53,-82.46 841.73,-89.11"/>
</g>
<!-- icmp_input&#45;&gt;icmp_output -->
<g id="edge26" class="edge">
<title>icmp_input&#45;&gt;icmp_output</title>
<path fill="none" stroke="black" d="M711.44,-149.56C729.17,-153.66 751.3,-160.41 768.94,-171 788.34,-182.65 788.12,-191.87 804.94,-207 821.72,-222.09 841.41,-238.04 857.11,-250.36"/>
<polygon fill="black" stroke="black" points="855.33,-253.41 865.37,-256.8 859.64,-247.89 855.33,-253.41"/>
</g>
<!-- icmp_input_invalid -->
<g id="node30" class="node">
<title>icmp_input_invalid</title>
<ellipse fill="none" stroke="darkorange" cx="886.35" cy="-180" rx="55.8" ry="18"/>
<text text-anchor="middle" x="886.35" y="-177.2" font-family="sans" font-size="11.00">icmp_input_invalid</text>
</g>
<!-- icmp_input&#45;&gt;icmp_input_invalid -->
<g id="edge28" class="edge">
<title>icmp_input&#45;&gt;icmp_input_invalid</title>
<path fill="none" stroke="black" d="M711.52,-149.47C741.92,-154.81 788.96,-163.07 826.44,-169.65"/>
<polygon fill="black" stroke="black" points="826.28,-173.18 836.73,-171.46 827.49,-166.28 826.28,-173.18"/>
</g>
<!-- icmp_input_unsupported -->
<g id="node31" class="node">
<title>icmp_input_unsupported</title>
<ellipse fill="none" stroke="darkorange" cx="886.35" cy="-126" rx="73.62" ry="18"/>
<text text-anchor="middle" x="886.35" y="-123.2" font-family="sans" font-size="11.00">icmp_input_unsupported</text>
</g>
<!-- icmp_input&#45;&gt;icmp_input_unsupported -->
<g id="edge29" class="edge">
<title>icmp_input&#45;&gt;icmp_input_unsupported</title>
<path fill="none" stroke="black" d="M712.87,-141.15C738.03,-138.94 773.98,-135.78 806.56,-132.92"/>
<polygon fill="black" stroke="black" points="806.89,-136.4 816.54,-132.04 806.28,-129.43 806.89,-136.4"/>
</g>
<!-- icmp_output&#45;&gt;error_no_headroom -->
<g id="edge31" class="edge">
<title>icmp_output&#45;&gt;error_no_headroom</title>
<path fill="none" stroke="black" d="M924.33,-273.22C1003.81,-276.06 1196.78,-284.1 1357.79,-300 1370.4,-301.25 1383.85,-302.88 1396.69,-304.6"/>
<polygon fill="black" stroke="black" points="1396.44,-308.1 1406.83,-305.99 1397.39,-301.17 1396.44,-308.1"/>
</g>
<!-- icmp_output&#45;&gt;ip_output -->
<g id="edge30" class="edge">
<title>icmp_output&#45;&gt;ip_output</title>
<path fill="none" stroke="black" d="M907.36,-287.16C923.95,-299.96 947.94,-319.04 967.76,-337 1005.78,-371.47 1047.04,-414.58 1071.38,-440.67"/>
<polygon fill="black" stroke="black" points="1069,-443.24 1078.37,-448.19 1074.13,-438.48 1069,-443.24"/>
</g>
<!-- ip_forward&#45;&gt;ip_output -->
<g id="edge34" class="edge">
<title>ip_forward&#45;&gt;ip_output</title>
<path fill="none" stroke="black" d="M513.5,-304.45C527.01,-308.55 542.47,-315.03 553.84,-325 578.97,-347.02 562.2,-372.24 589.84,-391 659.84,-438.51 884.33,-422.95 967.76,-437 997.8,-442.06 1031.54,-449.44 1056.41,-455.21"/>
<polygon fill="black" stroke="black" points="1055.61,-458.62 1066.14,-457.49 1057.21,-451.8 1055.61,-458.62"/>
</g>
<!-- ip_forward_ttl_exceeded -->
<g id="node34" class="node">
<title>ip_forward_ttl_exceeded</title>
<ellipse fill="none" stroke="black" cx="679.39" cy="-306" rx="73.04" ry="18"/>
<text text-anchor="middle" x="679.39" y="-303.2" font-family="sans" font-size="11.00">ip_forward_ttl_exceeded</text>
</g>
<!-- ip_forward&#45;&gt;ip_forward_ttl_exceeded -->
<g id="edge35" class="edge">
<title>ip_forward&#45;&gt;ip_forward_ttl_exceeded</title>
<path fill="none" stroke="black" d="M515.45,-299.3C537.52,-300.21 568.01,-301.46 596.66,-302.64"/>
<polygon fill="black" stroke="black" points="596.56,-306.14 606.69,-303.05 596.85,-299.15 596.56,-306.14"/>
</g>
<!-- ip_forward_ttl_exceeded&#45;&gt;error_no_headroom -->
<g id="edge37" class="edge">
<title>ip_forward_ttl_exceeded&#45;&gt;error_no_headroom</title>
<path fill="none" stroke="black" d="M752.94,-306.75C902.72,-308.28 1244.31,-311.79 1390.53,-313.3"/>
<polygon fill="black" stroke="black" points="1390.68,-316.8 1400.71,-313.4 1390.75,-309.8 1390.68,-316.8"/>
</g>
<!-- ip_forward_ttl_exceeded&#45;&gt;icmp_output -->
<g id="edge36" class="edge">
<title>ip_forward_ttl_exceeded&#45;&gt;icmp_output</title>
<path fill="none" stroke="black" d="M740.5,-296.03C772.41,-290.74 810.97,-284.34 840.28,-279.48"/>
<polygon fill="black" stroke="black" points="840.95,-282.91 850.24,-277.82 839.8,-276.01 840.95,-282.91"/>
</g>
<!-- ip_input_no_route&#45;&gt;error_no_headroom -->
<g id="edge39" class="edge">
<title>ip_input_no_route&#45;&gt;error_no_headroom</title>
<path fill="none" stroke="black" d="M732.18,-248.44C754.54,-247.07 781.02,-245.67 804.94,-245 1051.23,-238.08 1115.72,-240.12 1357.79,-286 1374.55,-289.18 1392.59,-293.77 1408.72,-298.33"/>
<polygon fill="black" stroke="black" points="1407.91,-301.74 1418.49,-301.14 1409.85,-295.01 1407.91,-301.74"/>
</g>
<!-- ip_input_no_route&#45;&gt;icmp_output -->
<g id="edge38" class="edge">
<title>ip_input_no_route&#45;&gt;icmp_output</title>
<path fill="none" stroke="black" d="M731.06,-256.94C764.11,-260.17 806.92,-264.35 839.06,-267.48"/>
<polygon fill="black" stroke="black" points="838.8,-270.97 849.09,-268.46 839.48,-264.01 838.8,-270.97"/>
</g>
<!-- ip_input_local&#45;&gt;icmp_input -->
<g id="edge46" class="edge">
<title>ip_input_local&#45;&gt;icmp_input</title>
<path fill="none" stroke="black" d="M520.82,-175.57C554.1,-168.9 602.9,-159.13 637.35,-152.22"/>
<polygon fill="black" stroke="black" points="638.43,-155.58 647.55,-150.18 637.06,-148.71 638.43,-155.58"/>
</g>
<!-- ip_input_local_unknown_proto -->
<g id="node39" class="node">
<title>ip_input_local_unknown_proto</title>
<ellipse fill="none" stroke="darkorange" cx="679.39" cy="-198" rx="89.6" ry="18"/>
<text text-anchor="middle" x="679.39" y="-195.2" font-family="sans" font-size="11.00">ip_input_local_unknown_proto</text>
</g>
<!-- ip_input_local&#45;&gt;ip_input_local_unknown_proto -->
<g id="edge45" class="edge">
<title>ip_input_local&#45;&gt;ip_input_local_unknown_proto</title>
<path fill="none" stroke="black" d="M523.61,-186.07C541.64,-187.46 563.78,-189.17 585.61,-190.85"/>
<polygon fill="black" stroke="black" points="585.37,-194.34 595.61,-191.62 585.91,-187.36 585.37,-194.34"/>
</g>
<!-- ipip_input -->
<g id="node40" class="node">
<title>ipip_input</title>
<ellipse fill="none" stroke="black" cx="679.39" cy="-90" rx="29.7" ry="18"/>
<text text-anchor="middle" x="679.39" y="-87.2" font-family="sans" font-size="11.00">ipip_input</text>
</g>
<!-- ip_input_local&#45;&gt;ipip_input -->
<g id="edge47" class="edge">
<title>ip_input_local&#45;&gt;ipip_input</title>
<path fill="none" stroke="black" d="M504.77,-167.62C525.54,-152.99 558.64,-131.17 589.84,-117 606.33,-109.52 625.44,-103.39 641.69,-98.88"/>
<polygon fill="black" stroke="black" points="642.63,-102.25 651.38,-96.28 640.82,-95.49 642.63,-102.25"/>
</g>
<!-- ipip_input&#45;&gt;ip_input -->
<g id="edge53" class="edge">
<title>ipip_input&#45;&gt;ip_input</title>
<path fill="none" stroke="black" d="M649.22,-88.54C595.05,-87.49 478.36,-93.23 411.65,-156 372.65,-192.7 412.62,-232.25 375.65,-271 365.58,-281.55 351.06,-288 337.54,-291.93"/>
<polygon fill="black" stroke="black" points="336.34,-288.62 327.5,-294.47 338.05,-295.41 336.34,-288.62"/>
</g>
<!-- ipip_input_no_tunnel -->
<g id="node45" class="node">
<title>ipip_input_no_tunnel</title>
<ellipse fill="none" stroke="darkorange" cx="886.35" cy="-18" rx="61.74" ry="18"/>
<text text-anchor="middle" x="886.35" y="-15.2" font-family="sans" font-size="11.00">ipip_input_no_tunnel</text>
</g>
<!-- ipip_input&#45;&gt;ipip_input_no_tunnel -->
<g id="edge54" class="edge">
<title>ipip_input&#45;&gt;ipip_input_no_tunnel</title>
<path fill="none" stroke="black" d="M705.15,-80.87C730.24,-71.66 770.21,-57.11 804.94,-45 814.74,-41.58 825.24,-38 835.31,-34.61"/>
<polygon fill="black" stroke="black" points="836.43,-37.92 844.8,-31.42 834.2,-31.29 836.43,-37.92"/>
</g>
<!-- ipip_output&#45;&gt;error_no_headroom -->
<g id="edge57" class="edge">
<title>ipip_output&#45;&gt;error_no_headroom</title>
<path fill="none" stroke="black" d="M1320.36,-514.76C1333.02,-510.59 1347.2,-504.28 1357.79,-495 1406.26,-452.52 1436.43,-380.95 1450.2,-341.74"/>
<polygon fill="black" stroke="black" points="1453.59,-342.65 1453.5,-332.05 1446.96,-340.39 1453.59,-342.65"/>
</g>
<!-- ipip_output&#45;&gt;ip_output -->
<g id="edge55" class="edge">
<title>ipip_output&#45;&gt;ip_output</title>
<path fill="none" stroke="black" d="M1255.41,-517.45C1219.48,-508.73 1161.96,-491.43 1126.4,-478.63"/>
<polygon fill="black" stroke="black" points="1127.58,-475.33 1116.99,-475.15 1125.16,-481.9 1127.58,-475.33"/>
</g>
<!-- ipip_output_no_tunnel -->
<g id="node46" class="node">
<title>ipip_output_no_tunnel</title>
<ellipse fill="none" stroke="darkorange" cx="1460" cy="-522" rx="66.42" ry="18"/>
<text text-anchor="middle" x="1460" y="-519.2" font-family="sans" font-size="11.00">ipip_output_no_tunnel</text>
</g>
<!-- ipip_output&#45;&gt;ipip_output_no_tunnel -->
<g id="edge56" class="edge">
<title>ipip_output&#45;&gt;ipip_output_no_tunnel</title>
<path fill="none" stroke="black" d="M1323.28,-522C1340.49,-522 1362.23,-522 1383.23,-522"/>
<polygon fill="black" stroke="black" points="1383.46,-525.5 1393.46,-522 1383.46,-518.5 1383.46,-525.5"/>
</g>
</g>
</svg>
