<?xml version="1.0" encoding="UTF-8" standalone="no"?>
<!DOCTYPE svg PUBLIC "-//W3C//DTD SVG 1.1//EN"
 "http://www.w3.org/Graphics/SVG/1.1/DTD/svg11.dtd">
<!-- Generated by graphviz version 2.44.0 (0)
 -->
<!-- Title: gr&#45;0&#45;0002&#45;dplane Pages: 1 -->
<svg width="1851pt" height="840pt"
 viewBox="0.00 0.00 1851.25 840.00" xmlns="http://www.w3.org/2000/svg" xmlns:xlink="http://www.w3.org/1999/xlink">
<g id="graph0" class="graph" transform="scale(1 1) rotate(0) translate(4 836)">
<title>gr&#45;0&#45;0002&#45;dplane</title>
<polygon fill="white" stroke="transparent" points="-4,4 -4,-836 1847.25,-836 1847.25,4 -4,4"/>
<!-- control_input -->
<g id="node1" class="node">
<title>control_input</title>
<ellipse fill="none" stroke="blue" stroke-width="2" cx="40.16" cy="-583" rx="40.32" ry="18"/>
<text text-anchor="middle" x="40.16" y="-580.2" font-family="sans" font-size="11.00">control_input</text>
</g>
<!-- loopback_input -->
<g id="node2" class="node">
<title>loopback_input</title>
<ellipse fill="none" stroke="black" cx="161.91" cy="-409" rx="45.68" ry="18"/>
<text text-anchor="middle" x="161.91" y="-406.2" font-family="sans" font-size="11.00">loopback_input</text>
</g>
<!-- control_input&#45;&gt;loopback_input -->
<g id="edge1" class="edge">
<title>control_input&#45;&gt;loopback_input</title>
<path fill="none" stroke="blue" stroke-width="2" d="M53.08,-565.68C74.19,-535.01 118.24,-471.01 143.01,-435.02"/>
<polygon fill="blue" stroke="blue" stroke-width="2" points="146.08,-436.73 148.86,-426.51 140.31,-432.76 146.08,-436.73"/>
</g>
<!-- arp_output_request -->
<g id="node3" class="node">
<title>arp_output_request</title>
<ellipse fill="none" stroke="black" cx="1213.52" cy="-142" rx="59.31" ry="18"/>
<text text-anchor="middle" x="1213.52" y="-139.2" font-family="sans" font-size="11.00">arp_output_request</text>
</g>
<!-- control_input&#45;&gt;arp_output_request -->
<g id="edge2" class="edge">
<title>control_input&#45;&gt;arp_output_request</title>
<path fill="none" stroke="blue" stroke-width="2" d="M41.95,-564.73C45.42,-493.74 61.58,-237.44 116.32,-182 173.45,-124.14 214.38,-146 295.69,-146 295.69,-146 295.69,-146 947.14,-146 1014.13,-146 1090.62,-144.71 1144.21,-143.6"/>
<polygon fill="blue" stroke="blue" stroke-width="2" points="1144.36,-147.09 1154.28,-143.38 1144.21,-140.09 1144.36,-147.09"/>
</g>
<!-- icmp_local_send -->
<g id="node4" class="node">
<title>icmp_local_send</title>
<ellipse fill="none" stroke="black" cx="686.36" cy="-192" rx="49.28" ry="18"/>
<text text-anchor="middle" x="686.36" y="-189.2" font-family="sans" font-size="11.00">icmp_local_send</text>
</g>
<!-- control_input&#45;&gt;icmp_local_send -->
<g id="edge3" class="edge">
<title>control_input&#45;&gt;icmp_local_send</title>
<path fill="none" stroke="blue" stroke-width="2" d="M43.88,-564.93C50.35,-527.18 69.76,-438.73 116.32,-382 175.8,-309.53 201.94,-271 295.69,-271 295.69,-271 295.69,-271 431.38,-271 511.68,-271 600.09,-234.54 648.53,-211.16"/>
<polygon fill="blue" stroke="blue" stroke-width="2" points="650.24,-214.22 657.67,-206.67 647.15,-207.94 650.24,-214.22"/>
</g>
<!-- icmp6_local_send -->
<g id="node5" class="node">
<title>icmp6_local_send</title>
<ellipse fill="none" stroke="black" cx="296.69" cy="-720" rx="53.37" ry="18"/>
<text text-anchor="middle" x="296.69" y="-717.2" font-family="sans" font-size="11.00">icmp6_local_send</text>
</g>
<!-- control_input&#45;&gt;icmp6_local_send -->
<g id="edge4" class="edge">
<title>control_input&#45;&gt;icmp6_local_send</title>
<path fill="none" stroke="blue" stroke-width="2" d="M48.95,-600.79C60.22,-624.3 83.39,-665.18 116.32,-686 151.09,-707.99 196.71,-716.42 233.24,-719.39"/>
<polygon fill="blue" stroke="blue" stroke-width="2" points="233.07,-722.88 243.29,-720.09 233.56,-715.9 233.07,-722.88"/>
</g>
<!-- ndp_ns_output -->
<g id="node6" class="node">
<title>ndp_ns_output</title>
<ellipse fill="none" stroke="black" cx="430.38" cy="-676" rx="44.51" ry="18"/>
<text text-anchor="middle" x="430.38" y="-673.2" font-family="sans" font-size="11.00">ndp_ns_output</text>
</g>
<!-- control_input&#45;&gt;ndp_ns_output -->
<g id="edge5" class="edge">
<title>control_input&#45;&gt;ndp_ns_output</title>
<path fill="none" stroke="blue" stroke-width="2" d="M56.06,-599.63C70.06,-614.05 92.4,-634.12 116.32,-644 202.18,-679.47 312.09,-681.94 376.22,-679.6"/>
<polygon fill="blue" stroke="blue" stroke-width="2" points="376.65,-683.08 386.5,-679.17 376.36,-676.09 376.65,-683.08"/>
</g>
<!-- ip6_output -->
<g id="node7" class="node">
<title>ip6_output</title>
<ellipse fill="none" stroke="black" cx="1514" cy="-482" rx="32.63" ry="18"/>
<text text-anchor="middle" x="1514" y="-479.2" font-family="sans" font-size="11.00">ip6_output</text>
</g>
<!-- control_input&#45;&gt;ip6_output -->
<g id="edge6" class="edge">
<title>control_input&#45;&gt;ip6_output</title>
<path fill="none" stroke="blue" stroke-width="2" d="M78.26,-576.87C127.81,-574 218.36,-574 295.69,-574 295.69,-574 295.69,-574 1214.52,-574 1314.12,-574 1423.03,-522.91 1477.62,-496.64"/>
<polygon fill="blue" stroke="blue" stroke-width="2" points="1479.36,-499.69 1486.85,-492.2 1476.33,-493.38 1479.36,-499.69"/>
</g>
<!-- control_input&#45;&gt;ip6_output -->
<g id="edge8" class="edge">
<title>control_input&#45;&gt;ip6_output</title>
<path fill="none" stroke="blue" stroke-width="2" d="M78.26,-589.13C127.81,-592 218.36,-592 295.69,-592 295.69,-592 295.69,-592 1214.52,-592 1320.06,-592 1436.04,-534.64 1486.79,-502.52"/>
<polygon fill="blue" stroke="blue" stroke-width="2" points="1488.75,-505.43 1495.21,-497.03 1484.92,-499.56 1488.75,-505.43"/>
</g>
<!-- ndp_na_output -->
<g id="node8" class="node">
<title>ndp_na_output</title>
<ellipse fill="none" stroke="black" cx="555.92" cy="-638" rx="45.09" ry="18"/>
<text text-anchor="middle" x="555.92" y="-635.2" font-family="sans" font-size="11.00">ndp_na_output</text>
</g>
<!-- control_input&#45;&gt;ndp_na_output -->
<g id="edge7" class="edge">
<title>control_input&#45;&gt;ndp_na_output</title>
<path fill="none" stroke="blue" stroke-width="2" d="M71.85,-594.1C85.33,-598.52 101.43,-603.22 116.32,-606 253.02,-631.57 417.25,-636.95 500.62,-637.93"/>
<polygon fill="blue" stroke="blue" stroke-width="2" points="500.58,-641.43 510.62,-638.03 500.65,-634.43 500.58,-641.43"/>
</g>
<!-- ip_input -->
<g id="node12" class="node">
<title>ip_input</title>
<ellipse fill="none" stroke="black" cx="555.92" cy="-326" rx="27" ry="18"/>
<text text-anchor="middle" x="555.92" y="-323.2" font-family="sans" font-size="11.00">ip_input</text>
</g>
<!-- loopback_input&#45;&gt;ip_input -->
<g id="edge14" class="edge">
<title>loopback_input&#45;&gt;ip_input</title>
<path fill="none" stroke="black" d="M195.93,-396.81C210.4,-391.76 227.65,-386.14 243.5,-382 341.83,-356.33 460.66,-338.52 519.03,-330.61"/>
<polygon fill="black" stroke="black" points="519.75,-334.05 529.2,-329.25 518.83,-327.11 519.75,-334.05"/>
</g>
<!-- ip6_input -->
<g id="node13" class="node">
<title>ip6_input</title>
<ellipse fill="none" stroke="black" cx="296.69" cy="-409" rx="28.44" ry="18"/>
<text text-anchor="middle" x="296.69" y="-406.2" font-family="sans" font-size="11.00">ip6_input</text>
</g>
<!-- loopback_input&#45;&gt;ip6_input -->
<g id="edge15" class="edge">
<title>loopback_input&#45;&gt;ip6_input</title>
<path fill="none" stroke="black" d="M207.86,-409C224.12,-409 242.3,-409 257.89,-409"/>
<polygon fill="black" stroke="black" points="258.21,-412.5 268.21,-409 258.21,-405.5 258.21,-412.5"/>
</g>
<!-- eth_output -->
<g id="node14" class="node">
<title>eth_output</title>
<ellipse fill="none" stroke="black" cx="1652.58" cy="-130" rx="33.8" ry="18"/>
<text text-anchor="middle" x="1652.58" y="-127.2" font-family="sans" font-size="11.00">eth_output</text>
</g>
<!-- arp_output_request&#45;&gt;eth_output -->
<g id="edge27" class="edge">
<title>arp_output_request&#45;&gt;eth_output</title>
<path fill="none" stroke="black" d="M1272.56,-140.41C1361.56,-137.96 1529.72,-133.35 1608.64,-131.18"/>
<polygon fill="black" stroke="black" points="1608.81,-134.68 1618.71,-130.9 1608.62,-127.68 1608.81,-134.68"/>
</g>
<!-- icmp_output -->
<g id="node29" class="node">
<title>icmp_output</title>
<ellipse fill="none" stroke="black" cx="1077.66" cy="-292" rx="37.98" ry="18"/>
<text text-anchor="middle" x="1077.66" y="-289.2" font-family="sans" font-size="11.00">icmp_output</text>
</g>
<!-- icmp_local_send&#45;&gt;icmp_output -->
<g id="edge31" class="edge">
<title>icmp_local_send&#45;&gt;icmp_output</title>
<path fill="none" stroke="black" d="M731.69,-184.81C794.82,-176.68 912.74,-169.49 1000.95,-211 1026.21,-222.89 1047.15,-247.3 1060.55,-266.24"/>
<polygon fill="black" stroke="black" points="1057.83,-268.45 1066.34,-274.75 1063.61,-264.51 1057.83,-268.45"/>
</g>
<!-- icmp6_output -->
<g id="node37" class="node">
<title>icmp6_output</title>
<ellipse fill="none" stroke="black" cx="813.54" cy="-684" rx="41.58" ry="18"/>
<text text-anchor="middle" x="813.54" y="-681.2" font-family="sans" font-size="11.00">icmp6_output</text>
</g>
<!-- icmp6_local_send&#45;&gt;icmp6_output -->
<g id="edge53" class="edge">
<title>icmp6_local_send&#45;&gt;icmp6_output</title>
<path fill="none" stroke="black" d="M349.72,-718.47C431.89,-715.72 596.66,-708.91 735.75,-695 744.9,-694.08 754.63,-692.88 763.99,-691.59"/>
<polygon fill="black" stroke="black" points="764.53,-695.05 773.94,-690.18 763.55,-688.12 764.53,-695.05"/>
</g>
<!-- ndp_ns_output&#45;&gt;icmp6_output -->
<g id="edge69" class="edge">
<title>ndp_ns_output&#45;&gt;icmp6_output</title>
<path fill="none" stroke="black" d="M475.1,-676.92C546.07,-678.41 685.97,-681.34 761.43,-682.93"/>
<polygon fill="black" stroke="black" points="761.56,-686.43 771.63,-683.14 761.71,-679.43 761.56,-686.43"/>
</g>
<!-- ip6_output&#45;&gt;eth_output -->
<g id="edge62" class="edge">
<title>ip6_output&#45;&gt;eth_output</title>
<path fill="none" stroke="black" d="M1521.96,-464.06C1544.29,-406.51 1614.23,-226.26 1641.01,-157.25"/>
<polygon fill="black" stroke="black" points="1644.28,-158.49 1644.63,-147.9 1637.75,-155.96 1644.28,-158.49"/>
</g>
<!-- loopback_output -->
<g id="node17" class="node">
<title>loopback_output</title>
<ellipse fill="none" stroke="black" cx="1652.58" cy="-583" rx="50.45" ry="18"/>
<text text-anchor="middle" x="1652.58" y="-580.2" font-family="sans" font-size="11.00">loopback_output</text>
</g>
<!-- ip6_output&#45;&gt;loopback_output -->
<g id="edge64" class="edge">
<title>ip6_output&#45;&gt;loopback_output</title>
<path fill="none" stroke="black" d="M1534.28,-496.26C1556.97,-513.04 1594.92,-541.1 1621.5,-560.75"/>
<polygon fill="black" stroke="black" points="1619.57,-563.68 1629.69,-566.81 1623.73,-558.05 1619.57,-563.68"/>
</g>
<!-- sr6_output -->
<g id="node34" class="node">
<title>sr6_output</title>
<ellipse fill="none" stroke="black" cx="1367.29" cy="-398" rx="33.21" ry="18"/>
<text text-anchor="middle" x="1367.29" y="-395.2" font-family="sans" font-size="11.00">sr6_output</text>
</g>
<!-- ip6_output&#45;&gt;sr6_output -->
<g id="edge65" class="edge">
<title>ip6_output&#45;&gt;sr6_output</title>
<path fill="none" stroke="black" d="M1485.28,-472.94C1468.23,-463.86 1445.89,-450.52 1425.9,-439 1414.86,-432.64 1402.52,-425.76 1392.1,-419.27"/>
<polygon fill="black" stroke="black" points="1393.82,-416.21 1383.52,-413.69 1390,-422.08 1393.82,-416.21"/>
</g>
<!-- ip6_hold -->
<g id="node42" class="node">
<title>ip6_hold</title>
<ellipse fill="none" stroke="black" cx="1652.58" cy="-459" rx="27" ry="18"/>
<text text-anchor="middle" x="1652.58" y="-456.2" font-family="sans" font-size="11.00">ip6_hold</text>
</g>
<!-- ip6_output&#45;&gt;ip6_hold -->
<g id="edge63" class="edge">
<title>ip6_output&#45;&gt;ip6_hold</title>
<path fill="none" stroke="black" d="M1545.31,-476.9C1566.21,-473.38 1594.06,-468.69 1616.01,-464.99"/>
<polygon fill="black" stroke="black" points="1616.66,-468.43 1625.94,-463.32 1615.5,-461.53 1616.66,-468.43"/>
</g>
<!-- ndp_na_output&#45;&gt;icmp6_output -->
<g id="edge67" class="edge">
<title>ndp_na_output&#45;&gt;icmp6_output</title>
<path fill="none" stroke="black" d="M597.41,-645.21C633.66,-651.67 688.26,-661.42 735.75,-670 745.05,-671.68 754.98,-673.48 764.52,-675.22"/>
<polygon fill="black" stroke="black" points="764.19,-678.72 774.65,-677.07 765.44,-671.83 764.19,-678.72"/>
</g>
<!-- control_output -->
<g id="node9" class="node">
<title>control_output</title>
<ellipse fill="none" stroke="black" cx="1791.15" cy="-745" rx="44.51" ry="18"/>
<text text-anchor="middle" x="1791.15" y="-742.2" font-family="sans" font-size="11.00">control_output</text>
</g>
<!-- eth_input -->
<g id="node10" class="node">
<title>eth_input</title>
<ellipse fill="none" stroke="black" cx="161.91" cy="-209" rx="29.12" ry="18"/>
<text text-anchor="middle" x="161.91" y="-206.2" font-family="sans" font-size="11.00">eth_input</text>
</g>
<!-- arp_input -->
<g id="node11" class="node">
<title>arp_input</title>
<ellipse fill="none" stroke="black" cx="813.54" cy="-100" rx="29.12" ry="18"/>
<text text-anchor="middle" x="813.54" y="-97.2" font-family="sans" font-size="11.00">arp_input</text>
</g>
<!-- eth_input&#45;&gt;arp_input -->
<g id="edge9" class="edge">
<title>eth_input&#45;&gt;arp_input</title>
<path fill="none" stroke="black" d="M190.41,-204.39C293.44,-187.1 656.71,-126.14 775,-106.3"/>
<polygon fill="black" stroke="black" points="775.75,-109.72 785.03,-104.62 774.59,-102.82 775.75,-109.72"/>
</g>
<!-- eth_input&#45;&gt;ip_input -->
<g id="edge10" class="edge">
<title>eth_input&#45;&gt;ip_input</title>
<path fill="none" stroke="black" d="M188.63,-216.68C257.1,-237.11 443.82,-292.84 520.92,-315.85"/>
<polygon fill="black" stroke="black" points="520.04,-319.24 530.62,-318.75 522.04,-312.53 520.04,-319.24"/>
</g>
<!-- eth_input&#45;&gt;ip6_input -->
<g id="edge11" class="edge">
<title>eth_input&#45;&gt;ip6_input</title>
<path fill="none" stroke="black" d="M174,-225.71C197.35,-260.87 251.65,-342.66 279.13,-384.06"/>
<polygon fill="black" stroke="black" points="276.27,-386.08 284.72,-392.48 282.1,-382.21 276.27,-386.08"/>
</g>
<!-- arp_input_request -->
<g id="node23" class="node">
<title>arp_input_request</title>
<ellipse fill="none" stroke="black" cx="946.14" cy="-46" rx="54.63" ry="18"/>
<text text-anchor="middle" x="946.14" y="-43.2" font-family="sans" font-size="11.00">arp_input_request</text>
</g>
<!-- arp_input&#45;&gt;arp_input_request -->
<g id="edge22" class="edge">
<title>arp_input&#45;&gt;arp_input_request</title>
<path fill="none" stroke="black" d="M838.19,-90.22C855.91,-82.89 880.65,-72.66 901.88,-63.89"/>
<polygon fill="black" stroke="black" points="903.44,-67.03 911.35,-59.97 900.77,-60.56 903.44,-67.03"/>
</g>
<!-- arp_input_reply -->
<g id="node24" class="node">
<title>arp_input_reply</title>
<ellipse fill="none" stroke="black" cx="946.14" cy="-100" rx="47.43" ry="18"/>
<text text-anchor="middle" x="946.14" y="-97.2" font-family="sans" font-size="11.00">arp_input_reply</text>
</g>
<!-- arp_input&#45;&gt;arp_input_reply -->
<g id="edge23" class="edge">
<title>arp_input&#45;&gt;arp_input_reply</title>
<path fill="none" stroke="black" d="M842.87,-100C856.29,-100 872.81,-100 888.63,-100"/>
<polygon fill="black" stroke="black" points="888.88,-103.5 898.88,-100 888.88,-96.5 888.88,-103.5"/>
</g>
<!-- ip_output -->
<g id="node20" class="node">
<title>ip_output</title>
<ellipse fill="none" stroke="black" cx="1213.52" cy="-306" rx="29.12" ry="18"/>
<text text-anchor="middle" x="1213.52" y="-303.2" font-family="sans" font-size="11.00">ip_output</text>
</g>
<!-- ip_input&#45;&gt;ip_output -->
<g id="edge36" class="edge">
<title>ip_input&#45;&gt;ip_output</title>
<path fill="none" stroke="black" d="M577.45,-337.12C619.98,-359.11 721.4,-406 812.54,-406 812.54,-406 812.54,-406 947.14,-406 1038.53,-406 1136.92,-353.42 1184.1,-324.52"/>
<polygon fill="black" stroke="black" points="1186.2,-327.33 1192.84,-319.07 1182.5,-321.39 1186.2,-327.33"/>
</g>
<!-- dnat44 -->
<g id="node25" class="node">
<title>dnat44</title>
<ellipse fill="none" stroke="black" cx="686.36" cy="-322" rx="27" ry="18"/>
<text text-anchor="middle" x="686.36" y="-319.2" font-family="sans" font-size="11.00">dnat44</text>
</g>
<!-- ip_input&#45;&gt;dnat44 -->
<g id="edge38" class="edge">
<title>ip_input&#45;&gt;dnat44</title>
<path fill="none" stroke="black" d="M582.92,-325.19C601.85,-324.6 627.76,-323.79 648.79,-323.14"/>
<polygon fill="black" stroke="black" points="649.08,-326.63 658.97,-322.82 648.86,-319.64 649.08,-326.63"/>
</g>
<!-- ip_forward -->
<g id="node26" class="node">
<title>ip_forward</title>
<ellipse fill="none" stroke="black" cx="813.54" cy="-342" rx="32.63" ry="18"/>
<text text-anchor="middle" x="813.54" y="-339.2" font-family="sans" font-size="11.00">ip_forward</text>
</g>
<!-- ip_input&#45;&gt;ip_forward -->
<g id="edge35" class="edge">
<title>ip_input&#45;&gt;ip_forward</title>
<path fill="none" stroke="black" d="M580.02,-334.5C595.81,-339.84 617.36,-346.24 636.97,-349 682.88,-355.47 736.17,-351.79 771.88,-347.73"/>
<polygon fill="black" stroke="black" points="772.41,-351.19 781.92,-346.53 771.58,-344.24 772.41,-351.19"/>
</g>
<!-- ip_input_local -->
<g id="node27" class="node">
<title>ip_input_local</title>
<ellipse fill="none" stroke="black" cx="813.54" cy="-288" rx="41.49" ry="18"/>
<text text-anchor="middle" x="813.54" y="-285.2" font-family="sans" font-size="11.00">ip_input_local</text>
</g>
<!-- ip_input&#45;&gt;ip_input_local -->
<g id="edge37" class="edge">
<title>ip_input&#45;&gt;ip_input_local</title>
<path fill="none" stroke="black" d="M578.08,-315.59C593.89,-308.37 616.25,-299.3 636.97,-295 678.56,-286.37 726.85,-285.05 762.25,-285.65"/>
<polygon fill="black" stroke="black" points="762.26,-289.15 772.34,-285.88 762.42,-282.16 762.26,-289.15"/>
</g>
<!-- ip6_input&#45;&gt;ip6_output -->
<g id="edge57" class="edge">
<title>ip6_input&#45;&gt;ip6_output</title>
<path fill="none" stroke="black" d="M315.09,-422.88C332.09,-435.61 359.21,-453.85 385.87,-463 457.38,-487.55 479.32,-482 554.92,-482 554.92,-482 554.92,-482 1214.52,-482 1305.99,-482 1413.23,-482 1471,-482"/>
<polygon fill="black" stroke="black" points="1471.2,-485.5 1481.2,-482 1471.2,-478.5 1471.2,-485.5"/>
</g>
<!-- ip6_forward -->
<g id="node41" class="node">
<title>ip6_forward</title>
<ellipse fill="none" stroke="black" cx="430.38" cy="-436" rx="35.64" ry="18"/>
<text text-anchor="middle" x="430.38" y="-433.2" font-family="sans" font-size="11.00">ip6_forward</text>
</g>
<!-- ip6_input&#45;&gt;ip6_forward -->
<g id="edge56" class="edge">
<title>ip6_input&#45;&gt;ip6_forward</title>
<path fill="none" stroke="black" d="M323.7,-414.33C341.74,-418.03 366.16,-423.04 386.99,-427.31"/>
<polygon fill="black" stroke="black" points="386.38,-430.76 396.88,-429.34 387.78,-423.9 386.38,-430.76"/>
</g>
<!-- ip6_input_local -->
<g id="node43" class="node">
<title>ip6_input_local</title>
<ellipse fill="none" stroke="black" cx="555.92" cy="-528" rx="45.09" ry="18"/>
<text text-anchor="middle" x="555.92" y="-525.2" font-family="sans" font-size="11.00">ip6_input_local</text>
</g>
<!-- ip6_input&#45;&gt;ip6_input_local -->
<g id="edge58" class="edge">
<title>ip6_input&#45;&gt;ip6_input_local</title>
<path fill="none" stroke="black" d="M309.36,-425.41C324.56,-445.46 353.11,-478.82 385.87,-496 421.36,-514.6 466.06,-522.5 500.59,-525.8"/>
<polygon fill="black" stroke="black" points="500.69,-529.32 510.95,-526.68 501.29,-522.34 500.69,-529.32"/>
</g>
<!-- sr6_local -->
<g id="node44" class="node">
<title>sr6_local</title>
<ellipse fill="none" stroke="black" cx="430.38" cy="-382" rx="27.86" ry="18"/>
<text text-anchor="middle" x="430.38" y="-379.2" font-family="sans" font-size="11.00">sr6_local</text>
</g>
<!-- ip6_input&#45;&gt;sr6_local -->
<g id="edge59" class="edge">
<title>ip6_input&#45;&gt;sr6_local</title>
<path fill="none" stroke="black" d="M320.32,-399.12C340.09,-393.42 369.17,-387.16 392.32,-383.46"/>
<polygon fill="black" stroke="black" points="393.11,-386.88 402.49,-381.95 392.09,-379.95 393.11,-386.88"/>
</g>
<!-- port_tx -->
<g id="node15" class="node">
<title>port_tx</title>
<ellipse fill="none" stroke="black" cx="1791.15" cy="-65" rx="27" ry="18"/>
<text text-anchor="middle" x="1791.15" y="-62.2" font-family="sans" font-size="11.00">port_tx</text>
</g>
<!-- eth_output&#45;&gt;port_tx -->
<g id="edge12" class="edge">
<title>eth_output&#45;&gt;port_tx</title>
<path fill="none" stroke="black" d="M1678.31,-118.23C1701.11,-107.38 1735.03,-91.23 1759.54,-79.57"/>
<polygon fill="black" stroke="black" points="1761.22,-82.65 1768.75,-75.19 1758.21,-76.32 1761.22,-82.65"/>
</g>
<!-- l1_xconnect -->
<g id="node16" class="node">
<title>l1_xconnect</title>
<ellipse fill="none" stroke="black" cx="296.69" cy="-27" rx="36.23" ry="18"/>
<text text-anchor="middle" x="296.69" y="-24.2" font-family="sans" font-size="11.00">l1_xconnect</text>
</g>
<!-- l1_xconnect&#45;&gt;port_tx -->
<g id="edge13" class="edge">
<title>l1_xconnect&#45;&gt;port_tx</title>
<path fill="none" stroke="black" d="M331.28,-21.21C380.28,-13.27 474.32,0 554.92,0 554.92,0 554.92,0 1515,0 1605.2,0 1707.67,-33.49 1758.33,-52.39"/>
<polygon fill="black" stroke="black" points="1757.16,-55.69 1767.75,-55.96 1759.64,-49.14 1757.16,-55.69"/>
</g>
<!-- loopback_output&#45;&gt;control_output -->
<g id="edge16" class="edge">
<title>loopback_output&#45;&gt;control_output</title>
<path fill="none" stroke="black" d="M1668.19,-600.34C1692.43,-629.08 1741.02,-686.72 1769,-719.91"/>
<polygon fill="black" stroke="black" points="1766.52,-722.4 1775.64,-727.79 1771.87,-717.89 1766.52,-722.4"/>
</g>
<!-- port_rx -->
<g id="node18" class="node">
<title>port_rx</title>
<ellipse fill="none" stroke="blue" stroke-width="2" cx="40.16" cy="-132" rx="27" ry="18"/>
<text text-anchor="middle" x="40.16" y="-129.2" font-family="sans" font-size="11.00">port_rx</text>
</g>
<!-- port_rx&#45;&gt;eth_input -->
<g id="edge17" class="edge">
<title>port_rx&#45;&gt;eth_input</title>
<path fill="none" stroke="blue" stroke-width="2" d="M60.14,-144.2C79.58,-156.7 110.05,-176.3 132.4,-190.67"/>
<polygon fill="blue" stroke="blue" stroke-width="2" points="130.52,-193.62 140.83,-196.09 134.31,-187.73 130.52,-193.62"/>
</g>
<!-- port_rx&#45;&gt;l1_xconnect -->
<g id="edge18" class="edge">
<title>port_rx&#45;&gt;l1_xconnect</title>
<path fill="none" stroke="blue" stroke-width="2" d="M63.75,-122.68C107.73,-104.54 205.23,-64.32 258.75,-42.24"/>
<polygon fill="blue" stroke="blue" stroke-width="2" points="260.3,-45.39 268.21,-38.34 257.63,-38.91 260.3,-45.39"/>
</g>
<!-- nh4_unreachable -->
<g id="node19" class="node">
<title>nh4_unreachable</title>
<ellipse fill="none" stroke="black" cx="1514" cy="-237" rx="52.2" ry="18"/>
<text text-anchor="middle" x="1514" y="-234.2" font-family="sans" font-size="11.00">nh4_unreachable</text>
</g>
<!-- nh4_unreachable&#45;&gt;ip_output -->
<g id="edge19" class="edge">
<title>nh4_unreachable&#45;&gt;ip_output</title>
<path fill="none" stroke="black" d="M1467.33,-245.35C1425.78,-253.19 1362.84,-265.69 1308.68,-279 1289.07,-283.82 1267.4,-289.97 1249.8,-295.19"/>
<polygon fill="black" stroke="black" points="1248.53,-291.92 1239.95,-298.13 1250.54,-298.62 1248.53,-291.92"/>
</g>
<!-- ip_output&#45;&gt;eth_output -->
<g id="edge42" class="edge">
<title>ip_output&#45;&gt;eth_output</title>
<path fill="none" stroke="black" d="M1222.74,-288.85C1236.48,-262.21 1266.8,-211.41 1308.68,-187 1408.71,-128.69 1452.09,-167.19 1566.11,-147 1580.73,-144.41 1596.71,-141.31 1610.85,-138.46"/>
<polygon fill="black" stroke="black" points="1611.67,-141.87 1620.78,-136.45 1610.28,-135.01 1611.67,-141.87"/>
</g>
<!-- ip_output&#45;&gt;loopback_output -->
<g id="edge44" class="edge">
<title>ip_output&#45;&gt;loopback_output</title>
<path fill="none" stroke="black" d="M1240.27,-313.54C1292.76,-328.96 1408.63,-363.31 1425.9,-371 1492.26,-400.56 1513.5,-404.91 1566.11,-455 1597.44,-484.83 1623.33,-528.13 1638.12,-555.93"/>
<polygon fill="black" stroke="black" points="1635.16,-557.82 1642.89,-565.07 1641.37,-554.58 1635.16,-557.82"/>
</g>
<!-- ip_hold -->
<g id="node30" class="node">
<title>ip_hold</title>
<ellipse fill="none" stroke="black" cx="1367.29" cy="-214" rx="27" ry="18"/>
<text text-anchor="middle" x="1367.29" y="-211.2" font-family="sans" font-size="11.00">ip_hold</text>
</g>
<!-- ip_output&#45;&gt;ip_hold -->
<g id="edge43" class="edge">
<title>ip_output&#45;&gt;ip_hold</title>
<path fill="none" stroke="black" d="M1234.14,-293.01C1253.04,-280.61 1282.53,-261.57 1308.68,-246 1317.82,-240.56 1327.92,-234.84 1337.08,-229.78"/>
<polygon fill="black" stroke="black" points="1338.77,-232.84 1345.85,-224.96 1335.4,-226.7 1338.77,-232.84"/>
</g>
<!-- ipip_output -->
<g id="node33" class="node">
<title>ipip_output</title>
<ellipse fill="none" stroke="black" cx="1367.29" cy="-306" rx="34.38" ry="18"/>
<text text-anchor="middle" x="1367.29" y="-303.2" font-family="sans" font-size="11.00">ipip_output</text>
</g>
<!-- ip_output&#45;&gt;ipip_output -->
<g id="edge45" class="edge">
<title>ip_output&#45;&gt;ipip_output</title>
<path fill="none" stroke="black" d="M1241.65,-300.68C1264.69,-299.09 1298.11,-298.82 1324.55,-299.9"/>
<polygon fill="black" stroke="black" points="1324.51,-303.4 1334.67,-300.4 1324.85,-296.41 1324.51,-303.4"/>
</g>
<!-- ip_output&#45;&gt;sr6_output -->
<g id="edge46" class="edge">
<title>ip_output&#45;&gt;sr6_output</title>
<path fill="none" stroke="black" d="M1234.14,-318.99C1253.04,-331.39 1282.53,-350.43 1308.68,-366 1316.91,-370.9 1325.91,-376.02 1334.31,-380.69"/>
<polygon fill="black" stroke="black" points="1332.67,-383.78 1343.12,-385.55 1336.05,-377.65 1332.67,-383.78"/>
</g>
<!-- arp_probe -->
<g id="node21" class="node">
<title>arp_probe</title>
<ellipse fill="none" stroke="black" cx="1077.66" cy="-92" rx="30.87" ry="18"/>
<text text-anchor="middle" x="1077.66" y="-89.2" font-family="sans" font-size="11.00">arp_probe</text>
</g>
<!-- arp_probe&#45;&gt;ip_output -->
<g id="edge20" class="edge">
<title>arp_probe&#45;&gt;ip_output</title>
<path fill="none" stroke="black" d="M1089.16,-108.79C1112.52,-146.14 1168.9,-236.27 1196.61,-280.57"/>
<polygon fill="black" stroke="black" points="1193.79,-282.66 1202.06,-289.29 1199.73,-278.95 1193.79,-282.66"/>
</g>
<!-- arp_output_reply -->
<g id="node22" class="node">
<title>arp_output_reply</title>
<ellipse fill="none" stroke="black" cx="1514" cy="-84" rx="51.62" ry="18"/>
<text text-anchor="middle" x="1514" y="-81.2" font-family="sans" font-size="11.00">arp_output_reply</text>
</g>
<!-- arp_probe&#45;&gt;arp_output_reply -->
<g id="edge21" class="edge">
<title>arp_probe&#45;&gt;arp_output_reply</title>
<path fill="none" stroke="black" d="M1108.86,-91.44C1179.69,-90.14 1357.65,-86.86 1452.03,-85.12"/>
<polygon fill="black" stroke="black" points="1452.35,-88.62 1462.28,-84.93 1452.22,-81.62 1452.35,-88.62"/>
</g>
<!-- arp_output_reply&#45;&gt;eth_output -->
<g id="edge26" class="edge">
<title>arp_output_reply&#45;&gt;eth_output</title>
<path fill="none" stroke="black" d="M1551.6,-96.33C1570.85,-102.81 1594.4,-110.74 1613.82,-117.28"/>
<polygon fill="black" stroke="black" points="1612.95,-120.68 1623.55,-120.56 1615.19,-114.05 1612.95,-120.68"/>
</g>
<!-- arp_input_request&#45;&gt;arp_probe -->
<g id="edge25" class="edge">
<title>arp_input_request&#45;&gt;arp_probe</title>
<path fill="none" stroke="black" d="M983.91,-59.06C1001.96,-65.47 1023.59,-73.15 1041.43,-79.49"/>
<polygon fill="black" stroke="black" points="1040.31,-82.8 1050.9,-82.85 1042.65,-76.21 1040.31,-82.8"/>
</g>
<!-- arp_input_reply&#45;&gt;arp_probe -->
<g id="edge24" class="edge">
<title>arp_input_reply&#45;&gt;arp_probe</title>
<path fill="none" stroke="black" d="M992.8,-97.18C1007.08,-96.3 1022.72,-95.33 1036.58,-94.48"/>
<polygon fill="black" stroke="black" points="1037.02,-97.96 1046.78,-93.85 1036.59,-90.97 1037.02,-97.96"/>
</g>
<!-- dnat44&#45;&gt;ip_forward -->
<g id="edge28" class="edge">
<title>dnat44&#45;&gt;ip_forward</title>
<path fill="none" stroke="black" d="M712.69,-326.05C729.65,-328.76 752.34,-332.38 771.8,-335.49"/>
<polygon fill="black" stroke="black" points="771.51,-338.99 781.93,-337.11 772.61,-332.08 771.51,-338.99"/>
</g>
<!-- dnat44&#45;&gt;ip_input_local -->
<g id="edge29" class="edge">
<title>dnat44&#45;&gt;ip_input_local</title>
<path fill="none" stroke="black" d="M711.79,-315.36C727.91,-310.99 749.48,-305.13 768.53,-299.95"/>
<polygon fill="black" stroke="black" points="769.49,-303.32 778.22,-297.32 767.65,-296.56 769.49,-303.32"/>
</g>
<!-- ip_forward&#45;&gt;ip_output -->
<g id="edge33" class="edge">
<title>ip_forward&#45;&gt;ip_output</title>
<path fill="none" stroke="black" d="M846.09,-340.25C901.35,-337.05 1019.21,-329.59 1118.36,-319 1136.98,-317.01 1157.59,-314.23 1174.77,-311.75"/>
<polygon fill="black" stroke="black" points="1175.58,-315.17 1184.97,-310.26 1174.57,-308.25 1175.58,-315.17"/>
</g>
<!-- icmp_input -->
<g id="node28" class="node">
<title>icmp_input</title>
<ellipse fill="none" stroke="black" cx="946.14" cy="-292" rx="33.8" ry="18"/>
<text text-anchor="middle" x="946.14" y="-289.2" font-family="sans" font-size="11.00">icmp_input</text>
</g>
<!-- ip_input_local&#45;&gt;icmp_input -->
<g id="edge39" class="edge">
<title>ip_input_local&#45;&gt;icmp_input</title>
<path fill="none" stroke="black" d="M854.79,-289.23C869.77,-289.69 886.82,-290.21 902.05,-290.68"/>
<polygon fill="black" stroke="black" points="902.14,-294.18 912.25,-290.99 902.36,-287.19 902.14,-294.18"/>
</g>
<!-- ipip_input -->
<g id="node31" class="node">
<title>ipip_input</title>
<ellipse fill="none" stroke="black" cx="946.14" cy="-238" rx="29.7" ry="18"/>
<text text-anchor="middle" x="946.14" y="-235.2" font-family="sans" font-size="11.00">ipip_input</text>
</g>
<!-- ip_input_local&#45;&gt;ipip_input -->
<g id="edge40" class="edge">
<title>ip_input_local&#45;&gt;ipip_input</title>
<path fill="none" stroke="black" d="M845.16,-276.28C864.85,-268.74 890.48,-258.93 910.86,-251.12"/>
<polygon fill="black" stroke="black" points="912.3,-254.32 920.39,-247.47 909.8,-247.78 912.3,-254.32"/>
</g>
<!-- l4_input_local -->
<g id="node32" class="node">
<title>l4_input_local</title>
<ellipse fill="none" stroke="black" cx="946.14" cy="-528" rx="41.49" ry="18"/>
<text text-anchor="middle" x="946.14" y="-525.2" font-family="sans" font-size="11.00">l4_input_local</text>
</g>
<!-- ip_input_local&#45;&gt;l4_input_local -->
<g id="edge41" class="edge">
<title>ip_input_local&#45;&gt;l4_input_local</title>
<path fill="none" stroke="black" d="M840.56,-301.91C845.93,-305.64 851.2,-310.03 855.32,-315 902.32,-371.64 928.07,-456.43 938.9,-499.98"/>
<polygon fill="black" stroke="black" points="935.54,-500.96 941.28,-509.87 942.35,-499.33 935.54,-500.96"/>
</g>
<!-- icmp_input&#45;&gt;icmp_output -->
<g id="edge30" class="edge">
<title>icmp_input&#45;&gt;icmp_output</title>
<path fill="none" stroke="black" d="M979.82,-292C994.7,-292 1012.6,-292 1028.94,-292"/>
<polygon fill="black" stroke="black" points="1029.4,-295.5 1039.4,-292 1029.4,-288.5 1029.4,-295.5"/>
</g>
<!-- icmp_output&#45;&gt;ip_output -->
<g id="edge32" class="edge">
<title>icmp_output&#45;&gt;ip_output</title>
<path fill="none" stroke="black" d="M1114.88,-295.79C1133.31,-297.72 1155.69,-300.06 1174.38,-302.01"/>
<polygon fill="black" stroke="black" points="1174.02,-305.49 1184.33,-303.05 1174.75,-298.53 1174.02,-305.49"/>
</g>
<!-- ip_hold&#45;&gt;nh4_unreachable -->
<g id="edge34" class="edge">
<title>ip_hold&#45;&gt;nh4_unreachable</title>
<path fill="none" stroke="black" d="M1393.83,-218.06C1411.13,-220.81 1434.69,-224.55 1456.3,-227.99"/>
<polygon fill="black" stroke="black" points="1455.96,-231.48 1466.38,-229.59 1457.06,-224.56 1455.96,-231.48"/>
</g>
<!-- ipip_input&#45;&gt;ip_input -->
<g id="edge71" class="edge">
<title>ipip_input&#45;&gt;ip_input</title>
<path fill="none" stroke="black" d="M916.26,-238.4C860.68,-239.94 735.61,-247.24 636.97,-281 618.23,-287.41 598.83,-298.2 583.83,-307.6"/>
<polygon fill="black" stroke="black" points="581.6,-304.87 575.09,-313.23 585.4,-310.75 581.6,-304.87"/>
</g>
<!-- l4_loopback_output -->
<g id="node45" class="node">
<title>l4_loopback_output</title>
<ellipse fill="none" stroke="black" cx="1367.29" cy="-676" rx="58.73" ry="18"/>
<text text-anchor="middle" x="1367.29" y="-673.2" font-family="sans" font-size="11.00">l4_loopback_output</text>
</g>
<!-- l4_input_local&#45;&gt;l4_loopback_output -->
<g id="edge73" class="edge">
<title>l4_input_local&#45;&gt;l4_loopback_output</title>
<path fill="none" stroke="black" d="M978.64,-539.12C1051.51,-564.85 1232.07,-628.61 1318.58,-659.15"/>
<polygon fill="black" stroke="black" points="1317.56,-662.51 1328.15,-662.53 1319.89,-655.9 1317.56,-662.51"/>
</g>
<!-- ipip_output&#45;&gt;ip_output -->
<g id="edge72" class="edge">
<title>ipip_output&#45;&gt;ip_output</title>
<path fill="none" stroke="black" d="M1334.67,-311.6C1310.5,-313.03 1277.12,-313.12 1251.67,-311.9"/>
<polygon fill="black" stroke="black" points="1251.84,-308.4 1241.65,-311.32 1251.43,-315.39 1251.84,-308.4"/>
</g>
<!-- sr6_output&#45;&gt;ip6_output -->
<g id="edge78" class="edge">
<title>sr6_output&#45;&gt;ip6_output</title>
<path fill="none" stroke="black" d="M1397.7,-405.52C1406.78,-410.14 1416.78,-415.75 1425.9,-421 1447.48,-433.43 1471.78,-447.98 1489.23,-460.05"/>
<polygon fill="black" stroke="black" points="1487.5,-463.12 1497.67,-466.1 1491.58,-457.43 1487.5,-463.12"/>
</g>
<!-- nh6_unreachable -->
<g id="node35" class="node">
<title>nh6_unreachable</title>
<ellipse fill="none" stroke="black" cx="1791.15" cy="-482" rx="52.2" ry="18"/>
<text text-anchor="middle" x="1791.15" y="-479.2" font-family="sans" font-size="11.00">nh6_unreachable</text>
</g>
<!-- nh6_unreachable&#45;&gt;ip6_output -->
<g id="edge47" class="edge">
<title>nh6_unreachable&#45;&gt;ip6_output</title>
<path fill="none" stroke="black" d="M1739.5,-484.72C1727.55,-485.25 1714.86,-485.73 1703.05,-486 1658.2,-487.03 1646.96,-487.03 1602.11,-486 1587.25,-485.66 1570.98,-484.99 1556.56,-484.3"/>
<polygon fill="black" stroke="black" points="1556.6,-480.8 1546.44,-483.79 1556.25,-487.79 1556.6,-480.8"/>
</g>
<!-- icmp6_input -->
<g id="node36" class="node">
<title>icmp6_input</title>
<ellipse fill="none" stroke="black" cx="686.36" cy="-768" rx="37.4" ry="18"/>
<text text-anchor="middle" x="686.36" y="-765.2" font-family="sans" font-size="11.00">icmp6_input</text>
</g>
<!-- icmp6_input&#45;&gt;icmp6_output -->
<g id="edge48" class="edge">
<title>icmp6_input&#45;&gt;icmp6_output</title>
<path fill="none" stroke="black" d="M709.55,-753.39C717.79,-747.95 727.21,-741.71 735.75,-736 751.04,-725.77 767.98,-714.31 782.05,-704.76"/>
<polygon fill="black" stroke="black" points="784.1,-707.6 790.4,-699.08 780.16,-701.81 784.1,-707.6"/>
</g>
<!-- ndp_ns_input -->
<g id="node38" class="node">
<title>ndp_ns_input</title>
<ellipse fill="none" stroke="black" cx="1514" cy="-768" rx="40.32" ry="18"/>
<text text-anchor="middle" x="1514" y="-765.2" font-family="sans" font-size="11.00">ndp_ns_input</text>
</g>
<!-- icmp6_input&#45;&gt;ndp_ns_input -->
<g id="edge49" class="edge">
<title>icmp6_input&#45;&gt;ndp_ns_input</title>
<path fill="none" stroke="black" d="M724.07,-768C774.07,-768 866.37,-768 945.14,-768 945.14,-768 945.14,-768 1214.52,-768 1302.02,-768 1403.96,-768 1463.21,-768"/>
<polygon fill="black" stroke="black" points="1463.41,-771.5 1473.41,-768 1463.41,-764.5 1463.41,-771.5"/>
</g>
<!-- ndp_na_input -->
<g id="node39" class="node">
<title>ndp_na_input</title>
<ellipse fill="none" stroke="black" cx="1077.66" cy="-722" rx="40.91" ry="18"/>
<text text-anchor="middle" x="1077.66" y="-719.2" font-family="sans" font-size="11.00">ndp_na_input</text>
</g>
<!-- icmp6_input&#45;&gt;ndp_na_input -->
<g id="edge50" class="edge">
<title>icmp6_input&#45;&gt;ndp_na_input</title>
<path fill="none" stroke="black" d="M721.78,-761.81C737.05,-759.19 755.26,-756.23 771.75,-754 861.75,-741.82 967.23,-731.66 1027.57,-726.24"/>
<polygon fill="black" stroke="black" points="1027.93,-729.72 1037.58,-725.35 1027.31,-722.75 1027.93,-729.72"/>
</g>
<!-- ndp_rs_input -->
<g id="node40" class="node">
<title>ndp_rs_input</title>
<ellipse fill="none" stroke="black" cx="1213.52" cy="-814" rx="39.15" ry="18"/>
<text text-anchor="middle" x="1213.52" y="-811.2" font-family="sans" font-size="11.00">ndp_rs_input</text>
</g>
<!-- icmp6_input&#45;&gt;ndp_rs_input -->
<g id="edge51" class="edge">
<title>icmp6_input&#45;&gt;ndp_rs_input</title>
<path fill="none" stroke="black" d="M721.74,-774.44C737.01,-777.11 755.23,-780.03 771.75,-782 913.74,-798.9 1082.62,-808.15 1163.96,-811.94"/>
<polygon fill="black" stroke="black" points="1164.23,-815.45 1174.38,-812.41 1164.55,-808.46 1164.23,-815.45"/>
</g>
<!-- icmp6_output&#45;&gt;ip6_output -->
<g id="edge52" class="edge">
<title>icmp6_output&#45;&gt;ip6_output</title>
<path fill="none" stroke="black" d="M855.61,-683.02C976.59,-679.48 1329.24,-664.3 1425.9,-606 1463.35,-583.42 1488.89,-537.89 1502.19,-508.73"/>
<polygon fill="black" stroke="black" points="1505.42,-510.09 1506.24,-499.52 1499.01,-507.27 1505.42,-510.09"/>
</g>
<!-- ndp_ns_input&#45;&gt;control_output -->
<g id="edge68" class="edge">
<title>ndp_ns_input&#45;&gt;control_output</title>
<path fill="none" stroke="black" d="M1553.55,-764.78C1601.49,-760.77 1683.55,-753.91 1737.32,-749.42"/>
<polygon fill="black" stroke="black" points="1737.67,-752.9 1747.34,-748.58 1737.09,-745.92 1737.67,-752.9"/>
</g>
<!-- ndp_na_input&#45;&gt;control_output -->
<g id="edge66" class="edge">
<title>ndp_na_input&#45;&gt;control_output</title>
<path fill="none" stroke="black" d="M1118.67,-722C1174.24,-722 1277.9,-722 1366.29,-722 1366.29,-722 1366.29,-722 1515,-722 1593.14,-722 1683.32,-731.32 1738.53,-738.1"/>
<polygon fill="black" stroke="black" points="1738.4,-741.61 1748.76,-739.37 1739.27,-734.66 1738.4,-741.61"/>
</g>
<!-- ndp_rs_input&#45;&gt;control_output -->
<g id="edge70" class="edge">
<title>ndp_rs_input&#45;&gt;control_output</title>
<path fill="none" stroke="black" d="M1252.63,-813.52C1317.31,-812.35 1452.58,-808.38 1566.11,-795 1627.55,-787.76 1642.81,-784.11 1703.05,-770 1716.98,-766.74 1732,-762.64 1745.58,-758.71"/>
<polygon fill="black" stroke="black" points="1746.57,-762.07 1755.18,-755.89 1744.6,-755.35 1746.57,-762.07"/>
</g>
<!-- ip6_forward&#45;&gt;ip6_output -->
<g id="edge54" class="edge">
<title>ip6_forward&#45;&gt;ip6_output</title>
<path fill="none" stroke="black" d="M466.29,-437.8C515.23,-440.15 607.05,-444 685.36,-444 685.36,-444 685.36,-444 1214.52,-444 1307.71,-444 1415.97,-462.45 1473.04,-473.64"/>
<polygon fill="black" stroke="black" points="1472.59,-477.12 1483.08,-475.64 1473.96,-470.26 1472.59,-477.12"/>
</g>
<!-- ip6_hold&#45;&gt;nh6_unreachable -->
<g id="edge55" class="edge">
<title>ip6_hold&#45;&gt;nh6_unreachable</title>
<path fill="none" stroke="black" d="M1678.95,-463.27C1694.38,-465.87 1714.73,-469.3 1733.8,-472.51"/>
<polygon fill="black" stroke="black" points="1733.48,-476 1743.92,-474.21 1734.64,-469.1 1733.48,-476"/>
</g>
<!-- ip6_input_local&#45;&gt;l4_input_local -->
<g id="edge61" class="edge">
<title>ip6_input_local&#45;&gt;l4_input_local</title>
<path fill="none" stroke="black" d="M601.08,-528C673.68,-528 817.84,-528 894.48,-528"/>
<polygon fill="black" stroke="black" points="894.83,-531.5 904.83,-528 894.83,-524.5 894.83,-531.5"/>
</g>
<!-- ip6_input_local&#45;&gt;icmp6_input -->
<g id="edge60" class="edge">
<title>ip6_input_local&#45;&gt;icmp6_input</title>
<path fill="none" stroke="black" d="M566.37,-545.65C588.69,-587.36 644.8,-692.22 671.21,-741.56"/>
<polygon fill="black" stroke="black" points="668.27,-743.48 676.07,-750.65 674.44,-740.18 668.27,-743.48"/>
</g>
<!-- sr6_local&#45;&gt;ip_input -->
<g id="edge75" class="edge">
<title>sr6_local&#45;&gt;ip_input</title>
<path fill="none" stroke="black" d="M453.46,-371.99C473.05,-363.11 501.88,-350.04 523.8,-340.11"/>
<polygon fill="black" stroke="black" points="525.36,-343.24 533.03,-335.93 522.47,-336.87 525.36,-343.24"/>
</g>
<!-- sr6_local&#45;&gt;ip6_input -->
<g id="edge76" class="edge">
<title>sr6_local&#45;&gt;ip6_input</title>
<path fill="none" stroke="black" d="M406.94,-391.83C387.28,-397.51 358.32,-403.75 335.15,-407.48"/>
<polygon fill="black" stroke="black" points="334.35,-404.06 324.97,-409 335.38,-410.98 334.35,-404.06"/>
</g>
<!-- sr6_local&#45;&gt;ip6_input_local -->
<g id="edge77" class="edge">
<title>sr6_local&#45;&gt;ip6_input_local</title>
<path fill="none" stroke="black" d="M453.02,-392.99C460.44,-397.36 468.48,-402.83 474.88,-409 503.3,-436.39 527.22,-475.5 541.31,-501.3"/>
<polygon fill="black" stroke="black" points="538.24,-502.99 546.05,-510.16 544.42,-499.69 538.24,-502.99"/>
</g>
<!-- l4_loopback_output&#45;&gt;loopback_output -->
<g id="edge74" class="edge">
<title>l4_loopback_output&#45;&gt;loopback_output</title>
<path fill="none" stroke="black" d="M1407.98,-662.97C1459.73,-645.98 1550.1,-616.31 1605.03,-598.28"/>
<polygon fill="black" stroke="black" points="1606.45,-601.5 1614.86,-595.06 1604.26,-594.85 1606.45,-601.5"/>
</g>
</g>
</svg>
