<?xml version="1.0" encoding="UTF-8" standalone="no"?>
<!DOCTYPE svg PUBLIC "-//W3C//DTD SVG 1.1//EN"
 "http://www.w3.org/Graphics/SVG/1.1/DTD/svg11.dtd">
<!-- Generated by graphviz version 2.44.0 (0)
 -->
<!-- Title: gr&#45;0&#45;0002&#45;dplane Pages: 1 -->
<svg width="1796pt" height="905pt"
 viewBox="0.00 0.00 1795.90 905.00" xmlns="http://www.w3.org/2000/svg" xmlns:xlink="http://www.w3.org/1999/xlink">
<g id="graph0" class="graph" transform="scale(1 1) rotate(0) translate(4 901)">
<title>gr&#45;0&#45;0002&#45;dplane</title>
<polygon fill="white" stroke="transparent" points="-4,4 -4,-901 1791.9,-901 1791.9,4 -4,4"/>
<!-- control_input -->
<g id="node1" class="node">
<title>control_input</title>
<ellipse fill="none" stroke="blue" stroke-width="2" cx="40.16" cy="-529" rx="40.32" ry="18"/>
<text text-anchor="middle" x="40.16" y="-526.2" font-family="sans" font-size="11.00">control_input</text>
</g>
<!-- loopback_input -->
<g id="node2" class="node">
<title>loopback_input</title>
<ellipse fill="none" stroke="black" cx="161.91" cy="-338" rx="45.68" ry="18"/>
<text text-anchor="middle" x="161.91" y="-335.2" font-family="sans" font-size="11.00">loopback_input</text>
</g>
<!-- control_input&#45;&gt;loopback_input -->
<g id="edge1" class="edge">
<title>control_input&#45;&gt;loopback_input</title>
<path fill="none" stroke="blue" stroke-width="2" d="M46.32,-511.14C56.01,-479.87 79.37,-414.32 116.32,-370 119.59,-366.08 123.45,-362.39 127.51,-359.02"/>
<polygon fill="blue" stroke="blue" stroke-width="2" points="129.64,-361.8 135.44,-352.93 125.38,-356.24 129.64,-361.8"/>
</g>
<!-- arp_output_request -->
<g id="node3" class="node">
<title>arp_output_request</title>
<ellipse fill="none" stroke="black" cx="553.75" cy="-64" rx="59.31" ry="18"/>
<text text-anchor="middle" x="553.75" y="-61.2" font-family="sans" font-size="11.00">arp_output_request</text>
</g>
<!-- control_input&#45;&gt;arp_output_request -->
<g id="edge2" class="edge">
<title>control_input&#45;&gt;arp_output_request</title>
<path fill="none" stroke="blue" stroke-width="2" d="M41.47,-510.87C43.15,-436.09 53.63,-152.79 116.32,-96 168.89,-48.38 376.96,-53.2 485.73,-59.3"/>
<polygon fill="blue" stroke="blue" stroke-width="2" points="485.75,-62.81 495.93,-59.89 486.15,-55.82 485.75,-62.81"/>
</g>
<!-- icmp_local_send -->
<g id="node4" class="node">
<title>icmp_local_send</title>
<ellipse fill="none" stroke="black" cx="553.75" cy="-384" rx="49.28" ry="18"/>
<text text-anchor="middle" x="553.75" y="-381.2" font-family="sans" font-size="11.00">icmp_local_send</text>
</g>
<!-- control_input&#45;&gt;icmp_local_send -->
<g id="edge3" class="edge">
<title>control_input&#45;&gt;icmp_local_send</title>
<path fill="none" stroke="blue" stroke-width="2" d="M46.36,-511.17C55.47,-483.56 77.18,-431.2 116.32,-408 238.49,-335.6 415.27,-356.23 501.53,-372.56"/>
<polygon fill="blue" stroke="blue" stroke-width="2" points="501.11,-376.05 511.59,-374.53 502.45,-369.17 501.11,-376.05"/>
</g>
<!-- icmp6_local_send -->
<g id="node5" class="node">
<title>icmp6_local_send</title>
<ellipse fill="none" stroke="black" cx="702.1" cy="-780" rx="53.37" ry="18"/>
<text text-anchor="middle" x="702.1" y="-777.2" font-family="sans" font-size="11.00">icmp6_local_send</text>
</g>
<!-- control_input&#45;&gt;icmp6_local_send -->
<g id="edge4" class="edge">
<title>control_input&#45;&gt;icmp6_local_send</title>
<path fill="none" stroke="blue" stroke-width="2" d="M43.09,-547.08C48.09,-585.13 64.9,-674.09 116.32,-724 174.02,-780 206.59,-784 287,-784 287,-784 287,-784 414.55,-784 491.76,-784 580.66,-782.53 638.7,-781.37"/>
<polygon fill="blue" stroke="blue" stroke-width="2" points="638.89,-784.87 648.81,-781.17 638.74,-777.87 638.89,-784.87"/>
</g>
<!-- ndp_ns_output -->
<g id="node6" class="node">
<title>ndp_ns_output</title>
<ellipse fill="none" stroke="black" cx="288" cy="-692" rx="44.51" ry="18"/>
<text text-anchor="middle" x="288" y="-689.2" font-family="sans" font-size="11.00">ndp_ns_output</text>
</g>
<!-- control_input&#45;&gt;ndp_ns_output -->
<g id="edge5" class="edge">
<title>control_input&#45;&gt;ndp_ns_output</title>
<path fill="none" stroke="blue" stroke-width="2" d="M46.17,-547.16C55.13,-576.01 76.78,-631.91 116.32,-660 150.21,-684.07 197.11,-691.5 233.18,-693.22"/>
<polygon fill="blue" stroke="blue" stroke-width="2" points="233.4,-696.73 243.51,-693.58 233.64,-689.74 233.4,-696.73"/>
</g>
<!-- ip_output -->
<g id="node7" class="node">
<title>ip_output</title>
<ellipse fill="none" stroke="black" cx="1198.87" cy="-332" rx="29.12" ry="18"/>
<text text-anchor="middle" x="1198.87" y="-329.2" font-family="sans" font-size="11.00">ip_output</text>
</g>
<!-- control_input&#45;&gt;ip_output -->
<g id="edge6" class="edge">
<title>control_input&#45;&gt;ip_output</title>
<path fill="none" stroke="blue" stroke-width="2" d="M65.35,-514.79C102.28,-493.95 175.61,-455.98 243.5,-441 442.16,-397.17 497.66,-430 701.1,-430 701.1,-430 701.1,-430 952.02,-430 1036.49,-430 1126.42,-379.46 1170.41,-350.97"/>
<polygon fill="blue" stroke="blue" stroke-width="2" points="1172.41,-353.85 1178.83,-345.42 1168.55,-348 1172.41,-353.85"/>
</g>
<!-- arp_output_reply -->
<g id="node8" class="node">
<title>arp_output_reply</title>
<ellipse fill="none" stroke="black" cx="702.1" cy="-102" rx="51.62" ry="18"/>
<text text-anchor="middle" x="702.1" y="-99.2" font-family="sans" font-size="11.00">arp_output_reply</text>
</g>
<!-- control_input&#45;&gt;arp_output_reply -->
<g id="edge7" class="edge">
<title>control_input&#45;&gt;arp_output_reply</title>
<path fill="none" stroke="blue" stroke-width="2" d="M43.16,-510.66C50.3,-448.03 76.28,-243.64 116.32,-193 168.65,-126.84 202.65,-110 287,-110 287,-110 287,-110 414.55,-110 492.72,-110 582.84,-106.99 640.81,-104.66"/>
<polygon fill="blue" stroke="blue" stroke-width="2" points="641.05,-108.15 650.9,-104.25 640.77,-101.16 641.05,-108.15"/>
</g>
<!-- ip6_output -->
<g id="node9" class="node">
<title>ip6_output</title>
<ellipse fill="none" stroke="black" cx="1465.16" cy="-582" rx="32.63" ry="18"/>
<text text-anchor="middle" x="1465.16" y="-579.2" font-family="sans" font-size="11.00">ip6_output</text>
</g>
<!-- control_input&#45;&gt;ip6_output -->
<g id="edge8" class="edge">
<title>control_input&#45;&gt;ip6_output</title>
<path fill="none" stroke="blue" stroke-width="2" d="M75.29,-537.73C156.62,-563.78 368.79,-636 552.75,-636 552.75,-636 552.75,-636 952.02,-636 1128.06,-636 1335.61,-598.88 1422.57,-585.7"/>
<polygon fill="blue" stroke="blue" stroke-width="2" points="1423.18,-589.14 1432.56,-584.21 1422.16,-582.22 1423.18,-589.14"/>
</g>
<!-- control_input&#45;&gt;ip6_output -->
<g id="edge10" class="edge">
<title>control_input&#45;&gt;ip6_output</title>
<path fill="none" stroke="blue" stroke-width="2" d="M65.99,-542.8C139.24,-575.76 361.27,-654 552.75,-654 552.75,-654 552.75,-654 952.02,-654 1131.76,-654 1344.33,-615.3 1427.87,-594.23"/>
<polygon fill="blue" stroke="blue" stroke-width="2" points="1428.85,-597.6 1437.64,-591.69 1427.08,-590.82 1428.85,-597.6"/>
</g>
<!-- ndp_na_output -->
<g id="node10" class="node">
<title>ndp_na_output</title>
<ellipse fill="none" stroke="black" cx="413.55" cy="-738" rx="45.09" ry="18"/>
<text text-anchor="middle" x="413.55" y="-735.2" font-family="sans" font-size="11.00">ndp_na_output</text>
</g>
<!-- control_input&#45;&gt;ndp_na_output -->
<g id="edge9" class="edge">
<title>control_input&#45;&gt;ndp_na_output</title>
<path fill="none" stroke="blue" stroke-width="2" d="M44.33,-547.04C51.17,-580.44 70.57,-651.87 116.32,-689 185.82,-745.39 295.34,-748.18 359.94,-743.91"/>
<polygon fill="blue" stroke="blue" stroke-width="2" points="360.59,-747.37 370.3,-743.13 360.07,-740.39 360.59,-747.37"/>
</g>
<!-- ip_input -->
<g id="node14" class="node">
<title>ip_input</title>
<ellipse fill="none" stroke="black" cx="553.75" cy="-273" rx="27" ry="18"/>
<text text-anchor="middle" x="553.75" y="-270.2" font-family="sans" font-size="11.00">ip_input</text>
</g>
<!-- loopback_input&#45;&gt;ip_input -->
<g id="edge16" class="edge">
<title>loopback_input&#45;&gt;ip_input</title>
<path fill="none" stroke="black" d="M204.26,-331.11C281.21,-318.28 445.12,-290.95 517.34,-278.91"/>
<polygon fill="black" stroke="black" points="518.02,-282.34 527.3,-277.24 516.87,-275.44 518.02,-282.34"/>
</g>
<!-- ip6_input -->
<g id="node15" class="node">
<title>ip6_input</title>
<ellipse fill="none" stroke="black" cx="288" cy="-468" rx="28.44" ry="18"/>
<text text-anchor="middle" x="288" y="-465.2" font-family="sans" font-size="11.00">ip6_input</text>
</g>
<!-- loopback_input&#45;&gt;ip6_input -->
<g id="edge17" class="edge">
<title>loopback_input&#45;&gt;ip6_input</title>
<path fill="none" stroke="black" d="M178.88,-354.73C200.83,-377.72 240.4,-419.18 265.1,-445.06"/>
<polygon fill="black" stroke="black" points="262.82,-447.73 272.25,-452.55 267.88,-442.9 262.82,-447.73"/>
</g>
<!-- eth_output -->
<g id="node16" class="node">
<title>eth_output</title>
<ellipse fill="none" stroke="black" cx="1608.08" cy="-94" rx="33.8" ry="18"/>
<text text-anchor="middle" x="1608.08" y="-91.2" font-family="sans" font-size="11.00">eth_output</text>
</g>
<!-- arp_output_request&#45;&gt;eth_output -->
<g id="edge27" class="edge">
<title>arp_output_request&#45;&gt;eth_output</title>
<path fill="none" stroke="black" d="M612.52,-61.36C668.5,-59.03 755.82,-56 831.53,-56 831.53,-56 831.53,-56 1336.27,-56 1418.83,-56 1514.19,-73.54 1566.86,-84.78"/>
<polygon fill="black" stroke="black" points="1566.3,-88.24 1576.81,-86.94 1567.78,-81.4 1566.3,-88.24"/>
</g>
<!-- icmp_output -->
<g id="node28" class="node">
<title>icmp_output</title>
<ellipse fill="none" stroke="black" cx="1066.26" cy="-346" rx="37.98" ry="18"/>
<text text-anchor="middle" x="1066.26" y="-343.2" font-family="sans" font-size="11.00">icmp_output</text>
</g>
<!-- icmp_local_send&#45;&gt;icmp_output -->
<g id="edge31" class="edge">
<title>icmp_local_send&#45;&gt;icmp_output</title>
<path fill="none" stroke="black" d="M602.24,-387.85C683.15,-393.3 852.55,-399.83 992.27,-373 1004.61,-370.63 1017.61,-366.42 1029.17,-362.02"/>
<polygon fill="black" stroke="black" points="1030.49,-365.26 1038.49,-358.32 1027.9,-358.76 1030.49,-365.26"/>
</g>
<!-- icmp6_output -->
<g id="node35" class="node">
<title>icmp6_output</title>
<ellipse fill="none" stroke="black" cx="1335.27" cy="-695" rx="41.58" ry="18"/>
<text text-anchor="middle" x="1335.27" y="-692.2" font-family="sans" font-size="11.00">icmp6_output</text>
</g>
<!-- icmp6_local_send&#45;&gt;icmp6_output -->
<g id="edge53" class="edge">
<title>icmp6_local_send&#45;&gt;icmp6_output</title>
<path fill="none" stroke="black" d="M754.14,-776.07C804.04,-772.57 882.21,-768 950.02,-768 950.02,-768 950.02,-768 1067.26,-768 1152.47,-768 1177.34,-772.96 1257.48,-744 1274.97,-737.68 1292.59,-726.83 1306.54,-716.94"/>
<polygon fill="black" stroke="black" points="1308.71,-719.69 1314.71,-710.96 1304.58,-714.04 1308.71,-719.69"/>
</g>
<!-- ndp_ns_output&#45;&gt;icmp6_output -->
<g id="edge69" class="edge">
<title>ndp_ns_output&#45;&gt;icmp6_output</title>
<path fill="none" stroke="black" d="M332.87,-692C385.21,-692 475.37,-692 552.75,-692 552.75,-692 552.75,-692 1067.26,-692 1142.23,-692 1229.03,-693.2 1282.8,-694.08"/>
<polygon fill="black" stroke="black" points="1283.05,-697.58 1293.1,-694.25 1283.16,-690.58 1283.05,-697.58"/>
</g>
<!-- ip_output&#45;&gt;eth_output -->
<g id="edge42" class="edge">
<title>ip_output&#45;&gt;eth_output</title>
<path fill="none" stroke="black" d="M1216.44,-317.6C1234.65,-302.14 1265.08,-277.33 1293.48,-259 1390.42,-196.41 1513.64,-136.97 1572.6,-109.65"/>
<polygon fill="black" stroke="black" points="1574.22,-112.76 1581.84,-105.4 1571.29,-106.4 1574.22,-112.76"/>
</g>
<!-- loopback_output -->
<g id="node19" class="node">
<title>loopback_output</title>
<ellipse fill="none" stroke="black" cx="1608.08" cy="-562" rx="50.45" ry="18"/>
<text text-anchor="middle" x="1608.08" y="-559.2" font-family="sans" font-size="11.00">loopback_output</text>
</g>
<!-- ip_output&#45;&gt;loopback_output -->
<g id="edge44" class="edge">
<title>ip_output&#45;&gt;loopback_output</title>
<path fill="none" stroke="black" d="M1215.66,-346.88C1233.43,-362.98 1263.71,-388.55 1293.48,-405 1386.06,-456.15 1429.15,-427.47 1517.26,-486 1536.91,-499.05 1535.43,-509.56 1553.26,-525 1559.53,-530.43 1566.6,-535.77 1573.52,-540.64"/>
<polygon fill="black" stroke="black" points="1571.89,-543.77 1582.11,-546.52 1575.84,-537.99 1571.89,-543.77"/>
</g>
<!-- ip_hold -->
<g id="node29" class="node">
<title>ip_hold</title>
<ellipse fill="none" stroke="black" cx="1335.27" cy="-378" rx="27" ry="18"/>
<text text-anchor="middle" x="1335.27" y="-375.2" font-family="sans" font-size="11.00">ip_hold</text>
</g>
<!-- ip_output&#45;&gt;ip_hold -->
<g id="edge43" class="edge">
<title>ip_output&#45;&gt;ip_hold</title>
<path fill="none" stroke="black" d="M1224.83,-340.54C1246.35,-347.91 1277.59,-358.6 1301.19,-366.68"/>
<polygon fill="black" stroke="black" points="1300.19,-370.04 1310.79,-369.96 1302.46,-363.41 1300.19,-370.04"/>
</g>
<!-- ipip_output -->
<g id="node32" class="node">
<title>ipip_output</title>
<ellipse fill="none" stroke="black" cx="1335.27" cy="-286" rx="34.38" ry="18"/>
<text text-anchor="middle" x="1335.27" y="-283.2" font-family="sans" font-size="11.00">ipip_output</text>
</g>
<!-- ip_output&#45;&gt;ipip_output -->
<g id="edge45" class="edge">
<title>ip_output&#45;&gt;ipip_output</title>
<path fill="none" stroke="black" d="M1220.57,-319.88C1239.64,-311.62 1268.51,-301.32 1292.39,-294.03"/>
<polygon fill="black" stroke="black" points="1293.68,-297.3 1302.27,-291.1 1291.69,-290.59 1293.68,-297.3"/>
</g>
<!-- sr6_output -->
<g id="node33" class="node">
<title>sr6_output</title>
<ellipse fill="none" stroke="black" cx="1335.27" cy="-508" rx="33.21" ry="18"/>
<text text-anchor="middle" x="1335.27" y="-505.2" font-family="sans" font-size="11.00">sr6_output</text>
</g>
<!-- ip_output&#45;&gt;sr6_output -->
<g id="edge46" class="edge">
<title>ip_output&#45;&gt;sr6_output</title>
<path fill="none" stroke="black" d="M1212.27,-348.24C1235.91,-379.2 1287.56,-446.83 1315.47,-483.38"/>
<polygon fill="black" stroke="black" points="1312.85,-485.72 1321.7,-491.54 1318.41,-481.47 1312.85,-485.72"/>
</g>
<!-- arp_output_reply&#45;&gt;eth_output -->
<g id="edge26" class="edge">
<title>arp_output_reply&#45;&gt;eth_output</title>
<path fill="none" stroke="black" d="M753.21,-99.42C803.09,-97.09 881.83,-94 950.02,-94 950.02,-94 950.02,-94 1336.27,-94 1416.71,-94 1510.59,-94 1564.01,-94"/>
<polygon fill="black" stroke="black" points="1564.14,-97.5 1574.14,-94 1564.14,-90.5 1564.14,-97.5"/>
</g>
<!-- ip6_output&#45;&gt;eth_output -->
<g id="edge62" class="edge">
<title>ip6_output&#45;&gt;eth_output</title>
<path fill="none" stroke="black" d="M1471.34,-564.05C1492.62,-490.36 1573.37,-210.74 1599.13,-121.53"/>
<polygon fill="black" stroke="black" points="1602.51,-122.43 1601.92,-111.85 1595.78,-120.49 1602.51,-122.43"/>
</g>
<!-- ip6_output&#45;&gt;loopback_output -->
<g id="edge64" class="edge">
<title>ip6_output&#45;&gt;loopback_output</title>
<path fill="none" stroke="black" d="M1497.08,-577.61C1512.87,-575.37 1532.58,-572.57 1550.94,-569.97"/>
<polygon fill="black" stroke="black" points="1551.55,-573.42 1560.96,-568.54 1550.57,-566.48 1551.55,-573.42"/>
</g>
<!-- ip6_output&#45;&gt;sr6_output -->
<g id="edge65" class="edge">
<title>ip6_output&#45;&gt;sr6_output</title>
<path fill="none" stroke="black" d="M1437.52,-572.19C1415.42,-560.95 1384.18,-542.86 1362.26,-528.6"/>
<polygon fill="black" stroke="black" points="1364.05,-525.58 1353.78,-522.95 1360.17,-531.41 1364.05,-525.58"/>
</g>
<!-- ip6_hold -->
<g id="node40" class="node">
<title>ip6_hold</title>
<ellipse fill="none" stroke="black" cx="1608.08" cy="-639" rx="27" ry="18"/>
<text text-anchor="middle" x="1608.08" y="-636.2" font-family="sans" font-size="11.00">ip6_hold</text>
</g>
<!-- ip6_output&#45;&gt;ip6_hold -->
<g id="edge63" class="edge">
<title>ip6_output&#45;&gt;ip6_hold</title>
<path fill="none" stroke="black" d="M1492.01,-592.45C1515.43,-601.93 1550.04,-615.93 1575.18,-626.1"/>
<polygon fill="black" stroke="black" points="1574.06,-629.42 1584.64,-629.93 1576.69,-622.93 1574.06,-629.42"/>
</g>
<!-- ndp_na_output&#45;&gt;icmp6_output -->
<g id="edge67" class="edge">
<title>ndp_na_output&#45;&gt;icmp6_output</title>
<path fill="none" stroke="black" d="M458.72,-736C514.99,-733.63 615.25,-730 701.1,-730 701.1,-730 701.1,-730 1067.26,-730 1144.84,-730 1234.03,-715.29 1287.19,-704.95"/>
<polygon fill="black" stroke="black" points="1288.19,-708.32 1297.32,-702.94 1286.83,-701.45 1288.19,-708.32"/>
</g>
<!-- control_output -->
<g id="node11" class="node">
<title>control_output</title>
<ellipse fill="none" stroke="black" cx="1743.39" cy="-686" rx="44.51" ry="18"/>
<text text-anchor="middle" x="1743.39" y="-683.2" font-family="sans" font-size="11.00">control_output</text>
</g>
<!-- eth_input -->
<g id="node12" class="node">
<title>eth_input</title>
<ellipse fill="none" stroke="black" cx="161.91" cy="-220" rx="29.12" ry="18"/>
<text text-anchor="middle" x="161.91" y="-217.2" font-family="sans" font-size="11.00">eth_input</text>
</g>
<!-- arp_input -->
<g id="node13" class="node">
<title>arp_input</title>
<ellipse fill="none" stroke="black" cx="1465.16" cy="-324" rx="29.12" ry="18"/>
<text text-anchor="middle" x="1465.16" y="-321.2" font-family="sans" font-size="11.00">arp_input</text>
</g>
<!-- eth_input&#45;&gt;arp_input -->
<g id="edge11" class="edge">
<title>eth_input&#45;&gt;arp_input</title>
<path fill="none" stroke="black" d="M185.34,-208.91C228.32,-188.71 325.72,-148 412.55,-148 412.55,-148 412.55,-148 952.02,-148 1147.26,-148 1201.11,-174.38 1377.06,-259 1400.58,-270.31 1424.12,-288.39 1440.79,-302.6"/>
<polygon fill="black" stroke="black" points="1438.55,-305.3 1448.39,-309.23 1443.15,-300.02 1438.55,-305.3"/>
</g>
<!-- eth_input&#45;&gt;ip_input -->
<g id="edge12" class="edge">
<title>eth_input&#45;&gt;ip_input</title>
<path fill="none" stroke="black" d="M190.64,-223.77C259.75,-233.17 439.66,-257.62 516.79,-268.11"/>
<polygon fill="black" stroke="black" points="516.59,-271.62 526.97,-269.49 517.53,-264.68 516.59,-271.62"/>
</g>
<!-- eth_input&#45;&gt;ip6_input -->
<g id="edge13" class="edge">
<title>eth_input&#45;&gt;ip6_input</title>
<path fill="none" stroke="black" d="M171.44,-237.05C192.74,-279.61 248.36,-390.78 273.87,-441.76"/>
<polygon fill="black" stroke="black" points="270.81,-443.46 278.41,-450.83 277.07,-440.33 270.81,-443.46"/>
</g>
<!-- arp_input_request -->
<g id="node22" class="node">
<title>arp_input_request</title>
<ellipse fill="none" stroke="black" cx="1608.08" cy="-404" rx="54.63" ry="18"/>
<text text-anchor="middle" x="1608.08" y="-401.2" font-family="sans" font-size="11.00">arp_input_request</text>
</g>
<!-- arp_input&#45;&gt;arp_input_request -->
<g id="edge22" class="edge">
<title>arp_input&#45;&gt;arp_input_request</title>
<path fill="none" stroke="black" d="M1488.16,-335.34C1497.23,-340.08 1507.8,-345.71 1517.26,-351 1535.53,-361.21 1555.61,-373.01 1572.15,-382.87"/>
<polygon fill="black" stroke="black" points="1570.55,-386 1580.93,-388.13 1574.15,-379.99 1570.55,-386"/>
</g>
<!-- arp_input_reply -->
<g id="node23" class="node">
<title>arp_input_reply</title>
<ellipse fill="none" stroke="black" cx="1608.08" cy="-498" rx="47.43" ry="18"/>
<text text-anchor="middle" x="1608.08" y="-495.2" font-family="sans" font-size="11.00">arp_input_reply</text>
</g>
<!-- arp_input&#45;&gt;arp_input_reply -->
<g id="edge23" class="edge">
<title>arp_input&#45;&gt;arp_input_reply</title>
<path fill="none" stroke="black" d="M1490.73,-332.96C1499.97,-337.28 1509.98,-343.25 1517.26,-351 1543.95,-379.43 1532.89,-397.76 1553.26,-431 1562.32,-445.78 1574.24,-460.95 1584.56,-473.1"/>
<polygon fill="black" stroke="black" points="1582.2,-475.73 1591.39,-480.99 1587.49,-471.14 1582.2,-475.73"/>
</g>
<!-- ip_input&#45;&gt;ip_output -->
<g id="edge36" class="edge">
<title>ip_input&#45;&gt;ip_output</title>
<path fill="none" stroke="black" d="M575.24,-261.8C620.21,-238.31 731.55,-186 831.53,-186 831.53,-186 831.53,-186 952.02,-186 1047.16,-186 1137.63,-267.82 1177.11,-308.96"/>
<polygon fill="black" stroke="black" points="1174.69,-311.5 1184.09,-316.38 1179.78,-306.7 1174.69,-311.5"/>
</g>
<!-- dnat44 -->
<g id="node24" class="node">
<title>dnat44</title>
<ellipse fill="none" stroke="black" cx="702.1" cy="-308" rx="27" ry="18"/>
<text text-anchor="middle" x="702.1" y="-305.2" font-family="sans" font-size="11.00">dnat44</text>
</g>
<!-- ip_input&#45;&gt;dnat44 -->
<g id="edge38" class="edge">
<title>ip_input&#45;&gt;dnat44</title>
<path fill="none" stroke="black" d="M579.58,-278.94C603.34,-284.62 639.4,-293.24 666.07,-299.62"/>
<polygon fill="black" stroke="black" points="665.61,-303.11 676.15,-302.03 667.24,-296.3 665.61,-303.11"/>
</g>
<!-- ip_forward -->
<g id="node25" class="node">
<title>ip_forward</title>
<ellipse fill="none" stroke="black" cx="832.53" cy="-335" rx="32.63" ry="18"/>
<text text-anchor="middle" x="832.53" y="-332.2" font-family="sans" font-size="11.00">ip_forward</text>
</g>
<!-- ip_input&#45;&gt;ip_forward -->
<g id="edge35" class="edge">
<title>ip_input&#45;&gt;ip_forward</title>
<path fill="none" stroke="black" d="M570.26,-287.42C587.8,-302.65 617.98,-325.73 648.91,-335 696.1,-349.14 753.29,-346.12 790.95,-341.55"/>
<polygon fill="black" stroke="black" points="791.57,-345 801.03,-340.24 790.66,-338.06 791.57,-345"/>
</g>
<!-- ip_input_local -->
<g id="node26" class="node">
<title>ip_input_local</title>
<ellipse fill="none" stroke="black" cx="832.53" cy="-281" rx="41.49" ry="18"/>
<text text-anchor="middle" x="832.53" y="-278.2" font-family="sans" font-size="11.00">ip_input_local</text>
</g>
<!-- ip_input&#45;&gt;ip_input_local -->
<g id="edge37" class="edge">
<title>ip_input&#45;&gt;ip_input_local</title>
<path fill="none" stroke="black" d="M580.79,-273.75C626.49,-275.07 721.88,-277.83 780.94,-279.54"/>
<polygon fill="black" stroke="black" points="781.07,-283.04 791.16,-279.83 781.27,-276.05 781.07,-283.04"/>
</g>
<!-- ip6_input&#45;&gt;ip6_output -->
<g id="edge57" class="edge">
<title>ip6_input&#45;&gt;ip6_output</title>
<path fill="none" stroke="black" d="M312.23,-477.6C327.87,-483.63 349.09,-491 368.51,-495 473.28,-516.6 1235.3,-567.12 1422.64,-579.32"/>
<polygon fill="black" stroke="black" points="1422.44,-582.81 1432.64,-579.97 1422.89,-575.82 1422.44,-582.81"/>
</g>
<!-- ip6_forward -->
<g id="node39" class="node">
<title>ip6_forward</title>
<ellipse fill="none" stroke="black" cx="1066.26" cy="-590" rx="35.64" ry="18"/>
<text text-anchor="middle" x="1066.26" y="-587.2" font-family="sans" font-size="11.00">ip6_forward</text>
</g>
<!-- ip6_input&#45;&gt;ip6_forward -->
<g id="edge56" class="edge">
<title>ip6_input&#45;&gt;ip6_forward</title>
<path fill="none" stroke="black" d="M300.16,-484.58C313.94,-503.76 339.21,-534.88 368.51,-552 441.38,-594.58 468.35,-598 552.75,-598 552.75,-598 552.75,-598 833.53,-598 898.46,-598 973.57,-594.82 1020.25,-592.47"/>
<polygon fill="black" stroke="black" points="1020.53,-595.96 1030.33,-591.96 1020.17,-588.97 1020.53,-595.96"/>
</g>
<!-- ip6_input_local -->
<g id="node41" class="node">
<title>ip6_input_local</title>
<ellipse fill="none" stroke="black" cx="553.75" cy="-552" rx="45.09" ry="18"/>
<text text-anchor="middle" x="553.75" y="-549.2" font-family="sans" font-size="11.00">ip6_input_local</text>
</g>
<!-- ip6_input&#45;&gt;ip6_input_local -->
<g id="edge58" class="edge">
<title>ip6_input&#45;&gt;ip6_input_local</title>
<path fill="none" stroke="black" d="M303.92,-483.1C318.86,-497.23 343.22,-517.66 368.51,-528 409.99,-544.96 460.72,-550.58 498.43,-552.17"/>
<polygon fill="black" stroke="black" points="498.59,-555.68 508.71,-552.52 498.83,-548.68 498.59,-555.68"/>
</g>
<!-- sr6_local -->
<g id="node42" class="node">
<title>sr6_local</title>
<ellipse fill="none" stroke="black" cx="413.55" cy="-468" rx="27.86" ry="18"/>
<text text-anchor="middle" x="413.55" y="-465.2" font-family="sans" font-size="11.00">sr6_local</text>
</g>
<!-- ip6_input&#45;&gt;sr6_local -->
<g id="edge59" class="edge">
<title>ip6_input&#45;&gt;sr6_local</title>
<path fill="none" stroke="black" d="M314.9,-462.39C332.9,-461.09 357.1,-460.9 376.92,-461.82"/>
<polygon fill="black" stroke="black" points="376.92,-465.32 387.11,-462.42 377.33,-458.34 376.92,-465.32"/>
</g>
<!-- port_tx -->
<g id="node17" class="node">
<title>port_tx</title>
<ellipse fill="none" stroke="black" cx="1743.39" cy="-56" rx="27" ry="18"/>
<text text-anchor="middle" x="1743.39" y="-53.2" font-family="sans" font-size="11.00">port_tx</text>
</g>
<!-- eth_output&#45;&gt;port_tx -->
<g id="edge14" class="edge">
<title>eth_output&#45;&gt;port_tx</title>
<path fill="none" stroke="black" d="M1638,-85.75C1658.63,-79.88 1686.44,-71.95 1708.17,-65.75"/>
<polygon fill="black" stroke="black" points="1709.33,-69.06 1717.99,-62.96 1707.41,-62.33 1709.33,-69.06"/>
</g>
<!-- l1_xconnect -->
<g id="node18" class="node">
<title>l1_xconnect</title>
<ellipse fill="none" stroke="black" cx="288" cy="-18" rx="36.23" ry="18"/>
<text text-anchor="middle" x="288" y="-15.2" font-family="sans" font-size="11.00">l1_xconnect</text>
</g>
<!-- l1_xconnect&#45;&gt;port_tx -->
<g id="edge15" class="edge">
<title>l1_xconnect&#45;&gt;port_tx</title>
<path fill="none" stroke="black" d="M324.41,-18C375.04,-18 471.02,-18 552.75,-18 552.75,-18 552.75,-18 1466.16,-18 1553.57,-18 1655.09,-36.9 1707.34,-48.05"/>
<polygon fill="black" stroke="black" points="1706.9,-51.53 1717.41,-50.23 1708.38,-44.69 1706.9,-51.53"/>
</g>
<!-- loopback_output&#45;&gt;control_output -->
<g id="edge18" class="edge">
<title>loopback_output&#45;&gt;control_output</title>
<path fill="none" stroke="black" d="M1627.51,-579.12C1637.9,-588.77 1651.12,-601.06 1662.89,-612 1681,-628.84 1701.42,-647.85 1717.03,-662.38"/>
<polygon fill="black" stroke="black" points="1715.01,-665.28 1724.71,-669.54 1719.78,-660.16 1715.01,-665.28"/>
</g>
<!-- port_rx -->
<g id="node20" class="node">
<title>port_rx</title>
<ellipse fill="none" stroke="blue" stroke-width="2" cx="40.16" cy="-123" rx="27" ry="18"/>
<text text-anchor="middle" x="40.16" y="-120.2" font-family="sans" font-size="11.00">port_rx</text>
</g>
<!-- port_rx&#45;&gt;eth_input -->
<g id="edge19" class="edge">
<title>port_rx&#45;&gt;eth_input</title>
<path fill="none" stroke="blue" stroke-width="2" d="M58.06,-136.69C78.25,-153.04 112.21,-180.55 135.54,-199.45"/>
<polygon fill="blue" stroke="blue" stroke-width="2" points="133.34,-202.17 143.32,-205.75 137.75,-196.73 133.34,-202.17"/>
</g>
<!-- port_rx&#45;&gt;l1_xconnect -->
<g id="edge20" class="edge">
<title>port_rx&#45;&gt;l1_xconnect</title>
<path fill="none" stroke="blue" stroke-width="2" d="M53.8,-107.23C67.49,-91.27 90.81,-67.13 116.32,-54 155.78,-33.69 205.99,-24.84 241.71,-20.98"/>
<polygon fill="blue" stroke="blue" stroke-width="2" points="242.24,-24.44 251.84,-19.98 241.55,-17.48 242.24,-24.44"/>
</g>
<!-- nh4_unreachable -->
<g id="node21" class="node">
<title>nh4_unreachable</title>
<ellipse fill="none" stroke="black" cx="1465.16" cy="-378" rx="52.2" ry="18"/>
<text text-anchor="middle" x="1465.16" y="-375.2" font-family="sans" font-size="11.00">nh4_unreachable</text>
</g>
<!-- nh4_unreachable&#45;&gt;ip_output -->
<g id="edge21" class="edge">
<title>nh4_unreachable&#45;&gt;ip_output</title>
<path fill="none" stroke="black" d="M1428.12,-365.11C1412.59,-360 1394.11,-354.52 1377.06,-351 1329.9,-341.26 1274.59,-336.34 1238.47,-333.98"/>
<polygon fill="black" stroke="black" points="1238.56,-330.48 1228.36,-333.35 1238.13,-337.46 1238.56,-330.48"/>
</g>
<!-- arp_input_request&#45;&gt;control_output -->
<g id="edge25" class="edge">
<title>arp_input_request&#45;&gt;control_output</title>
<path fill="none" stroke="black" d="M1625.62,-421.33C1637.25,-434.23 1652.52,-452.7 1662.89,-471 1698.52,-533.88 1723.61,-615.75 1735.18,-658.02"/>
<polygon fill="black" stroke="black" points="1731.85,-659.13 1737.83,-667.87 1738.61,-657.31 1731.85,-659.13"/>
</g>
<!-- arp_input_reply&#45;&gt;control_output -->
<g id="edge24" class="edge">
<title>arp_input_reply&#45;&gt;control_output</title>
<path fill="none" stroke="black" d="M1635.73,-512.67C1645.1,-518.73 1655.21,-526.36 1662.89,-535 1696.1,-572.37 1720.07,-626.08 1732.55,-658.35"/>
<polygon fill="black" stroke="black" points="1729.4,-659.91 1736.2,-668.03 1735.95,-657.44 1729.4,-659.91"/>
</g>
<!-- dnat44&#45;&gt;ip_forward -->
<g id="edge28" class="edge">
<title>dnat44&#45;&gt;ip_forward</title>
<path fill="none" stroke="black" d="M728.17,-313.27C746.23,-317.07 770.99,-322.27 791.74,-326.64"/>
<polygon fill="black" stroke="black" points="791.05,-330.07 801.56,-328.7 792.49,-323.22 791.05,-330.07"/>
</g>
<!-- dnat44&#45;&gt;ip_input_local -->
<g id="edge29" class="edge">
<title>dnat44&#45;&gt;ip_input_local</title>
<path fill="none" stroke="black" d="M728.17,-302.73C744.33,-299.33 765.84,-294.81 785.06,-290.77"/>
<polygon fill="black" stroke="black" points="785.79,-294.19 794.85,-288.71 784.35,-287.34 785.79,-294.19"/>
</g>
<!-- ip_forward&#45;&gt;ip_output -->
<g id="edge33" class="edge">
<title>ip_forward&#45;&gt;ip_output</title>
<path fill="none" stroke="black" d="M862.27,-327.5C876.46,-324.18 893.9,-320.65 909.78,-319 995.75,-310.08 1018.02,-313.04 1104.25,-319 1122.82,-320.28 1143.32,-322.98 1160.39,-325.59"/>
<polygon fill="black" stroke="black" points="1160.1,-329.09 1170.52,-327.19 1161.19,-322.17 1160.1,-329.09"/>
</g>
<!-- icmp_input -->
<g id="node27" class="node">
<title>icmp_input</title>
<ellipse fill="none" stroke="black" cx="951.02" cy="-346" rx="33.8" ry="18"/>
<text text-anchor="middle" x="951.02" y="-343.2" font-family="sans" font-size="11.00">icmp_input</text>
</g>
<!-- ip_input_local&#45;&gt;icmp_input -->
<g id="edge39" class="edge">
<title>ip_input_local&#45;&gt;icmp_input</title>
<path fill="none" stroke="black" d="M858.81,-295.1C876.29,-304.86 899.68,-317.91 918.4,-328.35"/>
<polygon fill="black" stroke="black" points="916.73,-331.43 927.16,-333.25 920.14,-325.32 916.73,-331.43"/>
</g>
<!-- ipip_input -->
<g id="node30" class="node">
<title>ipip_input</title>
<ellipse fill="none" stroke="black" cx="951.02" cy="-243" rx="29.7" ry="18"/>
<text text-anchor="middle" x="951.02" y="-240.2" font-family="sans" font-size="11.00">ipip_input</text>
</g>
<!-- ip_input_local&#45;&gt;ipip_input -->
<g id="edge40" class="edge">
<title>ip_input_local&#45;&gt;ipip_input</title>
<path fill="none" stroke="black" d="M865.98,-270.41C881.11,-265.48 899.16,-259.59 914.64,-254.54"/>
<polygon fill="black" stroke="black" points="915.96,-257.79 924.38,-251.36 913.79,-251.14 915.96,-257.79"/>
</g>
<!-- l4_input_local -->
<g id="node31" class="node">
<title>l4_input_local</title>
<ellipse fill="none" stroke="black" cx="951.02" cy="-476" rx="41.49" ry="18"/>
<text text-anchor="middle" x="951.02" y="-473.2" font-family="sans" font-size="11.00">l4_input_local</text>
</g>
<!-- ip_input_local&#45;&gt;l4_input_local -->
<g id="edge41" class="edge">
<title>ip_input_local&#45;&gt;l4_input_local</title>
<path fill="none" stroke="black" d="M859.11,-295.04C864.42,-298.76 869.64,-303.12 873.78,-308 892.76,-330.41 923.67,-406.92 939.68,-448.52"/>
<polygon fill="black" stroke="black" points="936.48,-449.96 943.32,-458.05 943.02,-447.46 936.48,-449.96"/>
</g>
<!-- icmp_input&#45;&gt;icmp_output -->
<g id="edge30" class="edge">
<title>icmp_input&#45;&gt;icmp_output</title>
<path fill="none" stroke="black" d="M984.78,-346C995.18,-346 1006.9,-346 1018.1,-346"/>
<polygon fill="black" stroke="black" points="1018.2,-349.5 1028.2,-346 1018.2,-342.5 1018.2,-349.5"/>
</g>
<!-- icmp_output&#45;&gt;ip_output -->
<g id="edge32" class="edge">
<title>icmp_output&#45;&gt;ip_output</title>
<path fill="none" stroke="black" d="M1103.64,-342.1C1121.18,-340.22 1142.21,-337.97 1159.95,-336.06"/>
<polygon fill="black" stroke="black" points="1160.39,-339.54 1169.96,-334.99 1159.64,-332.58 1160.39,-339.54"/>
</g>
<!-- ip_hold&#45;&gt;nh4_unreachable -->
<g id="edge34" class="edge">
<title>ip_hold&#45;&gt;nh4_unreachable</title>
<path fill="none" stroke="black" d="M1362.46,-378C1374.16,-378 1388.49,-378 1402.66,-378"/>
<polygon fill="black" stroke="black" points="1402.91,-381.5 1412.91,-378 1402.91,-374.5 1402.91,-381.5"/>
</g>
<!-- ipip_input&#45;&gt;ip_input -->
<g id="edge71" class="edge">
<title>ipip_input&#45;&gt;ip_input</title>
<path fill="none" stroke="black" d="M921.05,-244.91C889.22,-247.03 836.6,-250.61 791.28,-254 720.2,-259.32 637.16,-266.13 590.79,-269.98"/>
<polygon fill="black" stroke="black" points="590.32,-266.51 580.65,-270.83 590.9,-273.48 590.32,-266.51"/>
</g>
<!-- l4_loopback_output -->
<g id="node43" class="node">
<title>l4_loopback_output</title>
<ellipse fill="none" stroke="black" cx="1198.87" cy="-466" rx="58.73" ry="18"/>
<text text-anchor="middle" x="1198.87" y="-463.2" font-family="sans" font-size="11.00">l4_loopback_output</text>
</g>
<!-- l4_input_local&#45;&gt;l4_loopback_output -->
<g id="edge73" class="edge">
<title>l4_input_local&#45;&gt;l4_loopback_output</title>
<path fill="none" stroke="black" d="M992.34,-474.36C1029.75,-472.84 1086.15,-470.54 1130.41,-468.74"/>
<polygon fill="black" stroke="black" points="1130.67,-472.24 1140.52,-468.33 1130.39,-465.24 1130.67,-472.24"/>
</g>
<!-- ipip_output&#45;&gt;ip_output -->
<g id="edge72" class="edge">
<title>ipip_output&#45;&gt;ip_output</title>
<path fill="none" stroke="black" d="M1311.37,-299.06C1291.13,-307.66 1261.22,-318.19 1237.47,-325.26"/>
<polygon fill="black" stroke="black" points="1236.36,-321.94 1227.71,-328.06 1238.29,-328.67 1236.36,-321.94"/>
</g>
<!-- sr6_output&#45;&gt;ip6_output -->
<g id="edge78" class="edge">
<title>sr6_output&#45;&gt;ip6_output</title>
<path fill="none" stroke="black" d="M1363.08,-517.9C1385.1,-529.11 1416.1,-547.06 1437.95,-561.26"/>
<polygon fill="black" stroke="black" points="1436.15,-564.27 1446.41,-566.89 1440.02,-558.44 1436.15,-564.27"/>
</g>
<!-- icmp6_input -->
<g id="node34" class="node">
<title>icmp6_input</title>
<ellipse fill="none" stroke="black" cx="1198.87" cy="-814" rx="37.4" ry="18"/>
<text text-anchor="middle" x="1198.87" y="-811.2" font-family="sans" font-size="11.00">icmp6_input</text>
</g>
<!-- icmp6_input&#45;&gt;control_output -->
<g id="edge51" class="edge">
<title>icmp6_input&#45;&gt;control_output</title>
<path fill="none" stroke="black" d="M1224.38,-800.68C1234.66,-795.01 1246.7,-788.28 1257.48,-782 1273.68,-772.56 1275.9,-766.53 1293.48,-760 1430.08,-709.21 1602.95,-693.19 1688.87,-688.21"/>
<polygon fill="black" stroke="black" points="1689.11,-691.7 1698.9,-687.65 1688.73,-684.71 1689.11,-691.7"/>
</g>
<!-- icmp6_input&#45;&gt;icmp6_output -->
<g id="edge47" class="edge">
<title>icmp6_input&#45;&gt;icmp6_output</title>
<path fill="none" stroke="black" d="M1227.46,-802.12C1237.62,-796.9 1248.77,-790.1 1257.48,-782 1278.87,-762.1 1273.72,-748.52 1293.48,-727 1296.73,-723.46 1300.4,-720 1304.18,-716.74"/>
<polygon fill="black" stroke="black" points="1306.43,-719.42 1311.97,-710.39 1302.01,-714 1306.43,-719.42"/>
</g>
<!-- ndp_ns_input -->
<g id="node36" class="node">
<title>ndp_ns_input</title>
<ellipse fill="none" stroke="black" cx="1465.16" cy="-879" rx="40.32" ry="18"/>
<text text-anchor="middle" x="1465.16" y="-876.2" font-family="sans" font-size="11.00">ndp_ns_input</text>
</g>
<!-- icmp6_input&#45;&gt;ndp_ns_input -->
<g id="edge48" class="edge">
<title>icmp6_input&#45;&gt;ndp_ns_input</title>
<path fill="none" stroke="black" d="M1232.54,-822.04C1279.64,-833.62 1366.75,-855.04 1419.68,-868.06"/>
<polygon fill="black" stroke="black" points="1418.92,-871.48 1429.47,-870.47 1420.59,-864.68 1418.92,-871.48"/>
</g>
<!-- ndp_na_input -->
<g id="node37" class="node">
<title>ndp_na_input</title>
<ellipse fill="none" stroke="black" cx="1465.16" cy="-825" rx="40.91" ry="18"/>
<text text-anchor="middle" x="1465.16" y="-822.2" font-family="sans" font-size="11.00">ndp_na_input</text>
</g>
<!-- icmp6_input&#45;&gt;ndp_na_input -->
<g id="edge49" class="edge">
<title>icmp6_input&#45;&gt;ndp_na_input</title>
<path fill="none" stroke="black" d="M1236.34,-815.52C1282.57,-817.44 1362.49,-820.77 1414.32,-822.93"/>
<polygon fill="black" stroke="black" points="1414.48,-826.44 1424.62,-823.35 1414.77,-819.44 1414.48,-826.44"/>
</g>
<!-- ndp_rs_input -->
<g id="node38" class="node">
<title>ndp_rs_input</title>
<ellipse fill="none" stroke="black" cx="1335.27" cy="-787" rx="39.15" ry="18"/>
<text text-anchor="middle" x="1335.27" y="-784.2" font-family="sans" font-size="11.00">ndp_rs_input</text>
</g>
<!-- icmp6_input&#45;&gt;ndp_rs_input -->
<g id="edge50" class="edge">
<title>icmp6_input&#45;&gt;ndp_rs_input</title>
<path fill="none" stroke="black" d="M1233.78,-807.19C1250.5,-803.83 1270.9,-799.73 1288.94,-796.11"/>
<polygon fill="black" stroke="black" points="1289.84,-799.49 1298.96,-794.09 1288.46,-792.63 1289.84,-799.49"/>
</g>
<!-- icmp6_output&#45;&gt;ip6_output -->
<g id="edge52" class="edge">
<title>icmp6_output&#45;&gt;ip6_output</title>
<path fill="none" stroke="black" d="M1356.87,-679.38C1363.42,-674.27 1370.63,-668.5 1377.06,-663 1399.25,-644.04 1423.49,-621.32 1440.75,-604.78"/>
<polygon fill="black" stroke="black" points="1443.38,-607.1 1448.16,-597.64 1438.53,-602.06 1443.38,-607.1"/>
</g>
<!-- ndp_ns_input&#45;&gt;control_output -->
<g id="edge68" class="edge">
<title>ndp_ns_input&#45;&gt;control_output</title>
<path fill="none" stroke="black" d="M1505.13,-876.23C1547.85,-871.4 1616.47,-858.17 1662.89,-822 1698.94,-793.91 1721.8,-744.54 1733.33,-713.64"/>
<polygon fill="black" stroke="black" points="1736.74,-714.53 1736.81,-703.93 1730.15,-712.17 1736.74,-714.53"/>
</g>
<!-- ndp_na_input&#45;&gt;control_output -->
<g id="edge66" class="edge">
<title>ndp_na_input&#45;&gt;control_output</title>
<path fill="none" stroke="black" d="M1505.72,-827C1547.71,-827.3 1614.55,-822.4 1662.89,-793 1694.1,-774.02 1717.04,-737.77 1730.05,-712.76"/>
<polygon fill="black" stroke="black" points="1733.2,-714.29 1734.55,-703.78 1726.94,-711.16 1733.2,-714.29"/>
</g>
<!-- ndp_rs_input&#45;&gt;control_output -->
<g id="edge70" class="edge">
<title>ndp_rs_input&#45;&gt;control_output</title>
<path fill="none" stroke="black" d="M1373.83,-790.49C1436.54,-794.78 1565.28,-796.99 1662.89,-755 1685.62,-745.22 1706.55,-726.49 1721.22,-711"/>
<polygon fill="black" stroke="black" points="1724.13,-713.01 1728.3,-703.27 1718.96,-708.28 1724.13,-713.01"/>
</g>
<!-- ip6_forward&#45;&gt;ip6_output -->
<g id="edge54" class="edge">
<title>ip6_forward&#45;&gt;ip6_output</title>
<path fill="none" stroke="black" d="M1102.14,-589.3C1175.18,-587.82 1343.98,-584.42 1422.54,-582.84"/>
<polygon fill="black" stroke="black" points="1422.63,-586.34 1432.56,-582.64 1422.49,-579.34 1422.63,-586.34"/>
</g>
<!-- ip6_hold&#45;&gt;control_output -->
<g id="edge55" class="edge">
<title>ip6_hold&#45;&gt;control_output</title>
<path fill="none" stroke="black" d="M1632.3,-647.19C1650.82,-653.72 1677.26,-663.04 1699.59,-670.91"/>
<polygon fill="black" stroke="black" points="1698.6,-674.27 1709.2,-674.3 1700.93,-667.67 1698.6,-674.27"/>
</g>
<!-- ip6_input_local&#45;&gt;l4_input_local -->
<g id="edge61" class="edge">
<title>ip6_input_local&#45;&gt;l4_input_local</title>
<path fill="none" stroke="black" d="M594.83,-544.29C668.37,-530.16 824.49,-500.14 902.95,-485.05"/>
<polygon fill="black" stroke="black" points="903.87,-488.44 913.03,-483.11 902.55,-481.56 903.87,-488.44"/>
</g>
<!-- ip6_input_local&#45;&gt;icmp6_input -->
<g id="edge60" class="edge">
<title>ip6_input_local&#45;&gt;icmp6_input</title>
<path fill="none" stroke="black" d="M598.34,-554.91C639.61,-558.6 702.89,-566.71 755.28,-584 919.76,-638.28 1097.4,-748.15 1167.23,-793.6"/>
<polygon fill="black" stroke="black" points="1165.68,-796.78 1175.97,-799.32 1169.52,-790.92 1165.68,-796.78"/>
</g>
<!-- sr6_local&#45;&gt;ip_input -->
<g id="edge75" class="edge">
<title>sr6_local&#45;&gt;ip_input</title>
<path fill="none" stroke="black" d="M426.1,-451.71C450.39,-417.43 506.92,-337.68 535.52,-297.32"/>
<polygon fill="black" stroke="black" points="538.41,-299.29 541.34,-289.11 532.7,-295.24 538.41,-299.29"/>
</g>
<!-- sr6_local&#45;&gt;ip6_input -->
<g id="edge76" class="edge">
<title>sr6_local&#45;&gt;ip6_input</title>
<path fill="none" stroke="black" d="M387.11,-473.58C369.22,-474.89 345.03,-475.1 325.14,-474.2"/>
<polygon fill="black" stroke="black" points="325.09,-470.7 314.9,-473.61 324.68,-477.68 325.09,-470.7"/>
</g>
<!-- sr6_local&#45;&gt;ip6_input_local -->
<g id="edge77" class="edge">
<title>sr6_local&#45;&gt;ip6_input_local</title>
<path fill="none" stroke="black" d="M434.35,-480.04C456.48,-493.49 492.68,-515.49 519.24,-531.63"/>
<polygon fill="black" stroke="black" points="517.48,-534.66 527.84,-536.86 521.12,-528.67 517.48,-534.66"/>
</g>
<!-- l4_loopback_output&#45;&gt;loopback_output -->
<g id="edge74" class="edge">
<title>l4_loopback_output&#45;&gt;loopback_output</title>
<path fill="none" stroke="black" d="M1257.47,-467.18C1292.39,-468.81 1337.67,-472.54 1377.06,-481 1445.32,-495.66 1521.08,-525.04 1566.35,-544.1"/>
<polygon fill="black" stroke="black" points="1565.24,-547.43 1575.81,-548.11 1567.98,-540.98 1565.24,-547.43"/>
</g>
</g>
</svg>
