<?xml version="1.0" encoding="UTF-8" standalone="no"?>
<!DOCTYPE svg PUBLIC "-//W3C//DTD SVG 1.1//EN"
 "http://www.w3.org/Graphics/SVG/1.1/DTD/svg11.dtd">
<!-- Generated by graphviz version 12.1.0 (20240811.2233)
 -->
<!-- Title: gr&#45;0003 Pages: 1 -->
<svg width="1252pt" height="776pt"
 viewBox="0.00 0.00 1251.56 776.00" xmlns="http://www.w3.org/2000/svg" xmlns:xlink="http://www.w3.org/1999/xlink">
<g id="graph0" class="graph" transform="scale(1 1) rotate(0) translate(4 772)">
<title>gr&#45;0003</title>
<polygon fill="white" stroke="none" points="-4,4 -4,-772 1247.56,-772 1247.56,4 -4,4"/>
<!-- control_input -->
<g id="node1" class="node">
<title>control_input</title>
<ellipse fill="none" stroke="blue" stroke-width="2" cx="41.62" cy="-346" rx="41.62" ry="18"/>
<text text-anchor="middle" x="41.62" y="-342.3" font-family="sans" font-size="11.00">control_input</text>
</g>
<!-- loopback_input -->
<g id="node2" class="node">
<title>loopback_input</title>
<ellipse fill="none" stroke="black" cx="166.76" cy="-346" rx="47.52" ry="18"/>
<text text-anchor="middle" x="166.76" y="-342.3" font-family="sans" font-size="11.00">loopback_input</text>
</g>
<!-- control_input&#45;&gt;loopback_input -->
<g id="edge1" class="edge">
<title>control_input&#45;&gt;loopback_input</title>
<path fill="none" stroke="blue" stroke-width="2" d="M83.63,-346C91.33,-346 99.52,-346 107.63,-346"/>
<polygon fill="blue" stroke="blue" stroke-width="2" points="105.96,-349.5 115.96,-346 105.96,-342.5 105.96,-349.5"/>
</g>
<!-- arp_output_request -->
<g id="node3" class="node">
<title>arp_output_request</title>
<ellipse fill="none" stroke="black" cx="311.7" cy="-18" rx="61.42" ry="18"/>
<text text-anchor="middle" x="311.7" y="-14.3" font-family="sans" font-size="11.00">arp_output_request</text>
</g>
<!-- control_input&#45;&gt;arp_output_request -->
<g id="edge2" class="edge">
<title>control_input&#45;&gt;arp_output_request</title>
<path fill="none" stroke="blue" stroke-width="2" d="M45.24,-327.72C51.65,-288.59 71.22,-195.4 119.25,-135 156.57,-88.06 218.25,-55.27 261.48,-36.58"/>
<polygon fill="blue" stroke="blue" stroke-width="2" points="261.4,-40.41 269.26,-33.3 258.69,-33.96 261.4,-40.41"/>
</g>
<!-- icmp_local_send -->
<g id="node4" class="node">
<title>icmp_local_send</title>
<ellipse fill="none" stroke="black" cx="311.7" cy="-646" rx="51.31" ry="18"/>
<text text-anchor="middle" x="311.7" y="-642.3" font-family="sans" font-size="11.00">icmp_local_send</text>
</g>
<!-- control_input&#45;&gt;icmp_local_send -->
<g id="edge3" class="edge">
<title>control_input&#45;&gt;icmp_local_send</title>
<path fill="none" stroke="blue" stroke-width="2" d="M45.96,-364.14C53.42,-400.32 74.41,-482.49 119.25,-535 158.11,-580.52 220.58,-611.75 263.53,-629.22"/>
<polygon fill="blue" stroke="blue" stroke-width="2" points="260.6,-631.82 271.19,-632.25 263.18,-625.31 260.6,-631.82"/>
</g>
<!-- ndp_ns_output -->
<g id="node5" class="node">
<title>ndp_ns_output</title>
<ellipse fill="none" stroke="black" cx="166.76" cy="-162" rx="46.26" ry="18"/>
<text text-anchor="middle" x="166.76" y="-158.3" font-family="sans" font-size="11.00">ndp_ns_output</text>
</g>
<!-- control_input&#45;&gt;ndp_ns_output -->
<g id="edge4" class="edge">
<title>control_input&#45;&gt;ndp_ns_output</title>
<path fill="none" stroke="blue" stroke-width="2" d="M54.21,-328.69C75.7,-296.58 121.88,-227.57 147.58,-189.18"/>
<polygon fill="blue" stroke="blue" stroke-width="2" points="149.6,-192.44 152.26,-182.18 143.79,-188.55 149.6,-192.44"/>
</g>
<!-- ip_output -->
<g id="node6" class="node">
<title>ip_output</title>
<ellipse fill="none" stroke="black" cx="921.34" cy="-600" rx="30.25" ry="18"/>
<text text-anchor="middle" x="921.34" y="-596.3" font-family="sans" font-size="11.00">ip_output</text>
</g>
<!-- control_input&#45;&gt;ip_output -->
<g id="edge5" class="edge">
<title>control_input&#45;&gt;ip_output</title>
<path fill="none" stroke="blue" stroke-width="2" d="M48.21,-364.27C64.82,-418.47 113.14,-575.23 119.25,-585 181.68,-684.79 192.99,-768 310.7,-768 310.7,-768 310.7,-768 611.41,-768 712.64,-768 747,-766.1 831.92,-711 864.62,-689.78 890.67,-652.4 905.8,-626.93"/>
<polygon fill="blue" stroke="blue" stroke-width="2" points="907.96,-630.2 909.91,-619.78 901.89,-626.71 907.96,-630.2"/>
</g>
<!-- loopback_input&#45;&gt;ip_output -->
<g id="edge11" class="edge">
<title>loopback_input&#45;&gt;ip_output</title>
<path fill="none" stroke="black" d="M176.7,-363.86C207.01,-421.68 312.06,-600 454.79,-600 454.79,-600 454.79,-600 611.41,-600 707.5,-600 820.4,-600 879.51,-600"/>
<polygon fill="black" stroke="black" points="879.43,-603.5 889.43,-600 879.43,-596.5 879.43,-603.5"/>
</g>
<!-- ip_input_local -->
<g id="node14" class="node">
<title>ip_input_local</title>
<ellipse fill="none" stroke="black" cx="311.7" cy="-378" rx="42.89" ry="18"/>
<text text-anchor="middle" x="311.7" y="-374.3" font-family="sans" font-size="11.00">ip_input_local</text>
</g>
<!-- loopback_input&#45;&gt;ip_input_local -->
<g id="edge10" class="edge">
<title>loopback_input&#45;&gt;ip_input_local</title>
<path fill="none" stroke="black" d="M208.34,-355.08C225.13,-358.84 244.74,-363.23 262.27,-367.16"/>
<polygon fill="black" stroke="black" points="261.45,-370.56 271.97,-369.33 262.98,-363.73 261.45,-370.56"/>
</g>
<!-- ip6_input_local -->
<g id="node15" class="node">
<title>ip6_input_local</title>
<ellipse fill="none" stroke="black" cx="455.79" cy="-256" rx="46.68" ry="18"/>
<text text-anchor="middle" x="455.79" y="-252.3" font-family="sans" font-size="11.00">ip6_input_local</text>
</g>
<!-- loopback_input&#45;&gt;ip6_input_local -->
<g id="edge12" class="edge">
<title>loopback_input&#45;&gt;ip6_input_local</title>
<path fill="none" stroke="black" d="M182.13,-328.52C197.17,-311.6 222.45,-286.82 250.28,-275 297.38,-255 355.94,-251.45 398.31,-252.2"/>
<polygon fill="black" stroke="black" points="398.21,-255.69 408.3,-252.47 398.4,-248.7 398.21,-255.69"/>
</g>
<!-- ip6_output -->
<g id="node16" class="node">
<title>ip6_output</title>
<ellipse fill="none" stroke="black" cx="921.34" cy="-229" rx="34.04" ry="18"/>
<text text-anchor="middle" x="921.34" y="-225.3" font-family="sans" font-size="11.00">ip6_output</text>
</g>
<!-- loopback_input&#45;&gt;ip6_output -->
<g id="edge13" class="edge">
<title>loopback_input&#45;&gt;ip6_output</title>
<path fill="none" stroke="black" d="M177.32,-328.06C208.79,-271.71 315.16,-102 454.79,-102 454.79,-102 454.79,-102 611.41,-102 709.78,-102 744.91,-75.11 831.92,-121 865.83,-138.88 891.59,-175.91 906.33,-201.59"/>
<polygon fill="black" stroke="black" points="903.16,-203.09 911.05,-210.15 909.29,-199.7 903.16,-203.09"/>
</g>
<!-- eth_output -->
<g id="node12" class="node">
<title>eth_output</title>
<ellipse fill="none" stroke="black" cx="1062.9" cy="-311" rx="34.89" ry="18"/>
<text text-anchor="middle" x="1062.9" y="-307.3" font-family="sans" font-size="11.00">eth_output</text>
</g>
<!-- arp_output_request&#45;&gt;eth_output -->
<g id="edge22" class="edge">
<title>arp_output_request&#45;&gt;eth_output</title>
<path fill="none" stroke="black" d="M373.22,-19.29C433.18,-20.46 527.63,-22 609.41,-22 609.41,-22 609.41,-22 776.14,-22 922.11,-22 1018.78,-210.74 1050.5,-283.16"/>
<polygon fill="black" stroke="black" points="1047.11,-284.15 1054.27,-291.97 1053.55,-281.4 1047.11,-284.15"/>
</g>
<!-- icmp_output -->
<g id="node23" class="node">
<title>icmp_output</title>
<ellipse fill="none" stroke="black" cx="610.41" cy="-646" rx="39.52" ry="18"/>
<text text-anchor="middle" x="610.41" y="-642.3" font-family="sans" font-size="11.00">icmp_output</text>
</g>
<!-- icmp_local_send&#45;&gt;icmp_output -->
<g id="edge25" class="edge">
<title>icmp_local_send&#45;&gt;icmp_output</title>
<path fill="none" stroke="black" d="M363.37,-646C418.11,-646 504.8,-646 559.31,-646"/>
<polygon fill="black" stroke="black" points="559.26,-649.5 569.26,-646 559.26,-642.5 559.26,-649.5"/>
</g>
<!-- ndp_ns_output&#45;&gt;ip6_output -->
<g id="edge55" class="edge">
<title>ndp_ns_output&#45;&gt;ip6_output</title>
<path fill="none" stroke="black" d="M184.06,-145.18C203.51,-125.51 235.29,-94.77 250.28,-88 333.7,-50.36 363.28,-64 454.79,-64 454.79,-64 454.79,-64 611.41,-64 709.99,-64 748.37,-35.67 831.92,-88 873.32,-113.93 898.6,-167.11 910.99,-200.23"/>
<polygon fill="black" stroke="black" points="907.68,-201.37 914.34,-209.61 914.28,-199.02 907.68,-201.37"/>
</g>
<!-- ip_output&#45;&gt;eth_output -->
<g id="edge36" class="edge">
<title>ip_output&#45;&gt;eth_output</title>
<path fill="none" stroke="black" d="M928.9,-582.13C942.49,-545.74 975.42,-460.74 1010.75,-393 1020.68,-373.96 1033.46,-353.47 1043.77,-337.73"/>
<polygon fill="black" stroke="black" points="1046.68,-339.67 1049.29,-329.4 1040.85,-335.8 1046.68,-339.67"/>
</g>
<!-- loopback_output -->
<g id="node17" class="node">
<title>loopback_output</title>
<ellipse fill="none" stroke="black" cx="1062.9" cy="-420" rx="52.15" ry="18"/>
<text text-anchor="middle" x="1062.9" y="-416.3" font-family="sans" font-size="11.00">loopback_output</text>
</g>
<!-- ip_output&#45;&gt;loopback_output -->
<g id="edge38" class="edge">
<title>ip_output&#45;&gt;loopback_output</title>
<path fill="none" stroke="black" d="M934.97,-583.71C959.09,-552.59 1011.93,-484.45 1041.25,-446.63"/>
<polygon fill="black" stroke="black" points="1043.88,-448.95 1047.24,-438.9 1038.35,-444.66 1043.88,-448.95"/>
</g>
<!-- ip_hold -->
<g id="node25" class="node">
<title>ip_hold</title>
<ellipse fill="none" stroke="black" cx="1062.9" cy="-554" rx="27" ry="18"/>
<text text-anchor="middle" x="1062.9" y="-550.3" font-family="sans" font-size="11.00">ip_hold</text>
</g>
<!-- ip_output&#45;&gt;ip_hold -->
<g id="edge37" class="edge">
<title>ip_output&#45;&gt;ip_hold</title>
<path fill="none" stroke="black" d="M948.26,-591.46C970.68,-584.07 1003.26,-573.33 1027.8,-565.24"/>
<polygon fill="black" stroke="black" points="1028.6,-568.66 1037,-562.21 1026.41,-562.01 1028.6,-568.66"/>
</g>
<!-- ipip_output -->
<g id="node30" class="node">
<title>ipip_output</title>
<ellipse fill="none" stroke="black" cx="1062.9" cy="-608" rx="35.73" ry="18"/>
<text text-anchor="middle" x="1062.9" y="-604.3" font-family="sans" font-size="11.00">ipip_output</text>
</g>
<!-- ip_output&#45;&gt;ipip_output -->
<g id="edge39" class="edge">
<title>ip_output&#45;&gt;ipip_output</title>
<path fill="none" stroke="black" d="M951.25,-596.06C970.74,-595.93 996.8,-597.19 1018.74,-599.23"/>
<polygon fill="black" stroke="black" points="1018.29,-602.7 1028.59,-600.25 1019.01,-595.74 1018.29,-602.7"/>
</g>
<!-- control_output -->
<g id="node7" class="node">
<title>control_output</title>
<ellipse fill="none" stroke="black" cx="1197.31" cy="-554" rx="46.26" ry="18"/>
<text text-anchor="middle" x="1197.31" y="-550.3" font-family="sans" font-size="11.00">control_output</text>
</g>
<!-- eth_input -->
<g id="node8" class="node">
<title>eth_input</title>
<ellipse fill="none" stroke="black" cx="166.76" cy="-508" rx="30.25" ry="18"/>
<text text-anchor="middle" x="166.76" y="-504.3" font-family="sans" font-size="11.00">eth_input</text>
</g>
<!-- arp_input -->
<g id="node9" class="node">
<title>arp_input</title>
<ellipse fill="none" stroke="black" cx="610.41" cy="-700" rx="30.25" ry="18"/>
<text text-anchor="middle" x="610.41" y="-696.3" font-family="sans" font-size="11.00">arp_input</text>
</g>
<!-- eth_input&#45;&gt;arp_input -->
<g id="edge6" class="edge">
<title>eth_input&#45;&gt;arp_input</title>
<path fill="none" stroke="black" d="M170.86,-526.25C177.9,-561.47 198.69,-638.38 250.28,-673 349.38,-739.5 500.35,-721.85 570.75,-708.56"/>
<polygon fill="black" stroke="black" points="571.12,-712.05 580.25,-706.69 569.76,-705.19 571.12,-712.05"/>
</g>
<!-- ip_input -->
<g id="node10" class="node">
<title>ip_input</title>
<ellipse fill="none" stroke="black" cx="610.41" cy="-464" rx="27" ry="18"/>
<text text-anchor="middle" x="610.41" y="-460.3" font-family="sans" font-size="11.00">ip_input</text>
</g>
<!-- eth_input&#45;&gt;ip_input -->
<g id="edge7" class="edge">
<title>eth_input&#45;&gt;ip_input</title>
<path fill="none" stroke="black" d="M197.08,-505.08C274.73,-497.34 485.64,-476.33 571.89,-467.74"/>
<polygon fill="black" stroke="black" points="572.1,-471.24 581.7,-466.76 571.4,-464.27 572.1,-471.24"/>
</g>
<!-- ip6_input -->
<g id="node11" class="node">
<title>ip6_input</title>
<ellipse fill="none" stroke="black" cx="311.7" cy="-302" rx="29.41" ry="18"/>
<text text-anchor="middle" x="311.7" y="-298.3" font-family="sans" font-size="11.00">ip6_input</text>
</g>
<!-- eth_input&#45;&gt;ip6_input -->
<g id="edge8" class="edge">
<title>eth_input&#45;&gt;ip6_input</title>
<path fill="none" stroke="black" d="M174.37,-490.13C186.28,-459.46 213.58,-395.77 250.28,-351 259.22,-340.09 270.92,-329.93 281.64,-321.72"/>
<polygon fill="black" stroke="black" points="283.52,-324.69 289.49,-315.94 279.37,-319.05 283.52,-324.69"/>
</g>
<!-- arp_input_request -->
<g id="node19" class="node">
<title>arp_input_request</title>
<ellipse fill="none" stroke="black" cx="775.14" cy="-684" rx="56.78" ry="18"/>
<text text-anchor="middle" x="775.14" y="-680.3" font-family="sans" font-size="11.00">arp_input_request</text>
</g>
<!-- arp_input&#45;&gt;arp_input_request -->
<g id="edge16" class="edge">
<title>arp_input&#45;&gt;arp_input_request</title>
<path fill="none" stroke="black" d="M640.5,-697.14C659.52,-695.27 685.13,-692.75 708.85,-690.42"/>
<polygon fill="black" stroke="black" points="709.19,-693.9 718.8,-689.44 708.5,-686.94 709.19,-693.9"/>
</g>
<!-- arp_input_reply -->
<g id="node20" class="node">
<title>arp_input_reply</title>
<ellipse fill="none" stroke="black" cx="921.34" cy="-722" rx="48.78" ry="18"/>
<text text-anchor="middle" x="921.34" y="-718.3" font-family="sans" font-size="11.00">arp_input_reply</text>
</g>
<!-- arp_input&#45;&gt;arp_input_reply -->
<g id="edge17" class="edge">
<title>arp_input&#45;&gt;arp_input_reply</title>
<path fill="none" stroke="black" d="M640.43,-703.37C661.92,-705.77 691.93,-708.92 718.35,-711 766.31,-714.77 820.77,-717.65 861.05,-719.52"/>
<polygon fill="black" stroke="black" points="860.88,-723.02 871.03,-719.98 861.2,-716.03 860.88,-723.02"/>
</g>
<!-- ip_input&#45;&gt;ip_input_local -->
<g id="edge30" class="edge">
<title>ip_input&#45;&gt;ip_input_local</title>
<path fill="none" stroke="black" d="M583.45,-466.94C544.29,-470.38 468.39,-473.07 409.11,-451 381.38,-440.67 354.96,-419.59 336.82,-402.73"/>
<polygon fill="black" stroke="black" points="339.34,-400.29 329.7,-395.9 334.49,-405.35 339.34,-400.29"/>
</g>
<!-- ip_forward -->
<g id="node24" class="node">
<title>ip_forward</title>
<ellipse fill="none" stroke="black" cx="775.14" cy="-554" rx="33.62" ry="18"/>
<text text-anchor="middle" x="775.14" y="-550.3" font-family="sans" font-size="11.00">ip_forward</text>
</g>
<!-- ip_input&#45;&gt;ip_forward -->
<g id="edge29" class="edge">
<title>ip_input&#45;&gt;ip_forward</title>
<path fill="none" stroke="black" d="M632.02,-475.4C659.42,-490.55 708.16,-517.51 740.82,-535.57"/>
<polygon fill="black" stroke="black" points="739.04,-538.59 749.48,-540.36 742.43,-532.46 739.04,-538.59"/>
</g>
<!-- ip6_input&#45;&gt;ip6_input_local -->
<g id="edge46" class="edge">
<title>ip6_input&#45;&gt;ip6_input_local</title>
<path fill="none" stroke="black" d="M338.1,-293.78C357.6,-287.46 385.06,-278.57 408.45,-271"/>
<polygon fill="black" stroke="black" points="409.32,-274.4 417.76,-267.99 407.17,-267.74 409.32,-274.4"/>
</g>
<!-- ip6_forward -->
<g id="node35" class="node">
<title>ip6_forward</title>
<ellipse fill="none" stroke="black" cx="455.79" cy="-202" rx="37.41" ry="18"/>
<text text-anchor="middle" x="455.79" y="-198.3" font-family="sans" font-size="11.00">ip6_forward</text>
</g>
<!-- ip6_input&#45;&gt;ip6_forward -->
<g id="edge45" class="edge">
<title>ip6_input&#45;&gt;ip6_forward</title>
<path fill="none" stroke="black" d="M330.38,-287.65C349.38,-272.45 380.7,-248.07 409.11,-229 412.99,-226.4 417.11,-223.78 421.24,-221.23"/>
<polygon fill="black" stroke="black" points="422.7,-224.44 429.47,-216.29 419.09,-218.44 422.7,-224.44"/>
</g>
<!-- port_tx -->
<g id="node13" class="node">
<title>port_tx</title>
<ellipse fill="none" stroke="black" cx="1197.31" cy="-311" rx="27" ry="18"/>
<text text-anchor="middle" x="1197.31" y="-307.3" font-family="sans" font-size="11.00">port_tx</text>
</g>
<!-- eth_output&#45;&gt;port_tx -->
<g id="edge9" class="edge">
<title>eth_output&#45;&gt;port_tx</title>
<path fill="none" stroke="black" d="M1098,-311C1116.53,-311 1139.48,-311 1158.55,-311"/>
<polygon fill="black" stroke="black" points="1158.33,-314.5 1168.33,-311 1158.33,-307.5 1158.33,-314.5"/>
</g>
<!-- icmp_input -->
<g id="node22" class="node">
<title>icmp_input</title>
<ellipse fill="none" stroke="black" cx="455.79" cy="-554" rx="34.89" ry="18"/>
<text text-anchor="middle" x="455.79" y="-550.3" font-family="sans" font-size="11.00">icmp_input</text>
</g>
<!-- ip_input_local&#45;&gt;icmp_input -->
<g id="edge31" class="edge">
<title>ip_input_local&#45;&gt;icmp_input</title>
<path fill="none" stroke="black" d="M326.58,-395.2C351.75,-426.37 405.03,-492.36 434.36,-528.69"/>
<polygon fill="black" stroke="black" points="431.31,-530.49 440.32,-536.07 436.76,-526.09 431.31,-530.49"/>
</g>
<!-- ipip_input -->
<g id="node26" class="node">
<title>ipip_input</title>
<ellipse fill="none" stroke="black" cx="455.79" cy="-424" rx="31.1" ry="18"/>
<text text-anchor="middle" x="455.79" y="-420.3" font-family="sans" font-size="11.00">ipip_input</text>
</g>
<!-- ip_input_local&#45;&gt;ipip_input -->
<g id="edge32" class="edge">
<title>ip_input_local&#45;&gt;ipip_input</title>
<path fill="none" stroke="black" d="M346.37,-388.9C367.62,-395.78 395.1,-404.67 417.07,-411.79"/>
<polygon fill="black" stroke="black" points="415.97,-415.11 426.56,-414.86 418.13,-408.45 415.97,-415.11"/>
</g>
<!-- tcp_redirect_loopback -->
<g id="node27" class="node">
<title>tcp_redirect_loopback</title>
<ellipse fill="none" stroke="black" cx="610.41" cy="-410" rx="68.57" ry="18"/>
<text text-anchor="middle" x="610.41" y="-406.3" font-family="sans" font-size="11.00">tcp_redirect_loopback</text>
</g>
<!-- ip_input_local&#45;&gt;tcp_redirect_loopback -->
<g id="edge33" class="edge">
<title>ip_input_local&#45;&gt;tcp_redirect_loopback</title>
<path fill="none" stroke="black" d="M353.82,-381.86C392.27,-385.54 451.29,-391.33 502.47,-397 513.48,-398.22 525.13,-399.57 536.52,-400.93"/>
<polygon fill="black" stroke="black" points="535.95,-404.39 546.29,-402.1 536.78,-397.44 535.95,-404.39"/>
</g>
<!-- udp_redirect_loopback -->
<g id="node28" class="node">
<title>udp_redirect_loopback</title>
<ellipse fill="none" stroke="black" cx="610.41" cy="-356" rx="70.26" ry="18"/>
<text text-anchor="middle" x="610.41" y="-352.3" font-family="sans" font-size="11.00">udp_redirect_loopback</text>
</g>
<!-- ip_input_local&#45;&gt;udp_redirect_loopback -->
<g id="edge34" class="edge">
<title>ip_input_local&#45;&gt;udp_redirect_loopback</title>
<path fill="none" stroke="black" d="M351.99,-371.35C369.44,-368.64 390.25,-365.74 409.11,-364 448.37,-360.38 492.11,-358.39 528.67,-357.31"/>
<polygon fill="black" stroke="black" points="528.36,-360.82 538.26,-357.04 528.17,-353.82 528.36,-360.82"/>
</g>
<!-- sctp_redirect_loopback -->
<g id="node29" class="node">
<title>sctp_redirect_loopback</title>
<ellipse fill="none" stroke="black" cx="610.41" cy="-302" rx="71.94" ry="18"/>
<text text-anchor="middle" x="610.41" y="-298.3" font-family="sans" font-size="11.00">sctp_redirect_loopback</text>
</g>
<!-- ip_input_local&#45;&gt;sctp_redirect_loopback -->
<g id="edge35" class="edge">
<title>ip_input_local&#45;&gt;sctp_redirect_loopback</title>
<path fill="none" stroke="black" d="M349.08,-368.68C398.61,-355.99 487.96,-333.11 547.98,-317.74"/>
<polygon fill="black" stroke="black" points="548.54,-321.2 557.36,-315.33 546.8,-314.42 548.54,-321.2"/>
</g>
<!-- ip6_input_local&#45;&gt;tcp_redirect_loopback -->
<g id="edge48" class="edge">
<title>ip6_input_local&#45;&gt;tcp_redirect_loopback</title>
<path fill="none" stroke="black" d="M464.03,-274.17C475.76,-301.43 501.41,-352.95 538.47,-383 542.6,-386.35 547.19,-389.32 552,-391.94"/>
<polygon fill="black" stroke="black" points="550.2,-394.95 560.72,-396.17 553.26,-388.66 550.2,-394.95"/>
</g>
<!-- ip6_input_local&#45;&gt;udp_redirect_loopback -->
<g id="edge49" class="edge">
<title>ip6_input_local&#45;&gt;udp_redirect_loopback</title>
<path fill="none" stroke="black" d="M472.25,-273.04C487.7,-289.24 512.8,-313.38 538.47,-329 543.6,-332.12 549.16,-334.99 554.83,-337.6"/>
<polygon fill="black" stroke="black" points="553.12,-340.67 563.69,-341.4 555.88,-334.24 553.12,-340.67"/>
</g>
<!-- ip6_input_local&#45;&gt;sctp_redirect_loopback -->
<g id="edge50" class="edge">
<title>ip6_input_local&#45;&gt;sctp_redirect_loopback</title>
<path fill="none" stroke="black" d="M493.35,-267.02C510.9,-272.31 532.35,-278.77 552.01,-284.7"/>
<polygon fill="black" stroke="black" points="550.98,-288.05 561.57,-287.58 553,-281.34 550.98,-288.05"/>
</g>
<!-- icmp6_input -->
<g id="node31" class="node">
<title>icmp6_input</title>
<ellipse fill="none" stroke="black" cx="610.41" cy="-206" rx="38.68" ry="18"/>
<text text-anchor="middle" x="610.41" y="-202.3" font-family="sans" font-size="11.00">icmp6_input</text>
</g>
<!-- ip6_input_local&#45;&gt;icmp6_input -->
<g id="edge47" class="edge">
<title>ip6_input_local&#45;&gt;icmp6_input</title>
<path fill="none" stroke="black" d="M492.19,-244.4C514.61,-237.06 543.73,-227.52 567.34,-219.78"/>
<polygon fill="black" stroke="black" points="568.24,-223.17 576.65,-216.73 566.06,-216.52 568.24,-223.17"/>
</g>
<!-- ip6_output&#45;&gt;eth_output -->
<g id="edge51" class="edge">
<title>ip6_output&#45;&gt;eth_output</title>
<path fill="none" stroke="black" d="M945.07,-242.36C967.98,-255.82 1003.56,-276.72 1029.44,-291.93"/>
<polygon fill="black" stroke="black" points="1027.48,-294.83 1037.87,-296.88 1031.02,-288.8 1027.48,-294.83"/>
</g>
<!-- ip6_output&#45;&gt;loopback_output -->
<g id="edge52" class="edge">
<title>ip6_output&#45;&gt;loopback_output</title>
<path fill="none" stroke="black" d="M934.72,-245.95C959,-279.18 1013.04,-353.13 1042.25,-393.11"/>
<polygon fill="black" stroke="black" points="1039.32,-395.03 1048.04,-401.04 1044.97,-390.9 1039.32,-395.03"/>
</g>
<!-- loopback_output&#45;&gt;control_output -->
<g id="edge14" class="edge">
<title>loopback_output&#45;&gt;control_output</title>
<path fill="none" stroke="black" d="M1080.94,-437.24C1104.01,-460.59 1145.32,-502.4 1171.74,-529.13"/>
<polygon fill="black" stroke="black" points="1169.17,-531.51 1178.69,-536.17 1174.15,-526.59 1169.17,-531.51"/>
</g>
<!-- port_rx -->
<g id="node18" class="node">
<title>port_rx</title>
<ellipse fill="none" stroke="blue" stroke-width="2" cx="41.62" cy="-508" rx="27" ry="18"/>
<text text-anchor="middle" x="41.62" y="-504.3" font-family="sans" font-size="11.00">port_rx</text>
</g>
<!-- port_rx&#45;&gt;eth_input -->
<g id="edge15" class="edge">
<title>port_rx&#45;&gt;eth_input</title>
<path fill="none" stroke="blue" stroke-width="2" d="M69.04,-508C85.35,-508 106.61,-508 125.04,-508"/>
<polygon fill="blue" stroke="blue" stroke-width="2" points="123.34,-511.5 133.34,-508 123.34,-504.5 123.34,-511.5"/>
</g>
<!-- arp_input_request&#45;&gt;control_output -->
<g id="edge19" class="edge">
<title>arp_input_request&#45;&gt;control_output</title>
<path fill="none" stroke="black" d="M831.81,-686.4C901.69,-687.15 1023.46,-680.8 1115.05,-635 1140.24,-622.41 1162.38,-599.02 1177.17,-580.61"/>
<polygon fill="black" stroke="black" points="1179.93,-582.76 1183.28,-572.71 1174.39,-578.47 1179.93,-582.76"/>
</g>
<!-- arp_output_reply -->
<g id="node21" class="node">
<title>arp_output_reply</title>
<ellipse fill="none" stroke="black" cx="921.34" cy="-424" rx="53.41" ry="18"/>
<text text-anchor="middle" x="921.34" y="-420.3" font-family="sans" font-size="11.00">arp_output_reply</text>
</g>
<!-- arp_input_request&#45;&gt;arp_output_reply -->
<g id="edge20" class="edge">
<title>arp_input_request&#45;&gt;arp_output_reply</title>
<path fill="none" stroke="black" d="M786.05,-666.13C810.75,-621.6 875.17,-505.44 904.89,-451.84"/>
<polygon fill="black" stroke="black" points="907.83,-453.76 909.62,-443.32 901.71,-450.37 907.83,-453.76"/>
</g>
<!-- arp_input_reply&#45;&gt;control_output -->
<g id="edge18" class="edge">
<title>arp_input_reply&#45;&gt;control_output</title>
<path fill="none" stroke="black" d="M970.36,-722.53C1012.02,-720.75 1072.21,-712.57 1115.05,-683 1150.78,-658.33 1174.09,-612.31 1186.22,-582.43"/>
<polygon fill="black" stroke="black" points="1189.42,-583.84 1189.78,-573.26 1182.9,-581.31 1189.42,-583.84"/>
</g>
<!-- arp_output_reply&#45;&gt;eth_output -->
<g id="edge21" class="edge">
<title>arp_output_reply&#45;&gt;eth_output</title>
<path fill="none" stroke="black" d="M942.93,-407.33C967.08,-387.78 1007.21,-355.28 1034.1,-333.51"/>
<polygon fill="black" stroke="black" points="1036.27,-336.26 1041.84,-327.24 1031.86,-330.82 1036.27,-336.26"/>
</g>
<!-- icmp_input&#45;&gt;control_output -->
<g id="edge24" class="edge">
<title>icmp_input&#45;&gt;control_output</title>
<path fill="none" stroke="black" d="M489.26,-548.1C585.5,-531.59 877.38,-488.55 1115.05,-527 1128.1,-529.11 1141.9,-533.02 1154.34,-537.21"/>
<polygon fill="black" stroke="black" points="1152.85,-540.4 1163.44,-540.43 1155.18,-533.8 1152.85,-540.4"/>
</g>
<!-- icmp_input&#45;&gt;icmp_output -->
<g id="edge23" class="edge">
<title>icmp_input&#45;&gt;icmp_output</title>
<path fill="none" stroke="black" d="M479.31,-567.57C504.75,-582.91 546.42,-608.03 575.73,-625.7"/>
<polygon fill="black" stroke="black" points="573.87,-628.66 584.24,-630.83 577.49,-622.67 573.87,-628.66"/>
</g>
<!-- icmp_output&#45;&gt;ip_output -->
<g id="edge26" class="edge">
<title>icmp_output&#45;&gt;ip_output</title>
<path fill="none" stroke="black" d="M648.5,-640.77C692.33,-634.55 767.48,-623.78 831.92,-614 847.84,-611.58 865.35,-608.83 880.56,-606.41"/>
<polygon fill="black" stroke="black" points="880.86,-609.91 890.19,-604.87 879.76,-602.99 880.86,-609.91"/>
</g>
<!-- ip_forward&#45;&gt;ip_output -->
<g id="edge27" class="edge">
<title>ip_forward&#45;&gt;ip_output</title>
<path fill="none" stroke="black" d="M804.63,-563.09C827.26,-570.31 859.08,-580.46 883.62,-588.29"/>
<polygon fill="black" stroke="black" points="882.3,-591.54 892.89,-591.24 884.42,-584.87 882.3,-591.54"/>
</g>
<!-- ip_hold&#45;&gt;control_output -->
<g id="edge28" class="edge">
<title>ip_hold&#45;&gt;control_output</title>
<path fill="none" stroke="black" d="M1090.38,-554C1104.49,-554 1122.43,-554 1139.51,-554"/>
<polygon fill="black" stroke="black" points="1139.06,-557.5 1149.06,-554 1139.06,-550.5 1139.06,-557.5"/>
</g>
<!-- ipip_input&#45;&gt;ip_input -->
<g id="edge56" class="edge">
<title>ipip_input&#45;&gt;ip_input</title>
<path fill="none" stroke="black" d="M484.78,-431.34C509.93,-437.93 546.98,-447.64 574.14,-454.76"/>
<polygon fill="black" stroke="black" points="573.09,-458.1 583.65,-457.25 574.87,-451.33 573.09,-458.1"/>
</g>
<!-- tcp_redirect_loopback&#45;&gt;loopback_output -->
<g id="edge58" class="edge">
<title>tcp_redirect_loopback&#45;&gt;loopback_output</title>
<path fill="none" stroke="black" d="M657.25,-423.45C726.4,-441.87 861.37,-470.56 974.75,-451 989.61,-448.44 1005.29,-443.58 1019.2,-438.46"/>
<polygon fill="black" stroke="black" points="1020.43,-441.74 1028.5,-434.88 1017.91,-435.21 1020.43,-441.74"/>
</g>
<!-- udp_redirect_loopback&#45;&gt;loopback_output -->
<g id="edge59" class="edge">
<title>udp_redirect_loopback&#45;&gt;loopback_output</title>
<path fill="none" stroke="black" d="M678.81,-360.65C752.09,-366.39 872.42,-377.83 974.75,-397 986.88,-399.27 999.81,-402.33 1011.89,-405.47"/>
<polygon fill="black" stroke="black" points="1010.67,-408.76 1021.24,-407.96 1012.48,-402 1010.67,-408.76"/>
</g>
<!-- sctp_redirect_loopback&#45;&gt;loopback_output -->
<g id="edge60" class="edge">
<title>sctp_redirect_loopback&#45;&gt;loopback_output</title>
<path fill="none" stroke="black" d="M675.8,-309.83C749.52,-319.99 873.19,-340.73 974.75,-376 992.05,-382.01 1010.28,-390.78 1025.56,-398.92"/>
<polygon fill="black" stroke="black" points="1023.84,-401.97 1034.3,-403.69 1027.19,-395.82 1023.84,-401.97"/>
</g>
<!-- ipip_output&#45;&gt;ip_output -->
<g id="edge57" class="edge">
<title>ipip_output&#45;&gt;ip_output</title>
<path fill="none" stroke="black" d="M1027.55,-611.94C1007.37,-611.83 981.81,-610.44 960.94,-608.32"/>
<polygon fill="black" stroke="black" points="961.41,-604.86 951.08,-607.21 960.62,-611.81 961.41,-604.86"/>
</g>
<!-- icmp6_output -->
<g id="node32" class="node">
<title>icmp6_output</title>
<ellipse fill="none" stroke="black" cx="775.14" cy="-202" rx="43.31" ry="18"/>
<text text-anchor="middle" x="775.14" y="-198.3" font-family="sans" font-size="11.00">icmp6_output</text>
</g>
<!-- icmp6_input&#45;&gt;icmp6_output -->
<g id="edge40" class="edge">
<title>icmp6_input&#45;&gt;icmp6_output</title>
<path fill="none" stroke="black" d="M649.15,-205.07C670.2,-204.55 696.77,-203.9 719.99,-203.33"/>
<polygon fill="black" stroke="black" points="720.01,-206.83 729.92,-203.09 719.84,-199.83 720.01,-206.83"/>
</g>
<!-- ndp_ns_input -->
<g id="node33" class="node">
<title>ndp_ns_input</title>
<ellipse fill="none" stroke="black" cx="775.14" cy="-148" rx="41.62" ry="18"/>
<text text-anchor="middle" x="775.14" y="-144.3" font-family="sans" font-size="11.00">ndp_ns_input</text>
</g>
<!-- icmp6_input&#45;&gt;ndp_ns_input -->
<g id="edge41" class="edge">
<title>icmp6_input&#45;&gt;ndp_ns_input</title>
<path fill="none" stroke="black" d="M642.02,-195.09C667.3,-186.08 703.46,-173.19 731.56,-163.18"/>
<polygon fill="black" stroke="black" points="732.61,-166.52 740.85,-159.86 730.26,-159.92 732.61,-166.52"/>
</g>
<!-- ndp_na_input -->
<g id="node34" class="node">
<title>ndp_na_input</title>
<ellipse fill="none" stroke="black" cx="775.14" cy="-256" rx="42.04" ry="18"/>
<text text-anchor="middle" x="775.14" y="-252.3" font-family="sans" font-size="11.00">ndp_na_input</text>
</g>
<!-- icmp6_input&#45;&gt;ndp_na_input -->
<g id="edge42" class="edge">
<title>icmp6_input&#45;&gt;ndp_na_input</title>
<path fill="none" stroke="black" d="M643.17,-215.76C667.72,-223.3 702.02,-233.84 729.35,-242.24"/>
<polygon fill="black" stroke="black" points="728.18,-245.54 738.77,-245.13 730.23,-238.85 728.18,-245.54"/>
</g>
<!-- icmp6_output&#45;&gt;ip6_output -->
<g id="edge43" class="edge">
<title>icmp6_output&#45;&gt;ip6_output</title>
<path fill="none" stroke="black" d="M815.16,-209.31C834.54,-212.94 858,-217.33 877.84,-221.04"/>
<polygon fill="black" stroke="black" points="877.08,-224.46 887.55,-222.86 878.37,-217.58 877.08,-224.46"/>
</g>
<!-- ndp_ns_input&#45;&gt;ip6_output -->
<g id="edge54" class="edge">
<title>ndp_ns_input&#45;&gt;ip6_output</title>
<path fill="none" stroke="black" d="M804.5,-161.07C813.37,-165.33 823.14,-170.21 831.92,-175 851.45,-185.66 872.76,-198.63 889.56,-209.18"/>
<polygon fill="black" stroke="black" points="887.28,-211.89 897.6,-214.28 891.02,-205.97 887.28,-211.89"/>
</g>
<!-- ndp_na_input&#45;&gt;ip6_output -->
<g id="edge53" class="edge">
<title>ndp_na_input&#45;&gt;ip6_output</title>
<path fill="none" stroke="black" d="M814.02,-248.91C833.65,-245.23 857.67,-240.73 877.91,-236.94"/>
<polygon fill="black" stroke="black" points="878.35,-240.42 887.54,-235.14 877.06,-233.54 878.35,-240.42"/>
</g>
<!-- ip6_forward&#45;&gt;ip6_output -->
<g id="edge44" class="edge">
<title>ip6_forward&#45;&gt;ip6_output</title>
<path fill="none" stroke="black" d="M485.29,-213.55C500.88,-219.68 520.6,-227.14 538.47,-233 558.18,-239.47 697.8,-280.2 718.35,-283 768.37,-289.82 783.33,-296.66 831.92,-283 854.21,-276.73 876.44,-263.11 893.03,-251.12"/>
<polygon fill="black" stroke="black" points="895,-254.02 900.9,-245.22 890.8,-248.42 895,-254.02"/>
</g>
</g>
</svg>
