<?xml version="1.0" encoding="UTF-8" standalone="no"?>
<!DOCTYPE svg PUBLIC "-//W3C//DTD SVG 1.1//EN"
 "http://www.w3.org/Graphics/SVG/1.1/DTD/svg11.dtd">
<!-- Generated by graphviz version 2.44.0 (0)
 -->
<!-- Title: gr&#45;0005 Pages: 1 -->
<svg width="1218pt" height="853pt"
 viewBox="0.00 0.00 1217.54 853.00" xmlns="http://www.w3.org/2000/svg" xmlns:xlink="http://www.w3.org/1999/xlink">
<g id="graph0" class="graph" transform="scale(1 1) rotate(0) translate(4 849)">
<title>gr&#45;0005</title>
<polygon fill="white" stroke="transparent" points="-4,4 -4,-849 1213.54,-849 1213.54,4 -4,4"/>
<!-- control_input -->
<g id="node1" class="node">
<title>control_input</title>
<ellipse fill="none" stroke="blue" stroke-width="2" cx="40.16" cy="-588" rx="40.32" ry="18"/>
<text text-anchor="middle" x="40.16" y="-585.2" font-family="sans" font-size="11.00">control_input</text>
</g>
<!-- loopback_input -->
<g id="node2" class="node">
<title>loopback_input</title>
<ellipse fill="none" stroke="black" cx="161.91" cy="-511" rx="45.68" ry="18"/>
<text text-anchor="middle" x="161.91" y="-508.2" font-family="sans" font-size="11.00">loopback_input</text>
</g>
<!-- control_input&#45;&gt;loopback_input -->
<g id="edge1" class="edge">
<title>control_input&#45;&gt;loopback_input</title>
<path fill="none" stroke="blue" stroke-width="2" d="M63.97,-573.34C82.17,-561.63 107.92,-545.07 128.3,-531.97"/>
<polygon fill="blue" stroke="blue" stroke-width="2" points="130.44,-534.75 136.96,-526.4 126.65,-528.87 130.44,-534.75"/>
</g>
<!-- arp_output_request -->
<g id="node3" class="node">
<title>arp_output_request</title>
<ellipse fill="none" stroke="black" cx="302.66" cy="-827" rx="59.31" ry="18"/>
<text text-anchor="middle" x="302.66" y="-824.2" font-family="sans" font-size="11.00">arp_output_request</text>
</g>
<!-- control_input&#45;&gt;arp_output_request -->
<g id="edge2" class="edge">
<title>control_input&#45;&gt;arp_output_request</title>
<path fill="none" stroke="blue" stroke-width="2" d="M41.94,-606.03C44.73,-646.7 57.53,-745.81 116.32,-795 148.85,-822.22 196.08,-830.05 234.72,-831.17"/>
<polygon fill="blue" stroke="blue" stroke-width="2" points="234.81,-834.67 244.86,-831.32 234.91,-827.67 234.81,-834.67"/>
</g>
<!-- icmp_local_send -->
<g id="node4" class="node">
<title>icmp_local_send</title>
<ellipse fill="none" stroke="black" cx="302.66" cy="-735" rx="49.28" ry="18"/>
<text text-anchor="middle" x="302.66" y="-732.2" font-family="sans" font-size="11.00">icmp_local_send</text>
</g>
<!-- control_input&#45;&gt;icmp_local_send -->
<g id="edge3" class="edge">
<title>control_input&#45;&gt;icmp_local_send</title>
<path fill="none" stroke="blue" stroke-width="2" d="M65.71,-602.09C103.71,-623.89 179.14,-667.01 243.5,-703 250.57,-706.96 258.15,-711.15 265.41,-715.16"/>
<polygon fill="blue" stroke="blue" stroke-width="2" points="263.95,-718.35 274.39,-720.1 267.32,-712.21 263.95,-718.35"/>
</g>
<!-- ndp_ns_output -->
<g id="node5" class="node">
<title>ndp_ns_output</title>
<ellipse fill="none" stroke="black" cx="161.91" cy="-217" rx="44.51" ry="18"/>
<text text-anchor="middle" x="161.91" y="-214.2" font-family="sans" font-size="11.00">ndp_ns_output</text>
</g>
<!-- control_input&#45;&gt;ndp_ns_output -->
<g id="edge4" class="edge">
<title>control_input&#45;&gt;ndp_ns_output</title>
<path fill="none" stroke="blue" stroke-width="2" d="M40.82,-569.72C40.66,-515.86 46.44,-354.92 116.32,-249 119.06,-244.84 122.54,-241.05 126.35,-237.65"/>
<polygon fill="blue" stroke="blue" stroke-width="2" points="128.81,-240.17 134.47,-231.21 124.46,-234.68 128.81,-240.17"/>
</g>
<!-- ip_output -->
<g id="node6" class="node">
<title>ip_output</title>
<ellipse fill="none" stroke="black" cx="896.03" cy="-689" rx="29.12" ry="18"/>
<text text-anchor="middle" x="896.03" y="-686.2" font-family="sans" font-size="11.00">ip_output</text>
</g>
<!-- control_input&#45;&gt;ip_output -->
<g id="edge5" class="edge">
<title>control_input&#45;&gt;ip_output</title>
<path fill="none" stroke="blue" stroke-width="2" d="M52.62,-605.47C85.31,-652.98 184.3,-781 301.66,-781 301.66,-781 301.66,-781 594.37,-781 696.85,-781 810.71,-731.53 864.15,-705.14"/>
<polygon fill="blue" stroke="blue" stroke-width="2" points="865.73,-708.26 873.11,-700.65 862.6,-702 865.73,-708.26"/>
</g>
<!-- ip6_output -->
<g id="node7" class="node">
<title>ip6_output</title>
<ellipse fill="none" stroke="black" cx="896.03" cy="-263" rx="32.63" ry="18"/>
<text text-anchor="middle" x="896.03" y="-260.2" font-family="sans" font-size="11.00">ip6_output</text>
</g>
<!-- control_input&#45;&gt;ip6_output -->
<g id="edge6" class="edge">
<title>control_input&#45;&gt;ip6_output</title>
<path fill="none" stroke="blue" stroke-width="2" d="M45.86,-570.06C64.89,-501.93 142.93,-263 301.66,-263 301.66,-263 301.66,-263 594.37,-263 686.75,-263 795.1,-263 853.18,-263"/>
<polygon fill="blue" stroke="blue" stroke-width="2" points="853.43,-266.5 863.43,-263 853.43,-259.5 853.43,-266.5"/>
</g>
<!-- loopback_input&#45;&gt;ip_output -->
<g id="edge12" class="edge">
<title>loopback_input&#45;&gt;ip_output</title>
<path fill="none" stroke="black" d="M179.57,-527.6C215.61,-562.24 305.05,-641.51 397.81,-672 482.71,-699.9 755.22,-693.8 856.58,-690.44"/>
<polygon fill="black" stroke="black" points="856.81,-693.94 866.68,-690.1 856.57,-686.94 856.81,-693.94"/>
</g>
<!-- loopback_input&#45;&gt;ip6_output -->
<g id="edge14" class="edge">
<title>loopback_input&#45;&gt;ip6_output</title>
<path fill="none" stroke="black" d="M171.17,-493.04C183.65,-467.61 209.51,-420.98 243.5,-392 317.31,-329.07 344.86,-301 441.86,-301 441.86,-301 441.86,-301 594.37,-301 688.48,-301 797.86,-282.45 855.22,-271.27"/>
<polygon fill="black" stroke="black" points="856.18,-274.65 865.31,-269.27 854.83,-267.78 856.18,-274.65"/>
</g>
<!-- ip_input_local -->
<g id="node15" class="node">
<title>ip_input_local</title>
<ellipse fill="none" stroke="black" cx="302.66" cy="-511" rx="41.49" ry="18"/>
<text text-anchor="middle" x="302.66" y="-508.2" font-family="sans" font-size="11.00">ip_input_local</text>
</g>
<!-- loopback_input&#45;&gt;ip_input_local -->
<g id="edge11" class="edge">
<title>loopback_input&#45;&gt;ip_input_local</title>
<path fill="none" stroke="black" d="M207.57,-511C221.47,-511 236.89,-511 251.16,-511"/>
<polygon fill="black" stroke="black" points="251.3,-514.5 261.3,-511 251.3,-507.5 251.3,-514.5"/>
</g>
<!-- ip6_input_local -->
<g id="node16" class="node">
<title>ip6_input_local</title>
<ellipse fill="none" stroke="black" cx="442.86" cy="-347" rx="45.09" ry="18"/>
<text text-anchor="middle" x="442.86" y="-344.2" font-family="sans" font-size="11.00">ip6_input_local</text>
</g>
<!-- loopback_input&#45;&gt;ip6_input_local -->
<g id="edge13" class="edge">
<title>loopback_input&#45;&gt;ip6_input_local</title>
<path fill="none" stroke="black" d="M188.16,-496.16C238.34,-466.65 350.67,-400.61 407.51,-367.19"/>
<polygon fill="black" stroke="black" points="409.62,-370.01 416.47,-361.93 406.07,-363.98 409.62,-370.01"/>
</g>
<!-- eth_output -->
<g id="node13" class="node">
<title>eth_output</title>
<ellipse fill="none" stroke="black" cx="1034.06" cy="-686" rx="33.8" ry="18"/>
<text text-anchor="middle" x="1034.06" y="-683.2" font-family="sans" font-size="11.00">eth_output</text>
</g>
<!-- arp_output_request&#45;&gt;eth_output -->
<g id="edge23" class="edge">
<title>arp_output_request&#45;&gt;eth_output</title>
<path fill="none" stroke="black" d="M361.72,-825.72C420.02,-824.55 512.42,-823 592.37,-823 592.37,-823 592.37,-823 754.66,-823 768.09,-823 929.73,-739.77 1000.37,-703.05"/>
<polygon fill="black" stroke="black" points="1002.06,-706.12 1009.31,-698.4 998.83,-699.91 1002.06,-706.12"/>
</g>
<!-- icmp_output -->
<g id="node23" class="node">
<title>icmp_output</title>
<ellipse fill="none" stroke="black" cx="593.37" cy="-735" rx="37.98" ry="18"/>
<text text-anchor="middle" x="593.37" y="-732.2" font-family="sans" font-size="11.00">icmp_output</text>
</g>
<!-- icmp_local_send&#45;&gt;icmp_output -->
<g id="edge26" class="edge">
<title>icmp_local_send&#45;&gt;icmp_output</title>
<path fill="none" stroke="black" d="M352.31,-735C405.94,-735 491.66,-735 544.84,-735"/>
<polygon fill="black" stroke="black" points="545.03,-738.5 555.03,-735 545.03,-731.5 545.03,-738.5"/>
</g>
<!-- ndp_ns_output&#45;&gt;ip6_output -->
<g id="edge59" class="edge">
<title>ndp_ns_output&#45;&gt;ip6_output</title>
<path fill="none" stroke="black" d="M206.39,-219.02C261.25,-221.39 358.53,-225 441.86,-225 441.86,-225 441.86,-225 594.37,-225 688.48,-225 797.86,-243.55 855.22,-254.73"/>
<polygon fill="black" stroke="black" points="854.83,-258.22 865.31,-256.73 856.18,-251.35 854.83,-258.22"/>
</g>
<!-- ip_output&#45;&gt;eth_output -->
<g id="edge37" class="edge">
<title>ip_output&#45;&gt;eth_output</title>
<path fill="none" stroke="black" d="M925.55,-688.37C944.29,-687.96 969.16,-687.41 990.27,-686.94"/>
<polygon fill="black" stroke="black" points="990.36,-690.44 1000.28,-686.72 990.2,-683.44 990.36,-690.44"/>
</g>
<!-- loopback_output -->
<g id="node17" class="node">
<title>loopback_output</title>
<ellipse fill="none" stroke="black" cx="1034.06" cy="-439" rx="50.45" ry="18"/>
<text text-anchor="middle" x="1034.06" y="-436.2" font-family="sans" font-size="11.00">loopback_output</text>
</g>
<!-- ip_output&#45;&gt;loopback_output -->
<g id="edge39" class="edge">
<title>ip_output&#45;&gt;loopback_output</title>
<path fill="none" stroke="black" d="M906.38,-671.82C929.72,-628.93 990.66,-516.92 1018.64,-465.5"/>
<polygon fill="black" stroke="black" points="1021.76,-467.09 1023.46,-456.64 1015.61,-463.75 1021.76,-467.09"/>
</g>
<!-- ip_hold -->
<g id="node25" class="node">
<title>ip_hold</title>
<ellipse fill="none" stroke="black" cx="1034.06" cy="-632" rx="27" ry="18"/>
<text text-anchor="middle" x="1034.06" y="-629.2" font-family="sans" font-size="11.00">ip_hold</text>
</g>
<!-- ip_output&#45;&gt;ip_hold -->
<g id="edge38" class="edge">
<title>ip_output&#45;&gt;ip_hold</title>
<path fill="none" stroke="black" d="M920.72,-679.07C943.03,-669.72 976.61,-655.65 1001.25,-645.33"/>
<polygon fill="black" stroke="black" points="1002.67,-648.53 1010.54,-641.44 999.96,-642.07 1002.67,-648.53"/>
</g>
<!-- ipip_output -->
<g id="node30" class="node">
<title>ipip_output</title>
<ellipse fill="none" stroke="black" cx="1034.06" cy="-740" rx="34.38" ry="18"/>
<text text-anchor="middle" x="1034.06" y="-737.2" font-family="sans" font-size="11.00">ipip_output</text>
</g>
<!-- ip_output&#45;&gt;ipip_output -->
<g id="edge40" class="edge">
<title>ip_output&#45;&gt;ipip_output</title>
<path fill="none" stroke="black" d="M924.56,-693.77C946.84,-700.61 978.23,-712.3 1001.52,-722.38"/>
<polygon fill="black" stroke="black" points="1000.4,-725.71 1010.96,-726.58 1003.25,-719.31 1000.4,-725.71"/>
</g>
<!-- ip6_output&#45;&gt;eth_output -->
<g id="edge53" class="edge">
<title>ip6_output&#45;&gt;eth_output</title>
<path fill="none" stroke="black" d="M904.17,-280.58C915.09,-308.14 935.9,-363.4 947.59,-412 973.52,-519.86 920.22,-567.94 983.59,-659 986.99,-663.89 991.57,-667.98 996.58,-671.37"/>
<polygon fill="black" stroke="black" points="994.87,-674.43 1005.27,-676.45 998.4,-668.38 994.87,-674.43"/>
</g>
<!-- ip6_output&#45;&gt;loopback_output -->
<g id="edge55" class="edge">
<title>ip6_output&#45;&gt;loopback_output</title>
<path fill="none" stroke="black" d="M909.83,-279.56C933.64,-310.37 984.93,-376.72 1013.25,-413.37"/>
<polygon fill="black" stroke="black" points="1010.71,-415.81 1019.6,-421.58 1016.25,-411.53 1010.71,-415.81"/>
</g>
<!-- ip6_hold -->
<g id="node36" class="node">
<title>ip6_hold</title>
<ellipse fill="none" stroke="black" cx="1034.06" cy="-282" rx="27" ry="18"/>
<text text-anchor="middle" x="1034.06" y="-279.2" font-family="sans" font-size="11.00">ip6_hold</text>
</g>
<!-- ip6_output&#45;&gt;ip6_hold -->
<g id="edge54" class="edge">
<title>ip6_output&#45;&gt;ip6_hold</title>
<path fill="none" stroke="black" d="M927.9,-267.31C948.51,-270.19 975.69,-273.99 997.25,-277"/>
<polygon fill="black" stroke="black" points="996.95,-280.49 1007.34,-278.41 997.92,-273.56 996.95,-280.49"/>
</g>
<!-- control_output -->
<g id="node8" class="node">
<title>control_output</title>
<ellipse fill="none" stroke="black" cx="1165.04" cy="-296" rx="44.51" ry="18"/>
<text text-anchor="middle" x="1165.04" y="-293.2" font-family="sans" font-size="11.00">control_output</text>
</g>
<!-- eth_input -->
<g id="node9" class="node">
<title>eth_input</title>
<ellipse fill="none" stroke="black" cx="161.91" cy="-141" rx="29.12" ry="18"/>
<text text-anchor="middle" x="161.91" y="-138.2" font-family="sans" font-size="11.00">eth_input</text>
</g>
<!-- arp_input -->
<g id="node10" class="node">
<title>arp_input</title>
<ellipse fill="none" stroke="black" cx="593.37" cy="-87" rx="29.12" ry="18"/>
<text text-anchor="middle" x="593.37" y="-84.2" font-family="sans" font-size="11.00">arp_input</text>
</g>
<!-- eth_input&#45;&gt;arp_input -->
<g id="edge7" class="edge">
<title>eth_input&#45;&gt;arp_input</title>
<path fill="none" stroke="black" d="M186.82,-131.26C202.63,-125.25 223.98,-117.96 243.5,-114 354.6,-91.45 489.11,-87.43 553.86,-86.91"/>
<polygon fill="black" stroke="black" points="554.03,-90.4 564.01,-86.85 553.99,-83.4 554.03,-90.4"/>
</g>
<!-- ip_input -->
<g id="node11" class="node">
<title>ip_input</title>
<ellipse fill="none" stroke="black" cx="593.37" cy="-540" rx="27" ry="18"/>
<text text-anchor="middle" x="593.37" y="-537.2" font-family="sans" font-size="11.00">ip_input</text>
</g>
<!-- eth_input&#45;&gt;ip_input -->
<g id="edge8" class="edge">
<title>eth_input&#45;&gt;ip_input</title>
<path fill="none" stroke="black" d="M177.29,-156.51C239.27,-223.26 482.37,-483.97 523.9,-512 534.55,-519.18 547.33,-525.03 558.94,-529.48"/>
<polygon fill="black" stroke="black" points="557.76,-532.78 568.36,-532.9 560.15,-526.2 557.76,-532.78"/>
</g>
<!-- ip6_input -->
<g id="node12" class="node">
<title>ip6_input</title>
<ellipse fill="none" stroke="black" cx="302.66" cy="-141" rx="28.44" ry="18"/>
<text text-anchor="middle" x="302.66" y="-138.2" font-family="sans" font-size="11.00">ip6_input</text>
</g>
<!-- eth_input&#45;&gt;ip6_input -->
<g id="edge9" class="edge">
<title>eth_input&#45;&gt;ip6_input</title>
<path fill="none" stroke="black" d="M191.32,-141C212.36,-141 241.23,-141 264.16,-141"/>
<polygon fill="black" stroke="black" points="264.23,-144.5 274.23,-141 264.23,-137.5 264.23,-144.5"/>
</g>
<!-- arp_input_request -->
<g id="node19" class="node">
<title>arp_input_request</title>
<ellipse fill="none" stroke="black" cx="753.66" cy="-347" rx="54.63" ry="18"/>
<text text-anchor="middle" x="753.66" y="-344.2" font-family="sans" font-size="11.00">arp_input_request</text>
</g>
<!-- arp_input&#45;&gt;arp_input_request -->
<g id="edge17" class="edge">
<title>arp_input&#45;&gt;arp_input_request</title>
<path fill="none" stroke="black" d="M621.65,-92.26C635.53,-96.18 651.77,-102.84 662.84,-114 692.68,-144.07 729.29,-263.99 744.96,-319.07"/>
<polygon fill="black" stroke="black" points="741.64,-320.2 747.72,-328.87 748.37,-318.3 741.64,-320.2"/>
</g>
<!-- arp_input_reply -->
<g id="node20" class="node">
<title>arp_input_reply</title>
<ellipse fill="none" stroke="black" cx="896.03" cy="-18" rx="47.43" ry="18"/>
<text text-anchor="middle" x="896.03" y="-15.2" font-family="sans" font-size="11.00">arp_input_reply</text>
</g>
<!-- arp_input&#45;&gt;arp_input_reply -->
<g id="edge18" class="edge">
<title>arp_input&#45;&gt;arp_input_reply</title>
<path fill="none" stroke="black" d="M616.13,-75.45C636.82,-65 669.1,-50.05 698.84,-42 745,-29.51 799.05,-23.51 838.71,-20.63"/>
<polygon fill="black" stroke="black" points="838.99,-24.12 848.73,-19.95 838.52,-17.13 838.99,-24.12"/>
</g>
<!-- ip_input&#45;&gt;ip_input_local -->
<g id="edge31" class="edge">
<title>ip_input&#45;&gt;ip_input_local</title>
<path fill="none" stroke="black" d="M571.81,-551.09C535.88,-568.97 459.59,-600.21 397.81,-580 370.59,-571.09 344.72,-550.98 327.01,-534.76"/>
<polygon fill="black" stroke="black" points="329.15,-531.96 319.48,-527.64 324.34,-537.05 329.15,-531.96"/>
</g>
<!-- ip_forward -->
<g id="node24" class="node">
<title>ip_forward</title>
<ellipse fill="none" stroke="black" cx="753.66" cy="-638" rx="32.63" ry="18"/>
<text text-anchor="middle" x="753.66" y="-635.2" font-family="sans" font-size="11.00">ip_forward</text>
</g>
<!-- ip_input&#45;&gt;ip_forward -->
<g id="edge30" class="edge">
<title>ip_input&#45;&gt;ip_forward</title>
<path fill="none" stroke="black" d="M613.78,-552.02C641.02,-568.88 690.83,-599.72 722.81,-619.52"/>
<polygon fill="black" stroke="black" points="720.97,-622.5 731.32,-624.79 724.66,-616.55 720.97,-622.5"/>
</g>
<!-- ip6_input&#45;&gt;ip6_input_local -->
<g id="edge48" class="edge">
<title>ip6_input&#45;&gt;ip6_input_local</title>
<path fill="none" stroke="black" d="M327.48,-149.93C339.02,-155.21 352.39,-162.88 361.81,-173 401.6,-215.76 424.48,-281.76 434.91,-318.98"/>
<polygon fill="black" stroke="black" points="431.66,-320.36 437.64,-329.11 438.42,-318.54 431.66,-320.36"/>
</g>
<!-- ip6_forward -->
<g id="node35" class="node">
<title>ip6_forward</title>
<ellipse fill="none" stroke="black" cx="442.86" cy="-160" rx="35.64" ry="18"/>
<text text-anchor="middle" x="442.86" y="-157.2" font-family="sans" font-size="11.00">ip6_forward</text>
</g>
<!-- ip6_input&#45;&gt;ip6_forward -->
<g id="edge47" class="edge">
<title>ip6_input&#45;&gt;ip6_forward</title>
<path fill="none" stroke="black" d="M330.3,-144.66C349.55,-147.31 375.98,-150.94 398.28,-154.01"/>
<polygon fill="black" stroke="black" points="397.81,-157.48 408.19,-155.37 398.76,-150.54 397.81,-157.48"/>
</g>
<!-- port_tx -->
<g id="node14" class="node">
<title>port_tx</title>
<ellipse fill="none" stroke="black" cx="1165.04" cy="-686" rx="27" ry="18"/>
<text text-anchor="middle" x="1165.04" y="-683.2" font-family="sans" font-size="11.00">port_tx</text>
</g>
<!-- eth_output&#45;&gt;port_tx -->
<g id="edge10" class="edge">
<title>eth_output&#45;&gt;port_tx</title>
<path fill="none" stroke="black" d="M1067.94,-686C1086.12,-686 1108.75,-686 1127.48,-686"/>
<polygon fill="black" stroke="black" points="1127.71,-689.5 1137.71,-686 1127.71,-682.5 1127.71,-689.5"/>
</g>
<!-- icmp_input -->
<g id="node22" class="node">
<title>icmp_input</title>
<ellipse fill="none" stroke="black" cx="442.86" cy="-645" rx="33.8" ry="18"/>
<text text-anchor="middle" x="442.86" y="-642.2" font-family="sans" font-size="11.00">icmp_input</text>
</g>
<!-- ip_input_local&#45;&gt;icmp_input -->
<g id="edge32" class="edge">
<title>ip_input_local&#45;&gt;icmp_input</title>
<path fill="none" stroke="black" d="M317.41,-527.84C334.98,-548.88 366.84,-585.46 397.81,-613 402.43,-617.1 407.56,-621.2 412.64,-625.02"/>
<polygon fill="black" stroke="black" points="410.9,-628.08 421.04,-631.15 415.02,-622.43 410.9,-628.08"/>
</g>
<!-- ipip_input -->
<g id="node26" class="node">
<title>ipip_input</title>
<ellipse fill="none" stroke="black" cx="442.86" cy="-553" rx="29.7" ry="18"/>
<text text-anchor="middle" x="442.86" y="-550.2" font-family="sans" font-size="11.00">ipip_input</text>
</g>
<!-- ip_input_local&#45;&gt;ipip_input -->
<g id="edge33" class="edge">
<title>ip_input_local&#45;&gt;ipip_input</title>
<path fill="none" stroke="black" d="M337.11,-521.17C357.94,-527.5 384.71,-535.63 405.98,-542.1"/>
<polygon fill="black" stroke="black" points="405.04,-545.47 415.62,-545.03 407.07,-538.77 405.04,-545.47"/>
</g>
<!-- tcp_redirect_loopback -->
<g id="node27" class="node">
<title>tcp_redirect_loopback</title>
<ellipse fill="none" stroke="black" cx="593.37" cy="-485" rx="66.42" ry="18"/>
<text text-anchor="middle" x="593.37" y="-482.2" font-family="sans" font-size="11.00">tcp_redirect_loopback</text>
</g>
<!-- ip_input_local&#45;&gt;tcp_redirect_loopback -->
<g id="edge34" class="edge">
<title>ip_input_local&#45;&gt;tcp_redirect_loopback</title>
<path fill="none" stroke="black" d="M343.2,-507.44C388.63,-503.35 464.12,-496.55 520.12,-491.51"/>
<polygon fill="black" stroke="black" points="520.7,-494.97 530.34,-490.59 520.07,-488 520.7,-494.97"/>
</g>
<!-- udp_redirect_loopback -->
<g id="node28" class="node">
<title>udp_redirect_loopback</title>
<ellipse fill="none" stroke="black" cx="593.37" cy="-431" rx="67.68" ry="18"/>
<text text-anchor="middle" x="593.37" y="-428.2" font-family="sans" font-size="11.00">udp_redirect_loopback</text>
</g>
<!-- ip_input_local&#45;&gt;udp_redirect_loopback -->
<g id="edge35" class="edge">
<title>ip_input_local&#45;&gt;udp_redirect_loopback</title>
<path fill="none" stroke="black" d="M337.91,-501.51C386.77,-487.97 477.05,-462.96 535.89,-446.65"/>
<polygon fill="black" stroke="black" points="537.07,-449.96 545.77,-443.91 535.2,-443.21 537.07,-449.96"/>
</g>
<!-- sctp_redirect_loopback -->
<g id="node29" class="node">
<title>sctp_redirect_loopback</title>
<ellipse fill="none" stroke="black" cx="593.37" cy="-377" rx="69.44" ry="18"/>
<text text-anchor="middle" x="593.37" y="-374.2" font-family="sans" font-size="11.00">sctp_redirect_loopback</text>
</g>
<!-- ip_input_local&#45;&gt;sctp_redirect_loopback -->
<g id="edge36" class="edge">
<title>ip_input_local&#45;&gt;sctp_redirect_loopback</title>
<path fill="none" stroke="black" d="M327.66,-496.54C346.46,-485.45 373.42,-470.04 397.81,-458 452.48,-431.01 467.52,-427.18 523.9,-404 530.57,-401.26 537.61,-398.42 544.56,-395.65"/>
<polygon fill="black" stroke="black" points="545.9,-398.88 553.91,-391.94 543.32,-392.38 545.9,-398.88"/>
</g>
<!-- ip6_input_local&#45;&gt;tcp_redirect_loopback -->
<g id="edge50" class="edge">
<title>ip6_input_local&#45;&gt;tcp_redirect_loopback</title>
<path fill="none" stroke="black" d="M452.54,-364.81C465.15,-389.01 490.7,-432.19 523.9,-458 528.49,-461.57 533.61,-464.72 538.93,-467.49"/>
<polygon fill="black" stroke="black" points="537.47,-470.67 548,-471.8 540.47,-464.35 537.47,-470.67"/>
</g>
<!-- ip6_input_local&#45;&gt;udp_redirect_loopback -->
<g id="edge51" class="edge">
<title>ip6_input_local&#45;&gt;udp_redirect_loopback</title>
<path fill="none" stroke="black" d="M463.69,-363.2C479.37,-375.48 502.16,-392.2 523.9,-404 529.58,-407.08 535.68,-410 541.82,-412.69"/>
<polygon fill="black" stroke="black" points="540.87,-416.09 551.44,-416.74 543.58,-409.64 540.87,-416.09"/>
</g>
<!-- ip6_input_local&#45;&gt;sctp_redirect_loopback -->
<g id="edge52" class="edge">
<title>ip6_input_local&#45;&gt;sctp_redirect_loopback</title>
<path fill="none" stroke="black" d="M483.27,-354.96C497.01,-357.74 512.82,-360.93 528.06,-364.01"/>
<polygon fill="black" stroke="black" points="527.47,-367.46 537.96,-366.01 528.85,-360.6 527.47,-367.46"/>
</g>
<!-- icmp6_input -->
<g id="node31" class="node">
<title>icmp6_input</title>
<ellipse fill="none" stroke="black" cx="593.37" cy="-141" rx="37.4" ry="18"/>
<text text-anchor="middle" x="593.37" y="-138.2" font-family="sans" font-size="11.00">icmp6_input</text>
</g>
<!-- ip6_input_local&#45;&gt;icmp6_input -->
<g id="edge49" class="edge">
<title>ip6_input_local&#45;&gt;icmp6_input</title>
<path fill="none" stroke="black" d="M456.27,-329.79C482.48,-293.42 543.62,-208.62 574.23,-166.16"/>
<polygon fill="black" stroke="black" points="577.1,-168.17 580.11,-158.02 571.42,-164.08 577.1,-168.17"/>
</g>
<!-- loopback_output&#45;&gt;control_output -->
<g id="edge15" class="edge">
<title>loopback_output&#45;&gt;control_output</title>
<path fill="none" stroke="black" d="M1050.62,-421.75C1073.4,-396.49 1115.95,-349.32 1141.96,-320.48"/>
<polygon fill="black" stroke="black" points="1144.73,-322.64 1148.82,-312.87 1139.53,-317.95 1144.73,-322.64"/>
</g>
<!-- port_rx -->
<g id="node18" class="node">
<title>port_rx</title>
<ellipse fill="none" stroke="blue" stroke-width="2" cx="40.16" cy="-141" rx="27" ry="18"/>
<text text-anchor="middle" x="40.16" y="-138.2" font-family="sans" font-size="11.00">port_rx</text>
</g>
<!-- port_rx&#45;&gt;eth_input -->
<g id="edge16" class="edge">
<title>port_rx&#45;&gt;eth_input</title>
<path fill="none" stroke="blue" stroke-width="2" d="M67.44,-141C83.56,-141 104.47,-141 122.43,-141"/>
<polygon fill="blue" stroke="blue" stroke-width="2" points="122.6,-144.5 132.6,-141 122.6,-137.5 122.6,-144.5"/>
</g>
<!-- arp_input_request&#45;&gt;control_output -->
<g id="edge20" class="edge">
<title>arp_input_request&#45;&gt;control_output</title>
<path fill="none" stroke="black" d="M806.18,-341.83C871.17,-335.13 986.32,-322.68 1084.53,-309 1093.99,-307.68 1104.06,-306.14 1113.74,-304.59"/>
<polygon fill="black" stroke="black" points="1114.34,-308.04 1123.65,-302.98 1113.22,-301.13 1114.34,-308.04"/>
</g>
<!-- arp_output_reply -->
<g id="node21" class="node">
<title>arp_output_reply</title>
<ellipse fill="none" stroke="black" cx="896.03" cy="-439" rx="51.62" ry="18"/>
<text text-anchor="middle" x="896.03" y="-436.2" font-family="sans" font-size="11.00">arp_output_reply</text>
</g>
<!-- arp_input_request&#45;&gt;arp_output_reply -->
<g id="edge21" class="edge">
<title>arp_input_request&#45;&gt;arp_output_reply</title>
<path fill="none" stroke="black" d="M779.11,-363.03C802.15,-378.13 836.85,-400.87 862.28,-417.54"/>
<polygon fill="black" stroke="black" points="860.58,-420.6 870.86,-423.16 864.41,-414.75 860.58,-420.6"/>
</g>
<!-- arp_input_reply&#45;&gt;control_output -->
<g id="edge19" class="edge">
<title>arp_input_reply&#45;&gt;control_output</title>
<path fill="none" stroke="black" d="M927.07,-31.78C967.23,-51.44 1038.65,-90.89 1084.53,-142 1118.78,-180.15 1142.66,-235.73 1154.8,-268.64"/>
<polygon fill="black" stroke="black" points="1151.51,-269.86 1158.19,-278.09 1158.1,-267.49 1151.51,-269.86"/>
</g>
<!-- arp_output_reply&#45;&gt;eth_output -->
<g id="edge22" class="edge">
<title>arp_output_reply&#45;&gt;eth_output</title>
<path fill="none" stroke="black" d="M899.85,-457.14C906.99,-497.79 929.27,-597.45 983.59,-659 987.53,-663.47 992.39,-667.33 997.51,-670.64"/>
<polygon fill="black" stroke="black" points="995.85,-673.72 1006.27,-675.67 999.34,-667.65 995.85,-673.72"/>
</g>
<!-- icmp_input&#45;&gt;control_output -->
<g id="edge25" class="edge">
<title>icmp_input&#45;&gt;control_output</title>
<path fill="none" stroke="black" d="M472.04,-635.91C525.93,-619.36 647.59,-586 752.66,-586 752.66,-586 752.66,-586 897.03,-586 995.97,-586 1019.33,-540.42 1084.53,-466 1121.96,-423.29 1145.27,-359.93 1156.35,-323.84"/>
<polygon fill="black" stroke="black" points="1159.78,-324.58 1159.27,-314 1153.07,-322.59 1159.78,-324.58"/>
</g>
<!-- icmp_input&#45;&gt;icmp_output -->
<g id="edge24" class="edge">
<title>icmp_input&#45;&gt;icmp_output</title>
<path fill="none" stroke="black" d="M465.77,-658.28C490.67,-673.37 531.55,-698.14 560.1,-715.44"/>
<polygon fill="black" stroke="black" points="558.53,-718.58 568.9,-720.77 562.16,-712.6 558.53,-718.58"/>
</g>
<!-- icmp_output&#45;&gt;ip_output -->
<g id="edge27" class="edge">
<title>icmp_output&#45;&gt;ip_output</title>
<path fill="none" stroke="black" d="M630,-729.81C672.51,-723.58 745.71,-712.77 808.47,-703 824.48,-700.51 842.14,-697.67 857.31,-695.2"/>
<polygon fill="black" stroke="black" points="858.06,-698.63 867.36,-693.56 856.93,-691.72 858.06,-698.63"/>
</g>
<!-- ip_forward&#45;&gt;ip_output -->
<g id="edge28" class="edge">
<title>ip_forward&#45;&gt;ip_output</title>
<path fill="none" stroke="black" d="M781.39,-647.71C803.9,-655.89 836.25,-667.64 860.68,-676.52"/>
<polygon fill="black" stroke="black" points="859.68,-679.88 870.28,-680.01 862.07,-673.3 859.68,-679.88"/>
</g>
<!-- ip_hold&#45;&gt;control_output -->
<g id="edge29" class="edge">
<title>ip_hold&#45;&gt;control_output</title>
<path fill="none" stroke="black" d="M1057.03,-622.38C1066.77,-617.09 1077.58,-609.61 1084.53,-600 1147.16,-513.42 1160.49,-381.36 1163.3,-324.1"/>
<polygon fill="black" stroke="black" points="1166.81,-324.13 1163.73,-314 1159.81,-323.84 1166.81,-324.13"/>
</g>
<!-- ipip_input&#45;&gt;ip_input -->
<g id="edge60" class="edge">
<title>ipip_input&#45;&gt;ip_input</title>
<path fill="none" stroke="black" d="M472.49,-550.49C496.35,-548.41 530.46,-545.42 556.2,-543.17"/>
<polygon fill="black" stroke="black" points="556.66,-546.64 566.31,-542.28 556.04,-539.67 556.66,-546.64"/>
</g>
<!-- tcp_redirect_loopback&#45;&gt;loopback_output -->
<g id="edge62" class="edge">
<title>tcp_redirect_loopback&#45;&gt;loopback_output</title>
<path fill="none" stroke="black" d="M653.21,-492.92C724.16,-500.59 846.49,-507.8 947.59,-483 966.29,-478.41 985.49,-469.03 1000.94,-460.1"/>
<polygon fill="black" stroke="black" points="1002.79,-463.07 1009.58,-454.93 999.2,-457.06 1002.79,-463.07"/>
</g>
<!-- udp_redirect_loopback&#45;&gt;loopback_output -->
<g id="edge63" class="edge">
<title>udp_redirect_loopback&#45;&gt;loopback_output</title>
<path fill="none" stroke="black" d="M642.57,-443.42C710.76,-459.26 839.18,-482.72 947.59,-466 961.56,-463.85 976.38,-459.82 989.68,-455.52"/>
<polygon fill="black" stroke="black" points="991.16,-458.72 999.52,-452.21 988.93,-452.08 991.16,-458.72"/>
</g>
<!-- sctp_redirect_loopback&#45;&gt;loopback_output -->
<g id="edge64" class="edge">
<title>sctp_redirect_loopback&#45;&gt;loopback_output</title>
<path fill="none" stroke="black" d="M662.38,-379.56C733.97,-383.22 849.65,-391.9 947.59,-412 961.07,-414.77 975.44,-418.84 988.48,-423"/>
<polygon fill="black" stroke="black" points="987.55,-426.38 998.15,-426.17 989.73,-419.73 987.55,-426.38"/>
</g>
<!-- ipip_output&#45;&gt;ip_output -->
<g id="edge61" class="edge">
<title>ipip_output&#45;&gt;ip_output</title>
<path fill="none" stroke="black" d="M1001.69,-734.03C979.1,-726.87 948.83,-715.49 926.66,-705.79"/>
<polygon fill="black" stroke="black" points="927.95,-702.54 917.39,-701.62 925.07,-708.92 927.95,-702.54"/>
</g>
<!-- icmp6_output -->
<g id="node32" class="node">
<title>icmp6_output</title>
<ellipse fill="none" stroke="black" cx="753.66" cy="-141" rx="41.58" ry="18"/>
<text text-anchor="middle" x="753.66" y="-138.2" font-family="sans" font-size="11.00">icmp6_output</text>
</g>
<!-- icmp6_input&#45;&gt;icmp6_output -->
<g id="edge41" class="edge">
<title>icmp6_input&#45;&gt;icmp6_output</title>
<path fill="none" stroke="black" d="M631.08,-141C651.99,-141 678.51,-141 701.44,-141"/>
<polygon fill="black" stroke="black" points="701.69,-144.5 711.69,-141 701.69,-137.5 701.69,-144.5"/>
</g>
<!-- ndp_ns_input -->
<g id="node33" class="node">
<title>ndp_ns_input</title>
<ellipse fill="none" stroke="black" cx="753.66" cy="-87" rx="40.32" ry="18"/>
<text text-anchor="middle" x="753.66" y="-84.2" font-family="sans" font-size="11.00">ndp_ns_input</text>
</g>
<!-- icmp6_input&#45;&gt;ndp_ns_input -->
<g id="edge42" class="edge">
<title>icmp6_input&#45;&gt;ndp_ns_input</title>
<path fill="none" stroke="black" d="M624.52,-130.72C649.2,-122.29 684.37,-110.3 711.62,-101"/>
<polygon fill="black" stroke="black" points="712.94,-104.25 721.27,-97.71 710.67,-97.62 712.94,-104.25"/>
</g>
<!-- ndp_na_input -->
<g id="node34" class="node">
<title>ndp_na_input</title>
<ellipse fill="none" stroke="black" cx="896.03" cy="-129" rx="40.91" ry="18"/>
<text text-anchor="middle" x="896.03" y="-126.2" font-family="sans" font-size="11.00">ndp_na_input</text>
</g>
<!-- icmp6_input&#45;&gt;ndp_na_input -->
<g id="edge43" class="edge">
<title>icmp6_input&#45;&gt;ndp_na_input</title>
<path fill="none" stroke="black" d="M626.84,-132.7C639.01,-128.48 652.4,-122.43 662.84,-114 685.28,-95.88 673.41,-73.61 698.84,-60 741.8,-37.01 762.48,-43.91 808.47,-60 833.72,-68.83 857.11,-88.47 873.19,-104.54"/>
<polygon fill="black" stroke="black" points="871.01,-107.32 880.47,-112.08 876.05,-102.46 871.01,-107.32"/>
</g>
<!-- icmp6_output&#45;&gt;ip6_output -->
<g id="edge44" class="edge">
<title>icmp6_output&#45;&gt;ip6_output</title>
<path fill="none" stroke="black" d="M781.62,-154.58C790.62,-159.73 800.4,-166.05 808.47,-173 827.62,-189.48 827.08,-198.67 844.47,-217 852.27,-225.22 861.28,-233.71 869.52,-241.12"/>
<polygon fill="black" stroke="black" points="867.31,-243.84 877.12,-247.85 871.96,-238.6 867.31,-243.84"/>
</g>
<!-- ndp_ns_input&#45;&gt;ip6_output -->
<g id="edge57" class="edge">
<title>ndp_ns_input&#45;&gt;ip6_output</title>
<path fill="none" stroke="black" d="M786.2,-97.83C794.33,-101.86 802.47,-107.17 808.47,-114 840.48,-150.43 817.72,-176.55 844.47,-217 850.62,-226.3 859.07,-234.97 867.3,-242.22"/>
<polygon fill="black" stroke="black" points="865.13,-244.97 875.04,-248.71 869.63,-239.6 865.13,-244.97"/>
</g>
<!-- ndp_ns_input&#45;&gt;control_output -->
<g id="edge58" class="edge">
<title>ndp_ns_input&#45;&gt;control_output</title>
<path fill="none" stroke="black" d="M783.84,-99.03C792.21,-103.15 801.06,-108.21 808.47,-114 827.84,-129.14 824.56,-141.58 844.47,-156 937.95,-223.68 979.8,-206.51 1084.53,-255 1099.07,-261.73 1114.81,-269.7 1128.42,-276.81"/>
<polygon fill="black" stroke="black" points="1126.97,-280.01 1137.45,-281.57 1130.24,-273.81 1126.97,-280.01"/>
</g>
<!-- ndp_na_input&#45;&gt;control_output -->
<g id="edge56" class="edge">
<title>ndp_na_input&#45;&gt;control_output</title>
<path fill="none" stroke="black" d="M935.34,-134.17C975.59,-141.13 1039.21,-156.6 1084.53,-189 1113.78,-209.91 1136.81,-244.86 1150.4,-269.1"/>
<polygon fill="black" stroke="black" points="1147.46,-271.01 1155.3,-278.12 1153.61,-267.67 1147.46,-271.01"/>
</g>
<!-- ip6_forward&#45;&gt;ip6_output -->
<g id="edge45" class="edge">
<title>ip6_forward&#45;&gt;ip6_output</title>
<path fill="none" stroke="black" d="M477.83,-163.97C562.36,-173.94 777.59,-200.08 808.47,-211 829.67,-218.5 851.35,-231.53 867.71,-242.68"/>
<polygon fill="black" stroke="black" points="866.02,-245.76 876.22,-248.63 870.03,-240.03 866.02,-245.76"/>
</g>
<!-- ip6_hold&#45;&gt;control_output -->
<g id="edge46" class="edge">
<title>ip6_hold&#45;&gt;control_output</title>
<path fill="none" stroke="black" d="M1060.85,-284.8C1075.41,-286.38 1094.16,-288.41 1111.66,-290.32"/>
<polygon fill="black" stroke="black" points="1111.47,-293.81 1121.79,-291.41 1112.22,-286.86 1111.47,-293.81"/>
</g>
</g>
</svg>
