<?xml version="1.0" encoding="UTF-8" standalone="no"?>
<!DOCTYPE svg PUBLIC "-//W3C//DTD SVG 1.1//EN"
 "http://www.w3.org/Graphics/SVG/1.1/DTD/svg11.dtd">
<!-- Generated by graphviz version 12.1.0 (20240811.2233)
 -->
<!-- Title: gr&#45;0003 Pages: 1 -->
<svg width="1205pt" height="909pt"
 viewBox="0.00 0.00 1205.24 909.00" xmlns="http://www.w3.org/2000/svg" xmlns:xlink="http://www.w3.org/1999/xlink">
<g id="graph0" class="graph" transform="scale(1 1) rotate(0) translate(4 905)">
<title>gr&#45;0003</title>
<polygon fill="white" stroke="none" points="-4,4 -4,-905 1201.24,-905 1201.24,4 -4,4"/>
<!-- control_input -->
<g id="node1" class="node">
<title>control_input</title>
<ellipse fill="none" stroke="blue" stroke-width="2" cx="41.62" cy="-602" rx="41.62" ry="18"/>
<text text-anchor="middle" x="41.62" y="-598.3" font-family="sans" font-size="11.00">control_input</text>
</g>
<!-- loopback_input -->
<g id="node2" class="node">
<title>loopback_input</title>
<ellipse fill="none" stroke="black" cx="174.34" cy="-520" rx="47.52" ry="18"/>
<text text-anchor="middle" x="174.34" y="-516.3" font-family="sans" font-size="11.00">loopback_input</text>
</g>
<!-- control_input&#45;&gt;loopback_input -->
<g id="edge1" class="edge">
<title>control_input&#45;&gt;loopback_input</title>
<path fill="none" stroke="blue" stroke-width="2" d="M65.25,-586.86C80.42,-576.8 100.9,-563.4 119.25,-552 125.21,-548.3 131.59,-544.43 137.8,-540.72"/>
<polygon fill="blue" stroke="blue" stroke-width="2" points="137.92,-544.72 144.73,-536.61 134.35,-538.7 137.92,-544.72"/>
</g>
<!-- arp_output_request -->
<g id="node3" class="node">
<title>arp_output_request</title>
<ellipse fill="none" stroke="black" cx="326.86" cy="-829" rx="61.42" ry="18"/>
<text text-anchor="middle" x="326.86" y="-825.3" font-family="sans" font-size="11.00">arp_output_request</text>
</g>
<!-- control_input&#45;&gt;arp_output_request -->
<g id="edge2" class="edge">
<title>control_input&#45;&gt;arp_output_request</title>
<path fill="none" stroke="blue" stroke-width="2" d="M43.95,-620.26C47.86,-659.49 62.88,-751.88 119.25,-797 157.49,-827.61 212.82,-834.84 256.6,-834.83"/>
<polygon fill="blue" stroke="blue" stroke-width="2" points="255.07,-838.36 265.01,-834.71 254.97,-831.36 255.07,-838.36"/>
</g>
<!-- icmp_local_send -->
<g id="node4" class="node">
<title>icmp_local_send</title>
<ellipse fill="none" stroke="black" cx="326.86" cy="-681" rx="51.31" ry="18"/>
<text text-anchor="middle" x="326.86" y="-677.3" font-family="sans" font-size="11.00">icmp_local_send</text>
</g>
<!-- control_input&#45;&gt;icmp_local_send -->
<g id="edge3" class="edge">
<title>control_input&#45;&gt;icmp_local_send</title>
<path fill="none" stroke="blue" stroke-width="2" d="M77.35,-611.69C126.79,-625.48 217.78,-650.86 274.88,-666.78"/>
<polygon fill="blue" stroke="blue" stroke-width="2" points="272.33,-669.7 282.91,-669.02 274.22,-662.96 272.33,-669.7"/>
</g>
<!-- icmp6_local_send -->
<g id="node5" class="node">
<title>icmp6_local_send</title>
<ellipse fill="none" stroke="black" cx="174.34" cy="-300" rx="55.1" ry="18"/>
<text text-anchor="middle" x="174.34" y="-296.3" font-family="sans" font-size="11.00">icmp6_local_send</text>
</g>
<!-- control_input&#45;&gt;icmp6_local_send -->
<g id="edge4" class="edge">
<title>control_input&#45;&gt;icmp6_local_send</title>
<path fill="none" stroke="blue" stroke-width="2" d="M46.66,-583.7C55.9,-543.83 80.79,-446.8 119.25,-373 127.89,-356.41 140.14,-339.51 150.8,-326.17"/>
<polygon fill="blue" stroke="blue" stroke-width="2" points="152.32,-329.84 155.94,-319.88 146.9,-325.4 152.32,-329.84"/>
</g>
<!-- ndp_ns_output -->
<g id="node6" class="node">
<title>ndp_ns_output</title>
<ellipse fill="none" stroke="black" cx="174.34" cy="-466" rx="46.26" ry="18"/>
<text text-anchor="middle" x="174.34" y="-462.3" font-family="sans" font-size="11.00">ndp_ns_output</text>
</g>
<!-- control_input&#45;&gt;ndp_ns_output -->
<g id="edge5" class="edge">
<title>control_input&#45;&gt;ndp_ns_output</title>
<path fill="none" stroke="blue" stroke-width="2" d="M51.57,-584.1C64.02,-560.64 88.56,-519.4 119.25,-493 122.87,-489.88 126.92,-487.02 131.13,-484.42"/>
<polygon fill="blue" stroke="blue" stroke-width="2" points="131.45,-488.25 138.46,-480.31 128.03,-482.14 131.45,-488.25"/>
</g>
<!-- ip_output -->
<g id="node7" class="node">
<title>ip_output</title>
<ellipse fill="none" stroke="black" cx="858.59" cy="-669" rx="30.25" ry="18"/>
<text text-anchor="middle" x="858.59" y="-665.3" font-family="sans" font-size="11.00">ip_output</text>
</g>
<!-- control_input&#45;&gt;ip_output -->
<g id="edge6" class="edge">
<title>control_input&#45;&gt;ip_output</title>
<path fill="none" stroke="blue" stroke-width="2" d="M63.34,-617.57C78.34,-628.39 99.4,-642.68 119.25,-653 248.35,-720.15 281.26,-745.09 424.27,-772 575.7,-800.49 753.94,-722.22 825.49,-686.13"/>
<polygon fill="blue" stroke="blue" stroke-width="2" points="825.65,-689.98 832.96,-682.31 822.46,-683.75 825.65,-689.98"/>
</g>
<!-- arp_output_reply -->
<g id="node8" class="node">
<title>arp_output_reply</title>
<ellipse fill="none" stroke="black" cx="326.86" cy="-883" rx="53.41" ry="18"/>
<text text-anchor="middle" x="326.86" y="-879.3" font-family="sans" font-size="11.00">arp_output_reply</text>
</g>
<!-- control_input&#45;&gt;arp_output_reply -->
<g id="edge7" class="edge">
<title>control_input&#45;&gt;arp_output_reply</title>
<path fill="none" stroke="blue" stroke-width="2" d="M43.21,-620.39C45.61,-663.49 57.8,-771.7 119.25,-829 157.54,-864.7 216.45,-877.45 261.58,-881.7"/>
<polygon fill="blue" stroke="blue" stroke-width="2" points="259.77,-885.06 270.02,-882.38 260.33,-878.09 259.77,-885.06"/>
</g>
<!-- ip6_output -->
<g id="node9" class="node">
<title>ip6_output</title>
<ellipse fill="none" stroke="black" cx="858.59" cy="-393" rx="34.04" ry="18"/>
<text text-anchor="middle" x="858.59" y="-389.3" font-family="sans" font-size="11.00">ip6_output</text>
</g>
<!-- control_input&#45;&gt;ip6_output -->
<g id="edge8" class="edge">
<title>control_input&#45;&gt;ip6_output</title>
<path fill="none" stroke="blue" stroke-width="2" d="M79.27,-594.14C206.67,-566.67 629.73,-474.41 762.02,-432 782.08,-425.57 803.88,-416.81 821.59,-409.23"/>
<polygon fill="blue" stroke="blue" stroke-width="2" points="821.48,-413.1 829.25,-405.9 818.69,-406.68 821.48,-413.1"/>
</g>
<!-- ip_input -->
<g id="node13" class="node">
<title>ip_input</title>
<ellipse fill="none" stroke="black" cx="326.86" cy="-608" rx="27" ry="18"/>
<text text-anchor="middle" x="326.86" y="-604.3" font-family="sans" font-size="11.00">ip_input</text>
</g>
<!-- loopback_input&#45;&gt;ip_input -->
<g id="edge13" class="edge">
<title>loopback_input&#45;&gt;ip_input</title>
<path fill="none" stroke="black" d="M201.22,-535.13C227.6,-550.55 268.48,-574.46 296.17,-590.64"/>
<polygon fill="black" stroke="black" points="294.37,-593.64 304.77,-595.67 297.9,-587.6 294.37,-593.64"/>
</g>
<!-- ip6_input -->
<g id="node14" class="node">
<title>ip6_input</title>
<ellipse fill="none" stroke="black" cx="326.86" cy="-400" rx="29.41" ry="18"/>
<text text-anchor="middle" x="326.86" y="-396.3" font-family="sans" font-size="11.00">ip6_input</text>
</g>
<!-- loopback_input&#45;&gt;ip6_input -->
<g id="edge14" class="edge">
<title>loopback_input&#45;&gt;ip6_input</title>
<path fill="none" stroke="black" d="M206.61,-506.42C214.34,-502.52 222.41,-497.97 229.44,-493 257.9,-472.89 286.07,-444.46 304.55,-424.34"/>
<polygon fill="black" stroke="black" points="306.96,-426.9 311.07,-417.13 301.76,-422.21 306.96,-426.9"/>
</g>
<!-- eth_output -->
<g id="node15" class="node">
<title>eth_output</title>
<ellipse fill="none" stroke="black" cx="1011.95" cy="-776" rx="34.89" ry="18"/>
<text text-anchor="middle" x="1011.95" y="-772.3" font-family="sans" font-size="11.00">eth_output</text>
</g>
<!-- arp_output_request&#45;&gt;eth_output -->
<g id="edge22" class="edge">
<title>arp_output_request&#45;&gt;eth_output</title>
<path fill="none" stroke="black" d="M388.72,-829C442.97,-829 524.53,-829 595.51,-829 595.51,-829 595.51,-829 719.71,-829 810.58,-829 914.86,-803.72 970.68,-788.07"/>
<polygon fill="black" stroke="black" points="971.39,-791.51 980.05,-785.41 969.47,-784.78 971.39,-791.51"/>
</g>
<!-- icmp_output -->
<g id="node22" class="node">
<title>icmp_output</title>
<ellipse fill="none" stroke="black" cx="718.71" cy="-623" rx="39.52" ry="18"/>
<text text-anchor="middle" x="718.71" y="-619.3" font-family="sans" font-size="11.00">icmp_output</text>
</g>
<!-- icmp_local_send&#45;&gt;icmp_output -->
<g id="edge25" class="edge">
<title>icmp_local_send&#45;&gt;icmp_output</title>
<path fill="none" stroke="black" d="M378.33,-679.58C440.42,-677.02 548.74,-669.86 639.4,-650 652.09,-647.22 665.58,-643.04 677.72,-638.79"/>
<polygon fill="black" stroke="black" points="678.79,-642.13 687,-635.43 676.41,-635.55 678.79,-642.13"/>
</g>
<!-- icmp6_output -->
<g id="node30" class="node">
<title>icmp6_output</title>
<ellipse fill="none" stroke="black" cx="718.71" cy="-309" rx="43.31" ry="18"/>
<text text-anchor="middle" x="718.71" y="-305.3" font-family="sans" font-size="11.00">icmp6_output</text>
</g>
<!-- icmp6_local_send&#45;&gt;icmp6_output -->
<g id="edge45" class="edge">
<title>icmp6_local_send&#45;&gt;icmp6_output</title>
<path fill="none" stroke="black" d="M229.83,-300.9C333.94,-302.63 559.98,-306.38 663.71,-308.1"/>
<polygon fill="black" stroke="black" points="663.57,-311.6 673.63,-308.27 663.69,-304.6 663.57,-311.6"/>
</g>
<!-- ndp_ns_output&#45;&gt;ip6_output -->
<g id="edge59" class="edge">
<title>ndp_ns_output&#45;&gt;ip6_output</title>
<path fill="none" stroke="black" d="M220.76,-467.9C270.65,-469.88 353.16,-472.86 424.27,-474 465.76,-474.67 477.35,-483.98 517.63,-474 535.19,-469.65 536.59,-461.09 553.63,-455 601.28,-437.96 742.8,-412.52 814.67,-400.2"/>
<polygon fill="black" stroke="black" points="814.82,-403.73 824.09,-398.6 813.64,-396.83 814.82,-403.73"/>
</g>
<!-- ip_output&#45;&gt;eth_output -->
<g id="edge35" class="edge">
<title>ip_output&#45;&gt;eth_output</title>
<path fill="none" stroke="black" d="M879.07,-682.77C905,-701.1 951.11,-733.7 981.36,-755.08"/>
<polygon fill="black" stroke="black" points="979.16,-757.81 989.34,-760.73 983.2,-752.1 979.16,-757.81"/>
</g>
<!-- loopback_output -->
<g id="node17" class="node">
<title>loopback_output</title>
<ellipse fill="none" stroke="black" cx="1011.95" cy="-429" rx="52.15" ry="18"/>
<text text-anchor="middle" x="1011.95" y="-425.3" font-family="sans" font-size="11.00">loopback_output</text>
</g>
<!-- ip_output&#45;&gt;loopback_output -->
<g id="edge37" class="edge">
<title>ip_output&#45;&gt;loopback_output</title>
<path fill="none" stroke="black" d="M870.23,-652.12C896.04,-611.2 962.16,-506.36 993.7,-456.35"/>
<polygon fill="black" stroke="black" points="996.52,-458.43 998.89,-448.11 990.6,-454.7 996.52,-458.43"/>
</g>
<!-- ip_hold -->
<g id="node24" class="node">
<title>ip_hold</title>
<ellipse fill="none" stroke="black" cx="1011.95" cy="-603" rx="27" ry="18"/>
<text text-anchor="middle" x="1011.95" y="-599.3" font-family="sans" font-size="11.00">ip_hold</text>
</g>
<!-- ip_output&#45;&gt;ip_hold -->
<g id="edge36" class="edge">
<title>ip_output&#45;&gt;ip_hold</title>
<path fill="none" stroke="black" d="M883.57,-658.54C909.29,-647.33 950.28,-629.45 978.78,-617.02"/>
<polygon fill="black" stroke="black" points="979.89,-620.36 987.65,-613.16 977.09,-613.95 979.89,-620.36"/>
</g>
<!-- ipip_output -->
<g id="node28" class="node">
<title>ipip_output</title>
<ellipse fill="none" stroke="black" cx="1011.95" cy="-669" rx="35.73" ry="18"/>
<text text-anchor="middle" x="1011.95" y="-665.3" font-family="sans" font-size="11.00">ipip_output</text>
</g>
<!-- ip_output&#45;&gt;ipip_output -->
<g id="edge38" class="edge">
<title>ip_output&#45;&gt;ipip_output</title>
<path fill="none" stroke="black" d="M887.7,-663.61C909.8,-662.13 940.98,-661.86 966.46,-662.79"/>
<polygon fill="black" stroke="black" points="966.04,-666.27 976.19,-663.23 966.36,-659.28 966.04,-666.27"/>
</g>
<!-- arp_output_reply&#45;&gt;eth_output -->
<g id="edge21" class="edge">
<title>arp_output_reply&#45;&gt;eth_output</title>
<path fill="none" stroke="black" d="M380.16,-880.51C434.1,-878.16 520.67,-875 595.51,-875 595.51,-875 595.51,-875 719.71,-875 810.89,-875 834.21,-860.11 919.16,-827 940.32,-818.75 962.61,-806.46 979.93,-796.01"/>
<polygon fill="black" stroke="black" points="981.54,-799.13 988.22,-790.9 977.87,-793.17 981.54,-799.13"/>
</g>
<!-- ip6_output&#45;&gt;eth_output -->
<g id="edge53" class="edge">
<title>ip6_output&#45;&gt;eth_output</title>
<path fill="none" stroke="black" d="M880.41,-407.2C893.74,-417.47 910.17,-432.57 919.16,-450 969.83,-548.19 914.47,-593.27 955.16,-696 963.11,-716.08 976.99,-736 988.91,-750.95"/>
<polygon fill="black" stroke="black" points="985.99,-752.91 995.05,-758.4 991.39,-748.45 985.99,-752.91"/>
</g>
<!-- ip6_output&#45;&gt;loopback_output -->
<g id="edge55" class="edge">
<title>ip6_output&#45;&gt;loopback_output</title>
<path fill="none" stroke="black" d="M890.22,-400.29C909.43,-404.85 934.73,-410.87 957.21,-416.22"/>
<polygon fill="black" stroke="black" points="956.31,-419.6 966.85,-418.51 957.93,-412.79 956.31,-419.6"/>
</g>
<!-- ip6_hold -->
<g id="node35" class="node">
<title>ip6_hold</title>
<ellipse fill="none" stroke="black" cx="1011.95" cy="-356" rx="27" ry="18"/>
<text text-anchor="middle" x="1011.95" y="-352.3" font-family="sans" font-size="11.00">ip6_hold</text>
</g>
<!-- ip6_output&#45;&gt;ip6_hold -->
<g id="edge54" class="edge">
<title>ip6_output&#45;&gt;ip6_hold</title>
<path fill="none" stroke="black" d="M889.85,-385.6C914.5,-379.58 949.35,-371.06 975.34,-364.7"/>
<polygon fill="black" stroke="black" points="975.88,-368.18 984.76,-362.4 974.22,-361.38 975.88,-368.18"/>
</g>
<!-- control_output -->
<g id="node10" class="node">
<title>control_output</title>
<ellipse fill="none" stroke="black" cx="1150.98" cy="-236" rx="46.26" ry="18"/>
<text text-anchor="middle" x="1150.98" y="-232.3" font-family="sans" font-size="11.00">control_output</text>
</g>
<!-- eth_input -->
<g id="node11" class="node">
<title>eth_input</title>
<ellipse fill="none" stroke="black" cx="174.34" cy="-400" rx="30.25" ry="18"/>
<text text-anchor="middle" x="174.34" y="-396.3" font-family="sans" font-size="11.00">eth_input</text>
</g>
<!-- arp_input -->
<g id="node12" class="node">
<title>arp_input</title>
<ellipse fill="none" stroke="black" cx="858.59" cy="-72" rx="30.25" ry="18"/>
<text text-anchor="middle" x="858.59" y="-68.3" font-family="sans" font-size="11.00">arp_input</text>
</g>
<!-- eth_input&#45;&gt;arp_input -->
<g id="edge9" class="edge">
<title>eth_input&#45;&gt;arp_input</title>
<path fill="none" stroke="black" d="M194.62,-386.44C248.94,-348.68 408.75,-240.73 553.63,-174 605.5,-150.11 621.26,-151.18 675.4,-133 725.84,-116.07 784.15,-96.55 820.94,-84.25"/>
<polygon fill="black" stroke="black" points="821.83,-87.64 830.2,-81.15 819.61,-81.01 821.83,-87.64"/>
</g>
<!-- eth_input&#45;&gt;ip_input -->
<g id="edge10" class="edge">
<title>eth_input&#45;&gt;ip_input</title>
<path fill="none" stroke="black" d="M196.8,-412.41C207.48,-419.3 220.08,-428.58 229.44,-439 268.47,-482.41 298.74,-544.21 314.29,-579.8"/>
<polygon fill="black" stroke="black" points="311.07,-581.17 318.22,-588.99 317.51,-578.42 311.07,-581.17"/>
</g>
<!-- eth_input&#45;&gt;ip6_input -->
<g id="edge11" class="edge">
<title>eth_input&#45;&gt;ip6_input</title>
<path fill="none" stroke="black" d="M205.08,-400C228.08,-400 260.17,-400 285.49,-400"/>
<polygon fill="black" stroke="black" points="285.44,-403.5 295.44,-400 285.44,-396.5 285.44,-403.5"/>
</g>
<!-- arp_input_request -->
<g id="node19" class="node">
<title>arp_input_request</title>
<ellipse fill="none" stroke="black" cx="1011.95" cy="-72" rx="56.78" ry="18"/>
<text text-anchor="middle" x="1011.95" y="-68.3" font-family="sans" font-size="11.00">arp_input_request</text>
</g>
<!-- arp_input&#45;&gt;arp_input_request -->
<g id="edge17" class="edge">
<title>arp_input&#45;&gt;arp_input_request</title>
<path fill="none" stroke="black" d="M889.13,-72C904.66,-72 924.39,-72 943.42,-72"/>
<polygon fill="black" stroke="black" points="943.31,-75.5 953.31,-72 943.31,-68.5 943.31,-75.5"/>
</g>
<!-- arp_input_reply -->
<g id="node20" class="node">
<title>arp_input_reply</title>
<ellipse fill="none" stroke="black" cx="1011.95" cy="-18" rx="48.78" ry="18"/>
<text text-anchor="middle" x="1011.95" y="-14.3" font-family="sans" font-size="11.00">arp_input_reply</text>
</g>
<!-- arp_input&#45;&gt;arp_input_reply -->
<g id="edge18" class="edge">
<title>arp_input&#45;&gt;arp_input_reply</title>
<path fill="none" stroke="black" d="M885.26,-62.84C907.04,-55.07 938.8,-43.74 964.95,-34.41"/>
<polygon fill="black" stroke="black" points="966.09,-37.72 974.34,-31.06 963.74,-31.13 966.09,-37.72"/>
</g>
<!-- ip_input&#45;&gt;ip_output -->
<g id="edge30" class="edge">
<title>ip_input&#45;&gt;ip_output</title>
<path fill="none" stroke="black" d="M352.73,-614.19C372.14,-618.89 399.82,-625.33 424.27,-630 481.41,-640.92 495.79,-643.73 553.63,-650 647.56,-660.18 758.45,-665.4 816.87,-667.63"/>
<polygon fill="black" stroke="black" points="816.54,-671.12 826.66,-667.99 816.79,-664.13 816.54,-671.12"/>
</g>
<!-- ip_forward -->
<g id="node23" class="node">
<title>ip_forward</title>
<ellipse fill="none" stroke="black" cx="470.95" cy="-745" rx="33.62" ry="18"/>
<text text-anchor="middle" x="470.95" y="-741.3" font-family="sans" font-size="11.00">ip_forward</text>
</g>
<!-- ip_input&#45;&gt;ip_forward -->
<g id="edge29" class="edge">
<title>ip_input&#45;&gt;ip_forward</title>
<path fill="none" stroke="black" d="M346.55,-620.83C358.87,-629.62 375.1,-641.84 388.27,-654 410.67,-674.66 433.62,-700.75 449.47,-719.7"/>
<polygon fill="black" stroke="black" points="446.61,-721.73 455.68,-727.2 452,-717.27 446.61,-721.73"/>
</g>
<!-- ip_input_local -->
<g id="node25" class="node">
<title>ip_input_local</title>
<ellipse fill="none" stroke="black" cx="470.95" cy="-577" rx="42.89" ry="18"/>
<text text-anchor="middle" x="470.95" y="-573.3" font-family="sans" font-size="11.00">ip_input_local</text>
</g>
<!-- ip_input&#45;&gt;ip_input_local -->
<g id="edge31" class="edge">
<title>ip_input&#45;&gt;ip_input_local</title>
<path fill="none" stroke="black" d="M352.94,-602.53C371.83,-598.41 398.33,-592.62 421.34,-587.61"/>
<polygon fill="black" stroke="black" points="421.8,-591.09 430.82,-585.54 420.31,-584.25 421.8,-591.09"/>
</g>
<!-- ip6_input&#45;&gt;ip6_output -->
<g id="edge49" class="edge">
<title>ip6_input&#45;&gt;ip6_output</title>
<path fill="none" stroke="black" d="M351.04,-389.32C370.2,-381.1 398.38,-370.43 424.27,-366 566.14,-341.72 737.45,-368.68 815.35,-383.95"/>
<polygon fill="black" stroke="black" points="814.62,-387.37 825.11,-385.91 815.99,-380.51 814.62,-387.37"/>
</g>
<!-- ip6_forward -->
<g id="node34" class="node">
<title>ip6_forward</title>
<ellipse fill="none" stroke="black" cx="470.95" cy="-393" rx="37.41" ry="18"/>
<text text-anchor="middle" x="470.95" y="-389.3" font-family="sans" font-size="11.00">ip6_forward</text>
</g>
<!-- ip6_input&#45;&gt;ip6_forward -->
<g id="edge48" class="edge">
<title>ip6_input&#45;&gt;ip6_forward</title>
<path fill="none" stroke="black" d="M356.61,-398.58C375.38,-397.66 400.33,-396.43 422.05,-395.36"/>
<polygon fill="black" stroke="black" points="422.06,-398.86 431.88,-394.88 421.72,-391.87 422.06,-398.86"/>
</g>
<!-- ip6_input_local -->
<g id="node36" class="node">
<title>ip6_input_local</title>
<ellipse fill="none" stroke="black" cx="470.95" cy="-447" rx="46.68" ry="18"/>
<text text-anchor="middle" x="470.95" y="-443.3" font-family="sans" font-size="11.00">ip6_input_local</text>
</g>
<!-- ip6_input&#45;&gt;ip6_input_local -->
<g id="edge50" class="edge">
<title>ip6_input&#45;&gt;ip6_input_local</title>
<path fill="none" stroke="black" d="M353.26,-408.4C372.83,-414.88 400.42,-424 423.85,-431.75"/>
<polygon fill="black" stroke="black" points="422.6,-435.02 433.19,-434.84 424.8,-428.38 422.6,-435.02"/>
</g>
<!-- port_tx -->
<g id="node16" class="node">
<title>port_tx</title>
<ellipse fill="none" stroke="black" cx="1150.98" cy="-776" rx="27" ry="18"/>
<text text-anchor="middle" x="1150.98" y="-772.3" font-family="sans" font-size="11.00">port_tx</text>
</g>
<!-- eth_output&#45;&gt;port_tx -->
<g id="edge12" class="edge">
<title>eth_output&#45;&gt;port_tx</title>
<path fill="none" stroke="black" d="M1047.17,-776C1066.92,-776 1091.79,-776 1112.12,-776"/>
<polygon fill="black" stroke="black" points="1111.98,-779.5 1121.98,-776 1111.98,-772.5 1111.98,-779.5"/>
</g>
<!-- loopback_output&#45;&gt;control_output -->
<g id="edge15" class="edge">
<title>loopback_output&#45;&gt;control_output</title>
<path fill="none" stroke="black" d="M1036.4,-412.83C1047.1,-404.7 1059.43,-394.2 1068.73,-383 1099.43,-346.04 1124.27,-295.76 1138.08,-264.62"/>
<polygon fill="black" stroke="black" points="1141.28,-266.03 1142.05,-255.46 1134.86,-263.24 1141.28,-266.03"/>
</g>
<!-- port_rx -->
<g id="node18" class="node">
<title>port_rx</title>
<ellipse fill="none" stroke="blue" stroke-width="2" cx="41.62" cy="-400" rx="27" ry="18"/>
<text text-anchor="middle" x="41.62" y="-396.3" font-family="sans" font-size="11.00">port_rx</text>
</g>
<!-- port_rx&#45;&gt;eth_input -->
<g id="edge16" class="edge">
<title>port_rx&#45;&gt;eth_input</title>
<path fill="none" stroke="blue" stroke-width="2" d="M69.08,-400C87.25,-400 111.72,-400 132.4,-400"/>
<polygon fill="blue" stroke="blue" stroke-width="2" points="130.71,-403.5 140.71,-400 130.71,-396.5 130.71,-403.5"/>
</g>
<!-- arp_input_request&#45;&gt;control_output -->
<g id="edge20" class="edge">
<title>arp_input_request&#45;&gt;control_output</title>
<path fill="none" stroke="black" d="M1045.24,-86.92C1053.48,-91.65 1061.92,-97.39 1068.73,-104 1099.91,-134.23 1124.07,-178.8 1137.67,-207.62"/>
<polygon fill="black" stroke="black" points="1134.37,-208.83 1141.72,-216.46 1140.73,-205.91 1134.37,-208.83"/>
</g>
<!-- arp_input_reply&#45;&gt;control_output -->
<g id="edge19" class="edge">
<title>arp_input_reply&#45;&gt;control_output</title>
<path fill="none" stroke="black" d="M1048.24,-30.34C1055.69,-34.17 1063.01,-39 1068.73,-45 1112.95,-91.43 1134.96,-165.59 1144.26,-206.5"/>
<polygon fill="black" stroke="black" points="1140.8,-207.07 1146.34,-216.11 1147.65,-205.59 1140.8,-207.07"/>
</g>
<!-- icmp_input -->
<g id="node21" class="node">
<title>icmp_input</title>
<ellipse fill="none" stroke="black" cx="596.51" cy="-569" rx="34.89" ry="18"/>
<text text-anchor="middle" x="596.51" y="-565.3" font-family="sans" font-size="11.00">icmp_input</text>
</g>
<!-- icmp_input&#45;&gt;control_output -->
<g id="edge24" class="edge">
<title>icmp_input&#45;&gt;control_output</title>
<path fill="none" stroke="black" d="M631.34,-571.53C716.93,-575.99 944.17,-575.28 1068.73,-456 1123.1,-403.93 1141.32,-312.31 1147.25,-265.43"/>
<polygon fill="black" stroke="black" points="1150.69,-266.1 1148.36,-255.77 1143.74,-265.3 1150.69,-266.1"/>
</g>
<!-- icmp_input&#45;&gt;icmp_output -->
<g id="edge23" class="edge">
<title>icmp_input&#45;&gt;icmp_output</title>
<path fill="none" stroke="black" d="M623.59,-580.72C639.87,-588.03 661.11,-597.57 679.29,-605.74"/>
<polygon fill="black" stroke="black" points="677.65,-608.84 688.2,-609.74 680.51,-602.45 677.65,-608.84"/>
</g>
<!-- icmp_output&#45;&gt;ip_output -->
<g id="edge26" class="edge">
<title>icmp_output&#45;&gt;ip_output</title>
<path fill="none" stroke="black" d="M751.34,-633.55C772.06,-640.47 799.21,-649.52 820.88,-656.75"/>
<polygon fill="black" stroke="black" points="819.62,-660.02 830.21,-659.87 821.83,-653.38 819.62,-660.02"/>
</g>
<!-- ip_forward&#45;&gt;ip_output -->
<g id="edge27" class="edge">
<title>ip_forward&#45;&gt;ip_output</title>
<path fill="none" stroke="black" d="M502.86,-738.91C572.47,-725.19 741.47,-691.88 818.35,-676.73"/>
<polygon fill="black" stroke="black" points="818.81,-680.21 827.95,-674.84 817.46,-673.34 818.81,-680.21"/>
</g>
<!-- ip_hold&#45;&gt;control_output -->
<g id="edge28" class="edge">
<title>ip_hold&#45;&gt;control_output</title>
<path fill="none" stroke="black" d="M1035.25,-593.58C1046.87,-587.59 1060.37,-578.73 1068.73,-567 1136.34,-472.13 1148.02,-327.42 1149.8,-265.63"/>
<polygon fill="black" stroke="black" points="1153.3,-266 1150.01,-255.93 1146.3,-265.86 1153.3,-266"/>
</g>
<!-- ip_input_local&#45;&gt;icmp_input -->
<g id="edge32" class="edge">
<title>ip_input_local&#45;&gt;icmp_input</title>
<path fill="none" stroke="black" d="M513.78,-574.29C525.56,-573.53 538.42,-572.7 550.39,-571.92"/>
<polygon fill="black" stroke="black" points="550.25,-575.44 560,-571.3 549.8,-568.45 550.25,-575.44"/>
</g>
<!-- ipip_input -->
<g id="node26" class="node">
<title>ipip_input</title>
<ellipse fill="none" stroke="black" cx="596.51" cy="-623" rx="31.1" ry="18"/>
<text text-anchor="middle" x="596.51" y="-619.3" font-family="sans" font-size="11.00">ipip_input</text>
</g>
<!-- ip_input_local&#45;&gt;ipip_input -->
<g id="edge33" class="edge">
<title>ip_input_local&#45;&gt;ipip_input</title>
<path fill="none" stroke="black" d="M503.77,-588.85C520.71,-595.15 541.61,-602.93 559.18,-609.47"/>
<polygon fill="black" stroke="black" points="557.61,-612.62 568.2,-612.83 560.05,-606.06 557.61,-612.62"/>
</g>
<!-- l4_input_local -->
<g id="node27" class="node">
<title>l4_input_local</title>
<ellipse fill="none" stroke="black" cx="596.51" cy="-515" rx="42.89" ry="18"/>
<text text-anchor="middle" x="596.51" y="-511.3" font-family="sans" font-size="11.00">l4_input_local</text>
</g>
<!-- ip_input_local&#45;&gt;l4_input_local -->
<g id="edge34" class="edge">
<title>ip_input_local&#45;&gt;l4_input_local</title>
<path fill="none" stroke="black" d="M499.37,-563.24C516.65,-554.57 539.18,-543.26 558.09,-533.78"/>
<polygon fill="black" stroke="black" points="559.45,-537.01 566.82,-529.4 556.31,-530.76 559.45,-537.01"/>
</g>
<!-- ipip_input&#45;&gt;ip_input -->
<g id="edge61" class="edge">
<title>ipip_input&#45;&gt;ip_input</title>
<path fill="none" stroke="black" d="M565.18,-621.3C515.96,-618.54 418.83,-613.1 365.35,-610.1"/>
<polygon fill="black" stroke="black" points="365.7,-606.62 355.52,-609.55 365.31,-613.6 365.7,-606.62"/>
</g>
<!-- l4_loopback_output -->
<g id="node37" class="node">
<title>l4_loopback_output</title>
<ellipse fill="none" stroke="black" cx="858.59" cy="-477" rx="60.57" ry="18"/>
<text text-anchor="middle" x="858.59" y="-473.3" font-family="sans" font-size="11.00">l4_loopback_output</text>
</g>
<!-- l4_input_local&#45;&gt;l4_loopback_output -->
<g id="edge63" class="edge">
<title>l4_input_local&#45;&gt;l4_loopback_output</title>
<path fill="none" stroke="black" d="M637.58,-509.15C678.74,-503.13 743.48,-493.67 792.09,-486.57"/>
<polygon fill="black" stroke="black" points="792.57,-490.04 801.96,-485.13 791.56,-483.11 792.57,-490.04"/>
</g>
<!-- ipip_output&#45;&gt;ip_output -->
<g id="edge62" class="edge">
<title>ipip_output&#45;&gt;ip_output</title>
<path fill="none" stroke="black" d="M977.7,-674.7C954.54,-675.99 923.54,-676.09 899.11,-675.01"/>
<polygon fill="black" stroke="black" points="899.39,-671.52 889.21,-674.47 899.01,-678.51 899.39,-671.52"/>
</g>
<!-- icmp6_input -->
<g id="node29" class="node">
<title>icmp6_input</title>
<ellipse fill="none" stroke="black" cx="596.51" cy="-201" rx="38.68" ry="18"/>
<text text-anchor="middle" x="596.51" y="-197.3" font-family="sans" font-size="11.00">icmp6_input</text>
</g>
<!-- icmp6_input&#45;&gt;control_output -->
<g id="edge43" class="edge">
<title>icmp6_input&#45;&gt;control_output</title>
<path fill="none" stroke="black" d="M620.91,-186.66C635.97,-178.02 656.25,-167.47 675.4,-161 778.45,-126.16 811.02,-127.21 919.16,-139 986.83,-146.38 1007.2,-142.87 1068.73,-172 1089.49,-181.83 1109.79,-197.81 1124.9,-211.34"/>
<polygon fill="black" stroke="black" points="1122.33,-213.73 1132.05,-217.94 1127.07,-208.59 1122.33,-213.73"/>
</g>
<!-- icmp6_input&#45;&gt;icmp6_output -->
<g id="edge39" class="edge">
<title>icmp6_input&#45;&gt;icmp6_output</title>
<path fill="none" stroke="black" d="M619.37,-215.85C626.13,-220.92 633.38,-226.86 639.4,-233 658.33,-252.29 655.68,-263.53 675.4,-282 677.65,-284.11 680.08,-286.14 682.61,-288.09"/>
<polygon fill="black" stroke="black" points="680.57,-290.94 690.75,-293.86 684.61,-285.22 680.57,-290.94"/>
</g>
<!-- ndp_ns_input -->
<g id="node31" class="node">
<title>ndp_ns_input</title>
<ellipse fill="none" stroke="black" cx="718.71" cy="-255" rx="41.62" ry="18"/>
<text text-anchor="middle" x="718.71" y="-251.3" font-family="sans" font-size="11.00">ndp_ns_input</text>
</g>
<!-- icmp6_input&#45;&gt;ndp_ns_input -->
<g id="edge40" class="edge">
<title>icmp6_input&#45;&gt;ndp_ns_input</title>
<path fill="none" stroke="black" d="M625.09,-213.39C640.93,-220.51 661.09,-229.56 678.55,-237.41"/>
<polygon fill="black" stroke="black" points="677.07,-240.58 687.63,-241.49 679.94,-234.19 677.07,-240.58"/>
</g>
<!-- ndp_na_input -->
<g id="node32" class="node">
<title>ndp_na_input</title>
<ellipse fill="none" stroke="black" cx="858.59" cy="-166" rx="42.04" ry="18"/>
<text text-anchor="middle" x="858.59" y="-162.3" font-family="sans" font-size="11.00">ndp_na_input</text>
</g>
<!-- icmp6_input&#45;&gt;ndp_na_input -->
<g id="edge41" class="edge">
<title>icmp6_input&#45;&gt;ndp_na_input</title>
<path fill="none" stroke="black" d="M625.82,-188.96C640.36,-183.36 658.53,-177.22 675.4,-174 718.47,-165.77 768.27,-164.1 804.91,-164.31"/>
<polygon fill="black" stroke="black" points="804.76,-167.81 814.8,-164.42 804.84,-160.81 804.76,-167.81"/>
</g>
<!-- ndp_rs_input -->
<g id="node33" class="node">
<title>ndp_rs_input</title>
<ellipse fill="none" stroke="black" cx="718.71" cy="-201" rx="40.36" ry="18"/>
<text text-anchor="middle" x="718.71" y="-197.3" font-family="sans" font-size="11.00">ndp_rs_input</text>
</g>
<!-- icmp6_input&#45;&gt;ndp_rs_input -->
<g id="edge42" class="edge">
<title>icmp6_input&#45;&gt;ndp_rs_input</title>
<path fill="none" stroke="black" d="M635.54,-201C645.34,-201 656.04,-201 666.39,-201"/>
<polygon fill="black" stroke="black" points="666.34,-204.5 676.34,-201 666.34,-197.5 666.34,-204.5"/>
</g>
<!-- icmp6_output&#45;&gt;ip6_output -->
<g id="edge44" class="edge">
<title>icmp6_output&#45;&gt;ip6_output</title>
<path fill="none" stroke="black" d="M744.04,-323.82C766.74,-337.65 800.73,-358.36 825.61,-373.52"/>
<polygon fill="black" stroke="black" points="823.67,-376.43 834.03,-378.65 827.31,-370.46 823.67,-376.43"/>
</g>
<!-- ndp_ns_input&#45;&gt;ip6_output -->
<g id="edge57" class="edge">
<title>ndp_ns_input&#45;&gt;ip6_output</title>
<path fill="none" stroke="black" d="M744.73,-269.27C750.64,-273.09 756.75,-277.44 762.02,-282 791.91,-307.91 820.77,-343.32 838.81,-367.11"/>
<polygon fill="black" stroke="black" points="835.92,-369.11 844.71,-375.02 841.53,-364.92 835.92,-369.11"/>
</g>
<!-- ndp_ns_input&#45;&gt;control_output -->
<g id="edge58" class="edge">
<title>ndp_ns_input&#45;&gt;control_output</title>
<path fill="none" stroke="black" d="M760.58,-253.2C837.77,-249.79 1005.15,-242.4 1093.21,-238.51"/>
<polygon fill="black" stroke="black" points="1093.22,-242.01 1103.06,-238.07 1092.91,-235.02 1093.22,-242.01"/>
</g>
<!-- ndp_na_input&#45;&gt;control_output -->
<g id="edge56" class="edge">
<title>ndp_na_input&#45;&gt;control_output</title>
<path fill="none" stroke="black" d="M900.41,-169.15C943.1,-173.2 1011.7,-181.86 1068.73,-199 1083.49,-203.43 1099.04,-210.01 1112.54,-216.38"/>
<polygon fill="black" stroke="black" points="1110.99,-219.52 1121.51,-220.75 1114.05,-213.23 1110.99,-219.52"/>
</g>
<!-- ndp_rs_input&#45;&gt;control_output -->
<g id="edge60" class="edge">
<title>ndp_rs_input&#45;&gt;control_output</title>
<path fill="none" stroke="black" d="M758.65,-204.17C835.17,-210.39 1005.38,-224.24 1093.96,-231.44"/>
<polygon fill="black" stroke="black" points="1093.63,-234.93 1103.88,-232.25 1094.19,-227.95 1093.63,-234.93"/>
</g>
<!-- ip6_forward&#45;&gt;ip6_output -->
<g id="edge46" class="edge">
<title>ip6_forward&#45;&gt;ip6_output</title>
<path fill="none" stroke="black" d="M508.58,-393C579.66,-393 736.08,-393 813.04,-393"/>
<polygon fill="black" stroke="black" points="812.73,-396.5 822.73,-393 812.73,-389.5 812.73,-396.5"/>
</g>
<!-- ip6_hold&#45;&gt;control_output -->
<g id="edge47" class="edge">
<title>ip6_hold&#45;&gt;control_output</title>
<path fill="none" stroke="black" d="M1029.2,-341.76C1052.23,-321.6 1094.66,-284.45 1122.6,-259.98"/>
<polygon fill="black" stroke="black" points="1124.76,-262.74 1129.98,-253.52 1120.15,-257.47 1124.76,-262.74"/>
</g>
<!-- ip6_input_local&#45;&gt;l4_input_local -->
<g id="edge52" class="edge">
<title>ip6_input_local&#45;&gt;l4_input_local</title>
<path fill="none" stroke="black" d="M498.76,-461.75C516.57,-471.56 540.16,-484.54 559.59,-495.23"/>
<polygon fill="black" stroke="black" points="557.83,-498.25 568.28,-500.01 561.2,-492.12 557.83,-498.25"/>
</g>
<!-- ip6_input_local&#45;&gt;icmp6_input -->
<g id="edge51" class="edge">
<title>ip6_input_local&#45;&gt;icmp6_input</title>
<path fill="none" stroke="black" d="M501.81,-433.44C507.65,-429.74 513.29,-425.26 517.63,-420 564.53,-363.09 584.16,-275.83 591.55,-230.56"/>
<polygon fill="black" stroke="black" points="595.01,-231.13 593.06,-220.71 588.09,-230.07 595.01,-231.13"/>
</g>
<!-- l4_loopback_output&#45;&gt;loopback_output -->
<g id="edge64" class="edge">
<title>l4_loopback_output&#45;&gt;loopback_output</title>
<path fill="none" stroke="black" d="M900.95,-463.88C919.69,-457.94 942,-450.86 961.61,-444.64"/>
<polygon fill="black" stroke="black" points="962.58,-448.01 971.05,-441.65 960.46,-441.34 962.58,-448.01"/>
</g>
</g>
</svg>
