<?xml version="1.0" encoding="UTF-8" standalone="no"?>
<!DOCTYPE svg PUBLIC "-//W3C//DTD SVG 1.1//EN"
 "http://www.w3.org/Graphics/SVG/1.1/DTD/svg11.dtd">
<!-- Generated by graphviz version 2.44.0 (0)
 -->
<!-- Title: gr&#45;0&#45;0002&#45;dplane Pages: 1 -->
<svg width="1837pt" height="839pt"
 viewBox="0.00 0.00 1837.14 839.00" xmlns="http://www.w3.org/2000/svg" xmlns:xlink="http://www.w3.org/1999/xlink">
<g id="graph0" class="graph" transform="scale(1 1) rotate(0) translate(4 835)">
<title>gr&#45;0&#45;0002&#45;dplane</title>
<polygon fill="white" stroke="transparent" points="-4,4 -4,-835 1833.14,-835 1833.14,4 -4,4"/>
<!-- control_input -->
<g id="node1" class="node">
<title>control_input</title>
<ellipse fill="none" stroke="blue" stroke-width="2" cx="40.16" cy="-575" rx="40.32" ry="18"/>
<text text-anchor="middle" x="40.16" y="-572.2" font-family="sans" font-size="11.00">control_input</text>
</g>
<!-- loopback_input -->
<g id="node2" class="node">
<title>loopback_input</title>
<ellipse fill="none" stroke="black" cx="161.91" cy="-450" rx="45.68" ry="18"/>
<text text-anchor="middle" x="161.91" y="-447.2" font-family="sans" font-size="11.00">loopback_input</text>
</g>
<!-- control_input&#45;&gt;loopback_input -->
<g id="edge1" class="edge">
<title>control_input&#45;&gt;loopback_input</title>
<path fill="none" stroke="blue" stroke-width="2" d="M57.06,-558.4C77.7,-536.85 113.88,-499.09 137.62,-474.31"/>
<polygon fill="blue" stroke="blue" stroke-width="2" points="140.17,-476.71 144.56,-467.07 135.11,-471.87 140.17,-476.71"/>
</g>
<!-- arp_output_request -->
<g id="node3" class="node">
<title>arp_output_request</title>
<ellipse fill="none" stroke="black" cx="705.9" cy="-137" rx="59.31" ry="18"/>
<text text-anchor="middle" x="705.9" y="-134.2" font-family="sans" font-size="11.00">arp_output_request</text>
</g>
<!-- control_input&#45;&gt;arp_output_request -->
<g id="edge2" class="edge">
<title>control_input&#45;&gt;arp_output_request</title>
<path fill="none" stroke="blue" stroke-width="2" d="M44.01,-556.83C50.6,-520.2 70.01,-436.62 116.32,-385 259.15,-225.82 520.87,-165.72 641.24,-145.76"/>
<polygon fill="blue" stroke="blue" stroke-width="2" points="642.09,-149.17 651.4,-144.12 640.97,-142.26 642.09,-149.17"/>
</g>
<!-- icmp_local_send -->
<g id="node4" class="node">
<title>icmp_local_send</title>
<ellipse fill="none" stroke="black" cx="292.89" cy="-388" rx="49.28" ry="18"/>
<text text-anchor="middle" x="292.89" y="-385.2" font-family="sans" font-size="11.00">icmp_local_send</text>
</g>
<!-- control_input&#45;&gt;icmp_local_send -->
<g id="edge3" class="edge">
<title>control_input&#45;&gt;icmp_local_send</title>
<path fill="none" stroke="blue" stroke-width="2" d="M44.66,-556.94C51.93,-524.63 71.82,-457.13 116.32,-423 149.57,-397.5 196.5,-389.15 233.47,-386.96"/>
<polygon fill="blue" stroke="blue" stroke-width="2" points="233.78,-390.45 243.61,-386.5 233.46,-383.46 233.78,-390.45"/>
</g>
<!-- icmp6_local_send -->
<g id="node5" class="node">
<title>icmp6_local_send</title>
<ellipse fill="none" stroke="black" cx="431.46" cy="-766" rx="53.37" ry="18"/>
<text text-anchor="middle" x="431.46" y="-763.2" font-family="sans" font-size="11.00">icmp6_local_send</text>
</g>
<!-- control_input&#45;&gt;icmp6_local_send -->
<g id="edge4" class="edge">
<title>control_input&#45;&gt;icmp6_local_send</title>
<path fill="none" stroke="blue" stroke-width="2" d="M45.32,-593.01C53.36,-623.5 74.1,-684.89 116.32,-715 191.31,-768.48 301.83,-773.94 369.82,-771.24"/>
<polygon fill="blue" stroke="blue" stroke-width="2" points="370.12,-774.73 379.94,-770.76 369.79,-767.73 370.12,-774.73"/>
</g>
<!-- ndp_ns_output -->
<g id="node6" class="node">
<title>ndp_ns_output</title>
<ellipse fill="none" stroke="black" cx="565.69" cy="-747" rx="44.51" ry="18"/>
<text text-anchor="middle" x="565.69" y="-744.2" font-family="sans" font-size="11.00">ndp_ns_output</text>
</g>
<!-- control_input&#45;&gt;ndp_ns_output -->
<g id="edge5" class="edge">
<title>control_input&#45;&gt;ndp_ns_output</title>
<path fill="none" stroke="blue" stroke-width="2" d="M73.12,-585.5C162.93,-615.01 417.69,-698.7 520.68,-732.54"/>
<polygon fill="blue" stroke="blue" stroke-width="2" points="519.86,-735.95 530.45,-735.75 522.05,-729.3 519.86,-735.95"/>
</g>
<!-- ip6_output -->
<g id="node7" class="node">
<title>ip6_output</title>
<ellipse fill="none" stroke="black" cx="1493.38" cy="-498" rx="32.63" ry="18"/>
<text text-anchor="middle" x="1493.38" y="-495.2" font-family="sans" font-size="11.00">ip6_output</text>
</g>
<!-- control_input&#45;&gt;ip6_output -->
<g id="edge6" class="edge">
<title>control_input&#45;&gt;ip6_output</title>
<path fill="none" stroke="blue" stroke-width="2" d="M44.54,-593.15C51.82,-627.68 72.08,-703.44 116.32,-749 176.32,-810.78 205.77,-831 291.89,-831 291.89,-831 291.89,-831 1243.83,-831 1395.72,-831 1465.89,-605.75 1486.02,-525.77"/>
<polygon fill="blue" stroke="blue" stroke-width="2" points="1489.46,-526.45 1488.43,-515.9 1482.66,-524.79 1489.46,-526.45"/>
</g>
<!-- ip_input -->
<g id="node11" class="node">
<title>ip_input</title>
<ellipse fill="none" stroke="black" cx="565.69" cy="-294" rx="27" ry="18"/>
<text text-anchor="middle" x="565.69" y="-291.2" font-family="sans" font-size="11.00">ip_input</text>
</g>
<!-- loopback_input&#45;&gt;ip_input -->
<g id="edge12" class="edge">
<title>loopback_input&#45;&gt;ip_input</title>
<path fill="none" stroke="black" d="M173.68,-432.58C187.3,-412.08 212.75,-378.62 243.5,-361 336.48,-307.73 466.25,-296.57 528.53,-294.4"/>
<polygon fill="black" stroke="black" points="528.75,-297.89 538.64,-294.1 528.55,-290.9 528.75,-297.89"/>
</g>
<!-- ip6_input -->
<g id="node12" class="node">
<title>ip6_input</title>
<ellipse fill="none" stroke="black" cx="292.89" cy="-450" rx="28.44" ry="18"/>
<text text-anchor="middle" x="292.89" y="-447.2" font-family="sans" font-size="11.00">ip6_input</text>
</g>
<!-- loopback_input&#45;&gt;ip6_input -->
<g id="edge13" class="edge">
<title>loopback_input&#45;&gt;ip6_input</title>
<path fill="none" stroke="black" d="M207.66,-450C222.88,-450 239.73,-450 254.33,-450"/>
<polygon fill="black" stroke="black" points="254.51,-453.5 264.51,-450 254.51,-446.5 254.51,-453.5"/>
</g>
<!-- eth_output -->
<g id="node13" class="node">
<title>eth_output</title>
<ellipse fill="none" stroke="black" cx="1638.47" cy="-146" rx="33.8" ry="18"/>
<text text-anchor="middle" x="1638.47" y="-143.2" font-family="sans" font-size="11.00">eth_output</text>
</g>
<!-- arp_output_request&#45;&gt;eth_output -->
<g id="edge25" class="edge">
<title>arp_output_request&#45;&gt;eth_output</title>
<path fill="none" stroke="black" d="M764.31,-140.06C818.27,-142.67 901.27,-146 973.36,-146 973.36,-146 973.36,-146 1365.58,-146 1446.34,-146 1540.59,-146 1594.23,-146"/>
<polygon fill="black" stroke="black" points="1594.4,-149.5 1604.4,-146 1594.4,-142.5 1594.4,-149.5"/>
</g>
<!-- icmp_output -->
<g id="node28" class="node">
<title>icmp_output</title>
<ellipse fill="none" stroke="black" cx="1110.22" cy="-291" rx="37.98" ry="18"/>
<text text-anchor="middle" x="1110.22" y="-288.2" font-family="sans" font-size="11.00">icmp_output</text>
</g>
<!-- icmp_local_send&#45;&gt;icmp_output -->
<g id="edge29" class="edge">
<title>icmp_local_send&#45;&gt;icmp_output</title>
<path fill="none" stroke="black" d="M342.53,-386.83C354.23,-386.55 366.7,-386.26 378.27,-386 414.44,-385.18 995.95,-386.3 1029.18,-372 1055.79,-360.55 1078.17,-335.66 1092.43,-316.47"/>
<polygon fill="black" stroke="black" points="1095.43,-318.3 1098.4,-308.13 1089.74,-314.23 1095.43,-318.3"/>
</g>
<!-- icmp6_output -->
<g id="node39" class="node">
<title>icmp6_output</title>
<ellipse fill="none" stroke="black" cx="1242.83" cy="-671" rx="41.58" ry="18"/>
<text text-anchor="middle" x="1242.83" y="-668.2" font-family="sans" font-size="11.00">icmp6_output</text>
</g>
<!-- icmp6_local_send&#45;&gt;icmp6_output -->
<g id="edge53" class="edge">
<title>icmp6_local_send&#45;&gt;icmp6_output</title>
<path fill="none" stroke="black" d="M480.06,-773.59C534.32,-781.58 625.76,-793 704.9,-793 704.9,-793 704.9,-793 975.36,-793 1058.59,-793 1081.47,-779.49 1155.27,-741 1178.54,-728.87 1201.47,-709.91 1217.88,-694.78"/>
<polygon fill="black" stroke="black" points="1220.51,-697.12 1225.39,-687.71 1215.71,-692.02 1220.51,-697.12"/>
</g>
<!-- ndp_ns_output&#45;&gt;icmp6_output -->
<g id="edge69" class="edge">
<title>ndp_ns_output&#45;&gt;icmp6_output</title>
<path fill="none" stroke="black" d="M609.96,-749.04C664.06,-751.41 759.5,-755 841.3,-755 841.3,-755 841.3,-755 975.36,-755 1061.71,-755 1156.83,-714.38 1206.76,-689.63"/>
<polygon fill="black" stroke="black" points="1208.48,-692.68 1215.83,-685.06 1205.33,-686.43 1208.48,-692.68"/>
</g>
<!-- ip6_output&#45;&gt;eth_output -->
<g id="edge62" class="edge">
<title>ip6_output&#45;&gt;eth_output</title>
<path fill="none" stroke="black" d="M1513.22,-483.7C1525.87,-473.17 1542,-457.81 1551.99,-441 1604.75,-352.27 1626.59,-229.04 1634.11,-174.23"/>
<polygon fill="black" stroke="black" points="1637.59,-174.58 1635.43,-164.21 1630.65,-173.67 1637.59,-174.58"/>
</g>
<!-- loopback_output -->
<g id="node16" class="node">
<title>loopback_output</title>
<ellipse fill="none" stroke="black" cx="1638.47" cy="-414" rx="50.45" ry="18"/>
<text text-anchor="middle" x="1638.47" y="-411.2" font-family="sans" font-size="11.00">loopback_output</text>
</g>
<!-- ip6_output&#45;&gt;loopback_output -->
<g id="edge64" class="edge">
<title>ip6_output&#45;&gt;loopback_output</title>
<path fill="none" stroke="black" d="M1516.42,-485.06C1539.46,-471.54 1575.91,-450.14 1602.8,-434.35"/>
<polygon fill="black" stroke="black" points="1604.67,-437.31 1611.52,-429.23 1601.12,-431.28 1604.67,-437.31"/>
</g>
<!-- sr6_output -->
<g id="node33" class="node">
<title>sr6_output</title>
<ellipse fill="none" stroke="black" cx="1364.58" cy="-452" rx="33.21" ry="18"/>
<text text-anchor="middle" x="1364.58" y="-449.2" font-family="sans" font-size="11.00">sr6_output</text>
</g>
<!-- ip6_output&#45;&gt;sr6_output -->
<g id="edge65" class="edge">
<title>ip6_output&#45;&gt;sr6_output</title>
<path fill="none" stroke="black" d="M1461.86,-492.8C1442.1,-486.8 1416.46,-477.5 1396.6,-469.15"/>
<polygon fill="black" stroke="black" points="1397.94,-465.92 1387.37,-465.15 1395.16,-472.34 1397.94,-465.92"/>
</g>
<!-- ip6_hold -->
<g id="node44" class="node">
<title>ip6_hold</title>
<ellipse fill="none" stroke="black" cx="1638.47" cy="-519" rx="27" ry="18"/>
<text text-anchor="middle" x="1638.47" y="-516.2" font-family="sans" font-size="11.00">ip6_hold</text>
</g>
<!-- ip6_output&#45;&gt;ip6_hold -->
<g id="edge63" class="edge">
<title>ip6_output&#45;&gt;ip6_hold</title>
<path fill="none" stroke="black" d="M1525.08,-502.51C1547.54,-505.8 1578.08,-510.28 1601.65,-513.74"/>
<polygon fill="black" stroke="black" points="1601.21,-517.22 1611.61,-515.21 1602.23,-510.29 1601.21,-517.22"/>
</g>
<!-- control_output -->
<g id="node8" class="node">
<title>control_output</title>
<ellipse fill="none" stroke="black" cx="1777.04" cy="-414" rx="44.51" ry="18"/>
<text text-anchor="middle" x="1777.04" y="-411.2" font-family="sans" font-size="11.00">control_output</text>
</g>
<!-- eth_input -->
<g id="node9" class="node">
<title>eth_input</title>
<ellipse fill="none" stroke="black" cx="161.91" cy="-132" rx="29.12" ry="18"/>
<text text-anchor="middle" x="161.91" y="-129.2" font-family="sans" font-size="11.00">eth_input</text>
</g>
<!-- arp_input -->
<g id="node10" class="node">
<title>arp_input</title>
<ellipse fill="none" stroke="black" cx="842.3" cy="-91" rx="29.12" ry="18"/>
<text text-anchor="middle" x="842.3" y="-88.2" font-family="sans" font-size="11.00">arp_input</text>
</g>
<!-- eth_input&#45;&gt;arp_input -->
<g id="edge7" class="edge">
<title>eth_input&#45;&gt;arp_input</title>
<path fill="none" stroke="black" d="M189.29,-125.23C237.05,-113.58 341.18,-91 430.46,-91 430.46,-91 430.46,-91 566.69,-91 650.77,-91 749.32,-91 802.51,-91"/>
<polygon fill="black" stroke="black" points="802.84,-94.5 812.84,-91 802.84,-87.5 802.84,-94.5"/>
</g>
<!-- eth_input&#45;&gt;ip_input -->
<g id="edge8" class="edge">
<title>eth_input&#45;&gt;ip_input</title>
<path fill="none" stroke="black" d="M186.84,-141.65C255.7,-169.41 454.36,-249.51 532.54,-281.04"/>
<polygon fill="black" stroke="black" points="531.31,-284.31 541.89,-284.81 533.93,-277.82 531.31,-284.31"/>
</g>
<!-- eth_input&#45;&gt;ip6_input -->
<g id="edge9" class="edge">
<title>eth_input&#45;&gt;ip6_input</title>
<path fill="none" stroke="black" d="M164,-149.96C167.66,-197.45 182.98,-328.6 243.5,-415 248.35,-421.93 255.02,-427.99 261.86,-433.04"/>
<polygon fill="black" stroke="black" points="260.25,-436.18 270.49,-438.88 264.17,-430.38 260.25,-436.18"/>
</g>
<!-- arp_input_request -->
<g id="node22" class="node">
<title>arp_input_request</title>
<ellipse fill="none" stroke="black" cx="974.36" cy="-46" rx="54.63" ry="18"/>
<text text-anchor="middle" x="974.36" y="-43.2" font-family="sans" font-size="11.00">arp_input_request</text>
</g>
<!-- arp_input&#45;&gt;arp_input_request -->
<g id="edge20" class="edge">
<title>arp_input&#45;&gt;arp_input_request</title>
<path fill="none" stroke="black" d="M868.38,-82.32C884.8,-76.64 906.76,-69.04 926.36,-62.26"/>
<polygon fill="black" stroke="black" points="927.74,-65.49 936.05,-58.91 925.45,-58.87 927.74,-65.49"/>
</g>
<!-- arp_input_reply -->
<g id="node23" class="node">
<title>arp_input_reply</title>
<ellipse fill="none" stroke="black" cx="974.36" cy="-100" rx="47.43" ry="18"/>
<text text-anchor="middle" x="974.36" y="-97.2" font-family="sans" font-size="11.00">arp_input_reply</text>
</g>
<!-- arp_input&#45;&gt;arp_input_reply -->
<g id="edge21" class="edge">
<title>arp_input&#45;&gt;arp_input_reply</title>
<path fill="none" stroke="black" d="M871.52,-92.95C885,-93.89 901.63,-95.04 917.52,-96.14"/>
<polygon fill="black" stroke="black" points="917.59,-99.65 927.81,-96.85 918.07,-92.67 917.59,-99.65"/>
</g>
<!-- ip_output -->
<g id="node19" class="node">
<title>ip_output</title>
<ellipse fill="none" stroke="black" cx="1242.83" cy="-268" rx="29.12" ry="18"/>
<text text-anchor="middle" x="1242.83" y="-265.2" font-family="sans" font-size="11.00">ip_output</text>
</g>
<!-- ip_input&#45;&gt;ip_output -->
<g id="edge34" class="edge">
<title>ip_input&#45;&gt;ip_output</title>
<path fill="none" stroke="black" d="M592.76,-291.02C651.17,-284.51 797,-269.2 919.55,-264 1024.22,-259.56 1050.53,-261.58 1155.27,-264 1170.88,-264.36 1188.06,-265.09 1202.97,-265.82"/>
<polygon fill="black" stroke="black" points="1203.21,-269.34 1213.38,-266.35 1203.57,-262.35 1203.21,-269.34"/>
</g>
<!-- dnat44 -->
<g id="node24" class="node">
<title>dnat44</title>
<ellipse fill="none" stroke="black" cx="705.9" cy="-229" rx="27" ry="18"/>
<text text-anchor="middle" x="705.9" y="-226.2" font-family="sans" font-size="11.00">dnat44</text>
</g>
<!-- ip_input&#45;&gt;dnat44 -->
<g id="edge36" class="edge">
<title>ip_input&#45;&gt;dnat44</title>
<path fill="none" stroke="black" d="M588.29,-283.84C611.41,-272.97 648.29,-255.62 674.38,-243.35"/>
<polygon fill="black" stroke="black" points="675.89,-246.51 683.45,-239.08 672.91,-240.17 675.89,-246.51"/>
</g>
<!-- ip_forward -->
<g id="node25" class="node">
<title>ip_forward</title>
<ellipse fill="none" stroke="black" cx="842.3" cy="-207" rx="32.63" ry="18"/>
<text text-anchor="middle" x="842.3" y="-204.2" font-family="sans" font-size="11.00">ip_forward</text>
</g>
<!-- ip_input&#45;&gt;ip_forward -->
<g id="edge33" class="edge">
<title>ip_input&#45;&gt;ip_forward</title>
<path fill="none" stroke="black" d="M575.54,-276.81C588,-254.71 613.02,-217.36 646.74,-202 697.06,-179.08 762.54,-187.51 803.24,-196.57"/>
<polygon fill="black" stroke="black" points="802.5,-199.99 813.03,-198.87 804.1,-193.17 802.5,-199.99"/>
</g>
<!-- ip_input_local -->
<g id="node26" class="node">
<title>ip_input_local</title>
<ellipse fill="none" stroke="black" cx="842.3" cy="-305" rx="41.49" ry="18"/>
<text text-anchor="middle" x="842.3" y="-302.2" font-family="sans" font-size="11.00">ip_input_local</text>
</g>
<!-- ip_input&#45;&gt;ip_input_local -->
<g id="edge35" class="edge">
<title>ip_input&#45;&gt;ip_input_local</title>
<path fill="none" stroke="black" d="M593.02,-295.05C638.49,-296.88 732.43,-300.64 790.83,-302.98"/>
<polygon fill="black" stroke="black" points="790.82,-306.48 800.95,-303.38 791.1,-299.49 790.82,-306.48"/>
</g>
<!-- ip6_input&#45;&gt;ip6_output -->
<g id="edge57" class="edge">
<title>ip6_input&#45;&gt;ip6_output</title>
<path fill="none" stroke="black" d="M320.84,-453.17C337.4,-455.05 359.04,-457.37 378.27,-459 441.45,-464.36 457.31,-465.02 520.65,-468 880.14,-484.91 1314.91,-494.46 1450.17,-497.18"/>
<polygon fill="black" stroke="black" points="1450.42,-500.69 1460.49,-497.39 1450.56,-493.69 1450.42,-500.69"/>
</g>
<!-- ip6_forward -->
<g id="node43" class="node">
<title>ip6_forward</title>
<ellipse fill="none" stroke="black" cx="431.46" cy="-618" rx="35.64" ry="18"/>
<text text-anchor="middle" x="431.46" y="-615.2" font-family="sans" font-size="11.00">ip6_forward</text>
</g>
<!-- ip6_input&#45;&gt;ip6_forward -->
<g id="edge56" class="edge">
<title>ip6_input&#45;&gt;ip6_forward</title>
<path fill="none" stroke="black" d="M306.74,-465.81C330.65,-495.22 382.13,-558.55 410.57,-593.54"/>
<polygon fill="black" stroke="black" points="407.92,-595.82 416.94,-601.37 413.35,-591.4 407.92,-595.82"/>
</g>
<!-- ip6_input_local -->
<g id="node45" class="node">
<title>ip6_input_local</title>
<ellipse fill="none" stroke="black" cx="565.69" cy="-441" rx="45.09" ry="18"/>
<text text-anchor="middle" x="565.69" y="-438.2" font-family="sans" font-size="11.00">ip6_input_local</text>
</g>
<!-- ip6_input&#45;&gt;ip6_input_local -->
<g id="edge58" class="edge">
<title>ip6_input&#45;&gt;ip6_input_local</title>
<path fill="none" stroke="black" d="M321.09,-449.1C365.16,-447.63 452.98,-444.71 510.26,-442.81"/>
<polygon fill="black" stroke="black" points="510.7,-446.3 520.58,-442.47 510.47,-439.3 510.7,-446.3"/>
</g>
<!-- sr6_local -->
<g id="node46" class="node">
<title>sr6_local</title>
<ellipse fill="none" stroke="black" cx="431.46" cy="-413" rx="27.86" ry="18"/>
<text text-anchor="middle" x="431.46" y="-410.2" font-family="sans" font-size="11.00">sr6_local</text>
</g>
<!-- ip6_input&#45;&gt;sr6_local -->
<g id="edge59" class="edge">
<title>ip6_input&#45;&gt;sr6_local</title>
<path fill="none" stroke="black" d="M315.53,-439.05C336.55,-431.53 368.87,-422.45 393.89,-416.85"/>
<polygon fill="black" stroke="black" points="394.71,-420.25 403.76,-414.75 393.26,-413.41 394.71,-420.25"/>
</g>
<!-- port_tx -->
<g id="node14" class="node">
<title>port_tx</title>
<ellipse fill="none" stroke="black" cx="1777.04" cy="-73" rx="27" ry="18"/>
<text text-anchor="middle" x="1777.04" y="-70.2" font-family="sans" font-size="11.00">port_tx</text>
</g>
<!-- eth_output&#45;&gt;port_tx -->
<g id="edge10" class="edge">
<title>eth_output&#45;&gt;port_tx</title>
<path fill="none" stroke="black" d="M1662.95,-133.45C1686.07,-121.09 1721.48,-102.16 1746.51,-88.79"/>
<polygon fill="black" stroke="black" points="1748.37,-91.76 1755.54,-83.96 1745.07,-85.58 1748.37,-91.76"/>
</g>
<!-- l1_xconnect -->
<g id="node15" class="node">
<title>l1_xconnect</title>
<ellipse fill="none" stroke="black" cx="292.89" cy="-23" rx="36.23" ry="18"/>
<text text-anchor="middle" x="292.89" y="-20.2" font-family="sans" font-size="11.00">l1_xconnect</text>
</g>
<!-- l1_xconnect&#45;&gt;port_tx -->
<g id="edge11" class="edge">
<title>l1_xconnect&#45;&gt;port_tx</title>
<path fill="none" stroke="black" d="M328.01,-18.23C379.28,-11.5 479.29,0 564.69,0 564.69,0 564.69,0 1494.38,0 1587.91,0 1693.49,-38.19 1744.76,-59.32"/>
<polygon fill="black" stroke="black" points="1743.69,-62.67 1754.27,-63.31 1746.4,-56.21 1743.69,-62.67"/>
</g>
<!-- loopback_output&#45;&gt;control_output -->
<g id="edge14" class="edge">
<title>loopback_output&#45;&gt;control_output</title>
<path fill="none" stroke="black" d="M1689.16,-414C1699.91,-414 1711.33,-414 1722.23,-414"/>
<polygon fill="black" stroke="black" points="1722.48,-417.5 1732.48,-414 1722.48,-410.5 1722.48,-417.5"/>
</g>
<!-- port_rx -->
<g id="node17" class="node">
<title>port_rx</title>
<ellipse fill="none" stroke="blue" stroke-width="2" cx="40.16" cy="-86" rx="27" ry="18"/>
<text text-anchor="middle" x="40.16" y="-83.2" font-family="sans" font-size="11.00">port_rx</text>
</g>
<!-- port_rx&#45;&gt;eth_input -->
<g id="edge15" class="edge">
<title>port_rx&#45;&gt;eth_input</title>
<path fill="none" stroke="blue" stroke-width="2" d="M63.97,-94.76C81.81,-101.62 106.9,-111.25 127.08,-119.01"/>
<polygon fill="blue" stroke="blue" stroke-width="2" points="125.95,-122.32 136.54,-122.64 128.46,-115.79 125.95,-122.32"/>
</g>
<!-- port_rx&#45;&gt;l1_xconnect -->
<g id="edge16" class="edge">
<title>port_rx&#45;&gt;l1_xconnect</title>
<path fill="none" stroke="blue" stroke-width="2" d="M65.66,-79.84C108.49,-69.08 197.44,-46.73 250.14,-33.49"/>
<polygon fill="blue" stroke="blue" stroke-width="2" points="251.01,-36.88 259.86,-31.05 249.3,-30.09 251.01,-36.88"/>
</g>
<!-- nh4_unreachable -->
<g id="node18" class="node">
<title>nh4_unreachable</title>
<ellipse fill="none" stroke="black" cx="1493.38" cy="-276" rx="52.2" ry="18"/>
<text text-anchor="middle" x="1493.38" y="-273.2" font-family="sans" font-size="11.00">nh4_unreachable</text>
</g>
<!-- nh4_unreachable&#45;&gt;ip_output -->
<g id="edge17" class="edge">
<title>nh4_unreachable&#45;&gt;ip_output</title>
<path fill="none" stroke="black" d="M1461.97,-261.46C1444.03,-253.7 1420.62,-244.95 1398.77,-241 1368.86,-235.59 1360.43,-236.42 1330.38,-241 1312.64,-243.7 1293.53,-249.35 1277.79,-254.79"/>
<polygon fill="black" stroke="black" points="1276.22,-251.64 1267.98,-258.3 1278.58,-258.23 1276.22,-251.64"/>
</g>
<!-- ip_output&#45;&gt;eth_output -->
<g id="edge40" class="edge">
<title>ip_output&#45;&gt;eth_output</title>
<path fill="none" stroke="black" d="M1267.08,-257.8C1284.36,-250.41 1308.61,-240.46 1330.38,-233 1424.83,-200.63 1538.45,-170.73 1597.47,-155.86"/>
<polygon fill="black" stroke="black" points="1598.64,-159.17 1607.49,-153.34 1596.94,-152.38 1598.64,-159.17"/>
</g>
<!-- ip_output&#45;&gt;loopback_output -->
<g id="edge42" class="edge">
<title>ip_output&#45;&gt;loopback_output</title>
<path fill="none" stroke="black" d="M1256.23,-284.35C1271.49,-303.18 1299.23,-333.53 1330.38,-349 1419.88,-393.46 1454.88,-363.45 1551.99,-387 1565.13,-390.19 1579.19,-394.32 1592.04,-398.39"/>
<polygon fill="black" stroke="black" points="1591,-401.73 1601.59,-401.47 1593.15,-395.07 1591,-401.73"/>
</g>
<!-- ip_hold -->
<g id="node29" class="node">
<title>ip_hold</title>
<ellipse fill="none" stroke="black" cx="1364.58" cy="-322" rx="27" ry="18"/>
<text text-anchor="middle" x="1364.58" y="-319.2" font-family="sans" font-size="11.00">ip_hold</text>
</g>
<!-- ip_output&#45;&gt;ip_hold -->
<g id="edge41" class="edge">
<title>ip_output&#45;&gt;ip_hold</title>
<path fill="none" stroke="black" d="M1266.91,-278.41C1285.57,-286.83 1312.01,-298.75 1332.52,-308"/>
<polygon fill="black" stroke="black" points="1331.21,-311.25 1341.77,-312.17 1334.09,-304.86 1331.21,-311.25"/>
</g>
<!-- ipip_output -->
<g id="node32" class="node">
<title>ipip_output</title>
<ellipse fill="none" stroke="black" cx="1364.58" cy="-268" rx="34.38" ry="18"/>
<text text-anchor="middle" x="1364.58" y="-265.2" font-family="sans" font-size="11.00">ipip_output</text>
</g>
<!-- ip_output&#45;&gt;ipip_output -->
<g id="edge43" class="edge">
<title>ip_output&#45;&gt;ipip_output</title>
<path fill="none" stroke="black" d="M1270.7,-262.26C1285.78,-261.23 1304.91,-260.99 1321.89,-261.53"/>
<polygon fill="black" stroke="black" points="1321.99,-265.04 1332.13,-261.98 1322.29,-258.05 1321.99,-265.04"/>
</g>
<!-- ip_output&#45;&gt;sr6_output -->
<g id="edge44" class="edge">
<title>ip_output&#45;&gt;sr6_output</title>
<path fill="none" stroke="black" d="M1254.66,-284.65C1275.66,-316.92 1322.02,-388.15 1346.94,-426.45"/>
<polygon fill="black" stroke="black" points="1344.11,-428.51 1352.5,-434.98 1349.98,-424.69 1344.11,-428.51"/>
</g>
<!-- arp_probe -->
<g id="node20" class="node">
<title>arp_probe</title>
<ellipse fill="none" stroke="black" cx="1110.22" cy="-100" rx="30.87" ry="18"/>
<text text-anchor="middle" x="1110.22" y="-97.2" font-family="sans" font-size="11.00">arp_probe</text>
</g>
<!-- arp_probe&#45;&gt;ip_output -->
<g id="edge18" class="edge">
<title>arp_probe&#45;&gt;ip_output</title>
<path fill="none" stroke="black" d="M1123.98,-116.41C1147.06,-146.1 1195.83,-208.84 1222.84,-243.58"/>
<polygon fill="black" stroke="black" points="1220.3,-246.02 1229.21,-251.77 1225.83,-241.72 1220.3,-246.02"/>
</g>
<!-- arp_output_reply -->
<g id="node21" class="node">
<title>arp_output_reply</title>
<ellipse fill="none" stroke="black" cx="1242.83" cy="-100" rx="51.62" ry="18"/>
<text text-anchor="middle" x="1242.83" y="-97.2" font-family="sans" font-size="11.00">arp_output_reply</text>
</g>
<!-- arp_probe&#45;&gt;arp_output_reply -->
<g id="edge19" class="edge">
<title>arp_probe&#45;&gt;arp_output_reply</title>
<path fill="none" stroke="black" d="M1141.18,-100C1153.12,-100 1167.32,-100 1181.22,-100"/>
<polygon fill="black" stroke="black" points="1181.26,-103.5 1191.26,-100 1181.26,-96.5 1181.26,-103.5"/>
</g>
<!-- arp_output_reply&#45;&gt;eth_output -->
<g id="edge24" class="edge">
<title>arp_output_reply&#45;&gt;eth_output</title>
<path fill="none" stroke="black" d="M1293.03,-104.21C1353.95,-109.63 1460.83,-119.81 1551.99,-132 1566.51,-133.94 1582.34,-136.43 1596.4,-138.77"/>
<polygon fill="black" stroke="black" points="1595.83,-142.22 1606.27,-140.44 1597,-135.32 1595.83,-142.22"/>
</g>
<!-- arp_input_request&#45;&gt;arp_probe -->
<g id="edge23" class="edge">
<title>arp_input_request&#45;&gt;arp_probe</title>
<path fill="none" stroke="black" d="M1009.83,-59.91C1029.8,-67.96 1054.86,-78.07 1074.82,-86.12"/>
<polygon fill="black" stroke="black" points="1073.58,-89.4 1084.17,-89.89 1076.2,-82.91 1073.58,-89.4"/>
</g>
<!-- arp_input_reply&#45;&gt;arp_probe -->
<g id="edge22" class="edge">
<title>arp_input_reply&#45;&gt;arp_probe</title>
<path fill="none" stroke="black" d="M1021.8,-100C1037.12,-100 1054.01,-100 1068.83,-100"/>
<polygon fill="black" stroke="black" points="1069.21,-103.5 1079.21,-100 1069.21,-96.5 1069.21,-103.5"/>
</g>
<!-- dnat44&#45;&gt;ip_forward -->
<g id="edge26" class="edge">
<title>dnat44&#45;&gt;ip_forward</title>
<path fill="none" stroke="black" d="M732.18,-224.86C751.56,-221.69 778.7,-217.25 801.06,-213.59"/>
<polygon fill="black" stroke="black" points="801.65,-217.04 810.96,-211.97 800.52,-210.13 801.65,-217.04"/>
</g>
<!-- dnat44&#45;&gt;ip_input_local -->
<g id="edge27" class="edge">
<title>dnat44&#45;&gt;ip_input_local</title>
<path fill="none" stroke="black" d="M727.02,-240.38C748.28,-252.4 782.18,-271.57 807.54,-285.91"/>
<polygon fill="black" stroke="black" points="806.04,-289.08 816.46,-290.96 809.48,-282.99 806.04,-289.08"/>
</g>
<!-- ip_forward&#45;&gt;ip_output -->
<g id="edge31" class="edge">
<title>ip_forward&#45;&gt;ip_output</title>
<path fill="none" stroke="black" d="M874.83,-206.06C931.73,-205.11 1055.02,-206.43 1155.27,-231 1174.51,-235.72 1194.93,-244.26 1211.11,-251.95"/>
<polygon fill="black" stroke="black" points="1209.58,-255.1 1220.1,-256.35 1212.65,-248.81 1209.58,-255.1"/>
</g>
<!-- icmp_input -->
<g id="node27" class="node">
<title>icmp_input</title>
<ellipse fill="none" stroke="black" cx="974.36" cy="-291" rx="33.8" ry="18"/>
<text text-anchor="middle" x="974.36" y="-288.2" font-family="sans" font-size="11.00">icmp_input</text>
</g>
<!-- ip_input_local&#45;&gt;icmp_input -->
<g id="edge37" class="edge">
<title>ip_input_local&#45;&gt;icmp_input</title>
<path fill="none" stroke="black" d="M882.68,-300.76C897.86,-299.13 915.27,-297.25 930.75,-295.59"/>
<polygon fill="black" stroke="black" points="931.54,-299.02 941.11,-294.47 930.79,-292.06 931.54,-299.02"/>
</g>
<!-- ipip_input -->
<g id="node30" class="node">
<title>ipip_input</title>
<ellipse fill="none" stroke="black" cx="974.36" cy="-345" rx="29.7" ry="18"/>
<text text-anchor="middle" x="974.36" y="-342.2" font-family="sans" font-size="11.00">ipip_input</text>
</g>
<!-- ip_input_local&#45;&gt;ipip_input -->
<g id="edge38" class="edge">
<title>ip_input_local&#45;&gt;ipip_input</title>
<path fill="none" stroke="black" d="M876.46,-315.2C895.08,-320.93 918.35,-328.08 937.41,-333.94"/>
<polygon fill="black" stroke="black" points="936.65,-337.37 947.23,-336.96 938.7,-330.68 936.65,-337.37"/>
</g>
<!-- l4_input_local -->
<g id="node31" class="node">
<title>l4_input_local</title>
<ellipse fill="none" stroke="black" cx="974.36" cy="-437" rx="41.49" ry="18"/>
<text text-anchor="middle" x="974.36" y="-434.2" font-family="sans" font-size="11.00">l4_input_local</text>
</g>
<!-- ip_input_local&#45;&gt;l4_input_local -->
<g id="edge39" class="edge">
<title>ip_input_local&#45;&gt;l4_input_local</title>
<path fill="none" stroke="black" d="M859.51,-321.45C882.19,-344.47 923.55,-386.45 949.69,-412.97"/>
<polygon fill="black" stroke="black" points="947.44,-415.67 956.95,-420.34 952.42,-410.76 947.44,-415.67"/>
</g>
<!-- icmp_input&#45;&gt;icmp_output -->
<g id="edge28" class="edge">
<title>icmp_input&#45;&gt;icmp_output</title>
<path fill="none" stroke="black" d="M1008.11,-291C1024.28,-291 1044.1,-291 1061.89,-291"/>
<polygon fill="black" stroke="black" points="1062.09,-294.5 1072.09,-291 1062.09,-287.5 1062.09,-294.5"/>
</g>
<!-- icmp_output&#45;&gt;ip_output -->
<g id="edge30" class="edge">
<title>icmp_output&#45;&gt;ip_output</title>
<path fill="none" stroke="black" d="M1146.22,-284.84C1164.12,-281.68 1185.91,-277.85 1204.17,-274.63"/>
<polygon fill="black" stroke="black" points="1204.94,-278.05 1214.18,-272.87 1203.72,-271.16 1204.94,-278.05"/>
</g>
<!-- ip_hold&#45;&gt;nh4_unreachable -->
<g id="edge32" class="edge">
<title>ip_hold&#45;&gt;nh4_unreachable</title>
<path fill="none" stroke="black" d="M1388.54,-313.67C1404.85,-307.75 1427.3,-299.61 1447.15,-292.41"/>
<polygon fill="black" stroke="black" points="1448.44,-295.66 1456.65,-288.96 1446.05,-289.08 1448.44,-295.66"/>
</g>
<!-- ipip_input&#45;&gt;ip_input -->
<g id="edge71" class="edge">
<title>ipip_input&#45;&gt;ip_input</title>
<path fill="none" stroke="black" d="M944.31,-343.72C887.01,-340.85 755.53,-332.55 646.74,-313 631.58,-310.28 614.99,-306.48 600.86,-302.99"/>
<polygon fill="black" stroke="black" points="601.62,-299.57 591.07,-300.53 599.91,-306.36 601.62,-299.57"/>
</g>
<!-- l4_loopback_output -->
<g id="node47" class="node">
<title>l4_loopback_output</title>
<ellipse fill="none" stroke="black" cx="1493.38" cy="-414" rx="58.73" ry="18"/>
<text text-anchor="middle" x="1493.38" y="-411.2" font-family="sans" font-size="11.00">l4_loopback_output</text>
</g>
<!-- l4_input_local&#45;&gt;l4_loopback_output -->
<g id="edge73" class="edge">
<title>l4_input_local&#45;&gt;l4_loopback_output</title>
<path fill="none" stroke="black" d="M1015.5,-435.21C1103.76,-431.29 1315.51,-421.87 1424.71,-417.01"/>
<polygon fill="black" stroke="black" points="1425.12,-420.5 1434.95,-416.55 1424.81,-413.5 1425.12,-420.5"/>
</g>
<!-- ipip_output&#45;&gt;ip_output -->
<g id="edge72" class="edge">
<title>ipip_output&#45;&gt;ip_output</title>
<path fill="none" stroke="black" d="M1332.13,-274.02C1316.46,-274.89 1297.41,-274.98 1281.02,-274.3"/>
<polygon fill="black" stroke="black" points="1280.87,-270.79 1270.7,-273.74 1280.5,-277.78 1280.87,-270.79"/>
</g>
<!-- sr6_output&#45;&gt;ip6_output -->
<g id="edge78" class="edge">
<title>sr6_output&#45;&gt;ip6_output</title>
<path fill="none" stroke="black" d="M1396.27,-457.26C1416.05,-463.27 1441.68,-472.57 1461.49,-480.91"/>
<polygon fill="black" stroke="black" points="1460.14,-484.13 1470.7,-484.9 1462.92,-477.71 1460.14,-484.13"/>
</g>
<!-- nh6_unreachable -->
<g id="node34" class="node">
<title>nh6_unreachable</title>
<ellipse fill="none" stroke="black" cx="1777.04" cy="-487" rx="52.2" ry="18"/>
<text text-anchor="middle" x="1777.04" y="-484.2" font-family="sans" font-size="11.00">nh6_unreachable</text>
</g>
<!-- nh6_unreachable&#45;&gt;ip6_output -->
<g id="edge45" class="edge">
<title>nh6_unreachable&#45;&gt;ip6_output</title>
<path fill="none" stroke="black" d="M1724.94,-487.84C1687.11,-488.59 1634.32,-489.9 1587.99,-492 1571.05,-492.77 1552.39,-493.9 1536.22,-494.98"/>
<polygon fill="black" stroke="black" points="1535.74,-491.51 1526,-495.68 1536.21,-498.49 1535.74,-491.51"/>
</g>
<!-- ndp_probe -->
<g id="node35" class="node">
<title>ndp_probe</title>
<ellipse fill="none" stroke="black" cx="974.36" cy="-602" rx="32.63" ry="18"/>
<text text-anchor="middle" x="974.36" y="-599.2" font-family="sans" font-size="11.00">ndp_probe</text>
</g>
<!-- ndp_probe&#45;&gt;ip6_output -->
<g id="edge47" class="edge">
<title>ndp_probe&#45;&gt;ip6_output</title>
<path fill="none" stroke="black" d="M1005.39,-595.96C1093.75,-578.19 1352.87,-526.06 1452.61,-506"/>
<polygon fill="black" stroke="black" points="1453.48,-509.4 1462.59,-503.99 1452.09,-502.53 1453.48,-509.4"/>
</g>
<!-- ndp_na_output -->
<g id="node36" class="node">
<title>ndp_na_output</title>
<ellipse fill="none" stroke="black" cx="1110.22" cy="-620" rx="45.09" ry="18"/>
<text text-anchor="middle" x="1110.22" y="-617.2" font-family="sans" font-size="11.00">ndp_na_output</text>
</g>
<!-- ndp_probe&#45;&gt;ndp_na_output -->
<g id="edge46" class="edge">
<title>ndp_probe&#45;&gt;ndp_na_output</title>
<path fill="none" stroke="black" d="M1006.07,-606.13C1021.23,-608.17 1039.95,-610.68 1057.25,-613.01"/>
<polygon fill="black" stroke="black" points="1056.87,-616.49 1067.24,-614.36 1057.8,-609.55 1056.87,-616.49"/>
</g>
<!-- ndp_na_output&#45;&gt;icmp6_output -->
<g id="edge67" class="edge">
<title>ndp_na_output&#45;&gt;icmp6_output</title>
<path fill="none" stroke="black" d="M1143.17,-632.48C1160.79,-639.36 1182.84,-647.97 1201.62,-655.3"/>
<polygon fill="black" stroke="black" points="1200.52,-658.63 1211.11,-659 1203.06,-652.11 1200.52,-658.63"/>
</g>
<!-- ndp_router_solicit -->
<g id="node37" class="node">
<title>ndp_router_solicit</title>
<ellipse fill="none" stroke="black" cx="974.36" cy="-529" rx="53.96" ry="18"/>
<text text-anchor="middle" x="974.36" y="-526.2" font-family="sans" font-size="11.00">ndp_router_solicit</text>
</g>
<!-- icmp6_input -->
<g id="node38" class="node">
<title>icmp6_input</title>
<ellipse fill="none" stroke="black" cx="705.9" cy="-579" rx="37.4" ry="18"/>
<text text-anchor="middle" x="705.9" y="-576.2" font-family="sans" font-size="11.00">icmp6_input</text>
</g>
<!-- icmp6_input&#45;&gt;icmp6_output -->
<g id="edge48" class="edge">
<title>icmp6_input&#45;&gt;icmp6_output</title>
<path fill="none" stroke="black" d="M720.05,-595.82C736.55,-615.43 766.85,-646.82 801.05,-660 935.97,-711.97 1111.73,-693.24 1194.63,-679.85"/>
<polygon fill="black" stroke="black" points="1195.22,-683.3 1204.51,-678.2 1194.07,-676.39 1195.22,-683.3"/>
</g>
<!-- ndp_ns_input -->
<g id="node40" class="node">
<title>ndp_ns_input</title>
<ellipse fill="none" stroke="black" cx="842.3" cy="-633" rx="40.32" ry="18"/>
<text text-anchor="middle" x="842.3" y="-630.2" font-family="sans" font-size="11.00">ndp_ns_input</text>
</g>
<!-- icmp6_input&#45;&gt;ndp_ns_input -->
<g id="edge49" class="edge">
<title>icmp6_input&#45;&gt;ndp_ns_input</title>
<path fill="none" stroke="black" d="M735.07,-590.32C754.56,-598.15 780.76,-608.68 802.26,-617.31"/>
<polygon fill="black" stroke="black" points="801.18,-620.65 811.77,-621.13 803.79,-614.16 801.18,-620.65"/>
</g>
<!-- ndp_na_input -->
<g id="node41" class="node">
<title>ndp_na_input</title>
<ellipse fill="none" stroke="black" cx="842.3" cy="-579" rx="40.91" ry="18"/>
<text text-anchor="middle" x="842.3" y="-576.2" font-family="sans" font-size="11.00">ndp_na_input</text>
</g>
<!-- icmp6_input&#45;&gt;ndp_na_input -->
<g id="edge50" class="edge">
<title>icmp6_input&#45;&gt;ndp_na_input</title>
<path fill="none" stroke="black" d="M743.62,-579C758.29,-579 775.41,-579 791.18,-579"/>
<polygon fill="black" stroke="black" points="791.32,-582.5 801.32,-579 791.32,-575.5 791.32,-582.5"/>
</g>
<!-- ndp_rs_input -->
<g id="node42" class="node">
<title>ndp_rs_input</title>
<ellipse fill="none" stroke="black" cx="842.3" cy="-525" rx="39.15" ry="18"/>
<text text-anchor="middle" x="842.3" y="-522.2" font-family="sans" font-size="11.00">ndp_rs_input</text>
</g>
<!-- icmp6_input&#45;&gt;ndp_rs_input -->
<g id="edge51" class="edge">
<title>icmp6_input&#45;&gt;ndp_rs_input</title>
<path fill="none" stroke="black" d="M735.07,-567.68C754.7,-559.79 781.12,-549.18 802.7,-540.51"/>
<polygon fill="black" stroke="black" points="804.26,-543.65 812.23,-536.68 801.65,-537.16 804.26,-543.65"/>
</g>
<!-- icmp6_output&#45;&gt;ip6_output -->
<g id="edge52" class="edge">
<title>icmp6_output&#45;&gt;ip6_output</title>
<path fill="none" stroke="black" d="M1265.88,-655.65C1311.05,-624.21 1414.02,-552.54 1464.05,-517.72"/>
<polygon fill="black" stroke="black" points="1466.26,-520.45 1472.47,-511.86 1462.26,-514.7 1466.26,-520.45"/>
</g>
<!-- ndp_ns_input&#45;&gt;ndp_probe -->
<g id="edge68" class="edge">
<title>ndp_ns_input&#45;&gt;ndp_probe</title>
<path fill="none" stroke="black" d="M878.15,-624.69C895.39,-620.58 916.26,-615.61 934.06,-611.37"/>
<polygon fill="black" stroke="black" points="935.22,-614.69 944.13,-608.97 933.6,-607.88 935.22,-614.69"/>
</g>
<!-- ndp_na_input&#45;&gt;ndp_probe -->
<g id="edge66" class="edge">
<title>ndp_na_input&#45;&gt;ndp_probe</title>
<path fill="none" stroke="black" d="M880.57,-585.59C896.98,-588.49 916.3,-591.91 933.04,-594.87"/>
<polygon fill="black" stroke="black" points="932.63,-598.35 943.09,-596.65 933.85,-591.46 932.63,-598.35"/>
</g>
<!-- ndp_rs_input&#45;&gt;ndp_router_solicit -->
<g id="edge70" class="edge">
<title>ndp_rs_input&#45;&gt;ndp_router_solicit</title>
<path fill="none" stroke="black" d="M881.62,-526.18C890.63,-526.46 900.47,-526.76 910.24,-527.06"/>
<polygon fill="black" stroke="black" points="910.27,-530.56 920.38,-527.37 910.49,-523.56 910.27,-530.56"/>
</g>
<!-- ip6_forward&#45;&gt;ip6_output -->
<g id="edge54" class="edge">
<title>ip6_forward&#45;&gt;ip6_output</title>
<path fill="none" stroke="black" d="M462.31,-627.4C543.5,-652.11 775.51,-717 973.36,-717 973.36,-717 973.36,-717 1243.83,-717 1359.32,-717 1446.57,-582.23 1478.81,-524.14"/>
<polygon fill="black" stroke="black" points="1481.98,-525.64 1483.68,-515.18 1475.83,-522.3 1481.98,-525.64"/>
</g>
<!-- ip6_hold&#45;&gt;nh6_unreachable -->
<g id="edge55" class="edge">
<title>ip6_hold&#45;&gt;nh6_unreachable</title>
<path fill="none" stroke="black" d="M1664.2,-513.21C1680.78,-509.32 1703.24,-504.06 1723.68,-499.27"/>
<polygon fill="black" stroke="black" points="1724.59,-502.65 1733.52,-496.96 1722.99,-495.84 1724.59,-502.65"/>
</g>
<!-- ip6_input_local&#45;&gt;l4_input_local -->
<g id="edge61" class="edge">
<title>ip6_input_local&#45;&gt;l4_input_local</title>
<path fill="none" stroke="black" d="M610.99,-440.56C687.13,-439.82 842.39,-438.29 922.71,-437.5"/>
<polygon fill="black" stroke="black" points="923.09,-440.99 933.06,-437.4 923.02,-434 923.09,-440.99"/>
</g>
<!-- ip6_input_local&#45;&gt;icmp6_input -->
<g id="edge60" class="edge">
<title>ip6_input_local&#45;&gt;icmp6_input</title>
<path fill="none" stroke="black" d="M583.36,-457.65C607.78,-482.02 653.37,-527.54 681.24,-555.38"/>
<polygon fill="black" stroke="black" points="679.05,-558.13 688.6,-562.72 683.99,-553.18 679.05,-558.13"/>
</g>
<!-- sr6_local&#45;&gt;ip_input -->
<g id="edge75" class="edge">
<title>sr6_local&#45;&gt;ip_input</title>
<path fill="none" stroke="black" d="M448.41,-398.65C471.44,-377.92 514.18,-339.46 540.94,-315.38"/>
<polygon fill="black" stroke="black" points="543.59,-317.7 548.69,-308.41 538.91,-312.49 543.59,-317.7"/>
</g>
<!-- sr6_local&#45;&gt;ip6_input -->
<g id="edge76" class="edge">
<title>sr6_local&#45;&gt;ip6_input</title>
<path fill="none" stroke="black" d="M409.03,-423.88C388.18,-431.35 356.1,-440.38 331.08,-446.01"/>
<polygon fill="black" stroke="black" points="330.24,-442.61 321.2,-448.13 331.71,-449.45 330.24,-442.61"/>
</g>
<!-- sr6_local&#45;&gt;ip6_input_local -->
<g id="edge77" class="edge">
<title>sr6_local&#45;&gt;ip6_input_local</title>
<path fill="none" stroke="black" d="M457.96,-418.4C474.25,-421.85 495.93,-426.44 515.48,-430.58"/>
<polygon fill="black" stroke="black" points="514.97,-434.05 525.48,-432.7 516.42,-427.2 514.97,-434.05"/>
</g>
<!-- l4_loopback_output&#45;&gt;loopback_output -->
<g id="edge74" class="edge">
<title>l4_loopback_output&#45;&gt;loopback_output</title>
<path fill="none" stroke="black" d="M1552.17,-414C1560.55,-414 1569.19,-414 1577.61,-414"/>
<polygon fill="black" stroke="black" points="1577.74,-417.5 1587.74,-414 1577.74,-410.5 1577.74,-417.5"/>
</g>
</g>
</svg>
