<?xml version="1.0" encoding="UTF-8" standalone="no"?>
<!DOCTYPE svg PUBLIC "-//W3C//DTD SVG 1.1//EN"
 "http://www.w3.org/Graphics/SVG/1.1/DTD/svg11.dtd">
<!-- Generated by graphviz version 12.2.1 (20241206.2353)
 -->
<!-- Pages: 1 -->
<svg width="2247pt" height="987pt"
 viewBox="0.00 0.00 2247.01 987.00" xmlns="http://www.w3.org/2000/svg" xmlns:xlink="http://www.w3.org/1999/xlink">
<g id="graph0" class="graph" transform="scale(1 1) rotate(0) translate(4 983)">
<polygon fill="white" stroke="none" points="-4,4 -4,-983 2243.01,-983 2243.01,4 -4,4"/>
<!-- bond_output -->
<g id="node1" class="node">
<title>bond_output</title>
<ellipse fill="none" stroke="black" cx="1997.08" cy="-831" rx="40.69" ry="18"/>
<text text-anchor="middle" x="1997.08" y="-828.42" font-family="sans" font-size="11.00">bond_output</text>
</g>
<!-- port_output -->
<g id="node3" class="node">
<title>port_output</title>
<ellipse fill="none" stroke="black" cx="2111.39" cy="-877" rx="37.62" ry="18"/>
<text text-anchor="middle" x="2111.39" y="-874.42" font-family="sans" font-size="11.00">port_output</text>
</g>
<!-- bond_output&#45;&gt;port_output -->
<g id="edge1" class="edge">
<title>bond_output&#45;&gt;port_output</title>
<path fill="none" stroke="darkorange" d="M2027.88,-843.21C2041.24,-848.68 2057.18,-855.21 2071.46,-861.06"/>
<polygon fill="darkorange" stroke="darkorange" points="2070.02,-864.25 2080.6,-864.8 2072.67,-857.77 2070.02,-864.25"/>
</g>
<!-- l1_xconnect -->
<g id="node2" class="node">
<title>l1_xconnect</title>
<ellipse fill="none" stroke="black" cx="891.87" cy="-961" rx="36.74" ry="18"/>
<text text-anchor="middle" x="891.87" y="-958.42" font-family="sans" font-size="11.00">l1_xconnect</text>
</g>
<!-- l1_xconnect&#45;&gt;port_output -->
<g id="edge9" class="edge">
<title>l1_xconnect&#45;&gt;port_output</title>
<path fill="none" stroke="darkorange" d="M928.9,-961C971.49,-961 1044.51,-961 1107.21,-961 1107.21,-961 1107.21,-961 1886.84,-961 1959.04,-961 2036.46,-922.13 2078.58,-897.27"/>
<polygon fill="darkorange" stroke="darkorange" points="2080.2,-900.38 2086.96,-892.22 2076.59,-894.39 2080.2,-900.38"/>
</g>
<!-- port_tx -->
<g id="node5" class="node">
<title>port_tx</title>
<ellipse fill="none" stroke="black" cx="2212.01" cy="-877" rx="27" ry="18"/>
<text text-anchor="middle" x="2212.01" y="-874.42" font-family="sans" font-size="11.00">port_tx</text>
</g>
<!-- port_output&#45;&gt;port_tx -->
<g id="edge15" class="edge">
<title>port_output&#45;&gt;port_tx</title>
<path fill="none" stroke="black" d="M2149.39,-877C2157.16,-877 2165.36,-877 2173.16,-877"/>
<polygon fill="black" stroke="black" points="2173.06,-880.5 2183.06,-877 2173.06,-873.5 2173.06,-880.5"/>
</g>
<!-- port_rx -->
<g id="node4" class="node">
<title>port_rx</title>
<ellipse fill="none" stroke="blue" stroke-width="2" cx="27" cy="-915" rx="27" ry="18"/>
<text text-anchor="middle" x="27" y="-912.42" font-family="sans" font-size="11.00">port_rx</text>
</g>
<!-- port_rx&#45;&gt;l1_xconnect -->
<g id="edge17" class="edge">
<title>port_rx&#45;&gt;l1_xconnect</title>
<path fill="none" stroke="blue" stroke-width="2" d="M52,-922.51C92.81,-934.59 178.5,-957 252.72,-957 252.72,-957 252.72,-957 640.91,-957 711.42,-957 793.12,-958.61 843.4,-959.79"/>
<polygon fill="blue" stroke="blue" stroke-width="2" points="841.75,-963.25 851.83,-959.99 841.92,-956.25 841.75,-963.25"/>
</g>
<!-- eth_input -->
<g id="node6" class="node">
<title>eth_input</title>
<ellipse fill="none" stroke="black" cx="136.95" cy="-137" rx="30.17" ry="18"/>
<text text-anchor="middle" x="136.95" y="-134.43" font-family="sans" font-size="11.00">eth_input</text>
</g>
<!-- port_rx&#45;&gt;eth_input -->
<g id="edge16" class="edge">
<title>port_rx&#45;&gt;eth_input</title>
<path fill="none" stroke="blue" stroke-width="2" d="M29.87,-896.85C36.76,-830.7 61.8,-596.31 90,-404 102.71,-317.34 121.24,-215.48 130.4,-166.38"/>
<polygon fill="blue" stroke="blue" stroke-width="2" points="133.56,-168.53 131.96,-158.06 126.68,-167.24 133.56,-168.53"/>
</g>
<!-- l2_bridge -->
<g id="node51" class="node">
<title>l2_bridge</title>
<ellipse fill="none" stroke="black" cx="1757.47" cy="-915" rx="29.73" ry="18"/>
<text text-anchor="middle" x="1757.47" y="-912.42" font-family="sans" font-size="11.00">l2_bridge</text>
</g>
<!-- port_rx&#45;&gt;l2_bridge -->
<g id="edge18" class="edge">
<title>port_rx&#45;&gt;l2_bridge</title>
<path fill="none" stroke="blue" stroke-width="2" d="M54.29,-915C96.25,-915 180.94,-915 252.72,-915 252.72,-915 252.72,-915 1454.37,-915 1548.09,-915 1658.16,-915 1716.1,-915"/>
<polygon fill="blue" stroke="blue" stroke-width="2" points="1714.28,-918.5 1724.28,-915 1714.28,-911.5 1714.28,-918.5"/>
</g>
<!-- lacp_input -->
<g id="node8" class="node">
<title>lacp_input</title>
<polygon fill="none" stroke="dodgerblue" points="287.55,-36 219.9,-36 219.9,0 287.55,0 287.55,-36"/>
<text text-anchor="middle" x="253.72" y="-15.43" font-family="sans" font-size="11.00">lacp_input</text>
</g>
<!-- eth_input&#45;&gt;lacp_input -->
<g id="edge3" class="edge">
<title>eth_input&#45;&gt;lacp_input</title>
<path fill="none" stroke="black" d="M151.16,-120.69C166.8,-101.74 193.99,-69.91 219.9,-45 220.27,-44.64 220.65,-44.28 221.03,-43.92"/>
<polygon fill="black" stroke="black" points="223.14,-46.73 228.25,-37.46 218.47,-41.52 223.14,-46.73"/>
</g>
<!-- snap_input -->
<g id="node10" class="node">
<title>snap_input</title>
<ellipse fill="none" stroke="black" cx="1108.21" cy="-118" rx="34.99" ry="18"/>
<text text-anchor="middle" x="1108.21" y="-115.42" font-family="sans" font-size="11.00">snap_input</text>
</g>
<!-- eth_input&#45;&gt;snap_input -->
<g id="edge2" class="edge">
<title>eth_input&#45;&gt;snap_input</title>
<path fill="none" stroke="black" d="M166.92,-133.2C211.77,-127.66 300.76,-118 376.62,-118 376.62,-118 376.62,-118 892.87,-118 951.16,-118 1018.36,-118 1061.75,-118"/>
<polygon fill="black" stroke="black" points="1061.54,-121.5 1071.54,-118 1061.54,-114.5 1061.54,-121.5"/>
</g>
<!-- arp_input -->
<g id="node11" class="node">
<title>arp_input</title>
<ellipse fill="none" stroke="black" cx="253.72" cy="-72" rx="30.61" ry="18"/>
<text text-anchor="middle" x="253.72" y="-69.42" font-family="sans" font-size="11.00">arp_input</text>
</g>
<!-- eth_input&#45;&gt;arp_input -->
<g id="edge4" class="edge">
<title>eth_input&#45;&gt;arp_input</title>
<path fill="none" stroke="black" d="M159.54,-124.77C176.82,-114.99 201.32,-101.11 220.86,-90.05"/>
<polygon fill="black" stroke="black" points="222.55,-93.11 229.53,-85.14 219.1,-87.02 222.55,-93.11"/>
</g>
<!-- ip_input -->
<g id="node22" class="node">
<title>ip_input</title>
<ellipse fill="none" stroke="black" cx="253.72" cy="-343" rx="27" ry="18"/>
<text text-anchor="middle" x="253.72" y="-340.43" font-family="sans" font-size="11.00">ip_input</text>
</g>
<!-- eth_input&#45;&gt;ip_input -->
<g id="edge5" class="edge">
<title>eth_input&#45;&gt;ip_input</title>
<path fill="none" stroke="black" d="M147.54,-154.21C167.5,-190.05 213.68,-272.91 237.66,-315.95"/>
<polygon fill="black" stroke="black" points="234.58,-317.63 242.51,-324.66 240.7,-314.22 234.58,-317.63"/>
</g>
<!-- ip6_input -->
<g id="node28" class="node">
<title>ip6_input</title>
<ellipse fill="none" stroke="black" cx="1108.21" cy="-404" rx="29.73" ry="18"/>
<text text-anchor="middle" x="1108.21" y="-401.43" font-family="sans" font-size="11.00">ip6_input</text>
</g>
<!-- eth_input&#45;&gt;ip6_input -->
<g id="edge6" class="edge">
<title>eth_input&#45;&gt;ip6_input</title>
<path fill="none" stroke="black" d="M166.92,-140.8C211.77,-146.34 300.76,-156 376.62,-156 376.62,-156 376.62,-156 512.02,-156 747.6,-156 998.07,-323.59 1079.76,-383.24"/>
<polygon fill="black" stroke="black" points="1077.52,-385.94 1087.65,-389.06 1081.68,-380.31 1077.52,-385.94"/>
</g>
<!-- eth_output -->
<g id="node7" class="node">
<title>eth_output</title>
<ellipse fill="none" stroke="black" cx="1885.84" cy="-785" rx="34.55" ry="18"/>
<text text-anchor="middle" x="1885.84" y="-782.42" font-family="sans" font-size="11.00">eth_output</text>
</g>
<!-- eth_output&#45;&gt;bond_output -->
<g id="edge7" class="edge">
<title>eth_output&#45;&gt;bond_output</title>
<path fill="none" stroke="black" d="M1913.57,-796.25C1926.45,-801.68 1942.17,-808.3 1956.41,-814.3"/>
<polygon fill="black" stroke="black" points="1954.98,-817.49 1965.56,-818.15 1957.7,-811.04 1954.98,-817.49"/>
</g>
<!-- eth_output&#45;&gt;port_output -->
<g id="edge8" class="edge">
<title>eth_output&#45;&gt;port_output</title>
<path fill="none" stroke="darkorange" d="M1920.71,-783.12C1952.53,-782.73 2000.67,-785.78 2037.77,-804 2059.5,-814.67 2078.56,-834.48 2091.69,-850.78"/>
<polygon fill="darkorange" stroke="darkorange" points="2088.91,-852.9 2097.79,-858.67 2094.45,-848.62 2088.91,-852.9"/>
</g>
<!-- lacp_output -->
<g id="node9" class="node">
<title>lacp_output</title>
<polygon fill="none" stroke="dodgerblue" points="1795.04,-787 1719.89,-787 1719.89,-751 1795.04,-751 1795.04,-787"/>
<text text-anchor="middle" x="1757.47" y="-766.42" font-family="sans" font-size="11.00">lacp_output</text>
</g>
<!-- lacp_output&#45;&gt;eth_output -->
<g id="edge10" class="edge">
<title>lacp_output&#45;&gt;eth_output</title>
<path fill="none" stroke="dodgerblue" d="M1795.36,-773.67C1809.64,-775.48 1826.1,-777.56 1840.99,-779.45"/>
<polygon fill="dodgerblue" stroke="dodgerblue" points="1840.13,-782.87 1850.49,-780.65 1841.01,-775.92 1840.13,-782.87"/>
</g>
<!-- l2_redirect -->
<g id="node52" class="node">
<title>l2_redirect</title>
<ellipse fill="none" stroke="black" cx="1602.8" cy="-118" rx="33.24" ry="18"/>
<text text-anchor="middle" x="1602.8" y="-115.42" font-family="sans" font-size="11.00">l2_redirect</text>
</g>
<!-- snap_input&#45;&gt;l2_redirect -->
<g id="edge19" class="edge">
<title>snap_input&#45;&gt;l2_redirect</title>
<path fill="none" stroke="black" d="M1143.46,-118C1230.59,-118 1460.63,-118 1557.65,-118"/>
<polygon fill="black" stroke="black" points="1557.56,-121.5 1567.56,-118 1557.56,-114.5 1557.56,-121.5"/>
</g>
<!-- arp_input_reply -->
<g id="node12" class="node">
<title>arp_input_reply</title>
<polygon fill="none" stroke="dodgerblue" points="424.95,-90 330.3,-90 330.3,-54 424.95,-54 424.95,-90"/>
<text text-anchor="middle" x="377.62" y="-69.42" font-family="sans" font-size="11.00">arp_input_reply</text>
</g>
<!-- arp_input&#45;&gt;arp_input_reply -->
<g id="edge21" class="edge">
<title>arp_input&#45;&gt;arp_input_reply</title>
<path fill="none" stroke="black" d="M284.55,-72C294.91,-72 306.91,-72 318.76,-72"/>
<polygon fill="black" stroke="black" points="318.5,-75.5 328.5,-72 318.5,-68.5 318.5,-75.5"/>
</g>
<!-- arp_input_request -->
<g id="node13" class="node">
<title>arp_input_request</title>
<polygon fill="none" stroke="dodgerblue" points="431.7,-36 323.55,-36 323.55,0 431.7,0 431.7,-36"/>
<text text-anchor="middle" x="377.62" y="-15.43" font-family="sans" font-size="11.00">arp_input_request</text>
</g>
<!-- arp_input&#45;&gt;arp_input_request -->
<g id="edge20" class="edge">
<title>arp_input&#45;&gt;arp_input_request</title>
<path fill="none" stroke="black" d="M278.81,-61.33C292.01,-55.48 308.92,-47.99 324.94,-40.89"/>
<polygon fill="black" stroke="black" points="326.19,-44.17 333.92,-36.92 323.36,-37.77 326.19,-44.17"/>
</g>
<!-- arp_output_reply -->
<g id="node14" class="node">
<title>arp_output_reply</title>
<polygon fill="none" stroke="dodgerblue" points="1808.54,-733 1706.39,-733 1706.39,-697 1808.54,-697 1808.54,-733"/>
<text text-anchor="middle" x="1757.47" y="-712.42" font-family="sans" font-size="11.00">arp_output_reply</text>
</g>
<!-- arp_output_reply&#45;&gt;eth_output -->
<g id="edge22" class="edge">
<title>arp_output_reply&#45;&gt;eth_output</title>
<path fill="none" stroke="dodgerblue" d="M1798.79,-733.48C1804.38,-736.24 1810.02,-739.13 1815.29,-742 1828.25,-749.05 1842.14,-757.47 1854.08,-764.97"/>
<polygon fill="dodgerblue" stroke="dodgerblue" points="1851.99,-767.79 1862.31,-770.2 1855.75,-761.88 1851.99,-767.79"/>
</g>
<!-- arp_output_request -->
<g id="node15" class="node">
<title>arp_output_request</title>
<polygon fill="none" stroke="dodgerblue" points="1815.29,-841 1699.64,-841 1699.64,-805 1815.29,-805 1815.29,-841"/>
<text text-anchor="middle" x="1757.47" y="-820.42" font-family="sans" font-size="11.00">arp_output_request</text>
</g>
<!-- arp_output_request&#45;&gt;eth_output -->
<g id="edge23" class="edge">
<title>arp_output_request&#45;&gt;eth_output</title>
<path fill="none" stroke="dodgerblue" d="M1815.74,-805.78C1825.49,-802.85 1835.43,-799.86 1844.62,-797.1"/>
<polygon fill="dodgerblue" stroke="dodgerblue" points="1845.38,-800.52 1853.94,-794.29 1843.36,-793.82 1845.38,-800.52"/>
</g>
<!-- loopback_input -->
<g id="node16" class="node">
<title>loopback_input</title>
<polygon fill="none" stroke="dodgerblue" points="183.9,-449 90,-449 90,-413 183.9,-413 183.9,-449"/>
<text text-anchor="middle" x="136.95" y="-428.43" font-family="sans" font-size="11.00">loopback_input</text>
</g>
<!-- loopback_input&#45;&gt;ip_input -->
<g id="edge11" class="edge">
<title>loopback_input&#45;&gt;ip_input</title>
<path fill="none" stroke="dodgerblue" d="M162.01,-412.55C180.77,-398.17 206.79,-378.22 226.15,-363.37"/>
<polygon fill="dodgerblue" stroke="dodgerblue" points="228.06,-366.32 233.86,-357.46 223.8,-360.77 228.06,-366.32"/>
</g>
<!-- loopback_input&#45;&gt;ip6_input -->
<g id="edge12" class="edge">
<title>loopback_input&#45;&gt;ip6_input</title>
<path fill="none" stroke="dodgerblue" d="M182.4,-449.47C229.69,-467.42 307.13,-492 376.62,-492 376.62,-492 376.62,-492 640.91,-492 803.65,-492 992.88,-439.6 1070.82,-415.67"/>
<polygon fill="dodgerblue" stroke="dodgerblue" points="1071.54,-419.11 1080.05,-412.81 1069.46,-412.43 1071.54,-419.11"/>
</g>
<!-- loopback_output -->
<g id="node17" class="node">
<title>loopback_output</title>
<polygon fill="none" stroke="dodgerblue" points="1808.17,-190 1706.77,-190 1706.77,-154 1808.17,-154 1808.17,-190"/>
<text text-anchor="middle" x="1757.47" y="-169.43" font-family="sans" font-size="11.00">loopback_output</text>
</g>
<!-- loop_xvrf -->
<g id="node18" class="node">
<title>loop_xvrf</title>
<ellipse fill="none" stroke="black" cx="1000.92" cy="-486" rx="29.73" ry="18"/>
<text text-anchor="middle" x="1000.92" y="-483.43" font-family="sans" font-size="11.00">loop_xvrf</text>
</g>
<!-- loop_xvrf&#45;&gt;ip_input -->
<g id="edge13" class="edge">
<title>loop_xvrf&#45;&gt;ip_input</title>
<path fill="none" stroke="black" d="M971.6,-481.75C911.07,-473.05 764.49,-454 640.91,-454 510.02,-454 510.02,-454 510.02,-454 425.44,-454 397.45,-457.14 323.55,-416 302.81,-404.46 284.65,-384.52 272.2,-368.4"/>
<polygon fill="black" stroke="black" points="275.22,-366.6 266.45,-360.65 269.6,-370.77 275.22,-366.6"/>
</g>
<!-- loop_xvrf&#45;&gt;ip6_input -->
<g id="edge14" class="edge">
<title>loop_xvrf&#45;&gt;ip6_input</title>
<path fill="none" stroke="black" d="M1019.78,-472.09C1036.34,-459.19 1061.22,-439.82 1080.21,-425.03"/>
<polygon fill="black" stroke="black" points="1082.33,-427.81 1088.07,-418.91 1078.03,-422.29 1082.33,-427.81"/>
</g>
<!-- ip_forward -->
<g id="node19" class="node">
<title>ip_forward</title>
<ellipse fill="none" stroke="black" cx="511.02" cy="-389" rx="34.55" ry="18"/>
<text text-anchor="middle" x="511.02" y="-386.43" font-family="sans" font-size="11.00">ip_forward</text>
</g>
<!-- ip_output -->
<g id="node25" class="node">
<title>ip_output</title>
<ellipse fill="none" stroke="black" cx="891.87" cy="-676" rx="30.61" ry="18"/>
<text text-anchor="middle" x="891.87" y="-673.42" font-family="sans" font-size="11.00">ip_output</text>
</g>
<!-- ip_forward&#45;&gt;ip_output -->
<g id="edge27" class="edge">
<title>ip_forward&#45;&gt;ip_output</title>
<path fill="none" stroke="black" d="M512.38,-407.28C514.3,-451.15 525.63,-562.91 590.33,-619 668.51,-686.77 717.51,-642.54 819.13,-662 829.45,-663.98 840.6,-666.14 850.97,-668.16"/>
<polygon fill="black" stroke="black" points="850.28,-671.59 860.77,-670.08 851.62,-664.72 850.28,-671.59"/>
</g>
<!-- ip_fragment -->
<g id="node20" class="node">
<title>ip_fragment</title>
<ellipse fill="none" stroke="black" cx="772.3" cy="-776" rx="38.5" ry="18"/>
<text text-anchor="middle" x="772.3" y="-773.42" font-family="sans" font-size="11.00">ip_fragment</text>
</g>
<!-- ip_fragment&#45;&gt;ip_output -->
<g id="edge28" class="edge">
<title>ip_fragment&#45;&gt;ip_output</title>
<path fill="none" stroke="black" d="M789.66,-759.8C798.72,-753.82 809.96,-747.16 819.13,-740 835.32,-727.35 851.53,-711.22 864.43,-698.18"/>
<polygon fill="black" stroke="black" points="866.79,-700.77 871.33,-691.2 861.81,-695.85 866.79,-700.77"/>
</g>
<!-- ip_hold -->
<g id="node21" class="node">
<title>ip_hold</title>
<polygon fill="none" stroke="dodgerblue" points="1027.92,-682 973.92,-682 973.92,-646 1027.92,-646 1027.92,-682"/>
<text text-anchor="middle" x="1000.92" y="-661.42" font-family="sans" font-size="11.00">ip_hold</text>
</g>
<!-- ip_input&#45;&gt;ip_forward -->
<g id="edge29" class="edge">
<title>ip_input&#45;&gt;ip_forward</title>
<path fill="none" stroke="black" d="M268.52,-358.51C281.29,-371.61 301.59,-389.41 323.55,-397 371.36,-413.52 430.19,-406.92 468.83,-399.25"/>
<polygon fill="black" stroke="black" points="469.1,-402.77 478.17,-397.28 467.66,-395.92 469.1,-402.77"/>
</g>
<!-- ip_input_local -->
<g id="node24" class="node">
<title>ip_input_local</title>
<ellipse fill="none" stroke="black" cx="511.02" cy="-316" rx="43.32" ry="18"/>
<text text-anchor="middle" x="511.02" y="-313.43" font-family="sans" font-size="11.00">ip_input_local</text>
</g>
<!-- ip_input&#45;&gt;ip_input_local -->
<g id="edge32" class="edge">
<title>ip_input&#45;&gt;ip_input_local</title>
<path fill="none" stroke="black" d="M268.52,-327.49C281.29,-314.39 301.59,-296.59 323.55,-289 371.81,-272.33 430.54,-286.02 469.03,-299.25"/>
<polygon fill="black" stroke="black" points="467.79,-302.53 478.39,-302.62 470.16,-295.94 467.79,-302.53"/>
</g>
<!-- ip_input&#45;&gt;ip_output -->
<g id="edge31" class="edge">
<title>ip_input&#45;&gt;ip_output</title>
<path fill="none" stroke="black" d="M258.94,-360.9C276.4,-430.07 349.75,-676 510.02,-676 510.02,-676 510.02,-676 640.91,-676 714.27,-676 799.75,-676 849.35,-676"/>
<polygon fill="black" stroke="black" points="849.34,-679.5 859.34,-676 849.34,-672.5 849.34,-679.5"/>
</g>
<!-- dnat44_dynamic -->
<g id="node34" class="node">
<title>dnat44_dynamic</title>
<ellipse fill="none" stroke="black" cx="377.62" cy="-316" rx="50.77" ry="18"/>
<text text-anchor="middle" x="377.62" y="-313.43" font-family="sans" font-size="11.00">dnat44_dynamic</text>
</g>
<!-- ip_input&#45;&gt;dnat44_dynamic -->
<g id="edge30" class="edge">
<title>ip_input&#45;&gt;dnat44_dynamic</title>
<path fill="none" stroke="black" d="M279.69,-337.47C292.24,-334.69 307.97,-331.21 323.08,-327.86"/>
<polygon fill="black" stroke="black" points="323.44,-331.36 332.45,-325.78 321.93,-324.53 323.44,-331.36"/>
</g>
<!-- dnat44_static -->
<g id="node35" class="node">
<title>dnat44_static</title>
<ellipse fill="none" stroke="black" cx="377.62" cy="-370" rx="41.13" ry="18"/>
<text text-anchor="middle" x="377.62" y="-367.43" font-family="sans" font-size="11.00">dnat44_static</text>
</g>
<!-- ip_input&#45;&gt;dnat44_static -->
<g id="edge33" class="edge">
<title>ip_input&#45;&gt;dnat44_static</title>
<path fill="none" stroke="black" d="M279.69,-348.53C294.09,-351.72 312.66,-355.83 329.69,-359.6"/>
<polygon fill="black" stroke="black" points="328.6,-362.95 339.12,-361.69 330.12,-356.11 328.6,-362.95"/>
</g>
<!-- ip_loadbalance -->
<g id="node23" class="node">
<title>ip_loadbalance</title>
<ellipse fill="none" stroke="black" cx="772.3" cy="-722" rx="46.82" ry="18"/>
<text text-anchor="middle" x="772.3" y="-719.42" font-family="sans" font-size="11.00">ip_loadbalance</text>
</g>
<!-- ip_loadbalance&#45;&gt;ip_output -->
<g id="edge34" class="edge">
<title>ip_loadbalance&#45;&gt;ip_output</title>
<path fill="none" stroke="black" d="M798.24,-706.61C813.75,-699.38 834.05,-691.19 851.68,-684.93"/>
<polygon fill="black" stroke="black" points="852.49,-688.35 860.82,-681.8 850.22,-681.73 852.49,-688.35"/>
</g>
<!-- ipip_input -->
<g id="node32" class="node">
<title>ipip_input</title>
<ellipse fill="none" stroke="black" cx="639.91" cy="-240" rx="31.92" ry="18"/>
<text text-anchor="middle" x="639.91" y="-237.43" font-family="sans" font-size="11.00">ipip_input</text>
</g>
<!-- ip_input_local&#45;&gt;ipip_input -->
<g id="edge36" class="edge">
<title>ip_input_local&#45;&gt;ipip_input</title>
<path fill="none" stroke="black" d="M536.78,-301.17C556.96,-289.08 585.57,-271.95 607.37,-258.89"/>
<polygon fill="black" stroke="black" points="609.09,-261.94 615.87,-253.8 605.49,-255.94 609.09,-261.94"/>
</g>
<!-- icmp_input -->
<g id="node38" class="node">
<title>icmp_input</title>
<ellipse fill="none" stroke="black" cx="639.91" cy="-538" rx="35.43" ry="18"/>
<text text-anchor="middle" x="639.91" y="-535.42" font-family="sans" font-size="11.00">icmp_input</text>
</g>
<!-- ip_input_local&#45;&gt;icmp_input -->
<g id="edge35" class="edge">
<title>ip_input_local&#45;&gt;icmp_input</title>
<path fill="none" stroke="black" d="M529.38,-332.45C537.59,-340.8 547.15,-351.4 554.33,-362 587.12,-410.36 614.09,-473.37 628.22,-509.39"/>
<polygon fill="black" stroke="black" points="624.94,-510.61 631.8,-518.68 631.47,-508.09 624.94,-510.61"/>
</g>
<!-- l4_input_local -->
<g id="node49" class="node">
<title>l4_input_local</title>
<ellipse fill="none" stroke="black" cx="1453.37" cy="-248" rx="42.88" ry="18"/>
<text text-anchor="middle" x="1453.37" y="-245.43" font-family="sans" font-size="11.00">l4_input_local</text>
</g>
<!-- ip_input_local&#45;&gt;l4_input_local -->
<g id="edge37" class="edge">
<title>ip_input_local&#45;&gt;l4_input_local</title>
<path fill="none" stroke="black" d="M554.01,-312.62C589.99,-309.62 643.19,-304.97 689.48,-300 875.5,-280.04 920.12,-248 1107.21,-248 1107.21,-248 1107.21,-248 1208.18,-248 1273.72,-248 1349.16,-248 1398.64,-248"/>
<polygon fill="black" stroke="black" points="1398.51,-251.5 1408.51,-248 1398.51,-244.5 1398.51,-251.5"/>
</g>
<!-- ospf_redirect -->
<g id="node53" class="node">
<title>ospf_redirect</title>
<ellipse fill="none" stroke="black" cx="1453.37" cy="-194" rx="41.13" ry="18"/>
<text text-anchor="middle" x="1453.37" y="-191.43" font-family="sans" font-size="11.00">ospf_redirect</text>
</g>
<!-- ip_input_local&#45;&gt;ospf_redirect -->
<g id="edge38" class="edge">
<title>ip_input_local&#45;&gt;ospf_redirect</title>
<path fill="none" stroke="black" d="M547.88,-306.12C644.66,-279.81 909.88,-210 999.92,-210 999.92,-210 999.92,-210 1208.18,-210 1275.24,-210 1352.44,-203.92 1401.78,-199.25"/>
<polygon fill="black" stroke="black" points="1401.97,-202.75 1411.59,-198.31 1401.3,-195.78 1401.97,-202.75"/>
</g>
<!-- ip_output&#45;&gt;eth_output -->
<g id="edge39" class="edge">
<title>ip_output&#45;&gt;eth_output</title>
<path fill="none" stroke="black" d="M901.49,-693.47C926.29,-740.98 1002.81,-869 1107.21,-869 1107.21,-869 1107.21,-869 1603.8,-869 1698.17,-869 1729.14,-888.53 1815.29,-850 1834.91,-841.23 1852.54,-824.6 1865.14,-810.36"/>
<polygon fill="black" stroke="black" points="1867.54,-812.94 1871.33,-803.05 1862.2,-808.42 1867.54,-812.94"/>
</g>
<!-- ip_output&#45;&gt;loop_xvrf -->
<g id="edge42" class="edge">
<title>ip_output&#45;&gt;loop_xvrf</title>
<path fill="none" stroke="black" d="M902.56,-658.8C921.23,-625.67 962.31,-552.75 984.68,-513.05"/>
<polygon fill="black" stroke="black" points="987.72,-514.77 989.58,-504.34 981.63,-511.33 987.72,-514.77"/>
</g>
<!-- ip_output&#45;&gt;ip_fragment -->
<g id="edge41" class="edge">
<title>ip_output&#45;&gt;ip_fragment</title>
<path fill="none" stroke="black" d="M881.45,-693.37C868.44,-711.46 843.77,-738.74 819.13,-758 817.98,-758.9 816.8,-759.78 815.6,-760.66"/>
<polygon fill="black" stroke="black" points="813.67,-757.74 807.31,-766.2 817.56,-763.55 813.67,-757.74"/>
</g>
<!-- ip_output&#45;&gt;ip_hold -->
<g id="edge40" class="edge">
<title>ip_output&#45;&gt;ip_hold</title>
<path fill="none" stroke="black" d="M922.4,-672.69C934.85,-671.29 949.48,-669.65 962.65,-668.18"/>
<polygon fill="black" stroke="black" points="962.71,-671.69 972.26,-667.1 961.93,-664.74 962.71,-671.69"/>
</g>
<!-- ip_output&#45;&gt;ip_loadbalance -->
<g id="edge43" class="edge">
<title>ip_output&#45;&gt;ip_loadbalance</title>
<path fill="none" stroke="black" d="M870.58,-689.19C857.64,-695.45 840.26,-702.73 823.76,-708.95"/>
<polygon fill="black" stroke="black" points="822.71,-705.6 814.53,-712.33 825.12,-712.18 822.71,-705.6"/>
</g>
<!-- ipip_output -->
<g id="node33" class="node">
<title>ipip_output</title>
<ellipse fill="none" stroke="black" cx="1000.92" cy="-610" rx="36.3" ry="18"/>
<text text-anchor="middle" x="1000.92" y="-607.42" font-family="sans" font-size="11.00">ipip_output</text>
</g>
<!-- ip_output&#45;&gt;ipip_output -->
<g id="edge44" class="edge">
<title>ip_output&#45;&gt;ipip_output</title>
<path fill="none" stroke="black" d="M909.13,-660.97C923.08,-650.76 943.73,-637.53 961.82,-626.99"/>
<polygon fill="black" stroke="black" points="963.55,-630.04 970.51,-622.05 960.08,-623.95 963.55,-630.04"/>
</g>
<!-- sr6_output -->
<g id="node37" class="node">
<title>sr6_output</title>
<ellipse fill="none" stroke="black" cx="1885.84" cy="-606" rx="34.11" ry="18"/>
<text text-anchor="middle" x="1885.84" y="-603.42" font-family="sans" font-size="11.00">sr6_output</text>
</g>
<!-- ip_output&#45;&gt;sr6_output -->
<g id="edge45" class="edge">
<title>ip_output&#45;&gt;sr6_output</title>
<path fill="none" stroke="black" d="M920.39,-683.21C960.98,-693.19 1039.39,-710 1107.21,-710 1107.21,-710 1107.21,-710 1318.98,-710 1519.42,-710 1753.31,-646.1 1845.06,-618.48"/>
<polygon fill="black" stroke="black" points="1846.04,-621.84 1854.59,-615.58 1844,-615.14 1846.04,-621.84"/>
</g>
<!-- ip6_forward -->
<g id="node26" class="node">
<title>ip6_forward</title>
<ellipse fill="none" stroke="black" cx="1317.98" cy="-425" rx="38.06" ry="18"/>
<text text-anchor="middle" x="1317.98" y="-422.43" font-family="sans" font-size="11.00">ip6_forward</text>
</g>
<!-- ip6_output -->
<g id="node31" class="node">
<title>ip6_output</title>
<ellipse fill="none" stroke="black" cx="1757.47" cy="-583" rx="34.11" ry="18"/>
<text text-anchor="middle" x="1757.47" y="-580.42" font-family="sans" font-size="11.00">ip6_output</text>
</g>
<!-- ip6_forward&#45;&gt;ip6_output -->
<g id="edge52" class="edge">
<title>ip6_forward&#45;&gt;ip6_output</title>
<path fill="none" stroke="black" d="M1354.5,-419.46C1420.26,-411.03 1563.39,-401.43 1663.64,-458 1702.43,-479.89 1729.74,-525.38 1744.28,-555.03"/>
<polygon fill="black" stroke="black" points="1740.98,-556.24 1748.41,-563.79 1747.31,-553.25 1740.98,-556.24"/>
</g>
<!-- ip6_hold -->
<g id="node27" class="node">
<title>ip6_hold</title>
<polygon fill="none" stroke="dodgerblue" points="1915.17,-570 1856.52,-570 1856.52,-534 1915.17,-534 1915.17,-570"/>
<text text-anchor="middle" x="1885.84" y="-549.42" font-family="sans" font-size="11.00">ip6_hold</text>
</g>
<!-- ip6_input&#45;&gt;ip6_forward -->
<g id="edge53" class="edge">
<title>ip6_input&#45;&gt;ip6_forward</title>
<path fill="none" stroke="black" d="M1137.66,-406.88C1171.52,-410.3 1228.57,-416.06 1269.23,-420.17"/>
<polygon fill="black" stroke="black" points="1268.68,-423.64 1278.98,-421.16 1269.38,-416.67 1268.68,-423.64"/>
</g>
<!-- ip6_input_local -->
<g id="node30" class="node">
<title>ip6_input_local</title>
<ellipse fill="none" stroke="black" cx="1317.98" cy="-335" rx="46.82" ry="18"/>
<text text-anchor="middle" x="1317.98" y="-332.43" font-family="sans" font-size="11.00">ip6_input_local</text>
</g>
<!-- ip6_input&#45;&gt;ip6_input_local -->
<g id="edge55" class="edge">
<title>ip6_input&#45;&gt;ip6_input_local</title>
<path fill="none" stroke="black" d="M1135.43,-396.66C1161.02,-389.36 1200.99,-377.61 1235.16,-366 1247.84,-361.69 1261.49,-356.67 1273.94,-351.94"/>
<polygon fill="black" stroke="black" points="1275.02,-355.28 1283.1,-348.43 1272.51,-348.74 1275.02,-355.28"/>
</g>
<!-- ip6_input&#45;&gt;ip6_output -->
<g id="edge54" class="edge">
<title>ip6_input&#45;&gt;ip6_output</title>
<path fill="none" stroke="black" d="M1130.89,-416.16C1167.86,-435.72 1246,-472 1316.98,-472 1316.98,-472 1316.98,-472 1454.37,-472 1547.99,-472 1578.69,-456.67 1663.64,-496 1693.54,-509.84 1720.11,-537.09 1737.08,-557.42"/>
<polygon fill="black" stroke="black" points="1734.22,-559.45 1743.23,-565.02 1739.66,-555.05 1734.22,-559.45"/>
</g>
<!-- sr6_local -->
<g id="node36" class="node">
<title>sr6_local</title>
<ellipse fill="none" stroke="black" cx="1207.18" cy="-339" rx="27.98" ry="18"/>
<text text-anchor="middle" x="1207.18" y="-336.43" font-family="sans" font-size="11.00">sr6_local</text>
</g>
<!-- ip6_input&#45;&gt;sr6_local -->
<g id="edge56" class="edge">
<title>ip6_input&#45;&gt;sr6_local</title>
<path fill="none" stroke="black" d="M1124.36,-388.78C1137.54,-378.32 1157.09,-364.76 1173.78,-354.31"/>
<polygon fill="black" stroke="black" points="1175.19,-357.55 1181.91,-349.35 1171.55,-351.57 1175.19,-357.55"/>
</g>
<!-- ip6_loadbalance -->
<g id="node29" class="node">
<title>ip6_loadbalance</title>
<ellipse fill="none" stroke="black" cx="1602.8" cy="-610" rx="50.33" ry="18"/>
<text text-anchor="middle" x="1602.8" y="-607.42" font-family="sans" font-size="11.00">ip6_loadbalance</text>
</g>
<!-- ip6_loadbalance&#45;&gt;ip6_output -->
<g id="edge57" class="edge">
<title>ip6_loadbalance&#45;&gt;ip6_output</title>
<path fill="none" stroke="black" d="M1640.36,-597.67C1661.77,-592.83 1688.97,-587.9 1711.66,-584.71"/>
<polygon fill="black" stroke="black" points="1712.11,-588.19 1721.56,-583.41 1711.19,-581.25 1712.11,-588.19"/>
</g>
<!-- icmp6_input -->
<g id="node41" class="node">
<title>icmp6_input</title>
<polygon fill="none" stroke="dodgerblue" points="1492.45,-353 1414.3,-353 1414.3,-317 1492.45,-317 1492.45,-353"/>
<text text-anchor="middle" x="1453.37" y="-332.43" font-family="sans" font-size="11.00">icmp6_input</text>
</g>
<!-- ip6_input_local&#45;&gt;icmp6_input -->
<g id="edge58" class="edge">
<title>ip6_input_local&#45;&gt;icmp6_input</title>
<path fill="none" stroke="black" d="M1365.26,-335C1377.35,-335 1390.43,-335 1402.69,-335"/>
<polygon fill="black" stroke="black" points="1402.62,-338.5 1412.62,-335 1402.62,-331.5 1402.62,-338.5"/>
</g>
<!-- ip6_input_local&#45;&gt;l4_input_local -->
<g id="edge59" class="edge">
<title>ip6_input_local&#45;&gt;l4_input_local</title>
<path fill="none" stroke="black" d="M1342.83,-319.45C1364.3,-305.44 1396.05,-284.74 1419.84,-269.22"/>
<polygon fill="black" stroke="black" points="1421.45,-272.35 1427.91,-263.95 1417.62,-266.49 1421.45,-272.35"/>
</g>
<!-- ip6_input_local&#45;&gt;ospf_redirect -->
<g id="edge60" class="edge">
<title>ip6_input_local&#45;&gt;ospf_redirect</title>
<path fill="none" stroke="black" d="M1328.24,-317.21C1341.59,-292.95 1368.25,-249.28 1400.8,-221 1404.55,-217.74 1408.76,-214.74 1413.12,-212.02"/>
<polygon fill="black" stroke="black" points="1414.5,-215.26 1421.45,-207.26 1411.03,-209.18 1414.5,-215.26"/>
</g>
<!-- ip6_output&#45;&gt;eth_output -->
<g id="edge61" class="edge">
<title>ip6_output&#45;&gt;eth_output</title>
<path fill="none" stroke="black" d="M1769.24,-600.22C1791.3,-635.48 1841.74,-716.1 1868.1,-758.23"/>
<polygon fill="black" stroke="black" points="1865.02,-759.92 1873.29,-766.54 1870.96,-756.2 1865.02,-759.92"/>
</g>
<!-- ip6_output&#45;&gt;loop_xvrf -->
<g id="edge63" class="edge">
<title>ip6_output&#45;&gt;loop_xvrf</title>
<path fill="none" stroke="black" d="M1737.03,-568.27C1719.03,-555.49 1691,-537.72 1663.64,-529 1574.67,-500.62 1547.76,-510 1454.37,-510 1206.18,-510 1206.18,-510 1206.18,-510 1148.21,-510 1081.61,-500.35 1040.65,-493.28"/>
<polygon fill="black" stroke="black" points="1041.49,-489.88 1031.04,-491.59 1040.28,-496.77 1041.49,-489.88"/>
</g>
<!-- ip6_output&#45;&gt;ip6_hold -->
<g id="edge62" class="edge">
<title>ip6_output&#45;&gt;ip6_hold</title>
<path fill="none" stroke="black" d="M1789.06,-575.5C1805.92,-571.36 1827.04,-566.18 1845.15,-561.74"/>
<polygon fill="black" stroke="black" points="1845.92,-565.15 1854.8,-559.37 1844.25,-558.35 1845.92,-565.15"/>
</g>
<!-- ip6_output&#45;&gt;ip6_loadbalance -->
<g id="edge64" class="edge">
<title>ip6_output&#45;&gt;ip6_loadbalance</title>
<path fill="none" stroke="black" d="M1728.78,-593.24C1710.72,-597.66 1686.43,-602.38 1664.07,-605.96"/>
<polygon fill="black" stroke="black" points="1663.79,-602.46 1654.44,-607.43 1664.85,-609.38 1663.79,-602.46"/>
</g>
<!-- ip6_output&#45;&gt;sr6_output -->
<g id="edge65" class="edge">
<title>ip6_output&#45;&gt;sr6_output</title>
<path fill="none" stroke="black" d="M1792,-583.06C1808.8,-585.25 1829.21,-588.89 1846.61,-592.78"/>
<polygon fill="black" stroke="black" points="1845.53,-596.13 1856.07,-595.01 1847.14,-589.31 1845.53,-596.13"/>
</g>
<!-- ipip_input&#45;&gt;ip_input -->
<g id="edge68" class="edge">
<title>ipip_input&#45;&gt;ip_input</title>
<path fill="none" stroke="black" d="M608.04,-237.35C549.48,-233.63 419.53,-231.74 323.55,-277 303.71,-286.36 285.97,-303.71 273.47,-318.27"/>
<polygon fill="black" stroke="black" points="271,-315.77 267.36,-325.71 276.41,-320.21 271,-315.77"/>
</g>
<!-- ipip_output&#45;&gt;ip_output -->
<g id="edge69" class="edge">
<title>ipip_output&#45;&gt;ip_output</title>
<path fill="none" stroke="black" d="M982.42,-625.93C967.77,-636.54 946.41,-650.12 928.23,-660.59"/>
<polygon fill="black" stroke="black" points="926.57,-657.51 919.56,-665.46 929.99,-663.62 926.57,-657.51"/>
</g>
<!-- dnat44_dynamic&#45;&gt;ip_forward -->
<g id="edge79" class="edge">
<title>dnat44_dynamic&#45;&gt;ip_forward</title>
<path fill="none" stroke="black" d="M408.27,-330.68C415.95,-334.59 424.17,-338.88 431.7,-343 447.06,-351.41 463.83,-361.18 477.9,-369.54"/>
<polygon fill="black" stroke="black" points="475.93,-372.44 486.31,-374.57 479.52,-366.44 475.93,-372.44"/>
</g>
<!-- dnat44_dynamic&#45;&gt;ip_input_local -->
<g id="edge80" class="edge">
<title>dnat44_dynamic&#45;&gt;ip_input_local</title>
<path fill="none" stroke="black" d="M428.67,-316C437.65,-316 447.04,-316 456.11,-316"/>
<polygon fill="black" stroke="black" points="455.88,-319.5 465.88,-316 455.88,-312.5 455.88,-319.5"/>
</g>
<!-- dnat44_static&#45;&gt;ip_forward -->
<g id="edge81" class="edge">
<title>dnat44_static&#45;&gt;ip_forward</title>
<path fill="none" stroke="black" d="M416.98,-375.55C432.34,-377.77 450.13,-380.34 466.01,-382.64"/>
<polygon fill="black" stroke="black" points="465.28,-386.07 475.68,-384.03 466.28,-379.14 465.28,-386.07"/>
</g>
<!-- dnat44_static&#45;&gt;ip_input_local -->
<g id="edge82" class="edge">
<title>dnat44_static&#45;&gt;ip_input_local</title>
<path fill="none" stroke="black" d="M408.44,-357.75C426.33,-350.4 449.33,-340.94 468.93,-332.89"/>
<polygon fill="black" stroke="black" points="470.09,-336.19 478.01,-329.16 467.43,-329.72 470.09,-336.19"/>
</g>
<!-- sr6_local&#45;&gt;ip_input -->
<g id="edge83" class="edge">
<title>sr6_local&#45;&gt;ip_input</title>
<path fill="none" stroke="black" d="M1181.82,-330.84C1108.5,-306.77 882.91,-236.24 689.48,-213 645.73,-207.74 634.34,-210.7 590.33,-213 471.27,-219.23 425.75,-179.61 323.55,-241 295.44,-257.88 276.3,-291.19 265.47,-315.16"/>
<polygon fill="black" stroke="black" points="262.39,-313.45 261.68,-324.03 268.83,-316.21 262.39,-313.45"/>
</g>
<!-- sr6_local&#45;&gt;ip6_input -->
<g id="edge84" class="edge">
<title>sr6_local&#45;&gt;ip6_input</title>
<path fill="none" stroke="black" d="M1191.23,-354.06C1178.29,-364.35 1159.12,-377.67 1142.56,-388.09"/>
<polygon fill="black" stroke="black" points="1141.16,-384.84 1134.47,-393.06 1144.82,-390.81 1141.16,-384.84"/>
</g>
<!-- sr6_local&#45;&gt;ip6_input_local -->
<g id="edge85" class="edge">
<title>sr6_local&#45;&gt;ip6_input_local</title>
<path fill="none" stroke="black" d="M1235.35,-338C1242.88,-337.72 1251.34,-337.41 1259.9,-337.1"/>
<polygon fill="black" stroke="black" points="1259.74,-340.61 1269.61,-336.74 1259.49,-333.61 1259.74,-340.61"/>
</g>
<!-- sr6_output&#45;&gt;ip6_output -->
<g id="edge86" class="edge">
<title>sr6_output&#45;&gt;ip6_output</title>
<path fill="none" stroke="black" d="M1851.48,-605.96C1834.61,-603.77 1814.05,-600.1 1796.56,-596.19"/>
<polygon fill="black" stroke="black" points="1797.59,-592.83 1787.05,-593.94 1795.98,-599.64 1797.59,-592.83"/>
</g>
<!-- icmp_output -->
<g id="node40" class="node">
<title>icmp_output</title>
<ellipse fill="none" stroke="black" cx="772.3" cy="-592" rx="39.81" ry="18"/>
<text text-anchor="middle" x="772.3" y="-589.42" font-family="sans" font-size="11.00">icmp_output</text>
</g>
<!-- icmp_input&#45;&gt;icmp_output -->
<g id="edge24" class="edge">
<title>icmp_input&#45;&gt;icmp_output</title>
<path fill="none" stroke="black" d="M668.24,-549.32C686.6,-556.92 711.09,-567.06 731.59,-575.55"/>
<polygon fill="black" stroke="black" points="730.22,-578.77 740.8,-579.37 732.9,-572.31 730.22,-578.77"/>
</g>
<!-- icmp_local_send -->
<g id="node39" class="node">
<title>icmp_local_send</title>
<polygon fill="none" stroke="dodgerblue" points="689.48,-610 590.33,-610 590.33,-574 689.48,-574 689.48,-610"/>
<text text-anchor="middle" x="639.91" y="-589.42" font-family="sans" font-size="11.00">icmp_local_send</text>
</g>
<!-- icmp_local_send&#45;&gt;icmp_output -->
<g id="edge25" class="edge">
<title>icmp_local_send&#45;&gt;icmp_output</title>
<path fill="none" stroke="dodgerblue" d="M689.83,-592C700.02,-592 710.77,-592 721.01,-592"/>
<polygon fill="dodgerblue" stroke="dodgerblue" points="720.77,-595.5 730.77,-592 720.77,-588.5 720.77,-595.5"/>
</g>
<!-- icmp_output&#45;&gt;ip_output -->
<g id="edge26" class="edge">
<title>icmp_output&#45;&gt;ip_output</title>
<path fill="none" stroke="black" d="M794.81,-606.9C802.5,-612.26 811.22,-618.37 819.13,-624 833.55,-634.26 849.5,-645.8 862.69,-655.4"/>
<polygon fill="black" stroke="black" points="860.39,-658.05 870.53,-661.11 864.51,-652.39 860.39,-658.05"/>
</g>
<!-- icmp6_output -->
<g id="node42" class="node">
<title>icmp6_output</title>
<ellipse fill="none" stroke="black" cx="1602.8" cy="-556" rx="43.32" ry="18"/>
<text text-anchor="middle" x="1602.8" y="-553.42" font-family="sans" font-size="11.00">icmp6_output</text>
</g>
<!-- icmp6_input&#45;&gt;icmp6_output -->
<g id="edge46" class="edge">
<title>icmp6_input&#45;&gt;icmp6_output</title>
<path fill="none" stroke="dodgerblue" d="M1466.69,-353.46C1492.68,-392.43 1553.25,-483.22 1583.67,-528.83"/>
<polygon fill="dodgerblue" stroke="dodgerblue" points="1580.73,-530.72 1589.19,-537.1 1586.55,-526.84 1580.73,-530.72"/>
</g>
<!-- ndp_na_input -->
<g id="node44" class="node">
<title>ndp_na_input</title>
<polygon fill="none" stroke="dodgerblue" points="1645.25,-352 1560.35,-352 1560.35,-316 1645.25,-316 1645.25,-352"/>
<text text-anchor="middle" x="1602.8" y="-331.43" font-family="sans" font-size="11.00">ndp_na_input</text>
</g>
<!-- icmp6_input&#45;&gt;ndp_na_input -->
<g id="edge48" class="edge">
<title>icmp6_input&#45;&gt;ndp_na_input</title>
<path fill="none" stroke="dodgerblue" d="M1492.72,-334.74C1509.74,-334.62 1530.05,-334.49 1548.51,-334.36"/>
<polygon fill="dodgerblue" stroke="dodgerblue" points="1548.52,-337.86 1558.5,-334.29 1548.48,-330.86 1548.52,-337.86"/>
</g>
<!-- ndp_ns_input -->
<g id="node46" class="node">
<title>ndp_ns_input</title>
<polygon fill="none" stroke="dodgerblue" points="1644.87,-298 1560.72,-298 1560.72,-262 1644.87,-262 1644.87,-298"/>
<text text-anchor="middle" x="1602.8" y="-277.43" font-family="sans" font-size="11.00">ndp_ns_input</text>
</g>
<!-- icmp6_input&#45;&gt;ndp_ns_input -->
<g id="edge47" class="edge">
<title>icmp6_input&#45;&gt;ndp_ns_input</title>
<path fill="none" stroke="dodgerblue" d="M1492.72,-320.69C1510.05,-314.23 1530.8,-306.49 1549.53,-299.5"/>
<polygon fill="dodgerblue" stroke="dodgerblue" points="1550.71,-302.79 1558.86,-296.02 1548.27,-296.24 1550.71,-302.79"/>
</g>
<!-- ndp_rs_input -->
<g id="node48" class="node">
<title>ndp_rs_input</title>
<polygon fill="none" stroke="dodgerblue" points="1643.75,-406 1561.85,-406 1561.85,-370 1643.75,-370 1643.75,-406"/>
<text text-anchor="middle" x="1602.8" y="-385.43" font-family="sans" font-size="11.00">ndp_rs_input</text>
</g>
<!-- icmp6_input&#45;&gt;ndp_rs_input -->
<g id="edge49" class="edge">
<title>icmp6_input&#45;&gt;ndp_rs_input</title>
<path fill="none" stroke="dodgerblue" d="M1492.72,-348.79C1510.49,-355.18 1531.85,-362.86 1550.95,-369.72"/>
<polygon fill="dodgerblue" stroke="dodgerblue" points="1549.56,-372.94 1560.16,-373.03 1551.93,-366.35 1549.56,-372.94"/>
</g>
<!-- icmp6_output&#45;&gt;ip6_output -->
<g id="edge50" class="edge">
<title>icmp6_output&#45;&gt;ip6_output</title>
<path fill="none" stroke="black" d="M1643.11,-562.95C1664.78,-566.79 1691.7,-571.55 1713.87,-575.47"/>
<polygon fill="black" stroke="black" points="1713.03,-578.87 1723.48,-577.17 1714.24,-571.98 1713.03,-578.87"/>
</g>
<!-- icmp6_local_send -->
<g id="node43" class="node">
<title>icmp6_local_send</title>
<polygon fill="none" stroke="dodgerblue" points="1505.95,-628 1400.8,-628 1400.8,-592 1505.95,-592 1505.95,-628"/>
<text text-anchor="middle" x="1453.37" y="-607.42" font-family="sans" font-size="11.00">icmp6_local_send</text>
</g>
<!-- icmp6_local_send&#45;&gt;icmp6_output -->
<g id="edge51" class="edge">
<title>icmp6_local_send&#45;&gt;icmp6_output</title>
<path fill="none" stroke="dodgerblue" d="M1504.7,-591.57C1522.35,-585.1 1542,-577.9 1558.98,-571.68"/>
<polygon fill="dodgerblue" stroke="dodgerblue" points="1560.1,-575 1568.28,-568.28 1557.69,-568.43 1560.1,-575"/>
</g>
<!-- ndp_na_output -->
<g id="node45" class="node">
<title>ndp_na_output</title>
<polygon fill="none" stroke="dodgerblue" points="1499.57,-574 1407.17,-574 1407.17,-538 1499.57,-538 1499.57,-574"/>
<text text-anchor="middle" x="1453.37" y="-553.42" font-family="sans" font-size="11.00">ndp_na_output</text>
</g>
<!-- ndp_na_output&#45;&gt;icmp6_output -->
<g id="edge66" class="edge">
<title>ndp_na_output&#45;&gt;icmp6_output</title>
<path fill="none" stroke="dodgerblue" d="M1499.81,-556C1514.99,-556 1532.06,-556 1547.82,-556"/>
<polygon fill="dodgerblue" stroke="dodgerblue" points="1547.52,-559.5 1557.52,-556 1547.52,-552.5 1547.52,-559.5"/>
</g>
<!-- ndp_ns_output -->
<g id="node47" class="node">
<title>ndp_ns_output</title>
<polygon fill="none" stroke="dodgerblue" points="1499.2,-682 1407.55,-682 1407.55,-646 1499.2,-646 1499.2,-682"/>
<text text-anchor="middle" x="1453.37" y="-661.42" font-family="sans" font-size="11.00">ndp_ns_output</text>
</g>
<!-- ndp_ns_output&#45;&gt;icmp6_output -->
<g id="edge67" class="edge">
<title>ndp_ns_output&#45;&gt;icmp6_output</title>
<path fill="none" stroke="dodgerblue" d="M1494.57,-645.58C1498.61,-642.97 1502.49,-640.11 1505.95,-637 1527.39,-617.71 1519.95,-601.65 1541.95,-583 1546.73,-578.95 1552.22,-575.39 1557.89,-572.3"/>
<polygon fill="dodgerblue" stroke="dodgerblue" points="1559.4,-575.46 1566.83,-567.91 1556.31,-569.18 1559.4,-575.46"/>
</g>
<!-- l4_loopback_output -->
<g id="node50" class="node">
<title>l4_loopback_output</title>
<ellipse fill="none" stroke="black" cx="1602.8" cy="-172" rx="60.85" ry="18"/>
<text text-anchor="middle" x="1602.8" y="-169.43" font-family="sans" font-size="11.00">l4_loopback_output</text>
</g>
<!-- l4_input_local&#45;&gt;l4_loopback_output -->
<g id="edge75" class="edge">
<title>l4_input_local&#45;&gt;l4_loopback_output</title>
<path fill="none" stroke="black" d="M1481.59,-234.18C1489.51,-230.05 1498.12,-225.43 1505.95,-221 1522.26,-211.76 1525.37,-207.76 1541.95,-199 1546.68,-196.5 1551.68,-194.01 1556.7,-191.61"/>
<polygon fill="black" stroke="black" points="1557.99,-194.87 1565.58,-187.48 1555.03,-188.53 1557.99,-194.87"/>
</g>
<!-- dhcp_input -->
<g id="node55" class="node">
<title>dhcp_input</title>
<ellipse fill="none" stroke="black" cx="1602.8" cy="-226" rx="35.43" ry="18"/>
<text text-anchor="middle" x="1602.8" y="-223.43" font-family="sans" font-size="11.00">dhcp_input</text>
</g>
<!-- l4_input_local&#45;&gt;dhcp_input -->
<g id="edge76" class="edge">
<title>l4_input_local&#45;&gt;dhcp_input</title>
<path fill="none" stroke="black" d="M1494.27,-242.05C1513.66,-239.15 1537.03,-235.66 1557.03,-232.68"/>
<polygon fill="black" stroke="black" points="1557.48,-236.15 1566.86,-231.21 1556.45,-229.23 1557.48,-236.15"/>
</g>
<!-- l4_loopback_output&#45;&gt;loopback_output -->
<g id="edge77" class="edge">
<title>l4_loopback_output&#45;&gt;loopback_output</title>
<path fill="none" stroke="black" d="M1664.14,-172C1674.31,-172 1684.88,-172 1695.08,-172"/>
<polygon fill="black" stroke="black" points="1694.88,-175.5 1704.88,-172 1694.88,-168.5 1694.88,-175.5"/>
</g>
<!-- l2_bridge&#45;&gt;bond_output -->
<g id="edge71" class="edge">
<title>l2_bridge&#45;&gt;bond_output</title>
<path fill="none" stroke="black" d="M1781.32,-903.67C1792,-898 1804.66,-890.71 1815.29,-883 1832.86,-870.26 1831.62,-859.17 1851.29,-850 1880.37,-836.44 1916.09,-831.65 1944.77,-830.26"/>
<polygon fill="black" stroke="black" points="1944.8,-833.76 1954.68,-829.92 1944.56,-826.77 1944.8,-833.76"/>
</g>
<!-- l2_bridge&#45;&gt;port_output -->
<g id="edge70" class="edge">
<title>l2_bridge&#45;&gt;port_output</title>
<path fill="none" stroke="darkorange" d="M1787.56,-913.74C1838.5,-911.26 1947.06,-904.74 2037.77,-891 2046.69,-889.65 2056.2,-887.98 2065.28,-886.28"/>
<polygon fill="darkorange" stroke="darkorange" points="2065.85,-889.73 2075.01,-884.4 2064.53,-882.86 2065.85,-889.73"/>
</g>
<!-- l2_flood -->
<g id="node54" class="node">
<title>l2_flood</title>
<ellipse fill="none" stroke="black" cx="1885.84" cy="-877" rx="27" ry="18"/>
<text text-anchor="middle" x="1885.84" y="-874.42" font-family="sans" font-size="11.00">l2_flood</text>
</g>
<!-- l2_bridge&#45;&gt;l2_flood -->
<g id="edge72" class="edge">
<title>l2_bridge&#45;&gt;l2_flood</title>
<path fill="none" stroke="black" d="M1784.65,-907.13C1803.56,-901.44 1829.3,-893.7 1849.95,-887.49"/>
<polygon fill="black" stroke="black" points="1850.81,-890.89 1859.38,-884.66 1848.8,-884.18 1850.81,-890.89"/>
</g>
<!-- ospf_redirect&#45;&gt;l2_redirect -->
<g id="edge78" class="edge">
<title>ospf_redirect&#45;&gt;l2_redirect</title>
<path fill="none" stroke="black" d="M1478.98,-179.48C1496.37,-169.41 1520.33,-155.9 1541.95,-145 1549.51,-141.19 1557.71,-137.32 1565.56,-133.74"/>
<polygon fill="black" stroke="black" points="1566.87,-136.99 1574.56,-129.7 1564,-130.61 1566.87,-136.99"/>
</g>
<!-- l2_flood&#45;&gt;bond_output -->
<g id="edge74" class="edge">
<title>l2_flood&#45;&gt;bond_output</title>
<path fill="none" stroke="black" d="M1909.21,-867.58C1922.7,-861.9 1940.28,-854.5 1956.1,-847.84"/>
<polygon fill="black" stroke="black" points="1957.44,-851.07 1965.29,-843.96 1954.72,-844.62 1957.44,-851.07"/>
</g>
<!-- l2_flood&#45;&gt;port_output -->
<g id="edge73" class="edge">
<title>l2_flood&#45;&gt;port_output</title>
<path fill="none" stroke="darkorange" d="M1912.92,-877C1949.37,-877 2016.2,-877 2061.93,-877"/>
<polygon fill="darkorange" stroke="darkorange" points="2061.84,-880.5 2071.84,-877 2061.84,-873.5 2061.84,-880.5"/>
</g>
</g>
</svg>
