<?xml version="1.0" encoding="UTF-8" standalone="no"?>
<!DOCTYPE svg PUBLIC "-//W3C//DTD SVG 1.1//EN"
 "http://www.w3.org/Graphics/SVG/1.1/DTD/svg11.dtd">
<!-- Generated by graphviz version 12.2.1 (20241206.2353)
 -->
<!-- Pages: 1 -->
<svg width="2284pt" height="932pt"
 viewBox="0.00 0.00 2283.82 932.00" xmlns="http://www.w3.org/2000/svg" xmlns:xlink="http://www.w3.org/1999/xlink">
<g id="graph0" class="graph" transform="scale(1 1) rotate(0) translate(4 928)">
<polygon fill="white" stroke="none" points="-4,4 -4,-928 2279.82,-928 2279.82,4 -4,4"/>
<!-- bond_output -->
<g id="node1" class="node">
<title>bond_output</title>
<ellipse fill="none" stroke="black" cx="2033.89" cy="-701" rx="40.69" ry="18"/>
<text text-anchor="middle" x="2033.89" y="-698.42" font-family="sans" font-size="11.00">bond_output</text>
</g>
<!-- port_output -->
<g id="node3" class="node">
<title>port_output</title>
<ellipse fill="none" stroke="black" cx="2148.2" cy="-724" rx="37.62" ry="18"/>
<text text-anchor="middle" x="2148.2" y="-721.42" font-family="sans" font-size="11.00">port_output</text>
</g>
<!-- bond_output&#45;&gt;port_output -->
<g id="edge1" class="edge">
<title>bond_output&#45;&gt;port_output</title>
<path fill="none" stroke="black" d="M2071.36,-708.47C2081.13,-710.47 2091.81,-712.66 2102,-714.74"/>
<polygon fill="black" stroke="black" points="2101.22,-718.16 2111.72,-716.73 2102.63,-711.3 2101.22,-718.16"/>
</g>
<!-- l1_xconnect -->
<g id="node2" class="node">
<title>l1_xconnect</title>
<ellipse fill="none" stroke="black" cx="891.87" cy="-870" rx="36.74" ry="18"/>
<text text-anchor="middle" x="891.87" y="-867.42" font-family="sans" font-size="11.00">l1_xconnect</text>
</g>
<!-- l1_xconnect&#45;&gt;port_output -->
<g id="edge9" class="edge">
<title>l1_xconnect&#45;&gt;port_output</title>
<path fill="none" stroke="black" d="M920.81,-881.32C962.49,-897.15 1043.74,-924 1115.54,-924 1115.54,-924 1115.54,-924 1923.66,-924 2025.69,-924 2102.49,-806.84 2132.91,-751.86"/>
<polygon fill="black" stroke="black" points="2135.98,-753.54 2137.65,-743.08 2129.82,-750.22 2135.98,-753.54"/>
</g>
<!-- port_tx -->
<g id="node5" class="node">
<title>port_tx</title>
<ellipse fill="none" stroke="black" cx="2248.82" cy="-724" rx="27" ry="18"/>
<text text-anchor="middle" x="2248.82" y="-721.42" font-family="sans" font-size="11.00">port_tx</text>
</g>
<!-- port_output&#45;&gt;port_tx -->
<g id="edge15" class="edge">
<title>port_output&#45;&gt;port_tx</title>
<path fill="none" stroke="black" d="M2186.2,-724C2193.97,-724 2202.17,-724 2209.97,-724"/>
<polygon fill="black" stroke="black" points="2209.87,-727.5 2219.87,-724 2209.87,-720.5 2209.87,-727.5"/>
</g>
<!-- port_rx -->
<g id="node4" class="node">
<title>port_rx</title>
<ellipse fill="none" stroke="blue" stroke-width="2" cx="27" cy="-770" rx="27" ry="18"/>
<text text-anchor="middle" x="27" y="-767.42" font-family="sans" font-size="11.00">port_rx</text>
</g>
<!-- port_rx&#45;&gt;l1_xconnect -->
<g id="edge17" class="edge">
<title>port_rx&#45;&gt;l1_xconnect</title>
<path fill="none" stroke="blue" stroke-width="2" d="M52,-777.51C92.81,-789.59 178.5,-812 252.72,-812 252.72,-812 252.72,-812 640.91,-812 717.16,-812 803.19,-837.93 851.84,-855.11"/>
<polygon fill="blue" stroke="blue" stroke-width="2" points="849.06,-857.83 859.65,-857.93 851.43,-851.25 849.06,-857.83"/>
</g>
<!-- eth_input -->
<g id="node6" class="node">
<title>eth_input</title>
<ellipse fill="none" stroke="black" cx="136.95" cy="-215" rx="30.17" ry="18"/>
<text text-anchor="middle" x="136.95" y="-212.43" font-family="sans" font-size="11.00">eth_input</text>
</g>
<!-- port_rx&#45;&gt;eth_input -->
<g id="edge16" class="edge">
<title>port_rx&#45;&gt;eth_input</title>
<path fill="none" stroke="blue" stroke-width="2" d="M28.69,-751.58C31.42,-689.47 43.64,-482.48 90,-319 97.67,-291.96 111.02,-262.82 121.37,-242.28"/>
<polygon fill="blue" stroke="blue" stroke-width="2" points="123.75,-245.29 125.22,-234.8 117.53,-242.09 123.75,-245.29"/>
</g>
<!-- srv6_l2_encap -->
<g id="node18" class="node">
<title>srv6_l2_encap</title>
<ellipse fill="none" stroke="black" cx="1116.54" cy="-770" rx="43.32" ry="18"/>
<text text-anchor="middle" x="1116.54" y="-767.42" font-family="sans" font-size="11.00">srv6_l2_encap</text>
</g>
<!-- port_rx&#45;&gt;srv6_l2_encap -->
<g id="edge18" class="edge">
<title>port_rx&#45;&gt;srv6_l2_encap</title>
<path fill="none" stroke="blue" stroke-width="2" d="M54.29,-770C96.25,-770 180.94,-770 252.72,-770 252.72,-770 252.72,-770 892.87,-770 950.48,-770 1016.47,-770 1061.57,-770"/>
<polygon fill="blue" stroke="blue" stroke-width="2" points="1059.82,-773.5 1069.82,-770 1059.82,-766.5 1059.82,-773.5"/>
</g>
<!-- lacp_input -->
<g id="node9" class="node">
<title>lacp_input</title>
<polygon fill="none" stroke="dodgerblue" points="287.55,-210 219.9,-210 219.9,-174 287.55,-174 287.55,-210"/>
<text text-anchor="middle" x="253.72" y="-189.43" font-family="sans" font-size="11.00">lacp_input</text>
</g>
<!-- eth_input&#45;&gt;lacp_input -->
<g id="edge3" class="edge">
<title>eth_input&#45;&gt;lacp_input</title>
<path fill="none" stroke="black" d="M166.03,-209.37C178.8,-206.81 194.23,-203.72 208.51,-200.86"/>
<polygon fill="black" stroke="black" points="209.04,-204.32 218.16,-198.93 207.66,-197.46 209.04,-204.32"/>
</g>
<!-- snap_input -->
<g id="node11" class="node">
<title>snap_input</title>
<ellipse fill="none" stroke="black" cx="1354.79" cy="-18" rx="34.99" ry="18"/>
<text text-anchor="middle" x="1354.79" y="-15.43" font-family="sans" font-size="11.00">snap_input</text>
</g>
<!-- eth_input&#45;&gt;snap_input -->
<g id="edge2" class="edge">
<title>eth_input&#45;&gt;snap_input</title>
<path fill="none" stroke="black" d="M156,-200.83C171.89,-189.17 196.13,-173.26 219.9,-165 286.18,-141.98 306.46,-146 376.62,-146 376.62,-146 376.62,-146 1117.54,-146 1204.06,-146 1289.22,-78.81 1329.58,-41.79"/>
<polygon fill="black" stroke="black" points="1331.94,-44.38 1336.84,-34.99 1327.15,-39.27 1331.94,-44.38"/>
</g>
<!-- arp_input -->
<g id="node12" class="node">
<title>arp_input</title>
<ellipse fill="none" stroke="black" cx="253.72" cy="-100" rx="30.61" ry="18"/>
<text text-anchor="middle" x="253.72" y="-97.42" font-family="sans" font-size="11.00">arp_input</text>
</g>
<!-- eth_input&#45;&gt;arp_input -->
<g id="edge4" class="edge">
<title>eth_input&#45;&gt;arp_input</title>
<path fill="none" stroke="black" d="M152.97,-199.62C169.34,-182.89 196.34,-155.41 219.9,-132 222.75,-129.17 225.76,-126.2 228.74,-123.27"/>
<polygon fill="black" stroke="black" points="231.18,-125.79 235.89,-116.3 226.29,-120.78 231.18,-125.79"/>
</g>
<!-- ip_input -->
<g id="node25" class="node">
<title>ip_input</title>
<ellipse fill="none" stroke="black" cx="253.72" cy="-414" rx="27" ry="18"/>
<text text-anchor="middle" x="253.72" y="-411.43" font-family="sans" font-size="11.00">ip_input</text>
</g>
<!-- eth_input&#45;&gt;ip_input -->
<g id="edge5" class="edge">
<title>eth_input&#45;&gt;ip_input</title>
<path fill="none" stroke="black" d="M147.74,-231.97C167.73,-266.63 213.38,-345.78 237.36,-387.36"/>
<polygon fill="black" stroke="black" points="234.18,-388.85 242.21,-395.77 240.24,-385.35 234.18,-388.85"/>
</g>
<!-- ip6_input -->
<g id="node31" class="node">
<title>ip6_input</title>
<ellipse fill="none" stroke="black" cx="1116.54" cy="-298" rx="29.73" ry="18"/>
<text text-anchor="middle" x="1116.54" y="-295.43" font-family="sans" font-size="11.00">ip6_input</text>
</g>
<!-- eth_input&#45;&gt;ip6_input -->
<g id="edge6" class="edge">
<title>eth_input&#45;&gt;ip6_input</title>
<path fill="none" stroke="black" d="M166.58,-219.58C255.82,-233.44 536.91,-274 771.3,-274 771.3,-274 771.3,-274 892.87,-274 957.47,-274 1032.01,-284.11 1076.38,-291.21"/>
<polygon fill="black" stroke="black" points="1075.59,-294.62 1086.03,-292.78 1076.72,-287.72 1075.59,-294.62"/>
</g>
<!-- eth_output -->
<g id="node7" class="node">
<title>eth_output</title>
<ellipse fill="none" stroke="black" cx="1922.66" cy="-747" rx="34.55" ry="18"/>
<text text-anchor="middle" x="1922.66" y="-744.42" font-family="sans" font-size="11.00">eth_output</text>
</g>
<!-- eth_output&#45;&gt;bond_output -->
<g id="edge7" class="edge">
<title>eth_output&#45;&gt;bond_output</title>
<path fill="none" stroke="black" d="M1950.38,-735.75C1963.26,-730.32 1978.98,-723.7 1993.23,-717.7"/>
<polygon fill="black" stroke="black" points="1994.51,-720.96 2002.37,-713.85 1991.79,-714.51 1994.51,-720.96"/>
</g>
<!-- eth_output&#45;&gt;port_output -->
<g id="edge8" class="edge">
<title>eth_output&#45;&gt;port_output</title>
<path fill="none" stroke="black" d="M1956.64,-743.61C1994.47,-739.71 2056.78,-733.3 2099.8,-728.88"/>
<polygon fill="black" stroke="black" points="2100.02,-732.37 2109.61,-727.87 2099.3,-725.41 2100.02,-732.37"/>
</g>
<!-- l2_redirect -->
<g id="node8" class="node">
<title>l2_redirect</title>
<polygon fill="none" stroke="dodgerblue" points="1673.81,-128 1605.41,-128 1605.41,-92 1673.81,-92 1673.81,-128"/>
<text text-anchor="middle" x="1639.61" y="-107.42" font-family="sans" font-size="11.00">l2_redirect</text>
</g>
<!-- lacp_output -->
<g id="node10" class="node">
<title>lacp_output</title>
<polygon fill="none" stroke="dodgerblue" points="1831.85,-896 1756.7,-896 1756.7,-860 1831.85,-860 1831.85,-896"/>
<text text-anchor="middle" x="1794.28" y="-875.42" font-family="sans" font-size="11.00">lacp_output</text>
</g>
<!-- lacp_output&#45;&gt;eth_output -->
<g id="edge10" class="edge">
<title>lacp_output&#45;&gt;eth_output</title>
<path fill="none" stroke="dodgerblue" d="M1832.22,-864.02C1839.25,-860.4 1846.24,-856.07 1852.1,-851 1876.8,-829.67 1896.46,-797.57 1908.49,-774.67"/>
<polygon fill="dodgerblue" stroke="dodgerblue" points="1911.53,-776.42 1912.94,-765.92 1905.29,-773.25 1911.53,-776.42"/>
</g>
<!-- snap_input&#45;&gt;l2_redirect -->
<g id="edge19" class="edge">
<title>snap_input&#45;&gt;l2_redirect</title>
<path fill="none" stroke="black" d="M1384.99,-27.5C1434.71,-43.67 1536.08,-76.65 1594.49,-95.65"/>
<polygon fill="black" stroke="black" points="1593.19,-98.9 1603.78,-98.67 1595.35,-92.25 1593.19,-98.9"/>
</g>
<!-- arp_input_reply -->
<g id="node13" class="node">
<title>arp_input_reply</title>
<polygon fill="none" stroke="dodgerblue" points="424.95,-118 330.3,-118 330.3,-82 424.95,-82 424.95,-118"/>
<text text-anchor="middle" x="377.62" y="-97.42" font-family="sans" font-size="11.00">arp_input_reply</text>
</g>
<!-- arp_input&#45;&gt;arp_input_reply -->
<g id="edge21" class="edge">
<title>arp_input&#45;&gt;arp_input_reply</title>
<path fill="none" stroke="black" d="M284.55,-100C294.91,-100 306.91,-100 318.76,-100"/>
<polygon fill="black" stroke="black" points="318.5,-103.5 328.5,-100 318.5,-96.5 318.5,-103.5"/>
</g>
<!-- arp_input_request -->
<g id="node14" class="node">
<title>arp_input_request</title>
<polygon fill="none" stroke="dodgerblue" points="431.7,-64 323.55,-64 323.55,-28 431.7,-28 431.7,-64"/>
<text text-anchor="middle" x="377.62" y="-43.42" font-family="sans" font-size="11.00">arp_input_request</text>
</g>
<!-- arp_input&#45;&gt;arp_input_request -->
<g id="edge20" class="edge">
<title>arp_input&#45;&gt;arp_input_request</title>
<path fill="none" stroke="black" d="M278.81,-89.33C292.01,-83.48 308.92,-75.99 324.94,-68.89"/>
<polygon fill="black" stroke="black" points="326.19,-72.17 333.92,-64.92 323.36,-65.77 326.19,-72.17"/>
</g>
<!-- arp_output_reply -->
<g id="node15" class="node">
<title>arp_output_reply</title>
<polygon fill="none" stroke="dodgerblue" points="1845.35,-842 1743.2,-842 1743.2,-806 1845.35,-806 1845.35,-842"/>
<text text-anchor="middle" x="1794.28" y="-821.42" font-family="sans" font-size="11.00">arp_output_reply</text>
</g>
<!-- arp_output_reply&#45;&gt;eth_output -->
<g id="edge22" class="edge">
<title>arp_output_reply&#45;&gt;eth_output</title>
<path fill="none" stroke="dodgerblue" d="M1836.4,-805.55C1841.76,-802.83 1847.12,-799.94 1852.1,-797 1866.39,-788.56 1881.43,-777.98 1893.86,-768.73"/>
<polygon fill="dodgerblue" stroke="dodgerblue" points="1895.73,-771.71 1901.59,-762.89 1891.5,-766.13 1895.73,-771.71"/>
</g>
<!-- arp_output_request -->
<g id="node16" class="node">
<title>arp_output_request</title>
<polygon fill="none" stroke="dodgerblue" points="1852.1,-788 1736.45,-788 1736.45,-752 1852.1,-752 1852.1,-788"/>
<text text-anchor="middle" x="1794.28" y="-767.42" font-family="sans" font-size="11.00">arp_output_request</text>
</g>
<!-- arp_output_request&#45;&gt;eth_output -->
<g id="edge23" class="edge">
<title>arp_output_request&#45;&gt;eth_output</title>
<path fill="none" stroke="dodgerblue" d="M1852.55,-759.58C1861.16,-758.01 1869.92,-756.42 1878.18,-754.91"/>
<polygon fill="dodgerblue" stroke="dodgerblue" points="1878.76,-758.36 1887.97,-753.13 1877.51,-751.48 1878.76,-758.36"/>
</g>
<!-- ospf_redirect -->
<g id="node17" class="node">
<title>ospf_redirect</title>
<ellipse fill="none" stroke="black" cx="1490.19" cy="-180" rx="41.13" ry="18"/>
<text text-anchor="middle" x="1490.19" y="-177.43" font-family="sans" font-size="11.00">ospf_redirect</text>
</g>
<!-- ospf_redirect&#45;&gt;l2_redirect -->
<g id="edge73" class="edge">
<title>ospf_redirect&#45;&gt;l2_redirect</title>
<path fill="none" stroke="black" d="M1518.92,-166.83C1540.3,-156.68 1570.28,-142.44 1594.88,-130.76"/>
<polygon fill="black" stroke="black" points="1596.16,-134.03 1603.69,-126.58 1593.16,-127.71 1596.16,-134.03"/>
</g>
<!-- sr6_output -->
<g id="node40" class="node">
<title>sr6_output</title>
<ellipse fill="none" stroke="black" cx="1922.66" cy="-648" rx="34.11" ry="18"/>
<text text-anchor="middle" x="1922.66" y="-645.42" font-family="sans" font-size="11.00">sr6_output</text>
</g>
<!-- srv6_l2_encap&#45;&gt;sr6_output -->
<g id="edge78" class="edge">
<title>srv6_l2_encap&#45;&gt;sr6_output</title>
<path fill="none" stroke="black" d="M1159.77,-767.71C1207.03,-765.34 1285.87,-762 1353.79,-762 1353.79,-762 1353.79,-762 1491.19,-762 1641.94,-762 1812.78,-695.86 1885.65,-664.34"/>
<polygon fill="black" stroke="black" points="1886.94,-667.59 1894.69,-660.38 1884.13,-661.18 1886.94,-667.59"/>
</g>
<!-- loopback_input -->
<g id="node19" class="node">
<title>loopback_input</title>
<polygon fill="none" stroke="dodgerblue" points="183.9,-364 90,-364 90,-328 183.9,-328 183.9,-364"/>
<text text-anchor="middle" x="136.95" y="-343.43" font-family="sans" font-size="11.00">loopback_input</text>
</g>
<!-- loopback_input&#45;&gt;ip_input -->
<g id="edge11" class="edge">
<title>loopback_input&#45;&gt;ip_input</title>
<path fill="none" stroke="dodgerblue" d="M169.01,-364.4C185.83,-374.37 206.51,-386.62 223.11,-396.45"/>
<polygon fill="dodgerblue" stroke="dodgerblue" points="221.15,-399.36 231.54,-401.45 224.72,-393.34 221.15,-399.36"/>
</g>
<!-- loopback_input&#45;&gt;ip6_input -->
<g id="edge12" class="edge">
<title>loopback_input&#45;&gt;ip6_input</title>
<path fill="none" stroke="dodgerblue" d="M184.16,-341.07C272.42,-332.09 471.15,-314 638.91,-314 638.91,-314 638.91,-314 892.87,-314 957.09,-314 1031.46,-307.3 1075.93,-302.57"/>
<polygon fill="dodgerblue" stroke="dodgerblue" points="1076.04,-306.08 1085.61,-301.52 1075.29,-299.12 1076.04,-306.08"/>
</g>
<!-- loopback_output -->
<g id="node20" class="node">
<title>loopback_output</title>
<polygon fill="none" stroke="dodgerblue" points="1844.98,-382 1743.58,-382 1743.58,-346 1844.98,-346 1844.98,-382"/>
<text text-anchor="middle" x="1794.28" y="-361.43" font-family="sans" font-size="11.00">loopback_output</text>
</g>
<!-- loop_xvrf -->
<g id="node21" class="node">
<title>loop_xvrf</title>
<ellipse fill="none" stroke="black" cx="1000.92" cy="-400" rx="29.73" ry="18"/>
<text text-anchor="middle" x="1000.92" y="-397.43" font-family="sans" font-size="11.00">loop_xvrf</text>
</g>
<!-- loop_xvrf&#45;&gt;ip_input -->
<g id="edge13" class="edge">
<title>loop_xvrf&#45;&gt;ip_input</title>
<path fill="none" stroke="black" d="M974.45,-391.16C932.88,-377.54 847.64,-353 773.3,-353 510.02,-353 510.02,-353 510.02,-353 428.6,-353 336.47,-382.72 288.24,-400.67"/>
<polygon fill="black" stroke="black" points="287.04,-397.38 278.93,-404.2 289.53,-403.92 287.04,-397.38"/>
</g>
<!-- loop_xvrf&#45;&gt;ip6_input -->
<g id="edge14" class="edge">
<title>loop_xvrf&#45;&gt;ip6_input</title>
<path fill="none" stroke="black" d="M1018.2,-385.39C1037.07,-368.44 1068.4,-340.31 1090.41,-320.56"/>
<polygon fill="black" stroke="black" points="1092.69,-323.21 1097.79,-313.93 1088.01,-318.01 1092.69,-323.21"/>
</g>
<!-- ip_forward -->
<g id="node22" class="node">
<title>ip_forward</title>
<ellipse fill="none" stroke="black" cx="511.02" cy="-510" rx="34.55" ry="18"/>
<text text-anchor="middle" x="511.02" y="-507.43" font-family="sans" font-size="11.00">ip_forward</text>
</g>
<!-- ip_output -->
<g id="node28" class="node">
<title>ip_output</title>
<ellipse fill="none" stroke="black" cx="891.87" cy="-629" rx="30.61" ry="18"/>
<text text-anchor="middle" x="891.87" y="-626.42" font-family="sans" font-size="11.00">ip_output</text>
</g>
<!-- ip_forward&#45;&gt;ip_output -->
<g id="edge27" class="edge">
<title>ip_forward&#45;&gt;ip_output</title>
<path fill="none" stroke="black" d="M545.97,-511.2C615.68,-514.14 772.3,-523.35 819.13,-548 842.66,-560.39 862.1,-583.84 874.78,-602.34"/>
<polygon fill="black" stroke="black" points="871.71,-604.03 880.12,-610.47 877.56,-600.19 871.71,-604.03"/>
</g>
<!-- ip_fragment -->
<g id="node23" class="node">
<title>ip_fragment</title>
<ellipse fill="none" stroke="black" cx="772.3" cy="-721" rx="38.5" ry="18"/>
<text text-anchor="middle" x="772.3" y="-718.42" font-family="sans" font-size="11.00">ip_fragment</text>
</g>
<!-- ip_fragment&#45;&gt;ip_output -->
<g id="edge28" class="edge">
<title>ip_fragment&#45;&gt;ip_output</title>
<path fill="none" stroke="black" d="M787.16,-704.13C796.37,-696.55 808.65,-688.02 819.13,-680 832.59,-669.7 847,-657.82 859.35,-647.98"/>
<polygon fill="black" stroke="black" points="861.46,-650.78 867.15,-641.84 857.13,-645.27 861.46,-650.78"/>
</g>
<!-- ip_hold -->
<g id="node24" class="node">
<title>ip_hold</title>
<polygon fill="none" stroke="dodgerblue" points="1027.92,-658 973.92,-658 973.92,-622 1027.92,-622 1027.92,-658"/>
<text text-anchor="middle" x="1000.92" y="-637.42" font-family="sans" font-size="11.00">ip_hold</text>
</g>
<!-- ip_input&#45;&gt;ip_forward -->
<g id="edge29" class="edge">
<title>ip_input&#45;&gt;ip_forward</title>
<path fill="none" stroke="black" d="M260.39,-431.59C269.36,-456.12 289.41,-499.65 323.55,-518 369.27,-542.57 430.78,-533.26 470.42,-522.85"/>
<polygon fill="black" stroke="black" points="471.33,-526.23 480.03,-520.17 469.46,-519.48 471.33,-526.23"/>
</g>
<!-- ip_input_local -->
<g id="node27" class="node">
<title>ip_input_local</title>
<ellipse fill="none" stroke="black" cx="511.02" cy="-437" rx="43.32" ry="18"/>
<text text-anchor="middle" x="511.02" y="-434.43" font-family="sans" font-size="11.00">ip_input_local</text>
</g>
<!-- ip_input&#45;&gt;ip_input_local -->
<g id="edge32" class="edge">
<title>ip_input&#45;&gt;ip_input_local</title>
<path fill="none" stroke="black" d="M280.44,-410.42C315.07,-406.27 378.51,-401.09 431.7,-410 444.3,-412.11 457.58,-416.01 469.56,-420.19"/>
<polygon fill="black" stroke="black" points="468.12,-423.39 478.71,-423.56 470.53,-416.82 468.12,-423.39"/>
</g>
<!-- ip_input&#45;&gt;ip_output -->
<g id="edge31" class="edge">
<title>ip_input&#45;&gt;ip_output</title>
<path fill="none" stroke="black" d="M258.42,-432.22C265.76,-464.35 284.9,-531.7 323.55,-574 387.12,-643.58 415.77,-675 510.02,-675 510.02,-675 510.02,-675 640.91,-675 720.57,-675 741.62,-674.4 819.13,-656 831.49,-653.06 844.61,-648.56 856.21,-644.07"/>
<polygon fill="black" stroke="black" points="857.4,-647.36 865.37,-640.38 854.79,-640.87 857.4,-647.36"/>
</g>
<!-- dnat44_dynamic -->
<g id="node37" class="node">
<title>dnat44_dynamic</title>
<ellipse fill="none" stroke="black" cx="377.62" cy="-437" rx="50.77" ry="18"/>
<text text-anchor="middle" x="377.62" y="-434.43" font-family="sans" font-size="11.00">dnat44_dynamic</text>
</g>
<!-- ip_input&#45;&gt;dnat44_dynamic -->
<g id="edge30" class="edge">
<title>ip_input&#45;&gt;dnat44_dynamic</title>
<path fill="none" stroke="black" d="M279.98,-418.77C291.99,-421.03 306.84,-423.83 321.27,-426.56"/>
<polygon fill="black" stroke="black" points="320.21,-429.92 330.69,-428.33 321.51,-423.04 320.21,-429.92"/>
</g>
<!-- dnat44_static -->
<g id="node38" class="node">
<title>dnat44_static</title>
<ellipse fill="none" stroke="black" cx="377.62" cy="-491" rx="41.13" ry="18"/>
<text text-anchor="middle" x="377.62" y="-488.43" font-family="sans" font-size="11.00">dnat44_static</text>
</g>
<!-- ip_input&#45;&gt;dnat44_static -->
<g id="edge33" class="edge">
<title>ip_input&#45;&gt;dnat44_static</title>
<path fill="none" stroke="black" d="M272.02,-427.74C285.63,-438.26 305.29,-452.82 323.55,-464 328.39,-466.96 333.58,-469.89 338.77,-472.67"/>
<polygon fill="black" stroke="black" points="336.8,-475.59 347.28,-477.1 340.02,-469.38 336.8,-475.59"/>
</g>
<!-- ip_loadbalance -->
<g id="node26" class="node">
<title>ip_loadbalance</title>
<ellipse fill="none" stroke="black" cx="772.3" cy="-575" rx="46.82" ry="18"/>
<text text-anchor="middle" x="772.3" y="-572.42" font-family="sans" font-size="11.00">ip_loadbalance</text>
</g>
<!-- ip_loadbalance&#45;&gt;ip_output -->
<g id="edge34" class="edge">
<title>ip_loadbalance&#45;&gt;ip_output</title>
<path fill="none" stroke="black" d="M810.5,-585.76C827.01,-592.67 846.15,-601.59 861.62,-609.64"/>
<polygon fill="black" stroke="black" points="859.85,-612.66 870.32,-614.31 863.17,-606.5 859.85,-612.66"/>
</g>
<!-- ip_input_local&#45;&gt;ospf_redirect -->
<g id="edge38" class="edge">
<title>ip_input_local&#45;&gt;ospf_redirect</title>
<path fill="none" stroke="black" d="M544.78,-425.48C671.86,-380.86 1128.45,-221.23 1195.85,-207 1279.35,-189.37 1378.64,-183.25 1437.64,-181.13"/>
<polygon fill="black" stroke="black" points="1437.5,-184.63 1447.38,-180.8 1437.27,-177.64 1437.5,-184.63"/>
</g>
<!-- ipip_input -->
<g id="node35" class="node">
<title>ipip_input</title>
<ellipse fill="none" stroke="black" cx="639.91" cy="-575" rx="31.92" ry="18"/>
<text text-anchor="middle" x="639.91" y="-572.42" font-family="sans" font-size="11.00">ipip_input</text>
</g>
<!-- ip_input_local&#45;&gt;ipip_input -->
<g id="edge36" class="edge">
<title>ip_input_local&#45;&gt;ipip_input</title>
<path fill="none" stroke="black" d="M527.58,-453.92C549.91,-478.21 591.17,-523.08 616.7,-550.85"/>
<polygon fill="black" stroke="black" points="614.03,-553.11 623.37,-558.11 619.18,-548.38 614.03,-553.11"/>
</g>
<!-- icmp_input -->
<g id="node41" class="node">
<title>icmp_input</title>
<ellipse fill="none" stroke="black" cx="639.91" cy="-483" rx="35.43" ry="18"/>
<text text-anchor="middle" x="639.91" y="-480.43" font-family="sans" font-size="11.00">icmp_input</text>
</g>
<!-- ip_input_local&#45;&gt;icmp_input -->
<g id="edge35" class="edge">
<title>ip_input_local&#45;&gt;icmp_input</title>
<path fill="none" stroke="black" d="M544.36,-448.73C561.27,-454.85 582.09,-462.4 599.88,-468.85"/>
<polygon fill="black" stroke="black" points="598.49,-472.07 609.08,-472.19 600.87,-465.49 598.49,-472.07"/>
</g>
<!-- l4_input_local -->
<g id="node52" class="node">
<title>l4_input_local</title>
<ellipse fill="none" stroke="black" cx="1490.19" cy="-364" rx="42.88" ry="18"/>
<text text-anchor="middle" x="1490.19" y="-361.43" font-family="sans" font-size="11.00">l4_input_local</text>
</g>
<!-- ip_input_local&#45;&gt;l4_input_local -->
<g id="edge37" class="edge">
<title>ip_input_local&#45;&gt;l4_input_local</title>
<path fill="none" stroke="black" d="M554.63,-438.45C658.5,-441.45 932.85,-446.1 1159.85,-421 1260.24,-409.9 1376.35,-387.55 1440.41,-374.37"/>
<polygon fill="black" stroke="black" points="1440.8,-377.86 1449.89,-372.41 1439.38,-371.01 1440.8,-377.86"/>
</g>
<!-- ip_output&#45;&gt;eth_output -->
<g id="edge39" class="edge">
<title>ip_output&#45;&gt;eth_output</title>
<path fill="none" stroke="black" d="M907.57,-644.94C921.09,-658.65 942.38,-677.92 964.61,-689 1026.25,-719.7 1046.68,-724 1115.54,-724 1115.54,-724 1115.54,-724 1640.61,-724 1724.71,-724 1822.49,-734.36 1877.72,-741.17"/>
<polygon fill="black" stroke="black" points="1876.98,-744.6 1887.34,-742.38 1877.86,-737.66 1876.98,-744.6"/>
</g>
<!-- ip_output&#45;&gt;loop_xvrf -->
<g id="edge42" class="edge">
<title>ip_output&#45;&gt;loop_xvrf</title>
<path fill="none" stroke="black" d="M901.09,-611.41C919.62,-571.77 964.77,-475.19 987.05,-427.53"/>
<polygon fill="black" stroke="black" points="990.11,-429.25 991.17,-418.71 983.77,-426.28 990.11,-429.25"/>
</g>
<!-- ip_output&#45;&gt;ip_fragment -->
<g id="edge41" class="edge">
<title>ip_output&#45;&gt;ip_fragment</title>
<path fill="none" stroke="black" d="M879.2,-645.71C865.21,-660.52 840.92,-681.33 819.13,-698 816.83,-699.75 814.46,-701.53 812.04,-703.29"/>
<polygon fill="black" stroke="black" points="810.07,-700.4 803.9,-709.02 814.1,-706.13 810.07,-700.4"/>
</g>
<!-- ip_output&#45;&gt;ip_hold -->
<g id="edge40" class="edge">
<title>ip_output&#45;&gt;ip_hold</title>
<path fill="none" stroke="black" d="M922.4,-632.03C934.85,-633.31 949.48,-634.82 962.65,-636.17"/>
<polygon fill="black" stroke="black" points="961.95,-639.62 972.26,-637.16 962.67,-632.65 961.95,-639.62"/>
</g>
<!-- ip_output&#45;&gt;ip_loadbalance -->
<g id="edge43" class="edge">
<title>ip_output&#45;&gt;ip_loadbalance</title>
<path fill="none" stroke="black" d="M863.31,-622.16C846.18,-615.42 824.06,-605.36 806.04,-596.16"/>
<polygon fill="black" stroke="black" points="807.79,-593.13 797.31,-591.57 804.54,-599.32 807.79,-593.13"/>
</g>
<!-- ipip_output -->
<g id="node36" class="node">
<title>ipip_output</title>
<ellipse fill="none" stroke="black" cx="1000.92" cy="-586" rx="36.3" ry="18"/>
<text text-anchor="middle" x="1000.92" y="-583.42" font-family="sans" font-size="11.00">ipip_output</text>
</g>
<!-- ip_output&#45;&gt;ipip_output -->
<g id="edge44" class="edge">
<title>ip_output&#45;&gt;ipip_output</title>
<path fill="none" stroke="black" d="M913,-615.5C925.29,-609.42 941.47,-602.51 956.54,-596.78"/>
<polygon fill="black" stroke="black" points="957.65,-600.1 965.83,-593.37 955.23,-593.53 957.65,-600.1"/>
</g>
<!-- ip_output&#45;&gt;sr6_output -->
<g id="edge45" class="edge">
<title>ip_output&#45;&gt;sr6_output</title>
<path fill="none" stroke="black" d="M913.03,-642.23C926.95,-650.71 946.2,-661.18 964.61,-667 1029.08,-687.38 1047.93,-686 1115.54,-686 1115.54,-686 1115.54,-686 1491.19,-686 1633.2,-686 1800.54,-665.23 1878.12,-654.4"/>
<polygon fill="black" stroke="black" points="1878.43,-657.89 1887.84,-653.02 1877.45,-650.96 1878.43,-657.89"/>
</g>
<!-- ip6_forward -->
<g id="node29" class="node">
<title>ip6_forward</title>
<ellipse fill="none" stroke="black" cx="1233.91" cy="-364" rx="38.06" ry="18"/>
<text text-anchor="middle" x="1233.91" y="-361.43" font-family="sans" font-size="11.00">ip6_forward</text>
</g>
<!-- ip6_output -->
<g id="node34" class="node">
<title>ip6_output</title>
<ellipse fill="none" stroke="black" cx="1794.28" cy="-598" rx="34.11" ry="18"/>
<text text-anchor="middle" x="1794.28" y="-595.42" font-family="sans" font-size="11.00">ip6_output</text>
</g>
<!-- ip6_forward&#45;&gt;ip6_output -->
<g id="edge52" class="edge">
<title>ip6_forward&#45;&gt;ip6_output</title>
<path fill="none" stroke="black" d="M1242.03,-381.76C1263.04,-431.43 1330.12,-571.51 1437.61,-624 1543.54,-675.73 1688.64,-636.13 1756.05,-612.44"/>
<polygon fill="black" stroke="black" points="1756.92,-615.84 1765.14,-609.16 1754.55,-609.26 1756.92,-615.84"/>
</g>
<!-- ip6_hold -->
<g id="node30" class="node">
<title>ip6_hold</title>
<polygon fill="none" stroke="dodgerblue" points="1951.98,-612 1893.33,-612 1893.33,-576 1951.98,-576 1951.98,-612"/>
<text text-anchor="middle" x="1922.66" y="-591.42" font-family="sans" font-size="11.00">ip6_hold</text>
</g>
<!-- ip6_input&#45;&gt;ip6_forward -->
<g id="edge53" class="edge">
<title>ip6_input&#45;&gt;ip6_forward</title>
<path fill="none" stroke="black" d="M1138.97,-310.26C1155.76,-319.87 1179.45,-333.42 1198.83,-344.51"/>
<polygon fill="black" stroke="black" points="1197.07,-347.53 1207.49,-349.46 1200.55,-341.45 1197.07,-347.53"/>
</g>
<!-- ip6_input_local -->
<g id="node33" class="node">
<title>ip6_input_local</title>
<ellipse fill="none" stroke="black" cx="1354.79" cy="-276" rx="46.82" ry="18"/>
<text text-anchor="middle" x="1354.79" y="-273.43" font-family="sans" font-size="11.00">ip6_input_local</text>
</g>
<!-- ip6_input&#45;&gt;ip6_input_local -->
<g id="edge55" class="edge">
<title>ip6_input&#45;&gt;ip6_input_local</title>
<path fill="none" stroke="black" d="M1146.03,-295.35C1183.45,-291.86 1249.97,-285.67 1297.66,-281.23"/>
<polygon fill="black" stroke="black" points="1297.91,-284.72 1307.54,-280.31 1297.26,-277.75 1297.91,-284.72"/>
</g>
<!-- ip6_input&#45;&gt;ip6_output -->
<g id="edge54" class="edge">
<title>ip6_input&#45;&gt;ip6_output</title>
<path fill="none" stroke="black" d="M1146.5,-299.76C1179.3,-302.95 1233.2,-311.9 1271.97,-337 1349.96,-387.5 1355.07,-420.59 1401.61,-501 1423.19,-538.29 1402.18,-566.5 1437.61,-591 1486.81,-625.02 1665.15,-611.57 1749.06,-603"/>
<polygon fill="black" stroke="black" points="1749.4,-606.49 1758.98,-601.97 1748.67,-599.53 1749.4,-606.49"/>
</g>
<!-- sr6_local -->
<g id="node39" class="node">
<title>sr6_local</title>
<ellipse fill="none" stroke="black" cx="1233.91" cy="-234" rx="27.98" ry="18"/>
<text text-anchor="middle" x="1233.91" y="-231.43" font-family="sans" font-size="11.00">sr6_local</text>
</g>
<!-- ip6_input&#45;&gt;sr6_local -->
<g id="edge56" class="edge">
<title>ip6_input&#45;&gt;sr6_local</title>
<path fill="none" stroke="black" d="M1134.56,-283.6C1151.29,-272.49 1177.31,-257.63 1198.38,-246.91"/>
<polygon fill="black" stroke="black" points="1199.8,-250.12 1207.21,-242.55 1196.69,-243.84 1199.8,-250.12"/>
</g>
<!-- ip6_loadbalance -->
<g id="node32" class="node">
<title>ip6_loadbalance</title>
<ellipse fill="none" stroke="black" cx="1639.61" cy="-564" rx="50.33" ry="18"/>
<text text-anchor="middle" x="1639.61" y="-561.42" font-family="sans" font-size="11.00">ip6_loadbalance</text>
</g>
<!-- ip6_loadbalance&#45;&gt;ip6_output -->
<g id="edge57" class="edge">
<title>ip6_loadbalance&#45;&gt;ip6_output</title>
<path fill="none" stroke="black" d="M1688.91,-568.43C1710.63,-572.58 1735.86,-578.35 1756.08,-583.82"/>
<polygon fill="black" stroke="black" points="1755,-587.16 1765.58,-586.5 1756.9,-580.42 1755,-587.16"/>
</g>
<!-- ip6_input_local&#45;&gt;ospf_redirect -->
<g id="edge60" class="edge">
<title>ip6_input_local&#45;&gt;ospf_redirect</title>
<path fill="none" stroke="black" d="M1378.12,-259.93C1400.12,-244.1 1433.91,-219.78 1458.44,-202.13"/>
<polygon fill="black" stroke="black" points="1460.37,-205.05 1466.44,-196.37 1456.28,-199.37 1460.37,-205.05"/>
</g>
<!-- icmp6_input -->
<g id="node44" class="node">
<title>icmp6_input</title>
<polygon fill="none" stroke="dodgerblue" points="1529.26,-294 1451.11,-294 1451.11,-258 1529.26,-258 1529.26,-294"/>
<text text-anchor="middle" x="1490.19" y="-273.43" font-family="sans" font-size="11.00">icmp6_input</text>
</g>
<!-- ip6_input_local&#45;&gt;icmp6_input -->
<g id="edge58" class="edge">
<title>ip6_input_local&#45;&gt;icmp6_input</title>
<path fill="none" stroke="black" d="M1402.07,-276C1414.16,-276 1427.24,-276 1439.5,-276"/>
<polygon fill="black" stroke="black" points="1439.43,-279.5 1449.43,-276 1439.43,-272.5 1439.43,-279.5"/>
</g>
<!-- ip6_input_local&#45;&gt;l4_input_local -->
<g id="edge59" class="edge">
<title>ip6_input_local&#45;&gt;l4_input_local</title>
<path fill="none" stroke="black" d="M1379.64,-291.73C1401.11,-305.9 1432.86,-326.84 1456.66,-342.54"/>
<polygon fill="black" stroke="black" points="1454.45,-345.28 1464.73,-347.86 1458.31,-339.44 1454.45,-345.28"/>
</g>
<!-- ip6_output&#45;&gt;eth_output -->
<g id="edge61" class="edge">
<title>ip6_output&#45;&gt;eth_output</title>
<path fill="none" stroke="black" d="M1809.29,-614.51C1831.4,-640.58 1874.53,-691.44 1900.45,-722"/>
<polygon fill="black" stroke="black" points="1897.47,-723.89 1906.61,-729.26 1902.81,-719.37 1897.47,-723.89"/>
</g>
<!-- ip6_output&#45;&gt;loop_xvrf -->
<g id="edge63" class="edge">
<title>ip6_output&#45;&gt;loop_xvrf</title>
<path fill="none" stroke="black" d="M1783.69,-580.48C1769.02,-555.27 1738.65,-508.97 1700.45,-483 1653.6,-451.14 1631.78,-464.98 1578.76,-445 1562.38,-438.82 1559.68,-433.5 1542.76,-429 1462.04,-407.55 1439.32,-410 1355.79,-410 1232.91,-410 1232.91,-410 1232.91,-410 1165.89,-410 1088.03,-405.75 1041.98,-402.79"/>
<polygon fill="black" stroke="black" points="1042.43,-399.31 1032.22,-402.15 1041.97,-406.29 1042.43,-399.31"/>
</g>
<!-- ip6_output&#45;&gt;ip6_hold -->
<g id="edge62" class="edge">
<title>ip6_output&#45;&gt;ip6_hold</title>
<path fill="none" stroke="black" d="M1828.81,-596.94C1845.09,-596.42 1864.77,-595.8 1881.81,-595.26"/>
<polygon fill="black" stroke="black" points="1881.71,-598.77 1891.6,-594.95 1881.49,-591.77 1881.71,-598.77"/>
</g>
<!-- ip6_output&#45;&gt;ip6_loadbalance -->
<g id="edge64" class="edge">
<title>ip6_output&#45;&gt;ip6_loadbalance</title>
<path fill="none" stroke="black" d="M1760.02,-596.28C1738.16,-592.62 1709.29,-586.37 1685.41,-580.19"/>
<polygon fill="black" stroke="black" points="1686.52,-576.86 1675.95,-577.66 1684.71,-583.62 1686.52,-576.86"/>
</g>
<!-- ip6_output&#45;&gt;sr6_output -->
<g id="edge65" class="edge">
<title>ip6_output&#45;&gt;sr6_output</title>
<path fill="none" stroke="black" d="M1826.52,-604.44C1845.67,-610.93 1870.14,-620.59 1889.46,-629.29"/>
<polygon fill="black" stroke="black" points="1887.97,-632.46 1898.51,-633.5 1890.92,-626.11 1887.97,-632.46"/>
</g>
<!-- ipip_input&#45;&gt;ip_input -->
<g id="edge68" class="edge">
<title>ipip_input&#45;&gt;ip_input</title>
<path fill="none" stroke="black" d="M608.92,-580.18C549.04,-588.82 412.77,-599.82 323.55,-540 289.74,-517.33 271.06,-472.3 261.96,-442.67"/>
<polygon fill="black" stroke="black" points="265.37,-441.87 259.25,-433.23 258.65,-443.81 265.37,-441.87"/>
</g>
<!-- ipip_output&#45;&gt;ip_output -->
<g id="edge69" class="edge">
<title>ipip_output&#45;&gt;ip_output</title>
<path fill="none" stroke="black" d="M977.95,-600.4C964.83,-606.78 947.78,-613.96 932.39,-619.67"/>
<polygon fill="black" stroke="black" points="931.22,-616.37 922.98,-623.03 933.58,-622.96 931.22,-616.37"/>
</g>
<!-- dnat44_dynamic&#45;&gt;ip_forward -->
<g id="edge74" class="edge">
<title>dnat44_dynamic&#45;&gt;ip_forward</title>
<path fill="none" stroke="black" d="M408.27,-451.68C415.95,-455.59 424.17,-459.88 431.7,-464 447.06,-472.41 463.83,-482.18 477.9,-490.54"/>
<polygon fill="black" stroke="black" points="475.93,-493.44 486.31,-495.57 479.52,-487.44 475.93,-493.44"/>
</g>
<!-- dnat44_dynamic&#45;&gt;ip_input_local -->
<g id="edge75" class="edge">
<title>dnat44_dynamic&#45;&gt;ip_input_local</title>
<path fill="none" stroke="black" d="M428.67,-437C437.65,-437 447.04,-437 456.11,-437"/>
<polygon fill="black" stroke="black" points="455.88,-440.5 465.88,-437 455.88,-433.5 455.88,-440.5"/>
</g>
<!-- dnat44_static&#45;&gt;ip_forward -->
<g id="edge76" class="edge">
<title>dnat44_static&#45;&gt;ip_forward</title>
<path fill="none" stroke="black" d="M416.98,-496.55C432.34,-498.77 450.13,-501.34 466.01,-503.64"/>
<polygon fill="black" stroke="black" points="465.28,-507.07 475.68,-505.03 466.28,-500.14 465.28,-507.07"/>
</g>
<!-- dnat44_static&#45;&gt;ip_input_local -->
<g id="edge77" class="edge">
<title>dnat44_static&#45;&gt;ip_input_local</title>
<path fill="none" stroke="black" d="M408.44,-478.75C426.33,-471.4 449.33,-461.94 468.93,-453.89"/>
<polygon fill="black" stroke="black" points="470.09,-457.19 478.01,-450.16 467.43,-450.72 470.09,-457.19"/>
</g>
<!-- sr6_local&#45;&gt;bond_output -->
<g id="edge82" class="edge">
<title>sr6_local&#45;&gt;bond_output</title>
<path fill="none" stroke="black" d="M1261.8,-237.11C1317.04,-242.34 1446.2,-248.63 1542.76,-207 1562.42,-198.52 1558.75,-182.61 1578.76,-175 1629.32,-155.78 1650.83,-153.48 1700.45,-175 1913.34,-267.32 2003.02,-575.01 2026.37,-671.68"/>
<polygon fill="black" stroke="black" points="2022.91,-672.23 2028.61,-681.17 2029.72,-670.63 2022.91,-672.23"/>
</g>
<!-- sr6_local&#45;&gt;port_output -->
<g id="edge83" class="edge">
<title>sr6_local&#45;&gt;port_output</title>
<path fill="none" stroke="black" d="M1247.21,-217.7C1280.86,-175.15 1379.27,-64 1489.19,-64 1489.19,-64 1489.19,-64 1923.66,-64 2058.73,-64 2128.24,-566.15 2143.8,-694.44"/>
<polygon fill="black" stroke="black" points="2140.3,-694.64 2144.96,-704.16 2147.25,-693.81 2140.3,-694.64"/>
</g>
<!-- sr6_local&#45;&gt;ip_input -->
<g id="edge79" class="edge">
<title>sr6_local&#45;&gt;ip_input</title>
<path fill="none" stroke="black" d="M1205.53,-234.39C1162.28,-234.97 1075.51,-236 1001.92,-236 771.3,-236 771.3,-236 771.3,-236 565.16,-236 506.6,-262.21 323.55,-357 306.54,-365.81 289.92,-379.39 277.28,-391.08"/>
<polygon fill="black" stroke="black" points="275.11,-388.31 270.3,-397.75 279.95,-393.37 275.11,-388.31"/>
</g>
<!-- sr6_local&#45;&gt;ip6_input -->
<g id="edge80" class="edge">
<title>sr6_local&#45;&gt;ip6_input</title>
<path fill="none" stroke="black" d="M1216.29,-248.13C1199.91,-259.05 1174.35,-273.69 1153.34,-284.44"/>
<polygon fill="black" stroke="black" points="1151.89,-281.25 1144.5,-288.84 1155.01,-287.52 1151.89,-281.25"/>
</g>
<!-- sr6_local&#45;&gt;ip6_input_local -->
<g id="edge81" class="edge">
<title>sr6_local&#45;&gt;ip6_input_local</title>
<path fill="none" stroke="black" d="M1258.97,-242.5C1273.22,-247.53 1291.73,-254.07 1308.61,-260.04"/>
<polygon fill="black" stroke="black" points="1307.38,-263.32 1317.98,-263.35 1309.72,-256.72 1307.38,-263.32"/>
</g>
<!-- sr6_output&#45;&gt;ip6_output -->
<g id="edge84" class="edge">
<title>sr6_output&#45;&gt;ip6_output</title>
<path fill="none" stroke="black" d="M1890.28,-641.51C1871.13,-635.02 1846.7,-625.37 1827.41,-616.68"/>
<polygon fill="black" stroke="black" points="1828.92,-613.52 1818.38,-612.48 1825.97,-619.87 1828.92,-613.52"/>
</g>
<!-- icmp_output -->
<g id="node43" class="node">
<title>icmp_output</title>
<ellipse fill="none" stroke="black" cx="772.3" cy="-629" rx="39.81" ry="18"/>
<text text-anchor="middle" x="772.3" y="-626.42" font-family="sans" font-size="11.00">icmp_output</text>
</g>
<!-- icmp_input&#45;&gt;icmp_output -->
<g id="edge24" class="edge">
<title>icmp_input&#45;&gt;icmp_output</title>
<path fill="none" stroke="black" d="M653.95,-499.92C663.87,-512.93 677.78,-531.43 689.48,-548 706.12,-571.56 704.53,-582.18 725.48,-602 728.32,-604.68 731.47,-607.22 734.75,-609.58"/>
<polygon fill="black" stroke="black" points="732.64,-612.38 742.93,-614.92 736.47,-606.52 732.64,-612.38"/>
</g>
<!-- icmp_local_send -->
<g id="node42" class="node">
<title>icmp_local_send</title>
<polygon fill="none" stroke="dodgerblue" points="689.48,-647 590.33,-647 590.33,-611 689.48,-611 689.48,-647"/>
<text text-anchor="middle" x="639.91" y="-626.42" font-family="sans" font-size="11.00">icmp_local_send</text>
</g>
<!-- icmp_local_send&#45;&gt;icmp_output -->
<g id="edge25" class="edge">
<title>icmp_local_send&#45;&gt;icmp_output</title>
<path fill="none" stroke="dodgerblue" d="M689.83,-629C700.02,-629 710.77,-629 721.01,-629"/>
<polygon fill="dodgerblue" stroke="dodgerblue" points="720.77,-632.5 730.77,-629 720.77,-625.5 720.77,-632.5"/>
</g>
<!-- icmp_output&#45;&gt;ip_output -->
<g id="edge26" class="edge">
<title>icmp_output&#45;&gt;ip_output</title>
<path fill="none" stroke="black" d="M812.45,-629C824.4,-629 837.57,-629 849.65,-629"/>
<polygon fill="black" stroke="black" points="849.3,-632.5 859.3,-629 849.3,-625.5 849.3,-632.5"/>
</g>
<!-- icmp6_output -->
<g id="node45" class="node">
<title>icmp6_output</title>
<ellipse fill="none" stroke="black" cx="1639.61" cy="-510" rx="43.32" ry="18"/>
<text text-anchor="middle" x="1639.61" y="-507.43" font-family="sans" font-size="11.00">icmp6_output</text>
</g>
<!-- icmp6_input&#45;&gt;icmp6_output -->
<g id="edge46" class="edge">
<title>icmp6_input&#45;&gt;icmp6_output</title>
<path fill="none" stroke="dodgerblue" d="M1509.95,-294.36C1520.77,-305.8 1533.93,-321.28 1542.76,-337 1567.54,-381.11 1553.06,-401.42 1578.76,-445 1587.6,-459.99 1600.37,-474.46 1611.83,-485.93"/>
<polygon fill="dodgerblue" stroke="dodgerblue" points="1609.17,-488.22 1618.79,-492.66 1614.04,-483.19 1609.17,-488.22"/>
</g>
<!-- ndp_na_input -->
<g id="node47" class="node">
<title>ndp_na_input</title>
<polygon fill="none" stroke="dodgerblue" points="1682.06,-220 1597.16,-220 1597.16,-184 1682.06,-184 1682.06,-220"/>
<text text-anchor="middle" x="1639.61" y="-199.43" font-family="sans" font-size="11.00">ndp_na_input</text>
</g>
<!-- icmp6_input&#45;&gt;ndp_na_input -->
<g id="edge48" class="edge">
<title>icmp6_input&#45;&gt;ndp_na_input</title>
<path fill="none" stroke="dodgerblue" d="M1524.18,-257.6C1540.47,-248.7 1560.5,-238.01 1578.76,-229 1581.31,-227.74 1583.93,-226.47 1586.59,-225.21"/>
<polygon fill="dodgerblue" stroke="dodgerblue" points="1587.97,-228.43 1595.53,-221.01 1584.99,-222.09 1587.97,-228.43"/>
</g>
<!-- ndp_ns_input -->
<g id="node49" class="node">
<title>ndp_ns_input</title>
<polygon fill="none" stroke="dodgerblue" points="1681.68,-328 1597.53,-328 1597.53,-292 1681.68,-292 1681.68,-328"/>
<text text-anchor="middle" x="1639.61" y="-307.43" font-family="sans" font-size="11.00">ndp_ns_input</text>
</g>
<!-- icmp6_input&#45;&gt;ndp_ns_input -->
<g id="edge47" class="edge">
<title>icmp6_input&#45;&gt;ndp_ns_input</title>
<path fill="none" stroke="dodgerblue" d="M1529.54,-284.84C1546.78,-288.82 1567.42,-293.58 1586.08,-297.88"/>
<polygon fill="dodgerblue" stroke="dodgerblue" points="1585.08,-301.25 1595.61,-300.08 1586.66,-294.43 1585.08,-301.25"/>
</g>
<!-- ndp_rs_input -->
<g id="node51" class="node">
<title>ndp_rs_input</title>
<polygon fill="none" stroke="dodgerblue" points="1680.56,-274 1598.66,-274 1598.66,-238 1680.56,-238 1680.56,-274"/>
<text text-anchor="middle" x="1639.61" y="-253.43" font-family="sans" font-size="11.00">ndp_rs_input</text>
</g>
<!-- icmp6_input&#45;&gt;ndp_rs_input -->
<g id="edge49" class="edge">
<title>icmp6_input&#45;&gt;ndp_rs_input</title>
<path fill="none" stroke="dodgerblue" d="M1529.54,-270.8C1547.14,-268.41 1568.27,-265.54 1587.22,-262.97"/>
<polygon fill="dodgerblue" stroke="dodgerblue" points="1587.45,-266.47 1596.89,-261.66 1586.51,-259.54 1587.45,-266.47"/>
</g>
<!-- icmp6_output&#45;&gt;ip6_output -->
<g id="edge50" class="edge">
<title>icmp6_output&#45;&gt;ip6_output</title>
<path fill="none" stroke="black" d="M1671.2,-522.69C1680.73,-526.93 1691.17,-531.89 1700.45,-537 1722.41,-549.07 1745.99,-564.6 1763.89,-576.97"/>
<polygon fill="black" stroke="black" points="1761.76,-579.75 1771.97,-582.61 1765.77,-574.02 1761.76,-579.75"/>
</g>
<!-- icmp6_local_send -->
<g id="node46" class="node">
<title>icmp6_local_send</title>
<polygon fill="none" stroke="dodgerblue" points="1542.76,-582 1437.61,-582 1437.61,-546 1542.76,-546 1542.76,-582"/>
<text text-anchor="middle" x="1490.19" y="-561.42" font-family="sans" font-size="11.00">icmp6_local_send</text>
</g>
<!-- icmp6_local_send&#45;&gt;icmp6_output -->
<g id="edge51" class="edge">
<title>icmp6_local_send&#45;&gt;icmp6_output</title>
<path fill="none" stroke="dodgerblue" d="M1541.51,-545.57C1559.16,-539.1 1578.81,-531.9 1595.79,-525.68"/>
<polygon fill="dodgerblue" stroke="dodgerblue" points="1596.91,-529 1605.1,-522.28 1594.5,-522.43 1596.91,-529"/>
</g>
<!-- ndp_na_output -->
<g id="node48" class="node">
<title>ndp_na_output</title>
<polygon fill="none" stroke="dodgerblue" points="1536.39,-528 1443.99,-528 1443.99,-492 1536.39,-492 1536.39,-528"/>
<text text-anchor="middle" x="1490.19" y="-507.43" font-family="sans" font-size="11.00">ndp_na_output</text>
</g>
<!-- ndp_na_output&#45;&gt;icmp6_output -->
<g id="edge66" class="edge">
<title>ndp_na_output&#45;&gt;icmp6_output</title>
<path fill="none" stroke="dodgerblue" d="M1536.62,-510C1551.8,-510 1568.87,-510 1584.64,-510"/>
<polygon fill="dodgerblue" stroke="dodgerblue" points="1584.33,-513.5 1594.33,-510 1584.33,-506.5 1584.33,-513.5"/>
</g>
<!-- ndp_ns_output -->
<g id="node50" class="node">
<title>ndp_ns_output</title>
<polygon fill="none" stroke="dodgerblue" points="1536.01,-474 1444.36,-474 1444.36,-438 1536.01,-438 1536.01,-474"/>
<text text-anchor="middle" x="1490.19" y="-453.43" font-family="sans" font-size="11.00">ndp_ns_output</text>
</g>
<!-- ndp_ns_output&#45;&gt;icmp6_output -->
<g id="edge67" class="edge">
<title>ndp_ns_output&#45;&gt;icmp6_output</title>
<path fill="none" stroke="dodgerblue" d="M1536.22,-472.5C1555.19,-479.44 1577.16,-487.49 1595.88,-494.35"/>
<polygon fill="dodgerblue" stroke="dodgerblue" points="1594.46,-497.56 1605.05,-497.71 1596.87,-490.98 1594.46,-497.56"/>
</g>
<!-- l4_loopback_output -->
<g id="node53" class="node">
<title>l4_loopback_output</title>
<ellipse fill="none" stroke="black" cx="1639.61" cy="-364" rx="60.85" ry="18"/>
<text text-anchor="middle" x="1639.61" y="-361.43" font-family="sans" font-size="11.00">l4_loopback_output</text>
</g>
<!-- l4_input_local&#45;&gt;l4_loopback_output -->
<g id="edge70" class="edge">
<title>l4_input_local&#45;&gt;l4_loopback_output</title>
<path fill="none" stroke="black" d="M1533.43,-364C1543.96,-364 1555.54,-364 1567.06,-364"/>
<polygon fill="black" stroke="black" points="1566.99,-367.5 1576.99,-364 1566.99,-360.5 1566.99,-367.5"/>
</g>
<!-- dhcp_input -->
<g id="node54" class="node">
<title>dhcp_input</title>
<polygon fill="none" stroke="dodgerblue" points="1675.68,-436 1603.53,-436 1603.53,-400 1675.68,-400 1675.68,-436"/>
<text text-anchor="middle" x="1639.61" y="-415.43" font-family="sans" font-size="11.00">dhcp_input</text>
</g>
<!-- l4_input_local&#45;&gt;dhcp_input -->
<g id="edge71" class="edge">
<title>l4_input_local&#45;&gt;dhcp_input</title>
<path fill="none" stroke="black" d="M1523.18,-375.72C1543.41,-383.13 1569.89,-392.83 1592.39,-401.07"/>
<polygon fill="black" stroke="black" points="1591.05,-404.31 1601.64,-404.46 1593.46,-397.73 1591.05,-404.31"/>
</g>
<!-- l4_loopback_output&#45;&gt;loopback_output -->
<g id="edge72" class="edge">
<title>l4_loopback_output&#45;&gt;loopback_output</title>
<path fill="none" stroke="black" d="M1700.95,-364C1711.12,-364 1721.69,-364 1731.89,-364"/>
<polygon fill="black" stroke="black" points="1731.7,-367.5 1741.7,-364 1731.7,-360.5 1731.7,-367.5"/>
</g>
</g>
</svg>
