<?xml version="1.0" encoding="UTF-8" standalone="no"?>
<!DOCTYPE svg PUBLIC "-//W3C//DTD SVG 1.1//EN"
 "http://www.w3.org/Graphics/SVG/1.1/DTD/svg11.dtd">
<!-- Generated by graphviz version 2.43.0 (0)
 -->
<!-- Title: gr&#45;0003 Pages: 1 -->
<svg width="1370pt" height="994pt"
 viewBox="0.00 0.00 1369.86 994.00" xmlns="http://www.w3.org/2000/svg" xmlns:xlink="http://www.w3.org/1999/xlink">
<g id="graph0" class="graph" transform="scale(1 1) rotate(0) translate(4 990)">
<title>gr&#45;0003</title>
<polygon fill="white" stroke="transparent" points="-4,4 -4,-990 1365.86,-990 1365.86,4 -4,4"/>
<!-- control_input -->
<g id="node1" class="node">
<title>control_input</title>
<ellipse fill="none" stroke="blue" stroke-width="2" cx="39.08" cy="-781" rx="39.15" ry="18"/>
<text text-anchor="middle" x="39.08" y="-778.2" font-family="sans" font-size="11.00">control_input</text>
</g>
<!-- loopback_input -->
<g id="node2" class="node">
<title>loopback_input</title>
<ellipse fill="none" stroke="black" cx="158.65" cy="-556" rx="44.51" ry="18"/>
<text text-anchor="middle" x="158.65" y="-553.2" font-family="sans" font-size="11.00">loopback_input</text>
</g>
<!-- control_input&#45;&gt;loopback_input -->
<g id="edge1" class="edge">
<title>control_input&#45;&gt;loopback_input</title>
<path fill="none" stroke="blue" stroke-width="2" d="M49.3,-763.34C69.87,-724 119.55,-628.92 143.83,-582.45"/>
<polygon fill="blue" stroke="blue" stroke-width="2" points="146.94,-584.06 148.47,-573.57 140.74,-580.82 146.94,-584.06"/>
</g>
<!-- arp_output_request -->
<g id="node3" class="node">
<title>arp_output_request</title>
<ellipse fill="none" stroke="black" cx="295.6" cy="-968" rx="56.39" ry="18"/>
<text text-anchor="middle" x="295.6" y="-965.2" font-family="sans" font-size="11.00">arp_output_request</text>
</g>
<!-- control_input&#45;&gt;arp_output_request -->
<g id="edge2" class="edge">
<title>control_input&#45;&gt;arp_output_request</title>
<path fill="none" stroke="blue" stroke-width="2" d="M45.59,-798.78C55.1,-826.55 77.21,-880.11 114.15,-910 148.08,-937.46 195.3,-952.03 232.92,-959.7"/>
<polygon fill="blue" stroke="blue" stroke-width="2" points="232.28,-963.14 242.76,-961.6 233.61,-956.27 232.28,-963.14"/>
</g>
<!-- icmp_local_send -->
<g id="node4" class="node">
<title>icmp_local_send</title>
<ellipse fill="none" stroke="black" cx="558.1" cy="-369" rx="47.43" ry="18"/>
<text text-anchor="middle" x="558.1" y="-366.2" font-family="sans" font-size="11.00">icmp_local_send</text>
</g>
<!-- control_input&#45;&gt;icmp_local_send -->
<g id="edge3" class="edge">
<title>control_input&#45;&gt;icmp_local_send</title>
<path fill="none" stroke="blue" stroke-width="2" d="M40.19,-762.83C41.44,-717.39 50.93,-597.55 114.15,-529 218.08,-416.33 407.33,-382.87 501.21,-373.04"/>
<polygon fill="blue" stroke="blue" stroke-width="2" points="501.75,-376.5 511.36,-372.03 501.06,-369.53 501.75,-376.5"/>
</g>
<!-- icmp6_local_send -->
<g id="node5" class="node">
<title>icmp6_local_send</title>
<ellipse fill="none" stroke="black" cx="295.6" cy="-712" rx="50.45" ry="18"/>
<text text-anchor="middle" x="295.6" y="-709.2" font-family="sans" font-size="11.00">icmp6_local_send</text>
</g>
<!-- control_input&#45;&gt;icmp6_local_send -->
<g id="edge4" class="edge">
<title>control_input&#45;&gt;icmp6_local_send</title>
<path fill="none" stroke="blue" stroke-width="2" d="M63.68,-767.02C77.87,-759.17 96.55,-749.82 114.15,-744 153.88,-730.86 200.41,-722.78 236.28,-718.02"/>
<polygon fill="blue" stroke="blue" stroke-width="2" points="237.09,-721.45 246.57,-716.71 236.2,-714.5 237.09,-721.45"/>
</g>
<!-- ndp_ns_output -->
<g id="node6" class="node">
<title>ndp_ns_output</title>
<ellipse fill="none" stroke="black" cx="431.46" cy="-766" rx="43.34" ry="18"/>
<text text-anchor="middle" x="431.46" y="-763.2" font-family="sans" font-size="11.00">ndp_ns_output</text>
</g>
<!-- control_input&#45;&gt;ndp_ns_output -->
<g id="edge5" class="edge">
<title>control_input&#45;&gt;ndp_ns_output</title>
<path fill="none" stroke="blue" stroke-width="2" d="M78.13,-778.8C89.7,-778.18 102.44,-777.52 114.15,-777 206.97,-772.88 315.17,-769.4 377.94,-767.52"/>
<polygon fill="blue" stroke="blue" stroke-width="2" points="378.1,-771.02 387.99,-767.22 377.89,-764.02 378.1,-771.02"/>
</g>
<!-- ip_output -->
<g id="node7" class="node">
<title>ip_output</title>
<ellipse fill="none" stroke="black" cx="1060.83" cy="-458" rx="28.44" ry="18"/>
<text text-anchor="middle" x="1060.83" y="-455.2" font-family="sans" font-size="11.00">ip_output</text>
</g>
<!-- control_input&#45;&gt;ip_output -->
<g id="edge6" class="edge">
<title>control_input&#45;&gt;ip_output</title>
<path fill="none" stroke="blue" stroke-width="2" d="M40.29,-762.79C41.6,-684.17 50.77,-374.88 114.15,-307 170.28,-246.89 212.36,-266 294.6,-266 294.6,-266 294.6,-266 559.1,-266 752.99,-266 825.96,-247.19 985.76,-357 1013.48,-376.05 1034.75,-408.95 1047.24,-432.02"/>
<polygon fill="blue" stroke="blue" stroke-width="2" points="1044.16,-433.68 1051.89,-440.92 1050.36,-430.44 1044.16,-433.68"/>
</g>
<!-- arp_output_reply -->
<g id="node8" class="node">
<title>arp_output_reply</title>
<ellipse fill="none" stroke="black" cx="295.6" cy="-914" rx="48.69" ry="18"/>
<text text-anchor="middle" x="295.6" y="-911.2" font-family="sans" font-size="11.00">arp_output_reply</text>
</g>
<!-- control_input&#45;&gt;arp_output_reply -->
<g id="edge7" class="edge">
<title>control_input&#45;&gt;arp_output_reply</title>
<path fill="none" stroke="blue" stroke-width="2" d="M47.93,-798.9C59.09,-822.08 81.84,-861.89 114.15,-882 150.69,-904.74 199.01,-912.39 236.44,-914.54"/>
<polygon fill="blue" stroke="blue" stroke-width="2" points="236.55,-918.05 246.7,-915.01 236.87,-911.05 236.55,-918.05"/>
</g>
<!-- ip6_output -->
<g id="node9" class="node">
<title>ip6_output</title>
<ellipse fill="none" stroke="black" cx="797.25" cy="-675" rx="31.46" ry="18"/>
<text text-anchor="middle" x="797.25" y="-672.2" font-family="sans" font-size="11.00">ip6_output</text>
</g>
<!-- control_input&#45;&gt;ip6_output -->
<g id="edge8" class="edge">
<title>control_input&#45;&gt;ip6_output</title>
<path fill="none" stroke="blue" stroke-width="2" d="M65.57,-794.28C79.17,-803.6 96.67,-815.14 114.15,-822 189.71,-851.64 213.44,-850 294.6,-850 294.6,-850 294.6,-850 559.1,-850 658.65,-850 741.68,-747.54 777.42,-699.28"/>
<polygon fill="blue" stroke="blue" stroke-width="2" points="780.25,-701.34 783.34,-691.2 774.6,-697.2 780.25,-701.34"/>
</g>
<!-- control_input&#45;&gt;ip6_output -->
<g id="edge10" class="edge">
<title>control_input&#45;&gt;ip6_output</title>
<path fill="none" stroke="blue" stroke-width="2" d="M51.96,-798C65.86,-812.14 90.03,-830.54 114.15,-840 189.71,-869.64 213.44,-868 294.6,-868 294.6,-868 294.6,-868 559.1,-868 664.05,-868 750.65,-754.11 782.82,-701.15"/>
<polygon fill="blue" stroke="blue" stroke-width="2" points="785.96,-702.7 788.01,-692.31 779.93,-699.16 785.96,-702.7"/>
</g>
<!-- ndp_na_output -->
<g id="node10" class="node">
<title>ndp_na_output</title>
<ellipse fill="none" stroke="black" cx="158.65" cy="-804" rx="43.92" ry="18"/>
<text text-anchor="middle" x="158.65" y="-801.2" font-family="sans" font-size="11.00">ndp_na_output</text>
</g>
<!-- control_input&#45;&gt;ndp_na_output -->
<g id="edge9" class="edge">
<title>control_input&#45;&gt;ndp_na_output</title>
<path fill="none" stroke="blue" stroke-width="2" d="M75.35,-787.9C85.81,-789.95 97.47,-792.23 108.63,-794.41"/>
<polygon fill="blue" stroke="blue" stroke-width="2" points="108.22,-797.9 118.7,-796.38 109.56,-791.03 108.22,-797.9"/>
</g>
<!-- ip_input -->
<g id="node14" class="node">
<title>ip_input</title>
<ellipse fill="none" stroke="black" cx="558.1" cy="-449" rx="27" ry="18"/>
<text text-anchor="middle" x="558.1" y="-446.2" font-family="sans" font-size="11.00">ip_input</text>
</g>
<!-- loopback_input&#45;&gt;ip_input -->
<g id="edge15" class="edge">
<title>loopback_input&#45;&gt;ip_input</title>
<path fill="none" stroke="black" d="M190.12,-543.12C233.38,-525.3 315.43,-493.29 388.04,-475 433.32,-463.6 486.75,-456.39 521.24,-452.53"/>
<polygon fill="black" stroke="black" points="521.74,-456 531.31,-451.44 520.99,-449.04 521.74,-456"/>
</g>
<!-- ip6_input -->
<g id="node15" class="node">
<title>ip6_input</title>
<ellipse fill="none" stroke="black" cx="295.6" cy="-556" rx="27.86" ry="18"/>
<text text-anchor="middle" x="295.6" y="-553.2" font-family="sans" font-size="11.00">ip6_input</text>
</g>
<!-- loopback_input&#45;&gt;ip6_input -->
<g id="edge16" class="edge">
<title>loopback_input&#45;&gt;ip6_input</title>
<path fill="none" stroke="black" d="M203.47,-556C220.89,-556 240.73,-556 257.43,-556"/>
<polygon fill="black" stroke="black" points="257.9,-559.5 267.9,-556 257.9,-552.5 257.9,-559.5"/>
</g>
<!-- eth_output -->
<g id="node16" class="node">
<title>eth_output</title>
<ellipse fill="none" stroke="black" cx="1188.01" cy="-860" rx="32.04" ry="18"/>
<text text-anchor="middle" x="1188.01" y="-857.2" font-family="sans" font-size="11.00">eth_output</text>
</g>
<!-- arp_output_request&#45;&gt;eth_output -->
<g id="edge24" class="edge">
<title>arp_output_request&#45;&gt;eth_output</title>
<path fill="none" stroke="black" d="M351.21,-964.68C403.9,-961.77 485.93,-958 557.1,-958 557.1,-958 557.1,-958 930.32,-958 1017.97,-958 1112.04,-907.51 1158.16,-879.01"/>
<polygon fill="black" stroke="black" points="1160.12,-881.91 1166.73,-873.63 1156.4,-875.98 1160.12,-881.91"/>
</g>
<!-- icmp_output -->
<g id="node23" class="node">
<title>icmp_output</title>
<ellipse fill="none" stroke="black" cx="929.32" cy="-450" rx="36.81" ry="18"/>
<text text-anchor="middle" x="929.32" y="-447.2" font-family="sans" font-size="11.00">icmp_output</text>
</g>
<!-- icmp_local_send&#45;&gt;icmp_output -->
<g id="edge27" class="edge">
<title>icmp_local_send&#45;&gt;icmp_output</title>
<path fill="none" stroke="black" d="M599.8,-360.27C655.4,-350.26 757.29,-338.82 836.87,-369 866.37,-380.19 892.46,-405.72 909.15,-425.15"/>
<polygon fill="black" stroke="black" points="906.62,-427.59 915.7,-433.05 912.01,-423.12 906.62,-427.59"/>
</g>
<!-- icmp6_output -->
<g id="node32" class="node">
<title>icmp6_output</title>
<ellipse fill="none" stroke="black" cx="681.47" cy="-740" rx="40.32" ry="18"/>
<text text-anchor="middle" x="681.47" y="-737.2" font-family="sans" font-size="11.00">icmp6_output</text>
</g>
<!-- icmp6_local_send&#45;&gt;icmp6_output -->
<g id="edge48" class="edge">
<title>icmp6_local_send&#45;&gt;icmp6_output</title>
<path fill="none" stroke="black" d="M345.22,-715.55C418.77,-720.91 557.56,-731.03 631.39,-736.42"/>
<polygon fill="black" stroke="black" points="631.56,-739.94 641.79,-737.18 632.07,-732.96 631.56,-739.94"/>
</g>
<!-- ndp_ns_output&#45;&gt;icmp6_output -->
<g id="edge64" class="edge">
<title>ndp_ns_output&#45;&gt;icmp6_output</title>
<path fill="none" stroke="black" d="M473.69,-761.68C517.23,-757.11 585.83,-749.92 631.94,-745.09"/>
<polygon fill="black" stroke="black" points="632.42,-748.56 642,-744.03 631.69,-741.6 632.42,-748.56"/>
</g>
<!-- ip_output&#45;&gt;eth_output -->
<g id="edge38" class="edge">
<title>ip_output&#45;&gt;eth_output</title>
<path fill="none" stroke="black" d="M1067.29,-475.53C1086.93,-538.6 1154.11,-754.33 1178.27,-831.92"/>
<polygon fill="black" stroke="black" points="1175.07,-833.41 1181.38,-841.92 1181.75,-831.33 1175.07,-833.41"/>
</g>
<!-- loopback_output -->
<g id="node18" class="node">
<title>loopback_output</title>
<ellipse fill="none" stroke="black" cx="1188.01" cy="-527" rx="48.69" ry="18"/>
<text text-anchor="middle" x="1188.01" y="-524.2" font-family="sans" font-size="11.00">loopback_output</text>
</g>
<!-- ip_output&#45;&gt;loopback_output -->
<g id="edge40" class="edge">
<title>ip_output&#45;&gt;loopback_output</title>
<path fill="none" stroke="black" d="M1082.79,-469.55C1101.38,-479.8 1128.95,-495 1151.07,-507.19"/>
<polygon fill="black" stroke="black" points="1149.41,-510.27 1159.86,-512.03 1152.79,-504.14 1149.41,-510.27"/>
</g>
<!-- ip_hold -->
<g id="node25" class="node">
<title>ip_hold</title>
<ellipse fill="none" stroke="black" cx="1188.01" cy="-404" rx="27" ry="18"/>
<text text-anchor="middle" x="1188.01" y="-401.2" font-family="sans" font-size="11.00">ip_hold</text>
</g>
<!-- ip_output&#45;&gt;ip_hold -->
<g id="edge39" class="edge">
<title>ip_output&#45;&gt;ip_hold</title>
<path fill="none" stroke="black" d="M1084.79,-448.1C1104.71,-439.5 1133.73,-426.98 1155.77,-417.48"/>
<polygon fill="black" stroke="black" points="1157.24,-420.65 1165.04,-413.48 1154.47,-414.23 1157.24,-420.65"/>
</g>
<!-- ipip_output -->
<g id="node30" class="node">
<title>ipip_output</title>
<ellipse fill="none" stroke="black" cx="1188.01" cy="-458" rx="33.8" ry="18"/>
<text text-anchor="middle" x="1188.01" y="-455.2" font-family="sans" font-size="11.00">ipip_output</text>
</g>
<!-- ip_output&#45;&gt;ipip_output -->
<g id="edge41" class="edge">
<title>ip_output&#45;&gt;ipip_output</title>
<path fill="none" stroke="black" d="M1087.77,-452.41C1104.45,-451.21 1126.48,-450.94 1145.55,-451.6"/>
<polygon fill="black" stroke="black" points="1145.64,-455.11 1155.79,-452.07 1145.96,-448.12 1145.64,-455.11"/>
</g>
<!-- arp_output_reply&#45;&gt;eth_output -->
<g id="edge23" class="edge">
<title>arp_output_reply&#45;&gt;eth_output</title>
<path fill="none" stroke="black" d="M344.61,-912.82C396.87,-911.64 482.92,-910 557.1,-910 557.1,-910 557.1,-910 930.32,-910 1009.96,-910 1100.98,-886.52 1150.39,-871.74"/>
<polygon fill="black" stroke="black" points="1151.45,-875.08 1160,-868.82 1149.41,-868.38 1151.45,-875.08"/>
</g>
<!-- ip6_output&#45;&gt;eth_output -->
<g id="edge58" class="edge">
<title>ip6_output&#45;&gt;eth_output</title>
<path fill="none" stroke="black" d="M821.99,-686.29C888.54,-717.97 1077.11,-807.7 1153.88,-844.23"/>
<polygon fill="black" stroke="black" points="1152.56,-847.48 1163.09,-848.62 1155.57,-841.16 1152.56,-847.48"/>
</g>
<!-- ip6_output&#45;&gt;loopback_output -->
<g id="edge60" class="edge">
<title>ip6_output&#45;&gt;loopback_output</title>
<path fill="none" stroke="black" d="M815.96,-660.27C830.49,-648.79 852,-633.15 872.87,-623 920.11,-600.03 1062.05,-560.4 1137.92,-539.99"/>
<polygon fill="black" stroke="black" points="1138.97,-543.33 1147.73,-537.36 1137.16,-536.57 1138.97,-543.33"/>
</g>
<!-- ip6_hold -->
<g id="node37" class="node">
<title>ip6_hold</title>
<ellipse fill="none" stroke="black" cx="929.32" cy="-650" rx="27" ry="18"/>
<text text-anchor="middle" x="929.32" y="-647.2" font-family="sans" font-size="11.00">ip6_hold</text>
</g>
<!-- ip6_output&#45;&gt;ip6_hold -->
<g id="edge59" class="edge">
<title>ip6_output&#45;&gt;ip6_hold</title>
<path fill="none" stroke="black" d="M827.44,-669.39C846.92,-665.65 872.64,-660.7 893.23,-656.74"/>
<polygon fill="black" stroke="black" points="894.01,-660.16 903.17,-654.83 892.69,-653.28 894.01,-660.16"/>
</g>
<!-- ndp_na_output&#45;&gt;icmp6_output -->
<g id="edge62" class="edge">
<title>ndp_na_output&#45;&gt;icmp6_output</title>
<path fill="none" stroke="black" d="M202.65,-804.7C263.48,-805.18 378.06,-804.26 474.88,-793 533.59,-786.17 548.36,-782.81 605.31,-767 617.09,-763.73 629.67,-759.51 641.11,-755.38"/>
<polygon fill="black" stroke="black" points="642.64,-758.55 650.81,-751.8 640.22,-751.98 642.64,-758.55"/>
</g>
<!-- control_output -->
<g id="node11" class="node">
<title>control_output</title>
<ellipse fill="none" stroke="black" cx="1318.99" cy="-229" rx="42.75" ry="18"/>
<text text-anchor="middle" x="1318.99" y="-226.2" font-family="sans" font-size="11.00">control_output</text>
</g>
<!-- eth_input -->
<g id="node12" class="node">
<title>eth_input</title>
<ellipse fill="none" stroke="black" cx="158.65" cy="-334" rx="27.86" ry="18"/>
<text text-anchor="middle" x="158.65" y="-331.2" font-family="sans" font-size="11.00">eth_input</text>
</g>
<!-- arp_input -->
<g id="node13" class="node">
<title>arp_input</title>
<ellipse fill="none" stroke="black" cx="1060.83" cy="-56" rx="28.44" ry="18"/>
<text text-anchor="middle" x="1060.83" y="-53.2" font-family="sans" font-size="11.00">arp_input</text>
</g>
<!-- eth_input&#45;&gt;arp_input -->
<g id="edge11" class="edge">
<title>eth_input&#45;&gt;arp_input</title>
<path fill="none" stroke="black" d="M179.9,-321.86C244.54,-283.73 452.8,-165.64 641.31,-111 778,-71.38 948.15,-60.22 1022.34,-57.14"/>
<polygon fill="black" stroke="black" points="1022.71,-60.63 1032.57,-56.74 1022.44,-53.63 1022.71,-60.63"/>
</g>
<!-- eth_input&#45;&gt;ip_input -->
<g id="edge12" class="edge">
<title>eth_input&#45;&gt;ip_input</title>
<path fill="none" stroke="black" d="M184.22,-341.11C252.49,-360.86 444.64,-416.46 523.09,-439.16"/>
<polygon fill="black" stroke="black" points="522.37,-442.6 532.95,-442.01 524.32,-435.87 522.37,-442.6"/>
</g>
<!-- eth_input&#45;&gt;ip6_input -->
<g id="edge13" class="edge">
<title>eth_input&#45;&gt;ip6_input</title>
<path fill="none" stroke="black" d="M169.8,-350.69C193.25,-389.27 251.35,-484.86 279.22,-530.69"/>
<polygon fill="black" stroke="black" points="276.34,-532.7 284.52,-539.42 282.32,-529.06 276.34,-532.7"/>
</g>
<!-- arp_input_request -->
<g id="node20" class="node">
<title>arp_input_request</title>
<ellipse fill="none" stroke="black" cx="1188.01" cy="-72" rx="52.2" ry="18"/>
<text text-anchor="middle" x="1188.01" y="-69.2" font-family="sans" font-size="11.00">arp_input_request</text>
</g>
<!-- arp_input&#45;&gt;arp_input_request -->
<g id="edge19" class="edge">
<title>arp_input&#45;&gt;arp_input_request</title>
<path fill="none" stroke="black" d="M1088.69,-59.43C1100.48,-60.94 1114.82,-62.77 1128.86,-64.57"/>
<polygon fill="black" stroke="black" points="1128.62,-68.07 1138.99,-65.86 1129.51,-61.12 1128.62,-68.07"/>
</g>
<!-- arp_input_reply -->
<g id="node21" class="node">
<title>arp_input_reply</title>
<ellipse fill="none" stroke="black" cx="1188.01" cy="-18" rx="45.09" ry="18"/>
<text text-anchor="middle" x="1188.01" y="-15.2" font-family="sans" font-size="11.00">arp_input_reply</text>
</g>
<!-- arp_input&#45;&gt;arp_input_reply -->
<g id="edge20" class="edge">
<title>arp_input&#45;&gt;arp_input_reply</title>
<path fill="none" stroke="black" d="M1086.56,-48.49C1102.27,-43.73 1123.06,-37.41 1141.66,-31.77"/>
<polygon fill="black" stroke="black" points="1142.88,-35.06 1151.43,-28.8 1140.84,-28.36 1142.88,-35.06"/>
</g>
<!-- ip_input&#45;&gt;ip_output -->
<g id="edge32" class="edge">
<title>ip_input&#45;&gt;ip_output</title>
<path fill="none" stroke="black" d="M583.34,-456.05C599.6,-460.49 621.57,-465.94 641.31,-469 792.64,-492.44 833.83,-496.17 985.76,-477 998.93,-475.34 1013.11,-472.07 1025.51,-468.72"/>
<polygon fill="black" stroke="black" points="1026.77,-472 1035.44,-465.9 1024.87,-465.26 1026.77,-472"/>
</g>
<!-- ip_forward -->
<g id="node24" class="node">
<title>ip_forward</title>
<ellipse fill="none" stroke="black" cx="681.47" cy="-312" rx="32.04" ry="18"/>
<text text-anchor="middle" x="681.47" y="-309.2" font-family="sans" font-size="11.00">ip_forward</text>
</g>
<!-- ip_input&#45;&gt;ip_forward -->
<g id="edge31" class="edge">
<title>ip_input&#45;&gt;ip_forward</title>
<path fill="none" stroke="black" d="M572.78,-433.55C593.89,-409.73 634.53,-363.86 659.4,-335.78"/>
<polygon fill="black" stroke="black" points="662.26,-337.83 666.27,-328.03 657.02,-333.19 662.26,-337.83"/>
</g>
<!-- ip_input_local -->
<g id="node26" class="node">
<title>ip_input_local</title>
<ellipse fill="none" stroke="black" cx="681.47" cy="-442" rx="40.32" ry="18"/>
<text text-anchor="middle" x="681.47" y="-439.2" font-family="sans" font-size="11.00">ip_input_local</text>
</g>
<!-- ip_input&#45;&gt;ip_input_local -->
<g id="edge33" class="edge">
<title>ip_input&#45;&gt;ip_input_local</title>
<path fill="none" stroke="black" d="M585.13,-447.5C598.62,-446.72 615.54,-445.74 631.36,-444.83"/>
<polygon fill="black" stroke="black" points="631.78,-448.31 641.56,-444.24 631.38,-441.33 631.78,-448.31"/>
</g>
<!-- srv6_steer -->
<g id="node27" class="node">
<title>srv6_steer</title>
<ellipse fill="none" stroke="black" cx="681.47" cy="-610" rx="29.12" ry="18"/>
<text text-anchor="middle" x="681.47" y="-607.2" font-family="sans" font-size="11.00">srv6_steer</text>
</g>
<!-- ip_input&#45;&gt;srv6_steer -->
<g id="edge34" class="edge">
<title>ip_input&#45;&gt;srv6_steer</title>
<path fill="none" stroke="black" d="M571.18,-465.03C592.42,-493.21 636.61,-551.82 661.81,-585.24"/>
<polygon fill="black" stroke="black" points="659.26,-587.68 668.08,-593.56 664.85,-583.47 659.26,-587.68"/>
</g>
<!-- ip6_input&#45;&gt;ip6_output -->
<g id="edge52" class="edge">
<title>ip6_input&#45;&gt;ip6_output</title>
<path fill="none" stroke="black" d="M309.45,-571.91C325.76,-591.07 355.69,-622.92 388.04,-641 508.26,-708.16 680.17,-693.17 756.79,-681.89"/>
<polygon fill="black" stroke="black" points="757.6,-685.3 766.95,-680.33 756.54,-678.38 757.6,-685.3"/>
</g>
<!-- ip6_input&#45;&gt;srv6_steer -->
<g id="edge55" class="edge">
<title>ip6_input&#45;&gt;srv6_steer</title>
<path fill="none" stroke="black" d="M320.35,-564.4C338.63,-570.53 364.63,-578.51 388.04,-583 477.89,-600.24 585.45,-606.58 641.76,-608.83"/>
<polygon fill="black" stroke="black" points="641.86,-612.33 651.99,-609.21 642.13,-605.34 641.86,-612.33"/>
</g>
<!-- ip6_forward -->
<g id="node36" class="node">
<title>ip6_forward</title>
<ellipse fill="none" stroke="black" cx="558.1" cy="-648" rx="35.06" ry="18"/>
<text text-anchor="middle" x="558.1" y="-645.2" font-family="sans" font-size="11.00">ip6_forward</text>
</g>
<!-- ip6_input&#45;&gt;ip6_forward -->
<g id="edge51" class="edge">
<title>ip6_input&#45;&gt;ip6_forward</title>
<path fill="none" stroke="black" d="M313.32,-569.93C330.84,-583.77 359.7,-604.55 388.04,-616 428.45,-632.32 477.72,-640.43 512.61,-644.39"/>
<polygon fill="black" stroke="black" points="512.64,-647.91 522.96,-645.49 513.38,-640.95 512.64,-647.91"/>
</g>
<!-- ip6_input_local -->
<g id="node38" class="node">
<title>ip6_input_local</title>
<ellipse fill="none" stroke="black" cx="431.46" cy="-502" rx="43.34" ry="18"/>
<text text-anchor="middle" x="431.46" y="-499.2" font-family="sans" font-size="11.00">ip6_input_local</text>
</g>
<!-- ip6_input&#45;&gt;ip6_input_local -->
<g id="edge53" class="edge">
<title>ip6_input&#45;&gt;ip6_input_local</title>
<path fill="none" stroke="black" d="M319.61,-546.72C338.97,-538.91 367.11,-527.56 390.19,-518.24"/>
<polygon fill="black" stroke="black" points="391.77,-521.38 399.74,-514.4 389.15,-514.89 391.77,-521.38"/>
</g>
<!-- srv6_local -->
<g id="node39" class="node">
<title>srv6_local</title>
<ellipse fill="none" stroke="black" cx="431.46" cy="-556" rx="28.53" ry="18"/>
<text text-anchor="middle" x="431.46" y="-553.2" font-family="sans" font-size="11.00">srv6_local</text>
</g>
<!-- ip6_input&#45;&gt;srv6_local -->
<g id="edge54" class="edge">
<title>ip6_input&#45;&gt;srv6_local</title>
<path fill="none" stroke="black" d="M322.09,-550.57C342.26,-549.08 370.71,-548.85 393.4,-549.89"/>
<polygon fill="black" stroke="black" points="393.5,-553.4 403.69,-550.47 393.9,-546.41 393.5,-553.4"/>
</g>
<!-- port_tx -->
<g id="node17" class="node">
<title>port_tx</title>
<ellipse fill="none" stroke="black" cx="1318.99" cy="-860" rx="27" ry="18"/>
<text text-anchor="middle" x="1318.99" y="-857.2" font-family="sans" font-size="11.00">port_tx</text>
</g>
<!-- eth_output&#45;&gt;port_tx -->
<g id="edge14" class="edge">
<title>eth_output&#45;&gt;port_tx</title>
<path fill="none" stroke="black" d="M1220.23,-860C1238.73,-860 1262.25,-860 1281.58,-860"/>
<polygon fill="black" stroke="black" points="1281.83,-863.5 1291.83,-860 1281.83,-856.5 1281.83,-863.5"/>
</g>
<!-- loopback_output&#45;&gt;control_output -->
<g id="edge17" class="edge">
<title>loopback_output&#45;&gt;control_output</title>
<path fill="none" stroke="black" d="M1213.59,-511.46C1223.05,-504.4 1233.22,-495.31 1240.11,-485 1289.05,-411.77 1308.21,-306.6 1314.86,-256.96"/>
<polygon fill="black" stroke="black" points="1318.34,-257.33 1316.13,-246.97 1311.4,-256.45 1318.34,-257.33"/>
</g>
<!-- port_rx -->
<g id="node19" class="node">
<title>port_rx</title>
<ellipse fill="none" stroke="blue" stroke-width="2" cx="39.08" cy="-334" rx="27" ry="18"/>
<text text-anchor="middle" x="39.08" y="-331.2" font-family="sans" font-size="11.00">port_rx</text>
</g>
<!-- port_rx&#45;&gt;eth_input -->
<g id="edge18" class="edge">
<title>port_rx&#45;&gt;eth_input</title>
<path fill="none" stroke="blue" stroke-width="2" d="M66.17,-334C82.23,-334 103.07,-334 120.8,-334"/>
<polygon fill="blue" stroke="blue" stroke-width="2" points="120.82,-337.5 130.82,-334 120.82,-330.5 120.82,-337.5"/>
</g>
<!-- arp_input_request&#45;&gt;control_output -->
<g id="edge22" class="edge">
<title>arp_input_request&#45;&gt;control_output</title>
<path fill="none" stroke="black" d="M1217.74,-86.83C1225.53,-91.66 1233.61,-97.48 1240.11,-104 1269.06,-133.02 1292.29,-174.71 1305.61,-201.83"/>
<polygon fill="black" stroke="black" points="1302.59,-203.6 1310.07,-211.11 1308.9,-200.58 1302.59,-203.6"/>
</g>
<!-- arp_input_reply&#45;&gt;control_output -->
<g id="edge21" class="edge">
<title>arp_input_reply&#45;&gt;control_output</title>
<path fill="none" stroke="black" d="M1220.83,-30.5C1227.83,-34.35 1234.75,-39.16 1240.11,-45 1281.9,-90.53 1303.24,-161.81 1312.36,-200.94"/>
<polygon fill="black" stroke="black" points="1308.97,-201.85 1314.56,-210.85 1315.81,-200.33 1308.97,-201.85"/>
</g>
<!-- icmp_input -->
<g id="node22" class="node">
<title>icmp_input</title>
<ellipse fill="none" stroke="black" cx="797.25" cy="-450" rx="32.63" ry="18"/>
<text text-anchor="middle" x="797.25" y="-447.2" font-family="sans" font-size="11.00">icmp_input</text>
</g>
<!-- icmp_input&#45;&gt;control_output -->
<g id="edge26" class="edge">
<title>icmp_input&#45;&gt;control_output</title>
<path fill="none" stroke="black" d="M823.67,-439.19C907.78,-403.43 1177.45,-288.76 1278.9,-245.62"/>
<polygon fill="black" stroke="black" points="1280.35,-248.81 1288.18,-241.67 1277.61,-242.37 1280.35,-248.81"/>
</g>
<!-- icmp_input&#45;&gt;icmp_output -->
<g id="edge25" class="edge">
<title>icmp_input&#45;&gt;icmp_output</title>
<path fill="none" stroke="black" d="M830.07,-450C845.64,-450 864.68,-450 881.84,-450"/>
<polygon fill="black" stroke="black" points="882.24,-453.5 892.24,-450 882.24,-446.5 882.24,-453.5"/>
</g>
<!-- icmp_output&#45;&gt;ip_output -->
<g id="edge28" class="edge">
<title>icmp_output&#45;&gt;ip_output</title>
<path fill="none" stroke="black" d="M966.05,-452.21C983.58,-453.29 1004.68,-454.59 1022.42,-455.69"/>
<polygon fill="black" stroke="black" points="1022.23,-459.18 1032.43,-456.31 1022.67,-452.2 1022.23,-459.18"/>
</g>
<!-- ip_forward&#45;&gt;ip_output -->
<g id="edge29" class="edge">
<title>ip_forward&#45;&gt;ip_output</title>
<path fill="none" stroke="black" d="M712.67,-316.64C744.24,-322 794.93,-332.05 836.87,-347 909.58,-372.92 989.29,-416.66 1030.89,-440.77"/>
<polygon fill="black" stroke="black" points="1029.26,-443.86 1039.66,-445.88 1032.79,-437.82 1029.26,-443.86"/>
</g>
<!-- ip_hold&#45;&gt;control_output -->
<g id="edge30" class="edge">
<title>ip_hold&#45;&gt;control_output</title>
<path fill="none" stroke="black" d="M1210.42,-393.83C1220.32,-388.37 1231.72,-380.92 1240.11,-372 1272.31,-337.78 1295.53,-287.72 1307.85,-256.81"/>
<polygon fill="black" stroke="black" points="1311.26,-257.7 1311.61,-247.11 1304.73,-255.17 1311.26,-257.7"/>
</g>
<!-- ip_input_local&#45;&gt;icmp_input -->
<g id="edge35" class="edge">
<title>ip_input_local&#45;&gt;icmp_input</title>
<path fill="none" stroke="black" d="M721.31,-444.73C732.04,-445.49 743.73,-446.31 754.62,-447.07"/>
<polygon fill="black" stroke="black" points="754.53,-450.57 764.75,-447.78 755.02,-443.59 754.53,-450.57"/>
</g>
<!-- ipip_input -->
<g id="node28" class="node">
<title>ipip_input</title>
<ellipse fill="none" stroke="black" cx="797.25" cy="-396" rx="29.12" ry="18"/>
<text text-anchor="middle" x="797.25" y="-393.2" font-family="sans" font-size="11.00">ipip_input</text>
</g>
<!-- ip_input_local&#45;&gt;ipip_input -->
<g id="edge36" class="edge">
<title>ip_input_local&#45;&gt;ipip_input</title>
<path fill="none" stroke="black" d="M711.77,-430.15C727.37,-423.85 746.61,-416.07 762.79,-409.53"/>
<polygon fill="black" stroke="black" points="764.45,-412.63 772.41,-405.64 761.83,-406.14 764.45,-412.63"/>
</g>
<!-- l4_input_local -->
<g id="node29" class="node">
<title>l4_input_local</title>
<ellipse fill="none" stroke="black" cx="797.25" cy="-542" rx="39.74" ry="18"/>
<text text-anchor="middle" x="797.25" y="-539.2" font-family="sans" font-size="11.00">l4_input_local</text>
</g>
<!-- ip_input_local&#45;&gt;l4_input_local -->
<g id="edge37" class="edge">
<title>ip_input_local&#45;&gt;l4_input_local</title>
<path fill="none" stroke="black" d="M700.75,-458.07C719.58,-474.61 749.09,-500.55 770.32,-519.21"/>
<polygon fill="black" stroke="black" points="768.2,-522 778.02,-525.97 772.82,-516.74 768.2,-522"/>
</g>
<!-- srv6_steer&#45;&gt;ip6_output -->
<g id="edge73" class="edge">
<title>srv6_steer&#45;&gt;ip6_output</title>
<path fill="none" stroke="black" d="M703.61,-622.07C721.03,-632.03 745.97,-646.28 765.59,-657.48"/>
<polygon fill="black" stroke="black" points="764.04,-660.63 774.46,-662.55 767.51,-654.55 764.04,-660.63"/>
</g>
<!-- ipip_input&#45;&gt;ip_input -->
<g id="edge66" class="edge">
<title>ipip_input&#45;&gt;ip_input</title>
<path fill="none" stroke="black" d="M767.83,-397.19C736.42,-399.02 684.56,-403.63 641.31,-415 623.67,-419.64 604.8,-427.24 589.6,-434.07"/>
<polygon fill="black" stroke="black" points="587.8,-431.05 580.18,-438.42 590.73,-437.4 587.8,-431.05"/>
</g>
<!-- l4_loopback_output -->
<g id="node40" class="node">
<title>l4_loopback_output</title>
<ellipse fill="none" stroke="black" cx="929.32" cy="-542" rx="56.39" ry="18"/>
<text text-anchor="middle" x="929.32" y="-539.2" font-family="sans" font-size="11.00">l4_loopback_output</text>
</g>
<!-- l4_input_local&#45;&gt;l4_loopback_output -->
<g id="edge68" class="edge">
<title>l4_input_local&#45;&gt;l4_loopback_output</title>
<path fill="none" stroke="black" d="M836.92,-542C845,-542 853.72,-542 862.47,-542"/>
<polygon fill="black" stroke="black" points="862.7,-545.5 872.7,-542 862.7,-538.5 862.7,-545.5"/>
</g>
<!-- ipip_output&#45;&gt;ip_output -->
<g id="edge67" class="edge">
<title>ipip_output&#45;&gt;ip_output</title>
<path fill="none" stroke="black" d="M1155.79,-463.93C1138.19,-464.93 1116.12,-465.02 1097.79,-464.17"/>
<polygon fill="black" stroke="black" points="1097.96,-460.68 1087.77,-463.59 1097.55,-467.67 1097.96,-460.68"/>
</g>
<!-- icmp6_input -->
<g id="node31" class="node">
<title>icmp6_input</title>
<ellipse fill="none" stroke="black" cx="558.1" cy="-205" rx="35.64" ry="18"/>
<text text-anchor="middle" x="558.1" y="-202.2" font-family="sans" font-size="11.00">icmp6_input</text>
</g>
<!-- icmp6_input&#45;&gt;control_output -->
<g id="edge46" class="edge">
<title>icmp6_input&#45;&gt;control_output</title>
<path fill="none" stroke="black" d="M592.42,-199.44C677.3,-186.08 908.44,-154.74 1099.91,-175 1162.16,-181.59 1232.08,-201.14 1275.57,-214.81"/>
<polygon fill="black" stroke="black" points="1274.65,-218.19 1285.24,-217.89 1276.77,-211.52 1274.65,-218.19"/>
</g>
<!-- icmp6_input&#45;&gt;icmp6_output -->
<g id="edge42" class="edge">
<title>icmp6_input&#45;&gt;icmp6_output</title>
<path fill="none" stroke="black" d="M566.42,-222.84C576.73,-248.66 595.36,-298.18 605.31,-342 634.57,-470.8 609.61,-508.78 641.31,-637 647.86,-663.49 659.27,-692.44 668.09,-712.89"/>
<polygon fill="black" stroke="black" points="664.95,-714.44 672.18,-722.19 671.36,-711.63 664.95,-714.44"/>
</g>
<!-- ndp_ns_input -->
<g id="node33" class="node">
<title>ndp_ns_input</title>
<ellipse fill="none" stroke="black" cx="1060.83" cy="-110" rx="39.15" ry="18"/>
<text text-anchor="middle" x="1060.83" y="-107.2" font-family="sans" font-size="11.00">ndp_ns_input</text>
</g>
<!-- icmp6_input&#45;&gt;ndp_ns_input -->
<g id="edge43" class="edge">
<title>icmp6_input&#45;&gt;ndp_ns_input</title>
<path fill="none" stroke="black" d="M573.26,-188.66C588.32,-172.56 613.73,-148.87 641.31,-138 768.08,-88.06 933.1,-96.16 1012.75,-104.14"/>
<polygon fill="black" stroke="black" points="1012.64,-107.65 1022.95,-105.21 1013.37,-100.69 1012.64,-107.65"/>
</g>
<!-- ndp_na_input -->
<g id="node34" class="node">
<title>ndp_na_input</title>
<ellipse fill="none" stroke="black" cx="929.32" cy="-236" rx="39.74" ry="18"/>
<text text-anchor="middle" x="929.32" y="-233.2" font-family="sans" font-size="11.00">ndp_na_input</text>
</g>
<!-- icmp6_input&#45;&gt;ndp_na_input -->
<g id="edge44" class="edge">
<title>icmp6_input&#45;&gt;ndp_na_input</title>
<path fill="none" stroke="black" d="M593.5,-207.89C659.58,-213.44 804.42,-225.6 880.09,-231.95"/>
<polygon fill="black" stroke="black" points="880.04,-235.46 890.3,-232.81 880.63,-228.48 880.04,-235.46"/>
</g>
<!-- ndp_rs_input -->
<g id="node35" class="node">
<title>ndp_rs_input</title>
<ellipse fill="none" stroke="black" cx="1060.83" cy="-202" rx="37.98" ry="18"/>
<text text-anchor="middle" x="1060.83" y="-199.2" font-family="sans" font-size="11.00">ndp_rs_input</text>
</g>
<!-- icmp6_input&#45;&gt;ndp_rs_input -->
<g id="edge45" class="edge">
<title>icmp6_input&#45;&gt;ndp_rs_input</title>
<path fill="none" stroke="black" d="M594.31,-204.79C682.46,-204.26 912.72,-202.88 1012.54,-202.28"/>
<polygon fill="black" stroke="black" points="1012.66,-205.78 1022.63,-202.22 1012.61,-198.78 1012.66,-205.78"/>
</g>
<!-- icmp6_output&#45;&gt;ip6_output -->
<g id="edge47" class="edge">
<title>icmp6_output&#45;&gt;ip6_output</title>
<path fill="none" stroke="black" d="M706.88,-726.06C723.98,-716.29 746.95,-703.16 765.33,-692.67"/>
<polygon fill="black" stroke="black" points="767.25,-695.6 774.2,-687.6 763.78,-689.52 767.25,-695.6"/>
</g>
<!-- ndp_ns_input&#45;&gt;control_output -->
<g id="edge63" class="edge">
<title>ndp_ns_input&#45;&gt;control_output</title>
<path fill="none" stroke="black" d="M1100.06,-109.79C1137.89,-111.15 1196.32,-117.55 1240.11,-142 1266.17,-156.55 1288.01,-183.13 1301.87,-203.1"/>
<polygon fill="black" stroke="black" points="1299,-205.12 1307.48,-211.47 1304.82,-201.22 1299,-205.12"/>
</g>
<!-- ndp_na_input&#45;&gt;control_output -->
<g id="edge61" class="edge">
<title>ndp_na_input&#45;&gt;control_output</title>
<path fill="none" stroke="black" d="M969.26,-235.3C1039.46,-234.03 1187.2,-231.36 1265.97,-229.94"/>
<polygon fill="black" stroke="black" points="1266.21,-233.44 1276.14,-229.76 1266.08,-226.44 1266.21,-233.44"/>
</g>
<!-- ndp_rs_input&#45;&gt;control_output -->
<g id="edge65" class="edge">
<title>ndp_rs_input&#45;&gt;control_output</title>
<path fill="none" stroke="black" d="M1097.99,-205.81C1142.12,-210.46 1217,-218.36 1266.98,-223.62"/>
<polygon fill="black" stroke="black" points="1266.62,-227.1 1276.93,-224.67 1267.35,-220.14 1266.62,-227.1"/>
</g>
<!-- ip6_forward&#45;&gt;ip6_output -->
<g id="edge49" class="edge">
<title>ip6_forward&#45;&gt;ip6_output</title>
<path fill="none" stroke="black" d="M592.82,-651.84C635.77,-656.73 709.9,-665.17 755.83,-670.4"/>
<polygon fill="black" stroke="black" points="755.69,-673.9 766.02,-671.56 756.48,-666.95 755.69,-673.9"/>
</g>
<!-- ip6_hold&#45;&gt;control_output -->
<g id="edge50" class="edge">
<title>ip6_hold&#45;&gt;control_output</title>
<path fill="none" stroke="black" d="M956.36,-650.05C1015.89,-648.67 1162.74,-636.6 1240.11,-554 1280.86,-510.5 1306.36,-327.49 1314.84,-256.92"/>
<polygon fill="black" stroke="black" points="1318.32,-257.32 1316.01,-246.97 1311.37,-256.5 1318.32,-257.32"/>
</g>
<!-- ip6_input_local&#45;&gt;l4_input_local -->
<g id="edge57" class="edge">
<title>ip6_input_local&#45;&gt;l4_input_local</title>
<path fill="none" stroke="black" d="M473.84,-506.55C541.73,-514.01 676.41,-528.82 748.34,-536.73"/>
<polygon fill="black" stroke="black" points="748.16,-540.23 758.48,-537.85 748.92,-533.27 748.16,-540.23"/>
</g>
<!-- ip6_input_local&#45;&gt;icmp6_input -->
<g id="edge56" class="edge">
<title>ip6_input_local&#45;&gt;icmp6_input</title>
<path fill="none" stroke="black" d="M439.88,-484.31C460.84,-434.38 520.56,-292.07 545.71,-232.14"/>
<polygon fill="black" stroke="black" points="549.07,-233.17 549.71,-222.6 542.61,-230.46 549.07,-233.17"/>
</g>
<!-- srv6_local&#45;&gt;ip6_output -->
<g id="edge72" class="edge">
<title>srv6_local&#45;&gt;ip6_output</title>
<path fill="none" stroke="black" d="M459.54,-551.92C513.16,-545.19 635.16,-536.74 721.63,-583 749.08,-597.68 770.16,-627.17 782.81,-648.82"/>
<polygon fill="black" stroke="black" points="779.76,-650.54 787.7,-657.55 785.86,-647.12 779.76,-650.54"/>
</g>
<!-- srv6_local&#45;&gt;ip_input -->
<g id="edge70" class="edge">
<title>srv6_local&#45;&gt;ip_input</title>
<path fill="none" stroke="black" d="M453.32,-543.91C460.38,-539.51 468.17,-534.31 474.88,-529 497.16,-511.37 520.14,-488.55 536.12,-471.79"/>
<polygon fill="black" stroke="black" points="539.06,-473.78 543.37,-464.11 533.96,-468.98 539.06,-473.78"/>
</g>
<!-- srv6_local&#45;&gt;ip6_input -->
<g id="edge71" class="edge">
<title>srv6_local&#45;&gt;ip6_input</title>
<path fill="none" stroke="black" d="M403.69,-561.53C383.18,-562.96 354.68,-563.13 332.24,-562.05"/>
<polygon fill="black" stroke="black" points="332.29,-558.54 322.09,-561.43 331.87,-565.53 332.29,-558.54"/>
</g>
<!-- l4_loopback_output&#45;&gt;loopback_output -->
<g id="edge69" class="edge">
<title>l4_loopback_output&#45;&gt;loopback_output</title>
<path fill="none" stroke="black" d="M985.07,-538.8C1027.6,-536.32 1086.41,-532.88 1129.6,-530.35"/>
<polygon fill="black" stroke="black" points="1129.89,-533.84 1139.67,-529.77 1129.48,-526.86 1129.89,-533.84"/>
</g>
</g>
</svg>
