<?xml version="1.0" encoding="UTF-8" standalone="no"?>
<!DOCTYPE svg PUBLIC "-//W3C//DTD SVG 1.1//EN"
 "http://www.w3.org/Graphics/SVG/1.1/DTD/svg11.dtd">
<!-- Generated by graphviz version 2.44.0 (0)
 -->
<!-- Title: gr&#45;0005 Pages: 1 -->
<svg width="1175pt" height="734pt"
 viewBox="0.00 0.00 1175.21 734.00" xmlns="http://www.w3.org/2000/svg" xmlns:xlink="http://www.w3.org/1999/xlink">
<g id="graph0" class="graph" transform="scale(1 1) rotate(0) translate(4 730)">
<title>gr&#45;0005</title>
<polygon fill="white" stroke="transparent" points="-4,4 -4,-730 1171.21,-730 1171.21,4 -4,4"/>
<!-- control_input -->
<g id="node1" class="node">
<title>control_input</title>
<ellipse fill="none" stroke="blue" stroke-width="2" cx="40.16" cy="-439" rx="40.32" ry="18"/>
<text text-anchor="middle" x="40.16" y="-436.2" font-family="sans" font-size="11.00">control_input</text>
</g>
<!-- loopback_input -->
<g id="node2" class="node">
<title>loopback_input</title>
<ellipse fill="none" stroke="black" cx="161.91" cy="-420" rx="45.68" ry="18"/>
<text text-anchor="middle" x="161.91" y="-417.2" font-family="sans" font-size="11.00">loopback_input</text>
</g>
<!-- control_input&#45;&gt;loopback_input -->
<g id="edge1" class="edge">
<title>control_input&#45;&gt;loopback_input</title>
<path fill="none" stroke="blue" stroke-width="2" d="M78.39,-433.09C88.08,-431.56 98.68,-429.87 108.97,-428.24"/>
<polygon fill="blue" stroke="blue" stroke-width="2" points="109.78,-431.66 119.11,-426.63 108.68,-424.74 109.78,-431.66"/>
</g>
<!-- arp_output_request -->
<g id="node3" class="node">
<title>arp_output_request</title>
<ellipse fill="none" stroke="black" cx="302.66" cy="-684" rx="59.31" ry="18"/>
<text text-anchor="middle" x="302.66" y="-681.2" font-family="sans" font-size="11.00">arp_output_request</text>
</g>
<!-- control_input&#45;&gt;arp_output_request -->
<g id="edge2" class="edge">
<title>control_input&#45;&gt;arp_output_request</title>
<path fill="none" stroke="blue" stroke-width="2" d="M57.91,-455.2C65.66,-463.49 74.44,-474.11 80.32,-485 107.38,-535.12 78.2,-565.68 116.32,-608 148.47,-643.69 199.87,-662.99 240.4,-673.2"/>
<polygon fill="blue" stroke="blue" stroke-width="2" points="239.64,-676.62 250.18,-675.54 241.27,-669.81 239.64,-676.62"/>
</g>
<!-- icmp_local_send -->
<g id="node4" class="node">
<title>icmp_local_send</title>
<ellipse fill="none" stroke="black" cx="302.66" cy="-80" rx="49.28" ry="18"/>
<text text-anchor="middle" x="302.66" y="-77.2" font-family="sans" font-size="11.00">icmp_local_send</text>
</g>
<!-- control_input&#45;&gt;icmp_local_send -->
<g id="edge3" class="edge">
<title>control_input&#45;&gt;icmp_local_send</title>
<path fill="none" stroke="blue" stroke-width="2" d="M53.73,-421.68C95.93,-363.53 232.75,-174.96 282.96,-105.77"/>
<polygon fill="blue" stroke="blue" stroke-width="2" points="285.87,-107.71 288.91,-97.56 280.21,-103.6 285.87,-107.71"/>
</g>
<!-- ndp_ns_output -->
<g id="node5" class="node">
<title>ndp_ns_output</title>
<ellipse fill="none" stroke="black" cx="161.91" cy="-581" rx="44.51" ry="18"/>
<text text-anchor="middle" x="161.91" y="-578.2" font-family="sans" font-size="11.00">ndp_ns_output</text>
</g>
<!-- control_input&#45;&gt;ndp_ns_output -->
<g id="edge4" class="edge">
<title>control_input&#45;&gt;ndp_ns_output</title>
<path fill="none" stroke="blue" stroke-width="2" d="M56.15,-455.65C63.66,-464.22 72.74,-474.96 80.32,-485 97.7,-508.02 97.7,-516.97 116.32,-539 121.73,-545.4 128.03,-551.83 134.16,-557.68"/>
<polygon fill="blue" stroke="blue" stroke-width="2" points="132.04,-560.49 141.76,-564.72 136.8,-555.35 132.04,-560.49"/>
</g>
<!-- ip_output -->
<g id="node6" class="node">
<title>ip_output</title>
<ellipse fill="none" stroke="black" cx="846.64" cy="-114" rx="29.12" ry="18"/>
<text text-anchor="middle" x="846.64" y="-111.2" font-family="sans" font-size="11.00">ip_output</text>
</g>
<!-- control_input&#45;&gt;ip_output -->
<g id="edge5" class="edge">
<title>control_input&#45;&gt;ip_output</title>
<path fill="none" stroke="blue" stroke-width="2" d="M42.95,-420.97C52.25,-338.36 102.48,0 301.66,0 301.66,0 301.66,0 566.15,0 665.31,0 770.58,-62.28 818.75,-94.78"/>
<polygon fill="blue" stroke="blue" stroke-width="2" points="816.84,-97.71 827.07,-100.48 820.8,-91.93 816.84,-97.71"/>
</g>
<!-- ip6_output -->
<g id="node7" class="node">
<title>ip6_output</title>
<ellipse fill="none" stroke="black" cx="846.64" cy="-482" rx="32.63" ry="18"/>
<text text-anchor="middle" x="846.64" y="-479.2" font-family="sans" font-size="11.00">ip6_output</text>
</g>
<!-- control_input&#45;&gt;ip6_output -->
<g id="edge6" class="edge">
<title>control_input&#45;&gt;ip6_output</title>
<path fill="none" stroke="blue" stroke-width="2" d="M79.36,-443.5C91.19,-444.78 104.29,-446.07 116.32,-447 377.42,-467.14 692.06,-477.57 803.8,-480.84"/>
<polygon fill="blue" stroke="blue" stroke-width="2" points="803.87,-484.35 813.97,-481.14 804.07,-477.35 803.87,-484.35"/>
</g>
<!-- ip_input -->
<g id="node11" class="node">
<title>ip_input</title>
<ellipse fill="none" stroke="black" cx="302.66" cy="-191" rx="27" ry="18"/>
<text text-anchor="middle" x="302.66" y="-188.2" font-family="sans" font-size="11.00">ip_input</text>
</g>
<!-- loopback_input&#45;&gt;ip_input -->
<g id="edge11" class="edge">
<title>loopback_input&#45;&gt;ip_input</title>
<path fill="none" stroke="black" d="M173.57,-402.41C197.96,-362.15 257.92,-263.19 286.29,-216.35"/>
<polygon fill="black" stroke="black" points="289.34,-218.08 291.53,-207.72 283.35,-214.45 289.34,-218.08"/>
</g>
<!-- ip6_input -->
<g id="node12" class="node">
<title>ip6_input</title>
<ellipse fill="none" stroke="black" cx="302.66" cy="-512" rx="28.44" ry="18"/>
<text text-anchor="middle" x="302.66" y="-509.2" font-family="sans" font-size="11.00">ip6_input</text>
</g>
<!-- loopback_input&#45;&gt;ip6_input -->
<g id="edge12" class="edge">
<title>loopback_input&#45;&gt;ip6_input</title>
<path fill="none" stroke="black" d="M186.13,-435.4C210.29,-451.41 248.1,-476.49 273.83,-493.55"/>
<polygon fill="black" stroke="black" points="272.12,-496.61 282.39,-499.22 275.99,-490.78 272.12,-496.61"/>
</g>
<!-- eth_output -->
<g id="node13" class="node">
<title>eth_output</title>
<ellipse fill="none" stroke="black" cx="991.73" cy="-673" rx="33.8" ry="18"/>
<text text-anchor="middle" x="991.73" y="-670.2" font-family="sans" font-size="11.00">eth_output</text>
</g>
<!-- arp_output_request&#45;&gt;eth_output -->
<g id="edge21" class="edge">
<title>arp_output_request&#45;&gt;eth_output</title>
<path fill="none" stroke="black" d="M348.02,-695.59C399.58,-708.02 487.42,-726 564.15,-726 564.15,-726 564.15,-726 698.21,-726 790.75,-726 815.09,-724.82 905.25,-704 922.16,-700.1 940.31,-693.83 955.51,-687.95"/>
<polygon fill="black" stroke="black" points="957.03,-691.11 965.04,-684.17 954.45,-684.61 957.03,-691.11"/>
</g>
<!-- icmp_output -->
<g id="node21" class="node">
<title>icmp_output</title>
<ellipse fill="none" stroke="black" cx="697.21" cy="-160" rx="37.98" ry="18"/>
<text text-anchor="middle" x="697.21" y="-157.2" font-family="sans" font-size="11.00">icmp_output</text>
</g>
<!-- icmp_local_send&#45;&gt;icmp_output -->
<g id="edge24" class="edge">
<title>icmp_local_send&#45;&gt;icmp_output</title>
<path fill="none" stroke="black" d="M339.72,-68.07C377.15,-57.41 437.21,-45.15 487.9,-57 555.92,-72.9 627.2,-114.4 666.24,-139.6"/>
<polygon fill="black" stroke="black" points="664.7,-142.78 674.98,-145.33 668.53,-136.92 664.7,-142.78"/>
</g>
<!-- ndp_ns_output&#45;&gt;ip6_output -->
<g id="edge56" class="edge">
<title>ndp_ns_output&#45;&gt;ip6_output</title>
<path fill="none" stroke="black" d="M205.88,-584.75C260.63,-589.19 358.2,-596 441.86,-596 441.86,-596 441.86,-596 566.15,-596 664.57,-596 769.01,-534.64 817.66,-501.96"/>
<polygon fill="black" stroke="black" points="819.8,-504.74 826.09,-496.21 815.85,-498.95 819.8,-504.74"/>
</g>
<!-- ip_output&#45;&gt;eth_output -->
<g id="edge34" class="edge">
<title>ip_output&#45;&gt;eth_output</title>
<path fill="none" stroke="black" d="M858.52,-130.52C871.82,-151.54 893.94,-189.41 905.25,-225 940.74,-336.59 918.24,-371.19 941.25,-486 952.73,-543.24 971.43,-608.97 982.26,-645.27"/>
<polygon fill="black" stroke="black" points="978.99,-646.55 985.22,-655.12 985.69,-644.53 978.99,-646.55"/>
</g>
<!-- loopback_output -->
<g id="node15" class="node">
<title>loopback_output</title>
<ellipse fill="none" stroke="black" cx="991.73" cy="-252" rx="50.45" ry="18"/>
<text text-anchor="middle" x="991.73" y="-249.2" font-family="sans" font-size="11.00">loopback_output</text>
</g>
<!-- ip_output&#45;&gt;loopback_output -->
<g id="edge36" class="edge">
<title>ip_output&#45;&gt;loopback_output</title>
<path fill="none" stroke="black" d="M863.23,-129.03C887.83,-152.76 935.9,-199.12 965.47,-227.64"/>
<polygon fill="black" stroke="black" points="963.3,-230.41 972.93,-234.83 968.16,-225.37 963.3,-230.41"/>
</g>
<!-- ip_hold -->
<g id="node23" class="node">
<title>ip_hold</title>
<ellipse fill="none" stroke="black" cx="991.73" cy="-160" rx="27" ry="18"/>
<text text-anchor="middle" x="991.73" y="-157.2" font-family="sans" font-size="11.00">ip_hold</text>
</g>
<!-- ip_output&#45;&gt;ip_hold -->
<g id="edge35" class="edge">
<title>ip_output&#45;&gt;ip_hold</title>
<path fill="none" stroke="black" d="M872.89,-122.12C896.41,-129.68 931.61,-141 957.42,-149.29"/>
<polygon fill="black" stroke="black" points="956.56,-152.69 967.15,-152.42 958.7,-146.03 956.56,-152.69"/>
</g>
<!-- ipip_output -->
<g id="node27" class="node">
<title>ipip_output</title>
<ellipse fill="none" stroke="black" cx="991.73" cy="-106" rx="34.38" ry="18"/>
<text text-anchor="middle" x="991.73" y="-103.2" font-family="sans" font-size="11.00">ipip_output</text>
</g>
<!-- ip_output&#45;&gt;ipip_output -->
<g id="edge37" class="edge">
<title>ip_output&#45;&gt;ipip_output</title>
<path fill="none" stroke="black" d="M873.89,-107.17C894.55,-104.53 923.77,-102.6 947.83,-102.15"/>
<polygon fill="black" stroke="black" points="948.15,-105.65 958.12,-102.05 948.09,-98.65 948.15,-105.65"/>
</g>
<!-- ip6_output&#45;&gt;eth_output -->
<g id="edge50" class="edge">
<title>ip6_output&#45;&gt;eth_output</title>
<path fill="none" stroke="black" d="M870.52,-494.56C881.91,-501.58 895.33,-511.11 905.25,-522 939.66,-559.72 965.97,-613.67 979.83,-645.83"/>
<polygon fill="black" stroke="black" points="976.61,-647.22 983.72,-655.07 983.06,-644.5 976.61,-647.22"/>
</g>
<!-- ip6_output&#45;&gt;loopback_output -->
<g id="edge52" class="edge">
<title>ip6_output&#45;&gt;loopback_output</title>
<path fill="none" stroke="black" d="M858.16,-465.09C882.9,-425.32 944.89,-325.67 974.5,-278.09"/>
<polygon fill="black" stroke="black" points="977.49,-279.9 979.8,-269.56 971.55,-276.21 977.49,-279.9"/>
</g>
<!-- ip6_hold -->
<g id="node34" class="node">
<title>ip6_hold</title>
<ellipse fill="none" stroke="black" cx="991.73" cy="-459" rx="27" ry="18"/>
<text text-anchor="middle" x="991.73" y="-456.2" font-family="sans" font-size="11.00">ip6_hold</text>
</g>
<!-- ip6_output&#45;&gt;ip6_hold -->
<g id="edge51" class="edge">
<title>ip6_output&#45;&gt;ip6_hold</title>
<path fill="none" stroke="black" d="M877.99,-477.12C900.57,-473.49 931.46,-468.53 955.19,-464.71"/>
<polygon fill="black" stroke="black" points="955.89,-468.14 965.21,-463.1 954.78,-461.23 955.89,-468.14"/>
</g>
<!-- control_output -->
<g id="node8" class="node">
<title>control_output</title>
<ellipse fill="none" stroke="black" cx="1122.7" cy="-344" rx="44.51" ry="18"/>
<text text-anchor="middle" x="1122.7" y="-341.2" font-family="sans" font-size="11.00">control_output</text>
</g>
<!-- eth_input -->
<g id="node9" class="node">
<title>eth_input</title>
<ellipse fill="none" stroke="black" cx="161.91" cy="-512" rx="29.12" ry="18"/>
<text text-anchor="middle" x="161.91" y="-509.2" font-family="sans" font-size="11.00">eth_input</text>
</g>
<!-- arp_input -->
<g id="node10" class="node">
<title>arp_input</title>
<ellipse fill="none" stroke="black" cx="565.15" cy="-642" rx="29.12" ry="18"/>
<text text-anchor="middle" x="565.15" y="-639.2" font-family="sans" font-size="11.00">arp_input</text>
</g>
<!-- eth_input&#45;&gt;arp_input -->
<g id="edge7" class="edge">
<title>eth_input&#45;&gt;arp_input</title>
<path fill="none" stroke="black" d="M187.93,-520.47C203.83,-525.83 224.85,-532.88 243.5,-539 347.22,-573.03 470.2,-612.21 529.18,-630.92"/>
<polygon fill="black" stroke="black" points="528.17,-634.28 538.76,-633.96 530.29,-627.6 528.17,-634.28"/>
</g>
<!-- eth_input&#45;&gt;ip_input -->
<g id="edge8" class="edge">
<title>eth_input&#45;&gt;ip_input</title>
<path fill="none" stroke="black" d="M175.65,-495.88C185.3,-483.14 198.39,-464.63 207.5,-447 248.5,-367.63 280.21,-266.21 294.05,-218.35"/>
<polygon fill="black" stroke="black" points="297.42,-219.28 296.81,-208.71 290.69,-217.36 297.42,-219.28"/>
</g>
<!-- eth_input&#45;&gt;ip6_input -->
<g id="edge9" class="edge">
<title>eth_input&#45;&gt;ip6_input</title>
<path fill="none" stroke="black" d="M191.32,-512C212.36,-512 241.23,-512 264.16,-512"/>
<polygon fill="black" stroke="black" points="264.23,-515.5 274.23,-512 264.23,-508.5 264.23,-515.5"/>
</g>
<!-- arp_input_request -->
<g id="node17" class="node">
<title>arp_input_request</title>
<ellipse fill="none" stroke="black" cx="697.21" cy="-680" rx="54.63" ry="18"/>
<text text-anchor="middle" x="697.21" y="-677.2" font-family="sans" font-size="11.00">arp_input_request</text>
</g>
<!-- arp_input&#45;&gt;arp_input_request -->
<g id="edge15" class="edge">
<title>arp_input&#45;&gt;arp_input_request</title>
<path fill="none" stroke="black" d="M591.85,-649.51C607.28,-654.02 627.46,-659.91 645.95,-665.31"/>
<polygon fill="black" stroke="black" points="645.14,-668.72 655.72,-668.17 647.1,-662.01 645.14,-668.72"/>
</g>
<!-- arp_input_reply -->
<g id="node18" class="node">
<title>arp_input_reply</title>
<ellipse fill="none" stroke="black" cx="846.64" cy="-549" rx="47.43" ry="18"/>
<text text-anchor="middle" x="846.64" y="-546.2" font-family="sans" font-size="11.00">arp_input_reply</text>
</g>
<!-- arp_input&#45;&gt;arp_input_reply -->
<g id="edge16" class="edge">
<title>arp_input&#45;&gt;arp_input_reply</title>
<path fill="none" stroke="black" d="M594.5,-640.68C631.8,-638.16 698.84,-630.88 752.03,-610 753.76,-609.32 787.13,-587.49 813.54,-570.13"/>
<polygon fill="black" stroke="black" points="815.74,-572.88 822.17,-564.46 811.89,-567.03 815.74,-572.88"/>
</g>
<!-- ip_input&#45;&gt;ip_output -->
<g id="edge29" class="edge">
<title>ip_input&#45;&gt;ip_output</title>
<path fill="none" stroke="black" d="M328,-184.13C346.99,-178.8 374.04,-171.3 397.81,-165 453.7,-150.19 466.77,-141.86 523.9,-133 625.1,-117.32 746.04,-114.35 806.77,-113.93"/>
<polygon fill="black" stroke="black" points="807.06,-117.43 817.04,-113.88 807.03,-110.43 807.06,-117.43"/>
</g>
<!-- ip_forward -->
<g id="node22" class="node">
<title>ip_forward</title>
<ellipse fill="none" stroke="black" cx="442.86" cy="-84" rx="32.63" ry="18"/>
<text text-anchor="middle" x="442.86" y="-81.2" font-family="sans" font-size="11.00">ip_forward</text>
</g>
<!-- ip_input&#45;&gt;ip_forward -->
<g id="edge28" class="edge">
<title>ip_input&#45;&gt;ip_forward</title>
<path fill="none" stroke="black" d="M320.49,-177.22C339.19,-162 370.37,-136.88 397.81,-116 402.95,-112.09 408.47,-108 413.82,-104.09"/>
<polygon fill="black" stroke="black" points="415.95,-106.86 421.99,-98.15 411.84,-101.2 415.95,-106.86"/>
</g>
<!-- ip_input_local -->
<g id="node24" class="node">
<title>ip_input_local</title>
<ellipse fill="none" stroke="black" cx="442.86" cy="-214" rx="41.49" ry="18"/>
<text text-anchor="middle" x="442.86" y="-211.2" font-family="sans" font-size="11.00">ip_input_local</text>
</g>
<!-- ip_input&#45;&gt;ip_input_local -->
<g id="edge30" class="edge">
<title>ip_input&#45;&gt;ip_input_local</title>
<path fill="none" stroke="black" d="M329,-195.22C347.17,-198.24 372.18,-202.4 394.05,-206.04"/>
<polygon fill="black" stroke="black" points="393.72,-209.54 404.16,-207.73 394.87,-202.63 393.72,-209.54"/>
</g>
<!-- ip6_input&#45;&gt;ip6_output -->
<g id="edge46" class="edge">
<title>ip6_input&#45;&gt;ip6_output</title>
<path fill="none" stroke="black" d="M327.64,-520.89C346.43,-527.36 373.39,-535.57 397.81,-539 496.69,-552.9 734.27,-517.82 752.03,-514 771.68,-509.77 792.93,-502.72 810.21,-496.31"/>
<polygon fill="black" stroke="black" points="811.77,-499.46 819.88,-492.64 809.29,-492.92 811.77,-499.46"/>
</g>
<!-- ip6_forward -->
<g id="node33" class="node">
<title>ip6_forward</title>
<ellipse fill="none" stroke="black" cx="442.86" cy="-512" rx="35.64" ry="18"/>
<text text-anchor="middle" x="442.86" y="-509.2" font-family="sans" font-size="11.00">ip6_forward</text>
</g>
<!-- ip6_input&#45;&gt;ip6_forward -->
<g id="edge45" class="edge">
<title>ip6_input&#45;&gt;ip6_forward</title>
<path fill="none" stroke="black" d="M330.96,-512C349.77,-512 375.2,-512 396.97,-512"/>
<polygon fill="black" stroke="black" points="396.99,-515.5 406.99,-512 396.99,-508.5 396.99,-515.5"/>
</g>
<!-- ip6_input_local -->
<g id="node35" class="node">
<title>ip6_input_local</title>
<ellipse fill="none" stroke="black" cx="442.86" cy="-359" rx="45.09" ry="18"/>
<text text-anchor="middle" x="442.86" y="-356.2" font-family="sans" font-size="11.00">ip6_input_local</text>
</g>
<!-- ip6_input&#45;&gt;ip6_input_local -->
<g id="edge47" class="edge">
<title>ip6_input&#45;&gt;ip6_input_local</title>
<path fill="none" stroke="black" d="M317.67,-496.49C341.71,-469.87 390.99,-415.32 419.72,-383.51"/>
<polygon fill="black" stroke="black" points="422.44,-385.71 426.55,-375.95 417.25,-381.02 422.44,-385.71"/>
</g>
<!-- port_tx -->
<g id="node14" class="node">
<title>port_tx</title>
<ellipse fill="none" stroke="black" cx="1122.7" cy="-673" rx="27" ry="18"/>
<text text-anchor="middle" x="1122.7" y="-670.2" font-family="sans" font-size="11.00">port_tx</text>
</g>
<!-- eth_output&#45;&gt;port_tx -->
<g id="edge10" class="edge">
<title>eth_output&#45;&gt;port_tx</title>
<path fill="none" stroke="black" d="M1025.61,-673C1043.79,-673 1066.41,-673 1085.15,-673"/>
<polygon fill="black" stroke="black" points="1085.38,-676.5 1095.38,-673 1085.38,-669.5 1085.38,-676.5"/>
</g>
<!-- loopback_output&#45;&gt;control_output -->
<g id="edge13" class="edge">
<title>loopback_output&#45;&gt;control_output</title>
<path fill="none" stroke="black" d="M1017.62,-267.6C1025.56,-272.71 1034.32,-278.49 1042.2,-284 1059.54,-296.12 1078.46,-310.36 1093.5,-321.93"/>
<polygon fill="black" stroke="black" points="1091.36,-324.7 1101.41,-328.05 1095.64,-319.16 1091.36,-324.7"/>
</g>
<!-- port_rx -->
<g id="node16" class="node">
<title>port_rx</title>
<ellipse fill="none" stroke="blue" stroke-width="2" cx="40.16" cy="-512" rx="27" ry="18"/>
<text text-anchor="middle" x="40.16" y="-509.2" font-family="sans" font-size="11.00">port_rx</text>
</g>
<!-- port_rx&#45;&gt;eth_input -->
<g id="edge14" class="edge">
<title>port_rx&#45;&gt;eth_input</title>
<path fill="none" stroke="blue" stroke-width="2" d="M67.44,-512C83.56,-512 104.47,-512 122.43,-512"/>
<polygon fill="blue" stroke="blue" stroke-width="2" points="122.6,-515.5 132.6,-512 122.6,-508.5 122.6,-515.5"/>
</g>
<!-- arp_input_request&#45;&gt;control_output -->
<g id="edge18" class="edge">
<title>arp_input_request&#45;&gt;control_output</title>
<path fill="none" stroke="black" d="M735.24,-666.91C814.34,-638.37 996.31,-569.36 1042.2,-523 1084.62,-480.15 1106.42,-410.77 1115.81,-372.18"/>
<polygon fill="black" stroke="black" points="1119.29,-372.69 1118.14,-362.16 1112.47,-371.11 1119.29,-372.69"/>
</g>
<!-- arp_output_reply -->
<g id="node19" class="node">
<title>arp_output_reply</title>
<ellipse fill="none" stroke="black" cx="846.64" cy="-677" rx="51.62" ry="18"/>
<text text-anchor="middle" x="846.64" y="-674.2" font-family="sans" font-size="11.00">arp_output_reply</text>
</g>
<!-- arp_input_request&#45;&gt;arp_output_reply -->
<g id="edge19" class="edge">
<title>arp_input_request&#45;&gt;arp_output_reply</title>
<path fill="none" stroke="black" d="M752.27,-678.9C762.86,-678.68 774.03,-678.46 784.82,-678.24"/>
<polygon fill="black" stroke="black" points="785.09,-681.73 795.02,-678.03 784.95,-674.73 785.09,-681.73"/>
</g>
<!-- arp_input_reply&#45;&gt;control_output -->
<g id="edge17" class="edge">
<title>arp_input_reply&#45;&gt;control_output</title>
<path fill="none" stroke="black" d="M892.28,-544.01C934.88,-537.23 998.82,-521.57 1042.2,-486 1079.07,-455.77 1101.87,-403.7 1113.14,-371.71"/>
<polygon fill="black" stroke="black" points="1116.51,-372.68 1116.39,-362.09 1109.88,-370.44 1116.51,-372.68"/>
</g>
<!-- arp_output_reply&#45;&gt;eth_output -->
<g id="edge20" class="edge">
<title>arp_output_reply&#45;&gt;eth_output</title>
<path fill="none" stroke="black" d="M898.09,-675.59C914.17,-675.14 931.81,-674.65 947.35,-674.21"/>
<polygon fill="black" stroke="black" points="947.82,-677.7 957.72,-673.92 947.63,-670.7 947.82,-677.7"/>
</g>
<!-- icmp_input -->
<g id="node20" class="node">
<title>icmp_input</title>
<ellipse fill="none" stroke="black" cx="565.15" cy="-214" rx="33.8" ry="18"/>
<text text-anchor="middle" x="565.15" y="-211.2" font-family="sans" font-size="11.00">icmp_input</text>
</g>
<!-- icmp_input&#45;&gt;control_output -->
<g id="edge23" class="edge">
<title>icmp_input&#45;&gt;control_output</title>
<path fill="none" stroke="black" d="M598.36,-210.98C692.58,-202.71 965.85,-183.05 1042.2,-225 1077.85,-244.59 1100.41,-287.78 1112.05,-316.39"/>
<polygon fill="black" stroke="black" points="1108.84,-317.77 1115.72,-325.83 1115.36,-315.24 1108.84,-317.77"/>
</g>
<!-- icmp_input&#45;&gt;icmp_output -->
<g id="edge22" class="edge">
<title>icmp_input&#45;&gt;icmp_output</title>
<path fill="none" stroke="black" d="M592.16,-203.2C611.19,-195.3 637.29,-184.46 658.59,-175.62"/>
<polygon fill="black" stroke="black" points="660.1,-178.78 668,-171.72 657.42,-172.32 660.1,-178.78"/>
</g>
<!-- icmp_output&#45;&gt;ip_output -->
<g id="edge25" class="edge">
<title>icmp_output&#45;&gt;ip_output</title>
<path fill="none" stroke="black" d="M729.48,-150.24C753.25,-142.83 785.96,-132.62 810.61,-124.93"/>
<polygon fill="black" stroke="black" points="811.79,-128.23 820.3,-121.91 809.71,-121.55 811.79,-128.23"/>
</g>
<!-- ip_forward&#45;&gt;ip_output -->
<g id="edge26" class="edge">
<title>ip_forward&#45;&gt;ip_output</title>
<path fill="none" stroke="black" d="M475.43,-84.63C531.32,-85.98 651.28,-89.88 752.03,-100 770.58,-101.86 791.07,-104.83 808.14,-107.55"/>
<polygon fill="black" stroke="black" points="807.85,-111.04 818.28,-109.2 808.98,-104.14 807.85,-111.04"/>
</g>
<!-- ip_hold&#45;&gt;control_output -->
<g id="edge27" class="edge">
<title>ip_hold&#45;&gt;control_output</title>
<path fill="none" stroke="black" d="M1014.25,-170.66C1023.67,-176.09 1034.34,-183.38 1042.2,-192 1076.06,-229.13 1099.82,-283.35 1112.09,-316"/>
<polygon fill="black" stroke="black" points="1108.95,-317.6 1115.67,-325.79 1115.52,-315.2 1108.95,-317.6"/>
</g>
<!-- ip_input_local&#45;&gt;icmp_input -->
<g id="edge31" class="edge">
<title>ip_input_local&#45;&gt;icmp_input</title>
<path fill="none" stroke="black" d="M484.25,-214C496.07,-214 509.05,-214 521.03,-214"/>
<polygon fill="black" stroke="black" points="521.26,-217.5 531.26,-214 521.26,-210.5 521.26,-217.5"/>
</g>
<!-- ipip_input -->
<g id="node25" class="node">
<title>ipip_input</title>
<ellipse fill="none" stroke="black" cx="565.15" cy="-160" rx="29.7" ry="18"/>
<text text-anchor="middle" x="565.15" y="-157.2" font-family="sans" font-size="11.00">ipip_input</text>
</g>
<!-- ip_input_local&#45;&gt;ipip_input -->
<g id="edge32" class="edge">
<title>ip_input_local&#45;&gt;ipip_input</title>
<path fill="none" stroke="black" d="M472.37,-201.2C490.12,-193.24 513,-182.96 531.48,-174.66"/>
<polygon fill="black" stroke="black" points="533,-177.82 540.69,-170.53 530.14,-171.43 533,-177.82"/>
</g>
<!-- l4_input_local -->
<g id="node26" class="node">
<title>l4_input_local</title>
<ellipse fill="none" stroke="black" cx="565.15" cy="-268" rx="41.49" ry="18"/>
<text text-anchor="middle" x="565.15" y="-265.2" font-family="sans" font-size="11.00">l4_input_local</text>
</g>
<!-- ip_input_local&#45;&gt;l4_input_local -->
<g id="edge33" class="edge">
<title>ip_input_local&#45;&gt;l4_input_local</title>
<path fill="none" stroke="black" d="M472.37,-226.8C488.55,-234.06 508.99,-243.24 526.48,-251.09"/>
<polygon fill="black" stroke="black" points="525.29,-254.39 535.85,-255.29 528.16,-248.01 525.29,-254.39"/>
</g>
<!-- ipip_input&#45;&gt;ip_input -->
<g id="edge58" class="edge">
<title>ipip_input&#45;&gt;ip_input</title>
<path fill="none" stroke="black" d="M535.57,-163.4C487.85,-169.08 392.05,-180.48 339.75,-186.71"/>
<polygon fill="black" stroke="black" points="339.1,-183.26 329.59,-187.91 339.93,-190.21 339.1,-183.26"/>
</g>
<!-- l4_loopback_output -->
<g id="node36" class="node">
<title>l4_loopback_output</title>
<ellipse fill="none" stroke="black" cx="846.64" cy="-252" rx="58.73" ry="18"/>
<text text-anchor="middle" x="846.64" y="-249.2" font-family="sans" font-size="11.00">l4_loopback_output</text>
</g>
<!-- l4_input_local&#45;&gt;l4_loopback_output -->
<g id="edge60" class="edge">
<title>l4_input_local&#45;&gt;l4_loopback_output</title>
<path fill="none" stroke="black" d="M606.11,-265.29C617.81,-264.52 630.61,-263.71 642.4,-263 687.83,-260.28 738.99,-257.51 778.61,-255.44"/>
<polygon fill="black" stroke="black" points="778.88,-258.93 788.69,-254.91 778.52,-251.94 778.88,-258.93"/>
</g>
<!-- ipip_output&#45;&gt;ip_output -->
<g id="edge59" class="edge">
<title>ipip_output&#45;&gt;ip_output</title>
<path fill="none" stroke="black" d="M960.4,-113.33C938.64,-115.88 909.18,-117.67 885.82,-117.92"/>
<polygon fill="black" stroke="black" points="885.57,-114.42 875.57,-117.92 885.57,-121.42 885.57,-114.42"/>
</g>
<!-- icmp6_input -->
<g id="node28" class="node">
<title>icmp6_input</title>
<ellipse fill="none" stroke="black" cx="565.15" cy="-359" rx="37.4" ry="18"/>
<text text-anchor="middle" x="565.15" y="-356.2" font-family="sans" font-size="11.00">icmp6_input</text>
</g>
<!-- icmp6_output -->
<g id="node29" class="node">
<title>icmp6_output</title>
<ellipse fill="none" stroke="black" cx="697.21" cy="-436" rx="41.58" ry="18"/>
<text text-anchor="middle" x="697.21" y="-433.2" font-family="sans" font-size="11.00">icmp6_output</text>
</g>
<!-- icmp6_input&#45;&gt;icmp6_output -->
<g id="edge38" class="edge">
<title>icmp6_input&#45;&gt;icmp6_output</title>
<path fill="none" stroke="black" d="M587.1,-373.68C602.19,-384.02 623.2,-397.94 642.4,-409 647.87,-412.15 653.75,-415.32 659.54,-418.32"/>
<polygon fill="black" stroke="black" points="658.01,-421.46 668.51,-422.87 661.18,-415.22 658.01,-421.46"/>
</g>
<!-- ndp_ns_input -->
<g id="node30" class="node">
<title>ndp_ns_input</title>
<ellipse fill="none" stroke="black" cx="697.21" cy="-382" rx="40.32" ry="18"/>
<text text-anchor="middle" x="697.21" y="-379.2" font-family="sans" font-size="11.00">ndp_ns_input</text>
</g>
<!-- icmp6_input&#45;&gt;ndp_ns_input -->
<g id="edge39" class="edge">
<title>icmp6_input&#45;&gt;ndp_ns_input</title>
<path fill="none" stroke="black" d="M600.66,-365.1C615.6,-367.75 633.32,-370.88 649.42,-373.73"/>
<polygon fill="black" stroke="black" points="649.26,-377.25 659.72,-375.55 650.48,-370.36 649.26,-377.25"/>
</g>
<!-- ndp_na_input -->
<g id="node31" class="node">
<title>ndp_na_input</title>
<ellipse fill="none" stroke="black" cx="846.64" cy="-344" rx="40.91" ry="18"/>
<text text-anchor="middle" x="846.64" y="-341.2" font-family="sans" font-size="11.00">ndp_na_input</text>
</g>
<!-- icmp6_input&#45;&gt;ndp_na_input -->
<g id="edge40" class="edge">
<title>icmp6_input&#45;&gt;ndp_na_input</title>
<path fill="none" stroke="black" d="M602.4,-357.05C651.66,-354.41 739.95,-349.67 795.53,-346.69"/>
<polygon fill="black" stroke="black" points="796.05,-350.17 805.84,-346.14 795.67,-343.18 796.05,-350.17"/>
</g>
<!-- ndp_rs_input -->
<g id="node32" class="node">
<title>ndp_rs_input</title>
<ellipse fill="none" stroke="black" cx="697.21" cy="-290" rx="39.15" ry="18"/>
<text text-anchor="middle" x="697.21" y="-287.2" font-family="sans" font-size="11.00">ndp_rs_input</text>
</g>
<!-- icmp6_input&#45;&gt;ndp_rs_input -->
<g id="edge41" class="edge">
<title>icmp6_input&#45;&gt;ndp_rs_input</title>
<path fill="none" stroke="black" d="M590.92,-345.86C610.91,-335.25 639.27,-320.21 661.53,-308.4"/>
<polygon fill="black" stroke="black" points="663.45,-311.34 670.65,-303.56 660.17,-305.16 663.45,-311.34"/>
</g>
<!-- icmp6_output&#45;&gt;ip6_output -->
<g id="edge42" class="edge">
<title>icmp6_output&#45;&gt;ip6_output</title>
<path fill="none" stroke="black" d="M731.67,-446.44C754.41,-453.54 784.54,-462.94 808.1,-470.29"/>
<polygon fill="black" stroke="black" points="807.17,-473.66 817.76,-473.3 809.26,-466.98 807.17,-473.66"/>
</g>
<!-- ndp_ns_input&#45;&gt;ip6_output -->
<g id="edge54" class="edge">
<title>ndp_ns_input&#45;&gt;ip6_output</title>
<path fill="none" stroke="black" d="M726.16,-394.72C734.66,-398.93 743.9,-403.86 752.03,-409 776.5,-424.47 802.31,-444.94 820.61,-460.27"/>
<polygon fill="black" stroke="black" points="818.57,-463.13 828.46,-466.92 823.09,-457.78 818.57,-463.13"/>
</g>
<!-- ndp_ns_input&#45;&gt;control_output -->
<g id="edge55" class="edge">
<title>ndp_ns_input&#45;&gt;control_output</title>
<path fill="none" stroke="black" d="M737.33,-380.92C801.33,-378.79 932.3,-372.87 1042.2,-358 1051.89,-356.69 1062.2,-355.05 1072.08,-353.37"/>
<polygon fill="black" stroke="black" points="1072.92,-356.77 1082.17,-351.6 1071.72,-349.88 1072.92,-356.77"/>
</g>
<!-- ndp_na_input&#45;&gt;control_output -->
<g id="edge53" class="edge">
<title>ndp_na_input&#45;&gt;control_output</title>
<path fill="none" stroke="black" d="M887.49,-344C935.09,-344 1014.92,-344 1067.95,-344"/>
<polygon fill="black" stroke="black" points="1068.18,-347.5 1078.18,-344 1068.18,-340.5 1068.18,-347.5"/>
</g>
<!-- ndp_rs_input&#45;&gt;control_output -->
<g id="edge57" class="edge">
<title>ndp_rs_input&#45;&gt;control_output</title>
<path fill="none" stroke="black" d="M735.05,-294.7C810.57,-304.33 983.08,-326.32 1069.85,-337.39"/>
<polygon fill="black" stroke="black" points="1069.63,-340.89 1079.99,-338.68 1070.52,-333.94 1069.63,-340.89"/>
</g>
<!-- ip6_forward&#45;&gt;ip6_output -->
<g id="edge43" class="edge">
<title>ip6_forward&#45;&gt;ip6_output</title>
<path fill="none" stroke="black" d="M479.07,-511.28C536.39,-509.85 653.41,-505.91 752.03,-496 769.63,-494.23 788.98,-491.47 805.5,-488.87"/>
<polygon fill="black" stroke="black" points="806.06,-492.33 815.38,-487.28 804.95,-485.42 806.06,-492.33"/>
</g>
<!-- ip6_hold&#45;&gt;control_output -->
<g id="edge44" class="edge">
<title>ip6_hold&#45;&gt;control_output</title>
<path fill="none" stroke="black" d="M1008.54,-444.9C1030.24,-425.55 1069.53,-390.52 1095.62,-367.26"/>
<polygon fill="black" stroke="black" points="1098.12,-369.71 1103.26,-360.45 1093.47,-364.49 1098.12,-369.71"/>
</g>
<!-- ip6_input_local&#45;&gt;l4_input_local -->
<g id="edge49" class="edge">
<title>ip6_input_local&#45;&gt;l4_input_local</title>
<path fill="none" stroke="black" d="M464.81,-343.15C484.3,-328.4 513.52,-306.3 535.23,-289.88"/>
<polygon fill="black" stroke="black" points="537.57,-292.49 543.44,-283.67 533.35,-286.91 537.57,-292.49"/>
</g>
<!-- ip6_input_local&#45;&gt;icmp6_input -->
<g id="edge48" class="edge">
<title>ip6_input_local&#45;&gt;icmp6_input</title>
<path fill="none" stroke="black" d="M487.97,-359C497.52,-359 507.66,-359 517.31,-359"/>
<polygon fill="black" stroke="black" points="517.55,-362.5 527.55,-359 517.55,-355.5 517.55,-362.5"/>
</g>
<!-- l4_loopback_output&#45;&gt;loopback_output -->
<g id="edge61" class="edge">
<title>l4_loopback_output&#45;&gt;loopback_output</title>
<path fill="none" stroke="black" d="M905.43,-252C913.81,-252 922.45,-252 930.87,-252"/>
<polygon fill="black" stroke="black" points="931,-255.5 941,-252 931,-248.5 931,-255.5"/>
</g>
</g>
</svg>
