<?xml version="1.0" encoding="UTF-8" standalone="no"?>
<!DOCTYPE svg PUBLIC "-//W3C//DTD SVG 1.1//EN"
 "http://www.w3.org/Graphics/SVG/1.1/DTD/svg11.dtd">
<!-- Generated by graphviz version 9.0.0 (20230911.1827)
 -->
<!-- Title: br&#45;0003 Pages: 1 -->
<svg width="1600pt" height="568pt"
 viewBox="0.00 0.00 1600.13 568.00" xmlns="http://www.w3.org/2000/svg" xmlns:xlink="http://www.w3.org/1999/xlink">
<g id="graph0" class="graph" transform="scale(1 1) rotate(0) translate(4 564)">
<title>br&#45;0003</title>
<polygon fill="white" stroke="none" points="-4,4 -4,-564 1596.13,-564 1596.13,4 -4,4"/>
<!-- eth_input -->
<g id="node1" class="node">
<title>eth_input</title>
<ellipse fill="none" stroke="black" cx="120.25" cy="-387" rx="30.25" ry="18"/>
<text text-anchor="middle" x="120.25" y="-383.3" font-family="sans" font-size="11.00">eth_input</text>
</g>
<!-- eth_input_unknown_type -->
<g id="node2" class="node">
<title>eth_input_unknown_type</title>
<ellipse fill="none" stroke="darkorange" cx="263.92" cy="-464" rx="77.42" ry="18"/>
<text text-anchor="middle" x="263.92" y="-460.3" font-family="sans" font-size="11.00">eth_input_unknown_type</text>
</g>
<!-- eth_input&#45;&gt;eth_input_unknown_type -->
<g id="edge1" class="edge">
<title>eth_input&#45;&gt;eth_input_unknown_type</title>
<path fill="none" stroke="black" d="M137.68,-401.94C150.31,-412.81 168.56,-427.27 186.51,-437 192.21,-440.09 198.34,-442.95 204.56,-445.55"/>
<polygon fill="black" stroke="black" points="203.05,-448.72 213.64,-449.13 205.62,-442.21 203.05,-448.72"/>
</g>
<!-- eth_input_unknown_vlan -->
<g id="node3" class="node">
<title>eth_input_unknown_vlan</title>
<ellipse fill="none" stroke="darkorange" cx="263.92" cy="-410" rx="76.58" ry="18"/>
<text text-anchor="middle" x="263.92" y="-406.3" font-family="sans" font-size="11.00">eth_input_unknown_vlan</text>
</g>
<!-- eth_input&#45;&gt;eth_input_unknown_vlan -->
<g id="edge2" class="edge">
<title>eth_input&#45;&gt;eth_input_unknown_vlan</title>
<path fill="none" stroke="black" d="M149.92,-391.65C161.28,-393.5 174.91,-395.71 188.71,-397.95"/>
<polygon fill="black" stroke="black" points="187.85,-401.36 198.28,-399.5 188.97,-394.45 187.85,-401.36"/>
</g>
<!-- arp_input -->
<g id="node4" class="node">
<title>arp_input</title>
<ellipse fill="none" stroke="black" cx="858.33" cy="-345" rx="30.25" ry="18"/>
<text text-anchor="middle" x="858.33" y="-341.3" font-family="sans" font-size="11.00">arp_input</text>
</g>
<!-- eth_input&#45;&gt;arp_input -->
<g id="edge3" class="edge">
<title>eth_input&#45;&gt;arp_input</title>
<path fill="none" stroke="black" d="M150.81,-385.16C161.99,-384.47 174.84,-383.69 186.51,-383 425.33,-368.92 712.05,-353.01 816.64,-347.24"/>
<polygon fill="black" stroke="black" points="816.6,-350.75 826.39,-346.7 816.21,-343.76 816.6,-350.75"/>
</g>
<!-- ip_input -->
<g id="node5" class="node">
<title>ip_input</title>
<ellipse fill="none" stroke="black" cx="263.92" cy="-210" rx="27" ry="18"/>
<text text-anchor="middle" x="263.92" y="-206.3" font-family="sans" font-size="11.00">ip_input</text>
</g>
<!-- eth_input&#45;&gt;ip_input -->
<g id="edge4" class="edge">
<title>eth_input&#45;&gt;ip_input</title>
<path fill="none" stroke="black" d="M134.33,-370.67C159.33,-339.42 214.06,-271.05 243.41,-234.38"/>
<polygon fill="black" stroke="black" points="245.83,-236.96 249.34,-226.97 240.36,-232.59 245.83,-236.96"/>
</g>
<!-- arp_output_reply -->
<g id="node11" class="node">
<title>arp_output_reply</title>
<ellipse fill="none" stroke="black" cx="1045.8" cy="-542" rx="53.41" ry="18"/>
<text text-anchor="middle" x="1045.8" y="-538.3" font-family="sans" font-size="11.00">arp_output_reply</text>
</g>
<!-- arp_input&#45;&gt;arp_output_reply -->
<g id="edge9" class="edge">
<title>arp_input&#45;&gt;arp_output_reply</title>
<path fill="none" stroke="black" d="M866.35,-362.6C880.83,-396.77 917.23,-472.46 970.91,-515 976.95,-519.79 983.91,-523.78 991.11,-527.09"/>
<polygon fill="black" stroke="black" points="989.75,-530.31 1000.33,-530.89 992.42,-523.84 989.75,-530.31"/>
</g>
<!-- arp_input_reply -->
<g id="node12" class="node">
<title>arp_input_reply</title>
<ellipse fill="none" stroke="darkorange" cx="1045.8" cy="-488" rx="48.78" ry="18"/>
<text text-anchor="middle" x="1045.8" y="-484.3" font-family="sans" font-size="11.00">arp_input_reply</text>
</g>
<!-- arp_input&#45;&gt;arp_input_reply -->
<g id="edge10" class="edge">
<title>arp_input&#45;&gt;arp_input_reply</title>
<path fill="none" stroke="black" d="M871.23,-361.51C889.88,-386.32 928.3,-433.23 970.91,-461 978.31,-465.82 986.69,-469.93 995.08,-473.38"/>
<polygon fill="black" stroke="black" points="993.63,-476.58 1004.22,-476.86 996.12,-470.04 993.63,-476.58"/>
</g>
<!-- arp_input_op_unsupp -->
<g id="node13" class="node">
<title>arp_input_op_unsupp</title>
<ellipse fill="none" stroke="darkorange" cx="1045.8" cy="-380" rx="66.05" ry="18"/>
<text text-anchor="middle" x="1045.8" y="-376.3" font-family="sans" font-size="11.00">arp_input_op_unsupp</text>
</g>
<!-- arp_input&#45;&gt;arp_input_op_unsupp -->
<g id="edge11" class="edge">
<title>arp_input&#45;&gt;arp_input_op_unsupp</title>
<path fill="none" stroke="black" d="M887.5,-350.32C911.88,-354.92 948.09,-361.75 979.62,-367.7"/>
<polygon fill="black" stroke="black" points="978.59,-371.07 989.07,-369.48 979.89,-364.19 978.59,-371.07"/>
</g>
<!-- arp_input_proto_unsupp -->
<g id="node14" class="node">
<title>arp_input_proto_unsupp</title>
<ellipse fill="none" stroke="darkorange" cx="1045.8" cy="-326" rx="74.89" ry="18"/>
<text text-anchor="middle" x="1045.8" y="-322.3" font-family="sans" font-size="11.00">arp_input_proto_unsupp</text>
</g>
<!-- arp_input&#45;&gt;arp_input_proto_unsupp -->
<g id="edge12" class="edge">
<title>arp_input&#45;&gt;arp_input_proto_unsupp</title>
<path fill="none" stroke="black" d="M888.31,-342.03C908.99,-339.91 937.88,-336.95 965.21,-334.15"/>
<polygon fill="black" stroke="black" points="965.3,-337.66 974.89,-333.16 964.58,-330.7 965.3,-337.66"/>
</g>
<!-- arp_input_error -->
<g id="node15" class="node">
<title>arp_input_error</title>
<ellipse fill="none" stroke="darkorange" cx="1045.8" cy="-272" rx="48.36" ry="18"/>
<text text-anchor="middle" x="1045.8" y="-268.3" font-family="sans" font-size="11.00">arp_input_error</text>
</g>
<!-- arp_input&#45;&gt;arp_input_error -->
<g id="edge13" class="edge">
<title>arp_input&#45;&gt;arp_input_error</title>
<path fill="none" stroke="black" d="M883.59,-334.66C906.12,-325.15 940.63,-310.76 970.91,-299 980.05,-295.44 989.89,-291.76 999.31,-288.29"/>
<polygon fill="black" stroke="black" points="1000.49,-291.59 1008.68,-284.87 998.09,-285.01 1000.49,-291.59"/>
</g>
<!-- arp_input_drop -->
<g id="node16" class="node">
<title>arp_input_drop</title>
<ellipse fill="none" stroke="darkorange" cx="1045.8" cy="-218" rx="47.1" ry="18"/>
<text text-anchor="middle" x="1045.8" y="-214.3" font-family="sans" font-size="11.00">arp_input_drop</text>
</g>
<!-- arp_input&#45;&gt;arp_input_drop -->
<g id="edge14" class="edge">
<title>arp_input&#45;&gt;arp_input_drop</title>
<path fill="none" stroke="black" d="M882.95,-334.04C898.84,-325.9 919.61,-313.68 934.91,-299 955.72,-279.03 948.23,-262.83 970.91,-245 977.92,-239.48 986.18,-235.02 994.58,-231.43"/>
<polygon fill="black" stroke="black" points="995.72,-234.74 1003.8,-227.89 993.21,-228.21 995.72,-234.74"/>
</g>
<!-- ip_output -->
<g id="node17" class="node">
<title>ip_output</title>
<ellipse fill="none" stroke="black" cx="1045.8" cy="-164" rx="30.25" ry="18"/>
<text text-anchor="middle" x="1045.8" y="-160.3" font-family="sans" font-size="11.00">ip_output</text>
</g>
<!-- arp_input&#45;&gt;ip_output -->
<g id="edge15" class="edge">
<title>arp_input&#45;&gt;ip_output</title>
<path fill="none" stroke="black" d="M884.28,-335.26C900.76,-327.65 921.69,-315.58 934.91,-299 966.44,-259.43 935.64,-227.28 970.91,-191 980.18,-181.45 993.1,-175.26 1005.55,-171.26"/>
<polygon fill="black" stroke="black" points="1006.11,-174.73 1014.81,-168.68 1004.23,-167.99 1006.11,-174.73"/>
</g>
<!-- ip_forward -->
<g id="node25" class="node">
<title>ip_forward</title>
<ellipse fill="none" stroke="black" cx="450.97" cy="-64" rx="33.62" ry="18"/>
<text text-anchor="middle" x="450.97" y="-60.3" font-family="sans" font-size="11.00">ip_forward</text>
</g>
<!-- ip_input&#45;&gt;ip_forward -->
<g id="edge26" class="edge">
<title>ip_input&#45;&gt;ip_forward</title>
<path fill="none" stroke="black" d="M277.23,-194.13C296.45,-170.22 335.69,-124.72 377.34,-96 387.66,-88.89 399.81,-82.79 411.19,-77.88"/>
<polygon fill="black" stroke="black" points="412.45,-81.15 420.38,-74.12 409.8,-74.67 412.45,-81.15"/>
</g>
<!-- ip_input_local -->
<g id="node27" class="node">
<title>ip_input_local</title>
<ellipse fill="none" stroke="black" cx="450.97" cy="-156" rx="42.89" ry="18"/>
<text text-anchor="middle" x="450.97" y="-152.3" font-family="sans" font-size="11.00">ip_input_local</text>
</g>
<!-- ip_input&#45;&gt;ip_input_local -->
<g id="edge27" class="edge">
<title>ip_input&#45;&gt;ip_input_local</title>
<path fill="none" stroke="black" d="M289.12,-202.94C318.24,-194.44 367.76,-179.99 404.18,-169.36"/>
<polygon fill="black" stroke="black" points="404.96,-172.78 413.58,-166.62 402.99,-166.06 404.96,-172.78"/>
</g>
<!-- ip_input_no_route -->
<g id="node28" class="node">
<title>ip_input_no_route</title>
<ellipse fill="none" stroke="darkorange" cx="450.97" cy="-318" rx="55.52" ry="18"/>
<text text-anchor="middle" x="450.97" y="-314.3" font-family="sans" font-size="11.00">ip_input_no_route</text>
</g>
<!-- ip_input&#45;&gt;ip_input_no_route -->
<g id="edge28" class="edge">
<title>ip_input&#45;&gt;ip_input_no_route</title>
<path fill="none" stroke="black" d="M281.5,-224.15C302.64,-241.65 340.84,-271.52 377.34,-291 384.36,-294.74 392.01,-298.2 399.63,-301.3"/>
<polygon fill="black" stroke="black" points="398.3,-304.54 408.89,-304.89 400.83,-298.01 398.3,-304.54"/>
</g>
<!-- ip_input_bad_checksum -->
<g id="node29" class="node">
<title>ip_input_bad_checksum</title>
<ellipse fill="none" stroke="darkorange" cx="450.97" cy="-264" rx="73.63" ry="18"/>
<text text-anchor="middle" x="450.97" y="-260.3" font-family="sans" font-size="11.00">ip_input_bad_checksum</text>
</g>
<!-- ip_input&#45;&gt;ip_input_bad_checksum -->
<g id="edge29" class="edge">
<title>ip_input&#45;&gt;ip_input_bad_checksum</title>
<path fill="none" stroke="black" d="M289.12,-217.06C314.93,-224.59 356.77,-236.8 391.31,-246.88"/>
<polygon fill="black" stroke="black" points="390.21,-250.21 400.79,-249.65 392.17,-243.49 390.21,-250.21"/>
</g>
<!-- ip_input_bad_length -->
<g id="node30" class="node">
<title>ip_input_bad_length</title>
<ellipse fill="none" stroke="darkorange" cx="450.97" cy="-210" rx="62.26" ry="18"/>
<text text-anchor="middle" x="450.97" y="-206.3" font-family="sans" font-size="11.00">ip_input_bad_length</text>
</g>
<!-- ip_input&#45;&gt;ip_input_bad_length -->
<g id="edge30" class="edge">
<title>ip_input&#45;&gt;ip_input_bad_length</title>
<path fill="none" stroke="black" d="M291.04,-210C313.39,-210 346.67,-210 377.01,-210"/>
<polygon fill="black" stroke="black" points="376.95,-213.5 386.95,-210 376.95,-206.5 376.95,-213.5"/>
</g>
<!-- eth_output -->
<g id="node6" class="node">
<title>eth_output</title>
<ellipse fill="none" stroke="black" cx="1228.21" cy="-407" rx="34.89" ry="18"/>
<text text-anchor="middle" x="1228.21" y="-403.3" font-family="sans" font-size="11.00">eth_output</text>
</g>
<!-- port_tx -->
<g id="node7" class="node">
<title>port_tx</title>
<ellipse fill="none" stroke="black" cx="1404.31" cy="-380" rx="27" ry="18"/>
<text text-anchor="middle" x="1404.31" y="-376.3" font-family="sans" font-size="11.00">port_tx</text>
</g>
<!-- eth_output&#45;&gt;port_tx -->
<g id="edge5" class="edge">
<title>eth_output&#45;&gt;port_tx</title>
<path fill="none" stroke="black" d="M1261.96,-401.92C1291.65,-397.32 1335.39,-390.53 1366.33,-385.73"/>
<polygon fill="black" stroke="black" points="1366.67,-389.22 1376.01,-384.23 1365.59,-382.31 1366.67,-389.22"/>
</g>
<!-- eth_output_inval -->
<g id="node8" class="node">
<title>eth_output_inval</title>
<ellipse fill="none" stroke="darkorange" cx="1404.31" cy="-434" rx="52.57" ry="18"/>
<text text-anchor="middle" x="1404.31" y="-430.3" font-family="sans" font-size="11.00">eth_output_inval</text>
</g>
<!-- eth_output&#45;&gt;eth_output_inval -->
<g id="edge6" class="edge">
<title>eth_output&#45;&gt;eth_output_inval</title>
<path fill="none" stroke="black" d="M1261.96,-412.08C1285.24,-415.69 1317.16,-420.64 1344.78,-424.92"/>
<polygon fill="black" stroke="black" points="1344,-428.34 1354.42,-426.42 1345.07,-421.43 1344,-428.34"/>
</g>
<!-- port_tx_error -->
<g id="node10" class="node">
<title>port_tx_error</title>
<ellipse fill="none" stroke="darkorange" cx="1550.5" cy="-380" rx="41.62" ry="18"/>
<text text-anchor="middle" x="1550.5" y="-376.3" font-family="sans" font-size="11.00">port_tx_error</text>
</g>
<!-- port_tx&#45;&gt;port_tx_error -->
<g id="edge8" class="edge">
<title>port_tx&#45;&gt;port_tx_error</title>
<path fill="none" stroke="black" d="M1431.75,-380C1450.03,-380 1474.96,-380 1497.18,-380"/>
<polygon fill="black" stroke="black" points="1496.98,-383.5 1506.98,-380 1496.98,-376.5 1496.98,-383.5"/>
</g>
<!-- port_rx -->
<g id="node9" class="node">
<title>port_rx</title>
<ellipse fill="none" stroke="blue" stroke-width="2" cx="27" cy="-387" rx="27" ry="18"/>
<text text-anchor="middle" x="27" y="-383.3" font-family="sans" font-size="11.00">port_rx</text>
</g>
<!-- port_rx&#45;&gt;eth_input -->
<g id="edge7" class="edge">
<title>port_rx&#45;&gt;eth_input</title>
<path fill="none" stroke="blue" stroke-width="2" d="M54.39,-387C61.91,-387 70.27,-387 78.43,-387"/>
<polygon fill="blue" stroke="blue" stroke-width="2" points="76.69,-390.5 86.69,-387 76.69,-383.5 76.69,-390.5"/>
</g>
<!-- arp_output_reply&#45;&gt;eth_output -->
<g id="edge16" class="edge">
<title>arp_output_reply&#45;&gt;eth_output</title>
<path fill="none" stroke="black" d="M1091.07,-532.28C1101.72,-528.3 1112.4,-522.74 1120.69,-515 1149.47,-488.1 1128.11,-461.11 1156.69,-434 1164.44,-426.64 1174.41,-421.24 1184.39,-417.28"/>
<polygon fill="black" stroke="black" points="1185.41,-420.63 1193.7,-414.03 1183.1,-414.02 1185.41,-420.63"/>
</g>
<!-- arp_output_reply_error -->
<g id="node18" class="node">
<title>arp_output_reply_error</title>
<ellipse fill="none" stroke="darkorange" cx="1228.21" cy="-542" rx="71.52" ry="18"/>
<text text-anchor="middle" x="1228.21" y="-538.3" font-family="sans" font-size="11.00">arp_output_reply_error</text>
</g>
<!-- arp_output_reply&#45;&gt;arp_output_reply_error -->
<g id="edge17" class="edge">
<title>arp_output_reply&#45;&gt;arp_output_reply_error</title>
<path fill="none" stroke="black" d="M1099.46,-542C1113.78,-542 1129.62,-542 1145.14,-542"/>
<polygon fill="black" stroke="black" points="1144.85,-545.5 1154.85,-542 1144.85,-538.5 1144.85,-545.5"/>
</g>
<!-- ip_output&#45;&gt;eth_output -->
<g id="edge34" class="edge">
<title>ip_output&#45;&gt;eth_output</title>
<path fill="none" stroke="black" d="M1075.06,-169.02C1090.07,-172.89 1107.98,-179.6 1120.69,-191 1135.9,-204.65 1190.02,-323.46 1214.73,-378.82"/>
<polygon fill="black" stroke="black" points="1211.52,-380.21 1218.79,-387.92 1217.92,-377.37 1211.52,-380.21"/>
</g>
<!-- ip_output_no_route -->
<g id="node33" class="node">
<title>ip_output_no_route</title>
<ellipse fill="none" stroke="darkorange" cx="1228.21" cy="-110" rx="60.15" ry="18"/>
<text text-anchor="middle" x="1228.21" y="-106.3" font-family="sans" font-size="11.00">ip_output_no_route</text>
</g>
<!-- ip_output&#45;&gt;ip_output_no_route -->
<g id="edge35" class="edge">
<title>ip_output&#45;&gt;ip_output_no_route</title>
<path fill="none" stroke="black" d="M1073.42,-156.03C1099.75,-148.15 1140.78,-135.87 1173.85,-125.97"/>
<polygon fill="black" stroke="black" points="1174.7,-129.37 1183.27,-123.15 1172.69,-122.67 1174.7,-129.37"/>
</g>
<!-- ip_output_error -->
<g id="node34" class="node">
<title>ip_output_error</title>
<ellipse fill="none" stroke="darkorange" cx="1228.21" cy="-56" rx="48.36" ry="18"/>
<text text-anchor="middle" x="1228.21" y="-52.3" font-family="sans" font-size="11.00">ip_output_error</text>
</g>
<!-- ip_output&#45;&gt;ip_output_error -->
<g id="edge36" class="edge">
<title>ip_output&#45;&gt;ip_output_error</title>
<path fill="none" stroke="black" d="M1063.7,-149.26C1084.48,-131.71 1121.34,-102.33 1156.69,-83 1164.13,-78.93 1172.31,-75.2 1180.38,-71.89"/>
<polygon fill="black" stroke="black" points="1181.41,-75.24 1189.45,-68.34 1178.86,-68.72 1181.41,-75.24"/>
</g>
<!-- arp_queue_full -->
<g id="node35" class="node">
<title>arp_queue_full</title>
<ellipse fill="none" stroke="darkorange" cx="1228.21" cy="-218" rx="45.83" ry="18"/>
<text text-anchor="middle" x="1228.21" y="-214.3" font-family="sans" font-size="11.00">arp_queue_full</text>
</g>
<!-- ip_output&#45;&gt;arp_queue_full -->
<g id="edge37" class="edge">
<title>ip_output&#45;&gt;arp_queue_full</title>
<path fill="none" stroke="black" d="M1073.42,-171.97C1101.45,-180.36 1146.17,-193.74 1180.17,-203.92"/>
<polygon fill="black" stroke="black" points="1178.77,-207.15 1189.35,-206.67 1180.77,-200.45 1178.77,-207.15"/>
</g>
<!-- ipip_output -->
<g id="node36" class="node">
<title>ipip_output</title>
<ellipse fill="none" stroke="black" cx="1228.21" cy="-164" rx="35.73" ry="18"/>
<text text-anchor="middle" x="1228.21" y="-160.3" font-family="sans" font-size="11.00">ipip_output</text>
</g>
<!-- ip_output&#45;&gt;ipip_output -->
<g id="edge38" class="edge">
<title>ip_output&#45;&gt;ipip_output</title>
<path fill="none" stroke="black" d="M1074.99,-158.94C1103.71,-157.03 1148.69,-156.74 1182.32,-158.07"/>
<polygon fill="black" stroke="black" points="1182.03,-161.56 1192.19,-158.54 1182.36,-154.57 1182.03,-161.56"/>
</g>
<!-- arp_output_request -->
<g id="node19" class="node">
<title>arp_output_request</title>
<ellipse fill="none" stroke="blue" stroke-width="2" cx="1045.8" cy="-434" rx="61.42" ry="18"/>
<text text-anchor="middle" x="1045.8" y="-430.3" font-family="sans" font-size="11.00">arp_output_request</text>
</g>
<!-- arp_output_request&#45;&gt;eth_output -->
<g id="edge18" class="edge">
<title>arp_output_request&#45;&gt;eth_output</title>
<path fill="none" stroke="blue" stroke-width="2" d="M1100.93,-425.9C1127.18,-421.97 1158.31,-417.31 1183.1,-413.6"/>
<polygon fill="blue" stroke="blue" stroke-width="2" points="1181.99,-417.31 1191.36,-412.37 1180.95,-410.38 1181.99,-417.31"/>
</g>
<!-- arp_output_error -->
<g id="node20" class="node">
<title>arp_output_error</title>
<ellipse fill="none" stroke="darkorange" cx="1228.21" cy="-461" rx="52.99" ry="18"/>
<text text-anchor="middle" x="1228.21" y="-457.3" font-family="sans" font-size="11.00">arp_output_error</text>
</g>
<!-- arp_output_request&#45;&gt;arp_output_error -->
<g id="edge19" class="edge">
<title>arp_output_request&#45;&gt;arp_output_error</title>
<path fill="none" stroke="blue" stroke-width="2" d="M1100.93,-442.1C1122.04,-445.26 1146.31,-448.89 1167.9,-452.12"/>
<polygon fill="blue" stroke="blue" stroke-width="2" points="1165.85,-455.36 1176.25,-453.37 1166.88,-448.43 1165.85,-455.36"/>
</g>
<!-- icmp_input -->
<g id="node21" class="node">
<title>icmp_input</title>
<ellipse fill="none" stroke="black" cx="653.18" cy="-218" rx="34.89" ry="18"/>
<text text-anchor="middle" x="653.18" y="-214.3" font-family="sans" font-size="11.00">icmp_input</text>
</g>
<!-- icmp_output -->
<g id="node22" class="node">
<title>icmp_output</title>
<ellipse fill="none" stroke="black" cx="858.33" cy="-164" rx="39.52" ry="18"/>
<text text-anchor="middle" x="858.33" y="-160.3" font-family="sans" font-size="11.00">icmp_output</text>
</g>
<!-- icmp_input&#45;&gt;icmp_output -->
<g id="edge20" class="edge">
<title>icmp_input&#45;&gt;icmp_output</title>
<path fill="none" stroke="black" d="M684.59,-209.92C718.54,-200.89 773.81,-186.2 812.67,-175.87"/>
<polygon fill="black" stroke="black" points="813.43,-179.29 822.19,-173.34 811.63,-172.53 813.43,-179.29"/>
</g>
<!-- icmp_input_invalid -->
<g id="node23" class="node">
<title>icmp_input_invalid</title>
<ellipse fill="none" stroke="darkorange" cx="858.33" cy="-218" rx="58.05" ry="18"/>
<text text-anchor="middle" x="858.33" y="-214.3" font-family="sans" font-size="11.00">icmp_input_invalid</text>
</g>
<!-- icmp_input&#45;&gt;icmp_input_invalid -->
<g id="edge21" class="edge">
<title>icmp_input&#45;&gt;icmp_input_invalid</title>
<path fill="none" stroke="black" d="M688.18,-218C715.58,-218 754.99,-218 788.87,-218"/>
<polygon fill="black" stroke="black" points="788.61,-221.5 798.61,-218 788.61,-214.5 788.61,-221.5"/>
</g>
<!-- icmp_input_unsupported -->
<g id="node24" class="node">
<title>icmp_input_unsupported</title>
<ellipse fill="none" stroke="darkorange" cx="858.33" cy="-272" rx="76.58" ry="18"/>
<text text-anchor="middle" x="858.33" y="-268.3" font-family="sans" font-size="11.00">icmp_input_unsupported</text>
</g>
<!-- icmp_input&#45;&gt;icmp_input_unsupported -->
<g id="edge22" class="edge">
<title>icmp_input&#45;&gt;icmp_input_unsupported</title>
<path fill="none" stroke="black" d="M684.59,-226.08C713.68,-233.82 758.42,-245.71 795.08,-255.45"/>
<polygon fill="black" stroke="black" points="794.14,-258.83 804.71,-258.01 795.94,-252.06 794.14,-258.83"/>
</g>
<!-- icmp_output&#45;&gt;ip_output -->
<g id="edge23" class="edge">
<title>icmp_output&#45;&gt;ip_output</title>
<path fill="none" stroke="black" d="M898.21,-164C929.1,-164 972.2,-164 1003.67,-164"/>
<polygon fill="black" stroke="black" points="1003.59,-167.5 1013.59,-164 1003.59,-160.5 1003.59,-167.5"/>
</g>
<!-- ip_forward&#45;&gt;ip_output -->
<g id="edge24" class="edge">
<title>ip_forward&#45;&gt;ip_output</title>
<path fill="none" stroke="black" d="M483.66,-59.02C562.62,-47.92 773.38,-26.36 934.91,-83 968.76,-94.87 1001,-121.03 1021.7,-140.42"/>
<polygon fill="black" stroke="black" points="1019.11,-142.79 1028.74,-147.21 1023.97,-137.75 1019.11,-142.79"/>
</g>
<!-- ip_forward_ttl_exceeded -->
<g id="node26" class="node">
<title>ip_forward_ttl_exceeded</title>
<ellipse fill="none" stroke="darkorange" cx="653.18" cy="-18" rx="75.73" ry="18"/>
<text text-anchor="middle" x="653.18" y="-14.3" font-family="sans" font-size="11.00">ip_forward_ttl_exceeded</text>
</g>
<!-- ip_forward&#45;&gt;ip_forward_ttl_exceeded -->
<g id="edge25" class="edge">
<title>ip_forward&#45;&gt;ip_forward_ttl_exceeded</title>
<path fill="none" stroke="black" d="M482.38,-57.01C509.92,-50.69 551.43,-41.15 586.51,-33.09"/>
<polygon fill="black" stroke="black" points="587.21,-36.52 596.17,-30.87 585.64,-29.7 587.21,-36.52"/>
</g>
<!-- ip_input_local&#45;&gt;icmp_input -->
<g id="edge32" class="edge">
<title>ip_input_local&#45;&gt;icmp_input</title>
<path fill="none" stroke="black" d="M485.66,-167.1C507.08,-174.09 535.42,-183.23 560.6,-191 577.04,-196.07 595.2,-201.47 610.99,-206.1"/>
<polygon fill="black" stroke="black" points="609.98,-209.44 620.56,-208.89 611.94,-202.73 609.98,-209.44"/>
</g>
<!-- ip_input_local_unknown_proto -->
<g id="node31" class="node">
<title>ip_input_local_unknown_proto</title>
<ellipse fill="none" stroke="darkorange" cx="653.18" cy="-164" rx="92.58" ry="18"/>
<text text-anchor="middle" x="653.18" y="-160.3" font-family="sans" font-size="11.00">ip_input_local_unknown_proto</text>
</g>
<!-- ip_input_local&#45;&gt;ip_input_local_unknown_proto -->
<g id="edge31" class="edge">
<title>ip_input_local&#45;&gt;ip_input_local_unknown_proto</title>
<path fill="none" stroke="black" d="M493.94,-157.68C510.6,-158.34 530.55,-159.14 550.57,-159.94"/>
<polygon fill="black" stroke="black" points="550.37,-163.43 560.5,-160.34 550.65,-156.44 550.37,-163.43"/>
</g>
<!-- ipip_input -->
<g id="node32" class="node">
<title>ipip_input</title>
<ellipse fill="none" stroke="black" cx="653.18" cy="-110" rx="31.1" ry="18"/>
<text text-anchor="middle" x="653.18" y="-106.3" font-family="sans" font-size="11.00">ipip_input</text>
</g>
<!-- ip_input_local&#45;&gt;ipip_input -->
<g id="edge33" class="edge">
<title>ip_input_local&#45;&gt;ipip_input</title>
<path fill="none" stroke="black" d="M489.16,-147.46C524.36,-139.37 577.02,-127.27 612.9,-119.02"/>
<polygon fill="black" stroke="black" points="613.47,-122.48 622.44,-116.83 611.91,-115.66 613.47,-122.48"/>
</g>
<!-- ipip_input&#45;&gt;ip_input -->
<g id="edge39" class="edge">
<title>ipip_input&#45;&gt;ip_input</title>
<path fill="none" stroke="black" d="M622.2,-106.84C570.49,-102.52 461.91,-98.45 377.34,-129 342.7,-141.52 309.28,-168.04 288.01,-187.34"/>
<polygon fill="black" stroke="black" points="285.71,-184.69 280.78,-194.07 290.49,-189.81 285.71,-184.69"/>
</g>
<!-- ipip_input_no_tunnel -->
<g id="node37" class="node">
<title>ipip_input_no_tunnel</title>
<ellipse fill="none" stroke="darkorange" cx="858.33" cy="-110" rx="63.94" ry="18"/>
<text text-anchor="middle" x="858.33" y="-106.3" font-family="sans" font-size="11.00">ipip_input_no_tunnel</text>
</g>
<!-- ipip_input&#45;&gt;ipip_input_no_tunnel -->
<g id="edge40" class="edge">
<title>ipip_input&#45;&gt;ipip_input_no_tunnel</title>
<path fill="none" stroke="black" d="M684.59,-110C710.45,-110 748.67,-110 782.58,-110"/>
<polygon fill="black" stroke="black" points="782.39,-113.5 792.39,-110 782.39,-106.5 782.39,-113.5"/>
</g>
<!-- ipip_output&#45;&gt;ip_output -->
<g id="edge41" class="edge">
<title>ipip_output&#45;&gt;ip_output</title>
<path fill="none" stroke="black" d="M1193.7,-169.39C1163.26,-171.1 1118.35,-171.2 1086.2,-169.69"/>
<polygon fill="black" stroke="black" points="1086.68,-166.21 1076.5,-169.15 1086.29,-173.2 1086.68,-166.21"/>
</g>
<!-- ipip_output_no_tunnel -->
<g id="node38" class="node">
<title>ipip_output_no_tunnel</title>
<ellipse fill="none" stroke="darkorange" cx="1404.31" cy="-164" rx="68.57" ry="18"/>
<text text-anchor="middle" x="1404.31" y="-160.3" font-family="sans" font-size="11.00">ipip_output_no_tunnel</text>
</g>
<!-- ipip_output&#45;&gt;ipip_output_no_tunnel -->
<g id="edge42" class="edge">
<title>ipip_output&#45;&gt;ipip_output_no_tunnel</title>
<path fill="none" stroke="black" d="M1264.02,-164C1281.35,-164 1303.06,-164 1324.15,-164"/>
<polygon fill="black" stroke="black" points="1323.91,-167.5 1333.91,-164 1323.91,-160.5 1323.91,-167.5"/>
</g>
</g>
</svg>
