<?xml version="1.0" encoding="UTF-8" standalone="no"?>
<!DOCTYPE svg PUBLIC "-//W3C//DTD SVG 1.1//EN"
 "http://www.w3.org/Graphics/SVG/1.1/DTD/svg11.dtd">
<!-- Generated by graphviz version 2.44.0 (0)
 -->
<!-- Title: gr&#45;0005 Pages: 1 -->
<svg width="1182pt" height="791pt"
 viewBox="0.00 0.00 1181.72 791.00" xmlns="http://www.w3.org/2000/svg" xmlns:xlink="http://www.w3.org/1999/xlink">
<g id="graph0" class="graph" transform="scale(1 1) rotate(0) translate(4 787)">
<title>gr&#45;0005</title>
<polygon fill="white" stroke="transparent" points="-4,4 -4,-787 1177.72,-787 1177.72,4 -4,4"/>
<!-- control_input -->
<g id="node1" class="node">
<title>control_input</title>
<ellipse fill="none" stroke="blue" stroke-width="2" cx="40.16" cy="-552" rx="40.32" ry="18"/>
<text text-anchor="middle" x="40.16" y="-549.2" font-family="sans" font-size="11.00">control_input</text>
</g>
<!-- loopback_input -->
<g id="node2" class="node">
<title>loopback_input</title>
<ellipse fill="none" stroke="black" cx="161.91" cy="-497" rx="45.68" ry="18"/>
<text text-anchor="middle" x="161.91" y="-494.2" font-family="sans" font-size="11.00">loopback_input</text>
</g>
<!-- control_input&#45;&gt;loopback_input -->
<g id="edge1" class="edge">
<title>control_input&#45;&gt;loopback_input</title>
<path fill="none" stroke="blue" stroke-width="2" d="M68.94,-539.24C84.79,-531.96 104.91,-522.72 122.29,-514.74"/>
<polygon fill="blue" stroke="blue" stroke-width="2" points="123.99,-517.81 131.62,-510.45 121.07,-511.45 123.99,-517.81"/>
</g>
<!-- arp_output_request -->
<g id="node3" class="node">
<title>arp_output_request</title>
<ellipse fill="none" stroke="black" cx="302.66" cy="-765" rx="59.31" ry="18"/>
<text text-anchor="middle" x="302.66" y="-762.2" font-family="sans" font-size="11.00">arp_output_request</text>
</g>
<!-- control_input&#45;&gt;arp_output_request -->
<g id="edge2" class="edge">
<title>control_input&#45;&gt;arp_output_request</title>
<path fill="none" stroke="blue" stroke-width="2" d="M42.99,-570.02C47.76,-606.96 64.09,-691.27 116.32,-733 149.34,-759.38 196.35,-767.26 234.76,-768.61"/>
<polygon fill="blue" stroke="blue" stroke-width="2" points="234.76,-772.11 244.83,-768.83 234.91,-765.12 234.76,-772.11"/>
</g>
<!-- icmp_local_send -->
<g id="node4" class="node">
<title>icmp_local_send</title>
<ellipse fill="none" stroke="black" cx="302.66" cy="-641" rx="49.28" ry="18"/>
<text text-anchor="middle" x="302.66" y="-638.2" font-family="sans" font-size="11.00">icmp_local_send</text>
</g>
<!-- control_input&#45;&gt;icmp_local_send -->
<g id="edge3" class="edge">
<title>control_input&#45;&gt;icmp_local_send</title>
<path fill="none" stroke="blue" stroke-width="2" d="M72.58,-562.74C118.35,-578.37 203.6,-607.5 256.21,-625.47"/>
<polygon fill="blue" stroke="blue" stroke-width="2" points="255.36,-628.88 265.96,-628.8 257.62,-622.26 255.36,-628.88"/>
</g>
<!-- ndp_ns_output -->
<g id="node5" class="node">
<title>ndp_ns_output</title>
<ellipse fill="none" stroke="black" cx="161.91" cy="-394" rx="44.51" ry="18"/>
<text text-anchor="middle" x="161.91" y="-391.2" font-family="sans" font-size="11.00">ndp_ns_output</text>
</g>
<!-- control_input&#45;&gt;ndp_ns_output -->
<g id="edge4" class="edge">
<title>control_input&#45;&gt;ndp_ns_output</title>
<path fill="none" stroke="blue" stroke-width="2" d="M53.98,-535.09C75.02,-507.32 117.03,-451.9 141.66,-419.4"/>
<polygon fill="blue" stroke="blue" stroke-width="2" points="144.57,-421.35 147.82,-411.27 139,-417.12 144.57,-421.35"/>
</g>
<!-- ip_output -->
<g id="node6" class="node">
<title>ip_output</title>
<ellipse fill="none" stroke="black" cx="849.9" cy="-553" rx="29.12" ry="18"/>
<text text-anchor="middle" x="849.9" y="-550.2" font-family="sans" font-size="11.00">ip_output</text>
</g>
<!-- control_input&#45;&gt;ip_output -->
<g id="edge5" class="edge">
<title>control_input&#45;&gt;ip_output</title>
<path fill="none" stroke="blue" stroke-width="2" d="M54.68,-568.93C90.24,-611.39 191.26,-719 301.66,-719 301.66,-719 301.66,-719 566.15,-719 661.92,-719 675.42,-667.47 752.03,-610 769.63,-596.79 769.37,-587.67 788.03,-576 795.82,-571.12 804.81,-567.02 813.45,-563.7"/>
<polygon fill="blue" stroke="blue" stroke-width="2" points="814.74,-566.95 822.97,-560.28 812.37,-560.37 814.74,-566.95"/>
</g>
<!-- ip6_output -->
<g id="node7" class="node">
<title>ip6_output</title>
<ellipse fill="none" stroke="black" cx="849.9" cy="-307" rx="32.63" ry="18"/>
<text text-anchor="middle" x="849.9" y="-304.2" font-family="sans" font-size="11.00">ip6_output</text>
</g>
<!-- control_input&#45;&gt;ip6_output -->
<g id="edge6" class="edge">
<title>control_input&#45;&gt;ip6_output</title>
<path fill="none" stroke="blue" stroke-width="2" d="M43.86,-534.03C50.17,-497.87 69.1,-415.61 116.32,-367 159.36,-322.7 185.1,-331.08 243.5,-311 310.4,-288 327.61,-280.73 397.81,-272 437.55,-267.06 447.91,-270.07 487.9,-272 549.15,-274.96 726.14,-293.67 807.32,-302.46"/>
<polygon fill="blue" stroke="blue" stroke-width="2" points="807.33,-305.98 817.65,-303.58 808.09,-299.02 807.33,-305.98"/>
</g>
<!-- loopback_input&#45;&gt;ip_output -->
<g id="edge12" class="edge">
<title>loopback_input&#45;&gt;ip_output</title>
<path fill="none" stroke="black" d="M207.84,-497C262.97,-497 359.29,-497 441.86,-497 441.86,-497 441.86,-497 566.15,-497 649.63,-497 670.52,-505.98 752.03,-524 773,-528.64 796.05,-535.46 814.4,-541.33"/>
<polygon fill="black" stroke="black" points="813.48,-544.71 824.07,-544.47 815.64,-538.05 813.48,-544.71"/>
</g>
<!-- loopback_input&#45;&gt;ip6_output -->
<g id="edge14" class="edge">
<title>loopback_input&#45;&gt;ip6_output</title>
<path fill="none" stroke="black" d="M184.8,-481.15C230.28,-449.82 339.32,-383 441.86,-383 441.86,-383 441.86,-383 566.15,-383 650.13,-383 671.67,-373.42 752.03,-349 773.98,-342.33 797.63,-332.14 816.06,-323.47"/>
<polygon fill="black" stroke="black" points="817.68,-326.57 825.19,-319.1 814.66,-320.26 817.68,-326.57"/>
</g>
<!-- ip_input_local -->
<g id="node15" class="node">
<title>ip_input_local</title>
<ellipse fill="none" stroke="black" cx="302.66" cy="-543" rx="41.49" ry="18"/>
<text text-anchor="middle" x="302.66" y="-540.2" font-family="sans" font-size="11.00">ip_input_local</text>
</g>
<!-- loopback_input&#45;&gt;ip_input_local -->
<g id="edge11" class="edge">
<title>loopback_input&#45;&gt;ip_input_local</title>
<path fill="none" stroke="black" d="M197.56,-508.49C216.38,-514.73 239.78,-522.49 259.63,-529.07"/>
<polygon fill="black" stroke="black" points="258.75,-532.46 269.35,-532.29 260.96,-525.82 258.75,-532.46"/>
</g>
<!-- ip6_input_local -->
<g id="node16" class="node">
<title>ip6_input_local</title>
<ellipse fill="none" stroke="black" cx="442.86" cy="-299" rx="45.09" ry="18"/>
<text text-anchor="middle" x="442.86" y="-296.2" font-family="sans" font-size="11.00">ip6_input_local</text>
</g>
<!-- loopback_input&#45;&gt;ip6_input_local -->
<g id="edge13" class="edge">
<title>loopback_input&#45;&gt;ip6_input_local</title>
<path fill="none" stroke="black" d="M173.05,-479.51C192.4,-446.36 233.55,-376.95 243.5,-369 286.42,-334.71 347.4,-316.55 390.39,-307.4"/>
<polygon fill="black" stroke="black" points="391.26,-310.79 400.36,-305.37 389.86,-303.93 391.26,-310.79"/>
</g>
<!-- eth_output -->
<g id="node13" class="node">
<title>eth_output</title>
<ellipse fill="none" stroke="black" cx="998.24" cy="-499" rx="33.8" ry="18"/>
<text text-anchor="middle" x="998.24" y="-496.2" font-family="sans" font-size="11.00">eth_output</text>
</g>
<!-- arp_output_request&#45;&gt;eth_output -->
<g id="edge23" class="edge">
<title>arp_output_request&#45;&gt;eth_output</title>
<path fill="none" stroke="black" d="M361.85,-763.6C414.64,-762.44 494.61,-761 564.15,-761 564.15,-761 564.15,-761 698.21,-761 725.17,-761 730.11,-748.71 752.03,-733 831.93,-675.74 848.63,-655.35 911.77,-580 930.29,-557.89 926.49,-545.47 947.77,-526 952.21,-521.94 957.37,-518.27 962.65,-515.04"/>
<polygon fill="black" stroke="black" points="964.55,-517.98 971.54,-510.02 961.11,-511.89 964.55,-517.98"/>
</g>
<!-- icmp_output -->
<g id="node23" class="node">
<title>icmp_output</title>
<ellipse fill="none" stroke="black" cx="565.15" cy="-635" rx="37.98" ry="18"/>
<text text-anchor="middle" x="565.15" y="-632.2" font-family="sans" font-size="11.00">icmp_output</text>
</g>
<!-- icmp_local_send&#45;&gt;icmp_output -->
<g id="edge26" class="edge">
<title>icmp_local_send&#45;&gt;icmp_output</title>
<path fill="none" stroke="black" d="M342.3,-651.75C379.71,-660.66 437.93,-670.59 487.9,-662 501.12,-659.73 515.08,-655.4 527.4,-650.86"/>
<polygon fill="black" stroke="black" points="528.8,-654.07 536.87,-647.21 526.28,-647.53 528.8,-654.07"/>
</g>
<!-- ndp_ns_output&#45;&gt;ip6_output -->
<g id="edge55" class="edge">
<title>ndp_ns_output&#45;&gt;ip6_output</title>
<path fill="none" stroke="black" d="M195.88,-382.3C210.34,-377.55 227.6,-372.4 243.5,-369 330.34,-350.44 353.06,-345 441.86,-345 441.86,-345 441.86,-345 566.15,-345 653.63,-345 754.98,-326.91 809.43,-315.7"/>
<polygon fill="black" stroke="black" points="810.29,-319.09 819.36,-313.62 808.85,-312.24 810.29,-319.09"/>
</g>
<!-- ip_output&#45;&gt;eth_output -->
<g id="edge35" class="edge">
<title>ip_output&#45;&gt;eth_output</title>
<path fill="none" stroke="black" d="M875.39,-543.96C898.73,-535.35 934.15,-522.28 960.8,-512.45"/>
<polygon fill="black" stroke="black" points="962.01,-515.73 970.18,-508.99 959.59,-509.16 962.01,-515.73"/>
</g>
<!-- loopback_output -->
<g id="node17" class="node">
<title>loopback_output</title>
<ellipse fill="none" stroke="black" cx="998.24" cy="-389" rx="50.45" ry="18"/>
<text text-anchor="middle" x="998.24" y="-386.2" font-family="sans" font-size="11.00">loopback_output</text>
</g>
<!-- ip_output&#45;&gt;loopback_output -->
<g id="edge37" class="edge">
<title>ip_output&#45;&gt;loopback_output</title>
<path fill="none" stroke="black" d="M864.93,-537.27C890.36,-508.77 944.26,-448.37 974.84,-414.1"/>
<polygon fill="black" stroke="black" points="977.67,-416.19 981.72,-406.4 972.45,-411.53 977.67,-416.19"/>
</g>
<!-- ip_hold -->
<g id="node25" class="node">
<title>ip_hold</title>
<ellipse fill="none" stroke="black" cx="998.24" cy="-553" rx="27" ry="18"/>
<text text-anchor="middle" x="998.24" y="-550.2" font-family="sans" font-size="11.00">ip_hold</text>
</g>
<!-- ip_output&#45;&gt;ip_hold -->
<g id="edge36" class="edge">
<title>ip_output&#45;&gt;ip_hold</title>
<path fill="none" stroke="black" d="M879.46,-553C902.75,-553 935.79,-553 960.95,-553"/>
<polygon fill="black" stroke="black" points="961.2,-556.5 971.2,-553 961.2,-549.5 961.2,-556.5"/>
</g>
<!-- ipip_output -->
<g id="node28" class="node">
<title>ipip_output</title>
<ellipse fill="none" stroke="black" cx="998.24" cy="-607" rx="34.38" ry="18"/>
<text text-anchor="middle" x="998.24" y="-604.2" font-family="sans" font-size="11.00">ipip_output</text>
</g>
<!-- ip_output&#45;&gt;ipip_output -->
<g id="edge38" class="edge">
<title>ip_output&#45;&gt;ipip_output</title>
<path fill="none" stroke="black" d="M878.42,-557.75C903.09,-565.16 939.28,-578.42 965.24,-589.5"/>
<polygon fill="black" stroke="black" points="964.07,-592.81 974.64,-593.62 966.88,-586.4 964.07,-592.81"/>
</g>
<!-- ip6_output&#45;&gt;eth_output -->
<g id="edge49" class="edge">
<title>ip6_output&#45;&gt;eth_output</title>
<path fill="none" stroke="black" d="M867.56,-322.26C880.33,-334.35 898.03,-351.98 911.77,-369 939.23,-403.04 966.14,-446.02 982.22,-473.02"/>
<polygon fill="black" stroke="black" points="979.34,-475.03 987.44,-481.86 985.37,-471.47 979.34,-475.03"/>
</g>
<!-- ip6_output&#45;&gt;loopback_output -->
<g id="edge51" class="edge">
<title>ip6_output&#45;&gt;loopback_output</title>
<path fill="none" stroke="black" d="M873.44,-319.63C896.85,-332.75 933.83,-353.47 961.28,-368.85"/>
<polygon fill="black" stroke="black" points="959.75,-372.01 970.19,-373.84 963.18,-365.9 959.75,-372.01"/>
</g>
<!-- ip6_hold -->
<g id="node34" class="node">
<title>ip6_hold</title>
<ellipse fill="none" stroke="black" cx="998.24" cy="-278" rx="27" ry="18"/>
<text text-anchor="middle" x="998.24" y="-275.2" font-family="sans" font-size="11.00">ip6_hold</text>
</g>
<!-- ip6_output&#45;&gt;ip6_hold -->
<g id="edge50" class="edge">
<title>ip6_output&#45;&gt;ip6_hold</title>
<path fill="none" stroke="black" d="M880.87,-301.06C904.43,-296.39 937.3,-289.88 962.1,-284.96"/>
<polygon fill="black" stroke="black" points="963.05,-288.34 972.18,-282.97 961.69,-281.48 963.05,-288.34"/>
</g>
<!-- control_output -->
<g id="node8" class="node">
<title>control_output</title>
<ellipse fill="none" stroke="black" cx="1129.22" cy="-228" rx="44.51" ry="18"/>
<text text-anchor="middle" x="1129.22" y="-225.2" font-family="sans" font-size="11.00">control_output</text>
</g>
<!-- eth_input -->
<g id="node9" class="node">
<title>eth_input</title>
<ellipse fill="none" stroke="black" cx="161.91" cy="-207" rx="29.12" ry="18"/>
<text text-anchor="middle" x="161.91" y="-204.2" font-family="sans" font-size="11.00">eth_input</text>
</g>
<!-- arp_input -->
<g id="node10" class="node">
<title>arp_input</title>
<ellipse fill="none" stroke="black" cx="565.15" cy="-61" rx="29.12" ry="18"/>
<text text-anchor="middle" x="565.15" y="-58.2" font-family="sans" font-size="11.00">arp_input</text>
</g>
<!-- eth_input&#45;&gt;arp_input -->
<g id="edge7" class="edge">
<title>eth_input&#45;&gt;arp_input</title>
<path fill="none" stroke="black" d="M187.41,-198.09C256.1,-173.09 450.72,-102.28 529.95,-73.44"/>
<polygon fill="black" stroke="black" points="531.27,-76.69 539.47,-69.98 528.87,-70.11 531.27,-76.69"/>
</g>
<!-- ip_input -->
<g id="node11" class="node">
<title>ip_input</title>
<ellipse fill="none" stroke="black" cx="565.15" cy="-543" rx="27" ry="18"/>
<text text-anchor="middle" x="565.15" y="-540.2" font-family="sans" font-size="11.00">ip_input</text>
</g>
<!-- eth_input&#45;&gt;ip_input -->
<g id="edge8" class="edge">
<title>eth_input&#45;&gt;ip_input</title>
<path fill="none" stroke="black" d="M179.9,-221.22C243.09,-274.14 464.81,-459.81 539.43,-522.3"/>
<polygon fill="black" stroke="black" points="537.47,-525.22 547.39,-528.96 541.97,-519.86 537.47,-525.22"/>
</g>
<!-- ip6_input -->
<g id="node12" class="node">
<title>ip6_input</title>
<ellipse fill="none" stroke="black" cx="302.66" cy="-207" rx="28.44" ry="18"/>
<text text-anchor="middle" x="302.66" y="-204.2" font-family="sans" font-size="11.00">ip6_input</text>
</g>
<!-- eth_input&#45;&gt;ip6_input -->
<g id="edge9" class="edge">
<title>eth_input&#45;&gt;ip6_input</title>
<path fill="none" stroke="black" d="M191.32,-207C212.36,-207 241.23,-207 264.16,-207"/>
<polygon fill="black" stroke="black" points="264.23,-210.5 274.23,-207 264.23,-203.5 264.23,-210.5"/>
</g>
<!-- arp_input_request -->
<g id="node19" class="node">
<title>arp_input_request</title>
<ellipse fill="none" stroke="black" cx="697.21" cy="-61" rx="54.63" ry="18"/>
<text text-anchor="middle" x="697.21" y="-58.2" font-family="sans" font-size="11.00">arp_input_request</text>
</g>
<!-- arp_input&#45;&gt;arp_input_request -->
<g id="edge17" class="edge">
<title>arp_input&#45;&gt;arp_input_request</title>
<path fill="none" stroke="black" d="M594.69,-61C605.84,-61 619.09,-61 632.29,-61"/>
<polygon fill="black" stroke="black" points="632.33,-64.5 642.33,-61 632.33,-57.5 632.33,-64.5"/>
</g>
<!-- arp_input_reply -->
<g id="node20" class="node">
<title>arp_input_reply</title>
<ellipse fill="none" stroke="black" cx="849.9" cy="-18" rx="47.43" ry="18"/>
<text text-anchor="middle" x="849.9" y="-15.2" font-family="sans" font-size="11.00">arp_input_reply</text>
</g>
<!-- arp_input&#45;&gt;arp_input_reply -->
<g id="edge18" class="edge">
<title>arp_input&#45;&gt;arp_input_reply</title>
<path fill="none" stroke="black" d="M589.72,-50.84C604.56,-44.9 624.26,-37.84 642.4,-34 692.44,-23.39 750.64,-19.64 792.47,-18.39"/>
<polygon fill="black" stroke="black" points="792.57,-21.89 802.47,-18.13 792.39,-14.89 792.57,-21.89"/>
</g>
<!-- ip_input&#45;&gt;ip_input_local -->
<g id="edge31" class="edge">
<title>ip_input&#45;&gt;ip_input_local</title>
<path fill="none" stroke="black" d="M537.92,-543C495.07,-543 409.32,-543 354.31,-543"/>
<polygon fill="black" stroke="black" points="354.07,-539.5 344.07,-543 354.07,-546.5 354.07,-539.5"/>
</g>
<!-- ip_forward -->
<g id="node24" class="node">
<title>ip_forward</title>
<ellipse fill="none" stroke="black" cx="697.21" cy="-551" rx="32.63" ry="18"/>
<text text-anchor="middle" x="697.21" y="-548.2" font-family="sans" font-size="11.00">ip_forward</text>
</g>
<!-- ip_input&#45;&gt;ip_forward -->
<g id="edge30" class="edge">
<title>ip_input&#45;&gt;ip_forward</title>
<path fill="none" stroke="black" d="M592.16,-544.6C610.04,-545.7 634.17,-547.18 654.7,-548.45"/>
<polygon fill="black" stroke="black" points="654.54,-551.94 664.74,-549.06 654.97,-544.96 654.54,-551.94"/>
</g>
<!-- ip6_input&#45;&gt;ip6_input_local -->
<g id="edge46" class="edge">
<title>ip6_input&#45;&gt;ip6_input_local</title>
<path fill="none" stroke="black" d="M322.87,-219.79C345.49,-234.85 383.39,-260.08 410.33,-278.01"/>
<polygon fill="black" stroke="black" points="408.39,-280.93 418.66,-283.56 412.27,-275.1 408.39,-280.93"/>
</g>
<!-- ip6_forward -->
<g id="node33" class="node">
<title>ip6_forward</title>
<ellipse fill="none" stroke="black" cx="442.86" cy="-207" rx="35.64" ry="18"/>
<text text-anchor="middle" x="442.86" y="-204.2" font-family="sans" font-size="11.00">ip6_forward</text>
</g>
<!-- ip6_input&#45;&gt;ip6_forward -->
<g id="edge45" class="edge">
<title>ip6_input&#45;&gt;ip6_forward</title>
<path fill="none" stroke="black" d="M330.96,-207C349.77,-207 375.2,-207 396.97,-207"/>
<polygon fill="black" stroke="black" points="396.99,-210.5 406.99,-207 396.99,-203.5 396.99,-210.5"/>
</g>
<!-- port_tx -->
<g id="node14" class="node">
<title>port_tx</title>
<ellipse fill="none" stroke="black" cx="1129.22" cy="-499" rx="27" ry="18"/>
<text text-anchor="middle" x="1129.22" y="-496.2" font-family="sans" font-size="11.00">port_tx</text>
</g>
<!-- eth_output&#45;&gt;port_tx -->
<g id="edge10" class="edge">
<title>eth_output&#45;&gt;port_tx</title>
<path fill="none" stroke="black" d="M1032.12,-499C1050.3,-499 1072.93,-499 1091.66,-499"/>
<polygon fill="black" stroke="black" points="1091.89,-502.5 1101.89,-499 1091.89,-495.5 1091.89,-502.5"/>
</g>
<!-- icmp_input -->
<g id="node22" class="node">
<title>icmp_input</title>
<ellipse fill="none" stroke="black" cx="442.86" cy="-635" rx="33.8" ry="18"/>
<text text-anchor="middle" x="442.86" y="-632.2" font-family="sans" font-size="11.00">icmp_input</text>
</g>
<!-- ip_input_local&#45;&gt;icmp_input -->
<g id="edge32" class="edge">
<title>ip_input_local&#45;&gt;icmp_input</title>
<path fill="none" stroke="black" d="M325.12,-558.31C344.06,-571.7 372.51,-591.53 397.81,-608 402.12,-610.8 406.7,-613.7 411.22,-616.52"/>
<polygon fill="black" stroke="black" points="409.41,-619.51 419.76,-621.77 413.08,-613.55 409.41,-619.51"/>
</g>
<!-- ipip_input -->
<g id="node26" class="node">
<title>ipip_input</title>
<ellipse fill="none" stroke="black" cx="442.86" cy="-581" rx="29.7" ry="18"/>
<text text-anchor="middle" x="442.86" y="-578.2" font-family="sans" font-size="11.00">ipip_input</text>
</g>
<!-- ip_input_local&#45;&gt;ipip_input -->
<g id="edge33" class="edge">
<title>ip_input_local&#45;&gt;ipip_input</title>
<path fill="none" stroke="black" d="M338.17,-552.49C358.65,-558.12 384.58,-565.25 405.39,-570.97"/>
<polygon fill="black" stroke="black" points="404.58,-574.38 415.15,-573.66 406.43,-567.63 404.58,-574.38"/>
</g>
<!-- l4_input_local -->
<g id="node27" class="node">
<title>l4_input_local</title>
<ellipse fill="none" stroke="black" cx="565.15" cy="-429" rx="41.49" ry="18"/>
<text text-anchor="middle" x="565.15" y="-426.2" font-family="sans" font-size="11.00">l4_input_local</text>
</g>
<!-- ip_input_local&#45;&gt;l4_input_local -->
<g id="edge34" class="edge">
<title>ip_input_local&#45;&gt;l4_input_local</title>
<path fill="none" stroke="black" d="M332.53,-530.36C379.67,-509.74 473.17,-468.82 525.81,-445.78"/>
<polygon fill="black" stroke="black" points="527.39,-448.91 535.15,-441.69 524.58,-442.49 527.39,-448.91"/>
</g>
<!-- ip6_input_local&#45;&gt;l4_input_local -->
<g id="edge48" class="edge">
<title>ip6_input_local&#45;&gt;l4_input_local</title>
<path fill="none" stroke="black" d="M459.58,-316C480.59,-338.7 517.94,-379.06 541.85,-404.89"/>
<polygon fill="black" stroke="black" points="539.44,-407.45 548.8,-412.41 544.58,-402.69 539.44,-407.45"/>
</g>
<!-- icmp6_input -->
<g id="node29" class="node">
<title>icmp6_input</title>
<ellipse fill="none" stroke="black" cx="565.15" cy="-196" rx="37.4" ry="18"/>
<text text-anchor="middle" x="565.15" y="-193.2" font-family="sans" font-size="11.00">icmp6_input</text>
</g>
<!-- ip6_input_local&#45;&gt;icmp6_input -->
<g id="edge47" class="edge">
<title>ip6_input_local&#45;&gt;icmp6_input</title>
<path fill="none" stroke="black" d="M462.92,-282.68C483.22,-265.3 515.47,-237.68 538.1,-218.3"/>
<polygon fill="black" stroke="black" points="540.65,-220.73 545.97,-211.57 536.09,-215.42 540.65,-220.73"/>
</g>
<!-- loopback_output&#45;&gt;control_output -->
<g id="edge15" class="edge">
<title>loopback_output&#45;&gt;control_output</title>
<path fill="none" stroke="black" d="M1013.04,-371.77C1035.93,-343.2 1081.82,-285.92 1108.24,-252.94"/>
<polygon fill="black" stroke="black" points="1110.99,-255.1 1114.51,-245.11 1105.53,-250.72 1110.99,-255.1"/>
</g>
<!-- port_rx -->
<g id="node18" class="node">
<title>port_rx</title>
<ellipse fill="none" stroke="blue" stroke-width="2" cx="40.16" cy="-207" rx="27" ry="18"/>
<text text-anchor="middle" x="40.16" y="-204.2" font-family="sans" font-size="11.00">port_rx</text>
</g>
<!-- port_rx&#45;&gt;eth_input -->
<g id="edge16" class="edge">
<title>port_rx&#45;&gt;eth_input</title>
<path fill="none" stroke="blue" stroke-width="2" d="M67.44,-207C83.56,-207 104.47,-207 122.43,-207"/>
<polygon fill="blue" stroke="blue" stroke-width="2" points="122.6,-210.5 132.6,-207 122.6,-203.5 122.6,-210.5"/>
</g>
<!-- arp_input_request&#45;&gt;control_output -->
<g id="edge20" class="edge">
<title>arp_input_request&#45;&gt;control_output</title>
<path fill="none" stroke="black" d="M744.3,-70.24C813.12,-85.15 945.66,-118.19 1048.71,-170 1067.77,-179.58 1087.16,-193.62 1102.01,-205.48"/>
<polygon fill="black" stroke="black" points="1099.81,-208.2 1109.77,-211.81 1104.23,-202.77 1099.81,-208.2"/>
</g>
<!-- arp_output_reply -->
<g id="node21" class="node">
<title>arp_output_reply</title>
<ellipse fill="none" stroke="black" cx="849.9" cy="-248" rx="51.62" ry="18"/>
<text text-anchor="middle" x="849.9" y="-245.2" font-family="sans" font-size="11.00">arp_output_reply</text>
</g>
<!-- arp_input_request&#45;&gt;arp_output_reply -->
<g id="edge21" class="edge">
<title>arp_input_request&#45;&gt;arp_output_reply</title>
<path fill="none" stroke="black" d="M732.8,-74.73C739.64,-78.4 746.42,-82.82 752.03,-88 793.39,-126.2 823.16,-186.05 838.07,-220.7"/>
<polygon fill="black" stroke="black" points="834.95,-222.31 842.04,-230.18 841.4,-219.6 834.95,-222.31"/>
</g>
<!-- arp_input_reply&#45;&gt;control_output -->
<g id="edge19" class="edge">
<title>arp_input_reply&#45;&gt;control_output</title>
<path fill="none" stroke="black" d="M896.91,-19.83C940.38,-23.78 1005.24,-35.71 1048.71,-71 1089.95,-104.48 1111.84,-164.88 1121.65,-200.21"/>
<polygon fill="black" stroke="black" points="1118.27,-201.11 1124.21,-209.89 1125.03,-199.33 1118.27,-201.11"/>
</g>
<!-- arp_output_reply&#45;&gt;eth_output -->
<g id="edge22" class="edge">
<title>arp_output_reply&#45;&gt;eth_output</title>
<path fill="none" stroke="black" d="M886.68,-260.64C895.98,-265.43 905.22,-271.78 911.77,-280 950.73,-328.9 923.53,-358.36 947.77,-416 956.3,-436.29 969.09,-457.59 979.53,-473.54"/>
<polygon fill="black" stroke="black" points="976.88,-475.88 985.35,-482.25 982.7,-471.99 976.88,-475.88"/>
</g>
<!-- icmp_input&#45;&gt;control_output -->
<g id="edge25" class="edge">
<title>icmp_input&#45;&gt;control_output</title>
<path fill="none" stroke="black" d="M471.87,-625.78C512.25,-612.16 584.4,-586.5 606.4,-570 627.17,-554.42 620.73,-538.3 642.4,-524 798.36,-421.09 907.65,-538.54 1048.71,-416 1097.2,-373.88 1116.88,-297.18 1124.24,-255.97"/>
<polygon fill="black" stroke="black" points="1127.7,-256.5 1125.89,-246.06 1120.79,-255.35 1127.7,-256.5"/>
</g>
<!-- icmp_input&#45;&gt;icmp_output -->
<g id="edge24" class="edge">
<title>icmp_input&#45;&gt;icmp_output</title>
<path fill="none" stroke="black" d="M476.73,-635C489.15,-635 503.53,-635 517,-635"/>
<polygon fill="black" stroke="black" points="517.08,-638.5 527.08,-635 517.08,-631.5 517.08,-638.5"/>
</g>
<!-- icmp_output&#45;&gt;ip_output -->
<g id="edge27" class="edge">
<title>icmp_output&#45;&gt;ip_output</title>
<path fill="none" stroke="black" d="M598.04,-625.75C651.2,-610.34 757.58,-579.48 813.18,-563.36"/>
<polygon fill="black" stroke="black" points="814.32,-566.67 822.95,-560.53 812.37,-559.95 814.32,-566.67"/>
</g>
<!-- ip_forward&#45;&gt;ip_output -->
<g id="edge28" class="edge">
<title>ip_forward&#45;&gt;ip_output</title>
<path fill="none" stroke="black" d="M729.8,-551.42C753.21,-551.73 785.24,-552.16 810.19,-552.49"/>
<polygon fill="black" stroke="black" points="810.36,-555.99 820.4,-552.62 810.45,-548.99 810.36,-555.99"/>
</g>
<!-- ip_hold&#45;&gt;control_output -->
<g id="edge29" class="edge">
<title>ip_hold&#45;&gt;control_output</title>
<path fill="none" stroke="black" d="M1022.67,-544.93C1031.99,-540.64 1042.06,-534.46 1048.71,-526 1113.36,-443.73 1125.64,-313.43 1127.83,-256.35"/>
<polygon fill="black" stroke="black" points="1131.33,-256.37 1128.14,-246.26 1124.33,-256.15 1131.33,-256.37"/>
</g>
<!-- ipip_input&#45;&gt;ip_input -->
<g id="edge56" class="edge">
<title>ipip_input&#45;&gt;ip_input</title>
<path fill="none" stroke="black" d="M469.66,-572.85C487.54,-567.2 511.49,-559.64 530.81,-553.53"/>
<polygon fill="black" stroke="black" points="531.95,-556.84 540.43,-550.49 529.84,-550.17 531.95,-556.84"/>
</g>
<!-- l4_redirect_loopback -->
<g id="node35" class="node">
<title>l4_redirect_loopback</title>
<ellipse fill="none" stroke="black" cx="849.9" cy="-396" rx="61.74" ry="18"/>
<text text-anchor="middle" x="849.9" y="-393.2" font-family="sans" font-size="11.00">l4_redirect_loopback</text>
</g>
<!-- l4_input_local&#45;&gt;l4_redirect_loopback -->
<g id="edge58" class="edge">
<title>l4_input_local&#45;&gt;l4_redirect_loopback</title>
<path fill="none" stroke="black" d="M605.17,-424.45C650.81,-419.12 727.12,-410.21 782.2,-403.78"/>
<polygon fill="black" stroke="black" points="782.71,-407.25 792.23,-402.61 781.89,-400.3 782.71,-407.25"/>
</g>
<!-- ipip_output&#45;&gt;ip_output -->
<g id="edge57" class="edge">
<title>ipip_output&#45;&gt;ip_output</title>
<path fill="none" stroke="black" d="M965.8,-601.06C940.53,-593.22 905.28,-580.18 880.51,-569.48"/>
<polygon fill="black" stroke="black" points="881.81,-566.22 871.25,-565.35 878.96,-572.62 881.81,-566.22"/>
</g>
<!-- icmp6_output -->
<g id="node30" class="node">
<title>icmp6_output</title>
<ellipse fill="none" stroke="black" cx="697.21" cy="-223" rx="41.58" ry="18"/>
<text text-anchor="middle" x="697.21" y="-220.2" font-family="sans" font-size="11.00">icmp6_output</text>
</g>
<!-- icmp6_input&#45;&gt;icmp6_output -->
<g id="edge39" class="edge">
<title>icmp6_input&#45;&gt;icmp6_output</title>
<path fill="none" stroke="black" d="M599.98,-203.02C615.07,-206.15 633.09,-209.9 649.43,-213.29"/>
<polygon fill="black" stroke="black" points="648.85,-216.74 659.35,-215.35 650.27,-209.89 648.85,-216.74"/>
</g>
<!-- ndp_ns_input -->
<g id="node31" class="node">
<title>ndp_ns_input</title>
<ellipse fill="none" stroke="black" cx="697.21" cy="-169" rx="40.32" ry="18"/>
<text text-anchor="middle" x="697.21" y="-166.2" font-family="sans" font-size="11.00">ndp_ns_input</text>
</g>
<!-- icmp6_input&#45;&gt;ndp_ns_input -->
<g id="edge40" class="edge">
<title>icmp6_input&#45;&gt;ndp_ns_input</title>
<path fill="none" stroke="black" d="M599.98,-188.98C615.32,-185.79 633.68,-181.98 650.24,-178.54"/>
<polygon fill="black" stroke="black" points="651.19,-181.92 660.27,-176.46 649.77,-175.07 651.19,-181.92"/>
</g>
<!-- ndp_na_input -->
<g id="node32" class="node">
<title>ndp_na_input</title>
<ellipse fill="none" stroke="black" cx="697.21" cy="-115" rx="40.91" ry="18"/>
<text text-anchor="middle" x="697.21" y="-112.2" font-family="sans" font-size="11.00">ndp_na_input</text>
</g>
<!-- icmp6_input&#45;&gt;ndp_na_input -->
<g id="edge41" class="edge">
<title>icmp6_input&#45;&gt;ndp_na_input</title>
<path fill="none" stroke="black" d="M585.66,-180.94C600.75,-169.6 622.37,-154.02 642.4,-142 647.81,-138.75 653.66,-135.53 659.44,-132.51"/>
<polygon fill="black" stroke="black" points="661.08,-135.61 668.4,-127.95 657.9,-129.37 661.08,-135.61"/>
</g>
<!-- icmp6_output&#45;&gt;ip6_output -->
<g id="edge42" class="edge">
<title>icmp6_output&#45;&gt;ip6_output</title>
<path fill="none" stroke="black" d="M722.46,-237.4C740.44,-247.99 765.63,-262.63 788.03,-275 797.2,-280.06 807.24,-285.42 816.47,-290.26"/>
<polygon fill="black" stroke="black" points="814.88,-293.38 825.36,-294.91 818.12,-287.18 814.88,-293.38"/>
</g>
<!-- ndp_ns_input&#45;&gt;ip6_output -->
<g id="edge53" class="edge">
<title>ndp_ns_input&#45;&gt;ip6_output</title>
<path fill="none" stroke="black" d="M729.08,-180.06C737.29,-184.11 745.65,-189.38 752.03,-196 778.8,-223.79 761.52,-246.96 788.03,-275 794.97,-282.34 803.97,-288.33 812.91,-293.05"/>
<polygon fill="black" stroke="black" points="811.59,-296.3 822.12,-297.52 814.65,-290 811.59,-296.3"/>
</g>
<!-- ndp_ns_input&#45;&gt;control_output -->
<g id="edge54" class="edge">
<title>ndp_ns_input&#45;&gt;control_output</title>
<path fill="none" stroke="black" d="M736,-174.18C813.27,-184.79 989.46,-208.96 1076.95,-220.97"/>
<polygon fill="black" stroke="black" points="1076.54,-224.44 1086.92,-222.33 1077.49,-217.51 1076.54,-224.44"/>
</g>
<!-- ndp_na_input&#45;&gt;control_output -->
<g id="edge52" class="edge">
<title>ndp_na_input&#45;&gt;control_output</title>
<path fill="none" stroke="black" d="M734.36,-122.51C798.28,-136.06 935.25,-166.36 1048.71,-200 1061.11,-203.68 1074.43,-208.15 1086.54,-212.44"/>
<polygon fill="black" stroke="black" points="1085.37,-215.73 1095.97,-215.81 1087.73,-209.14 1085.37,-215.73"/>
</g>
<!-- ip6_forward&#45;&gt;ip6_output -->
<g id="edge43" class="edge">
<title>ip6_forward&#45;&gt;ip6_output</title>
<path fill="none" stroke="black" d="M475.3,-214.76C548.41,-232.81 729.69,-277.57 809.78,-297.34"/>
<polygon fill="black" stroke="black" points="809.39,-300.85 819.94,-299.85 811.07,-294.06 809.39,-300.85"/>
</g>
<!-- ip6_hold&#45;&gt;control_output -->
<g id="edge44" class="edge">
<title>ip6_hold&#45;&gt;control_output</title>
<path fill="none" stroke="black" d="M1022,-269.18C1039.94,-262.22 1065.42,-252.34 1086.93,-244.01"/>
<polygon fill="black" stroke="black" points="1088.43,-247.18 1096.49,-240.3 1085.9,-240.65 1088.43,-247.18"/>
</g>
<!-- l4_redirect_loopback&#45;&gt;loopback_output -->
<g id="edge59" class="edge">
<title>l4_redirect_loopback&#45;&gt;loopback_output</title>
<path fill="none" stroke="black" d="M911.27,-393.11C920.09,-392.69 929.18,-392.26 937.98,-391.83"/>
<polygon fill="black" stroke="black" points="938.34,-395.32 948.16,-391.35 938,-388.33 938.34,-395.32"/>
</g>
</g>
</svg>
