<?xml version="1.0" encoding="UTF-8" standalone="no"?>
<!DOCTYPE svg PUBLIC "-//W3C//DTD SVG 1.1//EN"
 "http://www.w3.org/Graphics/SVG/1.1/DTD/svg11.dtd">
<!-- Generated by graphviz version 12.2.1 (20241206.2353)
 -->
<!-- Title: grout Pages: 1 -->
<svg width="2645pt" height="1089pt"
 viewBox="0.00 0.00 2644.71 1088.77" xmlns="http://www.w3.org/2000/svg" xmlns:xlink="http://www.w3.org/1999/xlink">
<g id="graph0" class="graph" transform="scale(1 1) rotate(0) translate(4 1084.77)">
<title>grout</title>
<polygon fill="white" stroke="none" points="-4,4 -4,-1084.77 2640.71,-1084.77 2640.71,4 -4,4"/>
<!-- control_input -->
<g id="node1" class="node">
<title>control_input</title>
<ellipse fill="none" stroke="blue" stroke-width="2" cx="41.62" cy="-671.77" rx="41.62" ry="18"/>
<text text-anchor="middle" x="41.62" y="-668.07" font-family="sans" font-size="11.00">control_input</text>
</g>
<!-- loopback_input -->
<g id="node2" class="node">
<title>loopback_input</title>
<ellipse fill="none" stroke="black" cx="166.76" cy="-671.77" rx="47.52" ry="18"/>
<text text-anchor="middle" x="166.76" y="-668.07" font-family="sans" font-size="11.00">loopback_input</text>
</g>
<!-- control_input&#45;&gt;loopback_input -->
<g id="edge1" class="edge">
<title>control_input&#45;&gt;loopback_input</title>
<path fill="none" stroke="blue" stroke-width="2" d="M83.63,-671.77C91.33,-671.77 99.52,-671.77 107.63,-671.77"/>
<polygon fill="blue" stroke="blue" stroke-width="2" points="105.96,-675.27 115.96,-671.77 105.96,-668.27 105.96,-675.27"/>
</g>
<!-- arp_output_request -->
<g id="node3" class="node">
<title>arp_output_request</title>
<ellipse fill="none" stroke="black" cx="454.53" cy="-1050.77" rx="61.42" ry="18"/>
<text text-anchor="middle" x="454.53" y="-1047.07" font-family="sans" font-size="11.00">arp_output_request</text>
</g>
<!-- control_input&#45;&gt;arp_output_request -->
<g id="edge2" class="edge">
<title>control_input&#45;&gt;arp_output_request</title>
<path fill="none" stroke="blue" stroke-width="2" d="M44.76,-689.89C52.07,-748.96 77.97,-934.5 119.25,-975.77 188.66,-1045.17 307.49,-1056.26 383.19,-1055.38"/>
<polygon fill="blue" stroke="blue" stroke-width="2" points="381.54,-1058.91 391.46,-1055.22 381.4,-1051.91 381.54,-1058.91"/>
</g>
<!-- icmp_local_send -->
<g id="node4" class="node">
<title>icmp_local_send</title>
<ellipse fill="none" stroke="black" cx="454.53" cy="-882.77" rx="51.31" ry="18"/>
<text text-anchor="middle" x="454.53" y="-879.07" font-family="sans" font-size="11.00">icmp_local_send</text>
</g>
<!-- control_input&#45;&gt;icmp_local_send -->
<g id="edge3" class="edge">
<title>control_input&#45;&gt;icmp_local_send</title>
<path fill="none" stroke="blue" stroke-width="2" d="M47.41,-689.64C56.32,-719.28 78.35,-778.36 119.25,-808.77 199.84,-868.69 319.66,-881.75 391.83,-883.71"/>
<polygon fill="blue" stroke="blue" stroke-width="2" points="389.89,-887.17 399.96,-883.87 390.03,-880.17 389.89,-887.17"/>
</g>
<!-- icmp6_local_send -->
<g id="node5" class="node">
<title>icmp6_local_send</title>
<ellipse fill="none" stroke="black" cx="1039.74" cy="-261.77" rx="55.1" ry="18"/>
<text text-anchor="middle" x="1039.74" y="-258.07" font-family="sans" font-size="11.00">icmp6_local_send</text>
</g>
<!-- control_input&#45;&gt;icmp6_local_send -->
<g id="edge4" class="edge">
<title>control_input&#45;&gt;icmp6_local_send</title>
<path fill="none" stroke="blue" stroke-width="2" d="M43.64,-653.58C47.86,-585.25 66.28,-345.2 119.25,-294.77 178.98,-237.9 220.22,-266.77 302.7,-266.77 302.7,-266.77 302.7,-266.77 736.13,-266.77 817.7,-266.77 911.62,-264.93 972.92,-263.48"/>
<polygon fill="blue" stroke="blue" stroke-width="2" points="971.41,-267.02 981.33,-263.28 971.24,-260.02 971.41,-267.02"/>
</g>
<!-- ndp_ns_output -->
<g id="node6" class="node">
<title>ndp_ns_output</title>
<ellipse fill="none" stroke="black" cx="1177.09" cy="-302.77" rx="46.26" ry="18"/>
<text text-anchor="middle" x="1177.09" y="-299.07" font-family="sans" font-size="11.00">ndp_ns_output</text>
</g>
<!-- control_input&#45;&gt;ndp_ns_output -->
<g id="edge5" class="edge">
<title>control_input&#45;&gt;ndp_ns_output</title>
<path fill="none" stroke="blue" stroke-width="2" d="M46.16,-653.77C61.71,-580.52 130.98,-308.77 302.7,-308.77 302.7,-308.77 302.7,-308.77 882.33,-308.77 964.7,-308.77 1060.05,-306.38 1119.22,-304.62"/>
<polygon fill="blue" stroke="blue" stroke-width="2" points="1117.64,-308.17 1127.53,-304.37 1117.43,-301.17 1117.64,-308.17"/>
</g>
<!-- ip6_output -->
<g id="node7" class="node">
<title>ip6_output</title>
<ellipse fill="none" stroke="black" cx="2183.63" cy="-542.77" rx="34.04" ry="18"/>
<text text-anchor="middle" x="2183.63" y="-539.07" font-family="sans" font-size="11.00">ip6_output</text>
</g>
<!-- control_input&#45;&gt;ip6_output -->
<g id="edge6" class="edge">
<title>control_input&#45;&gt;ip6_output</title>
<path fill="none" stroke="blue" stroke-width="2" d="M43.03,-653.42C45.12,-575.64 57.19,-274.1 119.25,-207.77 176.46,-146.62 218.95,-164.77 302.7,-164.77 302.7,-164.77 302.7,-164.77 1329.77,-164.77 1415.15,-164.77 2029.73,-175.29 2095.48,-229.77 2139.72,-266.43 2168.74,-442.95 2178.75,-513.52"/>
<polygon fill="blue" stroke="blue" stroke-width="2" points="2175.03,-512.24 2179.88,-521.66 2181.97,-511.27 2175.03,-512.24"/>
</g>
<!-- ndp_na_output -->
<g id="node8" class="node">
<title>ndp_na_output</title>
<ellipse fill="none" stroke="black" cx="1480.86" cy="-210.77" rx="46.68" ry="18"/>
<text text-anchor="middle" x="1480.86" y="-207.07" font-family="sans" font-size="11.00">ndp_na_output</text>
</g>
<!-- control_input&#45;&gt;ndp_na_output -->
<g id="edge7" class="edge">
<title>control_input&#45;&gt;ndp_na_output</title>
<path fill="none" stroke="blue" stroke-width="2" d="M43.39,-653.35C46.82,-580.57 63.09,-314.09 119.25,-255.77 177.2,-195.59 219.15,-214.77 302.7,-214.77 302.7,-214.77 302.7,-214.77 1178.09,-214.77 1263.25,-214.77 1361.91,-213.16 1422.6,-211.98"/>
<polygon fill="blue" stroke="blue" stroke-width="2" points="1420.89,-215.52 1430.82,-211.82 1420.76,-208.52 1420.89,-215.52"/>
</g>
<!-- ip_output -->
<g id="node9" class="node">
<title>ip_output</title>
<ellipse fill="none" stroke="black" cx="1177.09" cy="-726.77" rx="30.25" ry="18"/>
<text text-anchor="middle" x="1177.09" y="-723.07" font-family="sans" font-size="11.00">ip_output</text>
</g>
<!-- control_input&#45;&gt;ip_output -->
<g id="edge8" class="edge">
<title>control_input&#45;&gt;ip_output</title>
<path fill="none" stroke="blue" stroke-width="2" d="M46.12,-689.97C53.64,-724.59 74.43,-800.5 119.25,-845.77 182.21,-909.37 213.21,-928.77 302.7,-928.77 302.7,-928.77 302.7,-928.77 736.13,-928.77 906.79,-928.77 950.81,-883.31 1094.84,-791.77 1114.72,-779.13 1135.43,-762.5 1150.97,-749.23"/>
<polygon fill="blue" stroke="blue" stroke-width="2" points="1151.92,-753.03 1157.18,-743.84 1147.34,-747.75 1151.92,-753.03"/>
</g>
<!-- arp_output_reply -->
<g id="node10" class="node">
<title>arp_output_reply</title>
<ellipse fill="none" stroke="black" cx="303.7" cy="-981.77" rx="53.41" ry="18"/>
<text text-anchor="middle" x="303.7" y="-978.07" font-family="sans" font-size="11.00">arp_output_reply</text>
</g>
<!-- control_input&#45;&gt;arp_output_reply -->
<g id="edge9" class="edge">
<title>control_input&#45;&gt;arp_output_reply</title>
<path fill="none" stroke="blue" stroke-width="2" d="M41.85,-690.15C40.86,-739.11 45.36,-873.61 119.25,-942.77 151.16,-972.64 200.05,-981.91 239.34,-983.97"/>
<polygon fill="blue" stroke="blue" stroke-width="2" points="237.52,-987.4 247.64,-984.27 237.77,-980.41 237.52,-987.4"/>
</g>
<!-- eth_input -->
<g id="node12" class="node">
<title>eth_input</title>
<ellipse fill="none" stroke="black" cx="303.7" cy="-671.77" rx="30.25" ry="18"/>
<text text-anchor="middle" x="303.7" y="-668.07" font-family="sans" font-size="11.00">eth_input</text>
</g>
<!-- loopback_input&#45;&gt;eth_input -->
<g id="edge15" class="edge">
<title>loopback_input&#45;&gt;eth_input</title>
<path fill="none" stroke="black" d="M214.58,-671.77C229.95,-671.77 246.91,-671.77 261.81,-671.77"/>
<polygon fill="black" stroke="black" points="261.74,-675.27 271.74,-671.77 261.74,-668.27 261.74,-675.27"/>
</g>
<!-- eth_output -->
<g id="node16" class="node">
<title>eth_output</title>
<ellipse fill="none" stroke="black" cx="2344.99" cy="-1004.77" rx="34.89" ry="18"/>
<text text-anchor="middle" x="2344.99" y="-1001.07" font-family="sans" font-size="11.00">eth_output</text>
</g>
<!-- arp_output_request&#45;&gt;eth_output -->
<g id="edge27" class="edge">
<title>arp_output_request&#45;&gt;eth_output</title>
<path fill="none" stroke="black" d="M515.57,-1048.05C571.98,-1045.73 658.77,-1042.77 734.13,-1042.77 734.13,-1042.77 734.13,-1042.77 2035.91,-1042.77 2131.14,-1042.77 2241.7,-1024.66 2301.05,-1013.45"/>
<polygon fill="black" stroke="black" points="2301.57,-1016.91 2310.73,-1011.59 2300.25,-1010.04 2301.57,-1016.91"/>
</g>
<!-- icmp_output -->
<g id="node26" class="node">
<title>icmp_output</title>
<ellipse fill="none" stroke="black" cx="1039.74" cy="-764.77" rx="39.52" ry="18"/>
<text text-anchor="middle" x="1039.74" y="-761.07" font-family="sans" font-size="11.00">icmp_output</text>
</g>
<!-- icmp_local_send&#45;&gt;icmp_output -->
<g id="edge30" class="edge">
<title>icmp_local_send&#45;&gt;icmp_output</title>
<path fill="none" stroke="black" d="M504.48,-887.44C596.33,-894.09 798.78,-898.65 948.64,-828.77 968.04,-819.72 967.35,-809.39 984.64,-796.77 990.54,-792.46 997.05,-788.22 1003.46,-784.31"/>
<polygon fill="black" stroke="black" points="1005.2,-787.34 1012.02,-779.23 1001.63,-781.32 1005.2,-787.34"/>
</g>
<!-- icmp6_output -->
<g id="node39" class="node">
<title>icmp6_output</title>
<ellipse fill="none" stroke="black" cx="2034.91" cy="-256.77" rx="43.31" ry="18"/>
<text text-anchor="middle" x="2034.91" y="-253.07" font-family="sans" font-size="11.00">icmp6_output</text>
</g>
<!-- icmp6_local_send&#45;&gt;icmp6_output -->
<g id="edge56" class="edge">
<title>icmp6_local_send&#45;&gt;icmp6_output</title>
<path fill="none" stroke="black" d="M1094.96,-260.26C1152.67,-258.79 1246.65,-256.77 1327.77,-256.77 1327.77,-256.77 1327.77,-256.77 1746.46,-256.77 1827.93,-256.77 1922.39,-256.77 1980.14,-256.77"/>
<polygon fill="black" stroke="black" points="1980.02,-260.27 1990.02,-256.77 1980.02,-253.27 1980.02,-260.27"/>
</g>
<!-- ndp_ns_output&#45;&gt;icmp6_output -->
<g id="edge75" class="edge">
<title>ndp_ns_output&#45;&gt;icmp6_output</title>
<path fill="none" stroke="black" d="M1223.62,-302.49C1341.81,-301.42 1668.05,-296.19 1938.33,-270.77 1952.96,-269.4 1968.76,-267.32 1983.23,-265.19"/>
<polygon fill="black" stroke="black" points="1983.64,-268.67 1993,-263.71 1982.58,-261.75 1983.64,-268.67"/>
</g>
<!-- ip6_output&#45;&gt;eth_output -->
<g id="edge67" class="edge">
<title>ip6_output&#45;&gt;eth_output</title>
<path fill="none" stroke="black" d="M2201.23,-558.46C2213.03,-570.68 2228.08,-588.73 2235.78,-607.77 2294.74,-753.56 2188.55,-826.34 2271.78,-959.77 2279.74,-972.53 2292.79,-982.25 2305.61,-989.34"/>
<polygon fill="black" stroke="black" points="2303.9,-992.4 2314.4,-993.79 2307.06,-986.15 2303.9,-992.4"/>
</g>
<!-- loop_xvrf -->
<g id="node20" class="node">
<title>loop_xvrf</title>
<ellipse fill="none" stroke="black" cx="1328.77" cy="-471.77" rx="29.83" ry="18"/>
<text text-anchor="middle" x="1328.77" y="-468.07" font-family="sans" font-size="11.00">loop_xvrf</text>
</g>
<!-- ip6_output&#45;&gt;loop_xvrf -->
<g id="edge70" class="edge">
<title>ip6_output&#45;&gt;loop_xvrf</title>
<path fill="none" stroke="black" d="M2154.36,-552.49C2137.49,-557.8 2115.52,-563.87 2095.48,-566.77 1861.11,-600.73 1794.03,-590.13 1563.54,-535.77 1493.5,-519.25 1412.72,-496.25 1366.8,-482.79"/>
<polygon fill="black" stroke="black" points="1367.94,-479.47 1357.35,-480.01 1365.96,-486.19 1367.94,-479.47"/>
</g>
<!-- sr6_output -->
<g id="node37" class="node">
<title>sr6_output</title>
<ellipse fill="none" stroke="black" cx="2344.99" cy="-588.77" rx="34.46" ry="18"/>
<text text-anchor="middle" x="2344.99" y="-585.07" font-family="sans" font-size="11.00">sr6_output</text>
</g>
<!-- ip6_output&#45;&gt;sr6_output -->
<g id="edge71" class="edge">
<title>ip6_output&#45;&gt;sr6_output</title>
<path fill="none" stroke="black" d="M2217.26,-546.62C2243.84,-552.77 2281.28,-563.53 2308.58,-572.83"/>
<polygon fill="black" stroke="black" points="2307.2,-576.05 2317.8,-576.07 2309.52,-569.45 2307.2,-576.05"/>
</g>
<!-- ip6_hold -->
<g id="node45" class="node">
<title>ip6_hold</title>
<ellipse fill="none" stroke="black" cx="2344.99" cy="-534.77" rx="27" ry="18"/>
<text text-anchor="middle" x="2344.99" y="-531.07" font-family="sans" font-size="11.00">ip6_hold</text>
</g>
<!-- ip6_output&#45;&gt;ip6_hold -->
<g id="edge68" class="edge">
<title>ip6_output&#45;&gt;ip6_hold</title>
<path fill="none" stroke="black" d="M2217.65,-541.11C2243.46,-539.82 2279.35,-538.02 2306.29,-536.66"/>
<polygon fill="black" stroke="black" points="2306.27,-540.17 2316.09,-536.17 2305.92,-533.18 2306.27,-540.17"/>
</g>
<!-- ip6_error_dest_unreach -->
<g id="node47" class="node">
<title>ip6_error_dest_unreach</title>
<ellipse fill="none" stroke="black" cx="2344.99" cy="-424.77" rx="73.21" ry="18"/>
<text text-anchor="middle" x="2344.99" y="-421.07" font-family="sans" font-size="11.00">ip6_error_dest_unreach</text>
</g>
<!-- ip6_output&#45;&gt;ip6_error_dest_unreach -->
<g id="edge69" class="edge">
<title>ip6_output&#45;&gt;ip6_error_dest_unreach</title>
<path fill="none" stroke="black" d="M2204.49,-528.06C2231.3,-508.21 2279.39,-472.6 2311.5,-448.83"/>
<polygon fill="black" stroke="black" points="2313.34,-451.82 2319.29,-443.06 2309.17,-446.2 2313.34,-451.82"/>
</g>
<!-- ndp_na_output&#45;&gt;icmp6_output -->
<g id="edge73" class="edge">
<title>ndp_na_output&#45;&gt;icmp6_output</title>
<path fill="none" stroke="black" d="M1527.64,-212.83C1609.98,-216.8 1788.46,-226.56 1938.33,-242.77 1952.81,-244.34 1968.45,-246.45 1982.81,-248.56"/>
<polygon fill="black" stroke="black" points="1982.1,-251.99 1992.51,-250.01 1983.14,-245.07 1982.1,-251.99"/>
</g>
<!-- ip_output&#45;&gt;eth_output -->
<g id="edge44" class="edge">
<title>ip_output&#45;&gt;eth_output</title>
<path fill="none" stroke="black" d="M1198.3,-740.06C1214.25,-749.97 1237.4,-763.06 1259.35,-770.77 1353.32,-803.79 1380.25,-810.77 1479.86,-810.77 1479.86,-810.77 1479.86,-810.77 1746.46,-810.77 1861.78,-810.77 2194.28,-943.13 2306.49,-989.2"/>
<polygon fill="black" stroke="black" points="2304.97,-992.36 2315.55,-992.93 2307.64,-985.88 2304.97,-992.36"/>
</g>
<!-- ip_output&#45;&gt;loop_xvrf -->
<g id="edge47" class="edge">
<title>ip_output&#45;&gt;loop_xvrf</title>
<path fill="none" stroke="black" d="M1188.15,-709.64C1213.71,-666.09 1281.34,-550.87 1312.12,-498.43"/>
<polygon fill="black" stroke="black" points="1314.95,-500.52 1316.99,-490.13 1308.91,-496.98 1314.95,-500.52"/>
</g>
<!-- ip_hold -->
<g id="node29" class="node">
<title>ip_hold</title>
<ellipse fill="none" stroke="black" cx="1480.86" cy="-753.77" rx="27" ry="18"/>
<text text-anchor="middle" x="1480.86" y="-750.07" font-family="sans" font-size="11.00">ip_hold</text>
</g>
<!-- ip_output&#45;&gt;ip_hold -->
<g id="edge45" class="edge">
<title>ip_output&#45;&gt;ip_hold</title>
<path fill="none" stroke="black" d="M1202.47,-737.15C1218.34,-743.34 1239.68,-750.59 1259.35,-753.77 1323.05,-764.08 1398.45,-760.81 1442.54,-757.38"/>
<polygon fill="black" stroke="black" points="1442.66,-760.88 1452.34,-756.57 1442.08,-753.9 1442.66,-760.88"/>
</g>
<!-- ip_error_dest_unreach -->
<g id="node32" class="node">
<title>ip_error_dest_unreach</title>
<ellipse fill="none" stroke="black" cx="1328.77" cy="-615.77" rx="69.42" ry="18"/>
<text text-anchor="middle" x="1328.77" y="-612.07" font-family="sans" font-size="11.00">ip_error_dest_unreach</text>
</g>
<!-- ip_output&#45;&gt;ip_error_dest_unreach -->
<g id="edge46" class="edge">
<title>ip_output&#45;&gt;ip_error_dest_unreach</title>
<path fill="none" stroke="black" d="M1197.05,-712.71C1221.75,-694.39 1265.32,-662.08 1295.32,-639.83"/>
<polygon fill="black" stroke="black" points="1297.39,-642.66 1303.33,-633.89 1293.22,-637.04 1297.39,-642.66"/>
</g>
<!-- ipip_output -->
<g id="node36" class="node">
<title>ipip_output</title>
<ellipse fill="none" stroke="black" cx="1328.77" cy="-726.77" rx="35.73" ry="18"/>
<text text-anchor="middle" x="1328.77" y="-723.07" font-family="sans" font-size="11.00">ipip_output</text>
</g>
<!-- ip_output&#45;&gt;ipip_output -->
<g id="edge48" class="edge">
<title>ip_output&#45;&gt;ipip_output</title>
<path fill="none" stroke="black" d="M1206.25,-721.36C1227.88,-719.91 1258.19,-719.64 1283.13,-720.53"/>
<polygon fill="black" stroke="black" points="1282.85,-724.03 1293,-720.98 1283.17,-717.03 1282.85,-724.03"/>
</g>
<!-- ip_output&#45;&gt;sr6_output -->
<g id="edge49" class="edge">
<title>ip_output&#45;&gt;sr6_output</title>
<path fill="none" stroke="black" d="M1202.93,-716.83C1218.81,-710.9 1239.99,-703.76 1259.35,-699.77 1355.69,-679.9 1381.49,-680.77 1479.86,-680.77 1479.86,-680.77 1479.86,-680.77 2035.91,-680.77 2125.14,-680.77 2151.78,-691.88 2235.78,-661.77 2266.68,-650.7 2297.25,-628.79 2317.97,-611.85"/>
<polygon fill="black" stroke="black" points="2320.19,-614.56 2325.61,-605.45 2315.69,-609.19 2320.19,-614.56"/>
</g>
<!-- arp_output_reply&#45;&gt;eth_output -->
<g id="edge26" class="edge">
<title>arp_output_reply&#45;&gt;eth_output</title>
<path fill="none" stroke="black" d="M354.24,-987.93C413.37,-994.75 515.28,-1004.77 603.09,-1004.77 603.09,-1004.77 603.09,-1004.77 2035.91,-1004.77 2129.17,-1004.77 2238.32,-1004.77 2298.45,-1004.77"/>
<polygon fill="black" stroke="black" points="2298.28,-1008.27 2308.28,-1004.77 2298.28,-1001.27 2298.28,-1008.27"/>
</g>
<!-- control_output -->
<g id="node11" class="node">
<title>control_output</title>
<ellipse fill="none" stroke="black" cx="2500.45" cy="-584.77" rx="46.26" ry="18"/>
<text text-anchor="middle" x="2500.45" y="-581.07" font-family="sans" font-size="11.00">control_output</text>
</g>
<!-- arp_input -->
<g id="node13" class="node">
<title>arp_input</title>
<ellipse fill="none" stroke="black" cx="2183.63" cy="-878.77" rx="30.25" ry="18"/>
<text text-anchor="middle" x="2183.63" y="-875.07" font-family="sans" font-size="11.00">arp_input</text>
</g>
<!-- eth_input&#45;&gt;arp_input -->
<g id="edge10" class="edge">
<title>eth_input&#45;&gt;arp_input</title>
<path fill="none" stroke="black" d="M328.76,-682.29C429.81,-725.45 830.56,-886.77 1176.09,-886.77 1176.09,-886.77 1176.09,-886.77 1896.45,-886.77 1983.74,-886.77 2085.94,-883.01 2141.52,-880.64"/>
<polygon fill="black" stroke="black" points="2141.62,-884.14 2151.46,-880.21 2141.32,-877.15 2141.62,-884.14"/>
</g>
<!-- ip_input -->
<g id="node14" class="node">
<title>ip_input</title>
<ellipse fill="none" stroke="black" cx="454.53" cy="-561.77" rx="27" ry="18"/>
<text text-anchor="middle" x="454.53" y="-558.07" font-family="sans" font-size="11.00">ip_input</text>
</g>
<!-- eth_input&#45;&gt;ip_input -->
<g id="edge11" class="edge">
<title>eth_input&#45;&gt;ip_input</title>
<path fill="none" stroke="black" d="M323.55,-657.84C349.66,-638.54 396.99,-603.56 426.76,-581.56"/>
<polygon fill="black" stroke="black" points="428.58,-584.56 434.54,-575.8 424.42,-578.93 428.58,-584.56"/>
</g>
<!-- ip6_input -->
<g id="node15" class="node">
<title>ip6_input</title>
<ellipse fill="none" stroke="black" cx="1480.86" cy="-409.77" rx="29.41" ry="18"/>
<text text-anchor="middle" x="1480.86" y="-406.07" font-family="sans" font-size="11.00">ip6_input</text>
</g>
<!-- eth_input&#45;&gt;ip6_input -->
<g id="edge12" class="edge">
<title>eth_input&#45;&gt;ip6_input</title>
<path fill="none" stroke="black" d="M310.95,-653.94C335.94,-586.23 435.52,-348.77 603.09,-348.77 603.09,-348.77 603.09,-348.77 882.33,-348.77 1094.08,-348.77 1345.87,-387.15 1440.94,-403.02"/>
<polygon fill="black" stroke="black" points="1440.33,-406.47 1450.77,-404.68 1441.49,-399.57 1440.33,-406.47"/>
</g>
<!-- arp_input_request -->
<g id="node23" class="node">
<title>arp_input_request</title>
<ellipse fill="none" stroke="black" cx="2344.99" cy="-932.77" rx="56.78" ry="18"/>
<text text-anchor="middle" x="2344.99" y="-929.07" font-family="sans" font-size="11.00">arp_input_request</text>
</g>
<!-- arp_input&#45;&gt;arp_input_request -->
<g id="edge22" class="edge">
<title>arp_input&#45;&gt;arp_input_request</title>
<path fill="none" stroke="black" d="M2210.59,-887.57C2233.25,-895.24 2266.75,-906.6 2294.51,-916.01"/>
<polygon fill="black" stroke="black" points="2293.2,-919.26 2303.79,-919.15 2295.45,-912.63 2293.2,-919.26"/>
</g>
<!-- arp_input_reply -->
<g id="node24" class="node">
<title>arp_input_reply</title>
<ellipse fill="none" stroke="black" cx="2344.99" cy="-878.77" rx="48.78" ry="18"/>
<text text-anchor="middle" x="2344.99" y="-875.07" font-family="sans" font-size="11.00">arp_input_reply</text>
</g>
<!-- arp_input&#45;&gt;arp_input_reply -->
<g id="edge23" class="edge">
<title>arp_input&#45;&gt;arp_input_reply</title>
<path fill="none" stroke="black" d="M2214.23,-878.77C2233.88,-878.77 2260.36,-878.77 2284.27,-878.77"/>
<polygon fill="black" stroke="black" points="2284.25,-882.27 2294.25,-878.77 2284.25,-875.27 2284.25,-882.27"/>
</g>
<!-- ip_input&#45;&gt;ip_output -->
<g id="edge37" class="edge">
<title>ip_input&#45;&gt;ip_output</title>
<path fill="none" stroke="black" d="M464.53,-578.9C479.4,-605.72 511.53,-657.76 551.94,-688.77 651.75,-765.36 690.56,-771.54 814.02,-795.77 872.73,-807.29 896.35,-824.86 948.64,-795.77 975.15,-781.02 958.56,-753.27 984.64,-737.77 1031.23,-710.07 1096,-713.16 1136.98,-719.07"/>
<polygon fill="black" stroke="black" points="1136.2,-722.49 1146.63,-720.6 1137.3,-715.58 1136.2,-722.49"/>
</g>
<!-- ip_forward -->
<g id="node27" class="node">
<title>ip_forward</title>
<ellipse fill="none" stroke="black" cx="735.13" cy="-676.77" rx="33.62" ry="18"/>
<text text-anchor="middle" x="735.13" y="-673.07" font-family="sans" font-size="11.00">ip_forward</text>
</g>
<!-- ip_input&#45;&gt;ip_forward -->
<g id="edge35" class="edge">
<title>ip_input&#45;&gt;ip_forward</title>
<path fill="none" stroke="black" d="M465.13,-578.41C480.14,-602.62 511.66,-646.72 551.94,-665.77 595.95,-686.58 652.74,-686.38 691.13,-682.89"/>
<polygon fill="black" stroke="black" points="691.33,-686.38 700.91,-681.87 690.6,-679.42 691.33,-686.38"/>
</g>
<!-- dnat44_dynamic -->
<g id="node30" class="node">
<title>dnat44_dynamic</title>
<ellipse fill="none" stroke="black" cx="604.09" cy="-638.77" rx="52.15" ry="18"/>
<text text-anchor="middle" x="604.09" y="-635.07" font-family="sans" font-size="11.00">dnat44_dynamic</text>
</g>
<!-- ip_input&#45;&gt;dnat44_dynamic -->
<g id="edge36" class="edge">
<title>ip_input&#45;&gt;dnat44_dynamic</title>
<path fill="none" stroke="black" d="M476.36,-572.64C499.14,-584.53 536.16,-603.85 564.33,-618.54"/>
<polygon fill="black" stroke="black" points="562.43,-621.5 572.92,-623.02 565.67,-615.29 562.43,-621.5"/>
</g>
<!-- ip_input_local -->
<g id="node31" class="node">
<title>ip_input_local</title>
<ellipse fill="none" stroke="black" cx="735.13" cy="-546.77" rx="42.89" ry="18"/>
<text text-anchor="middle" x="735.13" y="-543.07" font-family="sans" font-size="11.00">ip_input_local</text>
</g>
<!-- ip_input&#45;&gt;ip_input_local -->
<g id="edge38" class="edge">
<title>ip_input&#45;&gt;ip_input_local</title>
<path fill="none" stroke="black" d="M481.74,-560.36C527.2,-557.91 621.51,-552.83 681.1,-549.63"/>
<polygon fill="black" stroke="black" points="681.22,-553.12 691.02,-549.09 680.84,-546.13 681.22,-553.12"/>
</g>
<!-- ip_input&#45;&gt;ip_error_dest_unreach -->
<g id="edge39" class="edge">
<title>ip_input&#45;&gt;ip_error_dest_unreach</title>
<path fill="none" stroke="black" d="M474.95,-549.63C519.17,-523.2 631.47,-462.77 734.13,-462.77 734.13,-462.77 734.13,-462.77 1040.74,-462.77 1148.12,-462.77 1254.35,-547.19 1301.89,-590.62"/>
<polygon fill="black" stroke="black" points="1299.25,-592.95 1308.96,-597.19 1304.01,-587.82 1299.25,-592.95"/>
</g>
<!-- dnat44_static -->
<g id="node33" class="node">
<title>dnat44_static</title>
<ellipse fill="none" stroke="black" cx="604.09" cy="-584.77" rx="43.31" ry="18"/>
<text text-anchor="middle" x="604.09" y="-581.07" font-family="sans" font-size="11.00">dnat44_static</text>
</g>
<!-- ip_input&#45;&gt;dnat44_static -->
<g id="edge40" class="edge">
<title>ip_input&#45;&gt;dnat44_static</title>
<path fill="none" stroke="black" d="M481.23,-565.78C500.6,-568.8 527.81,-573.04 551.6,-576.74"/>
<polygon fill="black" stroke="black" points="551.04,-580.2 561.46,-578.28 552.12,-573.28 551.04,-580.2"/>
</g>
<!-- ip6_input&#45;&gt;ip6_output -->
<g id="edge61" class="edge">
<title>ip6_input&#45;&gt;ip6_output</title>
<path fill="none" stroke="black" d="M1505.76,-419.75C1521.83,-426.09 1543.64,-433.97 1563.54,-438.77 1642.39,-457.78 1663.34,-462.77 1744.46,-462.77 1744.46,-462.77 1744.46,-462.77 1896.45,-462.77 1989.84,-462.77 2094.25,-502.77 2147.4,-526.21"/>
<polygon fill="black" stroke="black" points="2145.7,-529.28 2156.26,-530.17 2148.56,-522.89 2145.7,-529.28"/>
</g>
<!-- ip6_forward -->
<g id="node43" class="node">
<title>ip6_forward</title>
<ellipse fill="none" stroke="black" cx="1600.95" cy="-508.77" rx="37.41" ry="18"/>
<text text-anchor="middle" x="1600.95" y="-505.07" font-family="sans" font-size="11.00">ip6_forward</text>
</g>
<!-- ip6_input&#45;&gt;ip6_forward -->
<g id="edge60" class="edge">
<title>ip6_input&#45;&gt;ip6_forward</title>
<path fill="none" stroke="black" d="M1499.03,-424.17C1518.26,-440.29 1549.69,-466.64 1572.37,-485.65"/>
<polygon fill="black" stroke="black" points="1570.12,-488.33 1580.03,-492.08 1574.62,-482.97 1570.12,-488.33"/>
</g>
<!-- ip6_input_local -->
<g id="node46" class="node">
<title>ip6_input_local</title>
<ellipse fill="none" stroke="black" cx="1745.46" cy="-378.77" rx="46.68" ry="18"/>
<text text-anchor="middle" x="1745.46" y="-375.07" font-family="sans" font-size="11.00">ip6_input_local</text>
</g>
<!-- ip6_input&#45;&gt;ip6_input_local -->
<g id="edge62" class="edge">
<title>ip6_input&#45;&gt;ip6_input_local</title>
<path fill="none" stroke="black" d="M1510.21,-406.42C1552.93,-401.38 1634.6,-391.74 1689.31,-385.28"/>
<polygon fill="black" stroke="black" points="1689.53,-388.78 1699.05,-384.13 1688.71,-381.83 1689.53,-388.78"/>
</g>
<!-- ip6_input&#45;&gt;ip6_error_dest_unreach -->
<g id="edge63" class="edge">
<title>ip6_input&#45;&gt;ip6_error_dest_unreach</title>
<path fill="none" stroke="black" d="M1510.2,-412.45C1558.31,-416.77 1659.07,-424.77 1744.46,-424.77 1744.46,-424.77 1744.46,-424.77 2035.91,-424.77 2111.81,-424.77 2198.24,-424.77 2260.2,-424.77"/>
<polygon fill="black" stroke="black" points="2259.96,-428.27 2269.96,-424.77 2259.96,-421.27 2259.96,-428.27"/>
</g>
<!-- sr6_local -->
<g id="node48" class="node">
<title>sr6_local</title>
<ellipse fill="none" stroke="black" cx="1600.95" cy="-340.77" rx="28.57" ry="18"/>
<text text-anchor="middle" x="1600.95" y="-337.07" font-family="sans" font-size="11.00">sr6_local</text>
</g>
<!-- ip6_input&#45;&gt;sr6_local -->
<g id="edge64" class="edge">
<title>ip6_input&#45;&gt;sr6_local</title>
<path fill="none" stroke="black" d="M1498.78,-394.98C1516.18,-382.91 1543.75,-366.36 1565.73,-354.58"/>
<polygon fill="black" stroke="black" points="1567.1,-357.81 1574.34,-350.07 1563.86,-351.61 1567.1,-357.81"/>
</g>
<!-- port_output -->
<g id="node17" class="node">
<title>port_output</title>
<ellipse fill="none" stroke="black" cx="2500.45" cy="-1042.77" rx="37.41" ry="18"/>
<text text-anchor="middle" x="2500.45" y="-1039.07" font-family="sans" font-size="11.00">port_output</text>
</g>
<!-- eth_output&#45;&gt;port_output -->
<g id="edge13" class="edge">
<title>eth_output&#45;&gt;port_output</title>
<path fill="none" stroke="black" d="M2377.04,-1012.46C2399.6,-1018.05 2430.44,-1025.68 2455.52,-1031.89"/>
<polygon fill="black" stroke="black" points="2454.57,-1035.26 2465.12,-1034.27 2456.25,-1028.47 2454.57,-1035.26"/>
</g>
<!-- port_tx -->
<g id="node21" class="node">
<title>port_tx</title>
<ellipse fill="none" stroke="black" cx="2609.71" cy="-1042.77" rx="27" ry="18"/>
<text text-anchor="middle" x="2609.71" y="-1039.07" font-family="sans" font-size="11.00">port_tx</text>
</g>
<!-- port_output&#45;&gt;port_tx -->
<g id="edge19" class="edge">
<title>port_output&#45;&gt;port_tx</title>
<path fill="none" stroke="black" d="M2538.36,-1042.77C2548.84,-1042.77 2560.27,-1042.77 2570.8,-1042.77"/>
<polygon fill="black" stroke="black" points="2570.71,-1046.27 2580.71,-1042.77 2570.71,-1039.27 2570.71,-1046.27"/>
</g>
<!-- l1_xconnect -->
<g id="node18" class="node">
<title>l1_xconnect</title>
<ellipse fill="none" stroke="black" cx="604.09" cy="-844.77" rx="38.25" ry="18"/>
<text text-anchor="middle" x="604.09" y="-841.07" font-family="sans" font-size="11.00">l1_xconnect</text>
</g>
<!-- l1_xconnect&#45;&gt;port_output -->
<g id="edge14" class="edge">
<title>l1_xconnect&#45;&gt;port_output</title>
<path fill="none" stroke="black" d="M624.48,-860.22C667.7,-893.05 776.32,-966.77 880.33,-966.77 880.33,-966.77 880.33,-966.77 1601.95,-966.77 1800.5,-966.77 1835.35,-1080.77 2033.91,-1080.77 2033.91,-1080.77 2033.91,-1080.77 2184.63,-1080.77 2281.35,-1080.77 2393.58,-1062.88 2454.49,-1051.65"/>
<polygon fill="black" stroke="black" points="2454.93,-1055.12 2464.12,-1049.84 2453.64,-1048.24 2454.93,-1055.12"/>
</g>
<!-- loopback_output -->
<g id="node19" class="node">
<title>loopback_output</title>
<ellipse fill="none" stroke="black" cx="2183.63" cy="-634.77" rx="52.15" ry="18"/>
<text text-anchor="middle" x="2183.63" y="-631.07" font-family="sans" font-size="11.00">loopback_output</text>
</g>
<!-- loopback_output&#45;&gt;control_output -->
<g id="edge16" class="edge">
<title>loopback_output&#45;&gt;control_output</title>
<path fill="none" stroke="black" d="M2235.83,-634.75C2283.58,-633.76 2356.5,-629.75 2418.2,-615.77 2431.89,-612.67 2446.35,-607.73 2459.22,-602.7"/>
<polygon fill="black" stroke="black" points="2460.25,-606.06 2468.2,-599.06 2457.62,-599.57 2460.25,-606.06"/>
</g>
<!-- loop_xvrf&#45;&gt;ip_input -->
<g id="edge17" class="edge">
<title>loop_xvrf&#45;&gt;ip_input</title>
<path fill="none" stroke="black" d="M1301.1,-464.43C1250.67,-451.21 1137.69,-424.77 1040.74,-424.77 734.13,-424.77 734.13,-424.77 734.13,-424.77 650.83,-424.77 624.96,-428.68 551.94,-468.77 520.87,-485.83 492.61,-515.55 474.84,-536.8"/>
<polygon fill="black" stroke="black" points="472.22,-534.48 468.62,-544.44 477.65,-538.9 472.22,-534.48"/>
</g>
<!-- loop_xvrf&#45;&gt;ip6_input -->
<g id="edge18" class="edge">
<title>loop_xvrf&#45;&gt;ip6_input</title>
<path fill="none" stroke="black" d="M1353.88,-461.81C1378.61,-451.59 1417.3,-435.61 1445.28,-424.05"/>
<polygon fill="black" stroke="black" points="1446.5,-427.34 1454.4,-420.28 1443.83,-420.87 1446.5,-427.34"/>
</g>
<!-- port_rx -->
<g id="node22" class="node">
<title>port_rx</title>
<ellipse fill="none" stroke="blue" stroke-width="2" cx="166.76" cy="-781.77" rx="27" ry="18"/>
<text text-anchor="middle" x="166.76" y="-778.07" font-family="sans" font-size="11.00">port_rx</text>
</g>
<!-- port_rx&#45;&gt;eth_input -->
<g id="edge20" class="edge">
<title>port_rx&#45;&gt;eth_input</title>
<path fill="none" stroke="blue" stroke-width="2" d="M184.85,-767.84C207.92,-749.04 249.23,-715.36 276.3,-693.29"/>
<polygon fill="blue" stroke="blue" stroke-width="2" points="277.01,-697.23 282.54,-688.2 272.58,-691.81 277.01,-697.23"/>
</g>
<!-- port_rx&#45;&gt;l1_xconnect -->
<g id="edge21" class="edge">
<title>port_rx&#45;&gt;l1_xconnect</title>
<path fill="none" stroke="blue" stroke-width="2" d="M193.69,-785.52C264.87,-795.82 464.09,-824.65 555.8,-837.93"/>
<polygon fill="blue" stroke="blue" stroke-width="2" points="553.56,-841.14 563.96,-839.11 554.57,-834.21 553.56,-841.14"/>
</g>
<!-- arp_input_request&#45;&gt;control_output -->
<g id="edge25" class="edge">
<title>arp_input_request&#45;&gt;control_output</title>
<path fill="none" stroke="black" d="M2392.82,-922.73C2402.29,-918.8 2411.41,-913.35 2418.2,-905.77 2457.26,-862.15 2485.61,-684.69 2495.56,-614.01"/>
<polygon fill="black" stroke="black" points="2498.99,-614.75 2496.89,-604.37 2492.05,-613.79 2498.99,-614.75"/>
</g>
<!-- arp_input_reply&#45;&gt;control_output -->
<g id="edge24" class="edge">
<title>arp_input_reply&#45;&gt;control_output</title>
<path fill="none" stroke="black" d="M2385.47,-868.27C2397.36,-863.42 2409.54,-856.5 2418.2,-846.77 2478.41,-779.11 2494,-667.38 2498.04,-614.4"/>
<polygon fill="black" stroke="black" points="2501.52,-614.86 2498.69,-604.65 2494.53,-614.39 2501.52,-614.86"/>
</g>
<!-- icmp_input -->
<g id="node25" class="node">
<title>icmp_input</title>
<ellipse fill="none" stroke="black" cx="881.33" cy="-714.77" rx="34.89" ry="18"/>
<text text-anchor="middle" x="881.33" y="-711.07" font-family="sans" font-size="11.00">icmp_input</text>
</g>
<!-- icmp_input&#45;&gt;control_output -->
<g id="edge29" class="edge">
<title>icmp_input&#45;&gt;control_output</title>
<path fill="none" stroke="black" d="M912.61,-723.08C924.64,-727.37 938.09,-733.47 948.64,-741.77 970.16,-758.7 962.32,-775.9 984.64,-791.77 1057,-843.22 1087.31,-848.77 1176.09,-848.77 1176.09,-848.77 1176.09,-848.77 1746.46,-848.77 2052.56,-848.77 2165.6,-869.67 2418.2,-696.77 2449.07,-675.64 2472.45,-638.76 2486.03,-613.12"/>
<polygon fill="black" stroke="black" points="2489.13,-614.75 2490.56,-604.25 2482.9,-611.57 2489.13,-614.75"/>
</g>
<!-- icmp_input&#45;&gt;icmp_output -->
<g id="edge28" class="edge">
<title>icmp_input&#45;&gt;icmp_output</title>
<path fill="none" stroke="black" d="M911.75,-724.17C935.55,-731.78 969.38,-742.6 996.15,-751.15"/>
<polygon fill="black" stroke="black" points="994.73,-754.38 1005.32,-754.09 996.86,-747.71 994.73,-754.38"/>
</g>
<!-- icmp_output&#45;&gt;ip_output -->
<g id="edge31" class="edge">
<title>icmp_output&#45;&gt;ip_output</title>
<path fill="none" stroke="black" d="M1074.2,-755.38C1093.66,-749.91 1118.24,-743.01 1138.39,-737.36"/>
<polygon fill="black" stroke="black" points="1139.22,-740.76 1147.9,-734.68 1137.33,-734.02 1139.22,-740.76"/>
</g>
<!-- ip_forward&#45;&gt;ip_output -->
<g id="edge32" class="edge">
<title>ip_forward&#45;&gt;ip_output</title>
<path fill="none" stroke="black" d="M769.1,-676.88C832.69,-677.64 976.45,-681.99 1094.84,-704.77 1109.3,-707.55 1124.97,-711.55 1138.65,-715.38"/>
<polygon fill="black" stroke="black" points="1137.58,-718.72 1148.16,-718.11 1139.51,-711.99 1137.58,-718.72"/>
</g>
<!-- ip_error_ttl_exceeded -->
<g id="node28" class="node">
<title>ip_error_ttl_exceeded</title>
<ellipse fill="none" stroke="black" cx="881.33" cy="-768.77" rx="67.31" ry="18"/>
<text text-anchor="middle" x="881.33" y="-765.07" font-family="sans" font-size="11.00">ip_error_ttl_exceeded</text>
</g>
<!-- ip_forward&#45;&gt;ip_error_ttl_exceeded -->
<g id="edge33" class="edge">
<title>ip_forward&#45;&gt;ip_error_ttl_exceeded</title>
<path fill="none" stroke="black" d="M752.01,-692.57C767,-706.85 790.62,-727.71 814.02,-741.77 818.82,-744.66 823.99,-747.36 829.25,-749.87"/>
<polygon fill="black" stroke="black" points="827.45,-752.9 838.01,-753.8 830.32,-746.51 827.45,-752.9"/>
</g>
<!-- ip_hold&#45;&gt;control_output -->
<g id="edge34" class="edge">
<title>ip_hold&#45;&gt;control_output</title>
<path fill="none" stroke="black" d="M1507.51,-750.02C1554.43,-743.51 1657.28,-730.77 1744.46,-730.77 1744.46,-730.77 1744.46,-730.77 2184.63,-730.77 2299.72,-730.77 2418.35,-649.47 2471.15,-608.21"/>
<polygon fill="black" stroke="black" points="2473.09,-611.13 2478.75,-602.18 2468.74,-605.65 2473.09,-611.13"/>
</g>
<!-- dnat44_dynamic&#45;&gt;ip_forward -->
<g id="edge81" class="edge">
<title>dnat44_dynamic&#45;&gt;ip_forward</title>
<path fill="none" stroke="black" d="M644.51,-650.38C660.26,-655.01 678.36,-660.35 694.16,-665"/>
<polygon fill="black" stroke="black" points="693.16,-668.35 703.74,-667.82 695.14,-661.64 693.16,-668.35"/>
</g>
<!-- dnat44_dynamic&#45;&gt;ip_input_local -->
<g id="edge82" class="edge">
<title>dnat44_dynamic&#45;&gt;ip_input_local</title>
<path fill="none" stroke="black" d="M635.46,-624.09C642.45,-620.34 649.74,-616.13 656.25,-611.77 674.42,-599.59 693.29,-583.92 707.91,-571.03"/>
<polygon fill="black" stroke="black" points="710.17,-573.7 715.29,-564.42 705.5,-568.48 710.17,-573.7"/>
</g>
<!-- dnat44_dynamic&#45;&gt;ip_error_dest_unreach -->
<g id="edge83" class="edge">
<title>dnat44_dynamic&#45;&gt;ip_error_dest_unreach</title>
<path fill="none" stroke="black" d="M656.06,-636.4C711.3,-634.04 802.05,-630.77 880.33,-630.77 880.33,-630.77 880.33,-630.77 1040.74,-630.77 1111.96,-630.77 1192.99,-626.11 1250.75,-621.98"/>
<polygon fill="black" stroke="black" points="1250.75,-625.49 1260.47,-621.27 1250.24,-618.51 1250.75,-625.49"/>
</g>
<!-- ip_input_local&#45;&gt;icmp_input -->
<g id="edge41" class="edge">
<title>ip_input_local&#45;&gt;icmp_input</title>
<path fill="none" stroke="black" d="M750.75,-563.8C776.25,-593.51 828.98,-654.95 858.71,-689.59"/>
<polygon fill="black" stroke="black" points="855.94,-691.73 865.11,-697.04 861.26,-687.17 855.94,-691.73"/>
</g>
<!-- ipip_input -->
<g id="node34" class="node">
<title>ipip_input</title>
<ellipse fill="none" stroke="black" cx="881.33" cy="-508.77" rx="31.1" ry="18"/>
<text text-anchor="middle" x="881.33" y="-505.07" font-family="sans" font-size="11.00">ipip_input</text>
</g>
<!-- ip_input_local&#45;&gt;ipip_input -->
<g id="edge42" class="edge">
<title>ip_input_local&#45;&gt;ipip_input</title>
<path fill="none" stroke="black" d="M772.15,-537.28C793.22,-531.73 819.83,-524.71 841.39,-519.03"/>
<polygon fill="black" stroke="black" points="842.22,-522.43 850.99,-516.5 840.43,-515.66 842.22,-522.43"/>
</g>
<!-- l4_input_local -->
<g id="node35" class="node">
<title>l4_input_local</title>
<ellipse fill="none" stroke="black" cx="1895.45" cy="-634.77" rx="42.89" ry="18"/>
<text text-anchor="middle" x="1895.45" y="-631.07" font-family="sans" font-size="11.00">l4_input_local</text>
</g>
<!-- ip_input_local&#45;&gt;l4_input_local -->
<g id="edge43" class="edge">
<title>ip_input_local&#45;&gt;l4_input_local</title>
<path fill="none" stroke="black" d="M777.99,-549C882.62,-554.67 1163.95,-570.49 1398.18,-588.77 1560.16,-601.41 1751.51,-620.26 1842,-629.4"/>
<polygon fill="black" stroke="black" points="1841.5,-632.87 1851.8,-630.4 1842.21,-625.91 1841.5,-632.87"/>
</g>
<!-- dnat44_static&#45;&gt;ip_forward -->
<g id="edge84" class="edge">
<title>dnat44_static&#45;&gt;ip_forward</title>
<path fill="none" stroke="black" d="M633.32,-598.31C640.95,-602.34 649.07,-606.96 656.25,-611.77 674.9,-624.28 694.3,-640.45 709.07,-653.54"/>
<polygon fill="black" stroke="black" points="706.72,-656.13 716.49,-660.22 711.4,-650.93 706.72,-656.13"/>
</g>
<!-- dnat44_static&#45;&gt;ip_input_local -->
<g id="edge85" class="edge">
<title>dnat44_static&#45;&gt;ip_input_local</title>
<path fill="none" stroke="black" d="M640.01,-574.49C654.93,-570.09 672.55,-564.91 688.48,-560.21"/>
<polygon fill="black" stroke="black" points="689.13,-563.67 697.73,-557.49 687.15,-556.96 689.13,-563.67"/>
</g>
<!-- dnat44_static&#45;&gt;ip_error_dest_unreach -->
<g id="edge86" class="edge">
<title>dnat44_static&#45;&gt;ip_error_dest_unreach</title>
<path fill="none" stroke="black" d="M647.52,-586.77C701.57,-589.14 797.87,-592.77 880.33,-592.77 880.33,-592.77 880.33,-592.77 1040.74,-592.77 1113.62,-592.77 1196.57,-600.23 1254.49,-606.65"/>
<polygon fill="black" stroke="black" points="1253.9,-610.11 1264.23,-607.75 1254.68,-603.15 1253.9,-610.11"/>
</g>
<!-- ipip_input&#45;&gt;ip_input -->
<g id="edge77" class="edge">
<title>ipip_input&#45;&gt;ip_input</title>
<path fill="none" stroke="black" d="M849.94,-509.45C812.67,-510.54 747.63,-513.26 692.25,-519.77 620.74,-528.17 538.13,-544.32 491.84,-553.96"/>
<polygon fill="black" stroke="black" points="491.16,-550.53 482.09,-556.01 492.6,-557.38 491.16,-550.53"/>
</g>
<!-- l4_loopback_output -->
<g id="node49" class="node">
<title>l4_loopback_output</title>
<ellipse fill="none" stroke="black" cx="2034.91" cy="-634.77" rx="60.57" ry="18"/>
<text text-anchor="middle" x="2034.91" y="-631.07" font-family="sans" font-size="11.00">l4_loopback_output</text>
</g>
<!-- l4_input_local&#45;&gt;l4_loopback_output -->
<g id="edge79" class="edge">
<title>l4_input_local&#45;&gt;l4_loopback_output</title>
<path fill="none" stroke="black" d="M1938.81,-634.77C1946.37,-634.77 1954.43,-634.77 1962.54,-634.77"/>
<polygon fill="black" stroke="black" points="1962.48,-638.27 1972.48,-634.77 1962.48,-631.27 1962.48,-638.27"/>
</g>
<!-- ipip_output&#45;&gt;ip_output -->
<g id="edge78" class="edge">
<title>ipip_output&#45;&gt;ip_output</title>
<path fill="none" stroke="black" d="M1294.51,-732.49C1271.74,-733.75 1241.43,-733.85 1217.45,-732.79"/>
<polygon fill="black" stroke="black" points="1217.93,-729.32 1207.76,-732.26 1217.55,-736.31 1217.93,-729.32"/>
</g>
<!-- sr6_output&#45;&gt;ip6_output -->
<g id="edge91" class="edge">
<title>sr6_output&#45;&gt;ip6_output</title>
<path fill="none" stroke="black" d="M2311.11,-584.86C2284.47,-578.69 2247.03,-567.92 2219.8,-558.63"/>
<polygon fill="black" stroke="black" points="2221.2,-555.42 2210.61,-555.4 2218.88,-562.02 2221.2,-555.42"/>
</g>
<!-- icmp6_input -->
<g id="node38" class="node">
<title>icmp6_input</title>
<ellipse fill="none" stroke="black" cx="1895.45" cy="-134.77" rx="38.68" ry="18"/>
<text text-anchor="middle" x="1895.45" y="-131.07" font-family="sans" font-size="11.00">icmp6_input</text>
</g>
<!-- icmp6_input&#45;&gt;control_output -->
<g id="edge54" class="edge">
<title>icmp6_input&#45;&gt;control_output</title>
<path fill="none" stroke="black" d="M1931.06,-142.43C2023.94,-164.77 2280.87,-238.59 2418.2,-397.77 2459.04,-445.11 2482.21,-516.16 2492.64,-555.65"/>
<polygon fill="black" stroke="black" points="2489.2,-556.31 2495.05,-565.14 2495.98,-554.58 2489.2,-556.31"/>
</g>
<!-- icmp6_input&#45;&gt;icmp6_output -->
<g id="edge50" class="edge">
<title>icmp6_input&#45;&gt;icmp6_output</title>
<path fill="none" stroke="black" d="M1914.42,-150.72C1938.06,-171.7 1979.8,-208.75 2007.16,-233.03"/>
<polygon fill="black" stroke="black" points="2004.56,-235.4 2014.36,-239.42 2009.21,-230.17 2004.56,-235.4"/>
</g>
<!-- ndp_ns_input -->
<g id="node40" class="node">
<title>ndp_ns_input</title>
<ellipse fill="none" stroke="black" cx="2183.63" cy="-134.77" rx="41.62" ry="18"/>
<text text-anchor="middle" x="2183.63" y="-131.07" font-family="sans" font-size="11.00">ndp_ns_input</text>
</g>
<!-- icmp6_input&#45;&gt;ndp_ns_input -->
<g id="edge51" class="edge">
<title>icmp6_input&#45;&gt;ndp_ns_input</title>
<path fill="none" stroke="black" d="M1934.45,-134.77C1984.81,-134.77 2073.86,-134.77 2130.48,-134.77"/>
<polygon fill="black" stroke="black" points="2130.18,-138.27 2140.18,-134.77 2130.18,-131.27 2130.18,-138.27"/>
</g>
<!-- ndp_na_input -->
<g id="node41" class="node">
<title>ndp_na_input</title>
<ellipse fill="none" stroke="black" cx="2034.91" cy="-88.77" rx="42.04" ry="18"/>
<text text-anchor="middle" x="2034.91" y="-85.07" font-family="sans" font-size="11.00">ndp_na_input</text>
</g>
<!-- icmp6_input&#45;&gt;ndp_na_input -->
<g id="edge52" class="edge">
<title>icmp6_input&#45;&gt;ndp_na_input</title>
<path fill="none" stroke="black" d="M1927.64,-124.33C1946.09,-118.16 1969.74,-110.24 1990.04,-103.45"/>
<polygon fill="black" stroke="black" points="1991.11,-106.78 1999.49,-100.29 1988.89,-100.14 1991.11,-106.78"/>
</g>
<!-- ndp_rs_input -->
<g id="node42" class="node">
<title>ndp_rs_input</title>
<ellipse fill="none" stroke="black" cx="2034.91" cy="-34.77" rx="40.36" ry="18"/>
<text text-anchor="middle" x="2034.91" y="-31.07" font-family="sans" font-size="11.00">ndp_rs_input</text>
</g>
<!-- icmp6_input&#45;&gt;ndp_rs_input -->
<g id="edge53" class="edge">
<title>icmp6_input&#45;&gt;ndp_rs_input</title>
<path fill="none" stroke="black" d="M1911.25,-118.02C1926.03,-102.04 1949.99,-78.04 1974.33,-61.77 1980.16,-57.88 1986.63,-54.29 1993.11,-51.09"/>
<polygon fill="black" stroke="black" points="1994.23,-54.43 2001.82,-47.04 1991.28,-48.09 1994.23,-54.43"/>
</g>
<!-- icmp6_output&#45;&gt;ip6_output -->
<g id="edge55" class="edge">
<title>icmp6_output&#45;&gt;ip6_output</title>
<path fill="none" stroke="black" d="M2045.09,-274.66C2069.95,-323.13 2138.74,-457.21 2168.55,-515.32"/>
<polygon fill="black" stroke="black" points="2165.27,-516.61 2172.95,-523.9 2171.5,-513.41 2165.27,-516.61"/>
</g>
<!-- ndp_ns_input&#45;&gt;control_output -->
<g id="edge74" class="edge">
<title>ndp_ns_input&#45;&gt;control_output</title>
<path fill="none" stroke="black" d="M2222.59,-127.81C2274.06,-120.75 2365.56,-117 2418.2,-166.77 2474.83,-220.32 2493.29,-469.23 2498.05,-555.36"/>
<polygon fill="black" stroke="black" points="2494.54,-555.3 2498.56,-565.1 2501.53,-554.93 2494.54,-555.3"/>
</g>
<!-- ndp_na_input&#45;&gt;control_output -->
<g id="edge72" class="edge">
<title>ndp_na_input&#45;&gt;control_output</title>
<path fill="none" stroke="black" d="M2070.88,-79.14C2145.37,-60.97 2320.78,-30.93 2418.2,-119.77 2482.74,-178.63 2496.13,-461.91 2498.81,-555.03"/>
<polygon fill="black" stroke="black" points="2495.31,-554.97 2499.07,-564.87 2502.3,-554.79 2495.31,-554.97"/>
</g>
<!-- ndp_rs_input&#45;&gt;control_output -->
<g id="edge76" class="edge">
<title>ndp_rs_input&#45;&gt;control_output</title>
<path fill="none" stroke="black" d="M2068.95,-24.66C2142.31,-4.46 2320.02,31.68 2418.2,-57.77 2492.1,-125.11 2499.14,-453.97 2499.53,-555.11"/>
<polygon fill="black" stroke="black" points="2496.03,-555.04 2499.55,-565.03 2503.03,-555.02 2496.03,-555.04"/>
</g>
<!-- ip6_forward&#45;&gt;ip6_output -->
<g id="edge57" class="edge">
<title>ip6_forward&#45;&gt;ip6_output</title>
<path fill="none" stroke="black" d="M1628.82,-521.31C1642.2,-526.89 1658.8,-532.85 1674.36,-535.77 1843.5,-567.48 2049.86,-554.94 2138.61,-547.17"/>
<polygon fill="black" stroke="black" points="2138.69,-550.68 2148.33,-546.29 2138.06,-543.71 2138.69,-550.68"/>
</g>
<!-- ip6_error_ttl_exceeded -->
<g id="node44" class="node">
<title>ip6_error_ttl_exceeded</title>
<ellipse fill="none" stroke="black" cx="1745.46" cy="-508.77" rx="71.1" ry="18"/>
<text text-anchor="middle" x="1745.46" y="-505.07" font-family="sans" font-size="11.00">ip6_error_ttl_exceeded</text>
</g>
<!-- ip6_forward&#45;&gt;ip6_error_ttl_exceeded -->
<g id="edge58" class="edge">
<title>ip6_forward&#45;&gt;ip6_error_ttl_exceeded</title>
<path fill="none" stroke="black" d="M1638.65,-508.77C1646.13,-508.77 1654.29,-508.77 1662.64,-508.77"/>
<polygon fill="black" stroke="black" points="1662.6,-512.27 1672.6,-508.77 1662.6,-505.27 1662.6,-512.27"/>
</g>
<!-- ip6_hold&#45;&gt;control_output -->
<g id="edge59" class="edge">
<title>ip6_hold&#45;&gt;control_output</title>
<path fill="none" stroke="black" d="M2369.63,-542.47C2391.9,-549.73 2425.87,-560.8 2453.47,-569.79"/>
<polygon fill="black" stroke="black" points="2452.05,-573.01 2462.65,-572.78 2454.22,-566.35 2452.05,-573.01"/>
</g>
<!-- ip6_input_local&#45;&gt;l4_input_local -->
<g id="edge66" class="edge">
<title>ip6_input_local&#45;&gt;l4_input_local</title>
<path fill="none" stroke="black" d="M1759.32,-396.19C1773.94,-416.32 1798.17,-450.68 1816.56,-481.77 1841.68,-524.22 1866.87,-575.73 1881.54,-606.84"/>
<polygon fill="black" stroke="black" points="1878.22,-608 1885.63,-615.57 1884.56,-605.03 1878.22,-608"/>
</g>
<!-- ip6_input_local&#45;&gt;icmp6_input -->
<g id="edge65" class="edge">
<title>ip6_input_local&#45;&gt;icmp6_input</title>
<path fill="none" stroke="black" d="M1757.1,-361.22C1782.65,-319.1 1847.57,-212.06 1878.1,-161.72"/>
<polygon fill="black" stroke="black" points="1880.92,-163.82 1883.12,-153.45 1874.94,-160.19 1880.92,-163.82"/>
</g>
<!-- sr6_local&#45;&gt;ip_input -->
<g id="edge87" class="edge">
<title>sr6_local&#45;&gt;ip_input</title>
<path fill="none" stroke="black" d="M1572.28,-343.82C1476.73,-354.1 1151.68,-386.77 882.33,-386.77 734.13,-386.77 734.13,-386.77 734.13,-386.77 651.42,-386.77 621.06,-379.33 551.94,-424.77 511.07,-451.64 482.29,-502.33 467.35,-533.95"/>
<polygon fill="black" stroke="black" points="464.24,-532.34 463.28,-542.89 470.61,-535.24 464.24,-532.34"/>
</g>
<!-- sr6_local&#45;&gt;ip6_input -->
<g id="edge88" class="edge">
<title>sr6_local&#45;&gt;ip6_input</title>
<path fill="none" stroke="black" d="M1583.29,-355.37C1566.12,-367.32 1538.82,-383.72 1516.87,-395.54"/>
<polygon fill="black" stroke="black" points="1515.47,-392.32 1508.24,-400.07 1518.72,-398.52 1515.47,-392.32"/>
</g>
<!-- sr6_local&#45;&gt;ip6_input_local -->
<g id="edge89" class="edge">
<title>sr6_local&#45;&gt;ip6_input_local</title>
<path fill="none" stroke="black" d="M1627.76,-347.65C1646.57,-352.67 1672.65,-359.62 1695.38,-365.68"/>
<polygon fill="black" stroke="black" points="1694.2,-368.99 1704.76,-368.19 1696,-362.23 1694.2,-368.99"/>
</g>
<!-- sr6_local&#45;&gt;ip6_error_dest_unreach -->
<g id="edge90" class="edge">
<title>sr6_local&#45;&gt;ip6_error_dest_unreach</title>
<path fill="none" stroke="black" d="M1629.78,-341.43C1670.76,-342.57 1749.71,-345.44 1816.56,-351.77 1980.28,-367.27 2171.15,-396.48 2272.38,-412.86"/>
<polygon fill="black" stroke="black" points="2271.75,-416.3 2282.18,-414.45 2272.87,-409.39 2271.75,-416.3"/>
</g>
<!-- l4_loopback_output&#45;&gt;loopback_output -->
<g id="edge80" class="edge">
<title>l4_loopback_output&#45;&gt;loopback_output</title>
<path fill="none" stroke="black" d="M2095.59,-634.77C2103.48,-634.77 2111.58,-634.77 2119.53,-634.77"/>
<polygon fill="black" stroke="black" points="2119.49,-638.27 2129.49,-634.77 2119.49,-631.27 2119.49,-638.27"/>
</g>
</g>
</svg>
