<?xml version="1.0" encoding="UTF-8" standalone="no"?>
<!DOCTYPE svg PUBLIC "-//W3C//DTD SVG 1.1//EN"
 "http://www.w3.org/Graphics/SVG/1.1/DTD/svg11.dtd">
<!-- Generated by graphviz version 12.2.1 (20241206.2353)
 -->
<!-- Title: gr&#45;0002 Pages: 1 -->
<svg width="2350pt" height="850pt"
 viewBox="0.00 0.00 2350.04 850.00" xmlns="http://www.w3.org/2000/svg" xmlns:xlink="http://www.w3.org/1999/xlink">
<g id="graph0" class="graph" transform="scale(1 1) rotate(0) translate(4 846)">
<title>gr&#45;0002</title>
<polygon fill="white" stroke="none" points="-4,4 -4,-846 2346.04,-846 2346.04,4 -4,4"/>
<!-- control_input -->
<g id="node1" class="node">
<title>control_input</title>
<ellipse fill="none" stroke="blue" stroke-width="2" cx="41.62" cy="-175" rx="41.62" ry="18"/>
<text text-anchor="middle" x="41.62" y="-171.3" font-family="sans" font-size="11.00">control_input</text>
</g>
<!-- loopback_input -->
<g id="node2" class="node">
<title>loopback_input</title>
<ellipse fill="none" stroke="black" cx="166.76" cy="-424" rx="47.52" ry="18"/>
<text text-anchor="middle" x="166.76" y="-420.3" font-family="sans" font-size="11.00">loopback_input</text>
</g>
<!-- control_input&#45;&gt;loopback_input -->
<g id="edge1" class="edge">
<title>control_input&#45;&gt;loopback_input</title>
<path fill="none" stroke="blue" stroke-width="2" d="M51.48,-192.91C72.64,-235.69 126.27,-344.14 151.82,-395.8"/>
<polygon fill="blue" stroke="blue" stroke-width="2" points="147.91,-395.79 155.48,-403.21 154.19,-392.69 147.91,-395.79"/>
</g>
<!-- arp_output_request -->
<g id="node3" class="node">
<title>arp_output_request</title>
<ellipse fill="none" stroke="black" cx="450.32" cy="-766" rx="61.42" ry="18"/>
<text text-anchor="middle" x="450.32" y="-762.3" font-family="sans" font-size="11.00">arp_output_request</text>
</g>
<!-- control_input&#45;&gt;arp_output_request -->
<g id="edge2" class="edge">
<title>control_input&#45;&gt;arp_output_request</title>
<path fill="none" stroke="blue" stroke-width="2" d="M44.33,-193.07C51.01,-261.04 77.18,-500.68 119.25,-563 186.78,-663.05 321.79,-722.57 396.51,-749.23"/>
<polygon fill="blue" stroke="blue" stroke-width="2" points="393.63,-751.93 404.23,-751.93 395.94,-745.32 393.63,-751.93"/>
</g>
<!-- icmp_local_send -->
<g id="node4" class="node">
<title>icmp_local_send</title>
<ellipse fill="none" stroke="black" cx="301.59" cy="-261" rx="51.31" ry="18"/>
<text text-anchor="middle" x="301.59" y="-257.3" font-family="sans" font-size="11.00">icmp_local_send</text>
</g>
<!-- control_input&#45;&gt;icmp_local_send -->
<g id="edge3" class="edge">
<title>control_input&#45;&gt;icmp_local_send</title>
<path fill="none" stroke="blue" stroke-width="2" d="M71.04,-188.22C85.33,-194.62 103.03,-202.16 119.25,-208 162.18,-223.45 212,-237.76 248.55,-247.61"/>
<polygon fill="blue" stroke="blue" stroke-width="2" points="245.95,-250.54 256.52,-249.73 247.76,-243.77 245.95,-250.54"/>
</g>
<!-- icmp6_local_send -->
<g id="node5" class="node">
<title>icmp6_local_send</title>
<ellipse fill="none" stroke="black" cx="1113.5" cy="-110" rx="55.1" ry="18"/>
<text text-anchor="middle" x="1113.5" y="-106.3" font-family="sans" font-size="11.00">icmp6_local_send</text>
</g>
<!-- control_input&#45;&gt;icmp6_local_send -->
<g id="edge4" class="edge">
<title>control_input&#45;&gt;icmp6_local_send</title>
<path fill="none" stroke="blue" stroke-width="2" d="M69.67,-161.35C84.07,-154.61 102.26,-146.88 119.25,-142 197.63,-119.47 219.04,-114 300.59,-114 300.59,-114 300.59,-114 845.69,-114 914.21,-114 992.61,-112.66 1046.61,-111.54"/>
<polygon fill="blue" stroke="blue" stroke-width="2" points="1045.14,-115.07 1055.06,-111.36 1044.99,-108.07 1045.14,-115.07"/>
</g>
<!-- ndp_ns_output -->
<g id="node6" class="node">
<title>ndp_ns_output</title>
<ellipse fill="none" stroke="black" cx="1358.31" cy="-156" rx="46.26" ry="18"/>
<text text-anchor="middle" x="1358.31" y="-152.3" font-family="sans" font-size="11.00">ndp_ns_output</text>
</g>
<!-- control_input&#45;&gt;ndp_ns_output -->
<g id="edge5" class="edge">
<title>control_input&#45;&gt;ndp_ns_output</title>
<path fill="none" stroke="blue" stroke-width="2" d="M82.33,-170.25C132.93,-164.63 223.13,-156 300.59,-156 300.59,-156 300.59,-156 1114.5,-156 1178.12,-156 1251.1,-156 1300.31,-156"/>
<polygon fill="blue" stroke="blue" stroke-width="2" points="1298.64,-159.5 1308.64,-156 1298.64,-152.5 1298.64,-159.5"/>
</g>
<!-- ip_output -->
<g id="node7" class="node">
<title>ip_output</title>
<ellipse fill="none" stroke="black" cx="1113.5" cy="-324" rx="30.25" ry="18"/>
<text text-anchor="middle" x="1113.5" y="-320.3" font-family="sans" font-size="11.00">ip_output</text>
</g>
<!-- control_input&#45;&gt;ip_output -->
<g id="edge6" class="edge">
<title>control_input&#45;&gt;ip_output</title>
<path fill="none" stroke="blue" stroke-width="2" d="M82.33,-179.75C132.93,-185.37 223.13,-194 300.59,-194 300.59,-194 300.59,-194 600.88,-194 785.95,-194 997.39,-274.89 1078.45,-309.05"/>
<polygon fill="blue" stroke="blue" stroke-width="2" points="1075.2,-311.48 1085.78,-312.18 1077.95,-305.04 1075.2,-311.48"/>
</g>
<!-- arp_output_reply -->
<g id="node8" class="node">
<title>arp_output_reply</title>
<ellipse fill="none" stroke="black" cx="968.99" cy="-812" rx="53.41" ry="18"/>
<text text-anchor="middle" x="968.99" y="-808.3" font-family="sans" font-size="11.00">arp_output_reply</text>
</g>
<!-- control_input&#45;&gt;arp_output_reply -->
<g id="edge7" class="edge">
<title>control_input&#45;&gt;arp_output_reply</title>
<path fill="none" stroke="blue" stroke-width="2" d="M42.05,-193.2C40.82,-256.29 42.84,-470.06 119.25,-622 171.69,-726.29 183.86,-812 300.59,-812 300.59,-812 300.59,-812 731.92,-812 790.23,-812 856.64,-812 904.14,-812"/>
<polygon fill="blue" stroke="blue" stroke-width="2" points="902.46,-815.5 912.46,-812 902.46,-808.5 902.46,-815.5"/>
</g>
<!-- ip6_output -->
<g id="node9" class="node">
<title>ip6_output</title>
<ellipse fill="none" stroke="black" cx="2011.82" cy="-224" rx="34.04" ry="18"/>
<text text-anchor="middle" x="2011.82" y="-220.3" font-family="sans" font-size="11.00">ip6_output</text>
</g>
<!-- control_input&#45;&gt;ip6_output -->
<g id="edge8" class="edge">
<title>control_input&#45;&gt;ip6_output</title>
<path fill="none" stroke="blue" stroke-width="2" d="M48.51,-156.85C59.36,-131.05 84.62,-85.36 119.25,-60 187.73,-9.83 215.7,0 300.59,0 300.59,0 300.59,0 1724.63,0 1851.52,0 1958.06,-136.78 1995.99,-196.71"/>
<polygon fill="blue" stroke="blue" stroke-width="2" points="1992.07,-197.03 2000.29,-203.72 1998.04,-193.37 1992.07,-197.03"/>
</g>
<!-- control_input&#45;&gt;ip6_output -->
<g id="edge10" class="edge">
<title>control_input&#45;&gt;ip6_output</title>
<path fill="none" stroke="blue" stroke-width="2" d="M54.26,-157.73C67.05,-135.96 89.75,-99.6 119.25,-78 187.73,-27.83 215.7,-18 300.59,-18 300.59,-18 300.59,-18 1724.63,-18 1845.94,-18 1948.65,-143.01 1990.59,-198.39"/>
<polygon fill="blue" stroke="blue" stroke-width="2" points="1986.63,-198.95 1995.43,-204.85 1992.23,-194.75 1986.63,-198.95"/>
</g>
<!-- ndp_na_output -->
<g id="node10" class="node">
<title>ndp_na_output</title>
<ellipse fill="none" stroke="black" cx="1598.07" cy="-64" rx="46.68" ry="18"/>
<text text-anchor="middle" x="1598.07" y="-60.3" font-family="sans" font-size="11.00">ndp_na_output</text>
</g>
<!-- control_input&#45;&gt;ndp_na_output -->
<g id="edge9" class="edge">
<title>control_input&#45;&gt;ndp_na_output</title>
<path fill="none" stroke="blue" stroke-width="2" d="M59.53,-158.55C74.22,-145.09 96.64,-126.46 119.25,-115 193.92,-77.14 216.87,-64 300.59,-64 300.59,-64 300.59,-64 1359.31,-64 1420.9,-64 1491.46,-64 1539.61,-64"/>
<polygon fill="blue" stroke="blue" stroke-width="2" points="1538.02,-67.5 1548.02,-64 1538.02,-60.5 1538.02,-67.5"/>
</g>
<!-- eth_input -->
<g id="node12" class="node">
<title>eth_input</title>
<ellipse fill="none" stroke="black" cx="301.59" cy="-487" rx="30.25" ry="18"/>
<text text-anchor="middle" x="301.59" y="-483.3" font-family="sans" font-size="11.00">eth_input</text>
</g>
<!-- loopback_input&#45;&gt;eth_input -->
<g id="edge16" class="edge">
<title>loopback_input&#45;&gt;eth_input</title>
<path fill="none" stroke="black" d="M197.57,-438.14C218.25,-447.95 245.81,-461.02 267.22,-471.17"/>
<polygon fill="black" stroke="black" points="265.58,-474.27 276.12,-475.39 268.58,-467.94 265.58,-474.27"/>
</g>
<!-- eth_output -->
<g id="node16" class="node">
<title>eth_output</title>
<ellipse fill="none" stroke="black" cx="2156.75" cy="-767" rx="34.89" ry="18"/>
<text text-anchor="middle" x="2156.75" y="-763.3" font-family="sans" font-size="11.00">eth_output</text>
</g>
<!-- arp_output_request&#45;&gt;eth_output -->
<g id="edge27" class="edge">
<title>arp_output_request&#45;&gt;eth_output</title>
<path fill="none" stroke="black" d="M512.19,-766C568.63,-766 654.95,-766 729.92,-766 729.92,-766 729.92,-766 1864.09,-766 1951.26,-766 2053.07,-766.45 2110.42,-766.75"/>
<polygon fill="black" stroke="black" points="2110.09,-770.25 2120.11,-766.8 2110.13,-763.25 2110.09,-770.25"/>
</g>
<!-- icmp_output -->
<g id="node25" class="node">
<title>icmp_output</title>
<ellipse fill="none" stroke="black" cx="968.99" cy="-392" rx="39.52" ry="18"/>
<text text-anchor="middle" x="968.99" y="-388.3" font-family="sans" font-size="11.00">icmp_output</text>
</g>
<!-- icmp_local_send&#45;&gt;icmp_output -->
<g id="edge30" class="edge">
<title>icmp_local_send&#45;&gt;icmp_output</title>
<path fill="none" stroke="black" d="M347.02,-269.75C467.19,-293.4 797.79,-358.49 920.95,-382.74"/>
<polygon fill="black" stroke="black" points="920.23,-386.16 930.72,-384.66 921.58,-379.3 920.23,-386.16"/>
</g>
<!-- icmp6_output -->
<g id="node36" class="node">
<title>icmp6_output</title>
<ellipse fill="none" stroke="black" cx="1863.09" cy="-140" rx="43.31" ry="18"/>
<text text-anchor="middle" x="1863.09" y="-136.3" font-family="sans" font-size="11.00">icmp6_output</text>
</g>
<!-- icmp6_local_send&#45;&gt;icmp6_output -->
<g id="edge53" class="edge">
<title>icmp6_local_send&#45;&gt;icmp6_output</title>
<path fill="none" stroke="black" d="M1168.99,-110C1218.2,-110 1292.61,-110 1357.31,-110 1357.31,-110 1357.31,-110 1599.07,-110 1673.57,-110 1759.19,-122.03 1811.97,-130.85"/>
<polygon fill="black" stroke="black" points="1811.1,-134.26 1821.54,-132.48 1812.27,-127.36 1811.1,-134.26"/>
</g>
<!-- ndp_ns_output&#45;&gt;icmp6_output -->
<g id="edge69" class="edge">
<title>ndp_ns_output&#45;&gt;icmp6_output</title>
<path fill="none" stroke="black" d="M1404.82,-154.55C1497.71,-151.6 1708.76,-144.88 1808.27,-141.71"/>
<polygon fill="black" stroke="black" points="1808.15,-145.22 1818.04,-141.4 1807.93,-138.22 1808.15,-145.22"/>
</g>
<!-- ip_output&#45;&gt;eth_output -->
<g id="edge42" class="edge">
<title>ip_output&#45;&gt;eth_output</title>
<path fill="none" stroke="black" d="M1123.26,-341.41C1137.41,-368.23 1167.51,-420.1 1204.6,-454 1245.14,-491.05 1261.55,-493.45 1312.06,-515 1607.93,-641.24 1987.46,-730.21 2113.19,-757.89"/>
<polygon fill="black" stroke="black" points="2112.22,-761.26 2122.74,-759.98 2113.72,-754.42 2112.22,-761.26"/>
</g>
<!-- loop_xvrf -->
<g id="node20" class="node">
<title>loop_xvrf</title>
<ellipse fill="none" stroke="black" cx="1240.33" cy="-270" rx="29.83" ry="18"/>
<text text-anchor="middle" x="1240.33" y="-266.3" font-family="sans" font-size="11.00">loop_xvrf</text>
</g>
<!-- ip_output&#45;&gt;loop_xvrf -->
<g id="edge44" class="edge">
<title>ip_output&#45;&gt;loop_xvrf</title>
<path fill="none" stroke="black" d="M1138.57,-313.59C1157.4,-305.45 1183.82,-294.02 1204.88,-284.9"/>
<polygon fill="black" stroke="black" points="1206.16,-288.16 1213.95,-280.98 1203.38,-281.74 1206.16,-288.16"/>
</g>
<!-- ip_hold -->
<g id="node27" class="node">
<title>ip_hold</title>
<ellipse fill="none" stroke="black" cx="1358.31" cy="-488" rx="27" ry="18"/>
<text text-anchor="middle" x="1358.31" y="-484.3" font-family="sans" font-size="11.00">ip_hold</text>
</g>
<!-- ip_output&#45;&gt;ip_hold -->
<g id="edge43" class="edge">
<title>ip_output&#45;&gt;ip_hold</title>
<path fill="none" stroke="black" d="M1126.22,-340.55C1141.98,-361.81 1171.82,-398.71 1204.6,-422 1241.25,-448.03 1289.79,-466.81 1322.21,-477.53"/>
<polygon fill="black" stroke="black" points="1320.93,-480.79 1331.52,-480.52 1323.07,-474.13 1320.93,-480.79"/>
</g>
<!-- ipip_output -->
<g id="node33" class="node">
<title>ipip_output</title>
<ellipse fill="none" stroke="black" cx="1240.33" cy="-324" rx="35.73" ry="18"/>
<text text-anchor="middle" x="1240.33" y="-320.3" font-family="sans" font-size="11.00">ipip_output</text>
</g>
<!-- ip_output&#45;&gt;ipip_output -->
<g id="edge45" class="edge">
<title>ip_output&#45;&gt;ipip_output</title>
<path fill="none" stroke="black" d="M1142.52,-318.26C1157.97,-317.25 1177.5,-317 1194.98,-317.51"/>
<polygon fill="black" stroke="black" points="1194.45,-320.99 1204.58,-317.89 1194.73,-313.99 1194.45,-320.99"/>
</g>
<!-- sr6_output -->
<g id="node34" class="node">
<title>sr6_output</title>
<ellipse fill="none" stroke="black" cx="2156.75" cy="-278" rx="34.46" ry="18"/>
<text text-anchor="middle" x="2156.75" y="-274.3" font-family="sans" font-size="11.00">sr6_output</text>
</g>
<!-- ip_output&#45;&gt;sr6_output -->
<g id="edge46" class="edge">
<title>ip_output&#45;&gt;sr6_output</title>
<path fill="none" stroke="black" d="M1140.29,-332.71C1158.17,-338.51 1182.64,-345.96 1204.6,-351 1308.14,-374.74 1334.68,-380.53 1440.57,-389 1473.72,-391.65 1484.58,-401.51 1515.39,-389 1536.07,-380.61 1531.35,-363.8 1551.39,-354 1652.62,-304.49 1690.74,-333.28 1802.52,-319 1913.44,-304.84 2044.22,-290.19 2111.24,-282.84"/>
<polygon fill="black" stroke="black" points="2111.54,-286.32 2121.1,-281.76 2110.78,-279.36 2111.54,-286.32"/>
</g>
<!-- arp_output_reply&#45;&gt;eth_output -->
<g id="edge26" class="edge">
<title>arp_output_reply&#45;&gt;eth_output</title>
<path fill="none" stroke="black" d="M1022.37,-809.52C1076.63,-807.17 1163.9,-804 1239.33,-804 1239.33,-804 1239.33,-804 1864.09,-804 1953.15,-804 2056.29,-786.81 2112.95,-775.87"/>
<polygon fill="black" stroke="black" points="2113.36,-779.35 2122.5,-773.99 2112.01,-772.48 2113.36,-779.35"/>
</g>
<!-- ip6_output&#45;&gt;eth_output -->
<g id="edge62" class="edge">
<title>ip6_output&#45;&gt;eth_output</title>
<path fill="none" stroke="black" d="M2018.8,-242.09C2029.51,-275.22 2051.98,-348.01 2063.97,-411 2077.71,-483.25 2057.56,-679.91 2099.97,-740 2103.86,-745.52 2109.2,-749.96 2115.04,-753.51"/>
<polygon fill="black" stroke="black" points="2113.33,-756.57 2123.83,-758 2116.52,-750.33 2113.33,-756.57"/>
</g>
<!-- ip6_output&#45;&gt;loop_xvrf -->
<g id="edge64" class="edge">
<title>ip6_output&#45;&gt;loop_xvrf</title>
<path fill="none" stroke="black" d="M1980.08,-217.21C1927.86,-206.28 1818.36,-186 1724.63,-186 1597.07,-186 1597.07,-186 1597.07,-186 1467.89,-186 1436.17,-207.17 1312.06,-243 1300,-246.48 1287.1,-251.12 1275.66,-255.57"/>
<polygon fill="black" stroke="black" points="1274.61,-252.22 1266.62,-259.18 1277.21,-258.72 1274.61,-252.22"/>
</g>
<!-- ip6_output&#45;&gt;sr6_output -->
<g id="edge65" class="edge">
<title>ip6_output&#45;&gt;sr6_output</title>
<path fill="none" stroke="black" d="M2044.18,-230.15C2067.56,-237.61 2099.39,-249.61 2123.08,-259.88"/>
<polygon fill="black" stroke="black" points="2121.38,-262.96 2131.94,-263.84 2124.24,-256.57 2121.38,-262.96"/>
</g>
<!-- ip6_hold -->
<g id="node41" class="node">
<title>ip6_hold</title>
<ellipse fill="none" stroke="black" cx="2156.75" cy="-224" rx="27" ry="18"/>
<text text-anchor="middle" x="2156.75" y="-220.3" font-family="sans" font-size="11.00">ip6_hold</text>
</g>
<!-- ip6_output&#45;&gt;ip6_hold -->
<g id="edge63" class="edge">
<title>ip6_output&#45;&gt;ip6_hold</title>
<path fill="none" stroke="black" d="M2046.33,-224C2067.87,-224 2095.9,-224 2118.19,-224"/>
<polygon fill="black" stroke="black" points="2118.07,-227.5 2128.07,-224 2118.07,-220.5 2118.07,-227.5"/>
</g>
<!-- ndp_na_output&#45;&gt;icmp6_output -->
<g id="edge67" class="edge">
<title>ndp_na_output&#45;&gt;icmp6_output</title>
<path fill="none" stroke="black" d="M1642.81,-69.39C1677.02,-74.32 1725.51,-82.86 1766.52,-96 1786.73,-102.48 1808.28,-112.14 1825.8,-120.76"/>
<polygon fill="black" stroke="black" points="1823.74,-123.64 1834.25,-125.01 1826.88,-117.39 1823.74,-123.64"/>
</g>
<!-- control_output -->
<g id="node11" class="node">
<title>control_output</title>
<ellipse fill="none" stroke="black" cx="2295.79" cy="-503" rx="46.26" ry="18"/>
<text text-anchor="middle" x="2295.79" y="-499.3" font-family="sans" font-size="11.00">control_output</text>
</g>
<!-- arp_input -->
<g id="node13" class="node">
<title>arp_input</title>
<ellipse fill="none" stroke="black" cx="2011.82" cy="-660" rx="30.25" ry="18"/>
<text text-anchor="middle" x="2011.82" y="-656.3" font-family="sans" font-size="11.00">arp_input</text>
</g>
<!-- eth_input&#45;&gt;arp_input -->
<g id="edge11" class="edge">
<title>eth_input&#45;&gt;arp_input</title>
<path fill="none" stroke="black" d="M319.33,-501.88C357.13,-534.65 453.2,-613.28 547.73,-653 623.91,-685.01 647.29,-690 729.92,-690 729.92,-690 729.92,-690 1724.63,-690 1813.06,-690 1916.03,-675.66 1971.15,-666.81"/>
<polygon fill="black" stroke="black" points="1971.69,-670.26 1980.99,-665.2 1970.56,-663.36 1971.69,-670.26"/>
</g>
<!-- ip_input -->
<g id="node14" class="node">
<title>ip_input</title>
<ellipse fill="none" stroke="black" cx="450.32" cy="-487" rx="27" ry="18"/>
<text text-anchor="middle" x="450.32" y="-483.3" font-family="sans" font-size="11.00">ip_input</text>
</g>
<!-- eth_input&#45;&gt;ip_input -->
<g id="edge12" class="edge">
<title>eth_input&#45;&gt;ip_input</title>
<path fill="none" stroke="black" d="M332.28,-487C355.17,-487 386.96,-487 411.64,-487"/>
<polygon fill="black" stroke="black" points="411.6,-490.5 421.6,-487 411.6,-483.5 411.6,-490.5"/>
</g>
<!-- ip6_input -->
<g id="node15" class="node">
<title>ip6_input</title>
<ellipse fill="none" stroke="black" cx="1358.31" cy="-270" rx="29.41" ry="18"/>
<text text-anchor="middle" x="1358.31" y="-266.3" font-family="sans" font-size="11.00">ip6_input</text>
</g>
<!-- eth_input&#45;&gt;ip6_input -->
<g id="edge13" class="edge">
<title>eth_input&#45;&gt;ip6_input</title>
<path fill="none" stroke="black" d="M319.86,-472.3C358.33,-440.2 455.06,-363.19 547.73,-319 723.63,-235.13 773.12,-194 967.99,-194 967.99,-194 967.99,-194 1114.5,-194 1193.22,-194 1280.01,-230.83 1325.49,-253.21"/>
<polygon fill="black" stroke="black" points="1323.74,-256.25 1334.25,-257.61 1326.88,-250 1323.74,-256.25"/>
</g>
<!-- arp_input_request -->
<g id="node22" class="node">
<title>arp_input_request</title>
<ellipse fill="none" stroke="black" cx="2156.75" cy="-713" rx="56.78" ry="18"/>
<text text-anchor="middle" x="2156.75" y="-709.3" font-family="sans" font-size="11.00">arp_input_request</text>
</g>
<!-- arp_input&#45;&gt;arp_input_request -->
<g id="edge22" class="edge">
<title>arp_input&#45;&gt;arp_input_request</title>
<path fill="none" stroke="black" d="M2038.04,-669.35C2057.34,-676.51 2084.53,-686.59 2107.92,-695.26"/>
<polygon fill="black" stroke="black" points="2106.69,-698.54 2117.28,-698.73 2109.12,-691.98 2106.69,-698.54"/>
</g>
<!-- arp_input_reply -->
<g id="node23" class="node">
<title>arp_input_reply</title>
<ellipse fill="none" stroke="black" cx="2156.75" cy="-659" rx="48.78" ry="18"/>
<text text-anchor="middle" x="2156.75" y="-655.3" font-family="sans" font-size="11.00">arp_input_reply</text>
</g>
<!-- arp_input&#45;&gt;arp_input_reply -->
<g id="edge23" class="edge">
<title>arp_input&#45;&gt;arp_input_reply</title>
<path fill="none" stroke="black" d="M2042.43,-659.79C2058.01,-659.68 2077.68,-659.55 2096.24,-659.42"/>
<polygon fill="black" stroke="black" points="2096.12,-662.92 2106.09,-659.35 2096.07,-655.92 2096.12,-662.92"/>
</g>
<!-- ip_input&#45;&gt;ip_output -->
<g id="edge36" class="edge">
<title>ip_input&#45;&gt;ip_output</title>
<path fill="none" stroke="black" d="M466.75,-472.51C484.8,-456.35 516.23,-430.58 547.73,-416 700.19,-345.43 748.97,-350.58 915.58,-329 969.17,-322.06 1031.64,-321.78 1071.6,-322.59"/>
<polygon fill="black" stroke="black" points="1071.41,-326.08 1081.49,-322.82 1071.57,-319.08 1071.41,-326.08"/>
</g>
<!-- ip_forward -->
<g id="node26" class="node">
<title>ip_forward</title>
<ellipse fill="none" stroke="black" cx="730.92" cy="-533" rx="33.62" ry="18"/>
<text text-anchor="middle" x="730.92" y="-529.3" font-family="sans" font-size="11.00">ip_forward</text>
</g>
<!-- ip_input&#45;&gt;ip_forward -->
<g id="edge34" class="edge">
<title>ip_input&#45;&gt;ip_forward</title>
<path fill="none" stroke="black" d="M477.03,-491.25C525.02,-499.17 628.66,-516.28 687.27,-525.96"/>
<polygon fill="black" stroke="black" points="686.44,-529.37 696.87,-527.54 687.58,-522.46 686.44,-529.37"/>
</g>
<!-- dnat44_dynamic -->
<g id="node28" class="node">
<title>dnat44_dynamic</title>
<ellipse fill="none" stroke="black" cx="599.88" cy="-606" rx="52.15" ry="18"/>
<text text-anchor="middle" x="599.88" y="-602.3" font-family="sans" font-size="11.00">dnat44_dynamic</text>
</g>
<!-- ip_input&#45;&gt;dnat44_dynamic -->
<g id="edge35" class="edge">
<title>ip_input&#45;&gt;dnat44_dynamic</title>
<path fill="none" stroke="black" d="M464.9,-502.37C482.64,-521.82 515.24,-555.62 547.73,-579 551.07,-581.4 554.64,-583.72 558.29,-585.93"/>
<polygon fill="black" stroke="black" points="556.3,-588.82 566.72,-590.73 559.77,-582.74 556.3,-588.82"/>
</g>
<!-- ip_input_local -->
<g id="node29" class="node">
<title>ip_input_local</title>
<ellipse fill="none" stroke="black" cx="730.92" cy="-606" rx="42.89" ry="18"/>
<text text-anchor="middle" x="730.92" y="-602.3" font-family="sans" font-size="11.00">ip_input_local</text>
</g>
<!-- ip_input&#45;&gt;ip_input_local -->
<g id="edge37" class="edge">
<title>ip_input&#45;&gt;ip_input_local</title>
<path fill="none" stroke="black" d="M456.84,-504.89C467.97,-537.41 496.51,-605.44 547.73,-633 593.16,-657.44 653.69,-640.35 692.24,-624.37"/>
<polygon fill="black" stroke="black" points="693.33,-627.72 701.11,-620.53 690.55,-621.29 693.33,-627.72"/>
</g>
<!-- dnat44_static -->
<g id="node30" class="node">
<title>dnat44_static</title>
<ellipse fill="none" stroke="black" cx="599.88" cy="-552" rx="43.31" ry="18"/>
<text text-anchor="middle" x="599.88" y="-548.3" font-family="sans" font-size="11.00">dnat44_static</text>
</g>
<!-- ip_input&#45;&gt;dnat44_static -->
<g id="edge38" class="edge">
<title>ip_input&#45;&gt;dnat44_static</title>
<path fill="none" stroke="black" d="M473.41,-496.73C495.91,-506.64 531.3,-522.23 558.77,-534.33"/>
<polygon fill="black" stroke="black" points="557.29,-537.5 567.85,-538.33 560.11,-531.1 557.29,-537.5"/>
</g>
<!-- ip6_input&#45;&gt;ip6_output -->
<g id="edge57" class="edge">
<title>ip6_input&#45;&gt;ip6_output</title>
<path fill="none" stroke="black" d="M1383.84,-260.42C1399.78,-254.56 1421.13,-247.36 1440.57,-243 1508.93,-227.65 1527,-224 1597.07,-224 1597.07,-224 1597.07,-224 1724.63,-224 1809.98,-224 1909.65,-224 1965.99,-224"/>
<polygon fill="black" stroke="black" points="1965.82,-227.5 1975.82,-224 1965.82,-220.5 1965.82,-227.5"/>
</g>
<!-- ip6_forward -->
<g id="node40" class="node">
<title>ip6_forward</title>
<ellipse fill="none" stroke="black" cx="1477.98" cy="-270" rx="37.41" ry="18"/>
<text text-anchor="middle" x="1477.98" y="-266.3" font-family="sans" font-size="11.00">ip6_forward</text>
</g>
<!-- ip6_input&#45;&gt;ip6_forward -->
<g id="edge56" class="edge">
<title>ip6_input&#45;&gt;ip6_forward</title>
<path fill="none" stroke="black" d="M1388.1,-270C1400.43,-270 1415.17,-270 1429.07,-270"/>
<polygon fill="black" stroke="black" points="1428.96,-273.5 1438.96,-270 1428.96,-266.5 1428.96,-273.5"/>
</g>
<!-- ip6_input_local -->
<g id="node42" class="node">
<title>ip6_input_local</title>
<ellipse fill="none" stroke="black" cx="1598.07" cy="-381" rx="46.68" ry="18"/>
<text text-anchor="middle" x="1598.07" y="-377.3" font-family="sans" font-size="11.00">ip6_input_local</text>
</g>
<!-- ip6_input&#45;&gt;ip6_input_local -->
<g id="edge58" class="edge">
<title>ip6_input&#45;&gt;ip6_input_local</title>
<path fill="none" stroke="black" d="M1384.04,-279.25C1415.16,-291.13 1470.02,-312.87 1515.39,-335 1530.93,-342.58 1547.64,-351.79 1561.86,-359.97"/>
<polygon fill="black" stroke="black" points="1560.02,-362.95 1570.43,-364.95 1563.54,-356.89 1560.02,-362.95"/>
</g>
<!-- sr6_local -->
<g id="node43" class="node">
<title>sr6_local</title>
<ellipse fill="none" stroke="black" cx="1477.98" cy="-362" rx="28.57" ry="18"/>
<text text-anchor="middle" x="1477.98" y="-358.3" font-family="sans" font-size="11.00">sr6_local</text>
</g>
<!-- ip6_input&#45;&gt;sr6_local -->
<g id="edge59" class="edge">
<title>ip6_input&#45;&gt;sr6_local</title>
<path fill="none" stroke="black" d="M1381.17,-281.7C1402.11,-296.27 1433.55,-320.84 1454.64,-339.1"/>
<polygon fill="black" stroke="black" points="1452.05,-341.48 1461.86,-345.5 1456.69,-336.25 1452.05,-341.48"/>
</g>
<!-- port_tx -->
<g id="node17" class="node">
<title>port_tx</title>
<ellipse fill="none" stroke="black" cx="2295.79" cy="-804" rx="27" ry="18"/>
<text text-anchor="middle" x="2295.79" y="-800.3" font-family="sans" font-size="11.00">port_tx</text>
</g>
<!-- eth_output&#45;&gt;port_tx -->
<g id="edge14" class="edge">
<title>eth_output&#45;&gt;port_tx</title>
<path fill="none" stroke="black" d="M2188.16,-775.21C2209.25,-780.9 2237.39,-788.5 2259.47,-794.46"/>
<polygon fill="black" stroke="black" points="2258.37,-797.79 2268.93,-797.02 2260.19,-791.03 2258.37,-797.79"/>
</g>
<!-- l1_xconnect -->
<g id="node18" class="node">
<title>l1_xconnect</title>
<ellipse fill="none" stroke="black" cx="450.32" cy="-712" rx="38.25" ry="18"/>
<text text-anchor="middle" x="450.32" y="-708.3" font-family="sans" font-size="11.00">l1_xconnect</text>
</g>
<!-- l1_xconnect&#45;&gt;port_tx -->
<g id="edge15" class="edge">
<title>l1_xconnect&#45;&gt;port_tx</title>
<path fill="none" stroke="black" d="M488.23,-715.47C541.54,-720.18 643.2,-728 729.92,-728 729.92,-728 729.92,-728 1478.98,-728 1656.63,-728 1684.44,-842 1862.09,-842 1862.09,-842 1862.09,-842 2012.82,-842 2101.68,-842 2204.89,-823.24 2258.41,-812.08"/>
<polygon fill="black" stroke="black" points="2259.13,-815.5 2268.19,-810 2257.68,-808.66 2259.13,-815.5"/>
</g>
<!-- loopback_output -->
<g id="node19" class="node">
<title>loopback_output</title>
<ellipse fill="none" stroke="black" cx="2011.82" cy="-568" rx="52.15" ry="18"/>
<text text-anchor="middle" x="2011.82" y="-564.3" font-family="sans" font-size="11.00">loopback_output</text>
</g>
<!-- loopback_output&#45;&gt;control_output -->
<g id="edge17" class="edge">
<title>loopback_output&#45;&gt;control_output</title>
<path fill="none" stroke="black" d="M2062.57,-563.26C2103.6,-558.59 2163.06,-550.07 2213.53,-536 2227.28,-532.17 2241.86,-526.71 2254.81,-521.34"/>
<polygon fill="black" stroke="black" points="2256.04,-524.63 2263.87,-517.48 2253.3,-518.19 2256.04,-524.63"/>
</g>
<!-- loop_xvrf&#45;&gt;ip_input -->
<g id="edge18" class="edge">
<title>loop_xvrf&#45;&gt;ip_input</title>
<path fill="none" stroke="black" d="M1210.77,-266.74C1111.14,-256.81 772.85,-235.28 547.73,-370 511.08,-391.93 482.16,-433.07 465.89,-460.25"/>
<polygon fill="black" stroke="black" points="463.03,-458.2 461.04,-468.61 469.09,-461.71 463.03,-458.2"/>
</g>
<!-- loop_xvrf&#45;&gt;ip6_input -->
<g id="edge19" class="edge">
<title>loop_xvrf&#45;&gt;ip6_input</title>
<path fill="none" stroke="black" d="M1270.6,-270C1284.72,-270 1301.87,-270 1317.19,-270"/>
<polygon fill="black" stroke="black" points="1316.94,-273.5 1326.94,-270 1316.94,-266.5 1316.94,-273.5"/>
</g>
<!-- port_rx -->
<g id="node21" class="node">
<title>port_rx</title>
<ellipse fill="none" stroke="blue" stroke-width="2" cx="166.76" cy="-536" rx="27" ry="18"/>
<text text-anchor="middle" x="166.76" y="-532.3" font-family="sans" font-size="11.00">port_rx</text>
</g>
<!-- port_rx&#45;&gt;eth_input -->
<g id="edge20" class="edge">
<title>port_rx&#45;&gt;eth_input</title>
<path fill="none" stroke="blue" stroke-width="2" d="M190.9,-527.46C211.31,-519.94 241.36,-508.85 264.86,-500.18"/>
<polygon fill="blue" stroke="blue" stroke-width="2" points="264.45,-504.06 272.62,-497.32 262.03,-497.5 264.45,-504.06"/>
</g>
<!-- port_rx&#45;&gt;l1_xconnect -->
<g id="edge21" class="edge">
<title>port_rx&#45;&gt;l1_xconnect</title>
<path fill="none" stroke="blue" stroke-width="2" d="M189.35,-546.55C225.01,-564.45 297.74,-602.92 352.9,-645 370.64,-658.54 370.86,-666.87 388.9,-680 395.97,-685.15 403.98,-689.98 411.8,-694.26"/>
<polygon fill="blue" stroke="blue" stroke-width="2" points="408.71,-696.59 419.19,-698.14 411.96,-690.39 408.71,-696.59"/>
</g>
<!-- arp_input_request&#45;&gt;control_output -->
<g id="edge25" class="edge">
<title>arp_input_request&#45;&gt;control_output</title>
<path fill="none" stroke="black" d="M2195.3,-699.37C2201.94,-695.76 2208.37,-691.34 2213.53,-686 2256.14,-641.97 2278.6,-571.81 2288.45,-532.38"/>
<polygon fill="black" stroke="black" points="2291.85,-533.21 2290.76,-522.67 2285.04,-531.59 2291.85,-533.21"/>
</g>
<!-- arp_input_reply&#45;&gt;control_output -->
<g id="edge24" class="edge">
<title>arp_input_reply&#45;&gt;control_output</title>
<path fill="none" stroke="black" d="M2188.18,-644.94C2196.95,-640.03 2206.14,-633.97 2213.53,-627 2243.3,-598.95 2267.42,-557.94 2281.43,-530.88"/>
<polygon fill="black" stroke="black" points="2284.41,-532.75 2285.79,-522.25 2278.16,-529.6 2284.41,-532.75"/>
</g>
<!-- icmp_input -->
<g id="node24" class="node">
<title>icmp_input</title>
<ellipse fill="none" stroke="black" cx="844.69" cy="-606" rx="34.89" ry="18"/>
<text text-anchor="middle" x="844.69" y="-602.3" font-family="sans" font-size="11.00">icmp_input</text>
</g>
<!-- icmp_input&#45;&gt;control_output -->
<g id="edge29" class="edge">
<title>icmp_input&#45;&gt;control_output</title>
<path fill="none" stroke="black" d="M879.8,-607.68C930.52,-610.02 1028.86,-614 1112.5,-614 1112.5,-614 1112.5,-614 1241.33,-614 1607.04,-614 1701.03,-639.98 2063.97,-595 2131.62,-586.62 2151.34,-588.9 2213.53,-561 2232.92,-552.3 2252.36,-538.64 2267.37,-526.76"/>
<polygon fill="black" stroke="black" points="2269.38,-529.64 2274.93,-520.61 2264.96,-524.21 2269.38,-529.64"/>
</g>
<!-- icmp_input&#45;&gt;icmp_output -->
<g id="edge28" class="edge">
<title>icmp_input&#45;&gt;icmp_output</title>
<path fill="none" stroke="black" d="M855.7,-588.49C876.93,-551.34 926.63,-464.38 952.19,-419.65"/>
<polygon fill="black" stroke="black" points="955.17,-421.49 957.09,-411.07 949.09,-418.01 955.17,-421.49"/>
</g>
<!-- icmp_output&#45;&gt;ip_output -->
<g id="edge31" class="edge">
<title>icmp_output&#45;&gt;ip_output</title>
<path fill="none" stroke="black" d="M997.13,-379.05C1020.45,-367.92 1054.16,-351.84 1079.13,-339.93"/>
<polygon fill="black" stroke="black" points="1080.35,-343.22 1087.87,-335.75 1077.34,-336.9 1080.35,-343.22"/>
</g>
<!-- ip_forward&#45;&gt;ip_output -->
<g id="edge32" class="edge">
<title>ip_forward&#45;&gt;ip_output</title>
<path fill="none" stroke="black" d="M744.82,-516.26C772.24,-481.97 839.99,-403.69 915.58,-365 965.48,-339.46 1030.23,-329.83 1071.59,-326.2"/>
<polygon fill="black" stroke="black" points="1071.66,-329.7 1081.35,-325.42 1071.11,-322.72 1071.66,-329.7"/>
</g>
<!-- ip_hold&#45;&gt;control_output -->
<g id="edge33" class="edge">
<title>ip_hold&#45;&gt;control_output</title>
<path fill="none" stroke="black" d="M1384.13,-493.92C1427.2,-503.66 1518.68,-522 1597.07,-522 1597.07,-522 1597.07,-522 2012.82,-522 2091.77,-522 2182.87,-514.49 2239.66,-508.92"/>
<polygon fill="black" stroke="black" points="2239.79,-512.42 2249.39,-507.94 2239.09,-505.46 2239.79,-512.42"/>
</g>
<!-- dnat44_dynamic&#45;&gt;ip_forward -->
<g id="edge75" class="edge">
<title>dnat44_dynamic&#45;&gt;ip_forward</title>
<path fill="none" stroke="black" d="M629.96,-590.96C637.21,-587.13 644.93,-582.97 652.03,-579 667.37,-570.43 684.17,-560.57 698.23,-552.18"/>
<polygon fill="black" stroke="black" points="699.85,-555.29 706.63,-547.15 696.25,-549.29 699.85,-555.29"/>
</g>
<!-- dnat44_dynamic&#45;&gt;ip_input_local -->
<g id="edge76" class="edge">
<title>dnat44_dynamic&#45;&gt;ip_input_local</title>
<path fill="none" stroke="black" d="M652.25,-606C660.19,-606 668.4,-606 676.38,-606"/>
<polygon fill="black" stroke="black" points="676.33,-609.5 686.33,-606 676.33,-602.5 676.33,-609.5"/>
</g>
<!-- ip_input_local&#45;&gt;icmp_input -->
<g id="edge39" class="edge">
<title>ip_input_local&#45;&gt;icmp_input</title>
<path fill="none" stroke="black" d="M774.18,-606C781.99,-606 790.17,-606 798.07,-606"/>
<polygon fill="black" stroke="black" points="797.86,-609.5 807.86,-606 797.86,-602.5 797.86,-609.5"/>
</g>
<!-- ipip_input -->
<g id="node31" class="node">
<title>ipip_input</title>
<ellipse fill="none" stroke="black" cx="844.69" cy="-516" rx="31.1" ry="18"/>
<text text-anchor="middle" x="844.69" y="-512.3" font-family="sans" font-size="11.00">ipip_input</text>
</g>
<!-- ip_input_local&#45;&gt;ipip_input -->
<g id="edge40" class="edge">
<title>ip_input_local&#45;&gt;ipip_input</title>
<path fill="none" stroke="black" d="M751.9,-589.91C770.01,-575.33 796.83,-553.73 816.81,-537.64"/>
<polygon fill="black" stroke="black" points="818.96,-540.41 824.55,-531.41 814.57,-534.96 818.96,-540.41"/>
</g>
<!-- l4_input_local -->
<g id="node32" class="node">
<title>l4_input_local</title>
<ellipse fill="none" stroke="black" cx="1723.63" cy="-568" rx="42.89" ry="18"/>
<text text-anchor="middle" x="1723.63" y="-564.3" font-family="sans" font-size="11.00">l4_input_local</text>
</g>
<!-- ip_input_local&#45;&gt;l4_input_local -->
<g id="edge41" class="edge">
<title>ip_input_local&#45;&gt;l4_input_local</title>
<path fill="none" stroke="black" d="M762.93,-618.46C777.03,-623.68 794.05,-629.37 809.81,-633 878.81,-648.91 897.18,-652 967.99,-652 967.99,-652 967.99,-652 1241.33,-652 1403.52,-652 1591.94,-605.14 1676.92,-581.42"/>
<polygon fill="black" stroke="black" points="1677.84,-584.79 1686.51,-578.71 1675.94,-578.06 1677.84,-584.79"/>
</g>
<!-- dnat44_static&#45;&gt;ip_forward -->
<g id="edge77" class="edge">
<title>dnat44_static&#45;&gt;ip_forward</title>
<path fill="none" stroke="black" d="M641,-546.09C655.62,-543.94 672.21,-541.5 687.06,-539.31"/>
<polygon fill="black" stroke="black" points="687.13,-542.84 696.52,-537.92 686.11,-535.91 687.13,-542.84"/>
</g>
<!-- dnat44_static&#45;&gt;ip_input_local -->
<g id="edge78" class="edge">
<title>dnat44_static&#45;&gt;ip_input_local</title>
<path fill="none" stroke="black" d="M631.46,-564.8C648.66,-571.99 670.35,-581.07 688.99,-588.87"/>
<polygon fill="black" stroke="black" points="687.59,-592.08 698.16,-592.71 690.29,-585.62 687.59,-592.08"/>
</g>
<!-- ipip_input&#45;&gt;ip_input -->
<g id="edge71" class="edge">
<title>ipip_input&#45;&gt;ip_input</title>
<path fill="none" stroke="black" d="M814.17,-511.22C801.74,-509.35 787.1,-507.34 773.81,-506 671.01,-495.64 549.16,-490.35 488.92,-488.2"/>
<polygon fill="black" stroke="black" points="489.34,-484.71 479.22,-487.86 489.1,-491.71 489.34,-484.71"/>
</g>
<!-- l4_loopback_output -->
<g id="node44" class="node">
<title>l4_loopback_output</title>
<ellipse fill="none" stroke="black" cx="1863.09" cy="-568" rx="60.57" ry="18"/>
<text text-anchor="middle" x="1863.09" y="-564.3" font-family="sans" font-size="11.00">l4_loopback_output</text>
</g>
<!-- l4_input_local&#45;&gt;l4_loopback_output -->
<g id="edge73" class="edge">
<title>l4_input_local&#45;&gt;l4_loopback_output</title>
<path fill="none" stroke="black" d="M1767,-568C1774.56,-568 1782.62,-568 1790.73,-568"/>
<polygon fill="black" stroke="black" points="1790.67,-571.5 1800.67,-568 1790.67,-564.5 1790.67,-571.5"/>
</g>
<!-- ipip_output&#45;&gt;ip_output -->
<g id="edge72" class="edge">
<title>ipip_output&#45;&gt;ip_output</title>
<path fill="none" stroke="black" d="M1206.1,-330.05C1189.98,-330.88 1170.51,-330.97 1153.68,-330.32"/>
<polygon fill="black" stroke="black" points="1154.2,-326.84 1144.03,-329.82 1153.84,-333.83 1154.2,-326.84"/>
</g>
<!-- sr6_output&#45;&gt;ip6_output -->
<g id="edge82" class="edge">
<title>sr6_output&#45;&gt;ip6_output</title>
<path fill="none" stroke="black" d="M2124.03,-271.74C2100.64,-264.26 2068.93,-252.29 2045.35,-242.06"/>
<polygon fill="black" stroke="black" points="2047.09,-239 2036.53,-238.12 2044.23,-245.39 2047.09,-239"/>
</g>
<!-- icmp6_input -->
<g id="node35" class="node">
<title>icmp6_input</title>
<ellipse fill="none" stroke="black" cx="1723.63" cy="-390" rx="38.68" ry="18"/>
<text text-anchor="middle" x="1723.63" y="-386.3" font-family="sans" font-size="11.00">icmp6_input</text>
</g>
<!-- icmp6_input&#45;&gt;control_output -->
<g id="edge51" class="edge">
<title>icmp6_input&#45;&gt;control_output</title>
<path fill="none" stroke="black" d="M1740.95,-406.28C1755.69,-419.91 1778.68,-438.6 1802.52,-448 1951.54,-506.78 2144.34,-509.14 2238.3,-506.06"/>
<polygon fill="black" stroke="black" points="2238.43,-509.56 2248.29,-505.7 2238.17,-502.56 2238.43,-509.56"/>
</g>
<!-- icmp6_input&#45;&gt;icmp6_output -->
<g id="edge47" class="edge">
<title>icmp6_input&#45;&gt;icmp6_output</title>
<path fill="none" stroke="black" d="M1734.3,-372.42C1757.85,-329.58 1818.37,-219.52 1846.85,-167.73"/>
<polygon fill="black" stroke="black" points="1849.77,-169.67 1851.52,-159.22 1843.64,-166.3 1849.77,-169.67"/>
</g>
<!-- ndp_ns_input -->
<g id="node37" class="node">
<title>ndp_ns_input</title>
<ellipse fill="none" stroke="black" cx="2011.82" cy="-438" rx="41.62" ry="18"/>
<text text-anchor="middle" x="2011.82" y="-434.3" font-family="sans" font-size="11.00">ndp_ns_input</text>
</g>
<!-- icmp6_input&#45;&gt;ndp_ns_input -->
<g id="edge48" class="edge">
<title>icmp6_input&#45;&gt;ndp_ns_input</title>
<path fill="none" stroke="black" d="M1748.27,-404.22C1763.25,-412.46 1783.36,-422.15 1802.52,-427 1854.5,-440.17 1916.04,-441.78 1958.69,-440.8"/>
<polygon fill="black" stroke="black" points="1958.78,-444.3 1968.68,-440.51 1958.58,-437.31 1958.78,-444.3"/>
</g>
<!-- ndp_na_input -->
<g id="node38" class="node">
<title>ndp_na_input</title>
<ellipse fill="none" stroke="black" cx="1863.09" cy="-400" rx="42.04" ry="18"/>
<text text-anchor="middle" x="1863.09" y="-396.3" font-family="sans" font-size="11.00">ndp_na_input</text>
</g>
<!-- icmp6_input&#45;&gt;ndp_na_input -->
<g id="edge49" class="edge">
<title>icmp6_input&#45;&gt;ndp_na_input</title>
<path fill="none" stroke="black" d="M1762.19,-392.73C1776.91,-393.8 1794.04,-395.05 1809.91,-396.2"/>
<polygon fill="black" stroke="black" points="1809.46,-399.68 1819.69,-396.92 1809.97,-392.7 1809.46,-399.68"/>
</g>
<!-- ndp_rs_input -->
<g id="node39" class="node">
<title>ndp_rs_input</title>
<ellipse fill="none" stroke="black" cx="1863.09" cy="-346" rx="40.36" ry="18"/>
<text text-anchor="middle" x="1863.09" y="-342.3" font-family="sans" font-size="11.00">ndp_rs_input</text>
</g>
<!-- icmp6_input&#45;&gt;ndp_rs_input -->
<g id="edge50" class="edge">
<title>icmp6_input&#45;&gt;ndp_rs_input</title>
<path fill="none" stroke="black" d="M1756.17,-379.91C1774.76,-373.95 1798.55,-366.34 1818.87,-359.83"/>
<polygon fill="black" stroke="black" points="1819.85,-363.2 1828.31,-356.81 1817.72,-356.53 1819.85,-363.2"/>
</g>
<!-- icmp6_output&#45;&gt;ip6_output -->
<g id="edge52" class="edge">
<title>icmp6_output&#45;&gt;ip6_output</title>
<path fill="none" stroke="black" d="M1890.92,-154.08C1901.22,-159.57 1913.04,-165.98 1923.67,-172 1942.2,-182.5 1962.67,-194.68 1979.11,-204.61"/>
<polygon fill="black" stroke="black" points="1977.11,-207.5 1987.47,-209.69 1980.74,-201.51 1977.11,-207.5"/>
</g>
<!-- ndp_ns_input&#45;&gt;control_output -->
<g id="edge68" class="edge">
<title>ndp_ns_input&#45;&gt;control_output</title>
<path fill="none" stroke="black" d="M2053,-441.69C2093.94,-446.07 2158.98,-454.79 2213.53,-470 2227.28,-473.83 2241.86,-479.29 2254.81,-484.66"/>
<polygon fill="black" stroke="black" points="2253.3,-487.81 2263.87,-488.52 2256.04,-481.37 2253.3,-487.81"/>
</g>
<!-- ndp_na_input&#45;&gt;control_output -->
<g id="edge66" class="edge">
<title>ndp_na_input&#45;&gt;control_output</title>
<path fill="none" stroke="black" d="M1905.19,-397.6C1972.71,-395.27 2109.95,-397.42 2213.53,-444 2233.15,-452.82 2252.74,-466.85 2267.76,-479.01"/>
<polygon fill="black" stroke="black" points="2265.4,-481.6 2275.32,-485.31 2269.88,-476.22 2265.4,-481.6"/>
</g>
<!-- ndp_rs_input&#45;&gt;control_output -->
<g id="edge70" class="edge">
<title>ndp_rs_input&#45;&gt;control_output</title>
<path fill="none" stroke="black" d="M1903.7,-344.44C1971.72,-343.51 2113.09,-349.41 2213.53,-407 2241.95,-423.29 2264.97,-453.46 2279.15,-475.64"/>
<polygon fill="black" stroke="black" points="2276.02,-477.23 2284.24,-483.91 2281.98,-473.56 2276.02,-477.23"/>
</g>
<!-- ip6_forward&#45;&gt;ip6_output -->
<g id="edge54" class="edge">
<title>ip6_forward&#45;&gt;ip6_output</title>
<path fill="none" stroke="black" d="M1515.69,-268.45C1591.9,-264.98 1772.78,-255.51 1923.67,-238 1938.06,-236.33 1953.7,-233.98 1967.71,-231.69"/>
<polygon fill="black" stroke="black" points="1968.26,-235.15 1977.54,-230.04 1967.1,-228.24 1968.26,-235.15"/>
</g>
<!-- ip6_hold&#45;&gt;control_output -->
<g id="edge55" class="edge">
<title>ip6_hold&#45;&gt;control_output</title>
<path fill="none" stroke="black" d="M2182.2,-230.94C2193.12,-235.16 2205.34,-241.58 2213.53,-251 2270.51,-316.5 2287.65,-422.51 2292.71,-473.61"/>
<polygon fill="black" stroke="black" points="2289.2,-473.63 2293.58,-483.28 2296.17,-473.01 2289.2,-473.63"/>
</g>
<!-- ip6_input_local&#45;&gt;l4_input_local -->
<g id="edge61" class="edge">
<title>ip6_input_local&#45;&gt;l4_input_local</title>
<path fill="none" stroke="black" d="M1610.69,-398.59C1632.4,-431.45 1679.23,-502.32 1704.91,-541.17"/>
<polygon fill="black" stroke="black" points="1701.68,-542.64 1710.11,-549.06 1707.52,-538.78 1701.68,-542.64"/>
</g>
<!-- ip6_input_local&#45;&gt;icmp6_input -->
<g id="edge60" class="edge">
<title>ip6_input_local&#45;&gt;icmp6_input</title>
<path fill="none" stroke="black" d="M1644.38,-384.3C1653.88,-384.99 1663.94,-385.72 1673.57,-386.43"/>
<polygon fill="black" stroke="black" points="1673.3,-389.92 1683.52,-387.15 1673.8,-382.93 1673.3,-389.92"/>
</g>
<!-- sr6_local&#45;&gt;ip_input -->
<g id="edge79" class="edge">
<title>sr6_local&#45;&gt;ip_input</title>
<path fill="none" stroke="black" d="M1449.57,-365.5C1378.86,-374.51 1184.45,-399.19 1022.41,-419 821.08,-443.61 579.69,-471.98 488.57,-482.65"/>
<polygon fill="black" stroke="black" points="488.25,-479.16 478.73,-483.8 489.06,-486.11 488.25,-479.16"/>
</g>
<!-- sr6_local&#45;&gt;ip6_input -->
<g id="edge80" class="edge">
<title>sr6_local&#45;&gt;ip6_input</title>
<path fill="none" stroke="black" d="M1455.47,-350.54C1434.53,-336 1402.87,-311.27 1381.66,-292.9"/>
<polygon fill="black" stroke="black" points="1384.21,-290.49 1374.41,-286.47 1379.57,-295.73 1384.21,-290.49"/>
</g>
<!-- sr6_local&#45;&gt;ip6_input_local -->
<g id="edge81" class="edge">
<title>sr6_local&#45;&gt;ip6_input_local</title>
<path fill="none" stroke="black" d="M1506.07,-366.36C1517.13,-368.14 1530.33,-370.26 1543.2,-372.33"/>
<polygon fill="black" stroke="black" points="1542.44,-375.76 1552.87,-373.89 1543.55,-368.84 1542.44,-375.76"/>
</g>
<!-- l4_loopback_output&#45;&gt;loopback_output -->
<g id="edge74" class="edge">
<title>l4_loopback_output&#45;&gt;loopback_output</title>
<path fill="none" stroke="black" d="M1923.77,-568C1931.66,-568 1939.77,-568 1947.71,-568"/>
<polygon fill="black" stroke="black" points="1947.68,-571.5 1957.68,-568 1947.68,-564.5 1947.68,-571.5"/>
</g>
</g>
</svg>
