<?xml version="1.0" encoding="UTF-8" standalone="no"?>
<!DOCTYPE svg PUBLIC "-//W3C//DTD SVG 1.1//EN"
 "http://www.w3.org/Graphics/SVG/1.1/DTD/svg11.dtd">
<!-- Generated by graphviz version 2.44.0 (0)
 -->
<!-- Title: gr&#45;0005 Pages: 1 -->
<svg width="1175pt" height="696pt"
 viewBox="0.00 0.00 1175.21 696.00" xmlns="http://www.w3.org/2000/svg" xmlns:xlink="http://www.w3.org/1999/xlink">
<g id="graph0" class="graph" transform="scale(1 1) rotate(0) translate(4 692)">
<title>gr&#45;0005</title>
<polygon fill="white" stroke="transparent" points="-4,4 -4,-692 1171.21,-692 1171.21,4 -4,4"/>
<!-- control_input -->
<g id="node1" class="node">
<title>control_input</title>
<ellipse fill="none" stroke="blue" stroke-width="2" cx="40.16" cy="-405" rx="40.32" ry="18"/>
<text text-anchor="middle" x="40.16" y="-402.2" font-family="sans" font-size="11.00">control_input</text>
</g>
<!-- loopback_input -->
<g id="node2" class="node">
<title>loopback_input</title>
<ellipse fill="none" stroke="black" cx="161.91" cy="-378" rx="45.68" ry="18"/>
<text text-anchor="middle" x="161.91" y="-375.2" font-family="sans" font-size="11.00">loopback_input</text>
</g>
<!-- control_input&#45;&gt;loopback_input -->
<g id="edge1" class="edge">
<title>control_input&#45;&gt;loopback_input</title>
<path fill="none" stroke="blue" stroke-width="2" d="M76.44,-397.05C87.55,-394.54 100.01,-391.73 111.89,-389.05"/>
<polygon fill="blue" stroke="blue" stroke-width="2" points="112.7,-392.46 121.69,-386.84 111.17,-385.63 112.7,-392.46"/>
</g>
<!-- arp_output_request -->
<g id="node3" class="node">
<title>arp_output_request</title>
<ellipse fill="none" stroke="black" cx="302.66" cy="-650" rx="59.31" ry="18"/>
<text text-anchor="middle" x="302.66" y="-647.2" font-family="sans" font-size="11.00">arp_output_request</text>
</g>
<!-- control_input&#45;&gt;arp_output_request -->
<g id="edge2" class="edge">
<title>control_input&#45;&gt;arp_output_request</title>
<path fill="none" stroke="blue" stroke-width="2" d="M55.82,-422.03C63.97,-432.21 73.76,-445.71 80.32,-459 105.15,-509.32 78.1,-538.92 116.32,-580 148.07,-614.12 198.14,-631.73 238.24,-640.75"/>
<polygon fill="blue" stroke="blue" stroke-width="2" points="237.69,-644.22 248.2,-642.87 239.15,-637.37 237.69,-644.22"/>
</g>
<!-- icmp_local_send -->
<g id="node4" class="node">
<title>icmp_local_send</title>
<ellipse fill="none" stroke="black" cx="302.66" cy="-103" rx="49.28" ry="18"/>
<text text-anchor="middle" x="302.66" y="-100.2" font-family="sans" font-size="11.00">icmp_local_send</text>
</g>
<!-- control_input&#45;&gt;icmp_local_send -->
<g id="edge3" class="edge">
<title>control_input&#45;&gt;icmp_local_send</title>
<path fill="none" stroke="blue" stroke-width="2" d="M54.79,-388.04C86.89,-348.24 170.09,-246.03 243.5,-164 254.6,-151.6 267.32,-138.17 278.02,-127.08"/>
<polygon fill="blue" stroke="blue" stroke-width="2" points="280.62,-129.44 285.07,-119.82 275.59,-124.56 280.62,-129.44"/>
</g>
<!-- ndp_ns_output -->
<g id="node5" class="node">
<title>ndp_ns_output</title>
<ellipse fill="none" stroke="black" cx="161.91" cy="-432" rx="44.51" ry="18"/>
<text text-anchor="middle" x="161.91" y="-429.2" font-family="sans" font-size="11.00">ndp_ns_output</text>
</g>
<!-- control_input&#45;&gt;ndp_ns_output -->
<g id="edge4" class="edge">
<title>control_input&#45;&gt;ndp_ns_output</title>
<path fill="none" stroke="blue" stroke-width="2" d="M76.44,-412.95C87.76,-415.51 100.5,-418.38 112.58,-421.1"/>
<polygon fill="blue" stroke="blue" stroke-width="2" points="112.01,-424.56 122.54,-423.35 113.55,-417.73 112.01,-424.56"/>
</g>
<!-- ip_output -->
<g id="node6" class="node">
<title>ip_output</title>
<ellipse fill="none" stroke="black" cx="846.64" cy="-114" rx="29.12" ry="18"/>
<text text-anchor="middle" x="846.64" y="-111.2" font-family="sans" font-size="11.00">ip_output</text>
</g>
<!-- control_input&#45;&gt;ip_output -->
<g id="edge5" class="edge">
<title>control_input&#45;&gt;ip_output</title>
<path fill="none" stroke="blue" stroke-width="2" d="M43.7,-386.81C55.79,-308.01 115.02,0 301.66,0 301.66,0 301.66,0 566.15,0 665.31,0 770.58,-62.28 818.75,-94.78"/>
<polygon fill="blue" stroke="blue" stroke-width="2" points="816.84,-97.71 827.07,-100.48 820.8,-91.93 816.84,-97.71"/>
</g>
<!-- ip6_output -->
<g id="node7" class="node">
<title>ip6_output</title>
<ellipse fill="none" stroke="black" cx="846.64" cy="-444" rx="32.63" ry="18"/>
<text text-anchor="middle" x="846.64" y="-441.2" font-family="sans" font-size="11.00">ip6_output</text>
</g>
<!-- control_input&#45;&gt;ip6_output -->
<g id="edge6" class="edge">
<title>control_input&#45;&gt;ip6_output</title>
<path fill="none" stroke="blue" stroke-width="2" d="M54.04,-422.39C61.76,-432.91 71.73,-446.64 80.32,-459 96.79,-482.68 91.75,-497.89 116.32,-513 223.66,-579.03 272.02,-539.43 397.81,-547 555.41,-556.48 609.45,-587.82 752.03,-520 772.46,-510.28 770.66,-498.51 788.03,-484 796.74,-476.72 806.74,-469.44 815.94,-463.12"/>
<polygon fill="blue" stroke="blue" stroke-width="2" points="818.11,-465.88 824.45,-457.39 814.2,-460.08 818.11,-465.88"/>
</g>
<!-- ip_input -->
<g id="node11" class="node">
<title>ip_input</title>
<ellipse fill="none" stroke="black" cx="302.66" cy="-191" rx="27" ry="18"/>
<text text-anchor="middle" x="302.66" y="-188.2" font-family="sans" font-size="11.00">ip_input</text>
</g>
<!-- loopback_input&#45;&gt;ip_input -->
<g id="edge11" class="edge">
<title>loopback_input&#45;&gt;ip_input</title>
<path fill="none" stroke="black" d="M175.72,-360.74C200.6,-327.2 255.53,-253.16 283.91,-214.91"/>
<polygon fill="black" stroke="black" points="286.72,-217 289.87,-206.88 281.1,-212.83 286.72,-217"/>
</g>
<!-- ip6_input -->
<g id="node12" class="node">
<title>ip6_input</title>
<ellipse fill="none" stroke="black" cx="302.66" cy="-482" rx="28.44" ry="18"/>
<text text-anchor="middle" x="302.66" y="-479.2" font-family="sans" font-size="11.00">ip6_input</text>
</g>
<!-- loopback_input&#45;&gt;ip6_input -->
<g id="edge12" class="edge">
<title>loopback_input&#45;&gt;ip6_input</title>
<path fill="none" stroke="black" d="M188.77,-392.82C195.01,-396.62 201.59,-400.82 207.5,-405 232.44,-422.62 259.25,-444.9 277.85,-460.96"/>
<polygon fill="black" stroke="black" points="275.7,-463.72 285.54,-467.64 280.29,-458.44 275.7,-463.72"/>
</g>
<!-- eth_output -->
<g id="node13" class="node">
<title>eth_output</title>
<ellipse fill="none" stroke="black" cx="991.73" cy="-635" rx="33.8" ry="18"/>
<text text-anchor="middle" x="991.73" y="-632.2" font-family="sans" font-size="11.00">eth_output</text>
</g>
<!-- arp_output_request&#45;&gt;eth_output -->
<g id="edge21" class="edge">
<title>arp_output_request&#45;&gt;eth_output</title>
<path fill="none" stroke="black" d="M349.94,-660.89C401.8,-672.12 488.51,-688 564.15,-688 564.15,-688 564.15,-688 698.21,-688 790.75,-688 815.09,-686.82 905.25,-666 922.16,-662.1 940.31,-655.83 955.51,-649.95"/>
<polygon fill="black" stroke="black" points="957.03,-653.11 965.04,-646.17 954.45,-646.61 957.03,-653.11"/>
</g>
<!-- icmp_output -->
<g id="node21" class="node">
<title>icmp_output</title>
<ellipse fill="none" stroke="black" cx="697.21" cy="-160" rx="37.98" ry="18"/>
<text text-anchor="middle" x="697.21" y="-157.2" font-family="sans" font-size="11.00">icmp_output</text>
</g>
<!-- icmp_local_send&#45;&gt;icmp_output -->
<g id="edge24" class="edge">
<title>icmp_local_send&#45;&gt;icmp_output</title>
<path fill="none" stroke="black" d="M327.68,-87.45C346.06,-76.53 372.47,-62.86 397.81,-57 436.82,-47.98 448.91,-47.89 487.9,-57 555.92,-72.9 627.2,-114.4 666.24,-139.6"/>
<polygon fill="black" stroke="black" points="664.7,-142.78 674.98,-145.33 668.53,-136.92 664.7,-142.78"/>
</g>
<!-- ndp_ns_output&#45;&gt;ip6_output -->
<g id="edge55" class="edge">
<title>ndp_ns_output&#45;&gt;ip6_output</title>
<path fill="none" stroke="black" d="M206.4,-432.76C329.97,-434.94 682.12,-441.13 803.73,-443.26"/>
<polygon fill="black" stroke="black" points="803.7,-446.76 813.76,-443.44 803.83,-439.76 803.7,-446.76"/>
</g>
<!-- ip_output&#45;&gt;eth_output -->
<g id="edge34" class="edge">
<title>ip_output&#45;&gt;eth_output</title>
<path fill="none" stroke="black" d="M858.37,-130.73C871.5,-152.01 893.45,-190.29 905.25,-226 936.09,-319.23 920.92,-347.93 941.25,-444 953.65,-502.56 972.17,-570.17 982.69,-607.19"/>
<polygon fill="black" stroke="black" points="979.44,-608.57 985.55,-617.22 986.17,-606.64 979.44,-608.57"/>
</g>
<!-- loopback_output -->
<g id="node15" class="node">
<title>loopback_output</title>
<ellipse fill="none" stroke="black" cx="991.73" cy="-255" rx="50.45" ry="18"/>
<text text-anchor="middle" x="991.73" y="-252.2" font-family="sans" font-size="11.00">loopback_output</text>
</g>
<!-- ip_output&#45;&gt;loopback_output -->
<g id="edge36" class="edge">
<title>ip_output&#45;&gt;loopback_output</title>
<path fill="none" stroke="black" d="M862.95,-129.09C887.57,-153.35 936.19,-201.26 965.84,-230.48"/>
<polygon fill="black" stroke="black" points="963.73,-233.31 973.31,-237.83 968.64,-228.32 963.73,-233.31"/>
</g>
<!-- ip_hold -->
<g id="node23" class="node">
<title>ip_hold</title>
<ellipse fill="none" stroke="black" cx="991.73" cy="-160" rx="27" ry="18"/>
<text text-anchor="middle" x="991.73" y="-157.2" font-family="sans" font-size="11.00">ip_hold</text>
</g>
<!-- ip_output&#45;&gt;ip_hold -->
<g id="edge35" class="edge">
<title>ip_output&#45;&gt;ip_hold</title>
<path fill="none" stroke="black" d="M872.89,-122.12C896.41,-129.68 931.61,-141 957.42,-149.29"/>
<polygon fill="black" stroke="black" points="956.56,-152.69 967.15,-152.42 958.7,-146.03 956.56,-152.69"/>
</g>
<!-- ipip_output -->
<g id="node27" class="node">
<title>ipip_output</title>
<ellipse fill="none" stroke="black" cx="991.73" cy="-106" rx="34.38" ry="18"/>
<text text-anchor="middle" x="991.73" y="-103.2" font-family="sans" font-size="11.00">ipip_output</text>
</g>
<!-- ip_output&#45;&gt;ipip_output -->
<g id="edge37" class="edge">
<title>ip_output&#45;&gt;ipip_output</title>
<path fill="none" stroke="black" d="M873.89,-107.17C894.55,-104.53 923.77,-102.6 947.83,-102.15"/>
<polygon fill="black" stroke="black" points="948.15,-105.65 958.12,-102.05 948.09,-98.65 948.15,-105.65"/>
</g>
<!-- ip6_output&#45;&gt;eth_output -->
<g id="edge49" class="edge">
<title>ip6_output&#45;&gt;eth_output</title>
<path fill="none" stroke="black" d="M870.52,-456.56C881.91,-463.58 895.33,-473.11 905.25,-484 939.66,-521.72 965.97,-575.67 979.83,-607.83"/>
<polygon fill="black" stroke="black" points="976.61,-609.22 983.72,-617.07 983.06,-606.5 976.61,-609.22"/>
</g>
<!-- ip6_output&#45;&gt;loopback_output -->
<g id="edge51" class="edge">
<title>ip6_output&#45;&gt;loopback_output</title>
<path fill="none" stroke="black" d="M860.09,-427.56C885.06,-394.58 941.41,-320.14 971.29,-280.68"/>
<polygon fill="black" stroke="black" points="974.34,-282.44 977.59,-272.36 968.76,-278.22 974.34,-282.44"/>
</g>
<!-- ip6_hold -->
<g id="node33" class="node">
<title>ip6_hold</title>
<ellipse fill="none" stroke="black" cx="991.73" cy="-417" rx="27" ry="18"/>
<text text-anchor="middle" x="991.73" y="-414.2" font-family="sans" font-size="11.00">ip6_hold</text>
</g>
<!-- ip6_output&#45;&gt;ip6_hold -->
<g id="edge50" class="edge">
<title>ip6_output&#45;&gt;ip6_hold</title>
<path fill="none" stroke="black" d="M877.64,-438.34C900.34,-434.06 931.58,-428.16 955.47,-423.65"/>
<polygon fill="black" stroke="black" points="956.37,-427.05 965.55,-421.75 955.07,-420.17 956.37,-427.05"/>
</g>
<!-- control_output -->
<g id="node8" class="node">
<title>control_output</title>
<ellipse fill="none" stroke="black" cx="1122.7" cy="-324" rx="44.51" ry="18"/>
<text text-anchor="middle" x="1122.7" y="-321.2" font-family="sans" font-size="11.00">control_output</text>
</g>
<!-- eth_input -->
<g id="node9" class="node">
<title>eth_input</title>
<ellipse fill="none" stroke="black" cx="161.91" cy="-486" rx="29.12" ry="18"/>
<text text-anchor="middle" x="161.91" y="-483.2" font-family="sans" font-size="11.00">eth_input</text>
</g>
<!-- arp_input -->
<g id="node10" class="node">
<title>arp_input</title>
<ellipse fill="none" stroke="black" cx="565.15" cy="-604" rx="29.12" ry="18"/>
<text text-anchor="middle" x="565.15" y="-601.2" font-family="sans" font-size="11.00">arp_input</text>
</g>
<!-- eth_input&#45;&gt;arp_input -->
<g id="edge7" class="edge">
<title>eth_input&#45;&gt;arp_input</title>
<path fill="none" stroke="black" d="M188.62,-493.56C257.9,-513.93 448.59,-570.01 528.35,-593.47"/>
<polygon fill="black" stroke="black" points="527.82,-596.96 538.4,-596.43 529.79,-590.25 527.82,-596.96"/>
</g>
<!-- eth_input&#45;&gt;ip_input -->
<g id="edge8" class="edge">
<title>eth_input&#45;&gt;ip_input</title>
<path fill="none" stroke="black" d="M186.51,-475.71C194.06,-471.45 201.91,-465.88 207.5,-459 267.15,-385.56 290.27,-271.67 298.12,-219.21"/>
<polygon fill="black" stroke="black" points="301.63,-219.38 299.57,-208.99 294.7,-218.4 301.63,-219.38"/>
</g>
<!-- eth_input&#45;&gt;ip6_input -->
<g id="edge9" class="edge">
<title>eth_input&#45;&gt;ip6_input</title>
<path fill="none" stroke="black" d="M191.32,-485.18C212.36,-484.57 241.23,-483.74 264.16,-483.08"/>
<polygon fill="black" stroke="black" points="264.33,-486.58 274.23,-482.79 264.13,-479.58 264.33,-486.58"/>
</g>
<!-- arp_input_request -->
<g id="node17" class="node">
<title>arp_input_request</title>
<ellipse fill="none" stroke="black" cx="697.21" cy="-642" rx="54.63" ry="18"/>
<text text-anchor="middle" x="697.21" y="-639.2" font-family="sans" font-size="11.00">arp_input_request</text>
</g>
<!-- arp_input&#45;&gt;arp_input_request -->
<g id="edge15" class="edge">
<title>arp_input&#45;&gt;arp_input_request</title>
<path fill="none" stroke="black" d="M591.85,-611.51C607.28,-616.02 627.46,-621.91 645.95,-627.31"/>
<polygon fill="black" stroke="black" points="645.14,-630.72 655.72,-630.17 647.1,-624.01 645.14,-630.72"/>
</g>
<!-- arp_input_reply -->
<g id="node18" class="node">
<title>arp_input_reply</title>
<ellipse fill="none" stroke="black" cx="846.64" cy="-511" rx="47.43" ry="18"/>
<text text-anchor="middle" x="846.64" y="-508.2" font-family="sans" font-size="11.00">arp_input_reply</text>
</g>
<!-- arp_input&#45;&gt;arp_input_reply -->
<g id="edge16" class="edge">
<title>arp_input&#45;&gt;arp_input_reply</title>
<path fill="none" stroke="black" d="M594.5,-602.68C631.8,-600.16 698.84,-592.88 752.03,-572 753.76,-571.32 787.13,-549.49 813.54,-532.13"/>
<polygon fill="black" stroke="black" points="815.74,-534.88 822.17,-526.46 811.89,-529.03 815.74,-534.88"/>
</g>
<!-- ip_input&#45;&gt;ip_output -->
<g id="edge29" class="edge">
<title>ip_input&#45;&gt;ip_output</title>
<path fill="none" stroke="black" d="M328,-184.13C346.99,-178.8 374.04,-171.3 397.81,-165 453.7,-150.19 466.77,-141.86 523.9,-133 625.1,-117.32 746.04,-114.35 806.77,-113.93"/>
<polygon fill="black" stroke="black" points="807.06,-117.43 817.04,-113.88 807.03,-110.43 807.06,-117.43"/>
</g>
<!-- ip_forward -->
<g id="node22" class="node">
<title>ip_forward</title>
<ellipse fill="none" stroke="black" cx="442.86" cy="-84" rx="32.63" ry="18"/>
<text text-anchor="middle" x="442.86" y="-81.2" font-family="sans" font-size="11.00">ip_forward</text>
</g>
<!-- ip_input&#45;&gt;ip_forward -->
<g id="edge28" class="edge">
<title>ip_input&#45;&gt;ip_forward</title>
<path fill="none" stroke="black" d="M320.49,-177.22C339.19,-162 370.37,-136.88 397.81,-116 402.95,-112.09 408.47,-108 413.82,-104.09"/>
<polygon fill="black" stroke="black" points="415.95,-106.86 421.99,-98.15 411.84,-101.2 415.95,-106.86"/>
</g>
<!-- ip_input_local -->
<g id="node24" class="node">
<title>ip_input_local</title>
<ellipse fill="none" stroke="black" cx="442.86" cy="-214" rx="41.49" ry="18"/>
<text text-anchor="middle" x="442.86" y="-211.2" font-family="sans" font-size="11.00">ip_input_local</text>
</g>
<!-- ip_input&#45;&gt;ip_input_local -->
<g id="edge30" class="edge">
<title>ip_input&#45;&gt;ip_input_local</title>
<path fill="none" stroke="black" d="M329,-195.22C347.17,-198.24 372.18,-202.4 394.05,-206.04"/>
<polygon fill="black" stroke="black" points="393.72,-209.54 404.16,-207.73 394.87,-202.63 393.72,-209.54"/>
</g>
<!-- ip6_input&#45;&gt;ip6_output -->
<g id="edge45" class="edge">
<title>ip6_input&#45;&gt;ip6_output</title>
<path fill="none" stroke="black" d="M331.02,-481.44C401.16,-479.81 593.04,-474.11 752.03,-458 769.63,-456.22 788.98,-453.46 805.5,-450.86"/>
<polygon fill="black" stroke="black" points="806.06,-454.31 815.38,-449.27 804.95,-447.4 806.06,-454.31"/>
</g>
<!-- ip6_forward -->
<g id="node32" class="node">
<title>ip6_forward</title>
<ellipse fill="none" stroke="black" cx="442.86" cy="-520" rx="35.64" ry="18"/>
<text text-anchor="middle" x="442.86" y="-517.2" font-family="sans" font-size="11.00">ip6_forward</text>
</g>
<!-- ip6_input&#45;&gt;ip6_forward -->
<g id="edge44" class="edge">
<title>ip6_input&#45;&gt;ip6_forward</title>
<path fill="none" stroke="black" d="M329,-488.97C349.19,-494.52 377.83,-502.39 401.21,-508.82"/>
<polygon fill="black" stroke="black" points="400.29,-512.2 410.86,-511.48 402.15,-505.45 400.29,-512.2"/>
</g>
<!-- ip6_input_local -->
<g id="node34" class="node">
<title>ip6_input_local</title>
<ellipse fill="none" stroke="black" cx="442.86" cy="-344" rx="45.09" ry="18"/>
<text text-anchor="middle" x="442.86" y="-341.2" font-family="sans" font-size="11.00">ip6_input_local</text>
</g>
<!-- ip6_input&#45;&gt;ip6_input_local -->
<g id="edge46" class="edge">
<title>ip6_input&#45;&gt;ip6_input_local</title>
<path fill="none" stroke="black" d="M318.71,-466.97C342.6,-443.11 389.4,-396.38 417.93,-367.89"/>
<polygon fill="black" stroke="black" points="420.51,-370.27 425.11,-360.73 415.56,-365.31 420.51,-370.27"/>
</g>
<!-- port_tx -->
<g id="node14" class="node">
<title>port_tx</title>
<ellipse fill="none" stroke="black" cx="1122.7" cy="-635" rx="27" ry="18"/>
<text text-anchor="middle" x="1122.7" y="-632.2" font-family="sans" font-size="11.00">port_tx</text>
</g>
<!-- eth_output&#45;&gt;port_tx -->
<g id="edge10" class="edge">
<title>eth_output&#45;&gt;port_tx</title>
<path fill="none" stroke="black" d="M1025.61,-635C1043.79,-635 1066.41,-635 1085.15,-635"/>
<polygon fill="black" stroke="black" points="1085.38,-638.5 1095.38,-635 1085.38,-631.5 1085.38,-638.5"/>
</g>
<!-- loopback_output&#45;&gt;control_output -->
<g id="edge13" class="edge">
<title>loopback_output&#45;&gt;control_output</title>
<path fill="none" stroke="black" d="M1020.71,-269.97C1039.86,-280.21 1065.41,-293.88 1086.01,-304.91"/>
<polygon fill="black" stroke="black" points="1084.63,-308.13 1095.09,-309.76 1087.93,-301.96 1084.63,-308.13"/>
</g>
<!-- port_rx -->
<g id="node16" class="node">
<title>port_rx</title>
<ellipse fill="none" stroke="blue" stroke-width="2" cx="40.16" cy="-486" rx="27" ry="18"/>
<text text-anchor="middle" x="40.16" y="-483.2" font-family="sans" font-size="11.00">port_rx</text>
</g>
<!-- port_rx&#45;&gt;eth_input -->
<g id="edge14" class="edge">
<title>port_rx&#45;&gt;eth_input</title>
<path fill="none" stroke="blue" stroke-width="2" d="M67.44,-486C83.56,-486 104.47,-486 122.43,-486"/>
<polygon fill="blue" stroke="blue" stroke-width="2" points="122.6,-489.5 132.6,-486 122.6,-482.5 122.6,-489.5"/>
</g>
<!-- arp_input_request&#45;&gt;control_output -->
<g id="edge18" class="edge">
<title>arp_input_request&#45;&gt;control_output</title>
<path fill="none" stroke="black" d="M734.18,-628.62C812.45,-598.98 994.98,-526.78 1042.2,-481 1079.97,-444.38 1102.9,-386 1113.86,-351.69"/>
<polygon fill="black" stroke="black" points="1117.29,-352.46 1116.89,-341.87 1110.6,-350.4 1117.29,-352.46"/>
</g>
<!-- arp_output_reply -->
<g id="node19" class="node">
<title>arp_output_reply</title>
<ellipse fill="none" stroke="black" cx="846.64" cy="-639" rx="51.62" ry="18"/>
<text text-anchor="middle" x="846.64" y="-636.2" font-family="sans" font-size="11.00">arp_output_reply</text>
</g>
<!-- arp_input_request&#45;&gt;arp_output_reply -->
<g id="edge19" class="edge">
<title>arp_input_request&#45;&gt;arp_output_reply</title>
<path fill="none" stroke="black" d="M752.27,-640.9C762.86,-640.68 774.03,-640.46 784.82,-640.24"/>
<polygon fill="black" stroke="black" points="785.09,-643.73 795.02,-640.03 784.95,-636.73 785.09,-643.73"/>
</g>
<!-- arp_input_reply&#45;&gt;control_output -->
<g id="edge17" class="edge">
<title>arp_input_reply&#45;&gt;control_output</title>
<path fill="none" stroke="black" d="M890.92,-504.41C933.11,-496.19 997.28,-478.77 1042.2,-444 1074.06,-419.34 1097.32,-378.16 1110.18,-351.03"/>
<polygon fill="black" stroke="black" points="1113.46,-352.28 1114.44,-341.74 1107.09,-349.37 1113.46,-352.28"/>
</g>
<!-- arp_output_reply&#45;&gt;eth_output -->
<g id="edge20" class="edge">
<title>arp_output_reply&#45;&gt;eth_output</title>
<path fill="none" stroke="black" d="M898.09,-637.59C914.17,-637.14 931.81,-636.65 947.35,-636.21"/>
<polygon fill="black" stroke="black" points="947.82,-639.7 957.72,-635.92 947.63,-632.7 947.82,-639.7"/>
</g>
<!-- icmp_input -->
<g id="node20" class="node">
<title>icmp_input</title>
<ellipse fill="none" stroke="black" cx="565.15" cy="-214" rx="33.8" ry="18"/>
<text text-anchor="middle" x="565.15" y="-211.2" font-family="sans" font-size="11.00">icmp_input</text>
</g>
<!-- icmp_input&#45;&gt;control_output -->
<g id="edge23" class="edge">
<title>icmp_input&#45;&gt;control_output</title>
<path fill="none" stroke="black" d="M598.51,-211.55C692.54,-204.96 964,-189.81 1042.2,-228 1072.11,-242.61 1094.78,-274.31 1108.11,-297.3"/>
<polygon fill="black" stroke="black" points="1105.16,-299.2 1113.08,-306.24 1111.28,-295.8 1105.16,-299.2"/>
</g>
<!-- icmp_input&#45;&gt;icmp_output -->
<g id="edge22" class="edge">
<title>icmp_input&#45;&gt;icmp_output</title>
<path fill="none" stroke="black" d="M592.16,-203.2C611.19,-195.3 637.29,-184.46 658.59,-175.62"/>
<polygon fill="black" stroke="black" points="660.1,-178.78 668,-171.72 657.42,-172.32 660.1,-178.78"/>
</g>
<!-- icmp_output&#45;&gt;ip_output -->
<g id="edge25" class="edge">
<title>icmp_output&#45;&gt;ip_output</title>
<path fill="none" stroke="black" d="M729.48,-150.24C753.25,-142.83 785.96,-132.62 810.61,-124.93"/>
<polygon fill="black" stroke="black" points="811.79,-128.23 820.3,-121.91 809.71,-121.55 811.79,-128.23"/>
</g>
<!-- ip_forward&#45;&gt;ip_output -->
<g id="edge26" class="edge">
<title>ip_forward&#45;&gt;ip_output</title>
<path fill="none" stroke="black" d="M475.43,-84.63C531.32,-85.98 651.28,-89.88 752.03,-100 770.58,-101.86 791.07,-104.83 808.14,-107.55"/>
<polygon fill="black" stroke="black" points="807.85,-111.04 818.28,-109.2 808.98,-104.14 807.85,-111.04"/>
</g>
<!-- ip_hold&#45;&gt;control_output -->
<g id="edge27" class="edge">
<title>ip_hold&#45;&gt;control_output</title>
<path fill="none" stroke="black" d="M1014.02,-170.88C1023.39,-176.36 1034.09,-183.62 1042.2,-192 1072.5,-223.29 1096.42,-268.17 1109.81,-296.69"/>
<polygon fill="black" stroke="black" points="1106.76,-298.42 1114.11,-306.06 1113.12,-295.51 1106.76,-298.42"/>
</g>
<!-- ip_input_local&#45;&gt;icmp_input -->
<g id="edge31" class="edge">
<title>ip_input_local&#45;&gt;icmp_input</title>
<path fill="none" stroke="black" d="M484.25,-214C496.07,-214 509.05,-214 521.03,-214"/>
<polygon fill="black" stroke="black" points="521.26,-217.5 531.26,-214 521.26,-210.5 521.26,-217.5"/>
</g>
<!-- ipip_input -->
<g id="node25" class="node">
<title>ipip_input</title>
<ellipse fill="none" stroke="black" cx="565.15" cy="-160" rx="29.7" ry="18"/>
<text text-anchor="middle" x="565.15" y="-157.2" font-family="sans" font-size="11.00">ipip_input</text>
</g>
<!-- ip_input_local&#45;&gt;ipip_input -->
<g id="edge32" class="edge">
<title>ip_input_local&#45;&gt;ipip_input</title>
<path fill="none" stroke="black" d="M472.37,-201.2C490.12,-193.24 513,-182.96 531.48,-174.66"/>
<polygon fill="black" stroke="black" points="533,-177.82 540.69,-170.53 530.14,-171.43 533,-177.82"/>
</g>
<!-- l4_input_local -->
<g id="node26" class="node">
<title>l4_input_local</title>
<ellipse fill="none" stroke="black" cx="565.15" cy="-268" rx="41.49" ry="18"/>
<text text-anchor="middle" x="565.15" y="-265.2" font-family="sans" font-size="11.00">l4_input_local</text>
</g>
<!-- ip_input_local&#45;&gt;l4_input_local -->
<g id="edge33" class="edge">
<title>ip_input_local&#45;&gt;l4_input_local</title>
<path fill="none" stroke="black" d="M472.37,-226.8C488.55,-234.06 508.99,-243.24 526.48,-251.09"/>
<polygon fill="black" stroke="black" points="525.29,-254.39 535.85,-255.29 528.16,-248.01 525.29,-254.39"/>
</g>
<!-- ipip_input&#45;&gt;ip_input -->
<g id="edge56" class="edge">
<title>ipip_input&#45;&gt;ip_input</title>
<path fill="none" stroke="black" d="M535.57,-163.4C487.85,-169.08 392.05,-180.48 339.75,-186.71"/>
<polygon fill="black" stroke="black" points="339.1,-183.26 329.59,-187.91 339.93,-190.21 339.1,-183.26"/>
</g>
<!-- l4_loopback_output -->
<g id="node35" class="node">
<title>l4_loopback_output</title>
<ellipse fill="none" stroke="black" cx="846.64" cy="-253" rx="58.73" ry="18"/>
<text text-anchor="middle" x="846.64" y="-250.2" font-family="sans" font-size="11.00">l4_loopback_output</text>
</g>
<!-- l4_input_local&#45;&gt;l4_loopback_output -->
<g id="edge58" class="edge">
<title>l4_input_local&#45;&gt;l4_loopback_output</title>
<path fill="none" stroke="black" d="M606.11,-265.26C617.8,-264.49 630.61,-263.68 642.4,-263 687.66,-260.4 738.62,-257.9 778.18,-256.04"/>
<polygon fill="black" stroke="black" points="778.42,-259.54 788.25,-255.57 778.09,-252.54 778.42,-259.54"/>
</g>
<!-- ipip_output&#45;&gt;ip_output -->
<g id="edge57" class="edge">
<title>ipip_output&#45;&gt;ip_output</title>
<path fill="none" stroke="black" d="M960.4,-113.33C938.64,-115.88 909.18,-117.67 885.82,-117.92"/>
<polygon fill="black" stroke="black" points="885.57,-114.42 875.57,-117.92 885.57,-121.42 885.57,-114.42"/>
</g>
<!-- icmp6_input -->
<g id="node28" class="node">
<title>icmp6_input</title>
<ellipse fill="none" stroke="black" cx="565.15" cy="-344" rx="37.4" ry="18"/>
<text text-anchor="middle" x="565.15" y="-341.2" font-family="sans" font-size="11.00">icmp6_input</text>
</g>
<!-- icmp6_output -->
<g id="node29" class="node">
<title>icmp6_output</title>
<ellipse fill="none" stroke="black" cx="697.21" cy="-398" rx="41.58" ry="18"/>
<text text-anchor="middle" x="697.21" y="-395.2" font-family="sans" font-size="11.00">icmp6_output</text>
</g>
<!-- icmp6_input&#45;&gt;icmp6_output -->
<g id="edge38" class="edge">
<title>icmp6_input&#45;&gt;icmp6_output</title>
<path fill="none" stroke="black" d="M594.05,-355.58C612.48,-363.24 636.89,-373.37 657.23,-381.82"/>
<polygon fill="black" stroke="black" points="655.97,-385.08 666.55,-385.68 658.65,-378.62 655.97,-385.08"/>
</g>
<!-- ndp_ns_input -->
<g id="node30" class="node">
<title>ndp_ns_input</title>
<ellipse fill="none" stroke="black" cx="697.21" cy="-344" rx="40.32" ry="18"/>
<text text-anchor="middle" x="697.21" y="-341.2" font-family="sans" font-size="11.00">ndp_ns_input</text>
</g>
<!-- icmp6_input&#45;&gt;ndp_ns_input -->
<g id="edge39" class="edge">
<title>icmp6_input&#45;&gt;ndp_ns_input</title>
<path fill="none" stroke="black" d="M602.73,-344C616.27,-344 631.86,-344 646.39,-344"/>
<polygon fill="black" stroke="black" points="646.73,-347.5 656.73,-344 646.73,-340.5 646.73,-347.5"/>
</g>
<!-- ndp_na_input -->
<g id="node31" class="node">
<title>ndp_na_input</title>
<ellipse fill="none" stroke="black" cx="697.21" cy="-290" rx="40.91" ry="18"/>
<text text-anchor="middle" x="697.21" y="-287.2" font-family="sans" font-size="11.00">ndp_na_input</text>
</g>
<!-- icmp6_input&#45;&gt;ndp_na_input -->
<g id="edge40" class="edge">
<title>icmp6_input&#45;&gt;ndp_na_input</title>
<path fill="none" stroke="black" d="M594.05,-332.42C612.61,-324.71 637.23,-314.49 657.66,-306.01"/>
<polygon fill="black" stroke="black" points="659.11,-309.19 667,-302.13 656.43,-302.73 659.11,-309.19"/>
</g>
<!-- icmp6_output&#45;&gt;ip6_output -->
<g id="edge41" class="edge">
<title>icmp6_output&#45;&gt;ip6_output</title>
<path fill="none" stroke="black" d="M731.67,-408.44C754.41,-415.54 784.54,-424.94 808.1,-432.29"/>
<polygon fill="black" stroke="black" points="807.17,-435.66 817.76,-435.3 809.26,-428.98 807.17,-435.66"/>
</g>
<!-- ndp_ns_input&#45;&gt;ip6_output -->
<g id="edge53" class="edge">
<title>ndp_ns_input&#45;&gt;ip6_output</title>
<path fill="none" stroke="black" d="M726.16,-356.72C734.66,-360.93 743.9,-365.86 752.03,-371 776.5,-386.47 802.31,-406.94 820.61,-422.27"/>
<polygon fill="black" stroke="black" points="818.57,-425.13 828.46,-428.92 823.09,-419.78 818.57,-425.13"/>
</g>
<!-- ndp_ns_input&#45;&gt;control_output -->
<g id="edge54" class="edge">
<title>ndp_ns_input&#45;&gt;control_output</title>
<path fill="none" stroke="black" d="M737.29,-342.15C813.44,-338.56 981.77,-330.61 1068.2,-326.53"/>
<polygon fill="black" stroke="black" points="1068.5,-330.02 1078.32,-326.05 1068.17,-323.02 1068.5,-330.02"/>
</g>
<!-- ndp_na_input&#45;&gt;control_output -->
<g id="edge52" class="edge">
<title>ndp_na_input&#45;&gt;control_output</title>
<path fill="none" stroke="black" d="M737.29,-293.14C813.64,-299.27 982.64,-312.84 1068.87,-319.76"/>
<polygon fill="black" stroke="black" points="1068.72,-323.26 1078.96,-320.57 1069.28,-316.28 1068.72,-323.26"/>
</g>
<!-- ip6_forward&#45;&gt;ip6_output -->
<g id="edge42" class="edge">
<title>ip6_forward&#45;&gt;ip6_output</title>
<path fill="none" stroke="black" d="M478.48,-522.03C536.44,-524.4 656.19,-524.85 752.03,-496 775.37,-488.97 799.37,-475.5 817.22,-464.03"/>
<polygon fill="black" stroke="black" points="819.54,-466.69 825.96,-458.26 815.68,-460.85 819.54,-466.69"/>
</g>
<!-- ip6_hold&#45;&gt;control_output -->
<g id="edge43" class="edge">
<title>ip6_hold&#45;&gt;control_output</title>
<path fill="none" stroke="black" d="M1010.66,-404.07C1031.59,-388.98 1066.52,-363.79 1091.62,-345.69"/>
<polygon fill="black" stroke="black" points="1093.99,-348.3 1100.05,-339.61 1089.89,-342.62 1093.99,-348.3"/>
</g>
<!-- ip6_input_local&#45;&gt;l4_input_local -->
<g id="edge48" class="edge">
<title>ip6_input_local&#45;&gt;l4_input_local</title>
<path fill="none" stroke="black" d="M467.91,-328.8C486.43,-317.11 512.18,-300.83 532.39,-288.07"/>
<polygon fill="black" stroke="black" points="534.37,-290.95 540.96,-282.65 530.63,-285.04 534.37,-290.95"/>
</g>
<!-- ip6_input_local&#45;&gt;icmp6_input -->
<g id="edge47" class="edge">
<title>ip6_input_local&#45;&gt;icmp6_input</title>
<path fill="none" stroke="black" d="M487.97,-344C497.52,-344 507.66,-344 517.31,-344"/>
<polygon fill="black" stroke="black" points="517.55,-347.5 527.55,-344 517.55,-340.5 517.55,-347.5"/>
</g>
<!-- l4_loopback_output&#45;&gt;loopback_output -->
<g id="edge59" class="edge">
<title>l4_loopback_output&#45;&gt;loopback_output</title>
<path fill="none" stroke="black" d="M905.43,-253.81C913.81,-253.92 922.45,-254.05 930.87,-254.16"/>
<polygon fill="black" stroke="black" points="930.96,-257.66 941,-254.3 931.05,-250.67 930.96,-257.66"/>
</g>
</g>
</svg>
