<?xml version="1.0" encoding="UTF-8" standalone="no"?>
<!DOCTYPE svg PUBLIC "-//W3C//DTD SVG 1.1//EN"
 "http://www.w3.org/Graphics/SVG/1.1/DTD/svg11.dtd">
<!-- Generated by graphviz version 2.44.0 (0)
 -->
<!-- Title: gr&#45;0005 Pages: 1 -->
<svg width="1174pt" height="781pt"
 viewBox="0.00 0.00 1174.12 781.00" xmlns="http://www.w3.org/2000/svg" xmlns:xlink="http://www.w3.org/1999/xlink">
<g id="graph0" class="graph" transform="scale(1 1) rotate(0) translate(4 777)">
<title>gr&#45;0005</title>
<polygon fill="white" stroke="transparent" points="-4,4 -4,-777 1170.12,-777 1170.12,4 -4,4"/>
<!-- control_input -->
<g id="node1" class="node">
<title>control_input</title>
<ellipse fill="none" stroke="blue" stroke-width="2" cx="40.16" cy="-197" rx="40.32" ry="18"/>
<text text-anchor="middle" x="40.16" y="-194.2" font-family="sans" font-size="11.00">control_input</text>
</g>
<!-- loopback_input -->
<g id="node2" class="node">
<title>loopback_input</title>
<ellipse fill="none" stroke="black" cx="161.91" cy="-371" rx="45.68" ry="18"/>
<text text-anchor="middle" x="161.91" y="-368.2" font-family="sans" font-size="11.00">loopback_input</text>
</g>
<!-- control_input&#45;&gt;loopback_input -->
<g id="edge1" class="edge">
<title>control_input&#45;&gt;loopback_input</title>
<path fill="none" stroke="blue" stroke-width="2" d="M53.08,-214.32C74.19,-244.99 118.24,-308.99 143.01,-344.98"/>
<polygon fill="blue" stroke="blue" stroke-width="2" points="140.31,-347.24 148.86,-353.49 146.08,-343.27 140.31,-347.24"/>
</g>
<!-- arp_output_request -->
<g id="node3" class="node">
<title>arp_output_request</title>
<ellipse fill="none" stroke="black" cx="302.66" cy="-18" rx="59.31" ry="18"/>
<text text-anchor="middle" x="302.66" y="-15.2" font-family="sans" font-size="11.00">arp_output_request</text>
</g>
<!-- control_input&#45;&gt;arp_output_request -->
<g id="edge2" class="edge">
<title>control_input&#45;&gt;arp_output_request</title>
<path fill="none" stroke="blue" stroke-width="2" d="M47.06,-179.2C56.98,-152.01 79.61,-100.28 116.32,-72 150.81,-45.43 198.01,-31.92 236.15,-25.06"/>
<polygon fill="blue" stroke="blue" stroke-width="2" points="236.86,-28.49 246.14,-23.37 235.7,-21.59 236.86,-28.49"/>
</g>
<!-- icmp_local_send -->
<g id="node4" class="node">
<title>icmp_local_send</title>
<ellipse fill="none" stroke="black" cx="302.66" cy="-682" rx="49.28" ry="18"/>
<text text-anchor="middle" x="302.66" y="-679.2" font-family="sans" font-size="11.00">icmp_local_send</text>
</g>
<!-- control_input&#45;&gt;icmp_local_send -->
<g id="edge3" class="edge">
<title>control_input&#45;&gt;icmp_local_send</title>
<path fill="none" stroke="blue" stroke-width="2" d="M40.6,-215.33C39.91,-267.79 44.55,-420.82 116.32,-516 144.28,-553.07 173.41,-535.47 207.5,-567 228.68,-586.59 225.48,-598.48 243.5,-621 253.75,-633.81 266.18,-647.1 276.91,-657.99"/>
<polygon fill="blue" stroke="blue" stroke-width="2" points="274.48,-660.51 284.02,-665.12 279.43,-655.57 274.48,-660.51"/>
</g>
<!-- icmp6_local_send -->
<g id="node5" class="node">
<title>icmp6_local_send</title>
<ellipse fill="none" stroke="black" cx="451" cy="-174" rx="53.37" ry="18"/>
<text text-anchor="middle" x="451" y="-171.2" font-family="sans" font-size="11.00">icmp6_local_send</text>
</g>
<!-- control_input&#45;&gt;icmp6_local_send -->
<g id="edge4" class="edge">
<title>control_input&#45;&gt;icmp6_local_send</title>
<path fill="none" stroke="blue" stroke-width="2" d="M80.36,-194.79C151.61,-190.79 302.85,-182.28 388.15,-177.48"/>
<polygon fill="blue" stroke="blue" stroke-width="2" points="388.42,-180.97 398.21,-176.91 388.03,-173.98 388.42,-180.97"/>
</g>
<!-- ndp_ns_output -->
<g id="node6" class="node">
<title>ndp_ns_output</title>
<ellipse fill="none" stroke="black" cx="161.91" cy="-274" rx="44.51" ry="18"/>
<text text-anchor="middle" x="161.91" y="-271.2" font-family="sans" font-size="11.00">ndp_ns_output</text>
</g>
<!-- control_input&#45;&gt;ndp_ns_output -->
<g id="edge5" class="edge">
<title>control_input&#45;&gt;ndp_ns_output</title>
<path fill="none" stroke="blue" stroke-width="2" d="M63.04,-211.91C77.95,-221.98 98.2,-235.49 116.32,-247 119.85,-249.24 123.55,-251.55 127.25,-253.83"/>
<polygon fill="blue" stroke="blue" stroke-width="2" points="125.44,-256.82 135.8,-259.05 129.09,-250.85 125.44,-256.82"/>
</g>
<!-- ip_output -->
<g id="node7" class="node">
<title>ip_output</title>
<ellipse fill="none" stroke="black" cx="836.87" cy="-602" rx="29.12" ry="18"/>
<text text-anchor="middle" x="836.87" y="-599.2" font-family="sans" font-size="11.00">ip_output</text>
</g>
<!-- control_input&#45;&gt;ip_output -->
<g id="edge6" class="edge">
<title>control_input&#45;&gt;ip_output</title>
<path fill="none" stroke="blue" stroke-width="2" d="M43.64,-214.94C49.7,-252.83 68.44,-342.13 116.32,-398 177.79,-469.71 207.2,-502 301.66,-502 301.66,-502 301.66,-502 452,-502 528.33,-502 548.49,-503.08 622.68,-521 689.13,-537.05 762.92,-568.29 803.93,-586.94"/>
<polygon fill="blue" stroke="blue" stroke-width="2" points="802.59,-590.17 813.14,-591.16 805.51,-583.81 802.59,-590.17"/>
</g>
<!-- arp_output_reply -->
<g id="node8" class="node">
<title>arp_output_reply</title>
<ellipse fill="none" stroke="black" cx="302.66" cy="-72" rx="51.62" ry="18"/>
<text text-anchor="middle" x="302.66" y="-69.2" font-family="sans" font-size="11.00">arp_output_reply</text>
</g>
<!-- control_input&#45;&gt;arp_output_reply -->
<g id="edge7" class="edge">
<title>control_input&#45;&gt;arp_output_reply</title>
<path fill="none" stroke="blue" stroke-width="2" d="M50.18,-179.37C62.19,-157.85 85.53,-122.08 116.32,-104 153.77,-82.01 202.33,-74.23 240.35,-71.83"/>
<polygon fill="blue" stroke="blue" stroke-width="2" points="240.97,-75.3 250.77,-71.29 240.6,-68.31 240.97,-75.3"/>
</g>
<!-- ip6_output -->
<g id="node9" class="node">
<title>ip6_output</title>
<ellipse fill="none" stroke="black" cx="836.87" cy="-197" rx="32.63" ry="18"/>
<text text-anchor="middle" x="836.87" y="-194.2" font-family="sans" font-size="11.00">ip6_output</text>
</g>
<!-- control_input&#45;&gt;ip6_output -->
<g id="edge8" class="edge">
<title>control_input&#45;&gt;ip6_output</title>
<path fill="none" stroke="blue" stroke-width="2" d="M70.1,-184.88C166.97,-152.68 488.05,-74.37 742.26,-138 768.68,-144.61 795.8,-160.26 814,-174.03"/>
<polygon fill="blue" stroke="blue" stroke-width="2" points="812.19,-177.07 822.18,-180.6 816.57,-171.61 812.19,-177.07"/>
</g>
<!-- control_input&#45;&gt;ip6_output -->
<g id="edge10" class="edge">
<title>control_input&#45;&gt;ip6_output</title>
<path fill="none" stroke="blue" stroke-width="2" d="M77.98,-190.49C183.38,-166.76 494.56,-94 742.26,-156 763.07,-161.21 784.32,-172.02 801.3,-181.42"/>
<polygon fill="blue" stroke="blue" stroke-width="2" points="799.83,-184.61 810.26,-186.45 803.25,-178.5 799.83,-184.61"/>
</g>
<!-- ndp_na_output -->
<g id="node10" class="node">
<title>ndp_na_output</title>
<ellipse fill="none" stroke="black" cx="161.91" cy="-220" rx="45.09" ry="18"/>
<text text-anchor="middle" x="161.91" y="-217.2" font-family="sans" font-size="11.00">ndp_na_output</text>
</g>
<!-- control_input&#45;&gt;ndp_na_output -->
<g id="edge9" class="edge">
<title>control_input&#45;&gt;ndp_na_output</title>
<path fill="none" stroke="blue" stroke-width="2" d="M77.42,-203.96C87.96,-205.99 99.66,-208.24 110.89,-210.39"/>
<polygon fill="blue" stroke="blue" stroke-width="2" points="110.54,-213.89 121.02,-212.34 111.86,-207.01 110.54,-213.89"/>
</g>
<!-- ip_input -->
<g id="node14" class="node">
<title>ip_input</title>
<ellipse fill="none" stroke="black" cx="302.66" cy="-594" rx="27" ry="18"/>
<text text-anchor="middle" x="302.66" y="-591.2" font-family="sans" font-size="11.00">ip_input</text>
</g>
<!-- loopback_input&#45;&gt;ip_input -->
<g id="edge15" class="edge">
<title>loopback_input&#45;&gt;ip_input</title>
<path fill="none" stroke="black" d="M173.8,-388.5C198.24,-427.79 257.56,-523.13 285.98,-568.8"/>
<polygon fill="black" stroke="black" points="283.13,-570.85 291.39,-577.49 289.08,-567.15 283.13,-570.85"/>
</g>
<!-- ip6_input -->
<g id="node15" class="node">
<title>ip6_input</title>
<ellipse fill="none" stroke="black" cx="302.66" cy="-371" rx="28.44" ry="18"/>
<text text-anchor="middle" x="302.66" y="-368.2" font-family="sans" font-size="11.00">ip6_input</text>
</g>
<!-- loopback_input&#45;&gt;ip6_input -->
<g id="edge16" class="edge">
<title>loopback_input&#45;&gt;ip6_input</title>
<path fill="none" stroke="black" d="M207.57,-371C225.68,-371 246.37,-371 263.73,-371"/>
<polygon fill="black" stroke="black" points="264.05,-374.5 274.05,-371 264.05,-367.5 264.05,-374.5"/>
</g>
<!-- eth_output -->
<g id="node16" class="node">
<title>eth_output</title>
<ellipse fill="none" stroke="black" cx="986.3" cy="-126" rx="33.8" ry="18"/>
<text text-anchor="middle" x="986.3" y="-123.2" font-family="sans" font-size="11.00">eth_output</text>
</g>
<!-- arp_output_request&#45;&gt;eth_output -->
<g id="edge24" class="edge">
<title>arp_output_request&#45;&gt;eth_output</title>
<path fill="none" stroke="black" d="M361.42,-20.64C417.41,-22.97 504.72,-26 580.43,-26 580.43,-26 580.43,-26 701.47,-26 790.3,-26 813.11,-40.75 895.49,-74 916.83,-82.62 939.23,-95.58 956.33,-106.41"/>
<polygon fill="black" stroke="black" points="954.45,-109.36 964.75,-111.84 958.24,-103.48 954.45,-109.36"/>
</g>
<!-- icmp_output -->
<g id="node23" class="node">
<title>icmp_output</title>
<ellipse fill="none" stroke="black" cx="700.47" cy="-602" rx="37.98" ry="18"/>
<text text-anchor="middle" x="700.47" y="-599.2" font-family="sans" font-size="11.00">icmp_output</text>
</g>
<!-- icmp_local_send&#45;&gt;icmp_output -->
<g id="edge27" class="edge">
<title>icmp_local_send&#45;&gt;icmp_output</title>
<path fill="none" stroke="black" d="M352.3,-681.56C393.17,-680.42 452.96,-676.98 504.19,-667 558.47,-656.42 570.26,-646.62 622.68,-629 634.82,-624.92 647.99,-620.35 659.93,-616.14"/>
<polygon fill="black" stroke="black" points="661.37,-619.34 669.63,-612.71 659.04,-612.74 661.37,-619.34"/>
</g>
<!-- icmp6_output -->
<g id="node31" class="node">
<title>icmp6_output</title>
<ellipse fill="none" stroke="black" cx="700.47" cy="-174" rx="41.58" ry="18"/>
<text text-anchor="middle" x="700.47" y="-171.2" font-family="sans" font-size="11.00">icmp6_output</text>
</g>
<!-- icmp6_local_send&#45;&gt;icmp6_output -->
<g id="edge47" class="edge">
<title>icmp6_local_send&#45;&gt;icmp6_output</title>
<path fill="none" stroke="black" d="M504.48,-174C546.95,-174 606.4,-174 648.47,-174"/>
<polygon fill="black" stroke="black" points="648.5,-177.5 658.5,-174 648.5,-170.5 648.5,-177.5"/>
</g>
<!-- ndp_ns_output&#45;&gt;icmp6_output -->
<g id="edge61" class="edge">
<title>ndp_ns_output&#45;&gt;icmp6_output</title>
<path fill="none" stroke="black" d="M206.12,-271.19C288.46,-265.07 473.01,-247.56 622.68,-206 636.1,-202.27 650.3,-196.82 662.8,-191.46"/>
<polygon fill="black" stroke="black" points="664.24,-194.65 671.98,-187.41 661.41,-188.24 664.24,-194.65"/>
</g>
<!-- ip_output&#45;&gt;eth_output -->
<g id="edge37" class="edge">
<title>ip_output&#45;&gt;eth_output</title>
<path fill="none" stroke="black" d="M852.71,-586.83C866.33,-571.92 885.8,-547.83 895.49,-523 946.7,-391.72 883.53,-340.5 931.49,-208 939.11,-186.92 953.12,-165.84 964.94,-150.34"/>
<polygon fill="black" stroke="black" points="967.8,-152.36 971.22,-142.33 962.29,-148.03 967.8,-152.36"/>
</g>
<!-- loopback_output -->
<g id="node18" class="node">
<title>loopback_output</title>
<ellipse fill="none" stroke="black" cx="986.3" cy="-494" rx="50.45" ry="18"/>
<text text-anchor="middle" x="986.3" y="-491.2" font-family="sans" font-size="11.00">loopback_output</text>
</g>
<!-- ip_output&#45;&gt;loopback_output -->
<g id="edge39" class="edge">
<title>ip_output&#45;&gt;loopback_output</title>
<path fill="none" stroke="black" d="M856.54,-588.32C881.3,-570.19 925.29,-537.96 954.87,-516.29"/>
<polygon fill="black" stroke="black" points="957.18,-518.94 963.18,-510.2 953.05,-513.29 957.18,-518.94"/>
</g>
<!-- ip_hold -->
<g id="node25" class="node">
<title>ip_hold</title>
<ellipse fill="none" stroke="black" cx="986.3" cy="-593" rx="27" ry="18"/>
<text text-anchor="middle" x="986.3" y="-590.2" font-family="sans" font-size="11.00">ip_hold</text>
</g>
<!-- ip_output&#45;&gt;ip_hold -->
<g id="edge38" class="edge">
<title>ip_output&#45;&gt;ip_hold</title>
<path fill="none" stroke="black" d="M866.3,-600.26C889.83,-598.83 923.42,-596.78 948.91,-595.22"/>
<polygon fill="black" stroke="black" points="949.18,-598.71 958.94,-594.61 948.75,-591.72 949.18,-598.71"/>
</g>
<!-- ipip_output -->
<g id="node29" class="node">
<title>ipip_output</title>
<ellipse fill="none" stroke="black" cx="986.3" cy="-647" rx="34.38" ry="18"/>
<text text-anchor="middle" x="986.3" y="-644.2" font-family="sans" font-size="11.00">ipip_output</text>
</g>
<!-- ip_output&#45;&gt;ipip_output -->
<g id="edge40" class="edge">
<title>ip_output&#45;&gt;ipip_output</title>
<path fill="none" stroke="black" d="M865.95,-605.14C890.4,-610.96 925.88,-621.68 951.81,-631.01"/>
<polygon fill="black" stroke="black" points="950.64,-634.31 961.23,-634.51 953.07,-627.75 950.64,-634.31"/>
</g>
<!-- arp_output_reply&#45;&gt;eth_output -->
<g id="edge23" class="edge">
<title>arp_output_reply&#45;&gt;eth_output</title>
<path fill="none" stroke="black" d="M354.41,-72C409.92,-72 501.51,-72 580.43,-72 580.43,-72 580.43,-72 701.47,-72 790.77,-72 893.13,-98.11 947.2,-114.02"/>
<polygon fill="black" stroke="black" points="946.45,-117.45 957.04,-116.96 948.46,-110.75 946.45,-117.45"/>
</g>
<!-- ip6_output&#45;&gt;eth_output -->
<g id="edge55" class="edge">
<title>ip6_output&#45;&gt;eth_output</title>
<path fill="none" stroke="black" d="M861.89,-185.43C886.27,-173.69 924.22,-155.42 951.6,-142.23"/>
<polygon fill="black" stroke="black" points="953.31,-145.29 960.8,-137.8 950.28,-138.98 953.31,-145.29"/>
</g>
<!-- ip6_output&#45;&gt;loopback_output -->
<g id="edge57" class="edge">
<title>ip6_output&#45;&gt;loopback_output</title>
<path fill="none" stroke="black" d="M846.44,-214.25C871.06,-263.86 942.19,-407.16 971.96,-467.12"/>
<polygon fill="black" stroke="black" points="968.95,-468.93 976.53,-476.33 975.22,-465.81 968.95,-468.93"/>
</g>
<!-- ip6_hold -->
<g id="node36" class="node">
<title>ip6_hold</title>
<ellipse fill="none" stroke="black" cx="986.3" cy="-235" rx="27" ry="18"/>
<text text-anchor="middle" x="986.3" y="-232.2" font-family="sans" font-size="11.00">ip6_hold</text>
</g>
<!-- ip6_output&#45;&gt;ip6_hold -->
<g id="edge56" class="edge">
<title>ip6_output&#45;&gt;ip6_hold</title>
<path fill="none" stroke="black" d="M866.65,-204.42C890.66,-210.61 924.95,-219.45 950.5,-226.03"/>
<polygon fill="black" stroke="black" points="949.96,-229.51 960.52,-228.61 951.71,-222.73 949.96,-229.51"/>
</g>
<!-- ndp_na_output&#45;&gt;icmp6_output -->
<g id="edge59" class="edge">
<title>ndp_na_output&#45;&gt;icmp6_output</title>
<path fill="none" stroke="black" d="M207.21,-219.13C289.48,-217.03 471.25,-210.08 622.68,-188 632.23,-186.61 642.42,-184.9 652.14,-183.17"/>
<polygon fill="black" stroke="black" points="652.85,-186.6 662.06,-181.37 651.6,-179.72 652.85,-186.6"/>
</g>
<!-- control_output -->
<g id="node11" class="node">
<title>control_output</title>
<ellipse fill="none" stroke="black" cx="1121.62" cy="-469" rx="44.51" ry="18"/>
<text text-anchor="middle" x="1121.62" y="-466.2" font-family="sans" font-size="11.00">control_output</text>
</g>
<!-- eth_input -->
<g id="node12" class="node">
<title>eth_input</title>
<ellipse fill="none" stroke="black" cx="161.91" cy="-594" rx="29.12" ry="18"/>
<text text-anchor="middle" x="161.91" y="-591.2" font-family="sans" font-size="11.00">eth_input</text>
</g>
<!-- arp_input -->
<g id="node13" class="node">
<title>arp_input</title>
<ellipse fill="none" stroke="black" cx="836.87" cy="-755" rx="29.12" ry="18"/>
<text text-anchor="middle" x="836.87" y="-752.2" font-family="sans" font-size="11.00">arp_input</text>
</g>
<!-- eth_input&#45;&gt;arp_input -->
<g id="edge11" class="edge">
<title>eth_input&#45;&gt;arp_input</title>
<path fill="none" stroke="black" d="M170.27,-611.36C181.95,-636.8 207.22,-683.89 243.5,-709 321.41,-762.92 355.25,-762 450,-762 450,-762 450,-762 582.43,-762 658.5,-762 747.37,-758.81 797.08,-756.74"/>
<polygon fill="black" stroke="black" points="797.53,-760.22 807.37,-756.3 797.23,-753.23 797.53,-760.22"/>
</g>
<!-- eth_input&#45;&gt;ip_input -->
<g id="edge12" class="edge">
<title>eth_input&#45;&gt;ip_input</title>
<path fill="none" stroke="black" d="M191.32,-594C212.77,-594 242.36,-594 265.5,-594"/>
<polygon fill="black" stroke="black" points="265.63,-597.5 275.63,-594 265.63,-590.5 265.63,-597.5"/>
</g>
<!-- eth_input&#45;&gt;ip6_input -->
<g id="edge13" class="edge">
<title>eth_input&#45;&gt;ip6_input</title>
<path fill="none" stroke="black" d="M173.34,-577.24C197.45,-538.48 257.19,-442.47 285.84,-396.42"/>
<polygon fill="black" stroke="black" points="288.98,-397.99 291.3,-387.65 283.04,-394.29 288.98,-397.99"/>
</g>
<!-- arp_input_request -->
<g id="node20" class="node">
<title>arp_input_request</title>
<ellipse fill="none" stroke="black" cx="986.3" cy="-755" rx="54.63" ry="18"/>
<text text-anchor="middle" x="986.3" y="-752.2" font-family="sans" font-size="11.00">arp_input_request</text>
</g>
<!-- arp_input&#45;&gt;arp_input_request -->
<g id="edge19" class="edge">
<title>arp_input&#45;&gt;arp_input_request</title>
<path fill="none" stroke="black" d="M866.3,-755C881.9,-755 901.93,-755 921.08,-755"/>
<polygon fill="black" stroke="black" points="921.29,-758.5 931.29,-755 921.29,-751.5 921.29,-758.5"/>
</g>
<!-- arp_input_reply -->
<g id="node21" class="node">
<title>arp_input_reply</title>
<ellipse fill="none" stroke="black" cx="986.3" cy="-701" rx="47.43" ry="18"/>
<text text-anchor="middle" x="986.3" y="-698.2" font-family="sans" font-size="11.00">arp_input_reply</text>
</g>
<!-- arp_input&#45;&gt;arp_input_reply -->
<g id="edge20" class="edge">
<title>arp_input&#45;&gt;arp_input_reply</title>
<path fill="none" stroke="black" d="M862.55,-745.96C884.21,-738.03 916.21,-726.31 942.1,-716.82"/>
<polygon fill="black" stroke="black" points="943.51,-720.03 951.7,-713.31 941.1,-713.46 943.51,-720.03"/>
</g>
<!-- ip_input&#45;&gt;ip_output -->
<g id="edge32" class="edge">
<title>ip_input&#45;&gt;ip_output</title>
<path fill="none" stroke="black" d="M317.13,-609.33C333.94,-627.16 364.54,-655.61 397.81,-667 457.98,-687.59 684.9,-662.62 742.26,-647 764.93,-640.83 788.77,-629.28 806.72,-619.43"/>
<polygon fill="black" stroke="black" points="808.53,-622.42 815.53,-614.47 805.1,-616.32 808.53,-622.42"/>
</g>
<!-- ip_forward -->
<g id="node24" class="node">
<title>ip_forward</title>
<ellipse fill="none" stroke="black" cx="451" cy="-640" rx="32.63" ry="18"/>
<text text-anchor="middle" x="451" y="-637.2" font-family="sans" font-size="11.00">ip_forward</text>
</g>
<!-- ip_input&#45;&gt;ip_forward -->
<g id="edge31" class="edge">
<title>ip_input&#45;&gt;ip_forward</title>
<path fill="none" stroke="black" d="M327.49,-601.49C350.55,-608.74 385.83,-619.83 412.62,-628.25"/>
<polygon fill="black" stroke="black" points="411.84,-631.67 422.43,-631.33 413.94,-625 411.84,-631.67"/>
</g>
<!-- ip_input_local -->
<g id="node26" class="node">
<title>ip_input_local</title>
<ellipse fill="none" stroke="black" cx="451" cy="-548" rx="41.49" ry="18"/>
<text text-anchor="middle" x="451" y="-545.2" font-family="sans" font-size="11.00">ip_input_local</text>
</g>
<!-- ip_input&#45;&gt;ip_input_local -->
<g id="edge33" class="edge">
<title>ip_input&#45;&gt;ip_input_local</title>
<path fill="none" stroke="black" d="M327.49,-586.51C349.11,-579.71 381.48,-569.54 407.52,-561.35"/>
<polygon fill="black" stroke="black" points="408.66,-564.66 417.15,-558.32 406.56,-557.98 408.66,-564.66"/>
</g>
<!-- ip6_input&#45;&gt;ip6_output -->
<g id="edge51" class="edge">
<title>ip6_input&#45;&gt;ip6_output</title>
<path fill="none" stroke="black" d="M326.06,-360.88C381.45,-336.18 529.74,-272.07 658.68,-234 704.77,-220.39 759.01,-209.84 795.23,-203.55"/>
<polygon fill="black" stroke="black" points="796.14,-206.95 805.4,-201.81 794.96,-200.05 796.14,-206.95"/>
</g>
<!-- ip6_forward -->
<g id="node35" class="node">
<title>ip6_forward</title>
<ellipse fill="none" stroke="black" cx="581.43" cy="-342" rx="35.64" ry="18"/>
<text text-anchor="middle" x="581.43" y="-339.2" font-family="sans" font-size="11.00">ip6_forward</text>
</g>
<!-- ip6_input&#45;&gt;ip6_forward -->
<g id="edge50" class="edge">
<title>ip6_input&#45;&gt;ip6_forward</title>
<path fill="none" stroke="black" d="M330.7,-368.17C378.43,-363.17 478.05,-352.73 536.01,-346.65"/>
<polygon fill="black" stroke="black" points="536.4,-350.13 545.98,-345.61 535.67,-343.17 536.4,-350.13"/>
</g>
<!-- ip6_input_local -->
<g id="node37" class="node">
<title>ip6_input_local</title>
<ellipse fill="none" stroke="black" cx="451" cy="-396" rx="45.09" ry="18"/>
<text text-anchor="middle" x="451" y="-393.2" font-family="sans" font-size="11.00">ip6_input_local</text>
</g>
<!-- ip6_input&#45;&gt;ip6_input_local -->
<g id="edge52" class="edge">
<title>ip6_input&#45;&gt;ip6_input_local</title>
<path fill="none" stroke="black" d="M330.16,-375.53C349.39,-378.81 376,-383.36 399.26,-387.33"/>
<polygon fill="black" stroke="black" points="398.88,-390.82 409.33,-389.05 400.06,-383.92 398.88,-390.82"/>
</g>
<!-- port_tx -->
<g id="node17" class="node">
<title>port_tx</title>
<ellipse fill="none" stroke="black" cx="1121.62" cy="-126" rx="27" ry="18"/>
<text text-anchor="middle" x="1121.62" y="-123.2" font-family="sans" font-size="11.00">port_tx</text>
</g>
<!-- eth_output&#45;&gt;port_tx -->
<g id="edge14" class="edge">
<title>eth_output&#45;&gt;port_tx</title>
<path fill="none" stroke="black" d="M1020.26,-126C1039.6,-126 1064.09,-126 1084.03,-126"/>
<polygon fill="black" stroke="black" points="1084.29,-129.5 1094.29,-126 1084.29,-122.5 1084.29,-129.5"/>
</g>
<!-- loopback_output&#45;&gt;control_output -->
<g id="edge17" class="edge">
<title>loopback_output&#45;&gt;control_output</title>
<path fill="none" stroke="black" d="M1031.32,-485.74C1043.89,-483.39 1057.68,-480.8 1070.58,-478.38"/>
<polygon fill="black" stroke="black" points="1071.51,-481.77 1080.69,-476.49 1070.22,-474.89 1071.51,-481.77"/>
</g>
<!-- port_rx -->
<g id="node19" class="node">
<title>port_rx</title>
<ellipse fill="none" stroke="blue" stroke-width="2" cx="40.16" cy="-594" rx="27" ry="18"/>
<text text-anchor="middle" x="40.16" y="-591.2" font-family="sans" font-size="11.00">port_rx</text>
</g>
<!-- port_rx&#45;&gt;eth_input -->
<g id="edge18" class="edge">
<title>port_rx&#45;&gt;eth_input</title>
<path fill="none" stroke="blue" stroke-width="2" d="M67.44,-594C83.56,-594 104.47,-594 122.43,-594"/>
<polygon fill="blue" stroke="blue" stroke-width="2" points="122.6,-597.5 132.6,-594 122.6,-590.5 122.6,-597.5"/>
</g>
<!-- arp_input_request&#45;&gt;control_output -->
<g id="edge22" class="edge">
<title>arp_input_request&#45;&gt;control_output</title>
<path fill="none" stroke="black" d="M1023.76,-741.8C1030.23,-738.14 1036.39,-733.59 1041.12,-728 1099.09,-659.42 1114.81,-549.08 1119.06,-497.41"/>
<polygon fill="black" stroke="black" points="1122.56,-497.54 1119.8,-487.31 1115.58,-497.03 1122.56,-497.54"/>
</g>
<!-- arp_input_reply&#45;&gt;control_output -->
<g id="edge21" class="edge">
<title>arp_input_reply&#45;&gt;control_output</title>
<path fill="none" stroke="black" d="M1021.22,-688.74C1028.49,-684.9 1035.63,-680.03 1041.12,-674 1087.99,-622.45 1108.44,-540.19 1116.31,-497.22"/>
<polygon fill="black" stroke="black" points="1119.79,-497.64 1118.05,-487.19 1112.9,-496.44 1119.79,-497.64"/>
</g>
<!-- icmp_input -->
<g id="node22" class="node">
<title>icmp_input</title>
<ellipse fill="none" stroke="black" cx="581.43" cy="-548" rx="33.8" ry="18"/>
<text text-anchor="middle" x="581.43" y="-545.2" font-family="sans" font-size="11.00">icmp_input</text>
</g>
<!-- icmp_input&#45;&gt;control_output -->
<g id="edge26" class="edge">
<title>icmp_input&#45;&gt;control_output</title>
<path fill="none" stroke="black" d="M614.63,-551.65C690.98,-559.13 888.11,-571.54 1041.12,-521 1060.23,-514.69 1079.19,-502.57 1093.8,-491.63"/>
<polygon fill="black" stroke="black" points="1096.11,-494.26 1101.86,-485.37 1091.82,-488.73 1096.11,-494.26"/>
</g>
<!-- icmp_input&#45;&gt;icmp_output -->
<g id="edge25" class="edge">
<title>icmp_input&#45;&gt;icmp_output</title>
<path fill="none" stroke="black" d="M607.54,-559.58C623.78,-567.08 645.19,-576.96 663.26,-585.29"/>
<polygon fill="black" stroke="black" points="661.82,-588.48 672.36,-589.49 664.75,-582.13 661.82,-588.48"/>
</g>
<!-- icmp_output&#45;&gt;ip_output -->
<g id="edge28" class="edge">
<title>icmp_output&#45;&gt;ip_output</title>
<path fill="none" stroke="black" d="M738.55,-602C756.82,-602 778.84,-602 797.31,-602"/>
<polygon fill="black" stroke="black" points="797.44,-605.5 807.44,-602 797.44,-598.5 797.44,-605.5"/>
</g>
<!-- ip_forward&#45;&gt;ip_output -->
<g id="edge29" class="edge">
<title>ip_forward&#45;&gt;ip_output</title>
<path fill="none" stroke="black" d="M483.6,-641.29C537.19,-642.94 649.15,-643.96 742.26,-629 762.22,-625.79 783.95,-619.69 801.45,-614.1"/>
<polygon fill="black" stroke="black" points="802.81,-617.34 811.21,-610.89 800.62,-610.69 802.81,-617.34"/>
</g>
<!-- ip_hold&#45;&gt;control_output -->
<g id="edge30" class="edge">
<title>ip_hold&#45;&gt;control_output</title>
<path fill="none" stroke="black" d="M1008.52,-582.45C1018.87,-576.8 1031.2,-569.31 1041.12,-561 1064.66,-541.28 1087.12,-514.26 1102.12,-494.61"/>
<polygon fill="black" stroke="black" points="1105.07,-496.52 1108.27,-486.42 1099.47,-492.31 1105.07,-496.52"/>
</g>
<!-- ip_input_local&#45;&gt;icmp_input -->
<g id="edge34" class="edge">
<title>ip_input_local&#45;&gt;icmp_input</title>
<path fill="none" stroke="black" d="M492.28,-548C506.61,-548 522.79,-548 537.34,-548"/>
<polygon fill="black" stroke="black" points="537.6,-551.5 547.6,-548 537.6,-544.5 537.6,-551.5"/>
</g>
<!-- ipip_input -->
<g id="node27" class="node">
<title>ipip_input</title>
<ellipse fill="none" stroke="black" cx="581.43" cy="-602" rx="29.7" ry="18"/>
<text text-anchor="middle" x="581.43" y="-599.2" font-family="sans" font-size="11.00">ipip_input</text>
</g>
<!-- ip_input_local&#45;&gt;ipip_input -->
<g id="edge35" class="edge">
<title>ip_input_local&#45;&gt;ipip_input</title>
<path fill="none" stroke="black" d="M481.46,-560.39C500.94,-568.58 526.52,-579.33 546.79,-587.86"/>
<polygon fill="black" stroke="black" points="545.69,-591.19 556.27,-591.84 548.41,-584.74 545.69,-591.19"/>
</g>
<!-- l4_input_local -->
<g id="node28" class="node">
<title>l4_input_local</title>
<ellipse fill="none" stroke="black" cx="581.43" cy="-456" rx="41.49" ry="18"/>
<text text-anchor="middle" x="581.43" y="-453.2" font-family="sans" font-size="11.00">l4_input_local</text>
</g>
<!-- ip_input_local&#45;&gt;l4_input_local -->
<g id="edge36" class="edge">
<title>ip_input_local&#45;&gt;l4_input_local</title>
<path fill="none" stroke="black" d="M473.21,-532.81C494.4,-517.63 527.16,-494.16 550.9,-477.16"/>
<polygon fill="black" stroke="black" points="553.1,-479.88 559.19,-471.21 549.03,-474.19 553.1,-479.88"/>
</g>
<!-- ipip_input&#45;&gt;ip_input -->
<g id="edge63" class="edge">
<title>ipip_input&#45;&gt;ip_input</title>
<path fill="none" stroke="black" d="M551.37,-601.16C500.45,-599.69 395.29,-596.65 339.78,-595.04"/>
<polygon fill="black" stroke="black" points="339.79,-591.54 329.69,-594.75 339.59,-598.54 339.79,-591.54"/>
</g>
<!-- l4_loopback_output -->
<g id="node38" class="node">
<title>l4_loopback_output</title>
<ellipse fill="none" stroke="black" cx="836.87" cy="-496" rx="58.73" ry="18"/>
<text text-anchor="middle" x="836.87" y="-493.2" font-family="sans" font-size="11.00">l4_loopback_output</text>
</g>
<!-- l4_input_local&#45;&gt;l4_loopback_output -->
<g id="edge65" class="edge">
<title>l4_input_local&#45;&gt;l4_loopback_output</title>
<path fill="none" stroke="black" d="M620.38,-461.99C661.11,-468.42 726.45,-478.73 774.52,-486.32"/>
<polygon fill="black" stroke="black" points="774.07,-489.79 784.49,-487.89 775.16,-482.87 774.07,-489.79"/>
</g>
<!-- ipip_output&#45;&gt;ip_output -->
<g id="edge64" class="edge">
<title>ipip_output&#45;&gt;ip_output</title>
<path fill="none" stroke="black" d="M952.82,-642.79C927.93,-636.61 893.8,-626.17 869.2,-617.2"/>
<polygon fill="black" stroke="black" points="870.22,-613.85 859.63,-613.6 867.75,-620.4 870.22,-613.85"/>
</g>
<!-- icmp6_input -->
<g id="node30" class="node">
<title>icmp6_input</title>
<ellipse fill="none" stroke="black" cx="581.43" cy="-396" rx="37.4" ry="18"/>
<text text-anchor="middle" x="581.43" y="-393.2" font-family="sans" font-size="11.00">icmp6_input</text>
</g>
<!-- icmp6_input&#45;&gt;control_output -->
<g id="edge45" class="edge">
<title>icmp6_input&#45;&gt;control_output</title>
<path fill="none" stroke="black" d="M606.19,-382.31C611.93,-378.41 617.81,-373.89 622.68,-369 643.05,-348.57 633.25,-328.61 658.68,-315 691.43,-297.47 705.31,-311.18 742.26,-315 877.28,-328.95 924.08,-309.23 1041.12,-378 1068.18,-393.9 1090.77,-422.3 1104.86,-443.16"/>
<polygon fill="black" stroke="black" points="1101.97,-445.13 1110.37,-451.58 1107.83,-441.29 1101.97,-445.13"/>
</g>
<!-- icmp6_input&#45;&gt;icmp6_output -->
<g id="edge41" class="edge">
<title>icmp6_input&#45;&gt;icmp6_output</title>
<path fill="none" stroke="black" d="M607.36,-382.7C612.95,-378.85 618.46,-374.24 622.68,-369 628.21,-362.12 669.48,-253.62 689.13,-201.51"/>
<polygon fill="black" stroke="black" points="692.51,-202.48 692.75,-191.89 685.95,-200.02 692.51,-202.48"/>
</g>
<!-- ndp_ns_input -->
<g id="node32" class="node">
<title>ndp_ns_input</title>
<ellipse fill="none" stroke="black" cx="836.87" cy="-442" rx="40.32" ry="18"/>
<text text-anchor="middle" x="836.87" y="-439.2" font-family="sans" font-size="11.00">ndp_ns_input</text>
</g>
<!-- icmp6_input&#45;&gt;ndp_ns_input -->
<g id="edge42" class="edge">
<title>icmp6_input&#45;&gt;ndp_ns_input</title>
<path fill="none" stroke="black" d="M610.21,-407.6C624.47,-413.1 642.25,-419.26 658.68,-423 701.24,-432.68 750.7,-437.46 786.54,-439.8"/>
<polygon fill="black" stroke="black" points="786.53,-443.31 796.73,-440.43 786.96,-436.32 786.53,-443.31"/>
</g>
<!-- ndp_na_input -->
<g id="node33" class="node">
<title>ndp_na_input</title>
<ellipse fill="none" stroke="black" cx="700.47" cy="-396" rx="40.91" ry="18"/>
<text text-anchor="middle" x="700.47" y="-393.2" font-family="sans" font-size="11.00">ndp_na_input</text>
</g>
<!-- icmp6_input&#45;&gt;ndp_na_input -->
<g id="edge43" class="edge">
<title>icmp6_input&#45;&gt;ndp_na_input</title>
<path fill="none" stroke="black" d="M619.14,-396C628.8,-396 639.37,-396 649.59,-396"/>
<polygon fill="black" stroke="black" points="649.64,-399.5 659.64,-396 649.64,-392.5 649.64,-399.5"/>
</g>
<!-- ndp_rs_input -->
<g id="node34" class="node">
<title>ndp_rs_input</title>
<ellipse fill="none" stroke="black" cx="700.47" cy="-342" rx="39.15" ry="18"/>
<text text-anchor="middle" x="700.47" y="-339.2" font-family="sans" font-size="11.00">ndp_rs_input</text>
</g>
<!-- icmp6_input&#45;&gt;ndp_rs_input -->
<g id="edge44" class="edge">
<title>icmp6_input&#45;&gt;ndp_rs_input</title>
<path fill="none" stroke="black" d="M608.99,-383.75C624.92,-376.4 645.42,-366.94 662.87,-358.89"/>
<polygon fill="black" stroke="black" points="664.59,-361.95 672.2,-354.58 661.66,-355.59 664.59,-361.95"/>
</g>
<!-- icmp6_output&#45;&gt;ip6_output -->
<g id="edge46" class="edge">
<title>icmp6_output&#45;&gt;ip6_output</title>
<path fill="none" stroke="black" d="M739.62,-180.53C757.01,-183.5 777.61,-187.03 795.28,-190.05"/>
<polygon fill="black" stroke="black" points="794.85,-193.53 805.3,-191.77 796.03,-186.63 794.85,-193.53"/>
</g>
<!-- ndp_ns_input&#45;&gt;control_output -->
<g id="edge60" class="edge">
<title>ndp_ns_input&#45;&gt;control_output</title>
<path fill="none" stroke="black" d="M876.3,-445.67C925.91,-450.41 1012.45,-458.67 1068.1,-463.99"/>
<polygon fill="black" stroke="black" points="1067.83,-467.48 1078.12,-464.94 1068.5,-460.51 1067.83,-467.48"/>
</g>
<!-- ndp_na_input&#45;&gt;control_output -->
<g id="edge58" class="edge">
<title>ndp_na_input&#45;&gt;control_output</title>
<path fill="none" stroke="black" d="M741.03,-398.49C780.36,-401.3 842.33,-406.59 895.49,-415 960.94,-425.36 976.8,-431.05 1041.12,-447 1052.08,-449.72 1063.83,-452.85 1074.85,-455.88"/>
<polygon fill="black" stroke="black" points="1074.14,-459.32 1084.71,-458.62 1076.01,-452.57 1074.14,-459.32"/>
</g>
<!-- ndp_rs_input&#45;&gt;control_output -->
<g id="edge62" class="edge">
<title>ndp_rs_input&#45;&gt;control_output</title>
<path fill="none" stroke="black" d="M738.74,-345.77C802.71,-353.21 936.61,-373.03 1041.12,-417 1059.29,-424.65 1077.82,-436.49 1092.42,-446.94"/>
<polygon fill="black" stroke="black" points="1090.4,-449.8 1100.53,-452.9 1094.54,-444.16 1090.4,-449.8"/>
</g>
<!-- ip6_forward&#45;&gt;ip6_output -->
<g id="edge48" class="edge">
<title>ip6_forward&#45;&gt;ip6_output</title>
<path fill="none" stroke="black" d="M601.44,-326.88C623.01,-309.73 655.64,-283.89 658.68,-282 705.6,-252.78 764.11,-226.5 800.74,-211.14"/>
<polygon fill="black" stroke="black" points="802.12,-214.36 810.01,-207.29 799.43,-207.89 802.12,-214.36"/>
</g>
<!-- ip6_hold&#45;&gt;control_output -->
<g id="edge49" class="edge">
<title>ip6_hold&#45;&gt;control_output</title>
<path fill="none" stroke="black" d="M1005.67,-247.68C1017.07,-256.3 1031.36,-268.54 1041.12,-282 1077.75,-332.51 1101.71,-402.49 1113.03,-440.92"/>
<polygon fill="black" stroke="black" points="1109.76,-442.24 1115.88,-450.89 1116.49,-440.31 1109.76,-442.24"/>
</g>
<!-- ip6_input_local&#45;&gt;l4_input_local -->
<g id="edge54" class="edge">
<title>ip6_input_local&#45;&gt;l4_input_local</title>
<path fill="none" stroke="black" d="M481.14,-409.61C499.67,-418.27 523.82,-429.55 543.66,-438.82"/>
<polygon fill="black" stroke="black" points="542.18,-441.99 552.73,-443.06 545.15,-435.65 542.18,-441.99"/>
</g>
<!-- ip6_input_local&#45;&gt;icmp6_input -->
<g id="edge53" class="edge">
<title>ip6_input_local&#45;&gt;icmp6_input</title>
<path fill="none" stroke="black" d="M496.2,-396C508.33,-396 521.52,-396 533.78,-396"/>
<polygon fill="black" stroke="black" points="533.82,-399.5 543.82,-396 533.82,-392.5 533.82,-399.5"/>
</g>
<!-- l4_loopback_output&#45;&gt;loopback_output -->
<g id="edge66" class="edge">
<title>l4_loopback_output&#45;&gt;loopback_output</title>
<path fill="none" stroke="black" d="M895.72,-495.22C905.54,-495.08 915.75,-494.94 925.61,-494.81"/>
<polygon fill="black" stroke="black" points="925.79,-498.31 935.74,-494.67 925.69,-491.31 925.79,-498.31"/>
</g>
</g>
</svg>
