<?xml version="1.0" encoding="UTF-8" standalone="no"?>
<!DOCTYPE svg PUBLIC "-//W3C//DTD SVG 1.1//EN"
 "http://www.w3.org/Graphics/SVG/1.1/DTD/svg11.dtd">
<!-- Generated by graphviz version 9.0.0 (20230911.1827)
 -->
<!-- Title: gr&#45;0003 Pages: 1 -->
<svg width="1046pt" height="452pt"
 viewBox="0.00 0.00 1046.29 452.00" xmlns="http://www.w3.org/2000/svg" xmlns:xlink="http://www.w3.org/1999/xlink">
<g id="graph0" class="graph" transform="scale(1 1) rotate(0) translate(4 448)">
<title>gr&#45;0003</title>
<polygon fill="white" stroke="none" points="-4,4 -4,-448 1042.29,-448 1042.29,4 -4,4"/>
<!-- control_input -->
<g id="node1" class="node">
<title>control_input</title>
<ellipse fill="none" stroke="blue" stroke-width="2" cx="513.55" cy="-237" rx="41.62" ry="18"/>
<text text-anchor="middle" x="513.55" y="-233.3" font-family="sans" font-size="11.00">control_input</text>
</g>
<!-- arp_output_request -->
<g id="node2" class="node">
<title>arp_output_request</title>
<ellipse fill="none" stroke="black" cx="781.1" cy="-244" rx="61.42" ry="18"/>
<text text-anchor="middle" x="781.1" y="-240.3" font-family="sans" font-size="11.00">arp_output_request</text>
</g>
<!-- control_input&#45;&gt;arp_output_request -->
<g id="edge1" class="edge">
<title>control_input&#45;&gt;arp_output_request</title>
<path fill="none" stroke="blue" stroke-width="2" d="M553.87,-241.9C565.83,-243.17 579.02,-244.37 591.18,-245 629.9,-247.02 673.14,-246.96 708.47,-246.31"/>
<polygon fill="blue" stroke="blue" stroke-width="2" points="706.7,-249.85 716.63,-246.14 706.56,-242.85 706.7,-249.85"/>
</g>
<!-- ndp_ns_output -->
<g id="node3" class="node">
<title>ndp_ns_output</title>
<ellipse fill="none" stroke="black" cx="637.43" cy="-218" rx="46.26" ry="18"/>
<text text-anchor="middle" x="637.43" y="-214.3" font-family="sans" font-size="11.00">ndp_ns_output</text>
</g>
<!-- control_input&#45;&gt;ndp_ns_output -->
<g id="edge2" class="edge">
<title>control_input&#45;&gt;ndp_ns_output</title>
<path fill="none" stroke="blue" stroke-width="2" d="M553.12,-230.99C562.54,-229.52 572.8,-227.92 582.78,-226.36"/>
<polygon fill="blue" stroke="blue" stroke-width="2" points="581.56,-230.1 590.9,-225.1 580.48,-223.18 581.56,-230.1"/>
</g>
<!-- eth_output -->
<g id="node8" class="node">
<title>eth_output</title>
<ellipse fill="none" stroke="black" cx="913.4" cy="-271" rx="34.89" ry="18"/>
<text text-anchor="middle" x="913.4" y="-267.3" font-family="sans" font-size="11.00">eth_output</text>
</g>
<!-- arp_output_request&#45;&gt;eth_output -->
<g id="edge11" class="edge">
<title>arp_output_request&#45;&gt;eth_output</title>
<path fill="none" stroke="black" d="M832.11,-254.36C844.4,-256.91 857.45,-259.61 869.38,-262.09"/>
<polygon fill="black" stroke="black" points="868.43,-265.46 878.93,-264.06 869.85,-258.61 868.43,-265.46"/>
</g>
<!-- ip6_output -->
<g id="node23" class="node">
<title>ip6_output</title>
<ellipse fill="none" stroke="black" cx="781.1" cy="-149" rx="34.04" ry="18"/>
<text text-anchor="middle" x="781.1" y="-145.3" font-family="sans" font-size="11.00">ip6_output</text>
</g>
<!-- ndp_ns_output&#45;&gt;ip6_output -->
<g id="edge32" class="edge">
<title>ndp_ns_output&#45;&gt;ip6_output</title>
<path fill="none" stroke="black" d="M667.44,-203.87C690.01,-192.88 721.4,-177.59 745.31,-165.94"/>
<polygon fill="black" stroke="black" points="746.57,-169.23 754.03,-161.7 743.5,-162.93 746.57,-169.23"/>
</g>
<!-- eth_input -->
<g id="node4" class="node">
<title>eth_input</title>
<ellipse fill="none" stroke="black" cx="156.66" cy="-280" rx="30.25" ry="18"/>
<text text-anchor="middle" x="156.66" y="-276.3" font-family="sans" font-size="11.00">eth_input</text>
</g>
<!-- arp_input -->
<g id="node5" class="node">
<title>arp_input</title>
<ellipse fill="none" stroke="black" cx="389.25" cy="-302" rx="30.25" ry="18"/>
<text text-anchor="middle" x="389.25" y="-298.3" font-family="sans" font-size="11.00">arp_input</text>
</g>
<!-- eth_input&#45;&gt;arp_input -->
<g id="edge3" class="edge">
<title>eth_input&#45;&gt;arp_input</title>
<path fill="none" stroke="black" d="M186.86,-282.79C227.56,-286.67 301.49,-293.72 347.56,-298.12"/>
<polygon fill="black" stroke="black" points="347.13,-301.59 357.42,-299.06 347.79,-294.62 347.13,-301.59"/>
</g>
<!-- ip_input -->
<g id="node6" class="node">
<title>ip_input</title>
<ellipse fill="none" stroke="black" cx="267.06" cy="-354" rx="27" ry="18"/>
<text text-anchor="middle" x="267.06" y="-350.3" font-family="sans" font-size="11.00">ip_input</text>
</g>
<!-- eth_input&#45;&gt;ip_input -->
<g id="edge4" class="edge">
<title>eth_input&#45;&gt;ip_input</title>
<path fill="none" stroke="black" d="M177.54,-293.57C194.51,-305.16 219.1,-321.94 238.06,-334.89"/>
<polygon fill="black" stroke="black" points="235.91,-337.65 246.14,-340.4 239.86,-331.87 235.91,-337.65"/>
</g>
<!-- ip6_input -->
<g id="node7" class="node">
<title>ip6_input</title>
<ellipse fill="none" stroke="black" cx="267.06" cy="-172" rx="29.41" ry="18"/>
<text text-anchor="middle" x="267.06" y="-168.3" font-family="sans" font-size="11.00">ip6_input</text>
</g>
<!-- eth_input&#45;&gt;ip6_input -->
<g id="edge5" class="edge">
<title>eth_input&#45;&gt;ip6_input</title>
<path fill="none" stroke="black" d="M173.19,-264.53C191.4,-246.38 221.78,-216.12 242.8,-195.17"/>
<polygon fill="black" stroke="black" points="245.22,-197.7 249.84,-188.17 240.28,-192.74 245.22,-197.7"/>
</g>
<!-- arp_output_reply -->
<g id="node11" class="node">
<title>arp_output_reply</title>
<ellipse fill="none" stroke="black" cx="781.1" cy="-298" rx="53.41" ry="18"/>
<text text-anchor="middle" x="781.1" y="-294.3" font-family="sans" font-size="11.00">arp_output_reply</text>
</g>
<!-- arp_input&#45;&gt;arp_output_reply -->
<g id="edge8" class="edge">
<title>arp_input&#45;&gt;arp_output_reply</title>
<path fill="none" stroke="black" d="M419.88,-301.7C482.73,-301.05 630.69,-299.53 716.14,-298.66"/>
<polygon fill="black" stroke="black" points="716.04,-302.16 726.01,-298.56 715.97,-295.16 716.04,-302.16"/>
</g>
<!-- ip_output -->
<g id="node12" class="node">
<title>ip_output</title>
<ellipse fill="none" stroke="black" cx="513.55" cy="-381" rx="30.25" ry="18"/>
<text text-anchor="middle" x="513.55" y="-377.3" font-family="sans" font-size="11.00">ip_output</text>
</g>
<!-- arp_input&#45;&gt;ip_output -->
<g id="edge9" class="edge">
<title>arp_input&#45;&gt;ip_output</title>
<path fill="none" stroke="black" d="M410.73,-315.22C430.42,-327.95 460.42,-347.32 482.76,-361.76"/>
<polygon fill="black" stroke="black" points="480.85,-364.69 491.15,-367.18 484.65,-358.81 480.85,-364.69"/>
</g>
<!-- ip_forward -->
<g id="node15" class="node">
<title>ip_forward</title>
<ellipse fill="none" stroke="black" cx="389.25" cy="-364" rx="33.62" ry="18"/>
<text text-anchor="middle" x="389.25" y="-360.3" font-family="sans" font-size="11.00">ip_forward</text>
</g>
<!-- ip_input&#45;&gt;ip_forward -->
<g id="edge15" class="edge">
<title>ip_input&#45;&gt;ip_forward</title>
<path fill="none" stroke="black" d="M294.14,-356.17C308.84,-357.39 327.58,-358.95 344.47,-360.36"/>
<polygon fill="black" stroke="black" points="344.03,-363.83 354.28,-361.17 344.61,-356.86 344.03,-363.83"/>
</g>
<!-- ip_input_local -->
<g id="node16" class="node">
<title>ip_input_local</title>
<ellipse fill="none" stroke="black" cx="42.89" cy="-380" rx="42.89" ry="18"/>
<text text-anchor="middle" x="42.89" y="-376.3" font-family="sans" font-size="11.00">ip_input_local</text>
</g>
<!-- ip_input&#45;&gt;ip_input_local -->
<g id="edge16" class="edge">
<title>ip_input&#45;&gt;ip_input_local</title>
<path fill="none" stroke="black" d="M240.15,-357.03C204.96,-361.15 141.29,-368.6 96.01,-373.9"/>
<polygon fill="black" stroke="black" points="95.67,-370.42 86.14,-375.06 96.48,-377.37 95.67,-370.42"/>
</g>
<!-- ip6_forward -->
<g id="node24" class="node">
<title>ip6_forward</title>
<ellipse fill="none" stroke="black" cx="389.25" cy="-172" rx="37.41" ry="18"/>
<text text-anchor="middle" x="389.25" y="-168.3" font-family="sans" font-size="11.00">ip6_forward</text>
</g>
<!-- ip6_input&#45;&gt;ip6_forward -->
<g id="edge26" class="edge">
<title>ip6_input&#45;&gt;ip6_forward</title>
<path fill="none" stroke="black" d="M296.85,-172C309.78,-172 325.4,-172 340.04,-172"/>
<polygon fill="black" stroke="black" points="339.98,-175.5 349.98,-172 339.98,-168.5 339.98,-175.5"/>
</g>
<!-- ip6_input_local -->
<g id="node25" class="node">
<title>ip6_input_local</title>
<ellipse fill="none" stroke="black" cx="389.25" cy="-95" rx="46.68" ry="18"/>
<text text-anchor="middle" x="389.25" y="-91.3" font-family="sans" font-size="11.00">ip6_input_local</text>
</g>
<!-- ip6_input&#45;&gt;ip6_input_local -->
<g id="edge27" class="edge">
<title>ip6_input&#45;&gt;ip6_input_local</title>
<path fill="none" stroke="black" d="M288.18,-159.11C306.18,-147.58 332.94,-130.44 354.25,-116.78"/>
<polygon fill="black" stroke="black" points="356.11,-119.75 362.64,-111.41 352.34,-113.85 356.11,-119.75"/>
</g>
<!-- port_tx -->
<g id="node9" class="node">
<title>port_tx</title>
<ellipse fill="none" stroke="black" cx="1011.29" cy="-271" rx="27" ry="18"/>
<text text-anchor="middle" x="1011.29" y="-267.3" font-family="sans" font-size="11.00">port_tx</text>
</g>
<!-- eth_output&#45;&gt;port_tx -->
<g id="edge6" class="edge">
<title>eth_output&#45;&gt;port_tx</title>
<path fill="none" stroke="black" d="M948.75,-271C956.46,-271 964.68,-271 972.52,-271"/>
<polygon fill="black" stroke="black" points="972.49,-274.5 982.49,-271 972.49,-267.5 972.49,-274.5"/>
</g>
<!-- port_rx -->
<g id="node10" class="node">
<title>port_rx</title>
<ellipse fill="none" stroke="blue" stroke-width="2" cx="42.89" cy="-280" rx="27" ry="18"/>
<text text-anchor="middle" x="42.89" y="-276.3" font-family="sans" font-size="11.00">port_rx</text>
</g>
<!-- port_rx&#45;&gt;eth_input -->
<g id="edge7" class="edge">
<title>port_rx&#45;&gt;eth_input</title>
<path fill="none" stroke="blue" stroke-width="2" d="M70.37,-280C83.62,-280 99.94,-280 114.75,-280"/>
<polygon fill="blue" stroke="blue" stroke-width="2" points="113.19,-283.5 123.19,-280 113.19,-276.5 113.19,-283.5"/>
</g>
<!-- arp_output_reply&#45;&gt;eth_output -->
<g id="edge10" class="edge">
<title>arp_output_reply&#45;&gt;eth_output</title>
<path fill="none" stroke="black" d="M827.31,-288.63C840.98,-285.8 855.94,-282.7 869.46,-279.9"/>
<polygon fill="black" stroke="black" points="869.84,-283.39 878.93,-277.94 868.42,-276.54 869.84,-283.39"/>
</g>
<!-- ip_output&#45;&gt;eth_output -->
<g id="edge19" class="edge">
<title>ip_output&#45;&gt;eth_output</title>
<path fill="none" stroke="black" d="M541.75,-374.05C556.34,-370.46 574.67,-366.18 591.18,-363 702.11,-341.62 738.64,-369.41 842.52,-325 859.2,-317.87 875.38,-305.8 887.97,-294.88"/>
<polygon fill="black" stroke="black" points="890.26,-297.53 895.33,-288.23 885.57,-292.33 890.26,-297.53"/>
</g>
<!-- ipip_output -->
<g id="node18" class="node">
<title>ipip_output</title>
<ellipse fill="none" stroke="black" cx="637.43" cy="-390" rx="35.73" ry="18"/>
<text text-anchor="middle" x="637.43" y="-386.3" font-family="sans" font-size="11.00">ipip_output</text>
</g>
<!-- ip_output&#45;&gt;ipip_output -->
<g id="edge20" class="edge">
<title>ip_output&#45;&gt;ipip_output</title>
<path fill="none" stroke="black" d="M543.44,-377.29C558.54,-377.46 577.31,-378.64 594.02,-380.4"/>
<polygon fill="black" stroke="black" points="593.35,-383.85 603.69,-381.54 594.17,-376.9 593.35,-383.85"/>
</g>
<!-- icmp_input -->
<g id="node13" class="node">
<title>icmp_input</title>
<ellipse fill="none" stroke="black" cx="156.66" cy="-426" rx="34.89" ry="18"/>
<text text-anchor="middle" x="156.66" y="-422.3" font-family="sans" font-size="11.00">icmp_input</text>
</g>
<!-- icmp_output -->
<g id="node14" class="node">
<title>icmp_output</title>
<ellipse fill="none" stroke="black" cx="267.06" cy="-422" rx="39.52" ry="18"/>
<text text-anchor="middle" x="267.06" y="-418.3" font-family="sans" font-size="11.00">icmp_output</text>
</g>
<!-- icmp_input&#45;&gt;icmp_output -->
<g id="edge12" class="edge">
<title>icmp_input&#45;&gt;icmp_output</title>
<path fill="none" stroke="black" d="M191.96,-424.73C199.63,-424.45 207.92,-424.15 216.08,-423.84"/>
<polygon fill="black" stroke="black" points="216.08,-427.35 225.95,-423.48 215.83,-420.35 216.08,-427.35"/>
</g>
<!-- icmp_output&#45;&gt;ip_output -->
<g id="edge13" class="edge">
<title>icmp_output&#45;&gt;ip_output</title>
<path fill="none" stroke="black" d="M304.66,-415.86C349.86,-408.28 426.43,-395.44 472.96,-387.64"/>
<polygon fill="black" stroke="black" points="473.33,-391.13 482.61,-386.02 472.17,-384.22 473.33,-391.13"/>
</g>
<!-- ip_forward&#45;&gt;ip_output -->
<g id="edge14" class="edge">
<title>ip_forward&#45;&gt;ip_output</title>
<path fill="none" stroke="black" d="M422.07,-368.42C437.59,-370.58 456.43,-373.2 472.88,-375.49"/>
<polygon fill="black" stroke="black" points="471.94,-378.89 482.33,-376.8 472.9,-371.95 471.94,-378.89"/>
</g>
<!-- ip_input_local&#45;&gt;icmp_input -->
<g id="edge17" class="edge">
<title>ip_input_local&#45;&gt;icmp_input</title>
<path fill="none" stroke="black" d="M74.43,-392.57C87.92,-398.12 103.92,-404.71 118.13,-410.56"/>
<polygon fill="black" stroke="black" points="116.6,-413.71 127.18,-414.28 119.27,-407.24 116.6,-413.71"/>
</g>
<!-- ipip_input -->
<g id="node17" class="node">
<title>ipip_input</title>
<ellipse fill="none" stroke="black" cx="156.66" cy="-334" rx="31.1" ry="18"/>
<text text-anchor="middle" x="156.66" y="-330.3" font-family="sans" font-size="11.00">ipip_input</text>
</g>
<!-- ip_input_local&#45;&gt;ipip_input -->
<g id="edge18" class="edge">
<title>ip_input_local&#45;&gt;ipip_input</title>
<path fill="none" stroke="black" d="M74.43,-367.43C88.68,-361.57 105.72,-354.55 120.51,-348.47"/>
<polygon fill="black" stroke="black" points="121.49,-351.85 129.4,-344.81 118.82,-345.38 121.49,-351.85"/>
</g>
<!-- ipip_input&#45;&gt;ip_input -->
<g id="edge33" class="edge">
<title>ipip_input&#45;&gt;ip_input</title>
<path fill="none" stroke="black" d="M186.71,-339.36C199.84,-341.78 215.5,-344.67 229.43,-347.24"/>
<polygon fill="black" stroke="black" points="228.67,-350.66 239.14,-349.03 229.94,-343.78 228.67,-350.66"/>
</g>
<!-- ipip_output&#45;&gt;ip_output -->
<g id="edge34" class="edge">
<title>ipip_output&#45;&gt;ip_output</title>
<path fill="none" stroke="black" d="M602.32,-393.61C586.79,-393.23 568.36,-391.92 552.4,-390.09"/>
<polygon fill="black" stroke="black" points="553.17,-386.66 542.8,-388.87 552.28,-393.61 553.17,-386.66"/>
</g>
<!-- icmp6_input -->
<g id="node19" class="node">
<title>icmp6_input</title>
<ellipse fill="none" stroke="black" cx="513.55" cy="-84" rx="38.68" ry="18"/>
<text text-anchor="middle" x="513.55" y="-80.3" font-family="sans" font-size="11.00">icmp6_input</text>
</g>
<!-- icmp6_output -->
<g id="node20" class="node">
<title>icmp6_output</title>
<ellipse fill="none" stroke="black" cx="637.43" cy="-18" rx="43.31" ry="18"/>
<text text-anchor="middle" x="637.43" y="-14.3" font-family="sans" font-size="11.00">icmp6_output</text>
</g>
<!-- icmp6_input&#45;&gt;icmp6_output -->
<g id="edge21" class="edge">
<title>icmp6_input&#45;&gt;icmp6_output</title>
<path fill="none" stroke="black" d="M539.81,-70.32C557.18,-60.92 580.54,-48.27 599.93,-37.77"/>
<polygon fill="black" stroke="black" points="601.49,-40.9 608.62,-33.06 598.16,-34.75 601.49,-40.9"/>
</g>
<!-- ndp_ns_input -->
<g id="node21" class="node">
<title>ndp_ns_input</title>
<ellipse fill="none" stroke="black" cx="637.43" cy="-126" rx="41.62" ry="18"/>
<text text-anchor="middle" x="637.43" y="-122.3" font-family="sans" font-size="11.00">ndp_ns_input</text>
</g>
<!-- icmp6_input&#45;&gt;ndp_ns_input -->
<g id="edge22" class="edge">
<title>icmp6_input&#45;&gt;ndp_ns_input</title>
<path fill="none" stroke="black" d="M545.31,-94.6C559.86,-99.61 577.49,-105.69 593.35,-111.15"/>
<polygon fill="black" stroke="black" points="591.96,-114.37 602.55,-114.32 594.24,-107.76 591.96,-114.37"/>
</g>
<!-- ndp_na_input -->
<g id="node22" class="node">
<title>ndp_na_input</title>
<ellipse fill="none" stroke="black" cx="637.43" cy="-72" rx="42.04" ry="18"/>
<text text-anchor="middle" x="637.43" y="-68.3" font-family="sans" font-size="11.00">ndp_na_input</text>
</g>
<!-- icmp6_input&#45;&gt;ndp_na_input -->
<g id="edge23" class="edge">
<title>icmp6_input&#45;&gt;ndp_na_input</title>
<path fill="none" stroke="black" d="M551.78,-80.33C562.18,-79.31 573.66,-78.18 584.72,-77.09"/>
<polygon fill="black" stroke="black" points="584.92,-80.59 594.53,-76.13 584.24,-73.62 584.92,-80.59"/>
</g>
<!-- icmp6_output&#45;&gt;ip6_output -->
<g id="edge24" class="edge">
<title>icmp6_output&#45;&gt;ip6_output</title>
<path fill="none" stroke="black" d="M665.13,-32.21C671.45,-36.03 678,-40.39 683.69,-45 712.82,-68.59 741.4,-100.9 759.79,-123.22"/>
<polygon fill="black" stroke="black" points="757.04,-125.39 766.06,-130.95 762.47,-120.98 757.04,-125.39"/>
</g>
<!-- ndp_ns_input&#45;&gt;ip6_output -->
<g id="edge31" class="edge">
<title>ndp_ns_input&#45;&gt;ip6_output</title>
<path fill="none" stroke="black" d="M676.77,-132.22C695.32,-135.23 717.66,-138.86 736.81,-141.97"/>
<polygon fill="black" stroke="black" points="736.04,-145.39 746.47,-143.54 737.16,-138.48 736.04,-145.39"/>
</g>
<!-- ndp_na_input&#45;&gt;ip6_output -->
<g id="edge30" class="edge">
<title>ndp_na_input&#45;&gt;ip6_output</title>
<path fill="none" stroke="black" d="M664.42,-86.12C687.59,-98.72 721.63,-117.22 746.79,-130.89"/>
<polygon fill="black" stroke="black" points="744.85,-133.82 755.31,-135.52 748.19,-127.67 744.85,-133.82"/>
</g>
<!-- ip6_output&#45;&gt;eth_output -->
<g id="edge29" class="edge">
<title>ip6_output&#45;&gt;eth_output</title>
<path fill="none" stroke="black" d="M798.87,-164.7C821.35,-185.75 861.43,-223.27 887.46,-247.64"/>
<polygon fill="black" stroke="black" points="884.9,-250.05 894.6,-254.33 889.69,-244.94 884.9,-250.05"/>
</g>
<!-- ip6_forward&#45;&gt;ip6_output -->
<g id="edge25" class="edge">
<title>ip6_forward&#45;&gt;ip6_output</title>
<path fill="none" stroke="black" d="M426.58,-169.86C498.23,-165.63 657.55,-156.23 735.46,-151.63"/>
<polygon fill="black" stroke="black" points="735.51,-155.14 745.28,-151.05 735.09,-148.15 735.51,-155.14"/>
</g>
<!-- ip6_input_local&#45;&gt;icmp6_input -->
<g id="edge28" class="edge">
<title>ip6_input_local&#45;&gt;icmp6_input</title>
<path fill="none" stroke="black" d="M435.1,-90.97C444.5,-90.12 454.46,-89.23 463.99,-88.37"/>
<polygon fill="black" stroke="black" points="464.19,-91.86 473.83,-87.48 463.56,-84.89 464.19,-91.86"/>
</g>
</g>
</svg>
