<?xml version="1.0" encoding="UTF-8" standalone="no"?>
<!DOCTYPE svg PUBLIC "-//W3C//DTD SVG 1.1//EN"
 "http://www.w3.org/Graphics/SVG/1.1/DTD/svg11.dtd">
<!-- Generated by graphviz version 2.44.0 (0)
 -->
<!-- Title: gr&#45;0&#45;0002&#45;dplane Pages: 1 -->
<svg width="1796pt" height="875pt"
 viewBox="0.00 0.00 1795.90 874.66" xmlns="http://www.w3.org/2000/svg" xmlns:xlink="http://www.w3.org/1999/xlink">
<g id="graph0" class="graph" transform="scale(1 1) rotate(0) translate(4 870.66)">
<title>gr&#45;0&#45;0002&#45;dplane</title>
<polygon fill="white" stroke="transparent" points="-4,4 -4,-870.66 1791.9,-870.66 1791.9,4 -4,4"/>
<!-- control_input -->
<g id="node1" class="node">
<title>control_input</title>
<ellipse fill="none" stroke="blue" stroke-width="2" cx="40.16" cy="-521" rx="40.32" ry="18"/>
<text text-anchor="middle" x="40.16" y="-518.2" font-family="sans" font-size="11.00">control_input</text>
</g>
<!-- loopback_input -->
<g id="node2" class="node">
<title>loopback_input</title>
<ellipse fill="none" stroke="black" cx="161.91" cy="-418" rx="45.68" ry="18"/>
<text text-anchor="middle" x="161.91" y="-415.2" font-family="sans" font-size="11.00">loopback_input</text>
</g>
<!-- control_input&#45;&gt;loopback_input -->
<g id="edge1" class="edge">
<title>control_input&#45;&gt;loopback_input</title>
<path fill="none" stroke="blue" stroke-width="2" d="M57.29,-504.54C72.13,-489.71 95,-467.59 116.32,-450 120.55,-446.51 125.13,-442.98 129.68,-439.59"/>
<polygon fill="blue" stroke="blue" stroke-width="2" points="131.75,-442.42 137.79,-433.7 127.64,-436.75 131.75,-442.42"/>
</g>
<!-- arp_output_request -->
<g id="node3" class="node">
<title>arp_output_request</title>
<ellipse fill="none" stroke="black" cx="553.75" cy="-110" rx="59.31" ry="18"/>
<text text-anchor="middle" x="553.75" y="-107.2" font-family="sans" font-size="11.00">arp_output_request</text>
</g>
<!-- control_input&#45;&gt;arp_output_request -->
<g id="edge2" class="edge">
<title>control_input&#45;&gt;arp_output_request</title>
<path fill="none" stroke="blue" stroke-width="2" d="M42.45,-502.64C47.43,-436.95 67.65,-214.95 116.32,-167 217.33,-67.51 401.18,-82.29 494.73,-97.97"/>
<polygon fill="blue" stroke="blue" stroke-width="2" points="494.41,-101.46 504.86,-99.73 495.61,-94.57 494.41,-101.46"/>
</g>
<!-- icmp_local_send -->
<g id="node4" class="node">
<title>icmp_local_send</title>
<ellipse fill="none" stroke="black" cx="553.75" cy="-378" rx="49.28" ry="18"/>
<text text-anchor="middle" x="553.75" y="-375.2" font-family="sans" font-size="11.00">icmp_local_send</text>
</g>
<!-- control_input&#45;&gt;icmp_local_send -->
<g id="edge3" class="edge">
<title>control_input&#45;&gt;icmp_local_send</title>
<path fill="none" stroke="blue" stroke-width="2" d="M45.61,-502.73C53.88,-473.22 74.69,-415.86 116.32,-391 239.22,-317.63 418.26,-345.42 503.76,-365.06"/>
<polygon fill="blue" stroke="blue" stroke-width="2" points="503.18,-368.52 513.71,-367.41 504.78,-361.71 503.18,-368.52"/>
</g>
<!-- icmp6_local_send -->
<g id="node5" class="node">
<title>icmp6_local_send</title>
<ellipse fill="none" stroke="black" cx="702.1" cy="-724" rx="53.37" ry="18"/>
<text text-anchor="middle" x="702.1" y="-721.2" font-family="sans" font-size="11.00">icmp6_local_send</text>
</g>
<!-- control_input&#45;&gt;icmp6_local_send -->
<g id="edge4" class="edge">
<title>control_input&#45;&gt;icmp6_local_send</title>
<path fill="none" stroke="blue" stroke-width="2" d="M50.77,-538.65C79.46,-588.71 169.83,-728 287,-728 287,-728 287,-728 414.55,-728 491.76,-728 580.66,-726.53 638.7,-725.37"/>
<polygon fill="blue" stroke="blue" stroke-width="2" points="638.89,-728.87 648.81,-725.17 638.74,-721.87 638.89,-728.87"/>
</g>
<!-- ndp_ns_output -->
<g id="node6" class="node">
<title>ndp_ns_output</title>
<ellipse fill="none" stroke="black" cx="288" cy="-663" rx="44.51" ry="18"/>
<text text-anchor="middle" x="288" y="-660.2" font-family="sans" font-size="11.00">ndp_ns_output</text>
</g>
<!-- control_input&#45;&gt;ndp_ns_output -->
<g id="edge5" class="edge">
<title>control_input&#45;&gt;ndp_ns_output</title>
<path fill="none" stroke="blue" stroke-width="2" d="M55.25,-537.73C69.37,-553.66 92.39,-577.44 116.32,-593 155.59,-618.53 205.7,-637.74 241.44,-649.51"/>
<polygon fill="blue" stroke="blue" stroke-width="2" points="240.53,-652.9 251.12,-652.64 242.68,-646.24 240.53,-652.9"/>
</g>
<!-- ip_output -->
<g id="node7" class="node">
<title>ip_output</title>
<ellipse fill="none" stroke="black" cx="1198.87" cy="-350" rx="29.12" ry="18"/>
<text text-anchor="middle" x="1198.87" y="-347.2" font-family="sans" font-size="11.00">ip_output</text>
</g>
<!-- control_input&#45;&gt;ip_output -->
<g id="edge6" class="edge">
<title>control_input&#45;&gt;ip_output</title>
<path fill="none" stroke="blue" stroke-width="2" d="M73.72,-511.09C154.18,-487.5 369.17,-430 552.75,-430 552.75,-430 552.75,-430 703.1,-430 882.56,-430 929.57,-425.14 1104.25,-384 1124.98,-379.12 1147.44,-371.06 1165.16,-364.02"/>
<polygon fill="blue" stroke="blue" stroke-width="2" points="1166.53,-367.24 1174.48,-360.23 1163.9,-360.75 1166.53,-367.24"/>
</g>
<!-- arp_output_reply -->
<g id="node8" class="node">
<title>arp_output_reply</title>
<ellipse fill="none" stroke="black" cx="702.1" cy="-64" rx="51.62" ry="18"/>
<text text-anchor="middle" x="702.1" y="-61.2" font-family="sans" font-size="11.00">arp_output_reply</text>
</g>
<!-- control_input&#45;&gt;arp_output_reply -->
<g id="edge7" class="edge">
<title>control_input&#45;&gt;arp_output_reply</title>
<path fill="none" stroke="blue" stroke-width="2" d="M41.96,-502.82C45.46,-430.97 61.87,-167.83 116.32,-109 169.61,-51.42 208.55,-64 287,-64 287,-64 287,-64 414.55,-64 492.45,-64 582.27,-64 640.28,-64"/>
<polygon fill="blue" stroke="blue" stroke-width="2" points="640.37,-67.5 650.37,-64 640.37,-60.5 640.37,-67.5"/>
</g>
<!-- ip6_output -->
<g id="node9" class="node">
<title>ip6_output</title>
<ellipse fill="none" stroke="black" cx="1465.16" cy="-564" rx="32.63" ry="18"/>
<text text-anchor="middle" x="1465.16" y="-561.2" font-family="sans" font-size="11.00">ip6_output</text>
</g>
<!-- control_input&#45;&gt;ip6_output -->
<g id="edge8" class="edge">
<title>control_input&#45;&gt;ip6_output</title>
<path fill="none" stroke="blue" stroke-width="2" d="M46.96,-538.99C56.38,-570.4 77.95,-634.7 116.32,-676 175.26,-739.45 200.4,-770 287,-770 287,-770 287,-770 554.75,-770 868.29,-770 949.37,-766.1 1257.48,-708 1311.9,-697.74 1331.66,-704.72 1377.06,-673 1408.15,-651.28 1432.55,-614.88 1447.52,-590.01"/>
<polygon fill="blue" stroke="blue" stroke-width="2" points="1450.71,-591.49 1452.79,-581.1 1444.69,-587.93 1450.71,-591.49"/>
</g>
<!-- control_input&#45;&gt;ip6_output -->
<g id="edge10" class="edge">
<title>control_input&#45;&gt;ip6_output</title>
<path fill="none" stroke="blue" stroke-width="2" d="M44.2,-538.97C51.69,-573.45 73.58,-647.99 116.32,-694 175.26,-757.45 200.4,-788 287,-788 287,-788 287,-788 554.75,-788 868.29,-788 949.37,-784.1 1257.48,-726 1311.9,-715.74 1331.66,-722.72 1377.06,-691 1413.25,-665.71 1440.38,-620.54 1454.11,-591.23"/>
<polygon fill="blue" stroke="blue" stroke-width="2" points="1457.37,-592.51 1458.25,-581.95 1450.98,-589.66 1457.37,-592.51"/>
</g>
<!-- ndp_na_output -->
<g id="node10" class="node">
<title>ndp_na_output</title>
<ellipse fill="none" stroke="black" cx="413.55" cy="-644" rx="45.09" ry="18"/>
<text text-anchor="middle" x="413.55" y="-641.2" font-family="sans" font-size="11.00">ndp_na_output</text>
</g>
<!-- control_input&#45;&gt;ndp_na_output -->
<g id="edge9" class="edge">
<title>control_input&#45;&gt;ndp_na_output</title>
<path fill="none" stroke="blue" stroke-width="2" d="M72.83,-531.49C139.14,-553.45 292.73,-604.32 368.56,-629.43"/>
<polygon fill="blue" stroke="blue" stroke-width="2" points="367.7,-632.83 378.29,-632.65 369.9,-626.19 367.7,-632.83"/>
</g>
<!-- ip_input -->
<g id="node14" class="node">
<title>ip_input</title>
<ellipse fill="none" stroke="black" cx="553.75" cy="-285" rx="27" ry="18"/>
<text text-anchor="middle" x="553.75" y="-282.2" font-family="sans" font-size="11.00">ip_input</text>
</g>
<!-- loopback_input&#45;&gt;ip_input -->
<g id="edge16" class="edge">
<title>loopback_input&#45;&gt;ip_input</title>
<path fill="none" stroke="black" d="M197.17,-406.31C271.34,-381.01 446.03,-321.41 519.39,-296.38"/>
<polygon fill="black" stroke="black" points="520.72,-299.63 529.05,-293.09 518.46,-293 520.72,-299.63"/>
</g>
<!-- ip6_input -->
<g id="node15" class="node">
<title>ip6_input</title>
<ellipse fill="none" stroke="black" cx="288" cy="-514" rx="28.44" ry="18"/>
<text text-anchor="middle" x="288" y="-511.2" font-family="sans" font-size="11.00">ip6_input</text>
</g>
<!-- loopback_input&#45;&gt;ip6_input -->
<g id="edge17" class="edge">
<title>loopback_input&#45;&gt;ip6_input</title>
<path fill="none" stroke="black" d="M183.68,-434.07C205.07,-450.61 238.42,-476.42 261.42,-494.21"/>
<polygon fill="black" stroke="black" points="259.33,-497.02 269.38,-500.37 263.61,-491.48 259.33,-497.02"/>
</g>
<!-- eth_output -->
<g id="node16" class="node">
<title>eth_output</title>
<ellipse fill="none" stroke="black" cx="1608.08" cy="-110" rx="33.8" ry="18"/>
<text text-anchor="middle" x="1608.08" y="-107.2" font-family="sans" font-size="11.00">eth_output</text>
</g>
<!-- arp_output_request&#45;&gt;eth_output -->
<g id="edge27" class="edge">
<title>arp_output_request&#45;&gt;eth_output</title>
<path fill="none" stroke="black" d="M613.07,-110C669.08,-110 756.09,-110 831.53,-110 831.53,-110 831.53,-110 1336.27,-110 1416.71,-110 1510.59,-110 1564.01,-110"/>
<polygon fill="black" stroke="black" points="1564.14,-113.5 1574.14,-110 1564.14,-106.5 1564.14,-113.5"/>
</g>
<!-- icmp_output -->
<g id="node28" class="node">
<title>icmp_output</title>
<ellipse fill="none" stroke="black" cx="1066.26" cy="-342" rx="37.98" ry="18"/>
<text text-anchor="middle" x="1066.26" y="-339.2" font-family="sans" font-size="11.00">icmp_output</text>
</g>
<!-- icmp_local_send&#45;&gt;icmp_output -->
<g id="edge32" class="edge">
<title>icmp_local_send&#45;&gt;icmp_output</title>
<path fill="none" stroke="black" d="M603.24,-379.42C665.86,-380.75 778.18,-381.44 873.78,-373 924.74,-368.5 982.65,-358.42 1021.32,-350.97"/>
<polygon fill="black" stroke="black" points="1022.06,-354.39 1031.2,-349.05 1020.72,-347.52 1022.06,-354.39"/>
</g>
<!-- icmp6_output -->
<g id="node35" class="node">
<title>icmp6_output</title>
<ellipse fill="none" stroke="black" cx="1335.27" cy="-655" rx="41.58" ry="18"/>
<text text-anchor="middle" x="1335.27" y="-652.2" font-family="sans" font-size="11.00">icmp6_output</text>
</g>
<!-- icmp6_local_send&#45;&gt;icmp6_output -->
<g id="edge54" class="edge">
<title>icmp6_local_send&#45;&gt;icmp6_output</title>
<path fill="none" stroke="black" d="M755.11,-721.34C805.07,-719.01 882.68,-716 950.02,-716 950.02,-716 950.02,-716 1067.26,-716 1152.47,-716 1175.76,-716.14 1257.48,-692 1272.21,-687.65 1287.62,-680.74 1300.74,-674.07"/>
<polygon fill="black" stroke="black" points="1302.61,-677.04 1309.84,-669.29 1299.36,-670.84 1302.61,-677.04"/>
</g>
<!-- ndp_ns_output&#45;&gt;icmp6_output -->
<g id="edge70" class="edge">
<title>ndp_ns_output&#45;&gt;icmp6_output</title>
<path fill="none" stroke="black" d="M331.04,-667.9C343.12,-669.13 356.32,-670.3 368.51,-671 573.98,-682.87 625.72,-678 831.53,-678 831.53,-678 831.53,-678 1067.26,-678 1143.38,-678 1231.25,-668.61 1284.77,-661.83"/>
<polygon fill="black" stroke="black" points="1285.53,-665.26 1295,-660.51 1284.63,-658.32 1285.53,-665.26"/>
</g>
<!-- ip_output&#45;&gt;eth_output -->
<g id="edge43" class="edge">
<title>ip_output&#45;&gt;eth_output</title>
<path fill="none" stroke="black" d="M1215.22,-334.81C1233.08,-317.61 1263.9,-289.34 1293.48,-269 1387.34,-204.46 1511,-149.53 1571.13,-124.49"/>
<polygon fill="black" stroke="black" points="1572.67,-127.64 1580.57,-120.59 1569.99,-121.17 1572.67,-127.64"/>
</g>
<!-- loopback_output -->
<g id="node19" class="node">
<title>loopback_output</title>
<ellipse fill="none" stroke="black" cx="1608.08" cy="-491" rx="50.45" ry="18"/>
<text text-anchor="middle" x="1608.08" y="-488.2" font-family="sans" font-size="11.00">loopback_output</text>
</g>
<!-- ip_output&#45;&gt;loopback_output -->
<g id="edge45" class="edge">
<title>ip_output&#45;&gt;loopback_output</title>
<path fill="none" stroke="black" d="M1222.26,-360.93C1241.03,-369.88 1268.67,-382.56 1293.48,-392 1385.21,-426.92 1495.18,-459.59 1557.51,-477.28"/>
<polygon fill="black" stroke="black" points="1556.89,-480.74 1567.46,-480.09 1558.79,-474.01 1556.89,-480.74"/>
</g>
<!-- ip_hold -->
<g id="node29" class="node">
<title>ip_hold</title>
<ellipse fill="none" stroke="black" cx="1335.27" cy="-296" rx="27" ry="18"/>
<text text-anchor="middle" x="1335.27" y="-293.2" font-family="sans" font-size="11.00">ip_hold</text>
</g>
<!-- ip_output&#45;&gt;ip_hold -->
<g id="edge44" class="edge">
<title>ip_output&#45;&gt;ip_hold</title>
<path fill="none" stroke="black" d="M1223.89,-340.35C1245.79,-331.55 1278.3,-318.49 1302.37,-308.82"/>
<polygon fill="black" stroke="black" points="1303.81,-312.01 1311.79,-305.03 1301.21,-305.51 1303.81,-312.01"/>
</g>
<!-- ipip_output -->
<g id="node32" class="node">
<title>ipip_output</title>
<ellipse fill="none" stroke="black" cx="1335.27" cy="-350" rx="34.38" ry="18"/>
<text text-anchor="middle" x="1335.27" y="-347.2" font-family="sans" font-size="11.00">ipip_output</text>
</g>
<!-- ip_output&#45;&gt;ipip_output -->
<g id="edge46" class="edge">
<title>ip_output&#45;&gt;ipip_output</title>
<path fill="none" stroke="black" d="M1227.06,-344.45C1245.92,-343.16 1271.37,-342.91 1292.75,-343.71"/>
<polygon fill="black" stroke="black" points="1292.71,-347.21 1302.87,-344.19 1293.04,-340.22 1292.71,-347.21"/>
</g>
<!-- sr6_output -->
<g id="node33" class="node">
<title>sr6_output</title>
<ellipse fill="none" stroke="black" cx="1335.27" cy="-518" rx="33.21" ry="18"/>
<text text-anchor="middle" x="1335.27" y="-515.2" font-family="sans" font-size="11.00">sr6_output</text>
</g>
<!-- ip_output&#45;&gt;sr6_output -->
<g id="edge47" class="edge">
<title>ip_output&#45;&gt;sr6_output</title>
<path fill="none" stroke="black" d="M1212.75,-366.11C1236.37,-395.64 1286.74,-458.59 1314.64,-493.47"/>
<polygon fill="black" stroke="black" points="1312.24,-496.07 1321.22,-501.69 1317.71,-491.7 1312.24,-496.07"/>
</g>
<!-- arp_output_reply&#45;&gt;eth_output -->
<g id="edge26" class="edge">
<title>arp_output_reply&#45;&gt;eth_output</title>
<path fill="none" stroke="black" d="M753.69,-65.3C803.6,-66.47 882.07,-68 950.02,-68 950.02,-68 950.02,-68 1336.27,-68 1419.23,-68 1514.82,-87.49 1567.34,-99.91"/>
<polygon fill="black" stroke="black" points="1566.71,-103.36 1577.25,-102.3 1568.35,-96.56 1566.71,-103.36"/>
</g>
<!-- ip6_output&#45;&gt;eth_output -->
<g id="edge63" class="edge">
<title>ip6_output&#45;&gt;eth_output</title>
<path fill="none" stroke="black" d="M1472.06,-546.15C1482.46,-514.16 1504.17,-444.83 1517.26,-385 1539.75,-282.21 1499.5,-241.46 1553.26,-151 1558.62,-141.99 1566.78,-134.28 1575.14,-128.05"/>
<polygon fill="black" stroke="black" points="1577.21,-130.88 1583.47,-122.34 1573.24,-125.11 1577.21,-130.88"/>
</g>
<!-- ip6_output&#45;&gt;loopback_output -->
<g id="edge65" class="edge">
<title>ip6_output&#45;&gt;loopback_output</title>
<path fill="none" stroke="black" d="M1489.43,-551.95C1511.22,-540.66 1544.16,-523.59 1569.64,-510.39"/>
<polygon fill="black" stroke="black" points="1571.39,-513.43 1578.66,-505.72 1568.17,-507.21 1571.39,-513.43"/>
</g>
<!-- ip6_output&#45;&gt;sr6_output -->
<g id="edge66" class="edge">
<title>ip6_output&#45;&gt;sr6_output</title>
<path fill="none" stroke="black" d="M1433.85,-558.94C1413.89,-552.95 1387.81,-543.59 1367.63,-535.18"/>
<polygon fill="black" stroke="black" points="1368.82,-531.88 1358.25,-531.15 1366.06,-538.32 1368.82,-531.88"/>
</g>
<!-- ip6_hold -->
<g id="node40" class="node">
<title>ip6_hold</title>
<ellipse fill="none" stroke="black" cx="1608.08" cy="-564" rx="27" ry="18"/>
<text text-anchor="middle" x="1608.08" y="-561.2" font-family="sans" font-size="11.00">ip6_hold</text>
</g>
<!-- ip6_output&#45;&gt;ip6_hold -->
<g id="edge64" class="edge">
<title>ip6_output&#45;&gt;ip6_hold</title>
<path fill="none" stroke="black" d="M1497.78,-564C1519.36,-564 1548,-564 1570.55,-564"/>
<polygon fill="black" stroke="black" points="1570.75,-567.5 1580.75,-564 1570.75,-560.5 1570.75,-567.5"/>
</g>
<!-- ndp_na_output&#45;&gt;icmp6_output -->
<g id="edge68" class="edge">
<title>ndp_na_output&#45;&gt;icmp6_output</title>
<path fill="none" stroke="black" d="M458.73,-643C515.01,-641.82 615.27,-640 701.1,-640 701.1,-640 701.1,-640 1067.26,-640 1142.78,-640 1230.12,-646.06 1283.78,-650.47"/>
<polygon fill="black" stroke="black" points="1283.79,-653.98 1294.05,-651.33 1284.38,-647.01 1283.79,-653.98"/>
</g>
<!-- control_output -->
<g id="node11" class="node">
<title>control_output</title>
<ellipse fill="none" stroke="black" cx="1743.39" cy="-564" rx="44.51" ry="18"/>
<text text-anchor="middle" x="1743.39" y="-561.2" font-family="sans" font-size="11.00">control_output</text>
</g>
<!-- eth_input -->
<g id="node12" class="node">
<title>eth_input</title>
<ellipse fill="none" stroke="black" cx="161.91" cy="-194" rx="29.12" ry="18"/>
<text text-anchor="middle" x="161.91" y="-191.2" font-family="sans" font-size="11.00">eth_input</text>
</g>
<!-- arp_input -->
<g id="node13" class="node">
<title>arp_input</title>
<ellipse fill="none" stroke="black" cx="1465.16" cy="-232" rx="29.12" ry="18"/>
<text text-anchor="middle" x="1465.16" y="-229.2" font-family="sans" font-size="11.00">arp_input</text>
</g>
<!-- eth_input&#45;&gt;arp_input -->
<g id="edge11" class="edge">
<title>eth_input&#45;&gt;arp_input</title>
<path fill="none" stroke="black" d="M190.89,-190.69C282.6,-180.14 582.53,-148 831.53,-148 831.53,-148 831.53,-148 1199.87,-148 1288.11,-148 1385.47,-191.06 1433.66,-215.52"/>
<polygon fill="black" stroke="black" points="1432.13,-218.67 1442.62,-220.14 1435.34,-212.45 1432.13,-218.67"/>
</g>
<!-- eth_input&#45;&gt;ip_input -->
<g id="edge12" class="edge">
<title>eth_input&#45;&gt;ip_input</title>
<path fill="none" stroke="black" d="M189.71,-200.25C258.38,-216.29 440.69,-258.84 517.67,-276.81"/>
<polygon fill="black" stroke="black" points="517.27,-280.31 527.81,-279.18 518.86,-273.5 517.27,-280.31"/>
</g>
<!-- eth_input&#45;&gt;ip6_input -->
<g id="edge13" class="edge">
<title>eth_input&#45;&gt;ip6_input</title>
<path fill="none" stroke="black" d="M169.76,-211.66C190.35,-264.77 251.82,-423.26 276.54,-487.01"/>
<polygon fill="black" stroke="black" points="273.3,-488.34 280.18,-496.39 279.82,-485.81 273.3,-488.34"/>
</g>
<!-- arp_input_request -->
<g id="node22" class="node">
<title>arp_input_request</title>
<ellipse fill="none" stroke="black" cx="1608.08" cy="-178" rx="54.63" ry="18"/>
<text text-anchor="middle" x="1608.08" y="-175.2" font-family="sans" font-size="11.00">arp_input_request</text>
</g>
<!-- arp_input&#45;&gt;arp_input_request -->
<g id="edge22" class="edge">
<title>arp_input&#45;&gt;arp_input_request</title>
<path fill="none" stroke="black" d="M1490.38,-222.72C1510.09,-215.16 1538.45,-204.3 1562.27,-195.17"/>
<polygon fill="black" stroke="black" points="1563.74,-198.35 1571.83,-191.51 1561.24,-191.82 1563.74,-198.35"/>
</g>
<!-- arp_input_reply -->
<g id="node23" class="node">
<title>arp_input_reply</title>
<ellipse fill="none" stroke="black" cx="1608.08" cy="-232" rx="47.43" ry="18"/>
<text text-anchor="middle" x="1608.08" y="-229.2" font-family="sans" font-size="11.00">arp_input_reply</text>
</g>
<!-- arp_input&#45;&gt;arp_input_reply -->
<g id="edge23" class="edge">
<title>arp_input&#45;&gt;arp_input_reply</title>
<path fill="none" stroke="black" d="M1494.68,-232C1510.76,-232 1531.44,-232 1550.66,-232"/>
<polygon fill="black" stroke="black" points="1550.85,-235.5 1560.85,-232 1550.85,-228.5 1550.85,-235.5"/>
</g>
<!-- ip_input&#45;&gt;ip_output -->
<g id="edge37" class="edge">
<title>ip_input&#45;&gt;ip_output</title>
<path fill="none" stroke="black" d="M574.04,-272.86C617.95,-246.42 729.46,-186 831.53,-186 831.53,-186 831.53,-186 952.02,-186 1051.52,-186 1141.35,-280.11 1179.06,-325.75"/>
<polygon fill="black" stroke="black" points="1176.47,-328.11 1185.49,-333.68 1181.91,-323.7 1176.47,-328.11"/>
</g>
<!-- dnat44 -->
<g id="node24" class="node">
<title>dnat44</title>
<ellipse fill="none" stroke="black" cx="702.1" cy="-308" rx="27" ry="18"/>
<text text-anchor="middle" x="702.1" y="-305.2" font-family="sans" font-size="11.00">dnat44</text>
</g>
<!-- ip_input&#45;&gt;dnat44 -->
<g id="edge39" class="edge">
<title>ip_input&#45;&gt;dnat44</title>
<path fill="none" stroke="black" d="M580.24,-289.01C603.81,-292.71 639.07,-298.25 665.43,-302.39"/>
<polygon fill="black" stroke="black" points="664.98,-305.87 675.41,-303.96 666.07,-298.95 664.98,-305.87"/>
</g>
<!-- ip_forward -->
<g id="node25" class="node">
<title>ip_forward</title>
<ellipse fill="none" stroke="black" cx="832.53" cy="-346" rx="32.63" ry="18"/>
<text text-anchor="middle" x="832.53" y="-343.2" font-family="sans" font-size="11.00">ip_forward</text>
</g>
<!-- ip_input&#45;&gt;ip_forward -->
<g id="edge36" class="edge">
<title>ip_input&#45;&gt;ip_forward</title>
<path fill="none" stroke="black" d="M573.21,-297.89C591.49,-309.89 620.76,-327.08 648.91,-335 696,-348.24 752.53,-349.53 790.1,-348.46"/>
<polygon fill="black" stroke="black" points="790.3,-351.95 800.17,-348.1 790.05,-344.96 790.3,-351.95"/>
</g>
<!-- ip_input_local -->
<g id="node26" class="node">
<title>ip_input_local</title>
<ellipse fill="none" stroke="black" cx="832.53" cy="-291" rx="41.49" ry="18"/>
<text text-anchor="middle" x="832.53" y="-288.2" font-family="sans" font-size="11.00">ip_input_local</text>
</g>
<!-- ip_input&#45;&gt;ip_input_local -->
<g id="edge38" class="edge">
<title>ip_input&#45;&gt;ip_input_local</title>
<path fill="none" stroke="black" d="M580.74,-283.07C619.01,-280.55 692.74,-276.92 755.28,-281 764.29,-281.59 773.85,-282.56 783.05,-283.68"/>
<polygon fill="black" stroke="black" points="782.86,-287.18 793.23,-284.98 783.76,-280.24 782.86,-287.18"/>
</g>
<!-- ip6_input&#45;&gt;ip6_output -->
<g id="edge58" class="edge">
<title>ip6_input&#45;&gt;ip6_output</title>
<path fill="none" stroke="black" d="M308.04,-526.86C323.62,-536.73 346.57,-549.85 368.51,-557 510.32,-603.23 551.93,-602 701.1,-602 701.1,-602 701.1,-602 1199.87,-602 1280.53,-602 1373.65,-584.44 1425.02,-573.2"/>
<polygon fill="black" stroke="black" points="1426.02,-576.56 1435.02,-570.97 1424.5,-569.73 1426.02,-576.56"/>
</g>
<!-- ip6_forward -->
<g id="node39" class="node">
<title>ip6_forward</title>
<ellipse fill="none" stroke="black" cx="1066.26" cy="-518" rx="35.64" ry="18"/>
<text text-anchor="middle" x="1066.26" y="-515.2" font-family="sans" font-size="11.00">ip6_forward</text>
</g>
<!-- ip6_input&#45;&gt;ip6_forward -->
<g id="edge57" class="edge">
<title>ip6_input&#45;&gt;ip6_forward</title>
<path fill="none" stroke="black" d="M311.8,-504.03C327.42,-497.76 348.8,-490.25 368.51,-487 408.01,-480.47 418.57,-485.98 458.6,-487 669.12,-492.38 920.33,-508.23 1020.66,-514.94"/>
<polygon fill="black" stroke="black" points="1020.53,-518.44 1030.74,-515.62 1021,-511.45 1020.53,-518.44"/>
</g>
<!-- ip6_input_local -->
<g id="node41" class="node">
<title>ip6_input_local</title>
<ellipse fill="none" stroke="black" cx="553.75" cy="-541" rx="45.09" ry="18"/>
<text text-anchor="middle" x="553.75" y="-538.2" font-family="sans" font-size="11.00">ip6_input_local</text>
</g>
<!-- ip6_input&#45;&gt;ip6_input_local -->
<g id="edge59" class="edge">
<title>ip6_input&#45;&gt;ip6_input_local</title>
<path fill="none" stroke="black" d="M311.8,-523.97C327.42,-530.24 348.8,-537.75 368.51,-541 412.21,-548.22 462.55,-547.63 499.55,-545.56"/>
<polygon fill="black" stroke="black" points="499.85,-549.05 509.62,-544.95 499.42,-542.07 499.85,-549.05"/>
</g>
<!-- sr6_local -->
<g id="node42" class="node">
<title>sr6_local</title>
<ellipse fill="none" stroke="black" cx="413.55" cy="-514" rx="27.86" ry="18"/>
<text text-anchor="middle" x="413.55" y="-511.2" font-family="sans" font-size="11.00">sr6_local</text>
</g>
<!-- ip6_input&#45;&gt;sr6_local -->
<g id="edge60" class="edge">
<title>ip6_input&#45;&gt;sr6_local</title>
<path fill="none" stroke="black" d="M314.9,-508.39C332.9,-507.09 357.1,-506.9 376.92,-507.82"/>
<polygon fill="black" stroke="black" points="376.92,-511.32 387.11,-508.42 377.33,-504.34 376.92,-511.32"/>
</g>
<!-- port_tx -->
<g id="node17" class="node">
<title>port_tx</title>
<ellipse fill="none" stroke="black" cx="1743.39" cy="-64" rx="27" ry="18"/>
<text text-anchor="middle" x="1743.39" y="-61.2" font-family="sans" font-size="11.00">port_tx</text>
</g>
<!-- eth_output&#45;&gt;port_tx -->
<g id="edge14" class="edge">
<title>eth_output&#45;&gt;port_tx</title>
<path fill="none" stroke="black" d="M1636.7,-100.47C1657.73,-93.21 1686.77,-83.19 1709.09,-75.49"/>
<polygon fill="black" stroke="black" points="1710.5,-78.71 1718.82,-72.14 1708.22,-72.09 1710.5,-78.71"/>
</g>
<!-- l1_xconnect -->
<g id="node18" class="node">
<title>l1_xconnect</title>
<ellipse fill="none" stroke="black" cx="288" cy="-18" rx="36.23" ry="18"/>
<text text-anchor="middle" x="288" y="-15.2" font-family="sans" font-size="11.00">l1_xconnect</text>
</g>
<!-- l1_xconnect&#45;&gt;port_tx -->
<g id="edge15" class="edge">
<title>l1_xconnect&#45;&gt;port_tx</title>
<path fill="none" stroke="black" d="M324.41,-18C375.04,-18 471.02,-18 552.75,-18 552.75,-18 552.75,-18 1466.16,-18 1554.4,-18 1656.37,-41.12 1708.24,-54.58"/>
<polygon fill="black" stroke="black" points="1707.67,-58.05 1718.23,-57.21 1709.45,-51.28 1707.67,-58.05"/>
</g>
<!-- loopback_output&#45;&gt;control_output -->
<g id="edge18" class="edge">
<title>loopback_output&#45;&gt;control_output</title>
<path fill="none" stroke="black" d="M1636.38,-505.95C1656.86,-517.17 1685.08,-532.62 1707.25,-544.76"/>
<polygon fill="black" stroke="black" points="1705.59,-547.84 1716.04,-549.57 1708.95,-541.7 1705.59,-547.84"/>
</g>
<!-- port_rx -->
<g id="node20" class="node">
<title>port_rx</title>
<ellipse fill="none" stroke="blue" stroke-width="2" cx="40.16" cy="-108" rx="27" ry="18"/>
<text text-anchor="middle" x="40.16" y="-105.2" font-family="sans" font-size="11.00">port_rx</text>
</g>
<!-- port_rx&#45;&gt;eth_input -->
<g id="edge19" class="edge">
<title>port_rx&#45;&gt;eth_input</title>
<path fill="none" stroke="blue" stroke-width="2" d="M59.09,-120.88C78.88,-135.09 110.94,-158.12 133.8,-174.53"/>
<polygon fill="blue" stroke="blue" stroke-width="2" points="131.91,-177.48 142.07,-180.47 135.99,-171.79 131.91,-177.48"/>
</g>
<!-- port_rx&#45;&gt;l1_xconnect -->
<g id="edge20" class="edge">
<title>port_rx&#45;&gt;l1_xconnect</title>
<path fill="none" stroke="blue" stroke-width="2" d="M55.87,-93.18C70.08,-79.75 92.86,-60.51 116.32,-50 156.39,-32.05 206.1,-24.16 241.52,-20.7"/>
<polygon fill="blue" stroke="blue" stroke-width="2" points="241.92,-24.18 251.57,-19.8 241.3,-17.21 241.92,-24.18"/>
</g>
<!-- nh4_unreachable -->
<g id="node21" class="node">
<title>nh4_unreachable</title>
<ellipse fill="none" stroke="black" cx="1465.16" cy="-358" rx="52.2" ry="18"/>
<text text-anchor="middle" x="1465.16" y="-355.2" font-family="sans" font-size="11.00">nh4_unreachable</text>
</g>
<!-- nh4_unreachable&#45;&gt;ip_output -->
<g id="edge21" class="edge">
<title>nh4_unreachable&#45;&gt;ip_output</title>
<path fill="none" stroke="black" d="M1423.25,-368.82C1408.77,-372.14 1392.29,-375.36 1377.06,-377 1340.13,-380.98 1330.26,-382.2 1293.48,-377 1273.46,-374.17 1251.72,-368.1 1234.24,-362.42"/>
<polygon fill="black" stroke="black" points="1235.08,-359.01 1224.48,-359.16 1232.86,-365.65 1235.08,-359.01"/>
</g>
<!-- arp_input_request&#45;&gt;control_output -->
<g id="edge25" class="edge">
<title>arp_input_request&#45;&gt;control_output</title>
<path fill="none" stroke="black" d="M1646.17,-191.07C1652.5,-194.73 1658.46,-199.31 1662.89,-205 1703.56,-257.2 1730.49,-460.27 1739.27,-535.64"/>
<polygon fill="black" stroke="black" points="1735.82,-536.26 1740.43,-545.8 1742.77,-535.47 1735.82,-536.26"/>
</g>
<!-- arp_input_reply&#45;&gt;control_output -->
<g id="edge24" class="edge">
<title>arp_input_reply&#45;&gt;control_output</title>
<path fill="none" stroke="black" d="M1640.46,-245.23C1648.78,-250.06 1657.06,-256.28 1662.89,-264 1726.33,-348.03 1739.24,-478.57 1741.8,-535.66"/>
<polygon fill="black" stroke="black" points="1738.31,-535.89 1742.18,-545.75 1745.3,-535.62 1738.31,-535.89"/>
</g>
<!-- dnat44&#45;&gt;ip_forward -->
<g id="edge28" class="edge">
<title>dnat44&#45;&gt;ip_forward</title>
<path fill="none" stroke="black" d="M726.95,-315.06C745.62,-320.58 771.93,-328.36 793.49,-334.74"/>
<polygon fill="black" stroke="black" points="792.74,-338.17 803.32,-337.65 794.73,-331.46 792.74,-338.17"/>
</g>
<!-- dnat44&#45;&gt;ip_input_local -->
<g id="edge29" class="edge">
<title>dnat44&#45;&gt;ip_input_local</title>
<path fill="none" stroke="black" d="M728.78,-304.6C744.22,-302.56 764.38,-299.89 782.75,-297.46"/>
<polygon fill="black" stroke="black" points="783.27,-300.92 792.73,-296.14 782.35,-293.98 783.27,-300.92"/>
</g>
<!-- ip_forward&#45;&gt;ip_output -->
<g id="edge34" class="edge">
<title>ip_forward&#45;&gt;ip_output</title>
<path fill="none" stroke="black" d="M863.2,-352.11C913.04,-361.57 1016.72,-377.79 1104.25,-369 1123.25,-367.09 1144.09,-363.06 1161.27,-359.2"/>
<polygon fill="black" stroke="black" points="1162.5,-362.5 1171.45,-356.83 1160.92,-355.69 1162.5,-362.5"/>
</g>
<!-- icmp_input -->
<g id="node27" class="node">
<title>icmp_input</title>
<ellipse fill="none" stroke="black" cx="951.02" cy="-291" rx="33.8" ry="18"/>
<text text-anchor="middle" x="951.02" y="-288.2" font-family="sans" font-size="11.00">icmp_input</text>
</g>
<!-- ip_input_local&#45;&gt;icmp_input -->
<g id="edge40" class="edge">
<title>ip_input_local&#45;&gt;icmp_input</title>
<path fill="none" stroke="black" d="M873.95,-291C884.6,-291 896.14,-291 906.94,-291"/>
<polygon fill="black" stroke="black" points="907,-294.5 917,-291 907,-287.5 907,-294.5"/>
</g>
<!-- ipip_input -->
<g id="node30" class="node">
<title>ipip_input</title>
<ellipse fill="none" stroke="black" cx="951.02" cy="-234" rx="29.7" ry="18"/>
<text text-anchor="middle" x="951.02" y="-231.2" font-family="sans" font-size="11.00">ipip_input</text>
</g>
<!-- ip_input_local&#45;&gt;ipip_input -->
<g id="edge41" class="edge">
<title>ip_input_local&#45;&gt;ipip_input</title>
<path fill="none" stroke="black" d="M860.55,-277.78C877.72,-269.38 900.03,-258.46 918.08,-249.63"/>
<polygon fill="black" stroke="black" points="919.63,-252.77 927.08,-245.23 916.56,-246.48 919.63,-252.77"/>
</g>
<!-- l4_input_local -->
<g id="node31" class="node">
<title>l4_input_local</title>
<ellipse fill="none" stroke="black" cx="951.02" cy="-472" rx="41.49" ry="18"/>
<text text-anchor="middle" x="951.02" y="-469.2" font-family="sans" font-size="11.00">l4_input_local</text>
</g>
<!-- ip_input_local&#45;&gt;l4_input_local -->
<g id="edge42" class="edge">
<title>ip_input_local&#45;&gt;l4_input_local</title>
<path fill="none" stroke="black" d="M858.13,-305.2C863.72,-309.18 869.32,-313.85 873.78,-319 906.52,-356.89 929.23,-411.3 940.9,-444"/>
<polygon fill="black" stroke="black" points="937.72,-445.5 944.3,-453.8 944.33,-443.2 937.72,-445.5"/>
</g>
<!-- icmp_input&#45;&gt;control_output -->
<g id="edge31" class="edge">
<title>icmp_input&#45;&gt;control_output</title>
<path fill="none" stroke="black" d="M982.33,-284.14C1052.6,-269.37 1231.75,-238.3 1377.06,-269 1527.52,-300.78 1557.93,-351.6 1662.89,-464 1685.27,-487.97 1708.33,-517.62 1723.81,-538.38"/>
<polygon fill="black" stroke="black" points="1721.19,-540.73 1729.95,-546.69 1726.82,-536.57 1721.19,-540.73"/>
</g>
<!-- icmp_input&#45;&gt;icmp_output -->
<g id="edge30" class="edge">
<title>icmp_input&#45;&gt;icmp_output</title>
<path fill="none" stroke="black" d="M977.44,-302.45C992.48,-309.22 1011.8,-317.92 1028.49,-325.44"/>
<polygon fill="black" stroke="black" points="1027.4,-328.79 1037.96,-329.7 1030.27,-322.4 1027.4,-328.79"/>
</g>
<!-- icmp_output&#45;&gt;ip_output -->
<g id="edge33" class="edge">
<title>icmp_output&#45;&gt;ip_output</title>
<path fill="none" stroke="black" d="M1103.99,-344.25C1121.23,-345.31 1141.79,-346.57 1159.26,-347.64"/>
<polygon fill="black" stroke="black" points="1159.49,-351.16 1169.69,-348.27 1159.92,-344.17 1159.49,-351.16"/>
</g>
<!-- ip_hold&#45;&gt;nh4_unreachable -->
<g id="edge35" class="edge">
<title>ip_hold&#45;&gt;nh4_unreachable</title>
<path fill="none" stroke="black" d="M1357.67,-306.38C1375.97,-315.25 1402.76,-328.23 1424.89,-338.96"/>
<polygon fill="black" stroke="black" points="1423.53,-342.19 1434.05,-343.41 1426.58,-335.89 1423.53,-342.19"/>
</g>
<!-- ipip_input&#45;&gt;ip_input -->
<g id="edge72" class="edge">
<title>ipip_input&#45;&gt;ip_input</title>
<path fill="none" stroke="black" d="M921.57,-237.67C851.06,-246.77 668.38,-270.34 590.64,-280.37"/>
<polygon fill="black" stroke="black" points="589.85,-276.94 580.38,-281.69 590.75,-283.88 589.85,-276.94"/>
</g>
<!-- l4_loopback_output -->
<g id="node43" class="node">
<title>l4_loopback_output</title>
<ellipse fill="none" stroke="black" cx="1198.87" cy="-472" rx="58.73" ry="18"/>
<text text-anchor="middle" x="1198.87" y="-469.2" font-family="sans" font-size="11.00">l4_loopback_output</text>
</g>
<!-- l4_input_local&#45;&gt;l4_loopback_output -->
<g id="edge74" class="edge">
<title>l4_input_local&#45;&gt;l4_loopback_output</title>
<path fill="none" stroke="black" d="M992.34,-472C1029.63,-472 1085.77,-472 1129.97,-472"/>
<polygon fill="black" stroke="black" points="1130.06,-475.5 1140.06,-472 1130.06,-468.5 1130.06,-475.5"/>
</g>
<!-- ipip_output&#45;&gt;ip_output -->
<g id="edge73" class="edge">
<title>ipip_output&#45;&gt;ip_output</title>
<path fill="none" stroke="black" d="M1302.87,-355.81C1283.2,-356.95 1257.76,-357.05 1237.09,-356.11"/>
<polygon fill="black" stroke="black" points="1237.24,-352.62 1227.06,-355.55 1236.85,-359.61 1237.24,-352.62"/>
</g>
<!-- sr6_output&#45;&gt;ip6_output -->
<g id="edge79" class="edge">
<title>sr6_output&#45;&gt;ip6_output</title>
<path fill="none" stroke="black" d="M1367.23,-523.26C1387.18,-529.27 1413.02,-538.57 1433.01,-546.91"/>
<polygon fill="black" stroke="black" points="1431.73,-550.17 1442.3,-550.9 1434.5,-543.74 1431.73,-550.17"/>
</g>
<!-- icmp6_input -->
<g id="node34" class="node">
<title>icmp6_input</title>
<ellipse fill="none" stroke="black" cx="1198.87" cy="-818" rx="37.4" ry="18"/>
<text text-anchor="middle" x="1198.87" y="-815.2" font-family="sans" font-size="11.00">icmp6_input</text>
</g>
<!-- icmp6_input&#45;&gt;control_output -->
<g id="edge52" class="edge">
<title>icmp6_input&#45;&gt;control_output</title>
<path fill="none" stroke="black" d="M1228.72,-829.06C1285.49,-849.13 1415.06,-886.51 1517.26,-853 1593.58,-827.98 1612.73,-808.73 1662.89,-746 1700.98,-698.37 1724.38,-629.68 1735.22,-591.76"/>
<polygon fill="black" stroke="black" points="1738.65,-592.5 1737.94,-581.93 1731.9,-590.63 1738.65,-592.5"/>
</g>
<!-- icmp6_input&#45;&gt;icmp6_output -->
<g id="edge48" class="edge">
<title>icmp6_input&#45;&gt;icmp6_output</title>
<path fill="none" stroke="black" d="M1213.74,-801.17C1237.49,-772.38 1286.01,-713.52 1313.7,-679.94"/>
<polygon fill="black" stroke="black" points="1316.6,-681.92 1320.27,-671.98 1311.2,-677.47 1316.6,-681.92"/>
</g>
<!-- ndp_ns_input -->
<g id="node36" class="node">
<title>ndp_ns_input</title>
<ellipse fill="none" stroke="black" cx="1465.16" cy="-826" rx="40.32" ry="18"/>
<text text-anchor="middle" x="1465.16" y="-823.2" font-family="sans" font-size="11.00">ndp_ns_input</text>
</g>
<!-- icmp6_input&#45;&gt;ndp_ns_input -->
<g id="edge49" class="edge">
<title>icmp6_input&#45;&gt;ndp_ns_input</title>
<path fill="none" stroke="black" d="M1235.84,-821.27C1253.23,-822.7 1274.43,-824.23 1293.48,-825 1334.26,-826.64 1380.58,-826.81 1414.66,-826.61"/>
<polygon fill="black" stroke="black" points="1414.85,-830.11 1424.82,-826.54 1414.8,-823.11 1414.85,-830.11"/>
</g>
<!-- ndp_na_input -->
<g id="node37" class="node">
<title>ndp_na_input</title>
<ellipse fill="none" stroke="black" cx="1465.16" cy="-741" rx="40.91" ry="18"/>
<text text-anchor="middle" x="1465.16" y="-738.2" font-family="sans" font-size="11.00">ndp_na_input</text>
</g>
<!-- icmp6_input&#45;&gt;ndp_na_input -->
<g id="edge50" class="edge">
<title>icmp6_input&#45;&gt;ndp_na_input</title>
<path fill="none" stroke="black" d="M1236.47,-816.71C1273,-814.48 1330.27,-808.43 1377.06,-792 1397.43,-784.85 1418.36,-772.77 1434.6,-762.16"/>
<polygon fill="black" stroke="black" points="1436.75,-764.94 1443.1,-756.46 1432.85,-759.12 1436.75,-764.94"/>
</g>
<!-- ndp_rs_input -->
<g id="node38" class="node">
<title>ndp_rs_input</title>
<ellipse fill="none" stroke="black" cx="1335.27" cy="-765" rx="39.15" ry="18"/>
<text text-anchor="middle" x="1335.27" y="-762.2" font-family="sans" font-size="11.00">ndp_rs_input</text>
</g>
<!-- icmp6_input&#45;&gt;ndp_rs_input -->
<g id="edge51" class="edge">
<title>icmp6_input&#45;&gt;ndp_rs_input</title>
<path fill="none" stroke="black" d="M1228.37,-806.76C1247.88,-799.07 1274,-788.77 1295.41,-780.32"/>
<polygon fill="black" stroke="black" points="1296.86,-783.51 1304.88,-776.59 1294.29,-777 1296.86,-783.51"/>
</g>
<!-- icmp6_output&#45;&gt;ip6_output -->
<g id="edge53" class="edge">
<title>icmp6_output&#45;&gt;ip6_output</title>
<path fill="none" stroke="black" d="M1357.67,-639.77C1379.21,-624.45 1412.52,-600.75 1436.14,-583.94"/>
<polygon fill="black" stroke="black" points="1438.25,-586.73 1444.37,-578.08 1434.19,-581.03 1438.25,-586.73"/>
</g>
<!-- ndp_ns_input&#45;&gt;control_output -->
<g id="edge69" class="edge">
<title>ndp_ns_input&#45;&gt;control_output</title>
<path fill="none" stroke="black" d="M1492.2,-812.51C1532.37,-790.77 1610.3,-744.84 1662.89,-690 1691.59,-660.07 1715.52,-618.21 1729.4,-591.11"/>
<polygon fill="black" stroke="black" points="1732.7,-592.34 1734.05,-581.84 1726.44,-589.21 1732.7,-592.34"/>
</g>
<!-- ndp_na_input&#45;&gt;control_output -->
<g id="edge67" class="edge">
<title>ndp_na_input&#45;&gt;control_output</title>
<path fill="none" stroke="black" d="M1497.71,-730C1538.23,-714.99 1609.68,-685.5 1662.89,-647 1685.74,-630.47 1707.6,-606.89 1722.59,-589.08"/>
<polygon fill="black" stroke="black" points="1725.3,-591.29 1728.97,-581.35 1719.9,-586.83 1725.3,-591.29"/>
</g>
<!-- ndp_rs_input&#45;&gt;control_output -->
<g id="edge71" class="edge">
<title>ndp_rs_input&#45;&gt;control_output</title>
<path fill="none" stroke="black" d="M1357.28,-749.89C1372.43,-739.27 1393.57,-725.06 1413.06,-714 1512.65,-657.5 1637.35,-605.42 1700.94,-580.11"/>
<polygon fill="black" stroke="black" points="1702.6,-583.21 1710.61,-576.28 1700.02,-576.71 1702.6,-583.21"/>
</g>
<!-- ip6_forward&#45;&gt;ip6_output -->
<g id="edge55" class="edge">
<title>ip6_forward&#45;&gt;ip6_output</title>
<path fill="none" stroke="black" d="M1101.36,-522.16C1145.63,-527.53 1225.31,-537.14 1293.48,-545 1337.63,-550.09 1388.24,-555.7 1422.82,-559.49"/>
<polygon fill="black" stroke="black" points="1422.68,-563 1433.01,-560.61 1423.45,-556.04 1422.68,-563"/>
</g>
<!-- ip6_hold&#45;&gt;control_output -->
<g id="edge56" class="edge">
<title>ip6_hold&#45;&gt;control_output</title>
<path fill="none" stroke="black" d="M1635.1,-564C1650.38,-564 1670.27,-564 1688.76,-564"/>
<polygon fill="black" stroke="black" points="1688.86,-567.5 1698.86,-564 1688.86,-560.5 1688.86,-567.5"/>
</g>
<!-- ip6_input_local&#45;&gt;l4_input_local -->
<g id="edge62" class="edge">
<title>ip6_input_local&#45;&gt;l4_input_local</title>
<path fill="none" stroke="black" d="M595.2,-533.94C668.73,-521.1 823.96,-494.01 902.45,-480.3"/>
<polygon fill="black" stroke="black" points="903.29,-483.71 912.54,-478.54 902.09,-476.81 903.29,-483.71"/>
</g>
<!-- ip6_input_local&#45;&gt;icmp6_input -->
<g id="edge61" class="edge">
<title>ip6_input_local&#45;&gt;icmp6_input</title>
<path fill="none" stroke="black" d="M596.87,-546.69C651.04,-553.5 748.11,-564 831.53,-564 831.53,-564 831.53,-564 952.02,-564 1077.23,-564 1159.02,-725.33 1187.06,-790.84"/>
<polygon fill="black" stroke="black" points="1183.87,-792.27 1190.96,-800.14 1190.32,-789.56 1183.87,-792.27"/>
</g>
<!-- sr6_local&#45;&gt;ip_input -->
<g id="edge76" class="edge">
<title>sr6_local&#45;&gt;ip_input</title>
<path fill="none" stroke="black" d="M421.32,-496.53C433.63,-465.77 461.48,-400.53 494.6,-351 505.04,-335.38 518.88,-319.53 530.44,-307.27"/>
<polygon fill="black" stroke="black" points="533.24,-309.41 537.65,-299.78 528.19,-304.56 533.24,-309.41"/>
</g>
<!-- sr6_local&#45;&gt;ip6_input -->
<g id="edge77" class="edge">
<title>sr6_local&#45;&gt;ip6_input</title>
<path fill="none" stroke="black" d="M387.11,-519.58C369.22,-520.89 345.03,-521.1 325.14,-520.2"/>
<polygon fill="black" stroke="black" points="325.09,-516.7 314.9,-519.61 324.68,-523.68 325.09,-516.7"/>
</g>
<!-- sr6_local&#45;&gt;ip6_input_local -->
<g id="edge78" class="edge">
<title>sr6_local&#45;&gt;ip6_input_local</title>
<path fill="none" stroke="black" d="M440.22,-519.02C457.88,-522.46 481.9,-527.16 503.21,-531.32"/>
<polygon fill="black" stroke="black" points="502.61,-534.77 513.09,-533.25 503.95,-527.9 502.61,-534.77"/>
</g>
<!-- l4_loopback_output&#45;&gt;loopback_output -->
<g id="edge75" class="edge">
<title>l4_loopback_output&#45;&gt;loopback_output</title>
<path fill="none" stroke="black" d="M1256.91,-474.66C1333.69,-478.24 1469.61,-484.59 1547.6,-488.23"/>
<polygon fill="black" stroke="black" points="1547.6,-491.73 1557.75,-488.7 1547.92,-484.74 1547.6,-491.73"/>
</g>
</g>
</svg>
