<?xml version="1.0" encoding="UTF-8" standalone="no"?>
<!DOCTYPE svg PUBLIC "-//W3C//DTD SVG 1.1//EN"
 "http://www.w3.org/Graphics/SVG/1.1/DTD/svg11.dtd">
<!-- Generated by graphviz version 2.44.0 (0)
 -->
<!-- Title: gr&#45;0004 Pages: 1 -->
<svg width="1627pt" height="780pt"
 viewBox="0.00 0.00 1626.66 780.00" xmlns="http://www.w3.org/2000/svg" xmlns:xlink="http://www.w3.org/1999/xlink">
<g id="graph0" class="graph" transform="scale(1 1) rotate(0) translate(4 776)">
<title>gr&#45;0004</title>
<polygon fill="white" stroke="transparent" points="-4,4 -4,-776 1622.66,-776 1622.66,4 -4,4"/>
<!-- control_input -->
<g id="node1" class="node">
<title>control_input</title>
<ellipse fill="none" stroke="blue" stroke-width="2" cx="878.75" cy="-700" rx="40.32" ry="18"/>
<text text-anchor="middle" x="878.75" y="-697.2" font-family="sans" font-size="11.00">control_input</text>
</g>
<!-- control_input_unknown_type -->
<g id="node2" class="node">
<title>control_input_unknown_type</title>
<ellipse fill="none" stroke="darkorange" cx="1074.31" cy="-646" rx="86" ry="18"/>
<text text-anchor="middle" x="1074.31" y="-643.2" font-family="sans" font-size="11.00">control_input_unknown_type</text>
</g>
<!-- control_input&#45;&gt;control_input_unknown_type -->
<g id="edge1" class="edge">
<title>control_input&#45;&gt;control_input_unknown_type</title>
<path fill="none" stroke="blue" stroke-width="2" d="M913.47,-690.59C940.56,-683.04 979.33,-672.22 1011.9,-663.13"/>
<polygon fill="blue" stroke="blue" stroke-width="2" points="1013.1,-666.43 1021.79,-660.37 1011.22,-659.69 1013.1,-666.43"/>
</g>
<!-- arp_output_request -->
<g id="node3" class="node">
<title>arp_output_request</title>
<ellipse fill="none" stroke="black" cx="1074.31" cy="-754" rx="59.31" ry="18"/>
<text text-anchor="middle" x="1074.31" y="-751.2" font-family="sans" font-size="11.00">arp_output_request</text>
</g>
<!-- control_input&#45;&gt;arp_output_request -->
<g id="edge2" class="edge">
<title>control_input&#45;&gt;arp_output_request</title>
<path fill="none" stroke="blue" stroke-width="2" d="M913.47,-709.41C942.94,-717.63 986.24,-729.71 1020.34,-739.22"/>
<polygon fill="blue" stroke="blue" stroke-width="2" points="1019.58,-742.64 1030.15,-741.96 1021.46,-735.9 1019.58,-742.64"/>
</g>
<!-- lldp_output -->
<g id="node4" class="node">
<title>lldp_output</title>
<ellipse fill="none" stroke="black" cx="1074.31" cy="-700" rx="34.38" ry="18"/>
<text text-anchor="middle" x="1074.31" y="-697.2" font-family="sans" font-size="11.00">lldp_output</text>
</g>
<!-- control_input&#45;&gt;lldp_output -->
<g id="edge3" class="edge">
<title>control_input&#45;&gt;lldp_output</title>
<path fill="none" stroke="blue" stroke-width="2" d="M918.92,-700C951.02,-700 996.41,-700 1029.66,-700"/>
<polygon fill="blue" stroke="blue" stroke-width="2" points="1030,-703.5 1040,-700 1030,-696.5 1030,-703.5"/>
</g>
<!-- eth_output -->
<g id="node12" class="node">
<title>eth_output</title>
<ellipse fill="none" stroke="black" cx="1264.99" cy="-511" rx="33.8" ry="18"/>
<text text-anchor="middle" x="1264.99" y="-508.2" font-family="sans" font-size="11.00">eth_output</text>
</g>
<!-- arp_output_request&#45;&gt;eth_output -->
<g id="edge24" class="edge">
<title>arp_output_request&#45;&gt;eth_output</title>
<path fill="none" stroke="black" d="M1126.3,-745.05C1138.37,-741.06 1150.5,-735.31 1160.06,-727 1175.51,-713.57 1228.6,-593.19 1252.35,-538.19"/>
<polygon fill="black" stroke="black" points="1255.68,-539.3 1256.42,-528.73 1249.25,-536.53 1255.68,-539.3"/>
</g>
<!-- arp_output_error -->
<g id="node26" class="node">
<title>arp_output_error</title>
<ellipse fill="none" stroke="darkorange" cx="1264.99" cy="-754" rx="51.03" ry="18"/>
<text text-anchor="middle" x="1264.99" y="-751.2" font-family="sans" font-size="11.00">arp_output_error</text>
</g>
<!-- arp_output_request&#45;&gt;arp_output_error -->
<g id="edge25" class="edge">
<title>arp_output_request&#45;&gt;arp_output_error</title>
<path fill="none" stroke="black" d="M1133.72,-754C1155.96,-754 1181.34,-754 1203.75,-754"/>
<polygon fill="black" stroke="black" points="1203.81,-757.5 1213.81,-754 1203.81,-750.5 1203.81,-757.5"/>
</g>
<!-- lldp_output&#45;&gt;eth_output -->
<g id="edge57" class="edge">
<title>lldp_output&#45;&gt;eth_output</title>
<path fill="none" stroke="black" d="M1107.55,-695.16C1124.51,-691.35 1144.87,-684.66 1160.06,-673 1206.71,-637.21 1238.33,-574.09 1253.54,-538.11"/>
<polygon fill="black" stroke="black" points="1256.83,-539.31 1257.4,-528.73 1250.36,-536.65 1256.83,-539.31"/>
</g>
<!-- lldp_output_error -->
<g id="node47" class="node">
<title>lldp_output_error</title>
<ellipse fill="none" stroke="darkorange" cx="1264.99" cy="-700" rx="52.2" ry="18"/>
<text text-anchor="middle" x="1264.99" y="-697.2" font-family="sans" font-size="11.00">lldp_output_error</text>
</g>
<!-- lldp_output&#45;&gt;lldp_output_error -->
<g id="edge58" class="edge">
<title>lldp_output&#45;&gt;lldp_output_error</title>
<path fill="none" stroke="black" d="M1108.61,-700C1134.46,-700 1171.03,-700 1202.2,-700"/>
<polygon fill="black" stroke="black" points="1202.54,-703.5 1212.54,-700 1202.54,-696.5 1202.54,-703.5"/>
</g>
<!-- error_no_headroom -->
<g id="node5" class="node">
<title>error_no_headroom</title>
<ellipse fill="none" stroke="darkorange" cx="1436.12" cy="-168" rx="59.31" ry="18"/>
<text text-anchor="middle" x="1436.12" y="-165.2" font-family="sans" font-size="11.00">error_no_headroom</text>
</g>
<!-- eth_input -->
<g id="node6" class="node">
<title>eth_input</title>
<ellipse fill="none" stroke="black" cx="139.93" cy="-422" rx="29.12" ry="18"/>
<text text-anchor="middle" x="139.93" y="-419.2" font-family="sans" font-size="11.00">eth_input</text>
</g>
<!-- eth_input_unknown_type -->
<g id="node7" class="node">
<title>eth_input_unknown_type</title>
<ellipse fill="none" stroke="darkorange" cx="300.76" cy="-522" rx="74.79" ry="18"/>
<text text-anchor="middle" x="300.76" y="-519.2" font-family="sans" font-size="11.00">eth_input_unknown_type</text>
</g>
<!-- eth_input&#45;&gt;eth_input_unknown_type -->
<g id="edge4" class="edge">
<title>eth_input&#45;&gt;eth_input_unknown_type</title>
<path fill="none" stroke="black" d="M155.59,-437.56C171.56,-453.76 198.52,-478.97 225.86,-495 231.43,-498.26 237.46,-501.24 243.59,-503.93"/>
<polygon fill="black" stroke="black" points="242.68,-507.34 253.26,-507.91 245.34,-500.87 242.68,-507.34"/>
</g>
<!-- eth_input_unknown_vlan -->
<g id="node8" class="node">
<title>eth_input_unknown_vlan</title>
<ellipse fill="none" stroke="darkorange" cx="300.76" cy="-468" rx="73.62" ry="18"/>
<text text-anchor="middle" x="300.76" y="-465.2" font-family="sans" font-size="11.00">eth_input_unknown_vlan</text>
</g>
<!-- eth_input&#45;&gt;eth_input_unknown_vlan -->
<g id="edge5" class="edge">
<title>eth_input&#45;&gt;eth_input_unknown_vlan</title>
<path fill="none" stroke="black" d="M166.8,-429.49C187.3,-435.43 216.71,-443.95 242.66,-451.46"/>
<polygon fill="black" stroke="black" points="241.83,-454.87 252.41,-454.29 243.78,-448.14 241.83,-454.87"/>
</g>
<!-- arp_input -->
<g id="node9" class="node">
<title>arp_input</title>
<ellipse fill="none" stroke="black" cx="878.75" cy="-430" rx="29.12" ry="18"/>
<text text-anchor="middle" x="878.75" y="-427.2" font-family="sans" font-size="11.00">arp_input</text>
</g>
<!-- eth_input&#45;&gt;arp_input -->
<g id="edge6" class="edge">
<title>eth_input&#45;&gt;arp_input</title>
<path fill="none" stroke="black" d="M169.36,-422.31C283.45,-423.55 708.14,-428.16 839.07,-429.58"/>
<polygon fill="black" stroke="black" points="839.37,-433.08 849.4,-429.69 839.44,-426.08 839.37,-433.08"/>
</g>
<!-- ip_input -->
<g id="node10" class="node">
<title>ip_input</title>
<ellipse fill="none" stroke="black" cx="300.76" cy="-272" rx="27" ry="18"/>
<text text-anchor="middle" x="300.76" y="-269.2" font-family="sans" font-size="11.00">ip_input</text>
</g>
<!-- eth_input&#45;&gt;ip_input -->
<g id="edge7" class="edge">
<title>eth_input&#45;&gt;ip_input</title>
<path fill="none" stroke="black" d="M163.85,-411.4C172.41,-406.92 181.97,-401.29 189.86,-395 226.84,-365.53 261.84,-322.9 282.02,-296.35"/>
<polygon fill="black" stroke="black" points="284.84,-298.43 288.04,-288.33 279.24,-294.23 284.84,-298.43"/>
</g>
<!-- lldp_input -->
<g id="node11" class="node">
<title>lldp_input</title>
<ellipse fill="none" stroke="black" cx="300.76" cy="-72" rx="29.7" ry="18"/>
<text text-anchor="middle" x="300.76" y="-69.2" font-family="sans" font-size="11.00">lldp_input</text>
</g>
<!-- eth_input&#45;&gt;lldp_input -->
<g id="edge8" class="edge">
<title>eth_input&#45;&gt;lldp_input</title>
<path fill="none" stroke="black" d="M165.73,-413.24C174.52,-408.99 183.75,-403.03 189.86,-395 231.41,-340.46 204.32,-310.09 225.86,-245 243.51,-191.66 270.81,-131.89 286.82,-98.42"/>
<polygon fill="black" stroke="black" points="290.02,-99.83 291.21,-89.31 283.71,-96.79 290.02,-99.83"/>
</g>
<!-- arp_output_reply -->
<g id="node18" class="node">
<title>arp_output_reply</title>
<ellipse fill="none" stroke="black" cx="1074.31" cy="-484" rx="51.62" ry="18"/>
<text text-anchor="middle" x="1074.31" y="-481.2" font-family="sans" font-size="11.00">arp_output_reply</text>
</g>
<!-- arp_input&#45;&gt;arp_output_reply -->
<g id="edge15" class="edge">
<title>arp_input&#45;&gt;arp_output_reply</title>
<path fill="none" stroke="black" d="M905.86,-437.28C935.98,-445.69 986.19,-459.69 1023.79,-470.18"/>
<polygon fill="black" stroke="black" points="1022.97,-473.59 1033.54,-472.9 1024.85,-466.85 1022.97,-473.59"/>
</g>
<!-- arp_input_reply -->
<g id="node19" class="node">
<title>arp_input_reply</title>
<ellipse fill="none" stroke="darkorange" cx="1074.31" cy="-430" rx="47.43" ry="18"/>
<text text-anchor="middle" x="1074.31" y="-427.2" font-family="sans" font-size="11.00">arp_input_reply</text>
</g>
<!-- arp_input&#45;&gt;arp_input_reply -->
<g id="edge16" class="edge">
<title>arp_input&#45;&gt;arp_input_reply</title>
<path fill="none" stroke="black" d="M908.31,-430C936.74,-430 981.14,-430 1016.73,-430"/>
<polygon fill="black" stroke="black" points="1016.98,-433.5 1026.98,-430 1016.98,-426.5 1016.98,-433.5"/>
</g>
<!-- arp_input_op_unsupp -->
<g id="node20" class="node">
<title>arp_input_op_unsupp</title>
<ellipse fill="none" stroke="darkorange" cx="1074.31" cy="-376" rx="63.5" ry="18"/>
<text text-anchor="middle" x="1074.31" y="-373.2" font-family="sans" font-size="11.00">arp_input_op_unsupp</text>
</g>
<!-- arp_input&#45;&gt;arp_input_op_unsupp -->
<g id="edge17" class="edge">
<title>arp_input&#45;&gt;arp_input_op_unsupp</title>
<path fill="none" stroke="black" d="M905.86,-422.72C934.65,-414.68 981.81,-401.53 1018.75,-391.22"/>
<polygon fill="black" stroke="black" points="1019.7,-394.59 1028.39,-388.53 1017.82,-387.85 1019.7,-394.59"/>
</g>
<!-- arp_input_proto_unsupp -->
<g id="node21" class="node">
<title>arp_input_proto_unsupp</title>
<ellipse fill="none" stroke="darkorange" cx="1074.31" cy="-322" rx="72.36" ry="18"/>
<text text-anchor="middle" x="1074.31" y="-319.2" font-family="sans" font-size="11.00">arp_input_proto_unsupp</text>
</g>
<!-- arp_input&#45;&gt;arp_input_proto_unsupp -->
<g id="edge18" class="edge">
<title>arp_input&#45;&gt;arp_input_proto_unsupp</title>
<path fill="none" stroke="black" d="M906.7,-424.33C921.39,-420.24 939.24,-413.53 952.56,-403 975.19,-385.11 965.52,-366.36 988.56,-349 994.58,-344.46 1001.39,-340.68 1008.46,-337.52"/>
<polygon fill="black" stroke="black" points="1010.25,-340.57 1018.22,-333.59 1007.64,-334.08 1010.25,-340.57"/>
</g>
<!-- arp_input_error -->
<g id="node22" class="node">
<title>arp_input_error</title>
<ellipse fill="none" stroke="darkorange" cx="1074.31" cy="-592" rx="46.85" ry="18"/>
<text text-anchor="middle" x="1074.31" y="-589.2" font-family="sans" font-size="11.00">arp_input_error</text>
</g>
<!-- arp_input&#45;&gt;arp_input_error -->
<g id="edge19" class="edge">
<title>arp_input&#45;&gt;arp_input_error</title>
<path fill="none" stroke="black" d="M889.08,-447.2C905.46,-475.82 942.12,-533.2 988.56,-565 998.72,-571.95 1010.76,-577.19 1022.53,-581.11"/>
<polygon fill="black" stroke="black" points="1021.73,-584.53 1032.31,-584.1 1023.77,-577.83 1021.73,-584.53"/>
</g>
<!-- arp_input_drop -->
<g id="node23" class="node">
<title>arp_input_drop</title>
<ellipse fill="none" stroke="darkorange" cx="1074.31" cy="-538" rx="45.68" ry="18"/>
<text text-anchor="middle" x="1074.31" y="-535.2" font-family="sans" font-size="11.00">arp_input_drop</text>
</g>
<!-- arp_input&#45;&gt;arp_input_drop -->
<g id="edge20" class="edge">
<title>arp_input&#45;&gt;arp_input_drop</title>
<path fill="none" stroke="black" d="M895.92,-444.78C916.22,-462.65 952.73,-492.61 988.56,-511 1000.05,-516.9 1013.08,-521.82 1025.42,-525.78"/>
<polygon fill="black" stroke="black" points="1024.53,-529.17 1035.12,-528.75 1026.58,-522.48 1024.53,-529.17"/>
</g>
<!-- ip_output -->
<g id="node24" class="node">
<title>ip_output</title>
<ellipse fill="none" stroke="black" cx="1074.31" cy="-268" rx="29.12" ry="18"/>
<text text-anchor="middle" x="1074.31" y="-265.2" font-family="sans" font-size="11.00">ip_output</text>
</g>
<!-- arp_input&#45;&gt;ip_output -->
<g id="edge21" class="edge">
<title>arp_input&#45;&gt;ip_output</title>
<path fill="none" stroke="black" d="M907.52,-425.72C922.65,-422.05 940.66,-415.31 952.56,-403 987.74,-366.63 952.55,-330.54 988.56,-295 1000.91,-282.81 1018.75,-276.12 1034.88,-272.45"/>
<polygon fill="black" stroke="black" points="1036.01,-275.79 1045.16,-270.45 1034.68,-268.92 1036.01,-275.79"/>
</g>
<!-- ip_forward -->
<g id="node31" class="node">
<title>ip_forward</title>
<ellipse fill="none" stroke="black" cx="482.75" cy="-272" rx="32.63" ry="18"/>
<text text-anchor="middle" x="482.75" y="-269.2" font-family="sans" font-size="11.00">ip_forward</text>
</g>
<!-- ip_input&#45;&gt;ip_forward -->
<g id="edge37" class="edge">
<title>ip_input&#45;&gt;ip_forward</title>
<path fill="none" stroke="black" d="M327.93,-272C357.26,-272 405.24,-272 439.82,-272"/>
<polygon fill="black" stroke="black" points="440.08,-275.5 450.08,-272 440.08,-268.5 440.08,-275.5"/>
</g>
<!-- ip_input_no_route -->
<g id="node33" class="node">
<title>ip_input_no_route</title>
<ellipse fill="none" stroke="black" cx="679.39" cy="-118" rx="53.96" ry="18"/>
<text text-anchor="middle" x="679.39" y="-115.2" font-family="sans" font-size="11.00">ip_input_no_route</text>
</g>
<!-- ip_input&#45;&gt;ip_input_no_route -->
<g id="edge39" class="edge">
<title>ip_input&#45;&gt;ip_input_no_route</title>
<path fill="none" stroke="black" d="M309.74,-254.99C324.85,-225.02 360.7,-163.48 411.65,-137 477,-103.04 563.78,-103.87 620.34,-109.41"/>
<polygon fill="black" stroke="black" points="620.22,-112.92 630.54,-110.5 620.96,-105.96 620.22,-112.92"/>
</g>
<!-- ip_input_local -->
<g id="node34" class="node">
<title>ip_input_local</title>
<ellipse fill="none" stroke="black" cx="482.75" cy="-326" rx="41.49" ry="18"/>
<text text-anchor="middle" x="482.75" y="-323.2" font-family="sans" font-size="11.00">ip_input_local</text>
</g>
<!-- ip_input&#45;&gt;ip_input_local -->
<g id="edge38" class="edge">
<title>ip_input&#45;&gt;ip_input_local</title>
<path fill="none" stroke="black" d="M325.66,-279.17C354.42,-287.8 403.24,-302.45 438.64,-313.07"/>
<polygon fill="black" stroke="black" points="437.65,-316.43 448.24,-315.95 439.67,-309.72 437.65,-316.43"/>
</g>
<!-- ip_input_bad_checksum -->
<g id="node35" class="node">
<title>ip_input_bad_checksum</title>
<ellipse fill="none" stroke="darkorange" cx="482.75" cy="-218" rx="71.19" ry="18"/>
<text text-anchor="middle" x="482.75" y="-215.2" font-family="sans" font-size="11.00">ip_input_bad_checksum</text>
</g>
<!-- ip_input&#45;&gt;ip_input_bad_checksum -->
<g id="edge40" class="edge">
<title>ip_input&#45;&gt;ip_input_bad_checksum</title>
<path fill="none" stroke="black" d="M325.66,-264.83C351.25,-257.15 392.72,-244.71 426.49,-234.58"/>
<polygon fill="black" stroke="black" points="427.67,-237.88 436.24,-231.65 425.66,-231.17 427.67,-237.88"/>
</g>
<!-- ip_input_bad_length -->
<g id="node36" class="node">
<title>ip_input_bad_length</title>
<ellipse fill="none" stroke="darkorange" cx="482.75" cy="-164" rx="60.48" ry="18"/>
<text text-anchor="middle" x="482.75" y="-161.2" font-family="sans" font-size="11.00">ip_input_bad_length</text>
</g>
<!-- ip_input&#45;&gt;ip_input_bad_length -->
<g id="edge41" class="edge">
<title>ip_input&#45;&gt;ip_input_bad_length</title>
<path fill="none" stroke="black" d="M317.94,-257.89C338.58,-240.42 375.9,-210.6 411.65,-191 418.1,-187.47 425.11,-184.18 432.11,-181.2"/>
<polygon fill="black" stroke="black" points="433.67,-184.35 441.62,-177.34 431.03,-177.86 433.67,-184.35"/>
</g>
<!-- lldp_rx_disabled -->
<g id="node45" class="node">
<title>lldp_rx_disabled</title>
<ellipse fill="none" stroke="darkorange" cx="482.75" cy="-72" rx="48.69" ry="18"/>
<text text-anchor="middle" x="482.75" y="-69.2" font-family="sans" font-size="11.00">lldp_rx_disabled</text>
</g>
<!-- lldp_input&#45;&gt;lldp_rx_disabled -->
<g id="edge55" class="edge">
<title>lldp_input&#45;&gt;lldp_rx_disabled</title>
<path fill="none" stroke="black" d="M330.67,-72C355.58,-72 392.31,-72 423.32,-72"/>
<polygon fill="black" stroke="black" points="423.59,-75.5 433.59,-72 423.59,-68.5 423.59,-75.5"/>
</g>
<!-- lldp_input_error -->
<g id="node46" class="node">
<title>lldp_input_error</title>
<ellipse fill="none" stroke="darkorange" cx="482.75" cy="-18" rx="47.43" ry="18"/>
<text text-anchor="middle" x="482.75" y="-15.2" font-family="sans" font-size="11.00">lldp_input_error</text>
</g>
<!-- lldp_input&#45;&gt;lldp_input_error -->
<g id="edge56" class="edge">
<title>lldp_input&#45;&gt;lldp_input_error</title>
<path fill="none" stroke="black" d="M327.93,-64.15C356.06,-55.71 401.33,-42.13 435.49,-31.88"/>
<polygon fill="black" stroke="black" points="436.68,-35.17 445.26,-28.95 434.67,-28.47 436.68,-35.17"/>
</g>
<!-- eth_output&#45;&gt;error_no_headroom -->
<g id="edge11" class="edge">
<title>eth_output&#45;&gt;error_no_headroom</title>
<path fill="none" stroke="black" d="M1296.98,-505.17C1310.04,-501.24 1324.39,-494.72 1333.91,-484 1375.16,-437.58 1351.37,-408.26 1369.91,-349 1387.11,-294.02 1410.74,-230.97 1424.32,-195.67"/>
<polygon fill="black" stroke="black" points="1427.69,-196.66 1428.04,-186.07 1421.16,-194.13 1427.69,-196.66"/>
</g>
<!-- port_tx -->
<g id="node13" class="node">
<title>port_tx</title>
<ellipse fill="none" stroke="black" cx="1436.12" cy="-538" rx="27" ry="18"/>
<text text-anchor="middle" x="1436.12" y="-535.2" font-family="sans" font-size="11.00">port_tx</text>
</g>
<!-- eth_output&#45;&gt;port_tx -->
<g id="edge9" class="edge">
<title>eth_output&#45;&gt;port_tx</title>
<path fill="none" stroke="black" d="M1297.4,-516.02C1326.37,-520.64 1369.34,-527.5 1399.56,-532.32"/>
<polygon fill="black" stroke="black" points="1399.25,-535.82 1409.67,-533.94 1400.35,-528.9 1399.25,-535.82"/>
</g>
<!-- eth_output_inval -->
<g id="node14" class="node">
<title>eth_output_inval</title>
<ellipse fill="none" stroke="darkorange" cx="1436.12" cy="-484" rx="50.45" ry="18"/>
<text text-anchor="middle" x="1436.12" y="-481.2" font-family="sans" font-size="11.00">eth_output_inval</text>
</g>
<!-- eth_output&#45;&gt;eth_output_inval -->
<g id="edge10" class="edge">
<title>eth_output&#45;&gt;eth_output_inval</title>
<path fill="none" stroke="black" d="M1297.4,-505.98C1320.45,-502.31 1352.34,-497.22 1379.63,-492.86"/>
<polygon fill="black" stroke="black" points="1380.52,-496.26 1389.84,-491.23 1379.41,-489.35 1380.52,-496.26"/>
</g>
<!-- port_tx_error -->
<g id="node17" class="node">
<title>port_tx_error</title>
<ellipse fill="none" stroke="darkorange" cx="1578.5" cy="-538" rx="40.32" ry="18"/>
<text text-anchor="middle" x="1578.5" y="-535.2" font-family="sans" font-size="11.00">port_tx_error</text>
</g>
<!-- port_tx&#45;&gt;port_tx_error -->
<g id="edge14" class="edge">
<title>port_tx&#45;&gt;port_tx_error</title>
<path fill="none" stroke="black" d="M1463.2,-538C1481.41,-538 1506.27,-538 1528.16,-538"/>
<polygon fill="black" stroke="black" points="1528.3,-541.5 1538.3,-538 1528.3,-534.5 1528.3,-541.5"/>
</g>
<!-- port_rx -->
<g id="node15" class="node">
<title>port_rx</title>
<ellipse fill="none" stroke="blue" stroke-width="2" cx="27" cy="-395" rx="27" ry="18"/>
<text text-anchor="middle" x="27" y="-392.2" font-family="sans" font-size="11.00">port_rx</text>
</g>
<!-- port_rx&#45;&gt;eth_input -->
<g id="edge12" class="edge">
<title>port_rx&#45;&gt;eth_input</title>
<path fill="none" stroke="blue" stroke-width="2" d="M52.62,-400.99C67.31,-404.57 86.24,-409.18 102.63,-413.16"/>
<polygon fill="blue" stroke="blue" stroke-width="2" points="101.9,-416.59 112.44,-415.55 103.55,-409.79 101.9,-416.59"/>
</g>
<!-- port_rx_no_iface -->
<g id="node16" class="node">
<title>port_rx_no_iface</title>
<ellipse fill="none" stroke="darkorange" cx="139.93" cy="-368" rx="49.86" ry="18"/>
<text text-anchor="middle" x="139.93" y="-365.2" font-family="sans" font-size="11.00">port_rx_no_iface</text>
</g>
<!-- port_rx&#45;&gt;port_rx_no_iface -->
<g id="edge13" class="edge">
<title>port_rx&#45;&gt;port_rx_no_iface</title>
<path fill="none" stroke="blue" stroke-width="2" d="M52.62,-389.01C63.1,-386.46 75.72,-383.38 88.05,-380.38"/>
<polygon fill="blue" stroke="blue" stroke-width="2" points="88.93,-383.77 97.82,-378.01 87.28,-376.97 88.93,-383.77"/>
</g>
<!-- arp_output_reply&#45;&gt;eth_output -->
<g id="edge22" class="edge">
<title>arp_output_reply&#45;&gt;eth_output</title>
<path fill="none" stroke="black" d="M1122.44,-490.74C1153.09,-495.13 1192.72,-500.8 1222.24,-505.03"/>
<polygon fill="black" stroke="black" points="1221.83,-508.5 1232.23,-506.46 1222.83,-501.57 1221.83,-508.5"/>
</g>
<!-- arp_output_reply_error -->
<g id="node25" class="node">
<title>arp_output_reply_error</title>
<ellipse fill="none" stroke="darkorange" cx="1264.99" cy="-457" rx="68.85" ry="18"/>
<text text-anchor="middle" x="1264.99" y="-454.2" font-family="sans" font-size="11.00">arp_output_reply_error</text>
</g>
<!-- arp_output_reply&#45;&gt;arp_output_reply_error -->
<g id="edge23" class="edge">
<title>arp_output_reply&#45;&gt;arp_output_reply_error</title>
<path fill="none" stroke="black" d="M1122.44,-477.26C1144.12,-474.15 1170.28,-470.41 1194.18,-466.99"/>
<polygon fill="black" stroke="black" points="1194.86,-470.43 1204.27,-465.55 1193.87,-463.5 1194.86,-470.43"/>
</g>
<!-- ip_output&#45;&gt;eth_output -->
<g id="edge45" class="edge">
<title>ip_output&#45;&gt;eth_output</title>
<path fill="none" stroke="black" d="M1103.72,-269.76C1122.4,-272.45 1145.93,-279.05 1160.06,-295 1216.79,-358.99 1141.61,-418.07 1196.06,-484 1202.98,-492.38 1212.87,-498.17 1222.97,-502.17"/>
<polygon fill="black" stroke="black" points="1222.03,-505.55 1232.63,-505.49 1224.31,-498.93 1222.03,-505.55"/>
</g>
<!-- ip_output_no_route -->
<g id="node39" class="node">
<title>ip_output_no_route</title>
<ellipse fill="none" stroke="darkorange" cx="1264.99" cy="-322" rx="58.14" ry="18"/>
<text text-anchor="middle" x="1264.99" y="-319.2" font-family="sans" font-size="11.00">ip_output_no_route</text>
</g>
<!-- ip_output&#45;&gt;ip_output_no_route -->
<g id="edge46" class="edge">
<title>ip_output&#45;&gt;ip_output_no_route</title>
<path fill="none" stroke="black" d="M1101.15,-275.4C1129.56,-283.53 1175.96,-296.81 1211.98,-307.12"/>
<polygon fill="black" stroke="black" points="1211.26,-310.55 1221.84,-309.94 1213.19,-303.82 1211.26,-310.55"/>
</g>
<!-- ip_output_error -->
<g id="node40" class="node">
<title>ip_output_error</title>
<ellipse fill="none" stroke="darkorange" cx="1264.99" cy="-268" rx="46.85" ry="18"/>
<text text-anchor="middle" x="1264.99" y="-265.2" font-family="sans" font-size="11.00">ip_output_error</text>
</g>
<!-- ip_output&#45;&gt;ip_output_error -->
<g id="edge47" class="edge">
<title>ip_output&#45;&gt;ip_output_error</title>
<path fill="none" stroke="black" d="M1103.97,-268C1131.43,-268 1173.65,-268 1207.82,-268"/>
<polygon fill="black" stroke="black" points="1208.14,-271.5 1218.14,-268 1208.14,-264.5 1208.14,-271.5"/>
</g>
<!-- arp_queue_full -->
<g id="node41" class="node">
<title>arp_queue_full</title>
<ellipse fill="none" stroke="darkorange" cx="1264.99" cy="-214" rx="43.92" ry="18"/>
<text text-anchor="middle" x="1264.99" y="-211.2" font-family="sans" font-size="11.00">arp_queue_full</text>
</g>
<!-- ip_output&#45;&gt;arp_queue_full -->
<g id="edge48" class="edge">
<title>ip_output&#45;&gt;arp_queue_full</title>
<path fill="none" stroke="black" d="M1101.15,-260.6C1131.32,-251.97 1181.76,-237.53 1218.52,-227.01"/>
<polygon fill="black" stroke="black" points="1219.85,-230.27 1228.5,-224.16 1217.92,-223.54 1219.85,-230.27"/>
</g>
<!-- ipip_output -->
<g id="node42" class="node">
<title>ipip_output</title>
<ellipse fill="none" stroke="black" cx="1264.99" cy="-376" rx="34.38" ry="18"/>
<text text-anchor="middle" x="1264.99" y="-373.2" font-family="sans" font-size="11.00">ipip_output</text>
</g>
<!-- ip_output&#45;&gt;ipip_output -->
<g id="edge49" class="edge">
<title>ip_output&#45;&gt;ipip_output</title>
<path fill="none" stroke="black" d="M1103.05,-264.31C1120.75,-266.63 1143.41,-273.46 1160.06,-286 1183.1,-303.36 1173.64,-321.85 1196.06,-340 1206.41,-348.38 1219.69,-354.43 1231.76,-359.27"/>
<polygon fill="black" stroke="black" points="1230.51,-362.53 1241.1,-362.91 1233.05,-356.01 1230.51,-362.53"/>
</g>
<!-- icmp_input -->
<g id="node27" class="node">
<title>icmp_input</title>
<ellipse fill="none" stroke="black" cx="679.39" cy="-268" rx="33.8" ry="18"/>
<text text-anchor="middle" x="679.39" y="-265.2" font-family="sans" font-size="11.00">icmp_input</text>
</g>
<!-- icmp_output -->
<g id="node28" class="node">
<title>icmp_output</title>
<ellipse fill="none" stroke="black" cx="878.75" cy="-176" rx="37.98" ry="18"/>
<text text-anchor="middle" x="878.75" y="-173.2" font-family="sans" font-size="11.00">icmp_output</text>
</g>
<!-- icmp_input&#45;&gt;icmp_output -->
<g id="edge26" class="edge">
<title>icmp_input&#45;&gt;icmp_output</title>
<path fill="none" stroke="black" d="M705.39,-256.35C739.81,-240.3 802.03,-211.3 841.54,-192.88"/>
<polygon fill="black" stroke="black" points="843.49,-195.83 851.07,-188.44 840.53,-189.49 843.49,-195.83"/>
</g>
<!-- icmp_input_invalid -->
<g id="node29" class="node">
<title>icmp_input_invalid</title>
<ellipse fill="none" stroke="darkorange" cx="878.75" cy="-268" rx="55.8" ry="18"/>
<text text-anchor="middle" x="878.75" y="-265.2" font-family="sans" font-size="11.00">icmp_input_invalid</text>
</g>
<!-- icmp_input&#45;&gt;icmp_input_invalid -->
<g id="edge27" class="edge">
<title>icmp_input&#45;&gt;icmp_input_invalid</title>
<path fill="none" stroke="black" d="M713.43,-268C740.38,-268 779.28,-268 812.47,-268"/>
<polygon fill="black" stroke="black" points="812.57,-271.5 822.57,-268 812.57,-264.5 812.57,-271.5"/>
</g>
<!-- icmp_input_unsupported -->
<g id="node30" class="node">
<title>icmp_input_unsupported</title>
<ellipse fill="none" stroke="darkorange" cx="878.75" cy="-322" rx="73.62" ry="18"/>
<text text-anchor="middle" x="878.75" y="-319.2" font-family="sans" font-size="11.00">icmp_input_unsupported</text>
</g>
<!-- icmp_input&#45;&gt;icmp_input_unsupported -->
<g id="edge28" class="edge">
<title>icmp_input&#45;&gt;icmp_input_unsupported</title>
<path fill="none" stroke="black" d="M709.94,-276.08C738.64,-283.94 783.02,-296.08 818.94,-305.91"/>
<polygon fill="black" stroke="black" points="818.25,-309.35 828.82,-308.61 820.1,-302.6 818.25,-309.35"/>
</g>
<!-- icmp_output&#45;&gt;error_no_headroom -->
<g id="edge30" class="edge">
<title>icmp_output&#45;&gt;error_no_headroom</title>
<path fill="none" stroke="black" d="M917.05,-175.46C1009.1,-174.14 1248.15,-170.69 1366.57,-168.99"/>
<polygon fill="black" stroke="black" points="1366.67,-172.49 1376.61,-168.84 1366.56,-165.49 1366.67,-172.49"/>
</g>
<!-- icmp_output&#45;&gt;ip_output -->
<g id="edge29" class="edge">
<title>icmp_output&#45;&gt;ip_output</title>
<path fill="none" stroke="black" d="M907.55,-187.85C921.18,-193.76 937.8,-201.1 952.56,-208 983.26,-222.36 1017.86,-239.67 1042.12,-252"/>
<polygon fill="black" stroke="black" points="1040.71,-255.21 1051.21,-256.63 1043.89,-248.97 1040.71,-255.21"/>
</g>
<!-- ip_forward&#45;&gt;ip_output -->
<g id="edge31" class="edge">
<title>ip_forward&#45;&gt;ip_output</title>
<path fill="none" stroke="black" d="M510.32,-261.95C531.5,-254.49 562.11,-244.97 589.84,-241 749.43,-218.16 792.33,-223.3 952.56,-241 981.52,-244.2 1013.69,-251.59 1037.53,-257.83"/>
<polygon fill="black" stroke="black" points="1036.65,-261.21 1047.21,-260.41 1038.45,-254.45 1036.65,-261.21"/>
</g>
<!-- ip_forward_ttl_exceeded -->
<g id="node32" class="node">
<title>ip_forward_ttl_exceeded</title>
<ellipse fill="none" stroke="black" cx="679.39" cy="-176" rx="73.04" ry="18"/>
<text text-anchor="middle" x="679.39" y="-173.2" font-family="sans" font-size="11.00">ip_forward_ttl_exceeded</text>
</g>
<!-- ip_forward&#45;&gt;ip_forward_ttl_exceeded -->
<g id="edge32" class="edge">
<title>ip_forward&#45;&gt;ip_forward_ttl_exceeded</title>
<path fill="none" stroke="black" d="M512.38,-264.08C525.64,-259.66 541.22,-253.33 553.84,-245 572.99,-232.36 570.56,-220.44 589.84,-208 598.99,-202.1 609.38,-197.1 619.73,-192.94"/>
<polygon fill="black" stroke="black" points="621.09,-196.17 629.2,-189.35 618.61,-189.62 621.09,-196.17"/>
</g>
<!-- ip_forward_ttl_exceeded&#45;&gt;error_no_headroom -->
<g id="edge34" class="edge">
<title>ip_forward_ttl_exceeded&#45;&gt;error_no_headroom</title>
<path fill="none" stroke="black" d="M729.69,-162.77C752.42,-157.34 779.86,-151.69 804.94,-149 1010.95,-126.93 1256.84,-147.88 1371.01,-160.3"/>
<polygon fill="black" stroke="black" points="1370.66,-163.79 1380.98,-161.4 1371.43,-156.83 1370.66,-163.79"/>
</g>
<!-- ip_forward_ttl_exceeded&#45;&gt;icmp_output -->
<g id="edge33" class="edge">
<title>ip_forward_ttl_exceeded&#45;&gt;icmp_output</title>
<path fill="none" stroke="black" d="M752.76,-176C778.62,-176 807.07,-176 830.29,-176"/>
<polygon fill="black" stroke="black" points="830.56,-179.5 840.56,-176 830.56,-172.5 830.56,-179.5"/>
</g>
<!-- ip_input_no_route&#45;&gt;error_no_headroom -->
<g id="edge36" class="edge">
<title>ip_input_no_route&#45;&gt;error_no_headroom</title>
<path fill="none" stroke="black" d="M732.83,-116.13C844.21,-112.99 1112.29,-109.85 1333.91,-142 1350.26,-144.37 1367.78,-148.35 1383.58,-152.48"/>
<polygon fill="black" stroke="black" points="1383.11,-155.98 1393.68,-155.21 1384.93,-149.22 1383.11,-155.98"/>
</g>
<!-- ip_input_no_route&#45;&gt;icmp_output -->
<g id="edge35" class="edge">
<title>ip_input_no_route&#45;&gt;icmp_output</title>
<path fill="none" stroke="black" d="M720.33,-129.74C754.06,-139.65 802.18,-153.79 836.32,-163.82"/>
<polygon fill="black" stroke="black" points="835.42,-167.21 846,-166.67 837.39,-160.49 835.42,-167.21"/>
</g>
<!-- ip_input_local&#45;&gt;icmp_input -->
<g id="edge43" class="edge">
<title>ip_input_local&#45;&gt;icmp_input</title>
<path fill="none" stroke="black" d="M517.21,-316.03C551.29,-305.87 604.07,-290.15 639.87,-279.48"/>
<polygon fill="black" stroke="black" points="640.9,-282.82 649.49,-276.61 638.91,-276.11 640.9,-282.82"/>
</g>
<!-- ip_input_local_unknown_proto -->
<g id="node37" class="node">
<title>ip_input_local_unknown_proto</title>
<ellipse fill="none" stroke="darkorange" cx="679.39" cy="-322" rx="89.6" ry="18"/>
<text text-anchor="middle" x="679.39" y="-319.2" font-family="sans" font-size="11.00">ip_input_local_unknown_proto</text>
</g>
<!-- ip_input_local&#45;&gt;ip_input_local_unknown_proto -->
<g id="edge42" class="edge">
<title>ip_input_local&#45;&gt;ip_input_local_unknown_proto</title>
<path fill="none" stroke="black" d="M524.08,-325.17C540.46,-324.83 560.17,-324.43 579.95,-324.02"/>
<polygon fill="black" stroke="black" points="580.03,-327.52 589.96,-323.82 579.89,-320.52 580.03,-327.52"/>
</g>
<!-- ipip_input -->
<g id="node38" class="node">
<title>ipip_input</title>
<ellipse fill="none" stroke="black" cx="679.39" cy="-376" rx="29.7" ry="18"/>
<text text-anchor="middle" x="679.39" y="-373.2" font-family="sans" font-size="11.00">ipip_input</text>
</g>
<!-- ip_input_local&#45;&gt;ipip_input -->
<g id="edge44" class="edge">
<title>ip_input_local&#45;&gt;ipip_input</title>
<path fill="none" stroke="black" d="M519,-335.05C553.7,-343.97 606.46,-357.52 641.67,-366.57"/>
<polygon fill="black" stroke="black" points="640.99,-370 651.54,-369.1 642.73,-363.22 640.99,-370"/>
</g>
<!-- ipip_input&#45;&gt;ip_input -->
<g id="edge50" class="edge">
<title>ipip_input&#45;&gt;ip_input</title>
<path fill="none" stroke="black" d="M649.64,-378.49C599.51,-381.77 493.63,-383.91 411.65,-353 377.24,-340.02 344.17,-313.02 323.45,-293.76"/>
<polygon fill="black" stroke="black" points="325.8,-291.16 316.14,-286.8 320.97,-296.23 325.8,-291.16"/>
</g>
<!-- ipip_input_no_tunnel -->
<g id="node43" class="node">
<title>ipip_input_no_tunnel</title>
<ellipse fill="none" stroke="darkorange" cx="878.75" cy="-376" rx="61.74" ry="18"/>
<text text-anchor="middle" x="878.75" y="-373.2" font-family="sans" font-size="11.00">ipip_input_no_tunnel</text>
</g>
<!-- ipip_input&#45;&gt;ipip_input_no_tunnel -->
<g id="edge51" class="edge">
<title>ipip_input&#45;&gt;ipip_input_no_tunnel</title>
<path fill="none" stroke="black" d="M709.51,-376C734.97,-376 773,-376 806.46,-376"/>
<polygon fill="black" stroke="black" points="806.68,-379.5 816.68,-376 806.68,-372.5 806.68,-379.5"/>
</g>
<!-- ipip_output&#45;&gt;error_no_headroom -->
<g id="edge54" class="edge">
<title>ipip_output&#45;&gt;error_no_headroom</title>
<path fill="none" stroke="black" d="M1296.48,-368.76C1309.14,-364.59 1323.32,-358.28 1333.91,-349 1382.38,-306.52 1412.55,-234.95 1426.32,-195.74"/>
<polygon fill="black" stroke="black" points="1429.71,-196.65 1429.62,-186.05 1423.08,-194.39 1429.71,-196.65"/>
</g>
<!-- ipip_output&#45;&gt;ip_output -->
<g id="edge52" class="edge">
<title>ipip_output&#45;&gt;ip_output</title>
<path fill="none" stroke="black" d="M1230.74,-375.72C1218.95,-372.09 1206.12,-366.14 1196.06,-358 1173.64,-339.85 1183.1,-321.36 1160.06,-304 1145.05,-292.69 1125.15,-286.03 1108.4,-281.19"/>
<polygon fill="black" stroke="black" points="1109.03,-277.73 1098.46,-278.38 1107.13,-284.47 1109.03,-277.73"/>
</g>
<!-- ipip_output_no_tunnel -->
<g id="node44" class="node">
<title>ipip_output_no_tunnel</title>
<ellipse fill="none" stroke="darkorange" cx="1436.12" cy="-376" rx="66.42" ry="18"/>
<text text-anchor="middle" x="1436.12" y="-373.2" font-family="sans" font-size="11.00">ipip_output_no_tunnel</text>
</g>
<!-- ipip_output&#45;&gt;ipip_output_no_tunnel -->
<g id="edge53" class="edge">
<title>ipip_output&#45;&gt;ipip_output_no_tunnel</title>
<path fill="none" stroke="black" d="M1299.4,-376C1316.61,-376 1338.35,-376 1359.35,-376"/>
<polygon fill="black" stroke="black" points="1359.58,-379.5 1369.58,-376 1359.58,-372.5 1359.58,-379.5"/>
</g>
</g>
</svg>
