<?xml version="1.0" encoding="UTF-8" standalone="no"?>
<!DOCTYPE svg PUBLIC "-//W3C//DTD SVG 1.1//EN"
 "http://www.w3.org/Graphics/SVG/1.1/DTD/svg11.dtd">
<!-- Generated by graphviz version 2.43.0 (0)
 -->
<!-- Title: gr&#45;0002 Pages: 1 -->
<svg width="1743pt" height="931pt"
 viewBox="0.00 0.00 1742.71 930.58" xmlns="http://www.w3.org/2000/svg" xmlns:xlink="http://www.w3.org/1999/xlink">
<g id="graph0" class="graph" transform="scale(1 1) rotate(0) translate(4 926.58)">
<title>gr&#45;0002</title>
<polygon fill="white" stroke="transparent" points="-4,4 -4,-926.58 1738.71,-926.58 1738.71,4 -4,4"/>
<!-- control_input -->
<g id="node1" class="node">
<title>control_input</title>
<ellipse fill="none" stroke="blue" stroke-width="2" cx="40.16" cy="-724" rx="40.32" ry="18"/>
<text text-anchor="middle" x="40.16" y="-721.2" font-family="sans" font-size="11.00">control_input</text>
</g>
<!-- kernel_input -->
<g id="node2" class="node">
<title>kernel_input</title>
<ellipse fill="none" stroke="black" cx="153.77" cy="-549" rx="37.4" ry="18"/>
<text text-anchor="middle" x="153.77" y="-546.2" font-family="sans" font-size="11.00">kernel_input</text>
</g>
<!-- control_input&#45;&gt;kernel_input -->
<g id="edge1" class="edge">
<title>control_input&#45;&gt;kernel_input</title>
<path fill="none" stroke="blue" stroke-width="2" d="M52.27,-706.58C72.04,-675.58 113.42,-610.7 136.44,-574.61"/>
<polygon fill="blue" stroke="blue" stroke-width="2" points="139.44,-576.4 141.87,-566.09 133.54,-572.64 139.44,-576.4"/>
</g>
<!-- arp_output_request -->
<g id="node3" class="node">
<title>arp_output_request</title>
<ellipse fill="none" stroke="black" cx="537.47" cy="-901" rx="59.31" ry="18"/>
<text text-anchor="middle" x="537.47" y="-898.2" font-family="sans" font-size="11.00">arp_output_request</text>
</g>
<!-- control_input&#45;&gt;arp_output_request -->
<g id="edge2" class="edge">
<title>control_input&#45;&gt;arp_output_request</title>
<path fill="none" stroke="blue" stroke-width="2" d="M44.92,-741.99C52.45,-773.03 72.56,-836.13 116.32,-865 226.83,-937.92 390.87,-925.78 477.67,-912.37"/>
<polygon fill="blue" stroke="blue" stroke-width="2" points="478.28,-915.81 487.6,-910.77 477.18,-908.9 478.28,-915.81"/>
</g>
<!-- icmp_local_send -->
<g id="node4" class="node">
<title>icmp_local_send</title>
<ellipse fill="none" stroke="black" cx="537.47" cy="-568" rx="49.28" ry="18"/>
<text text-anchor="middle" x="537.47" y="-565.2" font-family="sans" font-size="11.00">icmp_local_send</text>
</g>
<!-- control_input&#45;&gt;icmp_local_send -->
<g id="edge3" class="edge">
<title>control_input&#45;&gt;icmp_local_send</title>
<path fill="none" stroke="blue" stroke-width="2" d="M53.45,-706.75C66.85,-689.3 89.94,-662.99 116.32,-649 233.99,-586.63 392.9,-571.89 477.58,-568.66"/>
<polygon fill="blue" stroke="blue" stroke-width="2" points="477.91,-572.15 487.78,-568.31 477.67,-565.15 477.91,-572.15"/>
</g>
<!-- icmp6_local_send -->
<g id="node5" class="node">
<title>icmp6_local_send</title>
<ellipse fill="none" stroke="black" cx="685.82" cy="-668" rx="53.37" ry="18"/>
<text text-anchor="middle" x="685.82" y="-665.2" font-family="sans" font-size="11.00">icmp6_local_send</text>
</g>
<!-- control_input&#45;&gt;icmp6_local_send -->
<g id="edge4" class="edge">
<title>control_input&#45;&gt;icmp6_local_send</title>
<path fill="none" stroke="blue" stroke-width="2" d="M69.15,-711.51C111.77,-693.66 195.88,-663 270.72,-663 270.72,-663 270.72,-663 398.27,-663 475.6,-663 564.65,-664.84 622.68,-666.29"/>
<polygon fill="blue" stroke="blue" stroke-width="2" points="622.71,-669.79 632.79,-666.55 622.89,-662.79 622.71,-669.79"/>
</g>
<!-- ndp_ns_output -->
<g id="node6" class="node">
<title>ndp_ns_output</title>
<ellipse fill="none" stroke="black" cx="271.72" cy="-747" rx="44.51" ry="18"/>
<text text-anchor="middle" x="271.72" y="-744.2" font-family="sans" font-size="11.00">ndp_ns_output</text>
</g>
<!-- control_input&#45;&gt;ndp_ns_output -->
<g id="edge5" class="edge">
<title>control_input&#45;&gt;ndp_ns_output</title>
<path fill="none" stroke="blue" stroke-width="2" d="M79.58,-727.85C117.55,-731.65 175.92,-737.5 218.17,-741.73"/>
<polygon fill="blue" stroke="blue" stroke-width="2" points="217.97,-745.23 228.27,-742.75 218.67,-738.27 217.97,-745.23"/>
</g>
<!-- ip_output -->
<g id="node7" class="node">
<title>ip_output</title>
<ellipse fill="none" stroke="black" cx="1186.38" cy="-466" rx="29.12" ry="18"/>
<text text-anchor="middle" x="1186.38" y="-463.2" font-family="sans" font-size="11.00">ip_output</text>
</g>
<!-- control_input&#45;&gt;ip_output -->
<g id="edge6" class="edge">
<title>control_input&#45;&gt;ip_output</title>
<path fill="none" stroke="blue" stroke-width="2" d="M45.54,-706.04C54.92,-669.58 79.14,-585 116.32,-522 236.17,-318.92 300.66,-198 536.47,-198 536.47,-198 536.47,-198 935.74,-198 1066.38,-198 1148.12,-370.62 1175.31,-438.78"/>
<polygon fill="blue" stroke="blue" stroke-width="2" points="1172.17,-440.37 1179.06,-448.42 1178.69,-437.83 1172.17,-440.37"/>
</g>
<!-- arp_output_reply -->
<g id="node8" class="node">
<title>arp_output_reply</title>
<ellipse fill="none" stroke="black" cx="685.82" cy="-857" rx="51.62" ry="18"/>
<text text-anchor="middle" x="685.82" y="-854.2" font-family="sans" font-size="11.00">arp_output_reply</text>
</g>
<!-- control_input&#45;&gt;arp_output_reply -->
<g id="edge7" class="edge">
<title>control_input&#45;&gt;arp_output_reply</title>
<path fill="none" stroke="blue" stroke-width="2" d="M49.17,-741.94C60.55,-765.17 83.69,-805.04 116.32,-825 175.69,-861.31 201.13,-851 270.72,-851 270.72,-851 270.72,-851 398.27,-851 476.31,-851 566.27,-853.25 624.26,-855"/>
<polygon fill="blue" stroke="blue" stroke-width="2" points="624.25,-858.5 634.35,-855.3 624.47,-851.5 624.25,-858.5"/>
</g>
<!-- ip6_output -->
<g id="node9" class="node">
<title>ip6_output</title>
<ellipse fill="none" stroke="black" cx="1421.74" cy="-623" rx="32.63" ry="18"/>
<text text-anchor="middle" x="1421.74" y="-620.2" font-family="sans" font-size="11.00">ip6_output</text>
</g>
<!-- control_input&#45;&gt;ip6_output -->
<g id="edge8" class="edge">
<title>control_input&#45;&gt;ip6_output</title>
<path fill="none" stroke="blue" stroke-width="2" d="M71.6,-735.5C114.54,-755.5 196.01,-793 270.72,-793 270.72,-793 270.72,-793 1187.38,-793 1284.24,-793 1365.69,-694.72 1401.38,-647.47"/>
<polygon fill="blue" stroke="blue" stroke-width="2" points="1404.32,-649.38 1407.5,-639.27 1398.71,-645.19 1404.32,-649.38"/>
</g>
<!-- control_input&#45;&gt;ip6_output -->
<g id="edge10" class="edge">
<title>control_input&#45;&gt;ip6_output</title>
<path fill="none" stroke="blue" stroke-width="2" d="M59.49,-739.81C97.49,-765.28 188.22,-811 270.72,-811 270.72,-811 270.72,-811 1187.38,-811 1289.98,-811 1375.29,-700.72 1407.24,-648.93"/>
<polygon fill="blue" stroke="blue" stroke-width="2" points="1410.29,-650.65 1412.41,-640.27 1404.28,-647.06 1410.29,-650.65"/>
</g>
<!-- ndp_na_output -->
<g id="node10" class="node">
<title>ndp_na_output</title>
<ellipse fill="none" stroke="black" cx="397.27" cy="-709" rx="45.09" ry="18"/>
<text text-anchor="middle" x="397.27" y="-706.2" font-family="sans" font-size="11.00">ndp_na_output</text>
</g>
<!-- control_input&#45;&gt;ndp_na_output -->
<g id="edge9" class="edge">
<title>control_input&#45;&gt;ndp_na_output</title>
<path fill="none" stroke="blue" stroke-width="2" d="M80.18,-722.35C143.72,-719.67 269.69,-714.35 341.94,-711.29"/>
<polygon fill="blue" stroke="blue" stroke-width="2" points="342.36,-714.78 352.2,-710.86 342.06,-707.79 342.36,-714.78"/>
</g>
<!-- ip_input -->
<g id="node14" class="node">
<title>ip_input</title>
<ellipse fill="none" stroke="black" cx="537.47" cy="-420" rx="27" ry="18"/>
<text text-anchor="middle" x="537.47" y="-417.2" font-family="sans" font-size="11.00">ip_input</text>
</g>
<!-- kernel_input&#45;&gt;ip_input -->
<g id="edge16" class="edge">
<title>kernel_input&#45;&gt;ip_input</title>
<path fill="none" stroke="black" d="M185.04,-538.77C255.44,-514.98 429.72,-456.08 503.08,-431.29"/>
<polygon fill="black" stroke="black" points="504.39,-434.54 512.74,-428.02 502.14,-427.91 504.39,-434.54"/>
</g>
<!-- ip6_input -->
<g id="node15" class="node">
<title>ip6_input</title>
<ellipse fill="none" stroke="black" cx="271.72" cy="-420" rx="28.44" ry="18"/>
<text text-anchor="middle" x="271.72" y="-417.2" font-family="sans" font-size="11.00">ip6_input</text>
</g>
<!-- kernel_input&#45;&gt;ip6_input -->
<g id="edge17" class="edge">
<title>kernel_input&#45;&gt;ip6_input</title>
<path fill="none" stroke="black" d="M169.69,-532.4C190.09,-509.71 226.78,-468.89 249.88,-443.18"/>
<polygon fill="black" stroke="black" points="252.5,-445.51 256.58,-435.73 247.3,-440.83 252.5,-445.51"/>
</g>
<!-- eth_output -->
<g id="node16" class="node">
<title>eth_output</title>
<ellipse fill="none" stroke="black" cx="1554.89" cy="-623" rx="33.8" ry="18"/>
<text text-anchor="middle" x="1554.89" y="-620.2" font-family="sans" font-size="11.00">eth_output</text>
</g>
<!-- arp_output_request&#45;&gt;eth_output -->
<g id="edge26" class="edge">
<title>arp_output_request&#45;&gt;eth_output</title>
<path fill="none" stroke="black" d="M596.79,-901.67C652.8,-902.25 739.81,-903 815.25,-903 815.25,-903 815.25,-903 1302.62,-903 1385.21,-903 1407.82,-871.47 1464.07,-811 1508.29,-763.47 1534.65,-690.19 1546.46,-650.62"/>
<polygon fill="black" stroke="black" points="1549.87,-651.44 1549.28,-640.86 1543.14,-649.5 1549.87,-651.44"/>
</g>
<!-- icmp_output -->
<g id="node27" class="node">
<title>icmp_output</title>
<ellipse fill="none" stroke="black" cx="1062.46" cy="-401" rx="37.98" ry="18"/>
<text text-anchor="middle" x="1062.46" y="-398.2" font-family="sans" font-size="11.00">icmp_output</text>
</g>
<!-- icmp_local_send&#45;&gt;icmp_output -->
<g id="edge31" class="edge">
<title>icmp_local_send&#45;&gt;icmp_output</title>
<path fill="none" stroke="black" d="M577.49,-557.28C637.83,-540.53 757.31,-506.66 857.5,-474 915.47,-455.1 981.82,-430.86 1022.69,-415.62"/>
<polygon fill="black" stroke="black" points="1024.12,-418.83 1032.26,-412.05 1021.66,-412.27 1024.12,-418.83"/>
</g>
<!-- icmp6_output -->
<g id="node34" class="node">
<title>icmp6_output</title>
<ellipse fill="none" stroke="black" cx="1301.62" cy="-688" rx="41.58" ry="18"/>
<text text-anchor="middle" x="1301.62" y="-685.2" font-family="sans" font-size="11.00">icmp6_output</text>
</g>
<!-- icmp6_local_send&#45;&gt;icmp6_output -->
<g id="edge52" class="edge">
<title>icmp6_local_send&#45;&gt;icmp6_output</title>
<path fill="none" stroke="black" d="M738.34,-671.63C788.27,-674.84 866.16,-679 933.74,-679 933.74,-679 933.74,-679 1063.46,-679 1127.76,-679 1201.79,-682.34 1249.8,-684.96"/>
<polygon fill="black" stroke="black" points="1249.75,-688.46 1259.93,-685.52 1250.14,-681.47 1249.75,-688.46"/>
</g>
<!-- ndp_ns_output&#45;&gt;icmp6_output -->
<g id="edge67" class="edge">
<title>ndp_ns_output&#45;&gt;icmp6_output</title>
<path fill="none" stroke="black" d="M316.11,-749.12C368.37,-751.49 458.82,-755 536.47,-755 536.47,-755 536.47,-755 1063.46,-755 1136.56,-755 1217.72,-725.16 1263.62,-705.31"/>
<polygon fill="black" stroke="black" points="1265.12,-708.47 1272.86,-701.24 1262.3,-702.06 1265.12,-708.47"/>
</g>
<!-- ip_output&#45;&gt;eth_output -->
<g id="edge42" class="edge">
<title>ip_output&#45;&gt;eth_output</title>
<path fill="none" stroke="black" d="M1211.23,-475.78C1241.88,-488.39 1296.72,-511.07 1343.41,-531 1405.51,-557.51 1477.53,-589.19 1519.19,-607.61"/>
<polygon fill="black" stroke="black" points="1517.79,-610.82 1528.35,-611.67 1520.63,-604.42 1517.79,-610.82"/>
</g>
<!-- ip_hold -->
<g id="node28" class="node">
<title>ip_hold</title>
<ellipse fill="none" stroke="black" cx="1301.62" cy="-412" rx="27" ry="18"/>
<text text-anchor="middle" x="1301.62" y="-409.2" font-family="sans" font-size="11.00">ip_hold</text>
</g>
<!-- ip_output&#45;&gt;ip_hold -->
<g id="edge43" class="edge">
<title>ip_output&#45;&gt;ip_hold</title>
<path fill="none" stroke="black" d="M1210.03,-455.2C1227.25,-446.99 1251.14,-435.6 1270.06,-426.57"/>
<polygon fill="black" stroke="black" points="1271.65,-429.69 1279.17,-422.23 1268.63,-423.38 1271.65,-429.69"/>
</g>
<!-- ipip_output -->
<g id="node31" class="node">
<title>ipip_output</title>
<ellipse fill="none" stroke="black" cx="1301.62" cy="-466" rx="34.38" ry="18"/>
<text text-anchor="middle" x="1301.62" y="-463.2" font-family="sans" font-size="11.00">ipip_output</text>
</g>
<!-- ip_output&#45;&gt;ipip_output -->
<g id="edge44" class="edge">
<title>ip_output&#45;&gt;ipip_output</title>
<path fill="none" stroke="black" d="M1214.22,-460.16C1227.61,-459.26 1244.11,-459.03 1259.09,-459.47"/>
<polygon fill="black" stroke="black" points="1259.02,-462.97 1269.16,-459.88 1259.31,-455.97 1259.02,-462.97"/>
</g>
<!-- sr6_output -->
<g id="node32" class="node">
<title>sr6_output</title>
<ellipse fill="none" stroke="black" cx="1301.62" cy="-558" rx="33.21" ry="18"/>
<text text-anchor="middle" x="1301.62" y="-555.2" font-family="sans" font-size="11.00">sr6_output</text>
</g>
<!-- ip_output&#45;&gt;sr6_output -->
<g id="edge45" class="edge">
<title>ip_output&#45;&gt;sr6_output</title>
<path fill="none" stroke="black" d="M1204.55,-480.43C1219.16,-492.67 1240.76,-510.63 1259.83,-526 1264.3,-529.6 1269.07,-533.39 1273.72,-537.06"/>
<polygon fill="black" stroke="black" points="1271.83,-540.03 1281.86,-543.45 1276.15,-534.52 1271.83,-540.03"/>
</g>
<!-- arp_output_reply&#45;&gt;eth_output -->
<g id="edge25" class="edge">
<title>arp_output_reply&#45;&gt;eth_output</title>
<path fill="none" stroke="black" d="M737.41,-855.7C787.32,-854.53 865.79,-853 933.74,-853 933.74,-853 933.74,-853 1302.62,-853 1421.91,-853 1509.21,-710.21 1540.87,-649.65"/>
<polygon fill="black" stroke="black" points="1544.03,-651.16 1545.47,-640.67 1537.8,-647.97 1544.03,-651.16"/>
</g>
<!-- ip6_output&#45;&gt;eth_output -->
<g id="edge61" class="edge">
<title>ip6_output&#45;&gt;eth_output</title>
<path fill="none" stroke="black" d="M1454.49,-623C1471.42,-623 1492.5,-623 1510.89,-623"/>
<polygon fill="black" stroke="black" points="1511.06,-626.5 1521.06,-623 1511.06,-619.5 1511.06,-626.5"/>
</g>
<!-- ip6_output&#45;&gt;sr6_output -->
<g id="edge63" class="edge">
<title>ip6_output&#45;&gt;sr6_output</title>
<path fill="none" stroke="black" d="M1393.4,-613.75C1374.05,-604.39 1348.25,-590.18 1329.11,-578.31"/>
<polygon fill="black" stroke="black" points="1330.88,-575.29 1320.56,-572.88 1327.12,-581.2 1330.88,-575.29"/>
</g>
<!-- ip6_hold -->
<g id="node39" class="node">
<title>ip6_hold</title>
<ellipse fill="none" stroke="black" cx="1554.89" cy="-502" rx="27" ry="18"/>
<text text-anchor="middle" x="1554.89" y="-499.2" font-family="sans" font-size="11.00">ip6_hold</text>
</g>
<!-- ip6_output&#45;&gt;ip6_hold -->
<g id="edge62" class="edge">
<title>ip6_output&#45;&gt;ip6_hold</title>
<path fill="none" stroke="black" d="M1439.35,-607.68C1462.46,-586.35 1504.43,-547.63 1530.64,-523.45"/>
<polygon fill="black" stroke="black" points="1533.25,-525.8 1538.23,-516.45 1528.51,-520.66 1533.25,-525.8"/>
</g>
<!-- ndp_na_output&#45;&gt;icmp6_output -->
<g id="edge65" class="edge">
<title>ndp_na_output&#45;&gt;icmp6_output</title>
<path fill="none" stroke="black" d="M442.44,-711C498.71,-713.37 598.97,-717 684.82,-717 684.82,-717 684.82,-717 1063.46,-717 1129.74,-717 1205.67,-705.7 1253.38,-697.21"/>
<polygon fill="black" stroke="black" points="1254.2,-700.62 1263.41,-695.39 1252.95,-693.73 1254.2,-700.62"/>
</g>
<!-- control_output -->
<g id="node11" class="node">
<title>control_output</title>
<ellipse fill="none" stroke="black" cx="1690.21" cy="-229" rx="44.51" ry="18"/>
<text text-anchor="middle" x="1690.21" y="-226.2" font-family="sans" font-size="11.00">control_output</text>
</g>
<!-- eth_input -->
<g id="node12" class="node">
<title>eth_input</title>
<ellipse fill="none" stroke="black" cx="153.77" cy="-176" rx="29.12" ry="18"/>
<text text-anchor="middle" x="153.77" y="-173.2" font-family="sans" font-size="11.00">eth_input</text>
</g>
<!-- arp_input -->
<g id="node13" class="node">
<title>arp_input</title>
<ellipse fill="none" stroke="black" cx="1421.74" cy="-44" rx="29.12" ry="18"/>
<text text-anchor="middle" x="1421.74" y="-41.2" font-family="sans" font-size="11.00">arp_input</text>
</g>
<!-- eth_input&#45;&gt;arp_input -->
<g id="edge11" class="edge">
<title>eth_input&#45;&gt;arp_input</title>
<path fill="none" stroke="black" d="M181.78,-170.06C226.26,-160.8 317.82,-144 396.27,-144 396.27,-144 396.27,-144 686.82,-144 856.72,-144 891.56,-68 1061.46,-68 1061.46,-68 1061.46,-68 1187.38,-68 1256.72,-68 1337.03,-57.39 1383.06,-50.28"/>
<polygon fill="black" stroke="black" points="1383.84,-53.7 1393.18,-48.68 1382.75,-46.78 1383.84,-53.7"/>
</g>
<!-- eth_input&#45;&gt;ip_input -->
<g id="edge12" class="edge">
<title>eth_input&#45;&gt;ip_input</title>
<path fill="none" stroke="black" d="M174.75,-188.77C238.16,-229.3 434.92,-355.08 508.41,-402.06"/>
<polygon fill="black" stroke="black" points="506.83,-405.21 517.14,-407.64 510.6,-399.31 506.83,-405.21"/>
</g>
<!-- eth_input&#45;&gt;ip6_input -->
<g id="edge13" class="edge">
<title>eth_input&#45;&gt;ip6_input</title>
<path fill="none" stroke="black" d="M162.92,-193.16C182.88,-235.16 234.3,-343.36 258.18,-393.62"/>
<polygon fill="black" stroke="black" points="255.12,-395.33 262.58,-402.86 261.45,-392.33 255.12,-395.33"/>
</g>
<!-- arp_input_request -->
<g id="node21" class="node">
<title>arp_input_request</title>
<ellipse fill="none" stroke="black" cx="1554.89" cy="-72" rx="54.63" ry="18"/>
<text text-anchor="middle" x="1554.89" y="-69.2" font-family="sans" font-size="11.00">arp_input_request</text>
</g>
<!-- arp_input&#45;&gt;arp_input_request -->
<g id="edge21" class="edge">
<title>arp_input&#45;&gt;arp_input_request</title>
<path fill="none" stroke="black" d="M1449.6,-49.73C1463.76,-52.76 1481.66,-56.58 1498.63,-60.2"/>
<polygon fill="black" stroke="black" points="1497.96,-63.64 1508.47,-62.3 1499.42,-56.79 1497.96,-63.64"/>
</g>
<!-- arp_input_reply -->
<g id="node22" class="node">
<title>arp_input_reply</title>
<ellipse fill="none" stroke="black" cx="1554.89" cy="-18" rx="47.43" ry="18"/>
<text text-anchor="middle" x="1554.89" y="-15.2" font-family="sans" font-size="11.00">arp_input_reply</text>
</g>
<!-- arp_input&#45;&gt;arp_input_reply -->
<g id="edge22" class="edge">
<title>arp_input&#45;&gt;arp_input_reply</title>
<path fill="none" stroke="black" d="M1449.92,-38.61C1465.17,-35.59 1484.71,-31.71 1502.72,-28.14"/>
<polygon fill="black" stroke="black" points="1503.41,-31.58 1512.53,-26.2 1502.05,-24.71 1503.41,-31.58"/>
</g>
<!-- ip_input&#45;&gt;ip_output -->
<g id="edge36" class="edge">
<title>ip_input&#45;&gt;ip_output</title>
<path fill="none" stroke="black" d="M558.28,-431.55C576.83,-441.74 605.66,-456.03 632.63,-463 820.77,-511.59 1057.09,-485.19 1147.68,-472.03"/>
<polygon fill="black" stroke="black" points="1148.36,-475.47 1157.74,-470.54 1147.34,-468.54 1148.36,-475.47"/>
</g>
<!-- dnat44 -->
<g id="node23" class="node">
<title>dnat44</title>
<ellipse fill="none" stroke="black" cx="685.82" cy="-420" rx="27" ry="18"/>
<text text-anchor="middle" x="685.82" y="-417.2" font-family="sans" font-size="11.00">dnat44</text>
</g>
<!-- ip_input&#45;&gt;dnat44 -->
<g id="edge38" class="edge">
<title>ip_input&#45;&gt;dnat44</title>
<path fill="none" stroke="black" d="M564.64,-420C587.9,-420 622.17,-420 648.16,-420"/>
<polygon fill="black" stroke="black" points="648.39,-423.5 658.39,-420 648.39,-416.5 648.39,-423.5"/>
</g>
<!-- ip_forward -->
<g id="node24" class="node">
<title>ip_forward</title>
<ellipse fill="none" stroke="black" cx="816.25" cy="-447" rx="32.63" ry="18"/>
<text text-anchor="middle" x="816.25" y="-444.2" font-family="sans" font-size="11.00">ip_forward</text>
</g>
<!-- ip_input&#45;&gt;ip_forward -->
<g id="edge35" class="edge">
<title>ip_input&#45;&gt;ip_forward</title>
<path fill="none" stroke="black" d="M561.3,-428.49C580.13,-435.02 607.71,-443.5 632.63,-447 680.49,-453.73 736.11,-452.44 773.28,-450.3"/>
<polygon fill="black" stroke="black" points="773.96,-453.77 783.72,-449.65 773.52,-446.78 773.96,-453.77"/>
</g>
<!-- ip_input_local -->
<g id="node25" class="node">
<title>ip_input_local</title>
<ellipse fill="none" stroke="black" cx="816.25" cy="-336" rx="41.49" ry="18"/>
<text text-anchor="middle" x="816.25" y="-333.2" font-family="sans" font-size="11.00">ip_input_local</text>
</g>
<!-- ip_input&#45;&gt;ip_input_local -->
<g id="edge37" class="edge">
<title>ip_input&#45;&gt;ip_input_local</title>
<path fill="none" stroke="black" d="M554.97,-406.28C572.88,-392.17 602.94,-370.8 632.63,-360 675.48,-344.41 727.25,-338.74 764.71,-336.78"/>
<polygon fill="black" stroke="black" points="765.05,-340.27 774.88,-336.32 764.73,-333.27 765.05,-340.27"/>
</g>
<!-- ip6_input&#45;&gt;ip6_output -->
<g id="edge56" class="edge">
<title>ip6_input&#45;&gt;ip6_output</title>
<path fill="none" stroke="black" d="M296.42,-429.19C312.07,-434.97 333.13,-442.22 352.22,-447 745.88,-545.56 1235.33,-603.04 1379.18,-618.64"/>
<polygon fill="black" stroke="black" points="1379.01,-622.14 1389.33,-619.74 1379.76,-615.18 1379.01,-622.14"/>
</g>
<!-- ip6_forward -->
<g id="node38" class="node">
<title>ip6_forward</title>
<ellipse fill="none" stroke="black" cx="1062.46" cy="-632" rx="35.64" ry="18"/>
<text text-anchor="middle" x="1062.46" y="-629.2" font-family="sans" font-size="11.00">ip6_forward</text>
</g>
<!-- ip6_input&#45;&gt;ip6_forward -->
<g id="edge55" class="edge">
<title>ip6_input&#45;&gt;ip6_forward</title>
<path fill="none" stroke="black" d="M282.49,-437.01C295.95,-459.34 322,-498.77 352.22,-525 400.63,-567.01 416.81,-576.97 478.32,-595 672.28,-651.84 917.55,-642.62 1016.78,-635.73"/>
<polygon fill="black" stroke="black" points="1017.31,-639.2 1027.03,-634.99 1016.81,-632.22 1017.31,-639.2"/>
</g>
<!-- ip6_input_local -->
<g id="node40" class="node">
<title>ip6_input_local</title>
<ellipse fill="none" stroke="black" cx="537.47" cy="-328" rx="45.09" ry="18"/>
<text text-anchor="middle" x="537.47" y="-325.2" font-family="sans" font-size="11.00">ip6_input_local</text>
</g>
<!-- ip6_input&#45;&gt;ip6_input_local -->
<g id="edge57" class="edge">
<title>ip6_input&#45;&gt;ip6_input_local</title>
<path fill="none" stroke="black" d="M297.06,-411.51C341.69,-395.94 437.18,-362.64 493.13,-343.12"/>
<polygon fill="black" stroke="black" points="494.48,-346.36 502.77,-339.76 492.17,-339.75 494.48,-346.36"/>
</g>
<!-- sr6_local -->
<g id="node41" class="node">
<title>sr6_local</title>
<ellipse fill="none" stroke="black" cx="397.27" cy="-420" rx="27.86" ry="18"/>
<text text-anchor="middle" x="397.27" y="-417.2" font-family="sans" font-size="11.00">sr6_local</text>
</g>
<!-- ip6_input&#45;&gt;sr6_local -->
<g id="edge58" class="edge">
<title>ip6_input&#45;&gt;sr6_local</title>
<path fill="none" stroke="black" d="M298.62,-414.39C316.61,-413.09 340.82,-412.9 360.63,-413.82"/>
<polygon fill="black" stroke="black" points="360.64,-417.32 370.83,-414.42 361.05,-410.34 360.64,-417.32"/>
</g>
<!-- port_tx -->
<g id="node17" class="node">
<title>port_tx</title>
<ellipse fill="none" stroke="black" cx="1690.21" cy="-504" rx="27" ry="18"/>
<text text-anchor="middle" x="1690.21" y="-501.2" font-family="sans" font-size="11.00">port_tx</text>
</g>
<!-- eth_output&#45;&gt;port_tx -->
<g id="edge14" class="edge">
<title>eth_output&#45;&gt;port_tx</title>
<path fill="none" stroke="black" d="M1573.04,-607.69C1596.63,-586.64 1639.14,-548.69 1665.68,-525"/>
<polygon fill="black" stroke="black" points="1668.23,-527.41 1673.36,-518.14 1663.57,-522.19 1668.23,-527.41"/>
</g>
<!-- l1_xconnect -->
<g id="node18" class="node">
<title>l1_xconnect</title>
<ellipse fill="none" stroke="black" cx="271.72" cy="-98" rx="36.23" ry="18"/>
<text text-anchor="middle" x="271.72" y="-95.2" font-family="sans" font-size="11.00">l1_xconnect</text>
</g>
<!-- l1_xconnect&#45;&gt;port_tx -->
<g id="edge15" class="edge">
<title>l1_xconnect&#45;&gt;port_tx</title>
<path fill="none" stroke="black" d="M308.12,-99.76C358.73,-102.11 454.7,-106 536.47,-106 536.47,-106 536.47,-106 935.74,-106 1014.95,-106 1053.28,-72.9 1112.94,-125 1163.27,-168.96 1105.74,-220 1148.94,-271 1184.62,-313.14 1545.45,-450.31 1656.72,-491.92"/>
<polygon fill="black" stroke="black" points="1655.5,-495.21 1666.09,-495.43 1657.95,-488.65 1655.5,-495.21"/>
</g>
<!-- kernel_output -->
<g id="node19" class="node">
<title>kernel_output</title>
<ellipse fill="none" stroke="black" cx="1421.74" cy="-98" rx="42.17" ry="18"/>
<text text-anchor="middle" x="1421.74" y="-95.2" font-family="sans" font-size="11.00">kernel_output</text>
</g>
<!-- kernel_output&#45;&gt;control_output -->
<g id="edge18" class="edge">
<title>kernel_output&#45;&gt;control_output</title>
<path fill="none" stroke="black" d="M1464.11,-99.09C1503.92,-101.8 1564.55,-110.43 1609.7,-137 1636.93,-153.02 1659.49,-181.74 1673.53,-202.84"/>
<polygon fill="black" stroke="black" points="1670.66,-204.85 1679.02,-211.36 1676.55,-201.06 1670.66,-204.85"/>
</g>
<!-- port_rx -->
<g id="node20" class="node">
<title>port_rx</title>
<ellipse fill="none" stroke="blue" stroke-width="2" cx="40.16" cy="-143" rx="27" ry="18"/>
<text text-anchor="middle" x="40.16" y="-140.2" font-family="sans" font-size="11.00">port_rx</text>
</g>
<!-- port_rx&#45;&gt;eth_input -->
<g id="edge19" class="edge">
<title>port_rx&#45;&gt;eth_input</title>
<path fill="none" stroke="blue" stroke-width="2" d="M65.1,-150.08C80.31,-154.58 100.26,-160.48 117.29,-165.51"/>
<polygon fill="blue" stroke="blue" stroke-width="2" points="116.34,-168.88 126.92,-168.36 118.32,-162.17 116.34,-168.88"/>
</g>
<!-- port_rx&#45;&gt;l1_xconnect -->
<g id="edge20" class="edge">
<title>port_rx&#45;&gt;l1_xconnect</title>
<path fill="none" stroke="blue" stroke-width="2" d="M66.17,-138.1C104.92,-130.5 179.99,-115.79 227.61,-106.45"/>
<polygon fill="blue" stroke="blue" stroke-width="2" points="228.49,-109.85 237.63,-104.49 227.14,-102.98 228.49,-109.85"/>
</g>
<!-- arp_input_request&#45;&gt;control_output -->
<g id="edge24" class="edge">
<title>arp_input_request&#45;&gt;control_output</title>
<path fill="none" stroke="black" d="M1586.41,-86.81C1594.53,-91.61 1602.92,-97.41 1609.7,-104 1639.29,-132.71 1663,-174.48 1676.59,-201.7"/>
<polygon fill="black" stroke="black" points="1673.6,-203.56 1681.13,-211.02 1679.89,-200.49 1673.6,-203.56"/>
</g>
<!-- arp_input_reply&#45;&gt;control_output -->
<g id="edge23" class="edge">
<title>arp_input_reply&#45;&gt;control_output</title>
<path fill="none" stroke="black" d="M1589.64,-30.41C1596.92,-34.25 1604.11,-39.07 1609.7,-45 1652.38,-90.19 1674.21,-161.9 1683.5,-201.12"/>
<polygon fill="black" stroke="black" points="1680.13,-202.06 1685.75,-211.04 1686.96,-200.51 1680.13,-202.06"/>
</g>
<!-- dnat44&#45;&gt;ip_forward -->
<g id="edge27" class="edge">
<title>dnat44&#45;&gt;ip_forward</title>
<path fill="none" stroke="black" d="M711.88,-425.27C729.95,-429.07 754.7,-434.27 775.46,-438.64"/>
<polygon fill="black" stroke="black" points="774.77,-442.07 785.28,-440.7 776.21,-435.22 774.77,-442.07"/>
</g>
<!-- dnat44&#45;&gt;ip_input_local -->
<g id="edge28" class="edge">
<title>dnat44&#45;&gt;ip_input_local</title>
<path fill="none" stroke="black" d="M705.77,-407.61C726.27,-394.19 759.31,-372.58 783.74,-356.61"/>
<polygon fill="black" stroke="black" points="785.86,-359.41 792.31,-351 782.03,-353.55 785.86,-359.41"/>
</g>
<!-- ip_forward&#45;&gt;ip_output -->
<g id="edge33" class="edge">
<title>ip_forward&#45;&gt;ip_output</title>
<path fill="none" stroke="black" d="M848.95,-448.64C916.28,-452.11 1073.32,-460.22 1146.53,-463.99"/>
<polygon fill="black" stroke="black" points="1146.53,-467.5 1156.7,-464.52 1146.89,-460.51 1146.53,-467.5"/>
</g>
<!-- icmp_input -->
<g id="node26" class="node">
<title>icmp_input</title>
<ellipse fill="none" stroke="black" cx="934.74" cy="-336" rx="33.8" ry="18"/>
<text text-anchor="middle" x="934.74" y="-333.2" font-family="sans" font-size="11.00">icmp_input</text>
</g>
<!-- ip_input_local&#45;&gt;icmp_input -->
<g id="edge39" class="edge">
<title>ip_input_local&#45;&gt;icmp_input</title>
<path fill="none" stroke="black" d="M857.67,-336C868.32,-336 879.86,-336 890.65,-336"/>
<polygon fill="black" stroke="black" points="890.72,-339.5 900.72,-336 890.72,-332.5 890.72,-339.5"/>
</g>
<!-- ipip_input -->
<g id="node29" class="node">
<title>ipip_input</title>
<ellipse fill="none" stroke="black" cx="934.74" cy="-390" rx="29.7" ry="18"/>
<text text-anchor="middle" x="934.74" y="-387.2" font-family="sans" font-size="11.00">ipip_input</text>
</g>
<!-- ip_input_local&#45;&gt;ipip_input -->
<g id="edge40" class="edge">
<title>ip_input_local&#45;&gt;ipip_input</title>
<path fill="none" stroke="black" d="M845.15,-348.93C861.96,-356.73 883.45,-366.69 901.06,-374.85"/>
<polygon fill="black" stroke="black" points="899.84,-378.14 910.38,-379.17 902.78,-371.79 899.84,-378.14"/>
</g>
<!-- l4_input_local -->
<g id="node30" class="node">
<title>l4_input_local</title>
<ellipse fill="none" stroke="black" cx="934.74" cy="-244" rx="41.49" ry="18"/>
<text text-anchor="middle" x="934.74" y="-241.2" font-family="sans" font-size="11.00">l4_input_local</text>
</g>
<!-- ip_input_local&#45;&gt;l4_input_local -->
<g id="edge41" class="edge">
<title>ip_input_local&#45;&gt;l4_input_local</title>
<path fill="none" stroke="black" d="M837.01,-320.39C855.92,-305.46 884.63,-282.79 905.86,-266.02"/>
<polygon fill="black" stroke="black" points="908.21,-268.63 913.88,-259.68 903.87,-263.13 908.21,-268.63"/>
</g>
<!-- icmp_input&#45;&gt;control_output -->
<g id="edge30" class="edge">
<title>icmp_input&#45;&gt;control_output</title>
<path fill="none" stroke="black" d="M968.44,-334.28C1016.13,-331.93 1107.55,-328 1185.38,-328 1185.38,-328 1185.38,-328 1422.74,-328 1511.99,-328 1608.12,-278.6 1656.87,-249.59"/>
<polygon fill="black" stroke="black" points="1658.95,-252.42 1665.69,-244.25 1655.32,-246.43 1658.95,-252.42"/>
</g>
<!-- icmp_input&#45;&gt;icmp_output -->
<g id="edge29" class="edge">
<title>icmp_input&#45;&gt;icmp_output</title>
<path fill="none" stroke="black" d="M959.69,-348.38C978.68,-358.2 1005.48,-372.05 1026.81,-383.08"/>
<polygon fill="black" stroke="black" points="1025.39,-386.29 1035.88,-387.77 1028.6,-380.07 1025.39,-386.29"/>
</g>
<!-- icmp_output&#45;&gt;ip_output -->
<g id="edge32" class="edge">
<title>icmp_output&#45;&gt;ip_output</title>
<path fill="none" stroke="black" d="M1088.43,-414.31C1107.64,-424.55 1134.28,-438.76 1154.78,-449.68"/>
<polygon fill="black" stroke="black" points="1153.24,-452.83 1163.71,-454.45 1156.54,-446.65 1153.24,-452.83"/>
</g>
<!-- ip_hold&#45;&gt;control_output -->
<g id="edge34" class="edge">
<title>ip_hold&#45;&gt;control_output</title>
<path fill="none" stroke="black" d="M1328.92,-412.14C1385.26,-411.21 1519.79,-402.32 1609.7,-342 1641.32,-320.79 1664.29,-282.44 1677.19,-256.36"/>
<polygon fill="black" stroke="black" points="1680.49,-257.56 1681.63,-247.03 1674.17,-254.55 1680.49,-257.56"/>
</g>
<!-- ipip_input&#45;&gt;ip_input -->
<g id="edge69" class="edge">
<title>ipip_input&#45;&gt;ip_input</title>
<path fill="none" stroke="black" d="M904.9,-387.73C851.05,-384.05 731.7,-378.57 632.63,-393 611.85,-396.03 589.22,-402.41 571.35,-408.21"/>
<polygon fill="black" stroke="black" points="570.07,-404.95 561.69,-411.44 572.29,-411.59 570.07,-404.95"/>
</g>
<!-- l4_kernel_output -->
<g id="node42" class="node">
<title>l4_kernel_output</title>
<ellipse fill="none" stroke="black" cx="1062.46" cy="-152" rx="50.45" ry="18"/>
<text text-anchor="middle" x="1062.46" y="-149.2" font-family="sans" font-size="11.00">l4_kernel_output</text>
</g>
<!-- l4_input_local&#45;&gt;l4_kernel_output -->
<g id="edge71" class="edge">
<title>l4_input_local&#45;&gt;l4_kernel_output</title>
<path fill="none" stroke="black" d="M956.78,-228.6C977.2,-213.66 1008.4,-190.83 1031.43,-173.98"/>
<polygon fill="black" stroke="black" points="1033.5,-176.8 1039.5,-168.07 1029.37,-171.15 1033.5,-176.8"/>
</g>
<!-- ipip_output&#45;&gt;ip_output -->
<g id="edge70" class="edge">
<title>ipip_output&#45;&gt;ip_output</title>
<path fill="none" stroke="black" d="M1269.16,-472.12C1255.26,-472.86 1238.83,-472.95 1224.35,-472.37"/>
<polygon fill="black" stroke="black" points="1224.39,-468.87 1214.22,-471.84 1224.02,-475.86 1224.39,-468.87"/>
</g>
<!-- sr6_output&#45;&gt;ip6_output -->
<g id="edge76" class="edge">
<title>sr6_output&#45;&gt;ip6_output</title>
<path fill="none" stroke="black" d="M1330.02,-567.27C1349.43,-576.67 1375.33,-590.94 1394.48,-602.83"/>
<polygon fill="black" stroke="black" points="1392.71,-605.85 1403.03,-608.27 1396.47,-599.94 1392.71,-605.85"/>
</g>
<!-- icmp6_input -->
<g id="node33" class="node">
<title>icmp6_input</title>
<ellipse fill="none" stroke="black" cx="1186.38" cy="-244" rx="37.4" ry="18"/>
<text text-anchor="middle" x="1186.38" y="-241.2" font-family="sans" font-size="11.00">icmp6_input</text>
</g>
<!-- icmp6_input&#45;&gt;control_output -->
<g id="edge50" class="edge">
<title>icmp6_input&#45;&gt;control_output</title>
<path fill="none" stroke="black" d="M1221.19,-251.13C1233.34,-253.54 1247.16,-256.09 1259.83,-258 1413.63,-281.18 1457.29,-281.01 1609.7,-250 1620.74,-247.76 1632.51,-244.9 1643.53,-242.03"/>
<polygon fill="black" stroke="black" points="1644.64,-245.35 1653.4,-239.4 1642.83,-238.59 1644.64,-245.35"/>
</g>
<!-- icmp6_input&#45;&gt;icmp6_output -->
<g id="edge46" class="edge">
<title>icmp6_input&#45;&gt;icmp6_output</title>
<path fill="none" stroke="black" d="M1190.83,-262.22C1202.53,-323.61 1240.98,-522.57 1259.83,-585 1267.76,-611.27 1279.52,-640.24 1288.38,-660.75"/>
<polygon fill="black" stroke="black" points="1285.25,-662.33 1292.46,-670.09 1291.66,-659.53 1285.25,-662.33"/>
</g>
<!-- ndp_ns_input -->
<g id="node35" class="node">
<title>ndp_ns_input</title>
<ellipse fill="none" stroke="black" cx="1421.74" cy="-244" rx="40.32" ry="18"/>
<text text-anchor="middle" x="1421.74" y="-241.2" font-family="sans" font-size="11.00">ndp_ns_input</text>
</g>
<!-- icmp6_input&#45;&gt;ndp_ns_input -->
<g id="edge47" class="edge">
<title>icmp6_input&#45;&gt;ndp_ns_input</title>
<path fill="none" stroke="black" d="M1223.85,-244C1263.48,-244 1327.06,-244 1371.2,-244"/>
<polygon fill="black" stroke="black" points="1371.42,-247.5 1381.42,-244 1371.42,-240.5 1371.42,-247.5"/>
</g>
<!-- ndp_na_input -->
<g id="node36" class="node">
<title>ndp_na_input</title>
<ellipse fill="none" stroke="black" cx="1421.74" cy="-190" rx="40.91" ry="18"/>
<text text-anchor="middle" x="1421.74" y="-187.2" font-family="sans" font-size="11.00">ndp_na_input</text>
</g>
<!-- icmp6_input&#45;&gt;ndp_na_input -->
<g id="edge48" class="edge">
<title>icmp6_input&#45;&gt;ndp_na_input</title>
<path fill="none" stroke="black" d="M1220.32,-236.38C1260.85,-227 1329.88,-211.03 1375.39,-200.49"/>
<polygon fill="black" stroke="black" points="1376.34,-203.87 1385.3,-198.2 1374.76,-197.05 1376.34,-203.87"/>
</g>
<!-- ndp_rs_input -->
<g id="node37" class="node">
<title>ndp_rs_input</title>
<ellipse fill="none" stroke="black" cx="1554.89" cy="-164" rx="39.15" ry="18"/>
<text text-anchor="middle" x="1554.89" y="-161.2" font-family="sans" font-size="11.00">ndp_rs_input</text>
</g>
<!-- icmp6_input&#45;&gt;ndp_rs_input -->
<g id="edge49" class="edge">
<title>icmp6_input&#45;&gt;ndp_rs_input</title>
<path fill="none" stroke="black" d="M1210.74,-230.22C1224.71,-222.29 1242.97,-212.44 1259.83,-205 1311.36,-182.25 1323.88,-172.47 1379.41,-163 1416.5,-156.68 1426.45,-162.79 1464.07,-163 1477.36,-163.07 1491.76,-163.21 1505.05,-163.36"/>
<polygon fill="black" stroke="black" points="1505.39,-166.86 1515.43,-163.48 1505.47,-159.86 1505.39,-166.86"/>
</g>
<!-- icmp6_output&#45;&gt;ip6_output -->
<g id="edge51" class="edge">
<title>icmp6_output&#45;&gt;ip6_output</title>
<path fill="none" stroke="black" d="M1328.25,-673.9C1346.09,-664.08 1370.01,-650.92 1389.05,-640.44"/>
<polygon fill="black" stroke="black" points="1390.88,-643.43 1397.96,-635.54 1387.51,-637.29 1390.88,-643.43"/>
</g>
<!-- ndp_ns_input&#45;&gt;control_output -->
<g id="edge66" class="edge">
<title>ndp_ns_input&#45;&gt;control_output</title>
<path fill="none" stroke="black" d="M1461.77,-241.8C1507.75,-239.21 1584.38,-234.9 1635.83,-232"/>
<polygon fill="black" stroke="black" points="1636.3,-235.48 1646.09,-231.43 1635.91,-228.49 1636.3,-235.48"/>
</g>
<!-- ndp_na_input&#45;&gt;control_output -->
<g id="edge64" class="edge">
<title>ndp_na_input&#45;&gt;control_output</title>
<path fill="none" stroke="black" d="M1460.64,-195.55C1507.11,-202.35 1586.08,-213.91 1637.95,-221.5"/>
<polygon fill="black" stroke="black" points="1637.54,-224.97 1647.94,-222.96 1638.55,-218.05 1637.54,-224.97"/>
</g>
<!-- ndp_rs_input&#45;&gt;control_output -->
<g id="edge68" class="edge">
<title>ndp_rs_input&#45;&gt;control_output</title>
<path fill="none" stroke="black" d="M1582.55,-177C1602.36,-186.66 1629.66,-199.97 1651.67,-210.7"/>
<polygon fill="black" stroke="black" points="1650.23,-213.89 1660.75,-215.13 1653.3,-207.6 1650.23,-213.89"/>
</g>
<!-- ip6_forward&#45;&gt;ip6_output -->
<g id="edge53" class="edge">
<title>ip6_forward&#45;&gt;ip6_output</title>
<path fill="none" stroke="black" d="M1098.37,-631.12C1164.42,-629.46 1307.44,-625.85 1378.67,-624.06"/>
<polygon fill="black" stroke="black" points="1379.14,-627.55 1389.05,-623.8 1378.97,-620.55 1379.14,-627.55"/>
</g>
<!-- ip6_hold&#45;&gt;control_output -->
<g id="edge54" class="edge">
<title>ip6_hold&#45;&gt;control_output</title>
<path fill="none" stroke="black" d="M1568.02,-486.06C1579.65,-470.33 1597.22,-445.32 1609.7,-422 1639.95,-365.49 1666.35,-294.94 1679.78,-256.72"/>
<polygon fill="black" stroke="black" points="1683.24,-257.43 1683.22,-246.84 1676.63,-255.13 1683.24,-257.43"/>
</g>
<!-- ip6_input_local&#45;&gt;l4_input_local -->
<g id="edge60" class="edge">
<title>ip6_input_local&#45;&gt;l4_input_local</title>
<path fill="none" stroke="black" d="M560.53,-312.48C578.92,-300.39 606.27,-284.31 632.63,-276 717.71,-249.19 822.29,-243.86 883.15,-243.32"/>
<polygon fill="black" stroke="black" points="883.27,-246.82 893.26,-243.27 883.24,-239.82 883.27,-246.82"/>
</g>
<!-- ip6_input_local&#45;&gt;icmp6_input -->
<g id="edge59" class="edge">
<title>ip6_input_local&#45;&gt;icmp6_input</title>
<path fill="none" stroke="black" d="M577.2,-319.28C630.51,-308.06 729.64,-290 815.25,-290 815.25,-290 815.25,-290 935.74,-290 1010.21,-290 1095.14,-269.96 1144.27,-256.33"/>
<polygon fill="black" stroke="black" points="1145.52,-259.62 1154.2,-253.53 1143.62,-252.88 1145.52,-259.62"/>
</g>
<!-- sr6_local&#45;&gt;ip_input -->
<g id="edge73" class="edge">
<title>sr6_local&#45;&gt;ip_input</title>
<path fill="none" stroke="black" d="M425.24,-420C446.5,-420 476.35,-420 499.78,-420"/>
<polygon fill="black" stroke="black" points="500.03,-423.5 510.03,-420 500.03,-416.5 500.03,-423.5"/>
</g>
<!-- sr6_local&#45;&gt;ip6_input -->
<g id="edge74" class="edge">
<title>sr6_local&#45;&gt;ip6_input</title>
<path fill="none" stroke="black" d="M370.83,-425.58C352.94,-426.89 328.75,-427.1 308.86,-426.2"/>
<polygon fill="black" stroke="black" points="308.81,-422.7 298.62,-425.61 308.4,-429.68 308.81,-422.7"/>
</g>
<!-- sr6_local&#45;&gt;ip6_input_local -->
<g id="edge75" class="edge">
<title>sr6_local&#45;&gt;ip6_input_local</title>
<path fill="none" stroke="black" d="M417.2,-407.4C439.74,-392.39 477.75,-367.09 504.8,-349.08"/>
<polygon fill="black" stroke="black" points="506.78,-351.97 513.17,-343.51 502.9,-346.14 506.78,-351.97"/>
</g>
<!-- l4_kernel_output&#45;&gt;kernel_output -->
<g id="edge72" class="edge">
<title>l4_kernel_output&#45;&gt;kernel_output</title>
<path fill="none" stroke="black" d="M1109.44,-145.05C1176.84,-134.86 1301.97,-115.95 1371.3,-105.47"/>
<polygon fill="black" stroke="black" points="1372.15,-108.88 1381.52,-103.93 1371.11,-101.96 1372.15,-108.88"/>
</g>
</g>
</svg>
