<?xml version="1.0" encoding="UTF-8" standalone="no"?>
<!DOCTYPE svg PUBLIC "-//W3C//DTD SVG 1.1//EN"
 "http://www.w3.org/Graphics/SVG/1.1/DTD/svg11.dtd">
<!-- Generated by graphviz version 13.1.2 (20250808.2320)
 -->
<!-- Pages: 1 -->
<svg width="2475pt" height="925pt"
 viewBox="0.00 0.00 2475.00 925.00" xmlns="http://www.w3.org/2000/svg" xmlns:xlink="http://www.w3.org/1999/xlink">
<g id="graph0" class="graph" transform="scale(1 1) rotate(0) translate(4 921)">
<polygon fill="white" stroke="none" points="-4,4 -4,-921 2470.76,-921 2470.76,4 -4,4"/>
<!-- bond_output -->
<g id="node1" class="node">
<title>bond_output</title>
<ellipse fill="none" stroke="black" cx="2226" cy="-791" rx="39.94" ry="18"/>
<text xml:space="preserve" text-anchor="middle" x="2226" y="-787.3" font-family="sans" font-size="11.00">bond_output</text>
</g>
<!-- port_output -->
<g id="node4" class="node">
<title>port_output</title>
<ellipse fill="none" stroke="black" cx="2339.35" cy="-745" rx="37.41" ry="18"/>
<text xml:space="preserve" text-anchor="middle" x="2339.35" y="-741.3" font-family="sans" font-size="11.00">port_output</text>
</g>
<!-- bond_output&#45;&gt;port_output -->
<g id="edge1" class="edge">
<title>bond_output&#45;&gt;port_output</title>
<path fill="none" stroke="black" d="M2256.26,-778.91C2269.5,-773.44 2285.35,-766.9 2299.57,-761.02"/>
<polygon fill="black" stroke="black" points="2300.75,-764.32 2308.66,-757.27 2298.08,-757.85 2300.75,-764.32"/>
</g>
<!-- iface_input -->
<g id="node2" class="node">
<title>iface_input</title>
<ellipse fill="none" stroke="black" cx="124.89" cy="-401" rx="34.89" ry="18"/>
<text xml:space="preserve" text-anchor="middle" x="124.89" y="-397.3" font-family="sans" font-size="11.00">iface_input</text>
</g>
<!-- xconnect -->
<g id="node7" class="node">
<title>xconnect</title>
<ellipse fill="none" stroke="black" cx="1003.59" cy="-718" rx="29.83" ry="18"/>
<text xml:space="preserve" text-anchor="middle" x="1003.59" y="-714.3" font-family="sans" font-size="11.00">xconnect</text>
</g>
<!-- iface_input&#45;&gt;xconnect -->
<g id="edge9" class="edge">
<title>iface_input&#45;&gt;xconnect</title>
<path fill="none" stroke="black" d="M130.9,-418.95C149.66,-481.78 221.89,-688 361.87,-688 361.87,-688 361.87,-688 756.69,-688 830.39,-688 915.61,-701.44 963.9,-710.33"/>
<polygon fill="black" stroke="black" points="963.11,-713.74 973.58,-712.15 964.4,-706.86 963.11,-713.74"/>
</g>
<!-- eth_input -->
<g id="node8" class="node">
<title>eth_input</title>
<ellipse fill="none" stroke="black" cx="243.85" cy="-256" rx="30.25" ry="18"/>
<text xml:space="preserve" text-anchor="middle" x="243.85" y="-252.3" font-family="sans" font-size="11.00">eth_input</text>
</g>
<!-- iface_input&#45;&gt;eth_input -->
<g id="edge8" class="edge">
<title>iface_input&#45;&gt;eth_input</title>
<path fill="none" stroke="black" d="M139.3,-384.37C159.77,-358.99 198.92,-310.46 222.78,-280.88"/>
<polygon fill="black" stroke="black" points="225.44,-283.16 228.99,-273.18 219.99,-278.76 225.44,-283.16"/>
</g>
<!-- iface_output -->
<g id="node3" class="node">
<title>iface_output</title>
<ellipse fill="none" stroke="black" cx="2110.54" cy="-791" rx="39.52" ry="18"/>
<text xml:space="preserve" text-anchor="middle" x="2110.54" y="-787.3" font-family="sans" font-size="11.00">iface_output</text>
</g>
<!-- iface_output&#45;&gt;bond_output -->
<g id="edge10" class="edge">
<title>iface_output&#45;&gt;bond_output</title>
<path fill="none" stroke="black" d="M2150.27,-791C2158.04,-791 2166.31,-791 2174.41,-791"/>
<polygon fill="black" stroke="black" points="2174.16,-794.5 2184.16,-791 2174.16,-787.5 2174.16,-794.5"/>
</g>
<!-- iface_output&#45;&gt;port_output -->
<g id="edge11" class="edge">
<title>iface_output&#45;&gt;port_output</title>
<path fill="none" stroke="black" d="M2140.46,-778.82C2154.08,-773.52 2170.68,-767.7 2186.06,-764 2220.63,-755.69 2260.55,-750.88 2290.84,-748.18"/>
<polygon fill="black" stroke="black" points="2290.76,-751.7 2300.43,-747.37 2290.18,-744.72 2290.76,-751.7"/>
</g>
<!-- port_tx -->
<g id="node6" class="node">
<title>port_tx</title>
<ellipse fill="none" stroke="black" cx="2439.76" cy="-745" rx="27" ry="18"/>
<text xml:space="preserve" text-anchor="middle" x="2439.76" y="-741.3" font-family="sans" font-size="11.00">port_tx</text>
</g>
<!-- port_output&#45;&gt;port_tx -->
<g id="edge17" class="edge">
<title>port_output&#45;&gt;port_tx</title>
<path fill="none" stroke="black" d="M2377,-745C2384.93,-745 2393.32,-745 2401.29,-745"/>
<polygon fill="black" stroke="black" points="2401.02,-748.5 2411.02,-745 2401.02,-741.5 2401.02,-748.5"/>
</g>
<!-- port_rx -->
<g id="node5" class="node">
<title>port_rx</title>
<ellipse fill="none" stroke="blue" stroke-width="2" cx="27" cy="-401" rx="27" ry="18"/>
<text xml:space="preserve" text-anchor="middle" x="27" y="-397.3" font-family="sans" font-size="11.00">port_rx</text>
</g>
<!-- port_rx&#45;&gt;iface_input -->
<g id="edge18" class="edge">
<title>port_rx&#45;&gt;iface_input</title>
<path fill="none" stroke="blue" stroke-width="2" d="M54.45,-401C61.84,-401 70.08,-401 78.24,-401"/>
<polygon fill="blue" stroke="blue" stroke-width="2" points="76.58,-404.5 86.58,-401 76.58,-397.5 76.58,-404.5"/>
</g>
<!-- xconnect&#45;&gt;port_output -->
<g id="edge20" class="edge">
<title>xconnect&#45;&gt;port_output</title>
<path fill="none" stroke="black" d="M1032.18,-723.93C1071.65,-731.87 1146.62,-745 1211.18,-745 1211.18,-745 1211.18,-745 1423.88,-745 1621.9,-745 1669.79,-707 1867.81,-707 1867.81,-707 1867.81,-707 2111.54,-707 2176.32,-707 2250.1,-722.26 2295.44,-733.44"/>
<polygon fill="black" stroke="black" points="2294.31,-736.77 2304.87,-735.82 2296.02,-729.98 2294.31,-736.77"/>
</g>
<!-- lacp_input -->
<g id="node11" class="node">
<title>lacp_input</title>
<polygon fill="none" stroke="dodgerblue" points="397.82,-36 327.92,-36 327.92,0 397.82,0 397.82,-36"/>
<text xml:space="preserve" text-anchor="middle" x="362.87" y="-14.3" font-family="sans" font-size="11.00">lacp_input</text>
</g>
<!-- eth_input&#45;&gt;lacp_input -->
<g id="edge3" class="edge">
<title>eth_input&#45;&gt;lacp_input</title>
<path fill="none" stroke="black" d="M249.3,-237.93C259.11,-200.46 285.19,-112.58 327.92,-50 329.15,-48.19 330.5,-46.41 331.93,-44.67"/>
<polygon fill="black" stroke="black" points="334.35,-47.21 338.54,-37.48 329.2,-42.48 334.35,-47.21"/>
</g>
<!-- snap_input -->
<g id="node13" class="node">
<title>snap_input</title>
<ellipse fill="none" stroke="black" cx="1212.18" cy="-79" rx="34.89" ry="18"/>
<text xml:space="preserve" text-anchor="middle" x="1212.18" y="-75.3" font-family="sans" font-size="11.00">snap_input</text>
</g>
<!-- eth_input&#45;&gt;snap_input -->
<g id="edge2" class="edge">
<title>eth_input&#45;&gt;snap_input</title>
<path fill="none" stroke="black" d="M253.42,-238.64C266.54,-213.52 293.72,-166.78 327.92,-137 387.24,-85.34 410.49,-64 489.15,-64 489.15,-64 489.15,-64 1004.59,-64 1060.52,-64 1124.73,-69.54 1166.53,-73.88"/>
<polygon fill="black" stroke="black" points="1166.14,-77.36 1176.46,-74.94 1166.88,-70.4 1166.14,-77.36"/>
</g>
<!-- arp_input -->
<g id="node14" class="node">
<title>arp_input</title>
<ellipse fill="none" stroke="black" cx="362.87" cy="-164" rx="30.25" ry="18"/>
<text xml:space="preserve" text-anchor="middle" x="362.87" y="-160.3" font-family="sans" font-size="11.00">arp_input</text>
</g>
<!-- eth_input&#45;&gt;arp_input -->
<g id="edge4" class="edge">
<title>eth_input&#45;&gt;arp_input</title>
<path fill="none" stroke="black" d="M263.13,-241.62C282.37,-226.5 312.85,-202.54 334.86,-185.24"/>
<polygon fill="black" stroke="black" points="336.83,-188.14 342.52,-179.21 332.5,-182.64 336.83,-188.14"/>
</g>
<!-- ip_input -->
<g id="node26" class="node">
<title>ip_input</title>
<ellipse fill="none" stroke="black" cx="362.87" cy="-367" rx="27" ry="18"/>
<text xml:space="preserve" text-anchor="middle" x="362.87" y="-363.3" font-family="sans" font-size="11.00">ip_input</text>
</g>
<!-- eth_input&#45;&gt;ip_input -->
<g id="edge5" class="edge">
<title>eth_input&#45;&gt;ip_input</title>
<path fill="none" stroke="black" d="M260.63,-270.97C280.54,-289.86 314.98,-322.52 338.09,-344.44"/>
<polygon fill="black" stroke="black" points="335.58,-346.88 345.24,-351.23 340.39,-341.8 335.58,-346.88"/>
</g>
<!-- ip6_input -->
<g id="node32" class="node">
<title>ip6_input</title>
<ellipse fill="none" stroke="black" cx="1212.18" cy="-558" rx="29.41" ry="18"/>
<text xml:space="preserve" text-anchor="middle" x="1212.18" y="-554.3" font-family="sans" font-size="11.00">ip6_input</text>
</g>
<!-- eth_input&#45;&gt;ip6_input -->
<g id="edge6" class="edge">
<title>eth_input&#45;&gt;ip6_input</title>
<path fill="none" stroke="black" d="M251.31,-273.62C262.67,-302.41 288.79,-359.73 327.92,-394 366.52,-427.81 383.58,-429.56 433.82,-440 535.83,-461.2 581.86,-498.24 668.24,-440 703.62,-416.15 670.13,-376.63 704.24,-351 770.32,-301.35 806.59,-332 889.24,-332 889.24,-332 889.24,-332 1004.59,-332 1110.47,-332 1176.65,-468.79 1200.81,-529.53"/>
<polygon fill="black" stroke="black" points="1197.55,-530.79 1204.42,-538.85 1204.08,-528.26 1197.55,-530.79"/>
</g>
<!-- eth_output -->
<g id="node9" class="node">
<title>eth_output</title>
<ellipse fill="none" stroke="black" cx="2000.14" cy="-791" rx="34.89" ry="18"/>
<text xml:space="preserve" text-anchor="middle" x="2000.14" y="-787.3" font-family="sans" font-size="11.00">eth_output</text>
</g>
<!-- eth_output&#45;&gt;iface_output -->
<g id="edge7" class="edge">
<title>eth_output&#45;&gt;iface_output</title>
<path fill="none" stroke="black" d="M2035.44,-791C2043.03,-791 2051.22,-791 2059.3,-791"/>
<polygon fill="black" stroke="black" points="2059.05,-794.5 2069.05,-791 2059.05,-787.5 2059.05,-794.5"/>
</g>
<!-- l2_redirect -->
<g id="node10" class="node">
<title>l2_redirect</title>
<polygon fill="none" stroke="dodgerblue" points="1747.86,-126 1675.71,-126 1675.71,-90 1747.86,-90 1747.86,-126"/>
<text xml:space="preserve" text-anchor="middle" x="1711.78" y="-104.3" font-family="sans" font-size="11.00">l2_redirect</text>
</g>
<!-- lacp_output -->
<g id="node12" class="node">
<title>lacp_output</title>
<polygon fill="none" stroke="dodgerblue" points="1907.88,-917 1829.73,-917 1829.73,-881 1907.88,-881 1907.88,-917"/>
<text xml:space="preserve" text-anchor="middle" x="1868.81" y="-895.3" font-family="sans" font-size="11.00">lacp_output</text>
</g>
<!-- lacp_output&#45;&gt;eth_output -->
<g id="edge12" class="edge">
<title>lacp_output&#45;&gt;eth_output</title>
<path fill="none" stroke="dodgerblue" d="M1908.29,-884.48C1915.58,-880.93 1922.9,-876.76 1929.26,-872 1949.7,-856.69 1968.35,-834.45 1981.23,-817.15"/>
<polygon fill="dodgerblue" stroke="dodgerblue" points="1983.85,-819.5 1986.88,-809.35 1978.18,-815.39 1983.85,-819.5"/>
</g>
<!-- snap_input&#45;&gt;l2_redirect -->
<g id="edge19" class="edge">
<title>snap_input&#45;&gt;l2_redirect</title>
<path fill="none" stroke="black" d="M1247,-80.97C1333.7,-86.02 1564.14,-99.45 1663.78,-105.26"/>
<polygon fill="black" stroke="black" points="1663.57,-108.75 1673.76,-105.84 1663.98,-101.77 1663.57,-108.75"/>
</g>
<!-- arp_input_reply -->
<g id="node15" class="node">
<title>arp_input_reply</title>
<polygon fill="none" stroke="dodgerblue" points="539.35,-128 440.95,-128 440.95,-92 539.35,-92 539.35,-128"/>
<text xml:space="preserve" text-anchor="middle" x="490.15" y="-106.3" font-family="sans" font-size="11.00">arp_input_reply</text>
</g>
<!-- arp_input&#45;&gt;arp_input_reply -->
<g id="edge22" class="edge">
<title>arp_input&#45;&gt;arp_input_reply</title>
<path fill="none" stroke="black" d="M388.02,-153.59C401.68,-147.7 419.33,-140.09 436.05,-132.89"/>
<polygon fill="black" stroke="black" points="437.11,-136.24 444.91,-129.07 434.34,-129.81 437.11,-136.24"/>
</g>
<!-- arp_input_request -->
<g id="node16" class="node">
<title>arp_input_request</title>
<polygon fill="none" stroke="dodgerblue" points="546.47,-182 433.82,-182 433.82,-146 546.47,-146 546.47,-182"/>
<text xml:space="preserve" text-anchor="middle" x="490.15" y="-160.3" font-family="sans" font-size="11.00">arp_input_request</text>
</g>
<!-- arp_input&#45;&gt;arp_input_request -->
<g id="edge21" class="edge">
<title>arp_input&#45;&gt;arp_input_request</title>
<path fill="none" stroke="black" d="M393.56,-164C402.29,-164 412.2,-164 422.27,-164"/>
<polygon fill="black" stroke="black" points="422.13,-167.5 432.13,-164 422.13,-160.5 422.13,-167.5"/>
</g>
<!-- arp_output_reply -->
<g id="node17" class="node">
<title>arp_output_reply</title>
<polygon fill="none" stroke="dodgerblue" points="1922.13,-863 1815.48,-863 1815.48,-827 1922.13,-827 1922.13,-863"/>
<text xml:space="preserve" text-anchor="middle" x="1868.81" y="-841.3" font-family="sans" font-size="11.00">arp_output_reply</text>
</g>
<!-- arp_output_reply&#45;&gt;eth_output -->
<g id="edge23" class="edge">
<title>arp_output_reply&#45;&gt;eth_output</title>
<path fill="none" stroke="dodgerblue" d="M1913.95,-826.57C1929.5,-820.08 1946.81,-812.85 1961.75,-806.61"/>
<polygon fill="dodgerblue" stroke="dodgerblue" points="1962.87,-809.94 1970.75,-802.86 1960.17,-803.48 1962.87,-809.94"/>
</g>
<!-- arp_output_request -->
<g id="node18" class="node">
<title>arp_output_request</title>
<polygon fill="none" stroke="dodgerblue" points="1929.26,-809 1808.36,-809 1808.36,-773 1929.26,-773 1929.26,-809"/>
<text xml:space="preserve" text-anchor="middle" x="1868.81" y="-787.3" font-family="sans" font-size="11.00">arp_output_request</text>
</g>
<!-- arp_output_request&#45;&gt;eth_output -->
<g id="edge24" class="edge">
<title>arp_output_request&#45;&gt;eth_output</title>
<path fill="none" stroke="dodgerblue" d="M1929.55,-791C1937.64,-791 1945.83,-791 1953.61,-791"/>
<polygon fill="dodgerblue" stroke="dodgerblue" points="1953.54,-794.5 1963.54,-791 1953.54,-787.5 1953.54,-794.5"/>
</g>
<!-- ospf_redirect -->
<g id="node19" class="node">
<title>ospf_redirect</title>
<ellipse fill="none" stroke="black" cx="1560.38" cy="-131" rx="41.62" ry="18"/>
<text xml:space="preserve" text-anchor="middle" x="1560.38" y="-127.3" font-family="sans" font-size="11.00">ospf_redirect</text>
</g>
<!-- ospf_redirect&#45;&gt;l2_redirect -->
<g id="edge74" class="edge">
<title>ospf_redirect&#45;&gt;l2_redirect</title>
<path fill="none" stroke="black" d="M1599.86,-125.08C1619.39,-122.07 1643.28,-118.39 1663.88,-115.22"/>
<polygon fill="black" stroke="black" points="1664.41,-118.68 1673.76,-113.7 1663.35,-111.76 1664.41,-118.68"/>
</g>
<!-- loopback_input -->
<g id="node20" class="node">
<title>loopback_input</title>
<polygon fill="none" stroke="dodgerblue" points="291.92,-538 195.77,-538 195.77,-502 291.92,-502 291.92,-538"/>
<text xml:space="preserve" text-anchor="middle" x="243.85" y="-516.3" font-family="sans" font-size="11.00">loopback_input</text>
</g>
<!-- loopback_input&#45;&gt;ip_input -->
<g id="edge13" class="edge">
<title>loopback_input&#45;&gt;ip_input</title>
<path fill="none" stroke="dodgerblue" d="M258.96,-501.54C280.01,-474.03 319.64,-422.21 343.1,-391.54"/>
<polygon fill="dodgerblue" stroke="dodgerblue" points="345.61,-394.02 348.91,-383.95 340.05,-389.76 345.61,-394.02"/>
</g>
<!-- loopback_input&#45;&gt;ip6_input -->
<g id="edge14" class="edge">
<title>loopback_input&#45;&gt;ip6_input</title>
<path fill="none" stroke="dodgerblue" d="M264.3,-538.32C303.53,-573.27 396.33,-646 489.15,-646 489.15,-646 489.15,-646 1004.59,-646 1066.13,-646 1086.11,-651.22 1141.3,-624 1160.88,-614.34 1178.7,-597.31 1191.45,-582.97"/>
<polygon fill="dodgerblue" stroke="dodgerblue" points="1193.88,-585.51 1197.72,-575.63 1188.56,-580.97 1193.88,-585.51"/>
</g>
<!-- loopback_output -->
<g id="node21" class="node">
<title>loopback_output</title>
<polygon fill="none" stroke="dodgerblue" points="1921.01,-241 1816.61,-241 1816.61,-205 1921.01,-205 1921.01,-241"/>
<text xml:space="preserve" text-anchor="middle" x="1868.81" y="-219.3" font-family="sans" font-size="11.00">loopback_output</text>
</g>
<!-- xvrf -->
<g id="node22" class="node">
<title>xvrf</title>
<ellipse fill="none" stroke="black" cx="1105.57" cy="-597" rx="27" ry="18"/>
<text xml:space="preserve" text-anchor="middle" x="1105.57" y="-593.3" font-family="sans" font-size="11.00">xvrf</text>
</g>
<!-- xvrf&#45;&gt;ip_input -->
<g id="edge15" class="edge">
<title>xvrf&#45;&gt;ip_input</title>
<path fill="none" stroke="black" d="M1078.32,-599.23C1038.09,-602.44 958.74,-608 891.24,-608 624.36,-608 624.36,-608 624.36,-608 499.72,-608 409.4,-457.51 377,-394.37"/>
<polygon fill="black" stroke="black" points="380.25,-393.05 372.64,-385.68 374,-396.19 380.25,-393.05"/>
</g>
<!-- xvrf&#45;&gt;ip6_input -->
<g id="edge16" class="edge">
<title>xvrf&#45;&gt;ip6_input</title>
<path fill="none" stroke="black" d="M1129.79,-588.34C1143.35,-583.29 1160.74,-576.81 1175.96,-571.13"/>
<polygon fill="black" stroke="black" points="1177.01,-574.48 1185.16,-567.7 1174.56,-567.92 1177.01,-574.48"/>
</g>
<!-- ip_forward -->
<g id="node23" class="node">
<title>ip_forward</title>
<ellipse fill="none" stroke="black" cx="625.36" cy="-413" rx="33.62" ry="18"/>
<text xml:space="preserve" text-anchor="middle" x="625.36" y="-409.3" font-family="sans" font-size="11.00">ip_forward</text>
</g>
<!-- ip_output -->
<g id="node29" class="node">
<title>ip_output</title>
<ellipse fill="none" stroke="black" cx="1003.59" cy="-486" rx="30.25" ry="18"/>
<text xml:space="preserve" text-anchor="middle" x="1003.59" y="-482.3" font-family="sans" font-size="11.00">ip_output</text>
</g>
<!-- ip_forward&#45;&gt;ip_output -->
<g id="edge28" class="edge">
<title>ip_forward&#45;&gt;ip_output</title>
<path fill="none" stroke="black" d="M647.31,-427C684.68,-450.94 766.15,-498.56 843.14,-513 884.29,-520.72 896.28,-521.16 937.34,-513 948.29,-510.82 959.71,-506.78 969.87,-502.47"/>
<polygon fill="black" stroke="black" points="971.26,-505.68 978.95,-498.39 968.39,-499.3 971.26,-505.68"/>
</g>
<!-- ip_fragment -->
<g id="node24" class="node">
<title>ip_fragment</title>
<ellipse fill="none" stroke="black" cx="890.24" cy="-486" rx="38.25" ry="18"/>
<text xml:space="preserve" text-anchor="middle" x="890.24" y="-482.3" font-family="sans" font-size="11.00">ip_fragment</text>
</g>
<!-- ip_fragment&#45;&gt;ip_output -->
<g id="edge29" class="edge">
<title>ip_fragment&#45;&gt;ip_output</title>
<path fill="none" stroke="black" d="M926.47,-479.67C938.13,-479.17 951.18,-479.12 963.14,-479.51"/>
<polygon fill="black" stroke="black" points="962.97,-483.01 973.12,-479.98 963.3,-476.02 962.97,-483.01"/>
</g>
<!-- ip_hold -->
<g id="node25" class="node">
<title>ip_hold</title>
<polygon fill="none" stroke="dodgerblue" points="1132.57,-558 1078.57,-558 1078.57,-522 1132.57,-522 1132.57,-558"/>
<text xml:space="preserve" text-anchor="middle" x="1105.57" y="-536.3" font-family="sans" font-size="11.00">ip_hold</text>
</g>
<!-- ip_input&#45;&gt;ip_forward -->
<g id="edge30" class="edge">
<title>ip_input&#45;&gt;ip_forward</title>
<path fill="none" stroke="black" d="M377.69,-382.25C390.69,-395.38 411.46,-413.37 433.82,-421 483.3,-437.88 544.24,-430.89 583.67,-423.06"/>
<polygon fill="black" stroke="black" points="584.14,-426.53 593.2,-421.05 582.7,-419.68 584.14,-426.53"/>
</g>
<!-- ip_input_local -->
<g id="node28" class="node">
<title>ip_input_local</title>
<ellipse fill="none" stroke="black" cx="625.36" cy="-248" rx="42.89" ry="18"/>
<text xml:space="preserve" text-anchor="middle" x="625.36" y="-244.3" font-family="sans" font-size="11.00">ip_input_local</text>
</g>
<!-- ip_input&#45;&gt;ip_input_local -->
<g id="edge33" class="edge">
<title>ip_input&#45;&gt;ip_input_local</title>
<path fill="none" stroke="black" d="M372.62,-349.78C383.87,-329.56 405.39,-296.66 433.82,-280 475.57,-255.54 530.77,-248.48 571.01,-246.99"/>
<polygon fill="black" stroke="black" points="571.04,-250.49 580.94,-246.73 570.86,-243.49 571.04,-250.49"/>
</g>
<!-- ip_input&#45;&gt;ip_output -->
<g id="edge32" class="edge">
<title>ip_input&#45;&gt;ip_output</title>
<path fill="none" stroke="black" d="M374.98,-383.36C387.34,-400.23 408.87,-425.99 433.82,-440 596.24,-531.19 657.97,-509.88 843.14,-530 884.76,-534.52 897.3,-542.24 937.34,-530 951.83,-525.57 966.02,-516.72 977.44,-508.1"/>
<polygon fill="black" stroke="black" points="979.5,-510.94 985.15,-501.97 975.15,-505.46 979.5,-510.94"/>
</g>
<!-- dnat44_dynamic -->
<g id="node38" class="node">
<title>dnat44_dynamic</title>
<ellipse fill="none" stroke="black" cx="490.15" cy="-394" rx="52.15" ry="18"/>
<text xml:space="preserve" text-anchor="middle" x="490.15" y="-390.3" font-family="sans" font-size="11.00">dnat44_dynamic</text>
</g>
<!-- ip_input&#45;&gt;dnat44_dynamic -->
<g id="edge31" class="edge">
<title>ip_input&#45;&gt;dnat44_dynamic</title>
<path fill="none" stroke="black" d="M388.92,-372.4C401.97,-375.21 418.48,-378.77 434.32,-382.18"/>
<polygon fill="black" stroke="black" points="433.13,-385.51 443.64,-384.19 434.6,-378.66 433.13,-385.51"/>
</g>
<!-- dnat44_static -->
<g id="node39" class="node">
<title>dnat44_static</title>
<ellipse fill="none" stroke="black" cx="490.15" cy="-340" rx="43.31" ry="18"/>
<text xml:space="preserve" text-anchor="middle" x="490.15" y="-336.3" font-family="sans" font-size="11.00">dnat44_static</text>
</g>
<!-- ip_input&#45;&gt;dnat44_static -->
<g id="edge34" class="edge">
<title>ip_input&#45;&gt;dnat44_static</title>
<path fill="none" stroke="black" d="M388.92,-361.6C403.56,-358.45 422.56,-354.35 440.06,-350.58"/>
<polygon fill="black" stroke="black" points="440.78,-354.01 449.82,-348.48 439.3,-347.16 440.78,-354.01"/>
</g>
<!-- ip_loadbalance -->
<g id="node27" class="node">
<title>ip_loadbalance</title>
<ellipse fill="none" stroke="black" cx="890.24" cy="-432" rx="47.1" ry="18"/>
<text xml:space="preserve" text-anchor="middle" x="890.24" y="-428.3" font-family="sans" font-size="11.00">ip_loadbalance</text>
</g>
<!-- ip_loadbalance&#45;&gt;ip_output -->
<g id="edge35" class="edge">
<title>ip_loadbalance&#45;&gt;ip_output</title>
<path fill="none" stroke="black" d="M927.7,-443.3C942.91,-450.07 960.3,-458.64 974.49,-466.42"/>
<polygon fill="black" stroke="black" points="972.44,-469.28 982.87,-471.16 975.89,-463.19 972.44,-469.28"/>
</g>
<!-- ip_input_local&#45;&gt;ospf_redirect -->
<g id="edge39" class="edge">
<title>ip_input_local&#45;&gt;ospf_redirect</title>
<path fill="none" stroke="black" d="M655.36,-234.71C669.77,-228.66 687.61,-221.97 704.24,-218 1002.53,-146.73 1373,-133.82 1507.52,-131.5"/>
<polygon fill="black" stroke="black" points="1507.22,-135.01 1517.16,-131.35 1507.11,-128.01 1507.22,-135.01"/>
</g>
<!-- ipip_input -->
<g id="node36" class="node">
<title>ipip_input</title>
<ellipse fill="none" stroke="black" cx="755.69" cy="-110" rx="31.1" ry="18"/>
<text xml:space="preserve" text-anchor="middle" x="755.69" y="-106.3" font-family="sans" font-size="11.00">ipip_input</text>
</g>
<!-- ip_input_local&#45;&gt;ipip_input -->
<g id="edge37" class="edge">
<title>ip_input_local&#45;&gt;ipip_input</title>
<path fill="none" stroke="black" d="M649.77,-233.13C656.3,-228.22 663.03,-222.38 668.24,-216 691.4,-187.69 679.88,-169.27 704.24,-142 709.14,-136.52 715.19,-131.62 721.39,-127.4"/>
<polygon fill="black" stroke="black" points="723.17,-130.41 729.8,-122.15 719.47,-124.47 723.17,-130.41"/>
</g>
<!-- icmp_input -->
<g id="node42" class="node">
<title>icmp_input</title>
<ellipse fill="none" stroke="black" cx="755.69" cy="-378" rx="34.89" ry="18"/>
<text xml:space="preserve" text-anchor="middle" x="755.69" y="-374.3" font-family="sans" font-size="11.00">icmp_input</text>
</g>
<!-- ip_input_local&#45;&gt;icmp_input -->
<g id="edge36" class="edge">
<title>ip_input_local&#45;&gt;icmp_input</title>
<path fill="none" stroke="black" d="M642.87,-264.73C665.25,-287.4 705.36,-328.03 730.96,-353.96"/>
<polygon fill="black" stroke="black" points="728.47,-356.41 737.98,-361.07 733.45,-351.5 728.47,-356.41"/>
</g>
<!-- l4_input_local -->
<g id="node53" class="node">
<title>l4_input_local</title>
<ellipse fill="none" stroke="black" cx="1560.38" cy="-223" rx="42.89" ry="18"/>
<text xml:space="preserve" text-anchor="middle" x="1560.38" y="-219.3" font-family="sans" font-size="11.00">l4_input_local</text>
</g>
<!-- ip_input_local&#45;&gt;l4_input_local -->
<g id="edge38" class="edge">
<title>ip_input_local&#45;&gt;l4_input_local</title>
<path fill="none" stroke="black" d="M664.95,-240.81C716.06,-231.94 809.08,-218 889.24,-218 889.24,-218 889.24,-218 1106.57,-218 1250.93,-218 1421.15,-220.57 1505.87,-222.03"/>
<polygon fill="black" stroke="black" points="1505.68,-225.52 1515.73,-222.2 1505.8,-218.52 1505.68,-225.52"/>
</g>
<!-- ip_output&#45;&gt;eth_output -->
<g id="edge40" class="edge">
<title>ip_output&#45;&gt;eth_output</title>
<path fill="none" stroke="black" d="M1009.36,-504.07C1017.62,-532.47 1036.94,-588.01 1069.84,-624 1119.01,-677.76 1138.34,-707 1211.18,-707 1211.18,-707 1211.18,-707 1423.88,-707 1649.92,-707 1709.73,-710.16 1929.26,-764 1940.32,-766.71 1951.99,-770.73 1962.56,-774.84"/>
<polygon fill="black" stroke="black" points="1961.12,-778.03 1971.7,-778.54 1963.75,-771.54 1961.12,-778.03"/>
</g>
<!-- ip_output&#45;&gt;xvrf -->
<g id="edge43" class="edge">
<title>ip_output&#45;&gt;xvrf</title>
<path fill="none" stroke="black" d="M1016.53,-502.55C1029.04,-519.44 1049.64,-546.09 1069.84,-567 1072.64,-569.9 1075.69,-572.82 1078.78,-575.64"/>
<polygon fill="black" stroke="black" points="1076.46,-578.26 1086.28,-582.24 1081.08,-573.01 1076.46,-578.26"/>
</g>
<!-- ip_output&#45;&gt;ip_fragment -->
<g id="edge42" class="edge">
<title>ip_output&#45;&gt;ip_fragment</title>
<path fill="none" stroke="black" d="M974.64,-491.94C963.46,-492.65 950.28,-492.89 937.74,-492.67"/>
<polygon fill="black" stroke="black" points="938.09,-489.18 927.99,-492.37 937.88,-496.17 938.09,-489.18"/>
</g>
<!-- ip_output&#45;&gt;ip_hold -->
<g id="edge41" class="edge">
<title>ip_output&#45;&gt;ip_hold</title>
<path fill="none" stroke="black" d="M1026.78,-497.98C1039,-504.59 1054.47,-512.94 1068.39,-520.46"/>
<polygon fill="black" stroke="black" points="1066.4,-523.36 1076.86,-525.03 1069.72,-517.2 1066.4,-523.36"/>
</g>
<!-- ip_output&#45;&gt;ip_loadbalance -->
<g id="edge44" class="edge">
<title>ip_output&#45;&gt;ip_loadbalance</title>
<path fill="none" stroke="black" d="M975.52,-478.76C959.69,-472.13 939.62,-462.49 923.04,-453.59"/>
<polygon fill="black" stroke="black" points="925.01,-450.68 914.57,-448.9 921.63,-456.8 925.01,-450.68"/>
</g>
<!-- ipip_output -->
<g id="node37" class="node">
<title>ipip_output</title>
<ellipse fill="none" stroke="black" cx="1105.57" cy="-486" rx="35.73" ry="18"/>
<text xml:space="preserve" text-anchor="middle" x="1105.57" y="-482.3" font-family="sans" font-size="11.00">ipip_output</text>
</g>
<!-- ip_output&#45;&gt;ipip_output -->
<g id="edge45" class="edge">
<title>ip_output&#45;&gt;ipip_output</title>
<path fill="none" stroke="black" d="M1032.44,-479.88C1041.15,-479.35 1050.98,-479.16 1060.52,-479.29"/>
<polygon fill="black" stroke="black" points="1060.31,-482.79 1070.4,-479.58 1060.51,-475.79 1060.31,-482.79"/>
</g>
<!-- sr6_output -->
<g id="node41" class="node">
<title>sr6_output</title>
<ellipse fill="none" stroke="black" cx="2000.14" cy="-543" rx="34.46" ry="18"/>
<text xml:space="preserve" text-anchor="middle" x="2000.14" y="-539.3" font-family="sans" font-size="11.00">sr6_output</text>
</g>
<!-- ip_output&#45;&gt;sr6_output -->
<g id="edge46" class="edge">
<title>ip_output&#45;&gt;sr6_output</title>
<path fill="none" stroke="black" d="M1021.68,-471.45C1082.42,-420.83 1295.43,-252.43 1505.56,-196 1596.49,-171.58 1856.4,-136.36 1929.26,-196 1978.34,-236.18 1993.71,-437.24 1997.82,-513.55"/>
<polygon fill="black" stroke="black" points="1994.3,-513.37 1998.31,-523.18 2001.29,-513.01 1994.3,-513.37"/>
</g>
<!-- ip6_forward -->
<g id="node30" class="node">
<title>ip6_forward</title>
<ellipse fill="none" stroke="black" cx="1422.88" cy="-623" rx="37.41" ry="18"/>
<text xml:space="preserve" text-anchor="middle" x="1422.88" y="-619.3" font-family="sans" font-size="11.00">ip6_forward</text>
</g>
<!-- ip6_output -->
<g id="node35" class="node">
<title>ip6_output</title>
<ellipse fill="none" stroke="black" cx="1868.81" cy="-570" rx="34.04" ry="18"/>
<text xml:space="preserve" text-anchor="middle" x="1868.81" y="-566.3" font-family="sans" font-size="11.00">ip6_output</text>
</g>
<!-- ip6_forward&#45;&gt;ip6_output -->
<g id="edge53" class="edge">
<title>ip6_forward&#45;&gt;ip6_output</title>
<path fill="none" stroke="black" d="M1460.49,-625.16C1524.52,-628.1 1660.65,-630.56 1772.36,-607 1792.95,-602.66 1814.92,-594.41 1832.58,-586.81"/>
<polygon fill="black" stroke="black" points="1833.86,-590.07 1841.58,-582.81 1831.02,-583.67 1833.86,-590.07"/>
</g>
<!-- ip6_hold -->
<g id="node31" class="node">
<title>ip6_hold</title>
<polygon fill="none" stroke="dodgerblue" points="2029.84,-615 1970.44,-615 1970.44,-579 2029.84,-579 2029.84,-615"/>
<text xml:space="preserve" text-anchor="middle" x="2000.14" y="-593.3" font-family="sans" font-size="11.00">ip6_hold</text>
</g>
<!-- ip6_input&#45;&gt;ip6_forward -->
<g id="edge54" class="edge">
<title>ip6_input&#45;&gt;ip6_forward</title>
<path fill="none" stroke="black" d="M1235.02,-569.8C1248.55,-576.73 1266.46,-585.24 1283.07,-591 1313.33,-601.5 1348.5,-609.56 1375.86,-614.97"/>
<polygon fill="black" stroke="black" points="1375.11,-618.39 1385.59,-616.84 1376.43,-611.51 1375.11,-618.39"/>
</g>
<!-- ip6_input_local -->
<g id="node34" class="node">
<title>ip6_input_local</title>
<ellipse fill="none" stroke="black" cx="1422.88" cy="-439" rx="46.68" ry="18"/>
<text xml:space="preserve" text-anchor="middle" x="1422.88" y="-435.3" font-family="sans" font-size="11.00">ip6_input_local</text>
</g>
<!-- ip6_input&#45;&gt;ip6_input_local -->
<g id="edge56" class="edge">
<title>ip6_input&#45;&gt;ip6_input_local</title>
<path fill="none" stroke="black" d="M1234.34,-545.93C1269.94,-525.64 1342.17,-484.45 1385.87,-459.54"/>
<polygon fill="black" stroke="black" points="1387.53,-462.62 1394.48,-454.63 1384.06,-456.54 1387.53,-462.62"/>
</g>
<!-- ip6_input&#45;&gt;ip6_output -->
<g id="edge55" class="edge">
<title>ip6_input&#45;&gt;ip6_output</title>
<path fill="none" stroke="black" d="M1241.69,-559.81C1323.97,-564.83 1568.94,-578.26 1772.36,-574 1789.04,-573.65 1807.34,-572.96 1823.43,-572.25"/>
<polygon fill="black" stroke="black" points="1823.35,-575.75 1833.17,-571.8 1823.02,-568.76 1823.35,-575.75"/>
</g>
<!-- sr6_local -->
<g id="node40" class="node">
<title>sr6_local</title>
<ellipse fill="none" stroke="black" cx="1311.64" cy="-452" rx="28.57" ry="18"/>
<text xml:space="preserve" text-anchor="middle" x="1311.64" y="-448.3" font-family="sans" font-size="11.00">sr6_local</text>
</g>
<!-- ip6_input&#45;&gt;sr6_local -->
<g id="edge57" class="edge">
<title>ip6_input&#45;&gt;sr6_local</title>
<path fill="none" stroke="black" d="M1224.36,-541.35C1239.06,-523 1265.33,-493.92 1285.03,-473.83"/>
<polygon fill="black" stroke="black" points="1287.36,-476.45 1291.95,-466.9 1282.41,-471.5 1287.36,-476.45"/>
</g>
<!-- ip6_loadbalance -->
<g id="node33" class="node">
<title>ip6_loadbalance</title>
<ellipse fill="none" stroke="black" cx="1711.78" cy="-547" rx="50.89" ry="18"/>
<text xml:space="preserve" text-anchor="middle" x="1711.78" y="-543.3" font-family="sans" font-size="11.00">ip6_loadbalance</text>
</g>
<!-- ip6_loadbalance&#45;&gt;ip6_output -->
<g id="edge58" class="edge">
<title>ip6_loadbalance&#45;&gt;ip6_output</title>
<path fill="none" stroke="black" d="M1762.69,-548.05C1784,-550.57 1808.51,-554.34 1828.5,-558.21"/>
<polygon fill="black" stroke="black" points="1827.71,-561.62 1838.2,-560.18 1829.1,-554.76 1827.71,-561.62"/>
</g>
<!-- ip6_input_local&#45;&gt;ospf_redirect -->
<g id="edge61" class="edge">
<title>ip6_input_local&#45;&gt;ospf_redirect</title>
<path fill="none" stroke="black" d="M1427.62,-420.68C1436.64,-378.87 1462.16,-273.97 1505.56,-196 1513.57,-181.62 1524.91,-167.34 1535.13,-155.84"/>
<polygon fill="black" stroke="black" points="1537.44,-158.49 1541.62,-148.75 1532.28,-153.76 1537.44,-158.49"/>
</g>
<!-- icmp6_input -->
<g id="node45" class="node">
<title>icmp6_input</title>
<polygon fill="none" stroke="dodgerblue" points="1600.58,-457 1520.18,-457 1520.18,-421 1600.58,-421 1600.58,-457"/>
<text xml:space="preserve" text-anchor="middle" x="1560.38" y="-435.3" font-family="sans" font-size="11.00">icmp6_input</text>
</g>
<!-- ip6_input_local&#45;&gt;icmp6_input -->
<g id="edge59" class="edge">
<title>ip6_input_local&#45;&gt;icmp6_input</title>
<path fill="none" stroke="black" d="M1469.76,-439C1482.22,-439 1495.79,-439 1508.51,-439"/>
<polygon fill="black" stroke="black" points="1508.38,-442.5 1518.38,-439 1508.38,-435.5 1508.38,-442.5"/>
</g>
<!-- ip6_input_local&#45;&gt;l4_input_local -->
<g id="edge60" class="edge">
<title>ip6_input_local&#45;&gt;l4_input_local</title>
<path fill="none" stroke="black" d="M1427.37,-420.83C1435.25,-384.24 1457.57,-300.8 1505.56,-250 1509,-246.35 1513.05,-243.12 1517.35,-240.29"/>
<polygon fill="black" stroke="black" points="1518.82,-243.48 1525.72,-235.44 1515.31,-237.42 1518.82,-243.48"/>
</g>
<!-- ip6_output&#45;&gt;eth_output -->
<g id="edge62" class="edge">
<title>ip6_output&#45;&gt;eth_output</title>
<path fill="none" stroke="black" d="M1879.96,-587.34C1902.39,-625.67 1956.32,-717.82 1983.26,-763.87"/>
<polygon fill="black" stroke="black" points="1980.2,-765.57 1988.28,-772.43 1986.25,-762.03 1980.2,-765.57"/>
</g>
<!-- ip6_output&#45;&gt;xvrf -->
<g id="edge64" class="edge">
<title>ip6_output&#45;&gt;xvrf</title>
<path fill="none" stroke="black" d="M1848.46,-584.94C1829.93,-598.49 1800.69,-618 1772.36,-629 1683.4,-663.56 1656.82,-669 1561.38,-669 1310.64,-669 1310.64,-669 1310.64,-669 1245.29,-669 1174.52,-635.75 1135.88,-614.45"/>
<polygon fill="black" stroke="black" points="1138.06,-611.66 1127.63,-609.79 1134.62,-617.76 1138.06,-611.66"/>
</g>
<!-- ip6_output&#45;&gt;ip6_hold -->
<g id="edge63" class="edge">
<title>ip6_output&#45;&gt;ip6_hold</title>
<path fill="none" stroke="black" d="M1901.11,-576.54C1918.57,-580.18 1940.5,-584.76 1959.19,-588.66"/>
<polygon fill="black" stroke="black" points="1958.35,-592.06 1968.85,-590.68 1959.78,-585.21 1958.35,-592.06"/>
</g>
<!-- ip6_output&#45;&gt;ip6_loadbalance -->
<g id="edge65" class="edge">
<title>ip6_output&#45;&gt;ip6_loadbalance</title>
<path fill="none" stroke="black" d="M1834.31,-570.7C1813.39,-568.75 1786.08,-564.93 1762.65,-560.75"/>
<polygon fill="black" stroke="black" points="1763.46,-557.34 1752.99,-558.96 1762.18,-564.22 1763.46,-557.34"/>
</g>
<!-- ip6_output&#45;&gt;sr6_output -->
<g id="edge66" class="edge">
<title>ip6_output&#45;&gt;sr6_output</title>
<path fill="none" stroke="black" d="M1896.29,-558.9C1912.89,-554.26 1934.73,-549.41 1954.01,-545.95"/>
<polygon fill="black" stroke="black" points="1954.53,-549.41 1963.81,-544.3 1953.37,-542.51 1954.53,-549.41"/>
</g>
<!-- ipip_input&#45;&gt;ip_input -->
<g id="edge69" class="edge">
<title>ipip_input&#45;&gt;ip_input</title>
<path fill="none" stroke="black" d="M728.87,-119.77C656.85,-147.15 457.5,-224.05 433.82,-245 404.73,-270.73 384.78,-311.6 373.85,-338.85"/>
<polygon fill="black" stroke="black" points="370.71,-337.26 370.38,-347.85 377.24,-339.77 370.71,-337.26"/>
</g>
<!-- ipip_output&#45;&gt;ip_output -->
<g id="edge70" class="edge">
<title>ipip_output&#45;&gt;ip_output</title>
<path fill="none" stroke="black" d="M1071.92,-492.38C1062.95,-492.78 1053.13,-492.86 1043.84,-492.61"/>
<polygon fill="black" stroke="black" points="1044.09,-489.12 1033.95,-492.19 1043.8,-496.11 1044.09,-489.12"/>
</g>
<!-- dnat44_dynamic&#45;&gt;ip_forward -->
<g id="edge75" class="edge">
<title>dnat44_dynamic&#45;&gt;ip_forward</title>
<path fill="none" stroke="black" d="M538.86,-400.81C552.6,-402.77 567.52,-404.89 580.98,-406.81"/>
<polygon fill="black" stroke="black" points="580.48,-410.28 590.88,-408.22 581.47,-403.35 580.48,-410.28"/>
</g>
<!-- dnat44_dynamic&#45;&gt;ip_input_local -->
<g id="edge76" class="edge">
<title>dnat44_dynamic&#45;&gt;ip_input_local</title>
<path fill="none" stroke="black" d="M525.99,-380.54C533.22,-376.81 540.46,-372.3 546.47,-367 575.61,-341.31 598.35,-302.25 611.55,-275.96"/>
<polygon fill="black" stroke="black" points="614.56,-277.77 615.79,-267.25 608.27,-274.71 614.56,-277.77"/>
</g>
<!-- dnat44_static&#45;&gt;ip_forward -->
<g id="edge77" class="edge">
<title>dnat44_static&#45;&gt;ip_forward</title>
<path fill="none" stroke="black" d="M519.79,-353.45C528.44,-357.65 537.91,-362.39 546.47,-367 561.94,-375.32 578.76,-385.16 592.8,-393.59"/>
<polygon fill="black" stroke="black" points="590.8,-396.47 601.17,-398.66 594.43,-390.49 590.8,-396.47"/>
</g>
<!-- dnat44_static&#45;&gt;ip_input_local -->
<g id="edge78" class="edge">
<title>dnat44_static&#45;&gt;ip_input_local</title>
<path fill="none" stroke="black" d="M513.44,-324.6C535.15,-309.61 568.35,-286.68 592.77,-269.81"/>
<polygon fill="black" stroke="black" points="594.5,-272.87 600.74,-264.31 590.52,-267.11 594.5,-272.87"/>
</g>
<!-- sr6_local&#45;&gt;ip_input -->
<g id="edge79" class="edge">
<title>sr6_local&#45;&gt;ip_input</title>
<path fill="none" stroke="black" d="M1300.11,-435.09C1273.29,-394.33 1197.98,-294 1106.57,-294 624.36,-294 624.36,-294 624.36,-294 539.25,-294 512.9,-281.56 433.82,-313 416.21,-320 399.32,-332.81 386.54,-344.2"/>
<polygon fill="black" stroke="black" points="384.45,-341.37 379.5,-350.74 389.21,-346.5 384.45,-341.37"/>
</g>
<!-- sr6_local&#45;&gt;ip6_input -->
<g id="edge80" class="edge">
<title>sr6_local&#45;&gt;ip6_input</title>
<path fill="none" stroke="black" d="M1299.55,-468.54C1284.93,-486.8 1258.77,-515.78 1239.06,-535.9"/>
<polygon fill="black" stroke="black" points="1236.71,-533.3 1232.13,-542.85 1241.67,-538.24 1236.71,-533.3"/>
</g>
<!-- sr6_local&#45;&gt;ip6_input_local -->
<g id="edge81" class="edge">
<title>sr6_local&#45;&gt;ip6_input_local</title>
<path fill="none" stroke="black" d="M1340.21,-448.72C1348.21,-447.77 1357.24,-446.69 1366.31,-445.61"/>
<polygon fill="black" stroke="black" points="1366.73,-449.09 1376.24,-444.43 1365.9,-442.14 1366.73,-449.09"/>
</g>
<!-- sr6_output&#45;&gt;ip6_output -->
<g id="edge82" class="edge">
<title>sr6_output&#45;&gt;ip6_output</title>
<path fill="none" stroke="black" d="M1972.46,-554.15C1955.74,-558.82 1933.76,-563.69 1914.43,-567.14"/>
<polygon fill="black" stroke="black" points="1913.89,-563.68 1904.61,-568.78 1915.05,-570.58 1913.89,-563.68"/>
</g>
<!-- icmp_output -->
<g id="node44" class="node">
<title>icmp_output</title>
<ellipse fill="none" stroke="black" cx="890.24" cy="-378" rx="39.52" ry="18"/>
<text xml:space="preserve" text-anchor="middle" x="890.24" y="-374.3" font-family="sans" font-size="11.00">icmp_output</text>
</g>
<!-- icmp_input&#45;&gt;icmp_output -->
<g id="edge25" class="edge">
<title>icmp_input&#45;&gt;icmp_output</title>
<path fill="none" stroke="black" d="M790.83,-378C805.52,-378 822.99,-378 839.1,-378"/>
<polygon fill="black" stroke="black" points="839.02,-381.5 849.02,-378 839.02,-374.5 839.02,-381.5"/>
</g>
<!-- icmp_local_send -->
<g id="node43" class="node">
<title>icmp_local_send</title>
<polygon fill="none" stroke="dodgerblue" points="807.14,-450 704.24,-450 704.24,-414 807.14,-414 807.14,-450"/>
<text xml:space="preserve" text-anchor="middle" x="755.69" y="-428.3" font-family="sans" font-size="11.00">icmp_local_send</text>
</g>
<!-- icmp_local_send&#45;&gt;icmp_output -->
<g id="edge26" class="edge">
<title>icmp_local_send&#45;&gt;icmp_output</title>
<path fill="none" stroke="dodgerblue" d="M801.94,-413.57C817.39,-407.27 834.54,-400.29 849.52,-394.18"/>
<polygon fill="dodgerblue" stroke="dodgerblue" points="850.65,-397.5 858.59,-390.49 848.01,-391.02 850.65,-397.5"/>
</g>
<!-- icmp_output&#45;&gt;ip_output -->
<g id="edge27" class="edge">
<title>icmp_output&#45;&gt;ip_output</title>
<path fill="none" stroke="black" d="M917.71,-391.3C924.44,-395.26 931.44,-399.91 937.34,-405 955.86,-420.96 973.05,-442.7 985.13,-459.64"/>
<polygon fill="black" stroke="black" points="982.18,-461.53 990.76,-467.74 987.92,-457.53 982.18,-461.53"/>
</g>
<!-- icmp6_output -->
<g id="node47" class="node">
<title>icmp6_output</title>
<ellipse fill="none" stroke="black" cx="1711.78" cy="-331" rx="43.31" ry="18"/>
<text xml:space="preserve" text-anchor="middle" x="1711.78" y="-327.3" font-family="sans" font-size="11.00">icmp6_output</text>
</g>
<!-- icmp6_input&#45;&gt;icmp6_output -->
<g id="edge47" class="edge">
<title>icmp6_input&#45;&gt;icmp6_output</title>
<path fill="none" stroke="dodgerblue" d="M1600.86,-422.25C1605.96,-419.23 1610.9,-415.81 1615.21,-412 1636.82,-392.9 1629.23,-376.67 1651.21,-358 1655.97,-353.96 1661.43,-350.4 1667.08,-347.32"/>
<polygon fill="dodgerblue" stroke="dodgerblue" points="1668.55,-350.5 1675.97,-342.93 1665.45,-344.22 1668.55,-350.5"/>
</g>
<!-- ndp_na_input -->
<g id="node48" class="node">
<title>ndp_na_input</title>
<polygon fill="none" stroke="dodgerblue" points="1754.98,-457 1668.58,-457 1668.58,-421 1754.98,-421 1754.98,-457"/>
<text xml:space="preserve" text-anchor="middle" x="1711.78" y="-435.3" font-family="sans" font-size="11.00">ndp_na_input</text>
</g>
<!-- icmp6_input&#45;&gt;ndp_na_input -->
<g id="edge49" class="edge">
<title>icmp6_input&#45;&gt;ndp_na_input</title>
<path fill="none" stroke="dodgerblue" d="M1601.03,-439C1618.13,-439 1638.4,-439 1656.84,-439"/>
<polygon fill="dodgerblue" stroke="dodgerblue" points="1656.82,-442.5 1666.82,-439 1656.82,-435.5 1656.82,-442.5"/>
</g>
<!-- ndp_ns_input -->
<g id="node50" class="node">
<title>ndp_ns_input</title>
<polygon fill="none" stroke="dodgerblue" points="1754.61,-403 1668.96,-403 1668.96,-367 1754.61,-367 1754.61,-403"/>
<text xml:space="preserve" text-anchor="middle" x="1711.78" y="-381.3" font-family="sans" font-size="11.00">ndp_ns_input</text>
</g>
<!-- icmp6_input&#45;&gt;ndp_ns_input -->
<g id="edge48" class="edge">
<title>icmp6_input&#45;&gt;ndp_ns_input</title>
<path fill="none" stroke="dodgerblue" d="M1601.03,-424.67C1618.44,-418.38 1639.15,-410.89 1657.85,-404.13"/>
<polygon fill="dodgerblue" stroke="dodgerblue" points="1658.96,-407.45 1667.17,-400.76 1656.58,-400.87 1658.96,-407.45"/>
</g>
<!-- ndp_rs_input -->
<g id="node52" class="node">
<title>ndp_rs_input</title>
<polygon fill="none" stroke="dodgerblue" points="1753.48,-511 1670.08,-511 1670.08,-475 1753.48,-475 1753.48,-511"/>
<text xml:space="preserve" text-anchor="middle" x="1711.78" y="-489.3" font-family="sans" font-size="11.00">ndp_rs_input</text>
</g>
<!-- icmp6_input&#45;&gt;ndp_rs_input -->
<g id="edge50" class="edge">
<title>icmp6_input&#45;&gt;ndp_rs_input</title>
<path fill="none" stroke="dodgerblue" d="M1601.03,-453.33C1618.82,-459.76 1640.03,-467.43 1659.05,-474.3"/>
<polygon fill="dodgerblue" stroke="dodgerblue" points="1657.63,-477.51 1668.23,-477.62 1660.01,-470.93 1657.63,-477.51"/>
</g>
<!-- icmp6_local_send -->
<g id="node46" class="node">
<title>icmp6_local_send</title>
<polygon fill="none" stroke="dodgerblue" points="1615.21,-349 1505.56,-349 1505.56,-313 1615.21,-313 1615.21,-349"/>
<text xml:space="preserve" text-anchor="middle" x="1560.38" y="-327.3" font-family="sans" font-size="11.00">icmp6_local_send</text>
</g>
<!-- icmp6_local_send&#45;&gt;icmp6_output -->
<g id="edge51" class="edge">
<title>icmp6_local_send&#45;&gt;icmp6_output</title>
<path fill="none" stroke="dodgerblue" d="M1615.32,-331C1628.9,-331 1643.48,-331 1657.05,-331"/>
<polygon fill="dodgerblue" stroke="dodgerblue" points="1656.66,-334.5 1666.66,-331 1656.66,-327.5 1656.66,-334.5"/>
</g>
<!-- icmp6_output&#45;&gt;ip6_output -->
<g id="edge52" class="edge">
<title>icmp6_output&#45;&gt;ip6_output</title>
<path fill="none" stroke="black" d="M1747.27,-341.62C1756.26,-345.65 1765.38,-351.01 1772.36,-358 1824.56,-410.33 1850.92,-496.28 1861.7,-540.97"/>
<polygon fill="black" stroke="black" points="1858.22,-541.48 1863.88,-550.43 1865.04,-539.9 1858.22,-541.48"/>
</g>
<!-- ndp_na_output -->
<g id="node49" class="node">
<title>ndp_na_output</title>
<polygon fill="none" stroke="dodgerblue" points="1607.71,-295 1513.06,-295 1513.06,-259 1607.71,-259 1607.71,-295"/>
<text xml:space="preserve" text-anchor="middle" x="1560.38" y="-273.3" font-family="sans" font-size="11.00">ndp_na_output</text>
</g>
<!-- ndp_na_output&#45;&gt;icmp6_output -->
<g id="edge67" class="edge">
<title>ndp_na_output&#45;&gt;icmp6_output</title>
<path fill="none" stroke="dodgerblue" d="M1607.84,-293.79C1626.88,-300.67 1648.8,-308.6 1667.51,-315.36"/>
<polygon fill="dodgerblue" stroke="dodgerblue" points="1666.09,-318.57 1676.68,-318.67 1668.47,-311.98 1666.09,-318.57"/>
</g>
<!-- ndp_ns_output -->
<g id="node51" class="node">
<title>ndp_ns_output</title>
<polygon fill="none" stroke="dodgerblue" points="1607.33,-403 1513.43,-403 1513.43,-367 1607.33,-367 1607.33,-403"/>
<text xml:space="preserve" text-anchor="middle" x="1560.38" y="-381.3" font-family="sans" font-size="11.00">ndp_ns_output</text>
</g>
<!-- ndp_ns_output&#45;&gt;icmp6_output -->
<g id="edge68" class="edge">
<title>ndp_ns_output&#45;&gt;icmp6_output</title>
<path fill="none" stroke="dodgerblue" d="M1607.43,-368.36C1626.64,-361.42 1648.82,-353.4 1667.7,-346.57"/>
<polygon fill="dodgerblue" stroke="dodgerblue" points="1668.75,-349.91 1676.97,-343.22 1666.37,-343.33 1668.75,-349.91"/>
</g>
<!-- l4_loopback_output -->
<g id="node54" class="node">
<title>l4_loopback_output</title>
<ellipse fill="none" stroke="black" cx="1711.78" cy="-223" rx="60.57" ry="18"/>
<text xml:space="preserve" text-anchor="middle" x="1711.78" y="-219.3" font-family="sans" font-size="11.00">l4_loopback_output</text>
</g>
<!-- l4_input_local&#45;&gt;l4_loopback_output -->
<g id="edge71" class="edge">
<title>l4_input_local&#45;&gt;l4_loopback_output</title>
<path fill="none" stroke="black" d="M1603.4,-223C1614.7,-223 1627.24,-223 1639.65,-223"/>
<polygon fill="black" stroke="black" points="1639.46,-226.5 1649.46,-223 1639.46,-219.5 1639.46,-226.5"/>
</g>
<!-- dhcp_input -->
<g id="node55" class="node">
<title>dhcp_input</title>
<polygon fill="none" stroke="dodgerblue" points="1748.61,-295 1674.96,-295 1674.96,-259 1748.61,-259 1748.61,-295"/>
<text xml:space="preserve" text-anchor="middle" x="1711.78" y="-273.3" font-family="sans" font-size="11.00">dhcp_input</text>
</g>
<!-- l4_input_local&#45;&gt;dhcp_input -->
<g id="edge72" class="edge">
<title>l4_input_local&#45;&gt;dhcp_input</title>
<path fill="none" stroke="black" d="M1593.8,-234.72C1614.23,-242.1 1640.95,-251.76 1663.7,-259.98"/>
<polygon fill="black" stroke="black" points="1662.48,-263.26 1673.07,-263.37 1664.86,-256.68 1662.48,-263.26"/>
</g>
<!-- l4_loopback_output&#45;&gt;loopback_output -->
<g id="edge73" class="edge">
<title>l4_loopback_output&#45;&gt;loopback_output</title>
<path fill="none" stroke="black" d="M1772.72,-223C1783.36,-223 1794.46,-223 1805.17,-223"/>
<polygon fill="black" stroke="black" points="1805.08,-226.5 1815.08,-223 1805.08,-219.5 1805.08,-226.5"/>
</g>
</g>
</svg>
