<?xml version="1.0" encoding="UTF-8" standalone="no"?>
<!DOCTYPE svg PUBLIC "-//W3C//DTD SVG 1.1//EN"
 "http://www.w3.org/Graphics/SVG/1.1/DTD/svg11.dtd">
<!-- Generated by graphviz version 2.42.4 (0)
 -->
<!-- Title: gr&#45;0003 Pages: 1 -->
<svg width="1745pt" height="879pt"
 viewBox="0.00 0.00 1744.88 879.00" xmlns="http://www.w3.org/2000/svg" xmlns:xlink="http://www.w3.org/1999/xlink">
<g id="graph0" class="graph" transform="scale(1 1) rotate(0) translate(4 875)">
<title>gr&#45;0003</title>
<polygon fill="white" stroke="transparent" points="-4,4 -4,-875 1740.88,-875 1740.88,4 -4,4"/>
<!-- control_input -->
<g id="node1" class="node">
<title>control_input</title>
<ellipse fill="none" stroke="blue" stroke-width="2" cx="39.08" cy="-276" rx="39.15" ry="18"/>
<text text-anchor="middle" x="39.08" y="-273.2" font-family="sans" font-size="11.00">control_input</text>
</g>
<!-- loopback_input -->
<g id="node2" class="node">
<title>loopback_input</title>
<ellipse fill="none" stroke="black" cx="158.65" cy="-437" rx="44.51" ry="18"/>
<text text-anchor="middle" x="158.65" y="-434.2" font-family="sans" font-size="11.00">loopback_input</text>
</g>
<!-- control_input&#45;&gt;loopback_input -->
<g id="edge1" class="edge">
<title>control_input&#45;&gt;loopback_input</title>
<path fill="none" stroke="blue" stroke-width="2" d="M52.44,-292.93C73.11,-321.24 114.82,-378.35 139.06,-411.53"/>
<polygon fill="blue" stroke="blue" stroke-width="2" points="136.38,-413.81 145.11,-419.82 142.03,-409.68 136.38,-413.81"/>
</g>
<!-- arp_output_request -->
<g id="node3" class="node">
<title>arp_output_request</title>
<ellipse fill="none" stroke="black" cx="679.3" cy="-811" rx="56.39" ry="18"/>
<text text-anchor="middle" x="679.3" y="-808.2" font-family="sans" font-size="11.00">arp_output_request</text>
</g>
<!-- control_input&#45;&gt;arp_output_request -->
<g id="edge2" class="edge">
<title>control_input&#45;&gt;arp_output_request</title>
<path fill="none" stroke="blue" stroke-width="2" d="M39.98,-294.06C39.97,-375.66 44.23,-708.96 114.15,-779 169.54,-834.49 210.23,-805 288.63,-805 288.63,-805 288.63,-805 420.52,-805 485.99,-805 560.79,-806.96 612.89,-808.64"/>
<polygon fill="blue" stroke="blue" stroke-width="2" points="612.89,-812.14 623,-808.97 613.12,-805.14 612.89,-812.14"/>
</g>
<!-- icmp_local_send -->
<g id="node4" class="node">
<title>icmp_local_send</title>
<ellipse fill="none" stroke="black" cx="679.3" cy="-345" rx="47.43" ry="18"/>
<text text-anchor="middle" x="679.3" y="-342.2" font-family="sans" font-size="11.00">icmp_local_send</text>
</g>
<!-- control_input&#45;&gt;icmp_local_send -->
<g id="edge3" class="edge">
<title>control_input&#45;&gt;icmp_local_send</title>
<path fill="none" stroke="blue" stroke-width="2" d="M63.65,-290.09C77.83,-297.97 96.5,-307.32 114.15,-313 188.92,-337.05 210.09,-341 288.63,-341 288.63,-341 288.63,-341 420.52,-341 489.76,-341 569.44,-342.46 621.67,-343.62"/>
<polygon fill="blue" stroke="blue" stroke-width="2" points="621.66,-347.12 631.74,-343.84 621.82,-340.12 621.66,-347.12"/>
</g>
<!-- icmp6_local_send -->
<g id="node5" class="node">
<title>icmp6_local_send</title>
<ellipse fill="none" stroke="black" cx="289.63" cy="-197" rx="50.45" ry="18"/>
<text text-anchor="middle" x="289.63" y="-194.2" font-family="sans" font-size="11.00">icmp6_local_send</text>
</g>
<!-- control_input&#45;&gt;icmp6_local_send -->
<g id="edge4" class="edge">
<title>control_input&#45;&gt;icmp6_local_send</title>
<path fill="none" stroke="blue" stroke-width="2" d="M59.69,-260.59C74.01,-250.11 94.3,-236.78 114.15,-229 151.34,-214.43 195.63,-206.41 230.28,-202.04"/>
<polygon fill="blue" stroke="blue" stroke-width="2" points="230.73,-205.51 240.25,-200.85 229.9,-198.56 230.73,-205.51"/>
</g>
<!-- ndp_ns_output -->
<g id="node6" class="node">
<title>ndp_ns_output</title>
<ellipse fill="none" stroke="black" cx="419.52" cy="-105" rx="43.34" ry="18"/>
<text text-anchor="middle" x="419.52" y="-102.2" font-family="sans" font-size="11.00">ndp_ns_output</text>
</g>
<!-- control_input&#45;&gt;ndp_ns_output -->
<g id="edge5" class="edge">
<title>control_input&#45;&gt;ndp_ns_output</title>
<path fill="none" stroke="blue" stroke-width="2" d="M43.95,-257.87C51.55,-227.23 71.52,-165.73 114.15,-137 190.95,-85.25 304.27,-89.13 368.77,-96.88"/>
<polygon fill="blue" stroke="blue" stroke-width="2" points="368.71,-100.4 379.08,-98.21 369.6,-93.46 368.71,-100.4"/>
</g>
<!-- ip_output -->
<g id="node7" class="node">
<title>ip_output</title>
<ellipse fill="none" stroke="black" cx="1186.93" cy="-498" rx="28.44" ry="18"/>
<text text-anchor="middle" x="1186.93" y="-495.2" font-family="sans" font-size="11.00">ip_output</text>
</g>
<!-- control_input&#45;&gt;ip_output -->
<g id="edge6" class="edge">
<title>control_input&#45;&gt;ip_output</title>
<path fill="none" stroke="blue" stroke-width="2" d="M76.62,-281.51C124.99,-288.31 213.01,-299 288.63,-299 288.63,-299 288.63,-299 946.05,-299 1016.72,-299 1039.65,-311.42 1094.48,-356 1133.08,-387.38 1160.68,-439.53 1174.9,-471.14"/>
<polygon fill="blue" stroke="blue" stroke-width="2" points="1171.84,-472.86 1179.05,-480.63 1178.25,-470.06 1171.84,-472.86"/>
</g>
<!-- arp_output_reply -->
<g id="node8" class="node">
<title>arp_output_reply</title>
<ellipse fill="none" stroke="black" cx="820.59" cy="-773" rx="48.69" ry="18"/>
<text text-anchor="middle" x="820.59" y="-770.2" font-family="sans" font-size="11.00">arp_output_reply</text>
</g>
<!-- control_input&#45;&gt;arp_output_reply -->
<g id="edge7" class="edge">
<title>control_input&#45;&gt;arp_output_reply</title>
<path fill="none" stroke="blue" stroke-width="2" d="M40.69,-294.14C43.55,-368.4 57.95,-648.19 114.15,-712 167.72,-772.82 207.59,-765 288.63,-765 288.63,-765 288.63,-765 543.9,-765 619.18,-765 705.97,-768.02 761.75,-770.35"/>
<polygon fill="blue" stroke="blue" stroke-width="2" points="761.65,-773.84 771.79,-770.77 761.95,-766.85 761.65,-773.84"/>
</g>
<!-- ip6_output -->
<g id="node9" class="node">
<title>ip6_output</title>
<ellipse fill="none" stroke="black" cx="1435.31" cy="-343" rx="31.46" ry="18"/>
<text text-anchor="middle" x="1435.31" y="-340.2" font-family="sans" font-size="11.00">ip6_output</text>
</g>
<!-- control_input&#45;&gt;ip6_output -->
<g id="edge8" class="edge">
<title>control_input&#45;&gt;ip6_output</title>
<path fill="none" stroke="blue" stroke-width="2" d="M70.98,-265.29C117.9,-255.06 209.95,-243 288.63,-243 288.63,-243 288.63,-243 1187.93,-243 1273.89,-243 1366.85,-292.34 1409.89,-321.96"/>
<polygon fill="blue" stroke="blue" stroke-width="2" points="1407.88,-324.82 1418.06,-327.77 1411.94,-319.12 1407.88,-324.82"/>
</g>
<!-- control_input&#45;&gt;ip6_output -->
<g id="edge10" class="edge">
<title>control_input&#45;&gt;ip6_output</title>
<path fill="none" stroke="blue" stroke-width="2" d="M78.29,-276.25C126.99,-271.9 213.85,-261 288.63,-261 288.63,-261 288.63,-261 1187.93,-261 1268.13,-261 1354.42,-303.95 1400.58,-327.92"/>
<polygon fill="blue" stroke="blue" stroke-width="2" points="1399.05,-331.07 1409.54,-332.58 1402.29,-324.86 1399.05,-331.07"/>
</g>
<!-- ndp_na_output -->
<g id="node10" class="node">
<title>ndp_na_output</title>
<ellipse fill="none" stroke="black" cx="542.9" cy="-159" rx="43.92" ry="18"/>
<text text-anchor="middle" x="542.9" y="-156.2" font-family="sans" font-size="11.00">ndp_na_output</text>
</g>
<!-- control_input&#45;&gt;ndp_na_output -->
<g id="edge9" class="edge">
<title>control_input&#45;&gt;ndp_na_output</title>
<path fill="none" stroke="blue" stroke-width="2" d="M52.6,-258.98C65.98,-242.02 88.72,-216.48 114.15,-202 235.24,-133.03 407.24,-141.79 491.47,-151.59"/>
<polygon fill="blue" stroke="blue" stroke-width="2" points="491.19,-155.08 501.54,-152.81 492.04,-148.13 491.19,-155.08"/>
</g>
<!-- ip_input -->
<g id="node14" class="node">
<title>ip_input</title>
<ellipse fill="none" stroke="black" cx="679.3" cy="-574" rx="27" ry="18"/>
<text text-anchor="middle" x="679.3" y="-571.2" font-family="sans" font-size="11.00">ip_input</text>
</g>
<!-- loopback_input&#45;&gt;ip_input -->
<g id="edge16" class="edge">
<title>loopback_input&#45;&gt;ip_input</title>
<path fill="none" stroke="black" d="M202.03,-441.37C280.11,-450.35 451.09,-474.34 586.86,-524 609.43,-532.26 633.2,-545.41 650.85,-556.15"/>
<polygon fill="black" stroke="black" points="649.14,-559.21 659.48,-561.51 652.83,-553.26 649.14,-559.21"/>
</g>
<!-- ip6_input -->
<g id="node15" class="node">
<title>ip6_input</title>
<ellipse fill="none" stroke="black" cx="289.63" cy="-513" rx="27.86" ry="18"/>
<text text-anchor="middle" x="289.63" y="-510.2" font-family="sans" font-size="11.00">ip6_input</text>
</g>
<!-- loopback_input&#45;&gt;ip6_input -->
<g id="edge17" class="edge">
<title>loopback_input&#45;&gt;ip6_input</title>
<path fill="none" stroke="black" d="M184.52,-451.65C206.01,-464.32 237.08,-482.62 259.68,-495.94"/>
<polygon fill="black" stroke="black" points="258.1,-499.07 268.5,-501.14 261.66,-493.04 258.1,-499.07"/>
</g>
<!-- eth_output -->
<g id="node16" class="node">
<title>eth_output</title>
<ellipse fill="none" stroke="black" cx="1563.03" cy="-793" rx="32.04" ry="18"/>
<text text-anchor="middle" x="1563.03" y="-790.2" font-family="sans" font-size="11.00">eth_output</text>
</g>
<!-- arp_output_request&#45;&gt;eth_output -->
<g id="edge26" class="edge">
<title>arp_output_request&#45;&gt;eth_output</title>
<path fill="none" stroke="black" d="M735.35,-813.64C788.7,-815.97 871.9,-819 944.05,-819 944.05,-819 944.05,-819 1320.53,-819 1392.03,-819 1474.76,-807.59 1522.48,-799.89"/>
<polygon fill="black" stroke="black" points="1523.1,-803.34 1532.4,-798.26 1521.96,-796.43 1523.1,-803.34"/>
</g>
<!-- icmp_output -->
<g id="node24" class="node">
<title>icmp_output</title>
<ellipse fill="none" stroke="black" cx="1057.58" cy="-589" rx="36.81" ry="18"/>
<text text-anchor="middle" x="1057.58" y="-586.2" font-family="sans" font-size="11.00">icmp_output</text>
</g>
<!-- icmp_local_send&#45;&gt;icmp_output -->
<g id="edge29" class="edge">
<title>icmp_local_send&#45;&gt;icmp_output</title>
<path fill="none" stroke="black" d="M704.13,-360.45C769.66,-402.94 952.59,-521.57 1025.76,-569.01"/>
<polygon fill="black" stroke="black" points="1024.23,-572.2 1034.53,-574.7 1028.04,-566.32 1024.23,-572.2"/>
</g>
<!-- icmp6_output -->
<g id="node33" class="node">
<title>icmp6_output</title>
<ellipse fill="none" stroke="black" cx="1319.53" cy="-197" rx="40.32" ry="18"/>
<text text-anchor="middle" x="1319.53" y="-194.2" font-family="sans" font-size="11.00">icmp6_output</text>
</g>
<!-- icmp6_local_send&#45;&gt;icmp6_output -->
<g id="edge50" class="edge">
<title>icmp6_local_send&#45;&gt;icmp6_output</title>
<path fill="none" stroke="black" d="M339.73,-199.49C390.36,-201.84 471.63,-205 541.9,-205 541.9,-205 541.9,-205 1058.58,-205 1132.02,-205 1217.08,-201.77 1269.34,-199.42"/>
<polygon fill="black" stroke="black" points="1269.52,-202.91 1279.35,-198.96 1269.2,-195.92 1269.52,-202.91"/>
</g>
<!-- ndp_ns_output&#45;&gt;icmp6_output -->
<g id="edge67" class="edge">
<title>ndp_ns_output&#45;&gt;icmp6_output</title>
<path fill="none" stroke="black" d="M462.74,-107.28C535.55,-111.01 689.44,-118 819.59,-118 819.59,-118 819.59,-118 1058.58,-118 1142.9,-118 1163.81,-133.07 1243.37,-161 1257.08,-165.81 1271.59,-172.39 1284.18,-178.6"/>
<polygon fill="black" stroke="black" points="1282.87,-181.87 1293.38,-183.25 1286.03,-175.62 1282.87,-181.87"/>
</g>
<!-- ip_output&#45;&gt;eth_output -->
<g id="edge39" class="edge">
<title>ip_output&#45;&gt;eth_output</title>
<path fill="none" stroke="black" d="M1199.13,-514.47C1227.56,-555.17 1306.59,-661.69 1395.69,-724 1435.57,-751.89 1488.44,-771.37 1523.76,-782.36"/>
<polygon fill="black" stroke="black" points="1523.1,-785.81 1533.68,-785.36 1525.13,-779.11 1523.1,-785.81"/>
</g>
<!-- loopback_output -->
<g id="node19" class="node">
<title>loopback_output</title>
<ellipse fill="none" stroke="black" cx="1563.03" cy="-504" rx="48.69" ry="18"/>
<text text-anchor="middle" x="1563.03" y="-501.2" font-family="sans" font-size="11.00">loopback_output</text>
</g>
<!-- ip_output&#45;&gt;loopback_output -->
<g id="edge41" class="edge">
<title>ip_output&#45;&gt;loopback_output</title>
<path fill="none" stroke="black" d="M1213.3,-505.09C1231.52,-509.8 1256.75,-515.56 1279.37,-518 1358.24,-526.52 1450.05,-518.73 1507.11,-511.81"/>
<polygon fill="black" stroke="black" points="1507.86,-515.24 1517.35,-510.53 1507,-508.29 1507.86,-515.24"/>
</g>
<!-- ip_hold -->
<g id="node26" class="node">
<title>ip_hold</title>
<ellipse fill="none" stroke="black" cx="1319.53" cy="-437" rx="27" ry="18"/>
<text text-anchor="middle" x="1319.53" y="-434.2" font-family="sans" font-size="11.00">ip_hold</text>
</g>
<!-- ip_output&#45;&gt;ip_hold -->
<g id="edge40" class="edge">
<title>ip_output&#45;&gt;ip_hold</title>
<path fill="none" stroke="black" d="M1210.08,-487.65C1231.32,-477.73 1263.57,-462.67 1287.39,-451.54"/>
<polygon fill="black" stroke="black" points="1289.12,-454.6 1296.7,-447.19 1286.16,-448.26 1289.12,-454.6"/>
</g>
<!-- ipip_output -->
<g id="node30" class="node">
<title>ipip_output</title>
<ellipse fill="none" stroke="black" cx="1319.53" cy="-491" rx="33.8" ry="18"/>
<text text-anchor="middle" x="1319.53" y="-488.2" font-family="sans" font-size="11.00">ipip_output</text>
</g>
<!-- ip_output&#45;&gt;ipip_output -->
<g id="edge42" class="edge">
<title>ip_output&#45;&gt;ipip_output</title>
<path fill="none" stroke="black" d="M1213.11,-491.19C1230.99,-488.9 1255.42,-487.29 1276.27,-486.9"/>
<polygon fill="black" stroke="black" points="1276.51,-490.4 1286.48,-486.82 1276.45,-483.4 1276.51,-490.4"/>
</g>
<!-- sr6_headend -->
<g id="node31" class="node">
<title>sr6_headend</title>
<ellipse fill="none" stroke="black" cx="1319.53" cy="-383" rx="37.4" ry="18"/>
<text text-anchor="middle" x="1319.53" y="-380.2" font-family="sans" font-size="11.00">sr6_headend</text>
</g>
<!-- ip_output&#45;&gt;sr6_headend -->
<g id="edge43" class="edge">
<title>ip_output&#45;&gt;sr6_headend</title>
<path fill="none" stroke="black" d="M1202.44,-482.58C1219.92,-464.36 1250.53,-433.56 1279.37,-410 1282.22,-407.67 1285.27,-405.33 1288.36,-403.06"/>
<polygon fill="black" stroke="black" points="1290.41,-405.89 1296.53,-397.24 1286.35,-400.19 1290.41,-405.89"/>
</g>
<!-- arp_output_reply&#45;&gt;eth_output -->
<g id="edge25" class="edge">
<title>arp_output_reply&#45;&gt;eth_output</title>
<path fill="none" stroke="black" d="M869.28,-775.58C916.74,-777.91 991.67,-781 1056.58,-781 1056.58,-781 1056.58,-781 1320.53,-781 1391.12,-781 1473.18,-786.18 1521.18,-789.73"/>
<polygon fill="black" stroke="black" points="1520.94,-793.22 1531.17,-790.48 1521.47,-786.24 1520.94,-793.22"/>
</g>
<!-- ip6_output&#45;&gt;eth_output -->
<g id="edge60" class="edge">
<title>ip6_output&#45;&gt;eth_output</title>
<path fill="none" stroke="black" d="M1437.42,-361.31C1442.14,-433.75 1462.51,-699.55 1510.93,-766 1514.81,-771.32 1520.05,-775.69 1525.71,-779.24"/>
<polygon fill="black" stroke="black" points="1524.35,-782.49 1534.81,-784.18 1527.69,-776.33 1524.35,-782.49"/>
</g>
<!-- ip6_output&#45;&gt;loopback_output -->
<g id="edge62" class="edge">
<title>ip6_output&#45;&gt;loopback_output</title>
<path fill="none" stroke="black" d="M1449.06,-359.32C1471.04,-387.48 1516.23,-445.34 1542.3,-478.73"/>
<polygon fill="black" stroke="black" points="1539.58,-480.93 1548.49,-486.66 1545.09,-476.63 1539.58,-480.93"/>
</g>
<!-- ip6_output&#45;&gt;sr6_headend -->
<g id="edge63" class="edge">
<title>ip6_output&#45;&gt;sr6_headend</title>
<path fill="none" stroke="black" d="M1412.86,-355.96C1399.23,-361.94 1381.1,-368.71 1364.52,-374.13"/>
<polygon fill="black" stroke="black" points="1363.45,-370.79 1354.98,-377.15 1365.57,-377.47 1363.45,-370.79"/>
</g>
<!-- ip6_hold -->
<g id="node38" class="node">
<title>ip6_hold</title>
<ellipse fill="none" stroke="black" cx="1563.03" cy="-368" rx="27" ry="18"/>
<text text-anchor="middle" x="1563.03" y="-365.2" font-family="sans" font-size="11.00">ip6_hold</text>
</g>
<!-- ip6_output&#45;&gt;ip6_hold -->
<g id="edge61" class="edge">
<title>ip6_output&#45;&gt;ip6_hold</title>
<path fill="none" stroke="black" d="M1465.15,-348.74C1483.46,-352.38 1507.29,-357.11 1526.73,-360.98"/>
<polygon fill="black" stroke="black" points="1526.24,-364.45 1536.73,-362.97 1527.6,-357.59 1526.24,-364.45"/>
</g>
<!-- ndp_na_output&#45;&gt;icmp6_output -->
<g id="edge65" class="edge">
<title>ndp_na_output&#45;&gt;icmp6_output</title>
<path fill="none" stroke="black" d="M586.88,-159.25C641.11,-159.55 737.27,-160 819.59,-160 819.59,-160 819.59,-160 1058.58,-160 1134.65,-160 1222,-175.72 1273.61,-186.67"/>
<polygon fill="black" stroke="black" points="1272.92,-190.1 1283.44,-188.79 1274.4,-183.26 1272.92,-190.1"/>
</g>
<!-- control_output -->
<g id="node11" class="node">
<title>control_output</title>
<ellipse fill="none" stroke="black" cx="1694.01" cy="-375" rx="42.75" ry="18"/>
<text text-anchor="middle" x="1694.01" y="-372.2" font-family="sans" font-size="11.00">control_output</text>
</g>
<!-- eth_input -->
<g id="node12" class="node">
<title>eth_input</title>
<ellipse fill="none" stroke="black" cx="158.65" cy="-685" rx="27.86" ry="18"/>
<text text-anchor="middle" x="158.65" y="-682.2" font-family="sans" font-size="11.00">eth_input</text>
</g>
<!-- arp_input -->
<g id="node13" class="node">
<title>arp_input</title>
<ellipse fill="none" stroke="black" cx="1435.31" cy="-697" rx="28.44" ry="18"/>
<text text-anchor="middle" x="1435.31" y="-694.2" font-family="sans" font-size="11.00">arp_input</text>
</g>
<!-- eth_input&#45;&gt;arp_input -->
<g id="edge11" class="edge">
<title>eth_input&#45;&gt;arp_input</title>
<path fill="none" stroke="black" d="M184.43,-691.75C230.26,-703.62 331.56,-727 418.52,-727 418.52,-727 418.52,-727 680.3,-727 847.69,-727 889.19,-743 1056.58,-743 1056.58,-743 1056.58,-743 1187.93,-743 1264.75,-743 1352.79,-721.12 1400.04,-707.54"/>
<polygon fill="black" stroke="black" points="1401.15,-710.87 1409.76,-704.7 1399.18,-704.15 1401.15,-710.87"/>
</g>
<!-- eth_input&#45;&gt;ip_input -->
<g id="edge12" class="edge">
<title>eth_input&#45;&gt;ip_input</title>
<path fill="none" stroke="black" d="M186.34,-685.68C255,-686.6 442.47,-683.78 586.86,-632 611.34,-623.22 636.07,-606.99 653.63,-593.92"/>
<polygon fill="black" stroke="black" points="655.81,-596.66 661.64,-587.81 651.57,-591.1 655.81,-596.66"/>
</g>
<!-- eth_input&#45;&gt;ip6_input -->
<g id="edge13" class="edge">
<title>eth_input&#45;&gt;ip6_input</title>
<path fill="none" stroke="black" d="M171.79,-668.82C194.45,-638.6 243.33,-573.41 270.13,-537.68"/>
<polygon fill="black" stroke="black" points="273.24,-539.36 276.44,-529.26 267.64,-535.16 273.24,-539.36"/>
</g>
<!-- arp_input_request -->
<g id="node21" class="node">
<title>arp_input_request</title>
<ellipse fill="none" stroke="black" cx="1563.03" cy="-685" rx="52.2" ry="18"/>
<text text-anchor="middle" x="1563.03" y="-682.2" font-family="sans" font-size="11.00">arp_input_request</text>
</g>
<!-- arp_input&#45;&gt;arp_input_request -->
<g id="edge21" class="edge">
<title>arp_input&#45;&gt;arp_input_request</title>
<path fill="none" stroke="black" d="M1463.28,-694.43C1474.72,-693.33 1488.55,-692.01 1502.19,-690.71"/>
<polygon fill="black" stroke="black" points="1502.91,-694.16 1512.53,-689.72 1502.25,-687.19 1502.91,-694.16"/>
</g>
<!-- arp_input_reply -->
<g id="node22" class="node">
<title>arp_input_reply</title>
<ellipse fill="none" stroke="black" cx="1563.03" cy="-739" rx="45.09" ry="18"/>
<text text-anchor="middle" x="1563.03" y="-736.2" font-family="sans" font-size="11.00">arp_input_reply</text>
</g>
<!-- arp_input&#45;&gt;arp_input_reply -->
<g id="edge22" class="edge">
<title>arp_input&#45;&gt;arp_input_reply</title>
<path fill="none" stroke="black" d="M1460.55,-705.1C1476.91,-710.56 1498.96,-717.93 1518.34,-724.4"/>
<polygon fill="black" stroke="black" points="1517.29,-727.74 1527.88,-727.59 1519.51,-721.1 1517.29,-727.74"/>
</g>
<!-- ip_input&#45;&gt;ip_output -->
<g id="edge34" class="edge">
<title>ip_input&#45;&gt;ip_output</title>
<path fill="none" stroke="black" d="M698.17,-561.12C715.89,-549.13 744.28,-531.94 771.75,-524 905.99,-485.17 1074.57,-490.26 1148.39,-495"/>
<polygon fill="black" stroke="black" points="1148.37,-498.51 1158.58,-495.69 1148.84,-491.52 1148.37,-498.51"/>
</g>
<!-- ip_forward -->
<g id="node25" class="node">
<title>ip_forward</title>
<ellipse fill="none" stroke="black" cx="820.59" cy="-551" rx="32.04" ry="18"/>
<text text-anchor="middle" x="820.59" y="-548.2" font-family="sans" font-size="11.00">ip_forward</text>
</g>
<!-- ip_input&#45;&gt;ip_forward -->
<g id="edge33" class="edge">
<title>ip_input&#45;&gt;ip_forward</title>
<path fill="none" stroke="black" d="M705.85,-569.78C726.37,-566.39 755.58,-561.57 779.25,-557.66"/>
<polygon fill="black" stroke="black" points="780.06,-561.07 789.36,-555.99 778.92,-554.17 780.06,-561.07"/>
</g>
<!-- ip_input_local -->
<g id="node27" class="node">
<title>ip_input_local</title>
<ellipse fill="none" stroke="black" cx="820.59" cy="-643" rx="40.32" ry="18"/>
<text text-anchor="middle" x="820.59" y="-640.2" font-family="sans" font-size="11.00">ip_input_local</text>
</g>
<!-- ip_input&#45;&gt;ip_input_local -->
<g id="edge35" class="edge">
<title>ip_input&#45;&gt;ip_input_local</title>
<path fill="none" stroke="black" d="M701.46,-584.48C723.28,-595.29 757.72,-612.35 783.8,-625.27"/>
<polygon fill="black" stroke="black" points="782.47,-628.52 792.98,-629.82 785.58,-622.24 782.47,-628.52"/>
</g>
<!-- ip6_input&#45;&gt;ip6_output -->
<g id="edge54" class="edge">
<title>ip6_input&#45;&gt;ip6_output</title>
<path fill="none" stroke="black" d="M316.17,-507.38C355.33,-498.91 432.65,-482.85 498.94,-473 762.21,-433.87 833.35,-461.52 1094.48,-410 1178.47,-393.43 1195.21,-371.66 1279.37,-356 1317.76,-348.86 1362.23,-345.64 1393.66,-344.19"/>
<polygon fill="black" stroke="black" points="1393.94,-347.68 1403.79,-343.76 1393.65,-340.68 1393.94,-347.68"/>
</g>
<!-- ip6_forward -->
<g id="node37" class="node">
<title>ip6_forward</title>
<ellipse fill="none" stroke="black" cx="1057.58" cy="-383" rx="35.06" ry="18"/>
<text text-anchor="middle" x="1057.58" y="-380.2" font-family="sans" font-size="11.00">ip6_forward</text>
</g>
<!-- ip6_input&#45;&gt;ip6_forward -->
<g id="edge53" class="edge">
<title>ip6_input&#45;&gt;ip6_forward</title>
<path fill="none" stroke="black" d="M309.4,-500.16C326.34,-488.92 352.2,-472.62 376.1,-461 428.53,-435.52 442.43,-429.33 498.94,-415 659.39,-374.31 703.93,-374.35 869.44,-377 918.16,-377.78 973.99,-379.7 1011.9,-381.16"/>
<polygon fill="black" stroke="black" points="1011.96,-384.67 1022.09,-381.56 1012.24,-377.68 1011.96,-384.67"/>
</g>
<!-- ip6_input_local -->
<g id="node39" class="node">
<title>ip6_input_local</title>
<ellipse fill="none" stroke="black" cx="419.52" cy="-559" rx="43.34" ry="18"/>
<text text-anchor="middle" x="419.52" y="-556.2" font-family="sans" font-size="11.00">ip6_input_local</text>
</g>
<!-- ip6_input&#45;&gt;ip6_input_local -->
<g id="edge55" class="edge">
<title>ip6_input&#45;&gt;ip6_input_local</title>
<path fill="none" stroke="black" d="M314.09,-521.44C331.52,-527.71 355.77,-536.43 376.51,-543.89"/>
<polygon fill="black" stroke="black" points="375.47,-547.23 386.06,-547.33 377.84,-540.65 375.47,-547.23"/>
</g>
<!-- port_tx -->
<g id="node17" class="node">
<title>port_tx</title>
<ellipse fill="none" stroke="black" cx="1694.01" cy="-831" rx="27" ry="18"/>
<text text-anchor="middle" x="1694.01" y="-828.2" font-family="sans" font-size="11.00">port_tx</text>
</g>
<!-- eth_output&#45;&gt;port_tx -->
<g id="edge14" class="edge">
<title>eth_output&#45;&gt;port_tx</title>
<path fill="none" stroke="black" d="M1591.7,-801.15C1611.42,-806.96 1638.04,-814.81 1659.05,-821"/>
<polygon fill="black" stroke="black" points="1658.27,-824.42 1668.86,-823.88 1660.25,-817.7 1658.27,-824.42"/>
</g>
<!-- l1_xconnect -->
<g id="node18" class="node">
<title>l1_xconnect</title>
<ellipse fill="none" stroke="black" cx="289.63" cy="-853" rx="34.38" ry="18"/>
<text text-anchor="middle" x="289.63" y="-850.2" font-family="sans" font-size="11.00">l1_xconnect</text>
</g>
<!-- l1_xconnect&#45;&gt;port_tx -->
<g id="edge15" class="edge">
<title>l1_xconnect&#45;&gt;port_tx</title>
<path fill="none" stroke="black" d="M323.96,-853.87C372.07,-855.04 463.8,-857 541.9,-857 541.9,-857 541.9,-857 1436.31,-857 1515.6,-857 1607.97,-844.57 1657.42,-836.9"/>
<polygon fill="black" stroke="black" points="1658.26,-840.31 1667.59,-835.29 1657.16,-833.39 1658.26,-840.31"/>
</g>
<!-- loopback_output&#45;&gt;control_output -->
<g id="edge18" class="edge">
<title>loopback_output&#45;&gt;control_output</title>
<path fill="none" stroke="black" d="M1580.89,-487.14C1603.51,-464.51 1643.8,-424.21 1669.42,-398.59"/>
<polygon fill="black" stroke="black" points="1671.95,-401.01 1676.55,-391.46 1667,-396.06 1671.95,-401.01"/>
</g>
<!-- port_rx -->
<g id="node20" class="node">
<title>port_rx</title>
<ellipse fill="none" stroke="blue" stroke-width="2" cx="39.08" cy="-784" rx="27" ry="18"/>
<text text-anchor="middle" x="39.08" y="-781.2" font-family="sans" font-size="11.00">port_rx</text>
</g>
<!-- port_rx&#45;&gt;eth_input -->
<g id="edge19" class="edge">
<title>port_rx&#45;&gt;eth_input</title>
<path fill="none" stroke="blue" stroke-width="2" d="M56.67,-770.03C76.52,-753.32 109.92,-725.19 132.84,-705.9"/>
<polygon fill="blue" stroke="blue" stroke-width="2" points="135.37,-708.34 140.76,-699.22 130.86,-702.99 135.37,-708.34"/>
</g>
<!-- port_rx&#45;&gt;l1_xconnect -->
<g id="edge20" class="edge">
<title>port_rx&#45;&gt;l1_xconnect</title>
<path fill="none" stroke="blue" stroke-width="2" d="M60.27,-795.22C74.85,-802.91 95.23,-812.79 114.15,-819 158.06,-833.4 210.29,-842.59 246.09,-847.73"/>
<polygon fill="blue" stroke="blue" stroke-width="2" points="245.8,-851.22 256.18,-849.14 246.76,-844.29 245.8,-851.22"/>
</g>
<!-- arp_input_request&#45;&gt;control_output -->
<g id="edge24" class="edge">
<title>arp_input_request&#45;&gt;control_output</title>
<path fill="none" stroke="black" d="M1595.1,-670.61C1602.55,-665.91 1609.86,-660.04 1615.13,-653 1672.99,-575.65 1687.87,-457.21 1691.69,-403.38"/>
<polygon fill="black" stroke="black" points="1695.19,-403.41 1692.33,-393.21 1688.21,-402.97 1695.19,-403.41"/>
</g>
<!-- arp_input_reply&#45;&gt;control_output -->
<g id="edge23" class="edge">
<title>arp_input_reply&#45;&gt;control_output</title>
<path fill="none" stroke="black" d="M1596.87,-726.99C1603.75,-723.13 1610.36,-718.2 1615.13,-712 1652.75,-663.11 1680.15,-475.64 1689.5,-403.51"/>
<polygon fill="black" stroke="black" points="1693,-403.71 1690.79,-393.35 1686.06,-402.82 1693,-403.71"/>
</g>
<!-- icmp_input -->
<g id="node23" class="node">
<title>icmp_input</title>
<ellipse fill="none" stroke="black" cx="945.05" cy="-643" rx="32.63" ry="18"/>
<text text-anchor="middle" x="945.05" y="-640.2" font-family="sans" font-size="11.00">icmp_input</text>
</g>
<!-- icmp_input&#45;&gt;control_output -->
<g id="edge28" class="edge">
<title>icmp_input&#45;&gt;control_output</title>
<path fill="none" stroke="black" d="M977.48,-644.72C1023.29,-647.07 1111.13,-651 1185.93,-651 1185.93,-651 1185.93,-651 1320.53,-651 1461.91,-651 1511.43,-627.09 1615.13,-531 1653.36,-495.57 1675.4,-437.23 1685.72,-402.82"/>
<polygon fill="black" stroke="black" points="1689.16,-403.54 1688.56,-392.97 1682.43,-401.61 1689.16,-403.54"/>
</g>
<!-- icmp_input&#45;&gt;icmp_output -->
<g id="edge27" class="edge">
<title>icmp_input&#45;&gt;icmp_output</title>
<path fill="none" stroke="black" d="M970.04,-631.28C985.14,-623.9 1004.9,-614.25 1021.72,-606.03"/>
<polygon fill="black" stroke="black" points="1023.27,-609.17 1030.71,-601.64 1020.19,-602.88 1023.27,-609.17"/>
</g>
<!-- icmp_output&#45;&gt;ip_output -->
<g id="edge30" class="edge">
<title>icmp_output&#45;&gt;ip_output</title>
<path fill="none" stroke="black" d="M1079.32,-574.18C1101.04,-558.66 1135.23,-534.22 1159.02,-517.23"/>
<polygon fill="black" stroke="black" points="1161.16,-520 1167.26,-511.33 1157.09,-514.3 1161.16,-520"/>
</g>
<!-- ip_forward&#45;&gt;ip_output -->
<g id="edge31" class="edge">
<title>ip_forward&#45;&gt;ip_output</title>
<path fill="none" stroke="black" d="M852.44,-548.49C903.17,-544.11 1007.29,-534.08 1094.48,-519 1113.09,-515.78 1133.6,-511.17 1150.47,-507.09"/>
<polygon fill="black" stroke="black" points="1151.58,-510.42 1160.46,-504.63 1149.91,-503.62 1151.58,-510.42"/>
</g>
<!-- ip_hold&#45;&gt;control_output -->
<g id="edge32" class="edge">
<title>ip_hold&#45;&gt;control_output</title>
<path fill="none" stroke="black" d="M1346.3,-434.29C1397.72,-428.67 1516.58,-414.62 1615.13,-395 1625.82,-392.87 1637.23,-390.18 1647.92,-387.47"/>
<polygon fill="black" stroke="black" points="1649.11,-390.78 1657.92,-384.88 1647.36,-384 1649.11,-390.78"/>
</g>
<!-- ip_input_local&#45;&gt;icmp_input -->
<g id="edge36" class="edge">
<title>ip_input_local&#45;&gt;icmp_input</title>
<path fill="none" stroke="black" d="M861.01,-643C874.14,-643 888.81,-643 902.13,-643"/>
<polygon fill="black" stroke="black" points="902.46,-646.5 912.46,-643 902.46,-639.5 902.46,-646.5"/>
</g>
<!-- ipip_input -->
<g id="node28" class="node">
<title>ipip_input</title>
<ellipse fill="none" stroke="black" cx="945.05" cy="-589" rx="29.12" ry="18"/>
<text text-anchor="middle" x="945.05" y="-586.2" font-family="sans" font-size="11.00">ipip_input</text>
</g>
<!-- ip_input_local&#45;&gt;ipip_input -->
<g id="edge37" class="edge">
<title>ip_input_local&#45;&gt;ipip_input</title>
<path fill="none" stroke="black" d="M849.99,-630.48C868.37,-622.37 892.35,-611.8 911.49,-603.36"/>
<polygon fill="black" stroke="black" points="912.99,-606.52 920.73,-599.28 910.17,-600.12 912.99,-606.52"/>
</g>
<!-- l4_input_local -->
<g id="node29" class="node">
<title>l4_input_local</title>
<ellipse fill="none" stroke="black" cx="945.05" cy="-697" rx="39.74" ry="18"/>
<text text-anchor="middle" x="945.05" y="-694.2" font-family="sans" font-size="11.00">l4_input_local</text>
</g>
<!-- ip_input_local&#45;&gt;l4_input_local -->
<g id="edge38" class="edge">
<title>ip_input_local&#45;&gt;l4_input_local</title>
<path fill="none" stroke="black" d="M849.99,-655.52C866.84,-662.95 888.4,-672.46 906.62,-680.49"/>
<polygon fill="black" stroke="black" points="905.24,-683.71 915.8,-684.54 908.07,-677.31 905.24,-683.71"/>
</g>
<!-- ipip_input&#45;&gt;ip_input -->
<g id="edge69" class="edge">
<title>ipip_input&#45;&gt;ip_input</title>
<path fill="none" stroke="black" d="M915.52,-587.38C867.36,-584.64 769.98,-579.1 716.87,-576.08"/>
<polygon fill="black" stroke="black" points="716.74,-572.57 706.56,-575.49 716.34,-579.56 716.74,-572.57"/>
</g>
<!-- l4_loopback_output -->
<g id="node42" class="node">
<title>l4_loopback_output</title>
<ellipse fill="none" stroke="black" cx="1186.93" cy="-697" rx="56.39" ry="18"/>
<text text-anchor="middle" x="1186.93" y="-694.2" font-family="sans" font-size="11.00">l4_loopback_output</text>
</g>
<!-- l4_input_local&#45;&gt;l4_loopback_output -->
<g id="edge71" class="edge">
<title>l4_input_local&#45;&gt;l4_loopback_output</title>
<path fill="none" stroke="black" d="M984.86,-697C1021.32,-697 1076.6,-697 1119.98,-697"/>
<polygon fill="black" stroke="black" points="1120.17,-700.5 1130.17,-697 1120.17,-693.5 1120.17,-700.5"/>
</g>
<!-- ipip_output&#45;&gt;ip_output -->
<g id="edge70" class="edge">
<title>ipip_output&#45;&gt;ip_output</title>
<path fill="none" stroke="black" d="M1288.63,-498.38C1269.65,-500.56 1244.95,-502 1224.76,-502.17"/>
<polygon fill="black" stroke="black" points="1224.68,-498.67 1214.67,-502.14 1224.66,-505.67 1224.68,-498.67"/>
</g>
<!-- sr6_headend&#45;&gt;ip6_output -->
<g id="edge79" class="edge">
<title>sr6_headend&#45;&gt;ip6_output</title>
<path fill="none" stroke="black" d="M1343.83,-369.24C1358.5,-362.9 1377.82,-355.82 1394.84,-350.42"/>
<polygon fill="black" stroke="black" points="1396,-353.72 1404.54,-347.45 1393.96,-347.03 1396,-353.72"/>
</g>
<!-- icmp6_input -->
<g id="node32" class="node">
<title>icmp6_input</title>
<ellipse fill="none" stroke="black" cx="1186.93" cy="-72" rx="35.64" ry="18"/>
<text text-anchor="middle" x="1186.93" y="-69.2" font-family="sans" font-size="11.00">icmp6_input</text>
</g>
<!-- icmp6_input&#45;&gt;control_output -->
<g id="edge48" class="edge">
<title>icmp6_input&#45;&gt;control_output</title>
<path fill="none" stroke="black" d="M1211.68,-85.23C1244.96,-103.83 1307.26,-138.93 1359.69,-170 1471.15,-236.05 1601.52,-317.46 1660.77,-354.69"/>
<polygon fill="black" stroke="black" points="1658.99,-357.7 1669.32,-360.06 1662.72,-351.78 1658.99,-357.7"/>
</g>
<!-- icmp6_input&#45;&gt;icmp6_output -->
<g id="edge44" class="edge">
<title>icmp6_input&#45;&gt;icmp6_output</title>
<path fill="none" stroke="black" d="M1214.38,-83.7C1224.26,-88.93 1235.08,-95.79 1243.37,-104 1265.74,-126.15 1258.86,-141.11 1279.37,-165 1282.49,-168.64 1286.07,-172.18 1289.76,-175.5"/>
<polygon fill="black" stroke="black" points="1287.49,-178.18 1297.38,-181.97 1292.02,-172.84 1287.49,-178.18"/>
</g>
<!-- ndp_ns_input -->
<g id="node34" class="node">
<title>ndp_ns_input</title>
<ellipse fill="none" stroke="black" cx="1435.31" cy="-126" rx="39.15" ry="18"/>
<text text-anchor="middle" x="1435.31" y="-123.2" font-family="sans" font-size="11.00">ndp_ns_input</text>
</g>
<!-- icmp6_input&#45;&gt;ndp_ns_input -->
<g id="edge45" class="edge">
<title>icmp6_input&#45;&gt;ndp_ns_input</title>
<path fill="none" stroke="black" d="M1220.14,-79.06C1263.49,-88.56 1340.81,-105.51 1389.73,-116.23"/>
<polygon fill="black" stroke="black" points="1389.19,-119.69 1399.71,-118.42 1390.69,-112.86 1389.19,-119.69"/>
</g>
<!-- ndp_na_input -->
<g id="node35" class="node">
<title>ndp_na_input</title>
<ellipse fill="none" stroke="black" cx="1435.31" cy="-72" rx="39.74" ry="18"/>
<text text-anchor="middle" x="1435.31" y="-69.2" font-family="sans" font-size="11.00">ndp_na_input</text>
</g>
<!-- icmp6_input&#45;&gt;ndp_na_input -->
<g id="edge46" class="edge">
<title>icmp6_input&#45;&gt;ndp_na_input</title>
<path fill="none" stroke="black" d="M1222.96,-72C1265.42,-72 1337.21,-72 1385.17,-72"/>
<polygon fill="black" stroke="black" points="1385.33,-75.5 1395.33,-72 1385.33,-68.5 1385.33,-75.5"/>
</g>
<!-- ndp_rs_input -->
<g id="node36" class="node">
<title>ndp_rs_input</title>
<ellipse fill="none" stroke="black" cx="1435.31" cy="-18" rx="37.98" ry="18"/>
<text text-anchor="middle" x="1435.31" y="-15.2" font-family="sans" font-size="11.00">ndp_rs_input</text>
</g>
<!-- icmp6_input&#45;&gt;ndp_rs_input -->
<g id="edge47" class="edge">
<title>icmp6_input&#45;&gt;ndp_rs_input</title>
<path fill="none" stroke="black" d="M1220.14,-64.94C1263.73,-55.39 1341.68,-38.3 1390.55,-27.59"/>
<polygon fill="black" stroke="black" points="1391.49,-30.97 1400.51,-25.41 1389.99,-24.13 1391.49,-30.97"/>
</g>
<!-- icmp6_output&#45;&gt;ip6_output -->
<g id="edge49" class="edge">
<title>icmp6_output&#45;&gt;ip6_output</title>
<path fill="none" stroke="black" d="M1341.5,-212.18C1347.71,-217.17 1354.29,-222.99 1359.69,-229 1384.27,-256.32 1406.5,-292.47 1420.18,-316.67"/>
<polygon fill="black" stroke="black" points="1417.24,-318.59 1425.16,-325.63 1423.36,-315.19 1417.24,-318.59"/>
</g>
<!-- ndp_ns_input&#45;&gt;control_output -->
<g id="edge66" class="edge">
<title>ndp_ns_input&#45;&gt;control_output</title>
<path fill="none" stroke="black" d="M1473.69,-122.49C1513.35,-120.87 1575.63,-124.61 1615.13,-158 1672.28,-206.3 1687.49,-299.77 1691.54,-346.69"/>
<polygon fill="black" stroke="black" points="1688.06,-347.05 1692.3,-356.76 1695.04,-346.53 1688.06,-347.05"/>
</g>
<!-- ndp_na_input&#45;&gt;control_output -->
<g id="edge64" class="edge">
<title>ndp_na_input&#45;&gt;control_output</title>
<path fill="none" stroke="black" d="M1475.04,-71.74C1515.24,-73.58 1577.43,-82.72 1615.13,-119 1679.35,-180.8 1691.05,-293.75 1692.88,-346.48"/>
<polygon fill="black" stroke="black" points="1689.39,-346.86 1693.14,-356.77 1696.39,-346.69 1689.39,-346.86"/>
</g>
<!-- ndp_rs_input&#45;&gt;control_output -->
<g id="edge68" class="edge">
<title>ndp_rs_input&#45;&gt;control_output</title>
<path fill="none" stroke="black" d="M1473.26,-18.92C1513.74,-21.98 1577.87,-33.15 1615.13,-72 1653.33,-111.82 1679.95,-279.31 1689.31,-346.72"/>
<polygon fill="black" stroke="black" points="1685.89,-347.57 1690.71,-357.01 1692.83,-346.63 1685.89,-347.57"/>
</g>
<!-- ip6_forward&#45;&gt;ip6_output -->
<g id="edge51" class="edge">
<title>ip6_forward&#45;&gt;ip6_output</title>
<path fill="none" stroke="black" d="M1085.37,-371.61C1137.73,-350.7 1257.43,-309.53 1359.69,-323 1372.36,-324.67 1385.94,-327.87 1398,-331.23"/>
<polygon fill="black" stroke="black" points="1397.13,-334.62 1407.71,-334.05 1399.09,-327.9 1397.13,-334.62"/>
</g>
<!-- ip6_hold&#45;&gt;control_output -->
<g id="edge52" class="edge">
<title>ip6_hold&#45;&gt;control_output</title>
<path fill="none" stroke="black" d="M1590.13,-369.42C1604.84,-370.21 1623.73,-371.24 1641.3,-372.19"/>
<polygon fill="black" stroke="black" points="1641.28,-375.7 1651.46,-372.74 1641.66,-368.71 1641.28,-375.7"/>
</g>
<!-- ip6_input_local&#45;&gt;l4_input_local -->
<g id="edge57" class="edge">
<title>ip6_input_local&#45;&gt;l4_input_local</title>
<path fill="none" stroke="black" d="M433.75,-576.35C447.88,-593.51 471.94,-619.05 498.94,-632 631.76,-695.72 810.51,-700.83 895.4,-699.1"/>
<polygon fill="black" stroke="black" points="895.61,-702.6 905.52,-698.86 895.44,-695.6 895.61,-702.6"/>
</g>
<!-- ip6_input_local&#45;&gt;icmp6_input -->
<g id="edge56" class="edge">
<title>ip6_input_local&#45;&gt;icmp6_input</title>
<path fill="none" stroke="black" d="M448.74,-545.33C504.37,-518.19 631.81,-455.02 735.75,-396 796.56,-361.47 811.84,-352.67 869.44,-313 980.11,-236.76 1105.39,-137.18 1159.13,-93.79"/>
<polygon fill="black" stroke="black" points="1161.56,-96.33 1167.13,-87.32 1157.15,-90.89 1161.56,-96.33"/>
</g>
<!-- sr6_local -->
<g id="node40" class="node">
<title>sr6_local</title>
<ellipse fill="none" stroke="black" cx="542.9" cy="-605" rx="27" ry="18"/>
<text text-anchor="middle" x="542.9" y="-602.2" font-family="sans" font-size="11.00">sr6_local</text>
</g>
<!-- ip6_input_local&#45;&gt;sr6_local -->
<g id="edge58" class="edge">
<title>ip6_input_local&#45;&gt;sr6_local</title>
<path fill="none" stroke="black" d="M458.59,-567.11C476.33,-573.12 497.07,-581.14 513.41,-588.38"/>
<polygon fill="black" stroke="black" points="512.41,-591.77 522.96,-592.76 515.33,-585.41 512.41,-591.77"/>
</g>
<!-- sr6_local_srh -->
<g id="node41" class="node">
<title>sr6_local_srh</title>
<ellipse fill="none" stroke="black" cx="542.9" cy="-551" rx="37.4" ry="18"/>
<text text-anchor="middle" x="542.9" y="-548.2" font-family="sans" font-size="11.00">sr6_local_srh</text>
</g>
<!-- ip6_input_local&#45;&gt;sr6_local_srh -->
<g id="edge59" class="edge">
<title>ip6_input_local&#45;&gt;sr6_local_srh</title>
<path fill="none" stroke="black" d="M457.6,-550.28C469.69,-548.97 483.26,-547.98 495.93,-547.46"/>
<polygon fill="black" stroke="black" points="496.41,-550.95 506.3,-547.14 496.19,-543.95 496.41,-550.95"/>
</g>
<!-- sr6_local&#45;&gt;ip_input -->
<g id="edge73" class="edge">
<title>sr6_local&#45;&gt;ip_input</title>
<path fill="none" stroke="black" d="M568.55,-599.31C589.54,-594.47 619.95,-587.46 643.43,-582.04"/>
<polygon fill="black" stroke="black" points="644.39,-585.41 653.35,-579.75 642.82,-578.59 644.39,-585.41"/>
</g>
<!-- sr6_local&#45;&gt;ip6_input -->
<g id="edge74" class="edge">
<title>sr6_local&#45;&gt;ip6_input</title>
<path fill="none" stroke="black" d="M515.99,-606.59C482.31,-607.66 422.33,-606.12 376.1,-586 350.42,-574.82 326.67,-553.24 310.76,-536.42"/>
<polygon fill="black" stroke="black" points="312.94,-533.62 303.6,-528.62 307.78,-538.35 312.94,-533.62"/>
</g>
<!-- sr6_local&#45;&gt;ip6_input_local -->
<g id="edge75" class="edge">
<title>sr6_local&#45;&gt;ip6_input_local</title>
<path fill="none" stroke="black" d="M516.42,-600.96C498.29,-595.41 473.75,-586.28 454.03,-577.81"/>
<polygon fill="black" stroke="black" points="455.35,-574.57 444.79,-573.72 452.52,-580.97 455.35,-574.57"/>
</g>
<!-- sr6_local_srh&#45;&gt;ip_input -->
<g id="edge76" class="edge">
<title>sr6_local_srh&#45;&gt;ip_input</title>
<path fill="none" stroke="black" d="M578.51,-556.92C598.25,-560.3 622.94,-564.53 642.82,-567.93"/>
<polygon fill="black" stroke="black" points="642.28,-571.39 652.72,-569.62 643.46,-564.49 642.28,-571.39"/>
</g>
<!-- sr6_local_srh&#45;&gt;ip6_input -->
<g id="edge77" class="edge">
<title>sr6_local_srh&#45;&gt;ip6_input</title>
<path fill="none" stroke="black" d="M509.82,-542.31C495.55,-538.69 478.5,-534.72 462.94,-532 416.59,-523.9 362.6,-518.61 327.57,-515.72"/>
<polygon fill="black" stroke="black" points="327.59,-512.21 317.34,-514.89 327.03,-519.18 327.59,-512.21"/>
</g>
<!-- sr6_local_srh&#45;&gt;ip6_input_local -->
<g id="edge78" class="edge">
<title>sr6_local_srh&#45;&gt;ip6_input_local</title>
<path fill="none" stroke="black" d="M509.25,-559.22C497.97,-560.55 485.03,-561.61 472.58,-562.26"/>
<polygon fill="black" stroke="black" points="472.13,-558.77 462.29,-562.7 472.43,-565.77 472.13,-558.77"/>
</g>
<!-- l4_loopback_output&#45;&gt;loopback_output -->
<g id="edge72" class="edge">
<title>l4_loopback_output&#45;&gt;loopback_output</title>
<path fill="none" stroke="black" d="M1217.59,-681.69C1285.21,-646.81 1450.63,-561.47 1524.88,-523.16"/>
<polygon fill="black" stroke="black" points="1526.61,-526.21 1533.9,-518.51 1523.4,-519.99 1526.61,-526.21"/>
</g>
</g>
</svg>
