<?xml version="1.0" encoding="UTF-8" standalone="no"?>
<!DOCTYPE svg PUBLIC "-//W3C//DTD SVG 1.1//EN"
 "http://www.w3.org/Graphics/SVG/1.1/DTD/svg11.dtd">
<!-- Generated by graphviz version 13.1.2 (20250808.2320)
 -->
<!-- Pages: 1 -->
<svg width="2369pt" height="925pt"
 viewBox="0.00 0.00 2369.00 925.00" xmlns="http://www.w3.org/2000/svg" xmlns:xlink="http://www.w3.org/1999/xlink">
<g id="graph0" class="graph" transform="scale(1 1) rotate(0) translate(4 921)">
<polygon fill="white" stroke="none" points="-4,4 -4,-921 2364.99,-921 2364.99,4 -4,4"/>
<!-- bond_output -->
<g id="node1" class="node">
<title>bond_output</title>
<ellipse fill="none" stroke="black" cx="2120.23" cy="-791" rx="39.94" ry="18"/>
<text xml:space="preserve" text-anchor="middle" x="2120.23" y="-787.3" font-family="sans" font-size="11.00">bond_output</text>
</g>
<!-- port_output -->
<g id="node3" class="node">
<title>port_output</title>
<ellipse fill="none" stroke="black" cx="2233.58" cy="-745" rx="37.41" ry="18"/>
<text xml:space="preserve" text-anchor="middle" x="2233.58" y="-741.3" font-family="sans" font-size="11.00">port_output</text>
</g>
<!-- bond_output&#45;&gt;port_output -->
<g id="edge1" class="edge">
<title>bond_output&#45;&gt;port_output</title>
<path fill="none" stroke="black" d="M2150.49,-778.91C2163.73,-773.44 2179.58,-766.9 2193.8,-761.02"/>
<polygon fill="black" stroke="black" points="2194.98,-764.32 2202.89,-757.27 2192.31,-757.85 2194.98,-764.32"/>
</g>
<!-- iface_output -->
<g id="node2" class="node">
<title>iface_output</title>
<ellipse fill="none" stroke="black" cx="2004.77" cy="-791" rx="39.52" ry="18"/>
<text xml:space="preserve" text-anchor="middle" x="2004.77" y="-787.3" font-family="sans" font-size="11.00">iface_output</text>
</g>
<!-- iface_output&#45;&gt;bond_output -->
<g id="edge8" class="edge">
<title>iface_output&#45;&gt;bond_output</title>
<path fill="none" stroke="black" d="M2044.5,-791C2052.27,-791 2060.54,-791 2068.64,-791"/>
<polygon fill="black" stroke="black" points="2068.39,-794.5 2078.39,-791 2068.39,-787.5 2068.39,-794.5"/>
</g>
<!-- iface_output&#45;&gt;port_output -->
<g id="edge9" class="edge">
<title>iface_output&#45;&gt;port_output</title>
<path fill="none" stroke="black" d="M2034.69,-778.82C2048.31,-773.52 2064.91,-767.7 2080.29,-764 2114.86,-755.69 2154.78,-750.88 2185.06,-748.18"/>
<polygon fill="black" stroke="black" points="2184.99,-751.7 2194.66,-747.37 2184.4,-744.72 2184.99,-751.7"/>
</g>
<!-- port_tx -->
<g id="node5" class="node">
<title>port_tx</title>
<ellipse fill="none" stroke="black" cx="2333.99" cy="-745" rx="27" ry="18"/>
<text xml:space="preserve" text-anchor="middle" x="2333.99" y="-741.3" font-family="sans" font-size="11.00">port_tx</text>
</g>
<!-- port_output&#45;&gt;port_tx -->
<g id="edge15" class="edge">
<title>port_output&#45;&gt;port_tx</title>
<path fill="none" stroke="black" d="M2271.23,-745C2279.16,-745 2287.55,-745 2295.52,-745"/>
<polygon fill="black" stroke="black" points="2295.25,-748.5 2305.25,-745 2295.25,-741.5 2295.25,-748.5"/>
</g>
<!-- port_rx -->
<g id="node4" class="node">
<title>port_rx</title>
<ellipse fill="none" stroke="blue" stroke-width="2" cx="27" cy="-401" rx="27" ry="18"/>
<text xml:space="preserve" text-anchor="middle" x="27" y="-397.3" font-family="sans" font-size="11.00">port_rx</text>
</g>
<!-- xconnect -->
<g id="node6" class="node">
<title>xconnect</title>
<ellipse fill="none" stroke="black" cx="897.82" cy="-718" rx="29.83" ry="18"/>
<text xml:space="preserve" text-anchor="middle" x="897.82" y="-714.3" font-family="sans" font-size="11.00">xconnect</text>
</g>
<!-- port_rx&#45;&gt;xconnect -->
<g id="edge17" class="edge">
<title>port_rx&#45;&gt;xconnect</title>
<path fill="none" stroke="blue" stroke-width="2" d="M32.65,-418.95C50.12,-481.78 117.99,-688 256.1,-688 256.1,-688 256.1,-688 650.92,-688 724.62,-688 809.84,-701.44 858.13,-710.33"/>
<polygon fill="blue" stroke="blue" stroke-width="2" points="855.85,-713.46 866.32,-711.87 857.14,-706.58 855.85,-713.46"/>
</g>
<!-- eth_input -->
<g id="node7" class="node">
<title>eth_input</title>
<ellipse fill="none" stroke="black" cx="138.07" cy="-256" rx="30.25" ry="18"/>
<text xml:space="preserve" text-anchor="middle" x="138.07" y="-252.3" font-family="sans" font-size="11.00">eth_input</text>
</g>
<!-- port_rx&#45;&gt;eth_input -->
<g id="edge16" class="edge">
<title>port_rx&#45;&gt;eth_input</title>
<path fill="none" stroke="blue" stroke-width="2" d="M40.09,-384.93C58.91,-359.91 95.37,-311.44 117.84,-281.58"/>
<polygon fill="blue" stroke="blue" stroke-width="2" points="119.56,-285.1 122.78,-275.01 113.97,-280.9 119.56,-285.1"/>
</g>
<!-- xconnect&#45;&gt;port_output -->
<g id="edge19" class="edge">
<title>xconnect&#45;&gt;port_output</title>
<path fill="none" stroke="black" d="M926.41,-723.93C965.88,-731.87 1040.85,-745 1105.41,-745 1105.41,-745 1105.41,-745 1318.11,-745 1516.13,-745 1564.02,-707 1762.04,-707 1762.04,-707 1762.04,-707 2005.77,-707 2070.55,-707 2144.32,-722.26 2189.67,-733.44"/>
<polygon fill="black" stroke="black" points="2188.54,-736.77 2199.1,-735.82 2190.25,-729.98 2188.54,-736.77"/>
</g>
<!-- lacp_input -->
<g id="node10" class="node">
<title>lacp_input</title>
<polygon fill="none" stroke="dodgerblue" points="292.05,-36 222.15,-36 222.15,0 292.05,0 292.05,-36"/>
<text xml:space="preserve" text-anchor="middle" x="257.1" y="-14.3" font-family="sans" font-size="11.00">lacp_input</text>
</g>
<!-- eth_input&#45;&gt;lacp_input -->
<g id="edge3" class="edge">
<title>eth_input&#45;&gt;lacp_input</title>
<path fill="none" stroke="black" d="M143.53,-237.93C153.34,-200.46 179.42,-112.58 222.15,-50 223.38,-48.19 224.73,-46.41 226.16,-44.67"/>
<polygon fill="black" stroke="black" points="228.58,-47.21 232.77,-37.48 223.43,-42.48 228.58,-47.21"/>
</g>
<!-- snap_input -->
<g id="node12" class="node">
<title>snap_input</title>
<ellipse fill="none" stroke="black" cx="1106.41" cy="-79" rx="34.89" ry="18"/>
<text xml:space="preserve" text-anchor="middle" x="1106.41" y="-75.3" font-family="sans" font-size="11.00">snap_input</text>
</g>
<!-- eth_input&#45;&gt;snap_input -->
<g id="edge2" class="edge">
<title>eth_input&#45;&gt;snap_input</title>
<path fill="none" stroke="black" d="M147.65,-238.64C160.77,-213.52 187.95,-166.78 222.15,-137 281.47,-85.34 304.72,-64 383.37,-64 383.37,-64 383.37,-64 898.82,-64 954.75,-64 1018.96,-69.54 1060.76,-73.88"/>
<polygon fill="black" stroke="black" points="1060.37,-77.36 1070.69,-74.94 1061.11,-70.4 1060.37,-77.36"/>
</g>
<!-- arp_input -->
<g id="node13" class="node">
<title>arp_input</title>
<ellipse fill="none" stroke="black" cx="257.1" cy="-164" rx="30.25" ry="18"/>
<text xml:space="preserve" text-anchor="middle" x="257.1" y="-160.3" font-family="sans" font-size="11.00">arp_input</text>
</g>
<!-- eth_input&#45;&gt;arp_input -->
<g id="edge4" class="edge">
<title>eth_input&#45;&gt;arp_input</title>
<path fill="none" stroke="black" d="M157.36,-241.62C176.6,-226.5 207.08,-202.54 229.09,-185.24"/>
<polygon fill="black" stroke="black" points="231.06,-188.14 236.75,-179.21 226.73,-182.64 231.06,-188.14"/>
</g>
<!-- ip_input -->
<g id="node25" class="node">
<title>ip_input</title>
<ellipse fill="none" stroke="black" cx="257.1" cy="-367" rx="27" ry="18"/>
<text xml:space="preserve" text-anchor="middle" x="257.1" y="-363.3" font-family="sans" font-size="11.00">ip_input</text>
</g>
<!-- eth_input&#45;&gt;ip_input -->
<g id="edge5" class="edge">
<title>eth_input&#45;&gt;ip_input</title>
<path fill="none" stroke="black" d="M154.86,-270.97C174.77,-289.86 209.21,-322.52 232.32,-344.44"/>
<polygon fill="black" stroke="black" points="229.81,-346.88 239.47,-351.23 234.62,-341.8 229.81,-346.88"/>
</g>
<!-- ip6_input -->
<g id="node31" class="node">
<title>ip6_input</title>
<ellipse fill="none" stroke="black" cx="1106.41" cy="-558" rx="29.41" ry="18"/>
<text xml:space="preserve" text-anchor="middle" x="1106.41" y="-554.3" font-family="sans" font-size="11.00">ip6_input</text>
</g>
<!-- eth_input&#45;&gt;ip6_input -->
<g id="edge6" class="edge">
<title>eth_input&#45;&gt;ip6_input</title>
<path fill="none" stroke="black" d="M145.54,-273.62C156.9,-302.41 183.02,-359.73 222.15,-394 260.75,-427.81 277.81,-429.56 328.05,-440 430.06,-461.2 476.09,-498.24 562.47,-440 597.85,-416.15 564.36,-376.63 598.47,-351 664.55,-301.35 700.82,-332 783.47,-332 783.47,-332 783.47,-332 898.82,-332 1004.7,-332 1070.87,-468.79 1095.04,-529.53"/>
<polygon fill="black" stroke="black" points="1091.78,-530.79 1098.65,-538.85 1098.31,-528.26 1091.78,-530.79"/>
</g>
<!-- eth_output -->
<g id="node8" class="node">
<title>eth_output</title>
<ellipse fill="none" stroke="black" cx="1894.37" cy="-791" rx="34.89" ry="18"/>
<text xml:space="preserve" text-anchor="middle" x="1894.37" y="-787.3" font-family="sans" font-size="11.00">eth_output</text>
</g>
<!-- eth_output&#45;&gt;iface_output -->
<g id="edge7" class="edge">
<title>eth_output&#45;&gt;iface_output</title>
<path fill="none" stroke="black" d="M1929.67,-791C1937.26,-791 1945.45,-791 1953.53,-791"/>
<polygon fill="black" stroke="black" points="1953.28,-794.5 1963.28,-791 1953.28,-787.5 1953.28,-794.5"/>
</g>
<!-- l2_redirect -->
<g id="node9" class="node">
<title>l2_redirect</title>
<polygon fill="none" stroke="dodgerblue" points="1642.09,-126 1569.94,-126 1569.94,-90 1642.09,-90 1642.09,-126"/>
<text xml:space="preserve" text-anchor="middle" x="1606.01" y="-104.3" font-family="sans" font-size="11.00">l2_redirect</text>
</g>
<!-- lacp_output -->
<g id="node11" class="node">
<title>lacp_output</title>
<polygon fill="none" stroke="dodgerblue" points="1802.11,-917 1723.96,-917 1723.96,-881 1802.11,-881 1802.11,-917"/>
<text xml:space="preserve" text-anchor="middle" x="1763.04" y="-895.3" font-family="sans" font-size="11.00">lacp_output</text>
</g>
<!-- lacp_output&#45;&gt;eth_output -->
<g id="edge10" class="edge">
<title>lacp_output&#45;&gt;eth_output</title>
<path fill="none" stroke="dodgerblue" d="M1802.52,-884.48C1809.81,-880.93 1817.13,-876.76 1823.49,-872 1843.93,-856.69 1862.58,-834.45 1875.46,-817.15"/>
<polygon fill="dodgerblue" stroke="dodgerblue" points="1878.08,-819.5 1881.11,-809.35 1872.41,-815.39 1878.08,-819.5"/>
</g>
<!-- snap_input&#45;&gt;l2_redirect -->
<g id="edge18" class="edge">
<title>snap_input&#45;&gt;l2_redirect</title>
<path fill="none" stroke="black" d="M1141.22,-80.97C1227.93,-86.02 1458.37,-99.45 1558.01,-105.26"/>
<polygon fill="black" stroke="black" points="1557.8,-108.75 1567.99,-105.84 1558.21,-101.77 1557.8,-108.75"/>
</g>
<!-- arp_input_reply -->
<g id="node14" class="node">
<title>arp_input_reply</title>
<polygon fill="none" stroke="dodgerblue" points="433.57,-128 335.17,-128 335.17,-92 433.57,-92 433.57,-128"/>
<text xml:space="preserve" text-anchor="middle" x="384.37" y="-106.3" font-family="sans" font-size="11.00">arp_input_reply</text>
</g>
<!-- arp_input&#45;&gt;arp_input_reply -->
<g id="edge21" class="edge">
<title>arp_input&#45;&gt;arp_input_reply</title>
<path fill="none" stroke="black" d="M282.25,-153.59C295.91,-147.7 313.56,-140.09 330.28,-132.89"/>
<polygon fill="black" stroke="black" points="331.34,-136.24 339.14,-129.07 328.57,-129.81 331.34,-136.24"/>
</g>
<!-- arp_input_request -->
<g id="node15" class="node">
<title>arp_input_request</title>
<polygon fill="none" stroke="dodgerblue" points="440.7,-182 328.05,-182 328.05,-146 440.7,-146 440.7,-182"/>
<text xml:space="preserve" text-anchor="middle" x="384.37" y="-160.3" font-family="sans" font-size="11.00">arp_input_request</text>
</g>
<!-- arp_input&#45;&gt;arp_input_request -->
<g id="edge20" class="edge">
<title>arp_input&#45;&gt;arp_input_request</title>
<path fill="none" stroke="black" d="M287.79,-164C296.52,-164 306.43,-164 316.5,-164"/>
<polygon fill="black" stroke="black" points="316.36,-167.5 326.36,-164 316.36,-160.5 316.36,-167.5"/>
</g>
<!-- arp_output_reply -->
<g id="node16" class="node">
<title>arp_output_reply</title>
<polygon fill="none" stroke="dodgerblue" points="1816.36,-863 1709.71,-863 1709.71,-827 1816.36,-827 1816.36,-863"/>
<text xml:space="preserve" text-anchor="middle" x="1763.04" y="-841.3" font-family="sans" font-size="11.00">arp_output_reply</text>
</g>
<!-- arp_output_reply&#45;&gt;eth_output -->
<g id="edge22" class="edge">
<title>arp_output_reply&#45;&gt;eth_output</title>
<path fill="none" stroke="dodgerblue" d="M1808.18,-826.57C1823.73,-820.08 1841.04,-812.85 1855.98,-806.61"/>
<polygon fill="dodgerblue" stroke="dodgerblue" points="1857.1,-809.94 1864.97,-802.86 1854.4,-803.48 1857.1,-809.94"/>
</g>
<!-- arp_output_request -->
<g id="node17" class="node">
<title>arp_output_request</title>
<polygon fill="none" stroke="dodgerblue" points="1823.49,-809 1702.59,-809 1702.59,-773 1823.49,-773 1823.49,-809"/>
<text xml:space="preserve" text-anchor="middle" x="1763.04" y="-787.3" font-family="sans" font-size="11.00">arp_output_request</text>
</g>
<!-- arp_output_request&#45;&gt;eth_output -->
<g id="edge23" class="edge">
<title>arp_output_request&#45;&gt;eth_output</title>
<path fill="none" stroke="dodgerblue" d="M1823.78,-791C1831.87,-791 1840.06,-791 1847.84,-791"/>
<polygon fill="dodgerblue" stroke="dodgerblue" points="1847.77,-794.5 1857.77,-791 1847.77,-787.5 1847.77,-794.5"/>
</g>
<!-- ospf_redirect -->
<g id="node18" class="node">
<title>ospf_redirect</title>
<ellipse fill="none" stroke="black" cx="1454.61" cy="-131" rx="41.62" ry="18"/>
<text xml:space="preserve" text-anchor="middle" x="1454.61" y="-127.3" font-family="sans" font-size="11.00">ospf_redirect</text>
</g>
<!-- ospf_redirect&#45;&gt;l2_redirect -->
<g id="edge73" class="edge">
<title>ospf_redirect&#45;&gt;l2_redirect</title>
<path fill="none" stroke="black" d="M1494.09,-125.08C1513.62,-122.07 1537.51,-118.39 1558.11,-115.22"/>
<polygon fill="black" stroke="black" points="1558.64,-118.68 1567.99,-113.7 1557.58,-111.76 1558.64,-118.68"/>
</g>
<!-- loopback_input -->
<g id="node19" class="node">
<title>loopback_input</title>
<polygon fill="none" stroke="dodgerblue" points="186.15,-538 90,-538 90,-502 186.15,-502 186.15,-538"/>
<text xml:space="preserve" text-anchor="middle" x="138.07" y="-516.3" font-family="sans" font-size="11.00">loopback_input</text>
</g>
<!-- loopback_input&#45;&gt;ip_input -->
<g id="edge11" class="edge">
<title>loopback_input&#45;&gt;ip_input</title>
<path fill="none" stroke="dodgerblue" d="M153.19,-501.54C174.24,-474.03 213.87,-422.21 237.33,-391.54"/>
<polygon fill="dodgerblue" stroke="dodgerblue" points="239.84,-394.02 243.14,-383.95 234.28,-389.76 239.84,-394.02"/>
</g>
<!-- loopback_input&#45;&gt;ip6_input -->
<g id="edge12" class="edge">
<title>loopback_input&#45;&gt;ip6_input</title>
<path fill="none" stroke="dodgerblue" d="M166.56,-538.32C220.06,-573.27 336.97,-646 383.37,-646 383.37,-646 383.37,-646 898.82,-646 960.36,-646 980.34,-651.22 1035.53,-624 1055.11,-614.34 1072.93,-597.31 1085.68,-582.97"/>
<polygon fill="dodgerblue" stroke="dodgerblue" points="1088.11,-585.51 1091.94,-575.63 1082.79,-580.97 1088.11,-585.51"/>
</g>
<!-- loopback_output -->
<g id="node20" class="node">
<title>loopback_output</title>
<polygon fill="none" stroke="dodgerblue" points="1815.24,-241 1710.84,-241 1710.84,-205 1815.24,-205 1815.24,-241"/>
<text xml:space="preserve" text-anchor="middle" x="1763.04" y="-219.3" font-family="sans" font-size="11.00">loopback_output</text>
</g>
<!-- loop_xvrf -->
<g id="node21" class="node">
<title>loop_xvrf</title>
<ellipse fill="none" stroke="black" cx="999.8" cy="-597" rx="29.83" ry="18"/>
<text xml:space="preserve" text-anchor="middle" x="999.8" y="-593.3" font-family="sans" font-size="11.00">loop_xvrf</text>
</g>
<!-- loop_xvrf&#45;&gt;ip_input -->
<g id="edge13" class="edge">
<title>loop_xvrf&#45;&gt;ip_input</title>
<path fill="none" stroke="black" d="M969.84,-599.44C928.83,-602.68 851.48,-608 785.47,-608 518.59,-608 518.59,-608 518.59,-608 393.95,-608 303.63,-457.51 271.23,-394.37"/>
<polygon fill="black" stroke="black" points="274.48,-393.05 266.87,-385.68 268.23,-396.19 274.48,-393.05"/>
</g>
<!-- loop_xvrf&#45;&gt;ip6_input -->
<g id="edge14" class="edge">
<title>loop_xvrf&#45;&gt;ip6_input</title>
<path fill="none" stroke="black" d="M1025.86,-587.66C1039.06,-582.74 1055.47,-576.62 1069.95,-571.22"/>
<polygon fill="black" stroke="black" points="1071,-574.57 1079.14,-567.79 1068.55,-568.01 1071,-574.57"/>
</g>
<!-- ip_forward -->
<g id="node22" class="node">
<title>ip_forward</title>
<ellipse fill="none" stroke="black" cx="519.59" cy="-413" rx="33.62" ry="18"/>
<text xml:space="preserve" text-anchor="middle" x="519.59" y="-409.3" font-family="sans" font-size="11.00">ip_forward</text>
</g>
<!-- ip_output -->
<g id="node28" class="node">
<title>ip_output</title>
<ellipse fill="none" stroke="black" cx="897.82" cy="-486" rx="30.25" ry="18"/>
<text xml:space="preserve" text-anchor="middle" x="897.82" y="-482.3" font-family="sans" font-size="11.00">ip_output</text>
</g>
<!-- ip_forward&#45;&gt;ip_output -->
<g id="edge27" class="edge">
<title>ip_forward&#45;&gt;ip_output</title>
<path fill="none" stroke="black" d="M541.54,-427C578.91,-450.94 660.38,-498.56 737.37,-513 778.52,-520.72 790.51,-521.16 831.57,-513 842.52,-510.82 853.93,-506.78 864.1,-502.47"/>
<polygon fill="black" stroke="black" points="865.49,-505.68 873.18,-498.39 862.62,-499.3 865.49,-505.68"/>
</g>
<!-- ip_fragment -->
<g id="node23" class="node">
<title>ip_fragment</title>
<ellipse fill="none" stroke="black" cx="784.47" cy="-486" rx="38.25" ry="18"/>
<text xml:space="preserve" text-anchor="middle" x="784.47" y="-482.3" font-family="sans" font-size="11.00">ip_fragment</text>
</g>
<!-- ip_fragment&#45;&gt;ip_output -->
<g id="edge28" class="edge">
<title>ip_fragment&#45;&gt;ip_output</title>
<path fill="none" stroke="black" d="M820.7,-479.67C832.36,-479.17 845.41,-479.12 857.37,-479.51"/>
<polygon fill="black" stroke="black" points="857.2,-483.01 867.35,-479.98 857.53,-476.02 857.2,-483.01"/>
</g>
<!-- ip_hold -->
<g id="node24" class="node">
<title>ip_hold</title>
<polygon fill="none" stroke="dodgerblue" points="1026.8,-558 972.8,-558 972.8,-522 1026.8,-522 1026.8,-558"/>
<text xml:space="preserve" text-anchor="middle" x="999.8" y="-536.3" font-family="sans" font-size="11.00">ip_hold</text>
</g>
<!-- ip_input&#45;&gt;ip_forward -->
<g id="edge29" class="edge">
<title>ip_input&#45;&gt;ip_forward</title>
<path fill="none" stroke="black" d="M271.92,-382.25C284.92,-395.38 305.69,-413.37 328.05,-421 377.53,-437.88 438.47,-430.89 477.9,-423.06"/>
<polygon fill="black" stroke="black" points="478.37,-426.53 487.43,-421.05 476.93,-419.68 478.37,-426.53"/>
</g>
<!-- ip_input_local -->
<g id="node27" class="node">
<title>ip_input_local</title>
<ellipse fill="none" stroke="black" cx="519.59" cy="-248" rx="42.89" ry="18"/>
<text xml:space="preserve" text-anchor="middle" x="519.59" y="-244.3" font-family="sans" font-size="11.00">ip_input_local</text>
</g>
<!-- ip_input&#45;&gt;ip_input_local -->
<g id="edge32" class="edge">
<title>ip_input&#45;&gt;ip_input_local</title>
<path fill="none" stroke="black" d="M266.85,-349.78C278.1,-329.56 299.62,-296.66 328.05,-280 369.8,-255.54 425,-248.48 465.24,-246.99"/>
<polygon fill="black" stroke="black" points="465.27,-250.49 475.17,-246.73 465.09,-243.49 465.27,-250.49"/>
</g>
<!-- ip_input&#45;&gt;ip_output -->
<g id="edge31" class="edge">
<title>ip_input&#45;&gt;ip_output</title>
<path fill="none" stroke="black" d="M269.21,-383.36C281.57,-400.23 303.1,-425.99 328.05,-440 490.47,-531.19 552.2,-509.88 737.37,-530 778.99,-534.52 791.53,-542.24 831.57,-530 846.06,-525.57 860.25,-516.72 871.67,-508.1"/>
<polygon fill="black" stroke="black" points="873.73,-510.94 879.38,-501.97 869.38,-505.46 873.73,-510.94"/>
</g>
<!-- dnat44_dynamic -->
<g id="node37" class="node">
<title>dnat44_dynamic</title>
<ellipse fill="none" stroke="black" cx="384.37" cy="-394" rx="52.15" ry="18"/>
<text xml:space="preserve" text-anchor="middle" x="384.37" y="-390.3" font-family="sans" font-size="11.00">dnat44_dynamic</text>
</g>
<!-- ip_input&#45;&gt;dnat44_dynamic -->
<g id="edge30" class="edge">
<title>ip_input&#45;&gt;dnat44_dynamic</title>
<path fill="none" stroke="black" d="M283.15,-372.4C296.2,-375.21 312.71,-378.77 328.55,-382.18"/>
<polygon fill="black" stroke="black" points="327.36,-385.51 337.87,-384.19 328.83,-378.66 327.36,-385.51"/>
</g>
<!-- dnat44_static -->
<g id="node38" class="node">
<title>dnat44_static</title>
<ellipse fill="none" stroke="black" cx="384.37" cy="-340" rx="43.31" ry="18"/>
<text xml:space="preserve" text-anchor="middle" x="384.37" y="-336.3" font-family="sans" font-size="11.00">dnat44_static</text>
</g>
<!-- ip_input&#45;&gt;dnat44_static -->
<g id="edge33" class="edge">
<title>ip_input&#45;&gt;dnat44_static</title>
<path fill="none" stroke="black" d="M283.15,-361.6C297.79,-358.45 316.79,-354.35 334.29,-350.58"/>
<polygon fill="black" stroke="black" points="335.01,-354.01 344.04,-348.48 333.53,-347.16 335.01,-354.01"/>
</g>
<!-- ip_loadbalance -->
<g id="node26" class="node">
<title>ip_loadbalance</title>
<ellipse fill="none" stroke="black" cx="784.47" cy="-432" rx="47.1" ry="18"/>
<text xml:space="preserve" text-anchor="middle" x="784.47" y="-428.3" font-family="sans" font-size="11.00">ip_loadbalance</text>
</g>
<!-- ip_loadbalance&#45;&gt;ip_output -->
<g id="edge34" class="edge">
<title>ip_loadbalance&#45;&gt;ip_output</title>
<path fill="none" stroke="black" d="M821.93,-443.3C837.14,-450.07 854.53,-458.64 868.72,-466.42"/>
<polygon fill="black" stroke="black" points="866.67,-469.28 877.1,-471.16 870.12,-463.19 866.67,-469.28"/>
</g>
<!-- ip_input_local&#45;&gt;ospf_redirect -->
<g id="edge38" class="edge">
<title>ip_input_local&#45;&gt;ospf_redirect</title>
<path fill="none" stroke="black" d="M549.59,-234.71C564,-228.66 581.84,-221.97 598.47,-218 896.76,-146.73 1267.22,-133.82 1401.75,-131.5"/>
<polygon fill="black" stroke="black" points="1401.45,-135.01 1411.39,-131.35 1401.34,-128.01 1401.45,-135.01"/>
</g>
<!-- ipip_input -->
<g id="node35" class="node">
<title>ipip_input</title>
<ellipse fill="none" stroke="black" cx="649.92" cy="-110" rx="31.1" ry="18"/>
<text xml:space="preserve" text-anchor="middle" x="649.92" y="-106.3" font-family="sans" font-size="11.00">ipip_input</text>
</g>
<!-- ip_input_local&#45;&gt;ipip_input -->
<g id="edge36" class="edge">
<title>ip_input_local&#45;&gt;ipip_input</title>
<path fill="none" stroke="black" d="M544,-233.13C550.53,-228.22 557.26,-222.38 562.47,-216 585.63,-187.69 574.11,-169.27 598.47,-142 603.37,-136.52 609.42,-131.62 615.62,-127.4"/>
<polygon fill="black" stroke="black" points="617.4,-130.41 624.03,-122.15 613.7,-124.47 617.4,-130.41"/>
</g>
<!-- icmp_input -->
<g id="node41" class="node">
<title>icmp_input</title>
<ellipse fill="none" stroke="black" cx="649.92" cy="-378" rx="34.89" ry="18"/>
<text xml:space="preserve" text-anchor="middle" x="649.92" y="-374.3" font-family="sans" font-size="11.00">icmp_input</text>
</g>
<!-- ip_input_local&#45;&gt;icmp_input -->
<g id="edge35" class="edge">
<title>ip_input_local&#45;&gt;icmp_input</title>
<path fill="none" stroke="black" d="M537.1,-264.73C559.48,-287.4 599.59,-328.03 625.19,-353.96"/>
<polygon fill="black" stroke="black" points="622.7,-356.41 632.21,-361.07 627.68,-351.5 622.7,-356.41"/>
</g>
<!-- l4_input_local -->
<g id="node52" class="node">
<title>l4_input_local</title>
<ellipse fill="none" stroke="black" cx="1454.61" cy="-223" rx="42.89" ry="18"/>
<text xml:space="preserve" text-anchor="middle" x="1454.61" y="-219.3" font-family="sans" font-size="11.00">l4_input_local</text>
</g>
<!-- ip_input_local&#45;&gt;l4_input_local -->
<g id="edge37" class="edge">
<title>ip_input_local&#45;&gt;l4_input_local</title>
<path fill="none" stroke="black" d="M559.18,-240.81C610.29,-231.94 703.31,-218 783.47,-218 783.47,-218 783.47,-218 1000.8,-218 1145.16,-218 1315.38,-220.57 1400.1,-222.03"/>
<polygon fill="black" stroke="black" points="1399.9,-225.52 1409.96,-222.2 1400.03,-218.52 1399.9,-225.52"/>
</g>
<!-- ip_output&#45;&gt;eth_output -->
<g id="edge39" class="edge">
<title>ip_output&#45;&gt;eth_output</title>
<path fill="none" stroke="black" d="M903.59,-504.07C911.85,-532.47 931.17,-588.01 964.07,-624 1013.24,-677.76 1032.57,-707 1105.41,-707 1105.41,-707 1105.41,-707 1318.11,-707 1544.15,-707 1603.96,-710.16 1823.49,-764 1834.55,-766.71 1846.22,-770.73 1856.79,-774.84"/>
<polygon fill="black" stroke="black" points="1855.35,-778.03 1865.93,-778.54 1857.98,-771.54 1855.35,-778.03"/>
</g>
<!-- ip_output&#45;&gt;loop_xvrf -->
<g id="edge42" class="edge">
<title>ip_output&#45;&gt;loop_xvrf</title>
<path fill="none" stroke="black" d="M910.76,-502.55C923.27,-519.44 943.87,-546.09 964.07,-567 966.68,-569.69 969.49,-572.41 972.36,-575.05"/>
<polygon fill="black" stroke="black" points="969.99,-577.63 979.8,-581.63 974.63,-572.38 969.99,-577.63"/>
</g>
<!-- ip_output&#45;&gt;ip_fragment -->
<g id="edge41" class="edge">
<title>ip_output&#45;&gt;ip_fragment</title>
<path fill="none" stroke="black" d="M868.87,-491.94C857.69,-492.65 844.51,-492.89 831.96,-492.67"/>
<polygon fill="black" stroke="black" points="832.32,-489.18 822.22,-492.37 832.11,-496.17 832.32,-489.18"/>
</g>
<!-- ip_output&#45;&gt;ip_hold -->
<g id="edge40" class="edge">
<title>ip_output&#45;&gt;ip_hold</title>
<path fill="none" stroke="black" d="M921.01,-497.98C933.23,-504.59 948.7,-512.94 962.62,-520.46"/>
<polygon fill="black" stroke="black" points="960.62,-523.36 971.09,-525.03 963.95,-517.2 960.62,-523.36"/>
</g>
<!-- ip_output&#45;&gt;ip_loadbalance -->
<g id="edge43" class="edge">
<title>ip_output&#45;&gt;ip_loadbalance</title>
<path fill="none" stroke="black" d="M869.75,-478.76C853.92,-472.13 833.85,-462.49 817.27,-453.59"/>
<polygon fill="black" stroke="black" points="819.24,-450.68 808.79,-448.9 815.86,-456.8 819.24,-450.68"/>
</g>
<!-- ipip_output -->
<g id="node36" class="node">
<title>ipip_output</title>
<ellipse fill="none" stroke="black" cx="999.8" cy="-486" rx="35.73" ry="18"/>
<text xml:space="preserve" text-anchor="middle" x="999.8" y="-482.3" font-family="sans" font-size="11.00">ipip_output</text>
</g>
<!-- ip_output&#45;&gt;ipip_output -->
<g id="edge44" class="edge">
<title>ip_output&#45;&gt;ipip_output</title>
<path fill="none" stroke="black" d="M926.67,-479.88C935.38,-479.35 945.21,-479.16 954.75,-479.29"/>
<polygon fill="black" stroke="black" points="954.54,-482.79 964.63,-479.58 954.74,-475.79 954.54,-482.79"/>
</g>
<!-- sr6_output -->
<g id="node40" class="node">
<title>sr6_output</title>
<ellipse fill="none" stroke="black" cx="1894.37" cy="-543" rx="34.46" ry="18"/>
<text xml:space="preserve" text-anchor="middle" x="1894.37" y="-539.3" font-family="sans" font-size="11.00">sr6_output</text>
</g>
<!-- ip_output&#45;&gt;sr6_output -->
<g id="edge45" class="edge">
<title>ip_output&#45;&gt;sr6_output</title>
<path fill="none" stroke="black" d="M915.91,-471.45C976.65,-420.83 1189.66,-252.43 1399.79,-196 1490.72,-171.58 1750.63,-136.36 1823.49,-196 1872.57,-236.18 1887.94,-437.24 1892.05,-513.55"/>
<polygon fill="black" stroke="black" points="1888.53,-513.37 1892.54,-523.18 1895.52,-513.01 1888.53,-513.37"/>
</g>
<!-- ip6_forward -->
<g id="node29" class="node">
<title>ip6_forward</title>
<ellipse fill="none" stroke="black" cx="1317.11" cy="-623" rx="37.41" ry="18"/>
<text xml:space="preserve" text-anchor="middle" x="1317.11" y="-619.3" font-family="sans" font-size="11.00">ip6_forward</text>
</g>
<!-- ip6_output -->
<g id="node34" class="node">
<title>ip6_output</title>
<ellipse fill="none" stroke="black" cx="1763.04" cy="-570" rx="34.04" ry="18"/>
<text xml:space="preserve" text-anchor="middle" x="1763.04" y="-566.3" font-family="sans" font-size="11.00">ip6_output</text>
</g>
<!-- ip6_forward&#45;&gt;ip6_output -->
<g id="edge52" class="edge">
<title>ip6_forward&#45;&gt;ip6_output</title>
<path fill="none" stroke="black" d="M1354.72,-625.16C1418.74,-628.1 1554.88,-630.56 1666.59,-607 1687.18,-602.66 1709.15,-594.41 1726.81,-586.81"/>
<polygon fill="black" stroke="black" points="1728.09,-590.07 1735.81,-582.81 1725.25,-583.67 1728.09,-590.07"/>
</g>
<!-- ip6_hold -->
<g id="node30" class="node">
<title>ip6_hold</title>
<polygon fill="none" stroke="dodgerblue" points="1924.07,-615 1864.67,-615 1864.67,-579 1924.07,-579 1924.07,-615"/>
<text xml:space="preserve" text-anchor="middle" x="1894.37" y="-593.3" font-family="sans" font-size="11.00">ip6_hold</text>
</g>
<!-- ip6_input&#45;&gt;ip6_forward -->
<g id="edge53" class="edge">
<title>ip6_input&#45;&gt;ip6_forward</title>
<path fill="none" stroke="black" d="M1129.25,-569.8C1142.78,-576.73 1160.69,-585.24 1177.3,-591 1207.56,-601.5 1242.73,-609.56 1270.09,-614.97"/>
<polygon fill="black" stroke="black" points="1269.34,-618.39 1279.82,-616.84 1270.66,-611.51 1269.34,-618.39"/>
</g>
<!-- ip6_input_local -->
<g id="node33" class="node">
<title>ip6_input_local</title>
<ellipse fill="none" stroke="black" cx="1317.11" cy="-439" rx="46.68" ry="18"/>
<text xml:space="preserve" text-anchor="middle" x="1317.11" y="-435.3" font-family="sans" font-size="11.00">ip6_input_local</text>
</g>
<!-- ip6_input&#45;&gt;ip6_input_local -->
<g id="edge55" class="edge">
<title>ip6_input&#45;&gt;ip6_input_local</title>
<path fill="none" stroke="black" d="M1128.57,-545.93C1164.17,-525.64 1236.4,-484.45 1280.1,-459.54"/>
<polygon fill="black" stroke="black" points="1281.76,-462.62 1288.71,-454.63 1278.29,-456.54 1281.76,-462.62"/>
</g>
<!-- ip6_input&#45;&gt;ip6_output -->
<g id="edge54" class="edge">
<title>ip6_input&#45;&gt;ip6_output</title>
<path fill="none" stroke="black" d="M1135.92,-559.81C1218.2,-564.83 1463.17,-578.26 1666.59,-574 1683.27,-573.65 1701.57,-572.96 1717.65,-572.25"/>
<polygon fill="black" stroke="black" points="1717.58,-575.75 1727.4,-571.8 1717.25,-568.76 1717.58,-575.75"/>
</g>
<!-- sr6_local -->
<g id="node39" class="node">
<title>sr6_local</title>
<ellipse fill="none" stroke="black" cx="1205.87" cy="-452" rx="28.57" ry="18"/>
<text xml:space="preserve" text-anchor="middle" x="1205.87" y="-448.3" font-family="sans" font-size="11.00">sr6_local</text>
</g>
<!-- ip6_input&#45;&gt;sr6_local -->
<g id="edge56" class="edge">
<title>ip6_input&#45;&gt;sr6_local</title>
<path fill="none" stroke="black" d="M1118.59,-541.35C1133.29,-523 1159.56,-493.92 1179.26,-473.83"/>
<polygon fill="black" stroke="black" points="1181.59,-476.45 1186.18,-466.9 1176.64,-471.5 1181.59,-476.45"/>
</g>
<!-- ip6_loadbalance -->
<g id="node32" class="node">
<title>ip6_loadbalance</title>
<ellipse fill="none" stroke="black" cx="1606.01" cy="-547" rx="50.89" ry="18"/>
<text xml:space="preserve" text-anchor="middle" x="1606.01" y="-543.3" font-family="sans" font-size="11.00">ip6_loadbalance</text>
</g>
<!-- ip6_loadbalance&#45;&gt;ip6_output -->
<g id="edge57" class="edge">
<title>ip6_loadbalance&#45;&gt;ip6_output</title>
<path fill="none" stroke="black" d="M1656.92,-548.05C1678.23,-550.57 1702.74,-554.34 1722.73,-558.21"/>
<polygon fill="black" stroke="black" points="1721.94,-561.62 1732.43,-560.18 1723.33,-554.76 1721.94,-561.62"/>
</g>
<!-- ip6_input_local&#45;&gt;ospf_redirect -->
<g id="edge60" class="edge">
<title>ip6_input_local&#45;&gt;ospf_redirect</title>
<path fill="none" stroke="black" d="M1321.85,-420.68C1330.87,-378.87 1356.39,-273.97 1399.79,-196 1407.8,-181.62 1419.14,-167.34 1429.36,-155.84"/>
<polygon fill="black" stroke="black" points="1431.67,-158.49 1435.85,-148.75 1426.51,-153.76 1431.67,-158.49"/>
</g>
<!-- icmp6_input -->
<g id="node44" class="node">
<title>icmp6_input</title>
<polygon fill="none" stroke="dodgerblue" points="1494.81,-457 1414.41,-457 1414.41,-421 1494.81,-421 1494.81,-457"/>
<text xml:space="preserve" text-anchor="middle" x="1454.61" y="-435.3" font-family="sans" font-size="11.00">icmp6_input</text>
</g>
<!-- ip6_input_local&#45;&gt;icmp6_input -->
<g id="edge58" class="edge">
<title>ip6_input_local&#45;&gt;icmp6_input</title>
<path fill="none" stroke="black" d="M1363.99,-439C1376.45,-439 1390.02,-439 1402.74,-439"/>
<polygon fill="black" stroke="black" points="1402.61,-442.5 1412.61,-439 1402.61,-435.5 1402.61,-442.5"/>
</g>
<!-- ip6_input_local&#45;&gt;l4_input_local -->
<g id="edge59" class="edge">
<title>ip6_input_local&#45;&gt;l4_input_local</title>
<path fill="none" stroke="black" d="M1321.6,-420.83C1329.48,-384.24 1351.8,-300.8 1399.79,-250 1403.23,-246.35 1407.28,-243.12 1411.58,-240.29"/>
<polygon fill="black" stroke="black" points="1413.05,-243.48 1419.95,-235.44 1409.54,-237.42 1413.05,-243.48"/>
</g>
<!-- ip6_output&#45;&gt;eth_output -->
<g id="edge61" class="edge">
<title>ip6_output&#45;&gt;eth_output</title>
<path fill="none" stroke="black" d="M1774.18,-587.34C1796.61,-625.67 1850.55,-717.82 1877.49,-763.87"/>
<polygon fill="black" stroke="black" points="1874.43,-765.57 1882.51,-772.43 1880.47,-762.03 1874.43,-765.57"/>
</g>
<!-- ip6_output&#45;&gt;loop_xvrf -->
<g id="edge63" class="edge">
<title>ip6_output&#45;&gt;loop_xvrf</title>
<path fill="none" stroke="black" d="M1742.69,-584.94C1724.16,-598.49 1694.91,-618 1666.59,-629 1577.63,-663.56 1551.05,-669 1455.61,-669 1204.87,-669 1204.87,-669 1204.87,-669 1140.2,-669 1070.25,-636.45 1031.34,-615.12"/>
<polygon fill="black" stroke="black" points="1033.44,-612.29 1023,-610.45 1030.01,-618.39 1033.44,-612.29"/>
</g>
<!-- ip6_output&#45;&gt;ip6_hold -->
<g id="edge62" class="edge">
<title>ip6_output&#45;&gt;ip6_hold</title>
<path fill="none" stroke="black" d="M1795.34,-576.54C1812.8,-580.18 1834.73,-584.76 1853.41,-588.66"/>
<polygon fill="black" stroke="black" points="1852.58,-592.06 1863.08,-590.68 1854.01,-585.21 1852.58,-592.06"/>
</g>
<!-- ip6_output&#45;&gt;ip6_loadbalance -->
<g id="edge64" class="edge">
<title>ip6_output&#45;&gt;ip6_loadbalance</title>
<path fill="none" stroke="black" d="M1728.54,-570.7C1707.62,-568.75 1680.31,-564.93 1656.88,-560.75"/>
<polygon fill="black" stroke="black" points="1657.69,-557.34 1647.22,-558.96 1656.41,-564.22 1657.69,-557.34"/>
</g>
<!-- ip6_output&#45;&gt;sr6_output -->
<g id="edge65" class="edge">
<title>ip6_output&#45;&gt;sr6_output</title>
<path fill="none" stroke="black" d="M1790.52,-558.9C1807.12,-554.26 1828.96,-549.41 1848.23,-545.95"/>
<polygon fill="black" stroke="black" points="1848.76,-549.41 1858.04,-544.3 1847.6,-542.51 1848.76,-549.41"/>
</g>
<!-- ipip_input&#45;&gt;ip_input -->
<g id="edge68" class="edge">
<title>ipip_input&#45;&gt;ip_input</title>
<path fill="none" stroke="black" d="M623.1,-119.77C551.08,-147.15 351.73,-224.05 328.05,-245 298.96,-270.73 279.01,-311.6 268.08,-338.85"/>
<polygon fill="black" stroke="black" points="264.94,-337.26 264.61,-347.85 271.47,-339.77 264.94,-337.26"/>
</g>
<!-- ipip_output&#45;&gt;ip_output -->
<g id="edge69" class="edge">
<title>ipip_output&#45;&gt;ip_output</title>
<path fill="none" stroke="black" d="M966.15,-492.38C957.18,-492.78 947.36,-492.86 938.07,-492.61"/>
<polygon fill="black" stroke="black" points="938.32,-489.12 928.18,-492.19 938.03,-496.11 938.32,-489.12"/>
</g>
<!-- dnat44_dynamic&#45;&gt;ip_forward -->
<g id="edge74" class="edge">
<title>dnat44_dynamic&#45;&gt;ip_forward</title>
<path fill="none" stroke="black" d="M433.09,-400.81C446.83,-402.77 461.75,-404.89 475.21,-406.81"/>
<polygon fill="black" stroke="black" points="474.71,-410.28 485.11,-408.22 475.7,-403.35 474.71,-410.28"/>
</g>
<!-- dnat44_dynamic&#45;&gt;ip_input_local -->
<g id="edge75" class="edge">
<title>dnat44_dynamic&#45;&gt;ip_input_local</title>
<path fill="none" stroke="black" d="M420.22,-380.54C427.45,-376.81 434.69,-372.3 440.7,-367 469.84,-341.31 492.58,-302.25 505.78,-275.96"/>
<polygon fill="black" stroke="black" points="508.79,-277.77 510.02,-267.25 502.5,-274.71 508.79,-277.77"/>
</g>
<!-- dnat44_static&#45;&gt;ip_forward -->
<g id="edge76" class="edge">
<title>dnat44_static&#45;&gt;ip_forward</title>
<path fill="none" stroke="black" d="M414.02,-353.45C422.67,-357.65 432.14,-362.39 440.7,-367 456.17,-375.32 472.99,-385.16 487.02,-393.59"/>
<polygon fill="black" stroke="black" points="485.03,-396.47 495.4,-398.66 488.66,-390.49 485.03,-396.47"/>
</g>
<!-- dnat44_static&#45;&gt;ip_input_local -->
<g id="edge77" class="edge">
<title>dnat44_static&#45;&gt;ip_input_local</title>
<path fill="none" stroke="black" d="M407.67,-324.6C429.38,-309.61 462.58,-286.68 487,-269.81"/>
<polygon fill="black" stroke="black" points="488.73,-272.87 494.97,-264.31 484.75,-267.11 488.73,-272.87"/>
</g>
<!-- sr6_local&#45;&gt;ip_input -->
<g id="edge78" class="edge">
<title>sr6_local&#45;&gt;ip_input</title>
<path fill="none" stroke="black" d="M1194.34,-435.09C1167.52,-394.33 1092.21,-294 1000.8,-294 518.59,-294 518.59,-294 518.59,-294 433.48,-294 407.13,-281.56 328.05,-313 310.44,-320 293.54,-332.81 280.77,-344.2"/>
<polygon fill="black" stroke="black" points="278.68,-341.37 273.73,-350.74 283.44,-346.5 278.68,-341.37"/>
</g>
<!-- sr6_local&#45;&gt;ip6_input -->
<g id="edge79" class="edge">
<title>sr6_local&#45;&gt;ip6_input</title>
<path fill="none" stroke="black" d="M1193.78,-468.54C1179.16,-486.8 1153,-515.78 1133.29,-535.9"/>
<polygon fill="black" stroke="black" points="1130.94,-533.3 1126.36,-542.85 1135.9,-538.24 1130.94,-533.3"/>
</g>
<!-- sr6_local&#45;&gt;ip6_input_local -->
<g id="edge80" class="edge">
<title>sr6_local&#45;&gt;ip6_input_local</title>
<path fill="none" stroke="black" d="M1234.43,-448.72C1242.43,-447.77 1251.47,-446.69 1260.54,-445.61"/>
<polygon fill="black" stroke="black" points="1260.95,-449.09 1270.47,-444.43 1260.13,-442.14 1260.95,-449.09"/>
</g>
<!-- sr6_output&#45;&gt;ip6_output -->
<g id="edge81" class="edge">
<title>sr6_output&#45;&gt;ip6_output</title>
<path fill="none" stroke="black" d="M1866.69,-554.15C1849.96,-558.82 1827.99,-563.69 1808.66,-567.14"/>
<polygon fill="black" stroke="black" points="1808.12,-563.68 1798.84,-568.78 1809.28,-570.58 1808.12,-563.68"/>
</g>
<!-- icmp_output -->
<g id="node43" class="node">
<title>icmp_output</title>
<ellipse fill="none" stroke="black" cx="784.47" cy="-378" rx="39.52" ry="18"/>
<text xml:space="preserve" text-anchor="middle" x="784.47" y="-374.3" font-family="sans" font-size="11.00">icmp_output</text>
</g>
<!-- icmp_input&#45;&gt;icmp_output -->
<g id="edge24" class="edge">
<title>icmp_input&#45;&gt;icmp_output</title>
<path fill="none" stroke="black" d="M685.06,-378C699.75,-378 717.22,-378 733.33,-378"/>
<polygon fill="black" stroke="black" points="733.25,-381.5 743.25,-378 733.25,-374.5 733.25,-381.5"/>
</g>
<!-- icmp_local_send -->
<g id="node42" class="node">
<title>icmp_local_send</title>
<polygon fill="none" stroke="dodgerblue" points="701.37,-450 598.47,-450 598.47,-414 701.37,-414 701.37,-450"/>
<text xml:space="preserve" text-anchor="middle" x="649.92" y="-428.3" font-family="sans" font-size="11.00">icmp_local_send</text>
</g>
<!-- icmp_local_send&#45;&gt;icmp_output -->
<g id="edge25" class="edge">
<title>icmp_local_send&#45;&gt;icmp_output</title>
<path fill="none" stroke="dodgerblue" d="M696.17,-413.57C711.62,-407.27 728.77,-400.29 743.75,-394.18"/>
<polygon fill="dodgerblue" stroke="dodgerblue" points="744.88,-397.5 752.82,-390.49 742.24,-391.02 744.88,-397.5"/>
</g>
<!-- icmp_output&#45;&gt;ip_output -->
<g id="edge26" class="edge">
<title>icmp_output&#45;&gt;ip_output</title>
<path fill="none" stroke="black" d="M811.94,-391.3C818.67,-395.26 825.67,-399.91 831.57,-405 850.09,-420.96 867.28,-442.7 879.36,-459.64"/>
<polygon fill="black" stroke="black" points="876.41,-461.53 884.99,-467.74 882.15,-457.53 876.41,-461.53"/>
</g>
<!-- icmp6_output -->
<g id="node46" class="node">
<title>icmp6_output</title>
<ellipse fill="none" stroke="black" cx="1606.01" cy="-331" rx="43.31" ry="18"/>
<text xml:space="preserve" text-anchor="middle" x="1606.01" y="-327.3" font-family="sans" font-size="11.00">icmp6_output</text>
</g>
<!-- icmp6_input&#45;&gt;icmp6_output -->
<g id="edge46" class="edge">
<title>icmp6_input&#45;&gt;icmp6_output</title>
<path fill="none" stroke="dodgerblue" d="M1495.09,-422.25C1500.19,-419.23 1505.13,-415.81 1509.44,-412 1531.05,-392.9 1523.46,-376.67 1545.44,-358 1550.2,-353.96 1555.66,-350.4 1561.31,-347.32"/>
<polygon fill="dodgerblue" stroke="dodgerblue" points="1562.78,-350.5 1570.2,-342.93 1559.68,-344.22 1562.78,-350.5"/>
</g>
<!-- ndp_na_input -->
<g id="node47" class="node">
<title>ndp_na_input</title>
<polygon fill="none" stroke="dodgerblue" points="1649.21,-457 1562.81,-457 1562.81,-421 1649.21,-421 1649.21,-457"/>
<text xml:space="preserve" text-anchor="middle" x="1606.01" y="-435.3" font-family="sans" font-size="11.00">ndp_na_input</text>
</g>
<!-- icmp6_input&#45;&gt;ndp_na_input -->
<g id="edge48" class="edge">
<title>icmp6_input&#45;&gt;ndp_na_input</title>
<path fill="none" stroke="dodgerblue" d="M1495.26,-439C1512.36,-439 1532.63,-439 1551.07,-439"/>
<polygon fill="dodgerblue" stroke="dodgerblue" points="1551.05,-442.5 1561.05,-439 1551.05,-435.5 1551.05,-442.5"/>
</g>
<!-- ndp_ns_input -->
<g id="node49" class="node">
<title>ndp_ns_input</title>
<polygon fill="none" stroke="dodgerblue" points="1648.84,-403 1563.19,-403 1563.19,-367 1648.84,-367 1648.84,-403"/>
<text xml:space="preserve" text-anchor="middle" x="1606.01" y="-381.3" font-family="sans" font-size="11.00">ndp_ns_input</text>
</g>
<!-- icmp6_input&#45;&gt;ndp_ns_input -->
<g id="edge47" class="edge">
<title>icmp6_input&#45;&gt;ndp_ns_input</title>
<path fill="none" stroke="dodgerblue" d="M1495.26,-424.67C1512.67,-418.38 1533.38,-410.89 1552.08,-404.13"/>
<polygon fill="dodgerblue" stroke="dodgerblue" points="1553.19,-407.45 1561.4,-400.76 1550.81,-400.87 1553.19,-407.45"/>
</g>
<!-- ndp_rs_input -->
<g id="node51" class="node">
<title>ndp_rs_input</title>
<polygon fill="none" stroke="dodgerblue" points="1647.71,-511 1564.31,-511 1564.31,-475 1647.71,-475 1647.71,-511"/>
<text xml:space="preserve" text-anchor="middle" x="1606.01" y="-489.3" font-family="sans" font-size="11.00">ndp_rs_input</text>
</g>
<!-- icmp6_input&#45;&gt;ndp_rs_input -->
<g id="edge49" class="edge">
<title>icmp6_input&#45;&gt;ndp_rs_input</title>
<path fill="none" stroke="dodgerblue" d="M1495.26,-453.33C1513.05,-459.76 1534.26,-467.43 1553.28,-474.3"/>
<polygon fill="dodgerblue" stroke="dodgerblue" points="1551.86,-477.51 1562.46,-477.62 1554.24,-470.93 1551.86,-477.51"/>
</g>
<!-- icmp6_local_send -->
<g id="node45" class="node">
<title>icmp6_local_send</title>
<polygon fill="none" stroke="dodgerblue" points="1509.44,-349 1399.79,-349 1399.79,-313 1509.44,-313 1509.44,-349"/>
<text xml:space="preserve" text-anchor="middle" x="1454.61" y="-327.3" font-family="sans" font-size="11.00">icmp6_local_send</text>
</g>
<!-- icmp6_local_send&#45;&gt;icmp6_output -->
<g id="edge50" class="edge">
<title>icmp6_local_send&#45;&gt;icmp6_output</title>
<path fill="none" stroke="dodgerblue" d="M1509.55,-331C1523.13,-331 1537.71,-331 1551.28,-331"/>
<polygon fill="dodgerblue" stroke="dodgerblue" points="1550.89,-334.5 1560.89,-331 1550.89,-327.5 1550.89,-334.5"/>
</g>
<!-- icmp6_output&#45;&gt;ip6_output -->
<g id="edge51" class="edge">
<title>icmp6_output&#45;&gt;ip6_output</title>
<path fill="none" stroke="black" d="M1641.5,-341.62C1650.49,-345.65 1659.61,-351.01 1666.59,-358 1718.79,-410.33 1745.15,-496.28 1755.93,-540.97"/>
<polygon fill="black" stroke="black" points="1752.45,-541.48 1758.11,-550.43 1759.27,-539.9 1752.45,-541.48"/>
</g>
<!-- ndp_na_output -->
<g id="node48" class="node">
<title>ndp_na_output</title>
<polygon fill="none" stroke="dodgerblue" points="1501.94,-295 1407.29,-295 1407.29,-259 1501.94,-259 1501.94,-295"/>
<text xml:space="preserve" text-anchor="middle" x="1454.61" y="-273.3" font-family="sans" font-size="11.00">ndp_na_output</text>
</g>
<!-- ndp_na_output&#45;&gt;icmp6_output -->
<g id="edge66" class="edge">
<title>ndp_na_output&#45;&gt;icmp6_output</title>
<path fill="none" stroke="dodgerblue" d="M1502.07,-293.79C1521.11,-300.67 1543.03,-308.6 1561.74,-315.36"/>
<polygon fill="dodgerblue" stroke="dodgerblue" points="1560.32,-318.57 1570.91,-318.67 1562.7,-311.98 1560.32,-318.57"/>
</g>
<!-- ndp_ns_output -->
<g id="node50" class="node">
<title>ndp_ns_output</title>
<polygon fill="none" stroke="dodgerblue" points="1501.56,-403 1407.66,-403 1407.66,-367 1501.56,-367 1501.56,-403"/>
<text xml:space="preserve" text-anchor="middle" x="1454.61" y="-381.3" font-family="sans" font-size="11.00">ndp_ns_output</text>
</g>
<!-- ndp_ns_output&#45;&gt;icmp6_output -->
<g id="edge67" class="edge">
<title>ndp_ns_output&#45;&gt;icmp6_output</title>
<path fill="none" stroke="dodgerblue" d="M1501.66,-368.36C1520.87,-361.42 1543.05,-353.4 1561.93,-346.57"/>
<polygon fill="dodgerblue" stroke="dodgerblue" points="1562.98,-349.91 1571.2,-343.22 1560.6,-343.33 1562.98,-349.91"/>
</g>
<!-- l4_loopback_output -->
<g id="node53" class="node">
<title>l4_loopback_output</title>
<ellipse fill="none" stroke="black" cx="1606.01" cy="-223" rx="60.57" ry="18"/>
<text xml:space="preserve" text-anchor="middle" x="1606.01" y="-219.3" font-family="sans" font-size="11.00">l4_loopback_output</text>
</g>
<!-- l4_input_local&#45;&gt;l4_loopback_output -->
<g id="edge70" class="edge">
<title>l4_input_local&#45;&gt;l4_loopback_output</title>
<path fill="none" stroke="black" d="M1497.63,-223C1508.93,-223 1521.47,-223 1533.88,-223"/>
<polygon fill="black" stroke="black" points="1533.69,-226.5 1543.69,-223 1533.69,-219.5 1533.69,-226.5"/>
</g>
<!-- dhcp_input -->
<g id="node54" class="node">
<title>dhcp_input</title>
<polygon fill="none" stroke="dodgerblue" points="1642.84,-295 1569.19,-295 1569.19,-259 1642.84,-259 1642.84,-295"/>
<text xml:space="preserve" text-anchor="middle" x="1606.01" y="-273.3" font-family="sans" font-size="11.00">dhcp_input</text>
</g>
<!-- l4_input_local&#45;&gt;dhcp_input -->
<g id="edge71" class="edge">
<title>l4_input_local&#45;&gt;dhcp_input</title>
<path fill="none" stroke="black" d="M1488.03,-234.72C1508.46,-242.1 1535.18,-251.76 1557.93,-259.98"/>
<polygon fill="black" stroke="black" points="1556.71,-263.26 1567.3,-263.37 1559.09,-256.68 1556.71,-263.26"/>
</g>
<!-- l4_loopback_output&#45;&gt;loopback_output -->
<g id="edge72" class="edge">
<title>l4_loopback_output&#45;&gt;loopback_output</title>
<path fill="none" stroke="black" d="M1666.95,-223C1677.59,-223 1688.69,-223 1699.4,-223"/>
<polygon fill="black" stroke="black" points="1699.31,-226.5 1709.31,-223 1699.31,-219.5 1699.31,-226.5"/>
</g>
</g>
</svg>
